G75*
%MOIN*%
%OFA0B0*%
%FSLAX25Y25*%
%IPPOS*%
%LPD*%
%AMOC8*
5,1,8,0,0,1.08239X$1,22.5*
%
%ADD10C,0.00800*%
%ADD11C,0.00600*%
%ADD12C,0.02000*%
%ADD13C,0.00500*%
%ADD14C,0.01000*%
%ADD15C,0.01000*%
%ADD16R,0.41693X0.00157*%
%ADD17R,0.43307X0.00118*%
%ADD18R,0.01890X0.00157*%
%ADD19R,0.00433X0.00157*%
%ADD20R,0.02362X0.00157*%
%ADD21R,0.01457X0.00157*%
%ADD22R,0.01299X0.00157*%
%ADD23R,0.01181X0.00118*%
%ADD24R,0.00866X0.00118*%
%ADD25R,0.00433X0.00118*%
%ADD26R,0.00866X0.00157*%
%ADD27R,0.42598X0.00157*%
%ADD28R,0.00984X0.00157*%
%ADD29R,0.43740X0.00157*%
%ADD30R,0.09213X0.00157*%
%ADD31R,0.00276X0.00157*%
%ADD32R,0.00709X0.00157*%
%ADD33R,0.07008X0.00157*%
%ADD34R,0.00748X0.00118*%
%ADD35R,0.01457X0.00118*%
%ADD36R,0.01614X0.00118*%
%ADD37R,0.00748X0.00157*%
%ADD38R,0.01181X0.00157*%
%ADD39R,0.01024X0.00157*%
%ADD40R,0.00551X0.00118*%
%ADD41R,0.00984X0.00118*%
%ADD42R,0.00591X0.00157*%
%ADD43R,0.00906X0.00157*%
%ADD44R,0.00551X0.00157*%
%ADD45R,0.00906X0.00118*%
%ADD46R,0.00591X0.00118*%
%ADD47R,0.00472X0.00157*%
%ADD48R,0.00709X0.00118*%
%ADD49R,0.00472X0.00118*%
%ADD50R,0.02165X0.00157*%
%ADD51R,0.02638X0.00157*%
%ADD52R,0.02480X0.00157*%
%ADD53R,0.02953X0.00118*%
%ADD54R,0.02638X0.00118*%
%ADD55R,0.03228X0.00157*%
%ADD56R,0.01339X0.00157*%
%ADD57R,0.01299X0.00118*%
%ADD58R,0.01024X0.00118*%
%ADD59R,0.01142X0.00118*%
%ADD60R,0.01142X0.00157*%
%ADD61R,0.01339X0.00118*%
%ADD62R,0.00276X0.00118*%
%ADD63R,0.00315X0.00157*%
%ADD64R,0.00315X0.00118*%
%ADD65R,0.04843X0.00157*%
%ADD66R,0.02756X0.00118*%
%ADD67R,0.05236X0.00118*%
%ADD68R,0.02913X0.00157*%
%ADD69R,0.02047X0.00157*%
%ADD70R,0.05236X0.00157*%
%ADD71R,0.02795X0.00157*%
%ADD72R,0.00157X0.00157*%
%ADD73R,0.05276X0.00157*%
%ADD74R,0.04961X0.00118*%
%ADD75R,0.01772X0.00157*%
%ADD76R,0.03071X0.00157*%
%ADD77R,0.01614X0.00157*%
%ADD78R,0.02008X0.00157*%
%ADD79R,0.03504X0.00157*%
%ADD80R,0.07165X0.00157*%
%ADD81R,0.01575X0.00157*%
%ADD82R,0.01890X0.00118*%
%ADD83R,0.06850X0.00118*%
%ADD84R,0.01732X0.00118*%
%ADD85R,0.06850X0.00157*%
%ADD86R,0.01732X0.00157*%
%ADD87R,0.02323X0.00118*%
%ADD88R,0.03780X0.00118*%
%ADD89R,0.02047X0.00118*%
%ADD90R,0.05551X0.00118*%
%ADD91R,0.02205X0.00118*%
%ADD92R,0.06299X0.00157*%
%ADD93R,0.01929X0.00157*%
%ADD94R,0.08780X0.00157*%
%ADD95R,0.04213X0.00157*%
%ADD96R,0.07717X0.00157*%
%ADD97R,0.02323X0.00157*%
%ADD98R,0.02756X0.00157*%
%ADD99R,0.07283X0.00157*%
%ADD100R,0.04094X0.00118*%
%ADD101R,0.05079X0.00118*%
%ADD102R,0.02165X0.00118*%
%ADD103R,0.04961X0.00157*%
%ADD104R,0.04685X0.00157*%
%ADD105R,0.00157X0.00118*%
%ADD106R,0.01496X0.00157*%
%ADD107R,0.44173X0.00118*%
%ADD108R,0.43425X0.00157*%
%ADD109R,0.12677X0.00157*%
%ADD110R,0.14134X0.00157*%
%ADD111R,0.19528X0.00157*%
%ADD112R,0.09055X0.00157*%
%ADD113R,0.15000X0.00157*%
%ADD114R,0.42717X0.00157*%
%ADD115R,0.08307X0.00118*%
%ADD116R,0.06417X0.00118*%
%ADD117C,0.01600*%
D10*
X0111404Y0098900D02*
X0111404Y0102281D01*
X0115348Y0103381D02*
X0117461Y0103381D01*
X0121404Y0102281D02*
X0121404Y0098900D01*
X0168933Y0100253D02*
X0169483Y0100253D01*
X0168933Y0100253D02*
X0168933Y0094353D01*
X0169483Y0094353D01*
X0177183Y0094353D02*
X0177733Y0094353D01*
X0177733Y0099753D01*
X0177183Y0100253D01*
X0185066Y0104291D02*
X0185066Y0105315D01*
X0188066Y0110315D02*
X0198601Y0110315D01*
X0201601Y0105315D02*
X0201601Y0104291D01*
X0198601Y0099291D02*
X0188066Y0099291D01*
X0188066Y0095315D02*
X0198601Y0095315D01*
X0201601Y0090315D02*
X0201601Y0089291D01*
X0198601Y0084291D02*
X0188066Y0084291D01*
X0185066Y0089291D02*
X0185066Y0090315D01*
X0207282Y0094803D02*
X0207282Y0083870D01*
X0211325Y0083870D01*
X0281054Y0083870D02*
X0308676Y0083870D01*
X0308676Y0155736D01*
X0281054Y0155736D01*
X0336404Y0150273D02*
X0336404Y0146892D01*
X0340348Y0151373D02*
X0342461Y0151373D01*
X0344804Y0154616D02*
X0344804Y0156949D01*
X0344804Y0158883D02*
X0349004Y0160283D01*
X0344804Y0161683D01*
X0347604Y0156949D02*
X0348071Y0156949D01*
X0348130Y0156947D01*
X0348188Y0156942D01*
X0348246Y0156932D01*
X0348303Y0156920D01*
X0348359Y0156903D01*
X0348414Y0156883D01*
X0348468Y0156860D01*
X0348520Y0156834D01*
X0348571Y0156804D01*
X0348619Y0156771D01*
X0348666Y0156735D01*
X0348710Y0156696D01*
X0348751Y0156655D01*
X0348790Y0156611D01*
X0348826Y0156564D01*
X0348859Y0156516D01*
X0348889Y0156465D01*
X0348915Y0156413D01*
X0348938Y0156359D01*
X0348958Y0156304D01*
X0348975Y0156248D01*
X0348987Y0156191D01*
X0348997Y0156133D01*
X0349002Y0156075D01*
X0349004Y0156016D01*
X0349004Y0154616D01*
X0347604Y0156949D02*
X0347543Y0156947D01*
X0347482Y0156941D01*
X0347422Y0156931D01*
X0347363Y0156917D01*
X0347304Y0156899D01*
X0347247Y0156878D01*
X0347191Y0156853D01*
X0347138Y0156824D01*
X0347086Y0156792D01*
X0347036Y0156756D01*
X0346989Y0156717D01*
X0346944Y0156676D01*
X0346903Y0156631D01*
X0346864Y0156584D01*
X0346828Y0156534D01*
X0346796Y0156483D01*
X0346767Y0156429D01*
X0346742Y0156373D01*
X0346721Y0156316D01*
X0346703Y0156257D01*
X0346689Y0156198D01*
X0346679Y0156138D01*
X0346673Y0156077D01*
X0346671Y0156016D01*
X0346671Y0154616D01*
X0344804Y0154616D01*
X0346404Y0150273D02*
X0346404Y0146892D01*
X0351436Y0143583D02*
X0354436Y0143583D01*
X0354436Y0144583D01*
X0354436Y0143583D02*
X0357436Y0143583D01*
X0357436Y0123583D01*
X0354436Y0123583D01*
X0354436Y0122583D01*
X0354436Y0123583D02*
X0351436Y0123583D01*
X0351436Y0143583D01*
X0368246Y0143268D02*
X0368246Y0142358D01*
X0387736Y0142358D01*
X0387736Y0142338D01*
X0387936Y0142338D01*
X0387936Y0143338D01*
X0388136Y0149438D02*
X0388136Y0156138D01*
X0388016Y0161768D02*
X0388016Y0162838D01*
X0387816Y0162838D01*
X0387816Y0162848D01*
X0368256Y0162848D01*
X0368256Y0161958D01*
X0368136Y0156038D02*
X0368136Y0152638D01*
X0378136Y0162638D01*
X0368136Y0152638D02*
X0368136Y0149238D01*
X0348504Y0167349D02*
X0348504Y0168516D01*
X0348505Y0168516D02*
X0348503Y0168581D01*
X0348498Y0168647D01*
X0348489Y0168711D01*
X0348476Y0168776D01*
X0348459Y0168839D01*
X0348440Y0168901D01*
X0348416Y0168963D01*
X0348389Y0169022D01*
X0348359Y0169080D01*
X0348326Y0169137D01*
X0348290Y0169191D01*
X0348250Y0169244D01*
X0348208Y0169294D01*
X0348163Y0169341D01*
X0348116Y0169386D01*
X0348066Y0169428D01*
X0348013Y0169468D01*
X0347959Y0169504D01*
X0347902Y0169537D01*
X0347844Y0169567D01*
X0347785Y0169594D01*
X0347723Y0169618D01*
X0347661Y0169637D01*
X0347598Y0169654D01*
X0347533Y0169667D01*
X0347469Y0169676D01*
X0347403Y0169681D01*
X0347338Y0169683D01*
X0345471Y0169683D01*
X0345406Y0169681D01*
X0345340Y0169676D01*
X0345276Y0169667D01*
X0345211Y0169654D01*
X0345148Y0169637D01*
X0345086Y0169618D01*
X0345024Y0169594D01*
X0344965Y0169567D01*
X0344907Y0169537D01*
X0344850Y0169504D01*
X0344796Y0169468D01*
X0344743Y0169428D01*
X0344693Y0169386D01*
X0344646Y0169341D01*
X0344601Y0169294D01*
X0344559Y0169244D01*
X0344519Y0169191D01*
X0344483Y0169137D01*
X0344450Y0169081D01*
X0344420Y0169022D01*
X0344393Y0168963D01*
X0344369Y0168901D01*
X0344350Y0168839D01*
X0344333Y0168776D01*
X0344320Y0168711D01*
X0344311Y0168647D01*
X0344306Y0168581D01*
X0344304Y0168516D01*
X0344304Y0167349D01*
X0348504Y0167349D01*
X0328881Y0201393D02*
X0328681Y0201393D01*
X0328681Y0201413D01*
X0309191Y0201413D01*
X0309191Y0202323D01*
X0309081Y0208293D02*
X0309081Y0211693D01*
X0319081Y0221693D01*
X0328761Y0221893D02*
X0328761Y0221903D01*
X0309201Y0221903D01*
X0309201Y0221013D01*
X0309081Y0215093D02*
X0309081Y0211693D01*
X0329081Y0208493D02*
X0329081Y0215193D01*
X0328961Y0220823D02*
X0328961Y0221893D01*
X0328761Y0221893D01*
X0328881Y0202393D02*
X0328881Y0201393D01*
X0368246Y0201413D02*
X0368246Y0202323D01*
X0368246Y0201413D02*
X0387736Y0201413D01*
X0387736Y0201393D01*
X0387936Y0201393D01*
X0387936Y0202393D01*
X0388136Y0208493D02*
X0388136Y0215193D01*
X0388016Y0220823D02*
X0388016Y0221893D01*
X0387816Y0221893D01*
X0387816Y0221903D01*
X0368256Y0221903D01*
X0368256Y0221013D01*
X0368136Y0215093D02*
X0368136Y0211693D01*
X0378136Y0221693D01*
X0368136Y0211693D02*
X0368136Y0208293D01*
X0427192Y0208293D02*
X0427192Y0211693D01*
X0437192Y0221693D01*
X0446872Y0221893D02*
X0446872Y0221903D01*
X0427312Y0221903D01*
X0427312Y0221013D01*
X0427192Y0215093D02*
X0427192Y0211693D01*
X0427302Y0202323D02*
X0427302Y0201413D01*
X0446792Y0201413D01*
X0446792Y0201393D01*
X0446992Y0201393D01*
X0446992Y0202393D01*
X0447192Y0208493D02*
X0447192Y0215193D01*
X0447072Y0220823D02*
X0447072Y0221893D01*
X0446872Y0221893D01*
X0486367Y0221903D02*
X0486367Y0221013D01*
X0486367Y0221903D02*
X0505927Y0221903D01*
X0505927Y0221893D01*
X0506127Y0221893D01*
X0506127Y0220823D01*
X0506247Y0215193D02*
X0506247Y0208493D01*
X0506047Y0202393D02*
X0506047Y0201393D01*
X0505847Y0201393D01*
X0505847Y0201413D01*
X0486357Y0201413D01*
X0486357Y0202323D01*
X0486247Y0208293D02*
X0486247Y0211693D01*
X0496247Y0221693D01*
X0486247Y0215093D02*
X0486247Y0211693D01*
X0545302Y0211693D02*
X0545302Y0208293D01*
X0545302Y0211693D02*
X0555302Y0221693D01*
X0564982Y0221893D02*
X0564982Y0221903D01*
X0545422Y0221903D01*
X0545422Y0221013D01*
X0545302Y0215093D02*
X0545302Y0211693D01*
X0545412Y0202323D02*
X0545412Y0201413D01*
X0564902Y0201413D01*
X0564902Y0201393D01*
X0565102Y0201393D01*
X0565102Y0202393D01*
X0565302Y0208493D02*
X0565302Y0215193D01*
X0565182Y0220823D02*
X0565182Y0221893D01*
X0564982Y0221893D01*
X0604477Y0221903D02*
X0604477Y0221013D01*
X0604477Y0221903D02*
X0624037Y0221903D01*
X0624037Y0221893D01*
X0624237Y0221893D01*
X0624237Y0220823D01*
X0624357Y0215193D02*
X0624357Y0208493D01*
X0624157Y0202393D02*
X0624157Y0201393D01*
X0623957Y0201393D01*
X0623957Y0201413D01*
X0604467Y0201413D01*
X0604467Y0202323D01*
X0604357Y0208293D02*
X0604357Y0211693D01*
X0614357Y0221693D01*
X0604357Y0215093D02*
X0604357Y0211693D01*
X0604467Y0260468D02*
X0604467Y0261378D01*
X0604467Y0260468D02*
X0623957Y0260468D01*
X0623957Y0260448D01*
X0624157Y0260448D01*
X0624157Y0261448D01*
X0624357Y0267548D02*
X0624357Y0274248D01*
X0624237Y0279878D02*
X0624237Y0280948D01*
X0624037Y0280948D01*
X0624037Y0280958D01*
X0604477Y0280958D01*
X0604477Y0280068D01*
X0604357Y0274148D02*
X0604357Y0270748D01*
X0614357Y0280748D01*
X0604357Y0270748D02*
X0604357Y0267348D01*
X0565302Y0267548D02*
X0565302Y0274248D01*
X0565182Y0279878D02*
X0565182Y0280948D01*
X0564982Y0280948D01*
X0564982Y0280958D01*
X0545422Y0280958D01*
X0545422Y0280068D01*
X0545302Y0274148D02*
X0545302Y0270748D01*
X0555302Y0280748D01*
X0545302Y0270748D02*
X0545302Y0267348D01*
X0545412Y0261378D02*
X0545412Y0260468D01*
X0564902Y0260468D01*
X0564902Y0260448D01*
X0565102Y0260448D01*
X0565102Y0261448D01*
X0506047Y0261448D02*
X0506047Y0260448D01*
X0505847Y0260448D01*
X0505847Y0260468D01*
X0486357Y0260468D01*
X0486357Y0261378D01*
X0486247Y0267348D02*
X0486247Y0270748D01*
X0496247Y0280748D01*
X0505927Y0280948D02*
X0505927Y0280958D01*
X0486367Y0280958D01*
X0486367Y0280068D01*
X0486247Y0274148D02*
X0486247Y0270748D01*
X0506247Y0267548D02*
X0506247Y0274248D01*
X0506127Y0279878D02*
X0506127Y0280948D01*
X0505927Y0280948D01*
X0505847Y0319503D02*
X0505847Y0319523D01*
X0486357Y0319523D01*
X0486357Y0320433D01*
X0486247Y0326403D02*
X0486247Y0329803D01*
X0496247Y0339803D01*
X0505927Y0340003D02*
X0505927Y0340013D01*
X0486367Y0340013D01*
X0486367Y0339123D01*
X0486247Y0333203D02*
X0486247Y0329803D01*
X0506247Y0326603D02*
X0506247Y0333303D01*
X0506127Y0338933D02*
X0506127Y0340003D01*
X0505927Y0340003D01*
X0506047Y0320503D02*
X0506047Y0319503D01*
X0505847Y0319503D01*
X0545412Y0319523D02*
X0545412Y0320433D01*
X0545412Y0319523D02*
X0564902Y0319523D01*
X0564902Y0319503D01*
X0565102Y0319503D01*
X0565102Y0320503D01*
X0565302Y0326603D02*
X0565302Y0333303D01*
X0565182Y0338933D02*
X0565182Y0340003D01*
X0564982Y0340003D01*
X0564982Y0340013D01*
X0545422Y0340013D01*
X0545422Y0339123D01*
X0545302Y0333203D02*
X0545302Y0329803D01*
X0555302Y0339803D01*
X0545302Y0329803D02*
X0545302Y0326403D01*
X0604357Y0326403D02*
X0604357Y0329803D01*
X0614357Y0339803D01*
X0624037Y0340003D02*
X0624037Y0340013D01*
X0604477Y0340013D01*
X0604477Y0339123D01*
X0604357Y0333203D02*
X0604357Y0329803D01*
X0624357Y0326603D02*
X0624357Y0333303D01*
X0624237Y0338933D02*
X0624237Y0340003D01*
X0624037Y0340003D01*
X0624157Y0320503D02*
X0624157Y0319503D01*
X0623957Y0319503D01*
X0623957Y0319523D01*
X0604467Y0319523D01*
X0604467Y0320433D01*
X0663522Y0320433D02*
X0663522Y0319523D01*
X0683012Y0319523D01*
X0683012Y0319503D01*
X0683212Y0319503D01*
X0683212Y0320503D01*
X0683412Y0326603D02*
X0683412Y0333303D01*
X0683292Y0338933D02*
X0683292Y0340003D01*
X0683092Y0340003D01*
X0683092Y0340013D01*
X0663532Y0340013D01*
X0663532Y0339123D01*
X0663412Y0333203D02*
X0663412Y0329803D01*
X0673412Y0339803D01*
X0663412Y0329803D02*
X0663412Y0326403D01*
X0722467Y0326403D02*
X0722467Y0329803D01*
X0732467Y0339803D01*
X0742147Y0340003D02*
X0742147Y0340013D01*
X0722587Y0340013D01*
X0722587Y0339123D01*
X0722467Y0333203D02*
X0722467Y0329803D01*
X0722577Y0320433D02*
X0722577Y0319523D01*
X0742067Y0319523D01*
X0742067Y0319503D01*
X0742267Y0319503D01*
X0742267Y0320503D01*
X0742467Y0326603D02*
X0742467Y0333303D01*
X0742347Y0338933D02*
X0742347Y0340003D01*
X0742147Y0340003D01*
X0781642Y0340013D02*
X0781642Y0339123D01*
X0781642Y0340013D02*
X0801202Y0340013D01*
X0801202Y0340003D01*
X0801402Y0340003D01*
X0801402Y0338933D01*
X0801522Y0333303D02*
X0801522Y0326603D01*
X0801322Y0320503D02*
X0801322Y0319503D01*
X0801122Y0319503D01*
X0801122Y0319523D01*
X0781632Y0319523D01*
X0781632Y0320433D01*
X0781522Y0326403D02*
X0781522Y0329803D01*
X0791522Y0339803D01*
X0781522Y0333203D02*
X0781522Y0329803D01*
X0840577Y0329803D02*
X0840577Y0326403D01*
X0840577Y0329803D02*
X0850577Y0339803D01*
X0860257Y0340003D02*
X0860257Y0340013D01*
X0840697Y0340013D01*
X0840697Y0339123D01*
X0840577Y0333203D02*
X0840577Y0329803D01*
X0840687Y0320433D02*
X0840687Y0319523D01*
X0860177Y0319523D01*
X0860177Y0319503D01*
X0860377Y0319503D01*
X0860377Y0320503D01*
X0860577Y0326603D02*
X0860577Y0333303D01*
X0860457Y0338933D02*
X0860457Y0340003D01*
X0860257Y0340003D01*
X0899753Y0340013D02*
X0899753Y0339123D01*
X0899753Y0340013D02*
X0919313Y0340013D01*
X0919313Y0340003D01*
X0919513Y0340003D01*
X0919513Y0338933D01*
X0919633Y0333303D02*
X0919633Y0326603D01*
X0919433Y0320503D02*
X0919433Y0319503D01*
X0919233Y0319503D01*
X0919233Y0319523D01*
X0899743Y0319523D01*
X0899743Y0320433D01*
X0899633Y0326403D02*
X0899633Y0329803D01*
X0909633Y0339803D01*
X0899633Y0333203D02*
X0899633Y0329803D01*
X0958688Y0329803D02*
X0958688Y0326403D01*
X0958688Y0329803D02*
X0968688Y0339803D01*
X0978368Y0340003D02*
X0978368Y0340013D01*
X0958808Y0340013D01*
X0958808Y0339123D01*
X0958688Y0333203D02*
X0958688Y0329803D01*
X0958798Y0320433D02*
X0958798Y0319523D01*
X0978288Y0319523D01*
X0978288Y0319503D01*
X0978488Y0319503D01*
X0978488Y0320503D01*
X0978688Y0326603D02*
X0978688Y0333303D01*
X0978568Y0338933D02*
X0978568Y0340003D01*
X0978368Y0340003D01*
X1017863Y0340013D02*
X1017863Y0339123D01*
X1017863Y0340013D02*
X1037423Y0340013D01*
X1037423Y0340003D01*
X1037623Y0340003D01*
X1037623Y0338933D01*
X1037743Y0333303D02*
X1037743Y0326603D01*
X1037543Y0320503D02*
X1037543Y0319503D01*
X1037343Y0319503D01*
X1037343Y0319523D01*
X1017853Y0319523D01*
X1017853Y0320433D01*
X1017743Y0326403D02*
X1017743Y0329803D01*
X1027743Y0339803D01*
X1017743Y0333203D02*
X1017743Y0329803D01*
X1076798Y0329803D02*
X1076798Y0326403D01*
X1076798Y0329803D02*
X1086798Y0339803D01*
X1096478Y0340003D02*
X1096478Y0340013D01*
X1076918Y0340013D01*
X1076918Y0339123D01*
X1076798Y0333203D02*
X1076798Y0329803D01*
X1076908Y0320433D02*
X1076908Y0319523D01*
X1096398Y0319523D01*
X1096398Y0319503D01*
X1096598Y0319503D01*
X1096598Y0320503D01*
X1096798Y0326603D02*
X1096798Y0333303D01*
X1096678Y0338933D02*
X1096678Y0340003D01*
X1096478Y0340003D01*
X1135973Y0340013D02*
X1135973Y0339123D01*
X1135973Y0340013D02*
X1155533Y0340013D01*
X1155533Y0340003D01*
X1155733Y0340003D01*
X1155733Y0338933D01*
X1155853Y0333303D02*
X1155853Y0326603D01*
X1155653Y0320503D02*
X1155653Y0319503D01*
X1155453Y0319503D01*
X1155453Y0319523D01*
X1135963Y0319523D01*
X1135963Y0320433D01*
X1135853Y0326403D02*
X1135853Y0329803D01*
X1145853Y0339803D01*
X1135853Y0333203D02*
X1135853Y0329803D01*
X1194908Y0329803D02*
X1194908Y0326403D01*
X1194908Y0329803D02*
X1204908Y0339803D01*
X1214588Y0340003D02*
X1214588Y0340013D01*
X1195028Y0340013D01*
X1195028Y0339123D01*
X1194908Y0333203D02*
X1194908Y0329803D01*
X1195018Y0320433D02*
X1195018Y0319523D01*
X1214508Y0319523D01*
X1214508Y0319503D01*
X1214708Y0319503D01*
X1214708Y0320503D01*
X1214908Y0326603D02*
X1214908Y0333303D01*
X1214788Y0338933D02*
X1214788Y0340003D01*
X1214588Y0340003D01*
X1254083Y0340013D02*
X1254083Y0339123D01*
X1254083Y0340013D02*
X1273643Y0340013D01*
X1273643Y0340003D01*
X1273843Y0340003D01*
X1273843Y0338933D01*
X1273963Y0333303D02*
X1273963Y0326603D01*
X1273763Y0320503D02*
X1273763Y0319503D01*
X1273563Y0319503D01*
X1273563Y0319523D01*
X1254073Y0319523D01*
X1254073Y0320433D01*
X1253963Y0326403D02*
X1253963Y0329803D01*
X1263963Y0339803D01*
X1253963Y0333203D02*
X1253963Y0329803D01*
X1254073Y0378578D02*
X1254073Y0379488D01*
X1254073Y0378578D02*
X1273563Y0378578D01*
X1273563Y0378558D01*
X1273763Y0378558D01*
X1273763Y0379558D01*
X1273963Y0385658D02*
X1273963Y0392358D01*
X1273843Y0397988D02*
X1273843Y0399058D01*
X1273643Y0399058D01*
X1273643Y0399068D01*
X1254083Y0399068D01*
X1254083Y0398178D01*
X1253963Y0392258D02*
X1253963Y0388858D01*
X1263963Y0398858D01*
X1253963Y0388858D02*
X1253963Y0385458D01*
X1214908Y0385658D02*
X1214908Y0392358D01*
X1214788Y0397988D02*
X1214788Y0399058D01*
X1214588Y0399058D01*
X1214588Y0399068D01*
X1195028Y0399068D01*
X1195028Y0398178D01*
X1194908Y0392258D02*
X1194908Y0388858D01*
X1204908Y0398858D01*
X1194908Y0388858D02*
X1194908Y0385458D01*
X1195018Y0379488D02*
X1195018Y0378578D01*
X1214508Y0378578D01*
X1214508Y0378558D01*
X1214708Y0378558D01*
X1214708Y0379558D01*
X1155653Y0379558D02*
X1155653Y0378558D01*
X1155453Y0378558D01*
X1155453Y0378578D01*
X1135963Y0378578D01*
X1135963Y0379488D01*
X1135853Y0385458D02*
X1135853Y0388858D01*
X1145853Y0398858D01*
X1155533Y0399058D02*
X1155533Y0399068D01*
X1135973Y0399068D01*
X1135973Y0398178D01*
X1135853Y0392258D02*
X1135853Y0388858D01*
X1155853Y0385658D02*
X1155853Y0392358D01*
X1155733Y0397988D02*
X1155733Y0399058D01*
X1155533Y0399058D01*
X1155453Y0437613D02*
X1155453Y0437633D01*
X1135963Y0437633D01*
X1135963Y0438543D01*
X1135853Y0444513D02*
X1135853Y0447913D01*
X1145853Y0457913D01*
X1155533Y0458113D02*
X1155533Y0458123D01*
X1135973Y0458123D01*
X1135973Y0457233D01*
X1135853Y0451313D02*
X1135853Y0447913D01*
X1155853Y0444713D02*
X1155853Y0451413D01*
X1155733Y0457043D02*
X1155733Y0458113D01*
X1155533Y0458113D01*
X1155653Y0438613D02*
X1155653Y0437613D01*
X1155453Y0437613D01*
X1195018Y0437633D02*
X1195018Y0438543D01*
X1195018Y0437633D02*
X1214508Y0437633D01*
X1214508Y0437613D01*
X1214708Y0437613D01*
X1214708Y0438613D01*
X1214908Y0444713D02*
X1214908Y0451413D01*
X1214788Y0457043D02*
X1214788Y0458113D01*
X1214588Y0458113D01*
X1214588Y0458123D01*
X1195028Y0458123D01*
X1195028Y0457233D01*
X1194908Y0451313D02*
X1194908Y0447913D01*
X1204908Y0457913D01*
X1194908Y0447913D02*
X1194908Y0444513D01*
X1253963Y0444513D02*
X1253963Y0447913D01*
X1263963Y0457913D01*
X1273643Y0458113D02*
X1273643Y0458123D01*
X1254083Y0458123D01*
X1254083Y0457233D01*
X1253963Y0451313D02*
X1253963Y0447913D01*
X1273963Y0444713D02*
X1273963Y0451413D01*
X1273843Y0457043D02*
X1273843Y0458113D01*
X1273643Y0458113D01*
X1273763Y0438613D02*
X1273763Y0437613D01*
X1273563Y0437613D01*
X1273563Y0437633D01*
X1254073Y0437633D01*
X1254073Y0438543D01*
X1254073Y0496688D02*
X1254073Y0497598D01*
X1254073Y0496688D02*
X1273563Y0496688D01*
X1273563Y0496668D01*
X1273763Y0496668D01*
X1273763Y0497668D01*
X1273963Y0503769D02*
X1273963Y0510469D01*
X1273843Y0516099D02*
X1273843Y0517169D01*
X1273643Y0517169D01*
X1273643Y0517179D01*
X1254083Y0517179D01*
X1254083Y0516289D01*
X1253963Y0510369D02*
X1253963Y0506969D01*
X1263963Y0516969D01*
X1253963Y0506969D02*
X1253963Y0503569D01*
X1214908Y0503769D02*
X1214908Y0510469D01*
X1214788Y0516099D02*
X1214788Y0517169D01*
X1214588Y0517169D01*
X1214588Y0517179D01*
X1195028Y0517179D01*
X1195028Y0516289D01*
X1194908Y0510369D02*
X1194908Y0506969D01*
X1204908Y0516969D01*
X1194908Y0506969D02*
X1194908Y0503569D01*
X1195018Y0497598D02*
X1195018Y0496688D01*
X1214508Y0496688D01*
X1214508Y0496668D01*
X1214708Y0496668D01*
X1214708Y0497668D01*
X1155653Y0497668D02*
X1155653Y0496668D01*
X1155453Y0496668D01*
X1155453Y0496688D01*
X1135963Y0496688D01*
X1135963Y0497598D01*
X1135853Y0503569D02*
X1135853Y0506969D01*
X1145853Y0516969D01*
X1155533Y0517169D02*
X1155533Y0517179D01*
X1135973Y0517179D01*
X1135973Y0516289D01*
X1135853Y0510369D02*
X1135853Y0506969D01*
X1155853Y0503769D02*
X1155853Y0510469D01*
X1155733Y0516099D02*
X1155733Y0517169D01*
X1155533Y0517169D01*
X1155453Y0555724D02*
X1155453Y0555744D01*
X1135963Y0555744D01*
X1135963Y0556654D01*
X1135853Y0562624D02*
X1135853Y0566024D01*
X1145853Y0576024D01*
X1155533Y0576224D02*
X1155533Y0576234D01*
X1135973Y0576234D01*
X1135973Y0575344D01*
X1135853Y0569424D02*
X1135853Y0566024D01*
X1155853Y0562824D02*
X1155853Y0569524D01*
X1155733Y0575154D02*
X1155733Y0576224D01*
X1155533Y0576224D01*
X1155653Y0556724D02*
X1155653Y0555724D01*
X1155453Y0555724D01*
X1195018Y0555744D02*
X1195018Y0556654D01*
X1195018Y0555744D02*
X1214508Y0555744D01*
X1214508Y0555724D01*
X1214708Y0555724D01*
X1214708Y0556724D01*
X1214908Y0562824D02*
X1214908Y0569524D01*
X1214788Y0575154D02*
X1214788Y0576224D01*
X1214588Y0576224D01*
X1214588Y0576234D01*
X1195028Y0576234D01*
X1195028Y0575344D01*
X1194908Y0569424D02*
X1194908Y0566024D01*
X1204908Y0576024D01*
X1194908Y0566024D02*
X1194908Y0562624D01*
X1253963Y0562624D02*
X1253963Y0566024D01*
X1263963Y0576024D01*
X1273643Y0576224D02*
X1273643Y0576234D01*
X1254083Y0576234D01*
X1254083Y0575344D01*
X1253963Y0569424D02*
X1253963Y0566024D01*
X1273963Y0562824D02*
X1273963Y0569524D01*
X1273843Y0575154D02*
X1273843Y0576224D01*
X1273643Y0576224D01*
X1273763Y0556724D02*
X1273763Y0555724D01*
X1273563Y0555724D01*
X1273563Y0555744D01*
X1254073Y0555744D01*
X1254073Y0556654D01*
X1254073Y0614799D02*
X1254073Y0615709D01*
X1254073Y0614799D02*
X1273563Y0614799D01*
X1273563Y0614779D01*
X1273763Y0614779D01*
X1273763Y0615779D01*
X1273963Y0621879D02*
X1273963Y0628579D01*
X1273843Y0634209D02*
X1273843Y0635279D01*
X1273643Y0635279D01*
X1273643Y0635289D01*
X1254083Y0635289D01*
X1254083Y0634399D01*
X1253963Y0628479D02*
X1253963Y0625079D01*
X1263963Y0635079D01*
X1253963Y0625079D02*
X1253963Y0621679D01*
X1214908Y0621879D02*
X1214908Y0628579D01*
X1214788Y0634209D02*
X1214788Y0635279D01*
X1214588Y0635279D01*
X1214588Y0635289D01*
X1195028Y0635289D01*
X1195028Y0634399D01*
X1194908Y0628479D02*
X1194908Y0625079D01*
X1204908Y0635079D01*
X1194908Y0625079D02*
X1194908Y0621679D01*
X1195018Y0615709D02*
X1195018Y0614799D01*
X1214508Y0614799D01*
X1214508Y0614779D01*
X1214708Y0614779D01*
X1214708Y0615779D01*
X1155653Y0615779D02*
X1155653Y0614779D01*
X1155453Y0614779D01*
X1155453Y0614799D01*
X1135963Y0614799D01*
X1135963Y0615709D01*
X1135853Y0621679D02*
X1135853Y0625079D01*
X1145853Y0635079D01*
X1155533Y0635279D02*
X1155533Y0635289D01*
X1135973Y0635289D01*
X1135973Y0634399D01*
X1135853Y0628479D02*
X1135853Y0625079D01*
X1155853Y0621879D02*
X1155853Y0628579D01*
X1155733Y0634209D02*
X1155733Y0635279D01*
X1155533Y0635279D01*
X1155453Y0673834D02*
X1155453Y0673854D01*
X1135963Y0673854D01*
X1135963Y0674764D01*
X1135853Y0680734D02*
X1135853Y0684134D01*
X1145853Y0694134D01*
X1155533Y0694334D02*
X1155533Y0694344D01*
X1135973Y0694344D01*
X1135973Y0693454D01*
X1135853Y0687534D02*
X1135853Y0684134D01*
X1155853Y0680934D02*
X1155853Y0687634D01*
X1155733Y0693264D02*
X1155733Y0694334D01*
X1155533Y0694334D01*
X1155653Y0674834D02*
X1155653Y0673834D01*
X1155453Y0673834D01*
X1195018Y0673854D02*
X1195018Y0674764D01*
X1195018Y0673854D02*
X1214508Y0673854D01*
X1214508Y0673834D01*
X1214708Y0673834D01*
X1214708Y0674834D01*
X1214908Y0680934D02*
X1214908Y0687634D01*
X1214788Y0693264D02*
X1214788Y0694334D01*
X1214588Y0694334D01*
X1214588Y0694344D01*
X1195028Y0694344D01*
X1195028Y0693454D01*
X1194908Y0687534D02*
X1194908Y0684134D01*
X1204908Y0694134D01*
X1194908Y0684134D02*
X1194908Y0680734D01*
X1253963Y0680734D02*
X1253963Y0684134D01*
X1263963Y0694134D01*
X1273643Y0694334D02*
X1273643Y0694344D01*
X1254083Y0694344D01*
X1254083Y0693454D01*
X1253963Y0687534D02*
X1253963Y0684134D01*
X1273963Y0680934D02*
X1273963Y0687634D01*
X1273843Y0693264D02*
X1273843Y0694334D01*
X1273643Y0694334D01*
X1273763Y0674834D02*
X1273763Y0673834D01*
X1273563Y0673834D01*
X1273563Y0673854D01*
X1254073Y0673854D01*
X1254073Y0674764D01*
X1254073Y0732909D02*
X1254073Y0733819D01*
X1254073Y0732909D02*
X1273563Y0732909D01*
X1273563Y0732889D01*
X1273763Y0732889D01*
X1273763Y0733889D01*
X1273963Y0739989D02*
X1273963Y0746689D01*
X1273843Y0752319D02*
X1273843Y0753389D01*
X1273643Y0753389D01*
X1273643Y0753399D01*
X1254083Y0753399D01*
X1254083Y0752509D01*
X1253963Y0746589D02*
X1253963Y0743189D01*
X1263963Y0753189D01*
X1253963Y0743189D02*
X1253963Y0739789D01*
X1214908Y0739989D02*
X1214908Y0746689D01*
X1214788Y0752319D02*
X1214788Y0753389D01*
X1214588Y0753389D01*
X1214588Y0753399D01*
X1195028Y0753399D01*
X1195028Y0752509D01*
X1194908Y0746589D02*
X1194908Y0743189D01*
X1204908Y0753189D01*
X1194908Y0743189D02*
X1194908Y0739789D01*
X1195018Y0733819D02*
X1195018Y0732909D01*
X1214508Y0732909D01*
X1214508Y0732889D01*
X1214708Y0732889D01*
X1214708Y0733889D01*
X1155653Y0733889D02*
X1155653Y0732889D01*
X1155453Y0732889D01*
X1155453Y0732909D01*
X1135963Y0732909D01*
X1135963Y0733819D01*
X1135853Y0739789D02*
X1135853Y0743189D01*
X1145853Y0753189D01*
X1155533Y0753389D02*
X1155533Y0753399D01*
X1135973Y0753399D01*
X1135973Y0752509D01*
X1135853Y0746589D02*
X1135853Y0743189D01*
X1155853Y0739989D02*
X1155853Y0746689D01*
X1155733Y0752319D02*
X1155733Y0753389D01*
X1155533Y0753389D01*
X1155453Y0791944D02*
X1155453Y0791964D01*
X1135963Y0791964D01*
X1135963Y0792874D01*
X1135853Y0798844D02*
X1135853Y0802244D01*
X1145853Y0812244D01*
X1155533Y0812444D02*
X1155533Y0812454D01*
X1135973Y0812454D01*
X1135973Y0811564D01*
X1135853Y0805644D02*
X1135853Y0802244D01*
X1155853Y0799044D02*
X1155853Y0805744D01*
X1155733Y0811374D02*
X1155733Y0812444D01*
X1155533Y0812444D01*
X1155653Y0792944D02*
X1155653Y0791944D01*
X1155453Y0791944D01*
X1195018Y0791964D02*
X1195018Y0792874D01*
X1195018Y0791964D02*
X1214508Y0791964D01*
X1214508Y0791944D01*
X1214708Y0791944D01*
X1214708Y0792944D01*
X1214908Y0799044D02*
X1214908Y0805744D01*
X1214788Y0811374D02*
X1214788Y0812444D01*
X1214588Y0812444D01*
X1214588Y0812454D01*
X1195028Y0812454D01*
X1195028Y0811564D01*
X1194908Y0805644D02*
X1194908Y0802244D01*
X1204908Y0812244D01*
X1194908Y0802244D02*
X1194908Y0798844D01*
X1096798Y0799044D02*
X1096798Y0805744D01*
X1096678Y0811374D02*
X1096678Y0812444D01*
X1096478Y0812444D01*
X1096478Y0812454D01*
X1076918Y0812454D01*
X1076918Y0811564D01*
X1076798Y0805644D02*
X1076798Y0802244D01*
X1086798Y0812244D01*
X1076798Y0802244D02*
X1076798Y0798844D01*
X1076908Y0792874D02*
X1076908Y0791964D01*
X1096398Y0791964D01*
X1096398Y0791944D01*
X1096598Y0791944D01*
X1096598Y0792944D01*
X1096478Y0753399D02*
X1076918Y0753399D01*
X1076918Y0752509D01*
X1076798Y0746589D02*
X1076798Y0743189D01*
X1086798Y0753189D01*
X1096478Y0753389D02*
X1096478Y0753399D01*
X1096478Y0753389D02*
X1096678Y0753389D01*
X1096678Y0752319D01*
X1096798Y0746689D02*
X1096798Y0739989D01*
X1096598Y0733889D02*
X1096598Y0732889D01*
X1096398Y0732889D01*
X1096398Y0732909D01*
X1076908Y0732909D01*
X1076908Y0733819D01*
X1076798Y0739789D02*
X1076798Y0743189D01*
X1037743Y0739989D02*
X1037743Y0746689D01*
X1037623Y0752319D02*
X1037623Y0753389D01*
X1037423Y0753389D01*
X1037423Y0753399D01*
X1017863Y0753399D01*
X1017863Y0752509D01*
X1017743Y0746589D02*
X1017743Y0743189D01*
X1027743Y0753189D01*
X1017743Y0743189D02*
X1017743Y0739789D01*
X1017853Y0733819D02*
X1017853Y0732909D01*
X1037343Y0732909D01*
X1037343Y0732889D01*
X1037543Y0732889D01*
X1037543Y0733889D01*
X1037423Y0694344D02*
X1017863Y0694344D01*
X1017863Y0693454D01*
X1017743Y0687534D02*
X1017743Y0684134D01*
X1027743Y0694134D01*
X1037423Y0694334D02*
X1037423Y0694344D01*
X1037423Y0694334D02*
X1037623Y0694334D01*
X1037623Y0693264D01*
X1037743Y0687634D02*
X1037743Y0680934D01*
X1037543Y0674834D02*
X1037543Y0673834D01*
X1037343Y0673834D01*
X1037343Y0673854D01*
X1017853Y0673854D01*
X1017853Y0674764D01*
X1017743Y0680734D02*
X1017743Y0684134D01*
X0978688Y0680934D02*
X0978688Y0687634D01*
X0978568Y0693264D02*
X0978568Y0694334D01*
X0978368Y0694334D01*
X0978368Y0694344D01*
X0958808Y0694344D01*
X0958808Y0693454D01*
X0958688Y0687534D02*
X0958688Y0684134D01*
X0968688Y0694134D01*
X0958688Y0684134D02*
X0958688Y0680734D01*
X0958798Y0674764D02*
X0958798Y0673854D01*
X0978288Y0673854D01*
X0978288Y0673834D01*
X0978488Y0673834D01*
X0978488Y0674834D01*
X0978368Y0635289D02*
X0958808Y0635289D01*
X0958808Y0634399D01*
X0958688Y0628479D02*
X0958688Y0625079D01*
X0968688Y0635079D01*
X0978368Y0635279D02*
X0978368Y0635289D01*
X0978368Y0635279D02*
X0978568Y0635279D01*
X0978568Y0634209D01*
X0978688Y0628579D02*
X0978688Y0621879D01*
X0978488Y0615779D02*
X0978488Y0614779D01*
X0978288Y0614779D01*
X0978288Y0614799D01*
X0958798Y0614799D01*
X0958798Y0615709D01*
X0958688Y0621679D02*
X0958688Y0625079D01*
X0919633Y0621879D02*
X0919633Y0628579D01*
X0919513Y0634209D02*
X0919513Y0635279D01*
X0919313Y0635279D01*
X0919313Y0635289D01*
X0899753Y0635289D01*
X0899753Y0634399D01*
X0899633Y0628479D02*
X0899633Y0625079D01*
X0909633Y0635079D01*
X0899633Y0625079D02*
X0899633Y0621679D01*
X0899743Y0615709D02*
X0899743Y0614799D01*
X0919233Y0614799D01*
X0919233Y0614779D01*
X0919433Y0614779D01*
X0919433Y0615779D01*
X0919313Y0576234D02*
X0899753Y0576234D01*
X0899753Y0575344D01*
X0899633Y0569424D02*
X0899633Y0566024D01*
X0909633Y0576024D01*
X0919313Y0576224D02*
X0919313Y0576234D01*
X0919313Y0576224D02*
X0919513Y0576224D01*
X0919513Y0575154D01*
X0919633Y0569524D02*
X0919633Y0562824D01*
X0919433Y0556724D02*
X0919433Y0555724D01*
X0919233Y0555724D01*
X0919233Y0555744D01*
X0899743Y0555744D01*
X0899743Y0556654D01*
X0899633Y0562624D02*
X0899633Y0566024D01*
X0860577Y0562824D02*
X0860577Y0569524D01*
X0860457Y0575154D02*
X0860457Y0576224D01*
X0860257Y0576224D01*
X0860257Y0576234D01*
X0840697Y0576234D01*
X0840697Y0575344D01*
X0840577Y0569424D02*
X0840577Y0566024D01*
X0850577Y0576024D01*
X0840577Y0566024D02*
X0840577Y0562624D01*
X0840687Y0556654D02*
X0840687Y0555744D01*
X0860177Y0555744D01*
X0860177Y0555724D01*
X0860377Y0555724D01*
X0860377Y0556724D01*
X0860257Y0517179D02*
X0840697Y0517179D01*
X0840697Y0516289D01*
X0840577Y0510369D02*
X0840577Y0506969D01*
X0850577Y0516969D01*
X0860257Y0517169D02*
X0860257Y0517179D01*
X0860257Y0517169D02*
X0860457Y0517169D01*
X0860457Y0516099D01*
X0860577Y0510469D02*
X0860577Y0503769D01*
X0860377Y0497668D02*
X0860377Y0496668D01*
X0860177Y0496668D01*
X0860177Y0496688D01*
X0840687Y0496688D01*
X0840687Y0497598D01*
X0840577Y0503569D02*
X0840577Y0506969D01*
X0801522Y0503769D02*
X0801522Y0510469D01*
X0801402Y0516099D02*
X0801402Y0517169D01*
X0801202Y0517169D01*
X0801202Y0517179D01*
X0781642Y0517179D01*
X0781642Y0516289D01*
X0781522Y0510369D02*
X0781522Y0506969D01*
X0791522Y0516969D01*
X0781522Y0506969D02*
X0781522Y0503569D01*
X0781632Y0497598D02*
X0781632Y0496688D01*
X0801122Y0496688D01*
X0801122Y0496668D01*
X0801322Y0496668D01*
X0801322Y0497668D01*
X0801202Y0458123D02*
X0781642Y0458123D01*
X0781642Y0457233D01*
X0781522Y0451313D02*
X0781522Y0447913D01*
X0791522Y0457913D01*
X0801202Y0458113D02*
X0801202Y0458123D01*
X0801202Y0458113D02*
X0801402Y0458113D01*
X0801402Y0457043D01*
X0801522Y0451413D02*
X0801522Y0444713D01*
X0801322Y0438613D02*
X0801322Y0437613D01*
X0801122Y0437613D01*
X0801122Y0437633D01*
X0781632Y0437633D01*
X0781632Y0438543D01*
X0781522Y0444513D02*
X0781522Y0447913D01*
X0742467Y0444713D02*
X0742467Y0451413D01*
X0742347Y0457043D02*
X0742347Y0458113D01*
X0742147Y0458113D01*
X0742147Y0458123D01*
X0722587Y0458123D01*
X0722587Y0457233D01*
X0722467Y0451313D02*
X0722467Y0447913D01*
X0732467Y0457913D01*
X0722467Y0447913D02*
X0722467Y0444513D01*
X0722577Y0438543D02*
X0722577Y0437633D01*
X0742067Y0437633D01*
X0742067Y0437613D01*
X0742267Y0437613D01*
X0742267Y0438613D01*
X0742147Y0399068D02*
X0722587Y0399068D01*
X0722587Y0398178D01*
X0722467Y0392258D02*
X0722467Y0388858D01*
X0732467Y0398858D01*
X0742147Y0399058D02*
X0742147Y0399068D01*
X0742147Y0399058D02*
X0742347Y0399058D01*
X0742347Y0397988D01*
X0742467Y0392358D02*
X0742467Y0385658D01*
X0742267Y0379558D02*
X0742267Y0378558D01*
X0742067Y0378558D01*
X0742067Y0378578D01*
X0722577Y0378578D01*
X0722577Y0379488D01*
X0722467Y0385458D02*
X0722467Y0388858D01*
X0683412Y0385658D02*
X0683412Y0392358D01*
X0683292Y0397988D02*
X0683292Y0399058D01*
X0683092Y0399058D01*
X0683092Y0399068D01*
X0663532Y0399068D01*
X0663532Y0398178D01*
X0663412Y0392258D02*
X0663412Y0388858D01*
X0673412Y0398858D01*
X0663412Y0388858D02*
X0663412Y0385458D01*
X0663522Y0379488D02*
X0663522Y0378578D01*
X0683012Y0378578D01*
X0683012Y0378558D01*
X0683212Y0378558D01*
X0683212Y0379558D01*
X0624157Y0379558D02*
X0624157Y0378558D01*
X0623957Y0378558D01*
X0623957Y0378578D01*
X0604467Y0378578D01*
X0604467Y0379488D01*
X0604357Y0385458D02*
X0604357Y0388858D01*
X0614357Y0398858D01*
X0624037Y0399058D02*
X0624037Y0399068D01*
X0604477Y0399068D01*
X0604477Y0398178D01*
X0604357Y0392258D02*
X0604357Y0388858D01*
X0624357Y0385658D02*
X0624357Y0392358D01*
X0624237Y0397988D02*
X0624237Y0399058D01*
X0624037Y0399058D01*
X0623957Y0437613D02*
X0623957Y0437633D01*
X0604467Y0437633D01*
X0604467Y0438543D01*
X0604357Y0444513D02*
X0604357Y0447913D01*
X0614357Y0457913D01*
X0624037Y0458113D02*
X0624037Y0458123D01*
X0604477Y0458123D01*
X0604477Y0457233D01*
X0604357Y0451313D02*
X0604357Y0447913D01*
X0624357Y0444713D02*
X0624357Y0451413D01*
X0624237Y0457043D02*
X0624237Y0458113D01*
X0624037Y0458113D01*
X0624157Y0438613D02*
X0624157Y0437613D01*
X0623957Y0437613D01*
X0663522Y0437633D02*
X0663522Y0438543D01*
X0663522Y0437633D02*
X0683012Y0437633D01*
X0683012Y0437613D01*
X0683212Y0437613D01*
X0683212Y0438613D01*
X0683412Y0444713D02*
X0683412Y0451413D01*
X0683292Y0457043D02*
X0683292Y0458113D01*
X0683092Y0458113D01*
X0683092Y0458123D01*
X0663532Y0458123D01*
X0663532Y0457233D01*
X0663412Y0451313D02*
X0663412Y0447913D01*
X0673412Y0457913D01*
X0663412Y0447913D02*
X0663412Y0444513D01*
X0663522Y0496688D02*
X0663522Y0497598D01*
X0663522Y0496688D02*
X0683012Y0496688D01*
X0683012Y0496668D01*
X0683212Y0496668D01*
X0683212Y0497668D01*
X0683412Y0503769D02*
X0683412Y0510469D01*
X0683292Y0516099D02*
X0683292Y0517169D01*
X0683092Y0517169D01*
X0683092Y0517179D01*
X0663532Y0517179D01*
X0663532Y0516289D01*
X0663412Y0510369D02*
X0663412Y0506969D01*
X0673412Y0516969D01*
X0663412Y0506969D02*
X0663412Y0503569D01*
X0624357Y0503769D02*
X0624357Y0510469D01*
X0624237Y0516099D02*
X0624237Y0517169D01*
X0624037Y0517169D01*
X0624037Y0517179D01*
X0604477Y0517179D01*
X0604477Y0516289D01*
X0604357Y0510369D02*
X0604357Y0506969D01*
X0614357Y0516969D01*
X0604357Y0506969D02*
X0604357Y0503569D01*
X0604467Y0497598D02*
X0604467Y0496688D01*
X0623957Y0496688D01*
X0623957Y0496668D01*
X0624157Y0496668D01*
X0624157Y0497668D01*
X0565102Y0497668D02*
X0565102Y0496668D01*
X0564902Y0496668D01*
X0564902Y0496688D01*
X0545412Y0496688D01*
X0545412Y0497598D01*
X0545302Y0503569D02*
X0545302Y0506969D01*
X0555302Y0516969D01*
X0564982Y0517169D02*
X0564982Y0517179D01*
X0545422Y0517179D01*
X0545422Y0516289D01*
X0545302Y0510369D02*
X0545302Y0506969D01*
X0565302Y0503769D02*
X0565302Y0510469D01*
X0565182Y0516099D02*
X0565182Y0517169D01*
X0564982Y0517169D01*
X0564902Y0555724D02*
X0564902Y0555744D01*
X0545412Y0555744D01*
X0545412Y0556654D01*
X0545302Y0562624D02*
X0545302Y0566024D01*
X0555302Y0576024D01*
X0564982Y0576224D02*
X0564982Y0576234D01*
X0545422Y0576234D01*
X0545422Y0575344D01*
X0545302Y0569424D02*
X0545302Y0566024D01*
X0565302Y0562824D02*
X0565302Y0569524D01*
X0565182Y0575154D02*
X0565182Y0576224D01*
X0564982Y0576224D01*
X0565102Y0556724D02*
X0565102Y0555724D01*
X0564902Y0555724D01*
X0604467Y0555744D02*
X0604467Y0556654D01*
X0604467Y0555744D02*
X0623957Y0555744D01*
X0623957Y0555724D01*
X0624157Y0555724D01*
X0624157Y0556724D01*
X0624357Y0562824D02*
X0624357Y0569524D01*
X0624237Y0575154D02*
X0624237Y0576224D01*
X0624037Y0576224D01*
X0624037Y0576234D01*
X0604477Y0576234D01*
X0604477Y0575344D01*
X0604357Y0569424D02*
X0604357Y0566024D01*
X0614357Y0576024D01*
X0604357Y0566024D02*
X0604357Y0562624D01*
X0663412Y0562624D02*
X0663412Y0566024D01*
X0673412Y0576024D01*
X0683092Y0576224D02*
X0683092Y0576234D01*
X0663532Y0576234D01*
X0663532Y0575344D01*
X0663412Y0569424D02*
X0663412Y0566024D01*
X0683412Y0562824D02*
X0683412Y0569524D01*
X0683292Y0575154D02*
X0683292Y0576224D01*
X0683092Y0576224D01*
X0683212Y0556724D02*
X0683212Y0555724D01*
X0683012Y0555724D01*
X0683012Y0555744D01*
X0663522Y0555744D01*
X0663522Y0556654D01*
X0722577Y0556654D02*
X0722577Y0555744D01*
X0742067Y0555744D01*
X0742067Y0555724D01*
X0742267Y0555724D01*
X0742267Y0556724D01*
X0742467Y0562824D02*
X0742467Y0569524D01*
X0742347Y0575154D02*
X0742347Y0576224D01*
X0742147Y0576224D01*
X0742147Y0576234D01*
X0722587Y0576234D01*
X0722587Y0575344D01*
X0722467Y0569424D02*
X0722467Y0566024D01*
X0732467Y0576024D01*
X0722467Y0566024D02*
X0722467Y0562624D01*
X0722587Y0517179D02*
X0722587Y0516289D01*
X0722587Y0517179D02*
X0742147Y0517179D01*
X0742147Y0517169D01*
X0742347Y0517169D01*
X0742347Y0516099D01*
X0742467Y0510469D02*
X0742467Y0503769D01*
X0742267Y0497668D02*
X0742267Y0496668D01*
X0742067Y0496668D01*
X0742067Y0496688D01*
X0722577Y0496688D01*
X0722577Y0497598D01*
X0722467Y0503569D02*
X0722467Y0506969D01*
X0732467Y0516969D01*
X0722467Y0510369D02*
X0722467Y0506969D01*
X0781632Y0555744D02*
X0781632Y0556654D01*
X0781632Y0555744D02*
X0801122Y0555744D01*
X0801122Y0555724D01*
X0801322Y0555724D01*
X0801322Y0556724D01*
X0801522Y0562824D02*
X0801522Y0569524D01*
X0801402Y0575154D02*
X0801402Y0576224D01*
X0801202Y0576224D01*
X0801202Y0576234D01*
X0781642Y0576234D01*
X0781642Y0575344D01*
X0781522Y0569424D02*
X0781522Y0566024D01*
X0791522Y0576024D01*
X0781522Y0566024D02*
X0781522Y0562624D01*
X0781632Y0614799D02*
X0781632Y0615709D01*
X0781632Y0614799D02*
X0801122Y0614799D01*
X0801122Y0614779D01*
X0801322Y0614779D01*
X0801322Y0615779D01*
X0801522Y0621879D02*
X0801522Y0628579D01*
X0801402Y0634209D02*
X0801402Y0635279D01*
X0801202Y0635279D01*
X0801202Y0635289D01*
X0781642Y0635289D01*
X0781642Y0634399D01*
X0781522Y0628479D02*
X0781522Y0625079D01*
X0791522Y0635079D01*
X0781522Y0625079D02*
X0781522Y0621679D01*
X0742467Y0621879D02*
X0742467Y0628579D01*
X0742347Y0634209D02*
X0742347Y0635279D01*
X0742147Y0635279D01*
X0742147Y0635289D01*
X0722587Y0635289D01*
X0722587Y0634399D01*
X0722467Y0628479D02*
X0722467Y0625079D01*
X0732467Y0635079D01*
X0722467Y0625079D02*
X0722467Y0621679D01*
X0722577Y0615709D02*
X0722577Y0614799D01*
X0742067Y0614799D01*
X0742067Y0614779D01*
X0742267Y0614779D01*
X0742267Y0615779D01*
X0683212Y0615779D02*
X0683212Y0614779D01*
X0683012Y0614779D01*
X0683012Y0614799D01*
X0663522Y0614799D01*
X0663522Y0615709D01*
X0663412Y0621679D02*
X0663412Y0625079D01*
X0673412Y0635079D01*
X0683092Y0635279D02*
X0683092Y0635289D01*
X0663532Y0635289D01*
X0663532Y0634399D01*
X0663412Y0628479D02*
X0663412Y0625079D01*
X0683412Y0621879D02*
X0683412Y0628579D01*
X0683292Y0634209D02*
X0683292Y0635279D01*
X0683092Y0635279D01*
X0683012Y0673834D02*
X0683012Y0673854D01*
X0663522Y0673854D01*
X0663522Y0674764D01*
X0663412Y0680734D02*
X0663412Y0684134D01*
X0673412Y0694134D01*
X0683092Y0694334D02*
X0683092Y0694344D01*
X0663532Y0694344D01*
X0663532Y0693454D01*
X0663412Y0687534D02*
X0663412Y0684134D01*
X0683412Y0680934D02*
X0683412Y0687634D01*
X0683292Y0693264D02*
X0683292Y0694334D01*
X0683092Y0694334D01*
X0683212Y0674834D02*
X0683212Y0673834D01*
X0683012Y0673834D01*
X0722577Y0673854D02*
X0722577Y0674764D01*
X0722577Y0673854D02*
X0742067Y0673854D01*
X0742067Y0673834D01*
X0742267Y0673834D01*
X0742267Y0674834D01*
X0742467Y0680934D02*
X0742467Y0687634D01*
X0742347Y0693264D02*
X0742347Y0694334D01*
X0742147Y0694334D01*
X0742147Y0694344D01*
X0722587Y0694344D01*
X0722587Y0693454D01*
X0722467Y0687534D02*
X0722467Y0684134D01*
X0732467Y0694134D01*
X0722467Y0684134D02*
X0722467Y0680734D01*
X0781522Y0680734D02*
X0781522Y0684134D01*
X0791522Y0694134D01*
X0801202Y0694334D02*
X0801202Y0694344D01*
X0781642Y0694344D01*
X0781642Y0693454D01*
X0781522Y0687534D02*
X0781522Y0684134D01*
X0801522Y0680934D02*
X0801522Y0687634D01*
X0801402Y0693264D02*
X0801402Y0694334D01*
X0801202Y0694334D01*
X0801322Y0674834D02*
X0801322Y0673834D01*
X0801122Y0673834D01*
X0801122Y0673854D01*
X0781632Y0673854D01*
X0781632Y0674764D01*
X0840687Y0674764D02*
X0840687Y0673854D01*
X0860177Y0673854D01*
X0860177Y0673834D01*
X0860377Y0673834D01*
X0860377Y0674834D01*
X0860577Y0680934D02*
X0860577Y0687634D01*
X0860457Y0693264D02*
X0860457Y0694334D01*
X0860257Y0694334D01*
X0860257Y0694344D01*
X0840697Y0694344D01*
X0840697Y0693454D01*
X0840577Y0687534D02*
X0840577Y0684134D01*
X0850577Y0694134D01*
X0840577Y0684134D02*
X0840577Y0680734D01*
X0840697Y0635289D02*
X0840697Y0634399D01*
X0840697Y0635289D02*
X0860257Y0635289D01*
X0860257Y0635279D01*
X0860457Y0635279D01*
X0860457Y0634209D01*
X0860577Y0628579D02*
X0860577Y0621879D01*
X0860377Y0615779D02*
X0860377Y0614779D01*
X0860177Y0614779D01*
X0860177Y0614799D01*
X0840687Y0614799D01*
X0840687Y0615709D01*
X0840577Y0621679D02*
X0840577Y0625079D01*
X0850577Y0635079D01*
X0840577Y0628479D02*
X0840577Y0625079D01*
X0899743Y0673854D02*
X0899743Y0674764D01*
X0899743Y0673854D02*
X0919233Y0673854D01*
X0919233Y0673834D01*
X0919433Y0673834D01*
X0919433Y0674834D01*
X0919633Y0680934D02*
X0919633Y0687634D01*
X0919513Y0693264D02*
X0919513Y0694334D01*
X0919313Y0694334D01*
X0919313Y0694344D01*
X0899753Y0694344D01*
X0899753Y0693454D01*
X0899633Y0687534D02*
X0899633Y0684134D01*
X0909633Y0694134D01*
X0899633Y0684134D02*
X0899633Y0680734D01*
X0899743Y0732909D02*
X0899743Y0733819D01*
X0899743Y0732909D02*
X0919233Y0732909D01*
X0919233Y0732889D01*
X0919433Y0732889D01*
X0919433Y0733889D01*
X0919633Y0739989D02*
X0919633Y0746689D01*
X0919513Y0752319D02*
X0919513Y0753389D01*
X0919313Y0753389D01*
X0919313Y0753399D01*
X0899753Y0753399D01*
X0899753Y0752509D01*
X0899633Y0746589D02*
X0899633Y0743189D01*
X0909633Y0753189D01*
X0899633Y0743189D02*
X0899633Y0739789D01*
X0860577Y0739989D02*
X0860577Y0746689D01*
X0860457Y0752319D02*
X0860457Y0753389D01*
X0860257Y0753389D01*
X0860257Y0753399D01*
X0840697Y0753399D01*
X0840697Y0752509D01*
X0840577Y0746589D02*
X0840577Y0743189D01*
X0850577Y0753189D01*
X0840577Y0743189D02*
X0840577Y0739789D01*
X0840687Y0733819D02*
X0840687Y0732909D01*
X0860177Y0732909D01*
X0860177Y0732889D01*
X0860377Y0732889D01*
X0860377Y0733889D01*
X0801322Y0733889D02*
X0801322Y0732889D01*
X0801122Y0732889D01*
X0801122Y0732909D01*
X0781632Y0732909D01*
X0781632Y0733819D01*
X0781522Y0739789D02*
X0781522Y0743189D01*
X0791522Y0753189D01*
X0801202Y0753389D02*
X0801202Y0753399D01*
X0781642Y0753399D01*
X0781642Y0752509D01*
X0781522Y0746589D02*
X0781522Y0743189D01*
X0801522Y0739989D02*
X0801522Y0746689D01*
X0801402Y0752319D02*
X0801402Y0753389D01*
X0801202Y0753389D01*
X0801122Y0791944D02*
X0801122Y0791964D01*
X0781632Y0791964D01*
X0781632Y0792874D01*
X0781522Y0798844D02*
X0781522Y0802244D01*
X0791522Y0812244D01*
X0801202Y0812444D02*
X0801202Y0812454D01*
X0781642Y0812454D01*
X0781642Y0811564D01*
X0781522Y0805644D02*
X0781522Y0802244D01*
X0801522Y0799044D02*
X0801522Y0805744D01*
X0801402Y0811374D02*
X0801402Y0812444D01*
X0801202Y0812444D01*
X0801322Y0792944D02*
X0801322Y0791944D01*
X0801122Y0791944D01*
X0840687Y0791964D02*
X0840687Y0792874D01*
X0840687Y0791964D02*
X0860177Y0791964D01*
X0860177Y0791944D01*
X0860377Y0791944D01*
X0860377Y0792944D01*
X0860577Y0799044D02*
X0860577Y0805744D01*
X0860457Y0811374D02*
X0860457Y0812444D01*
X0860257Y0812444D01*
X0860257Y0812454D01*
X0840697Y0812454D01*
X0840697Y0811564D01*
X0840577Y0805644D02*
X0840577Y0802244D01*
X0850577Y0812244D01*
X0840577Y0802244D02*
X0840577Y0798844D01*
X0899633Y0798844D02*
X0899633Y0802244D01*
X0909633Y0812244D01*
X0919313Y0812444D02*
X0919313Y0812454D01*
X0899753Y0812454D01*
X0899753Y0811564D01*
X0899633Y0805644D02*
X0899633Y0802244D01*
X0919633Y0799044D02*
X0919633Y0805744D01*
X0919513Y0811374D02*
X0919513Y0812444D01*
X0919313Y0812444D01*
X0919433Y0792944D02*
X0919433Y0791944D01*
X0919233Y0791944D01*
X0919233Y0791964D01*
X0899743Y0791964D01*
X0899743Y0792874D01*
X0958798Y0792874D02*
X0958798Y0791964D01*
X0978288Y0791964D01*
X0978288Y0791944D01*
X0978488Y0791944D01*
X0978488Y0792944D01*
X0978688Y0799044D02*
X0978688Y0805744D01*
X0978568Y0811374D02*
X0978568Y0812444D01*
X0978368Y0812444D01*
X0978368Y0812454D01*
X0958808Y0812454D01*
X0958808Y0811564D01*
X0958688Y0805644D02*
X0958688Y0802244D01*
X0968688Y0812244D01*
X0958688Y0802244D02*
X0958688Y0798844D01*
X0958808Y0753399D02*
X0958808Y0752509D01*
X0958808Y0753399D02*
X0978368Y0753399D01*
X0978368Y0753389D01*
X0978568Y0753389D01*
X0978568Y0752319D01*
X0978688Y0746689D02*
X0978688Y0739989D01*
X0978488Y0733889D02*
X0978488Y0732889D01*
X0978288Y0732889D01*
X0978288Y0732909D01*
X0958798Y0732909D01*
X0958798Y0733819D01*
X0958688Y0739789D02*
X0958688Y0743189D01*
X0968688Y0753189D01*
X0958688Y0746589D02*
X0958688Y0743189D01*
X1017853Y0791964D02*
X1017853Y0792874D01*
X1017853Y0791964D02*
X1037343Y0791964D01*
X1037343Y0791944D01*
X1037543Y0791944D01*
X1037543Y0792944D01*
X1037743Y0799044D02*
X1037743Y0805744D01*
X1037623Y0811374D02*
X1037623Y0812444D01*
X1037423Y0812444D01*
X1037423Y0812454D01*
X1017863Y0812454D01*
X1017863Y0811564D01*
X1017743Y0805644D02*
X1017743Y0802244D01*
X1027743Y0812244D01*
X1017743Y0802244D02*
X1017743Y0798844D01*
X1076918Y0694344D02*
X1076918Y0693454D01*
X1076918Y0694344D02*
X1096478Y0694344D01*
X1096478Y0694334D01*
X1096678Y0694334D01*
X1096678Y0693264D01*
X1096798Y0687634D02*
X1096798Y0680934D01*
X1096598Y0674834D02*
X1096598Y0673834D01*
X1096398Y0673834D01*
X1096398Y0673854D01*
X1076908Y0673854D01*
X1076908Y0674764D01*
X1076798Y0680734D02*
X1076798Y0684134D01*
X1086798Y0694134D01*
X1076798Y0687534D02*
X1076798Y0684134D01*
X1076918Y0635289D02*
X1076918Y0634399D01*
X1076918Y0635289D02*
X1096478Y0635289D01*
X1096478Y0635279D01*
X1096678Y0635279D01*
X1096678Y0634209D01*
X1096798Y0628579D02*
X1096798Y0621879D01*
X1096598Y0615779D02*
X1096598Y0614779D01*
X1096398Y0614779D01*
X1096398Y0614799D01*
X1076908Y0614799D01*
X1076908Y0615709D01*
X1076798Y0621679D02*
X1076798Y0625079D01*
X1086798Y0635079D01*
X1076798Y0628479D02*
X1076798Y0625079D01*
X1037743Y0621879D02*
X1037743Y0628579D01*
X1037623Y0634209D02*
X1037623Y0635279D01*
X1037423Y0635279D01*
X1037423Y0635289D01*
X1017863Y0635289D01*
X1017863Y0634399D01*
X1017743Y0628479D02*
X1017743Y0625079D01*
X1027743Y0635079D01*
X1017743Y0625079D02*
X1017743Y0621679D01*
X1017853Y0615709D02*
X1017853Y0614799D01*
X1037343Y0614799D01*
X1037343Y0614779D01*
X1037543Y0614779D01*
X1037543Y0615779D01*
X1037423Y0576234D02*
X1017863Y0576234D01*
X1017863Y0575344D01*
X1017743Y0569424D02*
X1017743Y0566024D01*
X1027743Y0576024D01*
X1037423Y0576224D02*
X1037423Y0576234D01*
X1037423Y0576224D02*
X1037623Y0576224D01*
X1037623Y0575154D01*
X1037743Y0569524D02*
X1037743Y0562824D01*
X1037543Y0556724D02*
X1037543Y0555724D01*
X1037343Y0555724D01*
X1037343Y0555744D01*
X1017853Y0555744D01*
X1017853Y0556654D01*
X1017743Y0562624D02*
X1017743Y0566024D01*
X0978688Y0562824D02*
X0978688Y0569524D01*
X0978568Y0575154D02*
X0978568Y0576224D01*
X0978368Y0576224D01*
X0978368Y0576234D01*
X0958808Y0576234D01*
X0958808Y0575344D01*
X0958688Y0569424D02*
X0958688Y0566024D01*
X0968688Y0576024D01*
X0958688Y0566024D02*
X0958688Y0562624D01*
X0958798Y0556654D02*
X0958798Y0555744D01*
X0978288Y0555744D01*
X0978288Y0555724D01*
X0978488Y0555724D01*
X0978488Y0556724D01*
X0978368Y0517179D02*
X0958808Y0517179D01*
X0958808Y0516289D01*
X0958688Y0510369D02*
X0958688Y0506969D01*
X0968688Y0516969D01*
X0978368Y0517169D02*
X0978368Y0517179D01*
X0978368Y0517169D02*
X0978568Y0517169D01*
X0978568Y0516099D01*
X0978688Y0510469D02*
X0978688Y0503769D01*
X0978488Y0497668D02*
X0978488Y0496668D01*
X0978288Y0496668D01*
X0978288Y0496688D01*
X0958798Y0496688D01*
X0958798Y0497598D01*
X0958688Y0503569D02*
X0958688Y0506969D01*
X0919633Y0503769D02*
X0919633Y0510469D01*
X0919513Y0516099D02*
X0919513Y0517169D01*
X0919313Y0517169D01*
X0919313Y0517179D01*
X0899753Y0517179D01*
X0899753Y0516289D01*
X0899633Y0510369D02*
X0899633Y0506969D01*
X0909633Y0516969D01*
X0899633Y0506969D02*
X0899633Y0503569D01*
X0899743Y0497598D02*
X0899743Y0496688D01*
X0919233Y0496688D01*
X0919233Y0496668D01*
X0919433Y0496668D01*
X0919433Y0497668D01*
X0919313Y0458123D02*
X0899753Y0458123D01*
X0899753Y0457233D01*
X0899633Y0451313D02*
X0899633Y0447913D01*
X0909633Y0457913D01*
X0919313Y0458113D02*
X0919313Y0458123D01*
X0919313Y0458113D02*
X0919513Y0458113D01*
X0919513Y0457043D01*
X0919633Y0451413D02*
X0919633Y0444713D01*
X0919433Y0438613D02*
X0919433Y0437613D01*
X0919233Y0437613D01*
X0919233Y0437633D01*
X0899743Y0437633D01*
X0899743Y0438543D01*
X0899633Y0444513D02*
X0899633Y0447913D01*
X0860577Y0444713D02*
X0860577Y0451413D01*
X0860457Y0457043D02*
X0860457Y0458113D01*
X0860257Y0458113D01*
X0860257Y0458123D01*
X0840697Y0458123D01*
X0840697Y0457233D01*
X0840577Y0451313D02*
X0840577Y0447913D01*
X0850577Y0457913D01*
X0840577Y0447913D02*
X0840577Y0444513D01*
X0840687Y0438543D02*
X0840687Y0437633D01*
X0860177Y0437633D01*
X0860177Y0437613D01*
X0860377Y0437613D01*
X0860377Y0438613D01*
X0860257Y0399068D02*
X0840697Y0399068D01*
X0840697Y0398178D01*
X0840577Y0392258D02*
X0840577Y0388858D01*
X0850577Y0398858D01*
X0860257Y0399058D02*
X0860257Y0399068D01*
X0860257Y0399058D02*
X0860457Y0399058D01*
X0860457Y0397988D01*
X0860577Y0392358D02*
X0860577Y0385658D01*
X0860377Y0379558D02*
X0860377Y0378558D01*
X0860177Y0378558D01*
X0860177Y0378578D01*
X0840687Y0378578D01*
X0840687Y0379488D01*
X0840577Y0385458D02*
X0840577Y0388858D01*
X0801522Y0385658D02*
X0801522Y0392358D01*
X0801402Y0397988D02*
X0801402Y0399058D01*
X0801202Y0399058D01*
X0801202Y0399068D01*
X0781642Y0399068D01*
X0781642Y0398178D01*
X0781522Y0392258D02*
X0781522Y0388858D01*
X0791522Y0398858D01*
X0781522Y0388858D02*
X0781522Y0385458D01*
X0781632Y0379488D02*
X0781632Y0378578D01*
X0801122Y0378578D01*
X0801122Y0378558D01*
X0801322Y0378558D01*
X0801322Y0379558D01*
X0899743Y0379488D02*
X0899743Y0378578D01*
X0919233Y0378578D01*
X0919233Y0378558D01*
X0919433Y0378558D01*
X0919433Y0379558D01*
X0919633Y0385658D02*
X0919633Y0392358D01*
X0919513Y0397988D02*
X0919513Y0399058D01*
X0919313Y0399058D01*
X0919313Y0399068D01*
X0899753Y0399068D01*
X0899753Y0398178D01*
X0899633Y0392258D02*
X0899633Y0388858D01*
X0909633Y0398858D01*
X0899633Y0388858D02*
X0899633Y0385458D01*
X0958688Y0385458D02*
X0958688Y0388858D01*
X0968688Y0398858D01*
X0978368Y0399058D02*
X0978368Y0399068D01*
X0958808Y0399068D01*
X0958808Y0398178D01*
X0958688Y0392258D02*
X0958688Y0388858D01*
X0958798Y0379488D02*
X0958798Y0378578D01*
X0978288Y0378578D01*
X0978288Y0378558D01*
X0978488Y0378558D01*
X0978488Y0379558D01*
X0978688Y0385658D02*
X0978688Y0392358D01*
X0978568Y0397988D02*
X0978568Y0399058D01*
X0978368Y0399058D01*
X1017863Y0399068D02*
X1017863Y0398178D01*
X1017863Y0399068D02*
X1037423Y0399068D01*
X1037423Y0399058D01*
X1037623Y0399058D01*
X1037623Y0397988D01*
X1037743Y0392358D02*
X1037743Y0385658D01*
X1037543Y0379558D02*
X1037543Y0378558D01*
X1037343Y0378558D01*
X1037343Y0378578D01*
X1017853Y0378578D01*
X1017853Y0379488D01*
X1017743Y0385458D02*
X1017743Y0388858D01*
X1027743Y0398858D01*
X1017743Y0392258D02*
X1017743Y0388858D01*
X1076798Y0388858D02*
X1076798Y0385458D01*
X1076798Y0388858D02*
X1086798Y0398858D01*
X1096478Y0399058D02*
X1096478Y0399068D01*
X1076918Y0399068D01*
X1076918Y0398178D01*
X1076798Y0392258D02*
X1076798Y0388858D01*
X1076908Y0379488D02*
X1076908Y0378578D01*
X1096398Y0378578D01*
X1096398Y0378558D01*
X1096598Y0378558D01*
X1096598Y0379558D01*
X1096798Y0385658D02*
X1096798Y0392358D01*
X1096678Y0397988D02*
X1096678Y0399058D01*
X1096478Y0399058D01*
X1096398Y0437613D02*
X1096398Y0437633D01*
X1076908Y0437633D01*
X1076908Y0438543D01*
X1076798Y0444513D02*
X1076798Y0447913D01*
X1086798Y0457913D01*
X1096478Y0458113D02*
X1096478Y0458123D01*
X1076918Y0458123D01*
X1076918Y0457233D01*
X1076798Y0451313D02*
X1076798Y0447913D01*
X1096798Y0444713D02*
X1096798Y0451413D01*
X1096678Y0457043D02*
X1096678Y0458113D01*
X1096478Y0458113D01*
X1096598Y0438613D02*
X1096598Y0437613D01*
X1096398Y0437613D01*
X1037543Y0437613D02*
X1037343Y0437613D01*
X1037343Y0437633D01*
X1017853Y0437633D01*
X1017853Y0438543D01*
X1017743Y0444513D02*
X1017743Y0447913D01*
X1027743Y0457913D01*
X1037423Y0458113D02*
X1037423Y0458123D01*
X1017863Y0458123D01*
X1017863Y0457233D01*
X1017743Y0451313D02*
X1017743Y0447913D01*
X1037743Y0444713D02*
X1037743Y0451413D01*
X1037623Y0457043D02*
X1037623Y0458113D01*
X1037423Y0458113D01*
X1037543Y0438613D02*
X1037543Y0437613D01*
X0978488Y0437613D02*
X0978288Y0437613D01*
X0978288Y0437633D01*
X0958798Y0437633D01*
X0958798Y0438543D01*
X0958688Y0444513D02*
X0958688Y0447913D01*
X0968688Y0457913D01*
X0978368Y0458113D02*
X0978368Y0458123D01*
X0958808Y0458123D01*
X0958808Y0457233D01*
X0958688Y0451313D02*
X0958688Y0447913D01*
X0978688Y0444713D02*
X0978688Y0451413D01*
X0978568Y0457043D02*
X0978568Y0458113D01*
X0978368Y0458113D01*
X0978488Y0438613D02*
X0978488Y0437613D01*
X1017853Y0496688D02*
X1017853Y0497598D01*
X1017853Y0496688D02*
X1037343Y0496688D01*
X1037343Y0496668D01*
X1037543Y0496668D01*
X1037543Y0497668D01*
X1037743Y0503769D02*
X1037743Y0510469D01*
X1037623Y0516099D02*
X1037623Y0517169D01*
X1037423Y0517169D01*
X1037423Y0517179D01*
X1017863Y0517179D01*
X1017863Y0516289D01*
X1017743Y0510369D02*
X1017743Y0506969D01*
X1027743Y0516969D01*
X1017743Y0506969D02*
X1017743Y0503569D01*
X1076798Y0503569D02*
X1076798Y0506969D01*
X1086798Y0516969D01*
X1096478Y0517169D02*
X1096478Y0517179D01*
X1076918Y0517179D01*
X1076918Y0516289D01*
X1076798Y0510369D02*
X1076798Y0506969D01*
X1076908Y0497598D02*
X1076908Y0496688D01*
X1096398Y0496688D01*
X1096398Y0496668D01*
X1096598Y0496668D01*
X1096598Y0497668D01*
X1096798Y0503769D02*
X1096798Y0510469D01*
X1096678Y0516099D02*
X1096678Y0517169D01*
X1096478Y0517169D01*
X1096398Y0555724D02*
X1096398Y0555744D01*
X1076908Y0555744D01*
X1076908Y0556654D01*
X1076798Y0562624D02*
X1076798Y0566024D01*
X1086798Y0576024D01*
X1096478Y0576224D02*
X1096478Y0576234D01*
X1076918Y0576234D01*
X1076918Y0575344D01*
X1076798Y0569424D02*
X1076798Y0566024D01*
X1096798Y0562824D02*
X1096798Y0569524D01*
X1096678Y0575154D02*
X1096678Y0576224D01*
X1096478Y0576224D01*
X1096598Y0556724D02*
X1096598Y0555724D01*
X1096398Y0555724D01*
X0742267Y0732889D02*
X0742067Y0732889D01*
X0742067Y0732909D01*
X0722577Y0732909D01*
X0722577Y0733819D01*
X0722467Y0739789D02*
X0722467Y0743189D01*
X0732467Y0753189D01*
X0742147Y0753389D02*
X0742147Y0753399D01*
X0722587Y0753399D01*
X0722587Y0752509D01*
X0722467Y0746589D02*
X0722467Y0743189D01*
X0742467Y0739989D02*
X0742467Y0746689D01*
X0742347Y0752319D02*
X0742347Y0753389D01*
X0742147Y0753389D01*
X0742267Y0733889D02*
X0742267Y0732889D01*
X0683212Y0732889D02*
X0683012Y0732889D01*
X0683012Y0732909D01*
X0663522Y0732909D01*
X0663522Y0733819D01*
X0663412Y0739789D02*
X0663412Y0743189D01*
X0673412Y0753189D01*
X0683092Y0753389D02*
X0683092Y0753399D01*
X0663532Y0753399D01*
X0663532Y0752509D01*
X0663412Y0746589D02*
X0663412Y0743189D01*
X0683412Y0739989D02*
X0683412Y0746689D01*
X0683292Y0752319D02*
X0683292Y0753389D01*
X0683092Y0753389D01*
X0683212Y0733889D02*
X0683212Y0732889D01*
X0624157Y0732889D02*
X0623957Y0732889D01*
X0623957Y0732909D01*
X0604467Y0732909D01*
X0604467Y0733819D01*
X0604357Y0739789D02*
X0604357Y0743189D01*
X0614357Y0753189D01*
X0624037Y0753389D02*
X0624037Y0753399D01*
X0604477Y0753399D01*
X0604477Y0752509D01*
X0604357Y0746589D02*
X0604357Y0743189D01*
X0624357Y0739989D02*
X0624357Y0746689D01*
X0624237Y0752319D02*
X0624237Y0753389D01*
X0624037Y0753389D01*
X0624157Y0733889D02*
X0624157Y0732889D01*
X0624037Y0694344D02*
X0604477Y0694344D01*
X0604477Y0693454D01*
X0604357Y0687534D02*
X0604357Y0684134D01*
X0614357Y0694134D01*
X0624037Y0694334D02*
X0624037Y0694344D01*
X0624037Y0694334D02*
X0624237Y0694334D01*
X0624237Y0693264D01*
X0624357Y0687634D02*
X0624357Y0680934D01*
X0624157Y0674834D02*
X0624157Y0673834D01*
X0623957Y0673834D01*
X0623957Y0673854D01*
X0604467Y0673854D01*
X0604467Y0674764D01*
X0604357Y0680734D02*
X0604357Y0684134D01*
X0565302Y0680934D02*
X0565302Y0687634D01*
X0565182Y0693264D02*
X0565182Y0694334D01*
X0564982Y0694334D01*
X0564982Y0694344D01*
X0545422Y0694344D01*
X0545422Y0693454D01*
X0545302Y0687534D02*
X0545302Y0684134D01*
X0555302Y0694134D01*
X0545302Y0684134D02*
X0545302Y0680734D01*
X0545412Y0674764D02*
X0545412Y0673854D01*
X0564902Y0673854D01*
X0564902Y0673834D01*
X0565102Y0673834D01*
X0565102Y0674834D01*
X0564982Y0635289D02*
X0545422Y0635289D01*
X0545422Y0634399D01*
X0545302Y0628479D02*
X0545302Y0625079D01*
X0555302Y0635079D01*
X0564982Y0635279D02*
X0564982Y0635289D01*
X0564982Y0635279D02*
X0565182Y0635279D01*
X0565182Y0634209D01*
X0565302Y0628579D02*
X0565302Y0621879D01*
X0565102Y0615779D02*
X0565102Y0614779D01*
X0564902Y0614779D01*
X0564902Y0614799D01*
X0545412Y0614799D01*
X0545412Y0615709D01*
X0545302Y0621679D02*
X0545302Y0625079D01*
X0506247Y0621879D02*
X0506247Y0628579D01*
X0506127Y0634209D02*
X0506127Y0635279D01*
X0505927Y0635279D01*
X0505927Y0635289D01*
X0486367Y0635289D01*
X0486367Y0634399D01*
X0486247Y0628479D02*
X0486247Y0625079D01*
X0496247Y0635079D01*
X0486247Y0625079D02*
X0486247Y0621679D01*
X0486357Y0615709D02*
X0486357Y0614799D01*
X0505847Y0614799D01*
X0505847Y0614779D01*
X0506047Y0614779D01*
X0506047Y0615779D01*
X0505927Y0576234D02*
X0486367Y0576234D01*
X0486367Y0575344D01*
X0486247Y0569424D02*
X0486247Y0566024D01*
X0496247Y0576024D01*
X0505927Y0576224D02*
X0505927Y0576234D01*
X0505927Y0576224D02*
X0506127Y0576224D01*
X0506127Y0575154D01*
X0506247Y0569524D02*
X0506247Y0562824D01*
X0506047Y0556724D02*
X0506047Y0555724D01*
X0505847Y0555724D01*
X0505847Y0555744D01*
X0486357Y0555744D01*
X0486357Y0556654D01*
X0486247Y0562624D02*
X0486247Y0566024D01*
X0447192Y0562824D02*
X0447192Y0569524D01*
X0447072Y0575154D02*
X0447072Y0576224D01*
X0446872Y0576224D01*
X0446872Y0576234D01*
X0427312Y0576234D01*
X0427312Y0575344D01*
X0427192Y0569424D02*
X0427192Y0566024D01*
X0437192Y0576024D01*
X0427192Y0566024D02*
X0427192Y0562624D01*
X0427302Y0556654D02*
X0427302Y0555744D01*
X0446792Y0555744D01*
X0446792Y0555724D01*
X0446992Y0555724D01*
X0446992Y0556724D01*
X0446872Y0517179D02*
X0427312Y0517179D01*
X0427312Y0516289D01*
X0427192Y0510369D02*
X0427192Y0506969D01*
X0437192Y0516969D01*
X0446872Y0517169D02*
X0446872Y0517179D01*
X0446872Y0517169D02*
X0447072Y0517169D01*
X0447072Y0516099D01*
X0447192Y0510469D02*
X0447192Y0503769D01*
X0446992Y0497668D02*
X0446992Y0496668D01*
X0446792Y0496668D01*
X0446792Y0496688D01*
X0427302Y0496688D01*
X0427302Y0497598D01*
X0427192Y0503569D02*
X0427192Y0506969D01*
X0388136Y0503769D02*
X0388136Y0510469D01*
X0388016Y0516099D02*
X0388016Y0517169D01*
X0387816Y0517169D01*
X0387816Y0517179D01*
X0368256Y0517179D01*
X0368256Y0516289D01*
X0368136Y0510369D02*
X0368136Y0506969D01*
X0378136Y0516969D01*
X0368136Y0506969D02*
X0368136Y0503569D01*
X0368246Y0497598D02*
X0368246Y0496688D01*
X0387736Y0496688D01*
X0387736Y0496668D01*
X0387936Y0496668D01*
X0387936Y0497668D01*
X0387816Y0458123D02*
X0368256Y0458123D01*
X0368256Y0457233D01*
X0368136Y0451313D02*
X0368136Y0447913D01*
X0378136Y0457913D01*
X0387816Y0458113D02*
X0387816Y0458123D01*
X0387816Y0458113D02*
X0388016Y0458113D01*
X0388016Y0457043D01*
X0388136Y0451413D02*
X0388136Y0444713D01*
X0387936Y0438613D02*
X0387936Y0437613D01*
X0387736Y0437613D01*
X0387736Y0437633D01*
X0368246Y0437633D01*
X0368246Y0438543D01*
X0368136Y0444513D02*
X0368136Y0447913D01*
X0329081Y0444713D02*
X0329081Y0451413D01*
X0328961Y0457043D02*
X0328961Y0458113D01*
X0328761Y0458113D01*
X0328761Y0458123D01*
X0309201Y0458123D01*
X0309201Y0457233D01*
X0309081Y0451313D02*
X0309081Y0447913D01*
X0319081Y0457913D01*
X0309081Y0447913D02*
X0309081Y0444513D01*
X0309191Y0438543D02*
X0309191Y0437633D01*
X0328681Y0437633D01*
X0328681Y0437613D01*
X0328881Y0437613D01*
X0328881Y0438613D01*
X0328761Y0399068D02*
X0309201Y0399068D01*
X0309201Y0398178D01*
X0309081Y0392258D02*
X0309081Y0388858D01*
X0319081Y0398858D01*
X0328761Y0399058D02*
X0328761Y0399068D01*
X0328761Y0399058D02*
X0328961Y0399058D01*
X0328961Y0397988D01*
X0329081Y0392358D02*
X0329081Y0385658D01*
X0328881Y0379558D02*
X0328881Y0378558D01*
X0328681Y0378558D01*
X0328681Y0378578D01*
X0309191Y0378578D01*
X0309191Y0379488D01*
X0309081Y0385458D02*
X0309081Y0388858D01*
X0270026Y0385658D02*
X0270026Y0392358D01*
X0269906Y0397988D02*
X0269906Y0399058D01*
X0269706Y0399058D01*
X0269706Y0399068D01*
X0250146Y0399068D01*
X0250146Y0398178D01*
X0250026Y0392258D02*
X0250026Y0388858D01*
X0260026Y0398858D01*
X0250026Y0388858D02*
X0250026Y0385458D01*
X0250136Y0379488D02*
X0250136Y0378578D01*
X0269626Y0378578D01*
X0269626Y0378558D01*
X0269826Y0378558D01*
X0269826Y0379558D01*
X0269706Y0340013D02*
X0250146Y0340013D01*
X0250146Y0339123D01*
X0250026Y0333203D02*
X0250026Y0329803D01*
X0260026Y0339803D01*
X0269706Y0340003D02*
X0269706Y0340013D01*
X0269706Y0340003D02*
X0269906Y0340003D01*
X0269906Y0338933D01*
X0270026Y0333303D02*
X0270026Y0326603D01*
X0269826Y0320503D02*
X0269826Y0319503D01*
X0269626Y0319503D01*
X0269626Y0319523D01*
X0250136Y0319523D01*
X0250136Y0320433D01*
X0250026Y0326403D02*
X0250026Y0329803D01*
X0210971Y0326603D02*
X0210971Y0333303D01*
X0210851Y0338933D02*
X0210851Y0340003D01*
X0210651Y0340003D01*
X0210651Y0340013D01*
X0191091Y0340013D01*
X0191091Y0339123D01*
X0190971Y0333203D02*
X0190971Y0329803D01*
X0200971Y0339803D01*
X0190971Y0329803D02*
X0190971Y0326403D01*
X0191081Y0320433D02*
X0191081Y0319523D01*
X0210571Y0319523D01*
X0210571Y0319503D01*
X0210771Y0319503D01*
X0210771Y0320503D01*
X0210651Y0280958D02*
X0191091Y0280958D01*
X0191091Y0280068D01*
X0190971Y0274148D02*
X0190971Y0270748D01*
X0200971Y0280748D01*
X0210651Y0280948D02*
X0210651Y0280958D01*
X0210651Y0280948D02*
X0210851Y0280948D01*
X0210851Y0279878D01*
X0210971Y0274248D02*
X0210971Y0267548D01*
X0210771Y0261448D02*
X0210771Y0260448D01*
X0210571Y0260448D01*
X0210571Y0260468D01*
X0191081Y0260468D01*
X0191081Y0261378D01*
X0190971Y0267348D02*
X0190971Y0270748D01*
X0151916Y0267548D02*
X0151916Y0274248D01*
X0151796Y0279878D02*
X0151796Y0280948D01*
X0151596Y0280948D01*
X0151596Y0280958D01*
X0132036Y0280958D01*
X0132036Y0280068D01*
X0131916Y0274148D02*
X0131916Y0270748D01*
X0141916Y0280748D01*
X0131916Y0270748D02*
X0131916Y0267348D01*
X0132026Y0261378D02*
X0132026Y0260468D01*
X0151516Y0260468D01*
X0151516Y0260448D01*
X0151716Y0260448D01*
X0151716Y0261448D01*
X0151596Y0221903D02*
X0132036Y0221903D01*
X0132036Y0221013D01*
X0131916Y0215093D02*
X0131916Y0211693D01*
X0141916Y0221693D01*
X0151596Y0221893D02*
X0151596Y0221903D01*
X0151596Y0221893D02*
X0151796Y0221893D01*
X0151796Y0220823D01*
X0151916Y0215193D02*
X0151916Y0208493D01*
X0151716Y0202393D02*
X0151716Y0201393D01*
X0151516Y0201393D01*
X0151516Y0201413D01*
X0132026Y0201413D01*
X0132026Y0202323D01*
X0131916Y0208293D02*
X0131916Y0211693D01*
X0190971Y0211693D02*
X0190971Y0208293D01*
X0190971Y0211693D02*
X0200971Y0221693D01*
X0210651Y0221893D02*
X0210651Y0221903D01*
X0191091Y0221903D01*
X0191091Y0221013D01*
X0190971Y0215093D02*
X0190971Y0211693D01*
X0191081Y0202323D02*
X0191081Y0201413D01*
X0210571Y0201413D01*
X0210571Y0201393D01*
X0210771Y0201393D01*
X0210771Y0202393D01*
X0210971Y0208493D02*
X0210971Y0215193D01*
X0210851Y0220823D02*
X0210851Y0221893D01*
X0210651Y0221893D01*
X0250146Y0221903D02*
X0250146Y0221013D01*
X0250146Y0221903D02*
X0269706Y0221903D01*
X0269706Y0221893D01*
X0269906Y0221893D01*
X0269906Y0220823D01*
X0270026Y0215193D02*
X0270026Y0208493D01*
X0269826Y0202393D02*
X0269826Y0201393D01*
X0269626Y0201393D01*
X0269626Y0201413D01*
X0250136Y0201413D01*
X0250136Y0202323D01*
X0250026Y0208293D02*
X0250026Y0211693D01*
X0260026Y0221693D01*
X0250026Y0215093D02*
X0250026Y0211693D01*
X0250136Y0260468D02*
X0250136Y0261378D01*
X0250136Y0260468D02*
X0269626Y0260468D01*
X0269626Y0260448D01*
X0269826Y0260448D01*
X0269826Y0261448D01*
X0270026Y0267548D02*
X0270026Y0274248D01*
X0269906Y0279878D02*
X0269906Y0280948D01*
X0269706Y0280948D01*
X0269706Y0280958D01*
X0250146Y0280958D01*
X0250146Y0280068D01*
X0250026Y0274148D02*
X0250026Y0270748D01*
X0260026Y0280748D01*
X0250026Y0270748D02*
X0250026Y0267348D01*
X0309081Y0267348D02*
X0309081Y0270748D01*
X0319081Y0280748D01*
X0328761Y0280948D02*
X0328761Y0280958D01*
X0309201Y0280958D01*
X0309201Y0280068D01*
X0309081Y0274148D02*
X0309081Y0270748D01*
X0309191Y0261378D02*
X0309191Y0260468D01*
X0328681Y0260468D01*
X0328681Y0260448D01*
X0328881Y0260448D01*
X0328881Y0261448D01*
X0329081Y0267548D02*
X0329081Y0274248D01*
X0328961Y0279878D02*
X0328961Y0280948D01*
X0328761Y0280948D01*
X0368256Y0280958D02*
X0368256Y0280068D01*
X0368256Y0280958D02*
X0387816Y0280958D01*
X0387816Y0280948D01*
X0388016Y0280948D01*
X0388016Y0279878D01*
X0388136Y0274248D02*
X0388136Y0267548D01*
X0387936Y0261448D02*
X0387936Y0260448D01*
X0387736Y0260448D01*
X0387736Y0260468D01*
X0368246Y0260468D01*
X0368246Y0261378D01*
X0368136Y0267348D02*
X0368136Y0270748D01*
X0378136Y0280748D01*
X0368136Y0274148D02*
X0368136Y0270748D01*
X0427192Y0270748D02*
X0427192Y0267348D01*
X0427192Y0270748D02*
X0437192Y0280748D01*
X0446872Y0280948D02*
X0446872Y0280958D01*
X0427312Y0280958D01*
X0427312Y0280068D01*
X0427192Y0274148D02*
X0427192Y0270748D01*
X0427302Y0261378D02*
X0427302Y0260468D01*
X0446792Y0260468D01*
X0446792Y0260448D01*
X0446992Y0260448D01*
X0446992Y0261448D01*
X0447192Y0267548D02*
X0447192Y0274248D01*
X0447072Y0279878D02*
X0447072Y0280948D01*
X0446872Y0280948D01*
X0446792Y0319503D02*
X0446792Y0319523D01*
X0427302Y0319523D01*
X0427302Y0320433D01*
X0427192Y0326403D02*
X0427192Y0329803D01*
X0437192Y0339803D01*
X0446872Y0340003D02*
X0446872Y0340013D01*
X0427312Y0340013D01*
X0427312Y0339123D01*
X0427192Y0333203D02*
X0427192Y0329803D01*
X0447192Y0326603D02*
X0447192Y0333303D01*
X0447072Y0338933D02*
X0447072Y0340003D01*
X0446872Y0340003D01*
X0446992Y0320503D02*
X0446992Y0319503D01*
X0446792Y0319503D01*
X0387936Y0319503D02*
X0387736Y0319503D01*
X0387736Y0319523D01*
X0368246Y0319523D01*
X0368246Y0320433D01*
X0368136Y0326403D02*
X0368136Y0329803D01*
X0378136Y0339803D01*
X0387816Y0340003D02*
X0387816Y0340013D01*
X0368256Y0340013D01*
X0368256Y0339123D01*
X0368136Y0333203D02*
X0368136Y0329803D01*
X0388136Y0326603D02*
X0388136Y0333303D01*
X0388016Y0338933D02*
X0388016Y0340003D01*
X0387816Y0340003D01*
X0387936Y0320503D02*
X0387936Y0319503D01*
X0328881Y0319503D02*
X0328681Y0319503D01*
X0328681Y0319523D01*
X0309191Y0319523D01*
X0309191Y0320433D01*
X0309081Y0326403D02*
X0309081Y0329803D01*
X0319081Y0339803D01*
X0328761Y0340003D02*
X0328761Y0340013D01*
X0309201Y0340013D01*
X0309201Y0339123D01*
X0309081Y0333203D02*
X0309081Y0329803D01*
X0329081Y0326603D02*
X0329081Y0333303D01*
X0328961Y0338933D02*
X0328961Y0340003D01*
X0328761Y0340003D01*
X0328881Y0320503D02*
X0328881Y0319503D01*
X0368246Y0378578D02*
X0368246Y0379488D01*
X0368246Y0378578D02*
X0387736Y0378578D01*
X0387736Y0378558D01*
X0387936Y0378558D01*
X0387936Y0379558D01*
X0388136Y0385658D02*
X0388136Y0392358D01*
X0388016Y0397988D02*
X0388016Y0399058D01*
X0387816Y0399058D01*
X0387816Y0399068D01*
X0368256Y0399068D01*
X0368256Y0398178D01*
X0368136Y0392258D02*
X0368136Y0388858D01*
X0378136Y0398858D01*
X0368136Y0388858D02*
X0368136Y0385458D01*
X0427192Y0385458D02*
X0427192Y0388858D01*
X0437192Y0398858D01*
X0446872Y0399058D02*
X0446872Y0399068D01*
X0427312Y0399068D01*
X0427312Y0398178D01*
X0427192Y0392258D02*
X0427192Y0388858D01*
X0427302Y0379488D02*
X0427302Y0378578D01*
X0446792Y0378578D01*
X0446792Y0378558D01*
X0446992Y0378558D01*
X0446992Y0379558D01*
X0447192Y0385658D02*
X0447192Y0392358D01*
X0447072Y0397988D02*
X0447072Y0399058D01*
X0446872Y0399058D01*
X0486367Y0399068D02*
X0486367Y0398178D01*
X0486367Y0399068D02*
X0505927Y0399068D01*
X0505927Y0399058D01*
X0506127Y0399058D01*
X0506127Y0397988D01*
X0506247Y0392358D02*
X0506247Y0385658D01*
X0506047Y0379558D02*
X0506047Y0378558D01*
X0505847Y0378558D01*
X0505847Y0378578D01*
X0486357Y0378578D01*
X0486357Y0379488D01*
X0486247Y0385458D02*
X0486247Y0388858D01*
X0496247Y0398858D01*
X0486247Y0392258D02*
X0486247Y0388858D01*
X0545302Y0388858D02*
X0545302Y0385458D01*
X0545302Y0388858D02*
X0555302Y0398858D01*
X0564982Y0399058D02*
X0564982Y0399068D01*
X0545422Y0399068D01*
X0545422Y0398178D01*
X0545302Y0392258D02*
X0545302Y0388858D01*
X0545412Y0379488D02*
X0545412Y0378578D01*
X0564902Y0378578D01*
X0564902Y0378558D01*
X0565102Y0378558D01*
X0565102Y0379558D01*
X0565302Y0385658D02*
X0565302Y0392358D01*
X0565182Y0397988D02*
X0565182Y0399058D01*
X0564982Y0399058D01*
X0564902Y0437613D02*
X0564902Y0437633D01*
X0545412Y0437633D01*
X0545412Y0438543D01*
X0545302Y0444513D02*
X0545302Y0447913D01*
X0555302Y0457913D01*
X0564982Y0458113D02*
X0564982Y0458123D01*
X0545422Y0458123D01*
X0545422Y0457233D01*
X0545302Y0451313D02*
X0545302Y0447913D01*
X0565302Y0444713D02*
X0565302Y0451413D01*
X0565182Y0457043D02*
X0565182Y0458113D01*
X0564982Y0458113D01*
X0565102Y0438613D02*
X0565102Y0437613D01*
X0564902Y0437613D01*
X0506047Y0437613D02*
X0505847Y0437613D01*
X0505847Y0437633D01*
X0486357Y0437633D01*
X0486357Y0438543D01*
X0486247Y0444513D02*
X0486247Y0447913D01*
X0496247Y0457913D01*
X0505927Y0458113D02*
X0505927Y0458123D01*
X0486367Y0458123D01*
X0486367Y0457233D01*
X0486247Y0451313D02*
X0486247Y0447913D01*
X0506247Y0444713D02*
X0506247Y0451413D01*
X0506127Y0457043D02*
X0506127Y0458113D01*
X0505927Y0458113D01*
X0506047Y0438613D02*
X0506047Y0437613D01*
X0446992Y0437613D02*
X0446792Y0437613D01*
X0446792Y0437633D01*
X0427302Y0437633D01*
X0427302Y0438543D01*
X0427192Y0444513D02*
X0427192Y0447913D01*
X0437192Y0457913D01*
X0446872Y0458113D02*
X0446872Y0458123D01*
X0427312Y0458123D01*
X0427312Y0457233D01*
X0427192Y0451313D02*
X0427192Y0447913D01*
X0447192Y0444713D02*
X0447192Y0451413D01*
X0447072Y0457043D02*
X0447072Y0458113D01*
X0446872Y0458113D01*
X0446992Y0438613D02*
X0446992Y0437613D01*
X0486357Y0496688D02*
X0486357Y0497598D01*
X0486357Y0496688D02*
X0505847Y0496688D01*
X0505847Y0496668D01*
X0506047Y0496668D01*
X0506047Y0497668D01*
X0506247Y0503769D02*
X0506247Y0510469D01*
X0506127Y0516099D02*
X0506127Y0517169D01*
X0505927Y0517169D01*
X0505927Y0517179D01*
X0486367Y0517179D01*
X0486367Y0516289D01*
X0486247Y0510369D02*
X0486247Y0506969D01*
X0496247Y0516969D01*
X0486247Y0506969D02*
X0486247Y0503569D01*
X0387936Y0555724D02*
X0387736Y0555724D01*
X0387736Y0555744D01*
X0368246Y0555744D01*
X0368246Y0556654D01*
X0368136Y0562624D02*
X0368136Y0566024D01*
X0378136Y0576024D01*
X0387816Y0576224D02*
X0387816Y0576234D01*
X0368256Y0576234D01*
X0368256Y0575344D01*
X0368136Y0569424D02*
X0368136Y0566024D01*
X0388136Y0562824D02*
X0388136Y0569524D01*
X0388016Y0575154D02*
X0388016Y0576224D01*
X0387816Y0576224D01*
X0387936Y0556724D02*
X0387936Y0555724D01*
X0328881Y0555724D02*
X0328681Y0555724D01*
X0328681Y0555744D01*
X0309191Y0555744D01*
X0309191Y0556654D01*
X0309081Y0562624D02*
X0309081Y0566024D01*
X0319081Y0576024D01*
X0328761Y0576224D02*
X0328761Y0576234D01*
X0309201Y0576234D01*
X0309201Y0575344D01*
X0309081Y0569424D02*
X0309081Y0566024D01*
X0329081Y0562824D02*
X0329081Y0569524D01*
X0328961Y0575154D02*
X0328961Y0576224D01*
X0328761Y0576224D01*
X0328881Y0556724D02*
X0328881Y0555724D01*
X0328761Y0517179D02*
X0309201Y0517179D01*
X0309201Y0516289D01*
X0309081Y0510369D02*
X0309081Y0506969D01*
X0319081Y0516969D01*
X0328761Y0517169D02*
X0328761Y0517179D01*
X0328761Y0517169D02*
X0328961Y0517169D01*
X0328961Y0516099D01*
X0329081Y0510469D02*
X0329081Y0503769D01*
X0328881Y0497668D02*
X0328881Y0496668D01*
X0328681Y0496668D01*
X0328681Y0496688D01*
X0309191Y0496688D01*
X0309191Y0497598D01*
X0309081Y0503569D02*
X0309081Y0506969D01*
X0270026Y0503769D02*
X0270026Y0510469D01*
X0269906Y0516099D02*
X0269906Y0517169D01*
X0269706Y0517169D01*
X0269706Y0517179D01*
X0250146Y0517179D01*
X0250146Y0516289D01*
X0250026Y0510369D02*
X0250026Y0506969D01*
X0260026Y0516969D01*
X0250026Y0506969D02*
X0250026Y0503569D01*
X0250136Y0497598D02*
X0250136Y0496688D01*
X0269626Y0496688D01*
X0269626Y0496668D01*
X0269826Y0496668D01*
X0269826Y0497668D01*
X0269706Y0458123D02*
X0250146Y0458123D01*
X0250146Y0457233D01*
X0250026Y0451313D02*
X0250026Y0447913D01*
X0260026Y0457913D01*
X0269706Y0458113D02*
X0269706Y0458123D01*
X0269706Y0458113D02*
X0269906Y0458113D01*
X0269906Y0457043D01*
X0270026Y0451413D02*
X0270026Y0444713D01*
X0269826Y0438613D02*
X0269826Y0437613D01*
X0269626Y0437613D01*
X0269626Y0437633D01*
X0250136Y0437633D01*
X0250136Y0438543D01*
X0250026Y0444513D02*
X0250026Y0447913D01*
X0210971Y0444713D02*
X0210971Y0451413D01*
X0210851Y0457043D02*
X0210851Y0458113D01*
X0210651Y0458113D01*
X0210651Y0458123D01*
X0191091Y0458123D01*
X0191091Y0457233D01*
X0190971Y0451313D02*
X0190971Y0447913D01*
X0200971Y0457913D01*
X0190971Y0447913D02*
X0190971Y0444513D01*
X0191081Y0438543D02*
X0191081Y0437633D01*
X0210571Y0437633D01*
X0210571Y0437613D01*
X0210771Y0437613D01*
X0210771Y0438613D01*
X0210651Y0399068D02*
X0191091Y0399068D01*
X0191091Y0398178D01*
X0190971Y0392258D02*
X0190971Y0388858D01*
X0200971Y0398858D01*
X0210651Y0399058D02*
X0210651Y0399068D01*
X0210651Y0399058D02*
X0210851Y0399058D01*
X0210851Y0397988D01*
X0210971Y0392358D02*
X0210971Y0385658D01*
X0210771Y0379558D02*
X0210771Y0378558D01*
X0210571Y0378558D01*
X0210571Y0378578D01*
X0191081Y0378578D01*
X0191081Y0379488D01*
X0190971Y0385458D02*
X0190971Y0388858D01*
X0151916Y0385658D02*
X0151916Y0392358D01*
X0151796Y0397988D02*
X0151796Y0399058D01*
X0151596Y0399058D01*
X0151596Y0399068D01*
X0132036Y0399068D01*
X0132036Y0398178D01*
X0131916Y0392258D02*
X0131916Y0388858D01*
X0141916Y0398858D01*
X0131916Y0388858D02*
X0131916Y0385458D01*
X0132026Y0379488D02*
X0132026Y0378578D01*
X0151516Y0378578D01*
X0151516Y0378558D01*
X0151716Y0378558D01*
X0151716Y0379558D01*
X0151596Y0340013D02*
X0132036Y0340013D01*
X0132036Y0339123D01*
X0131916Y0333203D02*
X0131916Y0329803D01*
X0141916Y0339803D01*
X0151596Y0340003D02*
X0151596Y0340013D01*
X0151596Y0340003D02*
X0151796Y0340003D01*
X0151796Y0338933D01*
X0151916Y0333303D02*
X0151916Y0326603D01*
X0151716Y0320503D02*
X0151716Y0319503D01*
X0151516Y0319503D01*
X0151516Y0319523D01*
X0132026Y0319523D01*
X0132026Y0320433D01*
X0131916Y0326403D02*
X0131916Y0329803D01*
X0092861Y0326603D02*
X0092861Y0333303D01*
X0092741Y0338933D02*
X0092741Y0340003D01*
X0092541Y0340003D01*
X0092541Y0340013D01*
X0072981Y0340013D01*
X0072981Y0339123D01*
X0072861Y0333203D02*
X0072861Y0329803D01*
X0082861Y0339803D01*
X0072861Y0329803D02*
X0072861Y0326403D01*
X0072971Y0320433D02*
X0072971Y0319523D01*
X0092461Y0319523D01*
X0092461Y0319503D01*
X0092661Y0319503D01*
X0092661Y0320503D01*
X0092541Y0280958D02*
X0072981Y0280958D01*
X0072981Y0280068D01*
X0072861Y0274148D02*
X0072861Y0270748D01*
X0082861Y0280748D01*
X0092541Y0280948D02*
X0092541Y0280958D01*
X0092541Y0280948D02*
X0092741Y0280948D01*
X0092741Y0279878D01*
X0092861Y0274248D02*
X0092861Y0267548D01*
X0092661Y0261448D02*
X0092661Y0260448D01*
X0092461Y0260448D01*
X0092461Y0260468D01*
X0072971Y0260468D01*
X0072971Y0261378D01*
X0072861Y0267348D02*
X0072861Y0270748D01*
X0035464Y0171234D02*
X0034298Y0171234D01*
X0034298Y0167034D01*
X0034298Y0168901D02*
X0035464Y0168901D01*
X0035698Y0168901D02*
X0036631Y0167034D01*
X0035464Y0168900D02*
X0035531Y0168902D01*
X0035597Y0168908D01*
X0035663Y0168917D01*
X0035728Y0168930D01*
X0035793Y0168947D01*
X0035856Y0168968D01*
X0035918Y0168992D01*
X0035979Y0169020D01*
X0036038Y0169051D01*
X0036095Y0169085D01*
X0036150Y0169123D01*
X0036203Y0169164D01*
X0036253Y0169207D01*
X0036301Y0169254D01*
X0036346Y0169303D01*
X0036388Y0169354D01*
X0036427Y0169408D01*
X0036463Y0169464D01*
X0036496Y0169522D01*
X0036526Y0169582D01*
X0036551Y0169644D01*
X0036574Y0169706D01*
X0036593Y0169770D01*
X0036608Y0169835D01*
X0036619Y0169901D01*
X0036627Y0169967D01*
X0036631Y0170034D01*
X0036631Y0170100D01*
X0036627Y0170167D01*
X0036619Y0170233D01*
X0036608Y0170299D01*
X0036593Y0170364D01*
X0036574Y0170428D01*
X0036551Y0170490D01*
X0036526Y0170552D01*
X0036496Y0170612D01*
X0036463Y0170670D01*
X0036427Y0170726D01*
X0036388Y0170780D01*
X0036346Y0170831D01*
X0036301Y0170880D01*
X0036253Y0170927D01*
X0036203Y0170970D01*
X0036150Y0171011D01*
X0036095Y0171049D01*
X0036038Y0171083D01*
X0035979Y0171114D01*
X0035918Y0171142D01*
X0035856Y0171166D01*
X0035793Y0171187D01*
X0035728Y0171204D01*
X0035663Y0171217D01*
X0035597Y0171226D01*
X0035531Y0171232D01*
X0035464Y0171234D01*
X0031787Y0171234D02*
X0031787Y0167034D01*
X0029454Y0171234D01*
X0029454Y0167034D01*
X0025971Y0167034D02*
X0024804Y0167034D01*
X0025971Y0167034D02*
X0026038Y0167036D01*
X0026104Y0167042D01*
X0026170Y0167051D01*
X0026235Y0167064D01*
X0026300Y0167081D01*
X0026363Y0167102D01*
X0026425Y0167126D01*
X0026486Y0167154D01*
X0026545Y0167185D01*
X0026602Y0167219D01*
X0026657Y0167257D01*
X0026710Y0167298D01*
X0026760Y0167341D01*
X0026808Y0167388D01*
X0026853Y0167437D01*
X0026895Y0167488D01*
X0026934Y0167542D01*
X0026970Y0167598D01*
X0027003Y0167656D01*
X0027033Y0167716D01*
X0027058Y0167778D01*
X0027081Y0167840D01*
X0027100Y0167904D01*
X0027115Y0167969D01*
X0027126Y0168035D01*
X0027134Y0168101D01*
X0027138Y0168168D01*
X0027138Y0168234D01*
X0027134Y0168301D01*
X0027126Y0168367D01*
X0027115Y0168433D01*
X0027100Y0168498D01*
X0027081Y0168562D01*
X0027058Y0168624D01*
X0027033Y0168686D01*
X0027003Y0168746D01*
X0026970Y0168804D01*
X0026934Y0168860D01*
X0026895Y0168914D01*
X0026853Y0168965D01*
X0026808Y0169014D01*
X0026760Y0169061D01*
X0026710Y0169104D01*
X0026657Y0169145D01*
X0026602Y0169183D01*
X0026545Y0169217D01*
X0026486Y0169248D01*
X0026425Y0169276D01*
X0026363Y0169300D01*
X0026300Y0169321D01*
X0026235Y0169338D01*
X0026170Y0169351D01*
X0026104Y0169360D01*
X0026038Y0169366D01*
X0025971Y0169368D01*
X0026204Y0169367D02*
X0025271Y0169367D01*
X0026204Y0169368D02*
X0026264Y0169370D01*
X0026323Y0169376D01*
X0026382Y0169385D01*
X0026441Y0169399D01*
X0026498Y0169416D01*
X0026554Y0169436D01*
X0026609Y0169460D01*
X0026662Y0169488D01*
X0026713Y0169519D01*
X0026762Y0169553D01*
X0026809Y0169591D01*
X0026853Y0169631D01*
X0026895Y0169674D01*
X0026933Y0169719D01*
X0026969Y0169767D01*
X0027002Y0169817D01*
X0027031Y0169869D01*
X0027057Y0169923D01*
X0027080Y0169979D01*
X0027098Y0170036D01*
X0027114Y0170093D01*
X0027125Y0170152D01*
X0027133Y0170211D01*
X0027137Y0170271D01*
X0027137Y0170331D01*
X0027133Y0170391D01*
X0027125Y0170450D01*
X0027114Y0170509D01*
X0027098Y0170566D01*
X0027080Y0170623D01*
X0027057Y0170679D01*
X0027031Y0170733D01*
X0027002Y0170785D01*
X0026969Y0170835D01*
X0026933Y0170883D01*
X0026895Y0170928D01*
X0026853Y0170971D01*
X0026809Y0171011D01*
X0026762Y0171049D01*
X0026713Y0171083D01*
X0026662Y0171114D01*
X0026609Y0171142D01*
X0026554Y0171166D01*
X0026498Y0171186D01*
X0026441Y0171203D01*
X0026382Y0171217D01*
X0026323Y0171226D01*
X0026264Y0171232D01*
X0026204Y0171234D01*
X0024804Y0171234D01*
X0021471Y0171234D02*
X0021471Y0167034D01*
X0020304Y0167034D02*
X0022638Y0167034D01*
X0020304Y0170301D02*
X0021471Y0171234D01*
X0207282Y0155736D02*
X0207282Y0144803D01*
X0207282Y0155736D02*
X0211325Y0155736D01*
X0368256Y0103793D02*
X0368256Y0102903D01*
X0368256Y0103793D02*
X0387816Y0103793D01*
X0387816Y0103783D01*
X0388016Y0103783D01*
X0388016Y0102713D01*
X0388136Y0097083D02*
X0388136Y0090383D01*
X0387936Y0084283D02*
X0387936Y0083283D01*
X0387736Y0083283D01*
X0387736Y0083303D01*
X0368246Y0083303D01*
X0368246Y0084213D01*
X0368136Y0090183D02*
X0368136Y0093583D01*
X0378136Y0103583D01*
X0368136Y0096983D02*
X0368136Y0093583D01*
X0427192Y0093583D02*
X0427192Y0090183D01*
X0427192Y0093583D02*
X0437192Y0103583D01*
X0446872Y0103783D02*
X0446872Y0103793D01*
X0427312Y0103793D01*
X0427312Y0102903D01*
X0427192Y0096983D02*
X0427192Y0093583D01*
X0427302Y0084213D02*
X0427302Y0083303D01*
X0446792Y0083303D01*
X0446792Y0083283D01*
X0446992Y0083283D01*
X0446992Y0084283D01*
X0447192Y0090383D02*
X0447192Y0097083D01*
X0447072Y0102713D02*
X0447072Y0103783D01*
X0446872Y0103783D01*
X0486367Y0103793D02*
X0486367Y0102903D01*
X0486367Y0103793D02*
X0505927Y0103793D01*
X0505927Y0103783D01*
X0506127Y0103783D01*
X0506127Y0102713D01*
X0506247Y0097083D02*
X0506247Y0090383D01*
X0506047Y0084283D02*
X0506047Y0083283D01*
X0505847Y0083283D01*
X0505847Y0083303D01*
X0486357Y0083303D01*
X0486357Y0084213D01*
X0486247Y0090183D02*
X0486247Y0093583D01*
X0496247Y0103583D01*
X0486247Y0096983D02*
X0486247Y0093583D01*
X0545302Y0093583D02*
X0545302Y0090183D01*
X0545302Y0093583D02*
X0555302Y0103583D01*
X0564982Y0103783D02*
X0564982Y0103793D01*
X0545422Y0103793D01*
X0545422Y0102903D01*
X0545302Y0096983D02*
X0545302Y0093583D01*
X0545412Y0084213D02*
X0545412Y0083303D01*
X0564902Y0083303D01*
X0564902Y0083283D01*
X0565102Y0083283D01*
X0565102Y0084283D01*
X0565302Y0090383D02*
X0565302Y0097083D01*
X0565182Y0102713D02*
X0565182Y0103783D01*
X0564982Y0103783D01*
X0564902Y0142338D02*
X0564902Y0142358D01*
X0545412Y0142358D01*
X0545412Y0143268D01*
X0545302Y0149238D02*
X0545302Y0152638D01*
X0555302Y0162638D01*
X0564982Y0162838D02*
X0564982Y0162848D01*
X0545422Y0162848D01*
X0545422Y0161958D01*
X0545302Y0156038D02*
X0545302Y0152638D01*
X0565302Y0149438D02*
X0565302Y0156138D01*
X0565182Y0161768D02*
X0565182Y0162838D01*
X0564982Y0162838D01*
X0565102Y0143338D02*
X0565102Y0142338D01*
X0564902Y0142338D01*
X0604467Y0142358D02*
X0604467Y0143268D01*
X0604467Y0142358D02*
X0623957Y0142358D01*
X0623957Y0142338D01*
X0624157Y0142338D01*
X0624157Y0143338D01*
X0624357Y0149438D02*
X0624357Y0156138D01*
X0624237Y0161768D02*
X0624237Y0162838D01*
X0624037Y0162838D01*
X0624037Y0162848D01*
X0604477Y0162848D01*
X0604477Y0161958D01*
X0604357Y0156038D02*
X0604357Y0152638D01*
X0614357Y0162638D01*
X0604357Y0152638D02*
X0604357Y0149238D01*
X0624162Y0103793D02*
X0624162Y0102903D01*
X0624162Y0103793D02*
X0643722Y0103793D01*
X0643722Y0103783D01*
X0643922Y0103783D01*
X0643922Y0102713D01*
X0644042Y0097083D02*
X0644042Y0090383D01*
X0643842Y0084283D02*
X0643842Y0083283D01*
X0643642Y0083283D01*
X0643642Y0083303D01*
X0624152Y0083303D01*
X0624152Y0084213D01*
X0624042Y0090183D02*
X0624042Y0093583D01*
X0634042Y0103583D01*
X0624042Y0096983D02*
X0624042Y0093583D01*
X0663412Y0093583D02*
X0663412Y0090183D01*
X0663412Y0093583D02*
X0673412Y0103583D01*
X0683092Y0103783D02*
X0683092Y0103793D01*
X0663532Y0103793D01*
X0663532Y0102903D01*
X0663412Y0096983D02*
X0663412Y0093583D01*
X0683412Y0090383D02*
X0683412Y0097083D01*
X0683292Y0102713D02*
X0683292Y0103783D01*
X0683092Y0103783D01*
X0683212Y0084283D02*
X0683212Y0083283D01*
X0683012Y0083283D01*
X0683012Y0083303D01*
X0663522Y0083303D01*
X0663522Y0084213D01*
X0722577Y0084213D02*
X0722577Y0083303D01*
X0742067Y0083303D01*
X0742067Y0083283D01*
X0742267Y0083283D01*
X0742267Y0084283D01*
X0742467Y0090383D02*
X0742467Y0097083D01*
X0742347Y0102713D02*
X0742347Y0103783D01*
X0742147Y0103783D01*
X0742147Y0103793D01*
X0722587Y0103793D01*
X0722587Y0102903D01*
X0722467Y0096983D02*
X0722467Y0093583D01*
X0732467Y0103583D01*
X0722467Y0093583D02*
X0722467Y0090183D01*
X0786444Y0090183D02*
X0786444Y0093583D01*
X0796444Y0103583D01*
X0806124Y0103783D02*
X0806124Y0103793D01*
X0786564Y0103793D01*
X0786564Y0102903D01*
X0786444Y0096983D02*
X0786444Y0093583D01*
X0806444Y0090383D02*
X0806444Y0097083D01*
X0806324Y0102713D02*
X0806324Y0103783D01*
X0806124Y0103783D01*
X0806244Y0084283D02*
X0806244Y0083283D01*
X0806044Y0083283D01*
X0806044Y0083303D01*
X0786554Y0083303D01*
X0786554Y0084213D01*
X0840687Y0084213D02*
X0840687Y0083303D01*
X0860177Y0083303D01*
X0860177Y0083283D01*
X0860377Y0083283D01*
X0860377Y0084283D01*
X0860577Y0090383D02*
X0860577Y0097083D01*
X0860457Y0102713D02*
X0860457Y0103783D01*
X0860257Y0103783D01*
X0860257Y0103793D01*
X0840697Y0103793D01*
X0840697Y0102903D01*
X0840577Y0096983D02*
X0840577Y0093583D01*
X0850577Y0103583D01*
X0840577Y0093583D02*
X0840577Y0090183D01*
X0899633Y0090183D02*
X0899633Y0093583D01*
X0909633Y0103583D01*
X0919313Y0103783D02*
X0919313Y0103793D01*
X0899753Y0103793D01*
X0899753Y0102903D01*
X0899633Y0096983D02*
X0899633Y0093583D01*
X0919633Y0090383D02*
X0919633Y0097083D01*
X0919513Y0102713D02*
X0919513Y0103783D01*
X0919313Y0103783D01*
X0919433Y0084283D02*
X0919433Y0083283D01*
X0919233Y0083283D01*
X0919233Y0083303D01*
X0899743Y0083303D01*
X0899743Y0084213D01*
X0958798Y0084213D02*
X0958798Y0083303D01*
X0978288Y0083303D01*
X0978288Y0083283D01*
X0978488Y0083283D01*
X0978488Y0084283D01*
X0978688Y0090383D02*
X0978688Y0097083D01*
X0978568Y0102713D02*
X0978568Y0103783D01*
X0978368Y0103783D01*
X0978368Y0103793D01*
X0958808Y0103793D01*
X0958808Y0102903D01*
X0958688Y0096983D02*
X0958688Y0093583D01*
X0968688Y0103583D01*
X0958688Y0093583D02*
X0958688Y0090183D01*
X1017743Y0090183D02*
X1017743Y0093583D01*
X1027743Y0103583D01*
X1037423Y0103783D02*
X1037423Y0103793D01*
X1017863Y0103793D01*
X1017863Y0102903D01*
X1017743Y0096983D02*
X1017743Y0093583D01*
X1037743Y0090383D02*
X1037743Y0097083D01*
X1037623Y0102713D02*
X1037623Y0103783D01*
X1037423Y0103783D01*
X1037543Y0084283D02*
X1037543Y0083283D01*
X1037343Y0083283D01*
X1037343Y0083303D01*
X1017853Y0083303D01*
X1017853Y0084213D01*
X1076908Y0084213D02*
X1076908Y0083303D01*
X1096398Y0083303D01*
X1096398Y0083283D01*
X1096598Y0083283D01*
X1096598Y0084283D01*
X1096798Y0090383D02*
X1096798Y0097083D01*
X1096678Y0102713D02*
X1096678Y0103783D01*
X1096478Y0103783D01*
X1096478Y0103793D01*
X1076918Y0103793D01*
X1076918Y0102903D01*
X1076798Y0096983D02*
X1076798Y0093583D01*
X1086798Y0103583D01*
X1076798Y0093583D02*
X1076798Y0090183D01*
X1135853Y0090183D02*
X1135853Y0093583D01*
X1145853Y0103583D01*
X1155533Y0103783D02*
X1155533Y0103793D01*
X1135973Y0103793D01*
X1135973Y0102903D01*
X1135853Y0096983D02*
X1135853Y0093583D01*
X1155853Y0090383D02*
X1155853Y0097083D01*
X1155733Y0102713D02*
X1155733Y0103783D01*
X1155533Y0103783D01*
X1155653Y0084283D02*
X1155653Y0083283D01*
X1155453Y0083283D01*
X1155453Y0083303D01*
X1135963Y0083303D01*
X1135963Y0084213D01*
X1195018Y0084213D02*
X1195018Y0083303D01*
X1214508Y0083303D01*
X1214508Y0083283D01*
X1214708Y0083283D01*
X1214708Y0084283D01*
X1214908Y0090383D02*
X1214908Y0097083D01*
X1214788Y0102713D02*
X1214788Y0103783D01*
X1214588Y0103783D01*
X1214588Y0103793D01*
X1195028Y0103793D01*
X1195028Y0102903D01*
X1194908Y0096983D02*
X1194908Y0093583D01*
X1204908Y0103583D01*
X1194908Y0093583D02*
X1194908Y0090183D01*
X1195018Y0142358D02*
X1195018Y0143268D01*
X1195018Y0142358D02*
X1214508Y0142358D01*
X1214508Y0142338D01*
X1214708Y0142338D01*
X1214708Y0143338D01*
X1214908Y0149438D02*
X1214908Y0156138D01*
X1214788Y0161768D02*
X1214788Y0162838D01*
X1214588Y0162838D01*
X1214588Y0162848D01*
X1195028Y0162848D01*
X1195028Y0161958D01*
X1194908Y0156038D02*
X1194908Y0152638D01*
X1204908Y0162638D01*
X1194908Y0152638D02*
X1194908Y0149238D01*
X1155853Y0149438D02*
X1155853Y0156138D01*
X1155733Y0161768D02*
X1155733Y0162838D01*
X1155533Y0162838D01*
X1155533Y0162848D01*
X1135973Y0162848D01*
X1135973Y0161958D01*
X1135853Y0156038D02*
X1135853Y0152638D01*
X1145853Y0162638D01*
X1135853Y0152638D02*
X1135853Y0149238D01*
X1135963Y0143268D02*
X1135963Y0142358D01*
X1155453Y0142358D01*
X1155453Y0142338D01*
X1155653Y0142338D01*
X1155653Y0143338D01*
X1096598Y0143338D02*
X1096598Y0142338D01*
X1096398Y0142338D01*
X1096398Y0142358D01*
X1076908Y0142358D01*
X1076908Y0143268D01*
X1076798Y0149238D02*
X1076798Y0152638D01*
X1086798Y0162638D01*
X1096478Y0162838D02*
X1096478Y0162848D01*
X1076918Y0162848D01*
X1076918Y0161958D01*
X1076798Y0156038D02*
X1076798Y0152638D01*
X1096798Y0149438D02*
X1096798Y0156138D01*
X1096678Y0161768D02*
X1096678Y0162838D01*
X1096478Y0162838D01*
X1096398Y0201393D02*
X1096398Y0201413D01*
X1076908Y0201413D01*
X1076908Y0202323D01*
X1076798Y0208293D02*
X1076798Y0211693D01*
X1086798Y0221693D01*
X1096478Y0221893D02*
X1096478Y0221903D01*
X1076918Y0221903D01*
X1076918Y0221013D01*
X1076798Y0215093D02*
X1076798Y0211693D01*
X1096798Y0208493D02*
X1096798Y0215193D01*
X1096678Y0220823D02*
X1096678Y0221893D01*
X1096478Y0221893D01*
X1096598Y0202393D02*
X1096598Y0201393D01*
X1096398Y0201393D01*
X1135963Y0201413D02*
X1135963Y0202323D01*
X1135963Y0201413D02*
X1155453Y0201413D01*
X1155453Y0201393D01*
X1155653Y0201393D01*
X1155653Y0202393D01*
X1155853Y0208493D02*
X1155853Y0215193D01*
X1155733Y0220823D02*
X1155733Y0221893D01*
X1155533Y0221893D01*
X1155533Y0221903D01*
X1135973Y0221903D01*
X1135973Y0221013D01*
X1135853Y0215093D02*
X1135853Y0211693D01*
X1145853Y0221693D01*
X1135853Y0211693D02*
X1135853Y0208293D01*
X1194908Y0208293D02*
X1194908Y0211693D01*
X1204908Y0221693D01*
X1214588Y0221893D02*
X1214588Y0221903D01*
X1195028Y0221903D01*
X1195028Y0221013D01*
X1194908Y0215093D02*
X1194908Y0211693D01*
X1195018Y0202323D02*
X1195018Y0201413D01*
X1214508Y0201413D01*
X1214508Y0201393D01*
X1214708Y0201393D01*
X1214708Y0202393D01*
X1214908Y0208493D02*
X1214908Y0215193D01*
X1214788Y0220823D02*
X1214788Y0221893D01*
X1214588Y0221893D01*
X1254083Y0221903D02*
X1254083Y0221013D01*
X1254083Y0221903D02*
X1273643Y0221903D01*
X1273643Y0221893D01*
X1273843Y0221893D01*
X1273843Y0220823D01*
X1273963Y0215193D02*
X1273963Y0208493D01*
X1273763Y0202393D02*
X1273763Y0201393D01*
X1273563Y0201393D01*
X1273563Y0201413D01*
X1254073Y0201413D01*
X1254073Y0202323D01*
X1253963Y0208293D02*
X1253963Y0211693D01*
X1263963Y0221693D01*
X1253963Y0215093D02*
X1253963Y0211693D01*
X1254073Y0260468D02*
X1254073Y0261378D01*
X1254073Y0260468D02*
X1273563Y0260468D01*
X1273563Y0260448D01*
X1273763Y0260448D01*
X1273763Y0261448D01*
X1273963Y0267548D02*
X1273963Y0274248D01*
X1273843Y0279878D02*
X1273843Y0280948D01*
X1273643Y0280948D01*
X1273643Y0280958D01*
X1254083Y0280958D01*
X1254083Y0280068D01*
X1253963Y0274148D02*
X1253963Y0270748D01*
X1263963Y0280748D01*
X1253963Y0270748D02*
X1253963Y0267348D01*
X1214908Y0267548D02*
X1214908Y0274248D01*
X1214788Y0279878D02*
X1214788Y0280948D01*
X1214588Y0280948D01*
X1214588Y0280958D01*
X1195028Y0280958D01*
X1195028Y0280068D01*
X1194908Y0274148D02*
X1194908Y0270748D01*
X1204908Y0280748D01*
X1194908Y0270748D02*
X1194908Y0267348D01*
X1195018Y0261378D02*
X1195018Y0260468D01*
X1214508Y0260468D01*
X1214508Y0260448D01*
X1214708Y0260448D01*
X1214708Y0261448D01*
X1155653Y0261448D02*
X1155653Y0260448D01*
X1155453Y0260448D01*
X1155453Y0260468D01*
X1135963Y0260468D01*
X1135963Y0261378D01*
X1135853Y0267348D02*
X1135853Y0270748D01*
X1145853Y0280748D01*
X1155533Y0280948D02*
X1155533Y0280958D01*
X1135973Y0280958D01*
X1135973Y0280068D01*
X1135853Y0274148D02*
X1135853Y0270748D01*
X1155853Y0267548D02*
X1155853Y0274248D01*
X1155733Y0279878D02*
X1155733Y0280948D01*
X1155533Y0280948D01*
X1096678Y0280948D02*
X1096478Y0280948D01*
X1096478Y0280958D01*
X1076918Y0280958D01*
X1076918Y0280068D01*
X1076798Y0274148D02*
X1076798Y0270748D01*
X1086798Y0280748D01*
X1096678Y0280948D02*
X1096678Y0279878D01*
X1096798Y0274248D02*
X1096798Y0267548D01*
X1096598Y0261448D02*
X1096598Y0260448D01*
X1096398Y0260448D01*
X1096398Y0260468D01*
X1076908Y0260468D01*
X1076908Y0261378D01*
X1076798Y0267348D02*
X1076798Y0270748D01*
X1037743Y0267548D02*
X1037743Y0274248D01*
X1037623Y0279878D02*
X1037623Y0280948D01*
X1037423Y0280948D01*
X1037423Y0280958D01*
X1017863Y0280958D01*
X1017863Y0280068D01*
X1017743Y0274148D02*
X1017743Y0270748D01*
X1027743Y0280748D01*
X1017743Y0270748D02*
X1017743Y0267348D01*
X1017853Y0261378D02*
X1017853Y0260468D01*
X1037343Y0260468D01*
X1037343Y0260448D01*
X1037543Y0260448D01*
X1037543Y0261448D01*
X1037423Y0221903D02*
X1017863Y0221903D01*
X1017863Y0221013D01*
X1017743Y0215093D02*
X1017743Y0211693D01*
X1027743Y0221693D01*
X1037423Y0221893D02*
X1037423Y0221903D01*
X1037423Y0221893D02*
X1037623Y0221893D01*
X1037623Y0220823D01*
X1037743Y0215193D02*
X1037743Y0208493D01*
X1037543Y0202393D02*
X1037543Y0201393D01*
X1037343Y0201393D01*
X1037343Y0201413D01*
X1017853Y0201413D01*
X1017853Y0202323D01*
X1017743Y0208293D02*
X1017743Y0211693D01*
X0978688Y0208493D02*
X0978688Y0215193D01*
X0978568Y0220823D02*
X0978568Y0221893D01*
X0978368Y0221893D01*
X0978368Y0221903D01*
X0958808Y0221903D01*
X0958808Y0221013D01*
X0958688Y0215093D02*
X0958688Y0211693D01*
X0968688Y0221693D01*
X0958688Y0211693D02*
X0958688Y0208293D01*
X0958798Y0202323D02*
X0958798Y0201413D01*
X0978288Y0201413D01*
X0978288Y0201393D01*
X0978488Y0201393D01*
X0978488Y0202393D01*
X0978368Y0162848D02*
X0958808Y0162848D01*
X0958808Y0161958D01*
X0958688Y0156038D02*
X0958688Y0152638D01*
X0968688Y0162638D01*
X0978368Y0162838D02*
X0978368Y0162848D01*
X0978368Y0162838D02*
X0978568Y0162838D01*
X0978568Y0161768D01*
X0978688Y0156138D02*
X0978688Y0149438D01*
X0978488Y0143338D02*
X0978488Y0142338D01*
X0978288Y0142338D01*
X0978288Y0142358D01*
X0958798Y0142358D01*
X0958798Y0143268D01*
X0958688Y0149238D02*
X0958688Y0152638D01*
X0919633Y0149438D02*
X0919633Y0156138D01*
X0919513Y0161768D02*
X0919513Y0162838D01*
X0919313Y0162838D01*
X0919313Y0162848D01*
X0899753Y0162848D01*
X0899753Y0161958D01*
X0899633Y0156038D02*
X0899633Y0152638D01*
X0909633Y0162638D01*
X0899633Y0152638D02*
X0899633Y0149238D01*
X0899743Y0143268D02*
X0899743Y0142358D01*
X0919233Y0142358D01*
X0919233Y0142338D01*
X0919433Y0142338D01*
X0919433Y0143338D01*
X0860377Y0143338D02*
X0860377Y0142338D01*
X0860177Y0142338D01*
X0860177Y0142358D01*
X0840687Y0142358D01*
X0840687Y0143268D01*
X0840577Y0149238D02*
X0840577Y0152638D01*
X0850577Y0162638D01*
X0860257Y0162838D02*
X0860257Y0162848D01*
X0840697Y0162848D01*
X0840697Y0161958D01*
X0840577Y0156038D02*
X0840577Y0152638D01*
X0860577Y0149438D02*
X0860577Y0156138D01*
X0860457Y0161768D02*
X0860457Y0162838D01*
X0860257Y0162838D01*
X0860177Y0201393D02*
X0860177Y0201413D01*
X0840687Y0201413D01*
X0840687Y0202323D01*
X0840577Y0208293D02*
X0840577Y0211693D01*
X0850577Y0221693D01*
X0860257Y0221893D02*
X0860257Y0221903D01*
X0840697Y0221903D01*
X0840697Y0221013D01*
X0840577Y0215093D02*
X0840577Y0211693D01*
X0860577Y0208493D02*
X0860577Y0215193D01*
X0860457Y0220823D02*
X0860457Y0221893D01*
X0860257Y0221893D01*
X0860377Y0202393D02*
X0860377Y0201393D01*
X0860177Y0201393D01*
X0899743Y0201413D02*
X0899743Y0202323D01*
X0899743Y0201413D02*
X0919233Y0201413D01*
X0919233Y0201393D01*
X0919433Y0201393D01*
X0919433Y0202393D01*
X0919633Y0208493D02*
X0919633Y0215193D01*
X0919513Y0220823D02*
X0919513Y0221893D01*
X0919313Y0221893D01*
X0919313Y0221903D01*
X0899753Y0221903D01*
X0899753Y0221013D01*
X0899633Y0215093D02*
X0899633Y0211693D01*
X0909633Y0221693D01*
X0899633Y0211693D02*
X0899633Y0208293D01*
X0899743Y0260468D02*
X0899743Y0261378D01*
X0899743Y0260468D02*
X0919233Y0260468D01*
X0919233Y0260448D01*
X0919433Y0260448D01*
X0919433Y0261448D01*
X0919633Y0267548D02*
X0919633Y0274248D01*
X0919513Y0279878D02*
X0919513Y0280948D01*
X0919313Y0280948D01*
X0919313Y0280958D01*
X0899753Y0280958D01*
X0899753Y0280068D01*
X0899633Y0274148D02*
X0899633Y0270748D01*
X0909633Y0280748D01*
X0899633Y0270748D02*
X0899633Y0267348D01*
X0860577Y0267548D02*
X0860577Y0274248D01*
X0860457Y0279878D02*
X0860457Y0280948D01*
X0860257Y0280948D01*
X0860257Y0280958D01*
X0840697Y0280958D01*
X0840697Y0280068D01*
X0840577Y0274148D02*
X0840577Y0270748D01*
X0850577Y0280748D01*
X0840577Y0270748D02*
X0840577Y0267348D01*
X0840687Y0261378D02*
X0840687Y0260468D01*
X0860177Y0260468D01*
X0860177Y0260448D01*
X0860377Y0260448D01*
X0860377Y0261448D01*
X0801322Y0261448D02*
X0801322Y0260448D01*
X0801122Y0260448D01*
X0801122Y0260468D01*
X0781632Y0260468D01*
X0781632Y0261378D01*
X0781522Y0267348D02*
X0781522Y0270748D01*
X0791522Y0280748D01*
X0801202Y0280948D02*
X0801202Y0280958D01*
X0781642Y0280958D01*
X0781642Y0280068D01*
X0781522Y0274148D02*
X0781522Y0270748D01*
X0801522Y0267548D02*
X0801522Y0274248D01*
X0801402Y0279878D02*
X0801402Y0280948D01*
X0801202Y0280948D01*
X0742347Y0280948D02*
X0742147Y0280948D01*
X0742147Y0280958D01*
X0722587Y0280958D01*
X0722587Y0280068D01*
X0722467Y0274148D02*
X0722467Y0270748D01*
X0732467Y0280748D01*
X0742347Y0280948D02*
X0742347Y0279878D01*
X0742467Y0274248D02*
X0742467Y0267548D01*
X0742267Y0261448D02*
X0742267Y0260448D01*
X0742067Y0260448D01*
X0742067Y0260468D01*
X0722577Y0260468D01*
X0722577Y0261378D01*
X0722467Y0267348D02*
X0722467Y0270748D01*
X0683412Y0267548D02*
X0683412Y0274248D01*
X0683292Y0279878D02*
X0683292Y0280948D01*
X0683092Y0280948D01*
X0683092Y0280958D01*
X0663532Y0280958D01*
X0663532Y0280068D01*
X0663412Y0274148D02*
X0663412Y0270748D01*
X0673412Y0280748D01*
X0663412Y0270748D02*
X0663412Y0267348D01*
X0663522Y0261378D02*
X0663522Y0260468D01*
X0683012Y0260468D01*
X0683012Y0260448D01*
X0683212Y0260448D01*
X0683212Y0261448D01*
X0683092Y0221903D02*
X0663532Y0221903D01*
X0663532Y0221013D01*
X0663412Y0215093D02*
X0663412Y0211693D01*
X0673412Y0221693D01*
X0683092Y0221893D02*
X0683092Y0221903D01*
X0683092Y0221893D02*
X0683292Y0221893D01*
X0683292Y0220823D01*
X0683412Y0215193D02*
X0683412Y0208493D01*
X0683212Y0202393D02*
X0683212Y0201393D01*
X0683012Y0201393D01*
X0683012Y0201413D01*
X0663522Y0201413D01*
X0663522Y0202323D01*
X0663412Y0208293D02*
X0663412Y0211693D01*
X0722467Y0211693D02*
X0722467Y0208293D01*
X0722467Y0211693D02*
X0732467Y0221693D01*
X0742147Y0221893D02*
X0742147Y0221903D01*
X0722587Y0221903D01*
X0722587Y0221013D01*
X0722467Y0215093D02*
X0722467Y0211693D01*
X0722577Y0202323D02*
X0722577Y0201413D01*
X0742067Y0201413D01*
X0742067Y0201393D01*
X0742267Y0201393D01*
X0742267Y0202393D01*
X0742467Y0208493D02*
X0742467Y0215193D01*
X0742347Y0220823D02*
X0742347Y0221893D01*
X0742147Y0221893D01*
X0781642Y0221903D02*
X0781642Y0221013D01*
X0781642Y0221903D02*
X0801202Y0221903D01*
X0801202Y0221893D01*
X0801402Y0221893D01*
X0801402Y0220823D01*
X0801522Y0215193D02*
X0801522Y0208493D01*
X0801322Y0202393D02*
X0801322Y0201393D01*
X0801122Y0201393D01*
X0801122Y0201413D01*
X0781632Y0201413D01*
X0781632Y0202323D01*
X0781522Y0208293D02*
X0781522Y0211693D01*
X0791522Y0221693D01*
X0781522Y0215093D02*
X0781522Y0211693D01*
X0781642Y0162848D02*
X0781642Y0161958D01*
X0781642Y0162848D02*
X0801202Y0162848D01*
X0801202Y0162838D01*
X0801402Y0162838D01*
X0801402Y0161768D01*
X0801522Y0156138D02*
X0801522Y0149438D01*
X0801322Y0143338D02*
X0801322Y0142338D01*
X0801122Y0142338D01*
X0801122Y0142358D01*
X0781632Y0142358D01*
X0781632Y0143268D01*
X0781522Y0149238D02*
X0781522Y0152638D01*
X0791522Y0162638D01*
X0781522Y0156038D02*
X0781522Y0152638D01*
X0742467Y0149438D02*
X0742467Y0156138D01*
X0742347Y0161768D02*
X0742347Y0162838D01*
X0742147Y0162838D01*
X0742147Y0162848D01*
X0722587Y0162848D01*
X0722587Y0161958D01*
X0722467Y0156038D02*
X0722467Y0152638D01*
X0732467Y0162638D01*
X0722467Y0152638D02*
X0722467Y0149238D01*
X0722577Y0143268D02*
X0722577Y0142358D01*
X0742067Y0142358D01*
X0742067Y0142338D01*
X0742267Y0142338D01*
X0742267Y0143338D01*
X0683212Y0143338D02*
X0683212Y0142338D01*
X0683012Y0142338D01*
X0683012Y0142358D01*
X0663522Y0142358D01*
X0663522Y0143268D01*
X0663412Y0149238D02*
X0663412Y0152638D01*
X0673412Y0162638D01*
X0683092Y0162838D02*
X0683092Y0162848D01*
X0663532Y0162848D01*
X0663532Y0161958D01*
X0663412Y0156038D02*
X0663412Y0152638D01*
X0683412Y0149438D02*
X0683412Y0156138D01*
X0683292Y0161768D02*
X0683292Y0162838D01*
X0683092Y0162838D01*
X0506127Y0162838D02*
X0505927Y0162838D01*
X0505927Y0162848D01*
X0486367Y0162848D01*
X0486367Y0161958D01*
X0486247Y0156038D02*
X0486247Y0152638D01*
X0496247Y0162638D01*
X0506127Y0162838D02*
X0506127Y0161768D01*
X0506247Y0156138D02*
X0506247Y0149438D01*
X0506047Y0143338D02*
X0506047Y0142338D01*
X0505847Y0142338D01*
X0505847Y0142358D01*
X0486357Y0142358D01*
X0486357Y0143268D01*
X0486247Y0149238D02*
X0486247Y0152638D01*
X0447192Y0149438D02*
X0447192Y0156138D01*
X0447072Y0161768D02*
X0447072Y0162838D01*
X0446872Y0162838D01*
X0446872Y0162848D01*
X0427312Y0162848D01*
X0427312Y0161958D01*
X0427192Y0156038D02*
X0427192Y0152638D01*
X0437192Y0162638D01*
X0427192Y0152638D02*
X0427192Y0149238D01*
X0427302Y0143268D02*
X0427302Y0142358D01*
X0446792Y0142358D01*
X0446792Y0142338D01*
X0446992Y0142338D01*
X0446992Y0143338D01*
X0092661Y0378558D02*
X0092461Y0378558D01*
X0092461Y0378578D01*
X0072971Y0378578D01*
X0072971Y0379488D01*
X0072861Y0385458D02*
X0072861Y0388858D01*
X0082861Y0398858D01*
X0092541Y0399058D02*
X0092541Y0399068D01*
X0072981Y0399068D01*
X0072981Y0398178D01*
X0072861Y0392258D02*
X0072861Y0388858D01*
X0092861Y0385658D02*
X0092861Y0392358D01*
X0092741Y0397988D02*
X0092741Y0399058D01*
X0092541Y0399058D01*
X0092661Y0379558D02*
X0092661Y0378558D01*
X0092661Y0437613D02*
X0092461Y0437613D01*
X0092461Y0437633D01*
X0072971Y0437633D01*
X0072971Y0438543D01*
X0072861Y0444513D02*
X0072861Y0447913D01*
X0082861Y0457913D01*
X0092541Y0458113D02*
X0092541Y0458123D01*
X0072981Y0458123D01*
X0072981Y0457233D01*
X0072861Y0451313D02*
X0072861Y0447913D01*
X0092861Y0444713D02*
X0092861Y0451413D01*
X0092741Y0457043D02*
X0092741Y0458113D01*
X0092541Y0458113D01*
X0092661Y0438613D02*
X0092661Y0437613D01*
X0132026Y0437633D02*
X0132026Y0438543D01*
X0132026Y0437633D02*
X0151516Y0437633D01*
X0151516Y0437613D01*
X0151716Y0437613D01*
X0151716Y0438613D01*
X0151916Y0444713D02*
X0151916Y0451413D01*
X0151796Y0457043D02*
X0151796Y0458113D01*
X0151596Y0458113D01*
X0151596Y0458123D01*
X0132036Y0458123D01*
X0132036Y0457233D01*
X0131916Y0451313D02*
X0131916Y0447913D01*
X0141916Y0457913D01*
X0131916Y0447913D02*
X0131916Y0444513D01*
X0132026Y0496688D02*
X0132026Y0497598D01*
X0132026Y0496688D02*
X0151516Y0496688D01*
X0151516Y0496668D01*
X0151716Y0496668D01*
X0151716Y0497668D01*
X0151916Y0503769D02*
X0151916Y0510469D01*
X0151796Y0516099D02*
X0151796Y0517169D01*
X0151596Y0517169D01*
X0151596Y0517179D01*
X0132036Y0517179D01*
X0132036Y0516289D01*
X0131916Y0510369D02*
X0131916Y0506969D01*
X0141916Y0516969D01*
X0131916Y0506969D02*
X0131916Y0503569D01*
X0092861Y0503769D02*
X0092861Y0510469D01*
X0092741Y0516099D02*
X0092741Y0517169D01*
X0092541Y0517169D01*
X0092541Y0517179D01*
X0072981Y0517179D01*
X0072981Y0516289D01*
X0072861Y0510369D02*
X0072861Y0506969D01*
X0082861Y0516969D01*
X0072861Y0506969D02*
X0072861Y0503569D01*
X0072971Y0497598D02*
X0072971Y0496688D01*
X0092461Y0496688D01*
X0092461Y0496668D01*
X0092661Y0496668D01*
X0092661Y0497668D01*
X0092661Y0555724D02*
X0092461Y0555724D01*
X0092461Y0555744D01*
X0072971Y0555744D01*
X0072971Y0556654D01*
X0072861Y0562624D02*
X0072861Y0566024D01*
X0082861Y0576024D01*
X0092541Y0576224D02*
X0092541Y0576234D01*
X0072981Y0576234D01*
X0072981Y0575344D01*
X0072861Y0569424D02*
X0072861Y0566024D01*
X0092861Y0562824D02*
X0092861Y0569524D01*
X0092741Y0575154D02*
X0092741Y0576224D01*
X0092541Y0576224D01*
X0092661Y0556724D02*
X0092661Y0555724D01*
X0132026Y0555744D02*
X0132026Y0556654D01*
X0132026Y0555744D02*
X0151516Y0555744D01*
X0151516Y0555724D01*
X0151716Y0555724D01*
X0151716Y0556724D01*
X0151916Y0562824D02*
X0151916Y0569524D01*
X0151796Y0575154D02*
X0151796Y0576224D01*
X0151596Y0576224D01*
X0151596Y0576234D01*
X0132036Y0576234D01*
X0132036Y0575344D01*
X0131916Y0569424D02*
X0131916Y0566024D01*
X0141916Y0576024D01*
X0131916Y0566024D02*
X0131916Y0562624D01*
X0190971Y0562624D02*
X0190971Y0566024D01*
X0200971Y0576024D01*
X0210651Y0576224D02*
X0210651Y0576234D01*
X0191091Y0576234D01*
X0191091Y0575344D01*
X0190971Y0569424D02*
X0190971Y0566024D01*
X0191081Y0556654D02*
X0191081Y0555744D01*
X0210571Y0555744D01*
X0210571Y0555724D01*
X0210771Y0555724D01*
X0210771Y0556724D01*
X0210971Y0562824D02*
X0210971Y0569524D01*
X0210851Y0575154D02*
X0210851Y0576224D01*
X0210651Y0576224D01*
X0250146Y0576234D02*
X0250146Y0575344D01*
X0250146Y0576234D02*
X0269706Y0576234D01*
X0269706Y0576224D01*
X0269906Y0576224D01*
X0269906Y0575154D01*
X0270026Y0569524D02*
X0270026Y0562824D01*
X0269826Y0556724D02*
X0269826Y0555724D01*
X0269626Y0555724D01*
X0269626Y0555744D01*
X0250136Y0555744D01*
X0250136Y0556654D01*
X0250026Y0562624D02*
X0250026Y0566024D01*
X0260026Y0576024D01*
X0250026Y0569424D02*
X0250026Y0566024D01*
X0250136Y0614799D02*
X0250136Y0615709D01*
X0250136Y0614799D02*
X0269626Y0614799D01*
X0269626Y0614779D01*
X0269826Y0614779D01*
X0269826Y0615779D01*
X0270026Y0621879D02*
X0270026Y0628579D01*
X0269906Y0634209D02*
X0269906Y0635279D01*
X0269706Y0635279D01*
X0269706Y0635289D01*
X0250146Y0635289D01*
X0250146Y0634399D01*
X0250026Y0628479D02*
X0250026Y0625079D01*
X0260026Y0635079D01*
X0250026Y0625079D02*
X0250026Y0621679D01*
X0210971Y0621879D02*
X0210971Y0628579D01*
X0210851Y0634209D02*
X0210851Y0635279D01*
X0210651Y0635279D01*
X0210651Y0635289D01*
X0191091Y0635289D01*
X0191091Y0634399D01*
X0190971Y0628479D02*
X0190971Y0625079D01*
X0200971Y0635079D01*
X0190971Y0625079D02*
X0190971Y0621679D01*
X0191081Y0615709D02*
X0191081Y0614799D01*
X0210571Y0614799D01*
X0210571Y0614779D01*
X0210771Y0614779D01*
X0210771Y0615779D01*
X0151716Y0615779D02*
X0151716Y0614779D01*
X0151516Y0614779D01*
X0151516Y0614799D01*
X0132026Y0614799D01*
X0132026Y0615709D01*
X0131916Y0621679D02*
X0131916Y0625079D01*
X0141916Y0635079D01*
X0151596Y0635279D02*
X0151596Y0635289D01*
X0132036Y0635289D01*
X0132036Y0634399D01*
X0131916Y0628479D02*
X0131916Y0625079D01*
X0151916Y0621879D02*
X0151916Y0628579D01*
X0151796Y0634209D02*
X0151796Y0635279D01*
X0151596Y0635279D01*
X0151516Y0673834D02*
X0151516Y0673854D01*
X0132026Y0673854D01*
X0132026Y0674764D01*
X0131916Y0680734D02*
X0131916Y0684134D01*
X0141916Y0694134D01*
X0151596Y0694334D02*
X0151596Y0694344D01*
X0132036Y0694344D01*
X0132036Y0693454D01*
X0131916Y0687534D02*
X0131916Y0684134D01*
X0151916Y0680934D02*
X0151916Y0687634D01*
X0151796Y0693264D02*
X0151796Y0694334D01*
X0151596Y0694334D01*
X0151716Y0674834D02*
X0151716Y0673834D01*
X0151516Y0673834D01*
X0191081Y0673854D02*
X0191081Y0674764D01*
X0191081Y0673854D02*
X0210571Y0673854D01*
X0210571Y0673834D01*
X0210771Y0673834D01*
X0210771Y0674834D01*
X0210971Y0680934D02*
X0210971Y0687634D01*
X0210851Y0693264D02*
X0210851Y0694334D01*
X0210651Y0694334D01*
X0210651Y0694344D01*
X0191091Y0694344D01*
X0191091Y0693454D01*
X0190971Y0687534D02*
X0190971Y0684134D01*
X0200971Y0694134D01*
X0190971Y0684134D02*
X0190971Y0680734D01*
X0250026Y0680734D02*
X0250026Y0684134D01*
X0260026Y0694134D01*
X0269706Y0694334D02*
X0269706Y0694344D01*
X0250146Y0694344D01*
X0250146Y0693454D01*
X0250026Y0687534D02*
X0250026Y0684134D01*
X0270026Y0680934D02*
X0270026Y0687634D01*
X0269906Y0693264D02*
X0269906Y0694334D01*
X0269706Y0694334D01*
X0269826Y0674834D02*
X0269826Y0673834D01*
X0269626Y0673834D01*
X0269626Y0673854D01*
X0250136Y0673854D01*
X0250136Y0674764D01*
X0309191Y0674764D02*
X0309191Y0673854D01*
X0328681Y0673854D01*
X0328681Y0673834D01*
X0328881Y0673834D01*
X0328881Y0674834D01*
X0329081Y0680934D02*
X0329081Y0687634D01*
X0328961Y0693264D02*
X0328961Y0694334D01*
X0328761Y0694334D01*
X0328761Y0694344D01*
X0309201Y0694344D01*
X0309201Y0693454D01*
X0309081Y0687534D02*
X0309081Y0684134D01*
X0319081Y0694134D01*
X0309081Y0684134D02*
X0309081Y0680734D01*
X0309201Y0635289D02*
X0309201Y0634399D01*
X0309201Y0635289D02*
X0328761Y0635289D01*
X0328761Y0635279D01*
X0328961Y0635279D01*
X0328961Y0634209D01*
X0329081Y0628579D02*
X0329081Y0621879D01*
X0328881Y0615779D02*
X0328881Y0614779D01*
X0328681Y0614779D01*
X0328681Y0614799D01*
X0309191Y0614799D01*
X0309191Y0615709D01*
X0309081Y0621679D02*
X0309081Y0625079D01*
X0319081Y0635079D01*
X0309081Y0628479D02*
X0309081Y0625079D01*
X0368136Y0625079D02*
X0368136Y0621679D01*
X0368136Y0625079D02*
X0378136Y0635079D01*
X0387816Y0635279D02*
X0387816Y0635289D01*
X0368256Y0635289D01*
X0368256Y0634399D01*
X0368136Y0628479D02*
X0368136Y0625079D01*
X0388136Y0621879D02*
X0388136Y0628579D01*
X0388016Y0634209D02*
X0388016Y0635279D01*
X0387816Y0635279D01*
X0387936Y0615779D02*
X0387936Y0614779D01*
X0387736Y0614779D01*
X0387736Y0614799D01*
X0368246Y0614799D01*
X0368246Y0615709D01*
X0427302Y0615709D02*
X0427302Y0614799D01*
X0446792Y0614799D01*
X0446792Y0614779D01*
X0446992Y0614779D01*
X0446992Y0615779D01*
X0447192Y0621879D02*
X0447192Y0628579D01*
X0447072Y0634209D02*
X0447072Y0635279D01*
X0446872Y0635279D01*
X0446872Y0635289D01*
X0427312Y0635289D01*
X0427312Y0634399D01*
X0427192Y0628479D02*
X0427192Y0625079D01*
X0437192Y0635079D01*
X0427192Y0625079D02*
X0427192Y0621679D01*
X0427302Y0673854D02*
X0427302Y0674764D01*
X0427302Y0673854D02*
X0446792Y0673854D01*
X0446792Y0673834D01*
X0446992Y0673834D01*
X0446992Y0674834D01*
X0447192Y0680934D02*
X0447192Y0687634D01*
X0447072Y0693264D02*
X0447072Y0694334D01*
X0446872Y0694334D01*
X0446872Y0694344D01*
X0427312Y0694344D01*
X0427312Y0693454D01*
X0427192Y0687534D02*
X0427192Y0684134D01*
X0437192Y0694134D01*
X0427192Y0684134D02*
X0427192Y0680734D01*
X0388136Y0680934D02*
X0388136Y0687634D01*
X0388016Y0693264D02*
X0388016Y0694334D01*
X0387816Y0694334D01*
X0387816Y0694344D01*
X0368256Y0694344D01*
X0368256Y0693454D01*
X0368136Y0687534D02*
X0368136Y0684134D01*
X0378136Y0694134D01*
X0368136Y0684134D02*
X0368136Y0680734D01*
X0368246Y0674764D02*
X0368246Y0673854D01*
X0387736Y0673854D01*
X0387736Y0673834D01*
X0387936Y0673834D01*
X0387936Y0674834D01*
X0387936Y0732889D02*
X0387736Y0732889D01*
X0387736Y0732909D01*
X0368246Y0732909D01*
X0368246Y0733819D01*
X0368136Y0739789D02*
X0368136Y0743189D01*
X0378136Y0753189D01*
X0387816Y0753389D02*
X0387816Y0753399D01*
X0368256Y0753399D01*
X0368256Y0752509D01*
X0368136Y0746589D02*
X0368136Y0743189D01*
X0388136Y0739989D02*
X0388136Y0746689D01*
X0388016Y0752319D02*
X0388016Y0753389D01*
X0387816Y0753389D01*
X0387936Y0733889D02*
X0387936Y0732889D01*
X0427302Y0732909D02*
X0427302Y0733819D01*
X0427302Y0732909D02*
X0446792Y0732909D01*
X0446792Y0732889D01*
X0446992Y0732889D01*
X0446992Y0733889D01*
X0447192Y0739989D02*
X0447192Y0746689D01*
X0447072Y0752319D02*
X0447072Y0753389D01*
X0446872Y0753389D01*
X0446872Y0753399D01*
X0427312Y0753399D01*
X0427312Y0752509D01*
X0427192Y0746589D02*
X0427192Y0743189D01*
X0437192Y0753189D01*
X0427192Y0743189D02*
X0427192Y0739789D01*
X0486247Y0739789D02*
X0486247Y0743189D01*
X0496247Y0753189D01*
X0505927Y0753389D02*
X0505927Y0753399D01*
X0486367Y0753399D01*
X0486367Y0752509D01*
X0486247Y0746589D02*
X0486247Y0743189D01*
X0506247Y0739989D02*
X0506247Y0746689D01*
X0506127Y0752319D02*
X0506127Y0753389D01*
X0505927Y0753389D01*
X0506047Y0733889D02*
X0506047Y0732889D01*
X0505847Y0732889D01*
X0505847Y0732909D01*
X0486357Y0732909D01*
X0486357Y0733819D01*
X0486367Y0694344D02*
X0486367Y0693454D01*
X0486367Y0694344D02*
X0505927Y0694344D01*
X0505927Y0694334D01*
X0506127Y0694334D01*
X0506127Y0693264D01*
X0506247Y0687634D02*
X0506247Y0680934D01*
X0506047Y0674834D02*
X0506047Y0673834D01*
X0505847Y0673834D01*
X0505847Y0673854D01*
X0486357Y0673854D01*
X0486357Y0674764D01*
X0486247Y0680734D02*
X0486247Y0684134D01*
X0496247Y0694134D01*
X0486247Y0687534D02*
X0486247Y0684134D01*
X0545412Y0732909D02*
X0545412Y0733819D01*
X0545412Y0732909D02*
X0564902Y0732909D01*
X0564902Y0732889D01*
X0565102Y0732889D01*
X0565102Y0733889D01*
X0565302Y0739989D02*
X0565302Y0746689D01*
X0565182Y0752319D02*
X0565182Y0753389D01*
X0564982Y0753389D01*
X0564982Y0753399D01*
X0545422Y0753399D01*
X0545422Y0752509D01*
X0545302Y0746589D02*
X0545302Y0743189D01*
X0555302Y0753189D01*
X0545302Y0743189D02*
X0545302Y0739789D01*
X0545412Y0791964D02*
X0545412Y0792874D01*
X0545412Y0791964D02*
X0564902Y0791964D01*
X0564902Y0791944D01*
X0565102Y0791944D01*
X0565102Y0792944D01*
X0565302Y0799044D02*
X0565302Y0805744D01*
X0565182Y0811374D02*
X0565182Y0812444D01*
X0564982Y0812444D01*
X0564982Y0812454D01*
X0545422Y0812454D01*
X0545422Y0811564D01*
X0545302Y0805644D02*
X0545302Y0802244D01*
X0555302Y0812244D01*
X0545302Y0802244D02*
X0545302Y0798844D01*
X0506247Y0799044D02*
X0506247Y0805744D01*
X0506127Y0811374D02*
X0506127Y0812444D01*
X0505927Y0812444D01*
X0505927Y0812454D01*
X0486367Y0812454D01*
X0486367Y0811564D01*
X0486247Y0805644D02*
X0486247Y0802244D01*
X0496247Y0812244D01*
X0486247Y0802244D02*
X0486247Y0798844D01*
X0486357Y0792874D02*
X0486357Y0791964D01*
X0505847Y0791964D01*
X0505847Y0791944D01*
X0506047Y0791944D01*
X0506047Y0792944D01*
X0446992Y0792944D02*
X0446992Y0791944D01*
X0446792Y0791944D01*
X0446792Y0791964D01*
X0427302Y0791964D01*
X0427302Y0792874D01*
X0427192Y0798844D02*
X0427192Y0802244D01*
X0437192Y0812244D01*
X0446872Y0812444D02*
X0446872Y0812454D01*
X0427312Y0812454D01*
X0427312Y0811564D01*
X0427192Y0805644D02*
X0427192Y0802244D01*
X0447192Y0799044D02*
X0447192Y0805744D01*
X0447072Y0811374D02*
X0447072Y0812444D01*
X0446872Y0812444D01*
X0388016Y0812444D02*
X0387816Y0812444D01*
X0387816Y0812454D01*
X0368256Y0812454D01*
X0368256Y0811564D01*
X0368136Y0805644D02*
X0368136Y0802244D01*
X0378136Y0812244D01*
X0388016Y0812444D02*
X0388016Y0811374D01*
X0388136Y0805744D02*
X0388136Y0799044D01*
X0387936Y0792944D02*
X0387936Y0791944D01*
X0387736Y0791944D01*
X0387736Y0791964D01*
X0368246Y0791964D01*
X0368246Y0792874D01*
X0368136Y0798844D02*
X0368136Y0802244D01*
X0329081Y0799044D02*
X0329081Y0805744D01*
X0328961Y0811374D02*
X0328961Y0812444D01*
X0328761Y0812444D01*
X0328761Y0812454D01*
X0309201Y0812454D01*
X0309201Y0811564D01*
X0309081Y0805644D02*
X0309081Y0802244D01*
X0319081Y0812244D01*
X0309081Y0802244D02*
X0309081Y0798844D01*
X0309191Y0792874D02*
X0309191Y0791964D01*
X0328681Y0791964D01*
X0328681Y0791944D01*
X0328881Y0791944D01*
X0328881Y0792944D01*
X0328761Y0753399D02*
X0309201Y0753399D01*
X0309201Y0752509D01*
X0309081Y0746589D02*
X0309081Y0743189D01*
X0319081Y0753189D01*
X0328761Y0753389D02*
X0328761Y0753399D01*
X0328761Y0753389D02*
X0328961Y0753389D01*
X0328961Y0752319D01*
X0329081Y0746689D02*
X0329081Y0739989D01*
X0328881Y0733889D02*
X0328881Y0732889D01*
X0328681Y0732889D01*
X0328681Y0732909D01*
X0309191Y0732909D01*
X0309191Y0733819D01*
X0309081Y0739789D02*
X0309081Y0743189D01*
X0270026Y0739989D02*
X0270026Y0746689D01*
X0269906Y0752319D02*
X0269906Y0753389D01*
X0269706Y0753389D01*
X0269706Y0753399D01*
X0250146Y0753399D01*
X0250146Y0752509D01*
X0250026Y0746589D02*
X0250026Y0743189D01*
X0260026Y0753189D01*
X0250026Y0743189D02*
X0250026Y0739789D01*
X0250136Y0733819D02*
X0250136Y0732909D01*
X0269626Y0732909D01*
X0269626Y0732889D01*
X0269826Y0732889D01*
X0269826Y0733889D01*
X0210771Y0733889D02*
X0210771Y0732889D01*
X0210571Y0732889D01*
X0210571Y0732909D01*
X0191081Y0732909D01*
X0191081Y0733819D01*
X0190971Y0739789D02*
X0190971Y0743189D01*
X0200971Y0753189D01*
X0210651Y0753389D02*
X0210651Y0753399D01*
X0191091Y0753399D01*
X0191091Y0752509D01*
X0190971Y0746589D02*
X0190971Y0743189D01*
X0210971Y0739989D02*
X0210971Y0746689D01*
X0210851Y0752319D02*
X0210851Y0753389D01*
X0210651Y0753389D01*
X0210571Y0791944D02*
X0210571Y0791964D01*
X0191081Y0791964D01*
X0191081Y0792874D01*
X0190971Y0798844D02*
X0190971Y0802244D01*
X0200971Y0812244D01*
X0210651Y0812444D02*
X0210651Y0812454D01*
X0191091Y0812454D01*
X0191091Y0811564D01*
X0190971Y0805644D02*
X0190971Y0802244D01*
X0210971Y0799044D02*
X0210971Y0805744D01*
X0210851Y0811374D02*
X0210851Y0812444D01*
X0210651Y0812444D01*
X0210771Y0792944D02*
X0210771Y0791944D01*
X0210571Y0791944D01*
X0250136Y0791964D02*
X0250136Y0792874D01*
X0250136Y0791964D02*
X0269626Y0791964D01*
X0269626Y0791944D01*
X0269826Y0791944D01*
X0269826Y0792944D01*
X0270026Y0799044D02*
X0270026Y0805744D01*
X0269906Y0811374D02*
X0269906Y0812444D01*
X0269706Y0812444D01*
X0269706Y0812454D01*
X0250146Y0812454D01*
X0250146Y0811564D01*
X0250026Y0805644D02*
X0250026Y0802244D01*
X0260026Y0812244D01*
X0250026Y0802244D02*
X0250026Y0798844D01*
X0151916Y0799044D02*
X0151916Y0805744D01*
X0151796Y0811374D02*
X0151796Y0812444D01*
X0151596Y0812444D01*
X0151596Y0812454D01*
X0132036Y0812454D01*
X0132036Y0811564D01*
X0131916Y0805644D02*
X0131916Y0802244D01*
X0141916Y0812244D01*
X0131916Y0802244D02*
X0131916Y0798844D01*
X0132026Y0792874D02*
X0132026Y0791964D01*
X0151516Y0791964D01*
X0151516Y0791944D01*
X0151716Y0791944D01*
X0151716Y0792944D01*
X0151596Y0753399D02*
X0132036Y0753399D01*
X0132036Y0752509D01*
X0131916Y0746589D02*
X0131916Y0743189D01*
X0141916Y0753189D01*
X0151596Y0753389D02*
X0151596Y0753399D01*
X0151596Y0753389D02*
X0151796Y0753389D01*
X0151796Y0752319D01*
X0151916Y0746689D02*
X0151916Y0739989D01*
X0151716Y0733889D02*
X0151716Y0732889D01*
X0151516Y0732889D01*
X0151516Y0732909D01*
X0132026Y0732909D01*
X0132026Y0733819D01*
X0131916Y0739789D02*
X0131916Y0743189D01*
X0092861Y0739989D02*
X0092861Y0746689D01*
X0092741Y0752319D02*
X0092741Y0753389D01*
X0092541Y0753389D01*
X0092541Y0753399D01*
X0072981Y0753399D01*
X0072981Y0752509D01*
X0072861Y0746589D02*
X0072861Y0743189D01*
X0082861Y0753189D01*
X0072861Y0743189D02*
X0072861Y0739789D01*
X0072971Y0733819D02*
X0072971Y0732909D01*
X0092461Y0732909D01*
X0092461Y0732889D01*
X0092661Y0732889D01*
X0092661Y0733889D01*
X0092541Y0694344D02*
X0072981Y0694344D01*
X0072981Y0693454D01*
X0072861Y0687534D02*
X0072861Y0684134D01*
X0082861Y0694134D01*
X0092541Y0694334D02*
X0092541Y0694344D01*
X0092541Y0694334D02*
X0092741Y0694334D01*
X0092741Y0693264D01*
X0092861Y0687634D02*
X0092861Y0680934D01*
X0092661Y0674834D02*
X0092661Y0673834D01*
X0092461Y0673834D01*
X0092461Y0673854D01*
X0072971Y0673854D01*
X0072971Y0674764D01*
X0072861Y0680734D02*
X0072861Y0684134D01*
X0072981Y0635289D02*
X0072981Y0634399D01*
X0072981Y0635289D02*
X0092541Y0635289D01*
X0092541Y0635279D01*
X0092741Y0635279D01*
X0092741Y0634209D01*
X0092861Y0628579D02*
X0092861Y0621879D01*
X0092661Y0615779D02*
X0092661Y0614779D01*
X0092461Y0614779D01*
X0092461Y0614799D01*
X0072971Y0614799D01*
X0072971Y0615709D01*
X0072861Y0621679D02*
X0072861Y0625079D01*
X0082861Y0635079D01*
X0072861Y0628479D02*
X0072861Y0625079D01*
X0191091Y0517179D02*
X0191091Y0516289D01*
X0191091Y0517179D02*
X0210651Y0517179D01*
X0210651Y0517169D01*
X0210851Y0517169D01*
X0210851Y0516099D01*
X0210971Y0510469D02*
X0210971Y0503769D01*
X0210771Y0497668D02*
X0210771Y0496668D01*
X0210571Y0496668D01*
X0210571Y0496688D01*
X0191081Y0496688D01*
X0191081Y0497598D01*
X0190971Y0503569D02*
X0190971Y0506969D01*
X0200971Y0516969D01*
X0190971Y0510369D02*
X0190971Y0506969D01*
X0604467Y0614799D02*
X0604467Y0615709D01*
X0604467Y0614799D02*
X0623957Y0614799D01*
X0623957Y0614779D01*
X0624157Y0614779D01*
X0624157Y0615779D01*
X0624357Y0621879D02*
X0624357Y0628579D01*
X0624237Y0634209D02*
X0624237Y0635279D01*
X0624037Y0635279D01*
X0624037Y0635289D01*
X0604477Y0635289D01*
X0604477Y0634399D01*
X0604357Y0628479D02*
X0604357Y0625079D01*
X0614357Y0635079D01*
X0604357Y0625079D02*
X0604357Y0621679D01*
X0604467Y0791964D02*
X0604467Y0792874D01*
X0604467Y0791964D02*
X0623957Y0791964D01*
X0623957Y0791944D01*
X0624157Y0791944D01*
X0624157Y0792944D01*
X0624357Y0799044D02*
X0624357Y0805744D01*
X0624237Y0811374D02*
X0624237Y0812444D01*
X0624037Y0812444D01*
X0624037Y0812454D01*
X0604477Y0812454D01*
X0604477Y0811564D01*
X0604357Y0805644D02*
X0604357Y0802244D01*
X0614357Y0812244D01*
X0604357Y0802244D02*
X0604357Y0798844D01*
X0663412Y0798844D02*
X0663412Y0802244D01*
X0673412Y0812244D01*
X0683092Y0812444D02*
X0683092Y0812454D01*
X0663532Y0812454D01*
X0663532Y0811564D01*
X0663412Y0805644D02*
X0663412Y0802244D01*
X0683412Y0799044D02*
X0683412Y0805744D01*
X0683292Y0811374D02*
X0683292Y0812444D01*
X0683092Y0812444D01*
X0707823Y0812454D02*
X0707823Y0811564D01*
X0707823Y0812454D02*
X0727383Y0812454D01*
X0727383Y0812444D01*
X0727583Y0812444D01*
X0727583Y0811374D01*
X0727703Y0805744D02*
X0727703Y0799044D01*
X0727503Y0792944D02*
X0727503Y0791944D01*
X0727303Y0791944D01*
X0727303Y0791964D01*
X0707813Y0791964D01*
X0707813Y0792874D01*
X0707703Y0798844D02*
X0707703Y0802244D01*
X0717703Y0812244D01*
X0707703Y0805644D02*
X0707703Y0802244D01*
X0683212Y0792944D02*
X0683212Y0791944D01*
X0683012Y0791944D01*
X0683012Y0791964D01*
X0663522Y0791964D01*
X0663522Y0792874D01*
X0958808Y0280958D02*
X0958808Y0280068D01*
X0958808Y0280958D02*
X0978368Y0280958D01*
X0978368Y0280948D01*
X0978568Y0280948D01*
X0978568Y0279878D01*
X0978688Y0274248D02*
X0978688Y0267548D01*
X0978488Y0261448D02*
X0978488Y0260448D01*
X0978288Y0260448D01*
X0978288Y0260468D01*
X0958798Y0260468D01*
X0958798Y0261378D01*
X0958688Y0267348D02*
X0958688Y0270748D01*
X0968688Y0280748D01*
X0958688Y0274148D02*
X0958688Y0270748D01*
X1017863Y0162848D02*
X1017863Y0161958D01*
X1017863Y0162848D02*
X1037423Y0162848D01*
X1037423Y0162838D01*
X1037623Y0162838D01*
X1037623Y0161768D01*
X1037743Y0156138D02*
X1037743Y0149438D01*
X1037543Y0143338D02*
X1037543Y0142338D01*
X1037343Y0142338D01*
X1037343Y0142358D01*
X1017853Y0142358D01*
X1017853Y0143268D01*
X1017743Y0149238D02*
X1017743Y0152638D01*
X1027743Y0162638D01*
X1017743Y0156038D02*
X1017743Y0152638D01*
X1253963Y0152638D02*
X1253963Y0149238D01*
X1253963Y0152638D02*
X1263963Y0162638D01*
X1273643Y0162838D02*
X1273643Y0162848D01*
X1254083Y0162848D01*
X1254083Y0161958D01*
X1253963Y0156038D02*
X1253963Y0152638D01*
X1273963Y0149438D02*
X1273963Y0156138D01*
X1273843Y0161768D02*
X1273843Y0162838D01*
X1273643Y0162838D01*
X1273763Y0143338D02*
X1273763Y0142338D01*
X1273563Y0142338D01*
X1273563Y0142358D01*
X1254073Y0142358D01*
X1254073Y0143268D01*
D11*
X0197621Y0116503D02*
X0195732Y0116503D01*
X0196677Y0116503D02*
X0196677Y0113103D01*
X0194003Y0114520D02*
X0192964Y0115086D01*
X0193342Y0116504D02*
X0193412Y0116502D01*
X0193482Y0116497D01*
X0193552Y0116488D01*
X0193621Y0116476D01*
X0193689Y0116461D01*
X0193757Y0116442D01*
X0193823Y0116420D01*
X0193889Y0116394D01*
X0193953Y0116366D01*
X0194015Y0116334D01*
X0194076Y0116299D01*
X0194135Y0116261D01*
X0194192Y0116221D01*
X0192965Y0115087D02*
X0192920Y0115116D01*
X0192877Y0115147D01*
X0192837Y0115182D01*
X0192799Y0115219D01*
X0192764Y0115258D01*
X0192731Y0115300D01*
X0192702Y0115345D01*
X0192675Y0115391D01*
X0192652Y0115439D01*
X0192632Y0115488D01*
X0192616Y0115538D01*
X0192603Y0115590D01*
X0192594Y0115642D01*
X0192589Y0115695D01*
X0192587Y0115748D01*
X0192586Y0115748D02*
X0192588Y0115802D01*
X0192594Y0115856D01*
X0192603Y0115909D01*
X0192617Y0115961D01*
X0192634Y0116012D01*
X0192654Y0116062D01*
X0192678Y0116110D01*
X0192706Y0116157D01*
X0192737Y0116201D01*
X0192771Y0116243D01*
X0192807Y0116283D01*
X0192847Y0116319D01*
X0192889Y0116353D01*
X0192933Y0116384D01*
X0192980Y0116412D01*
X0193028Y0116436D01*
X0193078Y0116456D01*
X0193129Y0116473D01*
X0193181Y0116487D01*
X0193234Y0116496D01*
X0193288Y0116502D01*
X0193342Y0116504D01*
X0192493Y0113575D02*
X0192550Y0113521D01*
X0192609Y0113469D01*
X0192671Y0113420D01*
X0192735Y0113375D01*
X0192802Y0113332D01*
X0192870Y0113293D01*
X0192940Y0113258D01*
X0193012Y0113226D01*
X0193086Y0113197D01*
X0193160Y0113172D01*
X0193236Y0113151D01*
X0193313Y0113134D01*
X0193391Y0113120D01*
X0193469Y0113111D01*
X0193547Y0113105D01*
X0193626Y0113103D01*
X0193680Y0113105D01*
X0193734Y0113111D01*
X0193787Y0113120D01*
X0193839Y0113134D01*
X0193890Y0113151D01*
X0193940Y0113171D01*
X0193988Y0113195D01*
X0194035Y0113223D01*
X0194079Y0113254D01*
X0194121Y0113288D01*
X0194161Y0113324D01*
X0194197Y0113364D01*
X0194231Y0113406D01*
X0194262Y0113450D01*
X0194290Y0113497D01*
X0194314Y0113545D01*
X0194334Y0113595D01*
X0194351Y0113646D01*
X0194365Y0113698D01*
X0194374Y0113751D01*
X0194380Y0113805D01*
X0194382Y0113859D01*
X0194381Y0113859D02*
X0194379Y0113912D01*
X0194374Y0113965D01*
X0194365Y0114017D01*
X0194352Y0114069D01*
X0194336Y0114119D01*
X0194316Y0114168D01*
X0194293Y0114216D01*
X0194266Y0114262D01*
X0194237Y0114307D01*
X0194204Y0114349D01*
X0194169Y0114388D01*
X0194131Y0114425D01*
X0194091Y0114460D01*
X0194048Y0114491D01*
X0194003Y0114520D01*
X0190934Y0113103D02*
X0190179Y0114614D01*
X0189990Y0114614D02*
X0189046Y0114614D01*
X0189990Y0114615D02*
X0190050Y0114617D01*
X0190111Y0114623D01*
X0190170Y0114632D01*
X0190229Y0114646D01*
X0190287Y0114663D01*
X0190344Y0114684D01*
X0190400Y0114708D01*
X0190453Y0114736D01*
X0190505Y0114768D01*
X0190555Y0114802D01*
X0190602Y0114840D01*
X0190647Y0114881D01*
X0190689Y0114924D01*
X0190728Y0114970D01*
X0190764Y0115019D01*
X0190797Y0115070D01*
X0190827Y0115122D01*
X0190853Y0115177D01*
X0190876Y0115233D01*
X0190895Y0115290D01*
X0190910Y0115349D01*
X0190922Y0115408D01*
X0190930Y0115468D01*
X0190934Y0115529D01*
X0190934Y0115589D01*
X0190930Y0115650D01*
X0190922Y0115710D01*
X0190910Y0115769D01*
X0190895Y0115828D01*
X0190876Y0115885D01*
X0190853Y0115941D01*
X0190827Y0115996D01*
X0190797Y0116048D01*
X0190764Y0116099D01*
X0190728Y0116148D01*
X0190689Y0116194D01*
X0190647Y0116237D01*
X0190602Y0116278D01*
X0190555Y0116316D01*
X0190505Y0116350D01*
X0190453Y0116382D01*
X0190400Y0116410D01*
X0190344Y0116434D01*
X0190287Y0116455D01*
X0190229Y0116472D01*
X0190170Y0116486D01*
X0190111Y0116495D01*
X0190050Y0116501D01*
X0189990Y0116503D01*
X0189046Y0116503D01*
X0189046Y0113103D01*
X0037723Y0112232D02*
X0030636Y0112232D01*
X0030636Y0146248D02*
X0037723Y0146248D01*
D12*
X0178583Y0101303D03*
X0322192Y0108189D03*
D13*
X0190164Y0104803D02*
X0190166Y0104915D01*
X0190172Y0105028D01*
X0190182Y0105140D01*
X0190196Y0105251D01*
X0190214Y0105363D01*
X0190236Y0105473D01*
X0190261Y0105582D01*
X0190291Y0105691D01*
X0190324Y0105798D01*
X0190362Y0105904D01*
X0190403Y0106009D01*
X0190447Y0106112D01*
X0190495Y0106214D01*
X0190547Y0106314D01*
X0190603Y0106412D01*
X0190662Y0106508D01*
X0190724Y0106601D01*
X0190789Y0106693D01*
X0190858Y0106782D01*
X0190930Y0106869D01*
X0191005Y0106953D01*
X0191082Y0107034D01*
X0191163Y0107112D01*
X0191246Y0107188D01*
X0191332Y0107260D01*
X0191421Y0107330D01*
X0191511Y0107396D01*
X0191605Y0107459D01*
X0191700Y0107519D01*
X0191797Y0107575D01*
X0191897Y0107628D01*
X0191998Y0107677D01*
X0192101Y0107723D01*
X0192205Y0107765D01*
X0192311Y0107803D01*
X0192418Y0107837D01*
X0192526Y0107868D01*
X0192636Y0107894D01*
X0192746Y0107917D01*
X0192857Y0107936D01*
X0192968Y0107951D01*
X0193080Y0107962D01*
X0193192Y0107969D01*
X0193305Y0107972D01*
X0193417Y0107971D01*
X0193530Y0107966D01*
X0193642Y0107957D01*
X0193754Y0107944D01*
X0193865Y0107927D01*
X0193975Y0107906D01*
X0194085Y0107881D01*
X0194194Y0107853D01*
X0194302Y0107820D01*
X0194408Y0107784D01*
X0194513Y0107744D01*
X0194617Y0107700D01*
X0194719Y0107653D01*
X0194819Y0107602D01*
X0194917Y0107547D01*
X0195014Y0107489D01*
X0195108Y0107428D01*
X0195200Y0107363D01*
X0195290Y0107296D01*
X0195377Y0107225D01*
X0195462Y0107150D01*
X0195544Y0107073D01*
X0195623Y0106994D01*
X0195699Y0106911D01*
X0195773Y0106826D01*
X0195843Y0106738D01*
X0195910Y0106647D01*
X0195974Y0106555D01*
X0196034Y0106460D01*
X0196091Y0106363D01*
X0196145Y0106264D01*
X0196195Y0106163D01*
X0196242Y0106061D01*
X0196284Y0105957D01*
X0196324Y0105852D01*
X0196359Y0105745D01*
X0196390Y0105637D01*
X0196418Y0105528D01*
X0196442Y0105418D01*
X0196462Y0105307D01*
X0196478Y0105196D01*
X0196490Y0105084D01*
X0196498Y0104972D01*
X0196502Y0104859D01*
X0196502Y0104747D01*
X0196498Y0104634D01*
X0196490Y0104522D01*
X0196478Y0104410D01*
X0196462Y0104299D01*
X0196442Y0104188D01*
X0196418Y0104078D01*
X0196390Y0103969D01*
X0196359Y0103861D01*
X0196324Y0103754D01*
X0196284Y0103649D01*
X0196242Y0103545D01*
X0196195Y0103443D01*
X0196145Y0103342D01*
X0196091Y0103243D01*
X0196034Y0103146D01*
X0195974Y0103051D01*
X0195910Y0102959D01*
X0195843Y0102868D01*
X0195773Y0102780D01*
X0195699Y0102695D01*
X0195623Y0102612D01*
X0195544Y0102533D01*
X0195462Y0102456D01*
X0195377Y0102381D01*
X0195290Y0102310D01*
X0195200Y0102243D01*
X0195108Y0102178D01*
X0195014Y0102117D01*
X0194918Y0102059D01*
X0194819Y0102004D01*
X0194719Y0101953D01*
X0194617Y0101906D01*
X0194513Y0101862D01*
X0194408Y0101822D01*
X0194302Y0101786D01*
X0194194Y0101753D01*
X0194085Y0101725D01*
X0193975Y0101700D01*
X0193865Y0101679D01*
X0193754Y0101662D01*
X0193642Y0101649D01*
X0193530Y0101640D01*
X0193417Y0101635D01*
X0193305Y0101634D01*
X0193192Y0101637D01*
X0193080Y0101644D01*
X0192968Y0101655D01*
X0192857Y0101670D01*
X0192746Y0101689D01*
X0192636Y0101712D01*
X0192526Y0101738D01*
X0192418Y0101769D01*
X0192311Y0101803D01*
X0192205Y0101841D01*
X0192101Y0101883D01*
X0191998Y0101929D01*
X0191897Y0101978D01*
X0191797Y0102031D01*
X0191700Y0102087D01*
X0191605Y0102147D01*
X0191511Y0102210D01*
X0191421Y0102276D01*
X0191332Y0102346D01*
X0191246Y0102418D01*
X0191163Y0102494D01*
X0191082Y0102572D01*
X0191005Y0102653D01*
X0190930Y0102737D01*
X0190858Y0102824D01*
X0190789Y0102913D01*
X0190724Y0103005D01*
X0190662Y0103098D01*
X0190603Y0103194D01*
X0190547Y0103292D01*
X0190495Y0103392D01*
X0190447Y0103494D01*
X0190403Y0103597D01*
X0190362Y0103702D01*
X0190324Y0103808D01*
X0190291Y0103915D01*
X0190261Y0104024D01*
X0190236Y0104133D01*
X0190214Y0104243D01*
X0190196Y0104355D01*
X0190182Y0104466D01*
X0190172Y0104578D01*
X0190166Y0104691D01*
X0190164Y0104803D01*
X0190164Y0089803D02*
X0190166Y0089915D01*
X0190172Y0090028D01*
X0190182Y0090140D01*
X0190196Y0090251D01*
X0190214Y0090363D01*
X0190236Y0090473D01*
X0190261Y0090582D01*
X0190291Y0090691D01*
X0190324Y0090798D01*
X0190362Y0090904D01*
X0190403Y0091009D01*
X0190447Y0091112D01*
X0190495Y0091214D01*
X0190547Y0091314D01*
X0190603Y0091412D01*
X0190662Y0091508D01*
X0190724Y0091601D01*
X0190789Y0091693D01*
X0190858Y0091782D01*
X0190930Y0091869D01*
X0191005Y0091953D01*
X0191082Y0092034D01*
X0191163Y0092112D01*
X0191246Y0092188D01*
X0191332Y0092260D01*
X0191421Y0092330D01*
X0191511Y0092396D01*
X0191605Y0092459D01*
X0191700Y0092519D01*
X0191797Y0092575D01*
X0191897Y0092628D01*
X0191998Y0092677D01*
X0192101Y0092723D01*
X0192205Y0092765D01*
X0192311Y0092803D01*
X0192418Y0092837D01*
X0192526Y0092868D01*
X0192636Y0092894D01*
X0192746Y0092917D01*
X0192857Y0092936D01*
X0192968Y0092951D01*
X0193080Y0092962D01*
X0193192Y0092969D01*
X0193305Y0092972D01*
X0193417Y0092971D01*
X0193530Y0092966D01*
X0193642Y0092957D01*
X0193754Y0092944D01*
X0193865Y0092927D01*
X0193975Y0092906D01*
X0194085Y0092881D01*
X0194194Y0092853D01*
X0194302Y0092820D01*
X0194408Y0092784D01*
X0194513Y0092744D01*
X0194617Y0092700D01*
X0194719Y0092653D01*
X0194819Y0092602D01*
X0194917Y0092547D01*
X0195014Y0092489D01*
X0195108Y0092428D01*
X0195200Y0092363D01*
X0195290Y0092296D01*
X0195377Y0092225D01*
X0195462Y0092150D01*
X0195544Y0092073D01*
X0195623Y0091994D01*
X0195699Y0091911D01*
X0195773Y0091826D01*
X0195843Y0091738D01*
X0195910Y0091647D01*
X0195974Y0091555D01*
X0196034Y0091460D01*
X0196091Y0091363D01*
X0196145Y0091264D01*
X0196195Y0091163D01*
X0196242Y0091061D01*
X0196284Y0090957D01*
X0196324Y0090852D01*
X0196359Y0090745D01*
X0196390Y0090637D01*
X0196418Y0090528D01*
X0196442Y0090418D01*
X0196462Y0090307D01*
X0196478Y0090196D01*
X0196490Y0090084D01*
X0196498Y0089972D01*
X0196502Y0089859D01*
X0196502Y0089747D01*
X0196498Y0089634D01*
X0196490Y0089522D01*
X0196478Y0089410D01*
X0196462Y0089299D01*
X0196442Y0089188D01*
X0196418Y0089078D01*
X0196390Y0088969D01*
X0196359Y0088861D01*
X0196324Y0088754D01*
X0196284Y0088649D01*
X0196242Y0088545D01*
X0196195Y0088443D01*
X0196145Y0088342D01*
X0196091Y0088243D01*
X0196034Y0088146D01*
X0195974Y0088051D01*
X0195910Y0087959D01*
X0195843Y0087868D01*
X0195773Y0087780D01*
X0195699Y0087695D01*
X0195623Y0087612D01*
X0195544Y0087533D01*
X0195462Y0087456D01*
X0195377Y0087381D01*
X0195290Y0087310D01*
X0195200Y0087243D01*
X0195108Y0087178D01*
X0195014Y0087117D01*
X0194918Y0087059D01*
X0194819Y0087004D01*
X0194719Y0086953D01*
X0194617Y0086906D01*
X0194513Y0086862D01*
X0194408Y0086822D01*
X0194302Y0086786D01*
X0194194Y0086753D01*
X0194085Y0086725D01*
X0193975Y0086700D01*
X0193865Y0086679D01*
X0193754Y0086662D01*
X0193642Y0086649D01*
X0193530Y0086640D01*
X0193417Y0086635D01*
X0193305Y0086634D01*
X0193192Y0086637D01*
X0193080Y0086644D01*
X0192968Y0086655D01*
X0192857Y0086670D01*
X0192746Y0086689D01*
X0192636Y0086712D01*
X0192526Y0086738D01*
X0192418Y0086769D01*
X0192311Y0086803D01*
X0192205Y0086841D01*
X0192101Y0086883D01*
X0191998Y0086929D01*
X0191897Y0086978D01*
X0191797Y0087031D01*
X0191700Y0087087D01*
X0191605Y0087147D01*
X0191511Y0087210D01*
X0191421Y0087276D01*
X0191332Y0087346D01*
X0191246Y0087418D01*
X0191163Y0087494D01*
X0191082Y0087572D01*
X0191005Y0087653D01*
X0190930Y0087737D01*
X0190858Y0087824D01*
X0190789Y0087913D01*
X0190724Y0088005D01*
X0190662Y0088098D01*
X0190603Y0088194D01*
X0190547Y0088292D01*
X0190495Y0088392D01*
X0190447Y0088494D01*
X0190403Y0088597D01*
X0190362Y0088702D01*
X0190324Y0088808D01*
X0190291Y0088915D01*
X0190261Y0089024D01*
X0190236Y0089133D01*
X0190214Y0089243D01*
X0190196Y0089355D01*
X0190182Y0089466D01*
X0190172Y0089578D01*
X0190166Y0089691D01*
X0190164Y0089803D01*
X0137800Y0114646D02*
X0137802Y0114695D01*
X0137808Y0114744D01*
X0137818Y0114792D01*
X0137831Y0114840D01*
X0137849Y0114886D01*
X0137870Y0114930D01*
X0137895Y0114973D01*
X0137923Y0115014D01*
X0137954Y0115052D01*
X0137988Y0115087D01*
X0138025Y0115120D01*
X0138064Y0115150D01*
X0138106Y0115176D01*
X0138150Y0115199D01*
X0138195Y0115218D01*
X0138242Y0115234D01*
X0138290Y0115246D01*
X0138338Y0115254D01*
X0138387Y0115258D01*
X0138437Y0115258D01*
X0138486Y0115254D01*
X0138534Y0115246D01*
X0138582Y0115234D01*
X0138629Y0115218D01*
X0138674Y0115199D01*
X0138718Y0115176D01*
X0138760Y0115150D01*
X0138799Y0115120D01*
X0138836Y0115087D01*
X0138870Y0115052D01*
X0138901Y0115014D01*
X0138929Y0114973D01*
X0138954Y0114930D01*
X0138975Y0114886D01*
X0138993Y0114840D01*
X0139006Y0114792D01*
X0139016Y0114744D01*
X0139022Y0114695D01*
X0139024Y0114646D01*
X0139022Y0114597D01*
X0139016Y0114548D01*
X0139006Y0114500D01*
X0138993Y0114452D01*
X0138975Y0114406D01*
X0138954Y0114362D01*
X0138929Y0114319D01*
X0138901Y0114278D01*
X0138870Y0114240D01*
X0138836Y0114205D01*
X0138799Y0114172D01*
X0138760Y0114142D01*
X0138718Y0114116D01*
X0138674Y0114093D01*
X0138629Y0114074D01*
X0138582Y0114058D01*
X0138534Y0114046D01*
X0138486Y0114038D01*
X0138437Y0114034D01*
X0138387Y0114034D01*
X0138338Y0114038D01*
X0138290Y0114046D01*
X0138242Y0114058D01*
X0138195Y0114074D01*
X0138150Y0114093D01*
X0138106Y0114116D01*
X0138064Y0114142D01*
X0138025Y0114172D01*
X0137988Y0114205D01*
X0137954Y0114240D01*
X0137923Y0114278D01*
X0137895Y0114319D01*
X0137870Y0114362D01*
X0137849Y0114406D01*
X0137831Y0114452D01*
X0137818Y0114500D01*
X0137808Y0114548D01*
X0137802Y0114597D01*
X0137800Y0114646D01*
D14*
X0110104Y0096591D03*
X0335104Y0144583D03*
D15*
X0339278Y0106969D02*
X0323530Y0106969D01*
X0323530Y0102638D01*
X0323530Y0093583D02*
X0323530Y0087677D01*
X0327073Y0087677D01*
X0335735Y0087677D02*
X0339278Y0087677D01*
X0339278Y0093583D01*
X0339278Y0102638D02*
X0339278Y0106969D01*
X0066916Y0180591D02*
X0066916Y0206575D01*
X0062192Y0206575D01*
X0055892Y0206575D02*
X0046444Y0206575D01*
X0040144Y0206575D02*
X0034633Y0206575D01*
X0028333Y0206575D02*
X0020853Y0206575D01*
X0020853Y0180591D02*
X0060223Y0180591D01*
D16*
X0294692Y0178583D03*
D17*
X0294633Y0178445D03*
D18*
X0287625Y0169409D03*
X0287467Y0169252D03*
X0288058Y0168543D03*
X0290696Y0168386D03*
X0285302Y0168386D03*
X0280617Y0168543D03*
X0280341Y0169409D03*
X0276247Y0168819D03*
X0273333Y0178307D03*
X0306444Y0169409D03*
X0306877Y0168543D03*
X0308766Y0169252D03*
X0311247Y0169252D03*
D19*
X0320007Y0166929D03*
X0320440Y0167520D03*
X0320715Y0167953D03*
X0320873Y0168228D03*
X0321030Y0168386D03*
X0321030Y0168543D03*
X0321148Y0168819D03*
X0321148Y0168976D03*
X0321306Y0169252D03*
X0321306Y0169409D03*
X0321463Y0169685D03*
X0321463Y0169843D03*
X0321463Y0170000D03*
X0320873Y0170276D03*
X0320873Y0170433D03*
X0320873Y0170709D03*
X0320873Y0170866D03*
X0320873Y0171024D03*
X0320873Y0171732D03*
X0320873Y0171890D03*
X0320873Y0172165D03*
X0320873Y0172323D03*
X0320873Y0172480D03*
X0320715Y0172756D03*
X0320715Y0172913D03*
X0321306Y0173346D03*
X0321463Y0173189D03*
X0321463Y0172913D03*
X0321463Y0172756D03*
X0321581Y0172480D03*
X0321581Y0172323D03*
X0321581Y0172165D03*
X0321581Y0171890D03*
X0321581Y0171732D03*
X0321581Y0171024D03*
X0321581Y0170866D03*
X0321581Y0170709D03*
X0320715Y0170000D03*
X0320715Y0169843D03*
X0320715Y0169685D03*
X0320440Y0168976D03*
X0320282Y0168543D03*
X0321306Y0173622D03*
X0321148Y0173780D03*
X0321148Y0173937D03*
X0321030Y0174213D03*
X0321030Y0174370D03*
X0320715Y0174803D03*
X0320715Y0174961D03*
X0320440Y0175394D03*
X0319849Y0174961D03*
X0320282Y0174213D03*
X0320440Y0173937D03*
X0313589Y0178307D03*
X0301030Y0167953D03*
X0291424Y0164882D03*
X0269534Y0166496D03*
X0269101Y0167087D03*
X0268825Y0167520D03*
X0268510Y0167795D03*
X0268510Y0167953D03*
X0268235Y0168386D03*
X0268235Y0168543D03*
X0268077Y0168819D03*
X0268077Y0168976D03*
X0267920Y0169252D03*
X0267802Y0169685D03*
X0267802Y0169843D03*
X0267644Y0170276D03*
X0267644Y0170433D03*
X0267644Y0170709D03*
X0267644Y0170866D03*
X0267644Y0171024D03*
X0267644Y0171732D03*
X0267644Y0171890D03*
X0267644Y0172165D03*
X0267644Y0172323D03*
X0267644Y0172480D03*
X0267802Y0172756D03*
X0267802Y0172913D03*
X0267802Y0173189D03*
X0267920Y0173346D03*
X0267920Y0173622D03*
X0268077Y0173937D03*
X0268235Y0174213D03*
X0268235Y0174370D03*
X0268510Y0174803D03*
X0268510Y0174961D03*
X0268825Y0175394D03*
X0268944Y0174213D03*
X0268825Y0173937D03*
X0268668Y0173622D03*
X0268510Y0173189D03*
X0268510Y0172913D03*
X0268510Y0169843D03*
X0268510Y0169685D03*
X0268668Y0169252D03*
X0268825Y0168976D03*
X0268825Y0168819D03*
X0268944Y0168543D03*
X0269101Y0168228D03*
X0269692Y0176417D03*
X0269967Y0176693D03*
D20*
X0291483Y0170276D03*
X0315696Y0178307D03*
D21*
X0311621Y0169685D03*
X0311621Y0168386D03*
X0309140Y0168386D03*
X0307802Y0171732D03*
X0307802Y0171890D03*
X0306070Y0174961D03*
X0301109Y0168228D03*
X0297605Y0168386D03*
X0295715Y0168819D03*
X0290597Y0168228D03*
X0285203Y0168228D03*
X0282290Y0169409D03*
X0280243Y0174961D03*
X0275755Y0169409D03*
X0272684Y0178150D03*
D22*
X0275951Y0171024D03*
X0275676Y0170000D03*
X0275676Y0169843D03*
X0275676Y0169685D03*
X0280912Y0170000D03*
X0282526Y0169685D03*
X0282369Y0168386D03*
X0288196Y0170000D03*
X0290243Y0169685D03*
X0293589Y0168543D03*
X0294337Y0170276D03*
X0290400Y0164882D03*
X0302211Y0169409D03*
X0302487Y0170000D03*
X0302644Y0170433D03*
X0302920Y0171024D03*
X0303077Y0171299D03*
X0303077Y0171457D03*
X0303235Y0171732D03*
X0303510Y0172323D03*
X0304967Y0174370D03*
X0307881Y0172165D03*
X0306857Y0169843D03*
X0311818Y0170000D03*
X0316503Y0178150D03*
D23*
X0316995Y0178012D03*
X0307822Y0171594D03*
X0306207Y0172618D03*
X0305774Y0172028D03*
X0305184Y0171594D03*
X0303885Y0173051D03*
X0304160Y0173484D03*
X0302703Y0170571D03*
X0302270Y0169547D03*
X0289003Y0171594D03*
X0284475Y0169547D03*
X0277625Y0173484D03*
X0277192Y0173051D03*
X0276168Y0171594D03*
X0275735Y0170138D03*
X0271955Y0165610D03*
X0272388Y0164744D03*
X0272231Y0178012D03*
D24*
X0270932Y0176555D03*
X0275144Y0178012D03*
X0283018Y0170571D03*
X0285656Y0170571D03*
X0285066Y0168091D03*
X0294396Y0170571D03*
X0271365Y0165177D03*
X0270932Y0166201D03*
X0317585Y0176988D03*
D25*
X0320282Y0175531D03*
X0320873Y0174508D03*
X0321148Y0174075D03*
X0321306Y0173484D03*
X0321463Y0173051D03*
X0321581Y0172618D03*
X0321581Y0172028D03*
X0321581Y0171594D03*
X0320873Y0171161D03*
X0320873Y0170571D03*
X0321581Y0170571D03*
X0321463Y0170138D03*
X0321306Y0169114D03*
X0320873Y0168091D03*
X0320282Y0168681D03*
X0320282Y0167224D03*
X0320873Y0172028D03*
X0320715Y0173051D03*
X0314298Y0178012D03*
X0300164Y0170138D03*
X0293471Y0168091D03*
X0268944Y0167224D03*
X0268668Y0167657D03*
X0268077Y0168681D03*
X0267920Y0169114D03*
X0267802Y0169547D03*
X0268510Y0169547D03*
X0268668Y0169114D03*
X0267644Y0170571D03*
X0267644Y0172028D03*
X0267644Y0172618D03*
X0267802Y0173051D03*
X0267920Y0173484D03*
X0268077Y0174075D03*
X0268668Y0173484D03*
X0268510Y0173051D03*
X0269101Y0174508D03*
X0268668Y0175098D03*
X0268944Y0175531D03*
X0269849Y0176555D03*
D26*
X0271365Y0176850D03*
X0271207Y0177559D03*
X0271522Y0177717D03*
X0271798Y0177874D03*
X0280696Y0173189D03*
X0289003Y0171732D03*
X0293530Y0168228D03*
X0295420Y0168386D03*
X0299948Y0169843D03*
X0303451Y0167953D03*
X0307231Y0170433D03*
X0310302Y0171732D03*
X0312782Y0171732D03*
X0317310Y0177126D03*
X0317743Y0177717D03*
X0318018Y0177559D03*
X0318451Y0166339D03*
X0318018Y0166063D03*
X0318176Y0165315D03*
X0317585Y0165039D03*
X0271955Y0164882D03*
X0271640Y0165039D03*
X0271207Y0166063D03*
D27*
X0294554Y0177874D03*
D28*
X0285873Y0169685D03*
X0285873Y0169409D03*
X0285873Y0169252D03*
X0317369Y0177874D03*
D29*
X0294534Y0177717D03*
D30*
X0276837Y0177559D03*
D31*
X0267566Y0171457D03*
X0267566Y0171299D03*
X0267723Y0170000D03*
X0285794Y0170866D03*
X0298196Y0164882D03*
X0306936Y0177559D03*
X0321660Y0171457D03*
X0321660Y0171299D03*
D32*
X0319554Y0175394D03*
X0319121Y0175827D03*
X0318688Y0176260D03*
X0318530Y0176417D03*
X0318688Y0177126D03*
X0308766Y0177559D03*
X0307743Y0171299D03*
X0318688Y0166496D03*
X0318963Y0166772D03*
X0319121Y0166929D03*
X0318963Y0165906D03*
X0295341Y0168228D03*
X0289081Y0171890D03*
X0279160Y0171299D03*
X0270420Y0176102D03*
X0269987Y0167087D03*
X0270262Y0166772D03*
X0270420Y0165748D03*
X0270853Y0165472D03*
D33*
X0313373Y0177559D03*
D34*
X0318235Y0177421D03*
X0318825Y0176988D03*
X0319416Y0175531D03*
X0318825Y0166634D03*
X0318235Y0166201D03*
X0308038Y0172618D03*
X0270991Y0177421D03*
D35*
X0272684Y0177421D03*
X0275873Y0169114D03*
X0277054Y0168091D03*
X0285518Y0170138D03*
X0293668Y0168681D03*
X0295873Y0170138D03*
X0301975Y0169114D03*
X0311463Y0169547D03*
D36*
X0309062Y0169547D03*
X0316503Y0177421D03*
X0297841Y0170138D03*
X0280479Y0169547D03*
D37*
X0270715Y0166339D03*
X0270558Y0166496D03*
X0270125Y0166929D03*
X0270991Y0165315D03*
X0269692Y0175394D03*
X0269534Y0176260D03*
X0270558Y0176260D03*
X0270715Y0176417D03*
X0271148Y0176693D03*
X0270558Y0177126D03*
X0270715Y0177283D03*
X0300755Y0164882D03*
X0314022Y0169843D03*
X0319259Y0167087D03*
X0318825Y0165748D03*
X0318392Y0165472D03*
X0319259Y0175669D03*
X0318825Y0176102D03*
X0318392Y0177283D03*
D38*
X0316995Y0177283D03*
X0312349Y0170866D03*
X0313215Y0169252D03*
X0309869Y0170866D03*
X0309278Y0169843D03*
X0305932Y0172165D03*
X0306365Y0172756D03*
X0306640Y0173189D03*
X0306798Y0174370D03*
X0304751Y0174213D03*
X0304475Y0173937D03*
X0304318Y0173622D03*
X0303727Y0172756D03*
X0303451Y0172165D03*
X0303294Y0171890D03*
X0302861Y0170866D03*
X0302428Y0169843D03*
X0299514Y0169409D03*
X0297467Y0168228D03*
X0295577Y0168543D03*
X0293530Y0168386D03*
X0294396Y0170433D03*
X0290459Y0169843D03*
X0288727Y0170866D03*
X0288727Y0171024D03*
X0285656Y0170433D03*
X0284199Y0169409D03*
X0284042Y0169252D03*
X0282743Y0170000D03*
X0278215Y0173937D03*
X0277349Y0173189D03*
X0276759Y0172480D03*
X0276601Y0172323D03*
X0276325Y0171890D03*
X0276325Y0171732D03*
X0276168Y0171457D03*
X0275892Y0170866D03*
X0275892Y0170709D03*
X0275735Y0170433D03*
X0275735Y0170276D03*
X0272388Y0165472D03*
X0272231Y0177283D03*
X0317585Y0165748D03*
D39*
X0317822Y0165906D03*
X0317231Y0164882D03*
X0313885Y0169685D03*
X0312428Y0171024D03*
X0312546Y0171299D03*
X0312703Y0171457D03*
X0310223Y0171457D03*
X0310066Y0171299D03*
X0309948Y0171024D03*
X0307743Y0171457D03*
X0308018Y0172480D03*
X0306719Y0173346D03*
X0306877Y0173622D03*
X0306877Y0173780D03*
X0306877Y0173937D03*
X0306877Y0174213D03*
X0306444Y0172913D03*
X0306129Y0172480D03*
X0305105Y0171457D03*
X0307152Y0170276D03*
X0306562Y0168228D03*
X0308924Y0168228D03*
X0311404Y0168228D03*
X0304396Y0173780D03*
X0299869Y0169685D03*
X0297979Y0170433D03*
X0296089Y0170433D03*
X0291719Y0168976D03*
X0288924Y0171457D03*
X0284711Y0169685D03*
X0282940Y0170433D03*
X0281050Y0170433D03*
X0279593Y0171732D03*
X0279751Y0171890D03*
X0280026Y0172323D03*
X0280184Y0172480D03*
X0280459Y0172756D03*
X0280459Y0172913D03*
X0280774Y0173346D03*
X0280932Y0173622D03*
X0280932Y0173780D03*
X0280932Y0173937D03*
X0280932Y0174213D03*
X0277861Y0173622D03*
X0277113Y0172913D03*
X0276995Y0172756D03*
X0279318Y0171457D03*
X0282231Y0168228D03*
X0271719Y0165748D03*
X0271444Y0165906D03*
X0271877Y0177126D03*
X0318097Y0176693D03*
D40*
X0320066Y0174508D03*
X0320066Y0168091D03*
X0318609Y0165610D03*
X0269908Y0166201D03*
X0269908Y0167224D03*
X0268885Y0168681D03*
X0268885Y0174075D03*
X0270341Y0176988D03*
D41*
X0271581Y0176988D03*
X0285873Y0169547D03*
D42*
X0285794Y0170709D03*
X0270203Y0165906D03*
X0270046Y0166063D03*
X0269770Y0166339D03*
X0269337Y0166772D03*
X0269180Y0166929D03*
X0269770Y0167362D03*
X0269613Y0167520D03*
X0269337Y0167953D03*
X0269022Y0168386D03*
X0268589Y0169409D03*
X0268314Y0171299D03*
X0268589Y0173346D03*
X0268747Y0173780D03*
X0269022Y0174370D03*
X0269180Y0174646D03*
X0269337Y0174803D03*
X0269337Y0174961D03*
X0269613Y0175236D03*
X0270046Y0175827D03*
X0269180Y0175827D03*
X0269022Y0175669D03*
X0268747Y0175236D03*
X0267999Y0173780D03*
X0270203Y0176850D03*
X0300085Y0170000D03*
X0310164Y0171890D03*
X0314101Y0170000D03*
X0319495Y0167362D03*
X0319613Y0167520D03*
X0319770Y0167795D03*
X0319928Y0167953D03*
X0320203Y0168386D03*
X0320361Y0168819D03*
X0320361Y0167362D03*
X0319928Y0166772D03*
X0319613Y0166496D03*
X0319495Y0166339D03*
X0319180Y0166063D03*
X0320951Y0171299D03*
X0320951Y0171457D03*
X0320636Y0173189D03*
X0320518Y0173622D03*
X0320518Y0173780D03*
X0320203Y0174370D03*
X0319928Y0174803D03*
X0319613Y0175236D03*
X0320203Y0175669D03*
X0320518Y0175236D03*
X0320794Y0174646D03*
X0319770Y0176102D03*
X0319613Y0176260D03*
X0319495Y0176417D03*
X0319180Y0176693D03*
D43*
X0317881Y0176850D03*
X0305046Y0171299D03*
D44*
X0319042Y0176850D03*
X0320066Y0175827D03*
X0320066Y0174646D03*
X0320066Y0168228D03*
X0320066Y0167087D03*
X0269908Y0175669D03*
X0268885Y0167362D03*
D45*
X0280991Y0170571D03*
X0317881Y0165177D03*
X0318314Y0176555D03*
D46*
X0319337Y0176555D03*
X0319928Y0175965D03*
X0319770Y0175098D03*
X0320361Y0174075D03*
X0320794Y0172618D03*
X0320951Y0171594D03*
X0320794Y0170138D03*
X0320636Y0169547D03*
X0320518Y0169114D03*
X0319770Y0167657D03*
X0319337Y0167224D03*
X0319770Y0166634D03*
X0319337Y0166201D03*
X0298038Y0170571D03*
X0296148Y0170571D03*
X0280243Y0168091D03*
X0270636Y0165610D03*
X0269455Y0166634D03*
X0269455Y0167657D03*
X0269180Y0168091D03*
X0268314Y0171161D03*
X0269455Y0175098D03*
X0269770Y0175531D03*
X0269337Y0175965D03*
X0270203Y0175965D03*
D47*
X0269396Y0176102D03*
X0268373Y0174646D03*
X0268373Y0172756D03*
X0268373Y0172480D03*
X0268373Y0172323D03*
X0268373Y0172165D03*
X0268373Y0171890D03*
X0268373Y0171732D03*
X0268373Y0171024D03*
X0268373Y0170866D03*
X0268373Y0170709D03*
X0268373Y0170433D03*
X0268373Y0170276D03*
X0268373Y0168228D03*
X0269396Y0167795D03*
X0299869Y0164882D03*
X0312703Y0171890D03*
X0320577Y0173346D03*
X0320577Y0169409D03*
X0320577Y0169252D03*
D48*
X0318963Y0175965D03*
X0307152Y0170571D03*
X0308333Y0164154D03*
X0291995Y0170571D03*
X0291129Y0170571D03*
X0290538Y0168091D03*
X0270420Y0166634D03*
D49*
X0268373Y0168091D03*
X0268373Y0170138D03*
X0268373Y0170571D03*
X0268373Y0171594D03*
X0268373Y0172028D03*
X0268373Y0172618D03*
X0268373Y0174508D03*
X0320577Y0175098D03*
X0320577Y0173484D03*
X0320577Y0167657D03*
D50*
X0311975Y0168819D03*
X0305991Y0174803D03*
X0290676Y0168543D03*
X0280046Y0174803D03*
D51*
X0279967Y0174646D03*
X0303432Y0168228D03*
D52*
X0298117Y0168976D03*
X0305991Y0174646D03*
X0288510Y0170709D03*
X0279731Y0168976D03*
D53*
X0279967Y0174508D03*
D54*
X0285518Y0168681D03*
X0288274Y0170138D03*
X0291345Y0170138D03*
X0305912Y0174508D03*
D55*
X0279829Y0174370D03*
D56*
X0278727Y0174213D03*
X0280774Y0169843D03*
X0282664Y0169843D03*
X0285577Y0170276D03*
X0288058Y0169843D03*
X0290538Y0170000D03*
X0291995Y0170000D03*
X0291995Y0169843D03*
X0295932Y0170276D03*
X0297979Y0170276D03*
X0302349Y0169685D03*
X0302782Y0170709D03*
X0303806Y0172913D03*
X0309199Y0169685D03*
X0311680Y0169843D03*
X0275814Y0169252D03*
D57*
X0275676Y0169547D03*
X0280912Y0170138D03*
X0282526Y0169547D03*
X0283825Y0169114D03*
X0278432Y0174075D03*
X0294337Y0170138D03*
X0295636Y0168681D03*
X0298983Y0169114D03*
X0302487Y0170138D03*
X0302920Y0171161D03*
X0303668Y0172618D03*
X0307881Y0172028D03*
D58*
X0306562Y0173051D03*
X0306719Y0173484D03*
X0306877Y0174075D03*
X0310223Y0171594D03*
X0312546Y0171161D03*
X0312703Y0171594D03*
X0313727Y0169547D03*
X0312979Y0169114D03*
X0280932Y0174075D03*
X0280774Y0173484D03*
X0280617Y0173051D03*
X0280341Y0172618D03*
X0279908Y0172028D03*
X0276837Y0172618D03*
D59*
X0276463Y0172028D03*
X0276030Y0171161D03*
X0279377Y0171594D03*
X0282881Y0170138D03*
X0288865Y0171161D03*
X0297605Y0169114D03*
X0299652Y0169547D03*
X0301109Y0168091D03*
X0303156Y0171594D03*
X0304613Y0174075D03*
X0307093Y0170138D03*
X0310007Y0171161D03*
X0317290Y0165610D03*
X0316857Y0164744D03*
D60*
X0316857Y0165472D03*
X0313510Y0169409D03*
X0309416Y0170000D03*
X0307093Y0170000D03*
X0305479Y0171732D03*
X0305636Y0171890D03*
X0306070Y0172323D03*
X0307959Y0172323D03*
X0304022Y0173189D03*
X0304022Y0173346D03*
X0303589Y0172480D03*
X0302566Y0170276D03*
X0302133Y0169252D03*
X0299219Y0169252D03*
X0288865Y0171299D03*
X0287841Y0168228D03*
X0282881Y0170276D03*
X0280991Y0170276D03*
X0280400Y0168228D03*
X0279967Y0172165D03*
X0278077Y0173780D03*
X0277487Y0173346D03*
X0276463Y0172165D03*
X0276030Y0171299D03*
D61*
X0275814Y0170571D03*
X0290105Y0169547D03*
X0303373Y0172028D03*
D62*
X0287684Y0168091D03*
X0267723Y0170138D03*
X0267566Y0171161D03*
X0267566Y0171594D03*
X0321385Y0169547D03*
X0321660Y0171161D03*
D63*
X0321522Y0170433D03*
X0321522Y0170276D03*
X0320656Y0167795D03*
X0299357Y0164882D03*
X0294396Y0170709D03*
X0268451Y0170000D03*
X0267861Y0169409D03*
X0268294Y0171457D03*
D64*
X0279239Y0171161D03*
X0314239Y0170138D03*
X0321089Y0168681D03*
D65*
X0310951Y0170709D03*
D66*
X0288491Y0170571D03*
D67*
X0310873Y0170571D03*
D68*
X0288412Y0170433D03*
D69*
X0291483Y0170433D03*
X0280105Y0169252D03*
X0306365Y0169252D03*
D70*
X0310873Y0170433D03*
D71*
X0288353Y0170276D03*
D72*
X0291837Y0164882D03*
X0300302Y0170276D03*
D73*
X0310735Y0170276D03*
D74*
X0310735Y0170138D03*
D75*
X0316266Y0164606D03*
X0297762Y0168543D03*
X0297605Y0169843D03*
X0293825Y0168819D03*
X0289888Y0169252D03*
X0285361Y0170000D03*
D76*
X0282664Y0168976D03*
X0277113Y0168386D03*
X0295066Y0170000D03*
D77*
X0295794Y0168976D03*
X0297684Y0170000D03*
X0293747Y0164882D03*
X0289967Y0169409D03*
X0287920Y0169685D03*
X0287920Y0168386D03*
X0280636Y0169685D03*
X0280479Y0168386D03*
X0275951Y0168976D03*
X0272881Y0164606D03*
X0316345Y0165315D03*
D78*
X0285361Y0169843D03*
D79*
X0277211Y0168543D03*
X0294849Y0169843D03*
D80*
X0294908Y0169685D03*
D81*
X0306719Y0169685D03*
X0306719Y0168386D03*
X0282231Y0169252D03*
X0278727Y0168819D03*
D82*
X0287782Y0169547D03*
X0303530Y0168091D03*
D83*
X0294908Y0169547D03*
D84*
X0306640Y0169547D03*
X0282152Y0169114D03*
D85*
X0294908Y0169252D03*
X0294908Y0169409D03*
D86*
X0293963Y0168976D03*
X0282585Y0168543D03*
X0308845Y0169409D03*
X0309278Y0168543D03*
X0311325Y0169409D03*
X0311759Y0168543D03*
D87*
X0306070Y0169114D03*
X0290755Y0168681D03*
X0279967Y0169114D03*
D88*
X0277349Y0168681D03*
X0286522Y0169114D03*
D89*
X0289751Y0169114D03*
X0297900Y0168681D03*
X0311010Y0169114D03*
X0311916Y0168681D03*
D90*
X0294101Y0169114D03*
D91*
X0288215Y0168681D03*
X0308609Y0169114D03*
X0309357Y0168681D03*
D92*
X0287625Y0168976D03*
D93*
X0288353Y0164882D03*
X0301621Y0168976D03*
D94*
X0308983Y0168976D03*
D95*
X0281778Y0168819D03*
D96*
X0288215Y0168819D03*
D97*
X0285361Y0168543D03*
X0277054Y0168228D03*
X0298038Y0168819D03*
D98*
X0301916Y0168819D03*
D99*
X0307093Y0168819D03*
D100*
X0281719Y0168681D03*
D101*
X0303077Y0168681D03*
D102*
X0307014Y0168681D03*
D103*
X0302861Y0168543D03*
D104*
X0302723Y0168386D03*
D105*
X0297388Y0168091D03*
X0307152Y0164154D03*
D106*
X0272822Y0165315D03*
D107*
X0294633Y0165177D03*
D108*
X0294692Y0165039D03*
D109*
X0279908Y0164882D03*
D110*
X0308629Y0164882D03*
D111*
X0282310Y0164449D03*
D112*
X0296877Y0164449D03*
D113*
X0309062Y0164449D03*
D114*
X0294613Y0164291D03*
D115*
X0278156Y0164154D03*
D116*
X0312054Y0164154D03*
D117*
X0366886Y0163888D03*
X0425942Y0163888D03*
X0484997Y0163888D03*
X0544052Y0163888D03*
X0603107Y0163888D03*
X0662162Y0163888D03*
X0721217Y0163888D03*
X0780272Y0163888D03*
X0839327Y0163888D03*
X0898383Y0163888D03*
X0957438Y0163888D03*
X1016493Y0163888D03*
X1075548Y0163888D03*
X1134603Y0163888D03*
X1193658Y0163888D03*
X1252713Y0163888D03*
X1252713Y0222943D03*
X1193658Y0222943D03*
X1134603Y0222943D03*
X1075548Y0222943D03*
X1016493Y0222943D03*
X0957438Y0222943D03*
X0898383Y0222943D03*
X0839327Y0222943D03*
X0780272Y0222943D03*
X0721217Y0222943D03*
X0662162Y0222943D03*
X0603107Y0222943D03*
X0544052Y0222943D03*
X0484997Y0222943D03*
X0425942Y0222943D03*
X0366886Y0222943D03*
X0307831Y0222943D03*
X0248776Y0222943D03*
X0189721Y0222943D03*
X0130666Y0222943D03*
X0130666Y0281998D03*
X0189721Y0281998D03*
X0248776Y0281998D03*
X0307831Y0281998D03*
X0366886Y0281998D03*
X0425942Y0281998D03*
X0484997Y0281998D03*
X0544052Y0281998D03*
X0603107Y0281998D03*
X0662162Y0281998D03*
X0721217Y0281998D03*
X0780272Y0281998D03*
X0839327Y0281998D03*
X0898383Y0281998D03*
X0957438Y0281998D03*
X1016493Y0281998D03*
X1075548Y0281998D03*
X1134603Y0281998D03*
X1193658Y0281998D03*
X1252713Y0281998D03*
X1252713Y0341053D03*
X1193658Y0341053D03*
X1134603Y0341053D03*
X1075548Y0341053D03*
X1016493Y0341053D03*
X0957438Y0341053D03*
X0898383Y0341053D03*
X0839327Y0341053D03*
X0780272Y0341053D03*
X0721217Y0341053D03*
X0662162Y0341053D03*
X0603107Y0341053D03*
X0544052Y0341053D03*
X0484997Y0341053D03*
X0425942Y0341053D03*
X0366886Y0341053D03*
X0307831Y0341053D03*
X0248776Y0341053D03*
X0189721Y0341053D03*
X0130666Y0341053D03*
X0071611Y0341053D03*
X0071611Y0281998D03*
X0071611Y0400108D03*
X0130666Y0400108D03*
X0189721Y0400108D03*
X0248776Y0400108D03*
X0307831Y0400108D03*
X0366886Y0400108D03*
X0425942Y0400108D03*
X0484997Y0400108D03*
X0544052Y0400108D03*
X0603107Y0400108D03*
X0662162Y0400108D03*
X0721217Y0400108D03*
X0780272Y0400108D03*
X0839327Y0400108D03*
X0898383Y0400108D03*
X0957438Y0400108D03*
X1016493Y0400108D03*
X1075548Y0400108D03*
X1134603Y0400108D03*
X1193658Y0400108D03*
X1252713Y0400108D03*
X1252713Y0459163D03*
X1193658Y0459163D03*
X1134603Y0459163D03*
X1075548Y0459163D03*
X1016493Y0459163D03*
X0957438Y0459163D03*
X0898383Y0459163D03*
X0839327Y0459163D03*
X0780272Y0459163D03*
X0721217Y0459163D03*
X0662162Y0459163D03*
X0603107Y0459163D03*
X0544052Y0459163D03*
X0484997Y0459163D03*
X0425942Y0459163D03*
X0366886Y0459163D03*
X0307831Y0459163D03*
X0248776Y0459163D03*
X0189721Y0459163D03*
X0130666Y0459163D03*
X0071611Y0459163D03*
X0071611Y0518219D03*
X0130666Y0518219D03*
X0189721Y0518219D03*
X0248776Y0518219D03*
X0307831Y0518219D03*
X0366886Y0518219D03*
X0425942Y0518219D03*
X0484997Y0518219D03*
X0544052Y0518219D03*
X0603107Y0518219D03*
X0662162Y0518219D03*
X0721217Y0518219D03*
X0780272Y0518219D03*
X0839327Y0518219D03*
X0898383Y0518219D03*
X0957438Y0518219D03*
X1016493Y0518219D03*
X1075548Y0518219D03*
X1134603Y0518219D03*
X1193658Y0518219D03*
X1252713Y0518219D03*
X1252713Y0577274D03*
X1193658Y0577274D03*
X1134603Y0577274D03*
X1075548Y0577274D03*
X1016493Y0577274D03*
X0957438Y0577274D03*
X0898383Y0577274D03*
X0839327Y0577274D03*
X0780272Y0577274D03*
X0721217Y0577274D03*
X0662162Y0577274D03*
X0603107Y0577274D03*
X0544052Y0577274D03*
X0484997Y0577274D03*
X0425942Y0577274D03*
X0366886Y0577274D03*
X0307831Y0577274D03*
X0248776Y0577274D03*
X0189721Y0577274D03*
X0130666Y0577274D03*
X0071611Y0577274D03*
X0071611Y0636329D03*
X0130666Y0636329D03*
X0189721Y0636329D03*
X0248776Y0636329D03*
X0307831Y0636329D03*
X0366886Y0636329D03*
X0425942Y0636329D03*
X0484997Y0636329D03*
X0544052Y0636329D03*
X0603107Y0636329D03*
X0662162Y0636329D03*
X0721217Y0636329D03*
X0780272Y0636329D03*
X0839327Y0636329D03*
X0898383Y0636329D03*
X0957438Y0636329D03*
X1016493Y0636329D03*
X1075548Y0636329D03*
X1134603Y0636329D03*
X1193658Y0636329D03*
X1252713Y0636329D03*
X1252713Y0695384D03*
X1193658Y0695384D03*
X1134603Y0695384D03*
X1075548Y0695384D03*
X1016493Y0695384D03*
X0957438Y0695384D03*
X0898383Y0695384D03*
X0839327Y0695384D03*
X0780272Y0695384D03*
X0721217Y0695384D03*
X0662162Y0695384D03*
X0603107Y0695384D03*
X0544052Y0695384D03*
X0484997Y0695384D03*
X0425942Y0695384D03*
X0366886Y0695384D03*
X0307831Y0695384D03*
X0248776Y0695384D03*
X0189721Y0695384D03*
X0130666Y0695384D03*
X0071611Y0695384D03*
X0071611Y0754439D03*
X0130666Y0754439D03*
X0189721Y0754439D03*
X0248776Y0754439D03*
X0307831Y0754439D03*
X0366886Y0754439D03*
X0425942Y0754439D03*
X0484997Y0754439D03*
X0544052Y0754439D03*
X0603107Y0754439D03*
X0662162Y0754439D03*
X0721217Y0754439D03*
X0780272Y0754439D03*
X0839327Y0754439D03*
X0898383Y0754439D03*
X0957438Y0754439D03*
X1016493Y0754439D03*
X1075548Y0754439D03*
X1134603Y0754439D03*
X1193658Y0754439D03*
X1252713Y0754439D03*
X1193658Y0813494D03*
X1134603Y0813494D03*
X1075548Y0813494D03*
X1016493Y0813494D03*
X0957438Y0813494D03*
X0898383Y0813494D03*
X0839327Y0813494D03*
X0780272Y0813494D03*
X0706453Y0813494D03*
X0662162Y0813494D03*
X0603107Y0813494D03*
X0544052Y0813494D03*
X0484997Y0813494D03*
X0425942Y0813494D03*
X0366886Y0813494D03*
X0307831Y0813494D03*
X0248776Y0813494D03*
X0189721Y0813494D03*
X0130666Y0813494D03*
X0366886Y0104833D03*
X0425942Y0104833D03*
X0484997Y0104833D03*
X0544052Y0104833D03*
X0622792Y0104833D03*
X0662162Y0104833D03*
X0721217Y0104833D03*
X0785194Y0104833D03*
X0839327Y0104833D03*
X0898383Y0104833D03*
X0957438Y0104833D03*
X1016493Y0104833D03*
X1075548Y0104833D03*
X1134603Y0104833D03*
X1193658Y0104833D03*
M02*
