G04 EAGLE Gerber RS-274X export*
G75*
%MOMM*%
%FSLAX34Y34*%
%LPD*%
%IN*%
%IPPOS*%
%AMOC8*
5,1,8,0,0,1.08239X$1,22.5*%
G01*
%ADD10C,0.203200*%
%ADD11C,0.000000*%
%ADD12C,0.010000*%
%ADD13C,0.254000*%


D10*
X3165000Y0D02*
X3165000Y170000D01*
X3265000Y170000D01*
X3265000Y470000D01*
X3165000Y470000D01*
X3165000Y1977500D01*
X0Y1977500D01*
X0Y0D01*
X535630Y0D01*
X535630Y233200D01*
X595320Y233200D01*
X595320Y0D01*
X3165000Y0D01*
D11*
X3073490Y75000D02*
X3073495Y75405D01*
X3073510Y75810D01*
X3073535Y76215D01*
X3073570Y76618D01*
X3073614Y77021D01*
X3073669Y77423D01*
X3073733Y77823D01*
X3073807Y78221D01*
X3073891Y78617D01*
X3073985Y79012D01*
X3074088Y79403D01*
X3074201Y79793D01*
X3074323Y80179D01*
X3074455Y80562D01*
X3074596Y80942D01*
X3074747Y81318D01*
X3074906Y81691D01*
X3075075Y82059D01*
X3075253Y82423D01*
X3075439Y82783D01*
X3075635Y83138D01*
X3075839Y83488D01*
X3076051Y83833D01*
X3076272Y84172D01*
X3076502Y84507D01*
X3076739Y84835D01*
X3076984Y85157D01*
X3077238Y85474D01*
X3077498Y85784D01*
X3077767Y86087D01*
X3078043Y86384D01*
X3078326Y86674D01*
X3078616Y86957D01*
X3078913Y87233D01*
X3079216Y87502D01*
X3079526Y87762D01*
X3079843Y88016D01*
X3080165Y88261D01*
X3080493Y88498D01*
X3080828Y88728D01*
X3081167Y88949D01*
X3081512Y89161D01*
X3081862Y89365D01*
X3082217Y89561D01*
X3082577Y89747D01*
X3082941Y89925D01*
X3083309Y90094D01*
X3083682Y90253D01*
X3084058Y90404D01*
X3084438Y90545D01*
X3084821Y90677D01*
X3085207Y90799D01*
X3085597Y90912D01*
X3085988Y91015D01*
X3086383Y91109D01*
X3086779Y91193D01*
X3087177Y91267D01*
X3087577Y91331D01*
X3087979Y91386D01*
X3088382Y91430D01*
X3088785Y91465D01*
X3089190Y91490D01*
X3089595Y91505D01*
X3090000Y91510D01*
X3090405Y91505D01*
X3090810Y91490D01*
X3091215Y91465D01*
X3091618Y91430D01*
X3092021Y91386D01*
X3092423Y91331D01*
X3092823Y91267D01*
X3093221Y91193D01*
X3093617Y91109D01*
X3094012Y91015D01*
X3094403Y90912D01*
X3094793Y90799D01*
X3095179Y90677D01*
X3095562Y90545D01*
X3095942Y90404D01*
X3096318Y90253D01*
X3096691Y90094D01*
X3097059Y89925D01*
X3097423Y89747D01*
X3097783Y89561D01*
X3098138Y89365D01*
X3098488Y89161D01*
X3098833Y88949D01*
X3099172Y88728D01*
X3099507Y88498D01*
X3099835Y88261D01*
X3100157Y88016D01*
X3100474Y87762D01*
X3100784Y87502D01*
X3101087Y87233D01*
X3101384Y86957D01*
X3101674Y86674D01*
X3101957Y86384D01*
X3102233Y86087D01*
X3102502Y85784D01*
X3102762Y85474D01*
X3103016Y85157D01*
X3103261Y84835D01*
X3103498Y84507D01*
X3103728Y84172D01*
X3103949Y83833D01*
X3104161Y83488D01*
X3104365Y83138D01*
X3104561Y82783D01*
X3104747Y82423D01*
X3104925Y82059D01*
X3105094Y81691D01*
X3105253Y81318D01*
X3105404Y80942D01*
X3105545Y80562D01*
X3105677Y80179D01*
X3105799Y79793D01*
X3105912Y79403D01*
X3106015Y79012D01*
X3106109Y78617D01*
X3106193Y78221D01*
X3106267Y77823D01*
X3106331Y77423D01*
X3106386Y77021D01*
X3106430Y76618D01*
X3106465Y76215D01*
X3106490Y75810D01*
X3106505Y75405D01*
X3106510Y75000D01*
X3106505Y74595D01*
X3106490Y74190D01*
X3106465Y73785D01*
X3106430Y73382D01*
X3106386Y72979D01*
X3106331Y72577D01*
X3106267Y72177D01*
X3106193Y71779D01*
X3106109Y71383D01*
X3106015Y70988D01*
X3105912Y70597D01*
X3105799Y70207D01*
X3105677Y69821D01*
X3105545Y69438D01*
X3105404Y69058D01*
X3105253Y68682D01*
X3105094Y68309D01*
X3104925Y67941D01*
X3104747Y67577D01*
X3104561Y67217D01*
X3104365Y66862D01*
X3104161Y66512D01*
X3103949Y66167D01*
X3103728Y65828D01*
X3103498Y65493D01*
X3103261Y65165D01*
X3103016Y64843D01*
X3102762Y64526D01*
X3102502Y64216D01*
X3102233Y63913D01*
X3101957Y63616D01*
X3101674Y63326D01*
X3101384Y63043D01*
X3101087Y62767D01*
X3100784Y62498D01*
X3100474Y62238D01*
X3100157Y61984D01*
X3099835Y61739D01*
X3099507Y61502D01*
X3099172Y61272D01*
X3098833Y61051D01*
X3098488Y60839D01*
X3098138Y60635D01*
X3097783Y60439D01*
X3097423Y60253D01*
X3097059Y60075D01*
X3096691Y59906D01*
X3096318Y59747D01*
X3095942Y59596D01*
X3095562Y59455D01*
X3095179Y59323D01*
X3094793Y59201D01*
X3094403Y59088D01*
X3094012Y58985D01*
X3093617Y58891D01*
X3093221Y58807D01*
X3092823Y58733D01*
X3092423Y58669D01*
X3092021Y58614D01*
X3091618Y58570D01*
X3091215Y58535D01*
X3090810Y58510D01*
X3090405Y58495D01*
X3090000Y58490D01*
X3089595Y58495D01*
X3089190Y58510D01*
X3088785Y58535D01*
X3088382Y58570D01*
X3087979Y58614D01*
X3087577Y58669D01*
X3087177Y58733D01*
X3086779Y58807D01*
X3086383Y58891D01*
X3085988Y58985D01*
X3085597Y59088D01*
X3085207Y59201D01*
X3084821Y59323D01*
X3084438Y59455D01*
X3084058Y59596D01*
X3083682Y59747D01*
X3083309Y59906D01*
X3082941Y60075D01*
X3082577Y60253D01*
X3082217Y60439D01*
X3081862Y60635D01*
X3081512Y60839D01*
X3081167Y61051D01*
X3080828Y61272D01*
X3080493Y61502D01*
X3080165Y61739D01*
X3079843Y61984D01*
X3079526Y62238D01*
X3079216Y62498D01*
X3078913Y62767D01*
X3078616Y63043D01*
X3078326Y63326D01*
X3078043Y63616D01*
X3077767Y63913D01*
X3077498Y64216D01*
X3077238Y64526D01*
X3076984Y64843D01*
X3076739Y65165D01*
X3076502Y65493D01*
X3076272Y65828D01*
X3076051Y66167D01*
X3075839Y66512D01*
X3075635Y66862D01*
X3075439Y67217D01*
X3075253Y67577D01*
X3075075Y67941D01*
X3074906Y68309D01*
X3074747Y68682D01*
X3074596Y69058D01*
X3074455Y69438D01*
X3074323Y69821D01*
X3074201Y70207D01*
X3074088Y70597D01*
X3073985Y70988D01*
X3073891Y71383D01*
X3073807Y71779D01*
X3073733Y72177D01*
X3073669Y72577D01*
X3073614Y72979D01*
X3073570Y73382D01*
X3073535Y73785D01*
X3073510Y74190D01*
X3073495Y74595D01*
X3073490Y75000D01*
X58490Y75000D02*
X58495Y75405D01*
X58510Y75810D01*
X58535Y76215D01*
X58570Y76618D01*
X58614Y77021D01*
X58669Y77423D01*
X58733Y77823D01*
X58807Y78221D01*
X58891Y78617D01*
X58985Y79012D01*
X59088Y79403D01*
X59201Y79793D01*
X59323Y80179D01*
X59455Y80562D01*
X59596Y80942D01*
X59747Y81318D01*
X59906Y81691D01*
X60075Y82059D01*
X60253Y82423D01*
X60439Y82783D01*
X60635Y83138D01*
X60839Y83488D01*
X61051Y83833D01*
X61272Y84172D01*
X61502Y84507D01*
X61739Y84835D01*
X61984Y85157D01*
X62238Y85474D01*
X62498Y85784D01*
X62767Y86087D01*
X63043Y86384D01*
X63326Y86674D01*
X63616Y86957D01*
X63913Y87233D01*
X64216Y87502D01*
X64526Y87762D01*
X64843Y88016D01*
X65165Y88261D01*
X65493Y88498D01*
X65828Y88728D01*
X66167Y88949D01*
X66512Y89161D01*
X66862Y89365D01*
X67217Y89561D01*
X67577Y89747D01*
X67941Y89925D01*
X68309Y90094D01*
X68682Y90253D01*
X69058Y90404D01*
X69438Y90545D01*
X69821Y90677D01*
X70207Y90799D01*
X70597Y90912D01*
X70988Y91015D01*
X71383Y91109D01*
X71779Y91193D01*
X72177Y91267D01*
X72577Y91331D01*
X72979Y91386D01*
X73382Y91430D01*
X73785Y91465D01*
X74190Y91490D01*
X74595Y91505D01*
X75000Y91510D01*
X75405Y91505D01*
X75810Y91490D01*
X76215Y91465D01*
X76618Y91430D01*
X77021Y91386D01*
X77423Y91331D01*
X77823Y91267D01*
X78221Y91193D01*
X78617Y91109D01*
X79012Y91015D01*
X79403Y90912D01*
X79793Y90799D01*
X80179Y90677D01*
X80562Y90545D01*
X80942Y90404D01*
X81318Y90253D01*
X81691Y90094D01*
X82059Y89925D01*
X82423Y89747D01*
X82783Y89561D01*
X83138Y89365D01*
X83488Y89161D01*
X83833Y88949D01*
X84172Y88728D01*
X84507Y88498D01*
X84835Y88261D01*
X85157Y88016D01*
X85474Y87762D01*
X85784Y87502D01*
X86087Y87233D01*
X86384Y86957D01*
X86674Y86674D01*
X86957Y86384D01*
X87233Y86087D01*
X87502Y85784D01*
X87762Y85474D01*
X88016Y85157D01*
X88261Y84835D01*
X88498Y84507D01*
X88728Y84172D01*
X88949Y83833D01*
X89161Y83488D01*
X89365Y83138D01*
X89561Y82783D01*
X89747Y82423D01*
X89925Y82059D01*
X90094Y81691D01*
X90253Y81318D01*
X90404Y80942D01*
X90545Y80562D01*
X90677Y80179D01*
X90799Y79793D01*
X90912Y79403D01*
X91015Y79012D01*
X91109Y78617D01*
X91193Y78221D01*
X91267Y77823D01*
X91331Y77423D01*
X91386Y77021D01*
X91430Y76618D01*
X91465Y76215D01*
X91490Y75810D01*
X91505Y75405D01*
X91510Y75000D01*
X91505Y74595D01*
X91490Y74190D01*
X91465Y73785D01*
X91430Y73382D01*
X91386Y72979D01*
X91331Y72577D01*
X91267Y72177D01*
X91193Y71779D01*
X91109Y71383D01*
X91015Y70988D01*
X90912Y70597D01*
X90799Y70207D01*
X90677Y69821D01*
X90545Y69438D01*
X90404Y69058D01*
X90253Y68682D01*
X90094Y68309D01*
X89925Y67941D01*
X89747Y67577D01*
X89561Y67217D01*
X89365Y66862D01*
X89161Y66512D01*
X88949Y66167D01*
X88728Y65828D01*
X88498Y65493D01*
X88261Y65165D01*
X88016Y64843D01*
X87762Y64526D01*
X87502Y64216D01*
X87233Y63913D01*
X86957Y63616D01*
X86674Y63326D01*
X86384Y63043D01*
X86087Y62767D01*
X85784Y62498D01*
X85474Y62238D01*
X85157Y61984D01*
X84835Y61739D01*
X84507Y61502D01*
X84172Y61272D01*
X83833Y61051D01*
X83488Y60839D01*
X83138Y60635D01*
X82783Y60439D01*
X82423Y60253D01*
X82059Y60075D01*
X81691Y59906D01*
X81318Y59747D01*
X80942Y59596D01*
X80562Y59455D01*
X80179Y59323D01*
X79793Y59201D01*
X79403Y59088D01*
X79012Y58985D01*
X78617Y58891D01*
X78221Y58807D01*
X77823Y58733D01*
X77423Y58669D01*
X77021Y58614D01*
X76618Y58570D01*
X76215Y58535D01*
X75810Y58510D01*
X75405Y58495D01*
X75000Y58490D01*
X74595Y58495D01*
X74190Y58510D01*
X73785Y58535D01*
X73382Y58570D01*
X72979Y58614D01*
X72577Y58669D01*
X72177Y58733D01*
X71779Y58807D01*
X71383Y58891D01*
X70988Y58985D01*
X70597Y59088D01*
X70207Y59201D01*
X69821Y59323D01*
X69438Y59455D01*
X69058Y59596D01*
X68682Y59747D01*
X68309Y59906D01*
X67941Y60075D01*
X67577Y60253D01*
X67217Y60439D01*
X66862Y60635D01*
X66512Y60839D01*
X66167Y61051D01*
X65828Y61272D01*
X65493Y61502D01*
X65165Y61739D01*
X64843Y61984D01*
X64526Y62238D01*
X64216Y62498D01*
X63913Y62767D01*
X63616Y63043D01*
X63326Y63326D01*
X63043Y63616D01*
X62767Y63913D01*
X62498Y64216D01*
X62238Y64526D01*
X61984Y64843D01*
X61739Y65165D01*
X61502Y65493D01*
X61272Y65828D01*
X61051Y66167D01*
X60839Y66512D01*
X60635Y66862D01*
X60439Y67217D01*
X60253Y67577D01*
X60075Y67941D01*
X59906Y68309D01*
X59747Y68682D01*
X59596Y69058D01*
X59455Y69438D01*
X59323Y69821D01*
X59201Y70207D01*
X59088Y70597D01*
X58985Y70988D01*
X58891Y71383D01*
X58807Y71779D01*
X58733Y72177D01*
X58669Y72577D01*
X58614Y72979D01*
X58570Y73382D01*
X58535Y73785D01*
X58510Y74190D01*
X58495Y74595D01*
X58490Y75000D01*
X3211200Y201100D02*
X3211202Y201213D01*
X3211208Y201327D01*
X3211218Y201440D01*
X3211232Y201552D01*
X3211249Y201664D01*
X3211271Y201776D01*
X3211297Y201886D01*
X3211326Y201996D01*
X3211359Y202104D01*
X3211396Y202212D01*
X3211437Y202317D01*
X3211481Y202422D01*
X3211529Y202525D01*
X3211580Y202626D01*
X3211635Y202725D01*
X3211694Y202822D01*
X3211756Y202917D01*
X3211821Y203010D01*
X3211889Y203101D01*
X3211960Y203189D01*
X3212035Y203275D01*
X3212112Y203358D01*
X3212192Y203438D01*
X3212275Y203515D01*
X3212361Y203590D01*
X3212449Y203661D01*
X3212540Y203729D01*
X3212633Y203794D01*
X3212728Y203856D01*
X3212825Y203915D01*
X3212924Y203970D01*
X3213025Y204021D01*
X3213128Y204069D01*
X3213233Y204113D01*
X3213338Y204154D01*
X3213446Y204191D01*
X3213554Y204224D01*
X3213664Y204253D01*
X3213774Y204279D01*
X3213886Y204301D01*
X3213998Y204318D01*
X3214110Y204332D01*
X3214223Y204342D01*
X3214337Y204348D01*
X3214450Y204350D01*
X3214563Y204348D01*
X3214677Y204342D01*
X3214790Y204332D01*
X3214902Y204318D01*
X3215014Y204301D01*
X3215126Y204279D01*
X3215236Y204253D01*
X3215346Y204224D01*
X3215454Y204191D01*
X3215562Y204154D01*
X3215667Y204113D01*
X3215772Y204069D01*
X3215875Y204021D01*
X3215976Y203970D01*
X3216075Y203915D01*
X3216172Y203856D01*
X3216267Y203794D01*
X3216360Y203729D01*
X3216451Y203661D01*
X3216539Y203590D01*
X3216625Y203515D01*
X3216708Y203438D01*
X3216788Y203358D01*
X3216865Y203275D01*
X3216940Y203189D01*
X3217011Y203101D01*
X3217079Y203010D01*
X3217144Y202917D01*
X3217206Y202822D01*
X3217265Y202725D01*
X3217320Y202626D01*
X3217371Y202525D01*
X3217419Y202422D01*
X3217463Y202317D01*
X3217504Y202212D01*
X3217541Y202104D01*
X3217574Y201996D01*
X3217603Y201886D01*
X3217629Y201776D01*
X3217651Y201664D01*
X3217668Y201552D01*
X3217682Y201440D01*
X3217692Y201327D01*
X3217698Y201213D01*
X3217700Y201100D01*
X3217698Y200987D01*
X3217692Y200873D01*
X3217682Y200760D01*
X3217668Y200648D01*
X3217651Y200536D01*
X3217629Y200424D01*
X3217603Y200314D01*
X3217574Y200204D01*
X3217541Y200096D01*
X3217504Y199988D01*
X3217463Y199883D01*
X3217419Y199778D01*
X3217371Y199675D01*
X3217320Y199574D01*
X3217265Y199475D01*
X3217206Y199378D01*
X3217144Y199283D01*
X3217079Y199190D01*
X3217011Y199099D01*
X3216940Y199011D01*
X3216865Y198925D01*
X3216788Y198842D01*
X3216708Y198762D01*
X3216625Y198685D01*
X3216539Y198610D01*
X3216451Y198539D01*
X3216360Y198471D01*
X3216267Y198406D01*
X3216172Y198344D01*
X3216075Y198285D01*
X3215976Y198230D01*
X3215875Y198179D01*
X3215772Y198131D01*
X3215667Y198087D01*
X3215562Y198046D01*
X3215454Y198009D01*
X3215346Y197976D01*
X3215236Y197947D01*
X3215126Y197921D01*
X3215014Y197899D01*
X3214902Y197882D01*
X3214790Y197868D01*
X3214677Y197858D01*
X3214563Y197852D01*
X3214450Y197850D01*
X3214337Y197852D01*
X3214223Y197858D01*
X3214110Y197868D01*
X3213998Y197882D01*
X3213886Y197899D01*
X3213774Y197921D01*
X3213664Y197947D01*
X3213554Y197976D01*
X3213446Y198009D01*
X3213338Y198046D01*
X3213233Y198087D01*
X3213128Y198131D01*
X3213025Y198179D01*
X3212924Y198230D01*
X3212825Y198285D01*
X3212728Y198344D01*
X3212633Y198406D01*
X3212540Y198471D01*
X3212449Y198539D01*
X3212361Y198610D01*
X3212275Y198685D01*
X3212192Y198762D01*
X3212112Y198842D01*
X3212035Y198925D01*
X3211960Y199011D01*
X3211889Y199099D01*
X3211821Y199190D01*
X3211756Y199283D01*
X3211694Y199378D01*
X3211635Y199475D01*
X3211580Y199574D01*
X3211529Y199675D01*
X3211481Y199778D01*
X3211437Y199883D01*
X3211396Y199988D01*
X3211359Y200096D01*
X3211326Y200204D01*
X3211297Y200314D01*
X3211271Y200424D01*
X3211249Y200536D01*
X3211232Y200648D01*
X3211218Y200760D01*
X3211208Y200873D01*
X3211202Y200987D01*
X3211200Y201100D01*
X3211200Y258900D02*
X3211202Y259013D01*
X3211208Y259127D01*
X3211218Y259240D01*
X3211232Y259352D01*
X3211249Y259464D01*
X3211271Y259576D01*
X3211297Y259686D01*
X3211326Y259796D01*
X3211359Y259904D01*
X3211396Y260012D01*
X3211437Y260117D01*
X3211481Y260222D01*
X3211529Y260325D01*
X3211580Y260426D01*
X3211635Y260525D01*
X3211694Y260622D01*
X3211756Y260717D01*
X3211821Y260810D01*
X3211889Y260901D01*
X3211960Y260989D01*
X3212035Y261075D01*
X3212112Y261158D01*
X3212192Y261238D01*
X3212275Y261315D01*
X3212361Y261390D01*
X3212449Y261461D01*
X3212540Y261529D01*
X3212633Y261594D01*
X3212728Y261656D01*
X3212825Y261715D01*
X3212924Y261770D01*
X3213025Y261821D01*
X3213128Y261869D01*
X3213233Y261913D01*
X3213338Y261954D01*
X3213446Y261991D01*
X3213554Y262024D01*
X3213664Y262053D01*
X3213774Y262079D01*
X3213886Y262101D01*
X3213998Y262118D01*
X3214110Y262132D01*
X3214223Y262142D01*
X3214337Y262148D01*
X3214450Y262150D01*
X3214563Y262148D01*
X3214677Y262142D01*
X3214790Y262132D01*
X3214902Y262118D01*
X3215014Y262101D01*
X3215126Y262079D01*
X3215236Y262053D01*
X3215346Y262024D01*
X3215454Y261991D01*
X3215562Y261954D01*
X3215667Y261913D01*
X3215772Y261869D01*
X3215875Y261821D01*
X3215976Y261770D01*
X3216075Y261715D01*
X3216172Y261656D01*
X3216267Y261594D01*
X3216360Y261529D01*
X3216451Y261461D01*
X3216539Y261390D01*
X3216625Y261315D01*
X3216708Y261238D01*
X3216788Y261158D01*
X3216865Y261075D01*
X3216940Y260989D01*
X3217011Y260901D01*
X3217079Y260810D01*
X3217144Y260717D01*
X3217206Y260622D01*
X3217265Y260525D01*
X3217320Y260426D01*
X3217371Y260325D01*
X3217419Y260222D01*
X3217463Y260117D01*
X3217504Y260012D01*
X3217541Y259904D01*
X3217574Y259796D01*
X3217603Y259686D01*
X3217629Y259576D01*
X3217651Y259464D01*
X3217668Y259352D01*
X3217682Y259240D01*
X3217692Y259127D01*
X3217698Y259013D01*
X3217700Y258900D01*
X3217698Y258787D01*
X3217692Y258673D01*
X3217682Y258560D01*
X3217668Y258448D01*
X3217651Y258336D01*
X3217629Y258224D01*
X3217603Y258114D01*
X3217574Y258004D01*
X3217541Y257896D01*
X3217504Y257788D01*
X3217463Y257683D01*
X3217419Y257578D01*
X3217371Y257475D01*
X3217320Y257374D01*
X3217265Y257275D01*
X3217206Y257178D01*
X3217144Y257083D01*
X3217079Y256990D01*
X3217011Y256899D01*
X3216940Y256811D01*
X3216865Y256725D01*
X3216788Y256642D01*
X3216708Y256562D01*
X3216625Y256485D01*
X3216539Y256410D01*
X3216451Y256339D01*
X3216360Y256271D01*
X3216267Y256206D01*
X3216172Y256144D01*
X3216075Y256085D01*
X3215976Y256030D01*
X3215875Y255979D01*
X3215772Y255931D01*
X3215667Y255887D01*
X3215562Y255846D01*
X3215454Y255809D01*
X3215346Y255776D01*
X3215236Y255747D01*
X3215126Y255721D01*
X3215014Y255699D01*
X3214902Y255682D01*
X3214790Y255668D01*
X3214677Y255658D01*
X3214563Y255652D01*
X3214450Y255650D01*
X3214337Y255652D01*
X3214223Y255658D01*
X3214110Y255668D01*
X3213998Y255682D01*
X3213886Y255699D01*
X3213774Y255721D01*
X3213664Y255747D01*
X3213554Y255776D01*
X3213446Y255809D01*
X3213338Y255846D01*
X3213233Y255887D01*
X3213128Y255931D01*
X3213025Y255979D01*
X3212924Y256030D01*
X3212825Y256085D01*
X3212728Y256144D01*
X3212633Y256206D01*
X3212540Y256271D01*
X3212449Y256339D01*
X3212361Y256410D01*
X3212275Y256485D01*
X3212192Y256562D01*
X3212112Y256642D01*
X3212035Y256725D01*
X3211960Y256811D01*
X3211889Y256899D01*
X3211821Y256990D01*
X3211756Y257083D01*
X3211694Y257178D01*
X3211635Y257275D01*
X3211580Y257374D01*
X3211529Y257475D01*
X3211481Y257578D01*
X3211437Y257683D01*
X3211396Y257788D01*
X3211359Y257896D01*
X3211326Y258004D01*
X3211297Y258114D01*
X3211271Y258224D01*
X3211249Y258336D01*
X3211232Y258448D01*
X3211218Y258560D01*
X3211208Y258673D01*
X3211202Y258787D01*
X3211200Y258900D01*
D12*
X3247800Y183800D02*
X3254000Y183800D01*
X3254000Y189800D02*
X3247800Y189800D01*
X3247692Y189798D01*
X3247584Y189792D01*
X3247476Y189782D01*
X3247368Y189769D01*
X3247261Y189751D01*
X3247155Y189730D01*
X3247050Y189705D01*
X3246945Y189676D01*
X3246842Y189643D01*
X3246740Y189607D01*
X3246639Y189566D01*
X3246540Y189523D01*
X3246443Y189475D01*
X3246347Y189425D01*
X3246253Y189371D01*
X3246162Y189313D01*
X3246072Y189252D01*
X3245984Y189188D01*
X3245899Y189121D01*
X3245817Y189051D01*
X3245737Y188978D01*
X3245660Y188902D01*
X3245585Y188823D01*
X3245514Y188742D01*
X3245445Y188658D01*
X3245379Y188572D01*
X3245317Y188484D01*
X3245258Y188393D01*
X3245202Y188300D01*
X3245149Y188205D01*
X3245100Y188109D01*
X3245055Y188010D01*
X3245013Y187910D01*
X3244975Y187809D01*
X3244940Y187706D01*
X3244909Y187603D01*
X3244882Y187498D01*
X3244859Y187392D01*
X3244840Y187285D01*
X3244824Y187178D01*
X3244812Y187070D01*
X3244804Y186962D01*
X3244800Y186854D01*
X3244800Y186746D01*
X3244804Y186638D01*
X3244812Y186530D01*
X3244824Y186422D01*
X3244840Y186315D01*
X3244859Y186208D01*
X3244882Y186102D01*
X3244909Y185997D01*
X3244940Y185894D01*
X3244975Y185791D01*
X3245013Y185690D01*
X3245055Y185590D01*
X3245100Y185491D01*
X3245149Y185395D01*
X3245202Y185300D01*
X3245258Y185207D01*
X3245317Y185116D01*
X3245379Y185028D01*
X3245445Y184942D01*
X3245514Y184858D01*
X3245585Y184777D01*
X3245660Y184698D01*
X3245737Y184622D01*
X3245817Y184549D01*
X3245899Y184479D01*
X3245984Y184412D01*
X3246072Y184348D01*
X3246162Y184287D01*
X3246253Y184229D01*
X3246347Y184175D01*
X3246443Y184125D01*
X3246540Y184077D01*
X3246639Y184034D01*
X3246740Y183993D01*
X3246842Y183957D01*
X3246945Y183924D01*
X3247050Y183895D01*
X3247155Y183870D01*
X3247261Y183849D01*
X3247368Y183831D01*
X3247476Y183818D01*
X3247584Y183808D01*
X3247692Y183802D01*
X3247800Y183800D01*
X3254000Y183800D02*
X3254108Y183802D01*
X3254216Y183808D01*
X3254324Y183818D01*
X3254432Y183831D01*
X3254539Y183849D01*
X3254645Y183870D01*
X3254750Y183895D01*
X3254855Y183924D01*
X3254958Y183957D01*
X3255060Y183993D01*
X3255161Y184034D01*
X3255260Y184077D01*
X3255357Y184125D01*
X3255453Y184175D01*
X3255547Y184229D01*
X3255638Y184287D01*
X3255728Y184348D01*
X3255816Y184412D01*
X3255901Y184479D01*
X3255983Y184549D01*
X3256063Y184622D01*
X3256140Y184698D01*
X3256215Y184777D01*
X3256286Y184858D01*
X3256355Y184942D01*
X3256421Y185028D01*
X3256483Y185116D01*
X3256542Y185207D01*
X3256598Y185300D01*
X3256651Y185395D01*
X3256700Y185491D01*
X3256745Y185590D01*
X3256787Y185690D01*
X3256825Y185791D01*
X3256860Y185894D01*
X3256891Y185997D01*
X3256918Y186102D01*
X3256941Y186208D01*
X3256960Y186315D01*
X3256976Y186422D01*
X3256988Y186530D01*
X3256996Y186638D01*
X3257000Y186746D01*
X3257000Y186854D01*
X3256996Y186962D01*
X3256988Y187070D01*
X3256976Y187178D01*
X3256960Y187285D01*
X3256941Y187392D01*
X3256918Y187498D01*
X3256891Y187603D01*
X3256860Y187706D01*
X3256825Y187809D01*
X3256787Y187910D01*
X3256745Y188010D01*
X3256700Y188109D01*
X3256651Y188205D01*
X3256598Y188300D01*
X3256542Y188393D01*
X3256483Y188484D01*
X3256421Y188572D01*
X3256355Y188658D01*
X3256286Y188742D01*
X3256215Y188823D01*
X3256140Y188902D01*
X3256063Y188978D01*
X3255983Y189051D01*
X3255901Y189121D01*
X3255816Y189188D01*
X3255728Y189252D01*
X3255638Y189313D01*
X3255547Y189371D01*
X3255453Y189425D01*
X3255357Y189475D01*
X3255260Y189523D01*
X3255161Y189566D01*
X3255060Y189607D01*
X3254958Y189643D01*
X3254855Y189676D01*
X3254750Y189705D01*
X3254645Y189730D01*
X3254539Y189751D01*
X3254432Y189769D01*
X3254324Y189782D01*
X3254216Y189792D01*
X3254108Y189798D01*
X3254000Y189800D01*
X3214650Y183800D02*
X3203650Y183800D01*
X3203650Y189800D02*
X3214650Y189800D01*
X3214758Y189798D01*
X3214866Y189792D01*
X3214974Y189782D01*
X3215082Y189769D01*
X3215189Y189751D01*
X3215295Y189730D01*
X3215400Y189705D01*
X3215505Y189676D01*
X3215608Y189643D01*
X3215710Y189607D01*
X3215811Y189566D01*
X3215910Y189523D01*
X3216007Y189475D01*
X3216103Y189425D01*
X3216197Y189371D01*
X3216288Y189313D01*
X3216378Y189252D01*
X3216466Y189188D01*
X3216551Y189121D01*
X3216633Y189051D01*
X3216713Y188978D01*
X3216790Y188902D01*
X3216865Y188823D01*
X3216936Y188742D01*
X3217005Y188658D01*
X3217071Y188572D01*
X3217133Y188484D01*
X3217192Y188393D01*
X3217248Y188300D01*
X3217301Y188205D01*
X3217350Y188109D01*
X3217395Y188010D01*
X3217437Y187910D01*
X3217475Y187809D01*
X3217510Y187706D01*
X3217541Y187603D01*
X3217568Y187498D01*
X3217591Y187392D01*
X3217610Y187285D01*
X3217626Y187178D01*
X3217638Y187070D01*
X3217646Y186962D01*
X3217650Y186854D01*
X3217650Y186746D01*
X3217646Y186638D01*
X3217638Y186530D01*
X3217626Y186422D01*
X3217610Y186315D01*
X3217591Y186208D01*
X3217568Y186102D01*
X3217541Y185997D01*
X3217510Y185894D01*
X3217475Y185791D01*
X3217437Y185690D01*
X3217395Y185590D01*
X3217350Y185491D01*
X3217301Y185395D01*
X3217248Y185300D01*
X3217192Y185207D01*
X3217133Y185116D01*
X3217071Y185028D01*
X3217005Y184942D01*
X3216936Y184858D01*
X3216865Y184777D01*
X3216790Y184698D01*
X3216713Y184622D01*
X3216633Y184549D01*
X3216551Y184479D01*
X3216466Y184412D01*
X3216378Y184348D01*
X3216288Y184287D01*
X3216197Y184229D01*
X3216103Y184175D01*
X3216007Y184125D01*
X3215910Y184077D01*
X3215811Y184034D01*
X3215710Y183993D01*
X3215608Y183957D01*
X3215505Y183924D01*
X3215400Y183895D01*
X3215295Y183870D01*
X3215189Y183849D01*
X3215082Y183831D01*
X3214974Y183818D01*
X3214866Y183808D01*
X3214758Y183802D01*
X3214650Y183800D01*
X3203650Y183800D02*
X3203542Y183802D01*
X3203434Y183808D01*
X3203326Y183818D01*
X3203218Y183831D01*
X3203111Y183849D01*
X3203005Y183870D01*
X3202900Y183895D01*
X3202795Y183924D01*
X3202692Y183957D01*
X3202590Y183993D01*
X3202489Y184034D01*
X3202390Y184077D01*
X3202293Y184125D01*
X3202197Y184175D01*
X3202103Y184229D01*
X3202012Y184287D01*
X3201922Y184348D01*
X3201834Y184412D01*
X3201749Y184479D01*
X3201667Y184549D01*
X3201587Y184622D01*
X3201510Y184698D01*
X3201435Y184777D01*
X3201364Y184858D01*
X3201295Y184942D01*
X3201229Y185028D01*
X3201167Y185116D01*
X3201108Y185207D01*
X3201052Y185300D01*
X3200999Y185395D01*
X3200950Y185491D01*
X3200905Y185590D01*
X3200863Y185690D01*
X3200825Y185791D01*
X3200790Y185894D01*
X3200759Y185997D01*
X3200732Y186102D01*
X3200709Y186208D01*
X3200690Y186315D01*
X3200674Y186422D01*
X3200662Y186530D01*
X3200654Y186638D01*
X3200650Y186746D01*
X3200650Y186854D01*
X3200654Y186962D01*
X3200662Y187070D01*
X3200674Y187178D01*
X3200690Y187285D01*
X3200709Y187392D01*
X3200732Y187498D01*
X3200759Y187603D01*
X3200790Y187706D01*
X3200825Y187809D01*
X3200863Y187910D01*
X3200905Y188010D01*
X3200950Y188109D01*
X3200999Y188205D01*
X3201052Y188300D01*
X3201108Y188393D01*
X3201167Y188484D01*
X3201229Y188572D01*
X3201295Y188658D01*
X3201364Y188742D01*
X3201435Y188823D01*
X3201510Y188902D01*
X3201587Y188978D01*
X3201667Y189051D01*
X3201749Y189121D01*
X3201834Y189188D01*
X3201922Y189252D01*
X3202012Y189313D01*
X3202103Y189371D01*
X3202197Y189425D01*
X3202293Y189475D01*
X3202390Y189523D01*
X3202489Y189566D01*
X3202590Y189607D01*
X3202692Y189643D01*
X3202795Y189676D01*
X3202900Y189705D01*
X3203005Y189730D01*
X3203111Y189751D01*
X3203218Y189769D01*
X3203326Y189782D01*
X3203434Y189792D01*
X3203542Y189798D01*
X3203650Y189800D01*
X3247800Y270200D02*
X3254000Y270200D01*
X3254000Y276200D02*
X3247800Y276200D01*
X3247692Y276198D01*
X3247584Y276192D01*
X3247476Y276182D01*
X3247368Y276169D01*
X3247261Y276151D01*
X3247155Y276130D01*
X3247050Y276105D01*
X3246945Y276076D01*
X3246842Y276043D01*
X3246740Y276007D01*
X3246639Y275966D01*
X3246540Y275923D01*
X3246443Y275875D01*
X3246347Y275825D01*
X3246253Y275771D01*
X3246162Y275713D01*
X3246072Y275652D01*
X3245984Y275588D01*
X3245899Y275521D01*
X3245817Y275451D01*
X3245737Y275378D01*
X3245660Y275302D01*
X3245585Y275223D01*
X3245514Y275142D01*
X3245445Y275058D01*
X3245379Y274972D01*
X3245317Y274884D01*
X3245258Y274793D01*
X3245202Y274700D01*
X3245149Y274605D01*
X3245100Y274509D01*
X3245055Y274410D01*
X3245013Y274310D01*
X3244975Y274209D01*
X3244940Y274106D01*
X3244909Y274003D01*
X3244882Y273898D01*
X3244859Y273792D01*
X3244840Y273685D01*
X3244824Y273578D01*
X3244812Y273470D01*
X3244804Y273362D01*
X3244800Y273254D01*
X3244800Y273146D01*
X3244804Y273038D01*
X3244812Y272930D01*
X3244824Y272822D01*
X3244840Y272715D01*
X3244859Y272608D01*
X3244882Y272502D01*
X3244909Y272397D01*
X3244940Y272294D01*
X3244975Y272191D01*
X3245013Y272090D01*
X3245055Y271990D01*
X3245100Y271891D01*
X3245149Y271795D01*
X3245202Y271700D01*
X3245258Y271607D01*
X3245317Y271516D01*
X3245379Y271428D01*
X3245445Y271342D01*
X3245514Y271258D01*
X3245585Y271177D01*
X3245660Y271098D01*
X3245737Y271022D01*
X3245817Y270949D01*
X3245899Y270879D01*
X3245984Y270812D01*
X3246072Y270748D01*
X3246162Y270687D01*
X3246253Y270629D01*
X3246347Y270575D01*
X3246443Y270525D01*
X3246540Y270477D01*
X3246639Y270434D01*
X3246740Y270393D01*
X3246842Y270357D01*
X3246945Y270324D01*
X3247050Y270295D01*
X3247155Y270270D01*
X3247261Y270249D01*
X3247368Y270231D01*
X3247476Y270218D01*
X3247584Y270208D01*
X3247692Y270202D01*
X3247800Y270200D01*
X3254000Y270200D02*
X3254108Y270202D01*
X3254216Y270208D01*
X3254324Y270218D01*
X3254432Y270231D01*
X3254539Y270249D01*
X3254645Y270270D01*
X3254750Y270295D01*
X3254855Y270324D01*
X3254958Y270357D01*
X3255060Y270393D01*
X3255161Y270434D01*
X3255260Y270477D01*
X3255357Y270525D01*
X3255453Y270575D01*
X3255547Y270629D01*
X3255638Y270687D01*
X3255728Y270748D01*
X3255816Y270812D01*
X3255901Y270879D01*
X3255983Y270949D01*
X3256063Y271022D01*
X3256140Y271098D01*
X3256215Y271177D01*
X3256286Y271258D01*
X3256355Y271342D01*
X3256421Y271428D01*
X3256483Y271516D01*
X3256542Y271607D01*
X3256598Y271700D01*
X3256651Y271795D01*
X3256700Y271891D01*
X3256745Y271990D01*
X3256787Y272090D01*
X3256825Y272191D01*
X3256860Y272294D01*
X3256891Y272397D01*
X3256918Y272502D01*
X3256941Y272608D01*
X3256960Y272715D01*
X3256976Y272822D01*
X3256988Y272930D01*
X3256996Y273038D01*
X3257000Y273146D01*
X3257000Y273254D01*
X3256996Y273362D01*
X3256988Y273470D01*
X3256976Y273578D01*
X3256960Y273685D01*
X3256941Y273792D01*
X3256918Y273898D01*
X3256891Y274003D01*
X3256860Y274106D01*
X3256825Y274209D01*
X3256787Y274310D01*
X3256745Y274410D01*
X3256700Y274509D01*
X3256651Y274605D01*
X3256598Y274700D01*
X3256542Y274793D01*
X3256483Y274884D01*
X3256421Y274972D01*
X3256355Y275058D01*
X3256286Y275142D01*
X3256215Y275223D01*
X3256140Y275302D01*
X3256063Y275378D01*
X3255983Y275451D01*
X3255901Y275521D01*
X3255816Y275588D01*
X3255728Y275652D01*
X3255638Y275713D01*
X3255547Y275771D01*
X3255453Y275825D01*
X3255357Y275875D01*
X3255260Y275923D01*
X3255161Y275966D01*
X3255060Y276007D01*
X3254958Y276043D01*
X3254855Y276076D01*
X3254750Y276105D01*
X3254645Y276130D01*
X3254539Y276151D01*
X3254432Y276169D01*
X3254324Y276182D01*
X3254216Y276192D01*
X3254108Y276198D01*
X3254000Y276200D01*
X3214650Y270200D02*
X3203650Y270200D01*
X3203650Y276200D02*
X3214650Y276200D01*
X3214758Y276198D01*
X3214866Y276192D01*
X3214974Y276182D01*
X3215082Y276169D01*
X3215189Y276151D01*
X3215295Y276130D01*
X3215400Y276105D01*
X3215505Y276076D01*
X3215608Y276043D01*
X3215710Y276007D01*
X3215811Y275966D01*
X3215910Y275923D01*
X3216007Y275875D01*
X3216103Y275825D01*
X3216197Y275771D01*
X3216288Y275713D01*
X3216378Y275652D01*
X3216466Y275588D01*
X3216551Y275521D01*
X3216633Y275451D01*
X3216713Y275378D01*
X3216790Y275302D01*
X3216865Y275223D01*
X3216936Y275142D01*
X3217005Y275058D01*
X3217071Y274972D01*
X3217133Y274884D01*
X3217192Y274793D01*
X3217248Y274700D01*
X3217301Y274605D01*
X3217350Y274509D01*
X3217395Y274410D01*
X3217437Y274310D01*
X3217475Y274209D01*
X3217510Y274106D01*
X3217541Y274003D01*
X3217568Y273898D01*
X3217591Y273792D01*
X3217610Y273685D01*
X3217626Y273578D01*
X3217638Y273470D01*
X3217646Y273362D01*
X3217650Y273254D01*
X3217650Y273146D01*
X3217646Y273038D01*
X3217638Y272930D01*
X3217626Y272822D01*
X3217610Y272715D01*
X3217591Y272608D01*
X3217568Y272502D01*
X3217541Y272397D01*
X3217510Y272294D01*
X3217475Y272191D01*
X3217437Y272090D01*
X3217395Y271990D01*
X3217350Y271891D01*
X3217301Y271795D01*
X3217248Y271700D01*
X3217192Y271607D01*
X3217133Y271516D01*
X3217071Y271428D01*
X3217005Y271342D01*
X3216936Y271258D01*
X3216865Y271177D01*
X3216790Y271098D01*
X3216713Y271022D01*
X3216633Y270949D01*
X3216551Y270879D01*
X3216466Y270812D01*
X3216378Y270748D01*
X3216288Y270687D01*
X3216197Y270629D01*
X3216103Y270575D01*
X3216007Y270525D01*
X3215910Y270477D01*
X3215811Y270434D01*
X3215710Y270393D01*
X3215608Y270357D01*
X3215505Y270324D01*
X3215400Y270295D01*
X3215295Y270270D01*
X3215189Y270249D01*
X3215082Y270231D01*
X3214974Y270218D01*
X3214866Y270208D01*
X3214758Y270202D01*
X3214650Y270200D01*
X3203650Y270200D02*
X3203542Y270202D01*
X3203434Y270208D01*
X3203326Y270218D01*
X3203218Y270231D01*
X3203111Y270249D01*
X3203005Y270270D01*
X3202900Y270295D01*
X3202795Y270324D01*
X3202692Y270357D01*
X3202590Y270393D01*
X3202489Y270434D01*
X3202390Y270477D01*
X3202293Y270525D01*
X3202197Y270575D01*
X3202103Y270629D01*
X3202012Y270687D01*
X3201922Y270748D01*
X3201834Y270812D01*
X3201749Y270879D01*
X3201667Y270949D01*
X3201587Y271022D01*
X3201510Y271098D01*
X3201435Y271177D01*
X3201364Y271258D01*
X3201295Y271342D01*
X3201229Y271428D01*
X3201167Y271516D01*
X3201108Y271607D01*
X3201052Y271700D01*
X3200999Y271795D01*
X3200950Y271891D01*
X3200905Y271990D01*
X3200863Y272090D01*
X3200825Y272191D01*
X3200790Y272294D01*
X3200759Y272397D01*
X3200732Y272502D01*
X3200709Y272608D01*
X3200690Y272715D01*
X3200674Y272822D01*
X3200662Y272930D01*
X3200654Y273038D01*
X3200650Y273146D01*
X3200650Y273254D01*
X3200654Y273362D01*
X3200662Y273470D01*
X3200674Y273578D01*
X3200690Y273685D01*
X3200709Y273792D01*
X3200732Y273898D01*
X3200759Y274003D01*
X3200790Y274106D01*
X3200825Y274209D01*
X3200863Y274310D01*
X3200905Y274410D01*
X3200950Y274509D01*
X3200999Y274605D01*
X3201052Y274700D01*
X3201108Y274793D01*
X3201167Y274884D01*
X3201229Y274972D01*
X3201295Y275058D01*
X3201364Y275142D01*
X3201435Y275223D01*
X3201510Y275302D01*
X3201587Y275378D01*
X3201667Y275451D01*
X3201749Y275521D01*
X3201834Y275588D01*
X3201922Y275652D01*
X3202012Y275713D01*
X3202103Y275771D01*
X3202197Y275825D01*
X3202293Y275875D01*
X3202390Y275923D01*
X3202489Y275966D01*
X3202590Y276007D01*
X3202692Y276043D01*
X3202795Y276076D01*
X3202900Y276105D01*
X3203005Y276130D01*
X3203111Y276151D01*
X3203218Y276169D01*
X3203326Y276182D01*
X3203434Y276192D01*
X3203542Y276198D01*
X3203650Y276200D01*
D11*
X3243000Y410000D02*
X3243002Y410154D01*
X3243008Y410309D01*
X3243018Y410463D01*
X3243032Y410617D01*
X3243050Y410770D01*
X3243071Y410923D01*
X3243097Y411076D01*
X3243127Y411227D01*
X3243160Y411378D01*
X3243198Y411528D01*
X3243239Y411677D01*
X3243284Y411825D01*
X3243333Y411971D01*
X3243386Y412117D01*
X3243442Y412260D01*
X3243502Y412403D01*
X3243566Y412543D01*
X3243633Y412683D01*
X3243704Y412820D01*
X3243778Y412955D01*
X3243856Y413089D01*
X3243937Y413220D01*
X3244022Y413349D01*
X3244110Y413477D01*
X3244201Y413601D01*
X3244295Y413724D01*
X3244393Y413844D01*
X3244493Y413961D01*
X3244597Y414076D01*
X3244703Y414188D01*
X3244812Y414297D01*
X3244924Y414403D01*
X3245039Y414507D01*
X3245156Y414607D01*
X3245276Y414705D01*
X3245399Y414799D01*
X3245523Y414890D01*
X3245651Y414978D01*
X3245780Y415063D01*
X3245911Y415144D01*
X3246045Y415222D01*
X3246180Y415296D01*
X3246317Y415367D01*
X3246457Y415434D01*
X3246597Y415498D01*
X3246740Y415558D01*
X3246883Y415614D01*
X3247029Y415667D01*
X3247175Y415716D01*
X3247323Y415761D01*
X3247472Y415802D01*
X3247622Y415840D01*
X3247773Y415873D01*
X3247924Y415903D01*
X3248077Y415929D01*
X3248230Y415950D01*
X3248383Y415968D01*
X3248537Y415982D01*
X3248691Y415992D01*
X3248846Y415998D01*
X3249000Y416000D01*
X3249154Y415998D01*
X3249309Y415992D01*
X3249463Y415982D01*
X3249617Y415968D01*
X3249770Y415950D01*
X3249923Y415929D01*
X3250076Y415903D01*
X3250227Y415873D01*
X3250378Y415840D01*
X3250528Y415802D01*
X3250677Y415761D01*
X3250825Y415716D01*
X3250971Y415667D01*
X3251117Y415614D01*
X3251260Y415558D01*
X3251403Y415498D01*
X3251543Y415434D01*
X3251683Y415367D01*
X3251820Y415296D01*
X3251955Y415222D01*
X3252089Y415144D01*
X3252220Y415063D01*
X3252349Y414978D01*
X3252477Y414890D01*
X3252601Y414799D01*
X3252724Y414705D01*
X3252844Y414607D01*
X3252961Y414507D01*
X3253076Y414403D01*
X3253188Y414297D01*
X3253297Y414188D01*
X3253403Y414076D01*
X3253507Y413961D01*
X3253607Y413844D01*
X3253705Y413724D01*
X3253799Y413601D01*
X3253890Y413477D01*
X3253978Y413349D01*
X3254063Y413220D01*
X3254144Y413089D01*
X3254222Y412955D01*
X3254296Y412820D01*
X3254367Y412683D01*
X3254434Y412543D01*
X3254498Y412403D01*
X3254558Y412260D01*
X3254614Y412117D01*
X3254667Y411971D01*
X3254716Y411825D01*
X3254761Y411677D01*
X3254802Y411528D01*
X3254840Y411378D01*
X3254873Y411227D01*
X3254903Y411076D01*
X3254929Y410923D01*
X3254950Y410770D01*
X3254968Y410617D01*
X3254982Y410463D01*
X3254992Y410309D01*
X3254998Y410154D01*
X3255000Y410000D01*
X3254998Y409846D01*
X3254992Y409691D01*
X3254982Y409537D01*
X3254968Y409383D01*
X3254950Y409230D01*
X3254929Y409077D01*
X3254903Y408924D01*
X3254873Y408773D01*
X3254840Y408622D01*
X3254802Y408472D01*
X3254761Y408323D01*
X3254716Y408175D01*
X3254667Y408029D01*
X3254614Y407883D01*
X3254558Y407740D01*
X3254498Y407597D01*
X3254434Y407457D01*
X3254367Y407317D01*
X3254296Y407180D01*
X3254222Y407045D01*
X3254144Y406911D01*
X3254063Y406780D01*
X3253978Y406651D01*
X3253890Y406523D01*
X3253799Y406399D01*
X3253705Y406276D01*
X3253607Y406156D01*
X3253507Y406039D01*
X3253403Y405924D01*
X3253297Y405812D01*
X3253188Y405703D01*
X3253076Y405597D01*
X3252961Y405493D01*
X3252844Y405393D01*
X3252724Y405295D01*
X3252601Y405201D01*
X3252477Y405110D01*
X3252349Y405022D01*
X3252220Y404937D01*
X3252089Y404856D01*
X3251955Y404778D01*
X3251820Y404704D01*
X3251683Y404633D01*
X3251543Y404566D01*
X3251403Y404502D01*
X3251260Y404442D01*
X3251117Y404386D01*
X3250971Y404333D01*
X3250825Y404284D01*
X3250677Y404239D01*
X3250528Y404198D01*
X3250378Y404160D01*
X3250227Y404127D01*
X3250076Y404097D01*
X3249923Y404071D01*
X3249770Y404050D01*
X3249617Y404032D01*
X3249463Y404018D01*
X3249309Y404008D01*
X3249154Y404002D01*
X3249000Y404000D01*
X3248846Y404002D01*
X3248691Y404008D01*
X3248537Y404018D01*
X3248383Y404032D01*
X3248230Y404050D01*
X3248077Y404071D01*
X3247924Y404097D01*
X3247773Y404127D01*
X3247622Y404160D01*
X3247472Y404198D01*
X3247323Y404239D01*
X3247175Y404284D01*
X3247029Y404333D01*
X3246883Y404386D01*
X3246740Y404442D01*
X3246597Y404502D01*
X3246457Y404566D01*
X3246317Y404633D01*
X3246180Y404704D01*
X3246045Y404778D01*
X3245911Y404856D01*
X3245780Y404937D01*
X3245651Y405022D01*
X3245523Y405110D01*
X3245399Y405201D01*
X3245276Y405295D01*
X3245156Y405393D01*
X3245039Y405493D01*
X3244924Y405597D01*
X3244812Y405703D01*
X3244703Y405812D01*
X3244597Y405924D01*
X3244493Y406039D01*
X3244393Y406156D01*
X3244295Y406276D01*
X3244201Y406399D01*
X3244110Y406523D01*
X3244022Y406651D01*
X3243937Y406780D01*
X3243856Y406911D01*
X3243778Y407045D01*
X3243704Y407180D01*
X3243633Y407317D01*
X3243566Y407457D01*
X3243502Y407597D01*
X3243442Y407740D01*
X3243386Y407883D01*
X3243333Y408029D01*
X3243284Y408175D01*
X3243239Y408323D01*
X3243198Y408472D01*
X3243160Y408622D01*
X3243127Y408773D01*
X3243097Y408924D01*
X3243071Y409077D01*
X3243050Y409230D01*
X3243032Y409383D01*
X3243018Y409537D01*
X3243008Y409691D01*
X3243002Y409846D01*
X3243000Y410000D01*
X3173000Y410000D02*
X3173002Y410154D01*
X3173008Y410309D01*
X3173018Y410463D01*
X3173032Y410617D01*
X3173050Y410770D01*
X3173071Y410923D01*
X3173097Y411076D01*
X3173127Y411227D01*
X3173160Y411378D01*
X3173198Y411528D01*
X3173239Y411677D01*
X3173284Y411825D01*
X3173333Y411971D01*
X3173386Y412117D01*
X3173442Y412260D01*
X3173502Y412403D01*
X3173566Y412543D01*
X3173633Y412683D01*
X3173704Y412820D01*
X3173778Y412955D01*
X3173856Y413089D01*
X3173937Y413220D01*
X3174022Y413349D01*
X3174110Y413477D01*
X3174201Y413601D01*
X3174295Y413724D01*
X3174393Y413844D01*
X3174493Y413961D01*
X3174597Y414076D01*
X3174703Y414188D01*
X3174812Y414297D01*
X3174924Y414403D01*
X3175039Y414507D01*
X3175156Y414607D01*
X3175276Y414705D01*
X3175399Y414799D01*
X3175523Y414890D01*
X3175651Y414978D01*
X3175780Y415063D01*
X3175911Y415144D01*
X3176045Y415222D01*
X3176180Y415296D01*
X3176317Y415367D01*
X3176457Y415434D01*
X3176597Y415498D01*
X3176740Y415558D01*
X3176883Y415614D01*
X3177029Y415667D01*
X3177175Y415716D01*
X3177323Y415761D01*
X3177472Y415802D01*
X3177622Y415840D01*
X3177773Y415873D01*
X3177924Y415903D01*
X3178077Y415929D01*
X3178230Y415950D01*
X3178383Y415968D01*
X3178537Y415982D01*
X3178691Y415992D01*
X3178846Y415998D01*
X3179000Y416000D01*
X3179154Y415998D01*
X3179309Y415992D01*
X3179463Y415982D01*
X3179617Y415968D01*
X3179770Y415950D01*
X3179923Y415929D01*
X3180076Y415903D01*
X3180227Y415873D01*
X3180378Y415840D01*
X3180528Y415802D01*
X3180677Y415761D01*
X3180825Y415716D01*
X3180971Y415667D01*
X3181117Y415614D01*
X3181260Y415558D01*
X3181403Y415498D01*
X3181543Y415434D01*
X3181683Y415367D01*
X3181820Y415296D01*
X3181955Y415222D01*
X3182089Y415144D01*
X3182220Y415063D01*
X3182349Y414978D01*
X3182477Y414890D01*
X3182601Y414799D01*
X3182724Y414705D01*
X3182844Y414607D01*
X3182961Y414507D01*
X3183076Y414403D01*
X3183188Y414297D01*
X3183297Y414188D01*
X3183403Y414076D01*
X3183507Y413961D01*
X3183607Y413844D01*
X3183705Y413724D01*
X3183799Y413601D01*
X3183890Y413477D01*
X3183978Y413349D01*
X3184063Y413220D01*
X3184144Y413089D01*
X3184222Y412955D01*
X3184296Y412820D01*
X3184367Y412683D01*
X3184434Y412543D01*
X3184498Y412403D01*
X3184558Y412260D01*
X3184614Y412117D01*
X3184667Y411971D01*
X3184716Y411825D01*
X3184761Y411677D01*
X3184802Y411528D01*
X3184840Y411378D01*
X3184873Y411227D01*
X3184903Y411076D01*
X3184929Y410923D01*
X3184950Y410770D01*
X3184968Y410617D01*
X3184982Y410463D01*
X3184992Y410309D01*
X3184998Y410154D01*
X3185000Y410000D01*
X3184998Y409846D01*
X3184992Y409691D01*
X3184982Y409537D01*
X3184968Y409383D01*
X3184950Y409230D01*
X3184929Y409077D01*
X3184903Y408924D01*
X3184873Y408773D01*
X3184840Y408622D01*
X3184802Y408472D01*
X3184761Y408323D01*
X3184716Y408175D01*
X3184667Y408029D01*
X3184614Y407883D01*
X3184558Y407740D01*
X3184498Y407597D01*
X3184434Y407457D01*
X3184367Y407317D01*
X3184296Y407180D01*
X3184222Y407045D01*
X3184144Y406911D01*
X3184063Y406780D01*
X3183978Y406651D01*
X3183890Y406523D01*
X3183799Y406399D01*
X3183705Y406276D01*
X3183607Y406156D01*
X3183507Y406039D01*
X3183403Y405924D01*
X3183297Y405812D01*
X3183188Y405703D01*
X3183076Y405597D01*
X3182961Y405493D01*
X3182844Y405393D01*
X3182724Y405295D01*
X3182601Y405201D01*
X3182477Y405110D01*
X3182349Y405022D01*
X3182220Y404937D01*
X3182089Y404856D01*
X3181955Y404778D01*
X3181820Y404704D01*
X3181683Y404633D01*
X3181543Y404566D01*
X3181403Y404502D01*
X3181260Y404442D01*
X3181117Y404386D01*
X3180971Y404333D01*
X3180825Y404284D01*
X3180677Y404239D01*
X3180528Y404198D01*
X3180378Y404160D01*
X3180227Y404127D01*
X3180076Y404097D01*
X3179923Y404071D01*
X3179770Y404050D01*
X3179617Y404032D01*
X3179463Y404018D01*
X3179309Y404008D01*
X3179154Y404002D01*
X3179000Y404000D01*
X3178846Y404002D01*
X3178691Y404008D01*
X3178537Y404018D01*
X3178383Y404032D01*
X3178230Y404050D01*
X3178077Y404071D01*
X3177924Y404097D01*
X3177773Y404127D01*
X3177622Y404160D01*
X3177472Y404198D01*
X3177323Y404239D01*
X3177175Y404284D01*
X3177029Y404333D01*
X3176883Y404386D01*
X3176740Y404442D01*
X3176597Y404502D01*
X3176457Y404566D01*
X3176317Y404633D01*
X3176180Y404704D01*
X3176045Y404778D01*
X3175911Y404856D01*
X3175780Y404937D01*
X3175651Y405022D01*
X3175523Y405110D01*
X3175399Y405201D01*
X3175276Y405295D01*
X3175156Y405393D01*
X3175039Y405493D01*
X3174924Y405597D01*
X3174812Y405703D01*
X3174703Y405812D01*
X3174597Y405924D01*
X3174493Y406039D01*
X3174393Y406156D01*
X3174295Y406276D01*
X3174201Y406399D01*
X3174110Y406523D01*
X3174022Y406651D01*
X3173937Y406780D01*
X3173856Y406911D01*
X3173778Y407045D01*
X3173704Y407180D01*
X3173633Y407317D01*
X3173566Y407457D01*
X3173502Y407597D01*
X3173442Y407740D01*
X3173386Y407883D01*
X3173333Y408029D01*
X3173284Y408175D01*
X3173239Y408323D01*
X3173198Y408472D01*
X3173160Y408622D01*
X3173127Y408773D01*
X3173097Y408924D01*
X3173071Y409077D01*
X3173050Y409230D01*
X3173032Y409383D01*
X3173018Y409537D01*
X3173008Y409691D01*
X3173002Y409846D01*
X3173000Y410000D01*
X122500Y215200D02*
X122502Y215334D01*
X122508Y215468D01*
X122518Y215601D01*
X122532Y215735D01*
X122550Y215868D01*
X122572Y216000D01*
X122597Y216131D01*
X122627Y216262D01*
X122661Y216392D01*
X122698Y216520D01*
X122739Y216648D01*
X122784Y216774D01*
X122833Y216899D01*
X122885Y217022D01*
X122941Y217144D01*
X123001Y217264D01*
X123064Y217382D01*
X123131Y217498D01*
X123201Y217612D01*
X123275Y217724D01*
X123352Y217834D01*
X123432Y217942D01*
X123515Y218047D01*
X123601Y218149D01*
X123690Y218249D01*
X123783Y218346D01*
X123878Y218441D01*
X123976Y218532D01*
X124076Y218621D01*
X124179Y218706D01*
X124285Y218789D01*
X124393Y218868D01*
X124503Y218944D01*
X124616Y219017D01*
X124731Y219086D01*
X124847Y219152D01*
X124966Y219214D01*
X125086Y219273D01*
X125209Y219328D01*
X125332Y219380D01*
X125457Y219427D01*
X125584Y219471D01*
X125712Y219512D01*
X125841Y219548D01*
X125971Y219581D01*
X126102Y219609D01*
X126233Y219634D01*
X126366Y219655D01*
X126499Y219672D01*
X126632Y219685D01*
X126766Y219694D01*
X126900Y219699D01*
X127034Y219700D01*
X127167Y219697D01*
X127301Y219690D01*
X127435Y219679D01*
X127568Y219664D01*
X127701Y219645D01*
X127833Y219622D01*
X127964Y219596D01*
X128094Y219565D01*
X128224Y219530D01*
X128352Y219492D01*
X128479Y219450D01*
X128605Y219404D01*
X128730Y219354D01*
X128853Y219301D01*
X128974Y219244D01*
X129094Y219183D01*
X129211Y219119D01*
X129327Y219052D01*
X129441Y218981D01*
X129552Y218906D01*
X129661Y218829D01*
X129768Y218748D01*
X129873Y218664D01*
X129974Y218577D01*
X130074Y218487D01*
X130170Y218394D01*
X130264Y218298D01*
X130355Y218199D01*
X130442Y218098D01*
X130527Y217994D01*
X130609Y217888D01*
X130687Y217780D01*
X130762Y217669D01*
X130834Y217556D01*
X130903Y217440D01*
X130968Y217323D01*
X131029Y217204D01*
X131087Y217083D01*
X131141Y216961D01*
X131192Y216837D01*
X131239Y216711D01*
X131282Y216584D01*
X131321Y216456D01*
X131357Y216327D01*
X131388Y216197D01*
X131416Y216066D01*
X131440Y215934D01*
X131460Y215801D01*
X131476Y215668D01*
X131488Y215535D01*
X131496Y215401D01*
X131500Y215267D01*
X131500Y215133D01*
X131496Y214999D01*
X131488Y214865D01*
X131476Y214732D01*
X131460Y214599D01*
X131440Y214466D01*
X131416Y214334D01*
X131388Y214203D01*
X131357Y214073D01*
X131321Y213944D01*
X131282Y213816D01*
X131239Y213689D01*
X131192Y213563D01*
X131141Y213439D01*
X131087Y213317D01*
X131029Y213196D01*
X130968Y213077D01*
X130903Y212960D01*
X130834Y212844D01*
X130762Y212731D01*
X130687Y212620D01*
X130609Y212512D01*
X130527Y212406D01*
X130442Y212302D01*
X130355Y212201D01*
X130264Y212102D01*
X130170Y212006D01*
X130074Y211913D01*
X129974Y211823D01*
X129873Y211736D01*
X129768Y211652D01*
X129661Y211571D01*
X129552Y211494D01*
X129441Y211419D01*
X129327Y211348D01*
X129211Y211281D01*
X129094Y211217D01*
X128974Y211156D01*
X128853Y211099D01*
X128730Y211046D01*
X128605Y210996D01*
X128479Y210950D01*
X128352Y210908D01*
X128224Y210870D01*
X128094Y210835D01*
X127964Y210804D01*
X127833Y210778D01*
X127701Y210755D01*
X127568Y210736D01*
X127435Y210721D01*
X127301Y210710D01*
X127167Y210703D01*
X127034Y210700D01*
X126900Y210701D01*
X126766Y210706D01*
X126632Y210715D01*
X126499Y210728D01*
X126366Y210745D01*
X126233Y210766D01*
X126102Y210791D01*
X125971Y210819D01*
X125841Y210852D01*
X125712Y210888D01*
X125584Y210929D01*
X125457Y210973D01*
X125332Y211020D01*
X125209Y211072D01*
X125086Y211127D01*
X124966Y211186D01*
X124847Y211248D01*
X124731Y211314D01*
X124616Y211383D01*
X124503Y211456D01*
X124393Y211532D01*
X124285Y211611D01*
X124179Y211694D01*
X124076Y211779D01*
X123976Y211868D01*
X123878Y211959D01*
X123783Y212054D01*
X123690Y212151D01*
X123601Y212251D01*
X123515Y212353D01*
X123432Y212458D01*
X123352Y212566D01*
X123275Y212676D01*
X123201Y212788D01*
X123131Y212902D01*
X123064Y213018D01*
X123001Y213136D01*
X122941Y213256D01*
X122885Y213378D01*
X122833Y213501D01*
X122784Y213626D01*
X122739Y213752D01*
X122698Y213880D01*
X122661Y214008D01*
X122627Y214138D01*
X122597Y214269D01*
X122572Y214400D01*
X122550Y214532D01*
X122532Y214665D01*
X122518Y214799D01*
X122508Y214932D01*
X122502Y215066D01*
X122500Y215200D01*
X1744220Y1902500D02*
X1744225Y1902905D01*
X1744240Y1903310D01*
X1744265Y1903715D01*
X1744300Y1904118D01*
X1744344Y1904521D01*
X1744399Y1904923D01*
X1744463Y1905323D01*
X1744537Y1905721D01*
X1744621Y1906117D01*
X1744715Y1906512D01*
X1744818Y1906903D01*
X1744931Y1907293D01*
X1745053Y1907679D01*
X1745185Y1908062D01*
X1745326Y1908442D01*
X1745477Y1908818D01*
X1745636Y1909191D01*
X1745805Y1909559D01*
X1745983Y1909923D01*
X1746169Y1910283D01*
X1746365Y1910638D01*
X1746569Y1910988D01*
X1746781Y1911333D01*
X1747002Y1911672D01*
X1747232Y1912007D01*
X1747469Y1912335D01*
X1747714Y1912657D01*
X1747968Y1912974D01*
X1748228Y1913284D01*
X1748497Y1913587D01*
X1748773Y1913884D01*
X1749056Y1914174D01*
X1749346Y1914457D01*
X1749643Y1914733D01*
X1749946Y1915002D01*
X1750256Y1915262D01*
X1750573Y1915516D01*
X1750895Y1915761D01*
X1751223Y1915998D01*
X1751558Y1916228D01*
X1751897Y1916449D01*
X1752242Y1916661D01*
X1752592Y1916865D01*
X1752947Y1917061D01*
X1753307Y1917247D01*
X1753671Y1917425D01*
X1754039Y1917594D01*
X1754412Y1917753D01*
X1754788Y1917904D01*
X1755168Y1918045D01*
X1755551Y1918177D01*
X1755937Y1918299D01*
X1756327Y1918412D01*
X1756718Y1918515D01*
X1757113Y1918609D01*
X1757509Y1918693D01*
X1757907Y1918767D01*
X1758307Y1918831D01*
X1758709Y1918886D01*
X1759112Y1918930D01*
X1759515Y1918965D01*
X1759920Y1918990D01*
X1760325Y1919005D01*
X1760730Y1919010D01*
X1761135Y1919005D01*
X1761540Y1918990D01*
X1761945Y1918965D01*
X1762348Y1918930D01*
X1762751Y1918886D01*
X1763153Y1918831D01*
X1763553Y1918767D01*
X1763951Y1918693D01*
X1764347Y1918609D01*
X1764742Y1918515D01*
X1765133Y1918412D01*
X1765523Y1918299D01*
X1765909Y1918177D01*
X1766292Y1918045D01*
X1766672Y1917904D01*
X1767048Y1917753D01*
X1767421Y1917594D01*
X1767789Y1917425D01*
X1768153Y1917247D01*
X1768513Y1917061D01*
X1768868Y1916865D01*
X1769218Y1916661D01*
X1769563Y1916449D01*
X1769902Y1916228D01*
X1770237Y1915998D01*
X1770565Y1915761D01*
X1770887Y1915516D01*
X1771204Y1915262D01*
X1771514Y1915002D01*
X1771817Y1914733D01*
X1772114Y1914457D01*
X1772404Y1914174D01*
X1772687Y1913884D01*
X1772963Y1913587D01*
X1773232Y1913284D01*
X1773492Y1912974D01*
X1773746Y1912657D01*
X1773991Y1912335D01*
X1774228Y1912007D01*
X1774458Y1911672D01*
X1774679Y1911333D01*
X1774891Y1910988D01*
X1775095Y1910638D01*
X1775291Y1910283D01*
X1775477Y1909923D01*
X1775655Y1909559D01*
X1775824Y1909191D01*
X1775983Y1908818D01*
X1776134Y1908442D01*
X1776275Y1908062D01*
X1776407Y1907679D01*
X1776529Y1907293D01*
X1776642Y1906903D01*
X1776745Y1906512D01*
X1776839Y1906117D01*
X1776923Y1905721D01*
X1776997Y1905323D01*
X1777061Y1904923D01*
X1777116Y1904521D01*
X1777160Y1904118D01*
X1777195Y1903715D01*
X1777220Y1903310D01*
X1777235Y1902905D01*
X1777240Y1902500D01*
X1777235Y1902095D01*
X1777220Y1901690D01*
X1777195Y1901285D01*
X1777160Y1900882D01*
X1777116Y1900479D01*
X1777061Y1900077D01*
X1776997Y1899677D01*
X1776923Y1899279D01*
X1776839Y1898883D01*
X1776745Y1898488D01*
X1776642Y1898097D01*
X1776529Y1897707D01*
X1776407Y1897321D01*
X1776275Y1896938D01*
X1776134Y1896558D01*
X1775983Y1896182D01*
X1775824Y1895809D01*
X1775655Y1895441D01*
X1775477Y1895077D01*
X1775291Y1894717D01*
X1775095Y1894362D01*
X1774891Y1894012D01*
X1774679Y1893667D01*
X1774458Y1893328D01*
X1774228Y1892993D01*
X1773991Y1892665D01*
X1773746Y1892343D01*
X1773492Y1892026D01*
X1773232Y1891716D01*
X1772963Y1891413D01*
X1772687Y1891116D01*
X1772404Y1890826D01*
X1772114Y1890543D01*
X1771817Y1890267D01*
X1771514Y1889998D01*
X1771204Y1889738D01*
X1770887Y1889484D01*
X1770565Y1889239D01*
X1770237Y1889002D01*
X1769902Y1888772D01*
X1769563Y1888551D01*
X1769218Y1888339D01*
X1768868Y1888135D01*
X1768513Y1887939D01*
X1768153Y1887753D01*
X1767789Y1887575D01*
X1767421Y1887406D01*
X1767048Y1887247D01*
X1766672Y1887096D01*
X1766292Y1886955D01*
X1765909Y1886823D01*
X1765523Y1886701D01*
X1765133Y1886588D01*
X1764742Y1886485D01*
X1764347Y1886391D01*
X1763951Y1886307D01*
X1763553Y1886233D01*
X1763153Y1886169D01*
X1762751Y1886114D01*
X1762348Y1886070D01*
X1761945Y1886035D01*
X1761540Y1886010D01*
X1761135Y1885995D01*
X1760730Y1885990D01*
X1760325Y1885995D01*
X1759920Y1886010D01*
X1759515Y1886035D01*
X1759112Y1886070D01*
X1758709Y1886114D01*
X1758307Y1886169D01*
X1757907Y1886233D01*
X1757509Y1886307D01*
X1757113Y1886391D01*
X1756718Y1886485D01*
X1756327Y1886588D01*
X1755937Y1886701D01*
X1755551Y1886823D01*
X1755168Y1886955D01*
X1754788Y1887096D01*
X1754412Y1887247D01*
X1754039Y1887406D01*
X1753671Y1887575D01*
X1753307Y1887753D01*
X1752947Y1887939D01*
X1752592Y1888135D01*
X1752242Y1888339D01*
X1751897Y1888551D01*
X1751558Y1888772D01*
X1751223Y1889002D01*
X1750895Y1889239D01*
X1750573Y1889484D01*
X1750256Y1889738D01*
X1749946Y1889998D01*
X1749643Y1890267D01*
X1749346Y1890543D01*
X1749056Y1890826D01*
X1748773Y1891116D01*
X1748497Y1891413D01*
X1748228Y1891716D01*
X1747968Y1892026D01*
X1747714Y1892343D01*
X1747469Y1892665D01*
X1747232Y1892993D01*
X1747002Y1893328D01*
X1746781Y1893667D01*
X1746569Y1894012D01*
X1746365Y1894362D01*
X1746169Y1894717D01*
X1745983Y1895077D01*
X1745805Y1895441D01*
X1745636Y1895809D01*
X1745477Y1896182D01*
X1745326Y1896558D01*
X1745185Y1896938D01*
X1745053Y1897321D01*
X1744931Y1897707D01*
X1744818Y1898097D01*
X1744715Y1898488D01*
X1744621Y1898883D01*
X1744537Y1899279D01*
X1744463Y1899677D01*
X1744399Y1900077D01*
X1744344Y1900479D01*
X1744300Y1900882D01*
X1744265Y1901285D01*
X1744240Y1901690D01*
X1744225Y1902095D01*
X1744220Y1902500D01*
X1387760Y75000D02*
X1387765Y75405D01*
X1387780Y75810D01*
X1387805Y76215D01*
X1387840Y76618D01*
X1387884Y77021D01*
X1387939Y77423D01*
X1388003Y77823D01*
X1388077Y78221D01*
X1388161Y78617D01*
X1388255Y79012D01*
X1388358Y79403D01*
X1388471Y79793D01*
X1388593Y80179D01*
X1388725Y80562D01*
X1388866Y80942D01*
X1389017Y81318D01*
X1389176Y81691D01*
X1389345Y82059D01*
X1389523Y82423D01*
X1389709Y82783D01*
X1389905Y83138D01*
X1390109Y83488D01*
X1390321Y83833D01*
X1390542Y84172D01*
X1390772Y84507D01*
X1391009Y84835D01*
X1391254Y85157D01*
X1391508Y85474D01*
X1391768Y85784D01*
X1392037Y86087D01*
X1392313Y86384D01*
X1392596Y86674D01*
X1392886Y86957D01*
X1393183Y87233D01*
X1393486Y87502D01*
X1393796Y87762D01*
X1394113Y88016D01*
X1394435Y88261D01*
X1394763Y88498D01*
X1395098Y88728D01*
X1395437Y88949D01*
X1395782Y89161D01*
X1396132Y89365D01*
X1396487Y89561D01*
X1396847Y89747D01*
X1397211Y89925D01*
X1397579Y90094D01*
X1397952Y90253D01*
X1398328Y90404D01*
X1398708Y90545D01*
X1399091Y90677D01*
X1399477Y90799D01*
X1399867Y90912D01*
X1400258Y91015D01*
X1400653Y91109D01*
X1401049Y91193D01*
X1401447Y91267D01*
X1401847Y91331D01*
X1402249Y91386D01*
X1402652Y91430D01*
X1403055Y91465D01*
X1403460Y91490D01*
X1403865Y91505D01*
X1404270Y91510D01*
X1404675Y91505D01*
X1405080Y91490D01*
X1405485Y91465D01*
X1405888Y91430D01*
X1406291Y91386D01*
X1406693Y91331D01*
X1407093Y91267D01*
X1407491Y91193D01*
X1407887Y91109D01*
X1408282Y91015D01*
X1408673Y90912D01*
X1409063Y90799D01*
X1409449Y90677D01*
X1409832Y90545D01*
X1410212Y90404D01*
X1410588Y90253D01*
X1410961Y90094D01*
X1411329Y89925D01*
X1411693Y89747D01*
X1412053Y89561D01*
X1412408Y89365D01*
X1412758Y89161D01*
X1413103Y88949D01*
X1413442Y88728D01*
X1413777Y88498D01*
X1414105Y88261D01*
X1414427Y88016D01*
X1414744Y87762D01*
X1415054Y87502D01*
X1415357Y87233D01*
X1415654Y86957D01*
X1415944Y86674D01*
X1416227Y86384D01*
X1416503Y86087D01*
X1416772Y85784D01*
X1417032Y85474D01*
X1417286Y85157D01*
X1417531Y84835D01*
X1417768Y84507D01*
X1417998Y84172D01*
X1418219Y83833D01*
X1418431Y83488D01*
X1418635Y83138D01*
X1418831Y82783D01*
X1419017Y82423D01*
X1419195Y82059D01*
X1419364Y81691D01*
X1419523Y81318D01*
X1419674Y80942D01*
X1419815Y80562D01*
X1419947Y80179D01*
X1420069Y79793D01*
X1420182Y79403D01*
X1420285Y79012D01*
X1420379Y78617D01*
X1420463Y78221D01*
X1420537Y77823D01*
X1420601Y77423D01*
X1420656Y77021D01*
X1420700Y76618D01*
X1420735Y76215D01*
X1420760Y75810D01*
X1420775Y75405D01*
X1420780Y75000D01*
X1420775Y74595D01*
X1420760Y74190D01*
X1420735Y73785D01*
X1420700Y73382D01*
X1420656Y72979D01*
X1420601Y72577D01*
X1420537Y72177D01*
X1420463Y71779D01*
X1420379Y71383D01*
X1420285Y70988D01*
X1420182Y70597D01*
X1420069Y70207D01*
X1419947Y69821D01*
X1419815Y69438D01*
X1419674Y69058D01*
X1419523Y68682D01*
X1419364Y68309D01*
X1419195Y67941D01*
X1419017Y67577D01*
X1418831Y67217D01*
X1418635Y66862D01*
X1418431Y66512D01*
X1418219Y66167D01*
X1417998Y65828D01*
X1417768Y65493D01*
X1417531Y65165D01*
X1417286Y64843D01*
X1417032Y64526D01*
X1416772Y64216D01*
X1416503Y63913D01*
X1416227Y63616D01*
X1415944Y63326D01*
X1415654Y63043D01*
X1415357Y62767D01*
X1415054Y62498D01*
X1414744Y62238D01*
X1414427Y61984D01*
X1414105Y61739D01*
X1413777Y61502D01*
X1413442Y61272D01*
X1413103Y61051D01*
X1412758Y60839D01*
X1412408Y60635D01*
X1412053Y60439D01*
X1411693Y60253D01*
X1411329Y60075D01*
X1410961Y59906D01*
X1410588Y59747D01*
X1410212Y59596D01*
X1409832Y59455D01*
X1409449Y59323D01*
X1409063Y59201D01*
X1408673Y59088D01*
X1408282Y58985D01*
X1407887Y58891D01*
X1407491Y58807D01*
X1407093Y58733D01*
X1406693Y58669D01*
X1406291Y58614D01*
X1405888Y58570D01*
X1405485Y58535D01*
X1405080Y58510D01*
X1404675Y58495D01*
X1404270Y58490D01*
X1403865Y58495D01*
X1403460Y58510D01*
X1403055Y58535D01*
X1402652Y58570D01*
X1402249Y58614D01*
X1401847Y58669D01*
X1401447Y58733D01*
X1401049Y58807D01*
X1400653Y58891D01*
X1400258Y58985D01*
X1399867Y59088D01*
X1399477Y59201D01*
X1399091Y59323D01*
X1398708Y59455D01*
X1398328Y59596D01*
X1397952Y59747D01*
X1397579Y59906D01*
X1397211Y60075D01*
X1396847Y60253D01*
X1396487Y60439D01*
X1396132Y60635D01*
X1395782Y60839D01*
X1395437Y61051D01*
X1395098Y61272D01*
X1394763Y61502D01*
X1394435Y61739D01*
X1394113Y61984D01*
X1393796Y62238D01*
X1393486Y62498D01*
X1393183Y62767D01*
X1392886Y63043D01*
X1392596Y63326D01*
X1392313Y63616D01*
X1392037Y63913D01*
X1391768Y64216D01*
X1391508Y64526D01*
X1391254Y64843D01*
X1391009Y65165D01*
X1390772Y65493D01*
X1390542Y65828D01*
X1390321Y66167D01*
X1390109Y66512D01*
X1389905Y66862D01*
X1389709Y67217D01*
X1389523Y67577D01*
X1389345Y67941D01*
X1389176Y68309D01*
X1389017Y68682D01*
X1388866Y69058D01*
X1388725Y69438D01*
X1388593Y69821D01*
X1388471Y70207D01*
X1388358Y70597D01*
X1388255Y70988D01*
X1388161Y71383D01*
X1388077Y71779D01*
X1388003Y72177D01*
X1387939Y72577D01*
X1387884Y72979D01*
X1387840Y73382D01*
X1387805Y73785D01*
X1387780Y74190D01*
X1387765Y74595D01*
X1387760Y75000D01*
X3073490Y1902500D02*
X3073495Y1902905D01*
X3073510Y1903310D01*
X3073535Y1903715D01*
X3073570Y1904118D01*
X3073614Y1904521D01*
X3073669Y1904923D01*
X3073733Y1905323D01*
X3073807Y1905721D01*
X3073891Y1906117D01*
X3073985Y1906512D01*
X3074088Y1906903D01*
X3074201Y1907293D01*
X3074323Y1907679D01*
X3074455Y1908062D01*
X3074596Y1908442D01*
X3074747Y1908818D01*
X3074906Y1909191D01*
X3075075Y1909559D01*
X3075253Y1909923D01*
X3075439Y1910283D01*
X3075635Y1910638D01*
X3075839Y1910988D01*
X3076051Y1911333D01*
X3076272Y1911672D01*
X3076502Y1912007D01*
X3076739Y1912335D01*
X3076984Y1912657D01*
X3077238Y1912974D01*
X3077498Y1913284D01*
X3077767Y1913587D01*
X3078043Y1913884D01*
X3078326Y1914174D01*
X3078616Y1914457D01*
X3078913Y1914733D01*
X3079216Y1915002D01*
X3079526Y1915262D01*
X3079843Y1915516D01*
X3080165Y1915761D01*
X3080493Y1915998D01*
X3080828Y1916228D01*
X3081167Y1916449D01*
X3081512Y1916661D01*
X3081862Y1916865D01*
X3082217Y1917061D01*
X3082577Y1917247D01*
X3082941Y1917425D01*
X3083309Y1917594D01*
X3083682Y1917753D01*
X3084058Y1917904D01*
X3084438Y1918045D01*
X3084821Y1918177D01*
X3085207Y1918299D01*
X3085597Y1918412D01*
X3085988Y1918515D01*
X3086383Y1918609D01*
X3086779Y1918693D01*
X3087177Y1918767D01*
X3087577Y1918831D01*
X3087979Y1918886D01*
X3088382Y1918930D01*
X3088785Y1918965D01*
X3089190Y1918990D01*
X3089595Y1919005D01*
X3090000Y1919010D01*
X3090405Y1919005D01*
X3090810Y1918990D01*
X3091215Y1918965D01*
X3091618Y1918930D01*
X3092021Y1918886D01*
X3092423Y1918831D01*
X3092823Y1918767D01*
X3093221Y1918693D01*
X3093617Y1918609D01*
X3094012Y1918515D01*
X3094403Y1918412D01*
X3094793Y1918299D01*
X3095179Y1918177D01*
X3095562Y1918045D01*
X3095942Y1917904D01*
X3096318Y1917753D01*
X3096691Y1917594D01*
X3097059Y1917425D01*
X3097423Y1917247D01*
X3097783Y1917061D01*
X3098138Y1916865D01*
X3098488Y1916661D01*
X3098833Y1916449D01*
X3099172Y1916228D01*
X3099507Y1915998D01*
X3099835Y1915761D01*
X3100157Y1915516D01*
X3100474Y1915262D01*
X3100784Y1915002D01*
X3101087Y1914733D01*
X3101384Y1914457D01*
X3101674Y1914174D01*
X3101957Y1913884D01*
X3102233Y1913587D01*
X3102502Y1913284D01*
X3102762Y1912974D01*
X3103016Y1912657D01*
X3103261Y1912335D01*
X3103498Y1912007D01*
X3103728Y1911672D01*
X3103949Y1911333D01*
X3104161Y1910988D01*
X3104365Y1910638D01*
X3104561Y1910283D01*
X3104747Y1909923D01*
X3104925Y1909559D01*
X3105094Y1909191D01*
X3105253Y1908818D01*
X3105404Y1908442D01*
X3105545Y1908062D01*
X3105677Y1907679D01*
X3105799Y1907293D01*
X3105912Y1906903D01*
X3106015Y1906512D01*
X3106109Y1906117D01*
X3106193Y1905721D01*
X3106267Y1905323D01*
X3106331Y1904923D01*
X3106386Y1904521D01*
X3106430Y1904118D01*
X3106465Y1903715D01*
X3106490Y1903310D01*
X3106505Y1902905D01*
X3106510Y1902500D01*
X3106505Y1902095D01*
X3106490Y1901690D01*
X3106465Y1901285D01*
X3106430Y1900882D01*
X3106386Y1900479D01*
X3106331Y1900077D01*
X3106267Y1899677D01*
X3106193Y1899279D01*
X3106109Y1898883D01*
X3106015Y1898488D01*
X3105912Y1898097D01*
X3105799Y1897707D01*
X3105677Y1897321D01*
X3105545Y1896938D01*
X3105404Y1896558D01*
X3105253Y1896182D01*
X3105094Y1895809D01*
X3104925Y1895441D01*
X3104747Y1895077D01*
X3104561Y1894717D01*
X3104365Y1894362D01*
X3104161Y1894012D01*
X3103949Y1893667D01*
X3103728Y1893328D01*
X3103498Y1892993D01*
X3103261Y1892665D01*
X3103016Y1892343D01*
X3102762Y1892026D01*
X3102502Y1891716D01*
X3102233Y1891413D01*
X3101957Y1891116D01*
X3101674Y1890826D01*
X3101384Y1890543D01*
X3101087Y1890267D01*
X3100784Y1889998D01*
X3100474Y1889738D01*
X3100157Y1889484D01*
X3099835Y1889239D01*
X3099507Y1889002D01*
X3099172Y1888772D01*
X3098833Y1888551D01*
X3098488Y1888339D01*
X3098138Y1888135D01*
X3097783Y1887939D01*
X3097423Y1887753D01*
X3097059Y1887575D01*
X3096691Y1887406D01*
X3096318Y1887247D01*
X3095942Y1887096D01*
X3095562Y1886955D01*
X3095179Y1886823D01*
X3094793Y1886701D01*
X3094403Y1886588D01*
X3094012Y1886485D01*
X3093617Y1886391D01*
X3093221Y1886307D01*
X3092823Y1886233D01*
X3092423Y1886169D01*
X3092021Y1886114D01*
X3091618Y1886070D01*
X3091215Y1886035D01*
X3090810Y1886010D01*
X3090405Y1885995D01*
X3090000Y1885990D01*
X3089595Y1885995D01*
X3089190Y1886010D01*
X3088785Y1886035D01*
X3088382Y1886070D01*
X3087979Y1886114D01*
X3087577Y1886169D01*
X3087177Y1886233D01*
X3086779Y1886307D01*
X3086383Y1886391D01*
X3085988Y1886485D01*
X3085597Y1886588D01*
X3085207Y1886701D01*
X3084821Y1886823D01*
X3084438Y1886955D01*
X3084058Y1887096D01*
X3083682Y1887247D01*
X3083309Y1887406D01*
X3082941Y1887575D01*
X3082577Y1887753D01*
X3082217Y1887939D01*
X3081862Y1888135D01*
X3081512Y1888339D01*
X3081167Y1888551D01*
X3080828Y1888772D01*
X3080493Y1889002D01*
X3080165Y1889239D01*
X3079843Y1889484D01*
X3079526Y1889738D01*
X3079216Y1889998D01*
X3078913Y1890267D01*
X3078616Y1890543D01*
X3078326Y1890826D01*
X3078043Y1891116D01*
X3077767Y1891413D01*
X3077498Y1891716D01*
X3077238Y1892026D01*
X3076984Y1892343D01*
X3076739Y1892665D01*
X3076502Y1892993D01*
X3076272Y1893328D01*
X3076051Y1893667D01*
X3075839Y1894012D01*
X3075635Y1894362D01*
X3075439Y1894717D01*
X3075253Y1895077D01*
X3075075Y1895441D01*
X3074906Y1895809D01*
X3074747Y1896182D01*
X3074596Y1896558D01*
X3074455Y1896938D01*
X3074323Y1897321D01*
X3074201Y1897707D01*
X3074088Y1898097D01*
X3073985Y1898488D01*
X3073891Y1898883D01*
X3073807Y1899279D01*
X3073733Y1899677D01*
X3073669Y1900077D01*
X3073614Y1900479D01*
X3073570Y1900882D01*
X3073535Y1901285D01*
X3073510Y1901690D01*
X3073495Y1902095D01*
X3073490Y1902500D01*
X58490Y1902500D02*
X58495Y1902905D01*
X58510Y1903310D01*
X58535Y1903715D01*
X58570Y1904118D01*
X58614Y1904521D01*
X58669Y1904923D01*
X58733Y1905323D01*
X58807Y1905721D01*
X58891Y1906117D01*
X58985Y1906512D01*
X59088Y1906903D01*
X59201Y1907293D01*
X59323Y1907679D01*
X59455Y1908062D01*
X59596Y1908442D01*
X59747Y1908818D01*
X59906Y1909191D01*
X60075Y1909559D01*
X60253Y1909923D01*
X60439Y1910283D01*
X60635Y1910638D01*
X60839Y1910988D01*
X61051Y1911333D01*
X61272Y1911672D01*
X61502Y1912007D01*
X61739Y1912335D01*
X61984Y1912657D01*
X62238Y1912974D01*
X62498Y1913284D01*
X62767Y1913587D01*
X63043Y1913884D01*
X63326Y1914174D01*
X63616Y1914457D01*
X63913Y1914733D01*
X64216Y1915002D01*
X64526Y1915262D01*
X64843Y1915516D01*
X65165Y1915761D01*
X65493Y1915998D01*
X65828Y1916228D01*
X66167Y1916449D01*
X66512Y1916661D01*
X66862Y1916865D01*
X67217Y1917061D01*
X67577Y1917247D01*
X67941Y1917425D01*
X68309Y1917594D01*
X68682Y1917753D01*
X69058Y1917904D01*
X69438Y1918045D01*
X69821Y1918177D01*
X70207Y1918299D01*
X70597Y1918412D01*
X70988Y1918515D01*
X71383Y1918609D01*
X71779Y1918693D01*
X72177Y1918767D01*
X72577Y1918831D01*
X72979Y1918886D01*
X73382Y1918930D01*
X73785Y1918965D01*
X74190Y1918990D01*
X74595Y1919005D01*
X75000Y1919010D01*
X75405Y1919005D01*
X75810Y1918990D01*
X76215Y1918965D01*
X76618Y1918930D01*
X77021Y1918886D01*
X77423Y1918831D01*
X77823Y1918767D01*
X78221Y1918693D01*
X78617Y1918609D01*
X79012Y1918515D01*
X79403Y1918412D01*
X79793Y1918299D01*
X80179Y1918177D01*
X80562Y1918045D01*
X80942Y1917904D01*
X81318Y1917753D01*
X81691Y1917594D01*
X82059Y1917425D01*
X82423Y1917247D01*
X82783Y1917061D01*
X83138Y1916865D01*
X83488Y1916661D01*
X83833Y1916449D01*
X84172Y1916228D01*
X84507Y1915998D01*
X84835Y1915761D01*
X85157Y1915516D01*
X85474Y1915262D01*
X85784Y1915002D01*
X86087Y1914733D01*
X86384Y1914457D01*
X86674Y1914174D01*
X86957Y1913884D01*
X87233Y1913587D01*
X87502Y1913284D01*
X87762Y1912974D01*
X88016Y1912657D01*
X88261Y1912335D01*
X88498Y1912007D01*
X88728Y1911672D01*
X88949Y1911333D01*
X89161Y1910988D01*
X89365Y1910638D01*
X89561Y1910283D01*
X89747Y1909923D01*
X89925Y1909559D01*
X90094Y1909191D01*
X90253Y1908818D01*
X90404Y1908442D01*
X90545Y1908062D01*
X90677Y1907679D01*
X90799Y1907293D01*
X90912Y1906903D01*
X91015Y1906512D01*
X91109Y1906117D01*
X91193Y1905721D01*
X91267Y1905323D01*
X91331Y1904923D01*
X91386Y1904521D01*
X91430Y1904118D01*
X91465Y1903715D01*
X91490Y1903310D01*
X91505Y1902905D01*
X91510Y1902500D01*
X91505Y1902095D01*
X91490Y1901690D01*
X91465Y1901285D01*
X91430Y1900882D01*
X91386Y1900479D01*
X91331Y1900077D01*
X91267Y1899677D01*
X91193Y1899279D01*
X91109Y1898883D01*
X91015Y1898488D01*
X90912Y1898097D01*
X90799Y1897707D01*
X90677Y1897321D01*
X90545Y1896938D01*
X90404Y1896558D01*
X90253Y1896182D01*
X90094Y1895809D01*
X89925Y1895441D01*
X89747Y1895077D01*
X89561Y1894717D01*
X89365Y1894362D01*
X89161Y1894012D01*
X88949Y1893667D01*
X88728Y1893328D01*
X88498Y1892993D01*
X88261Y1892665D01*
X88016Y1892343D01*
X87762Y1892026D01*
X87502Y1891716D01*
X87233Y1891413D01*
X86957Y1891116D01*
X86674Y1890826D01*
X86384Y1890543D01*
X86087Y1890267D01*
X85784Y1889998D01*
X85474Y1889738D01*
X85157Y1889484D01*
X84835Y1889239D01*
X84507Y1889002D01*
X84172Y1888772D01*
X83833Y1888551D01*
X83488Y1888339D01*
X83138Y1888135D01*
X82783Y1887939D01*
X82423Y1887753D01*
X82059Y1887575D01*
X81691Y1887406D01*
X81318Y1887247D01*
X80942Y1887096D01*
X80562Y1886955D01*
X80179Y1886823D01*
X79793Y1886701D01*
X79403Y1886588D01*
X79012Y1886485D01*
X78617Y1886391D01*
X78221Y1886307D01*
X77823Y1886233D01*
X77423Y1886169D01*
X77021Y1886114D01*
X76618Y1886070D01*
X76215Y1886035D01*
X75810Y1886010D01*
X75405Y1885995D01*
X75000Y1885990D01*
X74595Y1885995D01*
X74190Y1886010D01*
X73785Y1886035D01*
X73382Y1886070D01*
X72979Y1886114D01*
X72577Y1886169D01*
X72177Y1886233D01*
X71779Y1886307D01*
X71383Y1886391D01*
X70988Y1886485D01*
X70597Y1886588D01*
X70207Y1886701D01*
X69821Y1886823D01*
X69438Y1886955D01*
X69058Y1887096D01*
X68682Y1887247D01*
X68309Y1887406D01*
X67941Y1887575D01*
X67577Y1887753D01*
X67217Y1887939D01*
X66862Y1888135D01*
X66512Y1888339D01*
X66167Y1888551D01*
X65828Y1888772D01*
X65493Y1889002D01*
X65165Y1889239D01*
X64843Y1889484D01*
X64526Y1889738D01*
X64216Y1889998D01*
X63913Y1890267D01*
X63616Y1890543D01*
X63326Y1890826D01*
X63043Y1891116D01*
X62767Y1891413D01*
X62498Y1891716D01*
X62238Y1892026D01*
X61984Y1892343D01*
X61739Y1892665D01*
X61502Y1892993D01*
X61272Y1893328D01*
X61051Y1893667D01*
X60839Y1894012D01*
X60635Y1894362D01*
X60439Y1894717D01*
X60253Y1895077D01*
X60075Y1895441D01*
X59906Y1895809D01*
X59747Y1896182D01*
X59596Y1896558D01*
X59455Y1896938D01*
X59323Y1897321D01*
X59201Y1897707D01*
X59088Y1898097D01*
X58985Y1898488D01*
X58891Y1898883D01*
X58807Y1899279D01*
X58733Y1899677D01*
X58669Y1900077D01*
X58614Y1900479D01*
X58570Y1900882D01*
X58535Y1901285D01*
X58510Y1901690D01*
X58495Y1902095D01*
X58490Y1902500D01*
D13*
X0Y0D02*
X535630Y0D01*
X535630Y233200D01*
X595320Y233200D01*
X595320Y0D01*
X3165000Y0D01*
X3165000Y170000D01*
X3265000Y170000D01*
X3265000Y470000D01*
X3165000Y470000D01*
X3165000Y1977500D01*
X0Y1977500D01*
X0Y0D01*
X3203650Y270200D02*
X3214650Y270200D01*
X3214911Y270211D01*
X3215171Y270246D01*
X3215426Y270302D01*
X3215676Y270381D01*
X3215918Y270481D01*
X3216150Y270602D01*
X3216371Y270743D01*
X3216578Y270902D01*
X3216771Y271079D01*
X3216948Y271272D01*
X3217107Y271479D01*
X3217248Y271700D01*
X3217369Y271932D01*
X3217469Y272174D01*
X3217548Y272424D01*
X3217604Y272679D01*
X3217639Y272939D01*
X3217650Y273200D01*
X3217639Y273461D01*
X3217604Y273721D01*
X3217548Y273976D01*
X3217469Y274226D01*
X3217369Y274468D01*
X3217248Y274700D01*
X3217107Y274921D01*
X3216948Y275128D01*
X3216771Y275321D01*
X3216578Y275498D01*
X3216371Y275657D01*
X3216150Y275798D01*
X3215918Y275919D01*
X3215676Y276019D01*
X3215426Y276098D01*
X3215171Y276154D01*
X3214911Y276189D01*
X3214650Y276200D01*
X3203650Y276200D01*
X3203389Y276189D01*
X3203129Y276154D01*
X3202874Y276098D01*
X3202624Y276019D01*
X3202382Y275919D01*
X3202150Y275798D01*
X3201929Y275657D01*
X3201722Y275498D01*
X3201529Y275321D01*
X3201352Y275128D01*
X3201193Y274921D01*
X3201052Y274700D01*
X3200931Y274468D01*
X3200831Y274226D01*
X3200752Y273976D01*
X3200696Y273721D01*
X3200661Y273461D01*
X3200650Y273200D01*
X3200661Y272939D01*
X3200696Y272679D01*
X3200752Y272424D01*
X3200831Y272174D01*
X3200931Y271932D01*
X3201052Y271700D01*
X3201193Y271479D01*
X3201352Y271272D01*
X3201529Y271079D01*
X3201722Y270902D01*
X3201929Y270743D01*
X3202150Y270602D01*
X3202382Y270481D01*
X3202624Y270381D01*
X3202874Y270302D01*
X3203129Y270246D01*
X3203389Y270211D01*
X3203650Y270200D01*
X3247800Y270200D02*
X3254000Y270200D01*
X3254261Y270211D01*
X3254521Y270246D01*
X3254776Y270302D01*
X3255026Y270381D01*
X3255268Y270481D01*
X3255500Y270602D01*
X3255721Y270743D01*
X3255928Y270902D01*
X3256121Y271079D01*
X3256298Y271272D01*
X3256457Y271479D01*
X3256598Y271700D01*
X3256719Y271932D01*
X3256819Y272174D01*
X3256898Y272424D01*
X3256954Y272679D01*
X3256989Y272939D01*
X3257000Y273200D01*
X3256989Y273461D01*
X3256954Y273721D01*
X3256898Y273976D01*
X3256819Y274226D01*
X3256719Y274468D01*
X3256598Y274700D01*
X3256457Y274921D01*
X3256298Y275128D01*
X3256121Y275321D01*
X3255928Y275498D01*
X3255721Y275657D01*
X3255500Y275798D01*
X3255268Y275919D01*
X3255026Y276019D01*
X3254776Y276098D01*
X3254521Y276154D01*
X3254261Y276189D01*
X3254000Y276200D01*
X3247800Y276200D01*
X3247539Y276189D01*
X3247279Y276154D01*
X3247024Y276098D01*
X3246774Y276019D01*
X3246532Y275919D01*
X3246300Y275798D01*
X3246079Y275657D01*
X3245872Y275498D01*
X3245679Y275321D01*
X3245502Y275128D01*
X3245343Y274921D01*
X3245202Y274700D01*
X3245081Y274468D01*
X3244981Y274226D01*
X3244902Y273976D01*
X3244846Y273721D01*
X3244811Y273461D01*
X3244800Y273200D01*
X3244811Y272939D01*
X3244846Y272679D01*
X3244902Y272424D01*
X3244981Y272174D01*
X3245081Y271932D01*
X3245202Y271700D01*
X3245343Y271479D01*
X3245502Y271272D01*
X3245679Y271079D01*
X3245872Y270902D01*
X3246079Y270743D01*
X3246300Y270602D01*
X3246532Y270481D01*
X3246774Y270381D01*
X3247024Y270302D01*
X3247279Y270246D01*
X3247539Y270211D01*
X3247800Y270200D01*
X3247800Y183800D02*
X3254000Y183800D01*
X3254261Y183811D01*
X3254521Y183846D01*
X3254776Y183902D01*
X3255026Y183981D01*
X3255268Y184081D01*
X3255500Y184202D01*
X3255721Y184343D01*
X3255928Y184502D01*
X3256121Y184679D01*
X3256298Y184872D01*
X3256457Y185079D01*
X3256598Y185300D01*
X3256719Y185532D01*
X3256819Y185774D01*
X3256898Y186024D01*
X3256954Y186279D01*
X3256989Y186539D01*
X3257000Y186800D01*
X3256989Y187061D01*
X3256954Y187321D01*
X3256898Y187576D01*
X3256819Y187826D01*
X3256719Y188068D01*
X3256598Y188300D01*
X3256457Y188521D01*
X3256298Y188728D01*
X3256121Y188921D01*
X3255928Y189098D01*
X3255721Y189257D01*
X3255500Y189398D01*
X3255268Y189519D01*
X3255026Y189619D01*
X3254776Y189698D01*
X3254521Y189754D01*
X3254261Y189789D01*
X3254000Y189800D01*
X3247800Y189800D01*
X3247539Y189789D01*
X3247279Y189754D01*
X3247024Y189698D01*
X3246774Y189619D01*
X3246532Y189519D01*
X3246300Y189398D01*
X3246079Y189257D01*
X3245872Y189098D01*
X3245679Y188921D01*
X3245502Y188728D01*
X3245343Y188521D01*
X3245202Y188300D01*
X3245081Y188068D01*
X3244981Y187826D01*
X3244902Y187576D01*
X3244846Y187321D01*
X3244811Y187061D01*
X3244800Y186800D01*
X3244811Y186539D01*
X3244846Y186279D01*
X3244902Y186024D01*
X3244981Y185774D01*
X3245081Y185532D01*
X3245202Y185300D01*
X3245343Y185079D01*
X3245502Y184872D01*
X3245679Y184679D01*
X3245872Y184502D01*
X3246079Y184343D01*
X3246300Y184202D01*
X3246532Y184081D01*
X3246774Y183981D01*
X3247024Y183902D01*
X3247279Y183846D01*
X3247539Y183811D01*
X3247800Y183800D01*
X3203650Y183800D02*
X3214650Y183800D01*
X3214911Y183811D01*
X3215171Y183846D01*
X3215426Y183902D01*
X3215676Y183981D01*
X3215918Y184081D01*
X3216150Y184202D01*
X3216371Y184343D01*
X3216578Y184502D01*
X3216771Y184679D01*
X3216948Y184872D01*
X3217107Y185079D01*
X3217248Y185300D01*
X3217369Y185532D01*
X3217469Y185774D01*
X3217548Y186024D01*
X3217604Y186279D01*
X3217639Y186539D01*
X3217650Y186800D01*
X3217639Y187061D01*
X3217604Y187321D01*
X3217548Y187576D01*
X3217469Y187826D01*
X3217369Y188068D01*
X3217248Y188300D01*
X3217107Y188521D01*
X3216948Y188728D01*
X3216771Y188921D01*
X3216578Y189098D01*
X3216371Y189257D01*
X3216150Y189398D01*
X3215918Y189519D01*
X3215676Y189619D01*
X3215426Y189698D01*
X3215171Y189754D01*
X3214911Y189789D01*
X3214650Y189800D01*
X3203650Y189800D01*
X3203389Y189789D01*
X3203129Y189754D01*
X3202874Y189698D01*
X3202624Y189619D01*
X3202382Y189519D01*
X3202150Y189398D01*
X3201929Y189257D01*
X3201722Y189098D01*
X3201529Y188921D01*
X3201352Y188728D01*
X3201193Y188521D01*
X3201052Y188300D01*
X3200931Y188068D01*
X3200831Y187826D01*
X3200752Y187576D01*
X3200696Y187321D01*
X3200661Y187061D01*
X3200650Y186800D01*
X3200661Y186539D01*
X3200696Y186279D01*
X3200752Y186024D01*
X3200831Y185774D01*
X3200931Y185532D01*
X3201052Y185300D01*
X3201193Y185079D01*
X3201352Y184872D01*
X3201529Y184679D01*
X3201722Y184502D01*
X3201929Y184343D01*
X3202150Y184202D01*
X3202382Y184081D01*
X3202624Y183981D01*
X3202874Y183902D01*
X3203129Y183846D01*
X3203389Y183811D01*
X3203650Y183800D01*
X3106510Y74460D02*
X3106439Y73381D01*
X3106298Y72309D01*
X3106087Y71249D01*
X3105808Y70205D01*
X3105460Y69181D01*
X3105046Y68183D01*
X3104568Y67213D01*
X3104028Y66277D01*
X3103427Y65378D01*
X3102769Y64521D01*
X3102057Y63708D01*
X3101292Y62944D01*
X3100479Y62231D01*
X3099622Y61573D01*
X3098723Y60972D01*
X3097787Y60432D01*
X3096817Y59954D01*
X3095819Y59540D01*
X3094795Y59192D01*
X3093751Y58913D01*
X3092691Y58702D01*
X3091619Y58561D01*
X3090540Y58490D01*
X3089460Y58490D01*
X3088381Y58561D01*
X3087309Y58702D01*
X3086249Y58913D01*
X3085205Y59192D01*
X3084181Y59540D01*
X3083183Y59954D01*
X3082213Y60432D01*
X3081277Y60972D01*
X3080378Y61573D01*
X3079521Y62231D01*
X3078708Y62944D01*
X3077944Y63708D01*
X3077231Y64521D01*
X3076573Y65378D01*
X3075972Y66277D01*
X3075432Y67213D01*
X3074954Y68183D01*
X3074540Y69181D01*
X3074192Y70205D01*
X3073913Y71249D01*
X3073702Y72309D01*
X3073561Y73381D01*
X3073490Y74460D01*
X3073490Y75540D01*
X3073561Y76619D01*
X3073702Y77691D01*
X3073913Y78751D01*
X3074192Y79795D01*
X3074540Y80819D01*
X3074954Y81817D01*
X3075432Y82787D01*
X3075972Y83723D01*
X3076573Y84622D01*
X3077231Y85479D01*
X3077944Y86292D01*
X3078708Y87057D01*
X3079521Y87769D01*
X3080378Y88427D01*
X3081277Y89028D01*
X3082213Y89568D01*
X3083183Y90046D01*
X3084181Y90460D01*
X3085205Y90808D01*
X3086249Y91087D01*
X3087309Y91298D01*
X3088381Y91439D01*
X3089460Y91510D01*
X3090540Y91510D01*
X3091619Y91439D01*
X3092691Y91298D01*
X3093751Y91087D01*
X3094795Y90808D01*
X3095819Y90460D01*
X3096817Y90046D01*
X3097787Y89568D01*
X3098723Y89028D01*
X3099622Y88427D01*
X3100479Y87769D01*
X3101292Y87057D01*
X3102057Y86292D01*
X3102769Y85479D01*
X3103427Y84622D01*
X3104028Y83723D01*
X3104568Y82787D01*
X3105046Y81817D01*
X3105460Y80819D01*
X3105808Y79795D01*
X3106087Y78751D01*
X3106298Y77691D01*
X3106439Y76619D01*
X3106510Y75540D01*
X3106510Y74460D01*
X91510Y74460D02*
X91439Y73381D01*
X91298Y72309D01*
X91087Y71249D01*
X90808Y70205D01*
X90460Y69181D01*
X90046Y68183D01*
X89568Y67213D01*
X89028Y66277D01*
X88427Y65378D01*
X87769Y64521D01*
X87057Y63708D01*
X86292Y62944D01*
X85479Y62231D01*
X84622Y61573D01*
X83723Y60972D01*
X82787Y60432D01*
X81817Y59954D01*
X80819Y59540D01*
X79795Y59192D01*
X78751Y58913D01*
X77691Y58702D01*
X76619Y58561D01*
X75540Y58490D01*
X74460Y58490D01*
X73381Y58561D01*
X72309Y58702D01*
X71249Y58913D01*
X70205Y59192D01*
X69181Y59540D01*
X68183Y59954D01*
X67213Y60432D01*
X66277Y60972D01*
X65378Y61573D01*
X64521Y62231D01*
X63708Y62944D01*
X62944Y63708D01*
X62231Y64521D01*
X61573Y65378D01*
X60972Y66277D01*
X60432Y67213D01*
X59954Y68183D01*
X59540Y69181D01*
X59192Y70205D01*
X58913Y71249D01*
X58702Y72309D01*
X58561Y73381D01*
X58490Y74460D01*
X58490Y75540D01*
X58561Y76619D01*
X58702Y77691D01*
X58913Y78751D01*
X59192Y79795D01*
X59540Y80819D01*
X59954Y81817D01*
X60432Y82787D01*
X60972Y83723D01*
X61573Y84622D01*
X62231Y85479D01*
X62944Y86292D01*
X63708Y87057D01*
X64521Y87769D01*
X65378Y88427D01*
X66277Y89028D01*
X67213Y89568D01*
X68183Y90046D01*
X69181Y90460D01*
X70205Y90808D01*
X71249Y91087D01*
X72309Y91298D01*
X73381Y91439D01*
X74460Y91510D01*
X75540Y91510D01*
X76619Y91439D01*
X77691Y91298D01*
X78751Y91087D01*
X79795Y90808D01*
X80819Y90460D01*
X81817Y90046D01*
X82787Y89568D01*
X83723Y89028D01*
X84622Y88427D01*
X85479Y87769D01*
X86292Y87057D01*
X87057Y86292D01*
X87769Y85479D01*
X88427Y84622D01*
X89028Y83723D01*
X89568Y82787D01*
X90046Y81817D01*
X90460Y80819D01*
X90808Y79795D01*
X91087Y78751D01*
X91298Y77691D01*
X91439Y76619D01*
X91510Y75540D01*
X91510Y74460D01*
X3214663Y204350D02*
X3215085Y204294D01*
X3215497Y204184D01*
X3215891Y204021D01*
X3216259Y203808D01*
X3216597Y203549D01*
X3216899Y203247D01*
X3217158Y202909D01*
X3217371Y202541D01*
X3217534Y202147D01*
X3217644Y201735D01*
X3217700Y201313D01*
X3217700Y200887D01*
X3217644Y200465D01*
X3217534Y200053D01*
X3217371Y199659D01*
X3217158Y199291D01*
X3216899Y198953D01*
X3216597Y198651D01*
X3216259Y198392D01*
X3215891Y198179D01*
X3215497Y198016D01*
X3215085Y197906D01*
X3214663Y197850D01*
X3214237Y197850D01*
X3213815Y197906D01*
X3213403Y198016D01*
X3213009Y198179D01*
X3212641Y198392D01*
X3212303Y198651D01*
X3212001Y198953D01*
X3211742Y199291D01*
X3211529Y199659D01*
X3211366Y200053D01*
X3211256Y200465D01*
X3211200Y200887D01*
X3211200Y201313D01*
X3211256Y201735D01*
X3211366Y202147D01*
X3211529Y202541D01*
X3211742Y202909D01*
X3212001Y203247D01*
X3212303Y203549D01*
X3212641Y203808D01*
X3213009Y204021D01*
X3213403Y204184D01*
X3213815Y204294D01*
X3214237Y204350D01*
X3214663Y204350D01*
X3214663Y262150D02*
X3215085Y262094D01*
X3215497Y261984D01*
X3215891Y261821D01*
X3216259Y261608D01*
X3216597Y261349D01*
X3216899Y261047D01*
X3217158Y260709D01*
X3217371Y260341D01*
X3217534Y259947D01*
X3217644Y259535D01*
X3217700Y259113D01*
X3217700Y258687D01*
X3217644Y258265D01*
X3217534Y257853D01*
X3217371Y257459D01*
X3217158Y257091D01*
X3216899Y256753D01*
X3216597Y256451D01*
X3216259Y256192D01*
X3215891Y255979D01*
X3215497Y255816D01*
X3215085Y255706D01*
X3214663Y255650D01*
X3214237Y255650D01*
X3213815Y255706D01*
X3213403Y255816D01*
X3213009Y255979D01*
X3212641Y256192D01*
X3212303Y256451D01*
X3212001Y256753D01*
X3211742Y257091D01*
X3211529Y257459D01*
X3211366Y257853D01*
X3211256Y258265D01*
X3211200Y258687D01*
X3211200Y259113D01*
X3211256Y259535D01*
X3211366Y259947D01*
X3211529Y260341D01*
X3211742Y260709D01*
X3212001Y261047D01*
X3212303Y261349D01*
X3212641Y261608D01*
X3213009Y261821D01*
X3213403Y261984D01*
X3213815Y262094D01*
X3214237Y262150D01*
X3214663Y262150D01*
X3243000Y410337D02*
X3243075Y411007D01*
X3243225Y411664D01*
X3243448Y412300D01*
X3243740Y412907D01*
X3244099Y413478D01*
X3244519Y414004D01*
X3244996Y414481D01*
X3245523Y414901D01*
X3246093Y415260D01*
X3246700Y415552D01*
X3247336Y415775D01*
X3247993Y415925D01*
X3248663Y416000D01*
X3249337Y416000D01*
X3250007Y415925D01*
X3250664Y415775D01*
X3251300Y415552D01*
X3251907Y415260D01*
X3252478Y414901D01*
X3253004Y414481D01*
X3253481Y414004D01*
X3253901Y413478D01*
X3254260Y412907D01*
X3254552Y412300D01*
X3254775Y411664D01*
X3254925Y411007D01*
X3255000Y410337D01*
X3255000Y409663D01*
X3254925Y408993D01*
X3254775Y408336D01*
X3254552Y407700D01*
X3254260Y407093D01*
X3253901Y406523D01*
X3253481Y405996D01*
X3253004Y405519D01*
X3252478Y405099D01*
X3251907Y404740D01*
X3251300Y404448D01*
X3250664Y404225D01*
X3250007Y404075D01*
X3249337Y404000D01*
X3248663Y404000D01*
X3247993Y404075D01*
X3247336Y404225D01*
X3246700Y404448D01*
X3246093Y404740D01*
X3245523Y405099D01*
X3244996Y405519D01*
X3244519Y405996D01*
X3244099Y406523D01*
X3243740Y407093D01*
X3243448Y407700D01*
X3243225Y408336D01*
X3243075Y408993D01*
X3243000Y409663D01*
X3243000Y410337D01*
X3173000Y410337D02*
X3173075Y411007D01*
X3173225Y411664D01*
X3173448Y412300D01*
X3173740Y412907D01*
X3174099Y413478D01*
X3174519Y414004D01*
X3174996Y414481D01*
X3175523Y414901D01*
X3176093Y415260D01*
X3176700Y415552D01*
X3177336Y415775D01*
X3177993Y415925D01*
X3178663Y416000D01*
X3179337Y416000D01*
X3180007Y415925D01*
X3180664Y415775D01*
X3181300Y415552D01*
X3181907Y415260D01*
X3182478Y414901D01*
X3183004Y414481D01*
X3183481Y414004D01*
X3183901Y413478D01*
X3184260Y412907D01*
X3184552Y412300D01*
X3184775Y411664D01*
X3184925Y411007D01*
X3185000Y410337D01*
X3185000Y409663D01*
X3184925Y408993D01*
X3184775Y408336D01*
X3184552Y407700D01*
X3184260Y407093D01*
X3183901Y406523D01*
X3183481Y405996D01*
X3183004Y405519D01*
X3182478Y405099D01*
X3181907Y404740D01*
X3181300Y404448D01*
X3180664Y404225D01*
X3180007Y404075D01*
X3179337Y404000D01*
X3178663Y404000D01*
X3177993Y404075D01*
X3177336Y404225D01*
X3176700Y404448D01*
X3176093Y404740D01*
X3175523Y405099D01*
X3174996Y405519D01*
X3174519Y405996D01*
X3174099Y406523D01*
X3173740Y407093D01*
X3173448Y407700D01*
X3173225Y408336D01*
X3173075Y408993D01*
X3173000Y409663D01*
X3173000Y410337D01*
X126705Y210700D02*
X126120Y210777D01*
X125550Y210930D01*
X125005Y211155D01*
X124495Y211450D01*
X124027Y211809D01*
X123609Y212227D01*
X123250Y212695D01*
X122955Y213205D01*
X122730Y213750D01*
X122577Y214320D01*
X122500Y214905D01*
X122500Y215495D01*
X122577Y216080D01*
X122730Y216650D01*
X122955Y217195D01*
X123250Y217705D01*
X123609Y218173D01*
X124027Y218591D01*
X124495Y218950D01*
X125005Y219245D01*
X125550Y219470D01*
X126120Y219623D01*
X126705Y219700D01*
X127295Y219700D01*
X127880Y219623D01*
X128450Y219470D01*
X128995Y219245D01*
X129505Y218950D01*
X129973Y218591D01*
X130391Y218173D01*
X130750Y217705D01*
X131045Y217195D01*
X131270Y216650D01*
X131423Y216080D01*
X131500Y215495D01*
X131500Y214905D01*
X131423Y214320D01*
X131270Y213750D01*
X131045Y213205D01*
X130750Y212695D01*
X130391Y212227D01*
X129973Y211809D01*
X129505Y211450D01*
X128995Y211155D01*
X128450Y210930D01*
X127880Y210777D01*
X127295Y210700D01*
X126705Y210700D01*
X1777240Y1901960D02*
X1777169Y1900881D01*
X1777028Y1899809D01*
X1776817Y1898749D01*
X1776538Y1897705D01*
X1776190Y1896681D01*
X1775776Y1895683D01*
X1775298Y1894713D01*
X1774758Y1893777D01*
X1774157Y1892878D01*
X1773499Y1892021D01*
X1772787Y1891208D01*
X1772022Y1890444D01*
X1771209Y1889731D01*
X1770352Y1889073D01*
X1769453Y1888472D01*
X1768517Y1887932D01*
X1767547Y1887454D01*
X1766549Y1887040D01*
X1765525Y1886692D01*
X1764481Y1886413D01*
X1763421Y1886202D01*
X1762349Y1886061D01*
X1761270Y1885990D01*
X1760190Y1885990D01*
X1759111Y1886061D01*
X1758039Y1886202D01*
X1756979Y1886413D01*
X1755935Y1886692D01*
X1754911Y1887040D01*
X1753913Y1887454D01*
X1752943Y1887932D01*
X1752007Y1888472D01*
X1751108Y1889073D01*
X1750251Y1889731D01*
X1749438Y1890444D01*
X1748674Y1891208D01*
X1747961Y1892021D01*
X1747303Y1892878D01*
X1746702Y1893777D01*
X1746162Y1894713D01*
X1745684Y1895683D01*
X1745270Y1896681D01*
X1744922Y1897705D01*
X1744643Y1898749D01*
X1744432Y1899809D01*
X1744291Y1900881D01*
X1744220Y1901960D01*
X1744220Y1903040D01*
X1744291Y1904119D01*
X1744432Y1905191D01*
X1744643Y1906251D01*
X1744922Y1907295D01*
X1745270Y1908319D01*
X1745684Y1909317D01*
X1746162Y1910287D01*
X1746702Y1911223D01*
X1747303Y1912122D01*
X1747961Y1912979D01*
X1748674Y1913792D01*
X1749438Y1914557D01*
X1750251Y1915269D01*
X1751108Y1915927D01*
X1752007Y1916528D01*
X1752943Y1917068D01*
X1753913Y1917546D01*
X1754911Y1917960D01*
X1755935Y1918308D01*
X1756979Y1918587D01*
X1758039Y1918798D01*
X1759111Y1918939D01*
X1760190Y1919010D01*
X1761270Y1919010D01*
X1762349Y1918939D01*
X1763421Y1918798D01*
X1764481Y1918587D01*
X1765525Y1918308D01*
X1766549Y1917960D01*
X1767547Y1917546D01*
X1768517Y1917068D01*
X1769453Y1916528D01*
X1770352Y1915927D01*
X1771209Y1915269D01*
X1772022Y1914557D01*
X1772787Y1913792D01*
X1773499Y1912979D01*
X1774157Y1912122D01*
X1774758Y1911223D01*
X1775298Y1910287D01*
X1775776Y1909317D01*
X1776190Y1908319D01*
X1776538Y1907295D01*
X1776817Y1906251D01*
X1777028Y1905191D01*
X1777169Y1904119D01*
X1777240Y1903040D01*
X1777240Y1901960D01*
X1420780Y74460D02*
X1420709Y73381D01*
X1420568Y72309D01*
X1420357Y71249D01*
X1420078Y70205D01*
X1419730Y69181D01*
X1419316Y68183D01*
X1418838Y67213D01*
X1418298Y66277D01*
X1417697Y65378D01*
X1417039Y64521D01*
X1416327Y63708D01*
X1415562Y62944D01*
X1414749Y62231D01*
X1413892Y61573D01*
X1412993Y60972D01*
X1412057Y60432D01*
X1411087Y59954D01*
X1410089Y59540D01*
X1409065Y59192D01*
X1408021Y58913D01*
X1406961Y58702D01*
X1405889Y58561D01*
X1404810Y58490D01*
X1403730Y58490D01*
X1402651Y58561D01*
X1401579Y58702D01*
X1400519Y58913D01*
X1399475Y59192D01*
X1398451Y59540D01*
X1397453Y59954D01*
X1396483Y60432D01*
X1395547Y60972D01*
X1394648Y61573D01*
X1393791Y62231D01*
X1392978Y62944D01*
X1392214Y63708D01*
X1391501Y64521D01*
X1390843Y65378D01*
X1390242Y66277D01*
X1389702Y67213D01*
X1389224Y68183D01*
X1388810Y69181D01*
X1388462Y70205D01*
X1388183Y71249D01*
X1387972Y72309D01*
X1387831Y73381D01*
X1387760Y74460D01*
X1387760Y75540D01*
X1387831Y76619D01*
X1387972Y77691D01*
X1388183Y78751D01*
X1388462Y79795D01*
X1388810Y80819D01*
X1389224Y81817D01*
X1389702Y82787D01*
X1390242Y83723D01*
X1390843Y84622D01*
X1391501Y85479D01*
X1392214Y86292D01*
X1392978Y87057D01*
X1393791Y87769D01*
X1394648Y88427D01*
X1395547Y89028D01*
X1396483Y89568D01*
X1397453Y90046D01*
X1398451Y90460D01*
X1399475Y90808D01*
X1400519Y91087D01*
X1401579Y91298D01*
X1402651Y91439D01*
X1403730Y91510D01*
X1404810Y91510D01*
X1405889Y91439D01*
X1406961Y91298D01*
X1408021Y91087D01*
X1409065Y90808D01*
X1410089Y90460D01*
X1411087Y90046D01*
X1412057Y89568D01*
X1412993Y89028D01*
X1413892Y88427D01*
X1414749Y87769D01*
X1415562Y87057D01*
X1416327Y86292D01*
X1417039Y85479D01*
X1417697Y84622D01*
X1418298Y83723D01*
X1418838Y82787D01*
X1419316Y81817D01*
X1419730Y80819D01*
X1420078Y79795D01*
X1420357Y78751D01*
X1420568Y77691D01*
X1420709Y76619D01*
X1420780Y75540D01*
X1420780Y74460D01*
X3106510Y1901960D02*
X3106439Y1900881D01*
X3106298Y1899809D01*
X3106087Y1898749D01*
X3105808Y1897705D01*
X3105460Y1896681D01*
X3105046Y1895683D01*
X3104568Y1894713D01*
X3104028Y1893777D01*
X3103427Y1892878D01*
X3102769Y1892021D01*
X3102057Y1891208D01*
X3101292Y1890444D01*
X3100479Y1889731D01*
X3099622Y1889073D01*
X3098723Y1888472D01*
X3097787Y1887932D01*
X3096817Y1887454D01*
X3095819Y1887040D01*
X3094795Y1886692D01*
X3093751Y1886413D01*
X3092691Y1886202D01*
X3091619Y1886061D01*
X3090540Y1885990D01*
X3089460Y1885990D01*
X3088381Y1886061D01*
X3087309Y1886202D01*
X3086249Y1886413D01*
X3085205Y1886692D01*
X3084181Y1887040D01*
X3083183Y1887454D01*
X3082213Y1887932D01*
X3081277Y1888472D01*
X3080378Y1889073D01*
X3079521Y1889731D01*
X3078708Y1890444D01*
X3077944Y1891208D01*
X3077231Y1892021D01*
X3076573Y1892878D01*
X3075972Y1893777D01*
X3075432Y1894713D01*
X3074954Y1895683D01*
X3074540Y1896681D01*
X3074192Y1897705D01*
X3073913Y1898749D01*
X3073702Y1899809D01*
X3073561Y1900881D01*
X3073490Y1901960D01*
X3073490Y1903040D01*
X3073561Y1904119D01*
X3073702Y1905191D01*
X3073913Y1906251D01*
X3074192Y1907295D01*
X3074540Y1908319D01*
X3074954Y1909317D01*
X3075432Y1910287D01*
X3075972Y1911223D01*
X3076573Y1912122D01*
X3077231Y1912979D01*
X3077944Y1913792D01*
X3078708Y1914557D01*
X3079521Y1915269D01*
X3080378Y1915927D01*
X3081277Y1916528D01*
X3082213Y1917068D01*
X3083183Y1917546D01*
X3084181Y1917960D01*
X3085205Y1918308D01*
X3086249Y1918587D01*
X3087309Y1918798D01*
X3088381Y1918939D01*
X3089460Y1919010D01*
X3090540Y1919010D01*
X3091619Y1918939D01*
X3092691Y1918798D01*
X3093751Y1918587D01*
X3094795Y1918308D01*
X3095819Y1917960D01*
X3096817Y1917546D01*
X3097787Y1917068D01*
X3098723Y1916528D01*
X3099622Y1915927D01*
X3100479Y1915269D01*
X3101292Y1914557D01*
X3102057Y1913792D01*
X3102769Y1912979D01*
X3103427Y1912122D01*
X3104028Y1911223D01*
X3104568Y1910287D01*
X3105046Y1909317D01*
X3105460Y1908319D01*
X3105808Y1907295D01*
X3106087Y1906251D01*
X3106298Y1905191D01*
X3106439Y1904119D01*
X3106510Y1903040D01*
X3106510Y1901960D01*
X91510Y1901960D02*
X91439Y1900881D01*
X91298Y1899809D01*
X91087Y1898749D01*
X90808Y1897705D01*
X90460Y1896681D01*
X90046Y1895683D01*
X89568Y1894713D01*
X89028Y1893777D01*
X88427Y1892878D01*
X87769Y1892021D01*
X87057Y1891208D01*
X86292Y1890444D01*
X85479Y1889731D01*
X84622Y1889073D01*
X83723Y1888472D01*
X82787Y1887932D01*
X81817Y1887454D01*
X80819Y1887040D01*
X79795Y1886692D01*
X78751Y1886413D01*
X77691Y1886202D01*
X76619Y1886061D01*
X75540Y1885990D01*
X74460Y1885990D01*
X73381Y1886061D01*
X72309Y1886202D01*
X71249Y1886413D01*
X70205Y1886692D01*
X69181Y1887040D01*
X68183Y1887454D01*
X67213Y1887932D01*
X66277Y1888472D01*
X65378Y1889073D01*
X64521Y1889731D01*
X63708Y1890444D01*
X62944Y1891208D01*
X62231Y1892021D01*
X61573Y1892878D01*
X60972Y1893777D01*
X60432Y1894713D01*
X59954Y1895683D01*
X59540Y1896681D01*
X59192Y1897705D01*
X58913Y1898749D01*
X58702Y1899809D01*
X58561Y1900881D01*
X58490Y1901960D01*
X58490Y1903040D01*
X58561Y1904119D01*
X58702Y1905191D01*
X58913Y1906251D01*
X59192Y1907295D01*
X59540Y1908319D01*
X59954Y1909317D01*
X60432Y1910287D01*
X60972Y1911223D01*
X61573Y1912122D01*
X62231Y1912979D01*
X62944Y1913792D01*
X63708Y1914557D01*
X64521Y1915269D01*
X65378Y1915927D01*
X66277Y1916528D01*
X67213Y1917068D01*
X68183Y1917546D01*
X69181Y1917960D01*
X70205Y1918308D01*
X71249Y1918587D01*
X72309Y1918798D01*
X73381Y1918939D01*
X74460Y1919010D01*
X75540Y1919010D01*
X76619Y1918939D01*
X77691Y1918798D01*
X78751Y1918587D01*
X79795Y1918308D01*
X80819Y1917960D01*
X81817Y1917546D01*
X82787Y1917068D01*
X83723Y1916528D01*
X84622Y1915927D01*
X85479Y1915269D01*
X86292Y1914557D01*
X87057Y1913792D01*
X87769Y1912979D01*
X88427Y1912122D01*
X89028Y1911223D01*
X89568Y1910287D01*
X90046Y1909317D01*
X90460Y1908319D01*
X90808Y1907295D01*
X91087Y1906251D01*
X91298Y1905191D01*
X91439Y1904119D01*
X91510Y1903040D01*
X91510Y1901960D01*
M02*
