G04 EAGLE Gerber RS-274X export*
G75*
%MOMM*%
%FSLAX34Y34*%
%LPD*%
%INSolderpaste Top*%
%IPPOS*%
%AMOC8*
5,1,8,0,0,1.08239X$1,22.5*%
G01*
%ADD10R,1.000000X1.100000*%
%ADD11R,0.300000X0.660000*%
%ADD12R,1.100000X1.000000*%
%ADD13R,0.900000X1.000000*%
%ADD14R,0.900000X1.500000*%
%ADD15R,1.500000X0.900000*%
%ADD16R,6.000000X6.000000*%
%ADD17R,1.200000X0.550000*%
%ADD18R,1.016000X0.300000*%
%ADD19R,1.016000X0.600000*%
%ADD20R,1.016000X0.550000*%
%ADD21R,1.200000X2.500000*%
%ADD22C,0.030000*%
%ADD23C,0.700000*%
%ADD24C,0.900000*%
%ADD25R,1.651000X1.000000*%

G36*
X3205355Y451584D02*
X3205355Y451584D01*
X3205358Y451581D01*
X3206625Y451786D01*
X3206631Y451792D01*
X3206636Y451789D01*
X3207825Y452271D01*
X3207829Y452278D01*
X3207835Y452276D01*
X3208888Y453010D01*
X3208890Y453018D01*
X3208896Y453017D01*
X3209759Y453967D01*
X3209760Y453976D01*
X3209765Y453976D01*
X3210395Y455095D01*
X3210394Y455103D01*
X3210400Y455105D01*
X3210765Y456335D01*
X3210762Y456342D01*
X3210766Y456345D01*
X3210765Y456345D01*
X3210767Y456346D01*
X3210849Y457627D01*
X3210847Y457631D01*
X3210849Y457633D01*
X3210767Y458914D01*
X3210761Y458920D01*
X3210765Y458925D01*
X3210400Y460155D01*
X3210393Y460160D01*
X3210395Y460165D01*
X3209765Y461284D01*
X3209758Y461287D01*
X3209759Y461293D01*
X3208896Y462243D01*
X3208888Y462244D01*
X3208888Y462250D01*
X3207835Y462984D01*
X3207827Y462984D01*
X3207825Y462989D01*
X3206636Y463471D01*
X3206628Y463469D01*
X3206625Y463474D01*
X3205358Y463679D01*
X3205353Y463676D01*
X3205350Y463679D01*
X3193350Y463679D01*
X3193346Y463676D01*
X3193343Y463679D01*
X3192221Y463524D01*
X3192216Y463519D01*
X3192212Y463522D01*
X3191141Y463151D01*
X3191137Y463145D01*
X3191132Y463147D01*
X3190155Y462574D01*
X3190152Y462568D01*
X3190147Y462569D01*
X3189300Y461816D01*
X3189298Y461809D01*
X3189293Y461809D01*
X3188609Y460906D01*
X3188609Y460899D01*
X3188604Y460898D01*
X3188109Y459879D01*
X3188111Y459872D01*
X3188109Y459871D01*
X3188106Y459870D01*
X3187819Y458773D01*
X3187822Y458767D01*
X3187818Y458764D01*
X3187751Y457633D01*
X3187753Y457629D01*
X3187751Y457627D01*
X3187818Y456496D01*
X3187823Y456491D01*
X3187819Y456487D01*
X3188106Y455390D01*
X3188112Y455386D01*
X3188109Y455381D01*
X3188604Y454362D01*
X3188610Y454359D01*
X3188609Y454354D01*
X3189293Y453451D01*
X3189300Y453449D01*
X3189300Y453444D01*
X3190147Y452691D01*
X3190154Y452691D01*
X3190155Y452686D01*
X3191132Y452113D01*
X3191139Y452114D01*
X3191141Y452109D01*
X3192212Y451738D01*
X3192218Y451741D01*
X3192221Y451736D01*
X3193343Y451581D01*
X3193348Y451584D01*
X3193350Y451581D01*
X3205350Y451581D01*
X3205355Y451584D01*
G37*
G36*
X3205355Y365184D02*
X3205355Y365184D01*
X3205358Y365181D01*
X3206625Y365386D01*
X3206631Y365392D01*
X3206636Y365389D01*
X3207825Y365871D01*
X3207829Y365878D01*
X3207835Y365876D01*
X3208888Y366610D01*
X3208890Y366618D01*
X3208896Y366617D01*
X3209759Y367567D01*
X3209760Y367576D01*
X3209765Y367576D01*
X3210395Y368695D01*
X3210394Y368703D01*
X3210400Y368705D01*
X3210765Y369935D01*
X3210762Y369942D01*
X3210766Y369945D01*
X3210765Y369945D01*
X3210767Y369946D01*
X3210849Y371227D01*
X3210847Y371231D01*
X3210849Y371233D01*
X3210767Y372514D01*
X3210761Y372520D01*
X3210765Y372525D01*
X3210400Y373755D01*
X3210393Y373760D01*
X3210395Y373765D01*
X3209765Y374884D01*
X3209758Y374887D01*
X3209759Y374893D01*
X3208896Y375843D01*
X3208888Y375844D01*
X3208888Y375850D01*
X3207835Y376584D01*
X3207827Y376584D01*
X3207825Y376589D01*
X3206636Y377071D01*
X3206628Y377069D01*
X3206625Y377074D01*
X3205358Y377279D01*
X3205353Y377276D01*
X3205350Y377279D01*
X3193350Y377279D01*
X3193346Y377276D01*
X3193343Y377279D01*
X3192221Y377124D01*
X3192216Y377119D01*
X3192212Y377122D01*
X3191141Y376751D01*
X3191137Y376745D01*
X3191132Y376747D01*
X3190155Y376174D01*
X3190152Y376168D01*
X3190147Y376169D01*
X3189300Y375416D01*
X3189298Y375409D01*
X3189293Y375409D01*
X3188609Y374506D01*
X3188609Y374499D01*
X3188604Y374498D01*
X3188109Y373479D01*
X3188111Y373472D01*
X3188109Y373471D01*
X3188106Y373470D01*
X3187819Y372373D01*
X3187822Y372367D01*
X3187818Y372364D01*
X3187751Y371233D01*
X3187753Y371229D01*
X3187751Y371227D01*
X3187818Y370096D01*
X3187823Y370091D01*
X3187819Y370087D01*
X3188106Y368990D01*
X3188112Y368986D01*
X3188109Y368981D01*
X3188604Y367962D01*
X3188610Y367959D01*
X3188609Y367954D01*
X3189293Y367051D01*
X3189300Y367049D01*
X3189300Y367044D01*
X3190147Y366291D01*
X3190154Y366291D01*
X3190155Y366286D01*
X3191132Y365713D01*
X3191139Y365714D01*
X3191141Y365709D01*
X3192212Y365338D01*
X3192218Y365341D01*
X3192221Y365336D01*
X3193343Y365181D01*
X3193348Y365184D01*
X3193350Y365181D01*
X3205350Y365181D01*
X3205355Y365184D01*
G37*
G36*
X3244154Y365183D02*
X3244154Y365183D01*
X3244156Y365181D01*
X3245485Y365336D01*
X3245491Y365342D01*
X3245495Y365339D01*
X3246756Y365786D01*
X3246761Y365793D01*
X3246766Y365791D01*
X3247896Y366508D01*
X3247899Y366515D01*
X3247905Y366514D01*
X3248847Y367465D01*
X3248848Y367473D01*
X3248854Y367473D01*
X3249561Y368609D01*
X3249561Y368614D01*
X3249562Y368615D01*
X3249561Y368617D01*
X3249566Y368619D01*
X3250002Y369884D01*
X3250000Y369892D01*
X3250005Y369895D01*
X3250149Y371225D01*
X3250145Y371231D01*
X3250149Y371235D01*
X3250039Y372401D01*
X3250034Y372406D01*
X3250037Y372410D01*
X3249702Y373533D01*
X3249696Y373537D01*
X3249698Y373541D01*
X3249150Y374577D01*
X3249144Y374580D01*
X3249145Y374585D01*
X3248406Y375493D01*
X3248399Y375495D01*
X3248399Y375500D01*
X3247497Y376247D01*
X3247490Y376247D01*
X3247489Y376253D01*
X3246458Y376809D01*
X3246451Y376808D01*
X3246449Y376813D01*
X3245330Y377157D01*
X3245323Y377155D01*
X3245320Y377159D01*
X3244155Y377279D01*
X3244152Y377277D01*
X3244150Y377279D01*
X3238150Y377279D01*
X3238147Y377277D01*
X3238145Y377279D01*
X3236969Y377168D01*
X3236964Y377163D01*
X3236960Y377166D01*
X3235828Y376828D01*
X3235824Y376822D01*
X3235819Y376824D01*
X3234775Y376272D01*
X3234772Y376265D01*
X3234767Y376267D01*
X3233851Y375521D01*
X3233850Y375514D01*
X3233844Y375514D01*
X3233091Y374605D01*
X3233091Y374597D01*
X3233086Y374597D01*
X3232525Y373557D01*
X3232526Y373550D01*
X3232521Y373548D01*
X3232174Y372419D01*
X3232176Y372413D01*
X3232172Y372410D01*
X3232051Y371235D01*
X3232055Y371228D01*
X3232051Y371224D01*
X3232208Y369884D01*
X3232213Y369878D01*
X3232210Y369873D01*
X3232661Y368602D01*
X3232668Y368597D01*
X3232666Y368592D01*
X3233388Y367453D01*
X3233396Y367450D01*
X3233395Y367444D01*
X3234353Y366494D01*
X3234361Y366493D01*
X3234362Y366487D01*
X3235507Y365774D01*
X3235516Y365775D01*
X3235517Y365769D01*
X3236793Y365329D01*
X3236800Y365331D01*
X3236802Y365329D01*
X3236803Y365327D01*
X3238145Y365181D01*
X3238148Y365183D01*
X3238150Y365181D01*
X3244150Y365181D01*
X3244154Y365183D01*
G37*
G36*
X3244154Y451583D02*
X3244154Y451583D01*
X3244156Y451581D01*
X3245485Y451736D01*
X3245491Y451742D01*
X3245495Y451739D01*
X3246756Y452186D01*
X3246761Y452193D01*
X3246766Y452191D01*
X3247896Y452908D01*
X3247899Y452915D01*
X3247905Y452914D01*
X3248847Y453865D01*
X3248848Y453873D01*
X3248854Y453873D01*
X3249561Y455009D01*
X3249561Y455014D01*
X3249562Y455015D01*
X3249560Y455017D01*
X3249566Y455019D01*
X3250002Y456284D01*
X3250000Y456292D01*
X3250005Y456295D01*
X3250149Y457625D01*
X3250145Y457631D01*
X3250149Y457635D01*
X3250039Y458801D01*
X3250034Y458806D01*
X3250037Y458810D01*
X3249702Y459933D01*
X3249696Y459937D01*
X3249698Y459941D01*
X3249150Y460977D01*
X3249144Y460980D01*
X3249145Y460985D01*
X3248406Y461893D01*
X3248399Y461895D01*
X3248399Y461900D01*
X3247497Y462647D01*
X3247490Y462647D01*
X3247489Y462653D01*
X3246458Y463209D01*
X3246451Y463208D01*
X3246449Y463213D01*
X3245330Y463557D01*
X3245323Y463555D01*
X3245320Y463559D01*
X3244155Y463679D01*
X3244152Y463677D01*
X3244150Y463679D01*
X3238150Y463679D01*
X3238147Y463677D01*
X3238145Y463679D01*
X3236969Y463568D01*
X3236964Y463563D01*
X3236960Y463566D01*
X3235828Y463228D01*
X3235824Y463222D01*
X3235819Y463224D01*
X3234775Y462672D01*
X3234772Y462665D01*
X3234767Y462667D01*
X3233851Y461921D01*
X3233850Y461914D01*
X3233844Y461914D01*
X3233091Y461005D01*
X3233091Y460997D01*
X3233086Y460997D01*
X3232525Y459957D01*
X3232526Y459950D01*
X3232521Y459948D01*
X3232174Y458819D01*
X3232176Y458813D01*
X3232172Y458810D01*
X3232051Y457635D01*
X3232055Y457628D01*
X3232051Y457624D01*
X3232208Y456284D01*
X3232213Y456278D01*
X3232210Y456273D01*
X3232661Y455002D01*
X3232668Y454997D01*
X3232666Y454992D01*
X3233388Y453853D01*
X3233396Y453850D01*
X3233395Y453844D01*
X3234353Y452894D01*
X3234361Y452893D01*
X3234362Y452887D01*
X3235507Y452174D01*
X3235516Y452175D01*
X3235517Y452169D01*
X3236793Y451729D01*
X3236800Y451731D01*
X3236802Y451729D01*
X3236803Y451727D01*
X3238145Y451581D01*
X3238148Y451583D01*
X3238150Y451581D01*
X3244150Y451581D01*
X3244154Y451583D01*
G37*
G36*
X178865Y65377D02*
X178865Y65377D01*
X178931Y65379D01*
X178974Y65397D01*
X179021Y65405D01*
X179078Y65439D01*
X179138Y65464D01*
X179173Y65495D01*
X179214Y65520D01*
X179256Y65571D01*
X179304Y65615D01*
X179326Y65657D01*
X179355Y65694D01*
X179376Y65756D01*
X179407Y65815D01*
X179415Y65869D01*
X179427Y65906D01*
X179426Y65946D01*
X179434Y66000D01*
X179434Y73500D01*
X179423Y73565D01*
X179421Y73631D01*
X179403Y73674D01*
X179395Y73721D01*
X179361Y73778D01*
X179336Y73838D01*
X179305Y73873D01*
X179280Y73914D01*
X179229Y73956D01*
X179185Y74004D01*
X179143Y74026D01*
X179106Y74055D01*
X179044Y74076D01*
X178985Y74107D01*
X178931Y74115D01*
X178894Y74127D01*
X178854Y74126D01*
X178800Y74134D01*
X171300Y74134D01*
X171235Y74123D01*
X171169Y74121D01*
X171126Y74103D01*
X171079Y74095D01*
X171022Y74061D01*
X170962Y74036D01*
X170927Y74005D01*
X170886Y73980D01*
X170845Y73929D01*
X170796Y73885D01*
X170774Y73843D01*
X170745Y73806D01*
X170724Y73744D01*
X170693Y73685D01*
X170685Y73631D01*
X170673Y73594D01*
X170674Y73554D01*
X170666Y73500D01*
X170666Y66000D01*
X170677Y65935D01*
X170679Y65869D01*
X170697Y65826D01*
X170705Y65779D01*
X170739Y65722D01*
X170764Y65662D01*
X170795Y65627D01*
X170820Y65586D01*
X170871Y65545D01*
X170915Y65496D01*
X170957Y65474D01*
X170994Y65445D01*
X171056Y65424D01*
X171115Y65393D01*
X171169Y65385D01*
X171206Y65373D01*
X171246Y65374D01*
X171300Y65366D01*
X178800Y65366D01*
X178865Y65377D01*
G37*
G36*
X191365Y65377D02*
X191365Y65377D01*
X191431Y65379D01*
X191474Y65397D01*
X191521Y65405D01*
X191578Y65439D01*
X191638Y65464D01*
X191673Y65495D01*
X191714Y65520D01*
X191756Y65571D01*
X191804Y65615D01*
X191826Y65657D01*
X191855Y65694D01*
X191876Y65756D01*
X191907Y65815D01*
X191915Y65869D01*
X191927Y65906D01*
X191926Y65946D01*
X191934Y66000D01*
X191934Y73500D01*
X191923Y73565D01*
X191921Y73631D01*
X191903Y73674D01*
X191895Y73721D01*
X191861Y73778D01*
X191836Y73838D01*
X191805Y73873D01*
X191780Y73914D01*
X191729Y73956D01*
X191685Y74004D01*
X191643Y74026D01*
X191606Y74055D01*
X191544Y74076D01*
X191485Y74107D01*
X191431Y74115D01*
X191394Y74127D01*
X191354Y74126D01*
X191300Y74134D01*
X183800Y74134D01*
X183735Y74123D01*
X183669Y74121D01*
X183626Y74103D01*
X183579Y74095D01*
X183522Y74061D01*
X183462Y74036D01*
X183427Y74005D01*
X183386Y73980D01*
X183345Y73929D01*
X183296Y73885D01*
X183274Y73843D01*
X183245Y73806D01*
X183224Y73744D01*
X183193Y73685D01*
X183185Y73631D01*
X183173Y73594D01*
X183174Y73554D01*
X183166Y73500D01*
X183166Y66000D01*
X183177Y65935D01*
X183179Y65869D01*
X183197Y65826D01*
X183205Y65779D01*
X183239Y65722D01*
X183264Y65662D01*
X183295Y65627D01*
X183320Y65586D01*
X183371Y65545D01*
X183415Y65496D01*
X183457Y65474D01*
X183494Y65445D01*
X183556Y65424D01*
X183615Y65393D01*
X183669Y65385D01*
X183706Y65373D01*
X183746Y65374D01*
X183800Y65366D01*
X191300Y65366D01*
X191365Y65377D01*
G37*
G36*
X191365Y52877D02*
X191365Y52877D01*
X191431Y52879D01*
X191474Y52897D01*
X191521Y52905D01*
X191578Y52939D01*
X191638Y52964D01*
X191673Y52995D01*
X191714Y53020D01*
X191756Y53071D01*
X191804Y53115D01*
X191826Y53157D01*
X191855Y53194D01*
X191876Y53256D01*
X191907Y53315D01*
X191915Y53369D01*
X191927Y53406D01*
X191926Y53446D01*
X191934Y53500D01*
X191934Y61000D01*
X191923Y61065D01*
X191921Y61131D01*
X191903Y61174D01*
X191895Y61221D01*
X191861Y61278D01*
X191836Y61338D01*
X191805Y61373D01*
X191780Y61414D01*
X191729Y61456D01*
X191685Y61504D01*
X191643Y61526D01*
X191606Y61555D01*
X191544Y61576D01*
X191485Y61607D01*
X191431Y61615D01*
X191394Y61627D01*
X191354Y61626D01*
X191300Y61634D01*
X183800Y61634D01*
X183735Y61623D01*
X183669Y61621D01*
X183626Y61603D01*
X183579Y61595D01*
X183522Y61561D01*
X183462Y61536D01*
X183427Y61505D01*
X183386Y61480D01*
X183345Y61429D01*
X183296Y61385D01*
X183274Y61343D01*
X183245Y61306D01*
X183224Y61244D01*
X183193Y61185D01*
X183185Y61131D01*
X183173Y61094D01*
X183174Y61054D01*
X183166Y61000D01*
X183166Y53500D01*
X183177Y53435D01*
X183179Y53369D01*
X183197Y53326D01*
X183205Y53279D01*
X183239Y53222D01*
X183264Y53162D01*
X183295Y53127D01*
X183320Y53086D01*
X183371Y53045D01*
X183415Y52996D01*
X183457Y52974D01*
X183494Y52945D01*
X183556Y52924D01*
X183615Y52893D01*
X183669Y52885D01*
X183706Y52873D01*
X183746Y52874D01*
X183800Y52866D01*
X191300Y52866D01*
X191365Y52877D01*
G37*
G36*
X178865Y52877D02*
X178865Y52877D01*
X178931Y52879D01*
X178974Y52897D01*
X179021Y52905D01*
X179078Y52939D01*
X179138Y52964D01*
X179173Y52995D01*
X179214Y53020D01*
X179256Y53071D01*
X179304Y53115D01*
X179326Y53157D01*
X179355Y53194D01*
X179376Y53256D01*
X179407Y53315D01*
X179415Y53369D01*
X179427Y53406D01*
X179426Y53446D01*
X179434Y53500D01*
X179434Y61000D01*
X179423Y61065D01*
X179421Y61131D01*
X179403Y61174D01*
X179395Y61221D01*
X179361Y61278D01*
X179336Y61338D01*
X179305Y61373D01*
X179280Y61414D01*
X179229Y61456D01*
X179185Y61504D01*
X179143Y61526D01*
X179106Y61555D01*
X179044Y61576D01*
X178985Y61607D01*
X178931Y61615D01*
X178894Y61627D01*
X178854Y61626D01*
X178800Y61634D01*
X171300Y61634D01*
X171235Y61623D01*
X171169Y61621D01*
X171126Y61603D01*
X171079Y61595D01*
X171022Y61561D01*
X170962Y61536D01*
X170927Y61505D01*
X170886Y61480D01*
X170845Y61429D01*
X170796Y61385D01*
X170774Y61343D01*
X170745Y61306D01*
X170724Y61244D01*
X170693Y61185D01*
X170685Y61131D01*
X170673Y61094D01*
X170674Y61054D01*
X170666Y61000D01*
X170666Y53500D01*
X170677Y53435D01*
X170679Y53369D01*
X170697Y53326D01*
X170705Y53279D01*
X170739Y53222D01*
X170764Y53162D01*
X170795Y53127D01*
X170820Y53086D01*
X170871Y53045D01*
X170915Y52996D01*
X170957Y52974D01*
X170994Y52945D01*
X171056Y52924D01*
X171115Y52893D01*
X171169Y52885D01*
X171206Y52873D01*
X171246Y52874D01*
X171300Y52866D01*
X178800Y52866D01*
X178865Y52877D01*
G37*
G36*
X190047Y80087D02*
X190047Y80087D01*
X190042Y80094D01*
X190049Y80100D01*
X190049Y87900D01*
X190013Y87947D01*
X190006Y87942D01*
X190000Y87949D01*
X187600Y87949D01*
X187553Y87913D01*
X187558Y87906D01*
X187551Y87900D01*
X187551Y80100D01*
X187587Y80053D01*
X187594Y80058D01*
X187600Y80051D01*
X190000Y80051D01*
X190047Y80087D01*
G37*
G36*
X175047Y80087D02*
X175047Y80087D01*
X175042Y80094D01*
X175049Y80100D01*
X175049Y87900D01*
X175013Y87947D01*
X175006Y87942D01*
X175000Y87949D01*
X172600Y87949D01*
X172553Y87913D01*
X172558Y87906D01*
X172551Y87900D01*
X172551Y80100D01*
X172587Y80053D01*
X172594Y80058D01*
X172600Y80051D01*
X175000Y80051D01*
X175047Y80087D01*
G37*
G36*
X195047Y80087D02*
X195047Y80087D01*
X195042Y80094D01*
X195049Y80100D01*
X195049Y87900D01*
X195013Y87947D01*
X195006Y87942D01*
X195000Y87949D01*
X192600Y87949D01*
X192553Y87913D01*
X192558Y87906D01*
X192551Y87900D01*
X192551Y80100D01*
X192587Y80053D01*
X192594Y80058D01*
X192600Y80051D01*
X195000Y80051D01*
X195047Y80087D01*
G37*
G36*
X185047Y80087D02*
X185047Y80087D01*
X185042Y80094D01*
X185049Y80100D01*
X185049Y87900D01*
X185013Y87947D01*
X185006Y87942D01*
X185000Y87949D01*
X182600Y87949D01*
X182553Y87913D01*
X182558Y87906D01*
X182551Y87900D01*
X182551Y80100D01*
X182587Y80053D01*
X182594Y80058D01*
X182600Y80051D01*
X185000Y80051D01*
X185047Y80087D01*
G37*
G36*
X180047Y80087D02*
X180047Y80087D01*
X180042Y80094D01*
X180049Y80100D01*
X180049Y87900D01*
X180013Y87947D01*
X180006Y87942D01*
X180000Y87949D01*
X177600Y87949D01*
X177553Y87913D01*
X177558Y87906D01*
X177551Y87900D01*
X177551Y80100D01*
X177587Y80053D01*
X177594Y80058D01*
X177600Y80051D01*
X180000Y80051D01*
X180047Y80087D01*
G37*
G36*
X170047Y80087D02*
X170047Y80087D01*
X170042Y80094D01*
X170049Y80100D01*
X170049Y87900D01*
X170013Y87947D01*
X170006Y87942D01*
X170000Y87949D01*
X167600Y87949D01*
X167553Y87913D01*
X167558Y87906D01*
X167551Y87900D01*
X167551Y80100D01*
X167587Y80053D01*
X167594Y80058D01*
X167600Y80051D01*
X170000Y80051D01*
X170047Y80087D01*
G37*
G36*
X205747Y74787D02*
X205747Y74787D01*
X205742Y74794D01*
X205749Y74800D01*
X205749Y77200D01*
X205713Y77247D01*
X205706Y77242D01*
X205700Y77249D01*
X197900Y77249D01*
X197853Y77213D01*
X197858Y77206D01*
X197851Y77200D01*
X197851Y74800D01*
X197887Y74753D01*
X197894Y74758D01*
X197900Y74751D01*
X205700Y74751D01*
X205747Y74787D01*
G37*
G36*
X164747Y74787D02*
X164747Y74787D01*
X164742Y74794D01*
X164749Y74800D01*
X164749Y77200D01*
X164713Y77247D01*
X164706Y77242D01*
X164700Y77249D01*
X156900Y77249D01*
X156853Y77213D01*
X156858Y77206D01*
X156851Y77200D01*
X156851Y74800D01*
X156887Y74753D01*
X156894Y74758D01*
X156900Y74751D01*
X164700Y74751D01*
X164747Y74787D01*
G37*
G36*
X205747Y69787D02*
X205747Y69787D01*
X205742Y69794D01*
X205749Y69800D01*
X205749Y72200D01*
X205713Y72247D01*
X205706Y72242D01*
X205700Y72249D01*
X197900Y72249D01*
X197853Y72213D01*
X197858Y72206D01*
X197851Y72200D01*
X197851Y69800D01*
X197887Y69753D01*
X197894Y69758D01*
X197900Y69751D01*
X205700Y69751D01*
X205747Y69787D01*
G37*
G36*
X164747Y69787D02*
X164747Y69787D01*
X164742Y69794D01*
X164749Y69800D01*
X164749Y72200D01*
X164713Y72247D01*
X164706Y72242D01*
X164700Y72249D01*
X156900Y72249D01*
X156853Y72213D01*
X156858Y72206D01*
X156851Y72200D01*
X156851Y69800D01*
X156887Y69753D01*
X156894Y69758D01*
X156900Y69751D01*
X164700Y69751D01*
X164747Y69787D01*
G37*
G36*
X205747Y64787D02*
X205747Y64787D01*
X205742Y64794D01*
X205749Y64800D01*
X205749Y67200D01*
X205713Y67247D01*
X205706Y67242D01*
X205700Y67249D01*
X197900Y67249D01*
X197853Y67213D01*
X197858Y67206D01*
X197851Y67200D01*
X197851Y64800D01*
X197887Y64753D01*
X197894Y64758D01*
X197900Y64751D01*
X205700Y64751D01*
X205747Y64787D01*
G37*
G36*
X164747Y64787D02*
X164747Y64787D01*
X164742Y64794D01*
X164749Y64800D01*
X164749Y67200D01*
X164713Y67247D01*
X164706Y67242D01*
X164700Y67249D01*
X156900Y67249D01*
X156853Y67213D01*
X156858Y67206D01*
X156851Y67200D01*
X156851Y64800D01*
X156887Y64753D01*
X156894Y64758D01*
X156900Y64751D01*
X164700Y64751D01*
X164747Y64787D01*
G37*
G36*
X164747Y59787D02*
X164747Y59787D01*
X164742Y59794D01*
X164749Y59800D01*
X164749Y62200D01*
X164713Y62247D01*
X164706Y62242D01*
X164700Y62249D01*
X156900Y62249D01*
X156853Y62213D01*
X156858Y62206D01*
X156851Y62200D01*
X156851Y59800D01*
X156887Y59753D01*
X156894Y59758D01*
X156900Y59751D01*
X164700Y59751D01*
X164747Y59787D01*
G37*
G36*
X205747Y59787D02*
X205747Y59787D01*
X205742Y59794D01*
X205749Y59800D01*
X205749Y62200D01*
X205713Y62247D01*
X205706Y62242D01*
X205700Y62249D01*
X197900Y62249D01*
X197853Y62213D01*
X197858Y62206D01*
X197851Y62200D01*
X197851Y59800D01*
X197887Y59753D01*
X197894Y59758D01*
X197900Y59751D01*
X205700Y59751D01*
X205747Y59787D01*
G37*
G36*
X205747Y54787D02*
X205747Y54787D01*
X205742Y54794D01*
X205749Y54800D01*
X205749Y57200D01*
X205713Y57247D01*
X205706Y57242D01*
X205700Y57249D01*
X197900Y57249D01*
X197853Y57213D01*
X197858Y57206D01*
X197851Y57200D01*
X197851Y54800D01*
X197887Y54753D01*
X197894Y54758D01*
X197900Y54751D01*
X205700Y54751D01*
X205747Y54787D01*
G37*
G36*
X164747Y54787D02*
X164747Y54787D01*
X164742Y54794D01*
X164749Y54800D01*
X164749Y57200D01*
X164713Y57247D01*
X164706Y57242D01*
X164700Y57249D01*
X156900Y57249D01*
X156853Y57213D01*
X156858Y57206D01*
X156851Y57200D01*
X156851Y54800D01*
X156887Y54753D01*
X156894Y54758D01*
X156900Y54751D01*
X164700Y54751D01*
X164747Y54787D01*
G37*
G36*
X205747Y49787D02*
X205747Y49787D01*
X205742Y49794D01*
X205749Y49800D01*
X205749Y52200D01*
X205713Y52247D01*
X205706Y52242D01*
X205700Y52249D01*
X197900Y52249D01*
X197853Y52213D01*
X197858Y52206D01*
X197851Y52200D01*
X197851Y49800D01*
X197887Y49753D01*
X197894Y49758D01*
X197900Y49751D01*
X205700Y49751D01*
X205747Y49787D01*
G37*
G36*
X164747Y49787D02*
X164747Y49787D01*
X164742Y49794D01*
X164749Y49800D01*
X164749Y52200D01*
X164713Y52247D01*
X164706Y52242D01*
X164700Y52249D01*
X156900Y52249D01*
X156853Y52213D01*
X156858Y52206D01*
X156851Y52200D01*
X156851Y49800D01*
X156887Y49753D01*
X156894Y49758D01*
X156900Y49751D01*
X164700Y49751D01*
X164747Y49787D01*
G37*
G36*
X180047Y39087D02*
X180047Y39087D01*
X180042Y39094D01*
X180049Y39100D01*
X180049Y46900D01*
X180013Y46947D01*
X180006Y46942D01*
X180000Y46949D01*
X177600Y46949D01*
X177553Y46913D01*
X177558Y46906D01*
X177551Y46900D01*
X177551Y39100D01*
X177587Y39053D01*
X177594Y39058D01*
X177600Y39051D01*
X180000Y39051D01*
X180047Y39087D01*
G37*
G36*
X190047Y39087D02*
X190047Y39087D01*
X190042Y39094D01*
X190049Y39100D01*
X190049Y46900D01*
X190013Y46947D01*
X190006Y46942D01*
X190000Y46949D01*
X187600Y46949D01*
X187553Y46913D01*
X187558Y46906D01*
X187551Y46900D01*
X187551Y39100D01*
X187587Y39053D01*
X187594Y39058D01*
X187600Y39051D01*
X190000Y39051D01*
X190047Y39087D01*
G37*
G36*
X170047Y39087D02*
X170047Y39087D01*
X170042Y39094D01*
X170049Y39100D01*
X170049Y46900D01*
X170013Y46947D01*
X170006Y46942D01*
X170000Y46949D01*
X167600Y46949D01*
X167553Y46913D01*
X167558Y46906D01*
X167551Y46900D01*
X167551Y39100D01*
X167587Y39053D01*
X167594Y39058D01*
X167600Y39051D01*
X170000Y39051D01*
X170047Y39087D01*
G37*
G36*
X185047Y39087D02*
X185047Y39087D01*
X185042Y39094D01*
X185049Y39100D01*
X185049Y46900D01*
X185013Y46947D01*
X185006Y46942D01*
X185000Y46949D01*
X182600Y46949D01*
X182553Y46913D01*
X182558Y46906D01*
X182551Y46900D01*
X182551Y39100D01*
X182587Y39053D01*
X182594Y39058D01*
X182600Y39051D01*
X185000Y39051D01*
X185047Y39087D01*
G37*
G36*
X175047Y39087D02*
X175047Y39087D01*
X175042Y39094D01*
X175049Y39100D01*
X175049Y46900D01*
X175013Y46947D01*
X175006Y46942D01*
X175000Y46949D01*
X172600Y46949D01*
X172553Y46913D01*
X172558Y46906D01*
X172551Y46900D01*
X172551Y39100D01*
X172587Y39053D01*
X172594Y39058D01*
X172600Y39051D01*
X175000Y39051D01*
X175047Y39087D01*
G37*
G36*
X195047Y39087D02*
X195047Y39087D01*
X195042Y39094D01*
X195049Y39100D01*
X195049Y46900D01*
X195013Y46947D01*
X195006Y46942D01*
X195000Y46949D01*
X192600Y46949D01*
X192553Y46913D01*
X192558Y46906D01*
X192551Y46900D01*
X192551Y39100D01*
X192587Y39053D01*
X192594Y39058D01*
X192600Y39051D01*
X195000Y39051D01*
X195047Y39087D01*
G37*
D10*
X27450Y171200D03*
X27450Y188200D03*
D11*
X238300Y35250D03*
X244800Y53650D03*
X251300Y53650D03*
X238300Y53650D03*
X244800Y35250D03*
X251300Y35250D03*
D12*
X156600Y17900D03*
X173600Y17900D03*
X236300Y19050D03*
X253300Y19050D03*
X236300Y69850D03*
X253300Y69850D03*
D10*
X219400Y52950D03*
X219400Y35950D03*
D13*
X275100Y55500D03*
X275100Y71500D03*
X316100Y71500D03*
X316100Y55500D03*
X316100Y33400D03*
X316100Y17400D03*
X275100Y17400D03*
X275100Y33400D03*
D14*
X512300Y183980D03*
X499600Y183980D03*
X486900Y183980D03*
X474200Y183980D03*
X461500Y183980D03*
X448800Y183980D03*
X436100Y183980D03*
X423400Y183980D03*
X410700Y183980D03*
X398000Y183980D03*
X385300Y183980D03*
X372600Y183980D03*
X359900Y183980D03*
X347200Y183980D03*
D15*
X332300Y158750D03*
X332300Y146050D03*
X332300Y133350D03*
X332300Y120650D03*
X332300Y107950D03*
X332300Y95250D03*
X332300Y82550D03*
X332300Y69850D03*
X332300Y57150D03*
X332300Y44450D03*
D14*
X347200Y19220D03*
X359900Y19220D03*
X372600Y19220D03*
X385300Y19220D03*
X398000Y19220D03*
X410700Y19220D03*
X423400Y19220D03*
X436100Y19220D03*
X448800Y19220D03*
X461500Y19220D03*
X474200Y19220D03*
X486900Y19220D03*
X499600Y19220D03*
X512300Y19220D03*
D16*
X435300Y101600D03*
D17*
X72201Y170200D03*
X72201Y179700D03*
X72201Y189200D03*
X46199Y189200D03*
X46199Y170200D03*
D18*
X3188610Y421930D03*
X3188610Y416930D03*
D19*
X3188610Y446680D03*
D20*
X3188610Y438930D03*
D18*
X3188610Y431930D03*
X3188610Y426930D03*
X3188610Y406930D03*
X3188610Y411930D03*
D19*
X3188610Y382180D03*
D20*
X3188610Y389930D03*
D18*
X3188610Y396930D03*
X3188610Y401930D03*
D12*
X3149900Y428400D03*
X3166900Y428400D03*
X3149900Y403000D03*
X3166900Y403000D03*
D21*
X3143000Y208500D03*
X3132000Y273500D03*
X3183000Y208500D03*
X3213000Y208500D03*
D22*
X135047Y177583D02*
X132462Y176803D01*
X132413Y176947D01*
X132360Y177089D01*
X132303Y177230D01*
X132243Y177369D01*
X132179Y177507D01*
X132112Y177643D01*
X132042Y177778D01*
X131968Y177910D01*
X131890Y178041D01*
X131809Y178169D01*
X131725Y178296D01*
X131638Y178420D01*
X131548Y178542D01*
X131454Y178662D01*
X131358Y178779D01*
X131259Y178894D01*
X131156Y179006D01*
X131051Y179115D01*
X130943Y179222D01*
X130833Y179326D01*
X130719Y179427D01*
X130604Y179526D01*
X130485Y179621D01*
X130365Y179713D01*
X130242Y179802D01*
X130117Y179888D01*
X129989Y179971D01*
X129860Y180050D01*
X129729Y180126D01*
X129595Y180199D01*
X129460Y180268D01*
X129323Y180334D01*
X129185Y180397D01*
X129045Y180455D01*
X128904Y180511D01*
X128761Y180562D01*
X128617Y180610D01*
X129370Y183203D01*
X129568Y183139D01*
X129764Y183071D01*
X129958Y182998D01*
X130151Y182920D01*
X130341Y182838D01*
X130530Y182751D01*
X130716Y182659D01*
X130900Y182563D01*
X131082Y182463D01*
X131261Y182358D01*
X131438Y182249D01*
X131612Y182136D01*
X131783Y182019D01*
X131952Y181898D01*
X132117Y181772D01*
X132280Y181643D01*
X132439Y181510D01*
X132595Y181373D01*
X132748Y181232D01*
X132897Y181088D01*
X133043Y180940D01*
X133185Y180789D01*
X133323Y180634D01*
X133458Y180476D01*
X133589Y180315D01*
X133716Y180151D01*
X133839Y179984D01*
X133958Y179814D01*
X134073Y179641D01*
X134184Y179465D01*
X134290Y179287D01*
X134392Y179106D01*
X134490Y178923D01*
X134583Y178738D01*
X134672Y178550D01*
X134757Y178360D01*
X134836Y178169D01*
X134912Y177975D01*
X134982Y177780D01*
X135048Y177583D01*
X134776Y177501D01*
X134712Y177691D01*
X134644Y177880D01*
X134571Y178067D01*
X134494Y178252D01*
X134413Y178435D01*
X134327Y178616D01*
X134237Y178795D01*
X134142Y178972D01*
X134043Y179147D01*
X133940Y179319D01*
X133833Y179488D01*
X133722Y179655D01*
X133607Y179820D01*
X133489Y179981D01*
X133366Y180140D01*
X133239Y180295D01*
X133109Y180448D01*
X132975Y180597D01*
X132838Y180743D01*
X132697Y180886D01*
X132553Y181026D01*
X132405Y181161D01*
X132255Y181294D01*
X132101Y181422D01*
X131944Y181547D01*
X131784Y181668D01*
X131622Y181786D01*
X131456Y181899D01*
X131288Y182008D01*
X131117Y182113D01*
X130944Y182215D01*
X130769Y182312D01*
X130591Y182404D01*
X130411Y182493D01*
X130229Y182577D01*
X130045Y182656D01*
X129859Y182732D01*
X129671Y182802D01*
X129482Y182869D01*
X129291Y182930D01*
X129212Y182658D01*
X129396Y182598D01*
X129578Y182534D01*
X129759Y182466D01*
X129939Y182393D01*
X130116Y182316D01*
X130292Y182235D01*
X130465Y182149D01*
X130637Y182060D01*
X130806Y181966D01*
X130973Y181869D01*
X131138Y181767D01*
X131300Y181662D01*
X131460Y181552D01*
X131617Y181439D01*
X131771Y181322D01*
X131922Y181202D01*
X132071Y181078D01*
X132216Y180950D01*
X132358Y180819D01*
X132497Y180684D01*
X132633Y180547D01*
X132766Y180406D01*
X132895Y180262D01*
X133020Y180114D01*
X133143Y179964D01*
X133261Y179811D01*
X133376Y179656D01*
X133487Y179497D01*
X133594Y179336D01*
X133697Y179172D01*
X133796Y179006D01*
X133892Y178838D01*
X133983Y178667D01*
X134070Y178495D01*
X134153Y178320D01*
X134232Y178143D01*
X134306Y177965D01*
X134377Y177784D01*
X134442Y177602D01*
X134504Y177419D01*
X134232Y177337D01*
X134171Y177518D01*
X134106Y177698D01*
X134036Y177876D01*
X133962Y178052D01*
X133883Y178226D01*
X133801Y178399D01*
X133714Y178569D01*
X133623Y178737D01*
X133528Y178903D01*
X133429Y179067D01*
X133325Y179228D01*
X133218Y179386D01*
X133107Y179542D01*
X132993Y179695D01*
X132874Y179845D01*
X132752Y179992D01*
X132627Y180136D01*
X132498Y180277D01*
X132365Y180415D01*
X132229Y180549D01*
X132090Y180680D01*
X131948Y180808D01*
X131802Y180932D01*
X131654Y181053D01*
X131503Y181170D01*
X131349Y181283D01*
X131192Y181392D01*
X131032Y181498D01*
X130870Y181599D01*
X130706Y181697D01*
X130539Y181790D01*
X130370Y181879D01*
X130199Y181964D01*
X130026Y182045D01*
X129850Y182122D01*
X129673Y182194D01*
X129495Y182262D01*
X129314Y182326D01*
X129133Y182385D01*
X129053Y182112D01*
X129228Y182055D01*
X129402Y181994D01*
X129573Y181928D01*
X129744Y181859D01*
X129912Y181785D01*
X130079Y181707D01*
X130243Y181625D01*
X130406Y181539D01*
X130566Y181449D01*
X130725Y181355D01*
X130881Y181257D01*
X131034Y181156D01*
X131185Y181051D01*
X131333Y180942D01*
X131479Y180829D01*
X131621Y180713D01*
X131761Y180594D01*
X131898Y180471D01*
X132032Y180345D01*
X132163Y180216D01*
X132290Y180083D01*
X132414Y179947D01*
X132535Y179809D01*
X132653Y179667D01*
X132767Y179523D01*
X132877Y179376D01*
X132984Y179226D01*
X133087Y179073D01*
X133186Y178919D01*
X133282Y178761D01*
X133373Y178602D01*
X133461Y178440D01*
X133544Y178276D01*
X133624Y178110D01*
X133700Y177943D01*
X133771Y177773D01*
X133838Y177602D01*
X133901Y177429D01*
X133960Y177255D01*
X133688Y177173D01*
X133632Y177340D01*
X133571Y177506D01*
X133506Y177671D01*
X133437Y177833D01*
X133365Y177995D01*
X133288Y178154D01*
X133208Y178311D01*
X133124Y178466D01*
X133035Y178620D01*
X132944Y178771D01*
X132848Y178919D01*
X132749Y179066D01*
X132647Y179210D01*
X132541Y179351D01*
X132431Y179490D01*
X132318Y179626D01*
X132202Y179759D01*
X132083Y179889D01*
X131960Y180016D01*
X131835Y180141D01*
X131706Y180262D01*
X131575Y180380D01*
X131440Y180495D01*
X131303Y180606D01*
X131163Y180714D01*
X131021Y180819D01*
X130876Y180920D01*
X130729Y181017D01*
X130579Y181111D01*
X130427Y181201D01*
X130273Y181288D01*
X130117Y181371D01*
X129959Y181449D01*
X129799Y181524D01*
X129637Y181595D01*
X129474Y181663D01*
X129309Y181726D01*
X129142Y181785D01*
X128974Y181839D01*
X128895Y181567D01*
X129056Y181514D01*
X129215Y181457D01*
X129374Y181397D01*
X129530Y181332D01*
X129686Y181264D01*
X129839Y181192D01*
X129991Y181116D01*
X130140Y181037D01*
X130288Y180954D01*
X130434Y180867D01*
X130577Y180777D01*
X130718Y180684D01*
X130857Y180587D01*
X130994Y180486D01*
X131128Y180383D01*
X131259Y180276D01*
X131388Y180166D01*
X131514Y180052D01*
X131638Y179936D01*
X131758Y179817D01*
X131875Y179695D01*
X131990Y179570D01*
X132101Y179442D01*
X132210Y179312D01*
X132315Y179179D01*
X132416Y179043D01*
X132515Y178905D01*
X132610Y178765D01*
X132701Y178623D01*
X132789Y178478D01*
X132874Y178331D01*
X132955Y178182D01*
X133032Y178031D01*
X133106Y177879D01*
X133175Y177724D01*
X133241Y177568D01*
X133303Y177410D01*
X133362Y177251D01*
X133416Y177091D01*
X133144Y177009D01*
X133092Y177162D01*
X133036Y177315D01*
X132976Y177465D01*
X132913Y177615D01*
X132846Y177763D01*
X132776Y177909D01*
X132702Y178053D01*
X132624Y178196D01*
X132543Y178336D01*
X132459Y178475D01*
X132371Y178611D01*
X132280Y178745D01*
X132186Y178877D01*
X132089Y179007D01*
X131988Y179134D01*
X131884Y179259D01*
X131778Y179381D01*
X131668Y179501D01*
X131556Y179618D01*
X131440Y179732D01*
X131322Y179843D01*
X131202Y179952D01*
X131078Y180057D01*
X130953Y180159D01*
X130824Y180259D01*
X130694Y180355D01*
X130561Y180448D01*
X130425Y180537D01*
X130288Y180623D01*
X130149Y180706D01*
X130007Y180786D01*
X129864Y180862D01*
X129719Y180935D01*
X129572Y181004D01*
X129424Y181069D01*
X129274Y181131D01*
X129122Y181189D01*
X128970Y181243D01*
X128815Y181294D01*
X128736Y181021D01*
X128887Y180971D01*
X129037Y180918D01*
X129185Y180860D01*
X129332Y180799D01*
X129477Y180735D01*
X129621Y180666D01*
X129763Y180595D01*
X129903Y180519D01*
X130041Y180440D01*
X130177Y180358D01*
X130311Y180273D01*
X130443Y180184D01*
X130573Y180092D01*
X130700Y179996D01*
X130825Y179898D01*
X130947Y179796D01*
X131067Y179691D01*
X131184Y179584D01*
X131299Y179473D01*
X131410Y179360D01*
X131519Y179244D01*
X131625Y179125D01*
X131728Y179004D01*
X131827Y178880D01*
X131924Y178754D01*
X132018Y178625D01*
X132108Y178494D01*
X132195Y178361D01*
X132278Y178226D01*
X132359Y178088D01*
X132435Y177949D01*
X132509Y177808D01*
X132578Y177665D01*
X132644Y177520D01*
X132707Y177374D01*
X132766Y177226D01*
X132821Y177077D01*
X132872Y176927D01*
X132600Y176845D01*
X132551Y176988D01*
X132498Y177130D01*
X132442Y177271D01*
X132383Y177410D01*
X132319Y177548D01*
X132253Y177684D01*
X132183Y177819D01*
X132110Y177952D01*
X132033Y178083D01*
X131953Y178211D01*
X131870Y178338D01*
X131784Y178463D01*
X131695Y178586D01*
X131603Y178706D01*
X131508Y178824D01*
X131410Y178940D01*
X131309Y179053D01*
X131205Y179164D01*
X131099Y179272D01*
X130990Y179377D01*
X130878Y179479D01*
X130764Y179579D01*
X130647Y179676D01*
X130528Y179770D01*
X130407Y179861D01*
X130284Y179949D01*
X130158Y180034D01*
X130030Y180115D01*
X129900Y180194D01*
X129769Y180269D01*
X129635Y180341D01*
X129500Y180409D01*
X129363Y180475D01*
X129225Y180536D01*
X129085Y180595D01*
X128943Y180649D01*
X128801Y180701D01*
X128657Y180748D01*
X129383Y167153D02*
X128603Y169738D01*
X128747Y169787D01*
X128889Y169840D01*
X129030Y169897D01*
X129169Y169957D01*
X129307Y170021D01*
X129443Y170088D01*
X129578Y170158D01*
X129710Y170232D01*
X129841Y170310D01*
X129969Y170391D01*
X130096Y170475D01*
X130220Y170562D01*
X130342Y170652D01*
X130462Y170746D01*
X130579Y170842D01*
X130694Y170941D01*
X130806Y171044D01*
X130915Y171149D01*
X131022Y171257D01*
X131126Y171367D01*
X131227Y171481D01*
X131326Y171596D01*
X131421Y171715D01*
X131513Y171835D01*
X131602Y171958D01*
X131688Y172083D01*
X131771Y172211D01*
X131850Y172340D01*
X131926Y172471D01*
X131999Y172605D01*
X132068Y172740D01*
X132134Y172877D01*
X132197Y173015D01*
X132255Y173155D01*
X132311Y173296D01*
X132362Y173439D01*
X132410Y173583D01*
X135003Y172830D01*
X134939Y172632D01*
X134871Y172436D01*
X134798Y172242D01*
X134720Y172049D01*
X134638Y171859D01*
X134551Y171670D01*
X134459Y171484D01*
X134363Y171300D01*
X134263Y171118D01*
X134158Y170939D01*
X134049Y170762D01*
X133936Y170588D01*
X133819Y170417D01*
X133698Y170248D01*
X133572Y170083D01*
X133443Y169920D01*
X133310Y169761D01*
X133173Y169605D01*
X133032Y169452D01*
X132888Y169303D01*
X132740Y169157D01*
X132589Y169015D01*
X132434Y168877D01*
X132276Y168742D01*
X132115Y168611D01*
X131951Y168484D01*
X131784Y168361D01*
X131614Y168242D01*
X131441Y168127D01*
X131265Y168016D01*
X131087Y167910D01*
X130906Y167808D01*
X130723Y167710D01*
X130538Y167617D01*
X130350Y167528D01*
X130160Y167443D01*
X129969Y167364D01*
X129775Y167288D01*
X129580Y167218D01*
X129383Y167152D01*
X129301Y167424D01*
X129491Y167488D01*
X129680Y167556D01*
X129867Y167629D01*
X130052Y167706D01*
X130235Y167787D01*
X130416Y167873D01*
X130595Y167963D01*
X130772Y168058D01*
X130947Y168157D01*
X131119Y168260D01*
X131288Y168367D01*
X131455Y168478D01*
X131620Y168593D01*
X131781Y168711D01*
X131940Y168834D01*
X132095Y168961D01*
X132248Y169091D01*
X132397Y169225D01*
X132543Y169362D01*
X132686Y169503D01*
X132826Y169647D01*
X132961Y169795D01*
X133094Y169945D01*
X133222Y170099D01*
X133347Y170256D01*
X133468Y170416D01*
X133586Y170578D01*
X133699Y170744D01*
X133808Y170912D01*
X133913Y171083D01*
X134015Y171256D01*
X134112Y171431D01*
X134204Y171609D01*
X134293Y171789D01*
X134377Y171971D01*
X134456Y172155D01*
X134532Y172341D01*
X134602Y172529D01*
X134669Y172718D01*
X134730Y172909D01*
X134458Y172988D01*
X134398Y172804D01*
X134334Y172622D01*
X134266Y172441D01*
X134193Y172261D01*
X134116Y172084D01*
X134035Y171908D01*
X133949Y171735D01*
X133860Y171563D01*
X133766Y171394D01*
X133669Y171227D01*
X133567Y171062D01*
X133462Y170900D01*
X133352Y170740D01*
X133239Y170583D01*
X133122Y170429D01*
X133002Y170278D01*
X132878Y170129D01*
X132750Y169984D01*
X132619Y169842D01*
X132484Y169703D01*
X132347Y169567D01*
X132206Y169434D01*
X132062Y169305D01*
X131914Y169180D01*
X131764Y169057D01*
X131611Y168939D01*
X131456Y168824D01*
X131297Y168713D01*
X131136Y168606D01*
X130972Y168503D01*
X130806Y168404D01*
X130638Y168308D01*
X130467Y168217D01*
X130295Y168130D01*
X130120Y168047D01*
X129943Y167968D01*
X129765Y167894D01*
X129584Y167823D01*
X129402Y167758D01*
X129219Y167696D01*
X129137Y167968D01*
X129318Y168029D01*
X129498Y168094D01*
X129676Y168164D01*
X129852Y168238D01*
X130026Y168317D01*
X130199Y168399D01*
X130369Y168486D01*
X130537Y168577D01*
X130703Y168672D01*
X130867Y168771D01*
X131028Y168875D01*
X131186Y168982D01*
X131342Y169093D01*
X131495Y169207D01*
X131645Y169326D01*
X131792Y169448D01*
X131936Y169573D01*
X132077Y169702D01*
X132215Y169835D01*
X132349Y169971D01*
X132480Y170110D01*
X132608Y170252D01*
X132732Y170398D01*
X132853Y170546D01*
X132970Y170697D01*
X133083Y170851D01*
X133192Y171008D01*
X133298Y171168D01*
X133399Y171330D01*
X133497Y171494D01*
X133590Y171661D01*
X133679Y171830D01*
X133764Y172001D01*
X133845Y172174D01*
X133922Y172350D01*
X133994Y172527D01*
X134062Y172705D01*
X134126Y172886D01*
X134185Y173067D01*
X133912Y173147D01*
X133855Y172972D01*
X133794Y172798D01*
X133728Y172627D01*
X133659Y172456D01*
X133585Y172288D01*
X133507Y172121D01*
X133425Y171957D01*
X133339Y171794D01*
X133249Y171634D01*
X133155Y171475D01*
X133057Y171319D01*
X132956Y171166D01*
X132851Y171015D01*
X132742Y170867D01*
X132629Y170721D01*
X132513Y170579D01*
X132394Y170439D01*
X132271Y170302D01*
X132145Y170168D01*
X132016Y170037D01*
X131883Y169910D01*
X131747Y169786D01*
X131609Y169665D01*
X131467Y169547D01*
X131323Y169433D01*
X131176Y169323D01*
X131026Y169216D01*
X130873Y169113D01*
X130719Y169014D01*
X130561Y168918D01*
X130402Y168827D01*
X130240Y168739D01*
X130076Y168656D01*
X129910Y168576D01*
X129743Y168500D01*
X129573Y168429D01*
X129402Y168362D01*
X129229Y168299D01*
X129055Y168240D01*
X128973Y168512D01*
X129140Y168568D01*
X129306Y168629D01*
X129471Y168694D01*
X129633Y168763D01*
X129795Y168835D01*
X129954Y168912D01*
X130111Y168992D01*
X130266Y169076D01*
X130420Y169165D01*
X130571Y169256D01*
X130719Y169352D01*
X130866Y169451D01*
X131010Y169553D01*
X131151Y169659D01*
X131290Y169769D01*
X131426Y169882D01*
X131559Y169998D01*
X131689Y170117D01*
X131816Y170240D01*
X131941Y170365D01*
X132062Y170494D01*
X132180Y170625D01*
X132295Y170760D01*
X132406Y170897D01*
X132514Y171037D01*
X132619Y171179D01*
X132720Y171324D01*
X132817Y171471D01*
X132911Y171621D01*
X133001Y171773D01*
X133088Y171927D01*
X133171Y172083D01*
X133249Y172241D01*
X133324Y172401D01*
X133395Y172563D01*
X133463Y172726D01*
X133526Y172891D01*
X133585Y173058D01*
X133639Y173226D01*
X133367Y173305D01*
X133314Y173144D01*
X133257Y172985D01*
X133197Y172826D01*
X133132Y172670D01*
X133064Y172514D01*
X132992Y172361D01*
X132916Y172209D01*
X132837Y172060D01*
X132754Y171912D01*
X132667Y171766D01*
X132577Y171623D01*
X132484Y171482D01*
X132387Y171343D01*
X132286Y171206D01*
X132183Y171072D01*
X132076Y170941D01*
X131966Y170812D01*
X131852Y170686D01*
X131736Y170562D01*
X131617Y170442D01*
X131495Y170325D01*
X131370Y170210D01*
X131242Y170099D01*
X131112Y169990D01*
X130979Y169885D01*
X130843Y169784D01*
X130705Y169685D01*
X130565Y169590D01*
X130423Y169499D01*
X130278Y169411D01*
X130131Y169326D01*
X129982Y169245D01*
X129831Y169168D01*
X129679Y169094D01*
X129524Y169025D01*
X129368Y168959D01*
X129210Y168897D01*
X129051Y168838D01*
X128891Y168784D01*
X128809Y169056D01*
X128962Y169108D01*
X129115Y169164D01*
X129265Y169224D01*
X129415Y169287D01*
X129563Y169354D01*
X129709Y169424D01*
X129853Y169498D01*
X129996Y169576D01*
X130136Y169657D01*
X130275Y169741D01*
X130411Y169829D01*
X130545Y169920D01*
X130677Y170014D01*
X130807Y170111D01*
X130934Y170212D01*
X131059Y170316D01*
X131181Y170422D01*
X131301Y170532D01*
X131418Y170644D01*
X131532Y170760D01*
X131643Y170878D01*
X131752Y170998D01*
X131857Y171122D01*
X131959Y171247D01*
X132059Y171376D01*
X132155Y171506D01*
X132248Y171639D01*
X132337Y171775D01*
X132423Y171912D01*
X132506Y172051D01*
X132586Y172193D01*
X132662Y172336D01*
X132735Y172481D01*
X132804Y172628D01*
X132869Y172776D01*
X132931Y172926D01*
X132989Y173078D01*
X133043Y173230D01*
X133094Y173385D01*
X132821Y173464D01*
X132771Y173313D01*
X132718Y173163D01*
X132660Y173015D01*
X132599Y172868D01*
X132535Y172723D01*
X132466Y172579D01*
X132395Y172437D01*
X132319Y172297D01*
X132240Y172159D01*
X132158Y172023D01*
X132073Y171889D01*
X131984Y171757D01*
X131892Y171627D01*
X131796Y171500D01*
X131698Y171375D01*
X131596Y171253D01*
X131491Y171133D01*
X131384Y171016D01*
X131273Y170901D01*
X131160Y170790D01*
X131044Y170681D01*
X130925Y170575D01*
X130804Y170472D01*
X130680Y170373D01*
X130554Y170276D01*
X130425Y170182D01*
X130294Y170092D01*
X130161Y170005D01*
X130026Y169922D01*
X129888Y169841D01*
X129749Y169765D01*
X129608Y169691D01*
X129465Y169622D01*
X129320Y169556D01*
X129174Y169493D01*
X129026Y169434D01*
X128877Y169379D01*
X128727Y169328D01*
X128645Y169600D01*
X128788Y169649D01*
X128930Y169702D01*
X129071Y169758D01*
X129210Y169817D01*
X129348Y169881D01*
X129484Y169947D01*
X129619Y170017D01*
X129752Y170090D01*
X129883Y170167D01*
X130011Y170247D01*
X130138Y170330D01*
X130263Y170416D01*
X130386Y170505D01*
X130506Y170597D01*
X130624Y170692D01*
X130740Y170790D01*
X130853Y170891D01*
X130964Y170995D01*
X131072Y171101D01*
X131177Y171210D01*
X131279Y171322D01*
X131379Y171436D01*
X131476Y171553D01*
X131570Y171672D01*
X131661Y171793D01*
X131749Y171916D01*
X131834Y172042D01*
X131915Y172170D01*
X131994Y172300D01*
X132069Y172431D01*
X132141Y172565D01*
X132209Y172700D01*
X132275Y172837D01*
X132336Y172975D01*
X132395Y173115D01*
X132449Y173257D01*
X132501Y173399D01*
X132548Y173543D01*
X124617Y183247D02*
X125397Y180662D01*
X125253Y180613D01*
X125111Y180560D01*
X124970Y180503D01*
X124831Y180443D01*
X124693Y180379D01*
X124557Y180312D01*
X124422Y180242D01*
X124290Y180168D01*
X124159Y180090D01*
X124031Y180009D01*
X123904Y179925D01*
X123780Y179838D01*
X123658Y179748D01*
X123538Y179654D01*
X123421Y179558D01*
X123306Y179459D01*
X123194Y179356D01*
X123085Y179251D01*
X122978Y179143D01*
X122874Y179033D01*
X122773Y178919D01*
X122674Y178804D01*
X122579Y178685D01*
X122487Y178565D01*
X122398Y178442D01*
X122312Y178317D01*
X122229Y178189D01*
X122150Y178060D01*
X122074Y177929D01*
X122001Y177795D01*
X121932Y177660D01*
X121866Y177523D01*
X121803Y177385D01*
X121745Y177245D01*
X121689Y177104D01*
X121638Y176961D01*
X121590Y176817D01*
X118997Y177570D01*
X119061Y177768D01*
X119129Y177964D01*
X119202Y178158D01*
X119280Y178351D01*
X119362Y178541D01*
X119449Y178730D01*
X119541Y178916D01*
X119637Y179100D01*
X119737Y179282D01*
X119842Y179461D01*
X119951Y179638D01*
X120064Y179812D01*
X120181Y179983D01*
X120302Y180152D01*
X120428Y180317D01*
X120557Y180480D01*
X120690Y180639D01*
X120827Y180795D01*
X120968Y180948D01*
X121112Y181097D01*
X121260Y181243D01*
X121411Y181385D01*
X121566Y181523D01*
X121724Y181658D01*
X121885Y181789D01*
X122049Y181916D01*
X122216Y182039D01*
X122386Y182158D01*
X122559Y182273D01*
X122735Y182384D01*
X122913Y182490D01*
X123094Y182592D01*
X123277Y182690D01*
X123462Y182783D01*
X123650Y182872D01*
X123840Y182957D01*
X124031Y183036D01*
X124225Y183112D01*
X124420Y183182D01*
X124617Y183248D01*
X124699Y182976D01*
X124509Y182912D01*
X124320Y182844D01*
X124133Y182771D01*
X123948Y182694D01*
X123765Y182613D01*
X123584Y182527D01*
X123405Y182437D01*
X123228Y182342D01*
X123053Y182243D01*
X122881Y182140D01*
X122712Y182033D01*
X122545Y181922D01*
X122380Y181807D01*
X122219Y181689D01*
X122060Y181566D01*
X121905Y181439D01*
X121752Y181309D01*
X121603Y181175D01*
X121457Y181038D01*
X121314Y180897D01*
X121174Y180753D01*
X121039Y180605D01*
X120906Y180455D01*
X120778Y180301D01*
X120653Y180144D01*
X120532Y179984D01*
X120414Y179822D01*
X120301Y179656D01*
X120192Y179488D01*
X120087Y179317D01*
X119985Y179144D01*
X119888Y178969D01*
X119796Y178791D01*
X119707Y178611D01*
X119623Y178429D01*
X119544Y178245D01*
X119468Y178059D01*
X119398Y177871D01*
X119331Y177682D01*
X119270Y177491D01*
X119542Y177412D01*
X119602Y177596D01*
X119666Y177778D01*
X119734Y177959D01*
X119807Y178139D01*
X119884Y178316D01*
X119965Y178492D01*
X120051Y178665D01*
X120140Y178837D01*
X120234Y179006D01*
X120331Y179173D01*
X120433Y179338D01*
X120538Y179500D01*
X120648Y179660D01*
X120761Y179817D01*
X120878Y179971D01*
X120998Y180122D01*
X121122Y180271D01*
X121250Y180416D01*
X121381Y180558D01*
X121516Y180697D01*
X121653Y180833D01*
X121794Y180966D01*
X121938Y181095D01*
X122086Y181220D01*
X122236Y181343D01*
X122389Y181461D01*
X122544Y181576D01*
X122703Y181687D01*
X122864Y181794D01*
X123028Y181897D01*
X123194Y181996D01*
X123362Y182092D01*
X123533Y182183D01*
X123705Y182270D01*
X123880Y182353D01*
X124057Y182432D01*
X124235Y182506D01*
X124416Y182577D01*
X124598Y182642D01*
X124781Y182704D01*
X124863Y182432D01*
X124682Y182371D01*
X124502Y182306D01*
X124324Y182236D01*
X124148Y182162D01*
X123974Y182083D01*
X123801Y182001D01*
X123631Y181914D01*
X123463Y181823D01*
X123297Y181728D01*
X123133Y181629D01*
X122972Y181525D01*
X122814Y181418D01*
X122658Y181307D01*
X122505Y181193D01*
X122355Y181074D01*
X122208Y180952D01*
X122064Y180827D01*
X121923Y180698D01*
X121785Y180565D01*
X121651Y180429D01*
X121520Y180290D01*
X121392Y180148D01*
X121268Y180002D01*
X121147Y179854D01*
X121030Y179703D01*
X120917Y179549D01*
X120808Y179392D01*
X120702Y179232D01*
X120601Y179070D01*
X120503Y178906D01*
X120410Y178739D01*
X120321Y178570D01*
X120236Y178399D01*
X120155Y178226D01*
X120078Y178050D01*
X120006Y177873D01*
X119938Y177695D01*
X119874Y177514D01*
X119815Y177333D01*
X120088Y177253D01*
X120145Y177428D01*
X120206Y177602D01*
X120272Y177773D01*
X120341Y177944D01*
X120415Y178112D01*
X120493Y178279D01*
X120575Y178443D01*
X120661Y178606D01*
X120751Y178766D01*
X120845Y178925D01*
X120943Y179081D01*
X121044Y179234D01*
X121149Y179385D01*
X121258Y179533D01*
X121371Y179679D01*
X121487Y179821D01*
X121606Y179961D01*
X121729Y180098D01*
X121855Y180232D01*
X121984Y180363D01*
X122117Y180490D01*
X122253Y180614D01*
X122391Y180735D01*
X122533Y180853D01*
X122677Y180967D01*
X122824Y181077D01*
X122974Y181184D01*
X123127Y181287D01*
X123281Y181386D01*
X123439Y181482D01*
X123598Y181573D01*
X123760Y181661D01*
X123924Y181744D01*
X124090Y181824D01*
X124257Y181900D01*
X124427Y181971D01*
X124598Y182038D01*
X124771Y182101D01*
X124945Y182160D01*
X125027Y181888D01*
X124860Y181832D01*
X124694Y181771D01*
X124529Y181706D01*
X124367Y181637D01*
X124205Y181565D01*
X124046Y181488D01*
X123889Y181408D01*
X123734Y181324D01*
X123580Y181235D01*
X123429Y181144D01*
X123281Y181048D01*
X123134Y180949D01*
X122990Y180847D01*
X122849Y180741D01*
X122710Y180631D01*
X122574Y180518D01*
X122441Y180402D01*
X122311Y180283D01*
X122184Y180160D01*
X122059Y180035D01*
X121938Y179906D01*
X121820Y179775D01*
X121705Y179640D01*
X121594Y179503D01*
X121486Y179363D01*
X121381Y179221D01*
X121280Y179076D01*
X121183Y178929D01*
X121089Y178779D01*
X120999Y178627D01*
X120912Y178473D01*
X120829Y178317D01*
X120751Y178159D01*
X120676Y177999D01*
X120605Y177837D01*
X120537Y177674D01*
X120474Y177509D01*
X120415Y177342D01*
X120361Y177174D01*
X120633Y177095D01*
X120686Y177256D01*
X120743Y177415D01*
X120803Y177574D01*
X120868Y177730D01*
X120936Y177886D01*
X121008Y178039D01*
X121084Y178191D01*
X121163Y178340D01*
X121246Y178488D01*
X121333Y178634D01*
X121423Y178777D01*
X121516Y178918D01*
X121613Y179057D01*
X121714Y179194D01*
X121817Y179328D01*
X121924Y179459D01*
X122034Y179588D01*
X122148Y179714D01*
X122264Y179838D01*
X122383Y179958D01*
X122505Y180075D01*
X122630Y180190D01*
X122758Y180301D01*
X122888Y180410D01*
X123021Y180515D01*
X123157Y180616D01*
X123295Y180715D01*
X123435Y180810D01*
X123577Y180901D01*
X123722Y180989D01*
X123869Y181074D01*
X124018Y181155D01*
X124169Y181232D01*
X124321Y181306D01*
X124476Y181375D01*
X124632Y181441D01*
X124790Y181503D01*
X124949Y181562D01*
X125109Y181616D01*
X125191Y181344D01*
X125038Y181292D01*
X124885Y181236D01*
X124735Y181176D01*
X124585Y181113D01*
X124437Y181046D01*
X124291Y180976D01*
X124147Y180902D01*
X124004Y180824D01*
X123864Y180743D01*
X123725Y180659D01*
X123589Y180571D01*
X123455Y180480D01*
X123323Y180386D01*
X123193Y180289D01*
X123066Y180188D01*
X122941Y180084D01*
X122819Y179978D01*
X122699Y179868D01*
X122582Y179756D01*
X122468Y179640D01*
X122357Y179522D01*
X122248Y179402D01*
X122143Y179278D01*
X122041Y179153D01*
X121941Y179024D01*
X121845Y178894D01*
X121752Y178761D01*
X121663Y178625D01*
X121577Y178488D01*
X121494Y178349D01*
X121414Y178207D01*
X121338Y178064D01*
X121265Y177919D01*
X121196Y177772D01*
X121131Y177624D01*
X121069Y177474D01*
X121011Y177322D01*
X120957Y177170D01*
X120906Y177015D01*
X121179Y176936D01*
X121229Y177087D01*
X121282Y177237D01*
X121340Y177385D01*
X121401Y177532D01*
X121465Y177677D01*
X121534Y177821D01*
X121605Y177963D01*
X121681Y178103D01*
X121760Y178241D01*
X121842Y178377D01*
X121927Y178511D01*
X122016Y178643D01*
X122108Y178773D01*
X122204Y178900D01*
X122302Y179025D01*
X122404Y179147D01*
X122509Y179267D01*
X122616Y179384D01*
X122727Y179499D01*
X122840Y179610D01*
X122956Y179719D01*
X123075Y179825D01*
X123196Y179928D01*
X123320Y180027D01*
X123446Y180124D01*
X123575Y180218D01*
X123706Y180308D01*
X123839Y180395D01*
X123974Y180478D01*
X124112Y180559D01*
X124251Y180635D01*
X124392Y180709D01*
X124535Y180778D01*
X124680Y180844D01*
X124826Y180907D01*
X124974Y180966D01*
X125123Y181021D01*
X125273Y181072D01*
X125355Y180800D01*
X125212Y180751D01*
X125070Y180698D01*
X124929Y180642D01*
X124790Y180583D01*
X124652Y180519D01*
X124516Y180453D01*
X124381Y180383D01*
X124248Y180310D01*
X124117Y180233D01*
X123989Y180153D01*
X123862Y180070D01*
X123737Y179984D01*
X123614Y179895D01*
X123494Y179803D01*
X123376Y179708D01*
X123260Y179610D01*
X123147Y179509D01*
X123036Y179405D01*
X122928Y179299D01*
X122823Y179190D01*
X122721Y179078D01*
X122621Y178964D01*
X122524Y178847D01*
X122430Y178728D01*
X122339Y178607D01*
X122251Y178484D01*
X122166Y178358D01*
X122085Y178230D01*
X122006Y178100D01*
X121931Y177969D01*
X121859Y177835D01*
X121791Y177700D01*
X121725Y177563D01*
X121664Y177425D01*
X121605Y177285D01*
X121551Y177143D01*
X121499Y177001D01*
X121452Y176857D01*
X118953Y172817D02*
X121538Y173597D01*
X121587Y173453D01*
X121640Y173311D01*
X121697Y173170D01*
X121757Y173031D01*
X121821Y172893D01*
X121888Y172757D01*
X121958Y172622D01*
X122032Y172490D01*
X122110Y172359D01*
X122191Y172231D01*
X122275Y172104D01*
X122362Y171980D01*
X122452Y171858D01*
X122546Y171738D01*
X122642Y171621D01*
X122741Y171506D01*
X122844Y171394D01*
X122949Y171285D01*
X123057Y171178D01*
X123167Y171074D01*
X123281Y170973D01*
X123396Y170874D01*
X123515Y170779D01*
X123635Y170687D01*
X123758Y170598D01*
X123883Y170512D01*
X124011Y170429D01*
X124140Y170350D01*
X124271Y170274D01*
X124405Y170201D01*
X124540Y170132D01*
X124677Y170066D01*
X124815Y170003D01*
X124955Y169945D01*
X125096Y169889D01*
X125239Y169838D01*
X125383Y169790D01*
X124630Y167197D01*
X124432Y167261D01*
X124236Y167329D01*
X124042Y167402D01*
X123849Y167480D01*
X123659Y167562D01*
X123470Y167649D01*
X123284Y167741D01*
X123100Y167837D01*
X122918Y167937D01*
X122739Y168042D01*
X122562Y168151D01*
X122388Y168264D01*
X122217Y168381D01*
X122048Y168502D01*
X121883Y168628D01*
X121720Y168757D01*
X121561Y168890D01*
X121405Y169027D01*
X121252Y169168D01*
X121103Y169312D01*
X120957Y169460D01*
X120815Y169611D01*
X120677Y169766D01*
X120542Y169924D01*
X120411Y170085D01*
X120284Y170249D01*
X120161Y170416D01*
X120042Y170586D01*
X119927Y170759D01*
X119816Y170935D01*
X119710Y171113D01*
X119608Y171294D01*
X119510Y171477D01*
X119417Y171662D01*
X119328Y171850D01*
X119243Y172040D01*
X119164Y172231D01*
X119088Y172425D01*
X119018Y172620D01*
X118952Y172817D01*
X119224Y172899D01*
X119288Y172709D01*
X119356Y172520D01*
X119429Y172333D01*
X119506Y172148D01*
X119587Y171965D01*
X119673Y171784D01*
X119763Y171605D01*
X119858Y171428D01*
X119957Y171253D01*
X120060Y171081D01*
X120167Y170912D01*
X120278Y170745D01*
X120393Y170580D01*
X120511Y170419D01*
X120634Y170260D01*
X120761Y170105D01*
X120891Y169952D01*
X121025Y169803D01*
X121162Y169657D01*
X121303Y169514D01*
X121447Y169374D01*
X121595Y169239D01*
X121745Y169106D01*
X121899Y168978D01*
X122056Y168853D01*
X122216Y168732D01*
X122378Y168614D01*
X122544Y168501D01*
X122712Y168392D01*
X122883Y168287D01*
X123056Y168185D01*
X123231Y168088D01*
X123409Y167996D01*
X123589Y167907D01*
X123771Y167823D01*
X123955Y167744D01*
X124141Y167668D01*
X124329Y167598D01*
X124518Y167531D01*
X124709Y167470D01*
X124788Y167742D01*
X124604Y167802D01*
X124422Y167866D01*
X124241Y167934D01*
X124061Y168007D01*
X123884Y168084D01*
X123708Y168165D01*
X123535Y168251D01*
X123363Y168340D01*
X123194Y168434D01*
X123027Y168531D01*
X122862Y168633D01*
X122700Y168738D01*
X122540Y168848D01*
X122383Y168961D01*
X122229Y169078D01*
X122078Y169198D01*
X121929Y169322D01*
X121784Y169450D01*
X121642Y169581D01*
X121503Y169716D01*
X121367Y169853D01*
X121234Y169994D01*
X121105Y170138D01*
X120980Y170286D01*
X120857Y170436D01*
X120739Y170589D01*
X120624Y170744D01*
X120513Y170903D01*
X120406Y171064D01*
X120303Y171228D01*
X120204Y171394D01*
X120108Y171562D01*
X120017Y171733D01*
X119930Y171905D01*
X119847Y172080D01*
X119768Y172257D01*
X119694Y172435D01*
X119623Y172616D01*
X119558Y172798D01*
X119496Y172981D01*
X119768Y173063D01*
X119829Y172882D01*
X119894Y172702D01*
X119964Y172524D01*
X120038Y172348D01*
X120117Y172174D01*
X120199Y172001D01*
X120286Y171831D01*
X120377Y171663D01*
X120472Y171497D01*
X120571Y171333D01*
X120675Y171172D01*
X120782Y171014D01*
X120893Y170858D01*
X121007Y170705D01*
X121126Y170555D01*
X121248Y170408D01*
X121373Y170264D01*
X121502Y170123D01*
X121635Y169985D01*
X121771Y169851D01*
X121910Y169720D01*
X122052Y169592D01*
X122198Y169468D01*
X122346Y169347D01*
X122497Y169230D01*
X122651Y169117D01*
X122808Y169008D01*
X122968Y168902D01*
X123130Y168801D01*
X123294Y168703D01*
X123461Y168610D01*
X123630Y168521D01*
X123801Y168436D01*
X123974Y168355D01*
X124150Y168278D01*
X124327Y168206D01*
X124505Y168138D01*
X124686Y168074D01*
X124867Y168015D01*
X124947Y168288D01*
X124772Y168345D01*
X124598Y168406D01*
X124427Y168472D01*
X124256Y168541D01*
X124088Y168615D01*
X123921Y168693D01*
X123757Y168775D01*
X123594Y168861D01*
X123434Y168951D01*
X123275Y169045D01*
X123119Y169143D01*
X122966Y169244D01*
X122815Y169349D01*
X122667Y169458D01*
X122521Y169571D01*
X122379Y169687D01*
X122239Y169806D01*
X122102Y169929D01*
X121968Y170055D01*
X121837Y170184D01*
X121710Y170317D01*
X121586Y170453D01*
X121465Y170591D01*
X121347Y170733D01*
X121233Y170877D01*
X121123Y171024D01*
X121016Y171174D01*
X120913Y171327D01*
X120814Y171481D01*
X120718Y171639D01*
X120627Y171798D01*
X120539Y171960D01*
X120456Y172124D01*
X120376Y172290D01*
X120300Y172457D01*
X120229Y172627D01*
X120162Y172798D01*
X120099Y172971D01*
X120040Y173145D01*
X120312Y173227D01*
X120368Y173060D01*
X120429Y172894D01*
X120494Y172729D01*
X120563Y172567D01*
X120635Y172405D01*
X120712Y172246D01*
X120792Y172089D01*
X120876Y171934D01*
X120965Y171780D01*
X121056Y171629D01*
X121152Y171481D01*
X121251Y171334D01*
X121353Y171190D01*
X121459Y171049D01*
X121569Y170910D01*
X121682Y170774D01*
X121798Y170641D01*
X121917Y170511D01*
X122040Y170384D01*
X122165Y170259D01*
X122294Y170138D01*
X122425Y170020D01*
X122560Y169905D01*
X122697Y169794D01*
X122837Y169686D01*
X122979Y169581D01*
X123124Y169480D01*
X123271Y169383D01*
X123421Y169289D01*
X123573Y169199D01*
X123727Y169112D01*
X123883Y169029D01*
X124041Y168951D01*
X124201Y168876D01*
X124363Y168805D01*
X124526Y168737D01*
X124691Y168674D01*
X124858Y168615D01*
X125026Y168561D01*
X125105Y168833D01*
X124944Y168886D01*
X124785Y168943D01*
X124626Y169003D01*
X124470Y169068D01*
X124314Y169136D01*
X124161Y169208D01*
X124009Y169284D01*
X123860Y169363D01*
X123712Y169446D01*
X123566Y169533D01*
X123423Y169623D01*
X123282Y169716D01*
X123143Y169813D01*
X123006Y169914D01*
X122872Y170017D01*
X122741Y170124D01*
X122612Y170234D01*
X122486Y170348D01*
X122362Y170464D01*
X122242Y170583D01*
X122125Y170705D01*
X122010Y170830D01*
X121899Y170958D01*
X121790Y171088D01*
X121685Y171221D01*
X121584Y171357D01*
X121485Y171495D01*
X121390Y171635D01*
X121299Y171777D01*
X121211Y171922D01*
X121126Y172069D01*
X121045Y172218D01*
X120968Y172369D01*
X120894Y172521D01*
X120825Y172676D01*
X120759Y172832D01*
X120697Y172990D01*
X120638Y173149D01*
X120584Y173309D01*
X120856Y173391D01*
X120908Y173238D01*
X120964Y173085D01*
X121024Y172935D01*
X121087Y172785D01*
X121154Y172637D01*
X121224Y172491D01*
X121298Y172347D01*
X121376Y172204D01*
X121457Y172064D01*
X121541Y171925D01*
X121629Y171789D01*
X121720Y171655D01*
X121814Y171523D01*
X121911Y171393D01*
X122012Y171266D01*
X122116Y171141D01*
X122222Y171019D01*
X122332Y170899D01*
X122444Y170782D01*
X122560Y170668D01*
X122678Y170557D01*
X122798Y170448D01*
X122922Y170343D01*
X123047Y170241D01*
X123176Y170141D01*
X123306Y170045D01*
X123439Y169952D01*
X123575Y169863D01*
X123712Y169777D01*
X123851Y169694D01*
X123993Y169614D01*
X124136Y169538D01*
X124281Y169465D01*
X124428Y169396D01*
X124576Y169331D01*
X124726Y169269D01*
X124878Y169211D01*
X125030Y169157D01*
X125185Y169106D01*
X125264Y169379D01*
X125113Y169429D01*
X124963Y169482D01*
X124815Y169540D01*
X124668Y169601D01*
X124523Y169665D01*
X124379Y169734D01*
X124237Y169805D01*
X124097Y169881D01*
X123959Y169960D01*
X123823Y170042D01*
X123689Y170127D01*
X123557Y170216D01*
X123427Y170308D01*
X123300Y170404D01*
X123175Y170502D01*
X123053Y170604D01*
X122933Y170709D01*
X122816Y170816D01*
X122701Y170927D01*
X122590Y171040D01*
X122481Y171156D01*
X122375Y171275D01*
X122272Y171396D01*
X122173Y171520D01*
X122076Y171646D01*
X121982Y171775D01*
X121892Y171906D01*
X121805Y172039D01*
X121722Y172174D01*
X121641Y172312D01*
X121565Y172451D01*
X121491Y172592D01*
X121422Y172735D01*
X121356Y172880D01*
X121293Y173026D01*
X121234Y173174D01*
X121179Y173323D01*
X121128Y173473D01*
X121400Y173555D01*
X121449Y173412D01*
X121502Y173270D01*
X121558Y173129D01*
X121617Y172990D01*
X121681Y172852D01*
X121747Y172716D01*
X121817Y172581D01*
X121890Y172448D01*
X121967Y172317D01*
X122047Y172189D01*
X122130Y172062D01*
X122216Y171937D01*
X122305Y171814D01*
X122397Y171694D01*
X122492Y171576D01*
X122590Y171460D01*
X122691Y171347D01*
X122795Y171236D01*
X122901Y171128D01*
X123010Y171023D01*
X123122Y170921D01*
X123236Y170821D01*
X123353Y170724D01*
X123472Y170630D01*
X123593Y170539D01*
X123716Y170451D01*
X123842Y170366D01*
X123970Y170285D01*
X124100Y170206D01*
X124231Y170131D01*
X124365Y170059D01*
X124500Y169991D01*
X124637Y169925D01*
X124775Y169864D01*
X124915Y169805D01*
X125057Y169751D01*
X125199Y169699D01*
X125343Y169652D01*
D23*
X119000Y162200D03*
D24*
X153200Y175200D03*
X153200Y187200D03*
D23*
X119000Y188200D03*
D24*
X153200Y163200D03*
D10*
X175800Y182200D03*
X175800Y165200D03*
D12*
X255500Y166400D03*
X238500Y166400D03*
D17*
X256699Y142800D03*
X256699Y133300D03*
X256699Y123800D03*
X282701Y123800D03*
X282701Y142800D03*
D10*
X232950Y124800D03*
X232950Y141800D03*
X194850Y141800D03*
X194850Y124800D03*
X213900Y124800D03*
X213900Y141800D03*
D12*
X261500Y110000D03*
X278500Y110000D03*
D10*
X301450Y141800D03*
X301450Y124800D03*
D12*
X255500Y185450D03*
X238500Y185450D03*
X3143500Y135000D03*
X3126500Y135000D03*
D10*
X3200000Y311500D03*
X3200000Y328500D03*
X3160000Y328500D03*
X3160000Y311500D03*
D12*
X3143500Y165000D03*
X3126500Y165000D03*
D10*
X3180000Y311500D03*
X3180000Y328500D03*
D12*
X3126500Y150000D03*
X3143500Y150000D03*
X3188500Y295000D03*
X3171500Y295000D03*
X3126500Y185000D03*
X3143500Y185000D03*
D25*
X250770Y1859000D03*
X199230Y1859000D03*
X199230Y1891000D03*
X250770Y1891000D03*
X400770Y1859000D03*
X349230Y1859000D03*
X349230Y1891000D03*
X400770Y1891000D03*
X550770Y1859000D03*
X499230Y1859000D03*
X499230Y1891000D03*
X550770Y1891000D03*
X700770Y1859000D03*
X649230Y1859000D03*
X649230Y1891000D03*
X700770Y1891000D03*
X850770Y1859000D03*
X799230Y1859000D03*
X799230Y1891000D03*
X850770Y1891000D03*
X1000770Y1859000D03*
X949230Y1859000D03*
X949230Y1891000D03*
X1000770Y1891000D03*
X1150770Y1859000D03*
X1099230Y1859000D03*
X1099230Y1891000D03*
X1150770Y1891000D03*
X1300770Y1859000D03*
X1249230Y1859000D03*
X1249230Y1891000D03*
X1300770Y1891000D03*
X1450770Y1859000D03*
X1399230Y1859000D03*
X1399230Y1891000D03*
X1450770Y1891000D03*
X1900770Y1859000D03*
X1849230Y1859000D03*
X1849230Y1891000D03*
X1900770Y1891000D03*
X2050770Y1859000D03*
X1999230Y1859000D03*
X1999230Y1891000D03*
X2050770Y1891000D03*
X2200770Y1859000D03*
X2149230Y1859000D03*
X2149230Y1891000D03*
X2200770Y1891000D03*
X2350770Y1859000D03*
X2299230Y1859000D03*
X2299230Y1891000D03*
X2350770Y1891000D03*
X2500770Y1859000D03*
X2449230Y1859000D03*
X2449230Y1891000D03*
X2500770Y1891000D03*
X2650770Y1859000D03*
X2599230Y1859000D03*
X2599230Y1891000D03*
X2650770Y1891000D03*
X2800770Y1859000D03*
X2749230Y1859000D03*
X2749230Y1891000D03*
X2800770Y1891000D03*
X2950770Y1859000D03*
X2899230Y1859000D03*
X2899230Y1891000D03*
X2950770Y1891000D03*
X100770Y1709000D03*
X49230Y1709000D03*
X49230Y1741000D03*
X100770Y1741000D03*
X250770Y1709000D03*
X199230Y1709000D03*
X199230Y1741000D03*
X250770Y1741000D03*
X400770Y1709000D03*
X349230Y1709000D03*
X349230Y1741000D03*
X400770Y1741000D03*
X550770Y1709000D03*
X499230Y1709000D03*
X499230Y1741000D03*
X550770Y1741000D03*
X700770Y1709000D03*
X649230Y1709000D03*
X649230Y1741000D03*
X700770Y1741000D03*
X850770Y1709000D03*
X799230Y1709000D03*
X799230Y1741000D03*
X850770Y1741000D03*
X1000770Y1709000D03*
X949230Y1709000D03*
X949230Y1741000D03*
X1000770Y1741000D03*
X1150770Y1709000D03*
X1099230Y1709000D03*
X1099230Y1741000D03*
X1150770Y1741000D03*
X1300770Y1709000D03*
X1249230Y1709000D03*
X1249230Y1741000D03*
X1300770Y1741000D03*
X1450770Y1709000D03*
X1399230Y1709000D03*
X1399230Y1741000D03*
X1450770Y1741000D03*
X1600770Y1709000D03*
X1549230Y1709000D03*
X1549230Y1741000D03*
X1600770Y1741000D03*
X1750770Y1709000D03*
X1699230Y1709000D03*
X1699230Y1741000D03*
X1750770Y1741000D03*
X1900770Y1709000D03*
X1849230Y1709000D03*
X1849230Y1741000D03*
X1900770Y1741000D03*
X2050770Y1709000D03*
X1999230Y1709000D03*
X1999230Y1741000D03*
X2050770Y1741000D03*
X2200770Y1709000D03*
X2149230Y1709000D03*
X2149230Y1741000D03*
X2200770Y1741000D03*
X2350770Y1709000D03*
X2299230Y1709000D03*
X2299230Y1741000D03*
X2350770Y1741000D03*
X2500770Y1709000D03*
X2449230Y1709000D03*
X2449230Y1741000D03*
X2500770Y1741000D03*
X2650770Y1709000D03*
X2599230Y1709000D03*
X2599230Y1741000D03*
X2650770Y1741000D03*
X2800770Y1709000D03*
X2749230Y1709000D03*
X2749230Y1741000D03*
X2800770Y1741000D03*
X2950770Y1709000D03*
X2899230Y1709000D03*
X2899230Y1741000D03*
X2950770Y1741000D03*
X3100770Y1709000D03*
X3049230Y1709000D03*
X3049230Y1741000D03*
X3100770Y1741000D03*
X100770Y1559000D03*
X49230Y1559000D03*
X49230Y1591000D03*
X100770Y1591000D03*
X250770Y1559000D03*
X199230Y1559000D03*
X199230Y1591000D03*
X250770Y1591000D03*
X400770Y1559000D03*
X349230Y1559000D03*
X349230Y1591000D03*
X400770Y1591000D03*
X550770Y1559000D03*
X499230Y1559000D03*
X499230Y1591000D03*
X550770Y1591000D03*
X700770Y1559000D03*
X649230Y1559000D03*
X649230Y1591000D03*
X700770Y1591000D03*
X850770Y1559000D03*
X799230Y1559000D03*
X799230Y1591000D03*
X850770Y1591000D03*
X1000770Y1559000D03*
X949230Y1559000D03*
X949230Y1591000D03*
X1000770Y1591000D03*
X1150770Y1559000D03*
X1099230Y1559000D03*
X1099230Y1591000D03*
X1150770Y1591000D03*
X1300770Y1559000D03*
X1249230Y1559000D03*
X1249230Y1591000D03*
X1300770Y1591000D03*
X1450770Y1559000D03*
X1399230Y1559000D03*
X1399230Y1591000D03*
X1450770Y1591000D03*
X1600770Y1559000D03*
X1549230Y1559000D03*
X1549230Y1591000D03*
X1600770Y1591000D03*
X1750770Y1559000D03*
X1699230Y1559000D03*
X1699230Y1591000D03*
X1750770Y1591000D03*
X1900770Y1559000D03*
X1849230Y1559000D03*
X1849230Y1591000D03*
X1900770Y1591000D03*
X2050770Y1559000D03*
X1999230Y1559000D03*
X1999230Y1591000D03*
X2050770Y1591000D03*
X2200770Y1559000D03*
X2149230Y1559000D03*
X2149230Y1591000D03*
X2200770Y1591000D03*
X2350770Y1559000D03*
X2299230Y1559000D03*
X2299230Y1591000D03*
X2350770Y1591000D03*
X2500770Y1559000D03*
X2449230Y1559000D03*
X2449230Y1591000D03*
X2500770Y1591000D03*
X2650770Y1559000D03*
X2599230Y1559000D03*
X2599230Y1591000D03*
X2650770Y1591000D03*
X2800770Y1559000D03*
X2749230Y1559000D03*
X2749230Y1591000D03*
X2800770Y1591000D03*
X2950770Y1559000D03*
X2899230Y1559000D03*
X2899230Y1591000D03*
X2950770Y1591000D03*
X3100770Y1559000D03*
X3049230Y1559000D03*
X3049230Y1591000D03*
X3100770Y1591000D03*
X100770Y1409000D03*
X49230Y1409000D03*
X49230Y1441000D03*
X100770Y1441000D03*
X250770Y1409000D03*
X199230Y1409000D03*
X199230Y1441000D03*
X250770Y1441000D03*
X400770Y1409000D03*
X349230Y1409000D03*
X349230Y1441000D03*
X400770Y1441000D03*
X550770Y1409000D03*
X499230Y1409000D03*
X499230Y1441000D03*
X550770Y1441000D03*
X700770Y1409000D03*
X649230Y1409000D03*
X649230Y1441000D03*
X700770Y1441000D03*
X850770Y1409000D03*
X799230Y1409000D03*
X799230Y1441000D03*
X850770Y1441000D03*
X1000770Y1409000D03*
X949230Y1409000D03*
X949230Y1441000D03*
X1000770Y1441000D03*
X1150770Y1409000D03*
X1099230Y1409000D03*
X1099230Y1441000D03*
X1150770Y1441000D03*
X1300770Y1409000D03*
X1249230Y1409000D03*
X1249230Y1441000D03*
X1300770Y1441000D03*
X1450770Y1409000D03*
X1399230Y1409000D03*
X1399230Y1441000D03*
X1450770Y1441000D03*
X1600770Y1409000D03*
X1549230Y1409000D03*
X1549230Y1441000D03*
X1600770Y1441000D03*
X1750770Y1409000D03*
X1699230Y1409000D03*
X1699230Y1441000D03*
X1750770Y1441000D03*
X1900770Y1409000D03*
X1849230Y1409000D03*
X1849230Y1441000D03*
X1900770Y1441000D03*
X2050770Y1409000D03*
X1999230Y1409000D03*
X1999230Y1441000D03*
X2050770Y1441000D03*
X2200770Y1409000D03*
X2149230Y1409000D03*
X2149230Y1441000D03*
X2200770Y1441000D03*
X2350770Y1409000D03*
X2299230Y1409000D03*
X2299230Y1441000D03*
X2350770Y1441000D03*
X2500770Y1409000D03*
X2449230Y1409000D03*
X2449230Y1441000D03*
X2500770Y1441000D03*
X2650770Y1409000D03*
X2599230Y1409000D03*
X2599230Y1441000D03*
X2650770Y1441000D03*
X2800770Y1409000D03*
X2749230Y1409000D03*
X2749230Y1441000D03*
X2800770Y1441000D03*
X2950770Y1409000D03*
X2899230Y1409000D03*
X2899230Y1441000D03*
X2950770Y1441000D03*
X3100770Y1409000D03*
X3049230Y1409000D03*
X3049230Y1441000D03*
X3100770Y1441000D03*
X100770Y1259000D03*
X49230Y1259000D03*
X49230Y1291000D03*
X100770Y1291000D03*
X250770Y1259000D03*
X199230Y1259000D03*
X199230Y1291000D03*
X250770Y1291000D03*
X400770Y1259000D03*
X349230Y1259000D03*
X349230Y1291000D03*
X400770Y1291000D03*
X550770Y1259000D03*
X499230Y1259000D03*
X499230Y1291000D03*
X550770Y1291000D03*
X700770Y1259000D03*
X649230Y1259000D03*
X649230Y1291000D03*
X700770Y1291000D03*
X850770Y1259000D03*
X799230Y1259000D03*
X799230Y1291000D03*
X850770Y1291000D03*
X1000770Y1259000D03*
X949230Y1259000D03*
X949230Y1291000D03*
X1000770Y1291000D03*
X1150770Y1259000D03*
X1099230Y1259000D03*
X1099230Y1291000D03*
X1150770Y1291000D03*
X1300770Y1259000D03*
X1249230Y1259000D03*
X1249230Y1291000D03*
X1300770Y1291000D03*
X1450770Y1259000D03*
X1399230Y1259000D03*
X1399230Y1291000D03*
X1450770Y1291000D03*
X1600770Y1259000D03*
X1549230Y1259000D03*
X1549230Y1291000D03*
X1600770Y1291000D03*
X1750770Y1259000D03*
X1699230Y1259000D03*
X1699230Y1291000D03*
X1750770Y1291000D03*
X1900770Y1259000D03*
X1849230Y1259000D03*
X1849230Y1291000D03*
X1900770Y1291000D03*
X2050770Y1259000D03*
X1999230Y1259000D03*
X1999230Y1291000D03*
X2050770Y1291000D03*
X2200770Y1259000D03*
X2149230Y1259000D03*
X2149230Y1291000D03*
X2200770Y1291000D03*
X2350770Y1259000D03*
X2299230Y1259000D03*
X2299230Y1291000D03*
X2350770Y1291000D03*
X2500770Y1259000D03*
X2449230Y1259000D03*
X2449230Y1291000D03*
X2500770Y1291000D03*
X2650770Y1259000D03*
X2599230Y1259000D03*
X2599230Y1291000D03*
X2650770Y1291000D03*
X2800770Y1259000D03*
X2749230Y1259000D03*
X2749230Y1291000D03*
X2800770Y1291000D03*
X2950770Y1259000D03*
X2899230Y1259000D03*
X2899230Y1291000D03*
X2950770Y1291000D03*
X3100770Y1259000D03*
X3049230Y1259000D03*
X3049230Y1291000D03*
X3100770Y1291000D03*
X100770Y1109000D03*
X49230Y1109000D03*
X49230Y1141000D03*
X100770Y1141000D03*
X250770Y1109000D03*
X199230Y1109000D03*
X199230Y1141000D03*
X250770Y1141000D03*
X400770Y1109000D03*
X349230Y1109000D03*
X349230Y1141000D03*
X400770Y1141000D03*
X550770Y1109000D03*
X499230Y1109000D03*
X499230Y1141000D03*
X550770Y1141000D03*
X700770Y1109000D03*
X649230Y1109000D03*
X649230Y1141000D03*
X700770Y1141000D03*
X850770Y1109000D03*
X799230Y1109000D03*
X799230Y1141000D03*
X850770Y1141000D03*
X1000770Y1109000D03*
X949230Y1109000D03*
X949230Y1141000D03*
X1000770Y1141000D03*
X1150770Y1109000D03*
X1099230Y1109000D03*
X1099230Y1141000D03*
X1150770Y1141000D03*
X1300770Y1109000D03*
X1249230Y1109000D03*
X1249230Y1141000D03*
X1300770Y1141000D03*
X1450770Y1109000D03*
X1399230Y1109000D03*
X1399230Y1141000D03*
X1450770Y1141000D03*
X1600770Y1109000D03*
X1549230Y1109000D03*
X1549230Y1141000D03*
X1600770Y1141000D03*
X1750770Y1109000D03*
X1699230Y1109000D03*
X1699230Y1141000D03*
X1750770Y1141000D03*
X1900770Y1109000D03*
X1849230Y1109000D03*
X1849230Y1141000D03*
X1900770Y1141000D03*
X2050770Y1109000D03*
X1999230Y1109000D03*
X1999230Y1141000D03*
X2050770Y1141000D03*
X2200770Y1109000D03*
X2149230Y1109000D03*
X2149230Y1141000D03*
X2200770Y1141000D03*
X2350770Y1109000D03*
X2299230Y1109000D03*
X2299230Y1141000D03*
X2350770Y1141000D03*
X2500770Y1109000D03*
X2449230Y1109000D03*
X2449230Y1141000D03*
X2500770Y1141000D03*
X2650770Y1109000D03*
X2599230Y1109000D03*
X2599230Y1141000D03*
X2650770Y1141000D03*
X2800770Y1109000D03*
X2749230Y1109000D03*
X2749230Y1141000D03*
X2800770Y1141000D03*
X2950770Y1109000D03*
X2899230Y1109000D03*
X2899230Y1141000D03*
X2950770Y1141000D03*
X3100770Y1109000D03*
X3049230Y1109000D03*
X3049230Y1141000D03*
X3100770Y1141000D03*
X100770Y959000D03*
X49230Y959000D03*
X49230Y991000D03*
X100770Y991000D03*
X250770Y959000D03*
X199230Y959000D03*
X199230Y991000D03*
X250770Y991000D03*
X400770Y959000D03*
X349230Y959000D03*
X349230Y991000D03*
X400770Y991000D03*
X550770Y959000D03*
X499230Y959000D03*
X499230Y991000D03*
X550770Y991000D03*
X700770Y959000D03*
X649230Y959000D03*
X649230Y991000D03*
X700770Y991000D03*
X850770Y959000D03*
X799230Y959000D03*
X799230Y991000D03*
X850770Y991000D03*
X1000770Y959000D03*
X949230Y959000D03*
X949230Y991000D03*
X1000770Y991000D03*
X1150770Y959000D03*
X1099230Y959000D03*
X1099230Y991000D03*
X1150770Y991000D03*
X1300770Y959000D03*
X1249230Y959000D03*
X1249230Y991000D03*
X1300770Y991000D03*
X1450770Y959000D03*
X1399230Y959000D03*
X1399230Y991000D03*
X1450770Y991000D03*
X1600770Y959000D03*
X1549230Y959000D03*
X1549230Y991000D03*
X1600770Y991000D03*
X1750770Y959000D03*
X1699230Y959000D03*
X1699230Y991000D03*
X1750770Y991000D03*
X1900770Y959000D03*
X1849230Y959000D03*
X1849230Y991000D03*
X1900770Y991000D03*
X2050770Y959000D03*
X1999230Y959000D03*
X1999230Y991000D03*
X2050770Y991000D03*
X2200770Y959000D03*
X2149230Y959000D03*
X2149230Y991000D03*
X2200770Y991000D03*
X2350770Y959000D03*
X2299230Y959000D03*
X2299230Y991000D03*
X2350770Y991000D03*
X2500770Y959000D03*
X2449230Y959000D03*
X2449230Y991000D03*
X2500770Y991000D03*
X2650770Y959000D03*
X2599230Y959000D03*
X2599230Y991000D03*
X2650770Y991000D03*
X2800770Y959000D03*
X2749230Y959000D03*
X2749230Y991000D03*
X2800770Y991000D03*
X2950770Y959000D03*
X2899230Y959000D03*
X2899230Y991000D03*
X2950770Y991000D03*
X3100770Y959000D03*
X3049230Y959000D03*
X3049230Y991000D03*
X3100770Y991000D03*
X100770Y809000D03*
X49230Y809000D03*
X49230Y841000D03*
X100770Y841000D03*
X250770Y809000D03*
X199230Y809000D03*
X199230Y841000D03*
X250770Y841000D03*
X400770Y809000D03*
X349230Y809000D03*
X349230Y841000D03*
X400770Y841000D03*
X550770Y809000D03*
X499230Y809000D03*
X499230Y841000D03*
X550770Y841000D03*
X700770Y809000D03*
X649230Y809000D03*
X649230Y841000D03*
X700770Y841000D03*
X850770Y809000D03*
X799230Y809000D03*
X799230Y841000D03*
X850770Y841000D03*
X1000770Y809000D03*
X949230Y809000D03*
X949230Y841000D03*
X1000770Y841000D03*
X1150770Y809000D03*
X1099230Y809000D03*
X1099230Y841000D03*
X1150770Y841000D03*
X1300770Y809000D03*
X1249230Y809000D03*
X1249230Y841000D03*
X1300770Y841000D03*
X1450770Y809000D03*
X1399230Y809000D03*
X1399230Y841000D03*
X1450770Y841000D03*
X1600770Y809000D03*
X1549230Y809000D03*
X1549230Y841000D03*
X1600770Y841000D03*
X1750770Y809000D03*
X1699230Y809000D03*
X1699230Y841000D03*
X1750770Y841000D03*
X1900770Y809000D03*
X1849230Y809000D03*
X1849230Y841000D03*
X1900770Y841000D03*
X2050770Y809000D03*
X1999230Y809000D03*
X1999230Y841000D03*
X2050770Y841000D03*
X2200770Y809000D03*
X2149230Y809000D03*
X2149230Y841000D03*
X2200770Y841000D03*
X2350770Y809000D03*
X2299230Y809000D03*
X2299230Y841000D03*
X2350770Y841000D03*
X2500770Y809000D03*
X2449230Y809000D03*
X2449230Y841000D03*
X2500770Y841000D03*
X2650770Y809000D03*
X2599230Y809000D03*
X2599230Y841000D03*
X2650770Y841000D03*
X2800770Y809000D03*
X2749230Y809000D03*
X2749230Y841000D03*
X2800770Y841000D03*
X2950770Y809000D03*
X2899230Y809000D03*
X2899230Y841000D03*
X2950770Y841000D03*
X3100770Y809000D03*
X3049230Y809000D03*
X3049230Y841000D03*
X3100770Y841000D03*
X100770Y659000D03*
X49230Y659000D03*
X49230Y691000D03*
X100770Y691000D03*
X250770Y659000D03*
X199230Y659000D03*
X199230Y691000D03*
X250770Y691000D03*
X400770Y659000D03*
X349230Y659000D03*
X349230Y691000D03*
X400770Y691000D03*
X550770Y659000D03*
X499230Y659000D03*
X499230Y691000D03*
X550770Y691000D03*
X700770Y659000D03*
X649230Y659000D03*
X649230Y691000D03*
X700770Y691000D03*
X850770Y659000D03*
X799230Y659000D03*
X799230Y691000D03*
X850770Y691000D03*
X1000770Y659000D03*
X949230Y659000D03*
X949230Y691000D03*
X1000770Y691000D03*
X1150770Y659000D03*
X1099230Y659000D03*
X1099230Y691000D03*
X1150770Y691000D03*
X1300770Y659000D03*
X1249230Y659000D03*
X1249230Y691000D03*
X1300770Y691000D03*
X1450770Y659000D03*
X1399230Y659000D03*
X1399230Y691000D03*
X1450770Y691000D03*
X1600770Y659000D03*
X1549230Y659000D03*
X1549230Y691000D03*
X1600770Y691000D03*
X1750770Y659000D03*
X1699230Y659000D03*
X1699230Y691000D03*
X1750770Y691000D03*
X1900770Y659000D03*
X1849230Y659000D03*
X1849230Y691000D03*
X1900770Y691000D03*
X2050770Y659000D03*
X1999230Y659000D03*
X1999230Y691000D03*
X2050770Y691000D03*
X2200770Y659000D03*
X2149230Y659000D03*
X2149230Y691000D03*
X2200770Y691000D03*
X2350770Y659000D03*
X2299230Y659000D03*
X2299230Y691000D03*
X2350770Y691000D03*
X2500770Y659000D03*
X2449230Y659000D03*
X2449230Y691000D03*
X2500770Y691000D03*
X2650770Y659000D03*
X2599230Y659000D03*
X2599230Y691000D03*
X2650770Y691000D03*
X2800770Y659000D03*
X2749230Y659000D03*
X2749230Y691000D03*
X2800770Y691000D03*
X2950770Y659000D03*
X2899230Y659000D03*
X2899230Y691000D03*
X2950770Y691000D03*
X3100770Y659000D03*
X3049230Y659000D03*
X3049230Y691000D03*
X3100770Y691000D03*
X100770Y509000D03*
X49230Y509000D03*
X49230Y541000D03*
X100770Y541000D03*
X250770Y509000D03*
X199230Y509000D03*
X199230Y541000D03*
X250770Y541000D03*
X400770Y509000D03*
X349230Y509000D03*
X349230Y541000D03*
X400770Y541000D03*
X550770Y509000D03*
X499230Y509000D03*
X499230Y541000D03*
X550770Y541000D03*
X700770Y509000D03*
X649230Y509000D03*
X649230Y541000D03*
X700770Y541000D03*
X850770Y509000D03*
X799230Y509000D03*
X799230Y541000D03*
X850770Y541000D03*
X1000770Y509000D03*
X949230Y509000D03*
X949230Y541000D03*
X1000770Y541000D03*
X1150770Y509000D03*
X1099230Y509000D03*
X1099230Y541000D03*
X1150770Y541000D03*
X1300770Y509000D03*
X1249230Y509000D03*
X1249230Y541000D03*
X1300770Y541000D03*
X1450770Y509000D03*
X1399230Y509000D03*
X1399230Y541000D03*
X1450770Y541000D03*
X1600770Y509000D03*
X1549230Y509000D03*
X1549230Y541000D03*
X1600770Y541000D03*
X1750770Y509000D03*
X1699230Y509000D03*
X1699230Y541000D03*
X1750770Y541000D03*
X1900770Y509000D03*
X1849230Y509000D03*
X1849230Y541000D03*
X1900770Y541000D03*
X2050770Y509000D03*
X1999230Y509000D03*
X1999230Y541000D03*
X2050770Y541000D03*
X2200770Y509000D03*
X2149230Y509000D03*
X2149230Y541000D03*
X2200770Y541000D03*
X2350770Y509000D03*
X2299230Y509000D03*
X2299230Y541000D03*
X2350770Y541000D03*
X2500770Y509000D03*
X2449230Y509000D03*
X2449230Y541000D03*
X2500770Y541000D03*
X2650770Y509000D03*
X2599230Y509000D03*
X2599230Y541000D03*
X2650770Y541000D03*
X2800770Y509000D03*
X2749230Y509000D03*
X2749230Y541000D03*
X2800770Y541000D03*
X2950770Y509000D03*
X2899230Y509000D03*
X2899230Y541000D03*
X2950770Y541000D03*
X3100770Y509000D03*
X3049230Y509000D03*
X3049230Y541000D03*
X3100770Y541000D03*
X250770Y359000D03*
X199230Y359000D03*
X199230Y391000D03*
X250770Y391000D03*
X400770Y359000D03*
X349230Y359000D03*
X349230Y391000D03*
X400770Y391000D03*
X550770Y359000D03*
X499230Y359000D03*
X499230Y391000D03*
X550770Y391000D03*
X700770Y359000D03*
X649230Y359000D03*
X649230Y391000D03*
X700770Y391000D03*
X850770Y359000D03*
X799230Y359000D03*
X799230Y391000D03*
X850770Y391000D03*
X1000770Y359000D03*
X949230Y359000D03*
X949230Y391000D03*
X1000770Y391000D03*
X1150770Y359000D03*
X1099230Y359000D03*
X1099230Y391000D03*
X1150770Y391000D03*
X1300770Y359000D03*
X1249230Y359000D03*
X1249230Y391000D03*
X1300770Y391000D03*
X1450770Y359000D03*
X1399230Y359000D03*
X1399230Y391000D03*
X1450770Y391000D03*
X1600770Y359000D03*
X1549230Y359000D03*
X1549230Y391000D03*
X1600770Y391000D03*
X1750770Y359000D03*
X1699230Y359000D03*
X1699230Y391000D03*
X1750770Y391000D03*
X1900770Y359000D03*
X1849230Y359000D03*
X1849230Y391000D03*
X1900770Y391000D03*
X2050770Y359000D03*
X1999230Y359000D03*
X1999230Y391000D03*
X2050770Y391000D03*
X2200770Y359000D03*
X2149230Y359000D03*
X2149230Y391000D03*
X2200770Y391000D03*
X2350770Y359000D03*
X2299230Y359000D03*
X2299230Y391000D03*
X2350770Y391000D03*
X2500770Y359000D03*
X2449230Y359000D03*
X2449230Y391000D03*
X2500770Y391000D03*
X2650770Y359000D03*
X2599230Y359000D03*
X2599230Y391000D03*
X2650770Y391000D03*
X2800770Y359000D03*
X2749230Y359000D03*
X2749230Y391000D03*
X2800770Y391000D03*
X2950770Y359000D03*
X2899230Y359000D03*
X2899230Y391000D03*
X2950770Y391000D03*
X3100770Y359000D03*
X3049230Y359000D03*
X3049230Y391000D03*
X3100770Y391000D03*
X850770Y209000D03*
X799230Y209000D03*
X799230Y241000D03*
X850770Y241000D03*
X1000770Y209000D03*
X949230Y209000D03*
X949230Y241000D03*
X1000770Y241000D03*
X1150770Y209000D03*
X1099230Y209000D03*
X1099230Y241000D03*
X1150770Y241000D03*
X1300770Y209000D03*
X1249230Y209000D03*
X1249230Y241000D03*
X1300770Y241000D03*
X1450770Y209000D03*
X1399230Y209000D03*
X1399230Y241000D03*
X1450770Y241000D03*
X1600770Y209000D03*
X1549230Y209000D03*
X1549230Y241000D03*
X1600770Y241000D03*
X1750770Y209000D03*
X1699230Y209000D03*
X1699230Y241000D03*
X1750770Y241000D03*
X1900770Y209000D03*
X1849230Y209000D03*
X1849230Y241000D03*
X1900770Y241000D03*
X2050770Y209000D03*
X1999230Y209000D03*
X1999230Y241000D03*
X2050770Y241000D03*
X2200770Y209000D03*
X2149230Y209000D03*
X2149230Y241000D03*
X2200770Y241000D03*
X2350770Y209000D03*
X2299230Y209000D03*
X2299230Y241000D03*
X2350770Y241000D03*
X2500770Y209000D03*
X2449230Y209000D03*
X2449230Y241000D03*
X2500770Y241000D03*
X2650770Y209000D03*
X2599230Y209000D03*
X2599230Y241000D03*
X2650770Y241000D03*
X2800770Y209000D03*
X2749230Y209000D03*
X2749230Y241000D03*
X2800770Y241000D03*
X2950770Y209000D03*
X2899230Y209000D03*
X2899230Y241000D03*
X2950770Y241000D03*
X3100770Y209000D03*
X3049230Y209000D03*
X3049230Y241000D03*
X3100770Y241000D03*
X850770Y59000D03*
X799230Y59000D03*
X799230Y91000D03*
X850770Y91000D03*
X1000770Y59000D03*
X949230Y59000D03*
X949230Y91000D03*
X1000770Y91000D03*
X1150770Y59000D03*
X1099230Y59000D03*
X1099230Y91000D03*
X1150770Y91000D03*
X1300770Y59000D03*
X1249230Y59000D03*
X1249230Y91000D03*
X1300770Y91000D03*
X1750770Y59000D03*
X1699230Y59000D03*
X1699230Y91000D03*
X1750770Y91000D03*
X1913270Y59000D03*
X1861730Y59000D03*
X1861730Y91000D03*
X1913270Y91000D03*
X2050770Y59000D03*
X1999230Y59000D03*
X1999230Y91000D03*
X2050770Y91000D03*
X2200770Y59000D03*
X2149230Y59000D03*
X2149230Y91000D03*
X2200770Y91000D03*
X2350770Y59000D03*
X2299230Y59000D03*
X2299230Y91000D03*
X2350770Y91000D03*
X2500770Y59000D03*
X2449230Y59000D03*
X2449230Y91000D03*
X2500770Y91000D03*
X2650770Y59000D03*
X2599230Y59000D03*
X2599230Y91000D03*
X2650770Y91000D03*
X2800770Y59000D03*
X2749230Y59000D03*
X2749230Y91000D03*
X2800770Y91000D03*
X2950770Y59000D03*
X2899230Y59000D03*
X2899230Y91000D03*
X2950770Y91000D03*
D12*
X139290Y40030D03*
X156290Y40030D03*
D10*
X9500Y171200D03*
X9500Y188200D03*
D12*
X68500Y155000D03*
X51500Y155000D03*
D10*
X97500Y186000D03*
X97500Y169000D03*
D25*
X100770Y359000D03*
X49230Y359000D03*
X49230Y391000D03*
X100770Y391000D03*
X100770Y214000D03*
X49230Y214000D03*
X49230Y246000D03*
X100770Y246000D03*
X250770Y209000D03*
X199230Y209000D03*
X199230Y241000D03*
X250770Y241000D03*
X550770Y209000D03*
X499230Y209000D03*
X499230Y241000D03*
X550770Y241000D03*
X700770Y209000D03*
X649230Y209000D03*
X649230Y241000D03*
X700770Y241000D03*
X700770Y59000D03*
X649230Y59000D03*
X649230Y91000D03*
X700770Y91000D03*
M02*
