G04 EAGLE Gerber RS-274X export*
G75*
%MOMM*%
%FSLAX34Y34*%
%LPD*%
%INBottom Copper*%
%IPPOS*%
%AMOC8*
5,1,8,0,0,1.08239X$1,22.5*%
G01*
%ADD10C,0.203200*%
%ADD11C,1.000000*%
%ADD12C,0.736600*%
%ADD13C,0.177800*%
%ADD14C,0.550000*%

G36*
X3110058Y2803D02*
X3110058Y2803D01*
X3110116Y2801D01*
X3110198Y2823D01*
X3110282Y2835D01*
X3110335Y2858D01*
X3110391Y2873D01*
X3110464Y2916D01*
X3110541Y2951D01*
X3110586Y2989D01*
X3110636Y3018D01*
X3110694Y3080D01*
X3110758Y3134D01*
X3110790Y3183D01*
X3110830Y3226D01*
X3110869Y3301D01*
X3110916Y3371D01*
X3110933Y3427D01*
X3110960Y3479D01*
X3110971Y3547D01*
X3111001Y3642D01*
X3111004Y3742D01*
X3111015Y3810D01*
X3111015Y69208D01*
X3111003Y69293D01*
X3111001Y69379D01*
X3110983Y69433D01*
X3110975Y69490D01*
X3110940Y69568D01*
X3110914Y69650D01*
X3110882Y69697D01*
X3110859Y69749D01*
X3110804Y69815D01*
X3110756Y69886D01*
X3110712Y69923D01*
X3110676Y69966D01*
X3110604Y70014D01*
X3110538Y70069D01*
X3110486Y70092D01*
X3110439Y70124D01*
X3110357Y70150D01*
X3110278Y70185D01*
X3110222Y70192D01*
X3110168Y70210D01*
X3110082Y70212D01*
X3109997Y70224D01*
X3109941Y70215D01*
X3109884Y70217D01*
X3109801Y70195D01*
X3109716Y70183D01*
X3109664Y70159D01*
X3109609Y70145D01*
X3109535Y70101D01*
X3109456Y70066D01*
X3109413Y70029D01*
X3109364Y70000D01*
X3109305Y69937D01*
X3109240Y69881D01*
X3109214Y69840D01*
X3109170Y69793D01*
X3109104Y69663D01*
X3109062Y69597D01*
X3106683Y63853D01*
X3101147Y58317D01*
X3093914Y55321D01*
X3086086Y55321D01*
X3078853Y58317D01*
X3073317Y63853D01*
X3070321Y71086D01*
X3070321Y78914D01*
X3073317Y86147D01*
X3078853Y91683D01*
X3086086Y94679D01*
X3093914Y94679D01*
X3101147Y91683D01*
X3106683Y86147D01*
X3109062Y80403D01*
X3109106Y80329D01*
X3109141Y80251D01*
X3109178Y80207D01*
X3109207Y80158D01*
X3109269Y80099D01*
X3109325Y80034D01*
X3109372Y80002D01*
X3109413Y79963D01*
X3109490Y79924D01*
X3109561Y79876D01*
X3109615Y79859D01*
X3109666Y79833D01*
X3109750Y79816D01*
X3109832Y79790D01*
X3109889Y79789D01*
X3109945Y79778D01*
X3110030Y79785D01*
X3110116Y79783D01*
X3110171Y79797D01*
X3110228Y79802D01*
X3110308Y79833D01*
X3110391Y79855D01*
X3110440Y79884D01*
X3110493Y79904D01*
X3110562Y79956D01*
X3110636Y80000D01*
X3110675Y80042D01*
X3110720Y80076D01*
X3110771Y80145D01*
X3110830Y80207D01*
X3110856Y80258D01*
X3110890Y80304D01*
X3110921Y80384D01*
X3110960Y80461D01*
X3110968Y80509D01*
X3110991Y80570D01*
X3111002Y80714D01*
X3111015Y80792D01*
X3111015Y1896708D01*
X3111003Y1896793D01*
X3111001Y1896879D01*
X3110983Y1896933D01*
X3110975Y1896990D01*
X3110940Y1897068D01*
X3110914Y1897150D01*
X3110882Y1897197D01*
X3110859Y1897249D01*
X3110804Y1897315D01*
X3110756Y1897386D01*
X3110712Y1897423D01*
X3110676Y1897466D01*
X3110604Y1897514D01*
X3110538Y1897569D01*
X3110486Y1897592D01*
X3110439Y1897624D01*
X3110357Y1897650D01*
X3110278Y1897685D01*
X3110222Y1897692D01*
X3110168Y1897710D01*
X3110082Y1897712D01*
X3109997Y1897724D01*
X3109941Y1897715D01*
X3109884Y1897717D01*
X3109801Y1897695D01*
X3109716Y1897683D01*
X3109664Y1897659D01*
X3109609Y1897645D01*
X3109535Y1897601D01*
X3109456Y1897566D01*
X3109413Y1897529D01*
X3109364Y1897500D01*
X3109305Y1897437D01*
X3109240Y1897381D01*
X3109214Y1897340D01*
X3109170Y1897293D01*
X3109104Y1897163D01*
X3109062Y1897097D01*
X3106683Y1891353D01*
X3101147Y1885817D01*
X3093914Y1882821D01*
X3086086Y1882821D01*
X3078853Y1885817D01*
X3073317Y1891353D01*
X3070321Y1898586D01*
X3070321Y1906414D01*
X3073317Y1913647D01*
X3078853Y1919183D01*
X3086086Y1922179D01*
X3093914Y1922179D01*
X3101147Y1919183D01*
X3106683Y1913647D01*
X3109062Y1907903D01*
X3109106Y1907829D01*
X3109141Y1907751D01*
X3109178Y1907707D01*
X3109207Y1907658D01*
X3109269Y1907599D01*
X3109325Y1907534D01*
X3109372Y1907502D01*
X3109413Y1907463D01*
X3109490Y1907424D01*
X3109561Y1907376D01*
X3109615Y1907359D01*
X3109666Y1907333D01*
X3109750Y1907316D01*
X3109832Y1907290D01*
X3109889Y1907289D01*
X3109945Y1907278D01*
X3110030Y1907285D01*
X3110116Y1907283D01*
X3110171Y1907297D01*
X3110228Y1907302D01*
X3110308Y1907333D01*
X3110391Y1907355D01*
X3110440Y1907384D01*
X3110493Y1907404D01*
X3110562Y1907456D01*
X3110636Y1907500D01*
X3110675Y1907542D01*
X3110720Y1907576D01*
X3110771Y1907645D01*
X3110830Y1907707D01*
X3110856Y1907758D01*
X3110890Y1907804D01*
X3110921Y1907884D01*
X3110960Y1907961D01*
X3110968Y1908009D01*
X3110991Y1908070D01*
X3111002Y1908214D01*
X3111015Y1908292D01*
X3111015Y1973690D01*
X3111007Y1973748D01*
X3111009Y1973806D01*
X3110987Y1973888D01*
X3110975Y1973972D01*
X3110952Y1974025D01*
X3110937Y1974081D01*
X3110894Y1974154D01*
X3110859Y1974231D01*
X3110821Y1974276D01*
X3110792Y1974326D01*
X3110730Y1974384D01*
X3110676Y1974448D01*
X3110627Y1974480D01*
X3110584Y1974520D01*
X3110509Y1974559D01*
X3110439Y1974606D01*
X3110383Y1974623D01*
X3110331Y1974650D01*
X3110263Y1974661D01*
X3110168Y1974691D01*
X3110068Y1974694D01*
X3110000Y1974705D01*
X3810Y1974705D01*
X3752Y1974697D01*
X3694Y1974699D01*
X3612Y1974677D01*
X3528Y1974665D01*
X3475Y1974642D01*
X3419Y1974627D01*
X3346Y1974584D01*
X3269Y1974549D01*
X3224Y1974511D01*
X3174Y1974482D01*
X3116Y1974420D01*
X3052Y1974366D01*
X3020Y1974317D01*
X2980Y1974274D01*
X2941Y1974199D01*
X2894Y1974129D01*
X2877Y1974073D01*
X2850Y1974021D01*
X2839Y1973953D01*
X2809Y1973858D01*
X2806Y1973758D01*
X2795Y1973690D01*
X2795Y405470D01*
X2799Y405440D01*
X2796Y405411D01*
X2819Y405300D01*
X2835Y405188D01*
X2847Y405161D01*
X2853Y405132D01*
X2905Y405032D01*
X2951Y404929D01*
X2970Y404906D01*
X2984Y404880D01*
X3062Y404798D01*
X3134Y404712D01*
X3159Y404695D01*
X3180Y404674D01*
X3277Y404617D01*
X3371Y404554D01*
X3400Y404545D01*
X3425Y404530D01*
X3534Y404503D01*
X3642Y404469D01*
X3672Y404468D01*
X3701Y404460D01*
X3813Y404464D01*
X3926Y404461D01*
X3955Y404469D01*
X3985Y404470D01*
X4092Y404505D01*
X4201Y404533D01*
X4227Y404548D01*
X4255Y404557D01*
X4290Y404582D01*
X6414Y405462D01*
X8586Y405462D01*
X10594Y404630D01*
X12130Y403094D01*
X12962Y401086D01*
X12962Y398914D01*
X12130Y396906D01*
X10594Y395370D01*
X8586Y394538D01*
X6414Y394538D01*
X4317Y395407D01*
X4301Y395419D01*
X4274Y395429D01*
X4249Y395446D01*
X4141Y395480D01*
X4036Y395520D01*
X4006Y395522D01*
X3978Y395531D01*
X3865Y395534D01*
X3752Y395544D01*
X3723Y395538D01*
X3694Y395539D01*
X3585Y395510D01*
X3474Y395488D01*
X3447Y395474D01*
X3419Y395467D01*
X3322Y395409D01*
X3221Y395357D01*
X3200Y395337D01*
X3174Y395322D01*
X3097Y395239D01*
X3015Y395162D01*
X3000Y395136D01*
X2980Y395114D01*
X2928Y395014D01*
X2871Y394917D01*
X2864Y394888D01*
X2850Y394861D01*
X2837Y394784D01*
X2801Y394641D01*
X2803Y394578D01*
X2795Y394530D01*
X2795Y210000D01*
X2803Y209942D01*
X2801Y209884D01*
X2823Y209802D01*
X2835Y209718D01*
X2858Y209665D01*
X2873Y209609D01*
X2916Y209536D01*
X2951Y209459D01*
X2989Y209414D01*
X3018Y209364D01*
X3080Y209306D01*
X3134Y209242D01*
X3183Y209210D01*
X3226Y209170D01*
X3301Y209131D01*
X3371Y209084D01*
X3427Y209067D01*
X3479Y209040D01*
X3547Y209029D01*
X3642Y208999D01*
X3742Y208996D01*
X3810Y208985D01*
X95091Y208985D01*
X95178Y208997D01*
X95266Y209000D01*
X95318Y209017D01*
X95373Y209025D01*
X95453Y209060D01*
X95536Y209087D01*
X95575Y209115D01*
X95632Y209141D01*
X95746Y209237D01*
X95809Y209282D01*
X107335Y220808D01*
X109195Y222668D01*
X199105Y222668D01*
X200965Y220808D01*
X212491Y209282D01*
X212560Y209230D01*
X212624Y209170D01*
X212674Y209144D01*
X212718Y209111D01*
X212800Y209080D01*
X212877Y209040D01*
X212925Y209032D01*
X212983Y209010D01*
X213131Y208998D01*
X213209Y208985D01*
X598985Y208985D01*
X598985Y3810D01*
X598993Y3752D01*
X598991Y3694D01*
X599013Y3612D01*
X599025Y3528D01*
X599049Y3475D01*
X599063Y3419D01*
X599106Y3346D01*
X599141Y3269D01*
X599179Y3224D01*
X599209Y3174D01*
X599270Y3116D01*
X599325Y3052D01*
X599373Y3020D01*
X599416Y2980D01*
X599491Y2941D01*
X599561Y2894D01*
X599617Y2877D01*
X599669Y2850D01*
X599737Y2839D01*
X599832Y2809D01*
X599932Y2806D01*
X600000Y2795D01*
X3110000Y2795D01*
X3110058Y2803D01*
G37*
G36*
X3161248Y2803D02*
X3161248Y2803D01*
X3161306Y2801D01*
X3161388Y2823D01*
X3161472Y2835D01*
X3161525Y2858D01*
X3161581Y2873D01*
X3161654Y2916D01*
X3161731Y2951D01*
X3161776Y2989D01*
X3161826Y3018D01*
X3161884Y3080D01*
X3161948Y3134D01*
X3161980Y3183D01*
X3162020Y3226D01*
X3162059Y3301D01*
X3162106Y3371D01*
X3162123Y3427D01*
X3162150Y3479D01*
X3162161Y3547D01*
X3162191Y3642D01*
X3162194Y3742D01*
X3162205Y3810D01*
X3162205Y130982D01*
X3162201Y131011D01*
X3162204Y131040D01*
X3162181Y131151D01*
X3162165Y131263D01*
X3162153Y131290D01*
X3162148Y131319D01*
X3162096Y131419D01*
X3162049Y131522D01*
X3162030Y131545D01*
X3162017Y131571D01*
X3161939Y131653D01*
X3161866Y131739D01*
X3161841Y131756D01*
X3161821Y131777D01*
X3161723Y131834D01*
X3161629Y131897D01*
X3161601Y131906D01*
X3161576Y131921D01*
X3161466Y131949D01*
X3161358Y131983D01*
X3161328Y131984D01*
X3161300Y131991D01*
X3161187Y131987D01*
X3161074Y131990D01*
X3161045Y131983D01*
X3161016Y131982D01*
X3160908Y131947D01*
X3160799Y131918D01*
X3160773Y131903D01*
X3160745Y131894D01*
X3160682Y131849D01*
X3160554Y131773D01*
X3160511Y131727D01*
X3160472Y131699D01*
X3146105Y117332D01*
X3145477Y117332D01*
X3145390Y117320D01*
X3145303Y117317D01*
X3145250Y117300D01*
X3145195Y117292D01*
X3145116Y117257D01*
X3145032Y117230D01*
X3144993Y117202D01*
X3144936Y117176D01*
X3144823Y117080D01*
X3144759Y117035D01*
X3143094Y115370D01*
X3141086Y114538D01*
X3138914Y114538D01*
X3136906Y115370D01*
X3135370Y116906D01*
X3134538Y118914D01*
X3134538Y121086D01*
X3135370Y123094D01*
X3136906Y124630D01*
X3138914Y125462D01*
X3141086Y125462D01*
X3143094Y124630D01*
X3143758Y123966D01*
X3143804Y123931D01*
X3143845Y123889D01*
X3143918Y123846D01*
X3143985Y123795D01*
X3144040Y123775D01*
X3144090Y123745D01*
X3144172Y123724D01*
X3144251Y123694D01*
X3144309Y123689D01*
X3144366Y123675D01*
X3144450Y123678D01*
X3144534Y123671D01*
X3144591Y123682D01*
X3144650Y123684D01*
X3144730Y123710D01*
X3144813Y123726D01*
X3144865Y123753D01*
X3144920Y123771D01*
X3144976Y123811D01*
X3145065Y123857D01*
X3145137Y123926D01*
X3145194Y123966D01*
X3157035Y135808D01*
X3157087Y135877D01*
X3157147Y135941D01*
X3157173Y135991D01*
X3157206Y136035D01*
X3157237Y136117D01*
X3157277Y136194D01*
X3157285Y136242D01*
X3157307Y136301D01*
X3157319Y136448D01*
X3157332Y136526D01*
X3157332Y230848D01*
X3157972Y231488D01*
X3157990Y231512D01*
X3158012Y231531D01*
X3158074Y231623D01*
X3158112Y231668D01*
X3158117Y231681D01*
X3158143Y231715D01*
X3158154Y231743D01*
X3158170Y231767D01*
X3158204Y231875D01*
X3158207Y231882D01*
X3158227Y231928D01*
X3158229Y231940D01*
X3158245Y231981D01*
X3158247Y232010D01*
X3158256Y232038D01*
X3158259Y232152D01*
X3158260Y232163D01*
X3158266Y232209D01*
X3158264Y232220D01*
X3158268Y232264D01*
X3158262Y232293D01*
X3158263Y232322D01*
X3158234Y232432D01*
X3158232Y232444D01*
X3158225Y232491D01*
X3158221Y232501D01*
X3158212Y232543D01*
X3158199Y232569D01*
X3158191Y232597D01*
X3158134Y232695D01*
X3158130Y232701D01*
X3158108Y232750D01*
X3158100Y232759D01*
X3158081Y232795D01*
X3158061Y232817D01*
X3158046Y232842D01*
X3157965Y232918D01*
X3157924Y232966D01*
X3157912Y232974D01*
X3157885Y233001D01*
X3157860Y233016D01*
X3157839Y233036D01*
X3157738Y233088D01*
X3157640Y233145D01*
X3157631Y233148D01*
X3154594Y234406D01*
X3152406Y236594D01*
X3151221Y239453D01*
X3151221Y242547D01*
X3152406Y245406D01*
X3154594Y247594D01*
X3157639Y248856D01*
X3157701Y248893D01*
X3157795Y248935D01*
X3157818Y248954D01*
X3157844Y248967D01*
X3157870Y248992D01*
X3157884Y249001D01*
X3157928Y249047D01*
X3158012Y249118D01*
X3158029Y249143D01*
X3158050Y249163D01*
X3158070Y249198D01*
X3158079Y249207D01*
X3158105Y249256D01*
X3158107Y249261D01*
X3158170Y249355D01*
X3158179Y249383D01*
X3158194Y249408D01*
X3158204Y249450D01*
X3158209Y249460D01*
X3158219Y249507D01*
X3158222Y249518D01*
X3158256Y249626D01*
X3158257Y249656D01*
X3158264Y249684D01*
X3158262Y249728D01*
X3158265Y249739D01*
X3158261Y249785D01*
X3158260Y249797D01*
X3158263Y249910D01*
X3158256Y249939D01*
X3158255Y249968D01*
X3158241Y250010D01*
X3158240Y250022D01*
X3158223Y250068D01*
X3158220Y250076D01*
X3158191Y250185D01*
X3158176Y250211D01*
X3158167Y250239D01*
X3158145Y250270D01*
X3158138Y250287D01*
X3158104Y250333D01*
X3158046Y250430D01*
X3158000Y250473D01*
X3157972Y250512D01*
X3157332Y251152D01*
X3157332Y269523D01*
X3157320Y269610D01*
X3157317Y269697D01*
X3157300Y269750D01*
X3157292Y269805D01*
X3157257Y269884D01*
X3157230Y269968D01*
X3157202Y270007D01*
X3157176Y270064D01*
X3157080Y270177D01*
X3157035Y270241D01*
X3155370Y271906D01*
X3154538Y273914D01*
X3154538Y276086D01*
X3155370Y278094D01*
X3156906Y279630D01*
X3158914Y280462D01*
X3161086Y280462D01*
X3163094Y279630D01*
X3164630Y278094D01*
X3165462Y276086D01*
X3165462Y273914D01*
X3164630Y271906D01*
X3162965Y270241D01*
X3162913Y270171D01*
X3162853Y270107D01*
X3162827Y270058D01*
X3162794Y270014D01*
X3162763Y269932D01*
X3162723Y269854D01*
X3162715Y269807D01*
X3162693Y269748D01*
X3162681Y269600D01*
X3162668Y269523D01*
X3162668Y253783D01*
X3162680Y253696D01*
X3162683Y253609D01*
X3162700Y253556D01*
X3162708Y253501D01*
X3162743Y253421D01*
X3162770Y253338D01*
X3162798Y253299D01*
X3162824Y253242D01*
X3162920Y253128D01*
X3162965Y253065D01*
X3170335Y245695D01*
X3170335Y236305D01*
X3162965Y228935D01*
X3162913Y228866D01*
X3162853Y228802D01*
X3162827Y228752D01*
X3162794Y228708D01*
X3162763Y228626D01*
X3162723Y228549D01*
X3162715Y228501D01*
X3162693Y228442D01*
X3162686Y228363D01*
X3162682Y228348D01*
X3162680Y228292D01*
X3162668Y228217D01*
X3162668Y173810D01*
X3162676Y173752D01*
X3162674Y173694D01*
X3162696Y173612D01*
X3162708Y173528D01*
X3162731Y173475D01*
X3162746Y173419D01*
X3162789Y173346D01*
X3162824Y173269D01*
X3162862Y173224D01*
X3162891Y173174D01*
X3162953Y173116D01*
X3163007Y173052D01*
X3163056Y173020D01*
X3163099Y172980D01*
X3163174Y172941D01*
X3163244Y172894D01*
X3163300Y172877D01*
X3163352Y172850D01*
X3163420Y172839D01*
X3163515Y172809D01*
X3163615Y172806D01*
X3163683Y172795D01*
X3261190Y172795D01*
X3261248Y172803D01*
X3261306Y172801D01*
X3261388Y172823D01*
X3261472Y172835D01*
X3261525Y172858D01*
X3261581Y172873D01*
X3261654Y172916D01*
X3261731Y172951D01*
X3261776Y172989D01*
X3261826Y173018D01*
X3261884Y173080D01*
X3261948Y173134D01*
X3261980Y173183D01*
X3262020Y173226D01*
X3262059Y173301D01*
X3262106Y173371D01*
X3262123Y173427D01*
X3262150Y173479D01*
X3262161Y173547D01*
X3262191Y173642D01*
X3262194Y173742D01*
X3262205Y173810D01*
X3262205Y466190D01*
X3262197Y466248D01*
X3262199Y466306D01*
X3262177Y466388D01*
X3262165Y466472D01*
X3262142Y466525D01*
X3262127Y466581D01*
X3262084Y466654D01*
X3262049Y466731D01*
X3262011Y466776D01*
X3261982Y466826D01*
X3261920Y466884D01*
X3261866Y466948D01*
X3261817Y466980D01*
X3261774Y467020D01*
X3261699Y467059D01*
X3261629Y467106D01*
X3261573Y467123D01*
X3261521Y467150D01*
X3261453Y467161D01*
X3261358Y467191D01*
X3261258Y467194D01*
X3261190Y467205D01*
X3163842Y467205D01*
X3162205Y468842D01*
X3162205Y1973690D01*
X3162197Y1973748D01*
X3162199Y1973806D01*
X3162177Y1973888D01*
X3162165Y1973972D01*
X3162142Y1974025D01*
X3162127Y1974081D01*
X3162084Y1974154D01*
X3162049Y1974231D01*
X3162011Y1974276D01*
X3161982Y1974326D01*
X3161920Y1974384D01*
X3161866Y1974448D01*
X3161817Y1974480D01*
X3161774Y1974520D01*
X3161699Y1974559D01*
X3161629Y1974606D01*
X3161573Y1974623D01*
X3161521Y1974650D01*
X3161453Y1974661D01*
X3161358Y1974691D01*
X3161258Y1974694D01*
X3161190Y1974705D01*
X3120000Y1974705D01*
X3119942Y1974697D01*
X3119884Y1974699D01*
X3119802Y1974677D01*
X3119719Y1974665D01*
X3119665Y1974642D01*
X3119609Y1974627D01*
X3119536Y1974584D01*
X3119459Y1974549D01*
X3119414Y1974511D01*
X3119364Y1974482D01*
X3119306Y1974420D01*
X3119242Y1974366D01*
X3119210Y1974317D01*
X3119170Y1974274D01*
X3119131Y1974199D01*
X3119085Y1974129D01*
X3119067Y1974073D01*
X3119040Y1974021D01*
X3119029Y1973953D01*
X3118999Y1973858D01*
X3118996Y1973758D01*
X3118985Y1973690D01*
X3118985Y3810D01*
X3118993Y3752D01*
X3118991Y3694D01*
X3119013Y3612D01*
X3119025Y3528D01*
X3119049Y3475D01*
X3119063Y3419D01*
X3119106Y3346D01*
X3119141Y3269D01*
X3119179Y3224D01*
X3119209Y3174D01*
X3119270Y3116D01*
X3119325Y3052D01*
X3119373Y3020D01*
X3119416Y2980D01*
X3119491Y2941D01*
X3119561Y2894D01*
X3119617Y2877D01*
X3119669Y2850D01*
X3119737Y2839D01*
X3119832Y2809D01*
X3119932Y2806D01*
X3120000Y2795D01*
X3161190Y2795D01*
X3161248Y2803D01*
G37*
G36*
X531878Y2803D02*
X531878Y2803D01*
X531936Y2801D01*
X532018Y2823D01*
X532102Y2835D01*
X532155Y2858D01*
X532211Y2873D01*
X532284Y2916D01*
X532361Y2951D01*
X532406Y2989D01*
X532456Y3018D01*
X532514Y3080D01*
X532578Y3134D01*
X532610Y3183D01*
X532650Y3226D01*
X532689Y3301D01*
X532736Y3371D01*
X532753Y3427D01*
X532780Y3479D01*
X532791Y3547D01*
X532821Y3642D01*
X532824Y3742D01*
X532835Y3810D01*
X532835Y191976D01*
X532819Y192090D01*
X532809Y192205D01*
X532799Y192230D01*
X532795Y192258D01*
X532748Y192363D01*
X532707Y192470D01*
X532690Y192492D01*
X532679Y192517D01*
X532605Y192605D01*
X532535Y192696D01*
X532513Y192713D01*
X532496Y192734D01*
X532400Y192798D01*
X532308Y192867D01*
X532282Y192876D01*
X532259Y192892D01*
X532149Y192926D01*
X532042Y192967D01*
X532014Y192969D01*
X531988Y192977D01*
X531873Y192980D01*
X531758Y192990D01*
X531734Y192984D01*
X531704Y192985D01*
X531679Y192978D01*
X529414Y192978D01*
X527406Y193810D01*
X525741Y195475D01*
X525671Y195527D01*
X525607Y195587D01*
X525558Y195613D01*
X525514Y195646D01*
X525432Y195677D01*
X525354Y195717D01*
X525307Y195725D01*
X525248Y195747D01*
X525100Y195759D01*
X525023Y195772D01*
X216733Y195772D01*
X216675Y195764D01*
X216617Y195766D01*
X216535Y195744D01*
X216451Y195732D01*
X216398Y195709D01*
X216342Y195694D01*
X216269Y195651D01*
X216192Y195616D01*
X216147Y195578D01*
X216097Y195549D01*
X216039Y195487D01*
X215975Y195433D01*
X215943Y195384D01*
X215903Y195341D01*
X215864Y195266D01*
X215817Y195196D01*
X215800Y195140D01*
X215773Y195088D01*
X215762Y195020D01*
X215732Y194925D01*
X215729Y194825D01*
X215718Y194757D01*
X215718Y166977D01*
X215730Y166890D01*
X215733Y166803D01*
X215750Y166750D01*
X215758Y166695D01*
X215793Y166616D01*
X215820Y166532D01*
X215848Y166493D01*
X215874Y166436D01*
X215970Y166323D01*
X216015Y166259D01*
X217622Y164652D01*
X217692Y164600D01*
X217756Y164540D01*
X217805Y164514D01*
X217849Y164481D01*
X217931Y164450D01*
X218009Y164410D01*
X218056Y164402D01*
X218115Y164380D01*
X218263Y164368D01*
X218340Y164355D01*
X266412Y164355D01*
X266498Y164367D01*
X266586Y164370D01*
X266639Y164387D01*
X266693Y164395D01*
X266773Y164430D01*
X266856Y164457D01*
X266896Y164485D01*
X266953Y164511D01*
X267066Y164607D01*
X267130Y164652D01*
X270272Y167795D01*
X279650Y167795D01*
X279737Y167807D01*
X279824Y167810D01*
X279877Y167827D01*
X279932Y167835D01*
X280011Y167870D01*
X280095Y167897D01*
X280134Y167925D01*
X280191Y167951D01*
X280304Y168047D01*
X280368Y168092D01*
X281906Y169630D01*
X283914Y170462D01*
X286086Y170462D01*
X288094Y169630D01*
X289630Y168094D01*
X290462Y166086D01*
X290462Y163914D01*
X289630Y161906D01*
X288094Y160370D01*
X286086Y159538D01*
X283914Y159538D01*
X281906Y160370D01*
X280368Y161908D01*
X280298Y161960D01*
X280234Y162020D01*
X280185Y162046D01*
X280141Y162079D01*
X280059Y162110D01*
X279981Y162150D01*
X279934Y162158D01*
X279875Y162180D01*
X279727Y162192D01*
X279650Y162205D01*
X273008Y162205D01*
X272922Y162193D01*
X272834Y162190D01*
X272781Y162173D01*
X272727Y162165D01*
X272647Y162130D01*
X272564Y162103D01*
X272524Y162075D01*
X272467Y162049D01*
X272354Y161953D01*
X272290Y161908D01*
X269148Y158765D01*
X218460Y158765D01*
X218373Y158753D01*
X218286Y158750D01*
X218233Y158733D01*
X218178Y158725D01*
X218099Y158690D01*
X218015Y158663D01*
X217976Y158635D01*
X217919Y158609D01*
X217806Y158513D01*
X217742Y158468D01*
X216015Y156741D01*
X215963Y156671D01*
X215903Y156607D01*
X215877Y156558D01*
X215844Y156514D01*
X215813Y156432D01*
X215773Y156354D01*
X215765Y156307D01*
X215743Y156248D01*
X215731Y156100D01*
X215718Y156023D01*
X215718Y149755D01*
X215730Y149669D01*
X215733Y149581D01*
X215750Y149528D01*
X215758Y149474D01*
X215793Y149394D01*
X215820Y149311D01*
X215845Y149276D01*
X215845Y89170D01*
X215857Y89083D01*
X215860Y88996D01*
X215877Y88943D01*
X215885Y88888D01*
X215920Y88809D01*
X215947Y88725D01*
X215975Y88686D01*
X216001Y88629D01*
X216097Y88516D01*
X216142Y88452D01*
X217680Y86914D01*
X218512Y84906D01*
X218512Y82734D01*
X217680Y80726D01*
X216144Y79190D01*
X214136Y78358D01*
X211964Y78358D01*
X209956Y79190D01*
X208420Y80726D01*
X207588Y82734D01*
X207588Y84906D01*
X208420Y86914D01*
X209958Y88452D01*
X210010Y88522D01*
X210070Y88586D01*
X210096Y88635D01*
X210129Y88679D01*
X210160Y88761D01*
X210200Y88839D01*
X210208Y88886D01*
X210230Y88945D01*
X210242Y89093D01*
X210255Y89170D01*
X210255Y149264D01*
X210256Y149264D01*
X210287Y149346D01*
X210327Y149424D01*
X210335Y149472D01*
X210357Y149530D01*
X210369Y149678D01*
X210382Y149755D01*
X210382Y156023D01*
X210370Y156110D01*
X210367Y156197D01*
X210350Y156250D01*
X210342Y156305D01*
X210307Y156384D01*
X210280Y156468D01*
X210252Y156507D01*
X210226Y156564D01*
X210130Y156677D01*
X210085Y156741D01*
X208358Y158468D01*
X208288Y158520D01*
X208224Y158580D01*
X208175Y158606D01*
X208131Y158639D01*
X208049Y158670D01*
X207971Y158710D01*
X207924Y158718D01*
X207865Y158740D01*
X207717Y158752D01*
X207640Y158765D01*
X200318Y158765D01*
X200232Y158753D01*
X200144Y158750D01*
X200091Y158733D01*
X200037Y158725D01*
X199957Y158690D01*
X199874Y158663D01*
X199834Y158635D01*
X199777Y158609D01*
X199664Y158513D01*
X199600Y158468D01*
X186638Y145505D01*
X158250Y145505D01*
X158163Y145493D01*
X158076Y145490D01*
X158023Y145473D01*
X157968Y145465D01*
X157889Y145430D01*
X157805Y145403D01*
X157766Y145375D01*
X157709Y145349D01*
X157596Y145253D01*
X157532Y145208D01*
X155994Y143670D01*
X153986Y142838D01*
X151814Y142838D01*
X149806Y143670D01*
X148270Y145206D01*
X147438Y147214D01*
X147438Y149386D01*
X148270Y151394D01*
X149806Y152930D01*
X151814Y153762D01*
X153986Y153762D01*
X155994Y152930D01*
X157532Y151392D01*
X157602Y151340D01*
X157666Y151280D01*
X157715Y151254D01*
X157759Y151221D01*
X157841Y151190D01*
X157919Y151150D01*
X157966Y151142D01*
X158025Y151120D01*
X158173Y151108D01*
X158250Y151095D01*
X183902Y151095D01*
X183988Y151107D01*
X184076Y151110D01*
X184129Y151127D01*
X184183Y151135D01*
X184263Y151170D01*
X184346Y151197D01*
X184386Y151225D01*
X184443Y151251D01*
X184556Y151347D01*
X184620Y151392D01*
X197582Y164355D01*
X207760Y164355D01*
X207847Y164367D01*
X207934Y164370D01*
X207987Y164387D01*
X208042Y164395D01*
X208121Y164430D01*
X208205Y164457D01*
X208244Y164485D01*
X208301Y164511D01*
X208414Y164607D01*
X208478Y164652D01*
X210085Y166259D01*
X210137Y166329D01*
X210197Y166393D01*
X210223Y166442D01*
X210256Y166486D01*
X210287Y166568D01*
X210327Y166646D01*
X210335Y166693D01*
X210357Y166752D01*
X210369Y166900D01*
X210382Y166977D01*
X210382Y200000D01*
X210374Y200058D01*
X210376Y200116D01*
X210354Y200198D01*
X210342Y200282D01*
X210319Y200335D01*
X210304Y200391D01*
X210261Y200464D01*
X210226Y200541D01*
X210188Y200586D01*
X210159Y200636D01*
X210097Y200694D01*
X210043Y200758D01*
X209994Y200790D01*
X209951Y200830D01*
X209876Y200869D01*
X209806Y200916D01*
X209750Y200933D01*
X209698Y200960D01*
X209630Y200971D01*
X209535Y201001D01*
X209435Y201004D01*
X209367Y201015D01*
X95509Y201015D01*
X95422Y201003D01*
X95334Y201000D01*
X95282Y200983D01*
X95227Y200975D01*
X95147Y200940D01*
X95064Y200913D01*
X95025Y200885D01*
X94968Y200859D01*
X94854Y200763D01*
X94791Y200718D01*
X73092Y179019D01*
X73040Y178949D01*
X72980Y178886D01*
X72954Y178836D01*
X72921Y178792D01*
X72890Y178710D01*
X72850Y178633D01*
X72843Y178591D01*
X71158Y176905D01*
X44350Y176905D01*
X44263Y176893D01*
X44176Y176890D01*
X44123Y176873D01*
X44068Y176865D01*
X43989Y176830D01*
X43905Y176803D01*
X43866Y176775D01*
X43809Y176749D01*
X43696Y176653D01*
X43632Y176608D01*
X42094Y175070D01*
X40086Y174238D01*
X37914Y174238D01*
X35906Y175070D01*
X34370Y176606D01*
X33538Y178614D01*
X33538Y180786D01*
X34370Y182794D01*
X35906Y184330D01*
X37914Y185162D01*
X40086Y185162D01*
X42094Y184330D01*
X43632Y182792D01*
X43702Y182740D01*
X43766Y182680D01*
X43815Y182654D01*
X43859Y182621D01*
X43941Y182590D01*
X44019Y182550D01*
X44066Y182542D01*
X44125Y182520D01*
X44273Y182508D01*
X44350Y182495D01*
X68601Y182495D01*
X68688Y182507D01*
X68775Y182510D01*
X68828Y182527D01*
X68883Y182535D01*
X68963Y182570D01*
X69046Y182597D01*
X69085Y182625D01*
X69142Y182651D01*
X69256Y182747D01*
X69319Y182792D01*
X85809Y199282D01*
X85827Y199306D01*
X85849Y199325D01*
X85912Y199419D01*
X85980Y199509D01*
X85991Y199537D01*
X86007Y199561D01*
X86041Y199669D01*
X86081Y199775D01*
X86084Y199804D01*
X86093Y199832D01*
X86096Y199946D01*
X86105Y200058D01*
X86099Y200087D01*
X86100Y200116D01*
X86071Y200226D01*
X86049Y200337D01*
X86036Y200363D01*
X86028Y200391D01*
X85970Y200489D01*
X85918Y200589D01*
X85898Y200611D01*
X85883Y200636D01*
X85800Y200713D01*
X85722Y200795D01*
X85697Y200810D01*
X85676Y200830D01*
X85575Y200882D01*
X85477Y200939D01*
X85449Y200946D01*
X85423Y200960D01*
X85345Y200973D01*
X85202Y201009D01*
X85139Y201007D01*
X85091Y201015D01*
X3810Y201015D01*
X3752Y201007D01*
X3694Y201009D01*
X3612Y200987D01*
X3528Y200975D01*
X3475Y200952D01*
X3419Y200937D01*
X3346Y200894D01*
X3269Y200859D01*
X3224Y200821D01*
X3174Y200792D01*
X3116Y200730D01*
X3052Y200676D01*
X3020Y200627D01*
X2980Y200584D01*
X2941Y200509D01*
X2894Y200439D01*
X2877Y200383D01*
X2850Y200331D01*
X2839Y200263D01*
X2809Y200168D01*
X2806Y200068D01*
X2795Y200000D01*
X2795Y3810D01*
X2803Y3752D01*
X2801Y3694D01*
X2823Y3612D01*
X2835Y3528D01*
X2858Y3475D01*
X2873Y3419D01*
X2916Y3346D01*
X2951Y3269D01*
X2989Y3224D01*
X3018Y3174D01*
X3080Y3116D01*
X3134Y3052D01*
X3183Y3020D01*
X3226Y2980D01*
X3301Y2941D01*
X3371Y2894D01*
X3427Y2877D01*
X3479Y2850D01*
X3547Y2839D01*
X3642Y2809D01*
X3742Y2806D01*
X3810Y2795D01*
X531820Y2795D01*
X531878Y2803D01*
G37*
%LPC*%
G36*
X673914Y167038D02*
X673914Y167038D01*
X671906Y167870D01*
X670370Y169406D01*
X669538Y171414D01*
X669538Y173586D01*
X670394Y175652D01*
X670402Y175682D01*
X670416Y175710D01*
X670429Y175787D01*
X670465Y175928D01*
X670463Y175992D01*
X670471Y176041D01*
X670471Y279456D01*
X670463Y279514D01*
X670465Y279572D01*
X670443Y279654D01*
X670431Y279738D01*
X670408Y279791D01*
X670393Y279847D01*
X670350Y279920D01*
X670315Y279997D01*
X670277Y280042D01*
X670248Y280092D01*
X670186Y280150D01*
X670132Y280214D01*
X670083Y280246D01*
X670040Y280286D01*
X669965Y280325D01*
X669895Y280372D01*
X669839Y280389D01*
X669787Y280416D01*
X669719Y280427D01*
X669624Y280457D01*
X669524Y280460D01*
X669456Y280471D01*
X103541Y280471D01*
X103510Y280467D01*
X103479Y280469D01*
X103403Y280452D01*
X103259Y280431D01*
X103201Y280405D01*
X103152Y280394D01*
X101028Y279514D01*
X101001Y279498D01*
X100972Y279489D01*
X100908Y279443D01*
X100783Y279370D01*
X100739Y279323D01*
X100699Y279294D01*
X40706Y219301D01*
X40688Y219277D01*
X40664Y219257D01*
X40622Y219190D01*
X40535Y219074D01*
X40512Y219014D01*
X40486Y218972D01*
X39630Y216906D01*
X38094Y215370D01*
X36086Y214538D01*
X33914Y214538D01*
X31906Y215370D01*
X30370Y216906D01*
X29538Y218914D01*
X29538Y221086D01*
X30370Y223094D01*
X31906Y224630D01*
X33972Y225486D01*
X33999Y225502D01*
X34028Y225511D01*
X34092Y225557D01*
X34217Y225630D01*
X34261Y225677D01*
X34301Y225706D01*
X94294Y285699D01*
X94312Y285723D01*
X94336Y285743D01*
X94378Y285810D01*
X94465Y285926D01*
X94488Y285986D01*
X94514Y286028D01*
X95370Y288094D01*
X96906Y289630D01*
X98914Y290462D01*
X101086Y290462D01*
X103152Y289606D01*
X103182Y289598D01*
X103210Y289584D01*
X103287Y289571D01*
X103428Y289535D01*
X103492Y289537D01*
X103541Y289529D01*
X907704Y289529D01*
X907790Y289541D01*
X907878Y289544D01*
X907930Y289561D01*
X907985Y289569D01*
X908065Y289604D01*
X908148Y289631D01*
X908187Y289659D01*
X908245Y289685D01*
X908358Y289781D01*
X908422Y289826D01*
X1020174Y401579D01*
X1023124Y404529D01*
X3071459Y404529D01*
X3071490Y404533D01*
X3071521Y404531D01*
X3071597Y404548D01*
X3071741Y404569D01*
X3071799Y404595D01*
X3071848Y404606D01*
X3073914Y405462D01*
X3076086Y405462D01*
X3078094Y404630D01*
X3079630Y403094D01*
X3080462Y401086D01*
X3080462Y398914D01*
X3079630Y396906D01*
X3078094Y395370D01*
X3076086Y394538D01*
X3073914Y394538D01*
X3071848Y395394D01*
X3071818Y395402D01*
X3071790Y395416D01*
X3071713Y395429D01*
X3071572Y395465D01*
X3071508Y395463D01*
X3071459Y395471D01*
X1027296Y395471D01*
X1027210Y395459D01*
X1027122Y395456D01*
X1027070Y395439D01*
X1027015Y395431D01*
X1026935Y395396D01*
X1026852Y395369D01*
X1026813Y395341D01*
X1026755Y395315D01*
X1026642Y395219D01*
X1026579Y395174D01*
X914826Y283422D01*
X914826Y283421D01*
X911876Y280471D01*
X680544Y280471D01*
X680486Y280463D01*
X680428Y280465D01*
X680346Y280443D01*
X680262Y280431D01*
X680209Y280408D01*
X680153Y280393D01*
X680080Y280350D01*
X680003Y280315D01*
X679958Y280277D01*
X679908Y280248D01*
X679850Y280186D01*
X679786Y280132D01*
X679754Y280083D01*
X679714Y280040D01*
X679675Y279965D01*
X679628Y279895D01*
X679611Y279839D01*
X679584Y279787D01*
X679573Y279719D01*
X679543Y279624D01*
X679540Y279524D01*
X679529Y279456D01*
X679529Y176041D01*
X679533Y176010D01*
X679531Y175979D01*
X679548Y175903D01*
X679569Y175759D01*
X679595Y175701D01*
X679606Y175652D01*
X680462Y173586D01*
X680462Y171414D01*
X679630Y169406D01*
X678094Y167870D01*
X676086Y167038D01*
X673914Y167038D01*
G37*
%LPD*%
%LPC*%
G36*
X91624Y330471D02*
X91624Y330471D01*
X74301Y347794D01*
X74277Y347813D01*
X74257Y347836D01*
X74190Y347878D01*
X74074Y347965D01*
X74014Y347988D01*
X73972Y348014D01*
X71906Y348870D01*
X70370Y350406D01*
X69538Y352414D01*
X69538Y354586D01*
X70370Y356594D01*
X71906Y358130D01*
X73914Y358962D01*
X76086Y358962D01*
X78094Y358130D01*
X79630Y356594D01*
X80486Y354528D01*
X80502Y354501D01*
X80511Y354472D01*
X80557Y354408D01*
X80630Y354283D01*
X80677Y354239D01*
X80706Y354199D01*
X95079Y339826D01*
X95148Y339774D01*
X95212Y339714D01*
X95262Y339688D01*
X95306Y339655D01*
X95387Y339624D01*
X95465Y339584D01*
X95513Y339576D01*
X95571Y339554D01*
X95719Y339542D01*
X95796Y339529D01*
X732704Y339529D01*
X732790Y339541D01*
X732878Y339544D01*
X732930Y339561D01*
X732985Y339569D01*
X733065Y339604D01*
X733148Y339631D01*
X733187Y339659D01*
X733245Y339685D01*
X733358Y339781D01*
X733421Y339826D01*
X948124Y554529D01*
X3071459Y554529D01*
X3071490Y554533D01*
X3071521Y554531D01*
X3071597Y554548D01*
X3071741Y554569D01*
X3071799Y554595D01*
X3071848Y554606D01*
X3073914Y555462D01*
X3076086Y555462D01*
X3078094Y554630D01*
X3079630Y553094D01*
X3080462Y551086D01*
X3080462Y548914D01*
X3079630Y546906D01*
X3078094Y545370D01*
X3076086Y544538D01*
X3073914Y544538D01*
X3071848Y545394D01*
X3071818Y545402D01*
X3071790Y545416D01*
X3071713Y545429D01*
X3071572Y545465D01*
X3071508Y545463D01*
X3071459Y545471D01*
X952296Y545471D01*
X952210Y545459D01*
X952122Y545456D01*
X952070Y545439D01*
X952015Y545431D01*
X951935Y545396D01*
X951852Y545369D01*
X951813Y545341D01*
X951755Y545315D01*
X951642Y545219D01*
X951579Y545174D01*
X736876Y330471D01*
X91624Y330471D01*
G37*
%LPD*%
%LPC*%
G36*
X73914Y1094538D02*
X73914Y1094538D01*
X71906Y1095370D01*
X70370Y1096906D01*
X69538Y1098914D01*
X69538Y1101086D01*
X70370Y1103094D01*
X71906Y1104630D01*
X73914Y1105462D01*
X76086Y1105462D01*
X78152Y1104606D01*
X78182Y1104598D01*
X78210Y1104584D01*
X78287Y1104571D01*
X78428Y1104535D01*
X78492Y1104537D01*
X78541Y1104529D01*
X91091Y1104529D01*
X91178Y1104541D01*
X91266Y1104544D01*
X91318Y1104561D01*
X91373Y1104569D01*
X91453Y1104604D01*
X91536Y1104631D01*
X91575Y1104659D01*
X91632Y1104685D01*
X91746Y1104781D01*
X91809Y1104826D01*
X94723Y1107740D01*
X255277Y1107740D01*
X258191Y1104826D01*
X258260Y1104774D01*
X258324Y1104714D01*
X258374Y1104688D01*
X258418Y1104655D01*
X258500Y1104624D01*
X258577Y1104584D01*
X258625Y1104576D01*
X258683Y1104554D01*
X258831Y1104542D01*
X258909Y1104529D01*
X372704Y1104529D01*
X372790Y1104541D01*
X372878Y1104544D01*
X372930Y1104561D01*
X372985Y1104569D01*
X373065Y1104604D01*
X373148Y1104631D01*
X373187Y1104659D01*
X373245Y1104685D01*
X373358Y1104781D01*
X373421Y1104826D01*
X573124Y1304529D01*
X3071459Y1304529D01*
X3071490Y1304533D01*
X3071521Y1304531D01*
X3071597Y1304548D01*
X3071741Y1304569D01*
X3071799Y1304595D01*
X3071848Y1304606D01*
X3073914Y1305462D01*
X3076086Y1305462D01*
X3078094Y1304630D01*
X3079630Y1303094D01*
X3080462Y1301086D01*
X3080462Y1298914D01*
X3079630Y1296906D01*
X3078094Y1295370D01*
X3076086Y1294538D01*
X3073914Y1294538D01*
X3071848Y1295394D01*
X3071818Y1295402D01*
X3071790Y1295416D01*
X3071713Y1295429D01*
X3071572Y1295465D01*
X3071508Y1295463D01*
X3071459Y1295471D01*
X577296Y1295471D01*
X577210Y1295459D01*
X577122Y1295456D01*
X577070Y1295439D01*
X577015Y1295431D01*
X576935Y1295396D01*
X576852Y1295369D01*
X576813Y1295341D01*
X576755Y1295315D01*
X576642Y1295219D01*
X576579Y1295174D01*
X376876Y1095471D01*
X254736Y1095471D01*
X251823Y1098385D01*
X251753Y1098437D01*
X251689Y1098497D01*
X251640Y1098523D01*
X251595Y1098556D01*
X251514Y1098587D01*
X251436Y1098627D01*
X251388Y1098635D01*
X251330Y1098657D01*
X251182Y1098669D01*
X251105Y1098682D01*
X98895Y1098682D01*
X98809Y1098670D01*
X98721Y1098667D01*
X98669Y1098650D01*
X98614Y1098642D01*
X98534Y1098607D01*
X98451Y1098580D01*
X98411Y1098552D01*
X98354Y1098526D01*
X98241Y1098430D01*
X98177Y1098385D01*
X95264Y1095471D01*
X78541Y1095471D01*
X78510Y1095467D01*
X78479Y1095469D01*
X78403Y1095452D01*
X78259Y1095431D01*
X78201Y1095405D01*
X78152Y1095394D01*
X76086Y1094538D01*
X73914Y1094538D01*
G37*
%LPD*%
%LPC*%
G36*
X73914Y944538D02*
X73914Y944538D01*
X71906Y945370D01*
X70370Y946906D01*
X69538Y948914D01*
X69538Y951086D01*
X70370Y953094D01*
X71906Y954630D01*
X73914Y955462D01*
X76086Y955462D01*
X78152Y954606D01*
X78182Y954598D01*
X78210Y954584D01*
X78287Y954571D01*
X78428Y954535D01*
X78492Y954537D01*
X78541Y954529D01*
X91091Y954529D01*
X91178Y954541D01*
X91266Y954544D01*
X91318Y954561D01*
X91373Y954569D01*
X91453Y954604D01*
X91536Y954631D01*
X91575Y954659D01*
X91632Y954685D01*
X91746Y954781D01*
X91809Y954826D01*
X94723Y957740D01*
X405277Y957740D01*
X408191Y954826D01*
X408260Y954774D01*
X408324Y954714D01*
X408374Y954688D01*
X408418Y954655D01*
X408500Y954624D01*
X408577Y954584D01*
X408625Y954576D01*
X408683Y954554D01*
X408831Y954542D01*
X408909Y954529D01*
X447704Y954529D01*
X447790Y954541D01*
X447878Y954544D01*
X447930Y954561D01*
X447985Y954569D01*
X448065Y954604D01*
X448148Y954631D01*
X448187Y954659D01*
X448245Y954685D01*
X448358Y954781D01*
X448421Y954826D01*
X648124Y1154529D01*
X3071459Y1154529D01*
X3071490Y1154533D01*
X3071521Y1154531D01*
X3071597Y1154548D01*
X3071741Y1154569D01*
X3071799Y1154595D01*
X3071848Y1154606D01*
X3073914Y1155462D01*
X3076086Y1155462D01*
X3078094Y1154630D01*
X3079630Y1153094D01*
X3080462Y1151086D01*
X3080462Y1148914D01*
X3079630Y1146906D01*
X3078094Y1145370D01*
X3076086Y1144538D01*
X3073914Y1144538D01*
X3071848Y1145394D01*
X3071818Y1145402D01*
X3071790Y1145416D01*
X3071713Y1145429D01*
X3071572Y1145465D01*
X3071508Y1145463D01*
X3071459Y1145471D01*
X652296Y1145471D01*
X652210Y1145459D01*
X652122Y1145456D01*
X652070Y1145439D01*
X652015Y1145431D01*
X651935Y1145396D01*
X651852Y1145369D01*
X651813Y1145341D01*
X651755Y1145315D01*
X651642Y1145219D01*
X651579Y1145174D01*
X451876Y945471D01*
X404736Y945471D01*
X401823Y948385D01*
X401753Y948437D01*
X401689Y948497D01*
X401640Y948523D01*
X401595Y948556D01*
X401514Y948587D01*
X401436Y948627D01*
X401388Y948635D01*
X401330Y948657D01*
X401182Y948669D01*
X401105Y948682D01*
X98895Y948682D01*
X98809Y948670D01*
X98721Y948667D01*
X98669Y948650D01*
X98614Y948642D01*
X98534Y948607D01*
X98451Y948580D01*
X98411Y948552D01*
X98354Y948526D01*
X98241Y948430D01*
X98177Y948385D01*
X95264Y945471D01*
X78541Y945471D01*
X78510Y945467D01*
X78479Y945469D01*
X78403Y945452D01*
X78259Y945431D01*
X78201Y945405D01*
X78152Y945394D01*
X76086Y944538D01*
X73914Y944538D01*
G37*
%LPD*%
%LPC*%
G36*
X73914Y494538D02*
X73914Y494538D01*
X71906Y495370D01*
X70370Y496906D01*
X69538Y498914D01*
X69538Y501086D01*
X70370Y503094D01*
X71906Y504630D01*
X73914Y505462D01*
X76086Y505462D01*
X78152Y504606D01*
X78182Y504598D01*
X78210Y504584D01*
X78287Y504571D01*
X78428Y504535D01*
X78492Y504537D01*
X78541Y504529D01*
X91091Y504529D01*
X91178Y504541D01*
X91266Y504544D01*
X91318Y504561D01*
X91373Y504569D01*
X91453Y504604D01*
X91536Y504631D01*
X91575Y504659D01*
X91632Y504685D01*
X91746Y504781D01*
X91809Y504826D01*
X94723Y507740D01*
X555277Y507740D01*
X558191Y504826D01*
X558260Y504774D01*
X558324Y504714D01*
X558374Y504688D01*
X558418Y504655D01*
X558500Y504624D01*
X558577Y504584D01*
X558625Y504576D01*
X558683Y504554D01*
X558831Y504542D01*
X558909Y504529D01*
X672704Y504529D01*
X672790Y504541D01*
X672878Y504544D01*
X672930Y504561D01*
X672985Y504569D01*
X673065Y504604D01*
X673148Y504631D01*
X673187Y504659D01*
X673245Y504685D01*
X673358Y504781D01*
X673421Y504826D01*
X873124Y704529D01*
X3071459Y704529D01*
X3071490Y704533D01*
X3071521Y704531D01*
X3071597Y704548D01*
X3071741Y704569D01*
X3071799Y704595D01*
X3071848Y704606D01*
X3073914Y705462D01*
X3076086Y705462D01*
X3078094Y704630D01*
X3079630Y703094D01*
X3080462Y701086D01*
X3080462Y698914D01*
X3079630Y696906D01*
X3078094Y695370D01*
X3076086Y694538D01*
X3073914Y694538D01*
X3071848Y695394D01*
X3071818Y695402D01*
X3071790Y695416D01*
X3071713Y695429D01*
X3071572Y695465D01*
X3071508Y695463D01*
X3071459Y695471D01*
X877296Y695471D01*
X877210Y695459D01*
X877122Y695456D01*
X877070Y695439D01*
X877015Y695431D01*
X876935Y695396D01*
X876852Y695369D01*
X876813Y695341D01*
X876755Y695315D01*
X876642Y695219D01*
X876579Y695174D01*
X676876Y495471D01*
X554736Y495471D01*
X551823Y498385D01*
X551753Y498437D01*
X551689Y498497D01*
X551640Y498523D01*
X551595Y498556D01*
X551514Y498587D01*
X551436Y498627D01*
X551388Y498635D01*
X551330Y498657D01*
X551182Y498669D01*
X551105Y498682D01*
X98895Y498682D01*
X98809Y498670D01*
X98721Y498667D01*
X98669Y498650D01*
X98614Y498642D01*
X98534Y498607D01*
X98451Y498580D01*
X98411Y498552D01*
X98354Y498526D01*
X98241Y498430D01*
X98177Y498385D01*
X95264Y495471D01*
X78541Y495471D01*
X78510Y495467D01*
X78479Y495469D01*
X78403Y495452D01*
X78259Y495431D01*
X78201Y495405D01*
X78152Y495394D01*
X76086Y494538D01*
X73914Y494538D01*
G37*
%LPD*%
%LPC*%
G36*
X73914Y644538D02*
X73914Y644538D01*
X71906Y645370D01*
X70370Y646906D01*
X69538Y648914D01*
X69538Y651086D01*
X70370Y653094D01*
X71906Y654630D01*
X73914Y655462D01*
X76086Y655462D01*
X78152Y654606D01*
X78182Y654598D01*
X78210Y654584D01*
X78287Y654571D01*
X78428Y654535D01*
X78492Y654537D01*
X78541Y654529D01*
X91091Y654529D01*
X91178Y654541D01*
X91266Y654544D01*
X91318Y654561D01*
X91373Y654569D01*
X91453Y654604D01*
X91536Y654631D01*
X91575Y654659D01*
X91632Y654685D01*
X91746Y654781D01*
X91809Y654826D01*
X94723Y657740D01*
X555277Y657740D01*
X558191Y654826D01*
X558260Y654774D01*
X558324Y654714D01*
X558374Y654688D01*
X558418Y654655D01*
X558500Y654624D01*
X558577Y654584D01*
X558625Y654576D01*
X558683Y654554D01*
X558831Y654542D01*
X558909Y654529D01*
X597704Y654529D01*
X597790Y654541D01*
X597878Y654544D01*
X597930Y654561D01*
X597985Y654569D01*
X598065Y654604D01*
X598148Y654631D01*
X598187Y654659D01*
X598245Y654685D01*
X598358Y654781D01*
X598421Y654826D01*
X798124Y854529D01*
X3071459Y854529D01*
X3071490Y854533D01*
X3071521Y854531D01*
X3071597Y854548D01*
X3071741Y854569D01*
X3071799Y854595D01*
X3071848Y854606D01*
X3073914Y855462D01*
X3076086Y855462D01*
X3078094Y854630D01*
X3079630Y853094D01*
X3080462Y851086D01*
X3080462Y848914D01*
X3079630Y846906D01*
X3078094Y845370D01*
X3076086Y844538D01*
X3073914Y844538D01*
X3071848Y845394D01*
X3071818Y845402D01*
X3071790Y845416D01*
X3071713Y845429D01*
X3071572Y845465D01*
X3071508Y845463D01*
X3071459Y845471D01*
X802296Y845471D01*
X802210Y845459D01*
X802122Y845456D01*
X802070Y845439D01*
X802015Y845431D01*
X801935Y845396D01*
X801852Y845369D01*
X801813Y845341D01*
X801755Y845315D01*
X801642Y845219D01*
X801579Y845174D01*
X601876Y645471D01*
X554736Y645471D01*
X551823Y648385D01*
X551753Y648437D01*
X551689Y648497D01*
X551640Y648523D01*
X551595Y648556D01*
X551514Y648587D01*
X551436Y648627D01*
X551388Y648635D01*
X551330Y648657D01*
X551182Y648669D01*
X551105Y648682D01*
X98895Y648682D01*
X98809Y648670D01*
X98721Y648667D01*
X98669Y648650D01*
X98614Y648642D01*
X98534Y648607D01*
X98451Y648580D01*
X98411Y648552D01*
X98354Y648526D01*
X98241Y648430D01*
X98177Y648385D01*
X95264Y645471D01*
X78541Y645471D01*
X78510Y645467D01*
X78479Y645469D01*
X78403Y645452D01*
X78259Y645431D01*
X78209Y645409D01*
X78203Y645408D01*
X78192Y645403D01*
X78152Y645394D01*
X76086Y644538D01*
X73914Y644538D01*
G37*
%LPD*%
%LPC*%
G36*
X73914Y794538D02*
X73914Y794538D01*
X71906Y795370D01*
X70370Y796906D01*
X69538Y798914D01*
X69538Y801086D01*
X70370Y803094D01*
X71906Y804630D01*
X73914Y805462D01*
X76086Y805462D01*
X78152Y804606D01*
X78182Y804598D01*
X78210Y804584D01*
X78287Y804571D01*
X78428Y804535D01*
X78492Y804537D01*
X78541Y804529D01*
X91091Y804529D01*
X91178Y804541D01*
X91266Y804544D01*
X91318Y804561D01*
X91373Y804569D01*
X91453Y804604D01*
X91536Y804631D01*
X91575Y804659D01*
X91632Y804685D01*
X91746Y804781D01*
X91809Y804826D01*
X94723Y807740D01*
X405277Y807740D01*
X408191Y804826D01*
X408260Y804774D01*
X408324Y804714D01*
X408374Y804688D01*
X408418Y804655D01*
X408500Y804624D01*
X408577Y804584D01*
X408625Y804576D01*
X408683Y804554D01*
X408831Y804542D01*
X408909Y804529D01*
X522704Y804529D01*
X522790Y804541D01*
X522878Y804544D01*
X522930Y804561D01*
X522985Y804569D01*
X523065Y804604D01*
X523148Y804631D01*
X523187Y804659D01*
X523245Y804685D01*
X523358Y804781D01*
X523421Y804826D01*
X723124Y1004529D01*
X3071459Y1004529D01*
X3071490Y1004533D01*
X3071521Y1004531D01*
X3071597Y1004548D01*
X3071741Y1004569D01*
X3071799Y1004595D01*
X3071848Y1004606D01*
X3073914Y1005462D01*
X3076086Y1005462D01*
X3078094Y1004630D01*
X3079630Y1003094D01*
X3080462Y1001086D01*
X3080462Y998914D01*
X3079630Y996906D01*
X3078094Y995370D01*
X3076086Y994538D01*
X3073914Y994538D01*
X3071848Y995394D01*
X3071818Y995402D01*
X3071790Y995416D01*
X3071713Y995429D01*
X3071572Y995465D01*
X3071508Y995463D01*
X3071459Y995471D01*
X727296Y995471D01*
X727210Y995459D01*
X727122Y995456D01*
X727070Y995439D01*
X727015Y995431D01*
X726935Y995396D01*
X726852Y995369D01*
X726813Y995341D01*
X726755Y995315D01*
X726642Y995219D01*
X726579Y995174D01*
X526876Y795471D01*
X404736Y795471D01*
X401823Y798385D01*
X401753Y798437D01*
X401689Y798497D01*
X401640Y798523D01*
X401595Y798556D01*
X401514Y798587D01*
X401436Y798627D01*
X401388Y798635D01*
X401330Y798657D01*
X401182Y798669D01*
X401105Y798682D01*
X98895Y798682D01*
X98809Y798670D01*
X98721Y798667D01*
X98669Y798650D01*
X98614Y798642D01*
X98534Y798607D01*
X98451Y798580D01*
X98411Y798552D01*
X98354Y798526D01*
X98241Y798430D01*
X98177Y798385D01*
X95264Y795471D01*
X78541Y795471D01*
X78510Y795467D01*
X78479Y795469D01*
X78403Y795452D01*
X78259Y795431D01*
X78201Y795405D01*
X78152Y795394D01*
X76086Y794538D01*
X73914Y794538D01*
G37*
%LPD*%
%LPC*%
G36*
X73914Y1544538D02*
X73914Y1544538D01*
X71906Y1545370D01*
X70370Y1546906D01*
X69538Y1548914D01*
X69538Y1551086D01*
X70370Y1553094D01*
X71906Y1554630D01*
X73914Y1555462D01*
X76086Y1555462D01*
X78152Y1554606D01*
X78182Y1554598D01*
X78210Y1554584D01*
X78287Y1554571D01*
X78428Y1554535D01*
X78492Y1554537D01*
X78541Y1554529D01*
X147704Y1554529D01*
X147790Y1554541D01*
X147878Y1554544D01*
X147930Y1554561D01*
X147985Y1554569D01*
X148065Y1554604D01*
X148148Y1554631D01*
X148187Y1554659D01*
X148245Y1554685D01*
X148358Y1554781D01*
X148421Y1554826D01*
X348124Y1754529D01*
X3071459Y1754529D01*
X3071490Y1754533D01*
X3071521Y1754531D01*
X3071597Y1754548D01*
X3071741Y1754569D01*
X3071799Y1754595D01*
X3071848Y1754606D01*
X3073914Y1755462D01*
X3076086Y1755462D01*
X3078094Y1754630D01*
X3079630Y1753094D01*
X3080462Y1751086D01*
X3080462Y1748914D01*
X3079630Y1746906D01*
X3078094Y1745370D01*
X3076086Y1744538D01*
X3073914Y1744538D01*
X3071848Y1745394D01*
X3071818Y1745402D01*
X3071790Y1745416D01*
X3071713Y1745429D01*
X3071572Y1745465D01*
X3071508Y1745463D01*
X3071459Y1745471D01*
X352296Y1745471D01*
X352210Y1745459D01*
X352122Y1745456D01*
X352070Y1745439D01*
X352015Y1745431D01*
X351935Y1745396D01*
X351852Y1745369D01*
X351813Y1745341D01*
X351755Y1745315D01*
X351642Y1745219D01*
X351579Y1745174D01*
X151876Y1545471D01*
X78541Y1545471D01*
X78510Y1545467D01*
X78479Y1545469D01*
X78403Y1545452D01*
X78259Y1545431D01*
X78201Y1545405D01*
X78152Y1545394D01*
X76086Y1544538D01*
X73914Y1544538D01*
G37*
%LPD*%
%LPC*%
G36*
X73914Y1394538D02*
X73914Y1394538D01*
X71906Y1395370D01*
X70370Y1396906D01*
X69538Y1398914D01*
X69538Y1401086D01*
X70370Y1403094D01*
X71906Y1404630D01*
X73914Y1405462D01*
X76086Y1405462D01*
X78152Y1404606D01*
X78182Y1404598D01*
X78210Y1404584D01*
X78287Y1404571D01*
X78428Y1404535D01*
X78492Y1404537D01*
X78541Y1404529D01*
X222704Y1404529D01*
X222790Y1404541D01*
X222878Y1404544D01*
X222930Y1404561D01*
X222985Y1404569D01*
X223065Y1404604D01*
X223148Y1404631D01*
X223187Y1404659D01*
X223245Y1404685D01*
X223358Y1404781D01*
X223421Y1404826D01*
X423124Y1604529D01*
X3071459Y1604529D01*
X3071490Y1604533D01*
X3071521Y1604531D01*
X3071597Y1604548D01*
X3071741Y1604569D01*
X3071799Y1604595D01*
X3071848Y1604606D01*
X3073914Y1605462D01*
X3076086Y1605462D01*
X3078094Y1604630D01*
X3079630Y1603094D01*
X3080462Y1601086D01*
X3080462Y1598914D01*
X3079630Y1596906D01*
X3078094Y1595370D01*
X3076086Y1594538D01*
X3073914Y1594538D01*
X3071848Y1595394D01*
X3071818Y1595402D01*
X3071790Y1595416D01*
X3071713Y1595429D01*
X3071572Y1595465D01*
X3071508Y1595463D01*
X3071459Y1595471D01*
X427296Y1595471D01*
X427210Y1595459D01*
X427122Y1595456D01*
X427070Y1595439D01*
X427015Y1595431D01*
X426935Y1595396D01*
X426852Y1595369D01*
X426813Y1595341D01*
X426755Y1595315D01*
X426642Y1595219D01*
X426579Y1595174D01*
X226876Y1395471D01*
X78541Y1395471D01*
X78510Y1395467D01*
X78479Y1395469D01*
X78403Y1395452D01*
X78259Y1395431D01*
X78201Y1395405D01*
X78152Y1395394D01*
X76086Y1394538D01*
X73914Y1394538D01*
G37*
%LPD*%
%LPC*%
G36*
X73914Y1244538D02*
X73914Y1244538D01*
X71906Y1245370D01*
X70370Y1246906D01*
X69538Y1248914D01*
X69538Y1251086D01*
X70370Y1253094D01*
X71906Y1254630D01*
X73914Y1255462D01*
X76086Y1255462D01*
X78152Y1254606D01*
X78182Y1254598D01*
X78210Y1254584D01*
X78287Y1254571D01*
X78428Y1254535D01*
X78492Y1254537D01*
X78541Y1254529D01*
X297704Y1254529D01*
X297790Y1254541D01*
X297878Y1254544D01*
X297930Y1254561D01*
X297985Y1254569D01*
X298065Y1254604D01*
X298148Y1254631D01*
X298187Y1254659D01*
X298245Y1254685D01*
X298358Y1254781D01*
X298421Y1254826D01*
X498124Y1454529D01*
X3071459Y1454529D01*
X3071490Y1454533D01*
X3071521Y1454531D01*
X3071597Y1454548D01*
X3071741Y1454569D01*
X3071799Y1454595D01*
X3071848Y1454606D01*
X3073914Y1455462D01*
X3076086Y1455462D01*
X3078094Y1454630D01*
X3079630Y1453094D01*
X3080462Y1451086D01*
X3080462Y1448914D01*
X3079630Y1446906D01*
X3078094Y1445370D01*
X3076086Y1444538D01*
X3073914Y1444538D01*
X3071848Y1445394D01*
X3071824Y1445400D01*
X3071805Y1445409D01*
X3071801Y1445410D01*
X3071790Y1445416D01*
X3071713Y1445429D01*
X3071572Y1445465D01*
X3071508Y1445463D01*
X3071459Y1445471D01*
X502296Y1445471D01*
X502210Y1445459D01*
X502122Y1445456D01*
X502070Y1445439D01*
X502015Y1445431D01*
X501935Y1445396D01*
X501852Y1445369D01*
X501813Y1445341D01*
X501755Y1445315D01*
X501642Y1445219D01*
X501579Y1445174D01*
X301876Y1245471D01*
X78541Y1245471D01*
X78510Y1245467D01*
X78479Y1245469D01*
X78403Y1245452D01*
X78259Y1245431D01*
X78237Y1245421D01*
X78234Y1245421D01*
X78197Y1245404D01*
X78152Y1245394D01*
X76086Y1244538D01*
X73914Y1244538D01*
G37*
%LPD*%
%LPC*%
G36*
X73914Y1694538D02*
X73914Y1694538D01*
X71906Y1695370D01*
X70370Y1696906D01*
X69538Y1698914D01*
X69538Y1701086D01*
X70370Y1703094D01*
X71906Y1704630D01*
X73972Y1705486D01*
X73999Y1705502D01*
X74028Y1705511D01*
X74092Y1705557D01*
X74217Y1705630D01*
X74261Y1705677D01*
X74301Y1705706D01*
X273124Y1904529D01*
X1695204Y1904529D01*
X1695290Y1904541D01*
X1695378Y1904544D01*
X1695430Y1904561D01*
X1695485Y1904569D01*
X1695565Y1904604D01*
X1695648Y1904631D01*
X1695687Y1904659D01*
X1695745Y1904685D01*
X1695858Y1904781D01*
X1695921Y1904826D01*
X1730174Y1939078D01*
X1730174Y1939079D01*
X1733124Y1942029D01*
X1786876Y1942029D01*
X1824079Y1904826D01*
X1824148Y1904774D01*
X1824212Y1904714D01*
X1824262Y1904688D01*
X1824306Y1904655D01*
X1824387Y1904624D01*
X1824465Y1904584D01*
X1824513Y1904576D01*
X1824571Y1904554D01*
X1824719Y1904542D01*
X1824796Y1904529D01*
X2971459Y1904529D01*
X2971490Y1904533D01*
X2971521Y1904531D01*
X2971597Y1904548D01*
X2971741Y1904569D01*
X2971799Y1904595D01*
X2971848Y1904606D01*
X2973914Y1905462D01*
X2976086Y1905462D01*
X2978094Y1904630D01*
X2979630Y1903094D01*
X2980462Y1901086D01*
X2980462Y1898914D01*
X2979630Y1896906D01*
X2978094Y1895370D01*
X2976086Y1894538D01*
X2973914Y1894538D01*
X2971848Y1895394D01*
X2971818Y1895402D01*
X2971790Y1895416D01*
X2971713Y1895429D01*
X2971572Y1895465D01*
X2971508Y1895463D01*
X2971459Y1895471D01*
X1820624Y1895471D01*
X1783421Y1932674D01*
X1783352Y1932726D01*
X1783288Y1932786D01*
X1783238Y1932812D01*
X1783194Y1932845D01*
X1783113Y1932876D01*
X1783035Y1932916D01*
X1782987Y1932924D01*
X1782929Y1932946D01*
X1782781Y1932958D01*
X1782704Y1932971D01*
X1737296Y1932971D01*
X1737210Y1932959D01*
X1737122Y1932956D01*
X1737070Y1932939D01*
X1737015Y1932931D01*
X1736935Y1932896D01*
X1736852Y1932869D01*
X1736813Y1932841D01*
X1736755Y1932815D01*
X1736642Y1932719D01*
X1736578Y1932674D01*
X1699376Y1895471D01*
X277296Y1895471D01*
X277210Y1895459D01*
X277122Y1895456D01*
X277070Y1895439D01*
X277015Y1895431D01*
X276935Y1895396D01*
X276852Y1895369D01*
X276813Y1895341D01*
X276755Y1895315D01*
X276642Y1895219D01*
X276579Y1895174D01*
X80706Y1699301D01*
X80688Y1699277D01*
X80664Y1699257D01*
X80622Y1699190D01*
X80535Y1699074D01*
X80512Y1699014D01*
X80486Y1698972D01*
X79630Y1696906D01*
X78094Y1695370D01*
X76086Y1694538D01*
X73914Y1694538D01*
G37*
%LPD*%
%LPC*%
G36*
X668914Y49538D02*
X668914Y49538D01*
X666906Y50370D01*
X665370Y51906D01*
X664538Y53914D01*
X664538Y56086D01*
X665370Y58094D01*
X666906Y59630D01*
X668914Y60462D01*
X671086Y60462D01*
X673152Y59606D01*
X673182Y59598D01*
X673210Y59584D01*
X673287Y59571D01*
X673428Y59535D01*
X673492Y59537D01*
X673541Y59529D01*
X904204Y59529D01*
X904290Y59541D01*
X904378Y59544D01*
X904430Y59561D01*
X904485Y59569D01*
X904565Y59604D01*
X904648Y59631D01*
X904687Y59659D01*
X904745Y59685D01*
X904858Y59781D01*
X904921Y59826D01*
X1099624Y254529D01*
X3076459Y254529D01*
X3076490Y254533D01*
X3076521Y254531D01*
X3076597Y254548D01*
X3076741Y254569D01*
X3076799Y254595D01*
X3076848Y254606D01*
X3078914Y255462D01*
X3081086Y255462D01*
X3083094Y254630D01*
X3084630Y253094D01*
X3085462Y251086D01*
X3085462Y248914D01*
X3084630Y246906D01*
X3083094Y245370D01*
X3081086Y244538D01*
X3078914Y244538D01*
X3076848Y245394D01*
X3076818Y245402D01*
X3076790Y245416D01*
X3076713Y245429D01*
X3076572Y245465D01*
X3076508Y245463D01*
X3076459Y245471D01*
X1103796Y245471D01*
X1103710Y245459D01*
X1103622Y245456D01*
X1103570Y245439D01*
X1103515Y245431D01*
X1103435Y245396D01*
X1103352Y245369D01*
X1103313Y245341D01*
X1103255Y245315D01*
X1103142Y245219D01*
X1103079Y245174D01*
X908376Y50471D01*
X673541Y50471D01*
X673510Y50467D01*
X673479Y50469D01*
X673403Y50452D01*
X673259Y50431D01*
X673201Y50405D01*
X673152Y50394D01*
X671086Y49538D01*
X668914Y49538D01*
G37*
%LPD*%
%LPC*%
G36*
X428914Y214538D02*
X428914Y214538D01*
X426848Y215394D01*
X426818Y215402D01*
X426790Y215416D01*
X426713Y215429D01*
X426572Y215465D01*
X426508Y215463D01*
X426459Y215471D01*
X298124Y215471D01*
X284301Y229294D01*
X284277Y229313D01*
X284257Y229336D01*
X284190Y229378D01*
X284074Y229465D01*
X284014Y229488D01*
X283972Y229514D01*
X281906Y230370D01*
X280370Y231906D01*
X279538Y233914D01*
X279538Y236086D01*
X280370Y238094D01*
X281906Y239630D01*
X283914Y240462D01*
X286086Y240462D01*
X288094Y239630D01*
X289630Y238094D01*
X290486Y236028D01*
X290502Y236001D01*
X290511Y235972D01*
X290557Y235908D01*
X290630Y235783D01*
X290677Y235739D01*
X290706Y235699D01*
X301579Y224826D01*
X301648Y224774D01*
X301712Y224714D01*
X301762Y224688D01*
X301806Y224655D01*
X301887Y224624D01*
X301965Y224584D01*
X302013Y224576D01*
X302071Y224554D01*
X302219Y224542D01*
X302296Y224529D01*
X426459Y224529D01*
X426490Y224533D01*
X426521Y224531D01*
X426597Y224548D01*
X426741Y224569D01*
X426799Y224595D01*
X426848Y224606D01*
X428914Y225462D01*
X431086Y225462D01*
X433094Y224630D01*
X434630Y223094D01*
X435462Y221086D01*
X435462Y218914D01*
X434630Y216906D01*
X433094Y215370D01*
X431086Y214538D01*
X428914Y214538D01*
G37*
%LPD*%
%LPC*%
G36*
X223394Y13588D02*
X223394Y13588D01*
X221386Y14420D01*
X219850Y15956D01*
X219018Y17964D01*
X219018Y20136D01*
X219255Y20707D01*
X219255Y20708D01*
X219256Y20710D01*
X219289Y20841D01*
X219294Y20861D01*
X219307Y20901D01*
X219307Y20912D01*
X219325Y20982D01*
X219325Y20984D01*
X219326Y20985D01*
X219321Y21125D01*
X219317Y21266D01*
X219317Y21268D01*
X219317Y21269D01*
X219273Y21405D01*
X219231Y21537D01*
X219230Y21538D01*
X219229Y21540D01*
X219220Y21552D01*
X219072Y21773D01*
X219049Y21793D01*
X219034Y21813D01*
X216605Y24242D01*
X216605Y47952D01*
X216593Y48038D01*
X216590Y48126D01*
X216573Y48179D01*
X216565Y48233D01*
X216530Y48313D01*
X216503Y48396D01*
X216475Y48436D01*
X216449Y48493D01*
X216353Y48606D01*
X216308Y48670D01*
X175487Y89491D01*
X175417Y89543D01*
X175353Y89603D01*
X175304Y89629D01*
X175260Y89662D01*
X175178Y89693D01*
X175100Y89733D01*
X175052Y89741D01*
X174994Y89763D01*
X174846Y89775D01*
X174769Y89788D01*
X172594Y89788D01*
X170586Y90620D01*
X169050Y92156D01*
X168218Y94164D01*
X168218Y96336D01*
X169050Y98344D01*
X170586Y99880D01*
X172594Y100712D01*
X174766Y100712D01*
X176774Y99880D01*
X178310Y98344D01*
X179142Y96336D01*
X179142Y94161D01*
X179150Y94104D01*
X179148Y94051D01*
X179156Y94023D01*
X179157Y93987D01*
X179174Y93934D01*
X179182Y93880D01*
X179209Y93818D01*
X179220Y93776D01*
X179231Y93758D01*
X179244Y93717D01*
X179272Y93677D01*
X179298Y93620D01*
X179348Y93561D01*
X179365Y93531D01*
X179398Y93501D01*
X179439Y93443D01*
X222195Y50688D01*
X222195Y26978D01*
X222207Y26892D01*
X222210Y26804D01*
X222227Y26751D01*
X222235Y26697D01*
X222270Y26617D01*
X222297Y26534D01*
X222325Y26494D01*
X222351Y26437D01*
X222447Y26324D01*
X222492Y26260D01*
X223943Y24809D01*
X224013Y24757D01*
X224077Y24697D01*
X224126Y24671D01*
X224170Y24638D01*
X224252Y24607D01*
X224330Y24567D01*
X224378Y24559D01*
X224436Y24537D01*
X224584Y24525D01*
X224661Y24512D01*
X225569Y24512D01*
X225655Y24524D01*
X225743Y24527D01*
X225796Y24544D01*
X225850Y24552D01*
X225930Y24587D01*
X226013Y24614D01*
X226053Y24642D01*
X226110Y24668D01*
X226223Y24764D01*
X226287Y24809D01*
X232383Y30905D01*
X232400Y30929D01*
X232423Y30948D01*
X232486Y31042D01*
X232554Y31132D01*
X232564Y31160D01*
X232580Y31184D01*
X232615Y31292D01*
X232655Y31398D01*
X232657Y31427D01*
X232666Y31455D01*
X232669Y31569D01*
X232678Y31681D01*
X232673Y31710D01*
X232673Y31739D01*
X232645Y31849D01*
X232623Y31960D01*
X232609Y31986D01*
X232602Y32014D01*
X232544Y32112D01*
X232492Y32212D01*
X232471Y32234D01*
X232456Y32259D01*
X232374Y32336D01*
X232296Y32418D01*
X232270Y32433D01*
X232249Y32453D01*
X232148Y32505D01*
X232051Y32562D01*
X232022Y32569D01*
X231996Y32583D01*
X231919Y32596D01*
X231775Y32632D01*
X231713Y32630D01*
X231665Y32638D01*
X229744Y32638D01*
X227736Y33470D01*
X226200Y35006D01*
X225368Y37014D01*
X225368Y39186D01*
X226200Y41194D01*
X227738Y42732D01*
X227790Y42802D01*
X227850Y42866D01*
X227876Y42915D01*
X227909Y42959D01*
X227940Y43041D01*
X227980Y43119D01*
X227988Y43166D01*
X228010Y43225D01*
X228022Y43373D01*
X228035Y43450D01*
X228035Y60652D01*
X228023Y60738D01*
X228020Y60826D01*
X228003Y60879D01*
X227995Y60933D01*
X227960Y61013D01*
X227933Y61096D01*
X227905Y61136D01*
X227879Y61193D01*
X227825Y61257D01*
X227799Y61300D01*
X227764Y61333D01*
X227738Y61370D01*
X225017Y64091D01*
X224947Y64143D01*
X224883Y64203D01*
X224834Y64229D01*
X224790Y64262D01*
X224708Y64293D01*
X224630Y64333D01*
X224582Y64341D01*
X224524Y64363D01*
X224376Y64375D01*
X224299Y64388D01*
X222124Y64388D01*
X220116Y65220D01*
X218580Y66756D01*
X217748Y68764D01*
X217748Y70936D01*
X218580Y72944D01*
X220116Y74480D01*
X222124Y75312D01*
X224296Y75312D01*
X226304Y74480D01*
X227840Y72944D01*
X228672Y70936D01*
X228672Y68761D01*
X228679Y68707D01*
X228678Y68670D01*
X228685Y68645D01*
X228687Y68587D01*
X228704Y68534D01*
X228712Y68480D01*
X228747Y68400D01*
X228774Y68317D01*
X228802Y68277D01*
X228828Y68220D01*
X228924Y68107D01*
X228969Y68043D01*
X233625Y63388D01*
X233625Y43450D01*
X233637Y43363D01*
X233640Y43276D01*
X233657Y43223D01*
X233665Y43168D01*
X233700Y43089D01*
X233727Y43005D01*
X233755Y42966D01*
X233781Y42909D01*
X233877Y42796D01*
X233883Y42787D01*
X233894Y42769D01*
X233900Y42763D01*
X233922Y42732D01*
X235460Y41194D01*
X236292Y39186D01*
X236292Y37265D01*
X236296Y37236D01*
X236293Y37207D01*
X236316Y37096D01*
X236332Y36984D01*
X236344Y36957D01*
X236349Y36928D01*
X236401Y36828D01*
X236448Y36724D01*
X236467Y36702D01*
X236480Y36676D01*
X236558Y36594D01*
X236631Y36507D01*
X236656Y36491D01*
X236676Y36470D01*
X236774Y36412D01*
X236868Y36350D01*
X236896Y36341D01*
X236921Y36326D01*
X237031Y36298D01*
X237139Y36264D01*
X237169Y36263D01*
X237197Y36256D01*
X237310Y36259D01*
X237423Y36257D01*
X237452Y36264D01*
X237481Y36265D01*
X237589Y36300D01*
X237698Y36328D01*
X237724Y36343D01*
X237752Y36352D01*
X237815Y36398D01*
X237943Y36474D01*
X237986Y36519D01*
X238025Y36547D01*
X254563Y53085D01*
X254615Y53155D01*
X254675Y53219D01*
X254700Y53268D01*
X254734Y53312D01*
X254765Y53394D01*
X254805Y53472D01*
X254813Y53520D01*
X254835Y53578D01*
X254847Y53726D01*
X254860Y53803D01*
X254860Y54144D01*
X255692Y56152D01*
X257228Y57688D01*
X259236Y58520D01*
X261408Y58520D01*
X263416Y57688D01*
X264952Y56152D01*
X265784Y54144D01*
X265784Y51972D01*
X264952Y49964D01*
X263416Y48428D01*
X261408Y47596D01*
X259236Y47596D01*
X258266Y47998D01*
X258265Y47998D01*
X258264Y47999D01*
X258130Y48033D01*
X257991Y48069D01*
X257990Y48069D01*
X257988Y48069D01*
X257847Y48065D01*
X257707Y48061D01*
X257705Y48060D01*
X257704Y48060D01*
X257571Y48017D01*
X257436Y47974D01*
X257435Y47973D01*
X257433Y47973D01*
X257421Y47964D01*
X257200Y47816D01*
X257180Y47792D01*
X257160Y47778D01*
X230239Y20857D01*
X230187Y20787D01*
X230127Y20723D01*
X230101Y20674D01*
X230068Y20630D01*
X230037Y20548D01*
X229997Y20470D01*
X229989Y20422D01*
X229967Y20364D01*
X229955Y20216D01*
X229942Y20139D01*
X229942Y17964D01*
X229110Y15956D01*
X227574Y14420D01*
X225566Y13588D01*
X223394Y13588D01*
G37*
%LPD*%
%LPC*%
G36*
X1756816Y1882821D02*
X1756816Y1882821D01*
X1749583Y1885817D01*
X1744047Y1891353D01*
X1741051Y1898586D01*
X1741051Y1906414D01*
X1744047Y1913647D01*
X1749583Y1919183D01*
X1756816Y1922179D01*
X1764644Y1922179D01*
X1771877Y1919183D01*
X1777413Y1913647D01*
X1780409Y1906414D01*
X1780409Y1898586D01*
X1777413Y1891353D01*
X1771877Y1885817D01*
X1764644Y1882821D01*
X1756816Y1882821D01*
G37*
%LPD*%
%LPC*%
G36*
X71086Y55321D02*
X71086Y55321D01*
X63853Y58317D01*
X58317Y63853D01*
X55321Y71086D01*
X55321Y78914D01*
X58317Y86147D01*
X63853Y91683D01*
X71086Y94679D01*
X78914Y94679D01*
X86147Y91683D01*
X91683Y86147D01*
X94679Y78914D01*
X94679Y71086D01*
X91683Y63853D01*
X86147Y58317D01*
X78914Y55321D01*
X71086Y55321D01*
G37*
%LPD*%
%LPC*%
G36*
X71086Y1882821D02*
X71086Y1882821D01*
X63853Y1885817D01*
X58317Y1891353D01*
X55321Y1898586D01*
X55321Y1906414D01*
X58317Y1913647D01*
X63853Y1919183D01*
X71086Y1922179D01*
X78914Y1922179D01*
X86147Y1919183D01*
X91683Y1913647D01*
X94679Y1906414D01*
X94679Y1898586D01*
X91683Y1891353D01*
X86147Y1885817D01*
X78914Y1882821D01*
X71086Y1882821D01*
G37*
%LPD*%
%LPC*%
G36*
X1400356Y55321D02*
X1400356Y55321D01*
X1393123Y58317D01*
X1387587Y63853D01*
X1384591Y71086D01*
X1384591Y78914D01*
X1387587Y86147D01*
X1393123Y91683D01*
X1400356Y94679D01*
X1408184Y94679D01*
X1415417Y91683D01*
X1420953Y86147D01*
X1423949Y78914D01*
X1423949Y71086D01*
X1420953Y63853D01*
X1415417Y58317D01*
X1408184Y55321D01*
X1400356Y55321D01*
G37*
%LPD*%
%LPC*%
G36*
X312214Y119111D02*
X312214Y119111D01*
X310206Y119943D01*
X308670Y121479D01*
X307838Y123487D01*
X307838Y125659D01*
X308670Y127667D01*
X310206Y129203D01*
X312214Y130035D01*
X314386Y130035D01*
X316394Y129203D01*
X317932Y127665D01*
X318002Y127613D01*
X318066Y127553D01*
X318115Y127527D01*
X318159Y127494D01*
X318241Y127463D01*
X318319Y127423D01*
X318366Y127415D01*
X318425Y127393D01*
X318573Y127381D01*
X318650Y127368D01*
X440058Y127368D01*
X440144Y127380D01*
X440232Y127383D01*
X440285Y127400D01*
X440339Y127408D01*
X440419Y127443D01*
X440502Y127470D01*
X440542Y127498D01*
X440599Y127524D01*
X440712Y127620D01*
X440776Y127665D01*
X481611Y168500D01*
X481663Y168570D01*
X481723Y168634D01*
X481749Y168683D01*
X481782Y168727D01*
X481813Y168809D01*
X481853Y168887D01*
X481861Y168935D01*
X481883Y168993D01*
X481894Y169128D01*
X481894Y169129D01*
X481895Y169141D01*
X481908Y169218D01*
X481908Y171393D01*
X482740Y173401D01*
X484276Y174937D01*
X486284Y175769D01*
X488456Y175769D01*
X490464Y174937D01*
X492000Y173401D01*
X492832Y171393D01*
X492832Y169221D01*
X492000Y167213D01*
X490464Y165677D01*
X488456Y164845D01*
X486281Y164845D01*
X486195Y164833D01*
X486107Y164830D01*
X486054Y164813D01*
X486000Y164805D01*
X485920Y164770D01*
X485837Y164743D01*
X485797Y164715D01*
X485740Y164689D01*
X485627Y164593D01*
X485563Y164548D01*
X442794Y121778D01*
X318650Y121778D01*
X318563Y121766D01*
X318476Y121763D01*
X318423Y121746D01*
X318368Y121738D01*
X318289Y121703D01*
X318205Y121676D01*
X318166Y121648D01*
X318109Y121622D01*
X317996Y121526D01*
X317932Y121481D01*
X316394Y119943D01*
X314386Y119111D01*
X312214Y119111D01*
G37*
%LPD*%
%LPC*%
G36*
X148414Y265538D02*
X148414Y265538D01*
X146406Y266370D01*
X144870Y267906D01*
X144038Y269914D01*
X144038Y272086D01*
X144870Y274094D01*
X146406Y275630D01*
X148414Y276462D01*
X150586Y276462D01*
X152652Y275606D01*
X152682Y275598D01*
X152710Y275584D01*
X152787Y275571D01*
X152928Y275535D01*
X152992Y275537D01*
X153041Y275529D01*
X234384Y275529D01*
X234471Y275541D01*
X234558Y275544D01*
X234611Y275561D01*
X234666Y275569D01*
X234745Y275604D01*
X234829Y275631D01*
X234868Y275659D01*
X234925Y275685D01*
X235038Y275781D01*
X235102Y275826D01*
X235406Y276130D01*
X237414Y276962D01*
X239586Y276962D01*
X241594Y276130D01*
X243130Y274594D01*
X243962Y272586D01*
X243962Y270414D01*
X243130Y268406D01*
X241594Y266870D01*
X239586Y266038D01*
X237414Y266038D01*
X236555Y266394D01*
X236525Y266402D01*
X236497Y266416D01*
X236420Y266429D01*
X236280Y266465D01*
X236215Y266463D01*
X236166Y266471D01*
X153041Y266471D01*
X153010Y266467D01*
X152979Y266469D01*
X152903Y266452D01*
X152759Y266431D01*
X152701Y266405D01*
X152652Y266394D01*
X150586Y265538D01*
X148414Y265538D01*
G37*
%LPD*%
%LPC*%
G36*
X370714Y51688D02*
X370714Y51688D01*
X368706Y52520D01*
X367168Y54058D01*
X367098Y54110D01*
X367034Y54170D01*
X366985Y54196D01*
X366941Y54229D01*
X366859Y54260D01*
X366781Y54300D01*
X366734Y54308D01*
X366675Y54330D01*
X366527Y54342D01*
X366450Y54355D01*
X328732Y54355D01*
X294740Y88348D01*
X294670Y88400D01*
X294606Y88460D01*
X294557Y88486D01*
X294513Y88519D01*
X294431Y88550D01*
X294353Y88590D01*
X294305Y88598D01*
X294247Y88620D01*
X294099Y88632D01*
X294022Y88645D01*
X280950Y88645D01*
X280863Y88633D01*
X280776Y88630D01*
X280723Y88613D01*
X280668Y88605D01*
X280589Y88570D01*
X280505Y88543D01*
X280466Y88515D01*
X280409Y88489D01*
X280296Y88393D01*
X280232Y88348D01*
X278694Y86810D01*
X276686Y85978D01*
X274514Y85978D01*
X272506Y86810D01*
X270970Y88346D01*
X270138Y90354D01*
X270138Y92526D01*
X270970Y94534D01*
X272506Y96070D01*
X274514Y96902D01*
X276686Y96902D01*
X278694Y96070D01*
X280232Y94532D01*
X280302Y94480D01*
X280366Y94420D01*
X280415Y94394D01*
X280459Y94361D01*
X280541Y94330D01*
X280619Y94290D01*
X280666Y94282D01*
X280725Y94260D01*
X280873Y94248D01*
X280950Y94235D01*
X296758Y94235D01*
X330750Y60242D01*
X330820Y60190D01*
X330884Y60130D01*
X330933Y60104D01*
X330977Y60071D01*
X331059Y60040D01*
X331137Y60000D01*
X331185Y59992D01*
X331243Y59970D01*
X331391Y59958D01*
X331468Y59945D01*
X366450Y59945D01*
X366537Y59957D01*
X366624Y59960D01*
X366677Y59977D01*
X366732Y59985D01*
X366811Y60020D01*
X366895Y60047D01*
X366934Y60075D01*
X366991Y60101D01*
X367104Y60197D01*
X367168Y60242D01*
X368706Y61780D01*
X370714Y62612D01*
X372886Y62612D01*
X374894Y61780D01*
X376430Y60244D01*
X377262Y58236D01*
X377262Y56064D01*
X376430Y54056D01*
X374894Y52520D01*
X372886Y51688D01*
X370714Y51688D01*
G37*
%LPD*%
%LPC*%
G36*
X48414Y408038D02*
X48414Y408038D01*
X46406Y408870D01*
X44870Y410406D01*
X44038Y412414D01*
X44038Y414586D01*
X44870Y416594D01*
X46406Y418130D01*
X48414Y418962D01*
X50586Y418962D01*
X52652Y418106D01*
X52679Y418099D01*
X52702Y418087D01*
X52704Y418087D01*
X52710Y418084D01*
X52787Y418071D01*
X52928Y418035D01*
X52992Y418037D01*
X53041Y418029D01*
X99459Y418029D01*
X99490Y418033D01*
X99521Y418031D01*
X99597Y418048D01*
X99741Y418069D01*
X99748Y418072D01*
X99749Y418072D01*
X99801Y418095D01*
X99848Y418106D01*
X101914Y418962D01*
X104086Y418962D01*
X106094Y418130D01*
X107630Y416594D01*
X108462Y414586D01*
X108462Y412414D01*
X107630Y410406D01*
X106094Y408870D01*
X104086Y408038D01*
X101914Y408038D01*
X99848Y408894D01*
X99818Y408902D01*
X99790Y408916D01*
X99713Y408929D01*
X99572Y408965D01*
X99508Y408963D01*
X99459Y408971D01*
X53041Y408971D01*
X53010Y408967D01*
X52979Y408969D01*
X52903Y408952D01*
X52759Y408931D01*
X52701Y408905D01*
X52652Y408894D01*
X50586Y408038D01*
X48414Y408038D01*
G37*
%LPD*%
%LPC*%
G36*
X47914Y1605538D02*
X47914Y1605538D01*
X45906Y1606370D01*
X44370Y1607906D01*
X43538Y1609914D01*
X43538Y1612086D01*
X44370Y1614094D01*
X45906Y1615630D01*
X47914Y1616462D01*
X50086Y1616462D01*
X52152Y1615606D01*
X52182Y1615598D01*
X52210Y1615584D01*
X52287Y1615571D01*
X52428Y1615535D01*
X52492Y1615537D01*
X52541Y1615529D01*
X98459Y1615529D01*
X98490Y1615533D01*
X98521Y1615531D01*
X98597Y1615548D01*
X98741Y1615569D01*
X98799Y1615595D01*
X98848Y1615606D01*
X100914Y1616462D01*
X103086Y1616462D01*
X105094Y1615630D01*
X106630Y1614094D01*
X107462Y1612086D01*
X107462Y1609914D01*
X106630Y1607906D01*
X105094Y1606370D01*
X103086Y1605538D01*
X100914Y1605538D01*
X98848Y1606394D01*
X98818Y1606402D01*
X98790Y1606416D01*
X98713Y1606429D01*
X98572Y1606465D01*
X98508Y1606463D01*
X98459Y1606471D01*
X52541Y1606471D01*
X52510Y1606467D01*
X52479Y1606469D01*
X52403Y1606452D01*
X52259Y1606431D01*
X52201Y1606405D01*
X52152Y1606394D01*
X50086Y1605538D01*
X47914Y1605538D01*
G37*
%LPD*%
%LPC*%
G36*
X47914Y1007538D02*
X47914Y1007538D01*
X45906Y1008370D01*
X44370Y1009906D01*
X43538Y1011914D01*
X43538Y1014086D01*
X44370Y1016094D01*
X45906Y1017630D01*
X47972Y1018486D01*
X47999Y1018502D01*
X48028Y1018511D01*
X48092Y1018557D01*
X48217Y1018630D01*
X48261Y1018677D01*
X48301Y1018706D01*
X49624Y1020029D01*
X97459Y1020029D01*
X97490Y1020033D01*
X97521Y1020031D01*
X97597Y1020048D01*
X97741Y1020069D01*
X97799Y1020095D01*
X97848Y1020106D01*
X99914Y1020962D01*
X102086Y1020962D01*
X104094Y1020130D01*
X105630Y1018594D01*
X106462Y1016586D01*
X106462Y1014414D01*
X105630Y1012406D01*
X104094Y1010870D01*
X102086Y1010038D01*
X99914Y1010038D01*
X97848Y1010894D01*
X97818Y1010902D01*
X97790Y1010916D01*
X97713Y1010929D01*
X97572Y1010965D01*
X97508Y1010963D01*
X97459Y1010971D01*
X54750Y1010971D01*
X54748Y1010971D01*
X54747Y1010971D01*
X54606Y1010951D01*
X54468Y1010931D01*
X54467Y1010931D01*
X54465Y1010931D01*
X54337Y1010873D01*
X54209Y1010815D01*
X54208Y1010814D01*
X54206Y1010813D01*
X54099Y1010722D01*
X53992Y1010632D01*
X53991Y1010630D01*
X53990Y1010629D01*
X53982Y1010616D01*
X53834Y1010395D01*
X53827Y1010371D01*
X53820Y1010362D01*
X53818Y1010355D01*
X53812Y1010345D01*
X53630Y1009906D01*
X52094Y1008370D01*
X50086Y1007538D01*
X47914Y1007538D01*
G37*
%LPD*%
%LPC*%
G36*
X47914Y858038D02*
X47914Y858038D01*
X45906Y858870D01*
X44370Y860406D01*
X43538Y862414D01*
X43538Y864586D01*
X44370Y866594D01*
X45906Y868130D01*
X47914Y868962D01*
X50086Y868962D01*
X52152Y868106D01*
X52182Y868098D01*
X52210Y868084D01*
X52287Y868071D01*
X52428Y868035D01*
X52492Y868037D01*
X52541Y868029D01*
X97459Y868029D01*
X97490Y868033D01*
X97521Y868031D01*
X97597Y868048D01*
X97741Y868069D01*
X97799Y868095D01*
X97848Y868106D01*
X99914Y868962D01*
X102086Y868962D01*
X104094Y868130D01*
X105630Y866594D01*
X106462Y864586D01*
X106462Y862414D01*
X105630Y860406D01*
X104094Y858870D01*
X102086Y858038D01*
X99914Y858038D01*
X97848Y858894D01*
X97818Y858902D01*
X97790Y858916D01*
X97713Y858929D01*
X97572Y858965D01*
X97508Y858963D01*
X97459Y858971D01*
X52541Y858971D01*
X52510Y858967D01*
X52479Y858969D01*
X52403Y858952D01*
X52259Y858931D01*
X52201Y858905D01*
X52152Y858894D01*
X50086Y858038D01*
X47914Y858038D01*
G37*
%LPD*%
%LPC*%
G36*
X47914Y562038D02*
X47914Y562038D01*
X45906Y562870D01*
X44370Y564406D01*
X43538Y566414D01*
X43538Y568586D01*
X44370Y570594D01*
X45906Y572130D01*
X47914Y572962D01*
X50086Y572962D01*
X52152Y572106D01*
X52182Y572098D01*
X52210Y572084D01*
X52287Y572071D01*
X52428Y572035D01*
X52492Y572037D01*
X52541Y572029D01*
X96959Y572029D01*
X96990Y572033D01*
X97021Y572031D01*
X97097Y572048D01*
X97241Y572069D01*
X97299Y572095D01*
X97348Y572106D01*
X99414Y572962D01*
X101586Y572962D01*
X103594Y572130D01*
X105130Y570594D01*
X105962Y568586D01*
X105962Y566414D01*
X105130Y564406D01*
X103594Y562870D01*
X101586Y562038D01*
X99414Y562038D01*
X97348Y562894D01*
X97318Y562902D01*
X97290Y562916D01*
X97213Y562929D01*
X97072Y562965D01*
X97008Y562963D01*
X96959Y562971D01*
X52541Y562971D01*
X52510Y562967D01*
X52479Y562969D01*
X52403Y562952D01*
X52259Y562931D01*
X52201Y562905D01*
X52152Y562894D01*
X50086Y562038D01*
X47914Y562038D01*
G37*
%LPD*%
%LPC*%
G36*
X48914Y1457038D02*
X48914Y1457038D01*
X46906Y1457870D01*
X45370Y1459406D01*
X44538Y1461414D01*
X44538Y1463586D01*
X45370Y1465594D01*
X46906Y1467130D01*
X48914Y1467962D01*
X51086Y1467962D01*
X53152Y1467106D01*
X53182Y1467098D01*
X53210Y1467084D01*
X53287Y1467071D01*
X53428Y1467035D01*
X53492Y1467037D01*
X53541Y1467029D01*
X95959Y1467029D01*
X95990Y1467033D01*
X96021Y1467031D01*
X96097Y1467048D01*
X96241Y1467069D01*
X96299Y1467095D01*
X96348Y1467106D01*
X98414Y1467962D01*
X100586Y1467962D01*
X102594Y1467130D01*
X104130Y1465594D01*
X104962Y1463586D01*
X104962Y1461414D01*
X104130Y1459406D01*
X102594Y1457870D01*
X100586Y1457038D01*
X98414Y1457038D01*
X96348Y1457894D01*
X96318Y1457902D01*
X96290Y1457916D01*
X96213Y1457929D01*
X96072Y1457965D01*
X96008Y1457963D01*
X95959Y1457971D01*
X53541Y1457971D01*
X53510Y1457967D01*
X53479Y1457969D01*
X53403Y1457952D01*
X53259Y1457931D01*
X53201Y1457905D01*
X53152Y1457894D01*
X51086Y1457038D01*
X48914Y1457038D01*
G37*
%LPD*%
%LPC*%
G36*
X97914Y1305538D02*
X97914Y1305538D01*
X95906Y1306370D01*
X95602Y1306674D01*
X95532Y1306726D01*
X95468Y1306786D01*
X95419Y1306812D01*
X95375Y1306845D01*
X95293Y1306876D01*
X95215Y1306916D01*
X95168Y1306924D01*
X95109Y1306946D01*
X94961Y1306958D01*
X94884Y1306971D01*
X53541Y1306971D01*
X53510Y1306967D01*
X53479Y1306969D01*
X53403Y1306952D01*
X53259Y1306931D01*
X53201Y1306905D01*
X53152Y1306894D01*
X51086Y1306038D01*
X48914Y1306038D01*
X46906Y1306870D01*
X45370Y1308406D01*
X44538Y1310414D01*
X44538Y1312586D01*
X45370Y1314594D01*
X46906Y1316130D01*
X48914Y1316962D01*
X51086Y1316962D01*
X53152Y1316106D01*
X53182Y1316098D01*
X53210Y1316084D01*
X53287Y1316071D01*
X53428Y1316035D01*
X53492Y1316037D01*
X53541Y1316029D01*
X96666Y1316029D01*
X96697Y1316033D01*
X96728Y1316031D01*
X96804Y1316048D01*
X96948Y1316069D01*
X97007Y1316095D01*
X97055Y1316106D01*
X97914Y1316462D01*
X100086Y1316462D01*
X102094Y1315630D01*
X103630Y1314094D01*
X104462Y1312086D01*
X104462Y1309914D01*
X103630Y1307906D01*
X102094Y1306370D01*
X100086Y1305538D01*
X97914Y1305538D01*
G37*
%LPD*%
%LPC*%
G36*
X48414Y709538D02*
X48414Y709538D01*
X46406Y710370D01*
X44870Y711906D01*
X44038Y713914D01*
X44038Y716086D01*
X44870Y718094D01*
X46406Y719630D01*
X48414Y720462D01*
X50586Y720462D01*
X52652Y719606D01*
X52682Y719598D01*
X52710Y719584D01*
X52787Y719571D01*
X52928Y719535D01*
X52992Y719537D01*
X53041Y719529D01*
X94459Y719529D01*
X94490Y719533D01*
X94521Y719531D01*
X94597Y719548D01*
X94741Y719569D01*
X94799Y719595D01*
X94848Y719606D01*
X96914Y720462D01*
X99086Y720462D01*
X101094Y719630D01*
X102630Y718094D01*
X103462Y716086D01*
X103462Y713914D01*
X102630Y711906D01*
X101094Y710370D01*
X99086Y709538D01*
X96914Y709538D01*
X94848Y710394D01*
X94818Y710402D01*
X94790Y710416D01*
X94713Y710429D01*
X94572Y710465D01*
X94508Y710463D01*
X94459Y710471D01*
X53041Y710471D01*
X53010Y710467D01*
X52979Y710469D01*
X52903Y710452D01*
X52759Y710431D01*
X52701Y710405D01*
X52652Y710394D01*
X50586Y709538D01*
X48414Y709538D01*
G37*
%LPD*%
%LPC*%
G36*
X48414Y1156538D02*
X48414Y1156538D01*
X46406Y1157370D01*
X44870Y1158906D01*
X44038Y1160914D01*
X44038Y1163086D01*
X44870Y1165094D01*
X46406Y1166630D01*
X48414Y1167462D01*
X50586Y1167462D01*
X52652Y1166606D01*
X52682Y1166598D01*
X52710Y1166584D01*
X52787Y1166571D01*
X52928Y1166535D01*
X52992Y1166537D01*
X53041Y1166529D01*
X94459Y1166529D01*
X94490Y1166533D01*
X94521Y1166531D01*
X94597Y1166548D01*
X94741Y1166569D01*
X94799Y1166595D01*
X94848Y1166606D01*
X96914Y1167462D01*
X99086Y1167462D01*
X101094Y1166630D01*
X102630Y1165094D01*
X103462Y1163086D01*
X103462Y1160914D01*
X102630Y1158906D01*
X101094Y1157370D01*
X99086Y1156538D01*
X96914Y1156538D01*
X94848Y1157394D01*
X94818Y1157402D01*
X94790Y1157416D01*
X94713Y1157429D01*
X94572Y1157465D01*
X94508Y1157463D01*
X94459Y1157471D01*
X53041Y1157471D01*
X53010Y1157467D01*
X52979Y1157469D01*
X52903Y1157452D01*
X52759Y1157431D01*
X52701Y1157405D01*
X52652Y1157394D01*
X50586Y1156538D01*
X48414Y1156538D01*
G37*
%LPD*%
%LPC*%
G36*
X47914Y1753038D02*
X47914Y1753038D01*
X45906Y1753870D01*
X44370Y1755406D01*
X43538Y1757414D01*
X43538Y1759586D01*
X44370Y1761594D01*
X45906Y1763130D01*
X47914Y1763962D01*
X50086Y1763962D01*
X52152Y1763106D01*
X52182Y1763098D01*
X52210Y1763084D01*
X52287Y1763071D01*
X52428Y1763035D01*
X52492Y1763037D01*
X52541Y1763029D01*
X91384Y1763029D01*
X91471Y1763041D01*
X91558Y1763044D01*
X91611Y1763061D01*
X91666Y1763069D01*
X91745Y1763104D01*
X91829Y1763131D01*
X91868Y1763159D01*
X91925Y1763185D01*
X92038Y1763281D01*
X92102Y1763326D01*
X92906Y1764130D01*
X94914Y1764962D01*
X97086Y1764962D01*
X99094Y1764130D01*
X100630Y1762594D01*
X101462Y1760586D01*
X101462Y1758414D01*
X100630Y1756406D01*
X99094Y1754870D01*
X97028Y1754014D01*
X97001Y1753998D01*
X96972Y1753989D01*
X96947Y1753971D01*
X52541Y1753971D01*
X52510Y1753967D01*
X52479Y1753969D01*
X52403Y1753952D01*
X52259Y1753931D01*
X52201Y1753905D01*
X52152Y1753894D01*
X50086Y1753038D01*
X47914Y1753038D01*
G37*
%LPD*%
%LPC*%
G36*
X314914Y353538D02*
X314914Y353538D01*
X312906Y354370D01*
X311370Y355906D01*
X310514Y357972D01*
X310498Y357999D01*
X310489Y358028D01*
X310443Y358092D01*
X310370Y358217D01*
X310323Y358261D01*
X310294Y358301D01*
X283301Y385294D01*
X283277Y385312D01*
X283257Y385336D01*
X283190Y385378D01*
X283074Y385465D01*
X283014Y385488D01*
X282972Y385514D01*
X280906Y386370D01*
X279370Y387906D01*
X278538Y389914D01*
X278538Y392086D01*
X279370Y394094D01*
X280906Y395630D01*
X282914Y396462D01*
X285086Y396462D01*
X287094Y395630D01*
X288630Y394094D01*
X289486Y392028D01*
X289502Y392001D01*
X289511Y391972D01*
X289557Y391908D01*
X289630Y391783D01*
X289677Y391739D01*
X289706Y391699D01*
X316699Y364706D01*
X316723Y364688D01*
X316743Y364664D01*
X316810Y364622D01*
X316926Y364535D01*
X316986Y364512D01*
X317028Y364486D01*
X319094Y363630D01*
X320630Y362094D01*
X321462Y360086D01*
X321462Y357914D01*
X320630Y355906D01*
X319094Y354370D01*
X317086Y353538D01*
X314914Y353538D01*
G37*
%LPD*%
%LPC*%
G36*
X345314Y70738D02*
X345314Y70738D01*
X343306Y71570D01*
X341770Y73106D01*
X340938Y75114D01*
X340938Y77289D01*
X340926Y77375D01*
X340923Y77463D01*
X340906Y77516D01*
X340898Y77570D01*
X340863Y77650D01*
X340836Y77733D01*
X340808Y77773D01*
X340782Y77830D01*
X340686Y77943D01*
X340641Y78007D01*
X320140Y98508D01*
X320070Y98560D01*
X320006Y98620D01*
X319957Y98646D01*
X319913Y98679D01*
X319831Y98710D01*
X319753Y98750D01*
X319705Y98758D01*
X319647Y98780D01*
X319499Y98792D01*
X319422Y98805D01*
X305950Y98805D01*
X305863Y98793D01*
X305776Y98790D01*
X305723Y98773D01*
X305668Y98765D01*
X305589Y98730D01*
X305505Y98703D01*
X305466Y98675D01*
X305409Y98649D01*
X305296Y98553D01*
X305232Y98508D01*
X303694Y96970D01*
X301686Y96138D01*
X299514Y96138D01*
X297506Y96970D01*
X295970Y98506D01*
X295138Y100514D01*
X295138Y102686D01*
X295970Y104694D01*
X297506Y106230D01*
X299514Y107062D01*
X301686Y107062D01*
X303694Y106230D01*
X305232Y104692D01*
X305302Y104640D01*
X305366Y104580D01*
X305415Y104554D01*
X305459Y104521D01*
X305541Y104490D01*
X305619Y104450D01*
X305666Y104442D01*
X305725Y104420D01*
X305873Y104408D01*
X305950Y104395D01*
X322158Y104395D01*
X344593Y81959D01*
X344663Y81907D01*
X344727Y81847D01*
X344776Y81821D01*
X344820Y81788D01*
X344902Y81757D01*
X344980Y81717D01*
X345028Y81709D01*
X345086Y81687D01*
X345234Y81675D01*
X345311Y81662D01*
X347486Y81662D01*
X349494Y80830D01*
X351030Y79294D01*
X351862Y77286D01*
X351862Y75114D01*
X351030Y73106D01*
X349494Y71570D01*
X347486Y70738D01*
X345314Y70738D01*
G37*
%LPD*%
%LPC*%
G36*
X3254016Y396268D02*
X3254016Y396268D01*
X3252379Y397905D01*
X3252379Y398216D01*
X3252371Y398274D01*
X3252373Y398333D01*
X3252351Y398414D01*
X3252339Y398498D01*
X3252316Y398551D01*
X3252301Y398608D01*
X3252258Y398680D01*
X3252223Y398757D01*
X3252185Y398802D01*
X3252156Y398852D01*
X3252094Y398910D01*
X3252040Y398974D01*
X3251991Y399007D01*
X3251948Y399047D01*
X3251873Y399085D01*
X3251803Y399132D01*
X3251747Y399150D01*
X3251695Y399176D01*
X3251627Y399188D01*
X3251532Y399218D01*
X3251432Y399220D01*
X3251364Y399232D01*
X3244717Y399232D01*
X3244654Y399223D01*
X3244605Y399225D01*
X3243623Y399116D01*
X3243559Y399154D01*
X3243529Y399162D01*
X3243501Y399176D01*
X3243423Y399189D01*
X3243380Y399200D01*
X3242679Y399901D01*
X3242628Y399939D01*
X3242595Y399976D01*
X3241824Y400593D01*
X3241805Y400665D01*
X3241789Y400692D01*
X3241780Y400722D01*
X3241734Y400786D01*
X3241711Y400825D01*
X3241711Y401815D01*
X3241704Y401869D01*
X3241705Y401904D01*
X3241704Y401907D01*
X3241705Y401927D01*
X3241596Y402910D01*
X3241634Y402973D01*
X3241641Y403004D01*
X3241656Y403032D01*
X3241669Y403109D01*
X3241680Y403153D01*
X3242381Y403853D01*
X3242419Y403904D01*
X3242456Y403937D01*
X3245418Y407640D01*
X3247719Y407895D01*
X3249527Y406449D01*
X3249607Y405724D01*
X3249608Y405722D01*
X3249607Y405720D01*
X3249643Y405585D01*
X3249678Y405449D01*
X3249679Y405447D01*
X3249679Y405445D01*
X3249749Y405328D01*
X3249822Y405204D01*
X3249823Y405202D01*
X3249825Y405201D01*
X3249926Y405106D01*
X3250028Y405009D01*
X3250030Y405008D01*
X3250032Y405006D01*
X3250157Y404942D01*
X3250281Y404878D01*
X3250283Y404878D01*
X3250285Y404877D01*
X3250305Y404873D01*
X3250560Y404823D01*
X3250591Y404825D01*
X3250616Y404821D01*
X3251364Y404821D01*
X3251422Y404829D01*
X3251480Y404828D01*
X3251562Y404849D01*
X3251646Y404861D01*
X3251699Y404885D01*
X3251755Y404900D01*
X3251828Y404943D01*
X3251905Y404977D01*
X3251950Y405015D01*
X3252000Y405045D01*
X3252058Y405106D01*
X3252122Y405161D01*
X3252154Y405210D01*
X3252194Y405252D01*
X3252233Y405327D01*
X3252280Y405398D01*
X3252297Y405453D01*
X3252324Y405505D01*
X3252335Y405573D01*
X3252365Y405669D01*
X3252368Y405768D01*
X3252379Y405836D01*
X3252379Y406147D01*
X3253255Y407024D01*
X3253290Y407070D01*
X3253333Y407111D01*
X3253376Y407183D01*
X3253426Y407251D01*
X3253447Y407305D01*
X3253477Y407356D01*
X3253497Y407437D01*
X3253528Y407516D01*
X3253532Y407575D01*
X3253547Y407631D01*
X3253544Y407716D01*
X3253551Y407800D01*
X3253540Y407857D01*
X3253538Y407915D01*
X3253512Y407996D01*
X3253495Y408078D01*
X3253468Y408130D01*
X3253450Y408186D01*
X3253410Y408242D01*
X3253364Y408331D01*
X3253296Y408403D01*
X3253255Y408459D01*
X3252379Y409335D01*
X3252379Y409646D01*
X3252371Y409704D01*
X3252373Y409763D01*
X3252351Y409844D01*
X3252339Y409928D01*
X3252316Y409981D01*
X3252301Y410038D01*
X3252258Y410110D01*
X3252223Y410187D01*
X3252185Y410232D01*
X3252156Y410282D01*
X3252094Y410340D01*
X3252040Y410404D01*
X3251991Y410437D01*
X3251948Y410477D01*
X3251873Y410515D01*
X3251803Y410562D01*
X3251747Y410580D01*
X3251695Y410606D01*
X3251627Y410618D01*
X3251532Y410648D01*
X3251432Y410650D01*
X3251364Y410662D01*
X3244717Y410662D01*
X3244654Y410653D01*
X3244605Y410655D01*
X3243623Y410546D01*
X3243559Y410584D01*
X3243529Y410592D01*
X3243501Y410606D01*
X3243423Y410619D01*
X3243380Y410630D01*
X3242679Y411331D01*
X3242628Y411369D01*
X3242595Y411406D01*
X3241824Y412023D01*
X3241805Y412095D01*
X3241789Y412122D01*
X3241780Y412152D01*
X3241734Y412216D01*
X3241711Y412255D01*
X3241711Y413245D01*
X3241702Y413309D01*
X3241705Y413357D01*
X3241596Y414340D01*
X3241634Y414403D01*
X3241641Y414434D01*
X3241656Y414462D01*
X3241669Y414539D01*
X3241680Y414583D01*
X3242381Y415283D01*
X3242398Y415307D01*
X3242421Y415326D01*
X3242437Y415351D01*
X3242456Y415367D01*
X3245402Y419050D01*
X3245428Y419095D01*
X3245462Y419134D01*
X3245500Y419216D01*
X3245546Y419294D01*
X3245559Y419345D01*
X3245581Y419392D01*
X3245595Y419482D01*
X3245618Y419569D01*
X3245616Y419622D01*
X3245624Y419673D01*
X3245613Y419745D01*
X3245610Y419854D01*
X3245582Y419941D01*
X3245572Y420005D01*
X3245045Y421587D01*
X3245896Y423289D01*
X3245901Y423305D01*
X3245910Y423320D01*
X3245946Y423440D01*
X3245986Y423559D01*
X3245987Y423576D01*
X3245992Y423592D01*
X3245993Y423718D01*
X3245998Y423843D01*
X3245994Y423859D01*
X3245994Y423876D01*
X3245973Y423945D01*
X3245931Y424119D01*
X3245907Y424161D01*
X3245896Y424197D01*
X3245045Y425900D01*
X3245777Y428096D01*
X3247848Y429131D01*
X3254853Y426796D01*
X3254868Y426793D01*
X3254882Y426787D01*
X3255008Y426768D01*
X3255133Y426745D01*
X3255148Y426747D01*
X3255163Y426744D01*
X3255231Y426755D01*
X3255372Y426769D01*
X3256182Y426364D01*
X3256261Y426338D01*
X3256315Y426309D01*
X3257180Y426021D01*
X3257195Y426000D01*
X3257267Y425895D01*
X3257279Y425885D01*
X3257288Y425873D01*
X3257344Y425832D01*
X3257453Y425743D01*
X3257740Y424884D01*
X3257777Y424809D01*
X3257795Y424751D01*
X3258202Y423936D01*
X3258199Y423910D01*
X3258176Y423785D01*
X3258177Y423769D01*
X3258175Y423754D01*
X3258186Y423686D01*
X3258200Y423545D01*
X3257795Y422736D01*
X3257768Y422657D01*
X3257740Y422603D01*
X3257451Y421738D01*
X3257430Y421722D01*
X3257326Y421650D01*
X3257316Y421638D01*
X3257303Y421629D01*
X3257263Y421573D01*
X3257173Y421464D01*
X3256360Y421193D01*
X3256251Y421139D01*
X3256140Y421089D01*
X3256124Y421075D01*
X3256106Y421066D01*
X3256016Y420984D01*
X3255923Y420905D01*
X3255912Y420888D01*
X3255896Y420874D01*
X3255833Y420770D01*
X3255766Y420669D01*
X3255759Y420649D01*
X3255749Y420631D01*
X3255717Y420514D01*
X3255680Y420398D01*
X3255679Y420377D01*
X3255674Y420357D01*
X3255676Y420235D01*
X3255673Y420113D01*
X3255678Y420093D01*
X3255678Y420072D01*
X3255714Y419956D01*
X3255744Y419838D01*
X3255755Y419820D01*
X3255761Y419800D01*
X3255828Y419698D01*
X3255890Y419594D01*
X3255905Y419580D01*
X3255916Y419562D01*
X3256008Y419483D01*
X3256097Y419399D01*
X3256116Y419390D01*
X3256131Y419376D01*
X3256203Y419343D01*
X3257969Y417577D01*
X3257969Y409335D01*
X3257093Y408459D01*
X3257057Y408413D01*
X3257015Y408372D01*
X3256972Y408299D01*
X3256922Y408232D01*
X3256901Y408177D01*
X3256871Y408127D01*
X3256851Y408045D01*
X3256820Y407966D01*
X3256816Y407908D01*
X3256801Y407851D01*
X3256804Y407767D01*
X3256797Y407683D01*
X3256808Y407626D01*
X3256810Y407567D01*
X3256836Y407487D01*
X3256853Y407404D01*
X3256880Y407352D01*
X3256898Y407297D01*
X3256938Y407241D01*
X3256984Y407152D01*
X3257053Y407080D01*
X3257093Y407024D01*
X3257969Y406147D01*
X3257969Y397905D01*
X3256332Y396268D01*
X3254016Y396268D01*
G37*
%LPD*%
%LPC*%
G36*
X3192452Y450851D02*
X3192452Y450851D01*
X3189960Y451883D01*
X3188053Y453790D01*
X3187021Y456282D01*
X3187021Y458978D01*
X3188053Y461470D01*
X3189960Y463377D01*
X3192452Y464409D01*
X3206148Y464409D01*
X3208640Y463377D01*
X3210547Y461470D01*
X3211579Y458978D01*
X3211579Y456282D01*
X3210547Y453790D01*
X3208640Y451883D01*
X3206148Y450851D01*
X3192452Y450851D01*
G37*
%LPD*%
%LPC*%
G36*
X3192452Y364451D02*
X3192452Y364451D01*
X3189960Y365483D01*
X3188053Y367390D01*
X3187021Y369882D01*
X3187021Y372578D01*
X3188053Y375070D01*
X3189960Y376977D01*
X3192452Y378009D01*
X3206148Y378009D01*
X3208640Y376977D01*
X3210547Y375070D01*
X3211579Y372578D01*
X3211579Y369882D01*
X3210547Y367390D01*
X3208640Y365483D01*
X3206148Y364451D01*
X3192452Y364451D01*
G37*
%LPD*%
%LPC*%
G36*
X3236752Y364451D02*
X3236752Y364451D01*
X3234260Y365483D01*
X3232353Y367390D01*
X3231321Y369882D01*
X3231321Y372578D01*
X3232353Y375070D01*
X3234260Y376977D01*
X3236752Y378009D01*
X3245448Y378009D01*
X3247940Y376977D01*
X3249847Y375070D01*
X3250879Y372578D01*
X3250879Y369882D01*
X3249847Y367390D01*
X3247940Y365483D01*
X3245448Y364451D01*
X3236752Y364451D01*
G37*
%LPD*%
%LPC*%
G36*
X3236752Y450851D02*
X3236752Y450851D01*
X3234260Y451883D01*
X3232353Y453790D01*
X3231321Y456282D01*
X3231321Y458978D01*
X3232353Y461470D01*
X3234260Y463377D01*
X3236752Y464409D01*
X3245448Y464409D01*
X3247940Y463377D01*
X3249847Y461470D01*
X3250879Y458978D01*
X3250879Y456282D01*
X3249847Y453790D01*
X3247940Y451883D01*
X3245448Y450851D01*
X3236752Y450851D01*
G37*
%LPD*%
%LPC*%
G36*
X3176983Y404991D02*
X3176983Y404991D01*
X3174975Y405823D01*
X3173439Y407359D01*
X3172607Y409367D01*
X3172607Y411539D01*
X3173439Y413547D01*
X3174977Y415085D01*
X3175029Y415155D01*
X3175089Y415219D01*
X3175115Y415268D01*
X3175148Y415312D01*
X3175179Y415394D01*
X3175219Y415472D01*
X3175227Y415519D01*
X3175249Y415578D01*
X3175261Y415726D01*
X3175274Y415803D01*
X3175274Y420103D01*
X3175267Y420155D01*
X3175268Y420179D01*
X3175262Y420202D01*
X3175259Y420277D01*
X3175242Y420330D01*
X3175234Y420385D01*
X3175199Y420464D01*
X3175172Y420548D01*
X3175144Y420587D01*
X3175118Y420644D01*
X3175022Y420757D01*
X3174977Y420821D01*
X3173439Y422359D01*
X3172607Y424367D01*
X3172607Y426539D01*
X3173439Y428547D01*
X3174975Y430083D01*
X3176983Y430915D01*
X3179155Y430915D01*
X3181163Y430083D01*
X3182699Y428547D01*
X3183531Y426539D01*
X3183531Y424367D01*
X3182699Y422359D01*
X3181161Y420821D01*
X3181109Y420751D01*
X3181049Y420687D01*
X3181023Y420638D01*
X3180990Y420594D01*
X3180959Y420512D01*
X3180919Y420434D01*
X3180911Y420387D01*
X3180889Y420328D01*
X3180882Y420244D01*
X3180878Y420230D01*
X3180876Y420179D01*
X3180864Y420103D01*
X3180864Y415803D01*
X3180876Y415716D01*
X3180879Y415629D01*
X3180896Y415576D01*
X3180904Y415521D01*
X3180939Y415442D01*
X3180966Y415358D01*
X3180994Y415319D01*
X3181020Y415262D01*
X3181116Y415149D01*
X3181161Y415085D01*
X3182699Y413547D01*
X3183531Y411539D01*
X3183531Y409367D01*
X3182699Y407359D01*
X3181163Y405823D01*
X3179155Y404991D01*
X3176983Y404991D01*
G37*
%LPD*%
%LPC*%
G36*
X3227453Y233221D02*
X3227453Y233221D01*
X3224594Y234406D01*
X3222406Y236594D01*
X3221221Y239453D01*
X3221221Y242547D01*
X3222406Y245406D01*
X3224594Y247594D01*
X3227453Y248779D01*
X3230547Y248779D01*
X3233406Y247594D01*
X3235594Y245406D01*
X3236779Y242547D01*
X3236779Y239453D01*
X3235594Y236594D01*
X3233406Y234406D01*
X3230547Y233221D01*
X3227453Y233221D01*
G37*
%LPD*%
%LPC*%
G36*
X125751Y168921D02*
X125751Y168921D01*
X123443Y169877D01*
X121677Y171643D01*
X120721Y173951D01*
X120721Y176449D01*
X121677Y178757D01*
X123443Y180523D01*
X125751Y181479D01*
X128249Y181479D01*
X130557Y180523D01*
X132323Y178757D01*
X133279Y176449D01*
X133279Y173951D01*
X132323Y171643D01*
X130557Y169877D01*
X128249Y168921D01*
X125751Y168921D01*
G37*
%LPD*%
%LPC*%
G36*
X126714Y38988D02*
X126714Y38988D01*
X124706Y39820D01*
X123170Y41356D01*
X122338Y43364D01*
X122338Y45536D01*
X123170Y47544D01*
X124706Y49080D01*
X126714Y49912D01*
X128886Y49912D01*
X130894Y49080D01*
X132430Y47544D01*
X133262Y45536D01*
X133262Y43364D01*
X132430Y41356D01*
X130894Y39820D01*
X128886Y38988D01*
X126714Y38988D01*
G37*
%LPD*%
%LPC*%
G36*
X3202517Y438301D02*
X3202517Y438301D01*
X3199571Y441247D01*
X3199571Y445413D01*
X3202517Y448359D01*
X3206683Y448359D01*
X3209629Y445413D01*
X3209629Y441247D01*
X3206683Y438301D01*
X3202517Y438301D01*
G37*
%LPD*%
%LPC*%
G36*
X3202517Y380501D02*
X3202517Y380501D01*
X3199571Y383447D01*
X3199571Y387613D01*
X3202517Y390559D01*
X3206683Y390559D01*
X3209629Y387613D01*
X3209629Y383447D01*
X3206683Y380501D01*
X3202517Y380501D01*
G37*
%LPD*%
D10*
X3248062Y426114D02*
X3255174Y423743D01*
X3248062Y421373D01*
X3246877Y416420D02*
X3244506Y413456D01*
X3255174Y413456D01*
X3255174Y410493D02*
X3255174Y416420D01*
X3246877Y404990D02*
X3244506Y402026D01*
X3255174Y402026D01*
X3255174Y399063D02*
X3255174Y404990D01*
D11*
X3204800Y371230D02*
X3193800Y371230D01*
X3193800Y457630D02*
X3204800Y457630D01*
X3238100Y371230D02*
X3244100Y371230D01*
X3244100Y457630D02*
X3238100Y457630D01*
D12*
X39000Y179700D03*
D10*
X70000Y179700D01*
D12*
X213050Y83820D03*
D10*
X185480Y148300D02*
X198740Y161560D01*
X185480Y148300D02*
X152900Y148300D01*
D12*
X152900Y148300D03*
X530500Y198440D03*
D10*
X213050Y148050D02*
X213050Y83820D01*
D13*
X110300Y220000D02*
X70000Y179700D01*
X110300Y220000D02*
X198000Y220000D01*
X213050Y161500D02*
X213050Y148050D01*
X213050Y161500D02*
X213050Y198440D01*
D12*
X213050Y161500D03*
D10*
X212990Y161560D02*
X198740Y161560D01*
X212990Y161560D02*
X267990Y161560D01*
X213050Y161500D02*
X212990Y161560D01*
D12*
X285000Y165000D03*
D10*
X271430Y165000D01*
X267990Y161560D01*
D12*
X3160000Y275000D03*
D13*
X3167667Y244590D02*
X3167667Y237410D01*
X3160000Y252257D02*
X3160000Y275000D01*
X3160000Y229743D02*
X3160000Y135000D01*
X3167667Y244590D02*
X3160000Y252257D01*
X3167667Y237410D02*
X3160000Y229743D01*
X213050Y204950D02*
X213050Y198440D01*
X213050Y204950D02*
X198000Y220000D01*
X213050Y198440D02*
X530500Y198440D01*
D12*
X3140000Y120000D03*
D13*
X3145000Y120000D01*
X3160000Y135000D01*
D12*
X313300Y124573D03*
D10*
X441636Y124573D01*
X487370Y170307D01*
D12*
X487370Y170307D03*
X85870Y177160D03*
X303220Y69850D03*
X287980Y71120D03*
X387040Y115570D03*
X384500Y150020D03*
X280860Y152520D03*
X162380Y129270D03*
X203960Y152770D03*
X96810Y110490D03*
X185880Y194260D03*
X129200Y203600D03*
X127700Y156000D03*
X201200Y178700D03*
X240110Y152580D03*
X272400Y183700D03*
X307800Y158700D03*
X3133500Y428000D03*
X3133500Y403000D03*
X513500Y169520D03*
X502040Y105570D03*
X513500Y149520D03*
X49000Y1758500D03*
D14*
X95000Y1758500D01*
X96000Y1759500D01*
D12*
X96000Y1759500D03*
X49000Y1611000D03*
D14*
X102000Y1611000D01*
D12*
X102000Y1611000D03*
X50000Y1462500D03*
D14*
X99500Y1462500D01*
D12*
X99500Y1462500D03*
X50000Y1311500D03*
D14*
X98500Y1311500D01*
X99000Y1311000D01*
D12*
X99000Y1311000D03*
X49500Y1162000D03*
D14*
X98000Y1162000D01*
D12*
X98000Y1162000D03*
X49000Y1013000D03*
D14*
X51500Y1015500D01*
X101000Y1015500D01*
D12*
X101000Y1015500D03*
X49000Y863500D03*
D14*
X101000Y863500D01*
D12*
X101000Y863500D03*
X49500Y715000D03*
D14*
X98000Y715000D01*
D12*
X98000Y715000D03*
X49000Y567500D03*
D14*
X100500Y567500D01*
D12*
X100500Y567500D03*
X49500Y413500D03*
D14*
X103000Y413500D01*
D12*
X103000Y413500D03*
X224480Y19050D03*
D10*
X225115Y19685D01*
X258488Y53058D01*
X260322Y53058D01*
D12*
X260322Y53058D03*
X173680Y95250D03*
D10*
X219400Y49530D01*
X219400Y25400D01*
X225115Y19685D01*
D12*
X127800Y44450D03*
X250000Y1845000D03*
X400000Y1845000D03*
X550000Y1845000D03*
X700000Y1845000D03*
X850000Y1845000D03*
X1000000Y1845000D03*
D14*
X1000000Y1840000D01*
D12*
X1150000Y1845000D03*
X1300000Y1845000D03*
X1450000Y1845000D03*
X1900000Y1845000D03*
X2050000Y1845000D03*
X2200000Y1845000D03*
X2350000Y1845000D03*
X2500000Y1845000D03*
X2650000Y1845000D03*
X3100000Y1695000D03*
X2950000Y1695000D03*
X2800000Y1695000D03*
X2650000Y1695000D03*
X2500000Y1695000D03*
X2350000Y1695000D03*
X2200000Y1695000D03*
X2050000Y1695000D03*
X1900000Y1695000D03*
X1750000Y1695000D03*
X1600000Y1695000D03*
X1450000Y1695000D03*
X1300000Y1695000D03*
X1150000Y1695000D03*
X1000000Y1695000D03*
X850000Y1695000D03*
D14*
X850000Y1690000D01*
D12*
X700000Y1695000D03*
X550000Y1695000D03*
X400000Y1695000D03*
X250000Y1695000D03*
X100000Y1670000D03*
X2800000Y1845000D03*
X2950000Y1845000D03*
X100000Y1520000D03*
X250000Y1545000D03*
X400000Y1545000D03*
X550000Y1545000D03*
X700000Y1545000D03*
X850000Y1545000D03*
X1000000Y1545000D03*
X1150000Y1545000D03*
D14*
X1150000Y1540000D01*
D12*
X1300000Y1545000D03*
X1450000Y1545000D03*
X1600000Y1545000D03*
X1750000Y1545000D03*
X1900000Y1545000D03*
X2050000Y1545000D03*
X2200000Y1545000D03*
X2350000Y1545000D03*
X2500000Y1545000D03*
X2650000Y1545000D03*
X2800000Y1545000D03*
X2950000Y1545000D03*
X3100000Y1545000D03*
X3100000Y1395000D03*
X2950000Y1395000D03*
X2800000Y1395000D03*
X2650000Y1395000D03*
X2500000Y1395000D03*
X2350000Y1395000D03*
X2200000Y1395000D03*
X2050000Y1395000D03*
X1900000Y1395000D03*
X1750000Y1395000D03*
X1600000Y1395000D03*
X1450000Y1395000D03*
X1300000Y1395000D03*
X1150000Y1395000D03*
X1000000Y1395000D03*
X850000Y1395000D03*
X700000Y1395000D03*
X550000Y1395000D03*
X400000Y1395000D03*
X250000Y1395000D03*
X100000Y1387500D03*
X100000Y1240000D03*
X250000Y1240000D03*
X400000Y1245000D03*
X550000Y1245000D03*
X700000Y1245000D03*
X850000Y1245000D03*
X1000000Y1245000D03*
X1150000Y1245000D03*
X1300000Y1245000D03*
X1450000Y1245000D03*
X1600000Y1245000D03*
X1750000Y1245000D03*
X1900000Y1245000D03*
X2050000Y1245000D03*
X2200000Y1245000D03*
X2350000Y1245000D03*
X2500000Y1245000D03*
X2650000Y1245000D03*
X2800000Y1245000D03*
X2950000Y1245000D03*
X3100000Y1245000D03*
X3100000Y1095000D03*
X2950000Y1095000D03*
X2800000Y1095000D03*
X2650000Y1095000D03*
X2500000Y1095000D03*
X2350000Y1095000D03*
X2200000Y1095000D03*
X2050000Y1095000D03*
X1900000Y1095000D03*
X1750000Y1095000D03*
X1600000Y1095000D03*
X1450000Y1095000D03*
X1300000Y1095000D03*
X1150000Y1095000D03*
X1000000Y1095000D03*
X850000Y1095000D03*
X700000Y1095000D03*
X550000Y1095000D03*
X400000Y1095000D03*
X250000Y1095000D03*
X100000Y1095000D03*
X100000Y945000D03*
X250000Y945000D03*
X400000Y945000D03*
X550000Y945000D03*
X700000Y945000D03*
X850000Y945000D03*
X1000000Y945000D03*
D14*
X1005000Y945000D01*
D12*
X1150000Y945000D03*
X1300000Y945000D03*
X1450000Y945000D03*
X1600000Y945000D03*
X1750000Y945000D03*
X1900000Y945000D03*
X2050000Y945000D03*
X2200000Y945000D03*
X2350000Y945000D03*
X2500000Y945000D03*
X2650000Y945000D03*
X2800000Y945000D03*
X2950000Y945000D03*
X3100000Y945000D03*
X100000Y795000D03*
X250000Y795000D03*
X400000Y795000D03*
X550000Y795000D03*
X700000Y795000D03*
X850000Y795000D03*
X1000000Y795000D03*
X1150000Y795000D03*
X1300000Y795000D03*
X1450000Y795000D03*
X1600000Y795000D03*
X1750000Y795000D03*
X1900000Y795000D03*
X2050000Y795000D03*
X2200000Y795000D03*
X2350000Y795000D03*
X2500000Y795000D03*
X2650000Y795000D03*
X2800000Y795000D03*
X2950000Y795000D03*
X3100000Y795000D03*
X100000Y645000D03*
X250000Y645000D03*
X400000Y645000D03*
X550000Y645000D03*
X700000Y645000D03*
X850000Y645000D03*
X1000000Y645000D03*
X1150000Y645000D03*
X1300000Y645000D03*
X1450000Y645000D03*
X1600000Y645000D03*
X1750000Y645000D03*
X1900000Y645000D03*
X2050000Y645000D03*
X2200000Y645000D03*
X2350000Y645000D03*
X2500000Y645000D03*
X2650000Y645000D03*
X2800000Y645000D03*
X2950000Y645000D03*
X3100000Y645000D03*
X2950000Y495000D03*
X2800000Y495000D03*
X2650000Y495000D03*
X2500000Y495000D03*
X2350000Y495000D03*
X2200000Y495000D03*
X2050000Y495000D03*
X1900000Y495000D03*
X1750000Y495000D03*
X1600000Y495000D03*
X1450000Y495000D03*
X1300000Y495000D03*
X1150000Y495000D03*
X1000000Y495000D03*
X850000Y495000D03*
X700000Y495000D03*
X550000Y495000D03*
X400000Y495000D03*
X250000Y495000D03*
X100000Y495000D03*
X250000Y345000D03*
X400000Y345000D03*
X550000Y345000D03*
X700000Y345000D03*
X850000Y345000D03*
X1000000Y345000D03*
X1150000Y345000D03*
X1300000Y345000D03*
X1450000Y345000D03*
X1600000Y345000D03*
X1750000Y345000D03*
X1900000Y345000D03*
X2050000Y345000D03*
X2200000Y345000D03*
X2350000Y345000D03*
X2500000Y345000D03*
X2650000Y345000D03*
X2800000Y345000D03*
X2950000Y345000D03*
X3100000Y195000D03*
X2950000Y195000D03*
X2800000Y195000D03*
X2650000Y195000D03*
X2500000Y195000D03*
X2350000Y195000D03*
X2200000Y195000D03*
X2050000Y195000D03*
X1900000Y195000D03*
X1750000Y195000D03*
X1600000Y195000D03*
X1450000Y195000D03*
X1300000Y195000D03*
X1150000Y195000D03*
X1000000Y195000D03*
X850000Y195000D03*
X1300000Y45000D03*
X1150000Y45000D03*
X1000000Y45000D03*
X850000Y45000D03*
X1750000Y45000D03*
X1912500Y45000D03*
X2050000Y45000D03*
X2200000Y45000D03*
X2350000Y45000D03*
X2500000Y45000D03*
X2650000Y45000D03*
X2800000Y45000D03*
X2950000Y45000D03*
X3065000Y425000D03*
X3100000Y495000D03*
X3085000Y425000D03*
X3075000Y425000D03*
X3060000Y330000D03*
X3070000Y330000D03*
X3080000Y330000D03*
X3090000Y330000D03*
X3095000Y425000D03*
X3100000Y345000D03*
X100000Y345000D03*
X720500Y209000D03*
X550000Y220000D03*
X85000Y215000D03*
X255000Y220000D03*
X700000Y40000D03*
X230830Y38100D03*
D10*
X230830Y62230D01*
X223210Y69850D01*
D12*
X223210Y69850D03*
X275600Y91440D03*
D10*
X295600Y91440D02*
X329890Y57150D01*
X295600Y91440D02*
X275600Y91440D01*
X329890Y57150D02*
X371800Y57150D01*
D12*
X371800Y57150D03*
X346400Y76200D03*
D10*
X321000Y101600D01*
X300600Y101600D01*
D12*
X300600Y101600D03*
X3178069Y425453D03*
D10*
X3178069Y410453D01*
D12*
X3178069Y410453D03*
X7500Y400000D03*
X238500Y271500D03*
D14*
X238000Y271000D01*
X149500Y271000D01*
D12*
X149500Y271000D03*
X2975000Y1900000D03*
D14*
X275000Y1900000D02*
X75000Y1700000D01*
D12*
X75000Y1700000D03*
D14*
X275000Y1900000D02*
X1697500Y1900000D01*
X1735000Y1937500D01*
X1785000Y1937500D01*
X1822500Y1900000D01*
X2975000Y1900000D01*
D12*
X3075000Y1750000D03*
D14*
X350000Y1750000D01*
X150000Y1550000D01*
X75000Y1550000D01*
D12*
X75000Y1550000D03*
X75000Y1400000D03*
D14*
X225000Y1400000D01*
X425000Y1600000D01*
X3075000Y1600000D01*
D12*
X3075000Y1600000D03*
X3075000Y1450000D03*
D14*
X500000Y1450000D01*
X300000Y1250000D01*
D12*
X75000Y1250000D03*
D14*
X300000Y1250000D01*
D12*
X75000Y1100000D03*
D14*
X93388Y1100000D01*
X96599Y1103211D01*
X253401Y1103211D02*
X256612Y1100000D01*
X375000Y1100000D01*
X253401Y1103211D02*
X96599Y1103211D01*
X375000Y1100000D02*
X575000Y1300000D01*
X3075000Y1300000D01*
D12*
X3075000Y1300000D03*
X75000Y950000D03*
D14*
X93388Y950000D01*
X96599Y953211D01*
X403401Y953211D02*
X406612Y950000D01*
X450000Y950000D01*
X403401Y953211D02*
X96599Y953211D01*
X450000Y950000D02*
X650000Y1150000D01*
X3075000Y1150000D01*
D12*
X3075000Y1150000D03*
X75000Y800000D03*
D14*
X93388Y800000D01*
X96599Y803211D01*
X403401Y803211D02*
X406612Y800000D01*
X525000Y800000D01*
X403401Y803211D02*
X96599Y803211D01*
X525000Y800000D02*
X725000Y1000000D01*
X3075000Y1000000D01*
D12*
X3075000Y1000000D03*
X3075000Y850000D03*
D14*
X800000Y850000D01*
X600000Y650000D01*
D12*
X75000Y650000D03*
D14*
X556612Y650000D02*
X600000Y650000D01*
X556612Y650000D02*
X553401Y653211D01*
X96599Y653211D02*
X93388Y650000D01*
X75000Y650000D01*
X96599Y653211D02*
X553401Y653211D01*
D12*
X75000Y500000D03*
D14*
X93388Y500000D01*
X96599Y503211D01*
X553401Y503211D02*
X556612Y500000D01*
X675000Y500000D01*
X553401Y503211D02*
X96599Y503211D01*
X675000Y500000D02*
X875000Y700000D01*
D12*
X3075000Y700000D03*
D14*
X875000Y700000D01*
D12*
X3075000Y550000D03*
D14*
X950000Y550000D01*
X735000Y335000D01*
D12*
X75000Y353500D03*
D14*
X93500Y335000D02*
X735000Y335000D01*
X93500Y335000D02*
X75000Y353500D01*
D12*
X284000Y391000D03*
X316000Y359000D03*
D14*
X284000Y391000D01*
D12*
X35000Y220000D03*
X3075000Y400000D03*
D14*
X1025000Y400000D02*
X910000Y285000D01*
X100000Y285000D02*
X35000Y220000D01*
X1025000Y400000D02*
X3075000Y400000D01*
X910000Y285000D02*
X675000Y285000D01*
X100000Y285000D01*
D12*
X100000Y285000D03*
X675000Y172500D03*
D14*
X675000Y285000D01*
D12*
X175000Y210000D03*
X123834Y211166D03*
D14*
X134412Y210000D02*
X175000Y210000D01*
X134412Y210000D02*
X132601Y211811D01*
X125799Y211811D01*
X125154Y211166D01*
X123834Y211166D01*
D12*
X430000Y220000D03*
D14*
X300000Y220000D01*
X285000Y235000D01*
D12*
X285000Y235000D03*
X3080000Y250000D03*
D14*
X1101500Y250000D01*
X906500Y55000D01*
X670000Y55000D01*
D12*
X670000Y55000D03*
M02*
