G75*
%MOIN*%
%OFA0B0*%
%FSLAX25Y25*%
%IPPOS*%
%LPD*%
%AMOC8*
5,1,8,0,0,1.08239X$1,22.5*
%
%ADD10R,0.04331X0.03937*%
%ADD11R,0.01181X0.02598*%
%ADD12R,0.03937X0.04331*%
%ADD13R,0.03543X0.03937*%
%ADD14R,0.03543X0.05906*%
%ADD15R,0.05906X0.03543*%
%ADD16R,0.23622X0.23622*%
%ADD17R,0.02165X0.04724*%
%ADD18C,0.00039*%
%ADD19C,0.00500*%
%ADD20R,0.04000X0.01181*%
%ADD21R,0.04000X0.02362*%
%ADD22R,0.04000X0.02165*%
%ADD23R,0.04724X0.09843*%
%ADD24C,0.00118*%
%ADD25C,0.02756*%
%ADD26C,0.03543*%
%ADD27R,0.06500X0.03937*%
D10*
X0112979Y0085512D03*
X0119672Y0085512D03*
X0131794Y0095563D03*
X0138487Y0095563D03*
X0138609Y0086850D03*
X0145302Y0086850D03*
X0169987Y0087303D03*
X0176680Y0087303D03*
X0176680Y0107303D03*
X0169987Y0107303D03*
X0119751Y0113091D03*
X0113058Y0113091D03*
X0113058Y0120157D03*
X0119751Y0120157D03*
X0104121Y0100276D03*
X0097428Y0100276D03*
X0062231Y0123740D03*
X0055538Y0123740D03*
X0055538Y0133740D03*
X0062231Y0133740D03*
X0080538Y0173583D03*
X0087231Y0173583D03*
X0087231Y0181083D03*
X0080538Y0181083D03*
X0080538Y0188583D03*
X0087231Y0188583D03*
X0087231Y0196083D03*
X0080538Y0196083D03*
X0080538Y0203583D03*
X0087231Y0203583D03*
X0087231Y0211083D03*
X0080538Y0211083D03*
X0338058Y0161083D03*
X0344751Y0161083D03*
X0344751Y0136083D03*
X0338058Y0136083D03*
X0338058Y0128583D03*
X0344751Y0128583D03*
X0344751Y0121083D03*
X0338058Y0121083D03*
X0334751Y0113583D03*
X0328058Y0113583D03*
D11*
X0175892Y0100925D03*
X0173333Y0100925D03*
X0170774Y0100925D03*
X0170774Y0093681D03*
X0173333Y0093681D03*
X0175892Y0093681D03*
D12*
X0163333Y0093957D03*
X0163333Y0100650D03*
X0073885Y0177736D03*
X0073885Y0184429D03*
X0073885Y0200236D03*
X0073885Y0206929D03*
X0318904Y0146929D03*
X0318904Y0140236D03*
X0326404Y0140236D03*
X0326404Y0146929D03*
D13*
X0201404Y0107953D03*
X0201404Y0101654D03*
X0201404Y0092953D03*
X0201404Y0086654D03*
X0185262Y0086654D03*
X0185262Y0092953D03*
X0185262Y0101654D03*
X0185262Y0107953D03*
D14*
X0213648Y0087370D03*
X0218648Y0087370D03*
X0223648Y0087370D03*
X0228648Y0087370D03*
X0233648Y0087370D03*
X0238648Y0087370D03*
X0243648Y0087370D03*
X0248648Y0087370D03*
X0253648Y0087370D03*
X0258648Y0087370D03*
X0263648Y0087370D03*
X0268648Y0087370D03*
X0273648Y0087370D03*
X0278648Y0087370D03*
X0278648Y0152236D03*
X0273648Y0152236D03*
X0268648Y0152236D03*
X0263648Y0152236D03*
X0258648Y0152236D03*
X0253648Y0152236D03*
X0248648Y0152236D03*
X0243648Y0152236D03*
X0238648Y0152236D03*
X0233648Y0152236D03*
X0228648Y0152236D03*
X0223648Y0152236D03*
X0218648Y0152236D03*
X0213648Y0152236D03*
D15*
X0207782Y0142303D03*
X0207782Y0137303D03*
X0207782Y0132303D03*
X0207782Y0127303D03*
X0207782Y0122303D03*
X0207782Y0117303D03*
X0207782Y0112303D03*
X0207782Y0107303D03*
X0207782Y0102303D03*
X0207782Y0097303D03*
D16*
X0248333Y0119803D03*
D17*
X0337664Y0143464D03*
X0341404Y0143464D03*
X0345144Y0143464D03*
X0345144Y0153701D03*
X0337664Y0153701D03*
X0120144Y0105709D03*
X0112664Y0105709D03*
X0112664Y0095472D03*
X0116404Y0095472D03*
X0120144Y0095472D03*
D18*
X0138727Y0099409D02*
X0141798Y0099409D01*
X0141798Y0100354D01*
X0138727Y0100354D01*
X0138727Y0099409D01*
X0138727Y0099436D02*
X0141798Y0099436D01*
X0141798Y0099474D02*
X0138727Y0099474D01*
X0138727Y0099512D02*
X0141798Y0099512D01*
X0141798Y0099550D02*
X0138727Y0099550D01*
X0138727Y0099588D02*
X0141798Y0099588D01*
X0141798Y0099626D02*
X0138727Y0099626D01*
X0138727Y0099664D02*
X0141798Y0099664D01*
X0141798Y0099702D02*
X0138727Y0099702D01*
X0138727Y0099739D02*
X0141798Y0099739D01*
X0141798Y0099777D02*
X0138727Y0099777D01*
X0138727Y0099815D02*
X0141798Y0099815D01*
X0141798Y0099853D02*
X0138727Y0099853D01*
X0138727Y0099891D02*
X0141798Y0099891D01*
X0141798Y0099929D02*
X0138727Y0099929D01*
X0138727Y0099967D02*
X0141798Y0099967D01*
X0141798Y0100005D02*
X0138727Y0100005D01*
X0138727Y0100042D02*
X0141798Y0100042D01*
X0141798Y0100080D02*
X0138727Y0100080D01*
X0138727Y0100118D02*
X0141798Y0100118D01*
X0141798Y0100156D02*
X0138727Y0100156D01*
X0138727Y0100194D02*
X0141798Y0100194D01*
X0141798Y0100232D02*
X0138727Y0100232D01*
X0138727Y0100270D02*
X0141798Y0100270D01*
X0141798Y0100308D02*
X0138727Y0100308D01*
X0138727Y0100345D02*
X0141798Y0100345D01*
X0141798Y0101378D02*
X0138727Y0101378D01*
X0138727Y0102323D01*
X0141798Y0102323D01*
X0141798Y0101378D01*
X0141798Y0101406D02*
X0138727Y0101406D01*
X0138727Y0101444D02*
X0141798Y0101444D01*
X0141798Y0101482D02*
X0138727Y0101482D01*
X0138727Y0101520D02*
X0141798Y0101520D01*
X0141798Y0101558D02*
X0138727Y0101558D01*
X0138727Y0101596D02*
X0141798Y0101596D01*
X0141798Y0101633D02*
X0138727Y0101633D01*
X0138727Y0101671D02*
X0141798Y0101671D01*
X0141798Y0101709D02*
X0138727Y0101709D01*
X0138727Y0101747D02*
X0141798Y0101747D01*
X0141798Y0101785D02*
X0138727Y0101785D01*
X0138727Y0101823D02*
X0141798Y0101823D01*
X0141798Y0101861D02*
X0138727Y0101861D01*
X0138727Y0101899D02*
X0141798Y0101899D01*
X0141798Y0101937D02*
X0138727Y0101937D01*
X0138727Y0101974D02*
X0141798Y0101974D01*
X0141798Y0102012D02*
X0138727Y0102012D01*
X0138727Y0102050D02*
X0141798Y0102050D01*
X0141798Y0102088D02*
X0138727Y0102088D01*
X0138727Y0102126D02*
X0141798Y0102126D01*
X0141798Y0102164D02*
X0138727Y0102164D01*
X0138727Y0102202D02*
X0141798Y0102202D01*
X0141798Y0102240D02*
X0138727Y0102240D01*
X0138727Y0102277D02*
X0141798Y0102277D01*
X0141798Y0102315D02*
X0138727Y0102315D01*
X0138727Y0103346D02*
X0141798Y0103346D01*
X0141798Y0104291D01*
X0138727Y0104291D01*
X0138727Y0103346D01*
X0138727Y0103376D02*
X0141798Y0103376D01*
X0141798Y0103414D02*
X0138727Y0103414D01*
X0138727Y0103452D02*
X0141798Y0103452D01*
X0141798Y0103490D02*
X0138727Y0103490D01*
X0138727Y0103528D02*
X0141798Y0103528D01*
X0141798Y0103565D02*
X0138727Y0103565D01*
X0138727Y0103603D02*
X0141798Y0103603D01*
X0141798Y0103641D02*
X0138727Y0103641D01*
X0138727Y0103679D02*
X0141798Y0103679D01*
X0141798Y0103717D02*
X0138727Y0103717D01*
X0138727Y0103755D02*
X0141798Y0103755D01*
X0141798Y0103793D02*
X0138727Y0103793D01*
X0138727Y0103831D02*
X0141798Y0103831D01*
X0141798Y0103868D02*
X0138727Y0103868D01*
X0138727Y0103906D02*
X0141798Y0103906D01*
X0141798Y0103944D02*
X0138727Y0103944D01*
X0138727Y0103982D02*
X0141798Y0103982D01*
X0141798Y0104020D02*
X0138727Y0104020D01*
X0138727Y0104058D02*
X0141798Y0104058D01*
X0141798Y0104096D02*
X0138727Y0104096D01*
X0138727Y0104134D02*
X0141798Y0104134D01*
X0141798Y0104172D02*
X0138727Y0104172D01*
X0138727Y0104209D02*
X0141798Y0104209D01*
X0141798Y0104247D02*
X0138727Y0104247D01*
X0138727Y0104285D02*
X0141798Y0104285D01*
X0141798Y0105315D02*
X0138727Y0105315D01*
X0138727Y0106260D01*
X0141798Y0106260D01*
X0141798Y0105315D01*
X0141798Y0105346D02*
X0138727Y0105346D01*
X0138727Y0105384D02*
X0141798Y0105384D01*
X0141798Y0105422D02*
X0138727Y0105422D01*
X0138727Y0105459D02*
X0141798Y0105459D01*
X0141798Y0105497D02*
X0138727Y0105497D01*
X0138727Y0105535D02*
X0141798Y0105535D01*
X0141798Y0105573D02*
X0138727Y0105573D01*
X0138727Y0105611D02*
X0141798Y0105611D01*
X0141798Y0105649D02*
X0138727Y0105649D01*
X0138727Y0105687D02*
X0141798Y0105687D01*
X0141798Y0105725D02*
X0138727Y0105725D01*
X0138727Y0105763D02*
X0141798Y0105763D01*
X0141798Y0105800D02*
X0138727Y0105800D01*
X0138727Y0105838D02*
X0141798Y0105838D01*
X0141798Y0105876D02*
X0138727Y0105876D01*
X0138727Y0105914D02*
X0141798Y0105914D01*
X0141798Y0105952D02*
X0138727Y0105952D01*
X0138727Y0105990D02*
X0141798Y0105990D01*
X0141798Y0106028D02*
X0138727Y0106028D01*
X0138727Y0106066D02*
X0141798Y0106066D01*
X0141798Y0106103D02*
X0138727Y0106103D01*
X0138727Y0106141D02*
X0141798Y0106141D01*
X0141798Y0106179D02*
X0138727Y0106179D01*
X0138727Y0106217D02*
X0141798Y0106217D01*
X0141798Y0106255D02*
X0138727Y0106255D01*
X0138727Y0107283D02*
X0141798Y0107283D01*
X0141798Y0108228D01*
X0138727Y0108228D01*
X0138727Y0107283D01*
X0138727Y0107316D02*
X0141798Y0107316D01*
X0141798Y0107354D02*
X0138727Y0107354D01*
X0138727Y0107391D02*
X0141798Y0107391D01*
X0141798Y0107429D02*
X0138727Y0107429D01*
X0138727Y0107467D02*
X0141798Y0107467D01*
X0141798Y0107505D02*
X0138727Y0107505D01*
X0138727Y0107543D02*
X0141798Y0107543D01*
X0141798Y0107581D02*
X0138727Y0107581D01*
X0138727Y0107619D02*
X0141798Y0107619D01*
X0141798Y0107657D02*
X0138727Y0107657D01*
X0138727Y0107694D02*
X0141798Y0107694D01*
X0141798Y0107732D02*
X0138727Y0107732D01*
X0138727Y0107770D02*
X0141798Y0107770D01*
X0141798Y0107808D02*
X0138727Y0107808D01*
X0138727Y0107846D02*
X0141798Y0107846D01*
X0141798Y0107884D02*
X0138727Y0107884D01*
X0138727Y0107922D02*
X0141798Y0107922D01*
X0141798Y0107960D02*
X0138727Y0107960D01*
X0138727Y0107998D02*
X0141798Y0107998D01*
X0141798Y0108035D02*
X0138727Y0108035D01*
X0138727Y0108073D02*
X0141798Y0108073D01*
X0141798Y0108111D02*
X0138727Y0108111D01*
X0138727Y0108149D02*
X0141798Y0108149D01*
X0141798Y0108187D02*
X0138727Y0108187D01*
X0138727Y0108225D02*
X0141798Y0108225D01*
X0141798Y0109252D02*
X0138727Y0109252D01*
X0138727Y0110197D01*
X0141798Y0110197D01*
X0141798Y0109252D01*
X0141798Y0109286D02*
X0138727Y0109286D01*
X0138727Y0109323D02*
X0141798Y0109323D01*
X0141798Y0109361D02*
X0138727Y0109361D01*
X0138727Y0109399D02*
X0141798Y0109399D01*
X0141798Y0109437D02*
X0138727Y0109437D01*
X0138727Y0109475D02*
X0141798Y0109475D01*
X0141798Y0109513D02*
X0138727Y0109513D01*
X0138727Y0109551D02*
X0141798Y0109551D01*
X0141798Y0109589D02*
X0138727Y0109589D01*
X0138727Y0109626D02*
X0141798Y0109626D01*
X0141798Y0109664D02*
X0138727Y0109664D01*
X0138727Y0109702D02*
X0141798Y0109702D01*
X0141798Y0109740D02*
X0138727Y0109740D01*
X0138727Y0109778D02*
X0141798Y0109778D01*
X0141798Y0109816D02*
X0138727Y0109816D01*
X0138727Y0109854D02*
X0141798Y0109854D01*
X0141798Y0109892D02*
X0138727Y0109892D01*
X0138727Y0109929D02*
X0141798Y0109929D01*
X0141798Y0109967D02*
X0138727Y0109967D01*
X0138727Y0110005D02*
X0141798Y0110005D01*
X0141798Y0110043D02*
X0138727Y0110043D01*
X0138727Y0110081D02*
X0141798Y0110081D01*
X0141798Y0110119D02*
X0138727Y0110119D01*
X0138727Y0110157D02*
X0141798Y0110157D01*
X0141798Y0110195D02*
X0138727Y0110195D01*
X0142940Y0111339D02*
X0142940Y0114409D01*
X0143885Y0114409D01*
X0143885Y0111339D01*
X0142940Y0111339D01*
X0142940Y0111369D02*
X0143885Y0111369D01*
X0143885Y0111407D02*
X0142940Y0111407D01*
X0142940Y0111445D02*
X0143885Y0111445D01*
X0143885Y0111483D02*
X0142940Y0111483D01*
X0142940Y0111521D02*
X0143885Y0111521D01*
X0143885Y0111558D02*
X0142940Y0111558D01*
X0142940Y0111596D02*
X0143885Y0111596D01*
X0143885Y0111634D02*
X0142940Y0111634D01*
X0142940Y0111672D02*
X0143885Y0111672D01*
X0143885Y0111710D02*
X0142940Y0111710D01*
X0142940Y0111748D02*
X0143885Y0111748D01*
X0143885Y0111786D02*
X0142940Y0111786D01*
X0142940Y0111824D02*
X0143885Y0111824D01*
X0143885Y0111861D02*
X0142940Y0111861D01*
X0142940Y0111899D02*
X0143885Y0111899D01*
X0143885Y0111937D02*
X0142940Y0111937D01*
X0142940Y0111975D02*
X0143885Y0111975D01*
X0143885Y0112013D02*
X0142940Y0112013D01*
X0142940Y0112051D02*
X0143885Y0112051D01*
X0143885Y0112089D02*
X0142940Y0112089D01*
X0142940Y0112127D02*
X0143885Y0112127D01*
X0143885Y0112164D02*
X0142940Y0112164D01*
X0142940Y0112202D02*
X0143885Y0112202D01*
X0143885Y0112240D02*
X0142940Y0112240D01*
X0142940Y0112278D02*
X0143885Y0112278D01*
X0143885Y0112316D02*
X0142940Y0112316D01*
X0142940Y0112354D02*
X0143885Y0112354D01*
X0143885Y0112392D02*
X0142940Y0112392D01*
X0142940Y0112430D02*
X0143885Y0112430D01*
X0143885Y0112468D02*
X0142940Y0112468D01*
X0142940Y0112505D02*
X0143885Y0112505D01*
X0143885Y0112543D02*
X0142940Y0112543D01*
X0142940Y0112581D02*
X0143885Y0112581D01*
X0143885Y0112619D02*
X0142940Y0112619D01*
X0142940Y0112657D02*
X0143885Y0112657D01*
X0143885Y0112695D02*
X0142940Y0112695D01*
X0142940Y0112733D02*
X0143885Y0112733D01*
X0143885Y0112771D02*
X0142940Y0112771D01*
X0142940Y0112808D02*
X0143885Y0112808D01*
X0143885Y0112846D02*
X0142940Y0112846D01*
X0142940Y0112884D02*
X0143885Y0112884D01*
X0143885Y0112922D02*
X0142940Y0112922D01*
X0142940Y0112960D02*
X0143885Y0112960D01*
X0143885Y0112998D02*
X0142940Y0112998D01*
X0142940Y0113036D02*
X0143885Y0113036D01*
X0143885Y0113074D02*
X0142940Y0113074D01*
X0142940Y0113112D02*
X0143885Y0113112D01*
X0143885Y0113149D02*
X0142940Y0113149D01*
X0142940Y0113187D02*
X0143885Y0113187D01*
X0143885Y0113225D02*
X0142940Y0113225D01*
X0142940Y0113263D02*
X0143885Y0113263D01*
X0143885Y0113301D02*
X0142940Y0113301D01*
X0142940Y0113339D02*
X0143885Y0113339D01*
X0143885Y0113377D02*
X0142940Y0113377D01*
X0142940Y0113415D02*
X0143885Y0113415D01*
X0143885Y0113452D02*
X0142940Y0113452D01*
X0142940Y0113490D02*
X0143885Y0113490D01*
X0143885Y0113528D02*
X0142940Y0113528D01*
X0142940Y0113566D02*
X0143885Y0113566D01*
X0143885Y0113604D02*
X0142940Y0113604D01*
X0142940Y0113642D02*
X0143885Y0113642D01*
X0143885Y0113680D02*
X0142940Y0113680D01*
X0142940Y0113718D02*
X0143885Y0113718D01*
X0143885Y0113756D02*
X0142940Y0113756D01*
X0142940Y0113793D02*
X0143885Y0113793D01*
X0143885Y0113831D02*
X0142940Y0113831D01*
X0142940Y0113869D02*
X0143885Y0113869D01*
X0143885Y0113907D02*
X0142940Y0113907D01*
X0142940Y0113945D02*
X0143885Y0113945D01*
X0143885Y0113983D02*
X0142940Y0113983D01*
X0142940Y0114021D02*
X0143885Y0114021D01*
X0143885Y0114059D02*
X0142940Y0114059D01*
X0142940Y0114096D02*
X0143885Y0114096D01*
X0143885Y0114134D02*
X0142940Y0114134D01*
X0142940Y0114172D02*
X0143885Y0114172D01*
X0143885Y0114210D02*
X0142940Y0114210D01*
X0142940Y0114248D02*
X0143885Y0114248D01*
X0143885Y0114286D02*
X0142940Y0114286D01*
X0142940Y0114324D02*
X0143885Y0114324D01*
X0143885Y0114362D02*
X0142940Y0114362D01*
X0142940Y0114399D02*
X0143885Y0114399D01*
X0144908Y0114399D02*
X0145853Y0114399D01*
X0145853Y0114409D02*
X0145853Y0111339D01*
X0144908Y0111339D01*
X0144908Y0114409D01*
X0145853Y0114409D01*
X0145853Y0114362D02*
X0144908Y0114362D01*
X0144908Y0114324D02*
X0145853Y0114324D01*
X0145853Y0114286D02*
X0144908Y0114286D01*
X0144908Y0114248D02*
X0145853Y0114248D01*
X0145853Y0114210D02*
X0144908Y0114210D01*
X0144908Y0114172D02*
X0145853Y0114172D01*
X0145853Y0114134D02*
X0144908Y0114134D01*
X0144908Y0114096D02*
X0145853Y0114096D01*
X0145853Y0114059D02*
X0144908Y0114059D01*
X0144908Y0114021D02*
X0145853Y0114021D01*
X0145853Y0113983D02*
X0144908Y0113983D01*
X0144908Y0113945D02*
X0145853Y0113945D01*
X0145853Y0113907D02*
X0144908Y0113907D01*
X0144908Y0113869D02*
X0145853Y0113869D01*
X0145853Y0113831D02*
X0144908Y0113831D01*
X0144908Y0113793D02*
X0145853Y0113793D01*
X0145853Y0113756D02*
X0144908Y0113756D01*
X0144908Y0113718D02*
X0145853Y0113718D01*
X0145853Y0113680D02*
X0144908Y0113680D01*
X0144908Y0113642D02*
X0145853Y0113642D01*
X0145853Y0113604D02*
X0144908Y0113604D01*
X0144908Y0113566D02*
X0145853Y0113566D01*
X0145853Y0113528D02*
X0144908Y0113528D01*
X0144908Y0113490D02*
X0145853Y0113490D01*
X0145853Y0113452D02*
X0144908Y0113452D01*
X0144908Y0113415D02*
X0145853Y0113415D01*
X0145853Y0113377D02*
X0144908Y0113377D01*
X0144908Y0113339D02*
X0145853Y0113339D01*
X0145853Y0113301D02*
X0144908Y0113301D01*
X0144908Y0113263D02*
X0145853Y0113263D01*
X0145853Y0113225D02*
X0144908Y0113225D01*
X0144908Y0113187D02*
X0145853Y0113187D01*
X0145853Y0113149D02*
X0144908Y0113149D01*
X0144908Y0113112D02*
X0145853Y0113112D01*
X0145853Y0113074D02*
X0144908Y0113074D01*
X0144908Y0113036D02*
X0145853Y0113036D01*
X0145853Y0112998D02*
X0144908Y0112998D01*
X0144908Y0112960D02*
X0145853Y0112960D01*
X0145853Y0112922D02*
X0144908Y0112922D01*
X0144908Y0112884D02*
X0145853Y0112884D01*
X0145853Y0112846D02*
X0144908Y0112846D01*
X0144908Y0112808D02*
X0145853Y0112808D01*
X0145853Y0112771D02*
X0144908Y0112771D01*
X0144908Y0112733D02*
X0145853Y0112733D01*
X0145853Y0112695D02*
X0144908Y0112695D01*
X0144908Y0112657D02*
X0145853Y0112657D01*
X0145853Y0112619D02*
X0144908Y0112619D01*
X0144908Y0112581D02*
X0145853Y0112581D01*
X0145853Y0112543D02*
X0144908Y0112543D01*
X0144908Y0112505D02*
X0145853Y0112505D01*
X0145853Y0112468D02*
X0144908Y0112468D01*
X0144908Y0112430D02*
X0145853Y0112430D01*
X0145853Y0112392D02*
X0144908Y0112392D01*
X0144908Y0112354D02*
X0145853Y0112354D01*
X0145853Y0112316D02*
X0144908Y0112316D01*
X0144908Y0112278D02*
X0145853Y0112278D01*
X0145853Y0112240D02*
X0144908Y0112240D01*
X0144908Y0112202D02*
X0145853Y0112202D01*
X0145853Y0112164D02*
X0144908Y0112164D01*
X0144908Y0112127D02*
X0145853Y0112127D01*
X0145853Y0112089D02*
X0144908Y0112089D01*
X0144908Y0112051D02*
X0145853Y0112051D01*
X0145853Y0112013D02*
X0144908Y0112013D01*
X0144908Y0111975D02*
X0145853Y0111975D01*
X0145853Y0111937D02*
X0144908Y0111937D01*
X0144908Y0111899D02*
X0145853Y0111899D01*
X0145853Y0111861D02*
X0144908Y0111861D01*
X0144908Y0111824D02*
X0145853Y0111824D01*
X0145853Y0111786D02*
X0144908Y0111786D01*
X0144908Y0111748D02*
X0145853Y0111748D01*
X0145853Y0111710D02*
X0144908Y0111710D01*
X0144908Y0111672D02*
X0145853Y0111672D01*
X0145853Y0111634D02*
X0144908Y0111634D01*
X0144908Y0111596D02*
X0145853Y0111596D01*
X0145853Y0111558D02*
X0144908Y0111558D01*
X0144908Y0111521D02*
X0145853Y0111521D01*
X0145853Y0111483D02*
X0144908Y0111483D01*
X0144908Y0111445D02*
X0145853Y0111445D01*
X0145853Y0111407D02*
X0144908Y0111407D01*
X0144908Y0111369D02*
X0145853Y0111369D01*
X0146877Y0111369D02*
X0147822Y0111369D01*
X0147822Y0111339D02*
X0146877Y0111339D01*
X0146877Y0114409D01*
X0147822Y0114409D01*
X0147822Y0111339D01*
X0147822Y0111407D02*
X0146877Y0111407D01*
X0146877Y0111445D02*
X0147822Y0111445D01*
X0147822Y0111483D02*
X0146877Y0111483D01*
X0146877Y0111521D02*
X0147822Y0111521D01*
X0147822Y0111558D02*
X0146877Y0111558D01*
X0146877Y0111596D02*
X0147822Y0111596D01*
X0147822Y0111634D02*
X0146877Y0111634D01*
X0146877Y0111672D02*
X0147822Y0111672D01*
X0147822Y0111710D02*
X0146877Y0111710D01*
X0146877Y0111748D02*
X0147822Y0111748D01*
X0147822Y0111786D02*
X0146877Y0111786D01*
X0146877Y0111824D02*
X0147822Y0111824D01*
X0147822Y0111861D02*
X0146877Y0111861D01*
X0146877Y0111899D02*
X0147822Y0111899D01*
X0147822Y0111937D02*
X0146877Y0111937D01*
X0146877Y0111975D02*
X0147822Y0111975D01*
X0147822Y0112013D02*
X0146877Y0112013D01*
X0146877Y0112051D02*
X0147822Y0112051D01*
X0147822Y0112089D02*
X0146877Y0112089D01*
X0146877Y0112127D02*
X0147822Y0112127D01*
X0147822Y0112164D02*
X0146877Y0112164D01*
X0146877Y0112202D02*
X0147822Y0112202D01*
X0147822Y0112240D02*
X0146877Y0112240D01*
X0146877Y0112278D02*
X0147822Y0112278D01*
X0147822Y0112316D02*
X0146877Y0112316D01*
X0146877Y0112354D02*
X0147822Y0112354D01*
X0147822Y0112392D02*
X0146877Y0112392D01*
X0146877Y0112430D02*
X0147822Y0112430D01*
X0147822Y0112468D02*
X0146877Y0112468D01*
X0146877Y0112505D02*
X0147822Y0112505D01*
X0147822Y0112543D02*
X0146877Y0112543D01*
X0146877Y0112581D02*
X0147822Y0112581D01*
X0147822Y0112619D02*
X0146877Y0112619D01*
X0146877Y0112657D02*
X0147822Y0112657D01*
X0147822Y0112695D02*
X0146877Y0112695D01*
X0146877Y0112733D02*
X0147822Y0112733D01*
X0147822Y0112771D02*
X0146877Y0112771D01*
X0146877Y0112808D02*
X0147822Y0112808D01*
X0147822Y0112846D02*
X0146877Y0112846D01*
X0146877Y0112884D02*
X0147822Y0112884D01*
X0147822Y0112922D02*
X0146877Y0112922D01*
X0146877Y0112960D02*
X0147822Y0112960D01*
X0147822Y0112998D02*
X0146877Y0112998D01*
X0146877Y0113036D02*
X0147822Y0113036D01*
X0147822Y0113074D02*
X0146877Y0113074D01*
X0146877Y0113112D02*
X0147822Y0113112D01*
X0147822Y0113149D02*
X0146877Y0113149D01*
X0146877Y0113187D02*
X0147822Y0113187D01*
X0147822Y0113225D02*
X0146877Y0113225D01*
X0146877Y0113263D02*
X0147822Y0113263D01*
X0147822Y0113301D02*
X0146877Y0113301D01*
X0146877Y0113339D02*
X0147822Y0113339D01*
X0147822Y0113377D02*
X0146877Y0113377D01*
X0146877Y0113415D02*
X0147822Y0113415D01*
X0147822Y0113452D02*
X0146877Y0113452D01*
X0146877Y0113490D02*
X0147822Y0113490D01*
X0147822Y0113528D02*
X0146877Y0113528D01*
X0146877Y0113566D02*
X0147822Y0113566D01*
X0147822Y0113604D02*
X0146877Y0113604D01*
X0146877Y0113642D02*
X0147822Y0113642D01*
X0147822Y0113680D02*
X0146877Y0113680D01*
X0146877Y0113718D02*
X0147822Y0113718D01*
X0147822Y0113756D02*
X0146877Y0113756D01*
X0146877Y0113793D02*
X0147822Y0113793D01*
X0147822Y0113831D02*
X0146877Y0113831D01*
X0146877Y0113869D02*
X0147822Y0113869D01*
X0147822Y0113907D02*
X0146877Y0113907D01*
X0146877Y0113945D02*
X0147822Y0113945D01*
X0147822Y0113983D02*
X0146877Y0113983D01*
X0146877Y0114021D02*
X0147822Y0114021D01*
X0147822Y0114059D02*
X0146877Y0114059D01*
X0146877Y0114096D02*
X0147822Y0114096D01*
X0147822Y0114134D02*
X0146877Y0114134D01*
X0146877Y0114172D02*
X0147822Y0114172D01*
X0147822Y0114210D02*
X0146877Y0114210D01*
X0146877Y0114248D02*
X0147822Y0114248D01*
X0147822Y0114286D02*
X0146877Y0114286D01*
X0146877Y0114324D02*
X0147822Y0114324D01*
X0147822Y0114362D02*
X0146877Y0114362D01*
X0146877Y0114399D02*
X0147822Y0114399D01*
X0148845Y0114399D02*
X0149790Y0114399D01*
X0149790Y0114409D02*
X0149790Y0111339D01*
X0148845Y0111339D01*
X0148845Y0114409D01*
X0149790Y0114409D01*
X0149790Y0114362D02*
X0148845Y0114362D01*
X0148845Y0114324D02*
X0149790Y0114324D01*
X0149790Y0114286D02*
X0148845Y0114286D01*
X0148845Y0114248D02*
X0149790Y0114248D01*
X0149790Y0114210D02*
X0148845Y0114210D01*
X0148845Y0114172D02*
X0149790Y0114172D01*
X0149790Y0114134D02*
X0148845Y0114134D01*
X0148845Y0114096D02*
X0149790Y0114096D01*
X0149790Y0114059D02*
X0148845Y0114059D01*
X0148845Y0114021D02*
X0149790Y0114021D01*
X0149790Y0113983D02*
X0148845Y0113983D01*
X0148845Y0113945D02*
X0149790Y0113945D01*
X0149790Y0113907D02*
X0148845Y0113907D01*
X0148845Y0113869D02*
X0149790Y0113869D01*
X0149790Y0113831D02*
X0148845Y0113831D01*
X0148845Y0113793D02*
X0149790Y0113793D01*
X0149790Y0113756D02*
X0148845Y0113756D01*
X0148845Y0113718D02*
X0149790Y0113718D01*
X0149790Y0113680D02*
X0148845Y0113680D01*
X0148845Y0113642D02*
X0149790Y0113642D01*
X0149790Y0113604D02*
X0148845Y0113604D01*
X0148845Y0113566D02*
X0149790Y0113566D01*
X0149790Y0113528D02*
X0148845Y0113528D01*
X0148845Y0113490D02*
X0149790Y0113490D01*
X0149790Y0113452D02*
X0148845Y0113452D01*
X0148845Y0113415D02*
X0149790Y0113415D01*
X0149790Y0113377D02*
X0148845Y0113377D01*
X0148845Y0113339D02*
X0149790Y0113339D01*
X0149790Y0113301D02*
X0148845Y0113301D01*
X0148845Y0113263D02*
X0149790Y0113263D01*
X0149790Y0113225D02*
X0148845Y0113225D01*
X0148845Y0113187D02*
X0149790Y0113187D01*
X0149790Y0113149D02*
X0148845Y0113149D01*
X0148845Y0113112D02*
X0149790Y0113112D01*
X0149790Y0113074D02*
X0148845Y0113074D01*
X0148845Y0113036D02*
X0149790Y0113036D01*
X0149790Y0112998D02*
X0148845Y0112998D01*
X0148845Y0112960D02*
X0149790Y0112960D01*
X0149790Y0112922D02*
X0148845Y0112922D01*
X0148845Y0112884D02*
X0149790Y0112884D01*
X0149790Y0112846D02*
X0148845Y0112846D01*
X0148845Y0112808D02*
X0149790Y0112808D01*
X0149790Y0112771D02*
X0148845Y0112771D01*
X0148845Y0112733D02*
X0149790Y0112733D01*
X0149790Y0112695D02*
X0148845Y0112695D01*
X0148845Y0112657D02*
X0149790Y0112657D01*
X0149790Y0112619D02*
X0148845Y0112619D01*
X0148845Y0112581D02*
X0149790Y0112581D01*
X0149790Y0112543D02*
X0148845Y0112543D01*
X0148845Y0112505D02*
X0149790Y0112505D01*
X0149790Y0112468D02*
X0148845Y0112468D01*
X0148845Y0112430D02*
X0149790Y0112430D01*
X0149790Y0112392D02*
X0148845Y0112392D01*
X0148845Y0112354D02*
X0149790Y0112354D01*
X0149790Y0112316D02*
X0148845Y0112316D01*
X0148845Y0112278D02*
X0149790Y0112278D01*
X0149790Y0112240D02*
X0148845Y0112240D01*
X0148845Y0112202D02*
X0149790Y0112202D01*
X0149790Y0112164D02*
X0148845Y0112164D01*
X0148845Y0112127D02*
X0149790Y0112127D01*
X0149790Y0112089D02*
X0148845Y0112089D01*
X0148845Y0112051D02*
X0149790Y0112051D01*
X0149790Y0112013D02*
X0148845Y0112013D01*
X0148845Y0111975D02*
X0149790Y0111975D01*
X0149790Y0111937D02*
X0148845Y0111937D01*
X0148845Y0111899D02*
X0149790Y0111899D01*
X0149790Y0111861D02*
X0148845Y0111861D01*
X0148845Y0111824D02*
X0149790Y0111824D01*
X0149790Y0111786D02*
X0148845Y0111786D01*
X0148845Y0111748D02*
X0149790Y0111748D01*
X0149790Y0111710D02*
X0148845Y0111710D01*
X0148845Y0111672D02*
X0149790Y0111672D01*
X0149790Y0111634D02*
X0148845Y0111634D01*
X0148845Y0111596D02*
X0149790Y0111596D01*
X0149790Y0111558D02*
X0148845Y0111558D01*
X0148845Y0111521D02*
X0149790Y0111521D01*
X0149790Y0111483D02*
X0148845Y0111483D01*
X0148845Y0111445D02*
X0149790Y0111445D01*
X0149790Y0111407D02*
X0148845Y0111407D01*
X0148845Y0111369D02*
X0149790Y0111369D01*
X0150814Y0111369D02*
X0151759Y0111369D01*
X0151759Y0111339D02*
X0150814Y0111339D01*
X0150814Y0114409D01*
X0151759Y0114409D01*
X0151759Y0111339D01*
X0151759Y0111407D02*
X0150814Y0111407D01*
X0150814Y0111445D02*
X0151759Y0111445D01*
X0151759Y0111483D02*
X0150814Y0111483D01*
X0150814Y0111521D02*
X0151759Y0111521D01*
X0151759Y0111558D02*
X0150814Y0111558D01*
X0150814Y0111596D02*
X0151759Y0111596D01*
X0151759Y0111634D02*
X0150814Y0111634D01*
X0150814Y0111672D02*
X0151759Y0111672D01*
X0151759Y0111710D02*
X0150814Y0111710D01*
X0150814Y0111748D02*
X0151759Y0111748D01*
X0151759Y0111786D02*
X0150814Y0111786D01*
X0150814Y0111824D02*
X0151759Y0111824D01*
X0151759Y0111861D02*
X0150814Y0111861D01*
X0150814Y0111899D02*
X0151759Y0111899D01*
X0151759Y0111937D02*
X0150814Y0111937D01*
X0150814Y0111975D02*
X0151759Y0111975D01*
X0151759Y0112013D02*
X0150814Y0112013D01*
X0150814Y0112051D02*
X0151759Y0112051D01*
X0151759Y0112089D02*
X0150814Y0112089D01*
X0150814Y0112127D02*
X0151759Y0112127D01*
X0151759Y0112164D02*
X0150814Y0112164D01*
X0150814Y0112202D02*
X0151759Y0112202D01*
X0151759Y0112240D02*
X0150814Y0112240D01*
X0150814Y0112278D02*
X0151759Y0112278D01*
X0151759Y0112316D02*
X0150814Y0112316D01*
X0150814Y0112354D02*
X0151759Y0112354D01*
X0151759Y0112392D02*
X0150814Y0112392D01*
X0150814Y0112430D02*
X0151759Y0112430D01*
X0151759Y0112468D02*
X0150814Y0112468D01*
X0150814Y0112505D02*
X0151759Y0112505D01*
X0151759Y0112543D02*
X0150814Y0112543D01*
X0150814Y0112581D02*
X0151759Y0112581D01*
X0151759Y0112619D02*
X0150814Y0112619D01*
X0150814Y0112657D02*
X0151759Y0112657D01*
X0151759Y0112695D02*
X0150814Y0112695D01*
X0150814Y0112733D02*
X0151759Y0112733D01*
X0151759Y0112771D02*
X0150814Y0112771D01*
X0150814Y0112808D02*
X0151759Y0112808D01*
X0151759Y0112846D02*
X0150814Y0112846D01*
X0150814Y0112884D02*
X0151759Y0112884D01*
X0151759Y0112922D02*
X0150814Y0112922D01*
X0150814Y0112960D02*
X0151759Y0112960D01*
X0151759Y0112998D02*
X0150814Y0112998D01*
X0150814Y0113036D02*
X0151759Y0113036D01*
X0151759Y0113074D02*
X0150814Y0113074D01*
X0150814Y0113112D02*
X0151759Y0113112D01*
X0151759Y0113149D02*
X0150814Y0113149D01*
X0150814Y0113187D02*
X0151759Y0113187D01*
X0151759Y0113225D02*
X0150814Y0113225D01*
X0150814Y0113263D02*
X0151759Y0113263D01*
X0151759Y0113301D02*
X0150814Y0113301D01*
X0150814Y0113339D02*
X0151759Y0113339D01*
X0151759Y0113377D02*
X0150814Y0113377D01*
X0150814Y0113415D02*
X0151759Y0113415D01*
X0151759Y0113452D02*
X0150814Y0113452D01*
X0150814Y0113490D02*
X0151759Y0113490D01*
X0151759Y0113528D02*
X0150814Y0113528D01*
X0150814Y0113566D02*
X0151759Y0113566D01*
X0151759Y0113604D02*
X0150814Y0113604D01*
X0150814Y0113642D02*
X0151759Y0113642D01*
X0151759Y0113680D02*
X0150814Y0113680D01*
X0150814Y0113718D02*
X0151759Y0113718D01*
X0151759Y0113756D02*
X0150814Y0113756D01*
X0150814Y0113793D02*
X0151759Y0113793D01*
X0151759Y0113831D02*
X0150814Y0113831D01*
X0150814Y0113869D02*
X0151759Y0113869D01*
X0151759Y0113907D02*
X0150814Y0113907D01*
X0150814Y0113945D02*
X0151759Y0113945D01*
X0151759Y0113983D02*
X0150814Y0113983D01*
X0150814Y0114021D02*
X0151759Y0114021D01*
X0151759Y0114059D02*
X0150814Y0114059D01*
X0150814Y0114096D02*
X0151759Y0114096D01*
X0151759Y0114134D02*
X0150814Y0114134D01*
X0150814Y0114172D02*
X0151759Y0114172D01*
X0151759Y0114210D02*
X0150814Y0114210D01*
X0150814Y0114248D02*
X0151759Y0114248D01*
X0151759Y0114286D02*
X0150814Y0114286D01*
X0150814Y0114324D02*
X0151759Y0114324D01*
X0151759Y0114362D02*
X0150814Y0114362D01*
X0150814Y0114399D02*
X0151759Y0114399D01*
X0152782Y0114399D02*
X0153727Y0114399D01*
X0153727Y0114409D02*
X0153727Y0111339D01*
X0152782Y0111339D01*
X0152782Y0114409D01*
X0153727Y0114409D01*
X0153727Y0114362D02*
X0152782Y0114362D01*
X0152782Y0114324D02*
X0153727Y0114324D01*
X0153727Y0114286D02*
X0152782Y0114286D01*
X0152782Y0114248D02*
X0153727Y0114248D01*
X0153727Y0114210D02*
X0152782Y0114210D01*
X0152782Y0114172D02*
X0153727Y0114172D01*
X0153727Y0114134D02*
X0152782Y0114134D01*
X0152782Y0114096D02*
X0153727Y0114096D01*
X0153727Y0114059D02*
X0152782Y0114059D01*
X0152782Y0114021D02*
X0153727Y0114021D01*
X0153727Y0113983D02*
X0152782Y0113983D01*
X0152782Y0113945D02*
X0153727Y0113945D01*
X0153727Y0113907D02*
X0152782Y0113907D01*
X0152782Y0113869D02*
X0153727Y0113869D01*
X0153727Y0113831D02*
X0152782Y0113831D01*
X0152782Y0113793D02*
X0153727Y0113793D01*
X0153727Y0113756D02*
X0152782Y0113756D01*
X0152782Y0113718D02*
X0153727Y0113718D01*
X0153727Y0113680D02*
X0152782Y0113680D01*
X0152782Y0113642D02*
X0153727Y0113642D01*
X0153727Y0113604D02*
X0152782Y0113604D01*
X0152782Y0113566D02*
X0153727Y0113566D01*
X0153727Y0113528D02*
X0152782Y0113528D01*
X0152782Y0113490D02*
X0153727Y0113490D01*
X0153727Y0113452D02*
X0152782Y0113452D01*
X0152782Y0113415D02*
X0153727Y0113415D01*
X0153727Y0113377D02*
X0152782Y0113377D01*
X0152782Y0113339D02*
X0153727Y0113339D01*
X0153727Y0113301D02*
X0152782Y0113301D01*
X0152782Y0113263D02*
X0153727Y0113263D01*
X0153727Y0113225D02*
X0152782Y0113225D01*
X0152782Y0113187D02*
X0153727Y0113187D01*
X0153727Y0113149D02*
X0152782Y0113149D01*
X0152782Y0113112D02*
X0153727Y0113112D01*
X0153727Y0113074D02*
X0152782Y0113074D01*
X0152782Y0113036D02*
X0153727Y0113036D01*
X0153727Y0112998D02*
X0152782Y0112998D01*
X0152782Y0112960D02*
X0153727Y0112960D01*
X0153727Y0112922D02*
X0152782Y0112922D01*
X0152782Y0112884D02*
X0153727Y0112884D01*
X0153727Y0112846D02*
X0152782Y0112846D01*
X0152782Y0112808D02*
X0153727Y0112808D01*
X0153727Y0112771D02*
X0152782Y0112771D01*
X0152782Y0112733D02*
X0153727Y0112733D01*
X0153727Y0112695D02*
X0152782Y0112695D01*
X0152782Y0112657D02*
X0153727Y0112657D01*
X0153727Y0112619D02*
X0152782Y0112619D01*
X0152782Y0112581D02*
X0153727Y0112581D01*
X0153727Y0112543D02*
X0152782Y0112543D01*
X0152782Y0112505D02*
X0153727Y0112505D01*
X0153727Y0112468D02*
X0152782Y0112468D01*
X0152782Y0112430D02*
X0153727Y0112430D01*
X0153727Y0112392D02*
X0152782Y0112392D01*
X0152782Y0112354D02*
X0153727Y0112354D01*
X0153727Y0112316D02*
X0152782Y0112316D01*
X0152782Y0112278D02*
X0153727Y0112278D01*
X0153727Y0112240D02*
X0152782Y0112240D01*
X0152782Y0112202D02*
X0153727Y0112202D01*
X0153727Y0112164D02*
X0152782Y0112164D01*
X0152782Y0112127D02*
X0153727Y0112127D01*
X0153727Y0112089D02*
X0152782Y0112089D01*
X0152782Y0112051D02*
X0153727Y0112051D01*
X0153727Y0112013D02*
X0152782Y0112013D01*
X0152782Y0111975D02*
X0153727Y0111975D01*
X0153727Y0111937D02*
X0152782Y0111937D01*
X0152782Y0111899D02*
X0153727Y0111899D01*
X0153727Y0111861D02*
X0152782Y0111861D01*
X0152782Y0111824D02*
X0153727Y0111824D01*
X0153727Y0111786D02*
X0152782Y0111786D01*
X0152782Y0111748D02*
X0153727Y0111748D01*
X0153727Y0111710D02*
X0152782Y0111710D01*
X0152782Y0111672D02*
X0153727Y0111672D01*
X0153727Y0111634D02*
X0152782Y0111634D01*
X0152782Y0111596D02*
X0153727Y0111596D01*
X0153727Y0111558D02*
X0152782Y0111558D01*
X0152782Y0111521D02*
X0153727Y0111521D01*
X0153727Y0111483D02*
X0152782Y0111483D01*
X0152782Y0111445D02*
X0153727Y0111445D01*
X0153727Y0111407D02*
X0152782Y0111407D01*
X0152782Y0111369D02*
X0153727Y0111369D01*
X0154869Y0110197D02*
X0157940Y0110197D01*
X0157940Y0109252D01*
X0154869Y0109252D01*
X0154869Y0110197D01*
X0154869Y0110195D02*
X0157940Y0110195D01*
X0157940Y0110157D02*
X0154869Y0110157D01*
X0154869Y0110119D02*
X0157940Y0110119D01*
X0157940Y0110081D02*
X0154869Y0110081D01*
X0154869Y0110043D02*
X0157940Y0110043D01*
X0157940Y0110005D02*
X0154869Y0110005D01*
X0154869Y0109967D02*
X0157940Y0109967D01*
X0157940Y0109929D02*
X0154869Y0109929D01*
X0154869Y0109892D02*
X0157940Y0109892D01*
X0157940Y0109854D02*
X0154869Y0109854D01*
X0154869Y0109816D02*
X0157940Y0109816D01*
X0157940Y0109778D02*
X0154869Y0109778D01*
X0154869Y0109740D02*
X0157940Y0109740D01*
X0157940Y0109702D02*
X0154869Y0109702D01*
X0154869Y0109664D02*
X0157940Y0109664D01*
X0157940Y0109626D02*
X0154869Y0109626D01*
X0154869Y0109589D02*
X0157940Y0109589D01*
X0157940Y0109551D02*
X0154869Y0109551D01*
X0154869Y0109513D02*
X0157940Y0109513D01*
X0157940Y0109475D02*
X0154869Y0109475D01*
X0154869Y0109437D02*
X0157940Y0109437D01*
X0157940Y0109399D02*
X0154869Y0109399D01*
X0154869Y0109361D02*
X0157940Y0109361D01*
X0157940Y0109323D02*
X0154869Y0109323D01*
X0154869Y0109286D02*
X0157940Y0109286D01*
X0157940Y0108228D02*
X0154869Y0108228D01*
X0154869Y0107283D01*
X0157940Y0107283D01*
X0157940Y0108228D01*
X0157940Y0108225D02*
X0154869Y0108225D01*
X0154869Y0108187D02*
X0157940Y0108187D01*
X0157940Y0108149D02*
X0154869Y0108149D01*
X0154869Y0108111D02*
X0157940Y0108111D01*
X0157940Y0108073D02*
X0154869Y0108073D01*
X0154869Y0108035D02*
X0157940Y0108035D01*
X0157940Y0107998D02*
X0154869Y0107998D01*
X0154869Y0107960D02*
X0157940Y0107960D01*
X0157940Y0107922D02*
X0154869Y0107922D01*
X0154869Y0107884D02*
X0157940Y0107884D01*
X0157940Y0107846D02*
X0154869Y0107846D01*
X0154869Y0107808D02*
X0157940Y0107808D01*
X0157940Y0107770D02*
X0154869Y0107770D01*
X0154869Y0107732D02*
X0157940Y0107732D01*
X0157940Y0107694D02*
X0154869Y0107694D01*
X0154869Y0107657D02*
X0157940Y0107657D01*
X0157940Y0107619D02*
X0154869Y0107619D01*
X0154869Y0107581D02*
X0157940Y0107581D01*
X0157940Y0107543D02*
X0154869Y0107543D01*
X0154869Y0107505D02*
X0157940Y0107505D01*
X0157940Y0107467D02*
X0154869Y0107467D01*
X0154869Y0107429D02*
X0157940Y0107429D01*
X0157940Y0107391D02*
X0154869Y0107391D01*
X0154869Y0107354D02*
X0157940Y0107354D01*
X0157940Y0107316D02*
X0154869Y0107316D01*
X0154869Y0106260D02*
X0157940Y0106260D01*
X0157940Y0105315D01*
X0154869Y0105315D01*
X0154869Y0106260D01*
X0154869Y0106255D02*
X0157940Y0106255D01*
X0157940Y0106217D02*
X0154869Y0106217D01*
X0154869Y0106179D02*
X0157940Y0106179D01*
X0157940Y0106141D02*
X0154869Y0106141D01*
X0154869Y0106103D02*
X0157940Y0106103D01*
X0157940Y0106066D02*
X0154869Y0106066D01*
X0154869Y0106028D02*
X0157940Y0106028D01*
X0157940Y0105990D02*
X0154869Y0105990D01*
X0154869Y0105952D02*
X0157940Y0105952D01*
X0157940Y0105914D02*
X0154869Y0105914D01*
X0154869Y0105876D02*
X0157940Y0105876D01*
X0157940Y0105838D02*
X0154869Y0105838D01*
X0154869Y0105800D02*
X0157940Y0105800D01*
X0157940Y0105763D02*
X0154869Y0105763D01*
X0154869Y0105725D02*
X0157940Y0105725D01*
X0157940Y0105687D02*
X0154869Y0105687D01*
X0154869Y0105649D02*
X0157940Y0105649D01*
X0157940Y0105611D02*
X0154869Y0105611D01*
X0154869Y0105573D02*
X0157940Y0105573D01*
X0157940Y0105535D02*
X0154869Y0105535D01*
X0154869Y0105497D02*
X0157940Y0105497D01*
X0157940Y0105459D02*
X0154869Y0105459D01*
X0154869Y0105422D02*
X0157940Y0105422D01*
X0157940Y0105384D02*
X0154869Y0105384D01*
X0154869Y0105346D02*
X0157940Y0105346D01*
X0157940Y0104291D02*
X0154869Y0104291D01*
X0154869Y0103346D01*
X0157940Y0103346D01*
X0157940Y0104291D01*
X0157940Y0104285D02*
X0154869Y0104285D01*
X0154869Y0104247D02*
X0157940Y0104247D01*
X0157940Y0104209D02*
X0154869Y0104209D01*
X0154869Y0104172D02*
X0157940Y0104172D01*
X0157940Y0104134D02*
X0154869Y0104134D01*
X0154869Y0104096D02*
X0157940Y0104096D01*
X0157940Y0104058D02*
X0154869Y0104058D01*
X0154869Y0104020D02*
X0157940Y0104020D01*
X0157940Y0103982D02*
X0154869Y0103982D01*
X0154869Y0103944D02*
X0157940Y0103944D01*
X0157940Y0103906D02*
X0154869Y0103906D01*
X0154869Y0103868D02*
X0157940Y0103868D01*
X0157940Y0103831D02*
X0154869Y0103831D01*
X0154869Y0103793D02*
X0157940Y0103793D01*
X0157940Y0103755D02*
X0154869Y0103755D01*
X0154869Y0103717D02*
X0157940Y0103717D01*
X0157940Y0103679D02*
X0154869Y0103679D01*
X0154869Y0103641D02*
X0157940Y0103641D01*
X0157940Y0103603D02*
X0154869Y0103603D01*
X0154869Y0103565D02*
X0157940Y0103565D01*
X0157940Y0103528D02*
X0154869Y0103528D01*
X0154869Y0103490D02*
X0157940Y0103490D01*
X0157940Y0103452D02*
X0154869Y0103452D01*
X0154869Y0103414D02*
X0157940Y0103414D01*
X0157940Y0103376D02*
X0154869Y0103376D01*
X0154869Y0102323D02*
X0157940Y0102323D01*
X0157940Y0101378D01*
X0154869Y0101378D01*
X0154869Y0102323D01*
X0154869Y0102315D02*
X0157940Y0102315D01*
X0157940Y0102277D02*
X0154869Y0102277D01*
X0154869Y0102240D02*
X0157940Y0102240D01*
X0157940Y0102202D02*
X0154869Y0102202D01*
X0154869Y0102164D02*
X0157940Y0102164D01*
X0157940Y0102126D02*
X0154869Y0102126D01*
X0154869Y0102088D02*
X0157940Y0102088D01*
X0157940Y0102050D02*
X0154869Y0102050D01*
X0154869Y0102012D02*
X0157940Y0102012D01*
X0157940Y0101974D02*
X0154869Y0101974D01*
X0154869Y0101937D02*
X0157940Y0101937D01*
X0157940Y0101899D02*
X0154869Y0101899D01*
X0154869Y0101861D02*
X0157940Y0101861D01*
X0157940Y0101823D02*
X0154869Y0101823D01*
X0154869Y0101785D02*
X0157940Y0101785D01*
X0157940Y0101747D02*
X0154869Y0101747D01*
X0154869Y0101709D02*
X0157940Y0101709D01*
X0157940Y0101671D02*
X0154869Y0101671D01*
X0154869Y0101633D02*
X0157940Y0101633D01*
X0157940Y0101596D02*
X0154869Y0101596D01*
X0154869Y0101558D02*
X0157940Y0101558D01*
X0157940Y0101520D02*
X0154869Y0101520D01*
X0154869Y0101482D02*
X0157940Y0101482D01*
X0157940Y0101444D02*
X0154869Y0101444D01*
X0154869Y0101406D02*
X0157940Y0101406D01*
X0157940Y0100354D02*
X0154869Y0100354D01*
X0154869Y0099409D01*
X0157940Y0099409D01*
X0157940Y0100354D01*
X0157940Y0100345D02*
X0154869Y0100345D01*
X0154869Y0100308D02*
X0157940Y0100308D01*
X0157940Y0100270D02*
X0154869Y0100270D01*
X0154869Y0100232D02*
X0157940Y0100232D01*
X0157940Y0100194D02*
X0154869Y0100194D01*
X0154869Y0100156D02*
X0157940Y0100156D01*
X0157940Y0100118D02*
X0154869Y0100118D01*
X0154869Y0100080D02*
X0157940Y0100080D01*
X0157940Y0100042D02*
X0154869Y0100042D01*
X0154869Y0100005D02*
X0157940Y0100005D01*
X0157940Y0099967D02*
X0154869Y0099967D01*
X0154869Y0099929D02*
X0157940Y0099929D01*
X0157940Y0099891D02*
X0154869Y0099891D01*
X0154869Y0099853D02*
X0157940Y0099853D01*
X0157940Y0099815D02*
X0154869Y0099815D01*
X0154869Y0099777D02*
X0157940Y0099777D01*
X0157940Y0099739D02*
X0154869Y0099739D01*
X0154869Y0099702D02*
X0157940Y0099702D01*
X0157940Y0099664D02*
X0154869Y0099664D01*
X0154869Y0099626D02*
X0157940Y0099626D01*
X0157940Y0099588D02*
X0154869Y0099588D01*
X0154869Y0099550D02*
X0157940Y0099550D01*
X0157940Y0099512D02*
X0154869Y0099512D01*
X0154869Y0099474D02*
X0157940Y0099474D01*
X0157940Y0099436D02*
X0154869Y0099436D01*
X0153727Y0098268D02*
X0153727Y0095197D01*
X0152782Y0095197D01*
X0152782Y0098268D01*
X0153727Y0098268D01*
X0153727Y0098262D02*
X0152782Y0098262D01*
X0152782Y0098224D02*
X0153727Y0098224D01*
X0153727Y0098186D02*
X0152782Y0098186D01*
X0152782Y0098148D02*
X0153727Y0098148D01*
X0153727Y0098110D02*
X0152782Y0098110D01*
X0152782Y0098073D02*
X0153727Y0098073D01*
X0153727Y0098035D02*
X0152782Y0098035D01*
X0152782Y0097997D02*
X0153727Y0097997D01*
X0153727Y0097959D02*
X0152782Y0097959D01*
X0152782Y0097921D02*
X0153727Y0097921D01*
X0153727Y0097883D02*
X0152782Y0097883D01*
X0152782Y0097845D02*
X0153727Y0097845D01*
X0153727Y0097807D02*
X0152782Y0097807D01*
X0152782Y0097770D02*
X0153727Y0097770D01*
X0153727Y0097732D02*
X0152782Y0097732D01*
X0152782Y0097694D02*
X0153727Y0097694D01*
X0153727Y0097656D02*
X0152782Y0097656D01*
X0152782Y0097618D02*
X0153727Y0097618D01*
X0153727Y0097580D02*
X0152782Y0097580D01*
X0152782Y0097542D02*
X0153727Y0097542D01*
X0153727Y0097504D02*
X0152782Y0097504D01*
X0152782Y0097467D02*
X0153727Y0097467D01*
X0153727Y0097429D02*
X0152782Y0097429D01*
X0152782Y0097391D02*
X0153727Y0097391D01*
X0153727Y0097353D02*
X0152782Y0097353D01*
X0152782Y0097315D02*
X0153727Y0097315D01*
X0153727Y0097277D02*
X0152782Y0097277D01*
X0152782Y0097239D02*
X0153727Y0097239D01*
X0153727Y0097201D02*
X0152782Y0097201D01*
X0152782Y0097163D02*
X0153727Y0097163D01*
X0153727Y0097126D02*
X0152782Y0097126D01*
X0152782Y0097088D02*
X0153727Y0097088D01*
X0153727Y0097050D02*
X0152782Y0097050D01*
X0152782Y0097012D02*
X0153727Y0097012D01*
X0153727Y0096974D02*
X0152782Y0096974D01*
X0152782Y0096936D02*
X0153727Y0096936D01*
X0153727Y0096898D02*
X0152782Y0096898D01*
X0152782Y0096860D02*
X0153727Y0096860D01*
X0153727Y0096823D02*
X0152782Y0096823D01*
X0152782Y0096785D02*
X0153727Y0096785D01*
X0153727Y0096747D02*
X0152782Y0096747D01*
X0152782Y0096709D02*
X0153727Y0096709D01*
X0153727Y0096671D02*
X0152782Y0096671D01*
X0152782Y0096633D02*
X0153727Y0096633D01*
X0153727Y0096595D02*
X0152782Y0096595D01*
X0152782Y0096557D02*
X0153727Y0096557D01*
X0153727Y0096519D02*
X0152782Y0096519D01*
X0152782Y0096482D02*
X0153727Y0096482D01*
X0153727Y0096444D02*
X0152782Y0096444D01*
X0152782Y0096406D02*
X0153727Y0096406D01*
X0153727Y0096368D02*
X0152782Y0096368D01*
X0152782Y0096330D02*
X0153727Y0096330D01*
X0153727Y0096292D02*
X0152782Y0096292D01*
X0152782Y0096254D02*
X0153727Y0096254D01*
X0153727Y0096216D02*
X0152782Y0096216D01*
X0152782Y0096179D02*
X0153727Y0096179D01*
X0153727Y0096141D02*
X0152782Y0096141D01*
X0152782Y0096103D02*
X0153727Y0096103D01*
X0153727Y0096065D02*
X0152782Y0096065D01*
X0152782Y0096027D02*
X0153727Y0096027D01*
X0153727Y0095989D02*
X0152782Y0095989D01*
X0152782Y0095951D02*
X0153727Y0095951D01*
X0153727Y0095913D02*
X0152782Y0095913D01*
X0152782Y0095875D02*
X0153727Y0095875D01*
X0153727Y0095838D02*
X0152782Y0095838D01*
X0152782Y0095800D02*
X0153727Y0095800D01*
X0153727Y0095762D02*
X0152782Y0095762D01*
X0152782Y0095724D02*
X0153727Y0095724D01*
X0153727Y0095686D02*
X0152782Y0095686D01*
X0152782Y0095648D02*
X0153727Y0095648D01*
X0153727Y0095610D02*
X0152782Y0095610D01*
X0152782Y0095572D02*
X0153727Y0095572D01*
X0153727Y0095535D02*
X0152782Y0095535D01*
X0152782Y0095497D02*
X0153727Y0095497D01*
X0153727Y0095459D02*
X0152782Y0095459D01*
X0152782Y0095421D02*
X0153727Y0095421D01*
X0153727Y0095383D02*
X0152782Y0095383D01*
X0152782Y0095345D02*
X0153727Y0095345D01*
X0153727Y0095307D02*
X0152782Y0095307D01*
X0152782Y0095269D02*
X0153727Y0095269D01*
X0153727Y0095232D02*
X0152782Y0095232D01*
X0151759Y0095232D02*
X0150814Y0095232D01*
X0150814Y0095197D02*
X0150814Y0098268D01*
X0151759Y0098268D01*
X0151759Y0095197D01*
X0150814Y0095197D01*
X0150814Y0095269D02*
X0151759Y0095269D01*
X0151759Y0095307D02*
X0150814Y0095307D01*
X0150814Y0095345D02*
X0151759Y0095345D01*
X0151759Y0095383D02*
X0150814Y0095383D01*
X0150814Y0095421D02*
X0151759Y0095421D01*
X0151759Y0095459D02*
X0150814Y0095459D01*
X0150814Y0095497D02*
X0151759Y0095497D01*
X0151759Y0095535D02*
X0150814Y0095535D01*
X0150814Y0095572D02*
X0151759Y0095572D01*
X0151759Y0095610D02*
X0150814Y0095610D01*
X0150814Y0095648D02*
X0151759Y0095648D01*
X0151759Y0095686D02*
X0150814Y0095686D01*
X0150814Y0095724D02*
X0151759Y0095724D01*
X0151759Y0095762D02*
X0150814Y0095762D01*
X0150814Y0095800D02*
X0151759Y0095800D01*
X0151759Y0095838D02*
X0150814Y0095838D01*
X0150814Y0095875D02*
X0151759Y0095875D01*
X0151759Y0095913D02*
X0150814Y0095913D01*
X0150814Y0095951D02*
X0151759Y0095951D01*
X0151759Y0095989D02*
X0150814Y0095989D01*
X0150814Y0096027D02*
X0151759Y0096027D01*
X0151759Y0096065D02*
X0150814Y0096065D01*
X0150814Y0096103D02*
X0151759Y0096103D01*
X0151759Y0096141D02*
X0150814Y0096141D01*
X0150814Y0096179D02*
X0151759Y0096179D01*
X0151759Y0096216D02*
X0150814Y0096216D01*
X0150814Y0096254D02*
X0151759Y0096254D01*
X0151759Y0096292D02*
X0150814Y0096292D01*
X0150814Y0096330D02*
X0151759Y0096330D01*
X0151759Y0096368D02*
X0150814Y0096368D01*
X0150814Y0096406D02*
X0151759Y0096406D01*
X0151759Y0096444D02*
X0150814Y0096444D01*
X0150814Y0096482D02*
X0151759Y0096482D01*
X0151759Y0096519D02*
X0150814Y0096519D01*
X0150814Y0096557D02*
X0151759Y0096557D01*
X0151759Y0096595D02*
X0150814Y0096595D01*
X0150814Y0096633D02*
X0151759Y0096633D01*
X0151759Y0096671D02*
X0150814Y0096671D01*
X0150814Y0096709D02*
X0151759Y0096709D01*
X0151759Y0096747D02*
X0150814Y0096747D01*
X0150814Y0096785D02*
X0151759Y0096785D01*
X0151759Y0096823D02*
X0150814Y0096823D01*
X0150814Y0096860D02*
X0151759Y0096860D01*
X0151759Y0096898D02*
X0150814Y0096898D01*
X0150814Y0096936D02*
X0151759Y0096936D01*
X0151759Y0096974D02*
X0150814Y0096974D01*
X0150814Y0097012D02*
X0151759Y0097012D01*
X0151759Y0097050D02*
X0150814Y0097050D01*
X0150814Y0097088D02*
X0151759Y0097088D01*
X0151759Y0097126D02*
X0150814Y0097126D01*
X0150814Y0097163D02*
X0151759Y0097163D01*
X0151759Y0097201D02*
X0150814Y0097201D01*
X0150814Y0097239D02*
X0151759Y0097239D01*
X0151759Y0097277D02*
X0150814Y0097277D01*
X0150814Y0097315D02*
X0151759Y0097315D01*
X0151759Y0097353D02*
X0150814Y0097353D01*
X0150814Y0097391D02*
X0151759Y0097391D01*
X0151759Y0097429D02*
X0150814Y0097429D01*
X0150814Y0097467D02*
X0151759Y0097467D01*
X0151759Y0097504D02*
X0150814Y0097504D01*
X0150814Y0097542D02*
X0151759Y0097542D01*
X0151759Y0097580D02*
X0150814Y0097580D01*
X0150814Y0097618D02*
X0151759Y0097618D01*
X0151759Y0097656D02*
X0150814Y0097656D01*
X0150814Y0097694D02*
X0151759Y0097694D01*
X0151759Y0097732D02*
X0150814Y0097732D01*
X0150814Y0097770D02*
X0151759Y0097770D01*
X0151759Y0097807D02*
X0150814Y0097807D01*
X0150814Y0097845D02*
X0151759Y0097845D01*
X0151759Y0097883D02*
X0150814Y0097883D01*
X0150814Y0097921D02*
X0151759Y0097921D01*
X0151759Y0097959D02*
X0150814Y0097959D01*
X0150814Y0097997D02*
X0151759Y0097997D01*
X0151759Y0098035D02*
X0150814Y0098035D01*
X0150814Y0098073D02*
X0151759Y0098073D01*
X0151759Y0098110D02*
X0150814Y0098110D01*
X0150814Y0098148D02*
X0151759Y0098148D01*
X0151759Y0098186D02*
X0150814Y0098186D01*
X0150814Y0098224D02*
X0151759Y0098224D01*
X0151759Y0098262D02*
X0150814Y0098262D01*
X0149790Y0098262D02*
X0148845Y0098262D01*
X0148845Y0098268D02*
X0149790Y0098268D01*
X0149790Y0095197D01*
X0148845Y0095197D01*
X0148845Y0098268D01*
X0148845Y0098224D02*
X0149790Y0098224D01*
X0149790Y0098186D02*
X0148845Y0098186D01*
X0148845Y0098148D02*
X0149790Y0098148D01*
X0149790Y0098110D02*
X0148845Y0098110D01*
X0148845Y0098073D02*
X0149790Y0098073D01*
X0149790Y0098035D02*
X0148845Y0098035D01*
X0148845Y0097997D02*
X0149790Y0097997D01*
X0149790Y0097959D02*
X0148845Y0097959D01*
X0148845Y0097921D02*
X0149790Y0097921D01*
X0149790Y0097883D02*
X0148845Y0097883D01*
X0148845Y0097845D02*
X0149790Y0097845D01*
X0149790Y0097807D02*
X0148845Y0097807D01*
X0148845Y0097770D02*
X0149790Y0097770D01*
X0149790Y0097732D02*
X0148845Y0097732D01*
X0148845Y0097694D02*
X0149790Y0097694D01*
X0149790Y0097656D02*
X0148845Y0097656D01*
X0148845Y0097618D02*
X0149790Y0097618D01*
X0149790Y0097580D02*
X0148845Y0097580D01*
X0148845Y0097542D02*
X0149790Y0097542D01*
X0149790Y0097504D02*
X0148845Y0097504D01*
X0148845Y0097467D02*
X0149790Y0097467D01*
X0149790Y0097429D02*
X0148845Y0097429D01*
X0148845Y0097391D02*
X0149790Y0097391D01*
X0149790Y0097353D02*
X0148845Y0097353D01*
X0148845Y0097315D02*
X0149790Y0097315D01*
X0149790Y0097277D02*
X0148845Y0097277D01*
X0148845Y0097239D02*
X0149790Y0097239D01*
X0149790Y0097201D02*
X0148845Y0097201D01*
X0148845Y0097163D02*
X0149790Y0097163D01*
X0149790Y0097126D02*
X0148845Y0097126D01*
X0148845Y0097088D02*
X0149790Y0097088D01*
X0149790Y0097050D02*
X0148845Y0097050D01*
X0148845Y0097012D02*
X0149790Y0097012D01*
X0149790Y0096974D02*
X0148845Y0096974D01*
X0148845Y0096936D02*
X0149790Y0096936D01*
X0149790Y0096898D02*
X0148845Y0096898D01*
X0148845Y0096860D02*
X0149790Y0096860D01*
X0149790Y0096823D02*
X0148845Y0096823D01*
X0148845Y0096785D02*
X0149790Y0096785D01*
X0149790Y0096747D02*
X0148845Y0096747D01*
X0148845Y0096709D02*
X0149790Y0096709D01*
X0149790Y0096671D02*
X0148845Y0096671D01*
X0148845Y0096633D02*
X0149790Y0096633D01*
X0149790Y0096595D02*
X0148845Y0096595D01*
X0148845Y0096557D02*
X0149790Y0096557D01*
X0149790Y0096519D02*
X0148845Y0096519D01*
X0148845Y0096482D02*
X0149790Y0096482D01*
X0149790Y0096444D02*
X0148845Y0096444D01*
X0148845Y0096406D02*
X0149790Y0096406D01*
X0149790Y0096368D02*
X0148845Y0096368D01*
X0148845Y0096330D02*
X0149790Y0096330D01*
X0149790Y0096292D02*
X0148845Y0096292D01*
X0148845Y0096254D02*
X0149790Y0096254D01*
X0149790Y0096216D02*
X0148845Y0096216D01*
X0148845Y0096179D02*
X0149790Y0096179D01*
X0149790Y0096141D02*
X0148845Y0096141D01*
X0148845Y0096103D02*
X0149790Y0096103D01*
X0149790Y0096065D02*
X0148845Y0096065D01*
X0148845Y0096027D02*
X0149790Y0096027D01*
X0149790Y0095989D02*
X0148845Y0095989D01*
X0148845Y0095951D02*
X0149790Y0095951D01*
X0149790Y0095913D02*
X0148845Y0095913D01*
X0148845Y0095875D02*
X0149790Y0095875D01*
X0149790Y0095838D02*
X0148845Y0095838D01*
X0148845Y0095800D02*
X0149790Y0095800D01*
X0149790Y0095762D02*
X0148845Y0095762D01*
X0148845Y0095724D02*
X0149790Y0095724D01*
X0149790Y0095686D02*
X0148845Y0095686D01*
X0148845Y0095648D02*
X0149790Y0095648D01*
X0149790Y0095610D02*
X0148845Y0095610D01*
X0148845Y0095572D02*
X0149790Y0095572D01*
X0149790Y0095535D02*
X0148845Y0095535D01*
X0148845Y0095497D02*
X0149790Y0095497D01*
X0149790Y0095459D02*
X0148845Y0095459D01*
X0148845Y0095421D02*
X0149790Y0095421D01*
X0149790Y0095383D02*
X0148845Y0095383D01*
X0148845Y0095345D02*
X0149790Y0095345D01*
X0149790Y0095307D02*
X0148845Y0095307D01*
X0148845Y0095269D02*
X0149790Y0095269D01*
X0149790Y0095232D02*
X0148845Y0095232D01*
X0147822Y0095232D02*
X0146877Y0095232D01*
X0146877Y0095197D02*
X0146877Y0098268D01*
X0147822Y0098268D01*
X0147822Y0095197D01*
X0146877Y0095197D01*
X0146877Y0095269D02*
X0147822Y0095269D01*
X0147822Y0095307D02*
X0146877Y0095307D01*
X0146877Y0095345D02*
X0147822Y0095345D01*
X0147822Y0095383D02*
X0146877Y0095383D01*
X0146877Y0095421D02*
X0147822Y0095421D01*
X0147822Y0095459D02*
X0146877Y0095459D01*
X0146877Y0095497D02*
X0147822Y0095497D01*
X0147822Y0095535D02*
X0146877Y0095535D01*
X0146877Y0095572D02*
X0147822Y0095572D01*
X0147822Y0095610D02*
X0146877Y0095610D01*
X0146877Y0095648D02*
X0147822Y0095648D01*
X0147822Y0095686D02*
X0146877Y0095686D01*
X0146877Y0095724D02*
X0147822Y0095724D01*
X0147822Y0095762D02*
X0146877Y0095762D01*
X0146877Y0095800D02*
X0147822Y0095800D01*
X0147822Y0095838D02*
X0146877Y0095838D01*
X0146877Y0095875D02*
X0147822Y0095875D01*
X0147822Y0095913D02*
X0146877Y0095913D01*
X0146877Y0095951D02*
X0147822Y0095951D01*
X0147822Y0095989D02*
X0146877Y0095989D01*
X0146877Y0096027D02*
X0147822Y0096027D01*
X0147822Y0096065D02*
X0146877Y0096065D01*
X0146877Y0096103D02*
X0147822Y0096103D01*
X0147822Y0096141D02*
X0146877Y0096141D01*
X0146877Y0096179D02*
X0147822Y0096179D01*
X0147822Y0096216D02*
X0146877Y0096216D01*
X0146877Y0096254D02*
X0147822Y0096254D01*
X0147822Y0096292D02*
X0146877Y0096292D01*
X0146877Y0096330D02*
X0147822Y0096330D01*
X0147822Y0096368D02*
X0146877Y0096368D01*
X0146877Y0096406D02*
X0147822Y0096406D01*
X0147822Y0096444D02*
X0146877Y0096444D01*
X0146877Y0096482D02*
X0147822Y0096482D01*
X0147822Y0096519D02*
X0146877Y0096519D01*
X0146877Y0096557D02*
X0147822Y0096557D01*
X0147822Y0096595D02*
X0146877Y0096595D01*
X0146877Y0096633D02*
X0147822Y0096633D01*
X0147822Y0096671D02*
X0146877Y0096671D01*
X0146877Y0096709D02*
X0147822Y0096709D01*
X0147822Y0096747D02*
X0146877Y0096747D01*
X0146877Y0096785D02*
X0147822Y0096785D01*
X0147822Y0096823D02*
X0146877Y0096823D01*
X0146877Y0096860D02*
X0147822Y0096860D01*
X0147822Y0096898D02*
X0146877Y0096898D01*
X0146877Y0096936D02*
X0147822Y0096936D01*
X0147822Y0096974D02*
X0146877Y0096974D01*
X0146877Y0097012D02*
X0147822Y0097012D01*
X0147822Y0097050D02*
X0146877Y0097050D01*
X0146877Y0097088D02*
X0147822Y0097088D01*
X0147822Y0097126D02*
X0146877Y0097126D01*
X0146877Y0097163D02*
X0147822Y0097163D01*
X0147822Y0097201D02*
X0146877Y0097201D01*
X0146877Y0097239D02*
X0147822Y0097239D01*
X0147822Y0097277D02*
X0146877Y0097277D01*
X0146877Y0097315D02*
X0147822Y0097315D01*
X0147822Y0097353D02*
X0146877Y0097353D01*
X0146877Y0097391D02*
X0147822Y0097391D01*
X0147822Y0097429D02*
X0146877Y0097429D01*
X0146877Y0097467D02*
X0147822Y0097467D01*
X0147822Y0097504D02*
X0146877Y0097504D01*
X0146877Y0097542D02*
X0147822Y0097542D01*
X0147822Y0097580D02*
X0146877Y0097580D01*
X0146877Y0097618D02*
X0147822Y0097618D01*
X0147822Y0097656D02*
X0146877Y0097656D01*
X0146877Y0097694D02*
X0147822Y0097694D01*
X0147822Y0097732D02*
X0146877Y0097732D01*
X0146877Y0097770D02*
X0147822Y0097770D01*
X0147822Y0097807D02*
X0146877Y0097807D01*
X0146877Y0097845D02*
X0147822Y0097845D01*
X0147822Y0097883D02*
X0146877Y0097883D01*
X0146877Y0097921D02*
X0147822Y0097921D01*
X0147822Y0097959D02*
X0146877Y0097959D01*
X0146877Y0097997D02*
X0147822Y0097997D01*
X0147822Y0098035D02*
X0146877Y0098035D01*
X0146877Y0098073D02*
X0147822Y0098073D01*
X0147822Y0098110D02*
X0146877Y0098110D01*
X0146877Y0098148D02*
X0147822Y0098148D01*
X0147822Y0098186D02*
X0146877Y0098186D01*
X0146877Y0098224D02*
X0147822Y0098224D01*
X0147822Y0098262D02*
X0146877Y0098262D01*
X0145853Y0098262D02*
X0144908Y0098262D01*
X0144908Y0098268D02*
X0145853Y0098268D01*
X0145853Y0095197D01*
X0144908Y0095197D01*
X0144908Y0098268D01*
X0144908Y0098224D02*
X0145853Y0098224D01*
X0145853Y0098186D02*
X0144908Y0098186D01*
X0144908Y0098148D02*
X0145853Y0098148D01*
X0145853Y0098110D02*
X0144908Y0098110D01*
X0144908Y0098073D02*
X0145853Y0098073D01*
X0145853Y0098035D02*
X0144908Y0098035D01*
X0144908Y0097997D02*
X0145853Y0097997D01*
X0145853Y0097959D02*
X0144908Y0097959D01*
X0144908Y0097921D02*
X0145853Y0097921D01*
X0145853Y0097883D02*
X0144908Y0097883D01*
X0144908Y0097845D02*
X0145853Y0097845D01*
X0145853Y0097807D02*
X0144908Y0097807D01*
X0144908Y0097770D02*
X0145853Y0097770D01*
X0145853Y0097732D02*
X0144908Y0097732D01*
X0144908Y0097694D02*
X0145853Y0097694D01*
X0145853Y0097656D02*
X0144908Y0097656D01*
X0144908Y0097618D02*
X0145853Y0097618D01*
X0145853Y0097580D02*
X0144908Y0097580D01*
X0144908Y0097542D02*
X0145853Y0097542D01*
X0145853Y0097504D02*
X0144908Y0097504D01*
X0144908Y0097467D02*
X0145853Y0097467D01*
X0145853Y0097429D02*
X0144908Y0097429D01*
X0144908Y0097391D02*
X0145853Y0097391D01*
X0145853Y0097353D02*
X0144908Y0097353D01*
X0144908Y0097315D02*
X0145853Y0097315D01*
X0145853Y0097277D02*
X0144908Y0097277D01*
X0144908Y0097239D02*
X0145853Y0097239D01*
X0145853Y0097201D02*
X0144908Y0097201D01*
X0144908Y0097163D02*
X0145853Y0097163D01*
X0145853Y0097126D02*
X0144908Y0097126D01*
X0144908Y0097088D02*
X0145853Y0097088D01*
X0145853Y0097050D02*
X0144908Y0097050D01*
X0144908Y0097012D02*
X0145853Y0097012D01*
X0145853Y0096974D02*
X0144908Y0096974D01*
X0144908Y0096936D02*
X0145853Y0096936D01*
X0145853Y0096898D02*
X0144908Y0096898D01*
X0144908Y0096860D02*
X0145853Y0096860D01*
X0145853Y0096823D02*
X0144908Y0096823D01*
X0144908Y0096785D02*
X0145853Y0096785D01*
X0145853Y0096747D02*
X0144908Y0096747D01*
X0144908Y0096709D02*
X0145853Y0096709D01*
X0145853Y0096671D02*
X0144908Y0096671D01*
X0144908Y0096633D02*
X0145853Y0096633D01*
X0145853Y0096595D02*
X0144908Y0096595D01*
X0144908Y0096557D02*
X0145853Y0096557D01*
X0145853Y0096519D02*
X0144908Y0096519D01*
X0144908Y0096482D02*
X0145853Y0096482D01*
X0145853Y0096444D02*
X0144908Y0096444D01*
X0144908Y0096406D02*
X0145853Y0096406D01*
X0145853Y0096368D02*
X0144908Y0096368D01*
X0144908Y0096330D02*
X0145853Y0096330D01*
X0145853Y0096292D02*
X0144908Y0096292D01*
X0144908Y0096254D02*
X0145853Y0096254D01*
X0145853Y0096216D02*
X0144908Y0096216D01*
X0144908Y0096179D02*
X0145853Y0096179D01*
X0145853Y0096141D02*
X0144908Y0096141D01*
X0144908Y0096103D02*
X0145853Y0096103D01*
X0145853Y0096065D02*
X0144908Y0096065D01*
X0144908Y0096027D02*
X0145853Y0096027D01*
X0145853Y0095989D02*
X0144908Y0095989D01*
X0144908Y0095951D02*
X0145853Y0095951D01*
X0145853Y0095913D02*
X0144908Y0095913D01*
X0144908Y0095875D02*
X0145853Y0095875D01*
X0145853Y0095838D02*
X0144908Y0095838D01*
X0144908Y0095800D02*
X0145853Y0095800D01*
X0145853Y0095762D02*
X0144908Y0095762D01*
X0144908Y0095724D02*
X0145853Y0095724D01*
X0145853Y0095686D02*
X0144908Y0095686D01*
X0144908Y0095648D02*
X0145853Y0095648D01*
X0145853Y0095610D02*
X0144908Y0095610D01*
X0144908Y0095572D02*
X0145853Y0095572D01*
X0145853Y0095535D02*
X0144908Y0095535D01*
X0144908Y0095497D02*
X0145853Y0095497D01*
X0145853Y0095459D02*
X0144908Y0095459D01*
X0144908Y0095421D02*
X0145853Y0095421D01*
X0145853Y0095383D02*
X0144908Y0095383D01*
X0144908Y0095345D02*
X0145853Y0095345D01*
X0145853Y0095307D02*
X0144908Y0095307D01*
X0144908Y0095269D02*
X0145853Y0095269D01*
X0145853Y0095232D02*
X0144908Y0095232D01*
X0143885Y0095232D02*
X0142940Y0095232D01*
X0142940Y0095197D02*
X0142940Y0098268D01*
X0143885Y0098268D01*
X0143885Y0095197D01*
X0142940Y0095197D01*
X0142940Y0095269D02*
X0143885Y0095269D01*
X0143885Y0095307D02*
X0142940Y0095307D01*
X0142940Y0095345D02*
X0143885Y0095345D01*
X0143885Y0095383D02*
X0142940Y0095383D01*
X0142940Y0095421D02*
X0143885Y0095421D01*
X0143885Y0095459D02*
X0142940Y0095459D01*
X0142940Y0095497D02*
X0143885Y0095497D01*
X0143885Y0095535D02*
X0142940Y0095535D01*
X0142940Y0095572D02*
X0143885Y0095572D01*
X0143885Y0095610D02*
X0142940Y0095610D01*
X0142940Y0095648D02*
X0143885Y0095648D01*
X0143885Y0095686D02*
X0142940Y0095686D01*
X0142940Y0095724D02*
X0143885Y0095724D01*
X0143885Y0095762D02*
X0142940Y0095762D01*
X0142940Y0095800D02*
X0143885Y0095800D01*
X0143885Y0095838D02*
X0142940Y0095838D01*
X0142940Y0095875D02*
X0143885Y0095875D01*
X0143885Y0095913D02*
X0142940Y0095913D01*
X0142940Y0095951D02*
X0143885Y0095951D01*
X0143885Y0095989D02*
X0142940Y0095989D01*
X0142940Y0096027D02*
X0143885Y0096027D01*
X0143885Y0096065D02*
X0142940Y0096065D01*
X0142940Y0096103D02*
X0143885Y0096103D01*
X0143885Y0096141D02*
X0142940Y0096141D01*
X0142940Y0096179D02*
X0143885Y0096179D01*
X0143885Y0096216D02*
X0142940Y0096216D01*
X0142940Y0096254D02*
X0143885Y0096254D01*
X0143885Y0096292D02*
X0142940Y0096292D01*
X0142940Y0096330D02*
X0143885Y0096330D01*
X0143885Y0096368D02*
X0142940Y0096368D01*
X0142940Y0096406D02*
X0143885Y0096406D01*
X0143885Y0096444D02*
X0142940Y0096444D01*
X0142940Y0096482D02*
X0143885Y0096482D01*
X0143885Y0096519D02*
X0142940Y0096519D01*
X0142940Y0096557D02*
X0143885Y0096557D01*
X0143885Y0096595D02*
X0142940Y0096595D01*
X0142940Y0096633D02*
X0143885Y0096633D01*
X0143885Y0096671D02*
X0142940Y0096671D01*
X0142940Y0096709D02*
X0143885Y0096709D01*
X0143885Y0096747D02*
X0142940Y0096747D01*
X0142940Y0096785D02*
X0143885Y0096785D01*
X0143885Y0096823D02*
X0142940Y0096823D01*
X0142940Y0096860D02*
X0143885Y0096860D01*
X0143885Y0096898D02*
X0142940Y0096898D01*
X0142940Y0096936D02*
X0143885Y0096936D01*
X0143885Y0096974D02*
X0142940Y0096974D01*
X0142940Y0097012D02*
X0143885Y0097012D01*
X0143885Y0097050D02*
X0142940Y0097050D01*
X0142940Y0097088D02*
X0143885Y0097088D01*
X0143885Y0097126D02*
X0142940Y0097126D01*
X0142940Y0097163D02*
X0143885Y0097163D01*
X0143885Y0097201D02*
X0142940Y0097201D01*
X0142940Y0097239D02*
X0143885Y0097239D01*
X0143885Y0097277D02*
X0142940Y0097277D01*
X0142940Y0097315D02*
X0143885Y0097315D01*
X0143885Y0097353D02*
X0142940Y0097353D01*
X0142940Y0097391D02*
X0143885Y0097391D01*
X0143885Y0097429D02*
X0142940Y0097429D01*
X0142940Y0097467D02*
X0143885Y0097467D01*
X0143885Y0097504D02*
X0142940Y0097504D01*
X0142940Y0097542D02*
X0143885Y0097542D01*
X0143885Y0097580D02*
X0142940Y0097580D01*
X0142940Y0097618D02*
X0143885Y0097618D01*
X0143885Y0097656D02*
X0142940Y0097656D01*
X0142940Y0097694D02*
X0143885Y0097694D01*
X0143885Y0097732D02*
X0142940Y0097732D01*
X0142940Y0097770D02*
X0143885Y0097770D01*
X0143885Y0097807D02*
X0142940Y0097807D01*
X0142940Y0097845D02*
X0143885Y0097845D01*
X0143885Y0097883D02*
X0142940Y0097883D01*
X0142940Y0097921D02*
X0143885Y0097921D01*
X0143885Y0097959D02*
X0142940Y0097959D01*
X0142940Y0097997D02*
X0143885Y0097997D01*
X0143885Y0098035D02*
X0142940Y0098035D01*
X0142940Y0098073D02*
X0143885Y0098073D01*
X0143885Y0098110D02*
X0142940Y0098110D01*
X0142940Y0098148D02*
X0143885Y0098148D01*
X0143885Y0098186D02*
X0142940Y0098186D01*
X0142940Y0098224D02*
X0143885Y0098224D01*
X0143885Y0098262D02*
X0142940Y0098262D01*
X0047283Y0111787D02*
X0047171Y0111355D01*
X0046976Y0110954D01*
X0046706Y0110599D01*
X0046373Y0110302D01*
X0045988Y0110077D01*
X0045567Y0109931D01*
X0045125Y0109870D01*
X0040400Y0109870D01*
X0039901Y0109951D01*
X0039433Y0110140D01*
X0039019Y0110429D01*
X0038679Y0110803D01*
X0038431Y0111244D01*
X0038287Y0111728D01*
X0038255Y0112232D01*
X0038287Y0112737D01*
X0038431Y0113221D01*
X0038679Y0113661D01*
X0039019Y0114035D01*
X0039433Y0114324D01*
X0039901Y0114514D01*
X0040400Y0114594D01*
X0045125Y0114594D01*
X0045567Y0114534D01*
X0045988Y0114388D01*
X0046373Y0114162D01*
X0046706Y0113866D01*
X0046976Y0113510D01*
X0047171Y0113109D01*
X0047283Y0112678D01*
X0047310Y0112232D01*
X0047283Y0111787D01*
X0047283Y0111786D02*
X0038283Y0111786D01*
X0038281Y0111824D02*
X0047285Y0111824D01*
X0047288Y0111861D02*
X0038278Y0111861D01*
X0038276Y0111899D02*
X0047290Y0111899D01*
X0047292Y0111937D02*
X0038274Y0111937D01*
X0038271Y0111975D02*
X0047294Y0111975D01*
X0047297Y0112013D02*
X0038269Y0112013D01*
X0038266Y0112051D02*
X0047299Y0112051D01*
X0047301Y0112089D02*
X0038264Y0112089D01*
X0038261Y0112127D02*
X0047303Y0112127D01*
X0047306Y0112164D02*
X0038259Y0112164D01*
X0038257Y0112202D02*
X0047308Y0112202D01*
X0047309Y0112240D02*
X0038255Y0112240D01*
X0038258Y0112278D02*
X0047307Y0112278D01*
X0047305Y0112316D02*
X0038260Y0112316D01*
X0038262Y0112354D02*
X0047302Y0112354D01*
X0047300Y0112392D02*
X0038265Y0112392D01*
X0038267Y0112430D02*
X0047298Y0112430D01*
X0047296Y0112468D02*
X0038270Y0112468D01*
X0038272Y0112505D02*
X0047294Y0112505D01*
X0047291Y0112543D02*
X0038275Y0112543D01*
X0038277Y0112581D02*
X0047289Y0112581D01*
X0047287Y0112619D02*
X0038279Y0112619D01*
X0038282Y0112657D02*
X0047285Y0112657D01*
X0047279Y0112695D02*
X0038284Y0112695D01*
X0038287Y0112733D02*
X0047269Y0112733D01*
X0047259Y0112771D02*
X0038297Y0112771D01*
X0038308Y0112808D02*
X0047249Y0112808D01*
X0047239Y0112846D02*
X0038320Y0112846D01*
X0038331Y0112884D02*
X0047229Y0112884D01*
X0047219Y0112922D02*
X0038342Y0112922D01*
X0038353Y0112960D02*
X0047209Y0112960D01*
X0047200Y0112998D02*
X0038365Y0112998D01*
X0038376Y0113036D02*
X0047190Y0113036D01*
X0047180Y0113074D02*
X0038387Y0113074D01*
X0038398Y0113112D02*
X0047169Y0113112D01*
X0047151Y0113149D02*
X0038410Y0113149D01*
X0038421Y0113187D02*
X0047133Y0113187D01*
X0047114Y0113225D02*
X0038433Y0113225D01*
X0038455Y0113263D02*
X0047096Y0113263D01*
X0047077Y0113301D02*
X0038476Y0113301D01*
X0038497Y0113339D02*
X0047059Y0113339D01*
X0047041Y0113377D02*
X0038519Y0113377D01*
X0038540Y0113415D02*
X0047022Y0113415D01*
X0047004Y0113452D02*
X0038561Y0113452D01*
X0038583Y0113490D02*
X0046985Y0113490D01*
X0046962Y0113528D02*
X0038604Y0113528D01*
X0038625Y0113566D02*
X0046934Y0113566D01*
X0046905Y0113604D02*
X0038647Y0113604D01*
X0038668Y0113642D02*
X0046876Y0113642D01*
X0046847Y0113680D02*
X0038696Y0113680D01*
X0038730Y0113718D02*
X0046819Y0113718D01*
X0046790Y0113756D02*
X0038764Y0113756D01*
X0038799Y0113793D02*
X0046761Y0113793D01*
X0046733Y0113831D02*
X0038833Y0113831D01*
X0038868Y0113869D02*
X0046703Y0113869D01*
X0046660Y0113907D02*
X0038902Y0113907D01*
X0038937Y0113945D02*
X0046617Y0113945D01*
X0046575Y0113983D02*
X0038971Y0113983D01*
X0039005Y0114021D02*
X0046532Y0114021D01*
X0046489Y0114059D02*
X0039052Y0114059D01*
X0039106Y0114096D02*
X0046447Y0114096D01*
X0046404Y0114134D02*
X0039161Y0114134D01*
X0039215Y0114172D02*
X0046356Y0114172D01*
X0046291Y0114210D02*
X0039269Y0114210D01*
X0039324Y0114248D02*
X0046226Y0114248D01*
X0046162Y0114286D02*
X0039378Y0114286D01*
X0039432Y0114324D02*
X0046097Y0114324D01*
X0046032Y0114362D02*
X0039525Y0114362D01*
X0039619Y0114399D02*
X0045953Y0114399D01*
X0045844Y0114437D02*
X0039712Y0114437D01*
X0039806Y0114475D02*
X0045735Y0114475D01*
X0045625Y0114513D02*
X0039900Y0114513D01*
X0040131Y0114551D02*
X0045440Y0114551D01*
X0045165Y0114589D02*
X0040366Y0114589D01*
X0038286Y0111748D02*
X0047273Y0111748D01*
X0047263Y0111710D02*
X0038292Y0111710D01*
X0038304Y0111672D02*
X0047253Y0111672D01*
X0047243Y0111634D02*
X0038315Y0111634D01*
X0038326Y0111596D02*
X0047233Y0111596D01*
X0047224Y0111558D02*
X0038337Y0111558D01*
X0038349Y0111521D02*
X0047214Y0111521D01*
X0047204Y0111483D02*
X0038360Y0111483D01*
X0038371Y0111445D02*
X0047194Y0111445D01*
X0047184Y0111407D02*
X0038382Y0111407D01*
X0038394Y0111369D02*
X0047174Y0111369D01*
X0047159Y0111331D02*
X0038405Y0111331D01*
X0038416Y0111293D02*
X0047140Y0111293D01*
X0047122Y0111255D02*
X0038427Y0111255D01*
X0038446Y0111217D02*
X0047104Y0111217D01*
X0047085Y0111180D02*
X0038467Y0111180D01*
X0038488Y0111142D02*
X0047067Y0111142D01*
X0047048Y0111104D02*
X0038510Y0111104D01*
X0038531Y0111066D02*
X0047030Y0111066D01*
X0047012Y0111028D02*
X0038552Y0111028D01*
X0038574Y0110990D02*
X0046993Y0110990D01*
X0046974Y0110952D02*
X0038595Y0110952D01*
X0038616Y0110914D02*
X0046946Y0110914D01*
X0046917Y0110877D02*
X0038638Y0110877D01*
X0038659Y0110839D02*
X0046888Y0110839D01*
X0046860Y0110801D02*
X0038681Y0110801D01*
X0038716Y0110763D02*
X0046831Y0110763D01*
X0046802Y0110725D02*
X0038750Y0110725D01*
X0038784Y0110687D02*
X0046773Y0110687D01*
X0046745Y0110649D02*
X0038819Y0110649D01*
X0038853Y0110611D02*
X0046716Y0110611D01*
X0046678Y0110573D02*
X0038888Y0110573D01*
X0038922Y0110536D02*
X0046635Y0110536D01*
X0046593Y0110498D02*
X0038956Y0110498D01*
X0038991Y0110460D02*
X0046550Y0110460D01*
X0046507Y0110422D02*
X0039029Y0110422D01*
X0039083Y0110384D02*
X0046465Y0110384D01*
X0046422Y0110346D02*
X0039138Y0110346D01*
X0039192Y0110308D02*
X0046379Y0110308D01*
X0046318Y0110270D02*
X0039246Y0110270D01*
X0039301Y0110233D02*
X0046254Y0110233D01*
X0046189Y0110195D02*
X0039355Y0110195D01*
X0039409Y0110157D02*
X0046124Y0110157D01*
X0046059Y0110119D02*
X0039486Y0110119D01*
X0039579Y0110081D02*
X0045995Y0110081D01*
X0045890Y0110043D02*
X0039673Y0110043D01*
X0039767Y0110005D02*
X0045781Y0110005D01*
X0045671Y0109967D02*
X0039860Y0109967D01*
X0040033Y0109929D02*
X0045555Y0109929D01*
X0045281Y0109892D02*
X0040267Y0109892D01*
X0029821Y0111770D02*
X0029684Y0111325D01*
X0029464Y0110916D01*
X0029167Y0110558D01*
X0028806Y0110264D01*
X0028395Y0110047D01*
X0027950Y0109914D01*
X0027487Y0109870D01*
X0025125Y0109870D01*
X0024666Y0109917D01*
X0024225Y0110053D01*
X0023819Y0110272D01*
X0023464Y0110566D01*
X0023173Y0110924D01*
X0022957Y0111331D01*
X0022825Y0111773D01*
X0022782Y0112232D01*
X0022839Y0112756D01*
X0023011Y0113254D01*
X0023289Y0113701D01*
X0023660Y0114075D01*
X0024105Y0114357D01*
X0024601Y0114533D01*
X0025125Y0114594D01*
X0027487Y0114594D01*
X0028015Y0114537D01*
X0028517Y0114364D01*
X0028968Y0114083D01*
X0029345Y0113709D01*
X0029630Y0113261D01*
X0029807Y0112760D01*
X0029869Y0112232D01*
X0029821Y0111770D01*
X0029823Y0111786D02*
X0022824Y0111786D01*
X0022821Y0111824D02*
X0029827Y0111824D01*
X0029831Y0111861D02*
X0022817Y0111861D01*
X0022814Y0111899D02*
X0029835Y0111899D01*
X0029838Y0111937D02*
X0022810Y0111937D01*
X0022806Y0111975D02*
X0029842Y0111975D01*
X0029846Y0112013D02*
X0022803Y0112013D01*
X0022799Y0112051D02*
X0029850Y0112051D01*
X0029854Y0112089D02*
X0022796Y0112089D01*
X0022792Y0112127D02*
X0029858Y0112127D01*
X0029862Y0112164D02*
X0022789Y0112164D01*
X0022785Y0112202D02*
X0029866Y0112202D01*
X0029868Y0112240D02*
X0022783Y0112240D01*
X0022787Y0112278D02*
X0029863Y0112278D01*
X0029859Y0112316D02*
X0022791Y0112316D01*
X0022795Y0112354D02*
X0029855Y0112354D01*
X0029850Y0112392D02*
X0022799Y0112392D01*
X0022804Y0112430D02*
X0029846Y0112430D01*
X0029841Y0112468D02*
X0022808Y0112468D01*
X0022812Y0112505D02*
X0029837Y0112505D01*
X0029832Y0112543D02*
X0022816Y0112543D01*
X0022820Y0112581D02*
X0029828Y0112581D01*
X0029824Y0112619D02*
X0022824Y0112619D01*
X0022828Y0112657D02*
X0029819Y0112657D01*
X0029815Y0112695D02*
X0022832Y0112695D01*
X0022836Y0112733D02*
X0029810Y0112733D01*
X0029803Y0112771D02*
X0022844Y0112771D01*
X0022857Y0112808D02*
X0029790Y0112808D01*
X0029776Y0112846D02*
X0022870Y0112846D01*
X0022883Y0112884D02*
X0029763Y0112884D01*
X0029750Y0112922D02*
X0022896Y0112922D01*
X0022909Y0112960D02*
X0029736Y0112960D01*
X0029723Y0112998D02*
X0022922Y0112998D01*
X0022936Y0113036D02*
X0029709Y0113036D01*
X0029696Y0113074D02*
X0022949Y0113074D01*
X0022962Y0113112D02*
X0029682Y0113112D01*
X0029669Y0113149D02*
X0022975Y0113149D01*
X0022988Y0113187D02*
X0029656Y0113187D01*
X0029642Y0113225D02*
X0023001Y0113225D01*
X0023017Y0113263D02*
X0029628Y0113263D01*
X0029604Y0113301D02*
X0023040Y0113301D01*
X0023064Y0113339D02*
X0029580Y0113339D01*
X0029556Y0113377D02*
X0023087Y0113377D01*
X0023111Y0113415D02*
X0029532Y0113415D01*
X0029508Y0113452D02*
X0023134Y0113452D01*
X0023158Y0113490D02*
X0029484Y0113490D01*
X0029460Y0113528D02*
X0023182Y0113528D01*
X0023205Y0113566D02*
X0029436Y0113566D01*
X0029412Y0113604D02*
X0023229Y0113604D01*
X0023252Y0113642D02*
X0029388Y0113642D01*
X0029364Y0113680D02*
X0023276Y0113680D01*
X0023306Y0113718D02*
X0029336Y0113718D01*
X0029298Y0113756D02*
X0023343Y0113756D01*
X0023381Y0113793D02*
X0029260Y0113793D01*
X0029222Y0113831D02*
X0023418Y0113831D01*
X0023456Y0113869D02*
X0029184Y0113869D01*
X0029146Y0113907D02*
X0023493Y0113907D01*
X0023531Y0113945D02*
X0029107Y0113945D01*
X0029069Y0113983D02*
X0023569Y0113983D01*
X0023606Y0114021D02*
X0029031Y0114021D01*
X0028993Y0114059D02*
X0023644Y0114059D01*
X0023694Y0114096D02*
X0028947Y0114096D01*
X0028886Y0114134D02*
X0023753Y0114134D01*
X0023813Y0114172D02*
X0028825Y0114172D01*
X0028764Y0114210D02*
X0023873Y0114210D01*
X0023933Y0114248D02*
X0028703Y0114248D01*
X0028642Y0114286D02*
X0023992Y0114286D01*
X0024052Y0114324D02*
X0028581Y0114324D01*
X0028521Y0114362D02*
X0024117Y0114362D01*
X0024224Y0114399D02*
X0028414Y0114399D01*
X0028304Y0114437D02*
X0024331Y0114437D01*
X0024438Y0114475D02*
X0028194Y0114475D01*
X0028085Y0114513D02*
X0024545Y0114513D01*
X0024753Y0114551D02*
X0027888Y0114551D01*
X0027538Y0114589D02*
X0025077Y0114589D01*
X0022833Y0111748D02*
X0029815Y0111748D01*
X0029803Y0111710D02*
X0022844Y0111710D01*
X0022856Y0111672D02*
X0029791Y0111672D01*
X0029780Y0111634D02*
X0022867Y0111634D01*
X0022878Y0111596D02*
X0029768Y0111596D01*
X0029756Y0111558D02*
X0022890Y0111558D01*
X0022901Y0111521D02*
X0029745Y0111521D01*
X0029733Y0111483D02*
X0022912Y0111483D01*
X0022924Y0111445D02*
X0029721Y0111445D01*
X0029710Y0111407D02*
X0022935Y0111407D01*
X0022946Y0111369D02*
X0029698Y0111369D01*
X0029686Y0111331D02*
X0022958Y0111331D01*
X0022978Y0111293D02*
X0029667Y0111293D01*
X0029647Y0111255D02*
X0022998Y0111255D01*
X0023018Y0111217D02*
X0029626Y0111217D01*
X0029606Y0111180D02*
X0023038Y0111180D01*
X0023058Y0111142D02*
X0029585Y0111142D01*
X0029565Y0111104D02*
X0023078Y0111104D01*
X0023098Y0111066D02*
X0029544Y0111066D01*
X0029524Y0111028D02*
X0023118Y0111028D01*
X0023138Y0110990D02*
X0029504Y0110990D01*
X0029483Y0110952D02*
X0023158Y0110952D01*
X0023181Y0110914D02*
X0029462Y0110914D01*
X0029431Y0110877D02*
X0023212Y0110877D01*
X0023242Y0110839D02*
X0029399Y0110839D01*
X0029368Y0110801D02*
X0023273Y0110801D01*
X0023304Y0110763D02*
X0029337Y0110763D01*
X0029305Y0110725D02*
X0023335Y0110725D01*
X0023366Y0110687D02*
X0029274Y0110687D01*
X0029243Y0110649D02*
X0023396Y0110649D01*
X0023427Y0110611D02*
X0029211Y0110611D01*
X0029180Y0110573D02*
X0023458Y0110573D01*
X0023501Y0110536D02*
X0029140Y0110536D01*
X0029093Y0110498D02*
X0023547Y0110498D01*
X0023592Y0110460D02*
X0029047Y0110460D01*
X0029000Y0110422D02*
X0023638Y0110422D01*
X0023684Y0110384D02*
X0028953Y0110384D01*
X0028907Y0110346D02*
X0023730Y0110346D01*
X0023776Y0110308D02*
X0028860Y0110308D01*
X0028814Y0110270D02*
X0023822Y0110270D01*
X0023892Y0110233D02*
X0028746Y0110233D01*
X0028675Y0110195D02*
X0023963Y0110195D01*
X0024033Y0110157D02*
X0028603Y0110157D01*
X0028531Y0110119D02*
X0024103Y0110119D01*
X0024173Y0110081D02*
X0028460Y0110081D01*
X0028383Y0110043D02*
X0024257Y0110043D01*
X0024380Y0110005D02*
X0028256Y0110005D01*
X0028129Y0109967D02*
X0024503Y0109967D01*
X0024626Y0109929D02*
X0028003Y0109929D01*
X0027715Y0109892D02*
X0024915Y0109892D01*
X0025125Y0143886D02*
X0024666Y0143933D01*
X0024225Y0144069D01*
X0023819Y0144288D01*
X0028816Y0144288D01*
X0028806Y0144280D02*
X0028395Y0144063D01*
X0027950Y0143929D01*
X0027487Y0143886D01*
X0025125Y0143886D01*
X0024898Y0143909D02*
X0027734Y0143909D01*
X0028008Y0143947D02*
X0024620Y0143947D01*
X0024497Y0143985D02*
X0028135Y0143985D01*
X0028262Y0144023D02*
X0024374Y0144023D01*
X0024251Y0144061D02*
X0028389Y0144061D01*
X0028463Y0144099D02*
X0024170Y0144099D01*
X0024100Y0144136D02*
X0028535Y0144136D01*
X0028606Y0144174D02*
X0024030Y0144174D01*
X0023959Y0144212D02*
X0028678Y0144212D01*
X0028750Y0144250D02*
X0023889Y0144250D01*
X0023819Y0144288D02*
X0023464Y0144582D01*
X0023173Y0144939D01*
X0022957Y0145347D01*
X0022825Y0145789D01*
X0022782Y0146248D01*
X0022839Y0146772D01*
X0023011Y0147270D01*
X0023289Y0147717D01*
X0023660Y0148091D01*
X0024105Y0148373D01*
X0024601Y0148549D01*
X0025125Y0148610D01*
X0027487Y0148610D01*
X0028015Y0148553D01*
X0028517Y0148380D01*
X0028968Y0148099D01*
X0029345Y0147725D01*
X0029630Y0147276D01*
X0029807Y0146776D01*
X0029869Y0146248D01*
X0029821Y0145785D01*
X0029684Y0145341D01*
X0029464Y0144932D01*
X0023179Y0144932D01*
X0023157Y0144970D02*
X0029484Y0144970D01*
X0029504Y0145008D02*
X0023137Y0145008D01*
X0023117Y0145046D02*
X0029525Y0145046D01*
X0029545Y0145083D02*
X0023097Y0145083D01*
X0023077Y0145121D02*
X0029566Y0145121D01*
X0029586Y0145159D02*
X0023057Y0145159D01*
X0023037Y0145197D02*
X0029607Y0145197D01*
X0029627Y0145235D02*
X0023017Y0145235D01*
X0022997Y0145273D02*
X0029648Y0145273D01*
X0029668Y0145311D02*
X0022977Y0145311D01*
X0022957Y0145349D02*
X0029687Y0145349D01*
X0029698Y0145386D02*
X0022946Y0145386D01*
X0022934Y0145424D02*
X0029710Y0145424D01*
X0029722Y0145462D02*
X0022923Y0145462D01*
X0022912Y0145500D02*
X0029733Y0145500D01*
X0029745Y0145538D02*
X0022900Y0145538D01*
X0022889Y0145576D02*
X0029757Y0145576D01*
X0029768Y0145614D02*
X0022878Y0145614D01*
X0022866Y0145652D02*
X0029780Y0145652D01*
X0029792Y0145690D02*
X0022855Y0145690D01*
X0022844Y0145727D02*
X0029803Y0145727D01*
X0029815Y0145765D02*
X0022832Y0145765D01*
X0022824Y0145803D02*
X0029823Y0145803D01*
X0029827Y0145841D02*
X0022821Y0145841D01*
X0022817Y0145879D02*
X0029831Y0145879D01*
X0029835Y0145917D02*
X0022813Y0145917D01*
X0022810Y0145955D02*
X0029839Y0145955D01*
X0029843Y0145993D02*
X0022806Y0145993D01*
X0022803Y0146030D02*
X0029846Y0146030D01*
X0029850Y0146068D02*
X0022799Y0146068D01*
X0022796Y0146106D02*
X0029854Y0146106D01*
X0029858Y0146144D02*
X0022792Y0146144D01*
X0022788Y0146182D02*
X0029862Y0146182D01*
X0029866Y0146220D02*
X0022785Y0146220D01*
X0022783Y0146258D02*
X0029868Y0146258D01*
X0029863Y0146296D02*
X0022787Y0146296D01*
X0022791Y0146334D02*
X0029859Y0146334D01*
X0029854Y0146371D02*
X0022796Y0146371D01*
X0022800Y0146409D02*
X0029850Y0146409D01*
X0029845Y0146447D02*
X0022804Y0146447D01*
X0022808Y0146485D02*
X0029841Y0146485D01*
X0029837Y0146523D02*
X0022812Y0146523D01*
X0022816Y0146561D02*
X0029832Y0146561D01*
X0029828Y0146599D02*
X0022820Y0146599D01*
X0022824Y0146637D02*
X0029823Y0146637D01*
X0029819Y0146674D02*
X0022828Y0146674D01*
X0022832Y0146712D02*
X0029814Y0146712D01*
X0029810Y0146750D02*
X0022837Y0146750D01*
X0022845Y0146788D02*
X0029803Y0146788D01*
X0029789Y0146826D02*
X0022858Y0146826D01*
X0022871Y0146864D02*
X0029776Y0146864D01*
X0029762Y0146902D02*
X0022884Y0146902D01*
X0022897Y0146940D02*
X0029749Y0146940D01*
X0029736Y0146977D02*
X0022910Y0146977D01*
X0022923Y0147015D02*
X0029722Y0147015D01*
X0029709Y0147053D02*
X0022936Y0147053D01*
X0022949Y0147091D02*
X0029695Y0147091D01*
X0029682Y0147129D02*
X0022962Y0147129D01*
X0022975Y0147167D02*
X0029668Y0147167D01*
X0029655Y0147205D02*
X0022988Y0147205D01*
X0023002Y0147243D02*
X0029641Y0147243D01*
X0029627Y0147281D02*
X0023018Y0147281D01*
X0023041Y0147318D02*
X0029603Y0147318D01*
X0029579Y0147356D02*
X0023065Y0147356D01*
X0023088Y0147394D02*
X0029555Y0147394D01*
X0029531Y0147432D02*
X0023112Y0147432D01*
X0023136Y0147470D02*
X0029507Y0147470D01*
X0029483Y0147508D02*
X0023159Y0147508D01*
X0023183Y0147546D02*
X0029459Y0147546D01*
X0029435Y0147584D02*
X0023206Y0147584D01*
X0023230Y0147621D02*
X0029411Y0147621D01*
X0029387Y0147659D02*
X0023253Y0147659D01*
X0023277Y0147697D02*
X0029363Y0147697D01*
X0029335Y0147735D02*
X0023307Y0147735D01*
X0023345Y0147773D02*
X0029297Y0147773D01*
X0029258Y0147811D02*
X0023382Y0147811D01*
X0023420Y0147849D02*
X0029220Y0147849D01*
X0029182Y0147887D02*
X0023458Y0147887D01*
X0023495Y0147925D02*
X0029144Y0147925D01*
X0029106Y0147962D02*
X0023533Y0147962D01*
X0023570Y0148000D02*
X0029067Y0148000D01*
X0029029Y0148038D02*
X0023608Y0148038D01*
X0023645Y0148076D02*
X0028991Y0148076D01*
X0028944Y0148114D02*
X0023696Y0148114D01*
X0023756Y0148152D02*
X0028883Y0148152D01*
X0028822Y0148190D02*
X0023816Y0148190D01*
X0023876Y0148228D02*
X0028761Y0148228D01*
X0028700Y0148265D02*
X0023935Y0148265D01*
X0023995Y0148303D02*
X0028640Y0148303D01*
X0028579Y0148341D02*
X0024055Y0148341D01*
X0024122Y0148379D02*
X0028518Y0148379D01*
X0028409Y0148417D02*
X0024229Y0148417D01*
X0024336Y0148455D02*
X0028299Y0148455D01*
X0028189Y0148493D02*
X0024443Y0148493D01*
X0024549Y0148531D02*
X0028080Y0148531D01*
X0027871Y0148569D02*
X0024768Y0148569D01*
X0025092Y0148606D02*
X0027522Y0148606D01*
X0029464Y0144932D02*
X0029167Y0144574D01*
X0028806Y0144280D01*
X0028863Y0144326D02*
X0023773Y0144326D01*
X0023728Y0144364D02*
X0028909Y0144364D01*
X0028956Y0144402D02*
X0023682Y0144402D01*
X0023636Y0144439D02*
X0029002Y0144439D01*
X0029049Y0144477D02*
X0023590Y0144477D01*
X0023545Y0144515D02*
X0029095Y0144515D01*
X0029142Y0144553D02*
X0023499Y0144553D01*
X0023457Y0144591D02*
X0029181Y0144591D01*
X0029213Y0144629D02*
X0023426Y0144629D01*
X0023395Y0144667D02*
X0029244Y0144667D01*
X0029275Y0144705D02*
X0023364Y0144705D01*
X0023333Y0144742D02*
X0029307Y0144742D01*
X0029338Y0144780D02*
X0023303Y0144780D01*
X0023272Y0144818D02*
X0029370Y0144818D01*
X0029401Y0144856D02*
X0023241Y0144856D01*
X0023210Y0144894D02*
X0029432Y0144894D01*
X0038287Y0145744D02*
X0038255Y0146248D01*
X0038287Y0146752D01*
X0038431Y0147237D01*
X0038679Y0147677D01*
X0039019Y0148051D01*
X0039433Y0148340D01*
X0039901Y0148530D01*
X0040400Y0148610D01*
X0045125Y0148610D01*
X0045567Y0148549D01*
X0045988Y0148403D01*
X0046373Y0148178D01*
X0046706Y0147882D01*
X0046976Y0147526D01*
X0047171Y0147125D01*
X0047283Y0146693D01*
X0047310Y0146248D01*
X0047283Y0145803D01*
X0038283Y0145803D01*
X0038286Y0145765D02*
X0047274Y0145765D01*
X0047283Y0145803D02*
X0047171Y0145371D01*
X0046976Y0144970D01*
X0046706Y0144614D01*
X0046373Y0144318D01*
X0045988Y0144093D01*
X0045567Y0143947D01*
X0040022Y0143947D01*
X0039901Y0143966D02*
X0039433Y0144156D01*
X0039019Y0144445D01*
X0038679Y0144819D01*
X0038431Y0145259D01*
X0038287Y0145744D01*
X0038292Y0145727D02*
X0047264Y0145727D01*
X0047254Y0145690D02*
X0038303Y0145690D01*
X0038314Y0145652D02*
X0047244Y0145652D01*
X0047234Y0145614D02*
X0038326Y0145614D01*
X0038337Y0145576D02*
X0047224Y0145576D01*
X0047214Y0145538D02*
X0038348Y0145538D01*
X0038359Y0145500D02*
X0047204Y0145500D01*
X0047194Y0145462D02*
X0038371Y0145462D01*
X0038382Y0145424D02*
X0047184Y0145424D01*
X0047175Y0145386D02*
X0038393Y0145386D01*
X0038404Y0145349D02*
X0047160Y0145349D01*
X0047141Y0145311D02*
X0038416Y0145311D01*
X0038427Y0145273D02*
X0047123Y0145273D01*
X0047104Y0145235D02*
X0038445Y0145235D01*
X0038466Y0145197D02*
X0047086Y0145197D01*
X0047068Y0145159D02*
X0038487Y0145159D01*
X0038509Y0145121D02*
X0047049Y0145121D01*
X0047031Y0145083D02*
X0038530Y0145083D01*
X0038551Y0145046D02*
X0047012Y0145046D01*
X0046994Y0145008D02*
X0038573Y0145008D01*
X0038594Y0144970D02*
X0046976Y0144970D01*
X0046947Y0144932D02*
X0038615Y0144932D01*
X0038637Y0144894D02*
X0046918Y0144894D01*
X0046890Y0144856D02*
X0038658Y0144856D01*
X0038680Y0144818D02*
X0046861Y0144818D01*
X0046832Y0144780D02*
X0038714Y0144780D01*
X0038748Y0144742D02*
X0046803Y0144742D01*
X0046775Y0144705D02*
X0038783Y0144705D01*
X0038817Y0144667D02*
X0046746Y0144667D01*
X0046717Y0144629D02*
X0038852Y0144629D01*
X0038886Y0144591D02*
X0046680Y0144591D01*
X0046637Y0144553D02*
X0038920Y0144553D01*
X0038955Y0144515D02*
X0046595Y0144515D01*
X0046552Y0144477D02*
X0038989Y0144477D01*
X0039027Y0144439D02*
X0046509Y0144439D01*
X0046467Y0144402D02*
X0039081Y0144402D01*
X0039135Y0144364D02*
X0046424Y0144364D01*
X0046381Y0144326D02*
X0039190Y0144326D01*
X0039244Y0144288D02*
X0046321Y0144288D01*
X0046256Y0144250D02*
X0039298Y0144250D01*
X0039353Y0144212D02*
X0046192Y0144212D01*
X0046127Y0144174D02*
X0039407Y0144174D01*
X0039482Y0144136D02*
X0046062Y0144136D01*
X0045998Y0144099D02*
X0039575Y0144099D01*
X0039669Y0144061D02*
X0045895Y0144061D01*
X0045786Y0144023D02*
X0039762Y0144023D01*
X0039856Y0143985D02*
X0045676Y0143985D01*
X0045567Y0143947D02*
X0045125Y0143886D01*
X0040400Y0143886D01*
X0039901Y0143966D01*
X0040256Y0143909D02*
X0045293Y0143909D01*
X0047286Y0145841D02*
X0038281Y0145841D01*
X0038278Y0145879D02*
X0047288Y0145879D01*
X0047290Y0145917D02*
X0038276Y0145917D01*
X0038273Y0145955D02*
X0047292Y0145955D01*
X0047295Y0145993D02*
X0038271Y0145993D01*
X0038269Y0146030D02*
X0047297Y0146030D01*
X0047299Y0146068D02*
X0038266Y0146068D01*
X0038264Y0146106D02*
X0047301Y0146106D01*
X0047304Y0146144D02*
X0038261Y0146144D01*
X0038259Y0146182D02*
X0047306Y0146182D01*
X0047308Y0146220D02*
X0038256Y0146220D01*
X0038255Y0146258D02*
X0047309Y0146258D01*
X0047307Y0146296D02*
X0038258Y0146296D01*
X0038260Y0146334D02*
X0047305Y0146334D01*
X0047302Y0146371D02*
X0038263Y0146371D01*
X0038265Y0146409D02*
X0047300Y0146409D01*
X0047298Y0146447D02*
X0038267Y0146447D01*
X0038270Y0146485D02*
X0047296Y0146485D01*
X0047293Y0146523D02*
X0038272Y0146523D01*
X0038275Y0146561D02*
X0047291Y0146561D01*
X0047289Y0146599D02*
X0038277Y0146599D01*
X0038280Y0146637D02*
X0047287Y0146637D01*
X0047284Y0146674D02*
X0038282Y0146674D01*
X0038284Y0146712D02*
X0047278Y0146712D01*
X0047268Y0146750D02*
X0038287Y0146750D01*
X0038298Y0146788D02*
X0047259Y0146788D01*
X0047249Y0146826D02*
X0038309Y0146826D01*
X0038320Y0146864D02*
X0047239Y0146864D01*
X0047229Y0146902D02*
X0038331Y0146902D01*
X0038343Y0146940D02*
X0047219Y0146940D01*
X0047209Y0146977D02*
X0038354Y0146977D01*
X0038365Y0147015D02*
X0047199Y0147015D01*
X0047189Y0147053D02*
X0038376Y0147053D01*
X0038388Y0147091D02*
X0047179Y0147091D01*
X0047169Y0147129D02*
X0038399Y0147129D01*
X0038410Y0147167D02*
X0047150Y0147167D01*
X0047132Y0147205D02*
X0038421Y0147205D01*
X0038434Y0147243D02*
X0047113Y0147243D01*
X0047095Y0147281D02*
X0038456Y0147281D01*
X0038477Y0147318D02*
X0047077Y0147318D01*
X0047058Y0147356D02*
X0038498Y0147356D01*
X0038520Y0147394D02*
X0047040Y0147394D01*
X0047021Y0147432D02*
X0038541Y0147432D01*
X0038562Y0147470D02*
X0047003Y0147470D01*
X0046985Y0147508D02*
X0038584Y0147508D01*
X0038605Y0147546D02*
X0046961Y0147546D01*
X0046932Y0147584D02*
X0038626Y0147584D01*
X0038648Y0147621D02*
X0046904Y0147621D01*
X0046875Y0147659D02*
X0038669Y0147659D01*
X0038697Y0147697D02*
X0046846Y0147697D01*
X0046817Y0147735D02*
X0038732Y0147735D01*
X0038766Y0147773D02*
X0046789Y0147773D01*
X0046760Y0147811D02*
X0038800Y0147811D01*
X0038835Y0147849D02*
X0046731Y0147849D01*
X0046701Y0147887D02*
X0038869Y0147887D01*
X0038904Y0147925D02*
X0046658Y0147925D01*
X0046615Y0147962D02*
X0038938Y0147962D01*
X0038973Y0148000D02*
X0046573Y0148000D01*
X0046530Y0148038D02*
X0039007Y0148038D01*
X0039055Y0148076D02*
X0046488Y0148076D01*
X0046445Y0148114D02*
X0039109Y0148114D01*
X0039163Y0148152D02*
X0046402Y0148152D01*
X0046353Y0148190D02*
X0039217Y0148190D01*
X0039272Y0148228D02*
X0046288Y0148228D01*
X0046223Y0148265D02*
X0039326Y0148265D01*
X0039380Y0148303D02*
X0046159Y0148303D01*
X0046094Y0148341D02*
X0039436Y0148341D01*
X0039530Y0148379D02*
X0046029Y0148379D01*
X0045948Y0148417D02*
X0039623Y0148417D01*
X0039717Y0148455D02*
X0045839Y0148455D01*
X0045730Y0148493D02*
X0039810Y0148493D01*
X0039908Y0148531D02*
X0045620Y0148531D01*
X0045427Y0148569D02*
X0040142Y0148569D01*
X0040376Y0148606D02*
X0045152Y0148606D01*
D19*
X0144396Y0108740D02*
X0144396Y0105787D01*
X0147349Y0105787D01*
X0147349Y0108740D01*
X0144396Y0108740D01*
X0144396Y0108423D02*
X0147349Y0108423D01*
X0147349Y0107924D02*
X0144396Y0107924D01*
X0144396Y0107426D02*
X0147349Y0107426D01*
X0147349Y0106927D02*
X0144396Y0106927D01*
X0144396Y0106429D02*
X0147349Y0106429D01*
X0147349Y0105930D02*
X0144396Y0105930D01*
X0144396Y0103819D02*
X0147349Y0103819D01*
X0147349Y0100866D01*
X0144396Y0100866D01*
X0144396Y0103819D01*
X0144396Y0103438D02*
X0147349Y0103438D01*
X0147349Y0102939D02*
X0144396Y0102939D01*
X0144396Y0102440D02*
X0147349Y0102440D01*
X0147349Y0101942D02*
X0144396Y0101942D01*
X0144396Y0101443D02*
X0147349Y0101443D01*
X0147349Y0100945D02*
X0144396Y0100945D01*
X0149318Y0100945D02*
X0152270Y0100945D01*
X0152270Y0100866D02*
X0149318Y0100866D01*
X0149318Y0103819D01*
X0152270Y0103819D01*
X0152270Y0100866D01*
X0152270Y0101443D02*
X0149318Y0101443D01*
X0149318Y0101942D02*
X0152270Y0101942D01*
X0152270Y0102440D02*
X0149318Y0102440D01*
X0149318Y0102939D02*
X0152270Y0102939D01*
X0152270Y0103438D02*
X0149318Y0103438D01*
X0149318Y0105787D02*
X0152270Y0105787D01*
X0152270Y0108740D01*
X0149318Y0108740D01*
X0149318Y0105787D01*
X0149318Y0105930D02*
X0152270Y0105930D01*
X0152270Y0106429D02*
X0149318Y0106429D01*
X0149318Y0106927D02*
X0152270Y0106927D01*
X0152270Y0107426D02*
X0149318Y0107426D01*
X0149318Y0107924D02*
X0152270Y0107924D01*
X0152270Y0108423D02*
X0149318Y0108423D01*
D20*
X0046991Y0122350D03*
X0046991Y0124319D03*
X0046991Y0126287D03*
X0046991Y0128256D03*
X0046991Y0130224D03*
X0046991Y0132193D03*
X0046991Y0134161D03*
X0046991Y0136130D03*
D21*
X0046991Y0141937D03*
X0046991Y0116543D03*
D22*
X0046991Y0119594D03*
X0046991Y0138886D03*
D23*
X0063373Y0180787D03*
X0059042Y0206378D03*
X0043294Y0206378D03*
X0031483Y0206378D03*
D24*
X0332342Y0090414D02*
X0332035Y0091432D01*
X0332036Y0091432D02*
X0332126Y0091464D01*
X0332216Y0091499D01*
X0332304Y0091538D01*
X0332390Y0091581D01*
X0332474Y0091628D01*
X0332556Y0091677D01*
X0332636Y0091731D01*
X0332714Y0091787D01*
X0332790Y0091846D01*
X0332863Y0091909D01*
X0332933Y0091975D01*
X0333001Y0092043D01*
X0333066Y0092114D01*
X0333128Y0092188D01*
X0333186Y0092264D01*
X0333242Y0092342D01*
X0333294Y0092423D01*
X0333343Y0092506D01*
X0333389Y0092590D01*
X0333431Y0092677D01*
X0333469Y0092765D01*
X0333504Y0092855D01*
X0333535Y0092946D01*
X0334555Y0092650D01*
X0334556Y0092649D01*
X0334521Y0092542D01*
X0334482Y0092436D01*
X0334440Y0092331D01*
X0334394Y0092228D01*
X0334345Y0092127D01*
X0334293Y0092027D01*
X0334237Y0091929D01*
X0334179Y0091833D01*
X0334117Y0091738D01*
X0334052Y0091646D01*
X0333984Y0091556D01*
X0333913Y0091469D01*
X0333839Y0091384D01*
X0333762Y0091301D01*
X0333683Y0091221D01*
X0333601Y0091143D01*
X0333517Y0091069D01*
X0333430Y0090997D01*
X0333340Y0090928D01*
X0333249Y0090862D01*
X0333155Y0090799D01*
X0333060Y0090739D01*
X0332962Y0090683D01*
X0332863Y0090629D01*
X0332762Y0090579D01*
X0332659Y0090533D01*
X0332555Y0090490D01*
X0332450Y0090450D01*
X0332343Y0090414D01*
X0332311Y0090520D01*
X0332418Y0090556D01*
X0332523Y0090596D01*
X0332627Y0090640D01*
X0332730Y0090687D01*
X0332831Y0090738D01*
X0332930Y0090792D01*
X0333027Y0090849D01*
X0333122Y0090910D01*
X0333215Y0090974D01*
X0333306Y0091041D01*
X0333394Y0091111D01*
X0333480Y0091184D01*
X0333563Y0091260D01*
X0333644Y0091339D01*
X0333722Y0091420D01*
X0333797Y0091504D01*
X0333869Y0091591D01*
X0333939Y0091680D01*
X0334005Y0091772D01*
X0334068Y0091865D01*
X0334127Y0091961D01*
X0334184Y0092059D01*
X0334237Y0092158D01*
X0334286Y0092260D01*
X0334332Y0092363D01*
X0334375Y0092467D01*
X0334414Y0092573D01*
X0334449Y0092680D01*
X0334343Y0092711D01*
X0334308Y0092608D01*
X0334271Y0092506D01*
X0334230Y0092405D01*
X0334185Y0092305D01*
X0334137Y0092208D01*
X0334086Y0092111D01*
X0334032Y0092017D01*
X0333974Y0091925D01*
X0333913Y0091834D01*
X0333849Y0091746D01*
X0333783Y0091660D01*
X0333713Y0091577D01*
X0333640Y0091495D01*
X0333565Y0091417D01*
X0333487Y0091341D01*
X0333407Y0091267D01*
X0333324Y0091197D01*
X0333239Y0091129D01*
X0333151Y0091064D01*
X0333061Y0091003D01*
X0332969Y0090944D01*
X0332876Y0090889D01*
X0332780Y0090837D01*
X0332683Y0090788D01*
X0332584Y0090742D01*
X0332484Y0090700D01*
X0332382Y0090661D01*
X0332279Y0090626D01*
X0332247Y0090733D01*
X0332350Y0090768D01*
X0332451Y0090807D01*
X0332551Y0090849D01*
X0332650Y0090895D01*
X0332747Y0090945D01*
X0332842Y0090997D01*
X0332935Y0091054D01*
X0333026Y0091113D01*
X0333115Y0091176D01*
X0333202Y0091241D01*
X0333287Y0091310D01*
X0333368Y0091382D01*
X0333448Y0091456D01*
X0333524Y0091534D01*
X0333598Y0091614D01*
X0333669Y0091696D01*
X0333737Y0091781D01*
X0333802Y0091869D01*
X0333863Y0091958D01*
X0333922Y0092050D01*
X0333977Y0092144D01*
X0334029Y0092240D01*
X0334077Y0092337D01*
X0334122Y0092436D01*
X0334164Y0092537D01*
X0334202Y0092639D01*
X0334236Y0092742D01*
X0334129Y0092773D01*
X0334095Y0092670D01*
X0334057Y0092568D01*
X0334015Y0092468D01*
X0333970Y0092369D01*
X0333921Y0092272D01*
X0333868Y0092177D01*
X0333812Y0092083D01*
X0333752Y0091992D01*
X0333690Y0091903D01*
X0333624Y0091817D01*
X0333555Y0091733D01*
X0333482Y0091652D01*
X0333407Y0091573D01*
X0333329Y0091497D01*
X0333249Y0091424D01*
X0333165Y0091354D01*
X0333080Y0091287D01*
X0332992Y0091224D01*
X0332901Y0091163D01*
X0332808Y0091106D01*
X0332714Y0091053D01*
X0332617Y0091003D01*
X0332519Y0090956D01*
X0332419Y0090913D01*
X0332317Y0090874D01*
X0332215Y0090839D01*
X0332183Y0090945D01*
X0332281Y0090979D01*
X0332379Y0091017D01*
X0332475Y0091058D01*
X0332569Y0091103D01*
X0332662Y0091151D01*
X0332753Y0091202D01*
X0332842Y0091257D01*
X0332929Y0091315D01*
X0333014Y0091376D01*
X0333096Y0091441D01*
X0333176Y0091508D01*
X0333254Y0091578D01*
X0333328Y0091651D01*
X0333401Y0091727D01*
X0333470Y0091805D01*
X0333536Y0091886D01*
X0333600Y0091969D01*
X0333660Y0092054D01*
X0333717Y0092141D01*
X0333771Y0092231D01*
X0333822Y0092322D01*
X0333869Y0092416D01*
X0333913Y0092511D01*
X0333953Y0092607D01*
X0333990Y0092705D01*
X0334023Y0092804D01*
X0333916Y0092835D01*
X0333883Y0092736D01*
X0333846Y0092639D01*
X0333805Y0092543D01*
X0333761Y0092448D01*
X0333714Y0092355D01*
X0333662Y0092265D01*
X0333608Y0092176D01*
X0333550Y0092089D01*
X0333488Y0092005D01*
X0333424Y0091923D01*
X0333356Y0091843D01*
X0333286Y0091766D01*
X0333213Y0091692D01*
X0333136Y0091621D01*
X0333058Y0091553D01*
X0332976Y0091488D01*
X0332893Y0091425D01*
X0332806Y0091367D01*
X0332718Y0091311D01*
X0332628Y0091259D01*
X0332536Y0091210D01*
X0332442Y0091165D01*
X0332346Y0091123D01*
X0332249Y0091086D01*
X0332150Y0091051D01*
X0332118Y0091158D01*
X0332213Y0091190D01*
X0332306Y0091227D01*
X0332397Y0091267D01*
X0332487Y0091310D01*
X0332576Y0091357D01*
X0332662Y0091407D01*
X0332746Y0091460D01*
X0332829Y0091516D01*
X0332909Y0091576D01*
X0332987Y0091638D01*
X0333062Y0091704D01*
X0333135Y0091772D01*
X0333205Y0091843D01*
X0333273Y0091917D01*
X0333338Y0091993D01*
X0333399Y0092071D01*
X0333458Y0092152D01*
X0333514Y0092235D01*
X0333566Y0092320D01*
X0333615Y0092407D01*
X0333661Y0092496D01*
X0333703Y0092586D01*
X0333742Y0092678D01*
X0333778Y0092771D01*
X0333809Y0092866D01*
X0333703Y0092897D01*
X0333671Y0092803D01*
X0333635Y0092710D01*
X0333596Y0092619D01*
X0333554Y0092529D01*
X0333507Y0092441D01*
X0333458Y0092355D01*
X0333404Y0092271D01*
X0333348Y0092189D01*
X0333289Y0092109D01*
X0333226Y0092032D01*
X0333160Y0091957D01*
X0333092Y0091885D01*
X0333020Y0091816D01*
X0332946Y0091750D01*
X0332870Y0091686D01*
X0332791Y0091626D01*
X0332710Y0091569D01*
X0332626Y0091515D01*
X0332540Y0091464D01*
X0332453Y0091417D01*
X0332364Y0091373D01*
X0332273Y0091333D01*
X0332180Y0091297D01*
X0332086Y0091264D01*
X0332054Y0091370D01*
X0332144Y0091402D01*
X0332232Y0091437D01*
X0332319Y0091475D01*
X0332404Y0091517D01*
X0332487Y0091562D01*
X0332569Y0091610D01*
X0332648Y0091661D01*
X0332726Y0091716D01*
X0332801Y0091773D01*
X0332874Y0091834D01*
X0332945Y0091897D01*
X0333013Y0091963D01*
X0333078Y0092032D01*
X0333141Y0092103D01*
X0333201Y0092177D01*
X0333257Y0092253D01*
X0333311Y0092331D01*
X0333362Y0092411D01*
X0333409Y0092493D01*
X0333453Y0092577D01*
X0333494Y0092663D01*
X0333532Y0092750D01*
X0333566Y0092838D01*
X0333596Y0092928D01*
X0330467Y0096751D02*
X0330774Y0095733D01*
X0330773Y0095733D02*
X0330683Y0095701D01*
X0330593Y0095666D01*
X0330505Y0095627D01*
X0330419Y0095584D01*
X0330335Y0095537D01*
X0330253Y0095488D01*
X0330173Y0095434D01*
X0330095Y0095378D01*
X0330019Y0095319D01*
X0329946Y0095256D01*
X0329876Y0095190D01*
X0329808Y0095122D01*
X0329743Y0095051D01*
X0329681Y0094977D01*
X0329623Y0094901D01*
X0329567Y0094823D01*
X0329515Y0094742D01*
X0329466Y0094659D01*
X0329420Y0094575D01*
X0329378Y0094488D01*
X0329340Y0094400D01*
X0329305Y0094310D01*
X0329274Y0094219D01*
X0328254Y0094515D01*
X0328253Y0094516D01*
X0328288Y0094623D01*
X0328327Y0094729D01*
X0328369Y0094834D01*
X0328415Y0094937D01*
X0328464Y0095038D01*
X0328516Y0095138D01*
X0328572Y0095236D01*
X0328630Y0095332D01*
X0328692Y0095427D01*
X0328757Y0095519D01*
X0328825Y0095609D01*
X0328896Y0095696D01*
X0328970Y0095781D01*
X0329047Y0095864D01*
X0329126Y0095944D01*
X0329208Y0096022D01*
X0329292Y0096096D01*
X0329379Y0096168D01*
X0329469Y0096237D01*
X0329560Y0096303D01*
X0329654Y0096366D01*
X0329749Y0096426D01*
X0329847Y0096482D01*
X0329946Y0096536D01*
X0330047Y0096586D01*
X0330150Y0096632D01*
X0330254Y0096675D01*
X0330359Y0096715D01*
X0330466Y0096751D01*
X0330498Y0096645D01*
X0330391Y0096609D01*
X0330286Y0096569D01*
X0330182Y0096525D01*
X0330079Y0096478D01*
X0329978Y0096427D01*
X0329879Y0096373D01*
X0329782Y0096316D01*
X0329687Y0096255D01*
X0329594Y0096191D01*
X0329503Y0096124D01*
X0329415Y0096054D01*
X0329329Y0095981D01*
X0329246Y0095905D01*
X0329165Y0095826D01*
X0329087Y0095745D01*
X0329012Y0095661D01*
X0328940Y0095574D01*
X0328870Y0095485D01*
X0328804Y0095393D01*
X0328741Y0095300D01*
X0328682Y0095204D01*
X0328625Y0095106D01*
X0328572Y0095007D01*
X0328523Y0094905D01*
X0328477Y0094802D01*
X0328434Y0094698D01*
X0328395Y0094592D01*
X0328360Y0094485D01*
X0328466Y0094454D01*
X0328501Y0094557D01*
X0328538Y0094659D01*
X0328579Y0094760D01*
X0328624Y0094860D01*
X0328672Y0094957D01*
X0328723Y0095054D01*
X0328777Y0095148D01*
X0328835Y0095240D01*
X0328896Y0095331D01*
X0328960Y0095419D01*
X0329026Y0095505D01*
X0329096Y0095588D01*
X0329169Y0095670D01*
X0329244Y0095748D01*
X0329322Y0095824D01*
X0329402Y0095898D01*
X0329485Y0095968D01*
X0329570Y0096036D01*
X0329658Y0096101D01*
X0329748Y0096162D01*
X0329840Y0096221D01*
X0329933Y0096276D01*
X0330029Y0096328D01*
X0330126Y0096377D01*
X0330225Y0096423D01*
X0330325Y0096465D01*
X0330427Y0096504D01*
X0330530Y0096539D01*
X0330562Y0096432D01*
X0330459Y0096397D01*
X0330358Y0096358D01*
X0330258Y0096316D01*
X0330159Y0096270D01*
X0330062Y0096220D01*
X0329967Y0096168D01*
X0329874Y0096111D01*
X0329783Y0096052D01*
X0329694Y0095989D01*
X0329607Y0095924D01*
X0329522Y0095855D01*
X0329441Y0095783D01*
X0329361Y0095709D01*
X0329285Y0095631D01*
X0329211Y0095551D01*
X0329140Y0095469D01*
X0329072Y0095384D01*
X0329007Y0095296D01*
X0328946Y0095207D01*
X0328887Y0095115D01*
X0328832Y0095021D01*
X0328780Y0094925D01*
X0328732Y0094828D01*
X0328687Y0094729D01*
X0328645Y0094628D01*
X0328607Y0094526D01*
X0328573Y0094423D01*
X0328680Y0094392D01*
X0328714Y0094495D01*
X0328752Y0094597D01*
X0328794Y0094697D01*
X0328839Y0094796D01*
X0328888Y0094893D01*
X0328941Y0094988D01*
X0328997Y0095082D01*
X0329057Y0095173D01*
X0329119Y0095262D01*
X0329185Y0095348D01*
X0329254Y0095432D01*
X0329327Y0095513D01*
X0329402Y0095592D01*
X0329480Y0095668D01*
X0329560Y0095741D01*
X0329644Y0095811D01*
X0329729Y0095878D01*
X0329817Y0095941D01*
X0329908Y0096002D01*
X0330001Y0096059D01*
X0330095Y0096112D01*
X0330192Y0096162D01*
X0330290Y0096209D01*
X0330390Y0096252D01*
X0330492Y0096291D01*
X0330594Y0096326D01*
X0330626Y0096220D01*
X0330528Y0096186D01*
X0330430Y0096148D01*
X0330334Y0096107D01*
X0330240Y0096062D01*
X0330147Y0096014D01*
X0330056Y0095963D01*
X0329967Y0095908D01*
X0329880Y0095850D01*
X0329795Y0095789D01*
X0329713Y0095724D01*
X0329633Y0095657D01*
X0329555Y0095587D01*
X0329481Y0095514D01*
X0329408Y0095438D01*
X0329339Y0095360D01*
X0329273Y0095279D01*
X0329209Y0095196D01*
X0329149Y0095111D01*
X0329092Y0095024D01*
X0329038Y0094934D01*
X0328987Y0094843D01*
X0328940Y0094749D01*
X0328896Y0094654D01*
X0328856Y0094558D01*
X0328819Y0094460D01*
X0328786Y0094361D01*
X0328893Y0094330D01*
X0328926Y0094429D01*
X0328963Y0094526D01*
X0329004Y0094622D01*
X0329048Y0094717D01*
X0329095Y0094810D01*
X0329147Y0094900D01*
X0329201Y0094989D01*
X0329259Y0095076D01*
X0329321Y0095160D01*
X0329385Y0095242D01*
X0329453Y0095322D01*
X0329523Y0095399D01*
X0329596Y0095473D01*
X0329673Y0095544D01*
X0329751Y0095612D01*
X0329833Y0095677D01*
X0329916Y0095740D01*
X0330003Y0095798D01*
X0330091Y0095854D01*
X0330181Y0095906D01*
X0330273Y0095955D01*
X0330367Y0096000D01*
X0330463Y0096042D01*
X0330560Y0096079D01*
X0330659Y0096114D01*
X0330691Y0096007D01*
X0330596Y0095975D01*
X0330503Y0095938D01*
X0330412Y0095898D01*
X0330322Y0095855D01*
X0330233Y0095808D01*
X0330147Y0095758D01*
X0330063Y0095705D01*
X0329980Y0095649D01*
X0329900Y0095589D01*
X0329822Y0095527D01*
X0329747Y0095461D01*
X0329674Y0095393D01*
X0329604Y0095322D01*
X0329536Y0095248D01*
X0329471Y0095172D01*
X0329410Y0095094D01*
X0329351Y0095013D01*
X0329295Y0094930D01*
X0329243Y0094845D01*
X0329194Y0094758D01*
X0329148Y0094669D01*
X0329106Y0094579D01*
X0329067Y0094487D01*
X0329031Y0094394D01*
X0329000Y0094299D01*
X0329106Y0094268D01*
X0329138Y0094362D01*
X0329174Y0094455D01*
X0329213Y0094546D01*
X0329255Y0094636D01*
X0329302Y0094724D01*
X0329351Y0094810D01*
X0329405Y0094894D01*
X0329461Y0094976D01*
X0329520Y0095056D01*
X0329583Y0095133D01*
X0329649Y0095208D01*
X0329717Y0095280D01*
X0329789Y0095349D01*
X0329863Y0095415D01*
X0329939Y0095479D01*
X0330018Y0095539D01*
X0330099Y0095596D01*
X0330183Y0095650D01*
X0330269Y0095701D01*
X0330356Y0095748D01*
X0330445Y0095792D01*
X0330536Y0095832D01*
X0330629Y0095868D01*
X0330723Y0095901D01*
X0330755Y0095795D01*
X0330665Y0095763D01*
X0330577Y0095728D01*
X0330490Y0095690D01*
X0330405Y0095648D01*
X0330322Y0095603D01*
X0330240Y0095555D01*
X0330161Y0095504D01*
X0330083Y0095449D01*
X0330008Y0095392D01*
X0329935Y0095331D01*
X0329864Y0095268D01*
X0329796Y0095202D01*
X0329731Y0095133D01*
X0329668Y0095062D01*
X0329608Y0094988D01*
X0329552Y0094912D01*
X0329498Y0094834D01*
X0329447Y0094754D01*
X0329400Y0094672D01*
X0329356Y0094588D01*
X0329315Y0094502D01*
X0329277Y0094415D01*
X0329243Y0094327D01*
X0329213Y0094237D01*
X0334573Y0094520D02*
X0333555Y0094213D01*
X0333555Y0094214D02*
X0333523Y0094304D01*
X0333488Y0094394D01*
X0333449Y0094482D01*
X0333406Y0094568D01*
X0333359Y0094652D01*
X0333310Y0094734D01*
X0333256Y0094814D01*
X0333200Y0094892D01*
X0333141Y0094968D01*
X0333078Y0095041D01*
X0333012Y0095111D01*
X0332944Y0095179D01*
X0332873Y0095244D01*
X0332799Y0095306D01*
X0332723Y0095364D01*
X0332645Y0095420D01*
X0332564Y0095472D01*
X0332481Y0095521D01*
X0332397Y0095567D01*
X0332310Y0095609D01*
X0332222Y0095647D01*
X0332132Y0095682D01*
X0332041Y0095713D01*
X0332337Y0096733D01*
X0332338Y0096734D01*
X0332445Y0096699D01*
X0332551Y0096660D01*
X0332656Y0096618D01*
X0332759Y0096572D01*
X0332860Y0096523D01*
X0332960Y0096471D01*
X0333058Y0096415D01*
X0333154Y0096357D01*
X0333249Y0096295D01*
X0333341Y0096230D01*
X0333431Y0096162D01*
X0333518Y0096091D01*
X0333603Y0096017D01*
X0333686Y0095940D01*
X0333766Y0095861D01*
X0333844Y0095779D01*
X0333918Y0095695D01*
X0333990Y0095608D01*
X0334059Y0095518D01*
X0334125Y0095427D01*
X0334188Y0095333D01*
X0334248Y0095238D01*
X0334304Y0095140D01*
X0334358Y0095041D01*
X0334408Y0094940D01*
X0334454Y0094837D01*
X0334497Y0094733D01*
X0334537Y0094628D01*
X0334573Y0094521D01*
X0334467Y0094489D01*
X0334431Y0094596D01*
X0334391Y0094701D01*
X0334347Y0094805D01*
X0334300Y0094908D01*
X0334249Y0095009D01*
X0334195Y0095108D01*
X0334138Y0095205D01*
X0334077Y0095300D01*
X0334013Y0095393D01*
X0333946Y0095484D01*
X0333876Y0095572D01*
X0333803Y0095658D01*
X0333727Y0095741D01*
X0333648Y0095822D01*
X0333567Y0095900D01*
X0333483Y0095975D01*
X0333396Y0096047D01*
X0333307Y0096117D01*
X0333215Y0096183D01*
X0333122Y0096246D01*
X0333026Y0096305D01*
X0332928Y0096362D01*
X0332829Y0096415D01*
X0332727Y0096464D01*
X0332624Y0096510D01*
X0332520Y0096553D01*
X0332414Y0096592D01*
X0332307Y0096627D01*
X0332276Y0096521D01*
X0332379Y0096486D01*
X0332481Y0096449D01*
X0332582Y0096408D01*
X0332682Y0096363D01*
X0332779Y0096315D01*
X0332876Y0096264D01*
X0332970Y0096210D01*
X0333062Y0096152D01*
X0333153Y0096091D01*
X0333241Y0096027D01*
X0333327Y0095961D01*
X0333410Y0095891D01*
X0333492Y0095818D01*
X0333570Y0095743D01*
X0333646Y0095665D01*
X0333720Y0095585D01*
X0333790Y0095502D01*
X0333858Y0095417D01*
X0333923Y0095329D01*
X0333984Y0095239D01*
X0334043Y0095147D01*
X0334098Y0095054D01*
X0334150Y0094958D01*
X0334199Y0094861D01*
X0334245Y0094762D01*
X0334287Y0094662D01*
X0334326Y0094560D01*
X0334361Y0094457D01*
X0334254Y0094425D01*
X0334219Y0094528D01*
X0334180Y0094629D01*
X0334138Y0094729D01*
X0334092Y0094828D01*
X0334042Y0094925D01*
X0333990Y0095020D01*
X0333933Y0095113D01*
X0333874Y0095204D01*
X0333811Y0095293D01*
X0333746Y0095380D01*
X0333677Y0095465D01*
X0333605Y0095546D01*
X0333531Y0095626D01*
X0333453Y0095702D01*
X0333373Y0095776D01*
X0333291Y0095847D01*
X0333206Y0095915D01*
X0333118Y0095980D01*
X0333029Y0096041D01*
X0332937Y0096100D01*
X0332843Y0096155D01*
X0332747Y0096207D01*
X0332650Y0096255D01*
X0332551Y0096300D01*
X0332450Y0096342D01*
X0332348Y0096380D01*
X0332245Y0096414D01*
X0332214Y0096307D01*
X0332317Y0096273D01*
X0332419Y0096235D01*
X0332519Y0096193D01*
X0332618Y0096148D01*
X0332715Y0096099D01*
X0332810Y0096046D01*
X0332904Y0095990D01*
X0332995Y0095930D01*
X0333084Y0095868D01*
X0333170Y0095802D01*
X0333254Y0095733D01*
X0333335Y0095660D01*
X0333414Y0095585D01*
X0333490Y0095507D01*
X0333563Y0095427D01*
X0333633Y0095343D01*
X0333700Y0095258D01*
X0333763Y0095170D01*
X0333824Y0095079D01*
X0333881Y0094986D01*
X0333934Y0094892D01*
X0333984Y0094795D01*
X0334031Y0094697D01*
X0334074Y0094597D01*
X0334113Y0094495D01*
X0334148Y0094393D01*
X0334042Y0094361D01*
X0334008Y0094459D01*
X0333970Y0094557D01*
X0333929Y0094653D01*
X0333884Y0094747D01*
X0333836Y0094840D01*
X0333785Y0094931D01*
X0333730Y0095020D01*
X0333672Y0095107D01*
X0333611Y0095192D01*
X0333546Y0095274D01*
X0333479Y0095354D01*
X0333409Y0095432D01*
X0333336Y0095506D01*
X0333260Y0095579D01*
X0333182Y0095648D01*
X0333101Y0095714D01*
X0333018Y0095778D01*
X0332933Y0095838D01*
X0332846Y0095895D01*
X0332756Y0095949D01*
X0332665Y0096000D01*
X0332571Y0096047D01*
X0332476Y0096091D01*
X0332380Y0096131D01*
X0332282Y0096168D01*
X0332183Y0096201D01*
X0332152Y0096094D01*
X0332251Y0096061D01*
X0332348Y0096024D01*
X0332444Y0095983D01*
X0332539Y0095939D01*
X0332632Y0095892D01*
X0332722Y0095840D01*
X0332811Y0095786D01*
X0332898Y0095728D01*
X0332982Y0095666D01*
X0333064Y0095602D01*
X0333144Y0095534D01*
X0333221Y0095464D01*
X0333295Y0095391D01*
X0333366Y0095314D01*
X0333434Y0095236D01*
X0333499Y0095154D01*
X0333562Y0095071D01*
X0333620Y0094984D01*
X0333676Y0094896D01*
X0333728Y0094806D01*
X0333777Y0094714D01*
X0333822Y0094620D01*
X0333864Y0094524D01*
X0333901Y0094427D01*
X0333936Y0094328D01*
X0333829Y0094296D01*
X0333797Y0094391D01*
X0333760Y0094484D01*
X0333720Y0094575D01*
X0333677Y0094665D01*
X0333630Y0094754D01*
X0333580Y0094840D01*
X0333527Y0094924D01*
X0333471Y0095007D01*
X0333411Y0095087D01*
X0333349Y0095165D01*
X0333283Y0095240D01*
X0333215Y0095313D01*
X0333144Y0095383D01*
X0333070Y0095451D01*
X0332994Y0095516D01*
X0332916Y0095577D01*
X0332835Y0095636D01*
X0332752Y0095692D01*
X0332667Y0095744D01*
X0332580Y0095793D01*
X0332491Y0095839D01*
X0332401Y0095881D01*
X0332309Y0095920D01*
X0332216Y0095956D01*
X0332121Y0095987D01*
X0332090Y0095881D01*
X0332184Y0095849D01*
X0332277Y0095813D01*
X0332368Y0095774D01*
X0332458Y0095732D01*
X0332546Y0095685D01*
X0332632Y0095636D01*
X0332716Y0095582D01*
X0332798Y0095526D01*
X0332878Y0095467D01*
X0332955Y0095404D01*
X0333030Y0095338D01*
X0333102Y0095270D01*
X0333171Y0095198D01*
X0333237Y0095124D01*
X0333301Y0095048D01*
X0333361Y0094969D01*
X0333418Y0094888D01*
X0333472Y0094804D01*
X0333523Y0094718D01*
X0333570Y0094631D01*
X0333614Y0094542D01*
X0333654Y0094451D01*
X0333690Y0094358D01*
X0333723Y0094264D01*
X0333617Y0094232D01*
X0333585Y0094322D01*
X0333550Y0094410D01*
X0333512Y0094497D01*
X0333470Y0094582D01*
X0333425Y0094665D01*
X0333377Y0094747D01*
X0333326Y0094826D01*
X0333271Y0094904D01*
X0333214Y0094979D01*
X0333153Y0095052D01*
X0333090Y0095123D01*
X0333024Y0095191D01*
X0332955Y0095256D01*
X0332884Y0095319D01*
X0332810Y0095379D01*
X0332734Y0095435D01*
X0332656Y0095489D01*
X0332576Y0095540D01*
X0332494Y0095587D01*
X0332410Y0095631D01*
X0332324Y0095672D01*
X0332237Y0095710D01*
X0332149Y0095744D01*
X0332059Y0095774D01*
X0328236Y0092645D02*
X0329254Y0092952D01*
X0329254Y0092951D02*
X0329286Y0092861D01*
X0329321Y0092771D01*
X0329360Y0092683D01*
X0329403Y0092597D01*
X0329450Y0092513D01*
X0329499Y0092431D01*
X0329553Y0092351D01*
X0329609Y0092273D01*
X0329668Y0092197D01*
X0329731Y0092124D01*
X0329797Y0092054D01*
X0329865Y0091986D01*
X0329936Y0091921D01*
X0330010Y0091859D01*
X0330086Y0091801D01*
X0330164Y0091745D01*
X0330245Y0091693D01*
X0330328Y0091644D01*
X0330412Y0091598D01*
X0330499Y0091556D01*
X0330587Y0091518D01*
X0330677Y0091483D01*
X0330768Y0091452D01*
X0330472Y0090432D01*
X0330471Y0090431D01*
X0330364Y0090466D01*
X0330258Y0090505D01*
X0330153Y0090547D01*
X0330050Y0090593D01*
X0329949Y0090642D01*
X0329849Y0090694D01*
X0329751Y0090750D01*
X0329655Y0090808D01*
X0329560Y0090870D01*
X0329468Y0090935D01*
X0329378Y0091003D01*
X0329291Y0091074D01*
X0329206Y0091148D01*
X0329123Y0091225D01*
X0329043Y0091304D01*
X0328965Y0091386D01*
X0328891Y0091470D01*
X0328819Y0091557D01*
X0328750Y0091647D01*
X0328684Y0091738D01*
X0328621Y0091832D01*
X0328561Y0091927D01*
X0328505Y0092025D01*
X0328451Y0092124D01*
X0328401Y0092225D01*
X0328355Y0092328D01*
X0328312Y0092432D01*
X0328272Y0092537D01*
X0328236Y0092644D01*
X0328342Y0092676D01*
X0328378Y0092569D01*
X0328418Y0092464D01*
X0328462Y0092360D01*
X0328509Y0092257D01*
X0328560Y0092156D01*
X0328614Y0092057D01*
X0328671Y0091960D01*
X0328732Y0091865D01*
X0328796Y0091772D01*
X0328863Y0091681D01*
X0328933Y0091593D01*
X0329006Y0091507D01*
X0329082Y0091424D01*
X0329161Y0091343D01*
X0329242Y0091265D01*
X0329326Y0091190D01*
X0329413Y0091118D01*
X0329502Y0091048D01*
X0329594Y0090982D01*
X0329687Y0090919D01*
X0329783Y0090860D01*
X0329881Y0090803D01*
X0329980Y0090750D01*
X0330082Y0090701D01*
X0330185Y0090655D01*
X0330289Y0090612D01*
X0330395Y0090573D01*
X0330502Y0090538D01*
X0330533Y0090644D01*
X0330430Y0090679D01*
X0330328Y0090716D01*
X0330227Y0090757D01*
X0330127Y0090802D01*
X0330030Y0090850D01*
X0329933Y0090901D01*
X0329839Y0090955D01*
X0329747Y0091013D01*
X0329656Y0091074D01*
X0329568Y0091138D01*
X0329482Y0091204D01*
X0329399Y0091274D01*
X0329317Y0091347D01*
X0329239Y0091422D01*
X0329163Y0091500D01*
X0329089Y0091580D01*
X0329019Y0091663D01*
X0328951Y0091748D01*
X0328886Y0091836D01*
X0328825Y0091926D01*
X0328766Y0092018D01*
X0328711Y0092111D01*
X0328659Y0092207D01*
X0328610Y0092304D01*
X0328564Y0092403D01*
X0328522Y0092503D01*
X0328483Y0092605D01*
X0328448Y0092708D01*
X0328555Y0092740D01*
X0328590Y0092637D01*
X0328629Y0092536D01*
X0328671Y0092436D01*
X0328717Y0092337D01*
X0328767Y0092240D01*
X0328819Y0092145D01*
X0328876Y0092052D01*
X0328935Y0091961D01*
X0328998Y0091872D01*
X0329063Y0091785D01*
X0329132Y0091700D01*
X0329204Y0091619D01*
X0329278Y0091539D01*
X0329356Y0091463D01*
X0329436Y0091389D01*
X0329518Y0091318D01*
X0329603Y0091250D01*
X0329691Y0091185D01*
X0329780Y0091124D01*
X0329872Y0091065D01*
X0329966Y0091010D01*
X0330062Y0090958D01*
X0330159Y0090910D01*
X0330258Y0090865D01*
X0330359Y0090823D01*
X0330461Y0090785D01*
X0330564Y0090751D01*
X0330595Y0090858D01*
X0330492Y0090892D01*
X0330390Y0090930D01*
X0330290Y0090972D01*
X0330191Y0091017D01*
X0330094Y0091066D01*
X0329999Y0091119D01*
X0329905Y0091175D01*
X0329814Y0091235D01*
X0329725Y0091297D01*
X0329639Y0091363D01*
X0329555Y0091432D01*
X0329474Y0091505D01*
X0329395Y0091580D01*
X0329319Y0091658D01*
X0329246Y0091738D01*
X0329176Y0091822D01*
X0329109Y0091907D01*
X0329046Y0091995D01*
X0328985Y0092086D01*
X0328928Y0092179D01*
X0328875Y0092273D01*
X0328825Y0092370D01*
X0328778Y0092468D01*
X0328735Y0092568D01*
X0328696Y0092670D01*
X0328661Y0092772D01*
X0328767Y0092804D01*
X0328801Y0092706D01*
X0328839Y0092608D01*
X0328880Y0092512D01*
X0328925Y0092418D01*
X0328973Y0092325D01*
X0329024Y0092234D01*
X0329079Y0092145D01*
X0329137Y0092058D01*
X0329198Y0091973D01*
X0329263Y0091891D01*
X0329330Y0091811D01*
X0329400Y0091733D01*
X0329473Y0091659D01*
X0329549Y0091586D01*
X0329627Y0091517D01*
X0329708Y0091451D01*
X0329791Y0091387D01*
X0329876Y0091327D01*
X0329963Y0091270D01*
X0330053Y0091216D01*
X0330144Y0091165D01*
X0330238Y0091118D01*
X0330333Y0091074D01*
X0330429Y0091034D01*
X0330527Y0090997D01*
X0330626Y0090964D01*
X0330657Y0091071D01*
X0330558Y0091104D01*
X0330461Y0091141D01*
X0330365Y0091182D01*
X0330270Y0091226D01*
X0330177Y0091273D01*
X0330087Y0091325D01*
X0329998Y0091379D01*
X0329911Y0091437D01*
X0329827Y0091499D01*
X0329745Y0091563D01*
X0329665Y0091631D01*
X0329588Y0091701D01*
X0329514Y0091774D01*
X0329443Y0091851D01*
X0329375Y0091929D01*
X0329310Y0092011D01*
X0329247Y0092094D01*
X0329189Y0092181D01*
X0329133Y0092269D01*
X0329081Y0092359D01*
X0329032Y0092451D01*
X0328987Y0092545D01*
X0328945Y0092641D01*
X0328908Y0092738D01*
X0328873Y0092837D01*
X0328980Y0092869D01*
X0329012Y0092774D01*
X0329049Y0092681D01*
X0329089Y0092590D01*
X0329132Y0092500D01*
X0329179Y0092411D01*
X0329229Y0092325D01*
X0329282Y0092241D01*
X0329338Y0092158D01*
X0329398Y0092078D01*
X0329460Y0092000D01*
X0329526Y0091925D01*
X0329594Y0091852D01*
X0329665Y0091782D01*
X0329739Y0091714D01*
X0329815Y0091649D01*
X0329893Y0091588D01*
X0329974Y0091529D01*
X0330057Y0091473D01*
X0330142Y0091421D01*
X0330229Y0091372D01*
X0330318Y0091326D01*
X0330408Y0091284D01*
X0330500Y0091245D01*
X0330593Y0091209D01*
X0330688Y0091178D01*
X0330719Y0091284D01*
X0330625Y0091316D01*
X0330532Y0091352D01*
X0330441Y0091391D01*
X0330351Y0091433D01*
X0330263Y0091480D01*
X0330177Y0091529D01*
X0330093Y0091583D01*
X0330011Y0091639D01*
X0329931Y0091698D01*
X0329854Y0091761D01*
X0329779Y0091827D01*
X0329707Y0091895D01*
X0329638Y0091967D01*
X0329572Y0092041D01*
X0329508Y0092117D01*
X0329448Y0092196D01*
X0329391Y0092277D01*
X0329337Y0092361D01*
X0329286Y0092447D01*
X0329239Y0092534D01*
X0329195Y0092623D01*
X0329155Y0092714D01*
X0329119Y0092807D01*
X0329086Y0092901D01*
X0329192Y0092933D01*
X0329224Y0092843D01*
X0329259Y0092755D01*
X0329297Y0092668D01*
X0329339Y0092583D01*
X0329384Y0092500D01*
X0329432Y0092418D01*
X0329483Y0092339D01*
X0329538Y0092261D01*
X0329595Y0092186D01*
X0329656Y0092113D01*
X0329719Y0092042D01*
X0329785Y0091974D01*
X0329854Y0091909D01*
X0329925Y0091846D01*
X0329999Y0091786D01*
X0330075Y0091730D01*
X0330153Y0091676D01*
X0330233Y0091625D01*
X0330315Y0091578D01*
X0330399Y0091534D01*
X0330485Y0091493D01*
X0330572Y0091455D01*
X0330660Y0091421D01*
X0330750Y0091391D01*
D25*
X0326286Y0090433D03*
X0336522Y0090433D03*
D26*
X0336129Y0103898D03*
X0331404Y0103898D03*
X0326680Y0103898D03*
D27*
X0367991Y0099882D03*
X0367991Y0087283D03*
X0388282Y0087283D03*
X0388282Y0099882D03*
X0427046Y0099882D03*
X0427046Y0087283D03*
X0447337Y0087283D03*
X0447337Y0099882D03*
X0486101Y0099882D03*
X0486101Y0087283D03*
X0506392Y0087283D03*
X0506392Y0099882D03*
X0545156Y0099882D03*
X0545156Y0087283D03*
X0565448Y0087283D03*
X0565448Y0099882D03*
X0623896Y0099882D03*
X0623896Y0087283D03*
X0644188Y0087283D03*
X0644188Y0099882D03*
X0663266Y0099882D03*
X0663266Y0087283D03*
X0683558Y0087283D03*
X0683558Y0099882D03*
X0722322Y0099882D03*
X0722322Y0087283D03*
X0742613Y0087283D03*
X0742613Y0099882D03*
X0786298Y0099882D03*
X0786298Y0087283D03*
X0806589Y0087283D03*
X0806589Y0099882D03*
X0840432Y0099882D03*
X0840432Y0087283D03*
X0860723Y0087283D03*
X0860723Y0099882D03*
X0899487Y0099882D03*
X0899487Y0087283D03*
X0919778Y0087283D03*
X0919778Y0099882D03*
X0958542Y0099882D03*
X0958542Y0087283D03*
X0978833Y0087283D03*
X0978833Y0099882D03*
X1017597Y0099882D03*
X1017597Y0087283D03*
X1037888Y0087283D03*
X1037888Y0099882D03*
X1076652Y0099882D03*
X1076652Y0087283D03*
X1096944Y0087283D03*
X1096944Y0099882D03*
X1135707Y0099882D03*
X1135707Y0087283D03*
X1155999Y0087283D03*
X1155999Y0099882D03*
X1194762Y0099882D03*
X1194762Y0087283D03*
X1215054Y0087283D03*
X1215054Y0099882D03*
X1215054Y0146339D03*
X1215054Y0158937D03*
X1194762Y0158937D03*
X1194762Y0146339D03*
X1155999Y0146339D03*
X1155999Y0158937D03*
X1135707Y0158937D03*
X1135707Y0146339D03*
X1096944Y0146339D03*
X1096944Y0158937D03*
X1076652Y0158937D03*
X1076652Y0146339D03*
X1037888Y0146339D03*
X1037888Y0158937D03*
X1017597Y0158937D03*
X1017597Y0146339D03*
X0978833Y0146339D03*
X0978833Y0158937D03*
X0958542Y0158937D03*
X0958542Y0146339D03*
X0919778Y0146339D03*
X0919778Y0158937D03*
X0899487Y0158937D03*
X0899487Y0146339D03*
X0860723Y0146339D03*
X0860723Y0158937D03*
X0840432Y0158937D03*
X0840432Y0146339D03*
X0801668Y0146339D03*
X0801668Y0158937D03*
X0781377Y0158937D03*
X0781377Y0146339D03*
X0742613Y0146339D03*
X0742613Y0158937D03*
X0722322Y0158937D03*
X0722322Y0146339D03*
X0683558Y0146339D03*
X0683558Y0158937D03*
X0663266Y0158937D03*
X0663266Y0146339D03*
X0624503Y0146339D03*
X0624503Y0158937D03*
X0604211Y0158937D03*
X0604211Y0146339D03*
X0565448Y0146339D03*
X0565448Y0158937D03*
X0545156Y0158937D03*
X0545156Y0146339D03*
X0506392Y0146339D03*
X0506392Y0158937D03*
X0486101Y0158937D03*
X0486101Y0146339D03*
X0447337Y0146339D03*
X0447337Y0158937D03*
X0427046Y0158937D03*
X0427046Y0146339D03*
X0388282Y0146339D03*
X0388282Y0158937D03*
X0367991Y0158937D03*
X0367991Y0146339D03*
X0367991Y0205394D03*
X0367991Y0217992D03*
X0388282Y0217992D03*
X0388282Y0205394D03*
X0427046Y0205394D03*
X0427046Y0217992D03*
X0447337Y0217992D03*
X0447337Y0205394D03*
X0486101Y0205394D03*
X0486101Y0217992D03*
X0506392Y0217992D03*
X0506392Y0205394D03*
X0545156Y0205394D03*
X0545156Y0217992D03*
X0565448Y0217992D03*
X0565448Y0205394D03*
X0604211Y0205394D03*
X0604211Y0217992D03*
X0624503Y0217992D03*
X0624503Y0205394D03*
X0663266Y0205394D03*
X0663266Y0217992D03*
X0683558Y0217992D03*
X0683558Y0205394D03*
X0722322Y0205394D03*
X0722322Y0217992D03*
X0742613Y0217992D03*
X0742613Y0205394D03*
X0781377Y0205394D03*
X0781377Y0217992D03*
X0801668Y0217992D03*
X0801668Y0205394D03*
X0840432Y0205394D03*
X0840432Y0217992D03*
X0860723Y0217992D03*
X0860723Y0205394D03*
X0899487Y0205394D03*
X0899487Y0217992D03*
X0919778Y0217992D03*
X0919778Y0205394D03*
X0958542Y0205394D03*
X0958542Y0217992D03*
X0978833Y0217992D03*
X0978833Y0205394D03*
X1017597Y0205394D03*
X1017597Y0217992D03*
X1037888Y0217992D03*
X1037888Y0205394D03*
X1076652Y0205394D03*
X1076652Y0217992D03*
X1096944Y0217992D03*
X1096944Y0205394D03*
X1135707Y0205394D03*
X1135707Y0217992D03*
X1155999Y0217992D03*
X1155999Y0205394D03*
X1194762Y0205394D03*
X1194762Y0217992D03*
X1215054Y0217992D03*
X1215054Y0205394D03*
X1253818Y0205394D03*
X1253818Y0217992D03*
X1274109Y0217992D03*
X1274109Y0205394D03*
X1274109Y0158937D03*
X1274109Y0146339D03*
X1253818Y0146339D03*
X1253818Y0158937D03*
X1253818Y0264449D03*
X1253818Y0277047D03*
X1274109Y0277047D03*
X1274109Y0264449D03*
X1215054Y0264449D03*
X1215054Y0277047D03*
X1194762Y0277047D03*
X1194762Y0264449D03*
X1155999Y0264449D03*
X1155999Y0277047D03*
X1135707Y0277047D03*
X1135707Y0264449D03*
X1096944Y0264449D03*
X1096944Y0277047D03*
X1076652Y0277047D03*
X1076652Y0264449D03*
X1037888Y0264449D03*
X1037888Y0277047D03*
X1017597Y0277047D03*
X1017597Y0264449D03*
X0978833Y0264449D03*
X0978833Y0277047D03*
X0958542Y0277047D03*
X0958542Y0264449D03*
X0919778Y0264449D03*
X0919778Y0277047D03*
X0899487Y0277047D03*
X0899487Y0264449D03*
X0860723Y0264449D03*
X0860723Y0277047D03*
X0840432Y0277047D03*
X0840432Y0264449D03*
X0801668Y0264449D03*
X0801668Y0277047D03*
X0781377Y0277047D03*
X0781377Y0264449D03*
X0742613Y0264449D03*
X0742613Y0277047D03*
X0722322Y0277047D03*
X0722322Y0264449D03*
X0683558Y0264449D03*
X0683558Y0277047D03*
X0663266Y0277047D03*
X0663266Y0264449D03*
X0624503Y0264449D03*
X0624503Y0277047D03*
X0604211Y0277047D03*
X0604211Y0264449D03*
X0565448Y0264449D03*
X0565448Y0277047D03*
X0545156Y0277047D03*
X0545156Y0264449D03*
X0506392Y0264449D03*
X0506392Y0277047D03*
X0486101Y0277047D03*
X0486101Y0264449D03*
X0447337Y0264449D03*
X0447337Y0277047D03*
X0427046Y0277047D03*
X0427046Y0264449D03*
X0388282Y0264449D03*
X0388282Y0277047D03*
X0367991Y0277047D03*
X0367991Y0264449D03*
X0329227Y0264449D03*
X0329227Y0277047D03*
X0308936Y0277047D03*
X0308936Y0264449D03*
X0270172Y0264449D03*
X0270172Y0277047D03*
X0249881Y0277047D03*
X0249881Y0264449D03*
X0211117Y0264449D03*
X0211117Y0277047D03*
X0190825Y0277047D03*
X0190825Y0264449D03*
X0152062Y0264449D03*
X0152062Y0277047D03*
X0131770Y0277047D03*
X0131770Y0264449D03*
X0093007Y0264449D03*
X0093007Y0277047D03*
X0072715Y0277047D03*
X0072715Y0264449D03*
X0131770Y0217992D03*
X0131770Y0205394D03*
X0152062Y0205394D03*
X0152062Y0217992D03*
X0190825Y0217992D03*
X0190825Y0205394D03*
X0211117Y0205394D03*
X0211117Y0217992D03*
X0249881Y0217992D03*
X0249881Y0205394D03*
X0270172Y0205394D03*
X0270172Y0217992D03*
X0308936Y0217992D03*
X0308936Y0205394D03*
X0329227Y0205394D03*
X0329227Y0217992D03*
X0329227Y0323504D03*
X0329227Y0336102D03*
X0308936Y0336102D03*
X0308936Y0323504D03*
X0270172Y0323504D03*
X0270172Y0336102D03*
X0249881Y0336102D03*
X0249881Y0323504D03*
X0211117Y0323504D03*
X0211117Y0336102D03*
X0190825Y0336102D03*
X0190825Y0323504D03*
X0152062Y0323504D03*
X0152062Y0336102D03*
X0131770Y0336102D03*
X0131770Y0323504D03*
X0093007Y0323504D03*
X0093007Y0336102D03*
X0072715Y0336102D03*
X0072715Y0323504D03*
X0072715Y0382559D03*
X0072715Y0395157D03*
X0093007Y0395157D03*
X0093007Y0382559D03*
X0131770Y0382559D03*
X0131770Y0395157D03*
X0152062Y0395157D03*
X0152062Y0382559D03*
X0190825Y0382559D03*
X0190825Y0395157D03*
X0211117Y0395157D03*
X0211117Y0382559D03*
X0249881Y0382559D03*
X0249881Y0395157D03*
X0270172Y0395157D03*
X0270172Y0382559D03*
X0308936Y0382559D03*
X0308936Y0395157D03*
X0329227Y0395157D03*
X0329227Y0382559D03*
X0367991Y0382559D03*
X0367991Y0395157D03*
X0388282Y0395157D03*
X0388282Y0382559D03*
X0427046Y0382559D03*
X0427046Y0395157D03*
X0447337Y0395157D03*
X0447337Y0382559D03*
X0486101Y0382559D03*
X0486101Y0395157D03*
X0506392Y0395157D03*
X0506392Y0382559D03*
X0545156Y0382559D03*
X0545156Y0395157D03*
X0565448Y0395157D03*
X0565448Y0382559D03*
X0604211Y0382559D03*
X0604211Y0395157D03*
X0624503Y0395157D03*
X0624503Y0382559D03*
X0663266Y0382559D03*
X0663266Y0395157D03*
X0683558Y0395157D03*
X0683558Y0382559D03*
X0722322Y0382559D03*
X0722322Y0395157D03*
X0742613Y0395157D03*
X0742613Y0382559D03*
X0781377Y0382559D03*
X0781377Y0395157D03*
X0801668Y0395157D03*
X0801668Y0382559D03*
X0840432Y0382559D03*
X0840432Y0395157D03*
X0860723Y0395157D03*
X0860723Y0382559D03*
X0899487Y0382559D03*
X0899487Y0395157D03*
X0919778Y0395157D03*
X0919778Y0382559D03*
X0958542Y0382559D03*
X0958542Y0395157D03*
X0978833Y0395157D03*
X0978833Y0382559D03*
X1017597Y0382559D03*
X1017597Y0395157D03*
X1037888Y0395157D03*
X1037888Y0382559D03*
X1076652Y0382559D03*
X1076652Y0395157D03*
X1096944Y0395157D03*
X1096944Y0382559D03*
X1135707Y0382559D03*
X1135707Y0395157D03*
X1155999Y0395157D03*
X1155999Y0382559D03*
X1194762Y0382559D03*
X1194762Y0395157D03*
X1215054Y0395157D03*
X1215054Y0382559D03*
X1253818Y0382559D03*
X1253818Y0395157D03*
X1274109Y0395157D03*
X1274109Y0382559D03*
X1274109Y0336102D03*
X1274109Y0323504D03*
X1253818Y0323504D03*
X1253818Y0336102D03*
X1215054Y0336102D03*
X1215054Y0323504D03*
X1194762Y0323504D03*
X1194762Y0336102D03*
X1155999Y0336102D03*
X1155999Y0323504D03*
X1135707Y0323504D03*
X1135707Y0336102D03*
X1096944Y0336102D03*
X1096944Y0323504D03*
X1076652Y0323504D03*
X1076652Y0336102D03*
X1037888Y0336102D03*
X1037888Y0323504D03*
X1017597Y0323504D03*
X1017597Y0336102D03*
X0978833Y0336102D03*
X0978833Y0323504D03*
X0958542Y0323504D03*
X0958542Y0336102D03*
X0919778Y0336102D03*
X0919778Y0323504D03*
X0899487Y0323504D03*
X0899487Y0336102D03*
X0860723Y0336102D03*
X0860723Y0323504D03*
X0840432Y0323504D03*
X0840432Y0336102D03*
X0801668Y0336102D03*
X0801668Y0323504D03*
X0781377Y0323504D03*
X0781377Y0336102D03*
X0742613Y0336102D03*
X0742613Y0323504D03*
X0722322Y0323504D03*
X0722322Y0336102D03*
X0683558Y0336102D03*
X0683558Y0323504D03*
X0663266Y0323504D03*
X0663266Y0336102D03*
X0624503Y0336102D03*
X0624503Y0323504D03*
X0604211Y0323504D03*
X0604211Y0336102D03*
X0565448Y0336102D03*
X0565448Y0323504D03*
X0545156Y0323504D03*
X0545156Y0336102D03*
X0506392Y0336102D03*
X0506392Y0323504D03*
X0486101Y0323504D03*
X0486101Y0336102D03*
X0447337Y0336102D03*
X0447337Y0323504D03*
X0427046Y0323504D03*
X0427046Y0336102D03*
X0388282Y0336102D03*
X0388282Y0323504D03*
X0367991Y0323504D03*
X0367991Y0336102D03*
X0367991Y0441614D03*
X0367991Y0454213D03*
X0388282Y0454213D03*
X0388282Y0441614D03*
X0427046Y0441614D03*
X0427046Y0454213D03*
X0447337Y0454213D03*
X0447337Y0441614D03*
X0486101Y0441614D03*
X0486101Y0454213D03*
X0506392Y0454213D03*
X0506392Y0441614D03*
X0545156Y0441614D03*
X0545156Y0454213D03*
X0565448Y0454213D03*
X0565448Y0441614D03*
X0604211Y0441614D03*
X0604211Y0454213D03*
X0624503Y0454213D03*
X0624503Y0441614D03*
X0663266Y0441614D03*
X0663266Y0454213D03*
X0683558Y0454213D03*
X0683558Y0441614D03*
X0722322Y0441614D03*
X0722322Y0454213D03*
X0742613Y0454213D03*
X0742613Y0441614D03*
X0781377Y0441614D03*
X0781377Y0454213D03*
X0801668Y0454213D03*
X0801668Y0441614D03*
X0840432Y0441614D03*
X0840432Y0454213D03*
X0860723Y0454213D03*
X0860723Y0441614D03*
X0899487Y0441614D03*
X0899487Y0454213D03*
X0919778Y0454213D03*
X0919778Y0441614D03*
X0958542Y0441614D03*
X0958542Y0454213D03*
X0978833Y0454213D03*
X0978833Y0441614D03*
X1017597Y0441614D03*
X1017597Y0454213D03*
X1037888Y0454213D03*
X1037888Y0441614D03*
X1076652Y0441614D03*
X1076652Y0454213D03*
X1096944Y0454213D03*
X1096944Y0441614D03*
X1135707Y0441614D03*
X1135707Y0454213D03*
X1155999Y0454213D03*
X1155999Y0441614D03*
X1194762Y0441614D03*
X1194762Y0454213D03*
X1215054Y0454213D03*
X1215054Y0441614D03*
X1253818Y0441614D03*
X1253818Y0454213D03*
X1274109Y0454213D03*
X1274109Y0441614D03*
X1274109Y0500669D03*
X1274109Y0513268D03*
X1253818Y0513268D03*
X1253818Y0500669D03*
X1215054Y0500669D03*
X1215054Y0513268D03*
X1194762Y0513268D03*
X1194762Y0500669D03*
X1155999Y0500669D03*
X1155999Y0513268D03*
X1135707Y0513268D03*
X1135707Y0500669D03*
X1096944Y0500669D03*
X1096944Y0513268D03*
X1076652Y0513268D03*
X1076652Y0500669D03*
X1037888Y0500669D03*
X1037888Y0513268D03*
X1017597Y0513268D03*
X1017597Y0500669D03*
X0978833Y0500669D03*
X0978833Y0513268D03*
X0958542Y0513268D03*
X0958542Y0500669D03*
X0919778Y0500669D03*
X0919778Y0513268D03*
X0899487Y0513268D03*
X0899487Y0500669D03*
X0860723Y0500669D03*
X0860723Y0513268D03*
X0840432Y0513268D03*
X0840432Y0500669D03*
X0801668Y0500669D03*
X0801668Y0513268D03*
X0781377Y0513268D03*
X0781377Y0500669D03*
X0742613Y0500669D03*
X0742613Y0513268D03*
X0722322Y0513268D03*
X0722322Y0500669D03*
X0683558Y0500669D03*
X0683558Y0513268D03*
X0663266Y0513268D03*
X0663266Y0500669D03*
X0624503Y0500669D03*
X0624503Y0513268D03*
X0604211Y0513268D03*
X0604211Y0500669D03*
X0565448Y0500669D03*
X0565448Y0513268D03*
X0545156Y0513268D03*
X0545156Y0500669D03*
X0506392Y0500669D03*
X0506392Y0513268D03*
X0486101Y0513268D03*
X0486101Y0500669D03*
X0447337Y0500669D03*
X0447337Y0513268D03*
X0427046Y0513268D03*
X0427046Y0500669D03*
X0388282Y0500669D03*
X0388282Y0513268D03*
X0367991Y0513268D03*
X0367991Y0500669D03*
X0329227Y0500669D03*
X0329227Y0513268D03*
X0308936Y0513268D03*
X0308936Y0500669D03*
X0270172Y0500669D03*
X0270172Y0513268D03*
X0249881Y0513268D03*
X0249881Y0500669D03*
X0211117Y0500669D03*
X0211117Y0513268D03*
X0190825Y0513268D03*
X0190825Y0500669D03*
X0152062Y0500669D03*
X0152062Y0513268D03*
X0131770Y0513268D03*
X0131770Y0500669D03*
X0093007Y0500669D03*
X0093007Y0513268D03*
X0072715Y0513268D03*
X0072715Y0500669D03*
X0072715Y0454213D03*
X0072715Y0441614D03*
X0093007Y0441614D03*
X0093007Y0454213D03*
X0131770Y0454213D03*
X0131770Y0441614D03*
X0152062Y0441614D03*
X0152062Y0454213D03*
X0190825Y0454213D03*
X0190825Y0441614D03*
X0211117Y0441614D03*
X0211117Y0454213D03*
X0249881Y0454213D03*
X0249881Y0441614D03*
X0270172Y0441614D03*
X0270172Y0454213D03*
X0308936Y0454213D03*
X0308936Y0441614D03*
X0329227Y0441614D03*
X0329227Y0454213D03*
X0329227Y0559724D03*
X0329227Y0572323D03*
X0308936Y0572323D03*
X0308936Y0559724D03*
X0270172Y0559724D03*
X0270172Y0572323D03*
X0249881Y0572323D03*
X0249881Y0559724D03*
X0211117Y0559724D03*
X0211117Y0572323D03*
X0190825Y0572323D03*
X0190825Y0559724D03*
X0152062Y0559724D03*
X0152062Y0572323D03*
X0131770Y0572323D03*
X0131770Y0559724D03*
X0093007Y0559724D03*
X0093007Y0572323D03*
X0072715Y0572323D03*
X0072715Y0559724D03*
X0072715Y0618780D03*
X0072715Y0631378D03*
X0093007Y0631378D03*
X0093007Y0618780D03*
X0131770Y0618780D03*
X0131770Y0631378D03*
X0152062Y0631378D03*
X0152062Y0618780D03*
X0190825Y0618780D03*
X0190825Y0631378D03*
X0211117Y0631378D03*
X0211117Y0618780D03*
X0249881Y0618780D03*
X0249881Y0631378D03*
X0270172Y0631378D03*
X0270172Y0618780D03*
X0308936Y0618780D03*
X0308936Y0631378D03*
X0329227Y0631378D03*
X0329227Y0618780D03*
X0367991Y0618780D03*
X0367991Y0631378D03*
X0388282Y0631378D03*
X0388282Y0618780D03*
X0427046Y0618780D03*
X0427046Y0631378D03*
X0447337Y0631378D03*
X0447337Y0618780D03*
X0486101Y0618780D03*
X0486101Y0631378D03*
X0506392Y0631378D03*
X0506392Y0618780D03*
X0545156Y0618780D03*
X0545156Y0631378D03*
X0565448Y0631378D03*
X0565448Y0618780D03*
X0604211Y0618780D03*
X0604211Y0631378D03*
X0624503Y0631378D03*
X0624503Y0618780D03*
X0663266Y0618780D03*
X0663266Y0631378D03*
X0683558Y0631378D03*
X0683558Y0618780D03*
X0722322Y0618780D03*
X0722322Y0631378D03*
X0742613Y0631378D03*
X0742613Y0618780D03*
X0781377Y0618780D03*
X0781377Y0631378D03*
X0801668Y0631378D03*
X0801668Y0618780D03*
X0840432Y0618780D03*
X0840432Y0631378D03*
X0860723Y0631378D03*
X0860723Y0618780D03*
X0899487Y0618780D03*
X0899487Y0631378D03*
X0919778Y0631378D03*
X0919778Y0618780D03*
X0958542Y0618780D03*
X0958542Y0631378D03*
X0978833Y0631378D03*
X0978833Y0618780D03*
X1017597Y0618780D03*
X1017597Y0631378D03*
X1037888Y0631378D03*
X1037888Y0618780D03*
X1076652Y0618780D03*
X1076652Y0631378D03*
X1096944Y0631378D03*
X1096944Y0618780D03*
X1135707Y0618780D03*
X1135707Y0631378D03*
X1155999Y0631378D03*
X1155999Y0618780D03*
X1194762Y0618780D03*
X1194762Y0631378D03*
X1215054Y0631378D03*
X1215054Y0618780D03*
X1253818Y0618780D03*
X1253818Y0631378D03*
X1274109Y0631378D03*
X1274109Y0618780D03*
X1274109Y0572323D03*
X1274109Y0559724D03*
X1253818Y0559724D03*
X1253818Y0572323D03*
X1215054Y0572323D03*
X1215054Y0559724D03*
X1194762Y0559724D03*
X1194762Y0572323D03*
X1155999Y0572323D03*
X1155999Y0559724D03*
X1135707Y0559724D03*
X1135707Y0572323D03*
X1096944Y0572323D03*
X1096944Y0559724D03*
X1076652Y0559724D03*
X1076652Y0572323D03*
X1037888Y0572323D03*
X1037888Y0559724D03*
X1017597Y0559724D03*
X1017597Y0572323D03*
X0978833Y0572323D03*
X0978833Y0559724D03*
X0958542Y0559724D03*
X0958542Y0572323D03*
X0919778Y0572323D03*
X0919778Y0559724D03*
X0899487Y0559724D03*
X0899487Y0572323D03*
X0860723Y0572323D03*
X0860723Y0559724D03*
X0840432Y0559724D03*
X0840432Y0572323D03*
X0801668Y0572323D03*
X0801668Y0559724D03*
X0781377Y0559724D03*
X0781377Y0572323D03*
X0742613Y0572323D03*
X0742613Y0559724D03*
X0722322Y0559724D03*
X0722322Y0572323D03*
X0683558Y0572323D03*
X0683558Y0559724D03*
X0663266Y0559724D03*
X0663266Y0572323D03*
X0624503Y0572323D03*
X0624503Y0559724D03*
X0604211Y0559724D03*
X0604211Y0572323D03*
X0565448Y0572323D03*
X0565448Y0559724D03*
X0545156Y0559724D03*
X0545156Y0572323D03*
X0506392Y0572323D03*
X0506392Y0559724D03*
X0486101Y0559724D03*
X0486101Y0572323D03*
X0447337Y0572323D03*
X0447337Y0559724D03*
X0427046Y0559724D03*
X0427046Y0572323D03*
X0388282Y0572323D03*
X0388282Y0559724D03*
X0367991Y0559724D03*
X0367991Y0572323D03*
X0367991Y0677835D03*
X0367991Y0690433D03*
X0388282Y0690433D03*
X0388282Y0677835D03*
X0427046Y0677835D03*
X0427046Y0690433D03*
X0447337Y0690433D03*
X0447337Y0677835D03*
X0486101Y0677835D03*
X0486101Y0690433D03*
X0506392Y0690433D03*
X0506392Y0677835D03*
X0545156Y0677835D03*
X0545156Y0690433D03*
X0565448Y0690433D03*
X0565448Y0677835D03*
X0604211Y0677835D03*
X0604211Y0690433D03*
X0624503Y0690433D03*
X0624503Y0677835D03*
X0663266Y0677835D03*
X0663266Y0690433D03*
X0683558Y0690433D03*
X0683558Y0677835D03*
X0722322Y0677835D03*
X0722322Y0690433D03*
X0742613Y0690433D03*
X0742613Y0677835D03*
X0781377Y0677835D03*
X0781377Y0690433D03*
X0801668Y0690433D03*
X0801668Y0677835D03*
X0840432Y0677835D03*
X0840432Y0690433D03*
X0860723Y0690433D03*
X0860723Y0677835D03*
X0899487Y0677835D03*
X0899487Y0690433D03*
X0919778Y0690433D03*
X0919778Y0677835D03*
X0958542Y0677835D03*
X0958542Y0690433D03*
X0978833Y0690433D03*
X0978833Y0677835D03*
X1017597Y0677835D03*
X1017597Y0690433D03*
X1037888Y0690433D03*
X1037888Y0677835D03*
X1076652Y0677835D03*
X1076652Y0690433D03*
X1096944Y0690433D03*
X1096944Y0677835D03*
X1135707Y0677835D03*
X1135707Y0690433D03*
X1155999Y0690433D03*
X1155999Y0677835D03*
X1194762Y0677835D03*
X1194762Y0690433D03*
X1215054Y0690433D03*
X1215054Y0677835D03*
X1253818Y0677835D03*
X1253818Y0690433D03*
X1274109Y0690433D03*
X1274109Y0677835D03*
X1274109Y0736890D03*
X1274109Y0749488D03*
X1253818Y0749488D03*
X1253818Y0736890D03*
X1215054Y0736890D03*
X1215054Y0749488D03*
X1194762Y0749488D03*
X1194762Y0736890D03*
X1155999Y0736890D03*
X1155999Y0749488D03*
X1135707Y0749488D03*
X1135707Y0736890D03*
X1096944Y0736890D03*
X1096944Y0749488D03*
X1076652Y0749488D03*
X1076652Y0736890D03*
X1037888Y0736890D03*
X1037888Y0749488D03*
X1017597Y0749488D03*
X1017597Y0736890D03*
X0978833Y0736890D03*
X0978833Y0749488D03*
X0958542Y0749488D03*
X0958542Y0736890D03*
X0919778Y0736890D03*
X0919778Y0749488D03*
X0899487Y0749488D03*
X0899487Y0736890D03*
X0860723Y0736890D03*
X0860723Y0749488D03*
X0840432Y0749488D03*
X0840432Y0736890D03*
X0801668Y0736890D03*
X0801668Y0749488D03*
X0781377Y0749488D03*
X0781377Y0736890D03*
X0742613Y0736890D03*
X0742613Y0749488D03*
X0722322Y0749488D03*
X0722322Y0736890D03*
X0683558Y0736890D03*
X0683558Y0749488D03*
X0663266Y0749488D03*
X0663266Y0736890D03*
X0624503Y0736890D03*
X0624503Y0749488D03*
X0604211Y0749488D03*
X0604211Y0736890D03*
X0565448Y0736890D03*
X0565448Y0749488D03*
X0545156Y0749488D03*
X0545156Y0736890D03*
X0506392Y0736890D03*
X0506392Y0749488D03*
X0486101Y0749488D03*
X0486101Y0736890D03*
X0447337Y0736890D03*
X0447337Y0749488D03*
X0427046Y0749488D03*
X0427046Y0736890D03*
X0388282Y0736890D03*
X0388282Y0749488D03*
X0367991Y0749488D03*
X0367991Y0736890D03*
X0329227Y0736890D03*
X0329227Y0749488D03*
X0308936Y0749488D03*
X0308936Y0736890D03*
X0270172Y0736890D03*
X0270172Y0749488D03*
X0249881Y0749488D03*
X0249881Y0736890D03*
X0211117Y0736890D03*
X0211117Y0749488D03*
X0190825Y0749488D03*
X0190825Y0736890D03*
X0152062Y0736890D03*
X0152062Y0749488D03*
X0131770Y0749488D03*
X0131770Y0736890D03*
X0093007Y0736890D03*
X0093007Y0749488D03*
X0072715Y0749488D03*
X0072715Y0736890D03*
X0072715Y0690433D03*
X0072715Y0677835D03*
X0093007Y0677835D03*
X0093007Y0690433D03*
X0131770Y0690433D03*
X0131770Y0677835D03*
X0152062Y0677835D03*
X0152062Y0690433D03*
X0190825Y0690433D03*
X0190825Y0677835D03*
X0211117Y0677835D03*
X0211117Y0690433D03*
X0249881Y0690433D03*
X0249881Y0677835D03*
X0270172Y0677835D03*
X0270172Y0690433D03*
X0308936Y0690433D03*
X0308936Y0677835D03*
X0329227Y0677835D03*
X0329227Y0690433D03*
X0329227Y0795945D03*
X0329227Y0808543D03*
X0308936Y0808543D03*
X0308936Y0795945D03*
X0270172Y0795945D03*
X0270172Y0808543D03*
X0249881Y0808543D03*
X0249881Y0795945D03*
X0211117Y0795945D03*
X0211117Y0808543D03*
X0190825Y0808543D03*
X0190825Y0795945D03*
X0152062Y0795945D03*
X0152062Y0808543D03*
X0131770Y0808543D03*
X0131770Y0795945D03*
X0367991Y0795945D03*
X0367991Y0808543D03*
X0388282Y0808543D03*
X0388282Y0795945D03*
X0427046Y0795945D03*
X0427046Y0808543D03*
X0447337Y0808543D03*
X0447337Y0795945D03*
X0486101Y0795945D03*
X0486101Y0808543D03*
X0506392Y0808543D03*
X0506392Y0795945D03*
X0545156Y0795945D03*
X0545156Y0808543D03*
X0565448Y0808543D03*
X0565448Y0795945D03*
X0604211Y0795945D03*
X0604211Y0808543D03*
X0624503Y0808543D03*
X0624503Y0795945D03*
X0663266Y0795945D03*
X0663266Y0808543D03*
X0683558Y0808543D03*
X0683558Y0795945D03*
X0707558Y0795945D03*
X0707558Y0808543D03*
X0727849Y0808543D03*
X0727849Y0795945D03*
X0781377Y0795945D03*
X0781377Y0808543D03*
X0801668Y0808543D03*
X0801668Y0795945D03*
X0840432Y0795945D03*
X0840432Y0808543D03*
X0860723Y0808543D03*
X0860723Y0795945D03*
X0899487Y0795945D03*
X0899487Y0808543D03*
X0919778Y0808543D03*
X0919778Y0795945D03*
X0958542Y0795945D03*
X0958542Y0808543D03*
X0978833Y0808543D03*
X0978833Y0795945D03*
X1017597Y0795945D03*
X1017597Y0808543D03*
X1037888Y0808543D03*
X1037888Y0795945D03*
X1076652Y0795945D03*
X1076652Y0808543D03*
X1096944Y0808543D03*
X1096944Y0795945D03*
X1135707Y0795945D03*
X1135707Y0808543D03*
X1155999Y0808543D03*
X1155999Y0795945D03*
X1194762Y0795945D03*
X1194762Y0808543D03*
X1215054Y0808543D03*
X1215054Y0795945D03*
M02*
