M48
;GenerationSoftware,Autodesk,EAGLE,9.5.2*%
;CreationDate,2020-03-16T22:28:28Z*%
FMAT,2
ICI,OFF
METRIC,TZ,000.000
T5C0.381
T4C0.650
T3C0.900
T2C1.200
T1C3.302
%
G90
M71
T1
X7500Y190250
X309000Y7500
X7500Y7500
X176073Y190250
X140427Y7500
X309000Y190250
T2
X322900Y24100
X315900Y24100
T3
X12700Y17520
T4
X320460Y38553
X320460Y44333
T5
X30322Y6985
X28798Y7112
X38704Y11557
X38450Y15002
X28086Y15252
X16238Y12927
X20396Y15277
X9681Y11049
X18588Y19426
X12920Y20360
X12770Y15600
X20120Y17870
X24011Y15258
X27240Y18370
X30780Y15870
X313350Y42800
X313350Y40300
X51350Y16952
X50204Y10557
X51350Y14952
X4900Y175850
X9600Y175950
X4900Y161100
X10200Y161100
X5000Y146250
X9950Y146250
X5000Y131150
X9900Y131100
X4950Y116200
X9800Y116200
X4900Y101300
X10100Y101550
X4900Y86350
X10100Y86350
X4950Y71500
X9800Y71500
X4900Y56750
X10050Y56750
X4950Y41350
X10300Y41350
X22448Y1905
X26032Y5306
X17368Y9525
X12780Y4445
X25000Y184500
X40000Y184500
X55000Y184500
X70000Y184500
X85000Y184500
X100000Y184500
X115000Y184500
X130000Y184500
X145000Y184500
X190000Y184500
X205000Y184500
X220000Y184500
X235000Y184500
X250000Y184500
X265000Y184500
X310000Y169500
X295000Y169500
X280000Y169500
X265000Y169500
X250000Y169500
X235000Y169500
X220000Y169500
X205000Y169500
X190000Y169500
X175000Y169500
X160000Y169500
X145000Y169500
X130000Y169500
X115000Y169500
X100000Y169500
X85000Y169500
X70000Y169500
X55000Y169500
X40000Y169500
X25000Y169500
X10000Y167000
X280000Y184500
X295000Y184500
X10000Y152000
X25000Y154500
X40000Y154500
X55000Y154500
X70000Y154500
X85000Y154500
X100000Y154500
X115000Y154500
X130000Y154500
X145000Y154500
X160000Y154500
X175000Y154500
X190000Y154500
X205000Y154500
X220000Y154500
X235000Y154500
X250000Y154500
X265000Y154500
X280000Y154500
X295000Y154500
X310000Y154500
X310000Y139500
X295000Y139500
X280000Y139500
X265000Y139500
X250000Y139500
X235000Y139500
X220000Y139500
X205000Y139500
X190000Y139500
X175000Y139500
X160000Y139500
X145000Y139500
X130000Y139500
X115000Y139500
X100000Y139500
X85000Y139500
X70000Y139500
X55000Y139500
X40000Y139500
X25000Y139500
X10000Y138750
X10000Y124000
X25000Y124000
X40000Y124500
X55000Y124500
X70000Y124500
X85000Y124500
X100000Y124500
X115000Y124500
X130000Y124500
X145000Y124500
X160000Y124500
X175000Y124500
X190000Y124500
X205000Y124500
X220000Y124500
X235000Y124500
X250000Y124500
X265000Y124500
X280000Y124500
X295000Y124500
X310000Y124500
X310000Y109500
X295000Y109500
X280000Y109500
X265000Y109500
X250000Y109500
X235000Y109500
X220000Y109500
X205000Y109500
X190000Y109500
X175000Y109500
X160000Y109500
X145000Y109500
X130000Y109500
X115000Y109500
X100000Y109500
X85000Y109500
X70000Y109500
X55000Y109500
X40000Y109500
X25000Y109500
X10000Y109500
X10000Y94500
X25000Y94500
X40000Y94500
X55000Y94500
X70000Y94500
X85000Y94500
X100000Y94500
X115000Y94500
X130000Y94500
X145000Y94500
X160000Y94500
X175000Y94500
X190000Y94500
X205000Y94500
X220000Y94500
X235000Y94500
X250000Y94500
X265000Y94500
X280000Y94500
X295000Y94500
X310000Y94500
X10000Y79500
X25000Y79500
X40000Y79500
X55000Y79500
X70000Y79500
X85000Y79500
X100000Y79500
X115000Y79500
X130000Y79500
X145000Y79500
X160000Y79500
X175000Y79500
X190000Y79500
X205000Y79500
X220000Y79500
X235000Y79500
X250000Y79500
X265000Y79500
X280000Y79500
X295000Y79500
X310000Y79500
X10000Y64500
X25000Y64500
X40000Y64500
X55000Y64500
X70000Y64500
X85000Y64500
X100000Y64500
X115000Y64500
X130000Y64500
X145000Y64500
X160000Y64500
X175000Y64500
X190000Y64500
X205000Y64500
X220000Y64500
X235000Y64500
X250000Y64500
X265000Y64500
X280000Y64500
X295000Y64500
X310000Y64500
X295000Y49500
X280000Y49500
X265000Y49500
X250000Y49500
X235000Y49500
X220000Y49500
X205000Y49500
X190000Y49500
X175000Y49500
X160000Y49500
X145000Y49500
X130000Y49500
X115000Y49500
X100000Y49500
X85000Y49500
X70000Y49500
X55000Y49500
X40000Y49500
X25000Y49500
X10000Y49500
X25000Y34500
X40000Y34500
X55000Y34500
X70000Y34500
X85000Y34500
X100000Y34500
X115000Y34500
X130000Y34500
X145000Y34500
X160000Y34500
X175000Y34500
X190000Y34500
X205000Y34500
X220000Y34500
X235000Y34500
X250000Y34500
X265000Y34500
X280000Y34500
X295000Y34500
X310000Y19500
X295000Y19500
X280000Y19500
X265000Y19500
X3900Y17970
X235000Y19500
X220000Y19500
X205000Y19500
X190000Y19500
X175000Y19500
X160000Y19500
X145000Y19500
X130000Y19500
X115000Y19500
X100000Y19500
X85000Y19500
X130000Y4500
X115000Y4500
X100000Y4500
X85000Y4500
X175000Y4500
X191250Y4500
X205000Y4500
X220000Y4500
X235000Y4500
X250000Y4500
X265000Y4500
X280000Y4500
X295000Y4500
X306500Y42500
X310000Y49500
X308500Y42500
X307500Y42500
X306000Y33000
X307000Y33000
X308000Y33000
X309000Y33000
X309500Y42500
X310000Y34500
X10000Y34500
X72050Y20900
X55000Y22000
X8500Y21500
X25500Y22000
X70000Y4000
X23083Y3810
X22321Y6985
X27560Y9144
X37180Y5715
X34640Y7620
X30060Y10160
X250000Y19500
X317807Y41045
X750Y40000
X23850Y27150
X14950Y27100
X297500Y190000
X7500Y170000
X307500Y175000
X7500Y155000
X7500Y140000
X307500Y160000
X307500Y145000
X7500Y125000
X7500Y110000
X307500Y130000
X7500Y95000
X307500Y115000
X7500Y80000
X307500Y100000
X307500Y85000
X7500Y65000
X7500Y50000
X307500Y70000
X307500Y55000
X7500Y35350
X28400Y39100
X31600Y35900
X3500Y22000
X307500Y40000
X10000Y28500
X67500Y17250
X17500Y21000
X12383Y21117
X43000Y22000
X28500Y23500
X308000Y25000
X67000Y5500
X21305Y8382
X15290Y14830
X53050Y19844
X21305Y16150
X28500Y16500
X316000Y27500
X314000Y12000
X31330Y12457
X48737Y17031
X8587Y17716
X317807Y42545
M30