G04 EAGLE Gerber RS-274X export*
G75*
%MOMM*%
%FSLAX34Y34*%
%LPD*%
%INSolderpaste Top*%
%IPPOS*%
%AMOC8*
5,1,8,0,0,1.08239X$1,22.5*%
G01*
%ADD10R,1.100000X1.000000*%
%ADD11R,0.300000X0.660000*%
%ADD12R,1.000000X1.100000*%
%ADD13R,0.900000X1.000000*%
%ADD14R,0.900000X1.500000*%
%ADD15R,1.500000X0.900000*%
%ADD16R,6.000000X6.000000*%
%ADD17R,1.200000X0.550000*%
%ADD18R,1.016000X0.300000*%
%ADD19R,1.016000X0.600000*%
%ADD20R,1.016000X0.550000*%
%ADD21R,1.200000X2.500000*%
%ADD22C,0.030000*%
%ADD23C,0.700000*%
%ADD24C,0.900000*%
%ADD25R,1.651000X1.000000*%

G36*
X3215205Y267154D02*
X3215205Y267154D01*
X3215208Y267151D01*
X3216475Y267356D01*
X3216481Y267362D01*
X3216486Y267359D01*
X3217675Y267841D01*
X3217679Y267848D01*
X3217685Y267846D01*
X3218738Y268580D01*
X3218740Y268588D01*
X3218746Y268587D01*
X3219609Y269537D01*
X3219610Y269546D01*
X3219615Y269546D01*
X3220245Y270665D01*
X3220244Y270673D01*
X3220250Y270675D01*
X3220615Y271905D01*
X3220612Y271912D01*
X3220616Y271915D01*
X3220615Y271915D01*
X3220617Y271916D01*
X3220699Y273197D01*
X3220697Y273201D01*
X3220699Y273203D01*
X3220617Y274484D01*
X3220611Y274490D01*
X3220615Y274495D01*
X3220250Y275725D01*
X3220243Y275730D01*
X3220245Y275735D01*
X3219615Y276854D01*
X3219608Y276857D01*
X3219609Y276863D01*
X3218746Y277813D01*
X3218738Y277814D01*
X3218738Y277820D01*
X3217685Y278554D01*
X3217677Y278554D01*
X3217675Y278559D01*
X3216486Y279041D01*
X3216478Y279039D01*
X3216475Y279044D01*
X3215208Y279249D01*
X3215203Y279246D01*
X3215200Y279249D01*
X3203200Y279249D01*
X3203196Y279246D01*
X3203193Y279249D01*
X3202071Y279094D01*
X3202066Y279089D01*
X3202062Y279092D01*
X3200991Y278721D01*
X3200987Y278715D01*
X3200982Y278717D01*
X3200005Y278144D01*
X3200002Y278138D01*
X3199997Y278139D01*
X3199150Y277386D01*
X3199148Y277379D01*
X3199143Y277379D01*
X3198459Y276476D01*
X3198459Y276469D01*
X3198454Y276468D01*
X3197959Y275449D01*
X3197961Y275442D01*
X3197959Y275441D01*
X3197956Y275440D01*
X3197669Y274343D01*
X3197672Y274337D01*
X3197668Y274334D01*
X3197601Y273203D01*
X3197603Y273199D01*
X3197601Y273197D01*
X3197668Y272066D01*
X3197673Y272061D01*
X3197669Y272057D01*
X3197956Y270960D01*
X3197962Y270956D01*
X3197959Y270951D01*
X3198454Y269932D01*
X3198460Y269929D01*
X3198459Y269924D01*
X3199143Y269021D01*
X3199150Y269019D01*
X3199150Y269014D01*
X3199997Y268261D01*
X3200004Y268261D01*
X3200005Y268256D01*
X3200982Y267683D01*
X3200989Y267684D01*
X3200991Y267679D01*
X3202062Y267308D01*
X3202068Y267311D01*
X3202071Y267306D01*
X3203193Y267151D01*
X3203198Y267154D01*
X3203200Y267151D01*
X3215200Y267151D01*
X3215205Y267154D01*
G37*
G36*
X3215205Y180754D02*
X3215205Y180754D01*
X3215208Y180751D01*
X3216475Y180956D01*
X3216481Y180962D01*
X3216486Y180959D01*
X3217675Y181441D01*
X3217679Y181448D01*
X3217685Y181446D01*
X3218738Y182180D01*
X3218740Y182188D01*
X3218746Y182187D01*
X3219609Y183137D01*
X3219610Y183146D01*
X3219615Y183146D01*
X3220245Y184265D01*
X3220244Y184273D01*
X3220250Y184275D01*
X3220615Y185505D01*
X3220612Y185512D01*
X3220616Y185515D01*
X3220615Y185515D01*
X3220617Y185516D01*
X3220699Y186797D01*
X3220697Y186801D01*
X3220699Y186803D01*
X3220617Y188084D01*
X3220611Y188090D01*
X3220615Y188095D01*
X3220250Y189325D01*
X3220243Y189330D01*
X3220245Y189335D01*
X3219615Y190454D01*
X3219608Y190457D01*
X3219609Y190463D01*
X3218746Y191413D01*
X3218738Y191414D01*
X3218738Y191420D01*
X3217685Y192154D01*
X3217677Y192154D01*
X3217675Y192159D01*
X3216486Y192641D01*
X3216478Y192639D01*
X3216475Y192644D01*
X3215208Y192849D01*
X3215203Y192846D01*
X3215200Y192849D01*
X3203200Y192849D01*
X3203196Y192846D01*
X3203193Y192849D01*
X3202071Y192694D01*
X3202066Y192689D01*
X3202062Y192692D01*
X3200991Y192321D01*
X3200987Y192315D01*
X3200982Y192317D01*
X3200005Y191744D01*
X3200002Y191738D01*
X3199997Y191739D01*
X3199150Y190986D01*
X3199148Y190979D01*
X3199143Y190979D01*
X3198459Y190076D01*
X3198459Y190069D01*
X3198454Y190068D01*
X3197959Y189049D01*
X3197961Y189042D01*
X3197959Y189041D01*
X3197956Y189040D01*
X3197669Y187943D01*
X3197672Y187937D01*
X3197668Y187934D01*
X3197601Y186803D01*
X3197603Y186799D01*
X3197601Y186797D01*
X3197668Y185666D01*
X3197673Y185661D01*
X3197669Y185657D01*
X3197956Y184560D01*
X3197962Y184556D01*
X3197959Y184551D01*
X3198454Y183532D01*
X3198460Y183529D01*
X3198459Y183524D01*
X3199143Y182621D01*
X3199150Y182619D01*
X3199150Y182614D01*
X3199997Y181861D01*
X3200004Y181861D01*
X3200005Y181856D01*
X3200982Y181283D01*
X3200989Y181284D01*
X3200991Y181279D01*
X3202062Y180908D01*
X3202068Y180911D01*
X3202071Y180906D01*
X3203193Y180751D01*
X3203198Y180754D01*
X3203200Y180751D01*
X3215200Y180751D01*
X3215205Y180754D01*
G37*
G36*
X3254004Y267153D02*
X3254004Y267153D01*
X3254006Y267151D01*
X3255335Y267306D01*
X3255341Y267312D01*
X3255345Y267309D01*
X3256606Y267756D01*
X3256611Y267763D01*
X3256616Y267761D01*
X3257746Y268478D01*
X3257749Y268485D01*
X3257755Y268484D01*
X3258697Y269435D01*
X3258698Y269443D01*
X3258704Y269443D01*
X3259411Y270579D01*
X3259411Y270584D01*
X3259412Y270585D01*
X3259411Y270587D01*
X3259416Y270589D01*
X3259852Y271854D01*
X3259850Y271862D01*
X3259855Y271865D01*
X3259999Y273195D01*
X3259995Y273201D01*
X3259999Y273205D01*
X3259889Y274371D01*
X3259884Y274376D01*
X3259887Y274380D01*
X3259552Y275503D01*
X3259546Y275507D01*
X3259548Y275511D01*
X3259000Y276547D01*
X3258994Y276550D01*
X3258995Y276555D01*
X3258256Y277463D01*
X3258249Y277465D01*
X3258249Y277470D01*
X3257347Y278217D01*
X3257340Y278217D01*
X3257339Y278223D01*
X3256308Y278779D01*
X3256301Y278778D01*
X3256299Y278783D01*
X3255180Y279127D01*
X3255173Y279125D01*
X3255170Y279129D01*
X3254005Y279249D01*
X3254002Y279247D01*
X3254000Y279249D01*
X3248000Y279249D01*
X3247997Y279247D01*
X3247995Y279249D01*
X3246819Y279138D01*
X3246814Y279133D01*
X3246810Y279136D01*
X3245678Y278798D01*
X3245674Y278792D01*
X3245669Y278794D01*
X3244625Y278242D01*
X3244622Y278235D01*
X3244617Y278237D01*
X3243701Y277491D01*
X3243700Y277484D01*
X3243694Y277484D01*
X3242941Y276575D01*
X3242941Y276567D01*
X3242936Y276567D01*
X3242375Y275527D01*
X3242376Y275520D01*
X3242371Y275518D01*
X3242024Y274389D01*
X3242026Y274383D01*
X3242022Y274380D01*
X3241901Y273205D01*
X3241905Y273198D01*
X3241901Y273194D01*
X3242058Y271854D01*
X3242063Y271848D01*
X3242060Y271843D01*
X3242511Y270572D01*
X3242518Y270567D01*
X3242516Y270562D01*
X3243238Y269423D01*
X3243246Y269420D01*
X3243245Y269414D01*
X3244203Y268464D01*
X3244211Y268463D01*
X3244212Y268457D01*
X3245357Y267744D01*
X3245366Y267745D01*
X3245367Y267739D01*
X3246643Y267299D01*
X3246650Y267301D01*
X3246652Y267299D01*
X3246653Y267297D01*
X3247995Y267151D01*
X3247998Y267153D01*
X3248000Y267151D01*
X3254000Y267151D01*
X3254004Y267153D01*
G37*
G36*
X3254004Y180753D02*
X3254004Y180753D01*
X3254006Y180751D01*
X3255335Y180906D01*
X3255341Y180912D01*
X3255345Y180909D01*
X3256606Y181356D01*
X3256611Y181363D01*
X3256616Y181361D01*
X3257746Y182078D01*
X3257749Y182085D01*
X3257755Y182084D01*
X3258697Y183035D01*
X3258698Y183043D01*
X3258704Y183043D01*
X3259411Y184179D01*
X3259411Y184184D01*
X3259412Y184185D01*
X3259411Y184187D01*
X3259416Y184189D01*
X3259852Y185454D01*
X3259850Y185462D01*
X3259855Y185465D01*
X3259999Y186795D01*
X3259995Y186801D01*
X3259999Y186805D01*
X3259889Y187971D01*
X3259884Y187976D01*
X3259887Y187980D01*
X3259552Y189103D01*
X3259546Y189107D01*
X3259548Y189111D01*
X3259000Y190147D01*
X3258994Y190150D01*
X3258995Y190155D01*
X3258256Y191063D01*
X3258249Y191065D01*
X3258249Y191070D01*
X3257347Y191817D01*
X3257340Y191817D01*
X3257339Y191823D01*
X3256308Y192379D01*
X3256301Y192378D01*
X3256299Y192383D01*
X3255180Y192727D01*
X3255173Y192725D01*
X3255170Y192729D01*
X3254005Y192849D01*
X3254002Y192847D01*
X3254000Y192849D01*
X3248000Y192849D01*
X3247997Y192847D01*
X3247995Y192849D01*
X3246819Y192738D01*
X3246814Y192733D01*
X3246810Y192736D01*
X3245678Y192398D01*
X3245674Y192392D01*
X3245669Y192394D01*
X3244625Y191842D01*
X3244622Y191835D01*
X3244617Y191837D01*
X3243701Y191091D01*
X3243700Y191084D01*
X3243694Y191084D01*
X3242941Y190175D01*
X3242941Y190167D01*
X3242936Y190167D01*
X3242375Y189127D01*
X3242376Y189120D01*
X3242371Y189118D01*
X3242024Y187989D01*
X3242026Y187983D01*
X3242022Y187980D01*
X3241901Y186805D01*
X3241905Y186798D01*
X3241901Y186794D01*
X3242058Y185454D01*
X3242063Y185448D01*
X3242060Y185443D01*
X3242511Y184172D01*
X3242518Y184167D01*
X3242516Y184162D01*
X3243238Y183023D01*
X3243246Y183020D01*
X3243245Y183014D01*
X3244203Y182064D01*
X3244211Y182063D01*
X3244212Y182057D01*
X3245357Y181344D01*
X3245366Y181345D01*
X3245367Y181339D01*
X3246643Y180899D01*
X3246650Y180901D01*
X3246652Y180899D01*
X3246653Y180897D01*
X3247995Y180751D01*
X3247998Y180753D01*
X3248000Y180751D01*
X3254000Y180751D01*
X3254004Y180753D01*
G37*
G36*
X178865Y105377D02*
X178865Y105377D01*
X178931Y105379D01*
X178974Y105397D01*
X179021Y105405D01*
X179078Y105439D01*
X179138Y105464D01*
X179173Y105495D01*
X179214Y105520D01*
X179256Y105571D01*
X179304Y105615D01*
X179326Y105657D01*
X179355Y105694D01*
X179376Y105756D01*
X179407Y105815D01*
X179415Y105869D01*
X179427Y105906D01*
X179426Y105946D01*
X179434Y106000D01*
X179434Y113500D01*
X179423Y113565D01*
X179421Y113631D01*
X179403Y113674D01*
X179395Y113721D01*
X179361Y113778D01*
X179336Y113838D01*
X179305Y113873D01*
X179280Y113914D01*
X179229Y113956D01*
X179185Y114004D01*
X179143Y114026D01*
X179106Y114055D01*
X179044Y114076D01*
X178985Y114107D01*
X178931Y114115D01*
X178894Y114127D01*
X178854Y114126D01*
X178800Y114134D01*
X171300Y114134D01*
X171235Y114123D01*
X171169Y114121D01*
X171126Y114103D01*
X171079Y114095D01*
X171022Y114061D01*
X170962Y114036D01*
X170927Y114005D01*
X170886Y113980D01*
X170845Y113929D01*
X170796Y113885D01*
X170774Y113843D01*
X170745Y113806D01*
X170724Y113744D01*
X170693Y113685D01*
X170685Y113631D01*
X170673Y113594D01*
X170674Y113554D01*
X170666Y113500D01*
X170666Y106000D01*
X170677Y105935D01*
X170679Y105869D01*
X170697Y105826D01*
X170705Y105779D01*
X170739Y105722D01*
X170764Y105662D01*
X170795Y105627D01*
X170820Y105586D01*
X170871Y105545D01*
X170915Y105496D01*
X170957Y105474D01*
X170994Y105445D01*
X171056Y105424D01*
X171115Y105393D01*
X171169Y105385D01*
X171206Y105373D01*
X171246Y105374D01*
X171300Y105366D01*
X178800Y105366D01*
X178865Y105377D01*
G37*
G36*
X191365Y105377D02*
X191365Y105377D01*
X191431Y105379D01*
X191474Y105397D01*
X191521Y105405D01*
X191578Y105439D01*
X191638Y105464D01*
X191673Y105495D01*
X191714Y105520D01*
X191756Y105571D01*
X191804Y105615D01*
X191826Y105657D01*
X191855Y105694D01*
X191876Y105756D01*
X191907Y105815D01*
X191915Y105869D01*
X191927Y105906D01*
X191926Y105946D01*
X191934Y106000D01*
X191934Y113500D01*
X191923Y113565D01*
X191921Y113631D01*
X191903Y113674D01*
X191895Y113721D01*
X191861Y113778D01*
X191836Y113838D01*
X191805Y113873D01*
X191780Y113914D01*
X191729Y113956D01*
X191685Y114004D01*
X191643Y114026D01*
X191606Y114055D01*
X191544Y114076D01*
X191485Y114107D01*
X191431Y114115D01*
X191394Y114127D01*
X191354Y114126D01*
X191300Y114134D01*
X183800Y114134D01*
X183735Y114123D01*
X183669Y114121D01*
X183626Y114103D01*
X183579Y114095D01*
X183522Y114061D01*
X183462Y114036D01*
X183427Y114005D01*
X183386Y113980D01*
X183345Y113929D01*
X183296Y113885D01*
X183274Y113843D01*
X183245Y113806D01*
X183224Y113744D01*
X183193Y113685D01*
X183185Y113631D01*
X183173Y113594D01*
X183174Y113554D01*
X183166Y113500D01*
X183166Y106000D01*
X183177Y105935D01*
X183179Y105869D01*
X183197Y105826D01*
X183205Y105779D01*
X183239Y105722D01*
X183264Y105662D01*
X183295Y105627D01*
X183320Y105586D01*
X183371Y105545D01*
X183415Y105496D01*
X183457Y105474D01*
X183494Y105445D01*
X183556Y105424D01*
X183615Y105393D01*
X183669Y105385D01*
X183706Y105373D01*
X183746Y105374D01*
X183800Y105366D01*
X191300Y105366D01*
X191365Y105377D01*
G37*
G36*
X191365Y92877D02*
X191365Y92877D01*
X191431Y92879D01*
X191474Y92897D01*
X191521Y92905D01*
X191578Y92939D01*
X191638Y92964D01*
X191673Y92995D01*
X191714Y93020D01*
X191756Y93071D01*
X191804Y93115D01*
X191826Y93157D01*
X191855Y93194D01*
X191876Y93256D01*
X191907Y93315D01*
X191915Y93369D01*
X191927Y93406D01*
X191926Y93446D01*
X191934Y93500D01*
X191934Y101000D01*
X191923Y101065D01*
X191921Y101131D01*
X191903Y101174D01*
X191895Y101221D01*
X191861Y101278D01*
X191836Y101338D01*
X191805Y101373D01*
X191780Y101414D01*
X191729Y101456D01*
X191685Y101504D01*
X191643Y101526D01*
X191606Y101555D01*
X191544Y101576D01*
X191485Y101607D01*
X191431Y101615D01*
X191394Y101627D01*
X191354Y101626D01*
X191300Y101634D01*
X183800Y101634D01*
X183735Y101623D01*
X183669Y101621D01*
X183626Y101603D01*
X183579Y101595D01*
X183522Y101561D01*
X183462Y101536D01*
X183427Y101505D01*
X183386Y101480D01*
X183345Y101429D01*
X183296Y101385D01*
X183274Y101343D01*
X183245Y101306D01*
X183224Y101244D01*
X183193Y101185D01*
X183185Y101131D01*
X183173Y101094D01*
X183174Y101054D01*
X183166Y101000D01*
X183166Y93500D01*
X183177Y93435D01*
X183179Y93369D01*
X183197Y93326D01*
X183205Y93279D01*
X183239Y93222D01*
X183264Y93162D01*
X183295Y93127D01*
X183320Y93086D01*
X183371Y93045D01*
X183415Y92996D01*
X183457Y92974D01*
X183494Y92945D01*
X183556Y92924D01*
X183615Y92893D01*
X183669Y92885D01*
X183706Y92873D01*
X183746Y92874D01*
X183800Y92866D01*
X191300Y92866D01*
X191365Y92877D01*
G37*
G36*
X178865Y92877D02*
X178865Y92877D01*
X178931Y92879D01*
X178974Y92897D01*
X179021Y92905D01*
X179078Y92939D01*
X179138Y92964D01*
X179173Y92995D01*
X179214Y93020D01*
X179256Y93071D01*
X179304Y93115D01*
X179326Y93157D01*
X179355Y93194D01*
X179376Y93256D01*
X179407Y93315D01*
X179415Y93369D01*
X179427Y93406D01*
X179426Y93446D01*
X179434Y93500D01*
X179434Y101000D01*
X179423Y101065D01*
X179421Y101131D01*
X179403Y101174D01*
X179395Y101221D01*
X179361Y101278D01*
X179336Y101338D01*
X179305Y101373D01*
X179280Y101414D01*
X179229Y101456D01*
X179185Y101504D01*
X179143Y101526D01*
X179106Y101555D01*
X179044Y101576D01*
X178985Y101607D01*
X178931Y101615D01*
X178894Y101627D01*
X178854Y101626D01*
X178800Y101634D01*
X171300Y101634D01*
X171235Y101623D01*
X171169Y101621D01*
X171126Y101603D01*
X171079Y101595D01*
X171022Y101561D01*
X170962Y101536D01*
X170927Y101505D01*
X170886Y101480D01*
X170845Y101429D01*
X170796Y101385D01*
X170774Y101343D01*
X170745Y101306D01*
X170724Y101244D01*
X170693Y101185D01*
X170685Y101131D01*
X170673Y101094D01*
X170674Y101054D01*
X170666Y101000D01*
X170666Y93500D01*
X170677Y93435D01*
X170679Y93369D01*
X170697Y93326D01*
X170705Y93279D01*
X170739Y93222D01*
X170764Y93162D01*
X170795Y93127D01*
X170820Y93086D01*
X170871Y93045D01*
X170915Y92996D01*
X170957Y92974D01*
X170994Y92945D01*
X171056Y92924D01*
X171115Y92893D01*
X171169Y92885D01*
X171206Y92873D01*
X171246Y92874D01*
X171300Y92866D01*
X178800Y92866D01*
X178865Y92877D01*
G37*
G36*
X190047Y120087D02*
X190047Y120087D01*
X190042Y120094D01*
X190049Y120100D01*
X190049Y127900D01*
X190013Y127947D01*
X190006Y127942D01*
X190000Y127949D01*
X187600Y127949D01*
X187553Y127913D01*
X187558Y127906D01*
X187551Y127900D01*
X187551Y120100D01*
X187587Y120053D01*
X187594Y120058D01*
X187600Y120051D01*
X190000Y120051D01*
X190047Y120087D01*
G37*
G36*
X175047Y120087D02*
X175047Y120087D01*
X175042Y120094D01*
X175049Y120100D01*
X175049Y127900D01*
X175013Y127947D01*
X175006Y127942D01*
X175000Y127949D01*
X172600Y127949D01*
X172553Y127913D01*
X172558Y127906D01*
X172551Y127900D01*
X172551Y120100D01*
X172587Y120053D01*
X172594Y120058D01*
X172600Y120051D01*
X175000Y120051D01*
X175047Y120087D01*
G37*
G36*
X195047Y120087D02*
X195047Y120087D01*
X195042Y120094D01*
X195049Y120100D01*
X195049Y127900D01*
X195013Y127947D01*
X195006Y127942D01*
X195000Y127949D01*
X192600Y127949D01*
X192553Y127913D01*
X192558Y127906D01*
X192551Y127900D01*
X192551Y120100D01*
X192587Y120053D01*
X192594Y120058D01*
X192600Y120051D01*
X195000Y120051D01*
X195047Y120087D01*
G37*
G36*
X185047Y120087D02*
X185047Y120087D01*
X185042Y120094D01*
X185049Y120100D01*
X185049Y127900D01*
X185013Y127947D01*
X185006Y127942D01*
X185000Y127949D01*
X182600Y127949D01*
X182553Y127913D01*
X182558Y127906D01*
X182551Y127900D01*
X182551Y120100D01*
X182587Y120053D01*
X182594Y120058D01*
X182600Y120051D01*
X185000Y120051D01*
X185047Y120087D01*
G37*
G36*
X180047Y120087D02*
X180047Y120087D01*
X180042Y120094D01*
X180049Y120100D01*
X180049Y127900D01*
X180013Y127947D01*
X180006Y127942D01*
X180000Y127949D01*
X177600Y127949D01*
X177553Y127913D01*
X177558Y127906D01*
X177551Y127900D01*
X177551Y120100D01*
X177587Y120053D01*
X177594Y120058D01*
X177600Y120051D01*
X180000Y120051D01*
X180047Y120087D01*
G37*
G36*
X170047Y120087D02*
X170047Y120087D01*
X170042Y120094D01*
X170049Y120100D01*
X170049Y127900D01*
X170013Y127947D01*
X170006Y127942D01*
X170000Y127949D01*
X167600Y127949D01*
X167553Y127913D01*
X167558Y127906D01*
X167551Y127900D01*
X167551Y120100D01*
X167587Y120053D01*
X167594Y120058D01*
X167600Y120051D01*
X170000Y120051D01*
X170047Y120087D01*
G37*
G36*
X205747Y114787D02*
X205747Y114787D01*
X205742Y114794D01*
X205749Y114800D01*
X205749Y117200D01*
X205713Y117247D01*
X205706Y117242D01*
X205700Y117249D01*
X197900Y117249D01*
X197853Y117213D01*
X197858Y117206D01*
X197851Y117200D01*
X197851Y114800D01*
X197887Y114753D01*
X197894Y114758D01*
X197900Y114751D01*
X205700Y114751D01*
X205747Y114787D01*
G37*
G36*
X164747Y114787D02*
X164747Y114787D01*
X164742Y114794D01*
X164749Y114800D01*
X164749Y117200D01*
X164713Y117247D01*
X164706Y117242D01*
X164700Y117249D01*
X156900Y117249D01*
X156853Y117213D01*
X156858Y117206D01*
X156851Y117200D01*
X156851Y114800D01*
X156887Y114753D01*
X156894Y114758D01*
X156900Y114751D01*
X164700Y114751D01*
X164747Y114787D01*
G37*
G36*
X205747Y109787D02*
X205747Y109787D01*
X205742Y109794D01*
X205749Y109800D01*
X205749Y112200D01*
X205713Y112247D01*
X205706Y112242D01*
X205700Y112249D01*
X197900Y112249D01*
X197853Y112213D01*
X197858Y112206D01*
X197851Y112200D01*
X197851Y109800D01*
X197887Y109753D01*
X197894Y109758D01*
X197900Y109751D01*
X205700Y109751D01*
X205747Y109787D01*
G37*
G36*
X164747Y109787D02*
X164747Y109787D01*
X164742Y109794D01*
X164749Y109800D01*
X164749Y112200D01*
X164713Y112247D01*
X164706Y112242D01*
X164700Y112249D01*
X156900Y112249D01*
X156853Y112213D01*
X156858Y112206D01*
X156851Y112200D01*
X156851Y109800D01*
X156887Y109753D01*
X156894Y109758D01*
X156900Y109751D01*
X164700Y109751D01*
X164747Y109787D01*
G37*
G36*
X205747Y104787D02*
X205747Y104787D01*
X205742Y104794D01*
X205749Y104800D01*
X205749Y107200D01*
X205713Y107247D01*
X205706Y107242D01*
X205700Y107249D01*
X197900Y107249D01*
X197853Y107213D01*
X197858Y107206D01*
X197851Y107200D01*
X197851Y104800D01*
X197887Y104753D01*
X197894Y104758D01*
X197900Y104751D01*
X205700Y104751D01*
X205747Y104787D01*
G37*
G36*
X164747Y104787D02*
X164747Y104787D01*
X164742Y104794D01*
X164749Y104800D01*
X164749Y107200D01*
X164713Y107247D01*
X164706Y107242D01*
X164700Y107249D01*
X156900Y107249D01*
X156853Y107213D01*
X156858Y107206D01*
X156851Y107200D01*
X156851Y104800D01*
X156887Y104753D01*
X156894Y104758D01*
X156900Y104751D01*
X164700Y104751D01*
X164747Y104787D01*
G37*
G36*
X164747Y99787D02*
X164747Y99787D01*
X164742Y99794D01*
X164749Y99800D01*
X164749Y102200D01*
X164713Y102247D01*
X164706Y102242D01*
X164700Y102249D01*
X156900Y102249D01*
X156853Y102213D01*
X156858Y102206D01*
X156851Y102200D01*
X156851Y99800D01*
X156887Y99753D01*
X156894Y99758D01*
X156900Y99751D01*
X164700Y99751D01*
X164747Y99787D01*
G37*
G36*
X205747Y99787D02*
X205747Y99787D01*
X205742Y99794D01*
X205749Y99800D01*
X205749Y102200D01*
X205713Y102247D01*
X205706Y102242D01*
X205700Y102249D01*
X197900Y102249D01*
X197853Y102213D01*
X197858Y102206D01*
X197851Y102200D01*
X197851Y99800D01*
X197887Y99753D01*
X197894Y99758D01*
X197900Y99751D01*
X205700Y99751D01*
X205747Y99787D01*
G37*
G36*
X205747Y94787D02*
X205747Y94787D01*
X205742Y94794D01*
X205749Y94800D01*
X205749Y97200D01*
X205713Y97247D01*
X205706Y97242D01*
X205700Y97249D01*
X197900Y97249D01*
X197853Y97213D01*
X197858Y97206D01*
X197851Y97200D01*
X197851Y94800D01*
X197887Y94753D01*
X197894Y94758D01*
X197900Y94751D01*
X205700Y94751D01*
X205747Y94787D01*
G37*
G36*
X164747Y94787D02*
X164747Y94787D01*
X164742Y94794D01*
X164749Y94800D01*
X164749Y97200D01*
X164713Y97247D01*
X164706Y97242D01*
X164700Y97249D01*
X156900Y97249D01*
X156853Y97213D01*
X156858Y97206D01*
X156851Y97200D01*
X156851Y94800D01*
X156887Y94753D01*
X156894Y94758D01*
X156900Y94751D01*
X164700Y94751D01*
X164747Y94787D01*
G37*
G36*
X205747Y89787D02*
X205747Y89787D01*
X205742Y89794D01*
X205749Y89800D01*
X205749Y92200D01*
X205713Y92247D01*
X205706Y92242D01*
X205700Y92249D01*
X197900Y92249D01*
X197853Y92213D01*
X197858Y92206D01*
X197851Y92200D01*
X197851Y89800D01*
X197887Y89753D01*
X197894Y89758D01*
X197900Y89751D01*
X205700Y89751D01*
X205747Y89787D01*
G37*
G36*
X164747Y89787D02*
X164747Y89787D01*
X164742Y89794D01*
X164749Y89800D01*
X164749Y92200D01*
X164713Y92247D01*
X164706Y92242D01*
X164700Y92249D01*
X156900Y92249D01*
X156853Y92213D01*
X156858Y92206D01*
X156851Y92200D01*
X156851Y89800D01*
X156887Y89753D01*
X156894Y89758D01*
X156900Y89751D01*
X164700Y89751D01*
X164747Y89787D01*
G37*
G36*
X180047Y79087D02*
X180047Y79087D01*
X180042Y79094D01*
X180049Y79100D01*
X180049Y86900D01*
X180013Y86947D01*
X180006Y86942D01*
X180000Y86949D01*
X177600Y86949D01*
X177553Y86913D01*
X177558Y86906D01*
X177551Y86900D01*
X177551Y79100D01*
X177587Y79053D01*
X177594Y79058D01*
X177600Y79051D01*
X180000Y79051D01*
X180047Y79087D01*
G37*
G36*
X190047Y79087D02*
X190047Y79087D01*
X190042Y79094D01*
X190049Y79100D01*
X190049Y86900D01*
X190013Y86947D01*
X190006Y86942D01*
X190000Y86949D01*
X187600Y86949D01*
X187553Y86913D01*
X187558Y86906D01*
X187551Y86900D01*
X187551Y79100D01*
X187587Y79053D01*
X187594Y79058D01*
X187600Y79051D01*
X190000Y79051D01*
X190047Y79087D01*
G37*
G36*
X170047Y79087D02*
X170047Y79087D01*
X170042Y79094D01*
X170049Y79100D01*
X170049Y86900D01*
X170013Y86947D01*
X170006Y86942D01*
X170000Y86949D01*
X167600Y86949D01*
X167553Y86913D01*
X167558Y86906D01*
X167551Y86900D01*
X167551Y79100D01*
X167587Y79053D01*
X167594Y79058D01*
X167600Y79051D01*
X170000Y79051D01*
X170047Y79087D01*
G37*
G36*
X185047Y79087D02*
X185047Y79087D01*
X185042Y79094D01*
X185049Y79100D01*
X185049Y86900D01*
X185013Y86947D01*
X185006Y86942D01*
X185000Y86949D01*
X182600Y86949D01*
X182553Y86913D01*
X182558Y86906D01*
X182551Y86900D01*
X182551Y79100D01*
X182587Y79053D01*
X182594Y79058D01*
X182600Y79051D01*
X185000Y79051D01*
X185047Y79087D01*
G37*
G36*
X175047Y79087D02*
X175047Y79087D01*
X175042Y79094D01*
X175049Y79100D01*
X175049Y86900D01*
X175013Y86947D01*
X175006Y86942D01*
X175000Y86949D01*
X172600Y86949D01*
X172553Y86913D01*
X172558Y86906D01*
X172551Y86900D01*
X172551Y79100D01*
X172587Y79053D01*
X172594Y79058D01*
X172600Y79051D01*
X175000Y79051D01*
X175047Y79087D01*
G37*
G36*
X195047Y79087D02*
X195047Y79087D01*
X195042Y79094D01*
X195049Y79100D01*
X195049Y86900D01*
X195013Y86947D01*
X195006Y86942D01*
X195000Y86949D01*
X192600Y86949D01*
X192553Y86913D01*
X192558Y86906D01*
X192551Y86900D01*
X192551Y79100D01*
X192587Y79053D01*
X192594Y79058D01*
X192600Y79051D01*
X195000Y79051D01*
X195047Y79087D01*
G37*
D10*
X51200Y162550D03*
X68200Y162550D03*
D11*
X238300Y75250D03*
X244800Y93650D03*
X251300Y93650D03*
X238300Y93650D03*
X244800Y75250D03*
X251300Y75250D03*
D10*
X156600Y57900D03*
X173600Y57900D03*
X236300Y59050D03*
X253300Y59050D03*
X236300Y109850D03*
X253300Y109850D03*
D12*
X219400Y92950D03*
X219400Y75950D03*
D13*
X275100Y95500D03*
X275100Y111500D03*
X316100Y111500D03*
X316100Y95500D03*
X316100Y73400D03*
X316100Y57400D03*
X275100Y57400D03*
X275100Y73400D03*
D14*
X512300Y223980D03*
X499600Y223980D03*
X486900Y223980D03*
X474200Y223980D03*
X461500Y223980D03*
X448800Y223980D03*
X436100Y223980D03*
X423400Y223980D03*
X410700Y223980D03*
X398000Y223980D03*
X385300Y223980D03*
X372600Y223980D03*
X359900Y223980D03*
X347200Y223980D03*
D15*
X332300Y198750D03*
X332300Y186050D03*
X332300Y173350D03*
X332300Y160650D03*
X332300Y147950D03*
X332300Y135250D03*
X332300Y122550D03*
X332300Y109850D03*
X332300Y97150D03*
X332300Y84450D03*
D14*
X347200Y59220D03*
X359900Y59220D03*
X372600Y59220D03*
X385300Y59220D03*
X398000Y59220D03*
X410700Y59220D03*
X423400Y59220D03*
X436100Y59220D03*
X448800Y59220D03*
X461500Y59220D03*
X474200Y59220D03*
X486900Y59220D03*
X499600Y59220D03*
X512300Y59220D03*
D16*
X435300Y141600D03*
D17*
X82201Y210200D03*
X82201Y219700D03*
X82201Y229200D03*
X56199Y229200D03*
X56199Y210200D03*
D18*
X3198460Y237500D03*
X3198460Y232500D03*
D19*
X3198460Y262250D03*
D20*
X3198460Y254500D03*
D18*
X3198460Y247500D03*
X3198460Y242500D03*
X3198460Y222500D03*
X3198460Y227500D03*
D19*
X3198460Y197750D03*
D20*
X3198460Y205500D03*
D18*
X3198460Y212500D03*
X3198460Y217500D03*
D10*
X3155470Y243970D03*
X3172470Y243970D03*
X3154900Y218570D03*
X3171900Y218570D03*
D21*
X3163000Y377500D03*
X3152000Y442500D03*
X3203000Y377500D03*
X3233000Y377500D03*
D22*
X135047Y217583D02*
X132462Y216803D01*
X132413Y216947D01*
X132360Y217089D01*
X132303Y217230D01*
X132243Y217369D01*
X132179Y217507D01*
X132112Y217643D01*
X132042Y217778D01*
X131968Y217910D01*
X131890Y218041D01*
X131809Y218169D01*
X131725Y218296D01*
X131638Y218420D01*
X131548Y218542D01*
X131454Y218662D01*
X131358Y218779D01*
X131259Y218894D01*
X131156Y219006D01*
X131051Y219115D01*
X130943Y219222D01*
X130833Y219326D01*
X130719Y219427D01*
X130604Y219526D01*
X130485Y219621D01*
X130365Y219713D01*
X130242Y219802D01*
X130117Y219888D01*
X129989Y219971D01*
X129860Y220050D01*
X129729Y220126D01*
X129595Y220199D01*
X129460Y220268D01*
X129323Y220334D01*
X129185Y220397D01*
X129045Y220455D01*
X128904Y220511D01*
X128761Y220562D01*
X128617Y220610D01*
X129370Y223203D01*
X129568Y223139D01*
X129764Y223071D01*
X129958Y222998D01*
X130151Y222920D01*
X130341Y222838D01*
X130530Y222751D01*
X130716Y222659D01*
X130900Y222563D01*
X131082Y222463D01*
X131261Y222358D01*
X131438Y222249D01*
X131612Y222136D01*
X131783Y222019D01*
X131952Y221898D01*
X132117Y221772D01*
X132280Y221643D01*
X132439Y221510D01*
X132595Y221373D01*
X132748Y221232D01*
X132897Y221088D01*
X133043Y220940D01*
X133185Y220789D01*
X133323Y220634D01*
X133458Y220476D01*
X133589Y220315D01*
X133716Y220151D01*
X133839Y219984D01*
X133958Y219814D01*
X134073Y219641D01*
X134184Y219465D01*
X134290Y219287D01*
X134392Y219106D01*
X134490Y218923D01*
X134583Y218738D01*
X134672Y218550D01*
X134757Y218360D01*
X134836Y218169D01*
X134912Y217975D01*
X134982Y217780D01*
X135048Y217583D01*
X134776Y217501D01*
X134712Y217691D01*
X134644Y217880D01*
X134571Y218067D01*
X134494Y218252D01*
X134413Y218435D01*
X134327Y218616D01*
X134237Y218795D01*
X134142Y218972D01*
X134043Y219147D01*
X133940Y219319D01*
X133833Y219488D01*
X133722Y219655D01*
X133607Y219820D01*
X133489Y219981D01*
X133366Y220140D01*
X133239Y220295D01*
X133109Y220448D01*
X132975Y220597D01*
X132838Y220743D01*
X132697Y220886D01*
X132553Y221026D01*
X132405Y221161D01*
X132255Y221294D01*
X132101Y221422D01*
X131944Y221547D01*
X131784Y221668D01*
X131622Y221786D01*
X131456Y221899D01*
X131288Y222008D01*
X131117Y222113D01*
X130944Y222215D01*
X130769Y222312D01*
X130591Y222404D01*
X130411Y222493D01*
X130229Y222577D01*
X130045Y222656D01*
X129859Y222732D01*
X129671Y222802D01*
X129482Y222869D01*
X129291Y222930D01*
X129212Y222658D01*
X129396Y222598D01*
X129578Y222534D01*
X129759Y222466D01*
X129939Y222393D01*
X130116Y222316D01*
X130292Y222235D01*
X130465Y222149D01*
X130637Y222060D01*
X130806Y221966D01*
X130973Y221869D01*
X131138Y221767D01*
X131300Y221662D01*
X131460Y221552D01*
X131617Y221439D01*
X131771Y221322D01*
X131922Y221202D01*
X132071Y221078D01*
X132216Y220950D01*
X132358Y220819D01*
X132497Y220684D01*
X132633Y220547D01*
X132766Y220406D01*
X132895Y220262D01*
X133020Y220114D01*
X133143Y219964D01*
X133261Y219811D01*
X133376Y219656D01*
X133487Y219497D01*
X133594Y219336D01*
X133697Y219172D01*
X133796Y219006D01*
X133892Y218838D01*
X133983Y218667D01*
X134070Y218495D01*
X134153Y218320D01*
X134232Y218143D01*
X134306Y217965D01*
X134377Y217784D01*
X134442Y217602D01*
X134504Y217419D01*
X134232Y217337D01*
X134171Y217518D01*
X134106Y217698D01*
X134036Y217876D01*
X133962Y218052D01*
X133883Y218226D01*
X133801Y218399D01*
X133714Y218569D01*
X133623Y218737D01*
X133528Y218903D01*
X133429Y219067D01*
X133325Y219228D01*
X133218Y219386D01*
X133107Y219542D01*
X132993Y219695D01*
X132874Y219845D01*
X132752Y219992D01*
X132627Y220136D01*
X132498Y220277D01*
X132365Y220415D01*
X132229Y220549D01*
X132090Y220680D01*
X131948Y220808D01*
X131802Y220932D01*
X131654Y221053D01*
X131503Y221170D01*
X131349Y221283D01*
X131192Y221392D01*
X131032Y221498D01*
X130870Y221599D01*
X130706Y221697D01*
X130539Y221790D01*
X130370Y221879D01*
X130199Y221964D01*
X130026Y222045D01*
X129850Y222122D01*
X129673Y222194D01*
X129495Y222262D01*
X129314Y222326D01*
X129133Y222385D01*
X129053Y222112D01*
X129228Y222055D01*
X129402Y221994D01*
X129573Y221928D01*
X129744Y221859D01*
X129912Y221785D01*
X130079Y221707D01*
X130243Y221625D01*
X130406Y221539D01*
X130566Y221449D01*
X130725Y221355D01*
X130881Y221257D01*
X131034Y221156D01*
X131185Y221051D01*
X131333Y220942D01*
X131479Y220829D01*
X131621Y220713D01*
X131761Y220594D01*
X131898Y220471D01*
X132032Y220345D01*
X132163Y220216D01*
X132290Y220083D01*
X132414Y219947D01*
X132535Y219809D01*
X132653Y219667D01*
X132767Y219523D01*
X132877Y219376D01*
X132984Y219226D01*
X133087Y219073D01*
X133186Y218919D01*
X133282Y218761D01*
X133373Y218602D01*
X133461Y218440D01*
X133544Y218276D01*
X133624Y218110D01*
X133700Y217943D01*
X133771Y217773D01*
X133838Y217602D01*
X133901Y217429D01*
X133960Y217255D01*
X133688Y217173D01*
X133632Y217340D01*
X133571Y217506D01*
X133506Y217671D01*
X133437Y217833D01*
X133365Y217995D01*
X133288Y218154D01*
X133208Y218311D01*
X133124Y218466D01*
X133035Y218620D01*
X132944Y218771D01*
X132848Y218919D01*
X132749Y219066D01*
X132647Y219210D01*
X132541Y219351D01*
X132431Y219490D01*
X132318Y219626D01*
X132202Y219759D01*
X132083Y219889D01*
X131960Y220016D01*
X131835Y220141D01*
X131706Y220262D01*
X131575Y220380D01*
X131440Y220495D01*
X131303Y220606D01*
X131163Y220714D01*
X131021Y220819D01*
X130876Y220920D01*
X130729Y221017D01*
X130579Y221111D01*
X130427Y221201D01*
X130273Y221288D01*
X130117Y221371D01*
X129959Y221449D01*
X129799Y221524D01*
X129637Y221595D01*
X129474Y221663D01*
X129309Y221726D01*
X129142Y221785D01*
X128974Y221839D01*
X128895Y221567D01*
X129056Y221514D01*
X129215Y221457D01*
X129374Y221397D01*
X129530Y221332D01*
X129686Y221264D01*
X129839Y221192D01*
X129991Y221116D01*
X130140Y221037D01*
X130288Y220954D01*
X130434Y220867D01*
X130577Y220777D01*
X130718Y220684D01*
X130857Y220587D01*
X130994Y220486D01*
X131128Y220383D01*
X131259Y220276D01*
X131388Y220166D01*
X131514Y220052D01*
X131638Y219936D01*
X131758Y219817D01*
X131875Y219695D01*
X131990Y219570D01*
X132101Y219442D01*
X132210Y219312D01*
X132315Y219179D01*
X132416Y219043D01*
X132515Y218905D01*
X132610Y218765D01*
X132701Y218623D01*
X132789Y218478D01*
X132874Y218331D01*
X132955Y218182D01*
X133032Y218031D01*
X133106Y217879D01*
X133175Y217724D01*
X133241Y217568D01*
X133303Y217410D01*
X133362Y217251D01*
X133416Y217091D01*
X133144Y217009D01*
X133092Y217162D01*
X133036Y217315D01*
X132976Y217465D01*
X132913Y217615D01*
X132846Y217763D01*
X132776Y217909D01*
X132702Y218053D01*
X132624Y218196D01*
X132543Y218336D01*
X132459Y218475D01*
X132371Y218611D01*
X132280Y218745D01*
X132186Y218877D01*
X132089Y219007D01*
X131988Y219134D01*
X131884Y219259D01*
X131778Y219381D01*
X131668Y219501D01*
X131556Y219618D01*
X131440Y219732D01*
X131322Y219843D01*
X131202Y219952D01*
X131078Y220057D01*
X130953Y220159D01*
X130824Y220259D01*
X130694Y220355D01*
X130561Y220448D01*
X130425Y220537D01*
X130288Y220623D01*
X130149Y220706D01*
X130007Y220786D01*
X129864Y220862D01*
X129719Y220935D01*
X129572Y221004D01*
X129424Y221069D01*
X129274Y221131D01*
X129122Y221189D01*
X128970Y221243D01*
X128815Y221294D01*
X128736Y221021D01*
X128887Y220971D01*
X129037Y220918D01*
X129185Y220860D01*
X129332Y220799D01*
X129477Y220735D01*
X129621Y220666D01*
X129763Y220595D01*
X129903Y220519D01*
X130041Y220440D01*
X130177Y220358D01*
X130311Y220273D01*
X130443Y220184D01*
X130573Y220092D01*
X130700Y219996D01*
X130825Y219898D01*
X130947Y219796D01*
X131067Y219691D01*
X131184Y219584D01*
X131299Y219473D01*
X131410Y219360D01*
X131519Y219244D01*
X131625Y219125D01*
X131728Y219004D01*
X131827Y218880D01*
X131924Y218754D01*
X132018Y218625D01*
X132108Y218494D01*
X132195Y218361D01*
X132278Y218226D01*
X132359Y218088D01*
X132435Y217949D01*
X132509Y217808D01*
X132578Y217665D01*
X132644Y217520D01*
X132707Y217374D01*
X132766Y217226D01*
X132821Y217077D01*
X132872Y216927D01*
X132600Y216845D01*
X132551Y216988D01*
X132498Y217130D01*
X132442Y217271D01*
X132383Y217410D01*
X132319Y217548D01*
X132253Y217684D01*
X132183Y217819D01*
X132110Y217952D01*
X132033Y218083D01*
X131953Y218211D01*
X131870Y218338D01*
X131784Y218463D01*
X131695Y218586D01*
X131603Y218706D01*
X131508Y218824D01*
X131410Y218940D01*
X131309Y219053D01*
X131205Y219164D01*
X131099Y219272D01*
X130990Y219377D01*
X130878Y219479D01*
X130764Y219579D01*
X130647Y219676D01*
X130528Y219770D01*
X130407Y219861D01*
X130284Y219949D01*
X130158Y220034D01*
X130030Y220115D01*
X129900Y220194D01*
X129769Y220269D01*
X129635Y220341D01*
X129500Y220409D01*
X129363Y220475D01*
X129225Y220536D01*
X129085Y220595D01*
X128943Y220649D01*
X128801Y220701D01*
X128657Y220748D01*
X129383Y207153D02*
X128603Y209738D01*
X128747Y209787D01*
X128889Y209840D01*
X129030Y209897D01*
X129169Y209957D01*
X129307Y210021D01*
X129443Y210088D01*
X129578Y210158D01*
X129710Y210232D01*
X129841Y210310D01*
X129969Y210391D01*
X130096Y210475D01*
X130220Y210562D01*
X130342Y210652D01*
X130462Y210746D01*
X130579Y210842D01*
X130694Y210941D01*
X130806Y211044D01*
X130915Y211149D01*
X131022Y211257D01*
X131126Y211367D01*
X131227Y211481D01*
X131326Y211596D01*
X131421Y211715D01*
X131513Y211835D01*
X131602Y211958D01*
X131688Y212083D01*
X131771Y212211D01*
X131850Y212340D01*
X131926Y212471D01*
X131999Y212605D01*
X132068Y212740D01*
X132134Y212877D01*
X132197Y213015D01*
X132255Y213155D01*
X132311Y213296D01*
X132362Y213439D01*
X132410Y213583D01*
X135003Y212830D01*
X134939Y212632D01*
X134871Y212436D01*
X134798Y212242D01*
X134720Y212049D01*
X134638Y211859D01*
X134551Y211670D01*
X134459Y211484D01*
X134363Y211300D01*
X134263Y211118D01*
X134158Y210939D01*
X134049Y210762D01*
X133936Y210588D01*
X133819Y210417D01*
X133698Y210248D01*
X133572Y210083D01*
X133443Y209920D01*
X133310Y209761D01*
X133173Y209605D01*
X133032Y209452D01*
X132888Y209303D01*
X132740Y209157D01*
X132589Y209015D01*
X132434Y208877D01*
X132276Y208742D01*
X132115Y208611D01*
X131951Y208484D01*
X131784Y208361D01*
X131614Y208242D01*
X131441Y208127D01*
X131265Y208016D01*
X131087Y207910D01*
X130906Y207808D01*
X130723Y207710D01*
X130538Y207617D01*
X130350Y207528D01*
X130160Y207443D01*
X129969Y207364D01*
X129775Y207288D01*
X129580Y207218D01*
X129383Y207152D01*
X129301Y207424D01*
X129491Y207488D01*
X129680Y207556D01*
X129867Y207629D01*
X130052Y207706D01*
X130235Y207787D01*
X130416Y207873D01*
X130595Y207963D01*
X130772Y208058D01*
X130947Y208157D01*
X131119Y208260D01*
X131288Y208367D01*
X131455Y208478D01*
X131620Y208593D01*
X131781Y208711D01*
X131940Y208834D01*
X132095Y208961D01*
X132248Y209091D01*
X132397Y209225D01*
X132543Y209362D01*
X132686Y209503D01*
X132826Y209647D01*
X132961Y209795D01*
X133094Y209945D01*
X133222Y210099D01*
X133347Y210256D01*
X133468Y210416D01*
X133586Y210578D01*
X133699Y210744D01*
X133808Y210912D01*
X133913Y211083D01*
X134015Y211256D01*
X134112Y211431D01*
X134204Y211609D01*
X134293Y211789D01*
X134377Y211971D01*
X134456Y212155D01*
X134532Y212341D01*
X134602Y212529D01*
X134669Y212718D01*
X134730Y212909D01*
X134458Y212988D01*
X134398Y212804D01*
X134334Y212622D01*
X134266Y212441D01*
X134193Y212261D01*
X134116Y212084D01*
X134035Y211908D01*
X133949Y211735D01*
X133860Y211563D01*
X133766Y211394D01*
X133669Y211227D01*
X133567Y211062D01*
X133462Y210900D01*
X133352Y210740D01*
X133239Y210583D01*
X133122Y210429D01*
X133002Y210278D01*
X132878Y210129D01*
X132750Y209984D01*
X132619Y209842D01*
X132484Y209703D01*
X132347Y209567D01*
X132206Y209434D01*
X132062Y209305D01*
X131914Y209180D01*
X131764Y209057D01*
X131611Y208939D01*
X131456Y208824D01*
X131297Y208713D01*
X131136Y208606D01*
X130972Y208503D01*
X130806Y208404D01*
X130638Y208308D01*
X130467Y208217D01*
X130295Y208130D01*
X130120Y208047D01*
X129943Y207968D01*
X129765Y207894D01*
X129584Y207823D01*
X129402Y207758D01*
X129219Y207696D01*
X129137Y207968D01*
X129318Y208029D01*
X129498Y208094D01*
X129676Y208164D01*
X129852Y208238D01*
X130026Y208317D01*
X130199Y208399D01*
X130369Y208486D01*
X130537Y208577D01*
X130703Y208672D01*
X130867Y208771D01*
X131028Y208875D01*
X131186Y208982D01*
X131342Y209093D01*
X131495Y209207D01*
X131645Y209326D01*
X131792Y209448D01*
X131936Y209573D01*
X132077Y209702D01*
X132215Y209835D01*
X132349Y209971D01*
X132480Y210110D01*
X132608Y210252D01*
X132732Y210398D01*
X132853Y210546D01*
X132970Y210697D01*
X133083Y210851D01*
X133192Y211008D01*
X133298Y211168D01*
X133399Y211330D01*
X133497Y211494D01*
X133590Y211661D01*
X133679Y211830D01*
X133764Y212001D01*
X133845Y212174D01*
X133922Y212350D01*
X133994Y212527D01*
X134062Y212705D01*
X134126Y212886D01*
X134185Y213067D01*
X133912Y213147D01*
X133855Y212972D01*
X133794Y212798D01*
X133728Y212627D01*
X133659Y212456D01*
X133585Y212288D01*
X133507Y212121D01*
X133425Y211957D01*
X133339Y211794D01*
X133249Y211634D01*
X133155Y211475D01*
X133057Y211319D01*
X132956Y211166D01*
X132851Y211015D01*
X132742Y210867D01*
X132629Y210721D01*
X132513Y210579D01*
X132394Y210439D01*
X132271Y210302D01*
X132145Y210168D01*
X132016Y210037D01*
X131883Y209910D01*
X131747Y209786D01*
X131609Y209665D01*
X131467Y209547D01*
X131323Y209433D01*
X131176Y209323D01*
X131026Y209216D01*
X130873Y209113D01*
X130719Y209014D01*
X130561Y208918D01*
X130402Y208827D01*
X130240Y208739D01*
X130076Y208656D01*
X129910Y208576D01*
X129743Y208500D01*
X129573Y208429D01*
X129402Y208362D01*
X129229Y208299D01*
X129055Y208240D01*
X128973Y208512D01*
X129140Y208568D01*
X129306Y208629D01*
X129471Y208694D01*
X129633Y208763D01*
X129795Y208835D01*
X129954Y208912D01*
X130111Y208992D01*
X130266Y209076D01*
X130420Y209165D01*
X130571Y209256D01*
X130719Y209352D01*
X130866Y209451D01*
X131010Y209553D01*
X131151Y209659D01*
X131290Y209769D01*
X131426Y209882D01*
X131559Y209998D01*
X131689Y210117D01*
X131816Y210240D01*
X131941Y210365D01*
X132062Y210494D01*
X132180Y210625D01*
X132295Y210760D01*
X132406Y210897D01*
X132514Y211037D01*
X132619Y211179D01*
X132720Y211324D01*
X132817Y211471D01*
X132911Y211621D01*
X133001Y211773D01*
X133088Y211927D01*
X133171Y212083D01*
X133249Y212241D01*
X133324Y212401D01*
X133395Y212563D01*
X133463Y212726D01*
X133526Y212891D01*
X133585Y213058D01*
X133639Y213226D01*
X133367Y213305D01*
X133314Y213144D01*
X133257Y212985D01*
X133197Y212826D01*
X133132Y212670D01*
X133064Y212514D01*
X132992Y212361D01*
X132916Y212209D01*
X132837Y212060D01*
X132754Y211912D01*
X132667Y211766D01*
X132577Y211623D01*
X132484Y211482D01*
X132387Y211343D01*
X132286Y211206D01*
X132183Y211072D01*
X132076Y210941D01*
X131966Y210812D01*
X131852Y210686D01*
X131736Y210562D01*
X131617Y210442D01*
X131495Y210325D01*
X131370Y210210D01*
X131242Y210099D01*
X131112Y209990D01*
X130979Y209885D01*
X130843Y209784D01*
X130705Y209685D01*
X130565Y209590D01*
X130423Y209499D01*
X130278Y209411D01*
X130131Y209326D01*
X129982Y209245D01*
X129831Y209168D01*
X129679Y209094D01*
X129524Y209025D01*
X129368Y208959D01*
X129210Y208897D01*
X129051Y208838D01*
X128891Y208784D01*
X128809Y209056D01*
X128962Y209108D01*
X129115Y209164D01*
X129265Y209224D01*
X129415Y209287D01*
X129563Y209354D01*
X129709Y209424D01*
X129853Y209498D01*
X129996Y209576D01*
X130136Y209657D01*
X130275Y209741D01*
X130411Y209829D01*
X130545Y209920D01*
X130677Y210014D01*
X130807Y210111D01*
X130934Y210212D01*
X131059Y210316D01*
X131181Y210422D01*
X131301Y210532D01*
X131418Y210644D01*
X131532Y210760D01*
X131643Y210878D01*
X131752Y210998D01*
X131857Y211122D01*
X131959Y211247D01*
X132059Y211376D01*
X132155Y211506D01*
X132248Y211639D01*
X132337Y211775D01*
X132423Y211912D01*
X132506Y212051D01*
X132586Y212193D01*
X132662Y212336D01*
X132735Y212481D01*
X132804Y212628D01*
X132869Y212776D01*
X132931Y212926D01*
X132989Y213078D01*
X133043Y213230D01*
X133094Y213385D01*
X132821Y213464D01*
X132771Y213313D01*
X132718Y213163D01*
X132660Y213015D01*
X132599Y212868D01*
X132535Y212723D01*
X132466Y212579D01*
X132395Y212437D01*
X132319Y212297D01*
X132240Y212159D01*
X132158Y212023D01*
X132073Y211889D01*
X131984Y211757D01*
X131892Y211627D01*
X131796Y211500D01*
X131698Y211375D01*
X131596Y211253D01*
X131491Y211133D01*
X131384Y211016D01*
X131273Y210901D01*
X131160Y210790D01*
X131044Y210681D01*
X130925Y210575D01*
X130804Y210472D01*
X130680Y210373D01*
X130554Y210276D01*
X130425Y210182D01*
X130294Y210092D01*
X130161Y210005D01*
X130026Y209922D01*
X129888Y209841D01*
X129749Y209765D01*
X129608Y209691D01*
X129465Y209622D01*
X129320Y209556D01*
X129174Y209493D01*
X129026Y209434D01*
X128877Y209379D01*
X128727Y209328D01*
X128645Y209600D01*
X128788Y209649D01*
X128930Y209702D01*
X129071Y209758D01*
X129210Y209817D01*
X129348Y209881D01*
X129484Y209947D01*
X129619Y210017D01*
X129752Y210090D01*
X129883Y210167D01*
X130011Y210247D01*
X130138Y210330D01*
X130263Y210416D01*
X130386Y210505D01*
X130506Y210597D01*
X130624Y210692D01*
X130740Y210790D01*
X130853Y210891D01*
X130964Y210995D01*
X131072Y211101D01*
X131177Y211210D01*
X131279Y211322D01*
X131379Y211436D01*
X131476Y211553D01*
X131570Y211672D01*
X131661Y211793D01*
X131749Y211916D01*
X131834Y212042D01*
X131915Y212170D01*
X131994Y212300D01*
X132069Y212431D01*
X132141Y212565D01*
X132209Y212700D01*
X132275Y212837D01*
X132336Y212975D01*
X132395Y213115D01*
X132449Y213257D01*
X132501Y213399D01*
X132548Y213543D01*
X124617Y223247D02*
X125397Y220662D01*
X125253Y220613D01*
X125111Y220560D01*
X124970Y220503D01*
X124831Y220443D01*
X124693Y220379D01*
X124557Y220312D01*
X124422Y220242D01*
X124290Y220168D01*
X124159Y220090D01*
X124031Y220009D01*
X123904Y219925D01*
X123780Y219838D01*
X123658Y219748D01*
X123538Y219654D01*
X123421Y219558D01*
X123306Y219459D01*
X123194Y219356D01*
X123085Y219251D01*
X122978Y219143D01*
X122874Y219033D01*
X122773Y218919D01*
X122674Y218804D01*
X122579Y218685D01*
X122487Y218565D01*
X122398Y218442D01*
X122312Y218317D01*
X122229Y218189D01*
X122150Y218060D01*
X122074Y217929D01*
X122001Y217795D01*
X121932Y217660D01*
X121866Y217523D01*
X121803Y217385D01*
X121745Y217245D01*
X121689Y217104D01*
X121638Y216961D01*
X121590Y216817D01*
X118997Y217570D01*
X119061Y217768D01*
X119129Y217964D01*
X119202Y218158D01*
X119280Y218351D01*
X119362Y218541D01*
X119449Y218730D01*
X119541Y218916D01*
X119637Y219100D01*
X119737Y219282D01*
X119842Y219461D01*
X119951Y219638D01*
X120064Y219812D01*
X120181Y219983D01*
X120302Y220152D01*
X120428Y220317D01*
X120557Y220480D01*
X120690Y220639D01*
X120827Y220795D01*
X120968Y220948D01*
X121112Y221097D01*
X121260Y221243D01*
X121411Y221385D01*
X121566Y221523D01*
X121724Y221658D01*
X121885Y221789D01*
X122049Y221916D01*
X122216Y222039D01*
X122386Y222158D01*
X122559Y222273D01*
X122735Y222384D01*
X122913Y222490D01*
X123094Y222592D01*
X123277Y222690D01*
X123462Y222783D01*
X123650Y222872D01*
X123840Y222957D01*
X124031Y223036D01*
X124225Y223112D01*
X124420Y223182D01*
X124617Y223248D01*
X124699Y222976D01*
X124509Y222912D01*
X124320Y222844D01*
X124133Y222771D01*
X123948Y222694D01*
X123765Y222613D01*
X123584Y222527D01*
X123405Y222437D01*
X123228Y222342D01*
X123053Y222243D01*
X122881Y222140D01*
X122712Y222033D01*
X122545Y221922D01*
X122380Y221807D01*
X122219Y221689D01*
X122060Y221566D01*
X121905Y221439D01*
X121752Y221309D01*
X121603Y221175D01*
X121457Y221038D01*
X121314Y220897D01*
X121174Y220753D01*
X121039Y220605D01*
X120906Y220455D01*
X120778Y220301D01*
X120653Y220144D01*
X120532Y219984D01*
X120414Y219822D01*
X120301Y219656D01*
X120192Y219488D01*
X120087Y219317D01*
X119985Y219144D01*
X119888Y218969D01*
X119796Y218791D01*
X119707Y218611D01*
X119623Y218429D01*
X119544Y218245D01*
X119468Y218059D01*
X119398Y217871D01*
X119331Y217682D01*
X119270Y217491D01*
X119542Y217412D01*
X119602Y217596D01*
X119666Y217778D01*
X119734Y217959D01*
X119807Y218139D01*
X119884Y218316D01*
X119965Y218492D01*
X120051Y218665D01*
X120140Y218837D01*
X120234Y219006D01*
X120331Y219173D01*
X120433Y219338D01*
X120538Y219500D01*
X120648Y219660D01*
X120761Y219817D01*
X120878Y219971D01*
X120998Y220122D01*
X121122Y220271D01*
X121250Y220416D01*
X121381Y220558D01*
X121516Y220697D01*
X121653Y220833D01*
X121794Y220966D01*
X121938Y221095D01*
X122086Y221220D01*
X122236Y221343D01*
X122389Y221461D01*
X122544Y221576D01*
X122703Y221687D01*
X122864Y221794D01*
X123028Y221897D01*
X123194Y221996D01*
X123362Y222092D01*
X123533Y222183D01*
X123705Y222270D01*
X123880Y222353D01*
X124057Y222432D01*
X124235Y222506D01*
X124416Y222577D01*
X124598Y222642D01*
X124781Y222704D01*
X124863Y222432D01*
X124682Y222371D01*
X124502Y222306D01*
X124324Y222236D01*
X124148Y222162D01*
X123974Y222083D01*
X123801Y222001D01*
X123631Y221914D01*
X123463Y221823D01*
X123297Y221728D01*
X123133Y221629D01*
X122972Y221525D01*
X122814Y221418D01*
X122658Y221307D01*
X122505Y221193D01*
X122355Y221074D01*
X122208Y220952D01*
X122064Y220827D01*
X121923Y220698D01*
X121785Y220565D01*
X121651Y220429D01*
X121520Y220290D01*
X121392Y220148D01*
X121268Y220002D01*
X121147Y219854D01*
X121030Y219703D01*
X120917Y219549D01*
X120808Y219392D01*
X120702Y219232D01*
X120601Y219070D01*
X120503Y218906D01*
X120410Y218739D01*
X120321Y218570D01*
X120236Y218399D01*
X120155Y218226D01*
X120078Y218050D01*
X120006Y217873D01*
X119938Y217695D01*
X119874Y217514D01*
X119815Y217333D01*
X120088Y217253D01*
X120145Y217428D01*
X120206Y217602D01*
X120272Y217773D01*
X120341Y217944D01*
X120415Y218112D01*
X120493Y218279D01*
X120575Y218443D01*
X120661Y218606D01*
X120751Y218766D01*
X120845Y218925D01*
X120943Y219081D01*
X121044Y219234D01*
X121149Y219385D01*
X121258Y219533D01*
X121371Y219679D01*
X121487Y219821D01*
X121606Y219961D01*
X121729Y220098D01*
X121855Y220232D01*
X121984Y220363D01*
X122117Y220490D01*
X122253Y220614D01*
X122391Y220735D01*
X122533Y220853D01*
X122677Y220967D01*
X122824Y221077D01*
X122974Y221184D01*
X123127Y221287D01*
X123281Y221386D01*
X123439Y221482D01*
X123598Y221573D01*
X123760Y221661D01*
X123924Y221744D01*
X124090Y221824D01*
X124257Y221900D01*
X124427Y221971D01*
X124598Y222038D01*
X124771Y222101D01*
X124945Y222160D01*
X125027Y221888D01*
X124860Y221832D01*
X124694Y221771D01*
X124529Y221706D01*
X124367Y221637D01*
X124205Y221565D01*
X124046Y221488D01*
X123889Y221408D01*
X123734Y221324D01*
X123580Y221235D01*
X123429Y221144D01*
X123281Y221048D01*
X123134Y220949D01*
X122990Y220847D01*
X122849Y220741D01*
X122710Y220631D01*
X122574Y220518D01*
X122441Y220402D01*
X122311Y220283D01*
X122184Y220160D01*
X122059Y220035D01*
X121938Y219906D01*
X121820Y219775D01*
X121705Y219640D01*
X121594Y219503D01*
X121486Y219363D01*
X121381Y219221D01*
X121280Y219076D01*
X121183Y218929D01*
X121089Y218779D01*
X120999Y218627D01*
X120912Y218473D01*
X120829Y218317D01*
X120751Y218159D01*
X120676Y217999D01*
X120605Y217837D01*
X120537Y217674D01*
X120474Y217509D01*
X120415Y217342D01*
X120361Y217174D01*
X120633Y217095D01*
X120686Y217256D01*
X120743Y217415D01*
X120803Y217574D01*
X120868Y217730D01*
X120936Y217886D01*
X121008Y218039D01*
X121084Y218191D01*
X121163Y218340D01*
X121246Y218488D01*
X121333Y218634D01*
X121423Y218777D01*
X121516Y218918D01*
X121613Y219057D01*
X121714Y219194D01*
X121817Y219328D01*
X121924Y219459D01*
X122034Y219588D01*
X122148Y219714D01*
X122264Y219838D01*
X122383Y219958D01*
X122505Y220075D01*
X122630Y220190D01*
X122758Y220301D01*
X122888Y220410D01*
X123021Y220515D01*
X123157Y220616D01*
X123295Y220715D01*
X123435Y220810D01*
X123577Y220901D01*
X123722Y220989D01*
X123869Y221074D01*
X124018Y221155D01*
X124169Y221232D01*
X124321Y221306D01*
X124476Y221375D01*
X124632Y221441D01*
X124790Y221503D01*
X124949Y221562D01*
X125109Y221616D01*
X125191Y221344D01*
X125038Y221292D01*
X124885Y221236D01*
X124735Y221176D01*
X124585Y221113D01*
X124437Y221046D01*
X124291Y220976D01*
X124147Y220902D01*
X124004Y220824D01*
X123864Y220743D01*
X123725Y220659D01*
X123589Y220571D01*
X123455Y220480D01*
X123323Y220386D01*
X123193Y220289D01*
X123066Y220188D01*
X122941Y220084D01*
X122819Y219978D01*
X122699Y219868D01*
X122582Y219756D01*
X122468Y219640D01*
X122357Y219522D01*
X122248Y219402D01*
X122143Y219278D01*
X122041Y219153D01*
X121941Y219024D01*
X121845Y218894D01*
X121752Y218761D01*
X121663Y218625D01*
X121577Y218488D01*
X121494Y218349D01*
X121414Y218207D01*
X121338Y218064D01*
X121265Y217919D01*
X121196Y217772D01*
X121131Y217624D01*
X121069Y217474D01*
X121011Y217322D01*
X120957Y217170D01*
X120906Y217015D01*
X121179Y216936D01*
X121229Y217087D01*
X121282Y217237D01*
X121340Y217385D01*
X121401Y217532D01*
X121465Y217677D01*
X121534Y217821D01*
X121605Y217963D01*
X121681Y218103D01*
X121760Y218241D01*
X121842Y218377D01*
X121927Y218511D01*
X122016Y218643D01*
X122108Y218773D01*
X122204Y218900D01*
X122302Y219025D01*
X122404Y219147D01*
X122509Y219267D01*
X122616Y219384D01*
X122727Y219499D01*
X122840Y219610D01*
X122956Y219719D01*
X123075Y219825D01*
X123196Y219928D01*
X123320Y220027D01*
X123446Y220124D01*
X123575Y220218D01*
X123706Y220308D01*
X123839Y220395D01*
X123974Y220478D01*
X124112Y220559D01*
X124251Y220635D01*
X124392Y220709D01*
X124535Y220778D01*
X124680Y220844D01*
X124826Y220907D01*
X124974Y220966D01*
X125123Y221021D01*
X125273Y221072D01*
X125355Y220800D01*
X125212Y220751D01*
X125070Y220698D01*
X124929Y220642D01*
X124790Y220583D01*
X124652Y220519D01*
X124516Y220453D01*
X124381Y220383D01*
X124248Y220310D01*
X124117Y220233D01*
X123989Y220153D01*
X123862Y220070D01*
X123737Y219984D01*
X123614Y219895D01*
X123494Y219803D01*
X123376Y219708D01*
X123260Y219610D01*
X123147Y219509D01*
X123036Y219405D01*
X122928Y219299D01*
X122823Y219190D01*
X122721Y219078D01*
X122621Y218964D01*
X122524Y218847D01*
X122430Y218728D01*
X122339Y218607D01*
X122251Y218484D01*
X122166Y218358D01*
X122085Y218230D01*
X122006Y218100D01*
X121931Y217969D01*
X121859Y217835D01*
X121791Y217700D01*
X121725Y217563D01*
X121664Y217425D01*
X121605Y217285D01*
X121551Y217143D01*
X121499Y217001D01*
X121452Y216857D01*
X118953Y212817D02*
X121538Y213597D01*
X121587Y213453D01*
X121640Y213311D01*
X121697Y213170D01*
X121757Y213031D01*
X121821Y212893D01*
X121888Y212757D01*
X121958Y212622D01*
X122032Y212490D01*
X122110Y212359D01*
X122191Y212231D01*
X122275Y212104D01*
X122362Y211980D01*
X122452Y211858D01*
X122546Y211738D01*
X122642Y211621D01*
X122741Y211506D01*
X122844Y211394D01*
X122949Y211285D01*
X123057Y211178D01*
X123167Y211074D01*
X123281Y210973D01*
X123396Y210874D01*
X123515Y210779D01*
X123635Y210687D01*
X123758Y210598D01*
X123883Y210512D01*
X124011Y210429D01*
X124140Y210350D01*
X124271Y210274D01*
X124405Y210201D01*
X124540Y210132D01*
X124677Y210066D01*
X124815Y210003D01*
X124955Y209945D01*
X125096Y209889D01*
X125239Y209838D01*
X125383Y209790D01*
X124630Y207197D01*
X124432Y207261D01*
X124236Y207329D01*
X124042Y207402D01*
X123849Y207480D01*
X123659Y207562D01*
X123470Y207649D01*
X123284Y207741D01*
X123100Y207837D01*
X122918Y207937D01*
X122739Y208042D01*
X122562Y208151D01*
X122388Y208264D01*
X122217Y208381D01*
X122048Y208502D01*
X121883Y208628D01*
X121720Y208757D01*
X121561Y208890D01*
X121405Y209027D01*
X121252Y209168D01*
X121103Y209312D01*
X120957Y209460D01*
X120815Y209611D01*
X120677Y209766D01*
X120542Y209924D01*
X120411Y210085D01*
X120284Y210249D01*
X120161Y210416D01*
X120042Y210586D01*
X119927Y210759D01*
X119816Y210935D01*
X119710Y211113D01*
X119608Y211294D01*
X119510Y211477D01*
X119417Y211662D01*
X119328Y211850D01*
X119243Y212040D01*
X119164Y212231D01*
X119088Y212425D01*
X119018Y212620D01*
X118952Y212817D01*
X119224Y212899D01*
X119288Y212709D01*
X119356Y212520D01*
X119429Y212333D01*
X119506Y212148D01*
X119587Y211965D01*
X119673Y211784D01*
X119763Y211605D01*
X119858Y211428D01*
X119957Y211253D01*
X120060Y211081D01*
X120167Y210912D01*
X120278Y210745D01*
X120393Y210580D01*
X120511Y210419D01*
X120634Y210260D01*
X120761Y210105D01*
X120891Y209952D01*
X121025Y209803D01*
X121162Y209657D01*
X121303Y209514D01*
X121447Y209374D01*
X121595Y209239D01*
X121745Y209106D01*
X121899Y208978D01*
X122056Y208853D01*
X122216Y208732D01*
X122378Y208614D01*
X122544Y208501D01*
X122712Y208392D01*
X122883Y208287D01*
X123056Y208185D01*
X123231Y208088D01*
X123409Y207996D01*
X123589Y207907D01*
X123771Y207823D01*
X123955Y207744D01*
X124141Y207668D01*
X124329Y207598D01*
X124518Y207531D01*
X124709Y207470D01*
X124788Y207742D01*
X124604Y207802D01*
X124422Y207866D01*
X124241Y207934D01*
X124061Y208007D01*
X123884Y208084D01*
X123708Y208165D01*
X123535Y208251D01*
X123363Y208340D01*
X123194Y208434D01*
X123027Y208531D01*
X122862Y208633D01*
X122700Y208738D01*
X122540Y208848D01*
X122383Y208961D01*
X122229Y209078D01*
X122078Y209198D01*
X121929Y209322D01*
X121784Y209450D01*
X121642Y209581D01*
X121503Y209716D01*
X121367Y209853D01*
X121234Y209994D01*
X121105Y210138D01*
X120980Y210286D01*
X120857Y210436D01*
X120739Y210589D01*
X120624Y210744D01*
X120513Y210903D01*
X120406Y211064D01*
X120303Y211228D01*
X120204Y211394D01*
X120108Y211562D01*
X120017Y211733D01*
X119930Y211905D01*
X119847Y212080D01*
X119768Y212257D01*
X119694Y212435D01*
X119623Y212616D01*
X119558Y212798D01*
X119496Y212981D01*
X119768Y213063D01*
X119829Y212882D01*
X119894Y212702D01*
X119964Y212524D01*
X120038Y212348D01*
X120117Y212174D01*
X120199Y212001D01*
X120286Y211831D01*
X120377Y211663D01*
X120472Y211497D01*
X120571Y211333D01*
X120675Y211172D01*
X120782Y211014D01*
X120893Y210858D01*
X121007Y210705D01*
X121126Y210555D01*
X121248Y210408D01*
X121373Y210264D01*
X121502Y210123D01*
X121635Y209985D01*
X121771Y209851D01*
X121910Y209720D01*
X122052Y209592D01*
X122198Y209468D01*
X122346Y209347D01*
X122497Y209230D01*
X122651Y209117D01*
X122808Y209008D01*
X122968Y208902D01*
X123130Y208801D01*
X123294Y208703D01*
X123461Y208610D01*
X123630Y208521D01*
X123801Y208436D01*
X123974Y208355D01*
X124150Y208278D01*
X124327Y208206D01*
X124505Y208138D01*
X124686Y208074D01*
X124867Y208015D01*
X124947Y208288D01*
X124772Y208345D01*
X124598Y208406D01*
X124427Y208472D01*
X124256Y208541D01*
X124088Y208615D01*
X123921Y208693D01*
X123757Y208775D01*
X123594Y208861D01*
X123434Y208951D01*
X123275Y209045D01*
X123119Y209143D01*
X122966Y209244D01*
X122815Y209349D01*
X122667Y209458D01*
X122521Y209571D01*
X122379Y209687D01*
X122239Y209806D01*
X122102Y209929D01*
X121968Y210055D01*
X121837Y210184D01*
X121710Y210317D01*
X121586Y210453D01*
X121465Y210591D01*
X121347Y210733D01*
X121233Y210877D01*
X121123Y211024D01*
X121016Y211174D01*
X120913Y211327D01*
X120814Y211481D01*
X120718Y211639D01*
X120627Y211798D01*
X120539Y211960D01*
X120456Y212124D01*
X120376Y212290D01*
X120300Y212457D01*
X120229Y212627D01*
X120162Y212798D01*
X120099Y212971D01*
X120040Y213145D01*
X120312Y213227D01*
X120368Y213060D01*
X120429Y212894D01*
X120494Y212729D01*
X120563Y212567D01*
X120635Y212405D01*
X120712Y212246D01*
X120792Y212089D01*
X120876Y211934D01*
X120965Y211780D01*
X121056Y211629D01*
X121152Y211481D01*
X121251Y211334D01*
X121353Y211190D01*
X121459Y211049D01*
X121569Y210910D01*
X121682Y210774D01*
X121798Y210641D01*
X121917Y210511D01*
X122040Y210384D01*
X122165Y210259D01*
X122294Y210138D01*
X122425Y210020D01*
X122560Y209905D01*
X122697Y209794D01*
X122837Y209686D01*
X122979Y209581D01*
X123124Y209480D01*
X123271Y209383D01*
X123421Y209289D01*
X123573Y209199D01*
X123727Y209112D01*
X123883Y209029D01*
X124041Y208951D01*
X124201Y208876D01*
X124363Y208805D01*
X124526Y208737D01*
X124691Y208674D01*
X124858Y208615D01*
X125026Y208561D01*
X125105Y208833D01*
X124944Y208886D01*
X124785Y208943D01*
X124626Y209003D01*
X124470Y209068D01*
X124314Y209136D01*
X124161Y209208D01*
X124009Y209284D01*
X123860Y209363D01*
X123712Y209446D01*
X123566Y209533D01*
X123423Y209623D01*
X123282Y209716D01*
X123143Y209813D01*
X123006Y209914D01*
X122872Y210017D01*
X122741Y210124D01*
X122612Y210234D01*
X122486Y210348D01*
X122362Y210464D01*
X122242Y210583D01*
X122125Y210705D01*
X122010Y210830D01*
X121899Y210958D01*
X121790Y211088D01*
X121685Y211221D01*
X121584Y211357D01*
X121485Y211495D01*
X121390Y211635D01*
X121299Y211777D01*
X121211Y211922D01*
X121126Y212069D01*
X121045Y212218D01*
X120968Y212369D01*
X120894Y212521D01*
X120825Y212676D01*
X120759Y212832D01*
X120697Y212990D01*
X120638Y213149D01*
X120584Y213309D01*
X120856Y213391D01*
X120908Y213238D01*
X120964Y213085D01*
X121024Y212935D01*
X121087Y212785D01*
X121154Y212637D01*
X121224Y212491D01*
X121298Y212347D01*
X121376Y212204D01*
X121457Y212064D01*
X121541Y211925D01*
X121629Y211789D01*
X121720Y211655D01*
X121814Y211523D01*
X121911Y211393D01*
X122012Y211266D01*
X122116Y211141D01*
X122222Y211019D01*
X122332Y210899D01*
X122444Y210782D01*
X122560Y210668D01*
X122678Y210557D01*
X122798Y210448D01*
X122922Y210343D01*
X123047Y210241D01*
X123176Y210141D01*
X123306Y210045D01*
X123439Y209952D01*
X123575Y209863D01*
X123712Y209777D01*
X123851Y209694D01*
X123993Y209614D01*
X124136Y209538D01*
X124281Y209465D01*
X124428Y209396D01*
X124576Y209331D01*
X124726Y209269D01*
X124878Y209211D01*
X125030Y209157D01*
X125185Y209106D01*
X125264Y209379D01*
X125113Y209429D01*
X124963Y209482D01*
X124815Y209540D01*
X124668Y209601D01*
X124523Y209665D01*
X124379Y209734D01*
X124237Y209805D01*
X124097Y209881D01*
X123959Y209960D01*
X123823Y210042D01*
X123689Y210127D01*
X123557Y210216D01*
X123427Y210308D01*
X123300Y210404D01*
X123175Y210502D01*
X123053Y210604D01*
X122933Y210709D01*
X122816Y210816D01*
X122701Y210927D01*
X122590Y211040D01*
X122481Y211156D01*
X122375Y211275D01*
X122272Y211396D01*
X122173Y211520D01*
X122076Y211646D01*
X121982Y211775D01*
X121892Y211906D01*
X121805Y212039D01*
X121722Y212174D01*
X121641Y212312D01*
X121565Y212451D01*
X121491Y212592D01*
X121422Y212735D01*
X121356Y212880D01*
X121293Y213026D01*
X121234Y213174D01*
X121179Y213323D01*
X121128Y213473D01*
X121400Y213555D01*
X121449Y213412D01*
X121502Y213270D01*
X121558Y213129D01*
X121617Y212990D01*
X121681Y212852D01*
X121747Y212716D01*
X121817Y212581D01*
X121890Y212448D01*
X121967Y212317D01*
X122047Y212189D01*
X122130Y212062D01*
X122216Y211937D01*
X122305Y211814D01*
X122397Y211694D01*
X122492Y211576D01*
X122590Y211460D01*
X122691Y211347D01*
X122795Y211236D01*
X122901Y211128D01*
X123010Y211023D01*
X123122Y210921D01*
X123236Y210821D01*
X123353Y210724D01*
X123472Y210630D01*
X123593Y210539D01*
X123716Y210451D01*
X123842Y210366D01*
X123970Y210285D01*
X124100Y210206D01*
X124231Y210131D01*
X124365Y210059D01*
X124500Y209991D01*
X124637Y209925D01*
X124775Y209864D01*
X124915Y209805D01*
X125057Y209751D01*
X125199Y209699D01*
X125343Y209652D01*
D23*
X119000Y202200D03*
D24*
X153200Y215200D03*
X153200Y227200D03*
D23*
X119000Y228200D03*
D24*
X153200Y203200D03*
D12*
X175800Y222200D03*
X175800Y205200D03*
D10*
X255500Y206400D03*
X238500Y206400D03*
D17*
X256699Y182800D03*
X256699Y173300D03*
X256699Y163800D03*
X282701Y163800D03*
X282701Y182800D03*
D12*
X232950Y164800D03*
X232950Y181800D03*
X194850Y181800D03*
X194850Y164800D03*
X213900Y164800D03*
X213900Y181800D03*
D10*
X261500Y150000D03*
X278500Y150000D03*
D12*
X301450Y181800D03*
X301450Y164800D03*
D10*
X255500Y225450D03*
X238500Y225450D03*
X3146500Y305000D03*
X3163500Y305000D03*
D12*
X3190000Y338500D03*
X3190000Y321500D03*
X3230000Y338500D03*
X3230000Y321500D03*
D10*
X3146500Y335000D03*
X3163500Y335000D03*
D12*
X3210000Y338500D03*
X3210000Y321500D03*
D10*
X3163500Y320000D03*
X3146500Y320000D03*
X3201500Y355000D03*
X3218500Y355000D03*
X3146500Y350000D03*
X3163500Y350000D03*
D25*
X250770Y1859000D03*
X199230Y1859000D03*
X199230Y1891000D03*
X250770Y1891000D03*
X400770Y1859000D03*
X349230Y1859000D03*
X349230Y1891000D03*
X400770Y1891000D03*
X550770Y1859000D03*
X499230Y1859000D03*
X499230Y1891000D03*
X550770Y1891000D03*
X700770Y1859000D03*
X649230Y1859000D03*
X649230Y1891000D03*
X700770Y1891000D03*
X850770Y1859000D03*
X799230Y1859000D03*
X799230Y1891000D03*
X850770Y1891000D03*
X1000770Y1859000D03*
X949230Y1859000D03*
X949230Y1891000D03*
X1000770Y1891000D03*
X1150770Y1859000D03*
X1099230Y1859000D03*
X1099230Y1891000D03*
X1150770Y1891000D03*
X1300770Y1859000D03*
X1249230Y1859000D03*
X1249230Y1891000D03*
X1300770Y1891000D03*
X1450770Y1859000D03*
X1399230Y1859000D03*
X1399230Y1891000D03*
X1450770Y1891000D03*
X1900770Y1859000D03*
X1849230Y1859000D03*
X1849230Y1891000D03*
X1900770Y1891000D03*
X2050770Y1859000D03*
X1999230Y1859000D03*
X1999230Y1891000D03*
X2050770Y1891000D03*
X2200770Y1859000D03*
X2149230Y1859000D03*
X2149230Y1891000D03*
X2200770Y1891000D03*
X2350770Y1859000D03*
X2299230Y1859000D03*
X2299230Y1891000D03*
X2350770Y1891000D03*
X2500770Y1859000D03*
X2449230Y1859000D03*
X2449230Y1891000D03*
X2500770Y1891000D03*
X2650770Y1859000D03*
X2599230Y1859000D03*
X2599230Y1891000D03*
X2650770Y1891000D03*
X2800770Y1859000D03*
X2749230Y1859000D03*
X2749230Y1891000D03*
X2800770Y1891000D03*
X2950770Y1859000D03*
X2899230Y1859000D03*
X2899230Y1891000D03*
X2950770Y1891000D03*
X100770Y1709000D03*
X49230Y1709000D03*
X49230Y1741000D03*
X100770Y1741000D03*
X250770Y1709000D03*
X199230Y1709000D03*
X199230Y1741000D03*
X250770Y1741000D03*
X400770Y1709000D03*
X349230Y1709000D03*
X349230Y1741000D03*
X400770Y1741000D03*
X550770Y1709000D03*
X499230Y1709000D03*
X499230Y1741000D03*
X550770Y1741000D03*
X700770Y1709000D03*
X649230Y1709000D03*
X649230Y1741000D03*
X700770Y1741000D03*
X850770Y1709000D03*
X799230Y1709000D03*
X799230Y1741000D03*
X850770Y1741000D03*
X1000770Y1709000D03*
X949230Y1709000D03*
X949230Y1741000D03*
X1000770Y1741000D03*
X1150770Y1709000D03*
X1099230Y1709000D03*
X1099230Y1741000D03*
X1150770Y1741000D03*
X1300770Y1709000D03*
X1249230Y1709000D03*
X1249230Y1741000D03*
X1300770Y1741000D03*
X1450770Y1709000D03*
X1399230Y1709000D03*
X1399230Y1741000D03*
X1450770Y1741000D03*
X1600770Y1709000D03*
X1549230Y1709000D03*
X1549230Y1741000D03*
X1600770Y1741000D03*
X1750770Y1709000D03*
X1699230Y1709000D03*
X1699230Y1741000D03*
X1750770Y1741000D03*
X1900770Y1709000D03*
X1849230Y1709000D03*
X1849230Y1741000D03*
X1900770Y1741000D03*
X2050770Y1709000D03*
X1999230Y1709000D03*
X1999230Y1741000D03*
X2050770Y1741000D03*
X2200770Y1709000D03*
X2149230Y1709000D03*
X2149230Y1741000D03*
X2200770Y1741000D03*
X2350770Y1709000D03*
X2299230Y1709000D03*
X2299230Y1741000D03*
X2350770Y1741000D03*
X2500770Y1709000D03*
X2449230Y1709000D03*
X2449230Y1741000D03*
X2500770Y1741000D03*
X2650770Y1709000D03*
X2599230Y1709000D03*
X2599230Y1741000D03*
X2650770Y1741000D03*
X2800770Y1709000D03*
X2749230Y1709000D03*
X2749230Y1741000D03*
X2800770Y1741000D03*
X2950770Y1709000D03*
X2899230Y1709000D03*
X2899230Y1741000D03*
X2950770Y1741000D03*
X3100770Y1709000D03*
X3049230Y1709000D03*
X3049230Y1741000D03*
X3100770Y1741000D03*
X100770Y1559000D03*
X49230Y1559000D03*
X49230Y1591000D03*
X100770Y1591000D03*
X250770Y1559000D03*
X199230Y1559000D03*
X199230Y1591000D03*
X250770Y1591000D03*
X400770Y1559000D03*
X349230Y1559000D03*
X349230Y1591000D03*
X400770Y1591000D03*
X550770Y1559000D03*
X499230Y1559000D03*
X499230Y1591000D03*
X550770Y1591000D03*
X700770Y1559000D03*
X649230Y1559000D03*
X649230Y1591000D03*
X700770Y1591000D03*
X850770Y1559000D03*
X799230Y1559000D03*
X799230Y1591000D03*
X850770Y1591000D03*
X1000770Y1559000D03*
X949230Y1559000D03*
X949230Y1591000D03*
X1000770Y1591000D03*
X1150770Y1559000D03*
X1099230Y1559000D03*
X1099230Y1591000D03*
X1150770Y1591000D03*
X1300770Y1559000D03*
X1249230Y1559000D03*
X1249230Y1591000D03*
X1300770Y1591000D03*
X1450770Y1559000D03*
X1399230Y1559000D03*
X1399230Y1591000D03*
X1450770Y1591000D03*
X1600770Y1559000D03*
X1549230Y1559000D03*
X1549230Y1591000D03*
X1600770Y1591000D03*
X1750770Y1559000D03*
X1699230Y1559000D03*
X1699230Y1591000D03*
X1750770Y1591000D03*
X1900770Y1559000D03*
X1849230Y1559000D03*
X1849230Y1591000D03*
X1900770Y1591000D03*
X2050770Y1559000D03*
X1999230Y1559000D03*
X1999230Y1591000D03*
X2050770Y1591000D03*
X2200770Y1559000D03*
X2149230Y1559000D03*
X2149230Y1591000D03*
X2200770Y1591000D03*
X2350770Y1559000D03*
X2299230Y1559000D03*
X2299230Y1591000D03*
X2350770Y1591000D03*
X2500770Y1559000D03*
X2449230Y1559000D03*
X2449230Y1591000D03*
X2500770Y1591000D03*
X2650770Y1559000D03*
X2599230Y1559000D03*
X2599230Y1591000D03*
X2650770Y1591000D03*
X2800770Y1559000D03*
X2749230Y1559000D03*
X2749230Y1591000D03*
X2800770Y1591000D03*
X2950770Y1559000D03*
X2899230Y1559000D03*
X2899230Y1591000D03*
X2950770Y1591000D03*
X3100770Y1559000D03*
X3049230Y1559000D03*
X3049230Y1591000D03*
X3100770Y1591000D03*
X100770Y1409000D03*
X49230Y1409000D03*
X49230Y1441000D03*
X100770Y1441000D03*
X250770Y1409000D03*
X199230Y1409000D03*
X199230Y1441000D03*
X250770Y1441000D03*
X400770Y1409000D03*
X349230Y1409000D03*
X349230Y1441000D03*
X400770Y1441000D03*
X550770Y1409000D03*
X499230Y1409000D03*
X499230Y1441000D03*
X550770Y1441000D03*
X700770Y1409000D03*
X649230Y1409000D03*
X649230Y1441000D03*
X700770Y1441000D03*
X850770Y1409000D03*
X799230Y1409000D03*
X799230Y1441000D03*
X850770Y1441000D03*
X1000770Y1409000D03*
X949230Y1409000D03*
X949230Y1441000D03*
X1000770Y1441000D03*
X1150770Y1409000D03*
X1099230Y1409000D03*
X1099230Y1441000D03*
X1150770Y1441000D03*
X1300770Y1409000D03*
X1249230Y1409000D03*
X1249230Y1441000D03*
X1300770Y1441000D03*
X1450770Y1409000D03*
X1399230Y1409000D03*
X1399230Y1441000D03*
X1450770Y1441000D03*
X1600770Y1409000D03*
X1549230Y1409000D03*
X1549230Y1441000D03*
X1600770Y1441000D03*
X1750770Y1409000D03*
X1699230Y1409000D03*
X1699230Y1441000D03*
X1750770Y1441000D03*
X1900770Y1409000D03*
X1849230Y1409000D03*
X1849230Y1441000D03*
X1900770Y1441000D03*
X2050770Y1409000D03*
X1999230Y1409000D03*
X1999230Y1441000D03*
X2050770Y1441000D03*
X2200770Y1409000D03*
X2149230Y1409000D03*
X2149230Y1441000D03*
X2200770Y1441000D03*
X2350770Y1409000D03*
X2299230Y1409000D03*
X2299230Y1441000D03*
X2350770Y1441000D03*
X2500770Y1409000D03*
X2449230Y1409000D03*
X2449230Y1441000D03*
X2500770Y1441000D03*
X2650770Y1409000D03*
X2599230Y1409000D03*
X2599230Y1441000D03*
X2650770Y1441000D03*
X2800770Y1409000D03*
X2749230Y1409000D03*
X2749230Y1441000D03*
X2800770Y1441000D03*
X2950770Y1409000D03*
X2899230Y1409000D03*
X2899230Y1441000D03*
X2950770Y1441000D03*
X3100770Y1409000D03*
X3049230Y1409000D03*
X3049230Y1441000D03*
X3100770Y1441000D03*
X100770Y1259000D03*
X49230Y1259000D03*
X49230Y1291000D03*
X100770Y1291000D03*
X250770Y1259000D03*
X199230Y1259000D03*
X199230Y1291000D03*
X250770Y1291000D03*
X400770Y1259000D03*
X349230Y1259000D03*
X349230Y1291000D03*
X400770Y1291000D03*
X550770Y1259000D03*
X499230Y1259000D03*
X499230Y1291000D03*
X550770Y1291000D03*
X700770Y1259000D03*
X649230Y1259000D03*
X649230Y1291000D03*
X700770Y1291000D03*
X850770Y1259000D03*
X799230Y1259000D03*
X799230Y1291000D03*
X850770Y1291000D03*
X1000770Y1259000D03*
X949230Y1259000D03*
X949230Y1291000D03*
X1000770Y1291000D03*
X1150770Y1259000D03*
X1099230Y1259000D03*
X1099230Y1291000D03*
X1150770Y1291000D03*
X1300770Y1259000D03*
X1249230Y1259000D03*
X1249230Y1291000D03*
X1300770Y1291000D03*
X1450770Y1259000D03*
X1399230Y1259000D03*
X1399230Y1291000D03*
X1450770Y1291000D03*
X1600770Y1259000D03*
X1549230Y1259000D03*
X1549230Y1291000D03*
X1600770Y1291000D03*
X1750770Y1259000D03*
X1699230Y1259000D03*
X1699230Y1291000D03*
X1750770Y1291000D03*
X1900770Y1259000D03*
X1849230Y1259000D03*
X1849230Y1291000D03*
X1900770Y1291000D03*
X2050770Y1259000D03*
X1999230Y1259000D03*
X1999230Y1291000D03*
X2050770Y1291000D03*
X2200770Y1259000D03*
X2149230Y1259000D03*
X2149230Y1291000D03*
X2200770Y1291000D03*
X2350770Y1259000D03*
X2299230Y1259000D03*
X2299230Y1291000D03*
X2350770Y1291000D03*
X2500770Y1259000D03*
X2449230Y1259000D03*
X2449230Y1291000D03*
X2500770Y1291000D03*
X2650770Y1259000D03*
X2599230Y1259000D03*
X2599230Y1291000D03*
X2650770Y1291000D03*
X2800770Y1259000D03*
X2749230Y1259000D03*
X2749230Y1291000D03*
X2800770Y1291000D03*
X2950770Y1259000D03*
X2899230Y1259000D03*
X2899230Y1291000D03*
X2950770Y1291000D03*
X3100770Y1259000D03*
X3049230Y1259000D03*
X3049230Y1291000D03*
X3100770Y1291000D03*
X100770Y1109000D03*
X49230Y1109000D03*
X49230Y1141000D03*
X100770Y1141000D03*
X250770Y1109000D03*
X199230Y1109000D03*
X199230Y1141000D03*
X250770Y1141000D03*
X400770Y1109000D03*
X349230Y1109000D03*
X349230Y1141000D03*
X400770Y1141000D03*
X550770Y1109000D03*
X499230Y1109000D03*
X499230Y1141000D03*
X550770Y1141000D03*
X700770Y1109000D03*
X649230Y1109000D03*
X649230Y1141000D03*
X700770Y1141000D03*
X850770Y1109000D03*
X799230Y1109000D03*
X799230Y1141000D03*
X850770Y1141000D03*
X1000770Y1109000D03*
X949230Y1109000D03*
X949230Y1141000D03*
X1000770Y1141000D03*
X1150770Y1109000D03*
X1099230Y1109000D03*
X1099230Y1141000D03*
X1150770Y1141000D03*
X1300770Y1109000D03*
X1249230Y1109000D03*
X1249230Y1141000D03*
X1300770Y1141000D03*
X1450770Y1109000D03*
X1399230Y1109000D03*
X1399230Y1141000D03*
X1450770Y1141000D03*
X1600770Y1109000D03*
X1549230Y1109000D03*
X1549230Y1141000D03*
X1600770Y1141000D03*
X1750770Y1109000D03*
X1699230Y1109000D03*
X1699230Y1141000D03*
X1750770Y1141000D03*
X1900770Y1109000D03*
X1849230Y1109000D03*
X1849230Y1141000D03*
X1900770Y1141000D03*
X2050770Y1109000D03*
X1999230Y1109000D03*
X1999230Y1141000D03*
X2050770Y1141000D03*
X2200770Y1109000D03*
X2149230Y1109000D03*
X2149230Y1141000D03*
X2200770Y1141000D03*
X2350770Y1109000D03*
X2299230Y1109000D03*
X2299230Y1141000D03*
X2350770Y1141000D03*
X2500770Y1109000D03*
X2449230Y1109000D03*
X2449230Y1141000D03*
X2500770Y1141000D03*
X2650770Y1109000D03*
X2599230Y1109000D03*
X2599230Y1141000D03*
X2650770Y1141000D03*
X2800770Y1109000D03*
X2749230Y1109000D03*
X2749230Y1141000D03*
X2800770Y1141000D03*
X2950770Y1109000D03*
X2899230Y1109000D03*
X2899230Y1141000D03*
X2950770Y1141000D03*
X3100770Y1109000D03*
X3049230Y1109000D03*
X3049230Y1141000D03*
X3100770Y1141000D03*
X100770Y959000D03*
X49230Y959000D03*
X49230Y991000D03*
X100770Y991000D03*
X250770Y959000D03*
X199230Y959000D03*
X199230Y991000D03*
X250770Y991000D03*
X400770Y959000D03*
X349230Y959000D03*
X349230Y991000D03*
X400770Y991000D03*
X550770Y959000D03*
X499230Y959000D03*
X499230Y991000D03*
X550770Y991000D03*
X700770Y959000D03*
X649230Y959000D03*
X649230Y991000D03*
X700770Y991000D03*
X850770Y959000D03*
X799230Y959000D03*
X799230Y991000D03*
X850770Y991000D03*
X1000770Y959000D03*
X949230Y959000D03*
X949230Y991000D03*
X1000770Y991000D03*
X1150770Y959000D03*
X1099230Y959000D03*
X1099230Y991000D03*
X1150770Y991000D03*
X1300770Y959000D03*
X1249230Y959000D03*
X1249230Y991000D03*
X1300770Y991000D03*
X1450770Y959000D03*
X1399230Y959000D03*
X1399230Y991000D03*
X1450770Y991000D03*
X1600770Y959000D03*
X1549230Y959000D03*
X1549230Y991000D03*
X1600770Y991000D03*
X1750770Y959000D03*
X1699230Y959000D03*
X1699230Y991000D03*
X1750770Y991000D03*
X1900770Y959000D03*
X1849230Y959000D03*
X1849230Y991000D03*
X1900770Y991000D03*
X2050770Y959000D03*
X1999230Y959000D03*
X1999230Y991000D03*
X2050770Y991000D03*
X2200770Y959000D03*
X2149230Y959000D03*
X2149230Y991000D03*
X2200770Y991000D03*
X2350770Y959000D03*
X2299230Y959000D03*
X2299230Y991000D03*
X2350770Y991000D03*
X2500770Y959000D03*
X2449230Y959000D03*
X2449230Y991000D03*
X2500770Y991000D03*
X2650770Y959000D03*
X2599230Y959000D03*
X2599230Y991000D03*
X2650770Y991000D03*
X2800770Y959000D03*
X2749230Y959000D03*
X2749230Y991000D03*
X2800770Y991000D03*
X2950770Y959000D03*
X2899230Y959000D03*
X2899230Y991000D03*
X2950770Y991000D03*
X3100770Y959000D03*
X3049230Y959000D03*
X3049230Y991000D03*
X3100770Y991000D03*
X100770Y809000D03*
X49230Y809000D03*
X49230Y841000D03*
X100770Y841000D03*
X250770Y809000D03*
X199230Y809000D03*
X199230Y841000D03*
X250770Y841000D03*
X400770Y809000D03*
X349230Y809000D03*
X349230Y841000D03*
X400770Y841000D03*
X550770Y809000D03*
X499230Y809000D03*
X499230Y841000D03*
X550770Y841000D03*
X700770Y809000D03*
X649230Y809000D03*
X649230Y841000D03*
X700770Y841000D03*
X850770Y809000D03*
X799230Y809000D03*
X799230Y841000D03*
X850770Y841000D03*
X1000770Y809000D03*
X949230Y809000D03*
X949230Y841000D03*
X1000770Y841000D03*
X1150770Y809000D03*
X1099230Y809000D03*
X1099230Y841000D03*
X1150770Y841000D03*
X1300770Y809000D03*
X1249230Y809000D03*
X1249230Y841000D03*
X1300770Y841000D03*
X1450770Y809000D03*
X1399230Y809000D03*
X1399230Y841000D03*
X1450770Y841000D03*
X1600770Y809000D03*
X1549230Y809000D03*
X1549230Y841000D03*
X1600770Y841000D03*
X1750770Y809000D03*
X1699230Y809000D03*
X1699230Y841000D03*
X1750770Y841000D03*
X1900770Y809000D03*
X1849230Y809000D03*
X1849230Y841000D03*
X1900770Y841000D03*
X2050770Y809000D03*
X1999230Y809000D03*
X1999230Y841000D03*
X2050770Y841000D03*
X2200770Y809000D03*
X2149230Y809000D03*
X2149230Y841000D03*
X2200770Y841000D03*
X2350770Y809000D03*
X2299230Y809000D03*
X2299230Y841000D03*
X2350770Y841000D03*
X2500770Y809000D03*
X2449230Y809000D03*
X2449230Y841000D03*
X2500770Y841000D03*
X2650770Y809000D03*
X2599230Y809000D03*
X2599230Y841000D03*
X2650770Y841000D03*
X2800770Y809000D03*
X2749230Y809000D03*
X2749230Y841000D03*
X2800770Y841000D03*
X2950770Y809000D03*
X2899230Y809000D03*
X2899230Y841000D03*
X2950770Y841000D03*
X3100770Y809000D03*
X3049230Y809000D03*
X3049230Y841000D03*
X3100770Y841000D03*
X100770Y659000D03*
X49230Y659000D03*
X49230Y691000D03*
X100770Y691000D03*
X250770Y659000D03*
X199230Y659000D03*
X199230Y691000D03*
X250770Y691000D03*
X400770Y659000D03*
X349230Y659000D03*
X349230Y691000D03*
X400770Y691000D03*
X550770Y659000D03*
X499230Y659000D03*
X499230Y691000D03*
X550770Y691000D03*
X700770Y659000D03*
X649230Y659000D03*
X649230Y691000D03*
X700770Y691000D03*
X850770Y659000D03*
X799230Y659000D03*
X799230Y691000D03*
X850770Y691000D03*
X1000770Y659000D03*
X949230Y659000D03*
X949230Y691000D03*
X1000770Y691000D03*
X1150770Y659000D03*
X1099230Y659000D03*
X1099230Y691000D03*
X1150770Y691000D03*
X1300770Y659000D03*
X1249230Y659000D03*
X1249230Y691000D03*
X1300770Y691000D03*
X1450770Y659000D03*
X1399230Y659000D03*
X1399230Y691000D03*
X1450770Y691000D03*
X1600770Y659000D03*
X1549230Y659000D03*
X1549230Y691000D03*
X1600770Y691000D03*
X1750770Y659000D03*
X1699230Y659000D03*
X1699230Y691000D03*
X1750770Y691000D03*
X1900770Y659000D03*
X1849230Y659000D03*
X1849230Y691000D03*
X1900770Y691000D03*
X2050770Y659000D03*
X1999230Y659000D03*
X1999230Y691000D03*
X2050770Y691000D03*
X2200770Y659000D03*
X2149230Y659000D03*
X2149230Y691000D03*
X2200770Y691000D03*
X2350770Y659000D03*
X2299230Y659000D03*
X2299230Y691000D03*
X2350770Y691000D03*
X2500770Y659000D03*
X2449230Y659000D03*
X2449230Y691000D03*
X2500770Y691000D03*
X2650770Y659000D03*
X2599230Y659000D03*
X2599230Y691000D03*
X2650770Y691000D03*
X2800770Y659000D03*
X2749230Y659000D03*
X2749230Y691000D03*
X2800770Y691000D03*
X2950770Y659000D03*
X2899230Y659000D03*
X2899230Y691000D03*
X2950770Y691000D03*
X3100770Y659000D03*
X3049230Y659000D03*
X3049230Y691000D03*
X3100770Y691000D03*
X100770Y509000D03*
X49230Y509000D03*
X49230Y541000D03*
X100770Y541000D03*
X250770Y509000D03*
X199230Y509000D03*
X199230Y541000D03*
X250770Y541000D03*
X400770Y509000D03*
X349230Y509000D03*
X349230Y541000D03*
X400770Y541000D03*
X550770Y509000D03*
X499230Y509000D03*
X499230Y541000D03*
X550770Y541000D03*
X700770Y509000D03*
X649230Y509000D03*
X649230Y541000D03*
X700770Y541000D03*
X850770Y509000D03*
X799230Y509000D03*
X799230Y541000D03*
X850770Y541000D03*
X1000770Y509000D03*
X949230Y509000D03*
X949230Y541000D03*
X1000770Y541000D03*
X1150770Y509000D03*
X1099230Y509000D03*
X1099230Y541000D03*
X1150770Y541000D03*
X1300770Y509000D03*
X1249230Y509000D03*
X1249230Y541000D03*
X1300770Y541000D03*
X1450770Y509000D03*
X1399230Y509000D03*
X1399230Y541000D03*
X1450770Y541000D03*
X1600770Y509000D03*
X1549230Y509000D03*
X1549230Y541000D03*
X1600770Y541000D03*
X1750770Y509000D03*
X1699230Y509000D03*
X1699230Y541000D03*
X1750770Y541000D03*
X1900770Y509000D03*
X1849230Y509000D03*
X1849230Y541000D03*
X1900770Y541000D03*
X2050770Y509000D03*
X1999230Y509000D03*
X1999230Y541000D03*
X2050770Y541000D03*
X2200770Y509000D03*
X2149230Y509000D03*
X2149230Y541000D03*
X2200770Y541000D03*
X2350770Y509000D03*
X2299230Y509000D03*
X2299230Y541000D03*
X2350770Y541000D03*
X2500770Y509000D03*
X2449230Y509000D03*
X2449230Y541000D03*
X2500770Y541000D03*
X2650770Y509000D03*
X2599230Y509000D03*
X2599230Y541000D03*
X2650770Y541000D03*
X2800770Y509000D03*
X2749230Y509000D03*
X2749230Y541000D03*
X2800770Y541000D03*
X2950770Y509000D03*
X2899230Y509000D03*
X2899230Y541000D03*
X2950770Y541000D03*
X3100770Y509000D03*
X3049230Y509000D03*
X3049230Y541000D03*
X3100770Y541000D03*
X250770Y359000D03*
X199230Y359000D03*
X199230Y391000D03*
X250770Y391000D03*
X400770Y359000D03*
X349230Y359000D03*
X349230Y391000D03*
X400770Y391000D03*
X550770Y359000D03*
X499230Y359000D03*
X499230Y391000D03*
X550770Y391000D03*
X700770Y359000D03*
X649230Y359000D03*
X649230Y391000D03*
X700770Y391000D03*
X850770Y359000D03*
X799230Y359000D03*
X799230Y391000D03*
X850770Y391000D03*
X1000770Y359000D03*
X949230Y359000D03*
X949230Y391000D03*
X1000770Y391000D03*
X1150770Y359000D03*
X1099230Y359000D03*
X1099230Y391000D03*
X1150770Y391000D03*
X1300770Y359000D03*
X1249230Y359000D03*
X1249230Y391000D03*
X1300770Y391000D03*
X1450770Y359000D03*
X1399230Y359000D03*
X1399230Y391000D03*
X1450770Y391000D03*
X1600770Y359000D03*
X1549230Y359000D03*
X1549230Y391000D03*
X1600770Y391000D03*
X1750770Y359000D03*
X1699230Y359000D03*
X1699230Y391000D03*
X1750770Y391000D03*
X1900770Y359000D03*
X1849230Y359000D03*
X1849230Y391000D03*
X1900770Y391000D03*
X2050770Y359000D03*
X1999230Y359000D03*
X1999230Y391000D03*
X2050770Y391000D03*
X2200770Y359000D03*
X2149230Y359000D03*
X2149230Y391000D03*
X2200770Y391000D03*
X2350770Y359000D03*
X2299230Y359000D03*
X2299230Y391000D03*
X2350770Y391000D03*
X2500770Y359000D03*
X2449230Y359000D03*
X2449230Y391000D03*
X2500770Y391000D03*
X2650770Y359000D03*
X2599230Y359000D03*
X2599230Y391000D03*
X2650770Y391000D03*
X2800770Y359000D03*
X2749230Y359000D03*
X2749230Y391000D03*
X2800770Y391000D03*
X2950770Y359000D03*
X2899230Y359000D03*
X2899230Y391000D03*
X2950770Y391000D03*
X3100770Y359000D03*
X3049230Y359000D03*
X3049230Y391000D03*
X3100770Y391000D03*
X850770Y209000D03*
X799230Y209000D03*
X799230Y241000D03*
X850770Y241000D03*
X1000770Y209000D03*
X949230Y209000D03*
X949230Y241000D03*
X1000770Y241000D03*
X1150770Y209000D03*
X1099230Y209000D03*
X1099230Y241000D03*
X1150770Y241000D03*
X1300770Y209000D03*
X1249230Y209000D03*
X1249230Y241000D03*
X1300770Y241000D03*
X1450770Y209000D03*
X1399230Y209000D03*
X1399230Y241000D03*
X1450770Y241000D03*
X1600770Y209000D03*
X1549230Y209000D03*
X1549230Y241000D03*
X1600770Y241000D03*
X1750770Y209000D03*
X1699230Y209000D03*
X1699230Y241000D03*
X1750770Y241000D03*
X1900770Y209000D03*
X1849230Y209000D03*
X1849230Y241000D03*
X1900770Y241000D03*
X2050770Y209000D03*
X1999230Y209000D03*
X1999230Y241000D03*
X2050770Y241000D03*
X2200770Y209000D03*
X2149230Y209000D03*
X2149230Y241000D03*
X2200770Y241000D03*
X2350770Y209000D03*
X2299230Y209000D03*
X2299230Y241000D03*
X2350770Y241000D03*
X2500770Y209000D03*
X2449230Y209000D03*
X2449230Y241000D03*
X2500770Y241000D03*
X2650770Y209000D03*
X2599230Y209000D03*
X2599230Y241000D03*
X2650770Y241000D03*
X2800770Y209000D03*
X2749230Y209000D03*
X2749230Y241000D03*
X2800770Y241000D03*
X2950770Y209000D03*
X2899230Y209000D03*
X2899230Y241000D03*
X2950770Y241000D03*
X3100770Y209000D03*
X3049230Y209000D03*
X3049230Y241000D03*
X3100770Y241000D03*
X850770Y59000D03*
X799230Y59000D03*
X799230Y91000D03*
X850770Y91000D03*
X1000770Y59000D03*
X949230Y59000D03*
X949230Y91000D03*
X1000770Y91000D03*
X1150770Y59000D03*
X1099230Y59000D03*
X1099230Y91000D03*
X1150770Y91000D03*
X1300770Y59000D03*
X1249230Y59000D03*
X1249230Y91000D03*
X1300770Y91000D03*
X1750770Y59000D03*
X1699230Y59000D03*
X1699230Y91000D03*
X1750770Y91000D03*
X1913270Y59000D03*
X1861730Y59000D03*
X1861730Y91000D03*
X1913270Y91000D03*
X2050770Y59000D03*
X1999230Y59000D03*
X1999230Y91000D03*
X2050770Y91000D03*
X2200770Y59000D03*
X2149230Y59000D03*
X2149230Y91000D03*
X2200770Y91000D03*
X2350770Y59000D03*
X2299230Y59000D03*
X2299230Y91000D03*
X2350770Y91000D03*
X2500770Y59000D03*
X2449230Y59000D03*
X2449230Y91000D03*
X2500770Y91000D03*
X2650770Y59000D03*
X2599230Y59000D03*
X2599230Y91000D03*
X2650770Y91000D03*
X2800770Y59000D03*
X2749230Y59000D03*
X2749230Y91000D03*
X2800770Y91000D03*
X2950770Y59000D03*
X2899230Y59000D03*
X2899230Y91000D03*
X2950770Y91000D03*
D10*
X139290Y80030D03*
X156290Y80030D03*
X51200Y180500D03*
X68200Y180500D03*
D12*
X85000Y178500D03*
X85000Y161500D03*
X97500Y226000D03*
X97500Y209000D03*
D25*
X100770Y359000D03*
X49230Y359000D03*
X49230Y391000D03*
X100770Y391000D03*
X700770Y209000D03*
X649230Y209000D03*
X649230Y241000D03*
X700770Y241000D03*
X700770Y59000D03*
X649230Y59000D03*
X649230Y91000D03*
X700770Y91000D03*
M02*
