G04 EAGLE Gerber RS-274X export*
G75*
%MOMM*%
%FSLAX34Y34*%
%LPD*%
%INBottom Copper*%
%IPPOS*%
%AMOC8*
5,1,8,0,0,1.08239X$1,22.5*%
G01*
%ADD10C,0.203200*%
%ADD11C,1.000000*%
%ADD12C,0.736600*%
%ADD13C,0.177800*%
%ADD14C,0.550000*%

G36*
X3110058Y2803D02*
X3110058Y2803D01*
X3110116Y2801D01*
X3110198Y2823D01*
X3110282Y2835D01*
X3110335Y2858D01*
X3110391Y2873D01*
X3110464Y2916D01*
X3110541Y2951D01*
X3110586Y2989D01*
X3110636Y3018D01*
X3110694Y3080D01*
X3110758Y3134D01*
X3110790Y3183D01*
X3110830Y3226D01*
X3110869Y3301D01*
X3110916Y3371D01*
X3110933Y3427D01*
X3110960Y3479D01*
X3110971Y3547D01*
X3111001Y3642D01*
X3111004Y3742D01*
X3111015Y3810D01*
X3111015Y69208D01*
X3111003Y69293D01*
X3111001Y69379D01*
X3110983Y69433D01*
X3110975Y69490D01*
X3110940Y69568D01*
X3110914Y69650D01*
X3110882Y69697D01*
X3110859Y69749D01*
X3110804Y69815D01*
X3110756Y69886D01*
X3110712Y69923D01*
X3110676Y69966D01*
X3110604Y70014D01*
X3110538Y70069D01*
X3110486Y70092D01*
X3110439Y70124D01*
X3110357Y70150D01*
X3110278Y70185D01*
X3110222Y70192D01*
X3110168Y70210D01*
X3110082Y70212D01*
X3109997Y70224D01*
X3109941Y70215D01*
X3109884Y70217D01*
X3109801Y70195D01*
X3109716Y70183D01*
X3109664Y70159D01*
X3109609Y70145D01*
X3109535Y70101D01*
X3109456Y70066D01*
X3109413Y70029D01*
X3109364Y70000D01*
X3109305Y69937D01*
X3109240Y69881D01*
X3109214Y69840D01*
X3109170Y69793D01*
X3109104Y69663D01*
X3109062Y69597D01*
X3106683Y63853D01*
X3101147Y58317D01*
X3093914Y55321D01*
X3086086Y55321D01*
X3078853Y58317D01*
X3073317Y63853D01*
X3070321Y71086D01*
X3070321Y78914D01*
X3073317Y86147D01*
X3078853Y91683D01*
X3086086Y94679D01*
X3093914Y94679D01*
X3101147Y91683D01*
X3106683Y86147D01*
X3109062Y80403D01*
X3109106Y80329D01*
X3109141Y80251D01*
X3109178Y80207D01*
X3109207Y80158D01*
X3109269Y80099D01*
X3109325Y80034D01*
X3109372Y80002D01*
X3109413Y79963D01*
X3109490Y79924D01*
X3109561Y79876D01*
X3109615Y79859D01*
X3109666Y79833D01*
X3109750Y79816D01*
X3109832Y79790D01*
X3109889Y79789D01*
X3109945Y79778D01*
X3110030Y79785D01*
X3110116Y79783D01*
X3110171Y79797D01*
X3110228Y79802D01*
X3110308Y79833D01*
X3110391Y79855D01*
X3110440Y79884D01*
X3110493Y79904D01*
X3110562Y79956D01*
X3110636Y80000D01*
X3110675Y80042D01*
X3110720Y80076D01*
X3110771Y80145D01*
X3110830Y80207D01*
X3110856Y80258D01*
X3110890Y80304D01*
X3110921Y80384D01*
X3110960Y80461D01*
X3110968Y80509D01*
X3110991Y80570D01*
X3111002Y80714D01*
X3111015Y80792D01*
X3111015Y1896708D01*
X3111003Y1896793D01*
X3111001Y1896879D01*
X3110983Y1896933D01*
X3110975Y1896990D01*
X3110940Y1897068D01*
X3110914Y1897150D01*
X3110882Y1897197D01*
X3110859Y1897249D01*
X3110804Y1897315D01*
X3110756Y1897386D01*
X3110712Y1897423D01*
X3110676Y1897466D01*
X3110604Y1897514D01*
X3110538Y1897569D01*
X3110486Y1897592D01*
X3110439Y1897624D01*
X3110357Y1897650D01*
X3110278Y1897685D01*
X3110222Y1897692D01*
X3110168Y1897710D01*
X3110082Y1897712D01*
X3109997Y1897724D01*
X3109941Y1897715D01*
X3109884Y1897717D01*
X3109801Y1897695D01*
X3109716Y1897683D01*
X3109664Y1897659D01*
X3109609Y1897645D01*
X3109535Y1897601D01*
X3109456Y1897566D01*
X3109413Y1897529D01*
X3109364Y1897500D01*
X3109305Y1897437D01*
X3109240Y1897381D01*
X3109214Y1897340D01*
X3109170Y1897293D01*
X3109104Y1897163D01*
X3109062Y1897097D01*
X3106683Y1891353D01*
X3101147Y1885817D01*
X3093914Y1882821D01*
X3086086Y1882821D01*
X3078853Y1885817D01*
X3073317Y1891353D01*
X3070321Y1898586D01*
X3070321Y1906414D01*
X3073317Y1913647D01*
X3078853Y1919183D01*
X3086086Y1922179D01*
X3093914Y1922179D01*
X3101147Y1919183D01*
X3106683Y1913647D01*
X3109062Y1907903D01*
X3109106Y1907829D01*
X3109141Y1907751D01*
X3109178Y1907707D01*
X3109207Y1907658D01*
X3109269Y1907599D01*
X3109325Y1907534D01*
X3109372Y1907502D01*
X3109413Y1907463D01*
X3109490Y1907424D01*
X3109561Y1907376D01*
X3109615Y1907359D01*
X3109666Y1907333D01*
X3109750Y1907316D01*
X3109832Y1907290D01*
X3109889Y1907289D01*
X3109945Y1907278D01*
X3110030Y1907285D01*
X3110116Y1907283D01*
X3110171Y1907297D01*
X3110228Y1907302D01*
X3110308Y1907333D01*
X3110391Y1907355D01*
X3110440Y1907384D01*
X3110493Y1907404D01*
X3110562Y1907456D01*
X3110636Y1907500D01*
X3110675Y1907542D01*
X3110720Y1907576D01*
X3110771Y1907645D01*
X3110830Y1907707D01*
X3110856Y1907758D01*
X3110890Y1907804D01*
X3110921Y1907884D01*
X3110960Y1907961D01*
X3110968Y1908009D01*
X3110991Y1908070D01*
X3111002Y1908214D01*
X3111015Y1908292D01*
X3111015Y1973690D01*
X3111007Y1973748D01*
X3111009Y1973806D01*
X3110987Y1973888D01*
X3110975Y1973972D01*
X3110952Y1974025D01*
X3110937Y1974081D01*
X3110894Y1974154D01*
X3110859Y1974231D01*
X3110821Y1974276D01*
X3110792Y1974326D01*
X3110730Y1974384D01*
X3110676Y1974448D01*
X3110627Y1974480D01*
X3110584Y1974520D01*
X3110509Y1974559D01*
X3110439Y1974606D01*
X3110383Y1974623D01*
X3110331Y1974650D01*
X3110263Y1974661D01*
X3110168Y1974691D01*
X3110068Y1974694D01*
X3110000Y1974705D01*
X3810Y1974705D01*
X3752Y1974697D01*
X3694Y1974699D01*
X3612Y1974677D01*
X3528Y1974665D01*
X3475Y1974642D01*
X3419Y1974627D01*
X3346Y1974584D01*
X3269Y1974549D01*
X3224Y1974511D01*
X3174Y1974482D01*
X3116Y1974420D01*
X3052Y1974366D01*
X3020Y1974317D01*
X2980Y1974274D01*
X2941Y1974199D01*
X2894Y1974129D01*
X2877Y1974073D01*
X2850Y1974021D01*
X2839Y1973953D01*
X2809Y1973858D01*
X2806Y1973758D01*
X2795Y1973690D01*
X2795Y405470D01*
X2799Y405440D01*
X2796Y405411D01*
X2819Y405300D01*
X2835Y405188D01*
X2847Y405161D01*
X2853Y405132D01*
X2905Y405032D01*
X2951Y404929D01*
X2970Y404906D01*
X2984Y404880D01*
X3062Y404798D01*
X3134Y404712D01*
X3159Y404695D01*
X3180Y404674D01*
X3277Y404617D01*
X3371Y404554D01*
X3400Y404545D01*
X3425Y404530D01*
X3534Y404503D01*
X3642Y404469D01*
X3672Y404468D01*
X3701Y404460D01*
X3813Y404464D01*
X3926Y404461D01*
X3955Y404469D01*
X3985Y404470D01*
X4092Y404505D01*
X4201Y404533D01*
X4227Y404548D01*
X4255Y404557D01*
X4290Y404582D01*
X6414Y405462D01*
X8586Y405462D01*
X10594Y404630D01*
X12130Y403094D01*
X12962Y401086D01*
X12962Y398914D01*
X12130Y396906D01*
X10594Y395370D01*
X8586Y394538D01*
X6414Y394538D01*
X4317Y395407D01*
X4301Y395419D01*
X4274Y395429D01*
X4249Y395446D01*
X4141Y395480D01*
X4036Y395520D01*
X4006Y395522D01*
X3978Y395531D01*
X3865Y395534D01*
X3752Y395544D01*
X3723Y395538D01*
X3694Y395539D01*
X3585Y395510D01*
X3474Y395488D01*
X3447Y395474D01*
X3419Y395467D01*
X3322Y395409D01*
X3221Y395357D01*
X3200Y395337D01*
X3174Y395322D01*
X3097Y395239D01*
X3015Y395162D01*
X3000Y395136D01*
X2980Y395114D01*
X2928Y395014D01*
X2871Y394917D01*
X2864Y394888D01*
X2850Y394861D01*
X2837Y394784D01*
X2801Y394641D01*
X2803Y394578D01*
X2795Y394530D01*
X2795Y250000D01*
X2803Y249942D01*
X2801Y249884D01*
X2823Y249802D01*
X2835Y249718D01*
X2858Y249665D01*
X2873Y249609D01*
X2916Y249536D01*
X2951Y249459D01*
X2989Y249414D01*
X3018Y249364D01*
X3080Y249306D01*
X3134Y249242D01*
X3183Y249210D01*
X3226Y249170D01*
X3301Y249131D01*
X3371Y249084D01*
X3427Y249067D01*
X3479Y249040D01*
X3547Y249029D01*
X3642Y248999D01*
X3742Y248996D01*
X3810Y248985D01*
X123681Y248985D01*
X123794Y249001D01*
X123909Y249011D01*
X123935Y249021D01*
X123962Y249025D01*
X124067Y249072D01*
X124174Y249113D01*
X124196Y249129D01*
X124221Y249141D01*
X124309Y249215D01*
X124401Y249284D01*
X124417Y249307D01*
X124438Y249324D01*
X124502Y249420D01*
X124571Y249512D01*
X124581Y249538D01*
X124596Y249561D01*
X124631Y249671D01*
X124671Y249778D01*
X124673Y249806D01*
X124682Y249832D01*
X124685Y249947D01*
X124694Y250061D01*
X124688Y250086D01*
X124689Y250116D01*
X124622Y250373D01*
X124619Y250389D01*
X123738Y252514D01*
X123738Y254686D01*
X124570Y256694D01*
X126106Y258230D01*
X128114Y259062D01*
X130286Y259062D01*
X132294Y258230D01*
X133830Y256694D01*
X134662Y254686D01*
X134662Y252514D01*
X133781Y250389D01*
X133753Y250277D01*
X133718Y250168D01*
X133717Y250140D01*
X133711Y250113D01*
X133714Y249999D01*
X133711Y249884D01*
X133718Y249857D01*
X133719Y249829D01*
X133754Y249720D01*
X133783Y249609D01*
X133797Y249585D01*
X133805Y249558D01*
X133869Y249463D01*
X133928Y249364D01*
X133948Y249345D01*
X133964Y249322D01*
X134051Y249248D01*
X134135Y249170D01*
X134160Y249157D01*
X134181Y249139D01*
X134286Y249093D01*
X134388Y249040D01*
X134413Y249036D01*
X134441Y249024D01*
X134705Y248987D01*
X134719Y248985D01*
X325040Y248985D01*
X325069Y248989D01*
X325098Y248986D01*
X325209Y249009D01*
X325322Y249025D01*
X325348Y249037D01*
X325377Y249042D01*
X325478Y249094D01*
X325581Y249141D01*
X325604Y249160D01*
X325629Y249173D01*
X325712Y249251D01*
X325798Y249324D01*
X325814Y249349D01*
X325836Y249369D01*
X325893Y249467D01*
X325956Y249561D01*
X325965Y249589D01*
X325979Y249614D01*
X326007Y249724D01*
X326041Y249832D01*
X326042Y249862D01*
X326049Y249890D01*
X326046Y250003D01*
X326049Y250116D01*
X326041Y250145D01*
X326040Y250174D01*
X326006Y250282D01*
X325977Y250391D01*
X325962Y250417D01*
X325953Y250445D01*
X325907Y250508D01*
X325832Y250636D01*
X325786Y250679D01*
X325758Y250718D01*
X325570Y250906D01*
X324738Y252914D01*
X324738Y254272D01*
X324730Y254330D01*
X324732Y254388D01*
X324710Y254470D01*
X324698Y254554D01*
X324675Y254607D01*
X324660Y254663D01*
X324617Y254736D01*
X324582Y254813D01*
X324544Y254858D01*
X324515Y254908D01*
X324453Y254966D01*
X324399Y255030D01*
X324350Y255062D01*
X324307Y255102D01*
X324232Y255141D01*
X324162Y255188D01*
X324106Y255205D01*
X324054Y255232D01*
X323986Y255243D01*
X323891Y255273D01*
X323791Y255276D01*
X323723Y255287D01*
X322789Y255287D01*
X320781Y256119D01*
X319245Y257655D01*
X318413Y259663D01*
X318413Y261835D01*
X319245Y263843D01*
X320781Y265379D01*
X322789Y266211D01*
X324961Y266211D01*
X326969Y265379D01*
X328507Y263841D01*
X328577Y263789D01*
X328641Y263729D01*
X328690Y263703D01*
X328734Y263670D01*
X328816Y263639D01*
X328894Y263599D01*
X328941Y263591D01*
X329000Y263569D01*
X329148Y263557D01*
X329225Y263544D01*
X409541Y263544D01*
X409627Y263556D01*
X409715Y263559D01*
X409768Y263576D01*
X409822Y263584D01*
X409902Y263619D01*
X409985Y263646D01*
X410025Y263674D01*
X410082Y263700D01*
X410195Y263796D01*
X410259Y263841D01*
X416142Y269725D01*
X424650Y269725D01*
X424737Y269737D01*
X424824Y269740D01*
X424877Y269757D01*
X424932Y269765D01*
X425011Y269800D01*
X425095Y269827D01*
X425134Y269855D01*
X425191Y269881D01*
X425304Y269977D01*
X425368Y270022D01*
X426906Y271560D01*
X428914Y272392D01*
X431086Y272392D01*
X433094Y271560D01*
X434630Y270024D01*
X435462Y268016D01*
X435462Y265844D01*
X434630Y263836D01*
X433094Y262300D01*
X431086Y261468D01*
X428914Y261468D01*
X426906Y262300D01*
X425368Y263838D01*
X425298Y263890D01*
X425234Y263950D01*
X425185Y263976D01*
X425141Y264009D01*
X425059Y264040D01*
X424981Y264080D01*
X424934Y264088D01*
X424875Y264110D01*
X424727Y264122D01*
X424650Y264135D01*
X418878Y264135D01*
X418792Y264123D01*
X418704Y264120D01*
X418652Y264103D01*
X418597Y264095D01*
X418517Y264060D01*
X418434Y264033D01*
X418394Y264005D01*
X418337Y263979D01*
X418224Y263883D01*
X418160Y263838D01*
X418057Y263735D01*
X418040Y263711D01*
X418017Y263692D01*
X417955Y263598D01*
X417886Y263508D01*
X417876Y263480D01*
X417860Y263456D01*
X417825Y263348D01*
X417785Y263242D01*
X417783Y263213D01*
X417774Y263185D01*
X417771Y263072D01*
X417762Y262959D01*
X417767Y262930D01*
X417767Y262901D01*
X417795Y262791D01*
X417817Y262680D01*
X417831Y262654D01*
X417838Y262626D01*
X417896Y262528D01*
X417948Y262428D01*
X417969Y262406D01*
X417984Y262381D01*
X418066Y262304D01*
X418144Y262222D01*
X418169Y262207D01*
X418191Y262187D01*
X418292Y262135D01*
X418389Y262078D01*
X418418Y262071D01*
X418444Y262057D01*
X418521Y262044D01*
X418665Y262008D01*
X418727Y262010D01*
X418775Y262002D01*
X420186Y262002D01*
X422194Y261170D01*
X423730Y259634D01*
X424562Y257626D01*
X424562Y255454D01*
X423730Y253446D01*
X422194Y251910D01*
X420186Y251078D01*
X418014Y251078D01*
X416006Y251910D01*
X414468Y253448D01*
X414398Y253500D01*
X414334Y253560D01*
X414285Y253586D01*
X414241Y253619D01*
X414159Y253650D01*
X414081Y253690D01*
X414034Y253698D01*
X413975Y253720D01*
X413827Y253732D01*
X413750Y253745D01*
X336677Y253745D01*
X336619Y253737D01*
X336561Y253739D01*
X336479Y253717D01*
X336395Y253705D01*
X336342Y253682D01*
X336286Y253667D01*
X336213Y253624D01*
X336136Y253589D01*
X336091Y253551D01*
X336041Y253522D01*
X335983Y253460D01*
X335919Y253406D01*
X335887Y253357D01*
X335847Y253314D01*
X335808Y253239D01*
X335761Y253169D01*
X335744Y253113D01*
X335717Y253061D01*
X335713Y253038D01*
X334830Y250906D01*
X334642Y250718D01*
X334624Y250694D01*
X334602Y250676D01*
X334539Y250581D01*
X334471Y250491D01*
X334461Y250463D01*
X334444Y250439D01*
X334410Y250331D01*
X334370Y250225D01*
X334367Y250196D01*
X334359Y250168D01*
X334356Y250055D01*
X334346Y249942D01*
X334352Y249913D01*
X334351Y249884D01*
X334380Y249774D01*
X334402Y249663D01*
X334416Y249637D01*
X334423Y249609D01*
X334481Y249511D01*
X334533Y249411D01*
X334553Y249389D01*
X334568Y249364D01*
X334651Y249287D01*
X334729Y249205D01*
X334754Y249190D01*
X334776Y249170D01*
X334876Y249118D01*
X334974Y249061D01*
X335003Y249054D01*
X335029Y249040D01*
X335106Y249027D01*
X335250Y248991D01*
X335312Y248993D01*
X335360Y248985D01*
X526817Y248985D01*
X526875Y248993D01*
X526933Y248991D01*
X527015Y249013D01*
X527099Y249025D01*
X527152Y249049D01*
X527208Y249063D01*
X527281Y249106D01*
X527358Y249141D01*
X527403Y249179D01*
X527453Y249209D01*
X527511Y249270D01*
X527575Y249325D01*
X527607Y249373D01*
X527647Y249416D01*
X527686Y249491D01*
X527733Y249561D01*
X527750Y249617D01*
X527777Y249669D01*
X527788Y249737D01*
X527818Y249832D01*
X527821Y249932D01*
X527832Y250000D01*
X527832Y283023D01*
X527825Y283078D01*
X527826Y283120D01*
X527819Y283146D01*
X527817Y283197D01*
X527800Y283250D01*
X527792Y283305D01*
X527757Y283384D01*
X527756Y283386D01*
X527754Y283395D01*
X527753Y283397D01*
X527730Y283468D01*
X527702Y283507D01*
X527676Y283564D01*
X527580Y283677D01*
X527535Y283741D01*
X525870Y285406D01*
X525038Y287414D01*
X525038Y289586D01*
X525870Y291594D01*
X527406Y293130D01*
X529414Y293962D01*
X531586Y293962D01*
X533594Y293130D01*
X535130Y291594D01*
X535962Y289586D01*
X535962Y287414D01*
X535130Y285406D01*
X533465Y283741D01*
X533413Y283671D01*
X533353Y283607D01*
X533327Y283558D01*
X533294Y283514D01*
X533263Y283432D01*
X533223Y283354D01*
X533215Y283307D01*
X533193Y283248D01*
X533188Y283193D01*
X533182Y283172D01*
X533180Y283095D01*
X533168Y283023D01*
X533168Y250000D01*
X533176Y249942D01*
X533174Y249884D01*
X533196Y249802D01*
X533208Y249719D01*
X533231Y249665D01*
X533246Y249609D01*
X533289Y249536D01*
X533324Y249459D01*
X533362Y249414D01*
X533391Y249364D01*
X533453Y249306D01*
X533507Y249242D01*
X533556Y249210D01*
X533599Y249170D01*
X533674Y249131D01*
X533744Y249085D01*
X533800Y249067D01*
X533852Y249040D01*
X533920Y249029D01*
X534015Y248999D01*
X534115Y248996D01*
X534183Y248985D01*
X598985Y248985D01*
X598985Y3810D01*
X598993Y3752D01*
X598991Y3694D01*
X599013Y3612D01*
X599025Y3528D01*
X599048Y3475D01*
X599063Y3419D01*
X599106Y3346D01*
X599141Y3269D01*
X599179Y3224D01*
X599208Y3174D01*
X599270Y3116D01*
X599324Y3052D01*
X599373Y3020D01*
X599416Y2980D01*
X599491Y2941D01*
X599561Y2894D01*
X599617Y2877D01*
X599669Y2850D01*
X599737Y2839D01*
X599832Y2809D01*
X599932Y2806D01*
X600000Y2795D01*
X3110000Y2795D01*
X3110058Y2803D01*
G37*
G36*
X531878Y2803D02*
X531878Y2803D01*
X531936Y2801D01*
X532018Y2823D01*
X532102Y2835D01*
X532155Y2858D01*
X532211Y2873D01*
X532284Y2916D01*
X532361Y2951D01*
X532406Y2989D01*
X532456Y3018D01*
X532514Y3080D01*
X532578Y3134D01*
X532610Y3183D01*
X532650Y3226D01*
X532689Y3301D01*
X532736Y3371D01*
X532753Y3427D01*
X532780Y3479D01*
X532791Y3547D01*
X532821Y3642D01*
X532824Y3742D01*
X532835Y3810D01*
X532835Y231976D01*
X532819Y232090D01*
X532809Y232205D01*
X532799Y232230D01*
X532795Y232258D01*
X532748Y232363D01*
X532707Y232470D01*
X532690Y232492D01*
X532679Y232517D01*
X532605Y232605D01*
X532535Y232696D01*
X532513Y232713D01*
X532496Y232734D01*
X532400Y232798D01*
X532308Y232867D01*
X532282Y232876D01*
X532259Y232892D01*
X532149Y232926D01*
X532042Y232967D01*
X532014Y232969D01*
X531988Y232977D01*
X531873Y232980D01*
X531758Y232990D01*
X531734Y232984D01*
X531704Y232985D01*
X531679Y232978D01*
X529414Y232978D01*
X527406Y233810D01*
X525741Y235475D01*
X525671Y235527D01*
X525607Y235587D01*
X525558Y235613D01*
X525514Y235646D01*
X525432Y235677D01*
X525354Y235717D01*
X525307Y235725D01*
X525248Y235747D01*
X525100Y235759D01*
X525023Y235772D01*
X216733Y235772D01*
X216675Y235764D01*
X216617Y235766D01*
X216535Y235744D01*
X216451Y235732D01*
X216398Y235709D01*
X216342Y235694D01*
X216269Y235651D01*
X216192Y235616D01*
X216147Y235578D01*
X216097Y235549D01*
X216039Y235487D01*
X215975Y235433D01*
X215943Y235384D01*
X215903Y235341D01*
X215864Y235266D01*
X215817Y235196D01*
X215800Y235140D01*
X215773Y235088D01*
X215762Y235020D01*
X215732Y234925D01*
X215729Y234825D01*
X215718Y234757D01*
X215718Y206977D01*
X215730Y206890D01*
X215733Y206803D01*
X215750Y206750D01*
X215758Y206695D01*
X215793Y206616D01*
X215820Y206532D01*
X215848Y206493D01*
X215874Y206436D01*
X215970Y206323D01*
X216015Y206259D01*
X217622Y204652D01*
X217692Y204600D01*
X217756Y204540D01*
X217805Y204514D01*
X217849Y204481D01*
X217931Y204450D01*
X218009Y204410D01*
X218056Y204402D01*
X218115Y204380D01*
X218263Y204368D01*
X218340Y204355D01*
X266412Y204355D01*
X266498Y204367D01*
X266586Y204370D01*
X266639Y204387D01*
X266693Y204395D01*
X266773Y204430D01*
X266856Y204457D01*
X266896Y204485D01*
X266953Y204511D01*
X267066Y204607D01*
X267130Y204652D01*
X268338Y205860D01*
X270272Y207795D01*
X279650Y207795D01*
X279737Y207807D01*
X279824Y207810D01*
X279877Y207827D01*
X279932Y207835D01*
X280011Y207870D01*
X280095Y207897D01*
X280134Y207925D01*
X280191Y207951D01*
X280304Y208047D01*
X280368Y208092D01*
X281906Y209630D01*
X283914Y210462D01*
X286086Y210462D01*
X288094Y209630D01*
X289630Y208094D01*
X290462Y206086D01*
X290462Y203914D01*
X289630Y201906D01*
X288094Y200370D01*
X286086Y199538D01*
X283914Y199538D01*
X281906Y200370D01*
X280368Y201908D01*
X280298Y201960D01*
X280234Y202020D01*
X280185Y202046D01*
X280141Y202079D01*
X280059Y202110D01*
X279981Y202150D01*
X279934Y202158D01*
X279875Y202180D01*
X279727Y202192D01*
X279650Y202205D01*
X273008Y202205D01*
X272922Y202193D01*
X272834Y202190D01*
X272781Y202173D01*
X272727Y202165D01*
X272647Y202130D01*
X272564Y202103D01*
X272524Y202075D01*
X272467Y202049D01*
X272354Y201953D01*
X272290Y201908D01*
X271082Y200700D01*
X269148Y198765D01*
X218460Y198765D01*
X218373Y198753D01*
X218286Y198750D01*
X218233Y198733D01*
X218178Y198725D01*
X218099Y198690D01*
X218015Y198663D01*
X217976Y198635D01*
X217919Y198609D01*
X217806Y198513D01*
X217742Y198468D01*
X216015Y196741D01*
X215963Y196671D01*
X215903Y196607D01*
X215877Y196558D01*
X215844Y196514D01*
X215813Y196432D01*
X215773Y196354D01*
X215765Y196307D01*
X215743Y196248D01*
X215731Y196100D01*
X215718Y196023D01*
X215718Y189755D01*
X215730Y189669D01*
X215733Y189581D01*
X215750Y189528D01*
X215758Y189474D01*
X215793Y189394D01*
X215820Y189311D01*
X215845Y189276D01*
X215845Y129170D01*
X215857Y129083D01*
X215860Y128996D01*
X215877Y128943D01*
X215885Y128888D01*
X215920Y128809D01*
X215947Y128725D01*
X215975Y128686D01*
X216001Y128629D01*
X216097Y128516D01*
X216142Y128452D01*
X217680Y126914D01*
X218512Y124906D01*
X218512Y122734D01*
X217680Y120726D01*
X216144Y119190D01*
X214136Y118358D01*
X211964Y118358D01*
X209956Y119190D01*
X208420Y120726D01*
X207588Y122734D01*
X207588Y124906D01*
X208420Y126914D01*
X209958Y128452D01*
X210010Y128522D01*
X210070Y128586D01*
X210096Y128635D01*
X210129Y128679D01*
X210160Y128761D01*
X210200Y128839D01*
X210208Y128886D01*
X210230Y128945D01*
X210242Y129093D01*
X210255Y129170D01*
X210255Y189264D01*
X210256Y189264D01*
X210287Y189346D01*
X210327Y189424D01*
X210335Y189472D01*
X210357Y189530D01*
X210369Y189678D01*
X210382Y189755D01*
X210382Y196023D01*
X210370Y196110D01*
X210367Y196197D01*
X210350Y196250D01*
X210342Y196305D01*
X210307Y196384D01*
X210280Y196468D01*
X210252Y196507D01*
X210226Y196564D01*
X210130Y196677D01*
X210085Y196741D01*
X208358Y198468D01*
X208288Y198520D01*
X208224Y198580D01*
X208175Y198606D01*
X208131Y198639D01*
X208049Y198670D01*
X207971Y198710D01*
X207924Y198718D01*
X207865Y198740D01*
X207717Y198752D01*
X207640Y198765D01*
X200318Y198765D01*
X200232Y198753D01*
X200144Y198750D01*
X200091Y198733D01*
X200037Y198725D01*
X199957Y198690D01*
X199874Y198663D01*
X199834Y198635D01*
X199777Y198609D01*
X199664Y198513D01*
X199600Y198468D01*
X186638Y185505D01*
X158250Y185505D01*
X158163Y185493D01*
X158076Y185490D01*
X158023Y185473D01*
X157968Y185465D01*
X157889Y185430D01*
X157805Y185403D01*
X157766Y185375D01*
X157709Y185349D01*
X157596Y185253D01*
X157532Y185208D01*
X155994Y183670D01*
X153986Y182838D01*
X151814Y182838D01*
X149806Y183670D01*
X148270Y185206D01*
X147438Y187214D01*
X147438Y189386D01*
X148270Y191394D01*
X149806Y192930D01*
X151814Y193762D01*
X153986Y193762D01*
X155994Y192930D01*
X157532Y191392D01*
X157602Y191340D01*
X157666Y191280D01*
X157715Y191254D01*
X157759Y191221D01*
X157841Y191190D01*
X157919Y191150D01*
X157966Y191142D01*
X158025Y191120D01*
X158173Y191108D01*
X158250Y191095D01*
X183902Y191095D01*
X183988Y191107D01*
X184076Y191110D01*
X184129Y191127D01*
X184183Y191135D01*
X184263Y191170D01*
X184346Y191197D01*
X184386Y191225D01*
X184443Y191251D01*
X184556Y191347D01*
X184620Y191392D01*
X197582Y204355D01*
X207760Y204355D01*
X207847Y204367D01*
X207934Y204370D01*
X207987Y204387D01*
X208042Y204395D01*
X208121Y204430D01*
X208205Y204457D01*
X208244Y204485D01*
X208301Y204511D01*
X208414Y204607D01*
X208478Y204652D01*
X210085Y206259D01*
X210137Y206329D01*
X210197Y206393D01*
X210223Y206442D01*
X210256Y206486D01*
X210287Y206568D01*
X210327Y206646D01*
X210335Y206693D01*
X210357Y206752D01*
X210369Y206900D01*
X210382Y206977D01*
X210382Y236317D01*
X210374Y236373D01*
X210376Y236419D01*
X210375Y236420D01*
X210376Y236433D01*
X210354Y236515D01*
X210342Y236599D01*
X210319Y236652D01*
X210304Y236708D01*
X210261Y236781D01*
X210226Y236858D01*
X210188Y236903D01*
X210159Y236953D01*
X210097Y237011D01*
X210043Y237075D01*
X209994Y237107D01*
X209951Y237147D01*
X209876Y237186D01*
X209806Y237233D01*
X209750Y237250D01*
X209698Y237277D01*
X209630Y237288D01*
X209535Y237318D01*
X209435Y237321D01*
X209367Y237332D01*
X71526Y237332D01*
X71439Y237320D01*
X71351Y237317D01*
X71299Y237300D01*
X71244Y237292D01*
X71164Y237257D01*
X71081Y237230D01*
X71042Y237202D01*
X70985Y237176D01*
X70871Y237080D01*
X70808Y237035D01*
X45759Y211986D01*
X45707Y211917D01*
X45647Y211853D01*
X45621Y211803D01*
X45588Y211759D01*
X45557Y211677D01*
X45517Y211600D01*
X45509Y211552D01*
X45487Y211493D01*
X45475Y211346D01*
X45462Y211268D01*
X45462Y208914D01*
X44630Y206906D01*
X43094Y205370D01*
X41086Y204538D01*
X38914Y204538D01*
X36906Y205370D01*
X35370Y206906D01*
X34538Y208914D01*
X34538Y211086D01*
X35370Y213094D01*
X36906Y214630D01*
X38914Y215462D01*
X41268Y215462D01*
X41355Y215474D01*
X41442Y215477D01*
X41495Y215494D01*
X41550Y215502D01*
X41630Y215537D01*
X41713Y215564D01*
X41752Y215592D01*
X41809Y215618D01*
X41923Y215714D01*
X41986Y215759D01*
X65509Y239282D01*
X65527Y239306D01*
X65549Y239325D01*
X65612Y239419D01*
X65680Y239509D01*
X65691Y239537D01*
X65707Y239561D01*
X65741Y239669D01*
X65781Y239775D01*
X65784Y239804D01*
X65793Y239832D01*
X65796Y239946D01*
X65805Y240058D01*
X65799Y240087D01*
X65800Y240116D01*
X65771Y240226D01*
X65749Y240337D01*
X65736Y240363D01*
X65728Y240391D01*
X65670Y240489D01*
X65618Y240589D01*
X65598Y240611D01*
X65583Y240636D01*
X65500Y240713D01*
X65422Y240795D01*
X65397Y240810D01*
X65376Y240830D01*
X65275Y240882D01*
X65177Y240939D01*
X65149Y240946D01*
X65123Y240960D01*
X65045Y240973D01*
X64902Y241009D01*
X64839Y241007D01*
X64791Y241015D01*
X3810Y241015D01*
X3752Y241007D01*
X3694Y241009D01*
X3612Y240987D01*
X3528Y240975D01*
X3475Y240952D01*
X3419Y240937D01*
X3346Y240894D01*
X3269Y240859D01*
X3224Y240821D01*
X3174Y240792D01*
X3116Y240730D01*
X3052Y240676D01*
X3020Y240627D01*
X2980Y240584D01*
X2941Y240509D01*
X2894Y240439D01*
X2877Y240383D01*
X2850Y240331D01*
X2839Y240263D01*
X2809Y240168D01*
X2806Y240068D01*
X2795Y240000D01*
X2795Y3810D01*
X2803Y3752D01*
X2801Y3694D01*
X2823Y3612D01*
X2835Y3528D01*
X2858Y3475D01*
X2873Y3419D01*
X2916Y3346D01*
X2951Y3269D01*
X2989Y3224D01*
X3018Y3174D01*
X3080Y3116D01*
X3134Y3052D01*
X3183Y3020D01*
X3226Y2980D01*
X3301Y2941D01*
X3371Y2894D01*
X3427Y2877D01*
X3479Y2850D01*
X3547Y2839D01*
X3642Y2809D01*
X3742Y2806D01*
X3810Y2795D01*
X531820Y2795D01*
X531878Y2803D01*
G37*
G36*
X3161248Y2803D02*
X3161248Y2803D01*
X3161306Y2801D01*
X3161388Y2823D01*
X3161472Y2835D01*
X3161525Y2858D01*
X3161581Y2873D01*
X3161654Y2916D01*
X3161731Y2951D01*
X3161776Y2989D01*
X3161826Y3018D01*
X3161884Y3080D01*
X3161948Y3134D01*
X3161980Y3183D01*
X3162020Y3226D01*
X3162059Y3301D01*
X3162106Y3371D01*
X3162123Y3427D01*
X3162150Y3479D01*
X3162161Y3547D01*
X3162191Y3642D01*
X3162194Y3742D01*
X3162205Y3810D01*
X3162205Y171158D01*
X3163842Y172795D01*
X3261190Y172795D01*
X3261248Y172803D01*
X3261306Y172801D01*
X3261388Y172823D01*
X3261472Y172835D01*
X3261525Y172858D01*
X3261581Y172873D01*
X3261654Y172916D01*
X3261731Y172951D01*
X3261776Y172989D01*
X3261826Y173018D01*
X3261884Y173080D01*
X3261948Y173134D01*
X3261980Y173183D01*
X3262020Y173226D01*
X3262059Y173301D01*
X3262106Y173371D01*
X3262123Y173427D01*
X3262150Y173479D01*
X3262161Y173547D01*
X3262191Y173642D01*
X3262194Y173742D01*
X3262205Y173810D01*
X3262205Y183912D01*
X3262193Y183997D01*
X3262191Y184083D01*
X3262173Y184138D01*
X3262165Y184194D01*
X3262130Y184272D01*
X3262104Y184354D01*
X3262072Y184401D01*
X3262049Y184453D01*
X3261994Y184519D01*
X3261946Y184590D01*
X3261902Y184627D01*
X3261866Y184670D01*
X3261794Y184718D01*
X3261728Y184773D01*
X3261676Y184796D01*
X3261629Y184828D01*
X3261547Y184854D01*
X3261468Y184889D01*
X3261412Y184896D01*
X3261358Y184914D01*
X3261272Y184916D01*
X3261187Y184928D01*
X3261131Y184919D01*
X3261074Y184921D01*
X3260991Y184899D01*
X3260905Y184887D01*
X3260854Y184863D01*
X3260799Y184849D01*
X3260725Y184805D01*
X3260646Y184770D01*
X3260603Y184733D01*
X3260554Y184704D01*
X3260495Y184641D01*
X3260430Y184585D01*
X3260404Y184544D01*
X3260360Y184497D01*
X3260294Y184367D01*
X3260252Y184301D01*
X3259697Y182960D01*
X3257790Y181053D01*
X3255298Y180021D01*
X3246602Y180021D01*
X3244110Y181053D01*
X3242203Y182960D01*
X3241171Y185452D01*
X3241171Y188148D01*
X3242203Y190640D01*
X3244110Y192547D01*
X3246602Y193579D01*
X3255298Y193579D01*
X3257790Y192547D01*
X3259697Y190640D01*
X3260252Y189299D01*
X3260296Y189225D01*
X3260331Y189147D01*
X3260368Y189103D01*
X3260397Y189054D01*
X3260459Y188995D01*
X3260515Y188930D01*
X3260562Y188898D01*
X3260603Y188859D01*
X3260680Y188820D01*
X3260751Y188772D01*
X3260805Y188755D01*
X3260856Y188729D01*
X3260940Y188712D01*
X3261022Y188686D01*
X3261079Y188685D01*
X3261135Y188674D01*
X3261220Y188681D01*
X3261306Y188679D01*
X3261361Y188693D01*
X3261418Y188698D01*
X3261499Y188729D01*
X3261581Y188751D01*
X3261630Y188780D01*
X3261683Y188800D01*
X3261752Y188852D01*
X3261826Y188896D01*
X3261865Y188938D01*
X3261910Y188972D01*
X3261962Y189041D01*
X3262020Y189103D01*
X3262046Y189154D01*
X3262080Y189200D01*
X3262111Y189280D01*
X3262150Y189357D01*
X3262158Y189405D01*
X3262181Y189466D01*
X3262192Y189610D01*
X3262205Y189688D01*
X3262205Y213786D01*
X3262197Y213844D01*
X3262199Y213903D01*
X3262177Y213984D01*
X3262165Y214068D01*
X3262142Y214121D01*
X3262127Y214178D01*
X3262084Y214250D01*
X3262049Y214327D01*
X3262011Y214372D01*
X3261982Y214422D01*
X3261920Y214480D01*
X3261866Y214544D01*
X3261817Y214577D01*
X3261774Y214617D01*
X3261699Y214655D01*
X3261629Y214702D01*
X3261573Y214720D01*
X3261521Y214746D01*
X3261453Y214758D01*
X3261358Y214788D01*
X3261258Y214790D01*
X3261190Y214802D01*
X3254717Y214802D01*
X3254654Y214793D01*
X3254605Y214795D01*
X3253623Y214686D01*
X3253559Y214724D01*
X3253529Y214732D01*
X3253501Y214746D01*
X3253423Y214759D01*
X3253380Y214770D01*
X3252679Y215471D01*
X3252628Y215509D01*
X3252595Y215546D01*
X3251824Y216163D01*
X3251805Y216235D01*
X3251789Y216262D01*
X3251780Y216292D01*
X3251734Y216356D01*
X3251711Y216395D01*
X3251711Y217385D01*
X3251702Y217449D01*
X3251705Y217497D01*
X3251596Y218480D01*
X3251634Y218543D01*
X3251641Y218574D01*
X3251656Y218602D01*
X3251669Y218679D01*
X3251680Y218723D01*
X3252381Y219423D01*
X3252419Y219474D01*
X3252456Y219507D01*
X3255418Y223210D01*
X3257719Y223465D01*
X3259527Y222019D01*
X3259607Y221294D01*
X3259608Y221292D01*
X3259607Y221290D01*
X3259643Y221155D01*
X3259678Y221019D01*
X3259679Y221017D01*
X3259679Y221015D01*
X3259749Y220898D01*
X3259822Y220774D01*
X3259823Y220772D01*
X3259825Y220771D01*
X3259926Y220676D01*
X3260028Y220579D01*
X3260030Y220578D01*
X3260032Y220576D01*
X3260157Y220512D01*
X3260281Y220448D01*
X3260283Y220448D01*
X3260285Y220447D01*
X3260305Y220443D01*
X3260560Y220393D01*
X3260591Y220395D01*
X3260616Y220391D01*
X3261190Y220391D01*
X3261248Y220399D01*
X3261306Y220398D01*
X3261388Y220419D01*
X3261472Y220431D01*
X3261525Y220455D01*
X3261581Y220470D01*
X3261654Y220513D01*
X3261731Y220547D01*
X3261776Y220585D01*
X3261826Y220615D01*
X3261884Y220676D01*
X3261948Y220731D01*
X3261980Y220780D01*
X3262020Y220822D01*
X3262059Y220897D01*
X3262106Y220968D01*
X3262123Y221023D01*
X3262150Y221075D01*
X3262161Y221143D01*
X3262191Y221239D01*
X3262194Y221338D01*
X3262205Y221406D01*
X3262205Y225216D01*
X3262197Y225274D01*
X3262199Y225333D01*
X3262177Y225414D01*
X3262165Y225498D01*
X3262142Y225551D01*
X3262127Y225608D01*
X3262084Y225680D01*
X3262049Y225757D01*
X3262011Y225802D01*
X3261982Y225852D01*
X3261920Y225910D01*
X3261866Y225974D01*
X3261817Y226007D01*
X3261774Y226047D01*
X3261699Y226085D01*
X3261629Y226132D01*
X3261573Y226150D01*
X3261521Y226176D01*
X3261453Y226188D01*
X3261358Y226218D01*
X3261258Y226220D01*
X3261190Y226232D01*
X3254717Y226232D01*
X3254654Y226223D01*
X3254605Y226225D01*
X3253623Y226116D01*
X3253559Y226154D01*
X3253529Y226162D01*
X3253501Y226176D01*
X3253423Y226189D01*
X3253380Y226200D01*
X3252679Y226901D01*
X3252628Y226939D01*
X3252595Y226976D01*
X3251824Y227593D01*
X3251805Y227665D01*
X3251789Y227692D01*
X3251780Y227722D01*
X3251734Y227786D01*
X3251711Y227825D01*
X3251711Y228815D01*
X3251702Y228879D01*
X3251705Y228927D01*
X3251596Y229910D01*
X3251634Y229973D01*
X3251641Y230004D01*
X3251656Y230032D01*
X3251669Y230109D01*
X3251680Y230153D01*
X3252381Y230853D01*
X3252419Y230904D01*
X3252456Y230937D01*
X3255402Y234620D01*
X3255428Y234665D01*
X3255462Y234704D01*
X3255500Y234786D01*
X3255546Y234864D01*
X3255559Y234915D01*
X3255581Y234962D01*
X3255595Y235052D01*
X3255618Y235139D01*
X3255616Y235192D01*
X3255624Y235243D01*
X3255613Y235315D01*
X3255610Y235424D01*
X3255582Y235511D01*
X3255572Y235575D01*
X3255045Y237157D01*
X3255896Y238859D01*
X3255901Y238875D01*
X3255910Y238890D01*
X3255946Y239010D01*
X3255986Y239129D01*
X3255987Y239146D01*
X3255992Y239162D01*
X3255993Y239288D01*
X3255998Y239413D01*
X3255994Y239429D01*
X3255994Y239446D01*
X3255973Y239515D01*
X3255931Y239689D01*
X3255911Y239723D01*
X3255907Y239739D01*
X3255901Y239749D01*
X3255896Y239767D01*
X3255045Y241470D01*
X3255777Y243666D01*
X3257848Y244701D01*
X3260869Y243694D01*
X3260947Y243680D01*
X3261022Y243656D01*
X3261086Y243654D01*
X3261149Y243643D01*
X3261227Y243651D01*
X3261306Y243649D01*
X3261368Y243665D01*
X3261431Y243671D01*
X3261505Y243701D01*
X3261581Y243721D01*
X3261636Y243753D01*
X3261695Y243777D01*
X3261758Y243825D01*
X3261826Y243866D01*
X3261869Y243912D01*
X3261920Y243952D01*
X3261966Y244016D01*
X3262020Y244073D01*
X3262049Y244130D01*
X3262087Y244182D01*
X3262114Y244256D01*
X3262150Y244326D01*
X3262159Y244380D01*
X3262184Y244449D01*
X3262192Y244580D01*
X3262205Y244657D01*
X3262205Y270312D01*
X3262193Y270397D01*
X3262191Y270483D01*
X3262173Y270538D01*
X3262165Y270594D01*
X3262130Y270672D01*
X3262104Y270754D01*
X3262072Y270801D01*
X3262049Y270853D01*
X3261994Y270919D01*
X3261946Y270990D01*
X3261902Y271027D01*
X3261866Y271070D01*
X3261794Y271118D01*
X3261728Y271173D01*
X3261676Y271196D01*
X3261629Y271228D01*
X3261547Y271254D01*
X3261468Y271289D01*
X3261412Y271296D01*
X3261358Y271314D01*
X3261272Y271316D01*
X3261187Y271328D01*
X3261131Y271319D01*
X3261074Y271321D01*
X3260991Y271299D01*
X3260905Y271287D01*
X3260854Y271263D01*
X3260799Y271249D01*
X3260725Y271205D01*
X3260646Y271170D01*
X3260603Y271133D01*
X3260554Y271104D01*
X3260495Y271041D01*
X3260430Y270985D01*
X3260404Y270944D01*
X3260360Y270897D01*
X3260294Y270767D01*
X3260252Y270701D01*
X3259697Y269360D01*
X3257790Y267453D01*
X3255298Y266421D01*
X3246602Y266421D01*
X3244110Y267453D01*
X3242203Y269360D01*
X3241171Y271852D01*
X3241171Y274548D01*
X3242203Y277040D01*
X3244110Y278947D01*
X3246602Y279979D01*
X3255298Y279979D01*
X3257790Y278947D01*
X3259697Y277040D01*
X3260252Y275699D01*
X3260296Y275625D01*
X3260331Y275547D01*
X3260368Y275503D01*
X3260397Y275454D01*
X3260459Y275395D01*
X3260515Y275330D01*
X3260562Y275298D01*
X3260603Y275259D01*
X3260680Y275220D01*
X3260751Y275172D01*
X3260805Y275155D01*
X3260856Y275129D01*
X3260940Y275112D01*
X3261022Y275086D01*
X3261079Y275085D01*
X3261135Y275074D01*
X3261220Y275081D01*
X3261306Y275079D01*
X3261361Y275093D01*
X3261418Y275098D01*
X3261499Y275129D01*
X3261581Y275151D01*
X3261630Y275180D01*
X3261683Y275200D01*
X3261752Y275252D01*
X3261826Y275296D01*
X3261865Y275338D01*
X3261910Y275372D01*
X3261962Y275441D01*
X3262020Y275503D01*
X3262046Y275554D01*
X3262080Y275600D01*
X3262111Y275680D01*
X3262150Y275757D01*
X3262158Y275805D01*
X3262181Y275866D01*
X3262192Y276010D01*
X3262205Y276088D01*
X3262205Y466190D01*
X3262197Y466248D01*
X3262199Y466306D01*
X3262177Y466388D01*
X3262165Y466472D01*
X3262142Y466525D01*
X3262127Y466581D01*
X3262084Y466654D01*
X3262049Y466731D01*
X3262011Y466776D01*
X3261982Y466826D01*
X3261920Y466884D01*
X3261866Y466948D01*
X3261817Y466980D01*
X3261774Y467020D01*
X3261699Y467059D01*
X3261629Y467106D01*
X3261573Y467123D01*
X3261521Y467150D01*
X3261453Y467161D01*
X3261358Y467191D01*
X3261258Y467194D01*
X3261190Y467205D01*
X3163842Y467205D01*
X3162205Y468842D01*
X3162205Y1973690D01*
X3162197Y1973748D01*
X3162199Y1973806D01*
X3162177Y1973888D01*
X3162165Y1973972D01*
X3162142Y1974025D01*
X3162127Y1974081D01*
X3162084Y1974154D01*
X3162049Y1974231D01*
X3162011Y1974276D01*
X3161982Y1974326D01*
X3161920Y1974384D01*
X3161866Y1974448D01*
X3161817Y1974480D01*
X3161774Y1974520D01*
X3161699Y1974559D01*
X3161629Y1974606D01*
X3161573Y1974623D01*
X3161521Y1974650D01*
X3161453Y1974661D01*
X3161358Y1974691D01*
X3161258Y1974694D01*
X3161190Y1974705D01*
X3120000Y1974705D01*
X3119942Y1974697D01*
X3119884Y1974699D01*
X3119802Y1974677D01*
X3119719Y1974665D01*
X3119665Y1974642D01*
X3119609Y1974627D01*
X3119536Y1974584D01*
X3119459Y1974549D01*
X3119414Y1974511D01*
X3119364Y1974482D01*
X3119306Y1974420D01*
X3119242Y1974366D01*
X3119210Y1974317D01*
X3119170Y1974274D01*
X3119131Y1974199D01*
X3119085Y1974129D01*
X3119067Y1974073D01*
X3119040Y1974021D01*
X3119029Y1973953D01*
X3118999Y1973858D01*
X3118996Y1973758D01*
X3118985Y1973690D01*
X3118985Y3810D01*
X3118993Y3752D01*
X3118991Y3694D01*
X3119013Y3612D01*
X3119025Y3528D01*
X3119049Y3475D01*
X3119063Y3419D01*
X3119106Y3346D01*
X3119141Y3269D01*
X3119179Y3224D01*
X3119209Y3174D01*
X3119270Y3116D01*
X3119325Y3052D01*
X3119373Y3020D01*
X3119416Y2980D01*
X3119491Y2941D01*
X3119561Y2894D01*
X3119617Y2877D01*
X3119669Y2850D01*
X3119737Y2839D01*
X3119832Y2809D01*
X3119932Y2806D01*
X3120000Y2795D01*
X3161190Y2795D01*
X3161248Y2803D01*
G37*
%LPC*%
G36*
X673914Y167038D02*
X673914Y167038D01*
X671906Y167870D01*
X670370Y169406D01*
X669538Y171414D01*
X669538Y173586D01*
X670394Y175652D01*
X670402Y175682D01*
X670416Y175710D01*
X670429Y175787D01*
X670465Y175928D01*
X670463Y175992D01*
X670471Y176041D01*
X670471Y279456D01*
X670463Y279514D01*
X670465Y279572D01*
X670443Y279654D01*
X670431Y279738D01*
X670408Y279791D01*
X670393Y279847D01*
X670350Y279920D01*
X670315Y279997D01*
X670277Y280042D01*
X670248Y280092D01*
X670186Y280150D01*
X670132Y280214D01*
X670083Y280246D01*
X670040Y280286D01*
X669965Y280325D01*
X669895Y280372D01*
X669839Y280389D01*
X669787Y280416D01*
X669719Y280427D01*
X669624Y280457D01*
X669524Y280460D01*
X669456Y280471D01*
X562624Y280471D01*
X542921Y300174D01*
X542852Y300226D01*
X542788Y300286D01*
X542738Y300312D01*
X542694Y300345D01*
X542613Y300376D01*
X542535Y300416D01*
X542487Y300424D01*
X542429Y300446D01*
X542281Y300458D01*
X542204Y300471D01*
X516796Y300471D01*
X516710Y300459D01*
X516622Y300456D01*
X516570Y300439D01*
X516515Y300431D01*
X516435Y300396D01*
X516352Y300369D01*
X516313Y300341D01*
X516255Y300315D01*
X516142Y300219D01*
X516079Y300174D01*
X496376Y280471D01*
X103541Y280471D01*
X103510Y280467D01*
X103479Y280469D01*
X103403Y280452D01*
X103259Y280431D01*
X103201Y280405D01*
X103152Y280394D01*
X101086Y279538D01*
X98914Y279538D01*
X96906Y280370D01*
X95370Y281906D01*
X94538Y283914D01*
X94538Y286086D01*
X95370Y288094D01*
X96906Y289630D01*
X98914Y290462D01*
X101086Y290462D01*
X103152Y289606D01*
X103182Y289598D01*
X103210Y289584D01*
X103287Y289571D01*
X103428Y289535D01*
X103492Y289537D01*
X103541Y289529D01*
X492204Y289529D01*
X492290Y289541D01*
X492378Y289544D01*
X492430Y289561D01*
X492485Y289569D01*
X492565Y289604D01*
X492648Y289631D01*
X492687Y289659D01*
X492745Y289685D01*
X492858Y289781D01*
X492921Y289826D01*
X512624Y309529D01*
X546376Y309529D01*
X566079Y289826D01*
X566148Y289774D01*
X566212Y289714D01*
X566262Y289688D01*
X566306Y289655D01*
X566387Y289624D01*
X566465Y289584D01*
X566513Y289576D01*
X566571Y289554D01*
X566719Y289542D01*
X566796Y289529D01*
X907704Y289529D01*
X907790Y289541D01*
X907878Y289544D01*
X907930Y289561D01*
X907985Y289569D01*
X908065Y289604D01*
X908148Y289631D01*
X908187Y289659D01*
X908245Y289685D01*
X908358Y289781D01*
X908421Y289826D01*
X1023124Y404529D01*
X3071459Y404529D01*
X3071490Y404533D01*
X3071521Y404531D01*
X3071597Y404548D01*
X3071741Y404569D01*
X3071799Y404595D01*
X3071848Y404606D01*
X3073914Y405462D01*
X3076086Y405462D01*
X3078094Y404630D01*
X3079630Y403094D01*
X3080462Y401086D01*
X3080462Y398914D01*
X3079630Y396906D01*
X3078094Y395370D01*
X3076086Y394538D01*
X3073914Y394538D01*
X3071848Y395394D01*
X3071818Y395402D01*
X3071790Y395416D01*
X3071713Y395429D01*
X3071572Y395465D01*
X3071508Y395463D01*
X3071459Y395471D01*
X1027296Y395471D01*
X1027210Y395459D01*
X1027122Y395456D01*
X1027070Y395439D01*
X1027015Y395431D01*
X1026935Y395396D01*
X1026852Y395369D01*
X1026813Y395341D01*
X1026755Y395315D01*
X1026642Y395219D01*
X1026579Y395174D01*
X911876Y280471D01*
X680544Y280471D01*
X680486Y280463D01*
X680428Y280465D01*
X680346Y280443D01*
X680262Y280431D01*
X680209Y280408D01*
X680153Y280393D01*
X680080Y280350D01*
X680003Y280315D01*
X679958Y280277D01*
X679908Y280248D01*
X679850Y280186D01*
X679786Y280132D01*
X679754Y280083D01*
X679714Y280040D01*
X679675Y279965D01*
X679628Y279895D01*
X679611Y279839D01*
X679584Y279787D01*
X679573Y279719D01*
X679543Y279624D01*
X679540Y279524D01*
X679529Y279456D01*
X679529Y176041D01*
X679533Y176010D01*
X679531Y175979D01*
X679548Y175903D01*
X679569Y175759D01*
X679595Y175701D01*
X679606Y175652D01*
X680462Y173586D01*
X680462Y171414D01*
X679630Y169406D01*
X678094Y167870D01*
X676086Y167038D01*
X673914Y167038D01*
G37*
%LPD*%
%LPC*%
G36*
X91624Y330471D02*
X91624Y330471D01*
X74301Y347794D01*
X74277Y347813D01*
X74257Y347836D01*
X74190Y347878D01*
X74074Y347965D01*
X74014Y347988D01*
X73972Y348014D01*
X71906Y348870D01*
X70370Y350406D01*
X69538Y352414D01*
X69538Y354586D01*
X70370Y356594D01*
X71906Y358130D01*
X73914Y358962D01*
X76086Y358962D01*
X78094Y358130D01*
X79630Y356594D01*
X80486Y354528D01*
X80502Y354501D01*
X80511Y354472D01*
X80557Y354408D01*
X80630Y354283D01*
X80677Y354239D01*
X80706Y354199D01*
X95079Y339826D01*
X95148Y339774D01*
X95212Y339714D01*
X95262Y339688D01*
X95306Y339655D01*
X95387Y339624D01*
X95465Y339584D01*
X95513Y339576D01*
X95571Y339554D01*
X95719Y339542D01*
X95796Y339529D01*
X732704Y339529D01*
X732790Y339541D01*
X732878Y339544D01*
X732930Y339561D01*
X732985Y339569D01*
X733065Y339604D01*
X733148Y339631D01*
X733187Y339659D01*
X733245Y339685D01*
X733358Y339781D01*
X733421Y339826D01*
X948124Y554529D01*
X3071459Y554529D01*
X3071490Y554533D01*
X3071521Y554531D01*
X3071597Y554548D01*
X3071741Y554569D01*
X3071799Y554595D01*
X3071848Y554606D01*
X3073914Y555462D01*
X3076086Y555462D01*
X3078094Y554630D01*
X3079630Y553094D01*
X3080462Y551086D01*
X3080462Y548914D01*
X3079630Y546906D01*
X3078094Y545370D01*
X3076086Y544538D01*
X3073914Y544538D01*
X3071848Y545394D01*
X3071818Y545402D01*
X3071790Y545416D01*
X3071713Y545429D01*
X3071572Y545465D01*
X3071508Y545463D01*
X3071459Y545471D01*
X952296Y545471D01*
X952210Y545459D01*
X952122Y545456D01*
X952070Y545439D01*
X952015Y545431D01*
X951935Y545396D01*
X951852Y545369D01*
X951813Y545341D01*
X951755Y545315D01*
X951642Y545219D01*
X951579Y545174D01*
X736876Y330471D01*
X91624Y330471D01*
G37*
%LPD*%
%LPC*%
G36*
X73914Y1094538D02*
X73914Y1094538D01*
X71906Y1095370D01*
X70370Y1096906D01*
X69538Y1098914D01*
X69538Y1101086D01*
X70370Y1103094D01*
X71906Y1104630D01*
X73914Y1105462D01*
X76086Y1105462D01*
X78152Y1104606D01*
X78182Y1104598D01*
X78210Y1104584D01*
X78287Y1104571D01*
X78428Y1104535D01*
X78492Y1104537D01*
X78541Y1104529D01*
X91091Y1104529D01*
X91178Y1104541D01*
X91266Y1104544D01*
X91318Y1104561D01*
X91373Y1104569D01*
X91453Y1104604D01*
X91536Y1104631D01*
X91575Y1104659D01*
X91632Y1104685D01*
X91746Y1104781D01*
X91809Y1104826D01*
X94723Y1107740D01*
X255277Y1107740D01*
X258191Y1104826D01*
X258260Y1104774D01*
X258324Y1104714D01*
X258374Y1104688D01*
X258418Y1104655D01*
X258500Y1104624D01*
X258577Y1104584D01*
X258625Y1104576D01*
X258683Y1104554D01*
X258831Y1104542D01*
X258909Y1104529D01*
X372704Y1104529D01*
X372790Y1104541D01*
X372878Y1104544D01*
X372930Y1104561D01*
X372985Y1104569D01*
X373065Y1104604D01*
X373148Y1104631D01*
X373187Y1104659D01*
X373245Y1104685D01*
X373358Y1104781D01*
X373421Y1104826D01*
X573124Y1304529D01*
X3071459Y1304529D01*
X3071490Y1304533D01*
X3071521Y1304531D01*
X3071597Y1304548D01*
X3071741Y1304569D01*
X3071799Y1304595D01*
X3071848Y1304606D01*
X3073914Y1305462D01*
X3076086Y1305462D01*
X3078094Y1304630D01*
X3079630Y1303094D01*
X3080462Y1301086D01*
X3080462Y1298914D01*
X3079630Y1296906D01*
X3078094Y1295370D01*
X3076086Y1294538D01*
X3073914Y1294538D01*
X3071848Y1295394D01*
X3071818Y1295402D01*
X3071790Y1295416D01*
X3071713Y1295429D01*
X3071572Y1295465D01*
X3071508Y1295463D01*
X3071459Y1295471D01*
X577296Y1295471D01*
X577210Y1295459D01*
X577122Y1295456D01*
X577070Y1295439D01*
X577015Y1295431D01*
X576935Y1295396D01*
X576852Y1295369D01*
X576813Y1295341D01*
X576755Y1295315D01*
X576642Y1295219D01*
X576579Y1295174D01*
X376876Y1095471D01*
X254736Y1095471D01*
X251823Y1098385D01*
X251753Y1098437D01*
X251689Y1098497D01*
X251640Y1098523D01*
X251595Y1098556D01*
X251514Y1098587D01*
X251436Y1098627D01*
X251388Y1098635D01*
X251330Y1098657D01*
X251182Y1098669D01*
X251105Y1098682D01*
X98895Y1098682D01*
X98809Y1098670D01*
X98721Y1098667D01*
X98669Y1098650D01*
X98614Y1098642D01*
X98534Y1098607D01*
X98451Y1098580D01*
X98411Y1098552D01*
X98354Y1098526D01*
X98241Y1098430D01*
X98177Y1098385D01*
X95264Y1095471D01*
X78541Y1095471D01*
X78510Y1095467D01*
X78479Y1095469D01*
X78403Y1095452D01*
X78259Y1095431D01*
X78201Y1095405D01*
X78152Y1095394D01*
X76086Y1094538D01*
X73914Y1094538D01*
G37*
%LPD*%
%LPC*%
G36*
X73914Y794538D02*
X73914Y794538D01*
X71906Y795370D01*
X70370Y796906D01*
X69538Y798914D01*
X69538Y801086D01*
X70370Y803094D01*
X71906Y804630D01*
X73914Y805462D01*
X76086Y805462D01*
X78152Y804606D01*
X78182Y804598D01*
X78210Y804584D01*
X78287Y804571D01*
X78428Y804535D01*
X78492Y804537D01*
X78541Y804529D01*
X91091Y804529D01*
X91178Y804541D01*
X91266Y804544D01*
X91318Y804561D01*
X91373Y804569D01*
X91453Y804604D01*
X91536Y804631D01*
X91575Y804659D01*
X91632Y804685D01*
X91746Y804781D01*
X91809Y804826D01*
X94723Y807740D01*
X405277Y807740D01*
X408191Y804826D01*
X408260Y804774D01*
X408324Y804714D01*
X408374Y804688D01*
X408418Y804655D01*
X408500Y804624D01*
X408577Y804584D01*
X408625Y804576D01*
X408683Y804554D01*
X408831Y804542D01*
X408909Y804529D01*
X522704Y804529D01*
X522790Y804541D01*
X522878Y804544D01*
X522930Y804561D01*
X522985Y804569D01*
X523065Y804604D01*
X523148Y804631D01*
X523187Y804659D01*
X523245Y804685D01*
X523358Y804781D01*
X523421Y804826D01*
X723124Y1004529D01*
X3071459Y1004529D01*
X3071490Y1004533D01*
X3071521Y1004531D01*
X3071597Y1004548D01*
X3071741Y1004569D01*
X3071799Y1004595D01*
X3071848Y1004606D01*
X3073914Y1005462D01*
X3076086Y1005462D01*
X3078094Y1004630D01*
X3079630Y1003094D01*
X3080462Y1001086D01*
X3080462Y998914D01*
X3079630Y996906D01*
X3078094Y995370D01*
X3076086Y994538D01*
X3073914Y994538D01*
X3071848Y995394D01*
X3071818Y995402D01*
X3071790Y995416D01*
X3071713Y995429D01*
X3071572Y995465D01*
X3071508Y995463D01*
X3071459Y995471D01*
X727296Y995471D01*
X727210Y995459D01*
X727122Y995456D01*
X727070Y995439D01*
X727015Y995431D01*
X726935Y995396D01*
X726852Y995369D01*
X726813Y995341D01*
X726755Y995315D01*
X726642Y995219D01*
X726579Y995174D01*
X526876Y795471D01*
X404736Y795471D01*
X401823Y798385D01*
X401753Y798437D01*
X401689Y798497D01*
X401640Y798523D01*
X401595Y798556D01*
X401514Y798587D01*
X401436Y798627D01*
X401388Y798635D01*
X401330Y798657D01*
X401182Y798669D01*
X401105Y798682D01*
X98895Y798682D01*
X98809Y798670D01*
X98721Y798667D01*
X98669Y798650D01*
X98614Y798642D01*
X98534Y798607D01*
X98451Y798580D01*
X98411Y798552D01*
X98354Y798526D01*
X98241Y798430D01*
X98177Y798385D01*
X95264Y795471D01*
X78541Y795471D01*
X78510Y795467D01*
X78479Y795469D01*
X78403Y795452D01*
X78259Y795431D01*
X78201Y795405D01*
X78152Y795394D01*
X76086Y794538D01*
X73914Y794538D01*
G37*
%LPD*%
%LPC*%
G36*
X73914Y494538D02*
X73914Y494538D01*
X71906Y495370D01*
X70370Y496906D01*
X69538Y498914D01*
X69538Y501086D01*
X70370Y503094D01*
X71906Y504630D01*
X73914Y505462D01*
X76086Y505462D01*
X78152Y504606D01*
X78182Y504598D01*
X78210Y504584D01*
X78287Y504571D01*
X78428Y504535D01*
X78492Y504537D01*
X78541Y504529D01*
X91091Y504529D01*
X91178Y504541D01*
X91266Y504544D01*
X91318Y504561D01*
X91373Y504569D01*
X91453Y504604D01*
X91536Y504631D01*
X91575Y504659D01*
X91632Y504685D01*
X91746Y504781D01*
X91809Y504826D01*
X94723Y507740D01*
X555277Y507740D01*
X558191Y504826D01*
X558260Y504774D01*
X558324Y504714D01*
X558374Y504688D01*
X558418Y504655D01*
X558500Y504624D01*
X558577Y504584D01*
X558625Y504576D01*
X558683Y504554D01*
X558831Y504542D01*
X558909Y504529D01*
X672704Y504529D01*
X672790Y504541D01*
X672878Y504544D01*
X672930Y504561D01*
X672985Y504569D01*
X673065Y504604D01*
X673148Y504631D01*
X673187Y504659D01*
X673245Y504685D01*
X673358Y504781D01*
X673421Y504826D01*
X873124Y704529D01*
X3071459Y704529D01*
X3071490Y704533D01*
X3071521Y704531D01*
X3071597Y704548D01*
X3071741Y704569D01*
X3071799Y704595D01*
X3071848Y704606D01*
X3073914Y705462D01*
X3076086Y705462D01*
X3078094Y704630D01*
X3079630Y703094D01*
X3080462Y701086D01*
X3080462Y698914D01*
X3079630Y696906D01*
X3078094Y695370D01*
X3076086Y694538D01*
X3073914Y694538D01*
X3071848Y695394D01*
X3071818Y695402D01*
X3071790Y695416D01*
X3071713Y695429D01*
X3071572Y695465D01*
X3071508Y695463D01*
X3071459Y695471D01*
X877296Y695471D01*
X877210Y695459D01*
X877122Y695456D01*
X877070Y695439D01*
X877015Y695431D01*
X876935Y695396D01*
X876852Y695369D01*
X876813Y695341D01*
X876755Y695315D01*
X876642Y695219D01*
X876579Y695174D01*
X676876Y495471D01*
X554736Y495471D01*
X551823Y498385D01*
X551753Y498437D01*
X551689Y498497D01*
X551640Y498523D01*
X551595Y498556D01*
X551514Y498587D01*
X551436Y498627D01*
X551388Y498635D01*
X551330Y498657D01*
X551182Y498669D01*
X551105Y498682D01*
X98895Y498682D01*
X98809Y498670D01*
X98721Y498667D01*
X98669Y498650D01*
X98614Y498642D01*
X98534Y498607D01*
X98451Y498580D01*
X98411Y498552D01*
X98354Y498526D01*
X98241Y498430D01*
X98177Y498385D01*
X95264Y495471D01*
X78541Y495471D01*
X78510Y495467D01*
X78479Y495469D01*
X78403Y495452D01*
X78259Y495431D01*
X78201Y495405D01*
X78152Y495394D01*
X76086Y494538D01*
X73914Y494538D01*
G37*
%LPD*%
%LPC*%
G36*
X73914Y644538D02*
X73914Y644538D01*
X71906Y645370D01*
X70370Y646906D01*
X69538Y648914D01*
X69538Y651086D01*
X70370Y653094D01*
X71906Y654630D01*
X73914Y655462D01*
X76086Y655462D01*
X78152Y654606D01*
X78182Y654598D01*
X78210Y654584D01*
X78287Y654571D01*
X78428Y654535D01*
X78492Y654537D01*
X78541Y654529D01*
X91091Y654529D01*
X91178Y654541D01*
X91266Y654544D01*
X91318Y654561D01*
X91373Y654569D01*
X91453Y654604D01*
X91536Y654631D01*
X91575Y654659D01*
X91632Y654685D01*
X91746Y654781D01*
X91809Y654826D01*
X94723Y657740D01*
X555277Y657740D01*
X558191Y654826D01*
X558260Y654774D01*
X558324Y654714D01*
X558374Y654688D01*
X558418Y654655D01*
X558500Y654624D01*
X558577Y654584D01*
X558625Y654576D01*
X558683Y654554D01*
X558831Y654542D01*
X558909Y654529D01*
X597704Y654529D01*
X597790Y654541D01*
X597878Y654544D01*
X597930Y654561D01*
X597985Y654569D01*
X598065Y654604D01*
X598148Y654631D01*
X598187Y654659D01*
X598245Y654685D01*
X598358Y654781D01*
X598421Y654826D01*
X798124Y854529D01*
X3071459Y854529D01*
X3071490Y854533D01*
X3071521Y854531D01*
X3071597Y854548D01*
X3071741Y854569D01*
X3071799Y854595D01*
X3071848Y854606D01*
X3073914Y855462D01*
X3076086Y855462D01*
X3078094Y854630D01*
X3079630Y853094D01*
X3080462Y851086D01*
X3080462Y848914D01*
X3079630Y846906D01*
X3078094Y845370D01*
X3076086Y844538D01*
X3073914Y844538D01*
X3071848Y845394D01*
X3071818Y845402D01*
X3071790Y845416D01*
X3071713Y845429D01*
X3071572Y845465D01*
X3071508Y845463D01*
X3071459Y845471D01*
X802296Y845471D01*
X802210Y845459D01*
X802122Y845456D01*
X802070Y845439D01*
X802015Y845431D01*
X801935Y845396D01*
X801852Y845369D01*
X801813Y845341D01*
X801755Y845315D01*
X801642Y845219D01*
X801579Y845174D01*
X601876Y645471D01*
X554736Y645471D01*
X551823Y648385D01*
X551753Y648437D01*
X551689Y648497D01*
X551640Y648523D01*
X551595Y648556D01*
X551514Y648587D01*
X551436Y648627D01*
X551388Y648635D01*
X551330Y648657D01*
X551182Y648669D01*
X551105Y648682D01*
X98895Y648682D01*
X98809Y648670D01*
X98721Y648667D01*
X98669Y648650D01*
X98614Y648642D01*
X98534Y648607D01*
X98451Y648580D01*
X98411Y648552D01*
X98354Y648526D01*
X98241Y648430D01*
X98177Y648385D01*
X95264Y645471D01*
X78541Y645471D01*
X78510Y645467D01*
X78479Y645469D01*
X78403Y645452D01*
X78259Y645431D01*
X78209Y645409D01*
X78203Y645408D01*
X78192Y645403D01*
X78152Y645394D01*
X76086Y644538D01*
X73914Y644538D01*
G37*
%LPD*%
%LPC*%
G36*
X73914Y944538D02*
X73914Y944538D01*
X71906Y945370D01*
X70370Y946906D01*
X69538Y948914D01*
X69538Y951086D01*
X70370Y953094D01*
X71906Y954630D01*
X73914Y955462D01*
X76086Y955462D01*
X78152Y954606D01*
X78182Y954598D01*
X78210Y954584D01*
X78287Y954571D01*
X78428Y954535D01*
X78492Y954537D01*
X78541Y954529D01*
X91091Y954529D01*
X91178Y954541D01*
X91266Y954544D01*
X91318Y954561D01*
X91373Y954569D01*
X91453Y954604D01*
X91536Y954631D01*
X91575Y954659D01*
X91632Y954685D01*
X91746Y954781D01*
X91809Y954826D01*
X94723Y957740D01*
X405277Y957740D01*
X408191Y954826D01*
X408260Y954774D01*
X408324Y954714D01*
X408374Y954688D01*
X408418Y954655D01*
X408500Y954624D01*
X408577Y954584D01*
X408625Y954576D01*
X408683Y954554D01*
X408831Y954542D01*
X408909Y954529D01*
X447704Y954529D01*
X447790Y954541D01*
X447878Y954544D01*
X447930Y954561D01*
X447985Y954569D01*
X448065Y954604D01*
X448148Y954631D01*
X448187Y954659D01*
X448245Y954685D01*
X448358Y954781D01*
X448421Y954826D01*
X648124Y1154529D01*
X3071459Y1154529D01*
X3071490Y1154533D01*
X3071521Y1154531D01*
X3071597Y1154548D01*
X3071741Y1154569D01*
X3071799Y1154595D01*
X3071848Y1154606D01*
X3073914Y1155462D01*
X3076086Y1155462D01*
X3078094Y1154630D01*
X3079630Y1153094D01*
X3080462Y1151086D01*
X3080462Y1148914D01*
X3079630Y1146906D01*
X3078094Y1145370D01*
X3076086Y1144538D01*
X3073914Y1144538D01*
X3071848Y1145394D01*
X3071818Y1145402D01*
X3071790Y1145416D01*
X3071713Y1145429D01*
X3071572Y1145465D01*
X3071508Y1145463D01*
X3071459Y1145471D01*
X652296Y1145471D01*
X652210Y1145459D01*
X652122Y1145456D01*
X652070Y1145439D01*
X652015Y1145431D01*
X651935Y1145396D01*
X651852Y1145369D01*
X651813Y1145341D01*
X651755Y1145315D01*
X651642Y1145219D01*
X651579Y1145174D01*
X451876Y945471D01*
X404736Y945471D01*
X401823Y948385D01*
X401753Y948437D01*
X401689Y948497D01*
X401640Y948523D01*
X401595Y948556D01*
X401514Y948587D01*
X401436Y948627D01*
X401388Y948635D01*
X401330Y948657D01*
X401182Y948669D01*
X401105Y948682D01*
X98895Y948682D01*
X98809Y948670D01*
X98721Y948667D01*
X98669Y948650D01*
X98614Y948642D01*
X98534Y948607D01*
X98451Y948580D01*
X98411Y948552D01*
X98354Y948526D01*
X98241Y948430D01*
X98177Y948385D01*
X95264Y945471D01*
X78541Y945471D01*
X78510Y945467D01*
X78479Y945469D01*
X78403Y945452D01*
X78259Y945431D01*
X78201Y945405D01*
X78152Y945394D01*
X76086Y944538D01*
X73914Y944538D01*
G37*
%LPD*%
%LPC*%
G36*
X73914Y1544538D02*
X73914Y1544538D01*
X71906Y1545370D01*
X70370Y1546906D01*
X69538Y1548914D01*
X69538Y1551086D01*
X70370Y1553094D01*
X71906Y1554630D01*
X73914Y1555462D01*
X76086Y1555462D01*
X78152Y1554606D01*
X78182Y1554598D01*
X78210Y1554584D01*
X78287Y1554571D01*
X78428Y1554535D01*
X78492Y1554537D01*
X78541Y1554529D01*
X147704Y1554529D01*
X147790Y1554541D01*
X147878Y1554544D01*
X147930Y1554561D01*
X147985Y1554569D01*
X148065Y1554604D01*
X148148Y1554631D01*
X148187Y1554659D01*
X148245Y1554685D01*
X148358Y1554781D01*
X148421Y1554826D01*
X348124Y1754529D01*
X3071459Y1754529D01*
X3071490Y1754533D01*
X3071521Y1754531D01*
X3071597Y1754548D01*
X3071741Y1754569D01*
X3071799Y1754595D01*
X3071848Y1754606D01*
X3073914Y1755462D01*
X3076086Y1755462D01*
X3078094Y1754630D01*
X3079630Y1753094D01*
X3080462Y1751086D01*
X3080462Y1748914D01*
X3079630Y1746906D01*
X3078094Y1745370D01*
X3076086Y1744538D01*
X3073914Y1744538D01*
X3071848Y1745394D01*
X3071818Y1745402D01*
X3071790Y1745416D01*
X3071713Y1745429D01*
X3071572Y1745465D01*
X3071508Y1745463D01*
X3071459Y1745471D01*
X352296Y1745471D01*
X352210Y1745459D01*
X352122Y1745456D01*
X352070Y1745439D01*
X352015Y1745431D01*
X351935Y1745396D01*
X351852Y1745369D01*
X351813Y1745341D01*
X351755Y1745315D01*
X351642Y1745219D01*
X351579Y1745174D01*
X151876Y1545471D01*
X78541Y1545471D01*
X78510Y1545467D01*
X78479Y1545469D01*
X78403Y1545452D01*
X78259Y1545431D01*
X78201Y1545405D01*
X78152Y1545394D01*
X76086Y1544538D01*
X73914Y1544538D01*
G37*
%LPD*%
%LPC*%
G36*
X73914Y1394538D02*
X73914Y1394538D01*
X71906Y1395370D01*
X70370Y1396906D01*
X69538Y1398914D01*
X69538Y1401086D01*
X70370Y1403094D01*
X71906Y1404630D01*
X73914Y1405462D01*
X76086Y1405462D01*
X78152Y1404606D01*
X78182Y1404598D01*
X78210Y1404584D01*
X78287Y1404571D01*
X78428Y1404535D01*
X78492Y1404537D01*
X78541Y1404529D01*
X222704Y1404529D01*
X222790Y1404541D01*
X222878Y1404544D01*
X222930Y1404561D01*
X222985Y1404569D01*
X223065Y1404604D01*
X223148Y1404631D01*
X223187Y1404659D01*
X223245Y1404685D01*
X223358Y1404781D01*
X223421Y1404826D01*
X423124Y1604529D01*
X3071459Y1604529D01*
X3071490Y1604533D01*
X3071521Y1604531D01*
X3071597Y1604548D01*
X3071741Y1604569D01*
X3071799Y1604595D01*
X3071848Y1604606D01*
X3073914Y1605462D01*
X3076086Y1605462D01*
X3078094Y1604630D01*
X3079630Y1603094D01*
X3080462Y1601086D01*
X3080462Y1598914D01*
X3079630Y1596906D01*
X3078094Y1595370D01*
X3076086Y1594538D01*
X3073914Y1594538D01*
X3071848Y1595394D01*
X3071818Y1595402D01*
X3071790Y1595416D01*
X3071713Y1595429D01*
X3071572Y1595465D01*
X3071508Y1595463D01*
X3071459Y1595471D01*
X427296Y1595471D01*
X427210Y1595459D01*
X427122Y1595456D01*
X427070Y1595439D01*
X427015Y1595431D01*
X426935Y1595396D01*
X426852Y1595369D01*
X426813Y1595341D01*
X426755Y1595315D01*
X426642Y1595219D01*
X426579Y1595174D01*
X226876Y1395471D01*
X78541Y1395471D01*
X78510Y1395467D01*
X78479Y1395469D01*
X78403Y1395452D01*
X78259Y1395431D01*
X78201Y1395405D01*
X78152Y1395394D01*
X76086Y1394538D01*
X73914Y1394538D01*
G37*
%LPD*%
%LPC*%
G36*
X73914Y1244538D02*
X73914Y1244538D01*
X71906Y1245370D01*
X70370Y1246906D01*
X69538Y1248914D01*
X69538Y1251086D01*
X70370Y1253094D01*
X71906Y1254630D01*
X73914Y1255462D01*
X76086Y1255462D01*
X78152Y1254606D01*
X78182Y1254598D01*
X78210Y1254584D01*
X78287Y1254571D01*
X78428Y1254535D01*
X78492Y1254537D01*
X78541Y1254529D01*
X297704Y1254529D01*
X297790Y1254541D01*
X297878Y1254544D01*
X297930Y1254561D01*
X297985Y1254569D01*
X298065Y1254604D01*
X298148Y1254631D01*
X298187Y1254659D01*
X298245Y1254685D01*
X298358Y1254781D01*
X298421Y1254826D01*
X498124Y1454529D01*
X3071459Y1454529D01*
X3071490Y1454533D01*
X3071521Y1454531D01*
X3071597Y1454548D01*
X3071741Y1454569D01*
X3071799Y1454595D01*
X3071848Y1454606D01*
X3073914Y1455462D01*
X3076086Y1455462D01*
X3078094Y1454630D01*
X3079630Y1453094D01*
X3080462Y1451086D01*
X3080462Y1448914D01*
X3079630Y1446906D01*
X3078094Y1445370D01*
X3076086Y1444538D01*
X3073914Y1444538D01*
X3071848Y1445394D01*
X3071824Y1445400D01*
X3071805Y1445409D01*
X3071801Y1445410D01*
X3071790Y1445416D01*
X3071713Y1445429D01*
X3071572Y1445465D01*
X3071508Y1445463D01*
X3071459Y1445471D01*
X502296Y1445471D01*
X502210Y1445459D01*
X502122Y1445456D01*
X502070Y1445439D01*
X502015Y1445431D01*
X501935Y1445396D01*
X501852Y1445369D01*
X501813Y1445341D01*
X501755Y1445315D01*
X501642Y1445219D01*
X501579Y1445174D01*
X301876Y1245471D01*
X78541Y1245471D01*
X78510Y1245467D01*
X78479Y1245469D01*
X78403Y1245452D01*
X78259Y1245431D01*
X78237Y1245421D01*
X78234Y1245421D01*
X78197Y1245404D01*
X78152Y1245394D01*
X76086Y1244538D01*
X73914Y1244538D01*
G37*
%LPD*%
%LPC*%
G36*
X73914Y1694538D02*
X73914Y1694538D01*
X71906Y1695370D01*
X70370Y1696906D01*
X69538Y1698914D01*
X69538Y1701086D01*
X70370Y1703094D01*
X71906Y1704630D01*
X73972Y1705486D01*
X73999Y1705502D01*
X74028Y1705511D01*
X74092Y1705557D01*
X74217Y1705630D01*
X74261Y1705677D01*
X74301Y1705706D01*
X270174Y1901579D01*
X273124Y1904529D01*
X1695204Y1904529D01*
X1695290Y1904541D01*
X1695378Y1904544D01*
X1695430Y1904561D01*
X1695485Y1904569D01*
X1695565Y1904604D01*
X1695648Y1904631D01*
X1695687Y1904659D01*
X1695745Y1904685D01*
X1695858Y1904781D01*
X1695921Y1904826D01*
X1733124Y1942029D01*
X1786876Y1942029D01*
X1824079Y1904826D01*
X1824148Y1904774D01*
X1824212Y1904714D01*
X1824262Y1904688D01*
X1824306Y1904655D01*
X1824387Y1904624D01*
X1824465Y1904584D01*
X1824513Y1904576D01*
X1824571Y1904554D01*
X1824719Y1904542D01*
X1824796Y1904529D01*
X2971459Y1904529D01*
X2971490Y1904533D01*
X2971521Y1904531D01*
X2971597Y1904548D01*
X2971741Y1904569D01*
X2971799Y1904595D01*
X2971848Y1904606D01*
X2973914Y1905462D01*
X2976086Y1905462D01*
X2978094Y1904630D01*
X2979630Y1903094D01*
X2980462Y1901086D01*
X2980462Y1898914D01*
X2979630Y1896906D01*
X2978094Y1895370D01*
X2976086Y1894538D01*
X2973914Y1894538D01*
X2971848Y1895394D01*
X2971818Y1895402D01*
X2971790Y1895416D01*
X2971713Y1895429D01*
X2971572Y1895465D01*
X2971508Y1895463D01*
X2971459Y1895471D01*
X1820624Y1895471D01*
X1783421Y1932674D01*
X1783352Y1932726D01*
X1783288Y1932786D01*
X1783238Y1932812D01*
X1783194Y1932845D01*
X1783113Y1932876D01*
X1783035Y1932916D01*
X1782987Y1932924D01*
X1782929Y1932946D01*
X1782781Y1932958D01*
X1782704Y1932971D01*
X1737296Y1932971D01*
X1737210Y1932959D01*
X1737122Y1932956D01*
X1737070Y1932939D01*
X1737015Y1932931D01*
X1736935Y1932896D01*
X1736852Y1932869D01*
X1736813Y1932841D01*
X1736755Y1932815D01*
X1736642Y1932719D01*
X1736579Y1932674D01*
X1699376Y1895471D01*
X277296Y1895471D01*
X277210Y1895459D01*
X277122Y1895456D01*
X277070Y1895439D01*
X277015Y1895431D01*
X276935Y1895396D01*
X276852Y1895369D01*
X276813Y1895341D01*
X276755Y1895315D01*
X276642Y1895219D01*
X276579Y1895174D01*
X80706Y1699301D01*
X80688Y1699277D01*
X80664Y1699257D01*
X80622Y1699190D01*
X80535Y1699074D01*
X80512Y1699014D01*
X80486Y1698972D01*
X79630Y1696906D01*
X78094Y1695370D01*
X76086Y1694538D01*
X73914Y1694538D01*
G37*
%LPD*%
%LPC*%
G36*
X668914Y49538D02*
X668914Y49538D01*
X666906Y50370D01*
X665370Y51906D01*
X664538Y53914D01*
X664538Y56086D01*
X665370Y58094D01*
X666906Y59630D01*
X668914Y60462D01*
X671086Y60462D01*
X673152Y59606D01*
X673182Y59598D01*
X673210Y59584D01*
X673287Y59571D01*
X673428Y59535D01*
X673492Y59537D01*
X673541Y59529D01*
X904204Y59529D01*
X904290Y59541D01*
X904378Y59544D01*
X904430Y59561D01*
X904485Y59569D01*
X904565Y59604D01*
X904648Y59631D01*
X904687Y59659D01*
X904745Y59685D01*
X904858Y59781D01*
X904921Y59826D01*
X1099624Y254529D01*
X3076459Y254529D01*
X3076490Y254533D01*
X3076521Y254531D01*
X3076597Y254548D01*
X3076741Y254569D01*
X3076799Y254595D01*
X3076848Y254606D01*
X3078914Y255462D01*
X3081086Y255462D01*
X3083094Y254630D01*
X3084630Y253094D01*
X3085462Y251086D01*
X3085462Y248914D01*
X3084630Y246906D01*
X3083094Y245370D01*
X3081086Y244538D01*
X3078914Y244538D01*
X3076848Y245394D01*
X3076818Y245402D01*
X3076790Y245416D01*
X3076713Y245429D01*
X3076572Y245465D01*
X3076508Y245463D01*
X3076459Y245471D01*
X1103796Y245471D01*
X1103710Y245459D01*
X1103622Y245456D01*
X1103570Y245439D01*
X1103515Y245431D01*
X1103435Y245396D01*
X1103352Y245369D01*
X1103313Y245341D01*
X1103255Y245315D01*
X1103142Y245219D01*
X1103079Y245174D01*
X908376Y50471D01*
X673541Y50471D01*
X673510Y50467D01*
X673479Y50469D01*
X673403Y50452D01*
X673259Y50431D01*
X673201Y50405D01*
X673152Y50394D01*
X671086Y49538D01*
X668914Y49538D01*
G37*
%LPD*%
%LPC*%
G36*
X223394Y53588D02*
X223394Y53588D01*
X221386Y54420D01*
X219850Y55956D01*
X219018Y57964D01*
X219018Y60136D01*
X219255Y60707D01*
X219255Y60708D01*
X219256Y60710D01*
X219289Y60841D01*
X219325Y60982D01*
X219325Y60984D01*
X219326Y60985D01*
X219321Y61126D01*
X219317Y61266D01*
X219317Y61268D01*
X219317Y61269D01*
X219273Y61405D01*
X219231Y61537D01*
X219230Y61538D01*
X219229Y61540D01*
X219220Y61552D01*
X219072Y61773D01*
X219049Y61793D01*
X219034Y61813D01*
X216605Y64242D01*
X216605Y87952D01*
X216593Y88038D01*
X216590Y88126D01*
X216573Y88179D01*
X216565Y88233D01*
X216530Y88313D01*
X216503Y88396D01*
X216475Y88436D01*
X216449Y88493D01*
X216353Y88606D01*
X216308Y88670D01*
X175487Y129491D01*
X175417Y129543D01*
X175353Y129603D01*
X175304Y129629D01*
X175260Y129662D01*
X175178Y129693D01*
X175100Y129733D01*
X175052Y129741D01*
X174994Y129763D01*
X174846Y129775D01*
X174769Y129788D01*
X172594Y129788D01*
X170586Y130620D01*
X169050Y132156D01*
X168218Y134164D01*
X168218Y136336D01*
X169050Y138344D01*
X170586Y139880D01*
X172594Y140712D01*
X174766Y140712D01*
X176774Y139880D01*
X178310Y138344D01*
X179142Y136336D01*
X179142Y134161D01*
X179154Y134075D01*
X179157Y133987D01*
X179174Y133934D01*
X179182Y133880D01*
X179217Y133800D01*
X179244Y133717D01*
X179272Y133677D01*
X179298Y133620D01*
X179394Y133507D01*
X179439Y133443D01*
X222195Y90688D01*
X222195Y66978D01*
X222207Y66892D01*
X222210Y66804D01*
X222227Y66751D01*
X222235Y66697D01*
X222270Y66617D01*
X222297Y66534D01*
X222325Y66494D01*
X222351Y66437D01*
X222447Y66324D01*
X222492Y66260D01*
X223943Y64809D01*
X224013Y64757D01*
X224077Y64697D01*
X224126Y64671D01*
X224170Y64638D01*
X224252Y64607D01*
X224330Y64567D01*
X224378Y64559D01*
X224436Y64537D01*
X224584Y64525D01*
X224661Y64512D01*
X225569Y64512D01*
X225655Y64524D01*
X225743Y64527D01*
X225796Y64544D01*
X225850Y64552D01*
X225930Y64587D01*
X226013Y64614D01*
X226053Y64642D01*
X226110Y64668D01*
X226223Y64764D01*
X226287Y64809D01*
X232383Y70905D01*
X232400Y70929D01*
X232423Y70948D01*
X232486Y71042D01*
X232554Y71132D01*
X232564Y71160D01*
X232580Y71184D01*
X232615Y71292D01*
X232655Y71398D01*
X232657Y71427D01*
X232666Y71455D01*
X232669Y71569D01*
X232678Y71681D01*
X232673Y71710D01*
X232673Y71739D01*
X232645Y71849D01*
X232623Y71960D01*
X232609Y71986D01*
X232602Y72014D01*
X232544Y72112D01*
X232492Y72212D01*
X232471Y72234D01*
X232456Y72259D01*
X232374Y72336D01*
X232296Y72418D01*
X232270Y72433D01*
X232249Y72453D01*
X232148Y72505D01*
X232051Y72562D01*
X232022Y72569D01*
X231996Y72583D01*
X231919Y72596D01*
X231775Y72632D01*
X231713Y72630D01*
X231665Y72638D01*
X229744Y72638D01*
X227736Y73470D01*
X226200Y75006D01*
X225368Y77014D01*
X225368Y79186D01*
X226200Y81194D01*
X227738Y82732D01*
X227790Y82802D01*
X227850Y82866D01*
X227876Y82915D01*
X227909Y82959D01*
X227940Y83041D01*
X227980Y83119D01*
X227988Y83166D01*
X228010Y83225D01*
X228022Y83373D01*
X228035Y83450D01*
X228035Y100652D01*
X228023Y100738D01*
X228020Y100826D01*
X228003Y100879D01*
X227995Y100933D01*
X227960Y101013D01*
X227933Y101096D01*
X227905Y101136D01*
X227879Y101193D01*
X227783Y101306D01*
X227738Y101370D01*
X225017Y104091D01*
X224947Y104143D01*
X224883Y104203D01*
X224834Y104229D01*
X224790Y104262D01*
X224708Y104293D01*
X224630Y104333D01*
X224582Y104341D01*
X224524Y104363D01*
X224376Y104375D01*
X224299Y104388D01*
X222124Y104388D01*
X220116Y105220D01*
X218580Y106756D01*
X217748Y108764D01*
X217748Y110936D01*
X218580Y112944D01*
X220116Y114480D01*
X222124Y115312D01*
X224296Y115312D01*
X226304Y114480D01*
X227840Y112944D01*
X228672Y110936D01*
X228672Y108761D01*
X228684Y108675D01*
X228687Y108587D01*
X228704Y108534D01*
X228712Y108480D01*
X228747Y108400D01*
X228774Y108317D01*
X228802Y108277D01*
X228828Y108220D01*
X228924Y108107D01*
X228969Y108043D01*
X233625Y103388D01*
X233625Y83450D01*
X233637Y83363D01*
X233640Y83276D01*
X233657Y83223D01*
X233665Y83168D01*
X233700Y83089D01*
X233727Y83005D01*
X233755Y82966D01*
X233781Y82909D01*
X233877Y82796D01*
X233922Y82732D01*
X235460Y81194D01*
X236292Y79186D01*
X236292Y77265D01*
X236296Y77236D01*
X236293Y77207D01*
X236316Y77096D01*
X236332Y76984D01*
X236344Y76957D01*
X236349Y76928D01*
X236401Y76828D01*
X236448Y76724D01*
X236467Y76702D01*
X236480Y76676D01*
X236558Y76594D01*
X236631Y76507D01*
X236656Y76491D01*
X236676Y76470D01*
X236774Y76412D01*
X236868Y76350D01*
X236896Y76341D01*
X236921Y76326D01*
X237031Y76298D01*
X237139Y76264D01*
X237169Y76263D01*
X237197Y76256D01*
X237310Y76259D01*
X237423Y76257D01*
X237452Y76264D01*
X237481Y76265D01*
X237589Y76300D01*
X237698Y76328D01*
X237724Y76343D01*
X237752Y76352D01*
X237815Y76398D01*
X237943Y76474D01*
X237986Y76519D01*
X238025Y76547D01*
X254563Y93085D01*
X254615Y93155D01*
X254675Y93219D01*
X254700Y93268D01*
X254734Y93312D01*
X254765Y93394D01*
X254805Y93472D01*
X254813Y93520D01*
X254835Y93578D01*
X254847Y93726D01*
X254860Y93803D01*
X254860Y94144D01*
X255692Y96152D01*
X257228Y97688D01*
X259236Y98520D01*
X261408Y98520D01*
X263416Y97688D01*
X264952Y96152D01*
X265784Y94144D01*
X265784Y91972D01*
X264952Y89964D01*
X263416Y88428D01*
X261408Y87596D01*
X259236Y87596D01*
X258266Y87998D01*
X258265Y87998D01*
X258264Y87999D01*
X258130Y88033D01*
X257991Y88069D01*
X257990Y88069D01*
X257988Y88069D01*
X257847Y88065D01*
X257707Y88061D01*
X257705Y88060D01*
X257704Y88060D01*
X257571Y88017D01*
X257436Y87974D01*
X257435Y87973D01*
X257433Y87973D01*
X257421Y87964D01*
X257200Y87816D01*
X257180Y87792D01*
X257160Y87778D01*
X230239Y60857D01*
X230187Y60787D01*
X230127Y60723D01*
X230101Y60674D01*
X230068Y60630D01*
X230037Y60548D01*
X229997Y60470D01*
X229989Y60422D01*
X229967Y60364D01*
X229955Y60216D01*
X229942Y60139D01*
X229942Y57964D01*
X229110Y55956D01*
X227574Y54420D01*
X225566Y53588D01*
X223394Y53588D01*
G37*
%LPD*%
%LPC*%
G36*
X1756816Y1882821D02*
X1756816Y1882821D01*
X1749583Y1885817D01*
X1744047Y1891353D01*
X1741051Y1898586D01*
X1741051Y1906414D01*
X1744047Y1913647D01*
X1749583Y1919183D01*
X1756816Y1922179D01*
X1764644Y1922179D01*
X1771877Y1919183D01*
X1777413Y1913647D01*
X1780409Y1906414D01*
X1780409Y1898586D01*
X1777413Y1891353D01*
X1771877Y1885817D01*
X1764644Y1882821D01*
X1756816Y1882821D01*
G37*
%LPD*%
%LPC*%
G36*
X71086Y55321D02*
X71086Y55321D01*
X63853Y58317D01*
X58317Y63853D01*
X55321Y71086D01*
X55321Y78914D01*
X58317Y86147D01*
X63853Y91683D01*
X71086Y94679D01*
X78914Y94679D01*
X86147Y91683D01*
X91683Y86147D01*
X94679Y78914D01*
X94679Y71086D01*
X91683Y63853D01*
X86147Y58317D01*
X78914Y55321D01*
X71086Y55321D01*
G37*
%LPD*%
%LPC*%
G36*
X71086Y1882821D02*
X71086Y1882821D01*
X63853Y1885817D01*
X58317Y1891353D01*
X55321Y1898586D01*
X55321Y1906414D01*
X58317Y1913647D01*
X63853Y1919183D01*
X71086Y1922179D01*
X78914Y1922179D01*
X86147Y1919183D01*
X91683Y1913647D01*
X94679Y1906414D01*
X94679Y1898586D01*
X91683Y1891353D01*
X86147Y1885817D01*
X78914Y1882821D01*
X71086Y1882821D01*
G37*
%LPD*%
%LPC*%
G36*
X1400356Y55321D02*
X1400356Y55321D01*
X1393123Y58317D01*
X1387587Y63853D01*
X1384591Y71086D01*
X1384591Y78914D01*
X1387587Y86147D01*
X1393123Y91683D01*
X1400356Y94679D01*
X1408184Y94679D01*
X1415417Y91683D01*
X1420953Y86147D01*
X1423949Y78914D01*
X1423949Y71086D01*
X1420953Y63853D01*
X1415417Y58317D01*
X1408184Y55321D01*
X1400356Y55321D01*
G37*
%LPD*%
%LPC*%
G36*
X312214Y159111D02*
X312214Y159111D01*
X310206Y159943D01*
X308670Y161479D01*
X307838Y163487D01*
X307838Y165659D01*
X308670Y167667D01*
X310206Y169203D01*
X312214Y170035D01*
X314386Y170035D01*
X316394Y169203D01*
X317932Y167665D01*
X318002Y167613D01*
X318066Y167553D01*
X318115Y167527D01*
X318159Y167494D01*
X318241Y167463D01*
X318319Y167423D01*
X318366Y167415D01*
X318425Y167393D01*
X318573Y167381D01*
X318650Y167368D01*
X440058Y167368D01*
X440144Y167380D01*
X440232Y167383D01*
X440285Y167400D01*
X440339Y167408D01*
X440419Y167443D01*
X440502Y167470D01*
X440542Y167498D01*
X440599Y167524D01*
X440712Y167620D01*
X440776Y167665D01*
X481611Y208500D01*
X481663Y208570D01*
X481723Y208634D01*
X481749Y208683D01*
X481782Y208727D01*
X481813Y208809D01*
X481853Y208887D01*
X481861Y208935D01*
X481883Y208993D01*
X481895Y209141D01*
X481908Y209218D01*
X481908Y211393D01*
X482740Y213401D01*
X484276Y214937D01*
X486284Y215769D01*
X488456Y215769D01*
X490464Y214937D01*
X492000Y213401D01*
X492832Y211393D01*
X492832Y209221D01*
X492000Y207213D01*
X490464Y205677D01*
X488456Y204845D01*
X486281Y204845D01*
X486195Y204833D01*
X486107Y204830D01*
X486054Y204813D01*
X486000Y204805D01*
X485920Y204770D01*
X485837Y204743D01*
X485797Y204715D01*
X485740Y204689D01*
X485627Y204593D01*
X485563Y204548D01*
X442794Y161778D01*
X318650Y161778D01*
X318563Y161766D01*
X318476Y161763D01*
X318423Y161746D01*
X318368Y161738D01*
X318289Y161703D01*
X318205Y161676D01*
X318166Y161648D01*
X318109Y161622D01*
X317996Y161526D01*
X317932Y161481D01*
X316394Y159943D01*
X314386Y159111D01*
X312214Y159111D01*
G37*
%LPD*%
%LPC*%
G36*
X148414Y265538D02*
X148414Y265538D01*
X146406Y266370D01*
X144870Y267906D01*
X144038Y269914D01*
X144038Y272086D01*
X144870Y274094D01*
X146406Y275630D01*
X148414Y276462D01*
X150586Y276462D01*
X152652Y275606D01*
X152682Y275598D01*
X152710Y275584D01*
X152787Y275571D01*
X152928Y275535D01*
X152992Y275537D01*
X153041Y275529D01*
X234384Y275529D01*
X234471Y275541D01*
X234558Y275544D01*
X234611Y275561D01*
X234666Y275569D01*
X234745Y275604D01*
X234829Y275631D01*
X234868Y275659D01*
X234925Y275685D01*
X235038Y275781D01*
X235102Y275826D01*
X235406Y276130D01*
X237414Y276962D01*
X239586Y276962D01*
X241594Y276130D01*
X243130Y274594D01*
X243962Y272586D01*
X243962Y270414D01*
X243130Y268406D01*
X241594Y266870D01*
X239586Y266038D01*
X237414Y266038D01*
X236555Y266394D01*
X236525Y266402D01*
X236497Y266416D01*
X236420Y266429D01*
X236280Y266465D01*
X236215Y266463D01*
X236166Y266471D01*
X153041Y266471D01*
X153010Y266467D01*
X152979Y266469D01*
X152903Y266452D01*
X152759Y266431D01*
X152701Y266405D01*
X152652Y266394D01*
X150586Y265538D01*
X148414Y265538D01*
G37*
%LPD*%
%LPC*%
G36*
X370714Y91688D02*
X370714Y91688D01*
X368706Y92520D01*
X367168Y94058D01*
X367098Y94110D01*
X367034Y94170D01*
X366985Y94196D01*
X366941Y94229D01*
X366859Y94260D01*
X366781Y94300D01*
X366734Y94308D01*
X366675Y94330D01*
X366527Y94342D01*
X366450Y94355D01*
X328732Y94355D01*
X294740Y128348D01*
X294670Y128400D01*
X294606Y128460D01*
X294557Y128486D01*
X294513Y128519D01*
X294431Y128550D01*
X294353Y128590D01*
X294305Y128598D01*
X294247Y128620D01*
X294099Y128632D01*
X294022Y128645D01*
X280950Y128645D01*
X280863Y128633D01*
X280776Y128630D01*
X280723Y128613D01*
X280668Y128605D01*
X280589Y128570D01*
X280505Y128543D01*
X280466Y128515D01*
X280409Y128489D01*
X280296Y128393D01*
X280232Y128348D01*
X278694Y126810D01*
X276686Y125978D01*
X274514Y125978D01*
X272506Y126810D01*
X270970Y128346D01*
X270138Y130354D01*
X270138Y132526D01*
X270970Y134534D01*
X272506Y136070D01*
X274514Y136902D01*
X276686Y136902D01*
X278694Y136070D01*
X280232Y134532D01*
X280302Y134480D01*
X280366Y134420D01*
X280415Y134394D01*
X280459Y134361D01*
X280541Y134330D01*
X280619Y134290D01*
X280666Y134282D01*
X280725Y134260D01*
X280873Y134248D01*
X280950Y134235D01*
X296758Y134235D01*
X330750Y100242D01*
X330820Y100190D01*
X330884Y100130D01*
X330933Y100104D01*
X330977Y100071D01*
X331059Y100040D01*
X331137Y100000D01*
X331185Y99992D01*
X331243Y99970D01*
X331391Y99958D01*
X331468Y99945D01*
X366450Y99945D01*
X366537Y99957D01*
X366624Y99960D01*
X366677Y99977D01*
X366732Y99985D01*
X366811Y100020D01*
X366895Y100047D01*
X366934Y100075D01*
X366991Y100101D01*
X367104Y100197D01*
X367168Y100242D01*
X368706Y101780D01*
X370714Y102612D01*
X372886Y102612D01*
X374894Y101780D01*
X376430Y100244D01*
X377262Y98236D01*
X377262Y96064D01*
X376430Y94056D01*
X374894Y92520D01*
X372886Y91688D01*
X370714Y91688D01*
G37*
%LPD*%
%LPC*%
G36*
X48414Y408038D02*
X48414Y408038D01*
X46406Y408870D01*
X44870Y410406D01*
X44038Y412414D01*
X44038Y414586D01*
X44870Y416594D01*
X46406Y418130D01*
X48414Y418962D01*
X50586Y418962D01*
X52652Y418106D01*
X52679Y418099D01*
X52702Y418087D01*
X52704Y418087D01*
X52710Y418084D01*
X52787Y418071D01*
X52928Y418035D01*
X52992Y418037D01*
X53041Y418029D01*
X99459Y418029D01*
X99490Y418033D01*
X99521Y418031D01*
X99597Y418048D01*
X99741Y418069D01*
X99748Y418072D01*
X99749Y418072D01*
X99801Y418095D01*
X99848Y418106D01*
X101914Y418962D01*
X104086Y418962D01*
X106094Y418130D01*
X107630Y416594D01*
X108462Y414586D01*
X108462Y412414D01*
X107630Y410406D01*
X106094Y408870D01*
X104086Y408038D01*
X101914Y408038D01*
X99848Y408894D01*
X99818Y408902D01*
X99790Y408916D01*
X99713Y408929D01*
X99572Y408965D01*
X99508Y408963D01*
X99459Y408971D01*
X53041Y408971D01*
X53010Y408967D01*
X52979Y408969D01*
X52903Y408952D01*
X52759Y408931D01*
X52701Y408905D01*
X52652Y408894D01*
X50586Y408038D01*
X48414Y408038D01*
G37*
%LPD*%
%LPC*%
G36*
X3125414Y291038D02*
X3125414Y291038D01*
X3123406Y291870D01*
X3121870Y293406D01*
X3121038Y295414D01*
X3121038Y297586D01*
X3121870Y299594D01*
X3123406Y301130D01*
X3125414Y301962D01*
X3127586Y301962D01*
X3129594Y301130D01*
X3131259Y299465D01*
X3131329Y299413D01*
X3131393Y299353D01*
X3131442Y299327D01*
X3131486Y299294D01*
X3131568Y299263D01*
X3131646Y299223D01*
X3131693Y299215D01*
X3131752Y299193D01*
X3131900Y299181D01*
X3131977Y299168D01*
X3203523Y299168D01*
X3203581Y299176D01*
X3203639Y299174D01*
X3203721Y299196D01*
X3203805Y299208D01*
X3203858Y299231D01*
X3203914Y299246D01*
X3203987Y299289D01*
X3204064Y299324D01*
X3204109Y299362D01*
X3204159Y299391D01*
X3204217Y299453D01*
X3204281Y299507D01*
X3204313Y299556D01*
X3204353Y299599D01*
X3204392Y299674D01*
X3204439Y299744D01*
X3204456Y299800D01*
X3204483Y299852D01*
X3204494Y299920D01*
X3204524Y300015D01*
X3204527Y300115D01*
X3204538Y300183D01*
X3204538Y301086D01*
X3205370Y303094D01*
X3206906Y304630D01*
X3208914Y305462D01*
X3211086Y305462D01*
X3213094Y304630D01*
X3214630Y303094D01*
X3215462Y301086D01*
X3215462Y298914D01*
X3214630Y296906D01*
X3213094Y295370D01*
X3211086Y294538D01*
X3208732Y294538D01*
X3208645Y294526D01*
X3208558Y294523D01*
X3208505Y294506D01*
X3208450Y294498D01*
X3208370Y294463D01*
X3208287Y294436D01*
X3208248Y294408D01*
X3208191Y294382D01*
X3208077Y294286D01*
X3208014Y294241D01*
X3207605Y293832D01*
X3131977Y293832D01*
X3131890Y293820D01*
X3131803Y293817D01*
X3131750Y293800D01*
X3131695Y293792D01*
X3131616Y293757D01*
X3131532Y293730D01*
X3131493Y293702D01*
X3131436Y293676D01*
X3131323Y293580D01*
X3131259Y293535D01*
X3129594Y291870D01*
X3127586Y291038D01*
X3125414Y291038D01*
G37*
%LPD*%
%LPC*%
G36*
X47914Y1605538D02*
X47914Y1605538D01*
X45906Y1606370D01*
X44370Y1607906D01*
X43538Y1609914D01*
X43538Y1612086D01*
X44370Y1614094D01*
X45906Y1615630D01*
X47914Y1616462D01*
X50086Y1616462D01*
X52152Y1615606D01*
X52182Y1615598D01*
X52210Y1615584D01*
X52287Y1615571D01*
X52428Y1615535D01*
X52492Y1615537D01*
X52541Y1615529D01*
X98459Y1615529D01*
X98490Y1615533D01*
X98521Y1615531D01*
X98597Y1615548D01*
X98741Y1615569D01*
X98799Y1615595D01*
X98848Y1615606D01*
X100914Y1616462D01*
X103086Y1616462D01*
X105094Y1615630D01*
X106630Y1614094D01*
X107462Y1612086D01*
X107462Y1609914D01*
X106630Y1607906D01*
X105094Y1606370D01*
X103086Y1605538D01*
X100914Y1605538D01*
X98848Y1606394D01*
X98818Y1606402D01*
X98790Y1606416D01*
X98713Y1606429D01*
X98572Y1606465D01*
X98508Y1606463D01*
X98459Y1606471D01*
X52541Y1606471D01*
X52510Y1606467D01*
X52479Y1606469D01*
X52403Y1606452D01*
X52259Y1606431D01*
X52201Y1606405D01*
X52152Y1606394D01*
X50086Y1605538D01*
X47914Y1605538D01*
G37*
%LPD*%
%LPC*%
G36*
X47914Y1007538D02*
X47914Y1007538D01*
X45906Y1008370D01*
X44370Y1009906D01*
X43538Y1011914D01*
X43538Y1014086D01*
X44370Y1016094D01*
X45906Y1017630D01*
X47972Y1018486D01*
X47999Y1018502D01*
X48028Y1018511D01*
X48092Y1018557D01*
X48217Y1018630D01*
X48261Y1018677D01*
X48301Y1018706D01*
X49624Y1020029D01*
X97459Y1020029D01*
X97490Y1020033D01*
X97521Y1020031D01*
X97597Y1020048D01*
X97741Y1020069D01*
X97799Y1020095D01*
X97848Y1020106D01*
X99914Y1020962D01*
X102086Y1020962D01*
X104094Y1020130D01*
X105630Y1018594D01*
X106462Y1016586D01*
X106462Y1014414D01*
X105630Y1012406D01*
X104094Y1010870D01*
X102086Y1010038D01*
X99914Y1010038D01*
X97848Y1010894D01*
X97818Y1010902D01*
X97790Y1010916D01*
X97713Y1010929D01*
X97572Y1010965D01*
X97508Y1010963D01*
X97459Y1010971D01*
X54750Y1010971D01*
X54748Y1010971D01*
X54747Y1010971D01*
X54606Y1010951D01*
X54468Y1010931D01*
X54467Y1010931D01*
X54465Y1010931D01*
X54337Y1010873D01*
X54209Y1010815D01*
X54208Y1010814D01*
X54206Y1010813D01*
X54099Y1010722D01*
X53992Y1010632D01*
X53991Y1010630D01*
X53990Y1010629D01*
X53982Y1010616D01*
X53834Y1010395D01*
X53827Y1010371D01*
X53820Y1010362D01*
X53818Y1010355D01*
X53812Y1010345D01*
X53630Y1009906D01*
X52094Y1008370D01*
X50086Y1007538D01*
X47914Y1007538D01*
G37*
%LPD*%
%LPC*%
G36*
X47914Y858038D02*
X47914Y858038D01*
X45906Y858870D01*
X44370Y860406D01*
X43538Y862414D01*
X43538Y864586D01*
X44370Y866594D01*
X45906Y868130D01*
X47914Y868962D01*
X50086Y868962D01*
X52152Y868106D01*
X52182Y868098D01*
X52210Y868084D01*
X52287Y868071D01*
X52428Y868035D01*
X52492Y868037D01*
X52541Y868029D01*
X97459Y868029D01*
X97490Y868033D01*
X97521Y868031D01*
X97597Y868048D01*
X97741Y868069D01*
X97799Y868095D01*
X97848Y868106D01*
X99914Y868962D01*
X102086Y868962D01*
X104094Y868130D01*
X105630Y866594D01*
X106462Y864586D01*
X106462Y862414D01*
X105630Y860406D01*
X104094Y858870D01*
X102086Y858038D01*
X99914Y858038D01*
X97848Y858894D01*
X97818Y858902D01*
X97790Y858916D01*
X97713Y858929D01*
X97572Y858965D01*
X97508Y858963D01*
X97459Y858971D01*
X52541Y858971D01*
X52510Y858967D01*
X52479Y858969D01*
X52403Y858952D01*
X52259Y858931D01*
X52201Y858905D01*
X52152Y858894D01*
X50086Y858038D01*
X47914Y858038D01*
G37*
%LPD*%
%LPC*%
G36*
X47914Y562038D02*
X47914Y562038D01*
X45906Y562870D01*
X44370Y564406D01*
X43538Y566414D01*
X43538Y568586D01*
X44370Y570594D01*
X45906Y572130D01*
X47914Y572962D01*
X50086Y572962D01*
X52152Y572106D01*
X52182Y572098D01*
X52210Y572084D01*
X52287Y572071D01*
X52428Y572035D01*
X52492Y572037D01*
X52541Y572029D01*
X96959Y572029D01*
X96990Y572033D01*
X97021Y572031D01*
X97097Y572048D01*
X97241Y572069D01*
X97299Y572095D01*
X97348Y572106D01*
X99414Y572962D01*
X101586Y572962D01*
X103594Y572130D01*
X105130Y570594D01*
X105962Y568586D01*
X105962Y566414D01*
X105130Y564406D01*
X103594Y562870D01*
X101586Y562038D01*
X99414Y562038D01*
X97348Y562894D01*
X97318Y562902D01*
X97290Y562916D01*
X97213Y562929D01*
X97072Y562965D01*
X97008Y562963D01*
X96959Y562971D01*
X52541Y562971D01*
X52510Y562967D01*
X52479Y562969D01*
X52403Y562952D01*
X52259Y562931D01*
X52201Y562905D01*
X52152Y562894D01*
X50086Y562038D01*
X47914Y562038D01*
G37*
%LPD*%
%LPC*%
G36*
X48914Y1457038D02*
X48914Y1457038D01*
X46906Y1457870D01*
X45370Y1459406D01*
X44538Y1461414D01*
X44538Y1463586D01*
X45370Y1465594D01*
X46906Y1467130D01*
X48914Y1467962D01*
X51086Y1467962D01*
X53152Y1467106D01*
X53182Y1467098D01*
X53210Y1467084D01*
X53287Y1467071D01*
X53428Y1467035D01*
X53492Y1467037D01*
X53541Y1467029D01*
X95959Y1467029D01*
X95990Y1467033D01*
X96021Y1467031D01*
X96097Y1467048D01*
X96241Y1467069D01*
X96299Y1467095D01*
X96348Y1467106D01*
X98414Y1467962D01*
X100586Y1467962D01*
X102594Y1467130D01*
X104130Y1465594D01*
X104962Y1463586D01*
X104962Y1461414D01*
X104130Y1459406D01*
X102594Y1457870D01*
X100586Y1457038D01*
X98414Y1457038D01*
X96348Y1457894D01*
X96318Y1457902D01*
X96290Y1457916D01*
X96213Y1457929D01*
X96072Y1457965D01*
X96008Y1457963D01*
X95959Y1457971D01*
X53541Y1457971D01*
X53510Y1457967D01*
X53479Y1457969D01*
X53403Y1457952D01*
X53259Y1457931D01*
X53201Y1457905D01*
X53152Y1457894D01*
X51086Y1457038D01*
X48914Y1457038D01*
G37*
%LPD*%
%LPC*%
G36*
X97914Y1305538D02*
X97914Y1305538D01*
X95906Y1306370D01*
X95602Y1306674D01*
X95532Y1306726D01*
X95468Y1306786D01*
X95419Y1306812D01*
X95375Y1306845D01*
X95293Y1306876D01*
X95215Y1306916D01*
X95168Y1306924D01*
X95109Y1306946D01*
X94961Y1306958D01*
X94884Y1306971D01*
X53541Y1306971D01*
X53510Y1306967D01*
X53479Y1306969D01*
X53403Y1306952D01*
X53259Y1306931D01*
X53201Y1306905D01*
X53152Y1306894D01*
X51086Y1306038D01*
X48914Y1306038D01*
X46906Y1306870D01*
X45370Y1308406D01*
X44538Y1310414D01*
X44538Y1312586D01*
X45370Y1314594D01*
X46906Y1316130D01*
X48914Y1316962D01*
X51086Y1316962D01*
X53152Y1316106D01*
X53182Y1316098D01*
X53210Y1316084D01*
X53287Y1316071D01*
X53428Y1316035D01*
X53492Y1316037D01*
X53541Y1316029D01*
X96666Y1316029D01*
X96697Y1316033D01*
X96728Y1316031D01*
X96804Y1316048D01*
X96948Y1316069D01*
X97007Y1316095D01*
X97055Y1316106D01*
X97914Y1316462D01*
X100086Y1316462D01*
X102094Y1315630D01*
X103630Y1314094D01*
X104462Y1312086D01*
X104462Y1309914D01*
X103630Y1307906D01*
X102094Y1306370D01*
X100086Y1305538D01*
X97914Y1305538D01*
G37*
%LPD*%
%LPC*%
G36*
X48414Y709538D02*
X48414Y709538D01*
X46406Y710370D01*
X44870Y711906D01*
X44038Y713914D01*
X44038Y716086D01*
X44870Y718094D01*
X46406Y719630D01*
X48414Y720462D01*
X50586Y720462D01*
X52652Y719606D01*
X52682Y719598D01*
X52710Y719584D01*
X52787Y719571D01*
X52928Y719535D01*
X52992Y719537D01*
X53041Y719529D01*
X94459Y719529D01*
X94490Y719533D01*
X94521Y719531D01*
X94597Y719548D01*
X94741Y719569D01*
X94799Y719595D01*
X94848Y719606D01*
X96914Y720462D01*
X99086Y720462D01*
X101094Y719630D01*
X102630Y718094D01*
X103462Y716086D01*
X103462Y713914D01*
X102630Y711906D01*
X101094Y710370D01*
X99086Y709538D01*
X96914Y709538D01*
X94848Y710394D01*
X94818Y710402D01*
X94790Y710416D01*
X94713Y710429D01*
X94572Y710465D01*
X94508Y710463D01*
X94459Y710471D01*
X53041Y710471D01*
X53010Y710467D01*
X52979Y710469D01*
X52903Y710452D01*
X52759Y710431D01*
X52701Y710405D01*
X52652Y710394D01*
X50586Y709538D01*
X48414Y709538D01*
G37*
%LPD*%
%LPC*%
G36*
X48414Y1156538D02*
X48414Y1156538D01*
X46406Y1157370D01*
X44870Y1158906D01*
X44038Y1160914D01*
X44038Y1163086D01*
X44870Y1165094D01*
X46406Y1166630D01*
X48414Y1167462D01*
X50586Y1167462D01*
X52652Y1166606D01*
X52682Y1166598D01*
X52710Y1166584D01*
X52787Y1166571D01*
X52928Y1166535D01*
X52992Y1166537D01*
X53041Y1166529D01*
X94459Y1166529D01*
X94490Y1166533D01*
X94521Y1166531D01*
X94597Y1166548D01*
X94741Y1166569D01*
X94799Y1166595D01*
X94848Y1166606D01*
X96914Y1167462D01*
X99086Y1167462D01*
X101094Y1166630D01*
X102630Y1165094D01*
X103462Y1163086D01*
X103462Y1160914D01*
X102630Y1158906D01*
X101094Y1157370D01*
X99086Y1156538D01*
X96914Y1156538D01*
X94848Y1157394D01*
X94818Y1157402D01*
X94790Y1157416D01*
X94713Y1157429D01*
X94572Y1157465D01*
X94508Y1157463D01*
X94459Y1157471D01*
X53041Y1157471D01*
X53010Y1157467D01*
X52979Y1157469D01*
X52903Y1157452D01*
X52759Y1157431D01*
X52701Y1157405D01*
X52652Y1157394D01*
X50586Y1156538D01*
X48414Y1156538D01*
G37*
%LPD*%
%LPC*%
G36*
X47914Y1753038D02*
X47914Y1753038D01*
X45906Y1753870D01*
X44370Y1755406D01*
X43538Y1757414D01*
X43538Y1759586D01*
X44370Y1761594D01*
X45906Y1763130D01*
X47914Y1763962D01*
X50086Y1763962D01*
X52152Y1763106D01*
X52182Y1763098D01*
X52210Y1763084D01*
X52287Y1763071D01*
X52428Y1763035D01*
X52492Y1763037D01*
X52541Y1763029D01*
X91384Y1763029D01*
X91471Y1763041D01*
X91558Y1763044D01*
X91611Y1763061D01*
X91666Y1763069D01*
X91745Y1763104D01*
X91829Y1763131D01*
X91868Y1763159D01*
X91925Y1763185D01*
X92038Y1763281D01*
X92102Y1763326D01*
X92906Y1764130D01*
X94914Y1764962D01*
X97086Y1764962D01*
X99094Y1764130D01*
X100630Y1762594D01*
X101462Y1760586D01*
X101462Y1758414D01*
X100630Y1756406D01*
X99094Y1754870D01*
X97028Y1754014D01*
X97001Y1753998D01*
X96972Y1753989D01*
X96947Y1753971D01*
X52541Y1753971D01*
X52510Y1753967D01*
X52479Y1753969D01*
X52403Y1753952D01*
X52259Y1753931D01*
X52201Y1753905D01*
X52152Y1753894D01*
X50086Y1753038D01*
X47914Y1753038D01*
G37*
%LPD*%
%LPC*%
G36*
X314914Y353538D02*
X314914Y353538D01*
X312906Y354370D01*
X311370Y355906D01*
X310514Y357972D01*
X310498Y357999D01*
X310489Y358028D01*
X310443Y358092D01*
X310370Y358217D01*
X310323Y358261D01*
X310294Y358301D01*
X283301Y385294D01*
X283277Y385312D01*
X283257Y385336D01*
X283190Y385378D01*
X283074Y385465D01*
X283014Y385488D01*
X282972Y385514D01*
X280906Y386370D01*
X279370Y387906D01*
X278538Y389914D01*
X278538Y392086D01*
X279370Y394094D01*
X280906Y395630D01*
X282914Y396462D01*
X285086Y396462D01*
X287094Y395630D01*
X288630Y394094D01*
X289486Y392028D01*
X289502Y392001D01*
X289511Y391972D01*
X289557Y391908D01*
X289630Y391783D01*
X289677Y391739D01*
X289706Y391699D01*
X316699Y364706D01*
X316723Y364688D01*
X316743Y364664D01*
X316810Y364622D01*
X316926Y364535D01*
X316986Y364512D01*
X317028Y364486D01*
X319094Y363630D01*
X320630Y362094D01*
X321462Y360086D01*
X321462Y357914D01*
X320630Y355906D01*
X319094Y354370D01*
X317086Y353538D01*
X314914Y353538D01*
G37*
%LPD*%
%LPC*%
G36*
X345314Y110738D02*
X345314Y110738D01*
X343306Y111570D01*
X341770Y113106D01*
X340938Y115114D01*
X340938Y117289D01*
X340926Y117375D01*
X340923Y117463D01*
X340906Y117516D01*
X340898Y117570D01*
X340863Y117650D01*
X340836Y117733D01*
X340808Y117773D01*
X340782Y117830D01*
X340686Y117943D01*
X340641Y118007D01*
X320140Y138508D01*
X320070Y138560D01*
X320006Y138620D01*
X319957Y138646D01*
X319913Y138679D01*
X319831Y138710D01*
X319753Y138750D01*
X319705Y138758D01*
X319647Y138780D01*
X319499Y138792D01*
X319422Y138805D01*
X305950Y138805D01*
X305863Y138793D01*
X305776Y138790D01*
X305723Y138773D01*
X305668Y138765D01*
X305589Y138730D01*
X305505Y138703D01*
X305466Y138675D01*
X305409Y138649D01*
X305296Y138553D01*
X305232Y138508D01*
X303694Y136970D01*
X301686Y136138D01*
X299514Y136138D01*
X297506Y136970D01*
X295970Y138506D01*
X295138Y140514D01*
X295138Y142686D01*
X295970Y144694D01*
X297506Y146230D01*
X299514Y147062D01*
X301686Y147062D01*
X303694Y146230D01*
X305232Y144692D01*
X305302Y144640D01*
X305366Y144580D01*
X305415Y144554D01*
X305459Y144521D01*
X305541Y144490D01*
X305619Y144450D01*
X305666Y144442D01*
X305725Y144420D01*
X305873Y144408D01*
X305950Y144395D01*
X322158Y144395D01*
X344593Y121959D01*
X344663Y121907D01*
X344727Y121847D01*
X344776Y121821D01*
X344820Y121788D01*
X344902Y121757D01*
X344980Y121717D01*
X345028Y121709D01*
X345086Y121687D01*
X345234Y121675D01*
X345311Y121662D01*
X347486Y121662D01*
X349494Y120830D01*
X351030Y119294D01*
X351862Y117286D01*
X351862Y115114D01*
X351030Y113106D01*
X349494Y111570D01*
X347486Y110738D01*
X345314Y110738D01*
G37*
%LPD*%
%LPC*%
G36*
X3202302Y266421D02*
X3202302Y266421D01*
X3199810Y267453D01*
X3197903Y269360D01*
X3196871Y271852D01*
X3196871Y274548D01*
X3197903Y277040D01*
X3199810Y278947D01*
X3202302Y279979D01*
X3215998Y279979D01*
X3218490Y278947D01*
X3220397Y277040D01*
X3221429Y274548D01*
X3221429Y271852D01*
X3220397Y269360D01*
X3218490Y267453D01*
X3215998Y266421D01*
X3202302Y266421D01*
G37*
%LPD*%
%LPC*%
G36*
X3202302Y180021D02*
X3202302Y180021D01*
X3199810Y181053D01*
X3197903Y182960D01*
X3196871Y185452D01*
X3196871Y188148D01*
X3197903Y190640D01*
X3199810Y192547D01*
X3202302Y193579D01*
X3215998Y193579D01*
X3218490Y192547D01*
X3220397Y190640D01*
X3221429Y188148D01*
X3221429Y185452D01*
X3220397Y182960D01*
X3218490Y181053D01*
X3215998Y180021D01*
X3202302Y180021D01*
G37*
%LPD*%
%LPC*%
G36*
X3168914Y274538D02*
X3168914Y274538D01*
X3166906Y275370D01*
X3165241Y277035D01*
X3165171Y277087D01*
X3165107Y277147D01*
X3165058Y277173D01*
X3165014Y277206D01*
X3164932Y277237D01*
X3164854Y277277D01*
X3164807Y277285D01*
X3164748Y277307D01*
X3164600Y277319D01*
X3164523Y277332D01*
X3158895Y277332D01*
X3157692Y278535D01*
X3157622Y278587D01*
X3157559Y278647D01*
X3157509Y278673D01*
X3157465Y278706D01*
X3157383Y278737D01*
X3157306Y278777D01*
X3157258Y278785D01*
X3157200Y278807D01*
X3157052Y278819D01*
X3156974Y278832D01*
X3155477Y278832D01*
X3155390Y278820D01*
X3155303Y278817D01*
X3155250Y278800D01*
X3155195Y278792D01*
X3155116Y278757D01*
X3155032Y278730D01*
X3154993Y278702D01*
X3154936Y278676D01*
X3154823Y278580D01*
X3154759Y278535D01*
X3153094Y276870D01*
X3151086Y276038D01*
X3148914Y276038D01*
X3146906Y276870D01*
X3145370Y278406D01*
X3144538Y280414D01*
X3144538Y282586D01*
X3145370Y284594D01*
X3146906Y286130D01*
X3148914Y286962D01*
X3151086Y286962D01*
X3153094Y286130D01*
X3154759Y284465D01*
X3154829Y284413D01*
X3154893Y284353D01*
X3154942Y284327D01*
X3154986Y284294D01*
X3155068Y284263D01*
X3155146Y284223D01*
X3155193Y284215D01*
X3155252Y284193D01*
X3155400Y284181D01*
X3155477Y284168D01*
X3159605Y284168D01*
X3160808Y282965D01*
X3160877Y282913D01*
X3160941Y282853D01*
X3160991Y282827D01*
X3161035Y282794D01*
X3161117Y282763D01*
X3161194Y282723D01*
X3161242Y282715D01*
X3161301Y282693D01*
X3161448Y282681D01*
X3161526Y282668D01*
X3164523Y282668D01*
X3164610Y282680D01*
X3164697Y282683D01*
X3164750Y282700D01*
X3164805Y282708D01*
X3164884Y282743D01*
X3164968Y282770D01*
X3165007Y282798D01*
X3165064Y282824D01*
X3165177Y282920D01*
X3165241Y282965D01*
X3166906Y284630D01*
X3168914Y285462D01*
X3171086Y285462D01*
X3173094Y284630D01*
X3174630Y283094D01*
X3175462Y281086D01*
X3175462Y278914D01*
X3174630Y276906D01*
X3173094Y275370D01*
X3171086Y274538D01*
X3168914Y274538D01*
G37*
%LPD*%
%LPC*%
G36*
X3185713Y219291D02*
X3185713Y219291D01*
X3183705Y220123D01*
X3182169Y221659D01*
X3181337Y223667D01*
X3181337Y225839D01*
X3182169Y227847D01*
X3183707Y229385D01*
X3183759Y229455D01*
X3183819Y229519D01*
X3183845Y229568D01*
X3183878Y229612D01*
X3183909Y229694D01*
X3183949Y229772D01*
X3183957Y229819D01*
X3183979Y229878D01*
X3183991Y230026D01*
X3184004Y230103D01*
X3184004Y235673D01*
X3183992Y235760D01*
X3183989Y235847D01*
X3183972Y235900D01*
X3183964Y235955D01*
X3183929Y236034D01*
X3183902Y236118D01*
X3183874Y236157D01*
X3183848Y236214D01*
X3183752Y236327D01*
X3183707Y236391D01*
X3182169Y237929D01*
X3181337Y239937D01*
X3181337Y242109D01*
X3182169Y244117D01*
X3183705Y245653D01*
X3185713Y246485D01*
X3187885Y246485D01*
X3189893Y245653D01*
X3191429Y244117D01*
X3192261Y242109D01*
X3192261Y239937D01*
X3191429Y237929D01*
X3189891Y236391D01*
X3189839Y236321D01*
X3189779Y236257D01*
X3189753Y236208D01*
X3189720Y236164D01*
X3189689Y236082D01*
X3189649Y236004D01*
X3189641Y235957D01*
X3189619Y235898D01*
X3189607Y235750D01*
X3189594Y235673D01*
X3189594Y230103D01*
X3189606Y230016D01*
X3189609Y229929D01*
X3189626Y229876D01*
X3189634Y229821D01*
X3189669Y229742D01*
X3189696Y229658D01*
X3189724Y229619D01*
X3189750Y229562D01*
X3189846Y229449D01*
X3189891Y229385D01*
X3191429Y227847D01*
X3192261Y225839D01*
X3192261Y223667D01*
X3191429Y221659D01*
X3189893Y220123D01*
X3187885Y219291D01*
X3185713Y219291D01*
G37*
%LPD*%
%LPC*%
G36*
X3177453Y402221D02*
X3177453Y402221D01*
X3174594Y403406D01*
X3172406Y405594D01*
X3171221Y408453D01*
X3171221Y411547D01*
X3172406Y414406D01*
X3174594Y416594D01*
X3177453Y417779D01*
X3180547Y417779D01*
X3183406Y416594D01*
X3185594Y414406D01*
X3186779Y411547D01*
X3186779Y408453D01*
X3185594Y405594D01*
X3183406Y403406D01*
X3180547Y402221D01*
X3177453Y402221D01*
G37*
%LPD*%
%LPC*%
G36*
X3247453Y402221D02*
X3247453Y402221D01*
X3244594Y403406D01*
X3242406Y405594D01*
X3241221Y408453D01*
X3241221Y411547D01*
X3242406Y414406D01*
X3244594Y416594D01*
X3247453Y417779D01*
X3250547Y417779D01*
X3253406Y416594D01*
X3255594Y414406D01*
X3256779Y411547D01*
X3256779Y408453D01*
X3255594Y405594D01*
X3253406Y403406D01*
X3250547Y402221D01*
X3247453Y402221D01*
G37*
%LPD*%
%LPC*%
G36*
X125751Y208921D02*
X125751Y208921D01*
X123443Y209877D01*
X121677Y211643D01*
X120721Y213951D01*
X120721Y216449D01*
X121677Y218757D01*
X123443Y220523D01*
X125751Y221479D01*
X128249Y221479D01*
X130557Y220523D01*
X132323Y218757D01*
X133279Y216449D01*
X133279Y213951D01*
X132323Y211643D01*
X130557Y209877D01*
X128249Y208921D01*
X125751Y208921D01*
G37*
%LPD*%
%LPC*%
G36*
X126714Y78988D02*
X126714Y78988D01*
X124706Y79820D01*
X123170Y81356D01*
X122338Y83364D01*
X122338Y85536D01*
X123170Y87544D01*
X124706Y89080D01*
X126714Y89912D01*
X128886Y89912D01*
X130894Y89080D01*
X132430Y87544D01*
X133262Y85536D01*
X133262Y83364D01*
X132430Y81356D01*
X130894Y79820D01*
X128886Y78988D01*
X126714Y78988D01*
G37*
%LPD*%
%LPC*%
G36*
X3212367Y253871D02*
X3212367Y253871D01*
X3209421Y256817D01*
X3209421Y260983D01*
X3212367Y263929D01*
X3216533Y263929D01*
X3219479Y260983D01*
X3219479Y256817D01*
X3216533Y253871D01*
X3212367Y253871D01*
G37*
%LPD*%
%LPC*%
G36*
X3212367Y196071D02*
X3212367Y196071D01*
X3209421Y199017D01*
X3209421Y203183D01*
X3212367Y206129D01*
X3216533Y206129D01*
X3219479Y203183D01*
X3219479Y199017D01*
X3216533Y196071D01*
X3212367Y196071D01*
G37*
%LPD*%
D10*
X3258062Y241684D02*
X3265174Y239313D01*
X3258062Y236943D01*
X3256877Y231990D02*
X3254506Y229026D01*
X3265174Y229026D01*
X3265174Y226063D02*
X3265174Y231990D01*
X3256877Y220560D02*
X3254506Y217596D01*
X3265174Y217596D01*
X3265174Y214633D02*
X3265174Y220560D01*
D11*
X3214650Y186800D02*
X3203650Y186800D01*
X3203650Y273200D02*
X3214650Y273200D01*
X3247950Y186800D02*
X3253950Y186800D01*
X3253950Y273200D02*
X3247950Y273200D01*
D12*
X213050Y123820D03*
D10*
X185480Y188300D02*
X198740Y201560D01*
X185480Y188300D02*
X152900Y188300D01*
D12*
X152900Y188300D03*
X530500Y238440D03*
D10*
X213050Y188050D02*
X213050Y123820D01*
D13*
X213050Y188050D02*
X213050Y201500D01*
X213050Y238440D01*
D12*
X213050Y201500D03*
D10*
X212990Y201560D02*
X198740Y201560D01*
X212990Y201560D02*
X267990Y201560D01*
X213050Y201500D02*
X212990Y201560D01*
D12*
X285000Y205000D03*
D10*
X271430Y205000D01*
X267990Y201560D01*
D13*
X213050Y238440D02*
X213050Y240000D01*
X213050Y238440D02*
X530500Y238440D01*
X70000Y240000D02*
X40000Y210000D01*
D12*
X40000Y210000D03*
D13*
X70000Y240000D02*
X213050Y240000D01*
X530500Y238440D02*
X530500Y288500D01*
D12*
X530500Y288500D03*
X3126500Y296500D03*
D13*
X3206500Y296500D02*
X3210000Y300000D01*
X3206500Y296500D02*
X3126500Y296500D01*
D12*
X3210000Y300000D03*
X313300Y164573D03*
D10*
X441636Y164573D01*
X487370Y210307D01*
D12*
X487370Y210307D03*
X70630Y219700D03*
X303220Y109850D03*
X287980Y111120D03*
X387040Y155570D03*
X384500Y190020D03*
X280860Y192520D03*
X162380Y169270D03*
X203960Y192770D03*
X96810Y150490D03*
X190960Y226640D03*
X129200Y253600D03*
X127700Y196000D03*
X201200Y218700D03*
X240110Y192580D03*
X272400Y223700D03*
X307800Y198700D03*
X3143500Y243570D03*
X3143500Y218570D03*
X513500Y209520D03*
X502040Y145570D03*
X513500Y189520D03*
X49000Y1758500D03*
D14*
X95000Y1758500D01*
X96000Y1759500D01*
D12*
X96000Y1759500D03*
X49000Y1611000D03*
D14*
X102000Y1611000D01*
D12*
X102000Y1611000D03*
X50000Y1462500D03*
D14*
X99500Y1462500D01*
D12*
X99500Y1462500D03*
X50000Y1311500D03*
D14*
X98500Y1311500D01*
X99000Y1311000D01*
D12*
X99000Y1311000D03*
X49500Y1162000D03*
D14*
X98000Y1162000D01*
D12*
X98000Y1162000D03*
X49000Y1013000D03*
D14*
X51500Y1015500D01*
X101000Y1015500D01*
D12*
X101000Y1015500D03*
X49000Y863500D03*
D14*
X101000Y863500D01*
D12*
X101000Y863500D03*
X49500Y715000D03*
D14*
X98000Y715000D01*
D12*
X98000Y715000D03*
X49000Y567500D03*
D14*
X100500Y567500D01*
D12*
X100500Y567500D03*
X49500Y413500D03*
D14*
X103000Y413500D01*
D12*
X103000Y413500D03*
X224480Y59050D03*
D10*
X225115Y59685D01*
X258488Y93058D01*
X260322Y93058D01*
D12*
X260322Y93058D03*
X173680Y135250D03*
D10*
X219400Y89530D01*
X219400Y65400D01*
X225115Y59685D01*
D12*
X127800Y84450D03*
X250000Y1845000D03*
X400000Y1845000D03*
X550000Y1845000D03*
X700000Y1845000D03*
X850000Y1845000D03*
X1000000Y1845000D03*
D14*
X1000000Y1840000D01*
D12*
X1150000Y1845000D03*
X1300000Y1845000D03*
X1450000Y1845000D03*
X1900000Y1845000D03*
X2050000Y1845000D03*
X2200000Y1845000D03*
X2350000Y1845000D03*
X2500000Y1845000D03*
X2650000Y1845000D03*
X3100000Y1695000D03*
X2950000Y1695000D03*
X2800000Y1695000D03*
X2650000Y1695000D03*
X2500000Y1695000D03*
X2350000Y1695000D03*
X2200000Y1695000D03*
X2050000Y1695000D03*
X1900000Y1695000D03*
X1750000Y1695000D03*
X1600000Y1695000D03*
X1450000Y1695000D03*
X1300000Y1695000D03*
X1150000Y1695000D03*
X1000000Y1695000D03*
X850000Y1695000D03*
D14*
X850000Y1690000D01*
D12*
X700000Y1695000D03*
X550000Y1695000D03*
X400000Y1695000D03*
X250000Y1695000D03*
X100000Y1670000D03*
X2800000Y1845000D03*
X2950000Y1845000D03*
X100000Y1520000D03*
X250000Y1545000D03*
X400000Y1545000D03*
X550000Y1545000D03*
X700000Y1545000D03*
X850000Y1545000D03*
X1000000Y1545000D03*
X1150000Y1545000D03*
D14*
X1150000Y1540000D01*
D12*
X1300000Y1545000D03*
X1450000Y1545000D03*
X1600000Y1545000D03*
X1750000Y1545000D03*
X1900000Y1545000D03*
X2050000Y1545000D03*
X2200000Y1545000D03*
X2350000Y1545000D03*
X2500000Y1545000D03*
X2650000Y1545000D03*
X2800000Y1545000D03*
X2950000Y1545000D03*
X3100000Y1545000D03*
X3100000Y1395000D03*
X2950000Y1395000D03*
X2800000Y1395000D03*
X2650000Y1395000D03*
X2500000Y1395000D03*
X2350000Y1395000D03*
X2200000Y1395000D03*
X2050000Y1395000D03*
X1900000Y1395000D03*
X1750000Y1395000D03*
X1600000Y1395000D03*
X1450000Y1395000D03*
X1300000Y1395000D03*
X1150000Y1395000D03*
X1000000Y1395000D03*
X850000Y1395000D03*
X700000Y1395000D03*
X550000Y1395000D03*
X400000Y1395000D03*
X250000Y1395000D03*
X100000Y1387500D03*
X100000Y1240000D03*
X250000Y1240000D03*
X400000Y1245000D03*
X550000Y1245000D03*
X700000Y1245000D03*
X850000Y1245000D03*
X1000000Y1245000D03*
X1150000Y1245000D03*
X1300000Y1245000D03*
X1450000Y1245000D03*
X1600000Y1245000D03*
X1750000Y1245000D03*
X1900000Y1245000D03*
X2050000Y1245000D03*
X2200000Y1245000D03*
X2350000Y1245000D03*
X2500000Y1245000D03*
X2650000Y1245000D03*
X2800000Y1245000D03*
X2950000Y1245000D03*
X3100000Y1245000D03*
X3100000Y1095000D03*
X2950000Y1095000D03*
X2800000Y1095000D03*
X2650000Y1095000D03*
X2500000Y1095000D03*
X2350000Y1095000D03*
X2200000Y1095000D03*
X2050000Y1095000D03*
X1900000Y1095000D03*
X1750000Y1095000D03*
X1600000Y1095000D03*
X1450000Y1095000D03*
X1300000Y1095000D03*
X1150000Y1095000D03*
X1000000Y1095000D03*
X850000Y1095000D03*
X700000Y1095000D03*
X550000Y1095000D03*
X400000Y1095000D03*
X250000Y1095000D03*
X100000Y1095000D03*
X100000Y945000D03*
X250000Y945000D03*
X400000Y945000D03*
X550000Y945000D03*
X700000Y945000D03*
X850000Y945000D03*
X1000000Y945000D03*
D14*
X1005000Y945000D01*
D12*
X1150000Y945000D03*
X1300000Y945000D03*
X1450000Y945000D03*
X1600000Y945000D03*
X1750000Y945000D03*
X1900000Y945000D03*
X2050000Y945000D03*
X2200000Y945000D03*
X2350000Y945000D03*
X2500000Y945000D03*
X2650000Y945000D03*
X2800000Y945000D03*
X2950000Y945000D03*
X3100000Y945000D03*
X100000Y795000D03*
X250000Y795000D03*
X400000Y795000D03*
X550000Y795000D03*
X700000Y795000D03*
X850000Y795000D03*
X1000000Y795000D03*
X1150000Y795000D03*
X1300000Y795000D03*
X1450000Y795000D03*
X1600000Y795000D03*
X1750000Y795000D03*
X1900000Y795000D03*
X2050000Y795000D03*
X2200000Y795000D03*
X2350000Y795000D03*
X2500000Y795000D03*
X2650000Y795000D03*
X2800000Y795000D03*
X2950000Y795000D03*
X3100000Y795000D03*
X100000Y645000D03*
X250000Y645000D03*
X400000Y645000D03*
X550000Y645000D03*
X700000Y645000D03*
X850000Y645000D03*
X1000000Y645000D03*
X1150000Y645000D03*
X1300000Y645000D03*
X1450000Y645000D03*
X1600000Y645000D03*
X1750000Y645000D03*
X1900000Y645000D03*
X2050000Y645000D03*
X2200000Y645000D03*
X2350000Y645000D03*
X2500000Y645000D03*
X2650000Y645000D03*
X2800000Y645000D03*
X2950000Y645000D03*
X3100000Y645000D03*
X2950000Y495000D03*
X2800000Y495000D03*
X2650000Y495000D03*
X2500000Y495000D03*
X2350000Y495000D03*
X2200000Y495000D03*
X2050000Y495000D03*
X1900000Y495000D03*
X1750000Y495000D03*
X1600000Y495000D03*
X1450000Y495000D03*
X1300000Y495000D03*
X1150000Y495000D03*
X1000000Y495000D03*
X850000Y495000D03*
X700000Y495000D03*
X550000Y495000D03*
X400000Y495000D03*
X250000Y495000D03*
X100000Y495000D03*
X250000Y345000D03*
X400000Y345000D03*
X550000Y345000D03*
X700000Y345000D03*
X850000Y345000D03*
X1000000Y345000D03*
X1150000Y345000D03*
X1300000Y345000D03*
X1450000Y345000D03*
X1600000Y345000D03*
X1750000Y345000D03*
X1900000Y345000D03*
X2050000Y345000D03*
X2200000Y345000D03*
X2350000Y345000D03*
X2500000Y345000D03*
X2650000Y345000D03*
X2800000Y345000D03*
X2950000Y345000D03*
X3100000Y195000D03*
X2950000Y195000D03*
X2800000Y195000D03*
X2650000Y195000D03*
X2500000Y195000D03*
X2350000Y195000D03*
X2200000Y195000D03*
X2050000Y195000D03*
X1900000Y195000D03*
X1750000Y195000D03*
X1600000Y195000D03*
X1450000Y195000D03*
X1300000Y195000D03*
X1150000Y195000D03*
X1000000Y195000D03*
X850000Y195000D03*
X1300000Y45000D03*
X1150000Y45000D03*
X1000000Y45000D03*
X850000Y45000D03*
X1750000Y45000D03*
X1912500Y45000D03*
X2050000Y45000D03*
X2200000Y45000D03*
X2350000Y45000D03*
X2500000Y45000D03*
X2650000Y45000D03*
X2800000Y45000D03*
X2950000Y45000D03*
X3075000Y267860D03*
X3100000Y495000D03*
X3096270Y267860D03*
X3086270Y267860D03*
X3060000Y330000D03*
X3070000Y330000D03*
X3080000Y330000D03*
X3090000Y330000D03*
X3106270Y267860D03*
X3100000Y345000D03*
X100000Y345000D03*
X720500Y209000D03*
X700000Y40000D03*
X101000Y254000D03*
D10*
X101600Y254000D01*
D12*
X323875Y260749D03*
X430000Y266930D03*
D10*
X417300Y266930D01*
X411119Y260749D01*
X323875Y260749D01*
D12*
X230830Y78100D03*
D10*
X230830Y102230D01*
X223210Y109850D01*
D12*
X223210Y109850D03*
X275600Y131440D03*
D10*
X295600Y131440D02*
X329890Y97150D01*
X295600Y131440D02*
X275600Y131440D01*
X329890Y97150D02*
X371800Y97150D01*
D12*
X371800Y97150D03*
X346400Y116200D03*
D10*
X321000Y141600D01*
X300600Y141600D01*
D12*
X300600Y141600D03*
X3186799Y241023D03*
D10*
X3186799Y224753D01*
D12*
X3186799Y224753D03*
X419100Y256540D03*
D10*
X332740Y256540D01*
X330200Y254000D01*
D12*
X330200Y254000D03*
X3150000Y281500D03*
D13*
X3160000Y280000D02*
X3170000Y280000D01*
X3160000Y280000D02*
X3158500Y281500D01*
X3150000Y281500D01*
D12*
X3170000Y280000D03*
X7500Y400000D03*
X238500Y271500D03*
D14*
X238000Y271000D01*
X149500Y271000D01*
D12*
X149500Y271000D03*
X2975000Y1900000D03*
D14*
X275000Y1900000D02*
X75000Y1700000D01*
D12*
X75000Y1700000D03*
D14*
X275000Y1900000D02*
X1697500Y1900000D01*
X1735000Y1937500D01*
X1785000Y1937500D01*
X1822500Y1900000D01*
X2975000Y1900000D01*
D12*
X3075000Y1750000D03*
D14*
X350000Y1750000D01*
X150000Y1550000D01*
X75000Y1550000D01*
D12*
X75000Y1550000D03*
X75000Y1400000D03*
D14*
X225000Y1400000D01*
X425000Y1600000D01*
X3075000Y1600000D01*
D12*
X3075000Y1600000D03*
X3075000Y1450000D03*
D14*
X500000Y1450000D01*
X300000Y1250000D01*
D12*
X75000Y1250000D03*
D14*
X300000Y1250000D01*
D12*
X75000Y1100000D03*
D14*
X93388Y1100000D01*
X96599Y1103211D01*
X253401Y1103211D02*
X256612Y1100000D01*
X375000Y1100000D01*
X253401Y1103211D02*
X96599Y1103211D01*
X375000Y1100000D02*
X575000Y1300000D01*
X3075000Y1300000D01*
D12*
X3075000Y1300000D03*
X75000Y950000D03*
D14*
X93388Y950000D01*
X96599Y953211D01*
X403401Y953211D02*
X406612Y950000D01*
X450000Y950000D01*
X403401Y953211D02*
X96599Y953211D01*
X450000Y950000D02*
X650000Y1150000D01*
X3075000Y1150000D01*
D12*
X3075000Y1150000D03*
X75000Y800000D03*
D14*
X93388Y800000D01*
X96599Y803211D01*
X403401Y803211D02*
X406612Y800000D01*
X525000Y800000D01*
X403401Y803211D02*
X96599Y803211D01*
X525000Y800000D02*
X725000Y1000000D01*
X3075000Y1000000D01*
D12*
X3075000Y1000000D03*
X3075000Y850000D03*
D14*
X800000Y850000D01*
X600000Y650000D01*
D12*
X75000Y650000D03*
D14*
X556612Y650000D02*
X600000Y650000D01*
X556612Y650000D02*
X553401Y653211D01*
X96599Y653211D02*
X93388Y650000D01*
X75000Y650000D01*
X96599Y653211D02*
X553401Y653211D01*
D12*
X75000Y500000D03*
D14*
X93388Y500000D01*
X96599Y503211D01*
X553401Y503211D02*
X556612Y500000D01*
X675000Y500000D01*
X553401Y503211D02*
X96599Y503211D01*
X675000Y500000D02*
X875000Y700000D01*
D12*
X3075000Y700000D03*
D14*
X875000Y700000D01*
D12*
X3075000Y550000D03*
D14*
X950000Y550000D01*
X735000Y335000D01*
D12*
X75000Y353500D03*
D14*
X93500Y335000D02*
X735000Y335000D01*
X93500Y335000D02*
X75000Y353500D01*
D12*
X284000Y391000D03*
X316000Y359000D03*
D14*
X284000Y391000D01*
D12*
X3075000Y400000D03*
D14*
X1025000Y400000D02*
X910000Y285000D01*
X1025000Y400000D02*
X3075000Y400000D01*
X910000Y285000D02*
X675000Y285000D01*
X544500Y305000D02*
X514500Y305000D01*
X544500Y305000D02*
X564500Y285000D01*
X675000Y285000D01*
D12*
X100000Y285000D03*
X675000Y172500D03*
D14*
X675000Y285000D01*
X494500Y285000D02*
X100000Y285000D01*
X494500Y285000D02*
X514500Y305000D01*
D12*
X3080000Y250000D03*
D14*
X1101500Y250000D01*
X906500Y55000D01*
X670000Y55000D01*
D12*
X670000Y55000D03*
M02*
