M48
;GenerationSoftware,Autodesk,EAGLE,9.6.0*%
;CreationDate,2020-09-24T03:14:58Z*%
FMAT,2
ICI,OFF
METRIC,TZ,000.000
T5C0.381
T4C0.650
T3C0.900
T2C1.200
T1C3.302
%
G90
M71
T1
X7500Y190250
X309000Y7500
X7500Y7500
X176073Y190250
X140427Y7500
X309000Y190250
T2
X324900Y41000
X317900Y41000
T3
X12700Y21520
T4
X321445Y20110
X321445Y25890
T5
X7063Y21970
X30322Y10985
X28798Y11112
X38704Y15557
X38450Y19002
X28086Y19252
X16238Y16927
X20396Y19277
X9681Y15049
X19096Y22664
X12920Y25360
X12770Y19600
X20120Y21870
X24011Y19258
X27240Y22370
X30780Y19870
X314350Y24357
X314350Y21857
X51350Y20952
X50204Y14557
X51350Y18952
X4900Y175850
X9600Y175950
X4900Y161100
X10200Y161100
X5000Y146250
X9950Y146250
X5000Y131150
X9900Y131100
X4950Y116200
X9800Y116200
X4900Y101300
X10100Y101550
X4900Y86350
X10100Y86350
X4950Y71500
X9800Y71500
X4900Y56750
X10050Y56750
X4950Y41350
X10300Y41350
X22448Y5905
X26032Y9306
X17368Y13525
X12780Y8445
X25000Y184500
X40000Y184500
X55000Y184500
X70000Y184500
X85000Y184500
X100000Y184500
X115000Y184500
X130000Y184500
X145000Y184500
X190000Y184500
X205000Y184500
X220000Y184500
X235000Y184500
X250000Y184500
X265000Y184500
X310000Y169500
X295000Y169500
X280000Y169500
X265000Y169500
X250000Y169500
X235000Y169500
X220000Y169500
X205000Y169500
X190000Y169500
X175000Y169500
X160000Y169500
X145000Y169500
X130000Y169500
X115000Y169500
X100000Y169500
X85000Y169500
X70000Y169500
X55000Y169500
X40000Y169500
X25000Y169500
X10000Y167000
X280000Y184500
X295000Y184500
X10000Y152000
X25000Y154500
X40000Y154500
X55000Y154500
X70000Y154500
X85000Y154500
X100000Y154500
X115000Y154500
X130000Y154500
X145000Y154500
X160000Y154500
X175000Y154500
X190000Y154500
X205000Y154500
X220000Y154500
X235000Y154500
X250000Y154500
X265000Y154500
X280000Y154500
X295000Y154500
X310000Y154500
X310000Y139500
X295000Y139500
X280000Y139500
X265000Y139500
X250000Y139500
X235000Y139500
X220000Y139500
X205000Y139500
X190000Y139500
X175000Y139500
X160000Y139500
X145000Y139500
X130000Y139500
X115000Y139500
X100000Y139500
X85000Y139500
X70000Y139500
X55000Y139500
X40000Y139500
X25000Y139500
X10000Y138750
X10000Y124000
X25000Y124000
X40000Y124500
X55000Y124500
X70000Y124500
X85000Y124500
X100000Y124500
X115000Y124500
X130000Y124500
X145000Y124500
X160000Y124500
X175000Y124500
X190000Y124500
X205000Y124500
X220000Y124500
X235000Y124500
X250000Y124500
X265000Y124500
X280000Y124500
X295000Y124500
X310000Y124500
X310000Y109500
X295000Y109500
X280000Y109500
X265000Y109500
X250000Y109500
X235000Y109500
X220000Y109500
X205000Y109500
X190000Y109500
X175000Y109500
X160000Y109500
X145000Y109500
X130000Y109500
X115000Y109500
X100000Y109500
X85000Y109500
X70000Y109500
X55000Y109500
X40000Y109500
X25000Y109500
X10000Y109500
X10000Y94500
X25000Y94500
X40000Y94500
X55000Y94500
X70000Y94500
X85000Y94500
X100000Y94500
X115000Y94500
X130000Y94500
X145000Y94500
X160000Y94500
X175000Y94500
X190000Y94500
X205000Y94500
X220000Y94500
X235000Y94500
X250000Y94500
X265000Y94500
X280000Y94500
X295000Y94500
X310000Y94500
X10000Y79500
X25000Y79500
X40000Y79500
X55000Y79500
X70000Y79500
X85000Y79500
X100000Y79500
X115000Y79500
X130000Y79500
X145000Y79500
X160000Y79500
X175000Y79500
X190000Y79500
X205000Y79500
X220000Y79500
X235000Y79500
X250000Y79500
X265000Y79500
X280000Y79500
X295000Y79500
X310000Y79500
X10000Y64500
X25000Y64500
X40000Y64500
X55000Y64500
X70000Y64500
X85000Y64500
X100000Y64500
X115000Y64500
X130000Y64500
X145000Y64500
X160000Y64500
X175000Y64500
X190000Y64500
X205000Y64500
X220000Y64500
X235000Y64500
X250000Y64500
X265000Y64500
X280000Y64500
X295000Y64500
X310000Y64500
X295000Y49500
X280000Y49500
X265000Y49500
X250000Y49500
X235000Y49500
X220000Y49500
X205000Y49500
X190000Y49500
X175000Y49500
X160000Y49500
X145000Y49500
X130000Y49500
X115000Y49500
X100000Y49500
X85000Y49500
X70000Y49500
X55000Y49500
X40000Y49500
X25000Y49500
X10000Y49500
X25000Y34500
X40000Y34500
X55000Y34500
X70000Y34500
X85000Y34500
X100000Y34500
X115000Y34500
X130000Y34500
X145000Y34500
X160000Y34500
X175000Y34500
X190000Y34500
X205000Y34500
X220000Y34500
X235000Y34500
X250000Y34500
X265000Y34500
X280000Y34500
X295000Y34500
X310000Y19500
X295000Y19500
X280000Y19500
X21305Y12382
X250000Y19500
X235000Y19500
X220000Y19500
X205000Y19500
X190000Y19500
X175000Y19500
X160000Y19500
X145000Y19500
X130000Y19500
X115000Y19500
X100000Y19500
X85000Y19500
X130000Y4500
X115000Y4500
X100000Y4500
X85000Y4500
X175000Y4500
X191250Y4500
X205000Y4500
X220000Y4500
X235000Y4500
X250000Y4500
X265000Y4500
X280000Y4500
X295000Y4500
X307500Y26786
X310000Y49500
X309627Y26786
X308627Y26786
X306000Y33000
X307000Y33000
X308000Y33000
X309000Y33000
X310627Y26786
X310000Y34500
X10000Y34500
X72050Y20900
X70000Y4000
X10100Y25400
X32387Y26075
X43000Y26693
X23083Y7810
X22321Y10985
X27560Y13144
X37180Y9715
X34640Y11620
X265000Y19500
X318680Y24102
X318680Y22475
X41910Y25654
X33020Y25400
X315000Y28150
X317000Y28000
X750Y40000
X23850Y27150
X14950Y27100
X297500Y190000
X7500Y170000
X307500Y175000
X7500Y155000
X7500Y140000
X307500Y160000
X307500Y145000
X7500Y125000
X7500Y110000
X307500Y130000
X7500Y95000
X307500Y115000
X7500Y80000
X307500Y100000
X307500Y85000
X7500Y65000
X7500Y50000
X307500Y70000
X307500Y55000
X7500Y35350
X28400Y39100
X31600Y35900
X307500Y40000
X10000Y28500
X67500Y17250
X308000Y25000
X67000Y5500
X15290Y18830
X53050Y23844
X21305Y20150
X28500Y20500
X4000Y21000
X53050Y28850
X312650Y29650
X321000Y30000
X31330Y16457
X48737Y21031
X30060Y14160
M30