G75*
%MOIN*%
%OFA0B0*%
%FSLAX25Y25*%
%IPPOS*%
%LPD*%
%AMOC8*
5,1,8,0,0,1.08239X$1,22.5*
%
%ADD10C,0.00039*%
D10*
X1311916Y0157846D02*
X1316247Y0157846D01*
X1316247Y0157847D02*
X1316314Y0157849D01*
X1316382Y0157855D01*
X1316448Y0157864D01*
X1316514Y0157878D01*
X1316580Y0157895D01*
X1316644Y0157916D01*
X1316707Y0157940D01*
X1316768Y0157968D01*
X1316828Y0158000D01*
X1316885Y0158034D01*
X1316941Y0158073D01*
X1316995Y0158114D01*
X1317046Y0158158D01*
X1317094Y0158205D01*
X1317140Y0158255D01*
X1317182Y0158307D01*
X1317222Y0158361D01*
X1317258Y0158418D01*
X1317292Y0158477D01*
X1317321Y0158537D01*
X1317348Y0158600D01*
X1317370Y0158663D01*
X1317389Y0158728D01*
X1317404Y0158793D01*
X1317416Y0158860D01*
X1317424Y0158927D01*
X1317428Y0158994D01*
X1317428Y0159062D01*
X1317424Y0159129D01*
X1317416Y0159196D01*
X1317404Y0159263D01*
X1317389Y0159328D01*
X1317370Y0159393D01*
X1317348Y0159456D01*
X1317321Y0159519D01*
X1317292Y0159579D01*
X1317258Y0159638D01*
X1317222Y0159695D01*
X1317182Y0159749D01*
X1317140Y0159801D01*
X1317094Y0159851D01*
X1317046Y0159898D01*
X1316995Y0159942D01*
X1316941Y0159983D01*
X1316885Y0160022D01*
X1316828Y0160056D01*
X1316768Y0160088D01*
X1316707Y0160116D01*
X1316644Y0160140D01*
X1316580Y0160161D01*
X1316514Y0160178D01*
X1316448Y0160192D01*
X1316382Y0160201D01*
X1316314Y0160207D01*
X1316247Y0160209D01*
X1311916Y0160209D01*
X1311849Y0160207D01*
X1311781Y0160201D01*
X1311715Y0160192D01*
X1311649Y0160178D01*
X1311583Y0160161D01*
X1311519Y0160140D01*
X1311456Y0160116D01*
X1311395Y0160088D01*
X1311335Y0160056D01*
X1311278Y0160022D01*
X1311222Y0159983D01*
X1311168Y0159942D01*
X1311117Y0159898D01*
X1311069Y0159851D01*
X1311023Y0159801D01*
X1310981Y0159749D01*
X1310941Y0159695D01*
X1310905Y0159638D01*
X1310871Y0159579D01*
X1310842Y0159519D01*
X1310815Y0159456D01*
X1310793Y0159393D01*
X1310774Y0159328D01*
X1310759Y0159263D01*
X1310747Y0159196D01*
X1310739Y0159129D01*
X1310735Y0159062D01*
X1310735Y0158994D01*
X1310739Y0158927D01*
X1310747Y0158860D01*
X1310759Y0158793D01*
X1310774Y0158728D01*
X1310793Y0158663D01*
X1310815Y0158600D01*
X1310842Y0158537D01*
X1310871Y0158477D01*
X1310905Y0158418D01*
X1310941Y0158361D01*
X1310981Y0158307D01*
X1311023Y0158255D01*
X1311069Y0158205D01*
X1311117Y0158158D01*
X1311168Y0158114D01*
X1311222Y0158073D01*
X1311278Y0158034D01*
X1311335Y0158000D01*
X1311395Y0157968D01*
X1311456Y0157940D01*
X1311519Y0157916D01*
X1311583Y0157895D01*
X1311649Y0157878D01*
X1311715Y0157864D01*
X1311781Y0157855D01*
X1311849Y0157849D01*
X1311916Y0157847D01*
X1329298Y0157846D02*
X1331739Y0157846D01*
X1331739Y0157847D02*
X1331806Y0157849D01*
X1331874Y0157855D01*
X1331940Y0157864D01*
X1332006Y0157878D01*
X1332072Y0157895D01*
X1332136Y0157916D01*
X1332199Y0157940D01*
X1332260Y0157968D01*
X1332320Y0158000D01*
X1332377Y0158034D01*
X1332433Y0158073D01*
X1332487Y0158114D01*
X1332538Y0158158D01*
X1332586Y0158205D01*
X1332632Y0158255D01*
X1332674Y0158307D01*
X1332714Y0158361D01*
X1332750Y0158418D01*
X1332784Y0158477D01*
X1332813Y0158537D01*
X1332840Y0158600D01*
X1332862Y0158663D01*
X1332881Y0158728D01*
X1332896Y0158793D01*
X1332908Y0158860D01*
X1332916Y0158927D01*
X1332920Y0158994D01*
X1332920Y0159062D01*
X1332916Y0159129D01*
X1332908Y0159196D01*
X1332896Y0159263D01*
X1332881Y0159328D01*
X1332862Y0159393D01*
X1332840Y0159456D01*
X1332813Y0159519D01*
X1332784Y0159579D01*
X1332750Y0159638D01*
X1332714Y0159695D01*
X1332674Y0159749D01*
X1332632Y0159801D01*
X1332586Y0159851D01*
X1332538Y0159898D01*
X1332487Y0159942D01*
X1332433Y0159983D01*
X1332377Y0160022D01*
X1332320Y0160056D01*
X1332260Y0160088D01*
X1332199Y0160116D01*
X1332136Y0160140D01*
X1332072Y0160161D01*
X1332006Y0160178D01*
X1331940Y0160192D01*
X1331874Y0160201D01*
X1331806Y0160207D01*
X1331739Y0160209D01*
X1329298Y0160209D01*
X1329231Y0160207D01*
X1329163Y0160201D01*
X1329097Y0160192D01*
X1329031Y0160178D01*
X1328965Y0160161D01*
X1328901Y0160140D01*
X1328838Y0160116D01*
X1328777Y0160088D01*
X1328717Y0160056D01*
X1328660Y0160022D01*
X1328604Y0159983D01*
X1328550Y0159942D01*
X1328499Y0159898D01*
X1328451Y0159851D01*
X1328405Y0159801D01*
X1328363Y0159749D01*
X1328323Y0159695D01*
X1328287Y0159638D01*
X1328253Y0159579D01*
X1328224Y0159519D01*
X1328197Y0159456D01*
X1328175Y0159393D01*
X1328156Y0159328D01*
X1328141Y0159263D01*
X1328129Y0159196D01*
X1328121Y0159129D01*
X1328117Y0159062D01*
X1328117Y0158994D01*
X1328121Y0158927D01*
X1328129Y0158860D01*
X1328141Y0158793D01*
X1328156Y0158728D01*
X1328175Y0158663D01*
X1328197Y0158600D01*
X1328224Y0158537D01*
X1328253Y0158477D01*
X1328287Y0158418D01*
X1328323Y0158361D01*
X1328363Y0158307D01*
X1328405Y0158255D01*
X1328451Y0158205D01*
X1328499Y0158158D01*
X1328550Y0158114D01*
X1328604Y0158073D01*
X1328660Y0158034D01*
X1328717Y0158000D01*
X1328777Y0157968D01*
X1328838Y0157940D01*
X1328901Y0157916D01*
X1328965Y0157895D01*
X1329031Y0157878D01*
X1329097Y0157864D01*
X1329163Y0157855D01*
X1329231Y0157849D01*
X1329298Y0157847D01*
X1329298Y0191862D02*
X1331739Y0191862D01*
X1331806Y0191864D01*
X1331874Y0191870D01*
X1331940Y0191879D01*
X1332006Y0191893D01*
X1332072Y0191910D01*
X1332136Y0191931D01*
X1332199Y0191955D01*
X1332260Y0191983D01*
X1332320Y0192015D01*
X1332377Y0192049D01*
X1332433Y0192088D01*
X1332487Y0192129D01*
X1332538Y0192173D01*
X1332586Y0192220D01*
X1332632Y0192270D01*
X1332674Y0192322D01*
X1332714Y0192376D01*
X1332750Y0192433D01*
X1332784Y0192492D01*
X1332813Y0192552D01*
X1332840Y0192615D01*
X1332862Y0192678D01*
X1332881Y0192743D01*
X1332896Y0192808D01*
X1332908Y0192875D01*
X1332916Y0192942D01*
X1332920Y0193009D01*
X1332920Y0193077D01*
X1332916Y0193144D01*
X1332908Y0193211D01*
X1332896Y0193278D01*
X1332881Y0193343D01*
X1332862Y0193408D01*
X1332840Y0193471D01*
X1332813Y0193534D01*
X1332784Y0193594D01*
X1332750Y0193653D01*
X1332714Y0193710D01*
X1332674Y0193764D01*
X1332632Y0193816D01*
X1332586Y0193866D01*
X1332538Y0193913D01*
X1332487Y0193957D01*
X1332433Y0193998D01*
X1332377Y0194037D01*
X1332320Y0194071D01*
X1332260Y0194103D01*
X1332199Y0194131D01*
X1332136Y0194155D01*
X1332072Y0194176D01*
X1332006Y0194193D01*
X1331940Y0194207D01*
X1331874Y0194216D01*
X1331806Y0194222D01*
X1331739Y0194224D01*
X1329298Y0194224D01*
X1329231Y0194222D01*
X1329163Y0194216D01*
X1329097Y0194207D01*
X1329031Y0194193D01*
X1328965Y0194176D01*
X1328901Y0194155D01*
X1328838Y0194131D01*
X1328777Y0194103D01*
X1328717Y0194071D01*
X1328660Y0194037D01*
X1328604Y0193998D01*
X1328550Y0193957D01*
X1328499Y0193913D01*
X1328451Y0193866D01*
X1328405Y0193816D01*
X1328363Y0193764D01*
X1328323Y0193710D01*
X1328287Y0193653D01*
X1328253Y0193594D01*
X1328224Y0193534D01*
X1328197Y0193471D01*
X1328175Y0193408D01*
X1328156Y0193343D01*
X1328141Y0193278D01*
X1328129Y0193211D01*
X1328121Y0193144D01*
X1328117Y0193077D01*
X1328117Y0193009D01*
X1328121Y0192942D01*
X1328129Y0192875D01*
X1328141Y0192808D01*
X1328156Y0192743D01*
X1328175Y0192678D01*
X1328197Y0192615D01*
X1328224Y0192552D01*
X1328253Y0192492D01*
X1328287Y0192433D01*
X1328323Y0192376D01*
X1328363Y0192322D01*
X1328405Y0192270D01*
X1328451Y0192220D01*
X1328499Y0192173D01*
X1328550Y0192129D01*
X1328604Y0192088D01*
X1328660Y0192049D01*
X1328717Y0192015D01*
X1328777Y0191983D01*
X1328838Y0191955D01*
X1328901Y0191931D01*
X1328965Y0191910D01*
X1329031Y0191893D01*
X1329097Y0191879D01*
X1329163Y0191870D01*
X1329231Y0191864D01*
X1329298Y0191862D01*
X1316247Y0191862D02*
X1311916Y0191862D01*
X1311849Y0191864D01*
X1311781Y0191870D01*
X1311715Y0191879D01*
X1311649Y0191893D01*
X1311583Y0191910D01*
X1311519Y0191931D01*
X1311456Y0191955D01*
X1311395Y0191983D01*
X1311335Y0192015D01*
X1311278Y0192049D01*
X1311222Y0192088D01*
X1311168Y0192129D01*
X1311117Y0192173D01*
X1311069Y0192220D01*
X1311023Y0192270D01*
X1310981Y0192322D01*
X1310941Y0192376D01*
X1310905Y0192433D01*
X1310871Y0192492D01*
X1310842Y0192552D01*
X1310815Y0192615D01*
X1310793Y0192678D01*
X1310774Y0192743D01*
X1310759Y0192808D01*
X1310747Y0192875D01*
X1310739Y0192942D01*
X1310735Y0193009D01*
X1310735Y0193077D01*
X1310739Y0193144D01*
X1310747Y0193211D01*
X1310759Y0193278D01*
X1310774Y0193343D01*
X1310793Y0193408D01*
X1310815Y0193471D01*
X1310842Y0193534D01*
X1310871Y0193594D01*
X1310905Y0193653D01*
X1310941Y0193710D01*
X1310981Y0193764D01*
X1311023Y0193816D01*
X1311069Y0193866D01*
X1311117Y0193913D01*
X1311168Y0193957D01*
X1311222Y0193998D01*
X1311278Y0194037D01*
X1311335Y0194071D01*
X1311395Y0194103D01*
X1311456Y0194131D01*
X1311519Y0194155D01*
X1311583Y0194176D01*
X1311649Y0194193D01*
X1311715Y0194207D01*
X1311781Y0194216D01*
X1311849Y0194222D01*
X1311916Y0194224D01*
X1316247Y0194224D01*
X1316314Y0194222D01*
X1316382Y0194216D01*
X1316448Y0194207D01*
X1316514Y0194193D01*
X1316580Y0194176D01*
X1316644Y0194155D01*
X1316707Y0194131D01*
X1316768Y0194103D01*
X1316828Y0194071D01*
X1316885Y0194037D01*
X1316941Y0193998D01*
X1316995Y0193957D01*
X1317046Y0193913D01*
X1317094Y0193866D01*
X1317140Y0193816D01*
X1317182Y0193764D01*
X1317222Y0193710D01*
X1317258Y0193653D01*
X1317292Y0193594D01*
X1317321Y0193534D01*
X1317348Y0193471D01*
X1317370Y0193408D01*
X1317389Y0193343D01*
X1317404Y0193278D01*
X1317416Y0193211D01*
X1317424Y0193144D01*
X1317428Y0193077D01*
X1317428Y0193009D01*
X1317424Y0192942D01*
X1317416Y0192875D01*
X1317404Y0192808D01*
X1317389Y0192743D01*
X1317370Y0192678D01*
X1317348Y0192615D01*
X1317321Y0192552D01*
X1317292Y0192492D01*
X1317258Y0192433D01*
X1317222Y0192376D01*
X1317182Y0192322D01*
X1317140Y0192270D01*
X1317094Y0192220D01*
X1317046Y0192173D01*
X1316995Y0192129D01*
X1316941Y0192088D01*
X1316885Y0192049D01*
X1316828Y0192015D01*
X1316768Y0191983D01*
X1316707Y0191955D01*
X1316644Y0191931D01*
X1316580Y0191910D01*
X1316514Y0191893D01*
X1316448Y0191879D01*
X1316382Y0191870D01*
X1316314Y0191864D01*
X1316247Y0191862D01*
M02*
