G75*
%MOIN*%
%OFA0B0*%
%FSLAX25Y25*%
%IPPOS*%
%LPD*%
%AMOC8*
5,1,8,0,0,1.08239X$1,22.5*
%
%ADD10C,0.00800*%
%ADD11C,0.00600*%
%ADD12C,0.02000*%
%ADD13C,0.00500*%
%ADD14C,0.01000*%
%ADD15C,0.01000*%
%ADD16R,0.41693X0.00157*%
%ADD17R,0.43307X0.00118*%
%ADD18R,0.01890X0.00157*%
%ADD19R,0.00433X0.00157*%
%ADD20R,0.02362X0.00157*%
%ADD21R,0.01457X0.00157*%
%ADD22R,0.01299X0.00157*%
%ADD23R,0.01181X0.00118*%
%ADD24R,0.00866X0.00118*%
%ADD25R,0.00433X0.00118*%
%ADD26R,0.00866X0.00157*%
%ADD27R,0.42598X0.00157*%
%ADD28R,0.00984X0.00157*%
%ADD29R,0.43740X0.00157*%
%ADD30R,0.09213X0.00157*%
%ADD31R,0.00276X0.00157*%
%ADD32R,0.00709X0.00157*%
%ADD33R,0.07008X0.00157*%
%ADD34R,0.00748X0.00118*%
%ADD35R,0.01457X0.00118*%
%ADD36R,0.01614X0.00118*%
%ADD37R,0.00748X0.00157*%
%ADD38R,0.01181X0.00157*%
%ADD39R,0.01024X0.00157*%
%ADD40R,0.00551X0.00118*%
%ADD41R,0.00984X0.00118*%
%ADD42R,0.00591X0.00157*%
%ADD43R,0.00906X0.00157*%
%ADD44R,0.00551X0.00157*%
%ADD45R,0.00906X0.00118*%
%ADD46R,0.00591X0.00118*%
%ADD47R,0.00472X0.00157*%
%ADD48R,0.00709X0.00118*%
%ADD49R,0.00472X0.00118*%
%ADD50R,0.02165X0.00157*%
%ADD51R,0.02638X0.00157*%
%ADD52R,0.02480X0.00157*%
%ADD53R,0.02953X0.00118*%
%ADD54R,0.02638X0.00118*%
%ADD55R,0.03228X0.00157*%
%ADD56R,0.01339X0.00157*%
%ADD57R,0.01299X0.00118*%
%ADD58R,0.01024X0.00118*%
%ADD59R,0.01142X0.00118*%
%ADD60R,0.01142X0.00157*%
%ADD61R,0.01339X0.00118*%
%ADD62R,0.00276X0.00118*%
%ADD63R,0.00315X0.00157*%
%ADD64R,0.00315X0.00118*%
%ADD65R,0.04843X0.00157*%
%ADD66R,0.02756X0.00118*%
%ADD67R,0.05236X0.00118*%
%ADD68R,0.02913X0.00157*%
%ADD69R,0.02047X0.00157*%
%ADD70R,0.05236X0.00157*%
%ADD71R,0.02795X0.00157*%
%ADD72R,0.00157X0.00157*%
%ADD73R,0.05276X0.00157*%
%ADD74R,0.04961X0.00118*%
%ADD75R,0.01772X0.00157*%
%ADD76R,0.03071X0.00157*%
%ADD77R,0.01614X0.00157*%
%ADD78R,0.02008X0.00157*%
%ADD79R,0.03504X0.00157*%
%ADD80R,0.07165X0.00157*%
%ADD81R,0.01575X0.00157*%
%ADD82R,0.01890X0.00118*%
%ADD83R,0.06850X0.00118*%
%ADD84R,0.01732X0.00118*%
%ADD85R,0.06850X0.00157*%
%ADD86R,0.01732X0.00157*%
%ADD87R,0.02323X0.00118*%
%ADD88R,0.03780X0.00118*%
%ADD89R,0.02047X0.00118*%
%ADD90R,0.05551X0.00118*%
%ADD91R,0.02205X0.00118*%
%ADD92R,0.06299X0.00157*%
%ADD93R,0.01929X0.00157*%
%ADD94R,0.08780X0.00157*%
%ADD95R,0.04213X0.00157*%
%ADD96R,0.07717X0.00157*%
%ADD97R,0.02323X0.00157*%
%ADD98R,0.02756X0.00157*%
%ADD99R,0.07283X0.00157*%
%ADD100R,0.04094X0.00118*%
%ADD101R,0.05079X0.00118*%
%ADD102R,0.02165X0.00118*%
%ADD103R,0.04961X0.00157*%
%ADD104R,0.04685X0.00157*%
%ADD105R,0.00157X0.00118*%
%ADD106R,0.01496X0.00157*%
%ADD107R,0.44173X0.00118*%
%ADD108R,0.43425X0.00157*%
%ADD109R,0.12677X0.00157*%
%ADD110R,0.14134X0.00157*%
%ADD111R,0.19528X0.00157*%
%ADD112R,0.09055X0.00157*%
%ADD113R,0.15000X0.00157*%
%ADD114R,0.42717X0.00157*%
%ADD115R,0.08307X0.00118*%
%ADD116R,0.06417X0.00118*%
%ADD117C,0.01600*%
D10*
X0111404Y0098900D02*
X0111404Y0102281D01*
X0115348Y0103381D02*
X0117461Y0103381D01*
X0121404Y0102281D02*
X0121404Y0098900D01*
X0168933Y0100253D02*
X0169483Y0100253D01*
X0168933Y0100253D02*
X0168933Y0094353D01*
X0169483Y0094353D01*
X0177183Y0094353D02*
X0177733Y0094353D01*
X0177733Y0099753D01*
X0177183Y0100253D01*
X0185066Y0104291D02*
X0185066Y0105315D01*
X0188066Y0110315D02*
X0198601Y0110315D01*
X0201601Y0105315D02*
X0201601Y0104291D01*
X0198601Y0099291D02*
X0188066Y0099291D01*
X0188066Y0095315D02*
X0198601Y0095315D01*
X0201601Y0090315D02*
X0201601Y0089291D01*
X0198601Y0084291D02*
X0188066Y0084291D01*
X0185066Y0089291D02*
X0185066Y0090315D01*
X0207282Y0094803D02*
X0207282Y0083870D01*
X0211325Y0083870D01*
X0281054Y0083870D02*
X0308676Y0083870D01*
X0308676Y0155736D01*
X0281054Y0155736D01*
X0336404Y0150273D02*
X0336404Y0146892D01*
X0340348Y0151373D02*
X0342461Y0151373D01*
X0344804Y0154616D02*
X0344804Y0156949D01*
X0344804Y0158883D02*
X0349004Y0160283D01*
X0344804Y0161683D01*
X0347604Y0156949D02*
X0348071Y0156949D01*
X0348130Y0156947D01*
X0348188Y0156942D01*
X0348246Y0156932D01*
X0348303Y0156920D01*
X0348359Y0156903D01*
X0348414Y0156883D01*
X0348468Y0156860D01*
X0348520Y0156834D01*
X0348571Y0156804D01*
X0348619Y0156771D01*
X0348666Y0156735D01*
X0348710Y0156696D01*
X0348751Y0156655D01*
X0348790Y0156611D01*
X0348826Y0156564D01*
X0348859Y0156516D01*
X0348889Y0156465D01*
X0348915Y0156413D01*
X0348938Y0156359D01*
X0348958Y0156304D01*
X0348975Y0156248D01*
X0348987Y0156191D01*
X0348997Y0156133D01*
X0349002Y0156075D01*
X0349004Y0156016D01*
X0349004Y0154616D01*
X0347604Y0156949D02*
X0347543Y0156947D01*
X0347482Y0156941D01*
X0347422Y0156931D01*
X0347363Y0156917D01*
X0347304Y0156899D01*
X0347247Y0156878D01*
X0347191Y0156853D01*
X0347138Y0156824D01*
X0347086Y0156792D01*
X0347036Y0156756D01*
X0346989Y0156717D01*
X0346944Y0156676D01*
X0346903Y0156631D01*
X0346864Y0156584D01*
X0346828Y0156534D01*
X0346796Y0156483D01*
X0346767Y0156429D01*
X0346742Y0156373D01*
X0346721Y0156316D01*
X0346703Y0156257D01*
X0346689Y0156198D01*
X0346679Y0156138D01*
X0346673Y0156077D01*
X0346671Y0156016D01*
X0346671Y0154616D01*
X0344804Y0154616D01*
X0346404Y0150273D02*
X0346404Y0146892D01*
X0351436Y0143583D02*
X0354436Y0143583D01*
X0354436Y0144583D01*
X0354436Y0143583D02*
X0357436Y0143583D01*
X0357436Y0123583D01*
X0354436Y0123583D01*
X0354436Y0122583D01*
X0354436Y0123583D02*
X0351436Y0123583D01*
X0351436Y0143583D01*
X0368246Y0143268D02*
X0368246Y0142358D01*
X0387736Y0142358D01*
X0387736Y0142338D01*
X0387936Y0142338D01*
X0387936Y0143338D01*
X0388136Y0149438D02*
X0388136Y0156138D01*
X0388016Y0161768D02*
X0388016Y0162838D01*
X0387816Y0162838D01*
X0387816Y0162848D01*
X0368256Y0162848D01*
X0368256Y0161958D01*
X0368136Y0156038D02*
X0368136Y0152638D01*
X0378136Y0162638D01*
X0368136Y0152638D02*
X0368136Y0149238D01*
X0348504Y0167349D02*
X0348504Y0168516D01*
X0348505Y0168516D02*
X0348503Y0168581D01*
X0348498Y0168647D01*
X0348489Y0168711D01*
X0348476Y0168776D01*
X0348459Y0168839D01*
X0348440Y0168901D01*
X0348416Y0168963D01*
X0348389Y0169022D01*
X0348359Y0169080D01*
X0348326Y0169137D01*
X0348290Y0169191D01*
X0348250Y0169244D01*
X0348208Y0169294D01*
X0348163Y0169341D01*
X0348116Y0169386D01*
X0348066Y0169428D01*
X0348013Y0169468D01*
X0347959Y0169504D01*
X0347902Y0169537D01*
X0347844Y0169567D01*
X0347785Y0169594D01*
X0347723Y0169618D01*
X0347661Y0169637D01*
X0347598Y0169654D01*
X0347533Y0169667D01*
X0347469Y0169676D01*
X0347403Y0169681D01*
X0347338Y0169683D01*
X0345471Y0169683D01*
X0345406Y0169681D01*
X0345340Y0169676D01*
X0345276Y0169667D01*
X0345211Y0169654D01*
X0345148Y0169637D01*
X0345086Y0169618D01*
X0345024Y0169594D01*
X0344965Y0169567D01*
X0344907Y0169537D01*
X0344850Y0169504D01*
X0344796Y0169468D01*
X0344743Y0169428D01*
X0344693Y0169386D01*
X0344646Y0169341D01*
X0344601Y0169294D01*
X0344559Y0169244D01*
X0344519Y0169191D01*
X0344483Y0169137D01*
X0344450Y0169081D01*
X0344420Y0169022D01*
X0344393Y0168963D01*
X0344369Y0168901D01*
X0344350Y0168839D01*
X0344333Y0168776D01*
X0344320Y0168711D01*
X0344311Y0168647D01*
X0344306Y0168581D01*
X0344304Y0168516D01*
X0344304Y0167349D01*
X0348504Y0167349D01*
X0328881Y0201393D02*
X0328681Y0201393D01*
X0328681Y0201413D01*
X0309191Y0201413D01*
X0309191Y0202323D01*
X0309081Y0208293D02*
X0309081Y0211693D01*
X0319081Y0221693D01*
X0328761Y0221893D02*
X0328761Y0221903D01*
X0309201Y0221903D01*
X0309201Y0221013D01*
X0309081Y0215093D02*
X0309081Y0211693D01*
X0329081Y0208493D02*
X0329081Y0215193D01*
X0328961Y0220823D02*
X0328961Y0221893D01*
X0328761Y0221893D01*
X0328881Y0202393D02*
X0328881Y0201393D01*
X0368246Y0201413D02*
X0368246Y0202323D01*
X0368246Y0201413D02*
X0387736Y0201413D01*
X0387736Y0201393D01*
X0387936Y0201393D01*
X0387936Y0202393D01*
X0388136Y0208493D02*
X0388136Y0215193D01*
X0388016Y0220823D02*
X0388016Y0221893D01*
X0387816Y0221893D01*
X0387816Y0221903D01*
X0368256Y0221903D01*
X0368256Y0221013D01*
X0368136Y0215093D02*
X0368136Y0211693D01*
X0378136Y0221693D01*
X0368136Y0211693D02*
X0368136Y0208293D01*
X0427192Y0208293D02*
X0427192Y0211693D01*
X0437192Y0221693D01*
X0446872Y0221893D02*
X0446872Y0221903D01*
X0427312Y0221903D01*
X0427312Y0221013D01*
X0427192Y0215093D02*
X0427192Y0211693D01*
X0427302Y0202323D02*
X0427302Y0201413D01*
X0446792Y0201413D01*
X0446792Y0201393D01*
X0446992Y0201393D01*
X0446992Y0202393D01*
X0447192Y0208493D02*
X0447192Y0215193D01*
X0447072Y0220823D02*
X0447072Y0221893D01*
X0446872Y0221893D01*
X0486367Y0221903D02*
X0486367Y0221013D01*
X0486367Y0221903D02*
X0505927Y0221903D01*
X0505927Y0221893D01*
X0506127Y0221893D01*
X0506127Y0220823D01*
X0506247Y0215193D02*
X0506247Y0208493D01*
X0506047Y0202393D02*
X0506047Y0201393D01*
X0505847Y0201393D01*
X0505847Y0201413D01*
X0486357Y0201413D01*
X0486357Y0202323D01*
X0486247Y0208293D02*
X0486247Y0211693D01*
X0496247Y0221693D01*
X0486247Y0215093D02*
X0486247Y0211693D01*
X0545302Y0211693D02*
X0545302Y0208293D01*
X0545302Y0211693D02*
X0555302Y0221693D01*
X0564982Y0221893D02*
X0564982Y0221903D01*
X0545422Y0221903D01*
X0545422Y0221013D01*
X0545302Y0215093D02*
X0545302Y0211693D01*
X0565302Y0208493D02*
X0565302Y0215193D01*
X0565182Y0220823D02*
X0565182Y0221893D01*
X0564982Y0221893D01*
X0565102Y0202393D02*
X0565102Y0201393D01*
X0564902Y0201393D01*
X0564902Y0201413D01*
X0545412Y0201413D01*
X0545412Y0202323D01*
X0545422Y0162848D02*
X0545422Y0161958D01*
X0545422Y0162848D02*
X0564982Y0162848D01*
X0564982Y0162838D01*
X0565182Y0162838D01*
X0565182Y0161768D01*
X0565302Y0156138D02*
X0565302Y0149438D01*
X0565102Y0143338D02*
X0565102Y0142338D01*
X0564902Y0142338D01*
X0564902Y0142358D01*
X0545412Y0142358D01*
X0545412Y0143268D01*
X0545302Y0149238D02*
X0545302Y0152638D01*
X0555302Y0162638D01*
X0545302Y0156038D02*
X0545302Y0152638D01*
X0506247Y0149438D02*
X0506247Y0156138D01*
X0506127Y0161768D02*
X0506127Y0162838D01*
X0505927Y0162838D01*
X0505927Y0162848D01*
X0486367Y0162848D01*
X0486367Y0161958D01*
X0486247Y0156038D02*
X0486247Y0152638D01*
X0496247Y0162638D01*
X0486247Y0152638D02*
X0486247Y0149238D01*
X0486357Y0143268D02*
X0486357Y0142358D01*
X0505847Y0142358D01*
X0505847Y0142338D01*
X0506047Y0142338D01*
X0506047Y0143338D01*
X0505927Y0103793D02*
X0486367Y0103793D01*
X0486367Y0102903D01*
X0486247Y0096983D02*
X0486247Y0093583D01*
X0496247Y0103583D01*
X0505927Y0103783D02*
X0505927Y0103793D01*
X0505927Y0103783D02*
X0506127Y0103783D01*
X0506127Y0102713D01*
X0506247Y0097083D02*
X0506247Y0090383D01*
X0506047Y0084283D02*
X0506047Y0083283D01*
X0505847Y0083283D01*
X0505847Y0083303D01*
X0486357Y0083303D01*
X0486357Y0084213D01*
X0486247Y0090183D02*
X0486247Y0093583D01*
X0447192Y0090383D02*
X0447192Y0097083D01*
X0447072Y0102713D02*
X0447072Y0103783D01*
X0446872Y0103783D01*
X0446872Y0103793D01*
X0427312Y0103793D01*
X0427312Y0102903D01*
X0427192Y0096983D02*
X0427192Y0093583D01*
X0437192Y0103583D01*
X0427192Y0093583D02*
X0427192Y0090183D01*
X0427302Y0084213D02*
X0427302Y0083303D01*
X0446792Y0083303D01*
X0446792Y0083283D01*
X0446992Y0083283D01*
X0446992Y0084283D01*
X0387936Y0084283D02*
X0387936Y0083283D01*
X0387736Y0083283D01*
X0387736Y0083303D01*
X0368246Y0083303D01*
X0368246Y0084213D01*
X0368136Y0090183D02*
X0368136Y0093583D01*
X0378136Y0103583D01*
X0387816Y0103783D02*
X0387816Y0103793D01*
X0368256Y0103793D01*
X0368256Y0102903D01*
X0368136Y0096983D02*
X0368136Y0093583D01*
X0388136Y0090383D02*
X0388136Y0097083D01*
X0388016Y0102713D02*
X0388016Y0103783D01*
X0387816Y0103783D01*
X0427302Y0142358D02*
X0427302Y0143268D01*
X0427302Y0142358D02*
X0446792Y0142358D01*
X0446792Y0142338D01*
X0446992Y0142338D01*
X0446992Y0143338D01*
X0447192Y0149438D02*
X0447192Y0156138D01*
X0447072Y0161768D02*
X0447072Y0162838D01*
X0446872Y0162838D01*
X0446872Y0162848D01*
X0427312Y0162848D01*
X0427312Y0161958D01*
X0427192Y0156038D02*
X0427192Y0152638D01*
X0437192Y0162638D01*
X0427192Y0152638D02*
X0427192Y0149238D01*
X0545422Y0103793D02*
X0545422Y0102903D01*
X0545422Y0103793D02*
X0564982Y0103793D01*
X0564982Y0103783D01*
X0565182Y0103783D01*
X0565182Y0102713D01*
X0565302Y0097083D02*
X0565302Y0090383D01*
X0565102Y0084283D02*
X0565102Y0083283D01*
X0564902Y0083283D01*
X0564902Y0083303D01*
X0545412Y0083303D01*
X0545412Y0084213D01*
X0545302Y0090183D02*
X0545302Y0093583D01*
X0555302Y0103583D01*
X0545302Y0096983D02*
X0545302Y0093583D01*
X0604467Y0142358D02*
X0604467Y0143268D01*
X0604467Y0142358D02*
X0623957Y0142358D01*
X0623957Y0142338D01*
X0624157Y0142338D01*
X0624157Y0143338D01*
X0624357Y0149438D02*
X0624357Y0156138D01*
X0624237Y0161768D02*
X0624237Y0162838D01*
X0624037Y0162838D01*
X0624037Y0162848D01*
X0604477Y0162848D01*
X0604477Y0161958D01*
X0604357Y0156038D02*
X0604357Y0152638D01*
X0614357Y0162638D01*
X0604357Y0152638D02*
X0604357Y0149238D01*
X0663412Y0149238D02*
X0663412Y0152638D01*
X0673412Y0162638D01*
X0683092Y0162838D02*
X0683092Y0162848D01*
X0663532Y0162848D01*
X0663532Y0161958D01*
X0663412Y0156038D02*
X0663412Y0152638D01*
X0683412Y0149438D02*
X0683412Y0156138D01*
X0683292Y0161768D02*
X0683292Y0162838D01*
X0683092Y0162838D01*
X0683212Y0143338D02*
X0683212Y0142338D01*
X0683012Y0142338D01*
X0683012Y0142358D01*
X0663522Y0142358D01*
X0663522Y0143268D01*
X0663532Y0103793D02*
X0663532Y0102903D01*
X0663532Y0103793D02*
X0683092Y0103793D01*
X0683092Y0103783D01*
X0683292Y0103783D01*
X0683292Y0102713D01*
X0683412Y0097083D02*
X0683412Y0090383D01*
X0683212Y0084283D02*
X0683212Y0083283D01*
X0683012Y0083283D01*
X0683012Y0083303D01*
X0663522Y0083303D01*
X0663522Y0084213D01*
X0663412Y0090183D02*
X0663412Y0093583D01*
X0673412Y0103583D01*
X0663412Y0096983D02*
X0663412Y0093583D01*
X0722467Y0093583D02*
X0722467Y0090183D01*
X0722467Y0093583D02*
X0732467Y0103583D01*
X0742147Y0103783D02*
X0742147Y0103793D01*
X0722587Y0103793D01*
X0722587Y0102903D01*
X0722467Y0096983D02*
X0722467Y0093583D01*
X0722577Y0084213D02*
X0722577Y0083303D01*
X0742067Y0083303D01*
X0742067Y0083283D01*
X0742267Y0083283D01*
X0742267Y0084283D01*
X0742467Y0090383D02*
X0742467Y0097083D01*
X0742347Y0102713D02*
X0742347Y0103783D01*
X0742147Y0103783D01*
X0786564Y0103793D02*
X0786564Y0102903D01*
X0786564Y0103793D02*
X0806124Y0103793D01*
X0806124Y0103783D01*
X0806324Y0103783D01*
X0806324Y0102713D01*
X0806444Y0097083D02*
X0806444Y0090383D01*
X0806244Y0084283D02*
X0806244Y0083283D01*
X0806044Y0083283D01*
X0806044Y0083303D01*
X0786554Y0083303D01*
X0786554Y0084213D01*
X0786444Y0090183D02*
X0786444Y0093583D01*
X0796444Y0103583D01*
X0786444Y0096983D02*
X0786444Y0093583D01*
X0840577Y0093583D02*
X0840577Y0090183D01*
X0840577Y0093583D02*
X0850577Y0103583D01*
X0860257Y0103783D02*
X0860257Y0103793D01*
X0840697Y0103793D01*
X0840697Y0102903D01*
X0840577Y0096983D02*
X0840577Y0093583D01*
X0860577Y0090383D02*
X0860577Y0097083D01*
X0860457Y0102713D02*
X0860457Y0103783D01*
X0860257Y0103783D01*
X0860377Y0084283D02*
X0860377Y0083283D01*
X0860177Y0083283D01*
X0860177Y0083303D01*
X0840687Y0083303D01*
X0840687Y0084213D01*
X0899743Y0084213D02*
X0899743Y0083303D01*
X0919233Y0083303D01*
X0919233Y0083283D01*
X0919433Y0083283D01*
X0919433Y0084283D01*
X0919633Y0090383D02*
X0919633Y0097083D01*
X0919513Y0102713D02*
X0919513Y0103783D01*
X0919313Y0103783D01*
X0919313Y0103793D01*
X0899753Y0103793D01*
X0899753Y0102903D01*
X0899633Y0096983D02*
X0899633Y0093583D01*
X0909633Y0103583D01*
X0899633Y0093583D02*
X0899633Y0090183D01*
X0958688Y0090183D02*
X0958688Y0093583D01*
X0968688Y0103583D01*
X0978368Y0103783D02*
X0978368Y0103793D01*
X0958808Y0103793D01*
X0958808Y0102903D01*
X0958688Y0096983D02*
X0958688Y0093583D01*
X0978688Y0090383D02*
X0978688Y0097083D01*
X0978568Y0102713D02*
X0978568Y0103783D01*
X0978368Y0103783D01*
X0978488Y0084283D02*
X0978488Y0083283D01*
X0978288Y0083283D01*
X0978288Y0083303D01*
X0958798Y0083303D01*
X0958798Y0084213D01*
X1017853Y0084213D02*
X1017853Y0083303D01*
X1037343Y0083303D01*
X1037343Y0083283D01*
X1037543Y0083283D01*
X1037543Y0084283D01*
X1037743Y0090383D02*
X1037743Y0097083D01*
X1037623Y0102713D02*
X1037623Y0103783D01*
X1037423Y0103783D01*
X1037423Y0103793D01*
X1017863Y0103793D01*
X1017863Y0102903D01*
X1017743Y0096983D02*
X1017743Y0093583D01*
X1027743Y0103583D01*
X1017743Y0093583D02*
X1017743Y0090183D01*
X1076798Y0090183D02*
X1076798Y0093583D01*
X1086798Y0103583D01*
X1096478Y0103783D02*
X1096478Y0103793D01*
X1076918Y0103793D01*
X1076918Y0102903D01*
X1076798Y0096983D02*
X1076798Y0093583D01*
X1076908Y0084213D02*
X1076908Y0083303D01*
X1096398Y0083303D01*
X1096398Y0083283D01*
X1096598Y0083283D01*
X1096598Y0084283D01*
X1096798Y0090383D02*
X1096798Y0097083D01*
X1096678Y0102713D02*
X1096678Y0103783D01*
X1096478Y0103783D01*
X1135973Y0103793D02*
X1135973Y0102903D01*
X1135973Y0103793D02*
X1155533Y0103793D01*
X1155533Y0103783D01*
X1155733Y0103783D01*
X1155733Y0102713D01*
X1155853Y0097083D02*
X1155853Y0090383D01*
X1155653Y0084283D02*
X1155653Y0083283D01*
X1155453Y0083283D01*
X1155453Y0083303D01*
X1135963Y0083303D01*
X1135963Y0084213D01*
X1135853Y0090183D02*
X1135853Y0093583D01*
X1145853Y0103583D01*
X1135853Y0096983D02*
X1135853Y0093583D01*
X1194908Y0093583D02*
X1194908Y0090183D01*
X1194908Y0093583D02*
X1204908Y0103583D01*
X1214588Y0103783D02*
X1214588Y0103793D01*
X1195028Y0103793D01*
X1195028Y0102903D01*
X1194908Y0096983D02*
X1194908Y0093583D01*
X1195018Y0084213D02*
X1195018Y0083303D01*
X1214508Y0083303D01*
X1214508Y0083283D01*
X1214708Y0083283D01*
X1214708Y0084283D01*
X1214908Y0090383D02*
X1214908Y0097083D01*
X1214788Y0102713D02*
X1214788Y0103783D01*
X1214588Y0103783D01*
X1214508Y0142338D02*
X1214508Y0142358D01*
X1195018Y0142358D01*
X1195018Y0143268D01*
X1194908Y0149238D02*
X1194908Y0152638D01*
X1204908Y0162638D01*
X1214588Y0162838D02*
X1214588Y0162848D01*
X1195028Y0162848D01*
X1195028Y0161958D01*
X1194908Y0156038D02*
X1194908Y0152638D01*
X1214908Y0149438D02*
X1214908Y0156138D01*
X1214788Y0161768D02*
X1214788Y0162838D01*
X1214588Y0162838D01*
X1214708Y0143338D02*
X1214708Y0142338D01*
X1214508Y0142338D01*
X1254073Y0142358D02*
X1254073Y0143268D01*
X1254073Y0142358D02*
X1273563Y0142358D01*
X1273563Y0142338D01*
X1273763Y0142338D01*
X1273763Y0143338D01*
X1273963Y0149438D02*
X1273963Y0156138D01*
X1273843Y0161768D02*
X1273843Y0162838D01*
X1273643Y0162838D01*
X1273643Y0162848D01*
X1254083Y0162848D01*
X1254083Y0161958D01*
X1253963Y0156038D02*
X1253963Y0152638D01*
X1263963Y0162638D01*
X1253963Y0152638D02*
X1253963Y0149238D01*
X1320233Y0137308D02*
X1321399Y0138242D01*
X1321399Y0134042D01*
X1320233Y0134042D02*
X1322566Y0134042D01*
X1324733Y0134042D02*
X1325899Y0134042D01*
X1325899Y0134041D02*
X1325966Y0134043D01*
X1326032Y0134049D01*
X1326098Y0134058D01*
X1326163Y0134071D01*
X1326228Y0134088D01*
X1326291Y0134109D01*
X1326353Y0134133D01*
X1326414Y0134161D01*
X1326473Y0134192D01*
X1326530Y0134226D01*
X1326585Y0134264D01*
X1326638Y0134305D01*
X1326688Y0134348D01*
X1326736Y0134395D01*
X1326781Y0134444D01*
X1326823Y0134495D01*
X1326862Y0134549D01*
X1326898Y0134605D01*
X1326931Y0134663D01*
X1326961Y0134723D01*
X1326986Y0134785D01*
X1327009Y0134847D01*
X1327028Y0134911D01*
X1327043Y0134976D01*
X1327054Y0135042D01*
X1327062Y0135108D01*
X1327066Y0135175D01*
X1327066Y0135241D01*
X1327062Y0135308D01*
X1327054Y0135374D01*
X1327043Y0135440D01*
X1327028Y0135505D01*
X1327009Y0135569D01*
X1326986Y0135631D01*
X1326961Y0135693D01*
X1326931Y0135753D01*
X1326898Y0135811D01*
X1326862Y0135867D01*
X1326823Y0135921D01*
X1326781Y0135972D01*
X1326736Y0136021D01*
X1326688Y0136068D01*
X1326638Y0136111D01*
X1326585Y0136152D01*
X1326530Y0136190D01*
X1326473Y0136224D01*
X1326414Y0136255D01*
X1326353Y0136283D01*
X1326291Y0136307D01*
X1326228Y0136328D01*
X1326163Y0136345D01*
X1326098Y0136358D01*
X1326032Y0136367D01*
X1325966Y0136373D01*
X1325899Y0136375D01*
X1326133Y0136375D02*
X1325199Y0136375D01*
X1326133Y0136375D02*
X1326193Y0136377D01*
X1326252Y0136383D01*
X1326311Y0136392D01*
X1326370Y0136406D01*
X1326427Y0136423D01*
X1326483Y0136443D01*
X1326538Y0136467D01*
X1326591Y0136495D01*
X1326642Y0136526D01*
X1326691Y0136560D01*
X1326738Y0136598D01*
X1326782Y0136638D01*
X1326824Y0136681D01*
X1326862Y0136726D01*
X1326898Y0136774D01*
X1326931Y0136824D01*
X1326960Y0136876D01*
X1326986Y0136930D01*
X1327009Y0136986D01*
X1327027Y0137043D01*
X1327043Y0137100D01*
X1327054Y0137159D01*
X1327062Y0137218D01*
X1327066Y0137278D01*
X1327066Y0137338D01*
X1327062Y0137398D01*
X1327054Y0137457D01*
X1327043Y0137516D01*
X1327027Y0137573D01*
X1327009Y0137630D01*
X1326986Y0137686D01*
X1326960Y0137740D01*
X1326931Y0137792D01*
X1326898Y0137842D01*
X1326862Y0137890D01*
X1326824Y0137935D01*
X1326782Y0137978D01*
X1326738Y0138018D01*
X1326691Y0138056D01*
X1326642Y0138090D01*
X1326591Y0138121D01*
X1326538Y0138149D01*
X1326483Y0138173D01*
X1326427Y0138193D01*
X1326370Y0138210D01*
X1326311Y0138224D01*
X1326252Y0138233D01*
X1326193Y0138239D01*
X1326133Y0138241D01*
X1326133Y0138242D02*
X1324733Y0138242D01*
X1329383Y0138242D02*
X1331716Y0134042D01*
X1331716Y0138242D01*
X1329383Y0138242D02*
X1329383Y0134042D01*
X1334226Y0134042D02*
X1334226Y0138242D01*
X1335393Y0138242D01*
X1335460Y0138240D01*
X1335526Y0138234D01*
X1335592Y0138225D01*
X1335657Y0138212D01*
X1335722Y0138195D01*
X1335785Y0138174D01*
X1335847Y0138150D01*
X1335908Y0138122D01*
X1335967Y0138091D01*
X1336024Y0138057D01*
X1336079Y0138019D01*
X1336132Y0137978D01*
X1336182Y0137935D01*
X1336230Y0137888D01*
X1336275Y0137839D01*
X1336317Y0137788D01*
X1336356Y0137734D01*
X1336392Y0137678D01*
X1336425Y0137620D01*
X1336455Y0137560D01*
X1336480Y0137498D01*
X1336503Y0137436D01*
X1336522Y0137372D01*
X1336537Y0137307D01*
X1336548Y0137241D01*
X1336556Y0137175D01*
X1336560Y0137108D01*
X1336560Y0137042D01*
X1336556Y0136975D01*
X1336548Y0136909D01*
X1336537Y0136843D01*
X1336522Y0136778D01*
X1336503Y0136714D01*
X1336480Y0136652D01*
X1336455Y0136590D01*
X1336425Y0136530D01*
X1336392Y0136472D01*
X1336356Y0136416D01*
X1336317Y0136362D01*
X1336275Y0136311D01*
X1336230Y0136262D01*
X1336182Y0136215D01*
X1336132Y0136172D01*
X1336079Y0136131D01*
X1336024Y0136093D01*
X1335967Y0136059D01*
X1335908Y0136028D01*
X1335847Y0136000D01*
X1335785Y0135976D01*
X1335722Y0135955D01*
X1335657Y0135938D01*
X1335592Y0135925D01*
X1335526Y0135916D01*
X1335460Y0135910D01*
X1335393Y0135908D01*
X1334226Y0135908D01*
X1335626Y0135908D02*
X1336559Y0134042D01*
X1273763Y0201393D02*
X1273563Y0201393D01*
X1273563Y0201413D01*
X1254073Y0201413D01*
X1254073Y0202323D01*
X1253963Y0208293D02*
X1253963Y0211693D01*
X1263963Y0221693D01*
X1273643Y0221893D02*
X1273643Y0221903D01*
X1254083Y0221903D01*
X1254083Y0221013D01*
X1253963Y0215093D02*
X1253963Y0211693D01*
X1273963Y0208493D02*
X1273963Y0215193D01*
X1273843Y0220823D02*
X1273843Y0221893D01*
X1273643Y0221893D01*
X1273763Y0202393D02*
X1273763Y0201393D01*
X1214708Y0201393D02*
X1214508Y0201393D01*
X1214508Y0201413D01*
X1195018Y0201413D01*
X1195018Y0202323D01*
X1194908Y0208293D02*
X1194908Y0211693D01*
X1204908Y0221693D01*
X1214588Y0221893D02*
X1214588Y0221903D01*
X1195028Y0221903D01*
X1195028Y0221013D01*
X1194908Y0215093D02*
X1194908Y0211693D01*
X1214908Y0208493D02*
X1214908Y0215193D01*
X1214788Y0220823D02*
X1214788Y0221893D01*
X1214588Y0221893D01*
X1214708Y0202393D02*
X1214708Y0201393D01*
X1155653Y0201393D02*
X1155453Y0201393D01*
X1155453Y0201413D01*
X1135963Y0201413D01*
X1135963Y0202323D01*
X1135853Y0208293D02*
X1135853Y0211693D01*
X1145853Y0221693D01*
X1155533Y0221893D02*
X1155533Y0221903D01*
X1135973Y0221903D01*
X1135973Y0221013D01*
X1135853Y0215093D02*
X1135853Y0211693D01*
X1155853Y0208493D02*
X1155853Y0215193D01*
X1155733Y0220823D02*
X1155733Y0221893D01*
X1155533Y0221893D01*
X1155653Y0202393D02*
X1155653Y0201393D01*
X1155533Y0162848D02*
X1135973Y0162848D01*
X1135973Y0161958D01*
X1135853Y0156038D02*
X1135853Y0152638D01*
X1145853Y0162638D01*
X1155533Y0162838D02*
X1155533Y0162848D01*
X1155533Y0162838D02*
X1155733Y0162838D01*
X1155733Y0161768D01*
X1155853Y0156138D02*
X1155853Y0149438D01*
X1155653Y0143338D02*
X1155653Y0142338D01*
X1155453Y0142338D01*
X1155453Y0142358D01*
X1135963Y0142358D01*
X1135963Y0143268D01*
X1135853Y0149238D02*
X1135853Y0152638D01*
X1096798Y0149438D02*
X1096798Y0156138D01*
X1096678Y0161768D02*
X1096678Y0162838D01*
X1096478Y0162838D01*
X1096478Y0162848D01*
X1076918Y0162848D01*
X1076918Y0161958D01*
X1076798Y0156038D02*
X1076798Y0152638D01*
X1086798Y0162638D01*
X1076798Y0152638D02*
X1076798Y0149238D01*
X1076908Y0143268D02*
X1076908Y0142358D01*
X1096398Y0142358D01*
X1096398Y0142338D01*
X1096598Y0142338D01*
X1096598Y0143338D01*
X1037543Y0143338D02*
X1037543Y0142338D01*
X1037343Y0142338D01*
X1037343Y0142358D01*
X1017853Y0142358D01*
X1017853Y0143268D01*
X1017743Y0149238D02*
X1017743Y0152638D01*
X1027743Y0162638D01*
X1037423Y0162838D02*
X1037423Y0162848D01*
X1017863Y0162848D01*
X1017863Y0161958D01*
X1017743Y0156038D02*
X1017743Y0152638D01*
X1037423Y0162838D02*
X1037623Y0162838D01*
X1037623Y0161768D01*
X1037743Y0156138D02*
X1037743Y0149438D01*
X0978688Y0149438D02*
X0978688Y0156138D01*
X0978568Y0161768D02*
X0978568Y0162838D01*
X0978368Y0162838D01*
X0978368Y0162848D01*
X0958808Y0162848D01*
X0958808Y0161958D01*
X0958688Y0156038D02*
X0958688Y0152638D01*
X0968688Y0162638D01*
X0958688Y0152638D02*
X0958688Y0149238D01*
X0958798Y0143268D02*
X0958798Y0142358D01*
X0978288Y0142358D01*
X0978288Y0142338D01*
X0978488Y0142338D01*
X0978488Y0143338D01*
X0919433Y0143338D02*
X0919433Y0142338D01*
X0919233Y0142338D01*
X0919233Y0142358D01*
X0899743Y0142358D01*
X0899743Y0143268D01*
X0899633Y0149238D02*
X0899633Y0152638D01*
X0909633Y0162638D01*
X0919313Y0162838D02*
X0919313Y0162848D01*
X0899753Y0162848D01*
X0899753Y0161958D01*
X0899633Y0156038D02*
X0899633Y0152638D01*
X0919633Y0149438D02*
X0919633Y0156138D01*
X0919513Y0161768D02*
X0919513Y0162838D01*
X0919313Y0162838D01*
X0919233Y0201393D02*
X0919233Y0201413D01*
X0899743Y0201413D01*
X0899743Y0202323D01*
X0899633Y0208293D02*
X0899633Y0211693D01*
X0909633Y0221693D01*
X0919313Y0221893D02*
X0919313Y0221903D01*
X0899753Y0221903D01*
X0899753Y0221013D01*
X0899633Y0215093D02*
X0899633Y0211693D01*
X0919633Y0208493D02*
X0919633Y0215193D01*
X0919513Y0220823D02*
X0919513Y0221893D01*
X0919313Y0221893D01*
X0919433Y0202393D02*
X0919433Y0201393D01*
X0919233Y0201393D01*
X0958798Y0201413D02*
X0958798Y0202323D01*
X0958798Y0201413D02*
X0978288Y0201413D01*
X0978288Y0201393D01*
X0978488Y0201393D01*
X0978488Y0202393D01*
X0978688Y0208493D02*
X0978688Y0215193D01*
X0978568Y0220823D02*
X0978568Y0221893D01*
X0978368Y0221893D01*
X0978368Y0221903D01*
X0958808Y0221903D01*
X0958808Y0221013D01*
X0958688Y0215093D02*
X0958688Y0211693D01*
X0968688Y0221693D01*
X0958688Y0211693D02*
X0958688Y0208293D01*
X1017743Y0208293D02*
X1017743Y0211693D01*
X1027743Y0221693D01*
X1037423Y0221893D02*
X1037423Y0221903D01*
X1017863Y0221903D01*
X1017863Y0221013D01*
X1017743Y0215093D02*
X1017743Y0211693D01*
X1037423Y0221893D02*
X1037623Y0221893D01*
X1037623Y0220823D01*
X1037743Y0215193D02*
X1037743Y0208493D01*
X1037543Y0202393D02*
X1037543Y0201393D01*
X1037343Y0201393D01*
X1037343Y0201413D01*
X1017853Y0201413D01*
X1017853Y0202323D01*
X1076908Y0202323D02*
X1076908Y0201413D01*
X1096398Y0201413D01*
X1096398Y0201393D01*
X1096598Y0201393D01*
X1096598Y0202393D01*
X1096798Y0208493D02*
X1096798Y0215193D01*
X1096678Y0220823D02*
X1096678Y0221893D01*
X1096478Y0221893D01*
X1096478Y0221903D01*
X1076918Y0221903D01*
X1076918Y0221013D01*
X1076798Y0215093D02*
X1076798Y0211693D01*
X1086798Y0221693D01*
X1076798Y0211693D02*
X1076798Y0208293D01*
X1076908Y0260468D02*
X1076908Y0261378D01*
X1076908Y0260468D02*
X1096398Y0260468D01*
X1096398Y0260448D01*
X1096598Y0260448D01*
X1096598Y0261448D01*
X1096798Y0267548D02*
X1096798Y0274248D01*
X1096678Y0279878D02*
X1096678Y0280948D01*
X1096478Y0280948D01*
X1096478Y0280958D01*
X1076918Y0280958D01*
X1076918Y0280068D01*
X1076798Y0274148D02*
X1076798Y0270748D01*
X1086798Y0280748D01*
X1076798Y0270748D02*
X1076798Y0267348D01*
X1037743Y0267548D02*
X1037743Y0274248D01*
X1037623Y0279878D02*
X1037623Y0280948D01*
X1037423Y0280948D01*
X1037423Y0280958D01*
X1017863Y0280958D01*
X1017863Y0280068D01*
X1017743Y0274148D02*
X1017743Y0270748D01*
X1027743Y0280748D01*
X1017743Y0270748D02*
X1017743Y0267348D01*
X1017853Y0261378D02*
X1017853Y0260468D01*
X1037343Y0260468D01*
X1037343Y0260448D01*
X1037543Y0260448D01*
X1037543Y0261448D01*
X0978488Y0261448D02*
X0978488Y0260448D01*
X0978288Y0260448D01*
X0978288Y0260468D01*
X0958798Y0260468D01*
X0958798Y0261378D01*
X0958688Y0267348D02*
X0958688Y0270748D01*
X0968688Y0280748D01*
X0978368Y0280948D02*
X0978368Y0280958D01*
X0958808Y0280958D01*
X0958808Y0280068D01*
X0958688Y0274148D02*
X0958688Y0270748D01*
X0978688Y0267548D02*
X0978688Y0274248D01*
X0978568Y0279878D02*
X0978568Y0280948D01*
X0978368Y0280948D01*
X0978288Y0319503D02*
X0978288Y0319523D01*
X0958798Y0319523D01*
X0958798Y0320433D01*
X0958688Y0326403D02*
X0958688Y0329803D01*
X0968688Y0339803D01*
X0978368Y0340003D02*
X0978368Y0340013D01*
X0958808Y0340013D01*
X0958808Y0339123D01*
X0958688Y0333203D02*
X0958688Y0329803D01*
X0978688Y0326603D02*
X0978688Y0333303D01*
X0978568Y0338933D02*
X0978568Y0340003D01*
X0978368Y0340003D01*
X0978488Y0320503D02*
X0978488Y0319503D01*
X0978288Y0319503D01*
X1017853Y0319523D02*
X1017853Y0320433D01*
X1017853Y0319523D02*
X1037343Y0319523D01*
X1037343Y0319503D01*
X1037543Y0319503D01*
X1037543Y0320503D01*
X1037743Y0326603D02*
X1037743Y0333303D01*
X1037623Y0338933D02*
X1037623Y0340003D01*
X1037423Y0340003D01*
X1037423Y0340013D01*
X1017863Y0340013D01*
X1017863Y0339123D01*
X1017743Y0333203D02*
X1017743Y0329803D01*
X1027743Y0339803D01*
X1017743Y0329803D02*
X1017743Y0326403D01*
X1076798Y0326403D02*
X1076798Y0329803D01*
X1086798Y0339803D01*
X1096478Y0340003D02*
X1096478Y0340013D01*
X1076918Y0340013D01*
X1076918Y0339123D01*
X1076798Y0333203D02*
X1076798Y0329803D01*
X1076908Y0320433D02*
X1076908Y0319523D01*
X1096398Y0319523D01*
X1096398Y0319503D01*
X1096598Y0319503D01*
X1096598Y0320503D01*
X1096798Y0326603D02*
X1096798Y0333303D01*
X1096678Y0338933D02*
X1096678Y0340003D01*
X1096478Y0340003D01*
X1135973Y0340013D02*
X1135973Y0339123D01*
X1135973Y0340013D02*
X1155533Y0340013D01*
X1155533Y0340003D01*
X1155733Y0340003D01*
X1155733Y0338933D01*
X1155853Y0333303D02*
X1155853Y0326603D01*
X1155653Y0320503D02*
X1155653Y0319503D01*
X1155453Y0319503D01*
X1155453Y0319523D01*
X1135963Y0319523D01*
X1135963Y0320433D01*
X1135853Y0326403D02*
X1135853Y0329803D01*
X1145853Y0339803D01*
X1135853Y0333203D02*
X1135853Y0329803D01*
X1194908Y0329803D02*
X1194908Y0326403D01*
X1194908Y0329803D02*
X1204908Y0339803D01*
X1214588Y0340003D02*
X1214588Y0340013D01*
X1195028Y0340013D01*
X1195028Y0339123D01*
X1194908Y0333203D02*
X1194908Y0329803D01*
X1195018Y0320433D02*
X1195018Y0319523D01*
X1214508Y0319523D01*
X1214508Y0319503D01*
X1214708Y0319503D01*
X1214708Y0320503D01*
X1214908Y0326603D02*
X1214908Y0333303D01*
X1214788Y0338933D02*
X1214788Y0340003D01*
X1214588Y0340003D01*
X1254083Y0340013D02*
X1254083Y0339123D01*
X1254083Y0340013D02*
X1273643Y0340013D01*
X1273643Y0340003D01*
X1273843Y0340003D01*
X1273843Y0338933D01*
X1273963Y0333303D02*
X1273963Y0326603D01*
X1273763Y0320503D02*
X1273763Y0319503D01*
X1273563Y0319503D01*
X1273563Y0319523D01*
X1254073Y0319523D01*
X1254073Y0320433D01*
X1253963Y0326403D02*
X1253963Y0329803D01*
X1263963Y0339803D01*
X1253963Y0333203D02*
X1253963Y0329803D01*
X1254073Y0378578D02*
X1254073Y0379488D01*
X1254073Y0378578D02*
X1273563Y0378578D01*
X1273563Y0378558D01*
X1273763Y0378558D01*
X1273763Y0379558D01*
X1273963Y0385658D02*
X1273963Y0392358D01*
X1273843Y0397988D02*
X1273843Y0399058D01*
X1273643Y0399058D01*
X1273643Y0399068D01*
X1254083Y0399068D01*
X1254083Y0398178D01*
X1253963Y0392258D02*
X1253963Y0388858D01*
X1263963Y0398858D01*
X1253963Y0388858D02*
X1253963Y0385458D01*
X1214908Y0385658D02*
X1214908Y0392358D01*
X1214788Y0397988D02*
X1214788Y0399058D01*
X1214588Y0399058D01*
X1214588Y0399068D01*
X1195028Y0399068D01*
X1195028Y0398178D01*
X1194908Y0392258D02*
X1194908Y0388858D01*
X1204908Y0398858D01*
X1194908Y0388858D02*
X1194908Y0385458D01*
X1195018Y0379488D02*
X1195018Y0378578D01*
X1214508Y0378578D01*
X1214508Y0378558D01*
X1214708Y0378558D01*
X1214708Y0379558D01*
X1155653Y0379558D02*
X1155653Y0378558D01*
X1155453Y0378558D01*
X1155453Y0378578D01*
X1135963Y0378578D01*
X1135963Y0379488D01*
X1135853Y0385458D02*
X1135853Y0388858D01*
X1145853Y0398858D01*
X1155533Y0399058D02*
X1155533Y0399068D01*
X1135973Y0399068D01*
X1135973Y0398178D01*
X1135853Y0392258D02*
X1135853Y0388858D01*
X1155853Y0385658D02*
X1155853Y0392358D01*
X1155733Y0397988D02*
X1155733Y0399058D01*
X1155533Y0399058D01*
X1155453Y0437613D02*
X1155453Y0437633D01*
X1135963Y0437633D01*
X1135963Y0438543D01*
X1135853Y0444513D02*
X1135853Y0447913D01*
X1145853Y0457913D01*
X1155533Y0458113D02*
X1155533Y0458123D01*
X1135973Y0458123D01*
X1135973Y0457233D01*
X1135853Y0451313D02*
X1135853Y0447913D01*
X1155853Y0444713D02*
X1155853Y0451413D01*
X1155733Y0457043D02*
X1155733Y0458113D01*
X1155533Y0458113D01*
X1155653Y0438613D02*
X1155653Y0437613D01*
X1155453Y0437613D01*
X1195018Y0437633D02*
X1195018Y0438543D01*
X1195018Y0437633D02*
X1214508Y0437633D01*
X1214508Y0437613D01*
X1214708Y0437613D01*
X1214708Y0438613D01*
X1214908Y0444713D02*
X1214908Y0451413D01*
X1214788Y0457043D02*
X1214788Y0458113D01*
X1214588Y0458113D01*
X1214588Y0458123D01*
X1195028Y0458123D01*
X1195028Y0457233D01*
X1194908Y0451313D02*
X1194908Y0447913D01*
X1204908Y0457913D01*
X1194908Y0447913D02*
X1194908Y0444513D01*
X1253963Y0444513D02*
X1253963Y0447913D01*
X1263963Y0457913D01*
X1273643Y0458113D02*
X1273643Y0458123D01*
X1254083Y0458123D01*
X1254083Y0457233D01*
X1253963Y0451313D02*
X1253963Y0447913D01*
X1273963Y0444713D02*
X1273963Y0451413D01*
X1273843Y0457043D02*
X1273843Y0458113D01*
X1273643Y0458113D01*
X1273763Y0438613D02*
X1273763Y0437613D01*
X1273563Y0437613D01*
X1273563Y0437633D01*
X1254073Y0437633D01*
X1254073Y0438543D01*
X1254073Y0496688D02*
X1254073Y0497598D01*
X1254073Y0496688D02*
X1273563Y0496688D01*
X1273563Y0496668D01*
X1273763Y0496668D01*
X1273763Y0497668D01*
X1273963Y0503769D02*
X1273963Y0510469D01*
X1273843Y0516099D02*
X1273843Y0517169D01*
X1273643Y0517169D01*
X1273643Y0517179D01*
X1254083Y0517179D01*
X1254083Y0516289D01*
X1253963Y0510369D02*
X1253963Y0506969D01*
X1263963Y0516969D01*
X1253963Y0506969D02*
X1253963Y0503569D01*
X1214908Y0503769D02*
X1214908Y0510469D01*
X1214788Y0516099D02*
X1214788Y0517169D01*
X1214588Y0517169D01*
X1214588Y0517179D01*
X1195028Y0517179D01*
X1195028Y0516289D01*
X1194908Y0510369D02*
X1194908Y0506969D01*
X1204908Y0516969D01*
X1194908Y0506969D02*
X1194908Y0503569D01*
X1195018Y0497598D02*
X1195018Y0496688D01*
X1214508Y0496688D01*
X1214508Y0496668D01*
X1214708Y0496668D01*
X1214708Y0497668D01*
X1155653Y0497668D02*
X1155653Y0496668D01*
X1155453Y0496668D01*
X1155453Y0496688D01*
X1135963Y0496688D01*
X1135963Y0497598D01*
X1135853Y0503569D02*
X1135853Y0506969D01*
X1145853Y0516969D01*
X1155533Y0517169D02*
X1155533Y0517179D01*
X1135973Y0517179D01*
X1135973Y0516289D01*
X1135853Y0510369D02*
X1135853Y0506969D01*
X1155853Y0503769D02*
X1155853Y0510469D01*
X1155733Y0516099D02*
X1155733Y0517169D01*
X1155533Y0517169D01*
X1155453Y0555724D02*
X1155453Y0555744D01*
X1135963Y0555744D01*
X1135963Y0556654D01*
X1135853Y0562624D02*
X1135853Y0566024D01*
X1145853Y0576024D01*
X1155533Y0576224D02*
X1155533Y0576234D01*
X1135973Y0576234D01*
X1135973Y0575344D01*
X1135853Y0569424D02*
X1135853Y0566024D01*
X1155853Y0562824D02*
X1155853Y0569524D01*
X1155733Y0575154D02*
X1155733Y0576224D01*
X1155533Y0576224D01*
X1155653Y0556724D02*
X1155653Y0555724D01*
X1155453Y0555724D01*
X1195018Y0555744D02*
X1195018Y0556654D01*
X1195018Y0555744D02*
X1214508Y0555744D01*
X1214508Y0555724D01*
X1214708Y0555724D01*
X1214708Y0556724D01*
X1214908Y0562824D02*
X1214908Y0569524D01*
X1214788Y0575154D02*
X1214788Y0576224D01*
X1214588Y0576224D01*
X1214588Y0576234D01*
X1195028Y0576234D01*
X1195028Y0575344D01*
X1194908Y0569424D02*
X1194908Y0566024D01*
X1204908Y0576024D01*
X1194908Y0566024D02*
X1194908Y0562624D01*
X1253963Y0562624D02*
X1253963Y0566024D01*
X1263963Y0576024D01*
X1273643Y0576224D02*
X1273643Y0576234D01*
X1254083Y0576234D01*
X1254083Y0575344D01*
X1253963Y0569424D02*
X1253963Y0566024D01*
X1273963Y0562824D02*
X1273963Y0569524D01*
X1273843Y0575154D02*
X1273843Y0576224D01*
X1273643Y0576224D01*
X1273763Y0556724D02*
X1273763Y0555724D01*
X1273563Y0555724D01*
X1273563Y0555744D01*
X1254073Y0555744D01*
X1254073Y0556654D01*
X1254073Y0614799D02*
X1254073Y0615709D01*
X1254073Y0614799D02*
X1273563Y0614799D01*
X1273563Y0614779D01*
X1273763Y0614779D01*
X1273763Y0615779D01*
X1273963Y0621879D02*
X1273963Y0628579D01*
X1273843Y0634209D02*
X1273843Y0635279D01*
X1273643Y0635279D01*
X1273643Y0635289D01*
X1254083Y0635289D01*
X1254083Y0634399D01*
X1253963Y0628479D02*
X1253963Y0625079D01*
X1263963Y0635079D01*
X1253963Y0625079D02*
X1253963Y0621679D01*
X1214908Y0621879D02*
X1214908Y0628579D01*
X1214788Y0634209D02*
X1214788Y0635279D01*
X1214588Y0635279D01*
X1214588Y0635289D01*
X1195028Y0635289D01*
X1195028Y0634399D01*
X1194908Y0628479D02*
X1194908Y0625079D01*
X1204908Y0635079D01*
X1194908Y0625079D02*
X1194908Y0621679D01*
X1195018Y0615709D02*
X1195018Y0614799D01*
X1214508Y0614799D01*
X1214508Y0614779D01*
X1214708Y0614779D01*
X1214708Y0615779D01*
X1155653Y0615779D02*
X1155653Y0614779D01*
X1155453Y0614779D01*
X1155453Y0614799D01*
X1135963Y0614799D01*
X1135963Y0615709D01*
X1135853Y0621679D02*
X1135853Y0625079D01*
X1145853Y0635079D01*
X1155533Y0635279D02*
X1155533Y0635289D01*
X1135973Y0635289D01*
X1135973Y0634399D01*
X1135853Y0628479D02*
X1135853Y0625079D01*
X1155853Y0621879D02*
X1155853Y0628579D01*
X1155733Y0634209D02*
X1155733Y0635279D01*
X1155533Y0635279D01*
X1155453Y0673834D02*
X1155453Y0673854D01*
X1135963Y0673854D01*
X1135963Y0674764D01*
X1135853Y0680734D02*
X1135853Y0684134D01*
X1145853Y0694134D01*
X1155533Y0694334D02*
X1155533Y0694344D01*
X1135973Y0694344D01*
X1135973Y0693454D01*
X1135853Y0687534D02*
X1135853Y0684134D01*
X1155853Y0680934D02*
X1155853Y0687634D01*
X1155733Y0693264D02*
X1155733Y0694334D01*
X1155533Y0694334D01*
X1155653Y0674834D02*
X1155653Y0673834D01*
X1155453Y0673834D01*
X1195018Y0673854D02*
X1195018Y0674764D01*
X1195018Y0673854D02*
X1214508Y0673854D01*
X1214508Y0673834D01*
X1214708Y0673834D01*
X1214708Y0674834D01*
X1214908Y0680934D02*
X1214908Y0687634D01*
X1214788Y0693264D02*
X1214788Y0694334D01*
X1214588Y0694334D01*
X1214588Y0694344D01*
X1195028Y0694344D01*
X1195028Y0693454D01*
X1194908Y0687534D02*
X1194908Y0684134D01*
X1204908Y0694134D01*
X1194908Y0684134D02*
X1194908Y0680734D01*
X1253963Y0680734D02*
X1253963Y0684134D01*
X1263963Y0694134D01*
X1273643Y0694334D02*
X1273643Y0694344D01*
X1254083Y0694344D01*
X1254083Y0693454D01*
X1253963Y0687534D02*
X1253963Y0684134D01*
X1273963Y0680934D02*
X1273963Y0687634D01*
X1273843Y0693264D02*
X1273843Y0694334D01*
X1273643Y0694334D01*
X1273763Y0674834D02*
X1273763Y0673834D01*
X1273563Y0673834D01*
X1273563Y0673854D01*
X1254073Y0673854D01*
X1254073Y0674764D01*
X1254073Y0732909D02*
X1254073Y0733819D01*
X1254073Y0732909D02*
X1273563Y0732909D01*
X1273563Y0732889D01*
X1273763Y0732889D01*
X1273763Y0733889D01*
X1273963Y0739989D02*
X1273963Y0746689D01*
X1273843Y0752319D02*
X1273843Y0753389D01*
X1273643Y0753389D01*
X1273643Y0753399D01*
X1254083Y0753399D01*
X1254083Y0752509D01*
X1253963Y0746589D02*
X1253963Y0743189D01*
X1263963Y0753189D01*
X1253963Y0743189D02*
X1253963Y0739789D01*
X1214908Y0739989D02*
X1214908Y0746689D01*
X1214788Y0752319D02*
X1214788Y0753389D01*
X1214588Y0753389D01*
X1214588Y0753399D01*
X1195028Y0753399D01*
X1195028Y0752509D01*
X1194908Y0746589D02*
X1194908Y0743189D01*
X1204908Y0753189D01*
X1194908Y0743189D02*
X1194908Y0739789D01*
X1195018Y0733819D02*
X1195018Y0732909D01*
X1214508Y0732909D01*
X1214508Y0732889D01*
X1214708Y0732889D01*
X1214708Y0733889D01*
X1155653Y0733889D02*
X1155653Y0732889D01*
X1155453Y0732889D01*
X1155453Y0732909D01*
X1135963Y0732909D01*
X1135963Y0733819D01*
X1135853Y0739789D02*
X1135853Y0743189D01*
X1145853Y0753189D01*
X1155533Y0753389D02*
X1155533Y0753399D01*
X1135973Y0753399D01*
X1135973Y0752509D01*
X1135853Y0746589D02*
X1135853Y0743189D01*
X1155853Y0739989D02*
X1155853Y0746689D01*
X1155733Y0752319D02*
X1155733Y0753389D01*
X1155533Y0753389D01*
X1155453Y0791944D02*
X1155453Y0791964D01*
X1135963Y0791964D01*
X1135963Y0792874D01*
X1135853Y0798844D02*
X1135853Y0802244D01*
X1145853Y0812244D01*
X1155533Y0812444D02*
X1155533Y0812454D01*
X1135973Y0812454D01*
X1135973Y0811564D01*
X1135853Y0805644D02*
X1135853Y0802244D01*
X1155853Y0799044D02*
X1155853Y0805744D01*
X1155733Y0811374D02*
X1155733Y0812444D01*
X1155533Y0812444D01*
X1155653Y0792944D02*
X1155653Y0791944D01*
X1155453Y0791944D01*
X1195018Y0791964D02*
X1195018Y0792874D01*
X1195018Y0791964D02*
X1214508Y0791964D01*
X1214508Y0791944D01*
X1214708Y0791944D01*
X1214708Y0792944D01*
X1214908Y0799044D02*
X1214908Y0805744D01*
X1214788Y0811374D02*
X1214788Y0812444D01*
X1214588Y0812444D01*
X1214588Y0812454D01*
X1195028Y0812454D01*
X1195028Y0811564D01*
X1194908Y0805644D02*
X1194908Y0802244D01*
X1204908Y0812244D01*
X1194908Y0802244D02*
X1194908Y0798844D01*
X1096798Y0799044D02*
X1096798Y0805744D01*
X1096678Y0811374D02*
X1096678Y0812444D01*
X1096478Y0812444D01*
X1096478Y0812454D01*
X1076918Y0812454D01*
X1076918Y0811564D01*
X1076798Y0805644D02*
X1076798Y0802244D01*
X1086798Y0812244D01*
X1076798Y0802244D02*
X1076798Y0798844D01*
X1076908Y0792874D02*
X1076908Y0791964D01*
X1096398Y0791964D01*
X1096398Y0791944D01*
X1096598Y0791944D01*
X1096598Y0792944D01*
X1096478Y0753399D02*
X1076918Y0753399D01*
X1076918Y0752509D01*
X1076798Y0746589D02*
X1076798Y0743189D01*
X1086798Y0753189D01*
X1096478Y0753389D02*
X1096478Y0753399D01*
X1096478Y0753389D02*
X1096678Y0753389D01*
X1096678Y0752319D01*
X1096798Y0746689D02*
X1096798Y0739989D01*
X1096598Y0733889D02*
X1096598Y0732889D01*
X1096398Y0732889D01*
X1096398Y0732909D01*
X1076908Y0732909D01*
X1076908Y0733819D01*
X1076798Y0739789D02*
X1076798Y0743189D01*
X1037743Y0739989D02*
X1037743Y0746689D01*
X1037623Y0752319D02*
X1037623Y0753389D01*
X1037423Y0753389D01*
X1037423Y0753399D01*
X1017863Y0753399D01*
X1017863Y0752509D01*
X1017743Y0746589D02*
X1017743Y0743189D01*
X1027743Y0753189D01*
X1017743Y0743189D02*
X1017743Y0739789D01*
X1017853Y0733819D02*
X1017853Y0732909D01*
X1037343Y0732909D01*
X1037343Y0732889D01*
X1037543Y0732889D01*
X1037543Y0733889D01*
X1037423Y0694344D02*
X1017863Y0694344D01*
X1017863Y0693454D01*
X1017743Y0687534D02*
X1017743Y0684134D01*
X1027743Y0694134D01*
X1037423Y0694334D02*
X1037423Y0694344D01*
X1037423Y0694334D02*
X1037623Y0694334D01*
X1037623Y0693264D01*
X1037743Y0687634D02*
X1037743Y0680934D01*
X1037543Y0674834D02*
X1037543Y0673834D01*
X1037343Y0673834D01*
X1037343Y0673854D01*
X1017853Y0673854D01*
X1017853Y0674764D01*
X1017743Y0680734D02*
X1017743Y0684134D01*
X0978688Y0680934D02*
X0978688Y0687634D01*
X0978568Y0693264D02*
X0978568Y0694334D01*
X0978368Y0694334D01*
X0978368Y0694344D01*
X0958808Y0694344D01*
X0958808Y0693454D01*
X0958688Y0687534D02*
X0958688Y0684134D01*
X0968688Y0694134D01*
X0958688Y0684134D02*
X0958688Y0680734D01*
X0958798Y0674764D02*
X0958798Y0673854D01*
X0978288Y0673854D01*
X0978288Y0673834D01*
X0978488Y0673834D01*
X0978488Y0674834D01*
X0978368Y0635289D02*
X0958808Y0635289D01*
X0958808Y0634399D01*
X0958688Y0628479D02*
X0958688Y0625079D01*
X0968688Y0635079D01*
X0978368Y0635279D02*
X0978368Y0635289D01*
X0978368Y0635279D02*
X0978568Y0635279D01*
X0978568Y0634209D01*
X0978688Y0628579D02*
X0978688Y0621879D01*
X0978488Y0615779D02*
X0978488Y0614779D01*
X0978288Y0614779D01*
X0978288Y0614799D01*
X0958798Y0614799D01*
X0958798Y0615709D01*
X0958688Y0621679D02*
X0958688Y0625079D01*
X0919633Y0621879D02*
X0919633Y0628579D01*
X0919513Y0634209D02*
X0919513Y0635279D01*
X0919313Y0635279D01*
X0919313Y0635289D01*
X0899753Y0635289D01*
X0899753Y0634399D01*
X0899633Y0628479D02*
X0899633Y0625079D01*
X0909633Y0635079D01*
X0899633Y0625079D02*
X0899633Y0621679D01*
X0899743Y0615709D02*
X0899743Y0614799D01*
X0919233Y0614799D01*
X0919233Y0614779D01*
X0919433Y0614779D01*
X0919433Y0615779D01*
X0919313Y0576234D02*
X0899753Y0576234D01*
X0899753Y0575344D01*
X0899633Y0569424D02*
X0899633Y0566024D01*
X0909633Y0576024D01*
X0919313Y0576224D02*
X0919313Y0576234D01*
X0919313Y0576224D02*
X0919513Y0576224D01*
X0919513Y0575154D01*
X0919633Y0569524D02*
X0919633Y0562824D01*
X0919433Y0556724D02*
X0919433Y0555724D01*
X0919233Y0555724D01*
X0919233Y0555744D01*
X0899743Y0555744D01*
X0899743Y0556654D01*
X0899633Y0562624D02*
X0899633Y0566024D01*
X0860577Y0562824D02*
X0860577Y0569524D01*
X0860457Y0575154D02*
X0860457Y0576224D01*
X0860257Y0576224D01*
X0860257Y0576234D01*
X0840697Y0576234D01*
X0840697Y0575344D01*
X0840577Y0569424D02*
X0840577Y0566024D01*
X0850577Y0576024D01*
X0840577Y0566024D02*
X0840577Y0562624D01*
X0840687Y0556654D02*
X0840687Y0555744D01*
X0860177Y0555744D01*
X0860177Y0555724D01*
X0860377Y0555724D01*
X0860377Y0556724D01*
X0860257Y0517179D02*
X0840697Y0517179D01*
X0840697Y0516289D01*
X0840577Y0510369D02*
X0840577Y0506969D01*
X0850577Y0516969D01*
X0860257Y0517169D02*
X0860257Y0517179D01*
X0860257Y0517169D02*
X0860457Y0517169D01*
X0860457Y0516099D01*
X0860577Y0510469D02*
X0860577Y0503769D01*
X0860377Y0497668D02*
X0860377Y0496668D01*
X0860177Y0496668D01*
X0860177Y0496688D01*
X0840687Y0496688D01*
X0840687Y0497598D01*
X0840577Y0503569D02*
X0840577Y0506969D01*
X0801522Y0503769D02*
X0801522Y0510469D01*
X0801402Y0516099D02*
X0801402Y0517169D01*
X0801202Y0517169D01*
X0801202Y0517179D01*
X0781642Y0517179D01*
X0781642Y0516289D01*
X0781522Y0510369D02*
X0781522Y0506969D01*
X0791522Y0516969D01*
X0781522Y0506969D02*
X0781522Y0503569D01*
X0781632Y0497598D02*
X0781632Y0496688D01*
X0801122Y0496688D01*
X0801122Y0496668D01*
X0801322Y0496668D01*
X0801322Y0497668D01*
X0801202Y0458123D02*
X0781642Y0458123D01*
X0781642Y0457233D01*
X0781522Y0451313D02*
X0781522Y0447913D01*
X0791522Y0457913D01*
X0801202Y0458113D02*
X0801202Y0458123D01*
X0801202Y0458113D02*
X0801402Y0458113D01*
X0801402Y0457043D01*
X0801522Y0451413D02*
X0801522Y0444713D01*
X0801322Y0438613D02*
X0801322Y0437613D01*
X0801122Y0437613D01*
X0801122Y0437633D01*
X0781632Y0437633D01*
X0781632Y0438543D01*
X0781522Y0444513D02*
X0781522Y0447913D01*
X0742467Y0444713D02*
X0742467Y0451413D01*
X0742347Y0457043D02*
X0742347Y0458113D01*
X0742147Y0458113D01*
X0742147Y0458123D01*
X0722587Y0458123D01*
X0722587Y0457233D01*
X0722467Y0451313D02*
X0722467Y0447913D01*
X0732467Y0457913D01*
X0722467Y0447913D02*
X0722467Y0444513D01*
X0722577Y0438543D02*
X0722577Y0437633D01*
X0742067Y0437633D01*
X0742067Y0437613D01*
X0742267Y0437613D01*
X0742267Y0438613D01*
X0742147Y0399068D02*
X0722587Y0399068D01*
X0722587Y0398178D01*
X0722467Y0392258D02*
X0722467Y0388858D01*
X0732467Y0398858D01*
X0742147Y0399058D02*
X0742147Y0399068D01*
X0742147Y0399058D02*
X0742347Y0399058D01*
X0742347Y0397988D01*
X0742467Y0392358D02*
X0742467Y0385658D01*
X0742267Y0379558D02*
X0742267Y0378558D01*
X0742067Y0378558D01*
X0742067Y0378578D01*
X0722577Y0378578D01*
X0722577Y0379488D01*
X0722467Y0385458D02*
X0722467Y0388858D01*
X0683412Y0385658D02*
X0683412Y0392358D01*
X0683292Y0397988D02*
X0683292Y0399058D01*
X0683092Y0399058D01*
X0683092Y0399068D01*
X0663532Y0399068D01*
X0663532Y0398178D01*
X0663412Y0392258D02*
X0663412Y0388858D01*
X0673412Y0398858D01*
X0663412Y0388858D02*
X0663412Y0385458D01*
X0663522Y0379488D02*
X0663522Y0378578D01*
X0683012Y0378578D01*
X0683012Y0378558D01*
X0683212Y0378558D01*
X0683212Y0379558D01*
X0683092Y0340013D02*
X0663532Y0340013D01*
X0663532Y0339123D01*
X0663412Y0333203D02*
X0663412Y0329803D01*
X0673412Y0339803D01*
X0683092Y0340003D02*
X0683092Y0340013D01*
X0683092Y0340003D02*
X0683292Y0340003D01*
X0683292Y0338933D01*
X0683412Y0333303D02*
X0683412Y0326603D01*
X0683212Y0320503D02*
X0683212Y0319503D01*
X0683012Y0319503D01*
X0683012Y0319523D01*
X0663522Y0319523D01*
X0663522Y0320433D01*
X0663412Y0326403D02*
X0663412Y0329803D01*
X0624357Y0326603D02*
X0624357Y0333303D01*
X0624237Y0338933D02*
X0624237Y0340003D01*
X0624037Y0340003D01*
X0624037Y0340013D01*
X0604477Y0340013D01*
X0604477Y0339123D01*
X0604357Y0333203D02*
X0604357Y0329803D01*
X0614357Y0339803D01*
X0604357Y0329803D02*
X0604357Y0326403D01*
X0604467Y0320433D02*
X0604467Y0319523D01*
X0623957Y0319523D01*
X0623957Y0319503D01*
X0624157Y0319503D01*
X0624157Y0320503D01*
X0624037Y0280958D02*
X0604477Y0280958D01*
X0604477Y0280068D01*
X0604357Y0274148D02*
X0604357Y0270748D01*
X0614357Y0280748D01*
X0624037Y0280948D02*
X0624037Y0280958D01*
X0624037Y0280948D02*
X0624237Y0280948D01*
X0624237Y0279878D01*
X0624357Y0274248D02*
X0624357Y0267548D01*
X0624157Y0261448D02*
X0624157Y0260448D01*
X0623957Y0260448D01*
X0623957Y0260468D01*
X0604467Y0260468D01*
X0604467Y0261378D01*
X0604357Y0267348D02*
X0604357Y0270748D01*
X0565302Y0267548D02*
X0565302Y0274248D01*
X0565182Y0279878D02*
X0565182Y0280948D01*
X0564982Y0280948D01*
X0564982Y0280958D01*
X0545422Y0280958D01*
X0545422Y0280068D01*
X0545302Y0274148D02*
X0545302Y0270748D01*
X0555302Y0280748D01*
X0545302Y0270748D02*
X0545302Y0267348D01*
X0545412Y0261378D02*
X0545412Y0260468D01*
X0564902Y0260468D01*
X0564902Y0260448D01*
X0565102Y0260448D01*
X0565102Y0261448D01*
X0604477Y0221903D02*
X0604477Y0221013D01*
X0604477Y0221903D02*
X0624037Y0221903D01*
X0624037Y0221893D01*
X0624237Y0221893D01*
X0624237Y0220823D01*
X0624357Y0215193D02*
X0624357Y0208493D01*
X0624157Y0202393D02*
X0624157Y0201393D01*
X0623957Y0201393D01*
X0623957Y0201413D01*
X0604467Y0201413D01*
X0604467Y0202323D01*
X0604357Y0208293D02*
X0604357Y0211693D01*
X0614357Y0221693D01*
X0604357Y0215093D02*
X0604357Y0211693D01*
X0663412Y0211693D02*
X0663412Y0208293D01*
X0663412Y0211693D02*
X0673412Y0221693D01*
X0683092Y0221893D02*
X0683092Y0221903D01*
X0663532Y0221903D01*
X0663532Y0221013D01*
X0663412Y0215093D02*
X0663412Y0211693D01*
X0683412Y0208493D02*
X0683412Y0215193D01*
X0683292Y0220823D02*
X0683292Y0221893D01*
X0683092Y0221893D01*
X0683212Y0202393D02*
X0683212Y0201393D01*
X0683012Y0201393D01*
X0683012Y0201413D01*
X0663522Y0201413D01*
X0663522Y0202323D01*
X0722577Y0202323D02*
X0722577Y0201413D01*
X0742067Y0201413D01*
X0742067Y0201393D01*
X0742267Y0201393D01*
X0742267Y0202393D01*
X0742467Y0208493D02*
X0742467Y0215193D01*
X0742347Y0220823D02*
X0742347Y0221893D01*
X0742147Y0221893D01*
X0742147Y0221903D01*
X0722587Y0221903D01*
X0722587Y0221013D01*
X0722467Y0215093D02*
X0722467Y0211693D01*
X0732467Y0221693D01*
X0722467Y0211693D02*
X0722467Y0208293D01*
X0722587Y0162848D02*
X0722587Y0161958D01*
X0722587Y0162848D02*
X0742147Y0162848D01*
X0742147Y0162838D01*
X0742347Y0162838D01*
X0742347Y0161768D01*
X0742467Y0156138D02*
X0742467Y0149438D01*
X0742267Y0143338D02*
X0742267Y0142338D01*
X0742067Y0142338D01*
X0742067Y0142358D01*
X0722577Y0142358D01*
X0722577Y0143268D01*
X0722467Y0149238D02*
X0722467Y0152638D01*
X0732467Y0162638D01*
X0722467Y0156038D02*
X0722467Y0152638D01*
X0781522Y0152638D02*
X0781522Y0149238D01*
X0781522Y0152638D02*
X0791522Y0162638D01*
X0801202Y0162838D02*
X0801202Y0162848D01*
X0781642Y0162848D01*
X0781642Y0161958D01*
X0781522Y0156038D02*
X0781522Y0152638D01*
X0801522Y0149438D02*
X0801522Y0156138D01*
X0801402Y0161768D02*
X0801402Y0162838D01*
X0801202Y0162838D01*
X0801322Y0143338D02*
X0801322Y0142338D01*
X0801122Y0142338D01*
X0801122Y0142358D01*
X0781632Y0142358D01*
X0781632Y0143268D01*
X0840687Y0143268D02*
X0840687Y0142358D01*
X0860177Y0142358D01*
X0860177Y0142338D01*
X0860377Y0142338D01*
X0860377Y0143338D01*
X0860577Y0149438D02*
X0860577Y0156138D01*
X0860457Y0161768D02*
X0860457Y0162838D01*
X0860257Y0162838D01*
X0860257Y0162848D01*
X0840697Y0162848D01*
X0840697Y0161958D01*
X0840577Y0156038D02*
X0840577Y0152638D01*
X0850577Y0162638D01*
X0840577Y0152638D02*
X0840577Y0149238D01*
X0840687Y0201413D02*
X0840687Y0202323D01*
X0840687Y0201413D02*
X0860177Y0201413D01*
X0860177Y0201393D01*
X0860377Y0201393D01*
X0860377Y0202393D01*
X0860577Y0208493D02*
X0860577Y0215193D01*
X0860457Y0220823D02*
X0860457Y0221893D01*
X0860257Y0221893D01*
X0860257Y0221903D01*
X0840697Y0221903D01*
X0840697Y0221013D01*
X0840577Y0215093D02*
X0840577Y0211693D01*
X0850577Y0221693D01*
X0840577Y0211693D02*
X0840577Y0208293D01*
X0801522Y0208493D02*
X0801522Y0215193D01*
X0801402Y0220823D02*
X0801402Y0221893D01*
X0801202Y0221893D01*
X0801202Y0221903D01*
X0781642Y0221903D01*
X0781642Y0221013D01*
X0781522Y0215093D02*
X0781522Y0211693D01*
X0791522Y0221693D01*
X0781522Y0211693D02*
X0781522Y0208293D01*
X0781632Y0202323D02*
X0781632Y0201413D01*
X0801122Y0201413D01*
X0801122Y0201393D01*
X0801322Y0201393D01*
X0801322Y0202393D01*
X0801322Y0260448D02*
X0801122Y0260448D01*
X0801122Y0260468D01*
X0781632Y0260468D01*
X0781632Y0261378D01*
X0781522Y0267348D02*
X0781522Y0270748D01*
X0791522Y0280748D01*
X0801202Y0280948D02*
X0801202Y0280958D01*
X0781642Y0280958D01*
X0781642Y0280068D01*
X0781522Y0274148D02*
X0781522Y0270748D01*
X0801522Y0267548D02*
X0801522Y0274248D01*
X0801402Y0279878D02*
X0801402Y0280948D01*
X0801202Y0280948D01*
X0801322Y0261448D02*
X0801322Y0260448D01*
X0840687Y0260468D02*
X0840687Y0261378D01*
X0840687Y0260468D02*
X0860177Y0260468D01*
X0860177Y0260448D01*
X0860377Y0260448D01*
X0860377Y0261448D01*
X0860577Y0267548D02*
X0860577Y0274248D01*
X0860457Y0279878D02*
X0860457Y0280948D01*
X0860257Y0280948D01*
X0860257Y0280958D01*
X0840697Y0280958D01*
X0840697Y0280068D01*
X0840577Y0274148D02*
X0840577Y0270748D01*
X0850577Y0280748D01*
X0840577Y0270748D02*
X0840577Y0267348D01*
X0899633Y0267348D02*
X0899633Y0270748D01*
X0909633Y0280748D01*
X0919313Y0280948D02*
X0919313Y0280958D01*
X0899753Y0280958D01*
X0899753Y0280068D01*
X0899633Y0274148D02*
X0899633Y0270748D01*
X0899743Y0261378D02*
X0899743Y0260468D01*
X0919233Y0260468D01*
X0919233Y0260448D01*
X0919433Y0260448D01*
X0919433Y0261448D01*
X0919633Y0267548D02*
X0919633Y0274248D01*
X0919513Y0279878D02*
X0919513Y0280948D01*
X0919313Y0280948D01*
X0919233Y0319503D02*
X0919233Y0319523D01*
X0899743Y0319523D01*
X0899743Y0320433D01*
X0899633Y0326403D02*
X0899633Y0329803D01*
X0909633Y0339803D01*
X0919313Y0340003D02*
X0919313Y0340013D01*
X0899753Y0340013D01*
X0899753Y0339123D01*
X0899633Y0333203D02*
X0899633Y0329803D01*
X0919633Y0326603D02*
X0919633Y0333303D01*
X0919513Y0338933D02*
X0919513Y0340003D01*
X0919313Y0340003D01*
X0919433Y0320503D02*
X0919433Y0319503D01*
X0919233Y0319503D01*
X0860377Y0319503D02*
X0860177Y0319503D01*
X0860177Y0319523D01*
X0840687Y0319523D01*
X0840687Y0320433D01*
X0840577Y0326403D02*
X0840577Y0329803D01*
X0850577Y0339803D01*
X0860257Y0340003D02*
X0860257Y0340013D01*
X0840697Y0340013D01*
X0840697Y0339123D01*
X0840577Y0333203D02*
X0840577Y0329803D01*
X0860577Y0326603D02*
X0860577Y0333303D01*
X0860457Y0338933D02*
X0860457Y0340003D01*
X0860257Y0340003D01*
X0860377Y0320503D02*
X0860377Y0319503D01*
X0801322Y0319503D02*
X0801122Y0319503D01*
X0801122Y0319523D01*
X0781632Y0319523D01*
X0781632Y0320433D01*
X0781522Y0326403D02*
X0781522Y0329803D01*
X0791522Y0339803D01*
X0801202Y0340003D02*
X0801202Y0340013D01*
X0781642Y0340013D01*
X0781642Y0339123D01*
X0781522Y0333203D02*
X0781522Y0329803D01*
X0801522Y0326603D02*
X0801522Y0333303D01*
X0801402Y0338933D02*
X0801402Y0340003D01*
X0801202Y0340003D01*
X0801322Y0320503D02*
X0801322Y0319503D01*
X0742267Y0319503D02*
X0742067Y0319503D01*
X0742067Y0319523D01*
X0722577Y0319523D01*
X0722577Y0320433D01*
X0722467Y0326403D02*
X0722467Y0329803D01*
X0732467Y0339803D01*
X0742147Y0340003D02*
X0742147Y0340013D01*
X0722587Y0340013D01*
X0722587Y0339123D01*
X0722467Y0333203D02*
X0722467Y0329803D01*
X0742467Y0326603D02*
X0742467Y0333303D01*
X0742347Y0338933D02*
X0742347Y0340003D01*
X0742147Y0340003D01*
X0742267Y0320503D02*
X0742267Y0319503D01*
X0742147Y0280958D02*
X0722587Y0280958D01*
X0722587Y0280068D01*
X0722467Y0274148D02*
X0722467Y0270748D01*
X0732467Y0280748D01*
X0742147Y0280948D02*
X0742147Y0280958D01*
X0742147Y0280948D02*
X0742347Y0280948D01*
X0742347Y0279878D01*
X0742467Y0274248D02*
X0742467Y0267548D01*
X0742267Y0261448D02*
X0742267Y0260448D01*
X0742067Y0260448D01*
X0742067Y0260468D01*
X0722577Y0260468D01*
X0722577Y0261378D01*
X0722467Y0267348D02*
X0722467Y0270748D01*
X0683412Y0267548D02*
X0683412Y0274248D01*
X0683292Y0279878D02*
X0683292Y0280948D01*
X0683092Y0280948D01*
X0683092Y0280958D01*
X0663532Y0280958D01*
X0663532Y0280068D01*
X0663412Y0274148D02*
X0663412Y0270748D01*
X0673412Y0280748D01*
X0663412Y0270748D02*
X0663412Y0267348D01*
X0663522Y0261378D02*
X0663522Y0260468D01*
X0683012Y0260468D01*
X0683012Y0260448D01*
X0683212Y0260448D01*
X0683212Y0261448D01*
X0565102Y0319503D02*
X0564902Y0319503D01*
X0564902Y0319523D01*
X0545412Y0319523D01*
X0545412Y0320433D01*
X0545302Y0326403D02*
X0545302Y0329803D01*
X0555302Y0339803D01*
X0564982Y0340003D02*
X0564982Y0340013D01*
X0545422Y0340013D01*
X0545422Y0339123D01*
X0545302Y0333203D02*
X0545302Y0329803D01*
X0565302Y0326603D02*
X0565302Y0333303D01*
X0565182Y0338933D02*
X0565182Y0340003D01*
X0564982Y0340003D01*
X0565102Y0320503D02*
X0565102Y0319503D01*
X0506047Y0319503D02*
X0505847Y0319503D01*
X0505847Y0319523D01*
X0486357Y0319523D01*
X0486357Y0320433D01*
X0486247Y0326403D02*
X0486247Y0329803D01*
X0496247Y0339803D01*
X0505927Y0340003D02*
X0505927Y0340013D01*
X0486367Y0340013D01*
X0486367Y0339123D01*
X0486247Y0333203D02*
X0486247Y0329803D01*
X0506247Y0326603D02*
X0506247Y0333303D01*
X0506127Y0338933D02*
X0506127Y0340003D01*
X0505927Y0340003D01*
X0506047Y0320503D02*
X0506047Y0319503D01*
X0505927Y0280958D02*
X0486367Y0280958D01*
X0486367Y0280068D01*
X0486247Y0274148D02*
X0486247Y0270748D01*
X0496247Y0280748D01*
X0505927Y0280948D02*
X0505927Y0280958D01*
X0505927Y0280948D02*
X0506127Y0280948D01*
X0506127Y0279878D01*
X0506247Y0274248D02*
X0506247Y0267548D01*
X0506047Y0261448D02*
X0506047Y0260448D01*
X0505847Y0260448D01*
X0505847Y0260468D01*
X0486357Y0260468D01*
X0486357Y0261378D01*
X0486247Y0267348D02*
X0486247Y0270748D01*
X0447192Y0267548D02*
X0447192Y0274248D01*
X0447072Y0279878D02*
X0447072Y0280948D01*
X0446872Y0280948D01*
X0446872Y0280958D01*
X0427312Y0280958D01*
X0427312Y0280068D01*
X0427192Y0274148D02*
X0427192Y0270748D01*
X0437192Y0280748D01*
X0427192Y0270748D02*
X0427192Y0267348D01*
X0427302Y0261378D02*
X0427302Y0260468D01*
X0446792Y0260468D01*
X0446792Y0260448D01*
X0446992Y0260448D01*
X0446992Y0261448D01*
X0387936Y0261448D02*
X0387936Y0260448D01*
X0387736Y0260448D01*
X0387736Y0260468D01*
X0368246Y0260468D01*
X0368246Y0261378D01*
X0368136Y0267348D02*
X0368136Y0270748D01*
X0378136Y0280748D01*
X0387816Y0280948D02*
X0387816Y0280958D01*
X0368256Y0280958D01*
X0368256Y0280068D01*
X0368136Y0274148D02*
X0368136Y0270748D01*
X0388136Y0267548D02*
X0388136Y0274248D01*
X0388016Y0279878D02*
X0388016Y0280948D01*
X0387816Y0280948D01*
X0387736Y0319503D02*
X0387736Y0319523D01*
X0368246Y0319523D01*
X0368246Y0320433D01*
X0368136Y0326403D02*
X0368136Y0329803D01*
X0378136Y0339803D01*
X0387816Y0340003D02*
X0387816Y0340013D01*
X0368256Y0340013D01*
X0368256Y0339123D01*
X0368136Y0333203D02*
X0368136Y0329803D01*
X0388136Y0326603D02*
X0388136Y0333303D01*
X0388016Y0338933D02*
X0388016Y0340003D01*
X0387816Y0340003D01*
X0387936Y0320503D02*
X0387936Y0319503D01*
X0387736Y0319503D01*
X0427302Y0319523D02*
X0427302Y0320433D01*
X0427302Y0319523D02*
X0446792Y0319523D01*
X0446792Y0319503D01*
X0446992Y0319503D01*
X0446992Y0320503D01*
X0447192Y0326603D02*
X0447192Y0333303D01*
X0447072Y0338933D02*
X0447072Y0340003D01*
X0446872Y0340003D01*
X0446872Y0340013D01*
X0427312Y0340013D01*
X0427312Y0339123D01*
X0427192Y0333203D02*
X0427192Y0329803D01*
X0437192Y0339803D01*
X0427192Y0329803D02*
X0427192Y0326403D01*
X0427302Y0378578D02*
X0427302Y0379488D01*
X0427302Y0378578D02*
X0446792Y0378578D01*
X0446792Y0378558D01*
X0446992Y0378558D01*
X0446992Y0379558D01*
X0447192Y0385658D02*
X0447192Y0392358D01*
X0447072Y0397988D02*
X0447072Y0399058D01*
X0446872Y0399058D01*
X0446872Y0399068D01*
X0427312Y0399068D01*
X0427312Y0398178D01*
X0427192Y0392258D02*
X0427192Y0388858D01*
X0437192Y0398858D01*
X0427192Y0388858D02*
X0427192Y0385458D01*
X0388136Y0385658D02*
X0388136Y0392358D01*
X0388016Y0397988D02*
X0388016Y0399058D01*
X0387816Y0399058D01*
X0387816Y0399068D01*
X0368256Y0399068D01*
X0368256Y0398178D01*
X0368136Y0392258D02*
X0368136Y0388858D01*
X0378136Y0398858D01*
X0368136Y0388858D02*
X0368136Y0385458D01*
X0368246Y0379488D02*
X0368246Y0378578D01*
X0387736Y0378578D01*
X0387736Y0378558D01*
X0387936Y0378558D01*
X0387936Y0379558D01*
X0328881Y0379558D02*
X0328881Y0378558D01*
X0328681Y0378558D01*
X0328681Y0378578D01*
X0309191Y0378578D01*
X0309191Y0379488D01*
X0309081Y0385458D02*
X0309081Y0388858D01*
X0319081Y0398858D01*
X0328761Y0399058D02*
X0328761Y0399068D01*
X0309201Y0399068D01*
X0309201Y0398178D01*
X0309081Y0392258D02*
X0309081Y0388858D01*
X0329081Y0385658D02*
X0329081Y0392358D01*
X0328961Y0397988D02*
X0328961Y0399058D01*
X0328761Y0399058D01*
X0328681Y0437613D02*
X0328681Y0437633D01*
X0309191Y0437633D01*
X0309191Y0438543D01*
X0309081Y0444513D02*
X0309081Y0447913D01*
X0319081Y0457913D01*
X0328761Y0458113D02*
X0328761Y0458123D01*
X0309201Y0458123D01*
X0309201Y0457233D01*
X0309081Y0451313D02*
X0309081Y0447913D01*
X0329081Y0444713D02*
X0329081Y0451413D01*
X0328961Y0457043D02*
X0328961Y0458113D01*
X0328761Y0458113D01*
X0328881Y0438613D02*
X0328881Y0437613D01*
X0328681Y0437613D01*
X0368246Y0437633D02*
X0368246Y0438543D01*
X0368246Y0437633D02*
X0387736Y0437633D01*
X0387736Y0437613D01*
X0387936Y0437613D01*
X0387936Y0438613D01*
X0388136Y0444713D02*
X0388136Y0451413D01*
X0388016Y0457043D02*
X0388016Y0458113D01*
X0387816Y0458113D01*
X0387816Y0458123D01*
X0368256Y0458123D01*
X0368256Y0457233D01*
X0368136Y0451313D02*
X0368136Y0447913D01*
X0378136Y0457913D01*
X0368136Y0447913D02*
X0368136Y0444513D01*
X0427192Y0444513D02*
X0427192Y0447913D01*
X0437192Y0457913D01*
X0446872Y0458113D02*
X0446872Y0458123D01*
X0427312Y0458123D01*
X0427312Y0457233D01*
X0427192Y0451313D02*
X0427192Y0447913D01*
X0427302Y0438543D02*
X0427302Y0437633D01*
X0446792Y0437633D01*
X0446792Y0437613D01*
X0446992Y0437613D01*
X0446992Y0438613D01*
X0447192Y0444713D02*
X0447192Y0451413D01*
X0447072Y0457043D02*
X0447072Y0458113D01*
X0446872Y0458113D01*
X0486367Y0458123D02*
X0486367Y0457233D01*
X0486367Y0458123D02*
X0505927Y0458123D01*
X0505927Y0458113D01*
X0506127Y0458113D01*
X0506127Y0457043D01*
X0506247Y0451413D02*
X0506247Y0444713D01*
X0506047Y0438613D02*
X0506047Y0437613D01*
X0505847Y0437613D01*
X0505847Y0437633D01*
X0486357Y0437633D01*
X0486357Y0438543D01*
X0486247Y0444513D02*
X0486247Y0447913D01*
X0496247Y0457913D01*
X0486247Y0451313D02*
X0486247Y0447913D01*
X0545302Y0447913D02*
X0545302Y0444513D01*
X0545302Y0447913D02*
X0555302Y0457913D01*
X0564982Y0458113D02*
X0564982Y0458123D01*
X0545422Y0458123D01*
X0545422Y0457233D01*
X0545302Y0451313D02*
X0545302Y0447913D01*
X0565302Y0444713D02*
X0565302Y0451413D01*
X0565182Y0457043D02*
X0565182Y0458113D01*
X0564982Y0458113D01*
X0565102Y0438613D02*
X0565102Y0437613D01*
X0564902Y0437613D01*
X0564902Y0437633D01*
X0545412Y0437633D01*
X0545412Y0438543D01*
X0545422Y0399068D02*
X0545422Y0398178D01*
X0545422Y0399068D02*
X0564982Y0399068D01*
X0564982Y0399058D01*
X0565182Y0399058D01*
X0565182Y0397988D01*
X0565302Y0392358D02*
X0565302Y0385658D01*
X0565102Y0379558D02*
X0565102Y0378558D01*
X0564902Y0378558D01*
X0564902Y0378578D01*
X0545412Y0378578D01*
X0545412Y0379488D01*
X0545302Y0385458D02*
X0545302Y0388858D01*
X0555302Y0398858D01*
X0545302Y0392258D02*
X0545302Y0388858D01*
X0506247Y0385658D02*
X0506247Y0392358D01*
X0506127Y0397988D02*
X0506127Y0399058D01*
X0505927Y0399058D01*
X0505927Y0399068D01*
X0486367Y0399068D01*
X0486367Y0398178D01*
X0486247Y0392258D02*
X0486247Y0388858D01*
X0496247Y0398858D01*
X0486247Y0388858D02*
X0486247Y0385458D01*
X0486357Y0379488D02*
X0486357Y0378578D01*
X0505847Y0378578D01*
X0505847Y0378558D01*
X0506047Y0378558D01*
X0506047Y0379558D01*
X0604467Y0379488D02*
X0604467Y0378578D01*
X0623957Y0378578D01*
X0623957Y0378558D01*
X0624157Y0378558D01*
X0624157Y0379558D01*
X0624357Y0385658D02*
X0624357Y0392358D01*
X0624237Y0397988D02*
X0624237Y0399058D01*
X0624037Y0399058D01*
X0624037Y0399068D01*
X0604477Y0399068D01*
X0604477Y0398178D01*
X0604357Y0392258D02*
X0604357Y0388858D01*
X0614357Y0398858D01*
X0604357Y0388858D02*
X0604357Y0385458D01*
X0604467Y0437633D02*
X0604467Y0438543D01*
X0604467Y0437633D02*
X0623957Y0437633D01*
X0623957Y0437613D01*
X0624157Y0437613D01*
X0624157Y0438613D01*
X0624357Y0444713D02*
X0624357Y0451413D01*
X0624237Y0457043D02*
X0624237Y0458113D01*
X0624037Y0458113D01*
X0624037Y0458123D01*
X0604477Y0458123D01*
X0604477Y0457233D01*
X0604357Y0451313D02*
X0604357Y0447913D01*
X0614357Y0457913D01*
X0604357Y0447913D02*
X0604357Y0444513D01*
X0663412Y0444513D02*
X0663412Y0447913D01*
X0673412Y0457913D01*
X0683092Y0458113D02*
X0683092Y0458123D01*
X0663532Y0458123D01*
X0663532Y0457233D01*
X0663412Y0451313D02*
X0663412Y0447913D01*
X0683412Y0444713D02*
X0683412Y0451413D01*
X0683292Y0457043D02*
X0683292Y0458113D01*
X0683092Y0458113D01*
X0683212Y0438613D02*
X0683212Y0437613D01*
X0683012Y0437613D01*
X0683012Y0437633D01*
X0663522Y0437633D01*
X0663522Y0438543D01*
X0663522Y0496688D02*
X0663522Y0497598D01*
X0663522Y0496688D02*
X0683012Y0496688D01*
X0683012Y0496668D01*
X0683212Y0496668D01*
X0683212Y0497668D01*
X0683412Y0503769D02*
X0683412Y0510469D01*
X0683292Y0516099D02*
X0683292Y0517169D01*
X0683092Y0517169D01*
X0683092Y0517179D01*
X0663532Y0517179D01*
X0663532Y0516289D01*
X0663412Y0510369D02*
X0663412Y0506969D01*
X0673412Y0516969D01*
X0663412Y0506969D02*
X0663412Y0503569D01*
X0624357Y0503769D02*
X0624357Y0510469D01*
X0624237Y0516099D02*
X0624237Y0517169D01*
X0624037Y0517169D01*
X0624037Y0517179D01*
X0604477Y0517179D01*
X0604477Y0516289D01*
X0604357Y0510369D02*
X0604357Y0506969D01*
X0614357Y0516969D01*
X0604357Y0506969D02*
X0604357Y0503569D01*
X0604467Y0497598D02*
X0604467Y0496688D01*
X0623957Y0496688D01*
X0623957Y0496668D01*
X0624157Y0496668D01*
X0624157Y0497668D01*
X0565102Y0497668D02*
X0565102Y0496668D01*
X0564902Y0496668D01*
X0564902Y0496688D01*
X0545412Y0496688D01*
X0545412Y0497598D01*
X0545302Y0503569D02*
X0545302Y0506969D01*
X0555302Y0516969D01*
X0564982Y0517169D02*
X0564982Y0517179D01*
X0545422Y0517179D01*
X0545422Y0516289D01*
X0545302Y0510369D02*
X0545302Y0506969D01*
X0565302Y0503769D02*
X0565302Y0510469D01*
X0565182Y0516099D02*
X0565182Y0517169D01*
X0564982Y0517169D01*
X0564902Y0555724D02*
X0564902Y0555744D01*
X0545412Y0555744D01*
X0545412Y0556654D01*
X0545302Y0562624D02*
X0545302Y0566024D01*
X0555302Y0576024D01*
X0564982Y0576224D02*
X0564982Y0576234D01*
X0545422Y0576234D01*
X0545422Y0575344D01*
X0545302Y0569424D02*
X0545302Y0566024D01*
X0565302Y0562824D02*
X0565302Y0569524D01*
X0565182Y0575154D02*
X0565182Y0576224D01*
X0564982Y0576224D01*
X0565102Y0556724D02*
X0565102Y0555724D01*
X0564902Y0555724D01*
X0604467Y0555744D02*
X0604467Y0556654D01*
X0604467Y0555744D02*
X0623957Y0555744D01*
X0623957Y0555724D01*
X0624157Y0555724D01*
X0624157Y0556724D01*
X0624357Y0562824D02*
X0624357Y0569524D01*
X0624237Y0575154D02*
X0624237Y0576224D01*
X0624037Y0576224D01*
X0624037Y0576234D01*
X0604477Y0576234D01*
X0604477Y0575344D01*
X0604357Y0569424D02*
X0604357Y0566024D01*
X0614357Y0576024D01*
X0604357Y0566024D02*
X0604357Y0562624D01*
X0663412Y0562624D02*
X0663412Y0566024D01*
X0673412Y0576024D01*
X0683092Y0576224D02*
X0683092Y0576234D01*
X0663532Y0576234D01*
X0663532Y0575344D01*
X0663412Y0569424D02*
X0663412Y0566024D01*
X0683412Y0562824D02*
X0683412Y0569524D01*
X0683292Y0575154D02*
X0683292Y0576224D01*
X0683092Y0576224D01*
X0683212Y0556724D02*
X0683212Y0555724D01*
X0683012Y0555724D01*
X0683012Y0555744D01*
X0663522Y0555744D01*
X0663522Y0556654D01*
X0722577Y0556654D02*
X0722577Y0555744D01*
X0742067Y0555744D01*
X0742067Y0555724D01*
X0742267Y0555724D01*
X0742267Y0556724D01*
X0742467Y0562824D02*
X0742467Y0569524D01*
X0742347Y0575154D02*
X0742347Y0576224D01*
X0742147Y0576224D01*
X0742147Y0576234D01*
X0722587Y0576234D01*
X0722587Y0575344D01*
X0722467Y0569424D02*
X0722467Y0566024D01*
X0732467Y0576024D01*
X0722467Y0566024D02*
X0722467Y0562624D01*
X0722587Y0517179D02*
X0722587Y0516289D01*
X0722587Y0517179D02*
X0742147Y0517179D01*
X0742147Y0517169D01*
X0742347Y0517169D01*
X0742347Y0516099D01*
X0742467Y0510469D02*
X0742467Y0503769D01*
X0742267Y0497668D02*
X0742267Y0496668D01*
X0742067Y0496668D01*
X0742067Y0496688D01*
X0722577Y0496688D01*
X0722577Y0497598D01*
X0722467Y0503569D02*
X0722467Y0506969D01*
X0732467Y0516969D01*
X0722467Y0510369D02*
X0722467Y0506969D01*
X0781632Y0555744D02*
X0781632Y0556654D01*
X0781632Y0555744D02*
X0801122Y0555744D01*
X0801122Y0555724D01*
X0801322Y0555724D01*
X0801322Y0556724D01*
X0801522Y0562824D02*
X0801522Y0569524D01*
X0801402Y0575154D02*
X0801402Y0576224D01*
X0801202Y0576224D01*
X0801202Y0576234D01*
X0781642Y0576234D01*
X0781642Y0575344D01*
X0781522Y0569424D02*
X0781522Y0566024D01*
X0791522Y0576024D01*
X0781522Y0566024D02*
X0781522Y0562624D01*
X0781632Y0614799D02*
X0781632Y0615709D01*
X0781632Y0614799D02*
X0801122Y0614799D01*
X0801122Y0614779D01*
X0801322Y0614779D01*
X0801322Y0615779D01*
X0801522Y0621879D02*
X0801522Y0628579D01*
X0801402Y0634209D02*
X0801402Y0635279D01*
X0801202Y0635279D01*
X0801202Y0635289D01*
X0781642Y0635289D01*
X0781642Y0634399D01*
X0781522Y0628479D02*
X0781522Y0625079D01*
X0791522Y0635079D01*
X0781522Y0625079D02*
X0781522Y0621679D01*
X0742467Y0621879D02*
X0742467Y0628579D01*
X0742347Y0634209D02*
X0742347Y0635279D01*
X0742147Y0635279D01*
X0742147Y0635289D01*
X0722587Y0635289D01*
X0722587Y0634399D01*
X0722467Y0628479D02*
X0722467Y0625079D01*
X0732467Y0635079D01*
X0722467Y0625079D02*
X0722467Y0621679D01*
X0722577Y0615709D02*
X0722577Y0614799D01*
X0742067Y0614799D01*
X0742067Y0614779D01*
X0742267Y0614779D01*
X0742267Y0615779D01*
X0683212Y0615779D02*
X0683212Y0614779D01*
X0683012Y0614779D01*
X0683012Y0614799D01*
X0663522Y0614799D01*
X0663522Y0615709D01*
X0663412Y0621679D02*
X0663412Y0625079D01*
X0673412Y0635079D01*
X0683092Y0635279D02*
X0683092Y0635289D01*
X0663532Y0635289D01*
X0663532Y0634399D01*
X0663412Y0628479D02*
X0663412Y0625079D01*
X0683412Y0621879D02*
X0683412Y0628579D01*
X0683292Y0634209D02*
X0683292Y0635279D01*
X0683092Y0635279D01*
X0683012Y0673834D02*
X0683012Y0673854D01*
X0663522Y0673854D01*
X0663522Y0674764D01*
X0663412Y0680734D02*
X0663412Y0684134D01*
X0673412Y0694134D01*
X0683092Y0694334D02*
X0683092Y0694344D01*
X0663532Y0694344D01*
X0663532Y0693454D01*
X0663412Y0687534D02*
X0663412Y0684134D01*
X0683412Y0680934D02*
X0683412Y0687634D01*
X0683292Y0693264D02*
X0683292Y0694334D01*
X0683092Y0694334D01*
X0683212Y0674834D02*
X0683212Y0673834D01*
X0683012Y0673834D01*
X0722577Y0673854D02*
X0722577Y0674764D01*
X0722577Y0673854D02*
X0742067Y0673854D01*
X0742067Y0673834D01*
X0742267Y0673834D01*
X0742267Y0674834D01*
X0742467Y0680934D02*
X0742467Y0687634D01*
X0742347Y0693264D02*
X0742347Y0694334D01*
X0742147Y0694334D01*
X0742147Y0694344D01*
X0722587Y0694344D01*
X0722587Y0693454D01*
X0722467Y0687534D02*
X0722467Y0684134D01*
X0732467Y0694134D01*
X0722467Y0684134D02*
X0722467Y0680734D01*
X0781522Y0680734D02*
X0781522Y0684134D01*
X0791522Y0694134D01*
X0801202Y0694334D02*
X0801202Y0694344D01*
X0781642Y0694344D01*
X0781642Y0693454D01*
X0781522Y0687534D02*
X0781522Y0684134D01*
X0801522Y0680934D02*
X0801522Y0687634D01*
X0801402Y0693264D02*
X0801402Y0694334D01*
X0801202Y0694334D01*
X0801322Y0674834D02*
X0801322Y0673834D01*
X0801122Y0673834D01*
X0801122Y0673854D01*
X0781632Y0673854D01*
X0781632Y0674764D01*
X0840687Y0674764D02*
X0840687Y0673854D01*
X0860177Y0673854D01*
X0860177Y0673834D01*
X0860377Y0673834D01*
X0860377Y0674834D01*
X0860577Y0680934D02*
X0860577Y0687634D01*
X0860457Y0693264D02*
X0860457Y0694334D01*
X0860257Y0694334D01*
X0860257Y0694344D01*
X0840697Y0694344D01*
X0840697Y0693454D01*
X0840577Y0687534D02*
X0840577Y0684134D01*
X0850577Y0694134D01*
X0840577Y0684134D02*
X0840577Y0680734D01*
X0899633Y0680734D02*
X0899633Y0684134D01*
X0909633Y0694134D01*
X0919313Y0694334D02*
X0919313Y0694344D01*
X0899753Y0694344D01*
X0899753Y0693454D01*
X0899633Y0687534D02*
X0899633Y0684134D01*
X0899743Y0674764D02*
X0899743Y0673854D01*
X0919233Y0673854D01*
X0919233Y0673834D01*
X0919433Y0673834D01*
X0919433Y0674834D01*
X0919633Y0680934D02*
X0919633Y0687634D01*
X0919513Y0693264D02*
X0919513Y0694334D01*
X0919313Y0694334D01*
X0919233Y0732889D02*
X0919233Y0732909D01*
X0899743Y0732909D01*
X0899743Y0733819D01*
X0899633Y0739789D02*
X0899633Y0743189D01*
X0909633Y0753189D01*
X0919313Y0753389D02*
X0919313Y0753399D01*
X0899753Y0753399D01*
X0899753Y0752509D01*
X0899633Y0746589D02*
X0899633Y0743189D01*
X0919633Y0739989D02*
X0919633Y0746689D01*
X0919513Y0752319D02*
X0919513Y0753389D01*
X0919313Y0753389D01*
X0919433Y0733889D02*
X0919433Y0732889D01*
X0919233Y0732889D01*
X0958798Y0732909D02*
X0958798Y0733819D01*
X0958798Y0732909D02*
X0978288Y0732909D01*
X0978288Y0732889D01*
X0978488Y0732889D01*
X0978488Y0733889D01*
X0978688Y0739989D02*
X0978688Y0746689D01*
X0978568Y0752319D02*
X0978568Y0753389D01*
X0978368Y0753389D01*
X0978368Y0753399D01*
X0958808Y0753399D01*
X0958808Y0752509D01*
X0958688Y0746589D02*
X0958688Y0743189D01*
X0968688Y0753189D01*
X0958688Y0743189D02*
X0958688Y0739789D01*
X0958798Y0791964D02*
X0958798Y0792874D01*
X0958798Y0791964D02*
X0978288Y0791964D01*
X0978288Y0791944D01*
X0978488Y0791944D01*
X0978488Y0792944D01*
X0978688Y0799044D02*
X0978688Y0805744D01*
X0978568Y0811374D02*
X0978568Y0812444D01*
X0978368Y0812444D01*
X0978368Y0812454D01*
X0958808Y0812454D01*
X0958808Y0811564D01*
X0958688Y0805644D02*
X0958688Y0802244D01*
X0968688Y0812244D01*
X0958688Y0802244D02*
X0958688Y0798844D01*
X0919633Y0799044D02*
X0919633Y0805744D01*
X0919513Y0811374D02*
X0919513Y0812444D01*
X0919313Y0812444D01*
X0919313Y0812454D01*
X0899753Y0812454D01*
X0899753Y0811564D01*
X0899633Y0805644D02*
X0899633Y0802244D01*
X0909633Y0812244D01*
X0899633Y0802244D02*
X0899633Y0798844D01*
X0899743Y0792874D02*
X0899743Y0791964D01*
X0919233Y0791964D01*
X0919233Y0791944D01*
X0919433Y0791944D01*
X0919433Y0792944D01*
X0860377Y0792944D02*
X0860377Y0791944D01*
X0860177Y0791944D01*
X0860177Y0791964D01*
X0840687Y0791964D01*
X0840687Y0792874D01*
X0840577Y0798844D02*
X0840577Y0802244D01*
X0850577Y0812244D01*
X0860257Y0812444D02*
X0860257Y0812454D01*
X0840697Y0812454D01*
X0840697Y0811564D01*
X0840577Y0805644D02*
X0840577Y0802244D01*
X0860577Y0799044D02*
X0860577Y0805744D01*
X0860457Y0811374D02*
X0860457Y0812444D01*
X0860257Y0812444D01*
X0801402Y0812444D02*
X0801202Y0812444D01*
X0801202Y0812454D01*
X0781642Y0812454D01*
X0781642Y0811564D01*
X0781522Y0805644D02*
X0781522Y0802244D01*
X0791522Y0812244D01*
X0801402Y0812444D02*
X0801402Y0811374D01*
X0801522Y0805744D02*
X0801522Y0799044D01*
X0801322Y0792944D02*
X0801322Y0791944D01*
X0801122Y0791944D01*
X0801122Y0791964D01*
X0781632Y0791964D01*
X0781632Y0792874D01*
X0781522Y0798844D02*
X0781522Y0802244D01*
X0781642Y0753399D02*
X0781642Y0752509D01*
X0781642Y0753399D02*
X0801202Y0753399D01*
X0801202Y0753389D01*
X0801402Y0753389D01*
X0801402Y0752319D01*
X0801522Y0746689D02*
X0801522Y0739989D01*
X0801322Y0733889D02*
X0801322Y0732889D01*
X0801122Y0732889D01*
X0801122Y0732909D01*
X0781632Y0732909D01*
X0781632Y0733819D01*
X0781522Y0739789D02*
X0781522Y0743189D01*
X0791522Y0753189D01*
X0781522Y0746589D02*
X0781522Y0743189D01*
X0742467Y0739989D02*
X0742467Y0746689D01*
X0742347Y0752319D02*
X0742347Y0753389D01*
X0742147Y0753389D01*
X0742147Y0753399D01*
X0722587Y0753399D01*
X0722587Y0752509D01*
X0722467Y0746589D02*
X0722467Y0743189D01*
X0732467Y0753189D01*
X0722467Y0743189D02*
X0722467Y0739789D01*
X0722577Y0733819D02*
X0722577Y0732909D01*
X0742067Y0732909D01*
X0742067Y0732889D01*
X0742267Y0732889D01*
X0742267Y0733889D01*
X0683212Y0733889D02*
X0683212Y0732889D01*
X0683012Y0732889D01*
X0683012Y0732909D01*
X0663522Y0732909D01*
X0663522Y0733819D01*
X0663412Y0739789D02*
X0663412Y0743189D01*
X0673412Y0753189D01*
X0683092Y0753389D02*
X0683092Y0753399D01*
X0663532Y0753399D01*
X0663532Y0752509D01*
X0663412Y0746589D02*
X0663412Y0743189D01*
X0683412Y0739989D02*
X0683412Y0746689D01*
X0683292Y0752319D02*
X0683292Y0753389D01*
X0683092Y0753389D01*
X0683012Y0791944D02*
X0683012Y0791964D01*
X0663522Y0791964D01*
X0663522Y0792874D01*
X0663412Y0798844D02*
X0663412Y0802244D01*
X0673412Y0812244D01*
X0683092Y0812444D02*
X0683092Y0812454D01*
X0663532Y0812454D01*
X0663532Y0811564D01*
X0663412Y0805644D02*
X0663412Y0802244D01*
X0683412Y0799044D02*
X0683412Y0805744D01*
X0683292Y0811374D02*
X0683292Y0812444D01*
X0683092Y0812444D01*
X0683212Y0792944D02*
X0683212Y0791944D01*
X0683012Y0791944D01*
X0624157Y0791944D02*
X0623957Y0791944D01*
X0623957Y0791964D01*
X0604467Y0791964D01*
X0604467Y0792874D01*
X0604357Y0798844D02*
X0604357Y0802244D01*
X0614357Y0812244D01*
X0624037Y0812444D02*
X0624037Y0812454D01*
X0604477Y0812454D01*
X0604477Y0811564D01*
X0604357Y0805644D02*
X0604357Y0802244D01*
X0624357Y0799044D02*
X0624357Y0805744D01*
X0624237Y0811374D02*
X0624237Y0812444D01*
X0624037Y0812444D01*
X0624157Y0792944D02*
X0624157Y0791944D01*
X0624037Y0753399D02*
X0604477Y0753399D01*
X0604477Y0752509D01*
X0604357Y0746589D02*
X0604357Y0743189D01*
X0614357Y0753189D01*
X0624037Y0753389D02*
X0624037Y0753399D01*
X0624037Y0753389D02*
X0624237Y0753389D01*
X0624237Y0752319D01*
X0624357Y0746689D02*
X0624357Y0739989D01*
X0624157Y0733889D02*
X0624157Y0732889D01*
X0623957Y0732889D01*
X0623957Y0732909D01*
X0604467Y0732909D01*
X0604467Y0733819D01*
X0604357Y0739789D02*
X0604357Y0743189D01*
X0565302Y0739989D02*
X0565302Y0746689D01*
X0565182Y0752319D02*
X0565182Y0753389D01*
X0564982Y0753389D01*
X0564982Y0753399D01*
X0545422Y0753399D01*
X0545422Y0752509D01*
X0545302Y0746589D02*
X0545302Y0743189D01*
X0555302Y0753189D01*
X0545302Y0743189D02*
X0545302Y0739789D01*
X0545412Y0733819D02*
X0545412Y0732909D01*
X0564902Y0732909D01*
X0564902Y0732889D01*
X0565102Y0732889D01*
X0565102Y0733889D01*
X0564982Y0694344D02*
X0545422Y0694344D01*
X0545422Y0693454D01*
X0545302Y0687534D02*
X0545302Y0684134D01*
X0555302Y0694134D01*
X0564982Y0694334D02*
X0564982Y0694344D01*
X0564982Y0694334D02*
X0565182Y0694334D01*
X0565182Y0693264D01*
X0565302Y0687634D02*
X0565302Y0680934D01*
X0565102Y0674834D02*
X0565102Y0673834D01*
X0564902Y0673834D01*
X0564902Y0673854D01*
X0545412Y0673854D01*
X0545412Y0674764D01*
X0545302Y0680734D02*
X0545302Y0684134D01*
X0506247Y0680934D02*
X0506247Y0687634D01*
X0506127Y0693264D02*
X0506127Y0694334D01*
X0505927Y0694334D01*
X0505927Y0694344D01*
X0486367Y0694344D01*
X0486367Y0693454D01*
X0486247Y0687534D02*
X0486247Y0684134D01*
X0496247Y0694134D01*
X0486247Y0684134D02*
X0486247Y0680734D01*
X0486357Y0674764D02*
X0486357Y0673854D01*
X0505847Y0673854D01*
X0505847Y0673834D01*
X0506047Y0673834D01*
X0506047Y0674834D01*
X0505927Y0635289D02*
X0486367Y0635289D01*
X0486367Y0634399D01*
X0486247Y0628479D02*
X0486247Y0625079D01*
X0496247Y0635079D01*
X0505927Y0635279D02*
X0505927Y0635289D01*
X0505927Y0635279D02*
X0506127Y0635279D01*
X0506127Y0634209D01*
X0506247Y0628579D02*
X0506247Y0621879D01*
X0506047Y0615779D02*
X0506047Y0614779D01*
X0505847Y0614779D01*
X0505847Y0614799D01*
X0486357Y0614799D01*
X0486357Y0615709D01*
X0486247Y0621679D02*
X0486247Y0625079D01*
X0447192Y0621879D02*
X0447192Y0628579D01*
X0447072Y0634209D02*
X0447072Y0635279D01*
X0446872Y0635279D01*
X0446872Y0635289D01*
X0427312Y0635289D01*
X0427312Y0634399D01*
X0427192Y0628479D02*
X0427192Y0625079D01*
X0437192Y0635079D01*
X0427192Y0625079D02*
X0427192Y0621679D01*
X0427302Y0615709D02*
X0427302Y0614799D01*
X0446792Y0614799D01*
X0446792Y0614779D01*
X0446992Y0614779D01*
X0446992Y0615779D01*
X0446872Y0576234D02*
X0427312Y0576234D01*
X0427312Y0575344D01*
X0427192Y0569424D02*
X0427192Y0566024D01*
X0437192Y0576024D01*
X0446872Y0576224D02*
X0446872Y0576234D01*
X0446872Y0576224D02*
X0447072Y0576224D01*
X0447072Y0575154D01*
X0447192Y0569524D02*
X0447192Y0562824D01*
X0446992Y0556724D02*
X0446992Y0555724D01*
X0446792Y0555724D01*
X0446792Y0555744D01*
X0427302Y0555744D01*
X0427302Y0556654D01*
X0427192Y0562624D02*
X0427192Y0566024D01*
X0388136Y0562824D02*
X0388136Y0569524D01*
X0388016Y0575154D02*
X0388016Y0576224D01*
X0387816Y0576224D01*
X0387816Y0576234D01*
X0368256Y0576234D01*
X0368256Y0575344D01*
X0368136Y0569424D02*
X0368136Y0566024D01*
X0378136Y0576024D01*
X0368136Y0566024D02*
X0368136Y0562624D01*
X0368246Y0556654D02*
X0368246Y0555744D01*
X0387736Y0555744D01*
X0387736Y0555724D01*
X0387936Y0555724D01*
X0387936Y0556724D01*
X0387816Y0517179D02*
X0368256Y0517179D01*
X0368256Y0516289D01*
X0368136Y0510369D02*
X0368136Y0506969D01*
X0378136Y0516969D01*
X0387816Y0517169D02*
X0387816Y0517179D01*
X0387816Y0517169D02*
X0388016Y0517169D01*
X0388016Y0516099D01*
X0388136Y0510469D02*
X0388136Y0503769D01*
X0387936Y0497668D02*
X0387936Y0496668D01*
X0387736Y0496668D01*
X0387736Y0496688D01*
X0368246Y0496688D01*
X0368246Y0497598D01*
X0368136Y0503569D02*
X0368136Y0506969D01*
X0329081Y0503769D02*
X0329081Y0510469D01*
X0328961Y0516099D02*
X0328961Y0517169D01*
X0328761Y0517169D01*
X0328761Y0517179D01*
X0309201Y0517179D01*
X0309201Y0516289D01*
X0309081Y0510369D02*
X0309081Y0506969D01*
X0319081Y0516969D01*
X0309081Y0506969D02*
X0309081Y0503569D01*
X0309191Y0497598D02*
X0309191Y0496688D01*
X0328681Y0496688D01*
X0328681Y0496668D01*
X0328881Y0496668D01*
X0328881Y0497668D01*
X0269826Y0497668D02*
X0269826Y0496668D01*
X0269626Y0496668D01*
X0269626Y0496688D01*
X0250136Y0496688D01*
X0250136Y0497598D01*
X0250026Y0503569D02*
X0250026Y0506969D01*
X0260026Y0516969D01*
X0269706Y0517169D02*
X0269706Y0517179D01*
X0250146Y0517179D01*
X0250146Y0516289D01*
X0250026Y0510369D02*
X0250026Y0506969D01*
X0270026Y0503769D02*
X0270026Y0510469D01*
X0269906Y0516099D02*
X0269906Y0517169D01*
X0269706Y0517169D01*
X0269626Y0555724D02*
X0269626Y0555744D01*
X0250136Y0555744D01*
X0250136Y0556654D01*
X0250026Y0562624D02*
X0250026Y0566024D01*
X0260026Y0576024D01*
X0269706Y0576224D02*
X0269706Y0576234D01*
X0250146Y0576234D01*
X0250146Y0575344D01*
X0250026Y0569424D02*
X0250026Y0566024D01*
X0270026Y0562824D02*
X0270026Y0569524D01*
X0269906Y0575154D02*
X0269906Y0576224D01*
X0269706Y0576224D01*
X0309201Y0576234D02*
X0309201Y0575344D01*
X0309201Y0576234D02*
X0328761Y0576234D01*
X0328761Y0576224D01*
X0328961Y0576224D01*
X0328961Y0575154D01*
X0329081Y0569524D02*
X0329081Y0562824D01*
X0328881Y0556724D02*
X0328881Y0555724D01*
X0328681Y0555724D01*
X0328681Y0555744D01*
X0309191Y0555744D01*
X0309191Y0556654D01*
X0309081Y0562624D02*
X0309081Y0566024D01*
X0319081Y0576024D01*
X0309081Y0569424D02*
X0309081Y0566024D01*
X0269826Y0556724D02*
X0269826Y0555724D01*
X0269626Y0555724D01*
X0210771Y0555724D02*
X0210571Y0555724D01*
X0210571Y0555744D01*
X0191081Y0555744D01*
X0191081Y0556654D01*
X0190971Y0562624D02*
X0190971Y0566024D01*
X0200971Y0576024D01*
X0210651Y0576224D02*
X0210651Y0576234D01*
X0191091Y0576234D01*
X0191091Y0575344D01*
X0190971Y0569424D02*
X0190971Y0566024D01*
X0210971Y0562824D02*
X0210971Y0569524D01*
X0210851Y0575154D02*
X0210851Y0576224D01*
X0210651Y0576224D01*
X0210771Y0556724D02*
X0210771Y0555724D01*
X0210651Y0517179D02*
X0191091Y0517179D01*
X0191091Y0516289D01*
X0190971Y0510369D02*
X0190971Y0506969D01*
X0200971Y0516969D01*
X0210651Y0517169D02*
X0210651Y0517179D01*
X0210651Y0517169D02*
X0210851Y0517169D01*
X0210851Y0516099D01*
X0210971Y0510469D02*
X0210971Y0503769D01*
X0210771Y0497668D02*
X0210771Y0496668D01*
X0210571Y0496668D01*
X0210571Y0496688D01*
X0191081Y0496688D01*
X0191081Y0497598D01*
X0190971Y0503569D02*
X0190971Y0506969D01*
X0151916Y0503769D02*
X0151916Y0510469D01*
X0151796Y0516099D02*
X0151796Y0517169D01*
X0151596Y0517169D01*
X0151596Y0517179D01*
X0132036Y0517179D01*
X0132036Y0516289D01*
X0131916Y0510369D02*
X0131916Y0506969D01*
X0141916Y0516969D01*
X0131916Y0506969D02*
X0131916Y0503569D01*
X0132026Y0497598D02*
X0132026Y0496688D01*
X0151516Y0496688D01*
X0151516Y0496668D01*
X0151716Y0496668D01*
X0151716Y0497668D01*
X0151596Y0458123D02*
X0132036Y0458123D01*
X0132036Y0457233D01*
X0131916Y0451313D02*
X0131916Y0447913D01*
X0141916Y0457913D01*
X0151596Y0458113D02*
X0151596Y0458123D01*
X0151596Y0458113D02*
X0151796Y0458113D01*
X0151796Y0457043D01*
X0151916Y0451413D02*
X0151916Y0444713D01*
X0151716Y0438613D02*
X0151716Y0437613D01*
X0151516Y0437613D01*
X0151516Y0437633D01*
X0132026Y0437633D01*
X0132026Y0438543D01*
X0131916Y0444513D02*
X0131916Y0447913D01*
X0092861Y0444713D02*
X0092861Y0451413D01*
X0092741Y0457043D02*
X0092741Y0458113D01*
X0092541Y0458113D01*
X0092541Y0458123D01*
X0072981Y0458123D01*
X0072981Y0457233D01*
X0072861Y0451313D02*
X0072861Y0447913D01*
X0082861Y0457913D01*
X0072861Y0447913D02*
X0072861Y0444513D01*
X0072971Y0438543D02*
X0072971Y0437633D01*
X0092461Y0437633D01*
X0092461Y0437613D01*
X0092661Y0437613D01*
X0092661Y0438613D01*
X0092541Y0399068D02*
X0072981Y0399068D01*
X0072981Y0398178D01*
X0072861Y0392258D02*
X0072861Y0388858D01*
X0082861Y0398858D01*
X0092541Y0399058D02*
X0092541Y0399068D01*
X0092541Y0399058D02*
X0092741Y0399058D01*
X0092741Y0397988D01*
X0092861Y0392358D02*
X0092861Y0385658D01*
X0092661Y0379558D02*
X0092661Y0378558D01*
X0092461Y0378558D01*
X0092461Y0378578D01*
X0072971Y0378578D01*
X0072971Y0379488D01*
X0072861Y0385458D02*
X0072861Y0388858D01*
X0131916Y0388858D02*
X0131916Y0385458D01*
X0131916Y0388858D02*
X0141916Y0398858D01*
X0151596Y0399058D02*
X0151596Y0399068D01*
X0132036Y0399068D01*
X0132036Y0398178D01*
X0131916Y0392258D02*
X0131916Y0388858D01*
X0132026Y0379488D02*
X0132026Y0378578D01*
X0151516Y0378578D01*
X0151516Y0378558D01*
X0151716Y0378558D01*
X0151716Y0379558D01*
X0151916Y0385658D02*
X0151916Y0392358D01*
X0151796Y0397988D02*
X0151796Y0399058D01*
X0151596Y0399058D01*
X0191091Y0399068D02*
X0191091Y0398178D01*
X0191091Y0399068D02*
X0210651Y0399068D01*
X0210651Y0399058D01*
X0210851Y0399058D01*
X0210851Y0397988D01*
X0210971Y0392358D02*
X0210971Y0385658D01*
X0210771Y0379558D02*
X0210771Y0378558D01*
X0210571Y0378558D01*
X0210571Y0378578D01*
X0191081Y0378578D01*
X0191081Y0379488D01*
X0190971Y0385458D02*
X0190971Y0388858D01*
X0200971Y0398858D01*
X0190971Y0392258D02*
X0190971Y0388858D01*
X0250026Y0388858D02*
X0250026Y0385458D01*
X0250026Y0388858D02*
X0260026Y0398858D01*
X0269706Y0399058D02*
X0269706Y0399068D01*
X0250146Y0399068D01*
X0250146Y0398178D01*
X0250026Y0392258D02*
X0250026Y0388858D01*
X0250136Y0379488D02*
X0250136Y0378578D01*
X0269626Y0378578D01*
X0269626Y0378558D01*
X0269826Y0378558D01*
X0269826Y0379558D01*
X0270026Y0385658D02*
X0270026Y0392358D01*
X0269906Y0397988D02*
X0269906Y0399058D01*
X0269706Y0399058D01*
X0269626Y0437613D02*
X0269626Y0437633D01*
X0250136Y0437633D01*
X0250136Y0438543D01*
X0250026Y0444513D02*
X0250026Y0447913D01*
X0260026Y0457913D01*
X0269706Y0458113D02*
X0269706Y0458123D01*
X0250146Y0458123D01*
X0250146Y0457233D01*
X0250026Y0451313D02*
X0250026Y0447913D01*
X0270026Y0444713D02*
X0270026Y0451413D01*
X0269906Y0457043D02*
X0269906Y0458113D01*
X0269706Y0458113D01*
X0269826Y0438613D02*
X0269826Y0437613D01*
X0269626Y0437613D01*
X0210771Y0437613D02*
X0210571Y0437613D01*
X0210571Y0437633D01*
X0191081Y0437633D01*
X0191081Y0438543D01*
X0190971Y0444513D02*
X0190971Y0447913D01*
X0200971Y0457913D01*
X0210651Y0458113D02*
X0210651Y0458123D01*
X0191091Y0458123D01*
X0191091Y0457233D01*
X0190971Y0451313D02*
X0190971Y0447913D01*
X0210971Y0444713D02*
X0210971Y0451413D01*
X0210851Y0457043D02*
X0210851Y0458113D01*
X0210651Y0458113D01*
X0210771Y0438613D02*
X0210771Y0437613D01*
X0092661Y0496668D02*
X0092461Y0496668D01*
X0092461Y0496688D01*
X0072971Y0496688D01*
X0072971Y0497598D01*
X0072861Y0503569D02*
X0072861Y0506969D01*
X0082861Y0516969D01*
X0092541Y0517169D02*
X0092541Y0517179D01*
X0072981Y0517179D01*
X0072981Y0516289D01*
X0072861Y0510369D02*
X0072861Y0506969D01*
X0092861Y0503769D02*
X0092861Y0510469D01*
X0092741Y0516099D02*
X0092741Y0517169D01*
X0092541Y0517169D01*
X0092661Y0497668D02*
X0092661Y0496668D01*
X0092661Y0555724D02*
X0092461Y0555724D01*
X0092461Y0555744D01*
X0072971Y0555744D01*
X0072971Y0556654D01*
X0072861Y0562624D02*
X0072861Y0566024D01*
X0082861Y0576024D01*
X0092541Y0576224D02*
X0092541Y0576234D01*
X0072981Y0576234D01*
X0072981Y0575344D01*
X0072861Y0569424D02*
X0072861Y0566024D01*
X0092861Y0562824D02*
X0092861Y0569524D01*
X0092741Y0575154D02*
X0092741Y0576224D01*
X0092541Y0576224D01*
X0092661Y0556724D02*
X0092661Y0555724D01*
X0132026Y0555744D02*
X0132026Y0556654D01*
X0132026Y0555744D02*
X0151516Y0555744D01*
X0151516Y0555724D01*
X0151716Y0555724D01*
X0151716Y0556724D01*
X0151916Y0562824D02*
X0151916Y0569524D01*
X0151796Y0575154D02*
X0151796Y0576224D01*
X0151596Y0576224D01*
X0151596Y0576234D01*
X0132036Y0576234D01*
X0132036Y0575344D01*
X0131916Y0569424D02*
X0131916Y0566024D01*
X0141916Y0576024D01*
X0131916Y0566024D02*
X0131916Y0562624D01*
X0132026Y0614799D02*
X0132026Y0615709D01*
X0132026Y0614799D02*
X0151516Y0614799D01*
X0151516Y0614779D01*
X0151716Y0614779D01*
X0151716Y0615779D01*
X0151916Y0621879D02*
X0151916Y0628579D01*
X0151796Y0634209D02*
X0151796Y0635279D01*
X0151596Y0635279D01*
X0151596Y0635289D01*
X0132036Y0635289D01*
X0132036Y0634399D01*
X0131916Y0628479D02*
X0131916Y0625079D01*
X0141916Y0635079D01*
X0131916Y0625079D02*
X0131916Y0621679D01*
X0092861Y0621879D02*
X0092861Y0628579D01*
X0092741Y0634209D02*
X0092741Y0635279D01*
X0092541Y0635279D01*
X0092541Y0635289D01*
X0072981Y0635289D01*
X0072981Y0634399D01*
X0072861Y0628479D02*
X0072861Y0625079D01*
X0082861Y0635079D01*
X0072861Y0625079D02*
X0072861Y0621679D01*
X0072971Y0615709D02*
X0072971Y0614799D01*
X0092461Y0614799D01*
X0092461Y0614779D01*
X0092661Y0614779D01*
X0092661Y0615779D01*
X0092661Y0673834D02*
X0092461Y0673834D01*
X0092461Y0673854D01*
X0072971Y0673854D01*
X0072971Y0674764D01*
X0072861Y0680734D02*
X0072861Y0684134D01*
X0082861Y0694134D01*
X0092541Y0694334D02*
X0092541Y0694344D01*
X0072981Y0694344D01*
X0072981Y0693454D01*
X0072861Y0687534D02*
X0072861Y0684134D01*
X0092861Y0680934D02*
X0092861Y0687634D01*
X0092741Y0693264D02*
X0092741Y0694334D01*
X0092541Y0694334D01*
X0092661Y0674834D02*
X0092661Y0673834D01*
X0132026Y0673854D02*
X0132026Y0674764D01*
X0132026Y0673854D02*
X0151516Y0673854D01*
X0151516Y0673834D01*
X0151716Y0673834D01*
X0151716Y0674834D01*
X0151916Y0680934D02*
X0151916Y0687634D01*
X0151796Y0693264D02*
X0151796Y0694334D01*
X0151596Y0694334D01*
X0151596Y0694344D01*
X0132036Y0694344D01*
X0132036Y0693454D01*
X0131916Y0687534D02*
X0131916Y0684134D01*
X0141916Y0694134D01*
X0131916Y0684134D02*
X0131916Y0680734D01*
X0190971Y0680734D02*
X0190971Y0684134D01*
X0200971Y0694134D01*
X0210651Y0694334D02*
X0210651Y0694344D01*
X0191091Y0694344D01*
X0191091Y0693454D01*
X0190971Y0687534D02*
X0190971Y0684134D01*
X0210971Y0680934D02*
X0210971Y0687634D01*
X0210851Y0693264D02*
X0210851Y0694334D01*
X0210651Y0694334D01*
X0210771Y0674834D02*
X0210771Y0673834D01*
X0210571Y0673834D01*
X0210571Y0673854D01*
X0191081Y0673854D01*
X0191081Y0674764D01*
X0191091Y0635289D02*
X0191091Y0634399D01*
X0191091Y0635289D02*
X0210651Y0635289D01*
X0210651Y0635279D01*
X0210851Y0635279D01*
X0210851Y0634209D01*
X0210971Y0628579D02*
X0210971Y0621879D01*
X0210771Y0615779D02*
X0210771Y0614779D01*
X0210571Y0614779D01*
X0210571Y0614799D01*
X0191081Y0614799D01*
X0191081Y0615709D01*
X0190971Y0621679D02*
X0190971Y0625079D01*
X0200971Y0635079D01*
X0190971Y0628479D02*
X0190971Y0625079D01*
X0250026Y0625079D02*
X0250026Y0621679D01*
X0250026Y0625079D02*
X0260026Y0635079D01*
X0269706Y0635279D02*
X0269706Y0635289D01*
X0250146Y0635289D01*
X0250146Y0634399D01*
X0250026Y0628479D02*
X0250026Y0625079D01*
X0250136Y0615709D02*
X0250136Y0614799D01*
X0269626Y0614799D01*
X0269626Y0614779D01*
X0269826Y0614779D01*
X0269826Y0615779D01*
X0270026Y0621879D02*
X0270026Y0628579D01*
X0269906Y0634209D02*
X0269906Y0635279D01*
X0269706Y0635279D01*
X0309201Y0635289D02*
X0309201Y0634399D01*
X0309201Y0635289D02*
X0328761Y0635289D01*
X0328761Y0635279D01*
X0328961Y0635279D01*
X0328961Y0634209D01*
X0329081Y0628579D02*
X0329081Y0621879D01*
X0328881Y0615779D02*
X0328881Y0614779D01*
X0328681Y0614779D01*
X0328681Y0614799D01*
X0309191Y0614799D01*
X0309191Y0615709D01*
X0309081Y0621679D02*
X0309081Y0625079D01*
X0319081Y0635079D01*
X0309081Y0628479D02*
X0309081Y0625079D01*
X0309191Y0673854D02*
X0309191Y0674764D01*
X0309191Y0673854D02*
X0328681Y0673854D01*
X0328681Y0673834D01*
X0328881Y0673834D01*
X0328881Y0674834D01*
X0329081Y0680934D02*
X0329081Y0687634D01*
X0328961Y0693264D02*
X0328961Y0694334D01*
X0328761Y0694334D01*
X0328761Y0694344D01*
X0309201Y0694344D01*
X0309201Y0693454D01*
X0309081Y0687534D02*
X0309081Y0684134D01*
X0319081Y0694134D01*
X0309081Y0684134D02*
X0309081Y0680734D01*
X0270026Y0680934D02*
X0270026Y0687634D01*
X0269906Y0693264D02*
X0269906Y0694334D01*
X0269706Y0694334D01*
X0269706Y0694344D01*
X0250146Y0694344D01*
X0250146Y0693454D01*
X0250026Y0687534D02*
X0250026Y0684134D01*
X0260026Y0694134D01*
X0250026Y0684134D02*
X0250026Y0680734D01*
X0250136Y0674764D02*
X0250136Y0673854D01*
X0269626Y0673854D01*
X0269626Y0673834D01*
X0269826Y0673834D01*
X0269826Y0674834D01*
X0269826Y0732889D02*
X0269626Y0732889D01*
X0269626Y0732909D01*
X0250136Y0732909D01*
X0250136Y0733819D01*
X0250026Y0739789D02*
X0250026Y0743189D01*
X0260026Y0753189D01*
X0269706Y0753389D02*
X0269706Y0753399D01*
X0250146Y0753399D01*
X0250146Y0752509D01*
X0250026Y0746589D02*
X0250026Y0743189D01*
X0270026Y0739989D02*
X0270026Y0746689D01*
X0269906Y0752319D02*
X0269906Y0753389D01*
X0269706Y0753389D01*
X0309201Y0753399D02*
X0309201Y0752509D01*
X0309201Y0753399D02*
X0328761Y0753399D01*
X0328761Y0753389D01*
X0328961Y0753389D01*
X0328961Y0752319D01*
X0329081Y0746689D02*
X0329081Y0739989D01*
X0328881Y0733889D02*
X0328881Y0732889D01*
X0328681Y0732889D01*
X0328681Y0732909D01*
X0309191Y0732909D01*
X0309191Y0733819D01*
X0309081Y0739789D02*
X0309081Y0743189D01*
X0319081Y0753189D01*
X0309081Y0746589D02*
X0309081Y0743189D01*
X0269826Y0733889D02*
X0269826Y0732889D01*
X0210771Y0732889D02*
X0210571Y0732889D01*
X0210571Y0732909D01*
X0191081Y0732909D01*
X0191081Y0733819D01*
X0190971Y0739789D02*
X0190971Y0743189D01*
X0200971Y0753189D01*
X0210651Y0753389D02*
X0210651Y0753399D01*
X0191091Y0753399D01*
X0191091Y0752509D01*
X0190971Y0746589D02*
X0190971Y0743189D01*
X0210971Y0739989D02*
X0210971Y0746689D01*
X0210851Y0752319D02*
X0210851Y0753389D01*
X0210651Y0753389D01*
X0210771Y0733889D02*
X0210771Y0732889D01*
X0151716Y0732889D02*
X0151516Y0732889D01*
X0151516Y0732909D01*
X0132026Y0732909D01*
X0132026Y0733819D01*
X0131916Y0739789D02*
X0131916Y0743189D01*
X0141916Y0753189D01*
X0151596Y0753389D02*
X0151596Y0753399D01*
X0132036Y0753399D01*
X0132036Y0752509D01*
X0131916Y0746589D02*
X0131916Y0743189D01*
X0151916Y0739989D02*
X0151916Y0746689D01*
X0151796Y0752319D02*
X0151796Y0753389D01*
X0151596Y0753389D01*
X0151716Y0733889D02*
X0151716Y0732889D01*
X0092661Y0732889D02*
X0092461Y0732889D01*
X0092461Y0732909D01*
X0072971Y0732909D01*
X0072971Y0733819D01*
X0072861Y0739789D02*
X0072861Y0743189D01*
X0082861Y0753189D01*
X0092541Y0753389D02*
X0092541Y0753399D01*
X0072981Y0753399D01*
X0072981Y0752509D01*
X0072861Y0746589D02*
X0072861Y0743189D01*
X0092861Y0739989D02*
X0092861Y0746689D01*
X0092741Y0752319D02*
X0092741Y0753389D01*
X0092541Y0753389D01*
X0092661Y0733889D02*
X0092661Y0732889D01*
X0132026Y0791964D02*
X0132026Y0792874D01*
X0132026Y0791964D02*
X0151516Y0791964D01*
X0151516Y0791944D01*
X0151716Y0791944D01*
X0151716Y0792944D01*
X0151916Y0799044D02*
X0151916Y0805744D01*
X0151796Y0811374D02*
X0151796Y0812444D01*
X0151596Y0812444D01*
X0151596Y0812454D01*
X0132036Y0812454D01*
X0132036Y0811564D01*
X0131916Y0805644D02*
X0131916Y0802244D01*
X0141916Y0812244D01*
X0131916Y0802244D02*
X0131916Y0798844D01*
X0190971Y0798844D02*
X0190971Y0802244D01*
X0200971Y0812244D01*
X0210651Y0812444D02*
X0210651Y0812454D01*
X0191091Y0812454D01*
X0191091Y0811564D01*
X0190971Y0805644D02*
X0190971Y0802244D01*
X0210971Y0799044D02*
X0210971Y0805744D01*
X0210851Y0811374D02*
X0210851Y0812444D01*
X0210651Y0812444D01*
X0210771Y0792944D02*
X0210771Y0791944D01*
X0210571Y0791944D01*
X0210571Y0791964D01*
X0191081Y0791964D01*
X0191081Y0792874D01*
X0250136Y0792874D02*
X0250136Y0791964D01*
X0269626Y0791964D01*
X0269626Y0791944D01*
X0269826Y0791944D01*
X0269826Y0792944D01*
X0270026Y0799044D02*
X0270026Y0805744D01*
X0269906Y0811374D02*
X0269906Y0812444D01*
X0269706Y0812444D01*
X0269706Y0812454D01*
X0250146Y0812454D01*
X0250146Y0811564D01*
X0250026Y0805644D02*
X0250026Y0802244D01*
X0260026Y0812244D01*
X0250026Y0802244D02*
X0250026Y0798844D01*
X0309081Y0798844D02*
X0309081Y0802244D01*
X0319081Y0812244D01*
X0328761Y0812444D02*
X0328761Y0812454D01*
X0309201Y0812454D01*
X0309201Y0811564D01*
X0309081Y0805644D02*
X0309081Y0802244D01*
X0309191Y0792874D02*
X0309191Y0791964D01*
X0328681Y0791964D01*
X0328681Y0791944D01*
X0328881Y0791944D01*
X0328881Y0792944D01*
X0329081Y0799044D02*
X0329081Y0805744D01*
X0328961Y0811374D02*
X0328961Y0812444D01*
X0328761Y0812444D01*
X0368256Y0812454D02*
X0368256Y0811564D01*
X0368256Y0812454D02*
X0387816Y0812454D01*
X0387816Y0812444D01*
X0388016Y0812444D01*
X0388016Y0811374D01*
X0388136Y0805744D02*
X0388136Y0799044D01*
X0387936Y0792944D02*
X0387936Y0791944D01*
X0387736Y0791944D01*
X0387736Y0791964D01*
X0368246Y0791964D01*
X0368246Y0792874D01*
X0368136Y0798844D02*
X0368136Y0802244D01*
X0378136Y0812244D01*
X0368136Y0805644D02*
X0368136Y0802244D01*
X0427192Y0802244D02*
X0427192Y0798844D01*
X0427192Y0802244D02*
X0437192Y0812244D01*
X0446872Y0812444D02*
X0446872Y0812454D01*
X0427312Y0812454D01*
X0427312Y0811564D01*
X0427192Y0805644D02*
X0427192Y0802244D01*
X0427302Y0792874D02*
X0427302Y0791964D01*
X0446792Y0791964D01*
X0446792Y0791944D01*
X0446992Y0791944D01*
X0446992Y0792944D01*
X0447192Y0799044D02*
X0447192Y0805744D01*
X0447072Y0811374D02*
X0447072Y0812444D01*
X0446872Y0812444D01*
X0486367Y0812454D02*
X0486367Y0811564D01*
X0486367Y0812454D02*
X0505927Y0812454D01*
X0505927Y0812444D01*
X0506127Y0812444D01*
X0506127Y0811374D01*
X0506247Y0805744D02*
X0506247Y0799044D01*
X0506047Y0792944D02*
X0506047Y0791944D01*
X0505847Y0791944D01*
X0505847Y0791964D01*
X0486357Y0791964D01*
X0486357Y0792874D01*
X0486247Y0798844D02*
X0486247Y0802244D01*
X0496247Y0812244D01*
X0486247Y0805644D02*
X0486247Y0802244D01*
X0545302Y0802244D02*
X0545302Y0798844D01*
X0545302Y0802244D02*
X0555302Y0812244D01*
X0564982Y0812444D02*
X0564982Y0812454D01*
X0545422Y0812454D01*
X0545422Y0811564D01*
X0545302Y0805644D02*
X0545302Y0802244D01*
X0565302Y0799044D02*
X0565302Y0805744D01*
X0565182Y0811374D02*
X0565182Y0812444D01*
X0564982Y0812444D01*
X0565102Y0792944D02*
X0565102Y0791944D01*
X0564902Y0791944D01*
X0564902Y0791964D01*
X0545412Y0791964D01*
X0545412Y0792874D01*
X0506127Y0753389D02*
X0505927Y0753389D01*
X0505927Y0753399D01*
X0486367Y0753399D01*
X0486367Y0752509D01*
X0486247Y0746589D02*
X0486247Y0743189D01*
X0496247Y0753189D01*
X0506127Y0753389D02*
X0506127Y0752319D01*
X0506247Y0746689D02*
X0506247Y0739989D01*
X0506047Y0733889D02*
X0506047Y0732889D01*
X0505847Y0732889D01*
X0505847Y0732909D01*
X0486357Y0732909D01*
X0486357Y0733819D01*
X0486247Y0739789D02*
X0486247Y0743189D01*
X0447192Y0739989D02*
X0447192Y0746689D01*
X0447072Y0752319D02*
X0447072Y0753389D01*
X0446872Y0753389D01*
X0446872Y0753399D01*
X0427312Y0753399D01*
X0427312Y0752509D01*
X0427192Y0746589D02*
X0427192Y0743189D01*
X0437192Y0753189D01*
X0427192Y0743189D02*
X0427192Y0739789D01*
X0427302Y0733819D02*
X0427302Y0732909D01*
X0446792Y0732909D01*
X0446792Y0732889D01*
X0446992Y0732889D01*
X0446992Y0733889D01*
X0446872Y0694344D02*
X0427312Y0694344D01*
X0427312Y0693454D01*
X0427192Y0687534D02*
X0427192Y0684134D01*
X0437192Y0694134D01*
X0446872Y0694334D02*
X0446872Y0694344D01*
X0446872Y0694334D02*
X0447072Y0694334D01*
X0447072Y0693264D01*
X0447192Y0687634D02*
X0447192Y0680934D01*
X0446992Y0674834D02*
X0446992Y0673834D01*
X0446792Y0673834D01*
X0446792Y0673854D01*
X0427302Y0673854D01*
X0427302Y0674764D01*
X0427192Y0680734D02*
X0427192Y0684134D01*
X0388136Y0680934D02*
X0388136Y0687634D01*
X0388016Y0693264D02*
X0388016Y0694334D01*
X0387816Y0694334D01*
X0387816Y0694344D01*
X0368256Y0694344D01*
X0368256Y0693454D01*
X0368136Y0687534D02*
X0368136Y0684134D01*
X0378136Y0694134D01*
X0368136Y0684134D02*
X0368136Y0680734D01*
X0368246Y0674764D02*
X0368246Y0673854D01*
X0387736Y0673854D01*
X0387736Y0673834D01*
X0387936Y0673834D01*
X0387936Y0674834D01*
X0387816Y0635289D02*
X0368256Y0635289D01*
X0368256Y0634399D01*
X0368136Y0628479D02*
X0368136Y0625079D01*
X0378136Y0635079D01*
X0387816Y0635279D02*
X0387816Y0635289D01*
X0387816Y0635279D02*
X0388016Y0635279D01*
X0388016Y0634209D01*
X0388136Y0628579D02*
X0388136Y0621879D01*
X0387936Y0615779D02*
X0387936Y0614779D01*
X0387736Y0614779D01*
X0387736Y0614799D01*
X0368246Y0614799D01*
X0368246Y0615709D01*
X0368136Y0621679D02*
X0368136Y0625079D01*
X0486367Y0576234D02*
X0486367Y0575344D01*
X0486367Y0576234D02*
X0505927Y0576234D01*
X0505927Y0576224D01*
X0506127Y0576224D01*
X0506127Y0575154D01*
X0506247Y0569524D02*
X0506247Y0562824D01*
X0506047Y0556724D02*
X0506047Y0555724D01*
X0505847Y0555724D01*
X0505847Y0555744D01*
X0486357Y0555744D01*
X0486357Y0556654D01*
X0486247Y0562624D02*
X0486247Y0566024D01*
X0496247Y0576024D01*
X0486247Y0569424D02*
X0486247Y0566024D01*
X0545412Y0614799D02*
X0545412Y0615709D01*
X0545412Y0614799D02*
X0564902Y0614799D01*
X0564902Y0614779D01*
X0565102Y0614779D01*
X0565102Y0615779D01*
X0565302Y0621879D02*
X0565302Y0628579D01*
X0565182Y0634209D02*
X0565182Y0635279D01*
X0564982Y0635279D01*
X0564982Y0635289D01*
X0545422Y0635289D01*
X0545422Y0634399D01*
X0545302Y0628479D02*
X0545302Y0625079D01*
X0555302Y0635079D01*
X0545302Y0625079D02*
X0545302Y0621679D01*
X0604357Y0621679D02*
X0604357Y0625079D01*
X0614357Y0635079D01*
X0624037Y0635279D02*
X0624037Y0635289D01*
X0604477Y0635289D01*
X0604477Y0634399D01*
X0604357Y0628479D02*
X0604357Y0625079D01*
X0604467Y0615709D02*
X0604467Y0614799D01*
X0623957Y0614799D01*
X0623957Y0614779D01*
X0624157Y0614779D01*
X0624157Y0615779D01*
X0624357Y0621879D02*
X0624357Y0628579D01*
X0624237Y0634209D02*
X0624237Y0635279D01*
X0624037Y0635279D01*
X0623957Y0673834D02*
X0623957Y0673854D01*
X0604467Y0673854D01*
X0604467Y0674764D01*
X0604357Y0680734D02*
X0604357Y0684134D01*
X0614357Y0694134D01*
X0624037Y0694334D02*
X0624037Y0694344D01*
X0604477Y0694344D01*
X0604477Y0693454D01*
X0604357Y0687534D02*
X0604357Y0684134D01*
X0624357Y0680934D02*
X0624357Y0687634D01*
X0624237Y0693264D02*
X0624237Y0694334D01*
X0624037Y0694334D01*
X0624157Y0674834D02*
X0624157Y0673834D01*
X0623957Y0673834D01*
X0840697Y0635289D02*
X0840697Y0634399D01*
X0840697Y0635289D02*
X0860257Y0635289D01*
X0860257Y0635279D01*
X0860457Y0635279D01*
X0860457Y0634209D01*
X0860577Y0628579D02*
X0860577Y0621879D01*
X0860377Y0615779D02*
X0860377Y0614779D01*
X0860177Y0614779D01*
X0860177Y0614799D01*
X0840687Y0614799D01*
X0840687Y0615709D01*
X0840577Y0621679D02*
X0840577Y0625079D01*
X0850577Y0635079D01*
X0840577Y0628479D02*
X0840577Y0625079D01*
X0958808Y0576234D02*
X0958808Y0575344D01*
X0958808Y0576234D02*
X0978368Y0576234D01*
X0978368Y0576224D01*
X0978568Y0576224D01*
X0978568Y0575154D01*
X0978688Y0569524D02*
X0978688Y0562824D01*
X0978488Y0556724D02*
X0978488Y0555724D01*
X0978288Y0555724D01*
X0978288Y0555744D01*
X0958798Y0555744D01*
X0958798Y0556654D01*
X0958688Y0562624D02*
X0958688Y0566024D01*
X0968688Y0576024D01*
X0958688Y0569424D02*
X0958688Y0566024D01*
X1017743Y0566024D02*
X1017743Y0562624D01*
X1017743Y0566024D02*
X1027743Y0576024D01*
X1037423Y0576224D02*
X1037423Y0576234D01*
X1017863Y0576234D01*
X1017863Y0575344D01*
X1017743Y0569424D02*
X1017743Y0566024D01*
X1037423Y0576224D02*
X1037623Y0576224D01*
X1037623Y0575154D01*
X1037743Y0569524D02*
X1037743Y0562824D01*
X1037543Y0556724D02*
X1037543Y0555724D01*
X1037343Y0555724D01*
X1037343Y0555744D01*
X1017853Y0555744D01*
X1017853Y0556654D01*
X1017863Y0517179D02*
X1017863Y0516289D01*
X1017863Y0517179D02*
X1037423Y0517179D01*
X1037423Y0517169D01*
X1037623Y0517169D01*
X1037623Y0516099D01*
X1037743Y0510469D02*
X1037743Y0503769D01*
X1037543Y0497668D02*
X1037543Y0496668D01*
X1037343Y0496668D01*
X1037343Y0496688D01*
X1017853Y0496688D01*
X1017853Y0497598D01*
X1017743Y0503569D02*
X1017743Y0506969D01*
X1027743Y0516969D01*
X1017743Y0510369D02*
X1017743Y0506969D01*
X0978688Y0503769D02*
X0978688Y0510469D01*
X0978568Y0516099D02*
X0978568Y0517169D01*
X0978368Y0517169D01*
X0978368Y0517179D01*
X0958808Y0517179D01*
X0958808Y0516289D01*
X0958688Y0510369D02*
X0958688Y0506969D01*
X0968688Y0516969D01*
X0958688Y0506969D02*
X0958688Y0503569D01*
X0958798Y0497598D02*
X0958798Y0496688D01*
X0978288Y0496688D01*
X0978288Y0496668D01*
X0978488Y0496668D01*
X0978488Y0497668D01*
X0978368Y0458123D02*
X0958808Y0458123D01*
X0958808Y0457233D01*
X0958688Y0451313D02*
X0958688Y0447913D01*
X0968688Y0457913D01*
X0978368Y0458113D02*
X0978368Y0458123D01*
X0978368Y0458113D02*
X0978568Y0458113D01*
X0978568Y0457043D01*
X0978688Y0451413D02*
X0978688Y0444713D01*
X0978488Y0438613D02*
X0978488Y0437613D01*
X0978288Y0437613D01*
X0978288Y0437633D01*
X0958798Y0437633D01*
X0958798Y0438543D01*
X0958688Y0444513D02*
X0958688Y0447913D01*
X0919633Y0444713D02*
X0919633Y0451413D01*
X0919513Y0457043D02*
X0919513Y0458113D01*
X0919313Y0458113D01*
X0919313Y0458123D01*
X0899753Y0458123D01*
X0899753Y0457233D01*
X0899633Y0451313D02*
X0899633Y0447913D01*
X0909633Y0457913D01*
X0899633Y0447913D02*
X0899633Y0444513D01*
X0899743Y0438543D02*
X0899743Y0437633D01*
X0919233Y0437633D01*
X0919233Y0437613D01*
X0919433Y0437613D01*
X0919433Y0438613D01*
X0919313Y0399068D02*
X0899753Y0399068D01*
X0899753Y0398178D01*
X0899633Y0392258D02*
X0899633Y0388858D01*
X0909633Y0398858D01*
X0919313Y0399058D02*
X0919313Y0399068D01*
X0919313Y0399058D02*
X0919513Y0399058D01*
X0919513Y0397988D01*
X0919633Y0392358D02*
X0919633Y0385658D01*
X0919433Y0379558D02*
X0919433Y0378558D01*
X0919233Y0378558D01*
X0919233Y0378578D01*
X0899743Y0378578D01*
X0899743Y0379488D01*
X0899633Y0385458D02*
X0899633Y0388858D01*
X0860577Y0385658D02*
X0860577Y0392358D01*
X0860457Y0397988D02*
X0860457Y0399058D01*
X0860257Y0399058D01*
X0860257Y0399068D01*
X0840697Y0399068D01*
X0840697Y0398178D01*
X0840577Y0392258D02*
X0840577Y0388858D01*
X0850577Y0398858D01*
X0840577Y0388858D02*
X0840577Y0385458D01*
X0840687Y0379488D02*
X0840687Y0378578D01*
X0860177Y0378578D01*
X0860177Y0378558D01*
X0860377Y0378558D01*
X0860377Y0379558D01*
X0801322Y0379558D02*
X0801322Y0378558D01*
X0801122Y0378558D01*
X0801122Y0378578D01*
X0781632Y0378578D01*
X0781632Y0379488D01*
X0781522Y0385458D02*
X0781522Y0388858D01*
X0791522Y0398858D01*
X0801202Y0399058D02*
X0801202Y0399068D01*
X0781642Y0399068D01*
X0781642Y0398178D01*
X0781522Y0392258D02*
X0781522Y0388858D01*
X0801522Y0385658D02*
X0801522Y0392358D01*
X0801402Y0397988D02*
X0801402Y0399058D01*
X0801202Y0399058D01*
X0840687Y0437633D02*
X0840687Y0438543D01*
X0840687Y0437633D02*
X0860177Y0437633D01*
X0860177Y0437613D01*
X0860377Y0437613D01*
X0860377Y0438613D01*
X0860577Y0444713D02*
X0860577Y0451413D01*
X0860457Y0457043D02*
X0860457Y0458113D01*
X0860257Y0458113D01*
X0860257Y0458123D01*
X0840697Y0458123D01*
X0840697Y0457233D01*
X0840577Y0451313D02*
X0840577Y0447913D01*
X0850577Y0457913D01*
X0840577Y0447913D02*
X0840577Y0444513D01*
X0899743Y0496688D02*
X0899743Y0497598D01*
X0899743Y0496688D02*
X0919233Y0496688D01*
X0919233Y0496668D01*
X0919433Y0496668D01*
X0919433Y0497668D01*
X0919633Y0503769D02*
X0919633Y0510469D01*
X0919513Y0516099D02*
X0919513Y0517169D01*
X0919313Y0517169D01*
X0919313Y0517179D01*
X0899753Y0517179D01*
X0899753Y0516289D01*
X0899633Y0510369D02*
X0899633Y0506969D01*
X0909633Y0516969D01*
X0899633Y0506969D02*
X0899633Y0503569D01*
X1017863Y0458123D02*
X1017863Y0457233D01*
X1017863Y0458123D02*
X1037423Y0458123D01*
X1037423Y0458113D01*
X1037623Y0458113D01*
X1037623Y0457043D01*
X1037743Y0451413D02*
X1037743Y0444713D01*
X1037543Y0438613D02*
X1037543Y0437613D01*
X1037343Y0437613D01*
X1037343Y0437633D01*
X1017853Y0437633D01*
X1017853Y0438543D01*
X1017743Y0444513D02*
X1017743Y0447913D01*
X1027743Y0457913D01*
X1017743Y0451313D02*
X1017743Y0447913D01*
X1076798Y0447913D02*
X1076798Y0444513D01*
X1076798Y0447913D02*
X1086798Y0457913D01*
X1096478Y0458113D02*
X1096478Y0458123D01*
X1076918Y0458123D01*
X1076918Y0457233D01*
X1076798Y0451313D02*
X1076798Y0447913D01*
X1076908Y0438543D02*
X1076908Y0437633D01*
X1096398Y0437633D01*
X1096398Y0437613D01*
X1096598Y0437613D01*
X1096598Y0438613D01*
X1096798Y0444713D02*
X1096798Y0451413D01*
X1096678Y0457043D02*
X1096678Y0458113D01*
X1096478Y0458113D01*
X1096398Y0496668D02*
X1096398Y0496688D01*
X1076908Y0496688D01*
X1076908Y0497598D01*
X1076798Y0503569D02*
X1076798Y0506969D01*
X1086798Y0516969D01*
X1096478Y0517169D02*
X1096478Y0517179D01*
X1076918Y0517179D01*
X1076918Y0516289D01*
X1076798Y0510369D02*
X1076798Y0506969D01*
X1096798Y0503769D02*
X1096798Y0510469D01*
X1096678Y0516099D02*
X1096678Y0517169D01*
X1096478Y0517169D01*
X1096598Y0497668D02*
X1096598Y0496668D01*
X1096398Y0496668D01*
X1096398Y0555724D02*
X1096398Y0555744D01*
X1076908Y0555744D01*
X1076908Y0556654D01*
X1076798Y0562624D02*
X1076798Y0566024D01*
X1086798Y0576024D01*
X1096478Y0576224D02*
X1096478Y0576234D01*
X1076918Y0576234D01*
X1076918Y0575344D01*
X1076798Y0569424D02*
X1076798Y0566024D01*
X1096798Y0562824D02*
X1096798Y0569524D01*
X1096678Y0575154D02*
X1096678Y0576224D01*
X1096478Y0576224D01*
X1096598Y0556724D02*
X1096598Y0555724D01*
X1096398Y0555724D01*
X1096398Y0614779D02*
X1096398Y0614799D01*
X1076908Y0614799D01*
X1076908Y0615709D01*
X1076798Y0621679D02*
X1076798Y0625079D01*
X1086798Y0635079D01*
X1096478Y0635279D02*
X1096478Y0635289D01*
X1076918Y0635289D01*
X1076918Y0634399D01*
X1076798Y0628479D02*
X1076798Y0625079D01*
X1096798Y0621879D02*
X1096798Y0628579D01*
X1096678Y0634209D02*
X1096678Y0635279D01*
X1096478Y0635279D01*
X1096598Y0615779D02*
X1096598Y0614779D01*
X1096398Y0614779D01*
X1037543Y0614779D02*
X1037343Y0614779D01*
X1037343Y0614799D01*
X1017853Y0614799D01*
X1017853Y0615709D01*
X1017743Y0621679D02*
X1017743Y0625079D01*
X1027743Y0635079D01*
X1037423Y0635279D02*
X1037423Y0635289D01*
X1017863Y0635289D01*
X1017863Y0634399D01*
X1017743Y0628479D02*
X1017743Y0625079D01*
X1037423Y0635279D02*
X1037623Y0635279D01*
X1037623Y0634209D01*
X1037743Y0628579D02*
X1037743Y0621879D01*
X1037543Y0615779D02*
X1037543Y0614779D01*
X1076908Y0673854D02*
X1076908Y0674764D01*
X1076908Y0673854D02*
X1096398Y0673854D01*
X1096398Y0673834D01*
X1096598Y0673834D01*
X1096598Y0674834D01*
X1096798Y0680934D02*
X1096798Y0687634D01*
X1096678Y0693264D02*
X1096678Y0694334D01*
X1096478Y0694334D01*
X1096478Y0694344D01*
X1076918Y0694344D01*
X1076918Y0693454D01*
X1076798Y0687534D02*
X1076798Y0684134D01*
X1086798Y0694134D01*
X1076798Y0684134D02*
X1076798Y0680734D01*
X1037543Y0791944D02*
X1037343Y0791944D01*
X1037343Y0791964D01*
X1017853Y0791964D01*
X1017853Y0792874D01*
X1017743Y0798844D02*
X1017743Y0802244D01*
X1027743Y0812244D01*
X1037423Y0812444D02*
X1037423Y0812454D01*
X1017863Y0812454D01*
X1017863Y0811564D01*
X1017743Y0805644D02*
X1017743Y0802244D01*
X1037423Y0812444D02*
X1037623Y0812444D01*
X1037623Y0811374D01*
X1037743Y0805744D02*
X1037743Y0799044D01*
X1037543Y0792944D02*
X1037543Y0791944D01*
X0860457Y0753389D02*
X0860257Y0753389D01*
X0860257Y0753399D01*
X0840697Y0753399D01*
X0840697Y0752509D01*
X0840577Y0746589D02*
X0840577Y0743189D01*
X0850577Y0753189D01*
X0860457Y0753389D02*
X0860457Y0752319D01*
X0860577Y0746689D02*
X0860577Y0739989D01*
X0860377Y0733889D02*
X0860377Y0732889D01*
X0860177Y0732889D01*
X0860177Y0732909D01*
X0840687Y0732909D01*
X0840687Y0733819D01*
X0840577Y0739789D02*
X0840577Y0743189D01*
X0506127Y0517169D02*
X0505927Y0517169D01*
X0505927Y0517179D01*
X0486367Y0517179D01*
X0486367Y0516289D01*
X0486247Y0510369D02*
X0486247Y0506969D01*
X0496247Y0516969D01*
X0506127Y0517169D02*
X0506127Y0516099D01*
X0506247Y0510469D02*
X0506247Y0503769D01*
X0506047Y0497668D02*
X0506047Y0496668D01*
X0505847Y0496668D01*
X0505847Y0496688D01*
X0486357Y0496688D01*
X0486357Y0497598D01*
X0486247Y0503569D02*
X0486247Y0506969D01*
X0447192Y0503769D02*
X0447192Y0510469D01*
X0447072Y0516099D02*
X0447072Y0517169D01*
X0446872Y0517169D01*
X0446872Y0517179D01*
X0427312Y0517179D01*
X0427312Y0516289D01*
X0427192Y0510369D02*
X0427192Y0506969D01*
X0437192Y0516969D01*
X0427192Y0506969D02*
X0427192Y0503569D01*
X0427302Y0497598D02*
X0427302Y0496688D01*
X0446792Y0496688D01*
X0446792Y0496668D01*
X0446992Y0496668D01*
X0446992Y0497668D01*
X0328961Y0340003D02*
X0328761Y0340003D01*
X0328761Y0340013D01*
X0309201Y0340013D01*
X0309201Y0339123D01*
X0309081Y0333203D02*
X0309081Y0329803D01*
X0319081Y0339803D01*
X0328961Y0340003D02*
X0328961Y0338933D01*
X0329081Y0333303D02*
X0329081Y0326603D01*
X0328881Y0320503D02*
X0328881Y0319503D01*
X0328681Y0319503D01*
X0328681Y0319523D01*
X0309191Y0319523D01*
X0309191Y0320433D01*
X0309081Y0326403D02*
X0309081Y0329803D01*
X0270026Y0326603D02*
X0270026Y0333303D01*
X0269906Y0338933D02*
X0269906Y0340003D01*
X0269706Y0340003D01*
X0269706Y0340013D01*
X0250146Y0340013D01*
X0250146Y0339123D01*
X0250026Y0333203D02*
X0250026Y0329803D01*
X0260026Y0339803D01*
X0250026Y0329803D02*
X0250026Y0326403D01*
X0250136Y0320433D02*
X0250136Y0319523D01*
X0269626Y0319523D01*
X0269626Y0319503D01*
X0269826Y0319503D01*
X0269826Y0320503D01*
X0269706Y0280958D02*
X0250146Y0280958D01*
X0250146Y0280068D01*
X0250026Y0274148D02*
X0250026Y0270748D01*
X0260026Y0280748D01*
X0269706Y0280948D02*
X0269706Y0280958D01*
X0269706Y0280948D02*
X0269906Y0280948D01*
X0269906Y0279878D01*
X0270026Y0274248D02*
X0270026Y0267548D01*
X0269826Y0261448D02*
X0269826Y0260448D01*
X0269626Y0260448D01*
X0269626Y0260468D01*
X0250136Y0260468D01*
X0250136Y0261378D01*
X0250026Y0267348D02*
X0250026Y0270748D01*
X0210971Y0267548D02*
X0210971Y0274248D01*
X0210851Y0279878D02*
X0210851Y0280948D01*
X0210651Y0280948D01*
X0210651Y0280958D01*
X0191091Y0280958D01*
X0191091Y0280068D01*
X0190971Y0274148D02*
X0190971Y0270748D01*
X0200971Y0280748D01*
X0190971Y0270748D02*
X0190971Y0267348D01*
X0191081Y0261378D02*
X0191081Y0260468D01*
X0210571Y0260468D01*
X0210571Y0260448D01*
X0210771Y0260448D01*
X0210771Y0261448D01*
X0210651Y0221903D02*
X0191091Y0221903D01*
X0191091Y0221013D01*
X0190971Y0215093D02*
X0190971Y0211693D01*
X0200971Y0221693D01*
X0210651Y0221893D02*
X0210651Y0221903D01*
X0210651Y0221893D02*
X0210851Y0221893D01*
X0210851Y0220823D01*
X0210971Y0215193D02*
X0210971Y0208493D01*
X0210771Y0202393D02*
X0210771Y0201393D01*
X0210571Y0201393D01*
X0210571Y0201413D01*
X0191081Y0201413D01*
X0191081Y0202323D01*
X0190971Y0208293D02*
X0190971Y0211693D01*
X0151916Y0208493D02*
X0151916Y0215193D01*
X0151796Y0220823D02*
X0151796Y0221893D01*
X0151596Y0221893D01*
X0151596Y0221903D01*
X0132036Y0221903D01*
X0132036Y0221013D01*
X0131916Y0215093D02*
X0131916Y0211693D01*
X0141916Y0221693D01*
X0131916Y0211693D02*
X0131916Y0208293D01*
X0132026Y0202323D02*
X0132026Y0201413D01*
X0151516Y0201413D01*
X0151516Y0201393D01*
X0151716Y0201393D01*
X0151716Y0202393D01*
X0207282Y0155736D02*
X0211325Y0155736D01*
X0207282Y0155736D02*
X0207282Y0144803D01*
X0250136Y0201413D02*
X0250136Y0202323D01*
X0250136Y0201413D02*
X0269626Y0201413D01*
X0269626Y0201393D01*
X0269826Y0201393D01*
X0269826Y0202393D01*
X0270026Y0208493D02*
X0270026Y0215193D01*
X0269906Y0220823D02*
X0269906Y0221893D01*
X0269706Y0221893D01*
X0269706Y0221903D01*
X0250146Y0221903D01*
X0250146Y0221013D01*
X0250026Y0215093D02*
X0250026Y0211693D01*
X0260026Y0221693D01*
X0250026Y0211693D02*
X0250026Y0208293D01*
X0309191Y0260468D02*
X0309191Y0261378D01*
X0309191Y0260468D02*
X0328681Y0260468D01*
X0328681Y0260448D01*
X0328881Y0260448D01*
X0328881Y0261448D01*
X0329081Y0267548D02*
X0329081Y0274248D01*
X0328961Y0279878D02*
X0328961Y0280948D01*
X0328761Y0280948D01*
X0328761Y0280958D01*
X0309201Y0280958D01*
X0309201Y0280068D01*
X0309081Y0274148D02*
X0309081Y0270748D01*
X0319081Y0280748D01*
X0309081Y0270748D02*
X0309081Y0267348D01*
X0210771Y0319503D02*
X0210571Y0319503D01*
X0210571Y0319523D01*
X0191081Y0319523D01*
X0191081Y0320433D01*
X0190971Y0326403D02*
X0190971Y0329803D01*
X0200971Y0339803D01*
X0210651Y0340003D02*
X0210651Y0340013D01*
X0191091Y0340013D01*
X0191091Y0339123D01*
X0190971Y0333203D02*
X0190971Y0329803D01*
X0210971Y0326603D02*
X0210971Y0333303D01*
X0210851Y0338933D02*
X0210851Y0340003D01*
X0210651Y0340003D01*
X0210771Y0320503D02*
X0210771Y0319503D01*
X0151716Y0319503D02*
X0151516Y0319503D01*
X0151516Y0319523D01*
X0132026Y0319523D01*
X0132026Y0320433D01*
X0131916Y0326403D02*
X0131916Y0329803D01*
X0141916Y0339803D01*
X0151596Y0340003D02*
X0151596Y0340013D01*
X0132036Y0340013D01*
X0132036Y0339123D01*
X0131916Y0333203D02*
X0131916Y0329803D01*
X0151916Y0326603D02*
X0151916Y0333303D01*
X0151796Y0338933D02*
X0151796Y0340003D01*
X0151596Y0340003D01*
X0151716Y0320503D02*
X0151716Y0319503D01*
X0151596Y0280958D02*
X0132036Y0280958D01*
X0132036Y0280068D01*
X0131916Y0274148D02*
X0131916Y0270748D01*
X0141916Y0280748D01*
X0151596Y0280948D02*
X0151596Y0280958D01*
X0151596Y0280948D02*
X0151796Y0280948D01*
X0151796Y0279878D01*
X0151916Y0274248D02*
X0151916Y0267548D01*
X0151716Y0261448D02*
X0151716Y0260448D01*
X0151516Y0260448D01*
X0151516Y0260468D01*
X0132026Y0260468D01*
X0132026Y0261378D01*
X0131916Y0267348D02*
X0131916Y0270748D01*
X0092861Y0267548D02*
X0092861Y0274248D01*
X0092741Y0279878D02*
X0092741Y0280948D01*
X0092541Y0280948D01*
X0092541Y0280958D01*
X0072981Y0280958D01*
X0072981Y0280068D01*
X0072861Y0274148D02*
X0072861Y0270748D01*
X0082861Y0280748D01*
X0072861Y0270748D02*
X0072861Y0267348D01*
X0072971Y0261378D02*
X0072971Y0260468D01*
X0092461Y0260468D01*
X0092461Y0260448D01*
X0092661Y0260448D01*
X0092661Y0261448D01*
X0092661Y0319503D02*
X0092461Y0319503D01*
X0092461Y0319523D01*
X0072971Y0319523D01*
X0072971Y0320433D01*
X0072861Y0326403D02*
X0072861Y0329803D01*
X0082861Y0339803D01*
X0092541Y0340003D02*
X0092541Y0340013D01*
X0072981Y0340013D01*
X0072981Y0339123D01*
X0072861Y0333203D02*
X0072861Y0329803D01*
X0092861Y0326603D02*
X0092861Y0333303D01*
X0092741Y0338933D02*
X0092741Y0340003D01*
X0092541Y0340003D01*
X0092661Y0320503D02*
X0092661Y0319503D01*
X0368246Y0732909D02*
X0368246Y0733819D01*
X0368246Y0732909D02*
X0387736Y0732909D01*
X0387736Y0732889D01*
X0387936Y0732889D01*
X0387936Y0733889D01*
X0388136Y0739989D02*
X0388136Y0746689D01*
X0388016Y0752319D02*
X0388016Y0753389D01*
X0387816Y0753389D01*
X0387816Y0753399D01*
X0368256Y0753399D01*
X0368256Y0752509D01*
X0368136Y0746589D02*
X0368136Y0743189D01*
X0378136Y0753189D01*
X0368136Y0743189D02*
X0368136Y0739789D01*
X0958808Y0399068D02*
X0958808Y0398178D01*
X0958808Y0399068D02*
X0978368Y0399068D01*
X0978368Y0399058D01*
X0978568Y0399058D01*
X0978568Y0397988D01*
X0978688Y0392358D02*
X0978688Y0385658D01*
X0978488Y0379558D02*
X0978488Y0378558D01*
X0978288Y0378558D01*
X0978288Y0378578D01*
X0958798Y0378578D01*
X0958798Y0379488D01*
X0958688Y0385458D02*
X0958688Y0388858D01*
X0968688Y0398858D01*
X0958688Y0392258D02*
X0958688Y0388858D01*
X1017743Y0388858D02*
X1017743Y0385458D01*
X1017743Y0388858D02*
X1027743Y0398858D01*
X1037423Y0399058D02*
X1037423Y0399068D01*
X1017863Y0399068D01*
X1017863Y0398178D01*
X1017743Y0392258D02*
X1017743Y0388858D01*
X1037423Y0399058D02*
X1037623Y0399058D01*
X1037623Y0397988D01*
X1037743Y0392358D02*
X1037743Y0385658D01*
X1037543Y0379558D02*
X1037543Y0378558D01*
X1037343Y0378558D01*
X1037343Y0378578D01*
X1017853Y0378578D01*
X1017853Y0379488D01*
X1076908Y0379488D02*
X1076908Y0378578D01*
X1096398Y0378578D01*
X1096398Y0378558D01*
X1096598Y0378558D01*
X1096598Y0379558D01*
X1096798Y0385658D02*
X1096798Y0392358D01*
X1096678Y0397988D02*
X1096678Y0399058D01*
X1096478Y0399058D01*
X1096478Y0399068D01*
X1076918Y0399068D01*
X1076918Y0398178D01*
X1076798Y0392258D02*
X1076798Y0388858D01*
X1086798Y0398858D01*
X1076798Y0388858D02*
X1076798Y0385458D01*
X1135973Y0280958D02*
X1135973Y0280068D01*
X1135973Y0280958D02*
X1155533Y0280958D01*
X1155533Y0280948D01*
X1155733Y0280948D01*
X1155733Y0279878D01*
X1155853Y0274248D02*
X1155853Y0267548D01*
X1155653Y0261448D02*
X1155653Y0260448D01*
X1155453Y0260448D01*
X1155453Y0260468D01*
X1135963Y0260468D01*
X1135963Y0261378D01*
X1135853Y0267348D02*
X1135853Y0270748D01*
X1145853Y0280748D01*
X1135853Y0274148D02*
X1135853Y0270748D01*
X1194908Y0270748D02*
X1194908Y0267348D01*
X1194908Y0270748D02*
X1204908Y0280748D01*
X1214588Y0280948D02*
X1214588Y0280958D01*
X1195028Y0280958D01*
X1195028Y0280068D01*
X1194908Y0274148D02*
X1194908Y0270748D01*
X1195018Y0261378D02*
X1195018Y0260468D01*
X1214508Y0260468D01*
X1214508Y0260448D01*
X1214708Y0260448D01*
X1214708Y0261448D01*
X1214908Y0267548D02*
X1214908Y0274248D01*
X1214788Y0279878D02*
X1214788Y0280948D01*
X1214588Y0280948D01*
X1254083Y0280958D02*
X1254083Y0280068D01*
X1254083Y0280958D02*
X1273643Y0280958D01*
X1273643Y0280948D01*
X1273843Y0280948D01*
X1273843Y0279878D01*
X1273963Y0274248D02*
X1273963Y0267548D01*
X1273763Y0261448D02*
X1273763Y0260448D01*
X1273563Y0260448D01*
X1273563Y0260468D01*
X1254073Y0260468D01*
X1254073Y0261378D01*
X1253963Y0267348D02*
X1253963Y0270748D01*
X1263963Y0280748D01*
X1253963Y0274148D02*
X1253963Y0270748D01*
D11*
X1319140Y0193043D02*
X1326227Y0193043D01*
X1326227Y0159028D02*
X1319140Y0159028D01*
X0197621Y0116503D02*
X0195732Y0116503D01*
X0196677Y0116503D02*
X0196677Y0113103D01*
X0194003Y0114520D02*
X0192964Y0115086D01*
X0193342Y0116504D02*
X0193412Y0116502D01*
X0193482Y0116497D01*
X0193552Y0116488D01*
X0193621Y0116476D01*
X0193689Y0116461D01*
X0193757Y0116442D01*
X0193823Y0116420D01*
X0193889Y0116394D01*
X0193953Y0116366D01*
X0194015Y0116334D01*
X0194076Y0116299D01*
X0194135Y0116261D01*
X0194192Y0116221D01*
X0192965Y0115087D02*
X0192920Y0115116D01*
X0192877Y0115147D01*
X0192837Y0115182D01*
X0192799Y0115219D01*
X0192764Y0115258D01*
X0192731Y0115300D01*
X0192702Y0115345D01*
X0192675Y0115391D01*
X0192652Y0115439D01*
X0192632Y0115488D01*
X0192616Y0115538D01*
X0192603Y0115590D01*
X0192594Y0115642D01*
X0192589Y0115695D01*
X0192587Y0115748D01*
X0192586Y0115748D02*
X0192588Y0115802D01*
X0192594Y0115856D01*
X0192603Y0115909D01*
X0192617Y0115961D01*
X0192634Y0116012D01*
X0192654Y0116062D01*
X0192678Y0116110D01*
X0192706Y0116157D01*
X0192737Y0116201D01*
X0192771Y0116243D01*
X0192807Y0116283D01*
X0192847Y0116319D01*
X0192889Y0116353D01*
X0192933Y0116384D01*
X0192980Y0116412D01*
X0193028Y0116436D01*
X0193078Y0116456D01*
X0193129Y0116473D01*
X0193181Y0116487D01*
X0193234Y0116496D01*
X0193288Y0116502D01*
X0193342Y0116504D01*
X0192493Y0113575D02*
X0192550Y0113521D01*
X0192609Y0113469D01*
X0192671Y0113420D01*
X0192735Y0113375D01*
X0192802Y0113332D01*
X0192870Y0113293D01*
X0192940Y0113258D01*
X0193012Y0113226D01*
X0193086Y0113197D01*
X0193160Y0113172D01*
X0193236Y0113151D01*
X0193313Y0113134D01*
X0193391Y0113120D01*
X0193469Y0113111D01*
X0193547Y0113105D01*
X0193626Y0113103D01*
X0193680Y0113105D01*
X0193734Y0113111D01*
X0193787Y0113120D01*
X0193839Y0113134D01*
X0193890Y0113151D01*
X0193940Y0113171D01*
X0193988Y0113195D01*
X0194035Y0113223D01*
X0194079Y0113254D01*
X0194121Y0113288D01*
X0194161Y0113324D01*
X0194197Y0113364D01*
X0194231Y0113406D01*
X0194262Y0113450D01*
X0194290Y0113497D01*
X0194314Y0113545D01*
X0194334Y0113595D01*
X0194351Y0113646D01*
X0194365Y0113698D01*
X0194374Y0113751D01*
X0194380Y0113805D01*
X0194382Y0113859D01*
X0194381Y0113859D02*
X0194379Y0113912D01*
X0194374Y0113965D01*
X0194365Y0114017D01*
X0194352Y0114069D01*
X0194336Y0114119D01*
X0194316Y0114168D01*
X0194293Y0114216D01*
X0194266Y0114262D01*
X0194237Y0114307D01*
X0194204Y0114349D01*
X0194169Y0114388D01*
X0194131Y0114425D01*
X0194091Y0114460D01*
X0194048Y0114491D01*
X0194003Y0114520D01*
X0190934Y0113103D02*
X0190179Y0114614D01*
X0189990Y0114614D02*
X0189046Y0114614D01*
X0189990Y0114615D02*
X0190050Y0114617D01*
X0190111Y0114623D01*
X0190170Y0114632D01*
X0190229Y0114646D01*
X0190287Y0114663D01*
X0190344Y0114684D01*
X0190400Y0114708D01*
X0190453Y0114736D01*
X0190505Y0114768D01*
X0190555Y0114802D01*
X0190602Y0114840D01*
X0190647Y0114881D01*
X0190689Y0114924D01*
X0190728Y0114970D01*
X0190764Y0115019D01*
X0190797Y0115070D01*
X0190827Y0115122D01*
X0190853Y0115177D01*
X0190876Y0115233D01*
X0190895Y0115290D01*
X0190910Y0115349D01*
X0190922Y0115408D01*
X0190930Y0115468D01*
X0190934Y0115529D01*
X0190934Y0115589D01*
X0190930Y0115650D01*
X0190922Y0115710D01*
X0190910Y0115769D01*
X0190895Y0115828D01*
X0190876Y0115885D01*
X0190853Y0115941D01*
X0190827Y0115996D01*
X0190797Y0116048D01*
X0190764Y0116099D01*
X0190728Y0116148D01*
X0190689Y0116194D01*
X0190647Y0116237D01*
X0190602Y0116278D01*
X0190555Y0116316D01*
X0190505Y0116350D01*
X0190453Y0116382D01*
X0190400Y0116410D01*
X0190344Y0116434D01*
X0190287Y0116455D01*
X0190229Y0116472D01*
X0190170Y0116486D01*
X0190111Y0116495D01*
X0190050Y0116501D01*
X0189990Y0116503D01*
X0189046Y0116503D01*
X0189046Y0113103D01*
D12*
X0178583Y0101303D03*
X0322192Y0108189D03*
D13*
X0190164Y0104803D02*
X0190166Y0104915D01*
X0190172Y0105028D01*
X0190182Y0105140D01*
X0190196Y0105251D01*
X0190214Y0105363D01*
X0190236Y0105473D01*
X0190261Y0105582D01*
X0190291Y0105691D01*
X0190324Y0105798D01*
X0190362Y0105904D01*
X0190403Y0106009D01*
X0190447Y0106112D01*
X0190495Y0106214D01*
X0190547Y0106314D01*
X0190603Y0106412D01*
X0190662Y0106508D01*
X0190724Y0106601D01*
X0190789Y0106693D01*
X0190858Y0106782D01*
X0190930Y0106869D01*
X0191005Y0106953D01*
X0191082Y0107034D01*
X0191163Y0107112D01*
X0191246Y0107188D01*
X0191332Y0107260D01*
X0191421Y0107330D01*
X0191511Y0107396D01*
X0191605Y0107459D01*
X0191700Y0107519D01*
X0191797Y0107575D01*
X0191897Y0107628D01*
X0191998Y0107677D01*
X0192101Y0107723D01*
X0192205Y0107765D01*
X0192311Y0107803D01*
X0192418Y0107837D01*
X0192526Y0107868D01*
X0192636Y0107894D01*
X0192746Y0107917D01*
X0192857Y0107936D01*
X0192968Y0107951D01*
X0193080Y0107962D01*
X0193192Y0107969D01*
X0193305Y0107972D01*
X0193417Y0107971D01*
X0193530Y0107966D01*
X0193642Y0107957D01*
X0193754Y0107944D01*
X0193865Y0107927D01*
X0193975Y0107906D01*
X0194085Y0107881D01*
X0194194Y0107853D01*
X0194302Y0107820D01*
X0194408Y0107784D01*
X0194513Y0107744D01*
X0194617Y0107700D01*
X0194719Y0107653D01*
X0194819Y0107602D01*
X0194917Y0107547D01*
X0195014Y0107489D01*
X0195108Y0107428D01*
X0195200Y0107363D01*
X0195290Y0107296D01*
X0195377Y0107225D01*
X0195462Y0107150D01*
X0195544Y0107073D01*
X0195623Y0106994D01*
X0195699Y0106911D01*
X0195773Y0106826D01*
X0195843Y0106738D01*
X0195910Y0106647D01*
X0195974Y0106555D01*
X0196034Y0106460D01*
X0196091Y0106363D01*
X0196145Y0106264D01*
X0196195Y0106163D01*
X0196242Y0106061D01*
X0196284Y0105957D01*
X0196324Y0105852D01*
X0196359Y0105745D01*
X0196390Y0105637D01*
X0196418Y0105528D01*
X0196442Y0105418D01*
X0196462Y0105307D01*
X0196478Y0105196D01*
X0196490Y0105084D01*
X0196498Y0104972D01*
X0196502Y0104859D01*
X0196502Y0104747D01*
X0196498Y0104634D01*
X0196490Y0104522D01*
X0196478Y0104410D01*
X0196462Y0104299D01*
X0196442Y0104188D01*
X0196418Y0104078D01*
X0196390Y0103969D01*
X0196359Y0103861D01*
X0196324Y0103754D01*
X0196284Y0103649D01*
X0196242Y0103545D01*
X0196195Y0103443D01*
X0196145Y0103342D01*
X0196091Y0103243D01*
X0196034Y0103146D01*
X0195974Y0103051D01*
X0195910Y0102959D01*
X0195843Y0102868D01*
X0195773Y0102780D01*
X0195699Y0102695D01*
X0195623Y0102612D01*
X0195544Y0102533D01*
X0195462Y0102456D01*
X0195377Y0102381D01*
X0195290Y0102310D01*
X0195200Y0102243D01*
X0195108Y0102178D01*
X0195014Y0102117D01*
X0194918Y0102059D01*
X0194819Y0102004D01*
X0194719Y0101953D01*
X0194617Y0101906D01*
X0194513Y0101862D01*
X0194408Y0101822D01*
X0194302Y0101786D01*
X0194194Y0101753D01*
X0194085Y0101725D01*
X0193975Y0101700D01*
X0193865Y0101679D01*
X0193754Y0101662D01*
X0193642Y0101649D01*
X0193530Y0101640D01*
X0193417Y0101635D01*
X0193305Y0101634D01*
X0193192Y0101637D01*
X0193080Y0101644D01*
X0192968Y0101655D01*
X0192857Y0101670D01*
X0192746Y0101689D01*
X0192636Y0101712D01*
X0192526Y0101738D01*
X0192418Y0101769D01*
X0192311Y0101803D01*
X0192205Y0101841D01*
X0192101Y0101883D01*
X0191998Y0101929D01*
X0191897Y0101978D01*
X0191797Y0102031D01*
X0191700Y0102087D01*
X0191605Y0102147D01*
X0191511Y0102210D01*
X0191421Y0102276D01*
X0191332Y0102346D01*
X0191246Y0102418D01*
X0191163Y0102494D01*
X0191082Y0102572D01*
X0191005Y0102653D01*
X0190930Y0102737D01*
X0190858Y0102824D01*
X0190789Y0102913D01*
X0190724Y0103005D01*
X0190662Y0103098D01*
X0190603Y0103194D01*
X0190547Y0103292D01*
X0190495Y0103392D01*
X0190447Y0103494D01*
X0190403Y0103597D01*
X0190362Y0103702D01*
X0190324Y0103808D01*
X0190291Y0103915D01*
X0190261Y0104024D01*
X0190236Y0104133D01*
X0190214Y0104243D01*
X0190196Y0104355D01*
X0190182Y0104466D01*
X0190172Y0104578D01*
X0190166Y0104691D01*
X0190164Y0104803D01*
X0190164Y0089803D02*
X0190166Y0089915D01*
X0190172Y0090028D01*
X0190182Y0090140D01*
X0190196Y0090251D01*
X0190214Y0090363D01*
X0190236Y0090473D01*
X0190261Y0090582D01*
X0190291Y0090691D01*
X0190324Y0090798D01*
X0190362Y0090904D01*
X0190403Y0091009D01*
X0190447Y0091112D01*
X0190495Y0091214D01*
X0190547Y0091314D01*
X0190603Y0091412D01*
X0190662Y0091508D01*
X0190724Y0091601D01*
X0190789Y0091693D01*
X0190858Y0091782D01*
X0190930Y0091869D01*
X0191005Y0091953D01*
X0191082Y0092034D01*
X0191163Y0092112D01*
X0191246Y0092188D01*
X0191332Y0092260D01*
X0191421Y0092330D01*
X0191511Y0092396D01*
X0191605Y0092459D01*
X0191700Y0092519D01*
X0191797Y0092575D01*
X0191897Y0092628D01*
X0191998Y0092677D01*
X0192101Y0092723D01*
X0192205Y0092765D01*
X0192311Y0092803D01*
X0192418Y0092837D01*
X0192526Y0092868D01*
X0192636Y0092894D01*
X0192746Y0092917D01*
X0192857Y0092936D01*
X0192968Y0092951D01*
X0193080Y0092962D01*
X0193192Y0092969D01*
X0193305Y0092972D01*
X0193417Y0092971D01*
X0193530Y0092966D01*
X0193642Y0092957D01*
X0193754Y0092944D01*
X0193865Y0092927D01*
X0193975Y0092906D01*
X0194085Y0092881D01*
X0194194Y0092853D01*
X0194302Y0092820D01*
X0194408Y0092784D01*
X0194513Y0092744D01*
X0194617Y0092700D01*
X0194719Y0092653D01*
X0194819Y0092602D01*
X0194917Y0092547D01*
X0195014Y0092489D01*
X0195108Y0092428D01*
X0195200Y0092363D01*
X0195290Y0092296D01*
X0195377Y0092225D01*
X0195462Y0092150D01*
X0195544Y0092073D01*
X0195623Y0091994D01*
X0195699Y0091911D01*
X0195773Y0091826D01*
X0195843Y0091738D01*
X0195910Y0091647D01*
X0195974Y0091555D01*
X0196034Y0091460D01*
X0196091Y0091363D01*
X0196145Y0091264D01*
X0196195Y0091163D01*
X0196242Y0091061D01*
X0196284Y0090957D01*
X0196324Y0090852D01*
X0196359Y0090745D01*
X0196390Y0090637D01*
X0196418Y0090528D01*
X0196442Y0090418D01*
X0196462Y0090307D01*
X0196478Y0090196D01*
X0196490Y0090084D01*
X0196498Y0089972D01*
X0196502Y0089859D01*
X0196502Y0089747D01*
X0196498Y0089634D01*
X0196490Y0089522D01*
X0196478Y0089410D01*
X0196462Y0089299D01*
X0196442Y0089188D01*
X0196418Y0089078D01*
X0196390Y0088969D01*
X0196359Y0088861D01*
X0196324Y0088754D01*
X0196284Y0088649D01*
X0196242Y0088545D01*
X0196195Y0088443D01*
X0196145Y0088342D01*
X0196091Y0088243D01*
X0196034Y0088146D01*
X0195974Y0088051D01*
X0195910Y0087959D01*
X0195843Y0087868D01*
X0195773Y0087780D01*
X0195699Y0087695D01*
X0195623Y0087612D01*
X0195544Y0087533D01*
X0195462Y0087456D01*
X0195377Y0087381D01*
X0195290Y0087310D01*
X0195200Y0087243D01*
X0195108Y0087178D01*
X0195014Y0087117D01*
X0194918Y0087059D01*
X0194819Y0087004D01*
X0194719Y0086953D01*
X0194617Y0086906D01*
X0194513Y0086862D01*
X0194408Y0086822D01*
X0194302Y0086786D01*
X0194194Y0086753D01*
X0194085Y0086725D01*
X0193975Y0086700D01*
X0193865Y0086679D01*
X0193754Y0086662D01*
X0193642Y0086649D01*
X0193530Y0086640D01*
X0193417Y0086635D01*
X0193305Y0086634D01*
X0193192Y0086637D01*
X0193080Y0086644D01*
X0192968Y0086655D01*
X0192857Y0086670D01*
X0192746Y0086689D01*
X0192636Y0086712D01*
X0192526Y0086738D01*
X0192418Y0086769D01*
X0192311Y0086803D01*
X0192205Y0086841D01*
X0192101Y0086883D01*
X0191998Y0086929D01*
X0191897Y0086978D01*
X0191797Y0087031D01*
X0191700Y0087087D01*
X0191605Y0087147D01*
X0191511Y0087210D01*
X0191421Y0087276D01*
X0191332Y0087346D01*
X0191246Y0087418D01*
X0191163Y0087494D01*
X0191082Y0087572D01*
X0191005Y0087653D01*
X0190930Y0087737D01*
X0190858Y0087824D01*
X0190789Y0087913D01*
X0190724Y0088005D01*
X0190662Y0088098D01*
X0190603Y0088194D01*
X0190547Y0088292D01*
X0190495Y0088392D01*
X0190447Y0088494D01*
X0190403Y0088597D01*
X0190362Y0088702D01*
X0190324Y0088808D01*
X0190291Y0088915D01*
X0190261Y0089024D01*
X0190236Y0089133D01*
X0190214Y0089243D01*
X0190196Y0089355D01*
X0190182Y0089466D01*
X0190172Y0089578D01*
X0190166Y0089691D01*
X0190164Y0089803D01*
X0137800Y0114646D02*
X0137802Y0114695D01*
X0137808Y0114744D01*
X0137818Y0114792D01*
X0137831Y0114840D01*
X0137849Y0114886D01*
X0137870Y0114930D01*
X0137895Y0114973D01*
X0137923Y0115014D01*
X0137954Y0115052D01*
X0137988Y0115087D01*
X0138025Y0115120D01*
X0138064Y0115150D01*
X0138106Y0115176D01*
X0138150Y0115199D01*
X0138195Y0115218D01*
X0138242Y0115234D01*
X0138290Y0115246D01*
X0138338Y0115254D01*
X0138387Y0115258D01*
X0138437Y0115258D01*
X0138486Y0115254D01*
X0138534Y0115246D01*
X0138582Y0115234D01*
X0138629Y0115218D01*
X0138674Y0115199D01*
X0138718Y0115176D01*
X0138760Y0115150D01*
X0138799Y0115120D01*
X0138836Y0115087D01*
X0138870Y0115052D01*
X0138901Y0115014D01*
X0138929Y0114973D01*
X0138954Y0114930D01*
X0138975Y0114886D01*
X0138993Y0114840D01*
X0139006Y0114792D01*
X0139016Y0114744D01*
X0139022Y0114695D01*
X0139024Y0114646D01*
X0139022Y0114597D01*
X0139016Y0114548D01*
X0139006Y0114500D01*
X0138993Y0114452D01*
X0138975Y0114406D01*
X0138954Y0114362D01*
X0138929Y0114319D01*
X0138901Y0114278D01*
X0138870Y0114240D01*
X0138836Y0114205D01*
X0138799Y0114172D01*
X0138760Y0114142D01*
X0138718Y0114116D01*
X0138674Y0114093D01*
X0138629Y0114074D01*
X0138582Y0114058D01*
X0138534Y0114046D01*
X0138486Y0114038D01*
X0138437Y0114034D01*
X0138387Y0114034D01*
X0138338Y0114038D01*
X0138290Y0114046D01*
X0138242Y0114058D01*
X0138195Y0114074D01*
X0138150Y0114093D01*
X0138106Y0114116D01*
X0138064Y0114142D01*
X0138025Y0114172D01*
X0137988Y0114205D01*
X0137954Y0114240D01*
X0137923Y0114278D01*
X0137895Y0114319D01*
X0137870Y0114362D01*
X0137849Y0114406D01*
X0137831Y0114452D01*
X0137818Y0114500D01*
X0137808Y0114548D01*
X0137802Y0114597D01*
X0137800Y0114646D01*
D14*
X0110104Y0096591D03*
X0335104Y0144583D03*
D15*
X0339278Y0106969D02*
X0323530Y0106969D01*
X0323530Y0102638D01*
X0323530Y0093583D02*
X0323530Y0087677D01*
X0327073Y0087677D01*
X0335735Y0087677D02*
X0339278Y0087677D01*
X0339278Y0093583D01*
X0339278Y0102638D02*
X0339278Y0106969D01*
X1289948Y0098701D02*
X1294672Y0098701D01*
X1289948Y0098701D02*
X1289948Y0124685D01*
X1296640Y0124685D02*
X1336010Y0124685D01*
X1336010Y0098701D02*
X1328530Y0098701D01*
X1322231Y0098701D02*
X1316719Y0098701D01*
X1310420Y0098701D02*
X1300971Y0098701D01*
D16*
X0200203Y0178583D03*
D17*
X0200144Y0178445D03*
D18*
X0193136Y0169409D03*
X0192979Y0169252D03*
X0193570Y0168543D03*
X0196207Y0168386D03*
X0190814Y0168386D03*
X0186129Y0168543D03*
X0185853Y0169409D03*
X0181759Y0168819D03*
X0178845Y0178307D03*
X0211955Y0169409D03*
X0212388Y0168543D03*
X0214278Y0169252D03*
X0216759Y0169252D03*
D19*
X0225518Y0166929D03*
X0225951Y0167520D03*
X0226227Y0167953D03*
X0226385Y0168228D03*
X0226542Y0168386D03*
X0226542Y0168543D03*
X0226660Y0168819D03*
X0226660Y0168976D03*
X0226818Y0169252D03*
X0226818Y0169409D03*
X0226975Y0169685D03*
X0226975Y0169843D03*
X0226975Y0170000D03*
X0226385Y0170276D03*
X0226385Y0170433D03*
X0226385Y0170709D03*
X0226385Y0170866D03*
X0226385Y0171024D03*
X0227093Y0171024D03*
X0227093Y0170866D03*
X0227093Y0170709D03*
X0227093Y0171732D03*
X0227093Y0171890D03*
X0227093Y0172165D03*
X0227093Y0172323D03*
X0227093Y0172480D03*
X0226975Y0172756D03*
X0226975Y0172913D03*
X0226975Y0173189D03*
X0226818Y0173346D03*
X0226818Y0173622D03*
X0226660Y0173780D03*
X0226660Y0173937D03*
X0226542Y0174213D03*
X0226542Y0174370D03*
X0226227Y0174803D03*
X0226227Y0174961D03*
X0225951Y0175394D03*
X0225361Y0174961D03*
X0225794Y0174213D03*
X0225951Y0173937D03*
X0226227Y0172913D03*
X0226227Y0172756D03*
X0226385Y0172480D03*
X0226385Y0172323D03*
X0226385Y0172165D03*
X0226385Y0171890D03*
X0226385Y0171732D03*
X0226227Y0170000D03*
X0226227Y0169843D03*
X0226227Y0169685D03*
X0225951Y0168976D03*
X0225794Y0168543D03*
X0206542Y0167953D03*
X0196936Y0164882D03*
X0175479Y0176693D03*
X0175203Y0176417D03*
X0174337Y0175394D03*
X0174022Y0174961D03*
X0174022Y0174803D03*
X0173747Y0174370D03*
X0173747Y0174213D03*
X0173589Y0173937D03*
X0173432Y0173622D03*
X0173432Y0173346D03*
X0173314Y0173189D03*
X0173314Y0172913D03*
X0173314Y0172756D03*
X0173156Y0172480D03*
X0173156Y0172323D03*
X0173156Y0172165D03*
X0173156Y0171890D03*
X0173156Y0171732D03*
X0173156Y0171024D03*
X0173156Y0170866D03*
X0173156Y0170709D03*
X0173156Y0170433D03*
X0173156Y0170276D03*
X0173314Y0169843D03*
X0173314Y0169685D03*
X0173432Y0169252D03*
X0173589Y0168976D03*
X0173589Y0168819D03*
X0173747Y0168543D03*
X0173747Y0168386D03*
X0174022Y0167953D03*
X0174022Y0167795D03*
X0174337Y0167520D03*
X0174613Y0167087D03*
X0175046Y0166496D03*
X0174613Y0168228D03*
X0174455Y0168543D03*
X0174337Y0168819D03*
X0174337Y0168976D03*
X0174180Y0169252D03*
X0174022Y0169685D03*
X0174022Y0169843D03*
X0174022Y0172913D03*
X0174022Y0173189D03*
X0174180Y0173622D03*
X0174337Y0173937D03*
X0174455Y0174213D03*
X0219101Y0178307D03*
D20*
X0221207Y0178307D03*
X0196995Y0170276D03*
D21*
X0196109Y0168228D03*
X0201227Y0168819D03*
X0203117Y0168386D03*
X0206621Y0168228D03*
X0213314Y0171732D03*
X0213314Y0171890D03*
X0211581Y0174961D03*
X0214652Y0168386D03*
X0217133Y0168386D03*
X0217133Y0169685D03*
X0190715Y0168228D03*
X0187802Y0169409D03*
X0185755Y0174961D03*
X0181266Y0169409D03*
X0178196Y0178150D03*
D22*
X0181463Y0171024D03*
X0181188Y0170000D03*
X0181188Y0169843D03*
X0181188Y0169685D03*
X0186424Y0170000D03*
X0188038Y0169685D03*
X0187881Y0168386D03*
X0193707Y0170000D03*
X0195755Y0169685D03*
X0199101Y0168543D03*
X0199849Y0170276D03*
X0195912Y0164882D03*
X0207723Y0169409D03*
X0207999Y0170000D03*
X0208156Y0170433D03*
X0208432Y0171024D03*
X0208589Y0171299D03*
X0208589Y0171457D03*
X0208747Y0171732D03*
X0209022Y0172323D03*
X0210479Y0174370D03*
X0213392Y0172165D03*
X0212369Y0169843D03*
X0217329Y0170000D03*
X0222014Y0178150D03*
D23*
X0222507Y0178012D03*
X0213333Y0171594D03*
X0211719Y0172618D03*
X0211286Y0172028D03*
X0210696Y0171594D03*
X0209396Y0173051D03*
X0209672Y0173484D03*
X0208215Y0170571D03*
X0207782Y0169547D03*
X0194514Y0171594D03*
X0189987Y0169547D03*
X0183136Y0173484D03*
X0182703Y0173051D03*
X0181680Y0171594D03*
X0181247Y0170138D03*
X0177467Y0165610D03*
X0177900Y0164744D03*
X0177743Y0178012D03*
D24*
X0176444Y0176555D03*
X0180656Y0178012D03*
X0188530Y0170571D03*
X0191168Y0170571D03*
X0190577Y0168091D03*
X0199908Y0170571D03*
X0176877Y0165177D03*
X0176444Y0166201D03*
X0223097Y0176988D03*
D25*
X0225794Y0175531D03*
X0226385Y0174508D03*
X0226660Y0174075D03*
X0226818Y0173484D03*
X0226975Y0173051D03*
X0227093Y0172618D03*
X0227093Y0172028D03*
X0227093Y0171594D03*
X0226385Y0171161D03*
X0226385Y0170571D03*
X0227093Y0170571D03*
X0226975Y0170138D03*
X0226818Y0169114D03*
X0226385Y0168091D03*
X0225794Y0168681D03*
X0225794Y0167224D03*
X0226385Y0172028D03*
X0226227Y0173051D03*
X0219810Y0178012D03*
X0205676Y0170138D03*
X0198983Y0168091D03*
X0175361Y0176555D03*
X0174455Y0175531D03*
X0174180Y0175098D03*
X0174613Y0174508D03*
X0174180Y0173484D03*
X0174022Y0173051D03*
X0173314Y0173051D03*
X0173432Y0173484D03*
X0173589Y0174075D03*
X0173156Y0172618D03*
X0173156Y0172028D03*
X0173156Y0170571D03*
X0173314Y0169547D03*
X0173432Y0169114D03*
X0173589Y0168681D03*
X0174180Y0169114D03*
X0174022Y0169547D03*
X0174180Y0167657D03*
X0174455Y0167224D03*
D26*
X0176719Y0166063D03*
X0177152Y0165039D03*
X0177467Y0164882D03*
X0176877Y0176850D03*
X0176719Y0177559D03*
X0177034Y0177717D03*
X0177310Y0177874D03*
X0186207Y0173189D03*
X0194514Y0171732D03*
X0199042Y0168228D03*
X0200932Y0168386D03*
X0205459Y0169843D03*
X0208963Y0167953D03*
X0212743Y0170433D03*
X0215814Y0171732D03*
X0218294Y0171732D03*
X0222822Y0177126D03*
X0223255Y0177717D03*
X0223530Y0177559D03*
X0223963Y0166339D03*
X0223530Y0166063D03*
X0223688Y0165315D03*
X0223097Y0165039D03*
D27*
X0200066Y0177874D03*
D28*
X0191385Y0169685D03*
X0191385Y0169409D03*
X0191385Y0169252D03*
X0222881Y0177874D03*
D29*
X0200046Y0177717D03*
D30*
X0182349Y0177559D03*
D31*
X0173077Y0171457D03*
X0173077Y0171299D03*
X0173235Y0170000D03*
X0191306Y0170866D03*
X0203707Y0164882D03*
X0227172Y0171299D03*
X0227172Y0171457D03*
X0212448Y0177559D03*
D32*
X0214278Y0177559D03*
X0213255Y0171299D03*
X0224042Y0176417D03*
X0224199Y0176260D03*
X0224633Y0175827D03*
X0225066Y0175394D03*
X0224199Y0177126D03*
X0224633Y0166929D03*
X0224475Y0166772D03*
X0224199Y0166496D03*
X0224475Y0165906D03*
X0200853Y0168228D03*
X0194593Y0171890D03*
X0184672Y0171299D03*
X0175932Y0176102D03*
X0175499Y0167087D03*
X0175774Y0166772D03*
X0175932Y0165748D03*
X0176365Y0165472D03*
D33*
X0218885Y0177559D03*
D34*
X0223747Y0177421D03*
X0224337Y0176988D03*
X0224928Y0175531D03*
X0224337Y0166634D03*
X0223747Y0166201D03*
X0213550Y0172618D03*
X0176503Y0177421D03*
D35*
X0178196Y0177421D03*
X0181385Y0169114D03*
X0182566Y0168091D03*
X0191030Y0170138D03*
X0199180Y0168681D03*
X0201385Y0170138D03*
X0207487Y0169114D03*
X0216975Y0169547D03*
D36*
X0214573Y0169547D03*
X0222014Y0177421D03*
X0203353Y0170138D03*
X0185991Y0169547D03*
D37*
X0176227Y0166339D03*
X0176070Y0166496D03*
X0175636Y0166929D03*
X0176503Y0165315D03*
X0175203Y0175394D03*
X0175046Y0176260D03*
X0176070Y0176260D03*
X0176227Y0176417D03*
X0176660Y0176693D03*
X0176070Y0177126D03*
X0176227Y0177283D03*
X0206266Y0164882D03*
X0219534Y0169843D03*
X0224770Y0167087D03*
X0224337Y0165748D03*
X0223904Y0165472D03*
X0224770Y0175669D03*
X0224337Y0176102D03*
X0223904Y0177283D03*
D38*
X0222507Y0177283D03*
X0217861Y0170866D03*
X0218727Y0169252D03*
X0215381Y0170866D03*
X0214790Y0169843D03*
X0211444Y0172165D03*
X0211877Y0172756D03*
X0212152Y0173189D03*
X0212310Y0174370D03*
X0210262Y0174213D03*
X0209987Y0173937D03*
X0209829Y0173622D03*
X0209239Y0172756D03*
X0208963Y0172165D03*
X0208806Y0171890D03*
X0208373Y0170866D03*
X0207940Y0169843D03*
X0205026Y0169409D03*
X0202979Y0168228D03*
X0201089Y0168543D03*
X0199042Y0168386D03*
X0199908Y0170433D03*
X0195971Y0169843D03*
X0194239Y0170866D03*
X0194239Y0171024D03*
X0191168Y0170433D03*
X0189711Y0169409D03*
X0189554Y0169252D03*
X0188255Y0170000D03*
X0183727Y0173937D03*
X0182861Y0173189D03*
X0182270Y0172480D03*
X0182113Y0172323D03*
X0181837Y0171890D03*
X0181837Y0171732D03*
X0181680Y0171457D03*
X0181404Y0170866D03*
X0181404Y0170709D03*
X0181247Y0170433D03*
X0181247Y0170276D03*
X0177900Y0165472D03*
X0177743Y0177283D03*
X0223097Y0165748D03*
D39*
X0223333Y0165906D03*
X0222743Y0164882D03*
X0219396Y0169685D03*
X0217940Y0171024D03*
X0218058Y0171299D03*
X0218215Y0171457D03*
X0215735Y0171457D03*
X0215577Y0171299D03*
X0215459Y0171024D03*
X0213255Y0171457D03*
X0213530Y0172480D03*
X0212231Y0173346D03*
X0212388Y0173622D03*
X0212388Y0173780D03*
X0212388Y0173937D03*
X0212388Y0174213D03*
X0211955Y0172913D03*
X0211640Y0172480D03*
X0210617Y0171457D03*
X0212664Y0170276D03*
X0212073Y0168228D03*
X0214436Y0168228D03*
X0216916Y0168228D03*
X0209908Y0173780D03*
X0205381Y0169685D03*
X0203491Y0170433D03*
X0201601Y0170433D03*
X0197231Y0168976D03*
X0194436Y0171457D03*
X0190223Y0169685D03*
X0188451Y0170433D03*
X0186562Y0170433D03*
X0185262Y0171890D03*
X0185105Y0171732D03*
X0184829Y0171457D03*
X0185538Y0172323D03*
X0185696Y0172480D03*
X0185971Y0172756D03*
X0185971Y0172913D03*
X0186286Y0173346D03*
X0186444Y0173622D03*
X0186444Y0173780D03*
X0186444Y0173937D03*
X0186444Y0174213D03*
X0183373Y0173622D03*
X0182625Y0172913D03*
X0182507Y0172756D03*
X0177388Y0177126D03*
X0176955Y0165906D03*
X0177231Y0165748D03*
X0187743Y0168228D03*
X0223609Y0176693D03*
D40*
X0225577Y0174508D03*
X0225577Y0168091D03*
X0224121Y0165610D03*
X0175420Y0166201D03*
X0175420Y0167224D03*
X0174396Y0168681D03*
X0174396Y0174075D03*
X0175853Y0176988D03*
D41*
X0177093Y0176988D03*
X0191385Y0169547D03*
D42*
X0191306Y0170709D03*
X0205597Y0170000D03*
X0215676Y0171890D03*
X0219613Y0170000D03*
X0225007Y0167362D03*
X0225125Y0167520D03*
X0225282Y0167795D03*
X0225440Y0167953D03*
X0225715Y0168386D03*
X0225873Y0168819D03*
X0225873Y0167362D03*
X0225440Y0166772D03*
X0225125Y0166496D03*
X0225007Y0166339D03*
X0224692Y0166063D03*
X0226463Y0171299D03*
X0226463Y0171457D03*
X0226148Y0173189D03*
X0226030Y0173622D03*
X0226030Y0173780D03*
X0225715Y0174370D03*
X0225440Y0174803D03*
X0225125Y0175236D03*
X0225715Y0175669D03*
X0226030Y0175236D03*
X0226306Y0174646D03*
X0225282Y0176102D03*
X0225125Y0176260D03*
X0225007Y0176417D03*
X0224692Y0176693D03*
X0175715Y0176850D03*
X0175558Y0175827D03*
X0175125Y0175236D03*
X0174849Y0174961D03*
X0174849Y0174803D03*
X0174692Y0174646D03*
X0174534Y0174370D03*
X0174259Y0173780D03*
X0174101Y0173346D03*
X0173510Y0173780D03*
X0174259Y0175236D03*
X0174534Y0175669D03*
X0174692Y0175827D03*
X0173825Y0171299D03*
X0174101Y0169409D03*
X0174534Y0168386D03*
X0174849Y0167953D03*
X0175125Y0167520D03*
X0175282Y0167362D03*
X0174849Y0166772D03*
X0174692Y0166929D03*
X0175282Y0166339D03*
X0175558Y0166063D03*
X0175715Y0165906D03*
D43*
X0210558Y0171299D03*
X0223392Y0176850D03*
D44*
X0224554Y0176850D03*
X0225577Y0175827D03*
X0225577Y0174646D03*
X0225577Y0168228D03*
X0225577Y0167087D03*
X0175420Y0175669D03*
X0174396Y0167362D03*
D45*
X0186503Y0170571D03*
X0223392Y0165177D03*
X0223825Y0176555D03*
D46*
X0224849Y0176555D03*
X0225440Y0175965D03*
X0225282Y0175098D03*
X0225873Y0174075D03*
X0226306Y0172618D03*
X0226463Y0171594D03*
X0226306Y0170138D03*
X0226148Y0169547D03*
X0226030Y0169114D03*
X0225282Y0167657D03*
X0224849Y0167224D03*
X0225282Y0166634D03*
X0224849Y0166201D03*
X0203550Y0170571D03*
X0201660Y0170571D03*
X0185755Y0168091D03*
X0176148Y0165610D03*
X0174967Y0166634D03*
X0174967Y0167657D03*
X0174692Y0168091D03*
X0173825Y0171161D03*
X0174967Y0175098D03*
X0175282Y0175531D03*
X0174849Y0175965D03*
X0175715Y0175965D03*
D47*
X0174908Y0176102D03*
X0173885Y0174646D03*
X0173885Y0172756D03*
X0173885Y0172480D03*
X0173885Y0172323D03*
X0173885Y0172165D03*
X0173885Y0171890D03*
X0173885Y0171732D03*
X0173885Y0171024D03*
X0173885Y0170866D03*
X0173885Y0170709D03*
X0173885Y0170433D03*
X0173885Y0170276D03*
X0173885Y0168228D03*
X0174908Y0167795D03*
X0205381Y0164882D03*
X0218215Y0171890D03*
X0226089Y0173346D03*
X0226089Y0169409D03*
X0226089Y0169252D03*
D48*
X0224475Y0175965D03*
X0212664Y0170571D03*
X0213845Y0164154D03*
X0197507Y0170571D03*
X0196640Y0170571D03*
X0196050Y0168091D03*
X0175932Y0166634D03*
D49*
X0173885Y0168091D03*
X0173885Y0170138D03*
X0173885Y0170571D03*
X0173885Y0171594D03*
X0173885Y0172028D03*
X0173885Y0172618D03*
X0173885Y0174508D03*
X0226089Y0175098D03*
X0226089Y0173484D03*
X0226089Y0167657D03*
D50*
X0217487Y0168819D03*
X0211503Y0174803D03*
X0196188Y0168543D03*
X0185558Y0174803D03*
D51*
X0185479Y0174646D03*
X0208944Y0168228D03*
D52*
X0203629Y0168976D03*
X0211503Y0174646D03*
X0194022Y0170709D03*
X0185243Y0168976D03*
D53*
X0185479Y0174508D03*
D54*
X0191030Y0168681D03*
X0193786Y0170138D03*
X0196857Y0170138D03*
X0211424Y0174508D03*
D55*
X0185341Y0174370D03*
D56*
X0184239Y0174213D03*
X0186286Y0169843D03*
X0188176Y0169843D03*
X0191089Y0170276D03*
X0193570Y0169843D03*
X0196050Y0170000D03*
X0197507Y0170000D03*
X0197507Y0169843D03*
X0201444Y0170276D03*
X0203491Y0170276D03*
X0207861Y0169685D03*
X0208294Y0170709D03*
X0209318Y0172913D03*
X0214711Y0169685D03*
X0217192Y0169843D03*
X0181325Y0169252D03*
D57*
X0181188Y0169547D03*
X0186424Y0170138D03*
X0188038Y0169547D03*
X0189337Y0169114D03*
X0183944Y0174075D03*
X0199849Y0170138D03*
X0201148Y0168681D03*
X0204495Y0169114D03*
X0207999Y0170138D03*
X0208432Y0171161D03*
X0209180Y0172618D03*
X0213392Y0172028D03*
D58*
X0212073Y0173051D03*
X0212231Y0173484D03*
X0212388Y0174075D03*
X0215735Y0171594D03*
X0218058Y0171161D03*
X0218215Y0171594D03*
X0219239Y0169547D03*
X0218491Y0169114D03*
X0186444Y0174075D03*
X0186286Y0173484D03*
X0186129Y0173051D03*
X0185853Y0172618D03*
X0185420Y0172028D03*
X0182349Y0172618D03*
D59*
X0181975Y0172028D03*
X0181542Y0171161D03*
X0184888Y0171594D03*
X0188392Y0170138D03*
X0194377Y0171161D03*
X0203117Y0169114D03*
X0205164Y0169547D03*
X0206621Y0168091D03*
X0208668Y0171594D03*
X0210125Y0174075D03*
X0212605Y0170138D03*
X0215518Y0171161D03*
X0222802Y0165610D03*
X0222369Y0164744D03*
D60*
X0222369Y0165472D03*
X0219022Y0169409D03*
X0214928Y0170000D03*
X0212605Y0170000D03*
X0210991Y0171732D03*
X0211148Y0171890D03*
X0211581Y0172323D03*
X0213471Y0172323D03*
X0209534Y0173189D03*
X0209534Y0173346D03*
X0209101Y0172480D03*
X0208077Y0170276D03*
X0207644Y0169252D03*
X0204731Y0169252D03*
X0194377Y0171299D03*
X0193353Y0168228D03*
X0188392Y0170276D03*
X0186503Y0170276D03*
X0185912Y0168228D03*
X0185479Y0172165D03*
X0183589Y0173780D03*
X0182999Y0173346D03*
X0181975Y0172165D03*
X0181542Y0171299D03*
D61*
X0181325Y0170571D03*
X0195617Y0169547D03*
X0208885Y0172028D03*
D62*
X0193196Y0168091D03*
X0173235Y0170138D03*
X0173077Y0171161D03*
X0173077Y0171594D03*
X0226896Y0169547D03*
X0227172Y0171161D03*
D63*
X0227034Y0170433D03*
X0227034Y0170276D03*
X0226168Y0167795D03*
X0204869Y0164882D03*
X0199908Y0170709D03*
X0173963Y0170000D03*
X0173373Y0169409D03*
X0173806Y0171457D03*
D64*
X0184751Y0171161D03*
X0219751Y0170138D03*
X0226601Y0168681D03*
D65*
X0216463Y0170709D03*
D66*
X0194003Y0170571D03*
D67*
X0216385Y0170571D03*
D68*
X0193924Y0170433D03*
D69*
X0196995Y0170433D03*
X0185617Y0169252D03*
X0211877Y0169252D03*
D70*
X0216385Y0170433D03*
D71*
X0193865Y0170276D03*
D72*
X0197349Y0164882D03*
X0205814Y0170276D03*
D73*
X0216247Y0170276D03*
D74*
X0216247Y0170138D03*
D75*
X0221778Y0164606D03*
X0203274Y0168543D03*
X0203117Y0169843D03*
X0199337Y0168819D03*
X0195400Y0169252D03*
X0190873Y0170000D03*
D76*
X0188176Y0168976D03*
X0182625Y0168386D03*
X0200577Y0170000D03*
D77*
X0201306Y0168976D03*
X0203196Y0170000D03*
X0199259Y0164882D03*
X0195479Y0169409D03*
X0193432Y0169685D03*
X0193432Y0168386D03*
X0186148Y0169685D03*
X0185991Y0168386D03*
X0181463Y0168976D03*
X0178392Y0164606D03*
X0221857Y0165315D03*
D78*
X0190873Y0169843D03*
D79*
X0182723Y0168543D03*
X0200361Y0169843D03*
D80*
X0200420Y0169685D03*
D81*
X0212231Y0169685D03*
X0212231Y0168386D03*
X0187743Y0169252D03*
X0184239Y0168819D03*
D82*
X0193294Y0169547D03*
X0209042Y0168091D03*
D83*
X0200420Y0169547D03*
D84*
X0212152Y0169547D03*
X0187664Y0169114D03*
D85*
X0200420Y0169252D03*
X0200420Y0169409D03*
D86*
X0199475Y0168976D03*
X0188097Y0168543D03*
X0214357Y0169409D03*
X0214790Y0168543D03*
X0216837Y0169409D03*
X0217270Y0168543D03*
D87*
X0211581Y0169114D03*
X0196266Y0168681D03*
X0185479Y0169114D03*
D88*
X0182861Y0168681D03*
X0192034Y0169114D03*
D89*
X0195262Y0169114D03*
X0203412Y0168681D03*
X0216522Y0169114D03*
X0217428Y0168681D03*
D90*
X0199613Y0169114D03*
D91*
X0193727Y0168681D03*
X0214121Y0169114D03*
X0214869Y0168681D03*
D92*
X0193136Y0168976D03*
D93*
X0193865Y0164882D03*
X0207133Y0168976D03*
D94*
X0214495Y0168976D03*
D95*
X0187290Y0168819D03*
D96*
X0193727Y0168819D03*
D97*
X0190873Y0168543D03*
X0182566Y0168228D03*
X0203550Y0168819D03*
D98*
X0207428Y0168819D03*
D99*
X0212605Y0168819D03*
D100*
X0187231Y0168681D03*
D101*
X0208589Y0168681D03*
D102*
X0212526Y0168681D03*
D103*
X0208373Y0168543D03*
D104*
X0208235Y0168386D03*
D105*
X0202900Y0168091D03*
X0212664Y0164154D03*
D106*
X0178333Y0165315D03*
D107*
X0200144Y0165177D03*
D108*
X0200203Y0165039D03*
D109*
X0185420Y0164882D03*
D110*
X0214140Y0164882D03*
D111*
X0187822Y0164449D03*
D112*
X0202388Y0164449D03*
D113*
X0214573Y0164449D03*
D114*
X0200125Y0164291D03*
D115*
X0183668Y0164154D03*
D116*
X0217566Y0164154D03*
D117*
X0189721Y0222943D03*
X0248776Y0222943D03*
X0307831Y0222943D03*
X0366886Y0222943D03*
X0425942Y0222943D03*
X0484997Y0222943D03*
X0544052Y0222943D03*
X0603107Y0222943D03*
X0662162Y0222943D03*
X0721217Y0222943D03*
X0780272Y0222943D03*
X0839327Y0222943D03*
X0898383Y0222943D03*
X0957438Y0222943D03*
X1016493Y0222943D03*
X1075548Y0222943D03*
X1134603Y0222943D03*
X1193658Y0222943D03*
X1252713Y0222943D03*
X1252713Y0281998D03*
X1193658Y0281998D03*
X1134603Y0281998D03*
X1075548Y0281998D03*
X1016493Y0281998D03*
X0957438Y0281998D03*
X0898383Y0281998D03*
X0839327Y0281998D03*
X0780272Y0281998D03*
X0721217Y0281998D03*
X0662162Y0281998D03*
X0603107Y0281998D03*
X0544052Y0281998D03*
X0484997Y0281998D03*
X0425942Y0281998D03*
X0366886Y0281998D03*
X0307831Y0281998D03*
X0248776Y0281998D03*
X0189721Y0281998D03*
X0130666Y0281998D03*
X0071611Y0281998D03*
X0071611Y0341053D03*
X0130666Y0341053D03*
X0189721Y0341053D03*
X0248776Y0341053D03*
X0307831Y0341053D03*
X0366886Y0341053D03*
X0425942Y0341053D03*
X0484997Y0341053D03*
X0544052Y0341053D03*
X0603107Y0341053D03*
X0662162Y0341053D03*
X0721217Y0341053D03*
X0780272Y0341053D03*
X0839327Y0341053D03*
X0898383Y0341053D03*
X0957438Y0341053D03*
X1016493Y0341053D03*
X1075548Y0341053D03*
X1134603Y0341053D03*
X1193658Y0341053D03*
X1252713Y0341053D03*
X1252713Y0400108D03*
X1193658Y0400108D03*
X1134603Y0400108D03*
X1075548Y0400108D03*
X1016493Y0400108D03*
X0957438Y0400108D03*
X0898383Y0400108D03*
X0839327Y0400108D03*
X0780272Y0400108D03*
X0721217Y0400108D03*
X0662162Y0400108D03*
X0603107Y0400108D03*
X0544052Y0400108D03*
X0484997Y0400108D03*
X0425942Y0400108D03*
X0366886Y0400108D03*
X0307831Y0400108D03*
X0248776Y0400108D03*
X0189721Y0400108D03*
X0130666Y0400108D03*
X0071611Y0400108D03*
X0071611Y0459163D03*
X0130666Y0459163D03*
X0189721Y0459163D03*
X0248776Y0459163D03*
X0307831Y0459163D03*
X0366886Y0459163D03*
X0425942Y0459163D03*
X0484997Y0459163D03*
X0544052Y0459163D03*
X0603107Y0459163D03*
X0662162Y0459163D03*
X0721217Y0459163D03*
X0780272Y0459163D03*
X0839327Y0459163D03*
X0898383Y0459163D03*
X0957438Y0459163D03*
X1016493Y0459163D03*
X1075548Y0459163D03*
X1134603Y0459163D03*
X1193658Y0459163D03*
X1252713Y0459163D03*
X1252713Y0518219D03*
X1193658Y0518219D03*
X1134603Y0518219D03*
X1075548Y0518219D03*
X1016493Y0518219D03*
X0957438Y0518219D03*
X0898383Y0518219D03*
X0839327Y0518219D03*
X0780272Y0518219D03*
X0721217Y0518219D03*
X0662162Y0518219D03*
X0603107Y0518219D03*
X0544052Y0518219D03*
X0484997Y0518219D03*
X0425942Y0518219D03*
X0366886Y0518219D03*
X0307831Y0518219D03*
X0248776Y0518219D03*
X0189721Y0518219D03*
X0130666Y0518219D03*
X0071611Y0518219D03*
X0071611Y0577274D03*
X0130666Y0577274D03*
X0189721Y0577274D03*
X0248776Y0577274D03*
X0307831Y0577274D03*
X0366886Y0577274D03*
X0425942Y0577274D03*
X0484997Y0577274D03*
X0544052Y0577274D03*
X0603107Y0577274D03*
X0662162Y0577274D03*
X0721217Y0577274D03*
X0780272Y0577274D03*
X0839327Y0577274D03*
X0898383Y0577274D03*
X0957438Y0577274D03*
X1016493Y0577274D03*
X1075548Y0577274D03*
X1134603Y0577274D03*
X1193658Y0577274D03*
X1252713Y0577274D03*
X1252713Y0636329D03*
X1193658Y0636329D03*
X1134603Y0636329D03*
X1075548Y0636329D03*
X1016493Y0636329D03*
X0957438Y0636329D03*
X0898383Y0636329D03*
X0839327Y0636329D03*
X0780272Y0636329D03*
X0721217Y0636329D03*
X0662162Y0636329D03*
X0603107Y0636329D03*
X0544052Y0636329D03*
X0484997Y0636329D03*
X0425942Y0636329D03*
X0366886Y0636329D03*
X0307831Y0636329D03*
X0248776Y0636329D03*
X0189721Y0636329D03*
X0130666Y0636329D03*
X0071611Y0636329D03*
X0071611Y0695384D03*
X0130666Y0695384D03*
X0189721Y0695384D03*
X0248776Y0695384D03*
X0307831Y0695384D03*
X0366886Y0695384D03*
X0425942Y0695384D03*
X0484997Y0695384D03*
X0544052Y0695384D03*
X0603107Y0695384D03*
X0662162Y0695384D03*
X0721217Y0695384D03*
X0780272Y0695384D03*
X0839327Y0695384D03*
X0898383Y0695384D03*
X0957438Y0695384D03*
X1016493Y0695384D03*
X1075548Y0695384D03*
X1134603Y0695384D03*
X1193658Y0695384D03*
X1252713Y0695384D03*
X1252713Y0754439D03*
X1193658Y0754439D03*
X1134603Y0754439D03*
X1075548Y0754439D03*
X1016493Y0754439D03*
X0957438Y0754439D03*
X0898383Y0754439D03*
X0839327Y0754439D03*
X0780272Y0754439D03*
X0721217Y0754439D03*
X0662162Y0754439D03*
X0603107Y0754439D03*
X0544052Y0754439D03*
X0484997Y0754439D03*
X0425942Y0754439D03*
X0366886Y0754439D03*
X0307831Y0754439D03*
X0248776Y0754439D03*
X0189721Y0754439D03*
X0130666Y0754439D03*
X0071611Y0754439D03*
X0130666Y0813494D03*
X0189721Y0813494D03*
X0248776Y0813494D03*
X0307831Y0813494D03*
X0366886Y0813494D03*
X0425942Y0813494D03*
X0484997Y0813494D03*
X0544052Y0813494D03*
X0603107Y0813494D03*
X0662162Y0813494D03*
X0780272Y0813494D03*
X0839327Y0813494D03*
X0898383Y0813494D03*
X0957438Y0813494D03*
X1016493Y0813494D03*
X1075548Y0813494D03*
X1134603Y0813494D03*
X1193658Y0813494D03*
X1193658Y0163888D03*
X1134603Y0163888D03*
X1075548Y0163888D03*
X1016493Y0163888D03*
X0957438Y0163888D03*
X0898383Y0163888D03*
X0839327Y0163888D03*
X0780272Y0163888D03*
X0721217Y0163888D03*
X0662162Y0163888D03*
X0603107Y0163888D03*
X0544052Y0163888D03*
X0484997Y0163888D03*
X0425942Y0163888D03*
X0366886Y0163888D03*
X0366886Y0104833D03*
X0425942Y0104833D03*
X0484997Y0104833D03*
X0544052Y0104833D03*
X0662162Y0104833D03*
X0721217Y0104833D03*
X0785194Y0104833D03*
X0839327Y0104833D03*
X0898383Y0104833D03*
X0957438Y0104833D03*
X1016493Y0104833D03*
X1075548Y0104833D03*
X1134603Y0104833D03*
X1193658Y0104833D03*
X1252713Y0163888D03*
X0130666Y0222943D03*
M02*
