G04 EAGLE Gerber RS-274X export*
G75*
%MOMM*%
%FSLAX34Y34*%
%LPD*%
%INBottom Copper*%
%IPPOS*%
%AMOC8*
5,1,8,0,0,1.08239X$1,22.5*%
G01*
%ADD10C,0.203200*%
%ADD11C,1.000000*%
%ADD12C,0.736600*%
%ADD13C,0.550000*%
%ADD14C,1.270000*%
%ADD15C,0.508000*%

G36*
X3253104Y2807D02*
X3253104Y2807D01*
X3253190Y2809D01*
X3253244Y2827D01*
X3253300Y2835D01*
X3253379Y2870D01*
X3253461Y2896D01*
X3253508Y2928D01*
X3253560Y2951D01*
X3253625Y3006D01*
X3253697Y3054D01*
X3253733Y3098D01*
X3253777Y3134D01*
X3253824Y3206D01*
X3253880Y3272D01*
X3253903Y3324D01*
X3253934Y3371D01*
X3253960Y3453D01*
X3253995Y3532D01*
X3254003Y3588D01*
X3254020Y3642D01*
X3254022Y3728D01*
X3254034Y3813D01*
X3254026Y3869D01*
X3254027Y3926D01*
X3254006Y4009D01*
X3253993Y4095D01*
X3253970Y4146D01*
X3253956Y4201D01*
X3253912Y4275D01*
X3253876Y4354D01*
X3253840Y4397D01*
X3253810Y4446D01*
X3253748Y4505D01*
X3253692Y4570D01*
X3253650Y4596D01*
X3253603Y4640D01*
X3253474Y4706D01*
X3253407Y4748D01*
X3251906Y5370D01*
X3250370Y6906D01*
X3249538Y8914D01*
X3249538Y11086D01*
X3250370Y13094D01*
X3251906Y14630D01*
X3253914Y15462D01*
X3256086Y15462D01*
X3258094Y14630D01*
X3259632Y13092D01*
X3259702Y13040D01*
X3259766Y12980D01*
X3259815Y12954D01*
X3259859Y12921D01*
X3259941Y12890D01*
X3260019Y12850D01*
X3260066Y12842D01*
X3260125Y12820D01*
X3260273Y12808D01*
X3260350Y12795D01*
X3288422Y12795D01*
X3288508Y12807D01*
X3288596Y12810D01*
X3288649Y12827D01*
X3288703Y12835D01*
X3288783Y12870D01*
X3288866Y12897D01*
X3288906Y12925D01*
X3288963Y12951D01*
X3289076Y13047D01*
X3289140Y13092D01*
X3428218Y152170D01*
X3428270Y152240D01*
X3428330Y152304D01*
X3428356Y152353D01*
X3428389Y152397D01*
X3428420Y152479D01*
X3428460Y152557D01*
X3428468Y152605D01*
X3428490Y152663D01*
X3428502Y152811D01*
X3428515Y152888D01*
X3428515Y528985D01*
X3501190Y528985D01*
X3501248Y528993D01*
X3501306Y528991D01*
X3501388Y529013D01*
X3501472Y529025D01*
X3501525Y529049D01*
X3501581Y529063D01*
X3501654Y529106D01*
X3501731Y529141D01*
X3501776Y529179D01*
X3501826Y529209D01*
X3501884Y529270D01*
X3501948Y529325D01*
X3501980Y529373D01*
X3502020Y529416D01*
X3502059Y529491D01*
X3502106Y529561D01*
X3502123Y529617D01*
X3502150Y529669D01*
X3502161Y529737D01*
X3502191Y529832D01*
X3502194Y529932D01*
X3502205Y530000D01*
X3502205Y2171190D01*
X3502197Y2171248D01*
X3502199Y2171306D01*
X3502177Y2171388D01*
X3502165Y2171472D01*
X3502142Y2171525D01*
X3502127Y2171581D01*
X3502084Y2171654D01*
X3502049Y2171731D01*
X3502011Y2171776D01*
X3501982Y2171826D01*
X3501920Y2171884D01*
X3501866Y2171948D01*
X3501817Y2171980D01*
X3501774Y2172020D01*
X3501699Y2172059D01*
X3501629Y2172106D01*
X3501573Y2172123D01*
X3501521Y2172150D01*
X3501453Y2172161D01*
X3501358Y2172191D01*
X3501258Y2172194D01*
X3501190Y2172205D01*
X3810Y2172205D01*
X3752Y2172197D01*
X3694Y2172199D01*
X3612Y2172177D01*
X3528Y2172165D01*
X3475Y2172142D01*
X3419Y2172127D01*
X3346Y2172084D01*
X3269Y2172049D01*
X3224Y2172011D01*
X3174Y2171982D01*
X3116Y2171920D01*
X3052Y2171866D01*
X3020Y2171817D01*
X2980Y2171774D01*
X2941Y2171699D01*
X2894Y2171629D01*
X2877Y2171573D01*
X2850Y2171521D01*
X2839Y2171453D01*
X2809Y2171358D01*
X2806Y2171258D01*
X2795Y2171190D01*
X2795Y405470D01*
X2799Y405440D01*
X2796Y405411D01*
X2819Y405300D01*
X2835Y405188D01*
X2847Y405161D01*
X2853Y405132D01*
X2905Y405032D01*
X2951Y404929D01*
X2970Y404906D01*
X2984Y404880D01*
X3062Y404798D01*
X3134Y404712D01*
X3159Y404695D01*
X3180Y404674D01*
X3277Y404617D01*
X3371Y404554D01*
X3400Y404545D01*
X3425Y404530D01*
X3534Y404503D01*
X3642Y404469D01*
X3672Y404468D01*
X3701Y404460D01*
X3813Y404464D01*
X3926Y404461D01*
X3955Y404469D01*
X3985Y404470D01*
X4092Y404505D01*
X4201Y404533D01*
X4227Y404548D01*
X4255Y404557D01*
X4290Y404582D01*
X6414Y405462D01*
X8586Y405462D01*
X10594Y404630D01*
X12130Y403094D01*
X12962Y401086D01*
X12962Y398914D01*
X12106Y396848D01*
X12098Y396818D01*
X12084Y396790D01*
X12071Y396713D01*
X12035Y396572D01*
X12037Y396508D01*
X12029Y396459D01*
X12029Y282296D01*
X12041Y282210D01*
X12044Y282122D01*
X12061Y282070D01*
X12069Y282015D01*
X12104Y281935D01*
X12131Y281852D01*
X12159Y281813D01*
X12185Y281755D01*
X12281Y281642D01*
X12326Y281579D01*
X22122Y271782D01*
X22192Y271730D01*
X22256Y271670D01*
X22306Y271644D01*
X22350Y271611D01*
X22431Y271580D01*
X22509Y271540D01*
X22557Y271532D01*
X22615Y271510D01*
X22763Y271498D01*
X22840Y271485D01*
X69910Y271485D01*
X69996Y271497D01*
X70084Y271500D01*
X70136Y271517D01*
X70191Y271525D01*
X70271Y271560D01*
X70354Y271587D01*
X70393Y271615D01*
X70451Y271641D01*
X70564Y271737D01*
X70628Y271782D01*
X164874Y366029D01*
X1115454Y366029D01*
X1115540Y366041D01*
X1115628Y366044D01*
X1115680Y366061D01*
X1115735Y366069D01*
X1115815Y366104D01*
X1115898Y366131D01*
X1115937Y366159D01*
X1115995Y366185D01*
X1116108Y366281D01*
X1116171Y366326D01*
X1191874Y442029D01*
X3390209Y442029D01*
X3390240Y442033D01*
X3390271Y442031D01*
X3390347Y442048D01*
X3390491Y442069D01*
X3390549Y442095D01*
X3390598Y442106D01*
X3392664Y442962D01*
X3394836Y442962D01*
X3396844Y442130D01*
X3398380Y440594D01*
X3399212Y438586D01*
X3399212Y436414D01*
X3398380Y434406D01*
X3396844Y432870D01*
X3394836Y432038D01*
X3392664Y432038D01*
X3390598Y432894D01*
X3390568Y432902D01*
X3390540Y432916D01*
X3390463Y432929D01*
X3390322Y432965D01*
X3390258Y432963D01*
X3390209Y432971D01*
X1196046Y432971D01*
X1195960Y432959D01*
X1195872Y432956D01*
X1195820Y432939D01*
X1195765Y432931D01*
X1195685Y432896D01*
X1195602Y432869D01*
X1195563Y432841D01*
X1195505Y432815D01*
X1195392Y432719D01*
X1195329Y432674D01*
X1119626Y356971D01*
X655544Y356971D01*
X655486Y356963D01*
X655428Y356965D01*
X655346Y356943D01*
X655262Y356931D01*
X655209Y356908D01*
X655153Y356893D01*
X655080Y356850D01*
X655003Y356815D01*
X654958Y356777D01*
X654908Y356748D01*
X654850Y356686D01*
X654786Y356632D01*
X654754Y356583D01*
X654714Y356540D01*
X654675Y356465D01*
X654628Y356395D01*
X654611Y356339D01*
X654584Y356287D01*
X654573Y356219D01*
X654543Y356124D01*
X654540Y356024D01*
X654529Y355956D01*
X654529Y203541D01*
X654533Y203510D01*
X654531Y203479D01*
X654548Y203403D01*
X654569Y203259D01*
X654595Y203201D01*
X654606Y203152D01*
X655462Y201086D01*
X655462Y198914D01*
X654630Y196906D01*
X653094Y195370D01*
X651086Y194538D01*
X648914Y194538D01*
X646906Y195370D01*
X645370Y196906D01*
X644538Y198914D01*
X644538Y201086D01*
X645394Y203152D01*
X645402Y203182D01*
X645416Y203210D01*
X645429Y203287D01*
X645465Y203428D01*
X645463Y203492D01*
X645471Y203541D01*
X645471Y355956D01*
X645463Y356014D01*
X645465Y356072D01*
X645443Y356154D01*
X645431Y356238D01*
X645408Y356291D01*
X645393Y356347D01*
X645350Y356420D01*
X645315Y356497D01*
X645277Y356542D01*
X645248Y356592D01*
X645186Y356650D01*
X645132Y356714D01*
X645083Y356746D01*
X645040Y356786D01*
X644965Y356825D01*
X644895Y356872D01*
X644839Y356889D01*
X644787Y356916D01*
X644719Y356927D01*
X644624Y356957D01*
X644524Y356960D01*
X644456Y356971D01*
X169046Y356971D01*
X168960Y356959D01*
X168872Y356956D01*
X168820Y356939D01*
X168765Y356931D01*
X168685Y356896D01*
X168602Y356869D01*
X168563Y356841D01*
X168505Y356815D01*
X168392Y356719D01*
X168329Y356674D01*
X84872Y273218D01*
X84855Y273195D01*
X84832Y273176D01*
X84770Y273081D01*
X84702Y272991D01*
X84691Y272963D01*
X84675Y272939D01*
X84641Y272831D01*
X84600Y272725D01*
X84598Y272696D01*
X84589Y272668D01*
X84586Y272554D01*
X84577Y272442D01*
X84583Y272413D01*
X84582Y272384D01*
X84610Y272274D01*
X84633Y272163D01*
X84646Y272137D01*
X84654Y272109D01*
X84711Y272011D01*
X84764Y271911D01*
X84784Y271889D01*
X84799Y271864D01*
X84881Y271787D01*
X84959Y271705D01*
X84985Y271690D01*
X85006Y271670D01*
X85107Y271618D01*
X85205Y271561D01*
X85233Y271554D01*
X85259Y271540D01*
X85337Y271527D01*
X85480Y271491D01*
X85543Y271493D01*
X85590Y271485D01*
X607735Y271485D01*
X607735Y3810D01*
X607743Y3752D01*
X607741Y3694D01*
X607763Y3612D01*
X607775Y3528D01*
X607799Y3475D01*
X607813Y3419D01*
X607856Y3346D01*
X607891Y3269D01*
X607929Y3224D01*
X607959Y3174D01*
X608020Y3116D01*
X608075Y3052D01*
X608123Y3020D01*
X608166Y2980D01*
X608241Y2941D01*
X608311Y2894D01*
X608367Y2877D01*
X608419Y2850D01*
X608487Y2839D01*
X608582Y2809D01*
X608682Y2806D01*
X608750Y2795D01*
X3253019Y2795D01*
X3253104Y2807D01*
G37*
G36*
X521878Y2803D02*
X521878Y2803D01*
X521936Y2801D01*
X522018Y2823D01*
X522102Y2835D01*
X522155Y2858D01*
X522211Y2873D01*
X522284Y2916D01*
X522361Y2951D01*
X522406Y2989D01*
X522456Y3018D01*
X522514Y3080D01*
X522578Y3134D01*
X522610Y3183D01*
X522650Y3226D01*
X522689Y3301D01*
X522736Y3371D01*
X522753Y3427D01*
X522780Y3479D01*
X522791Y3547D01*
X522821Y3642D01*
X522824Y3742D01*
X522835Y3810D01*
X522835Y234358D01*
X524472Y235995D01*
X586478Y235995D01*
X588115Y234358D01*
X588115Y3810D01*
X588123Y3752D01*
X588121Y3694D01*
X588143Y3612D01*
X588155Y3528D01*
X588178Y3475D01*
X588193Y3419D01*
X588236Y3346D01*
X588271Y3269D01*
X588309Y3224D01*
X588338Y3174D01*
X588400Y3116D01*
X588454Y3052D01*
X588503Y3020D01*
X588546Y2980D01*
X588621Y2941D01*
X588691Y2894D01*
X588747Y2877D01*
X588799Y2850D01*
X588867Y2839D01*
X588962Y2809D01*
X589062Y2806D01*
X589130Y2795D01*
X598750Y2795D01*
X598808Y2803D01*
X598866Y2801D01*
X598948Y2823D01*
X599031Y2835D01*
X599085Y2858D01*
X599141Y2873D01*
X599214Y2916D01*
X599291Y2951D01*
X599336Y2989D01*
X599386Y3018D01*
X599444Y3080D01*
X599508Y3134D01*
X599540Y3183D01*
X599580Y3226D01*
X599619Y3301D01*
X599665Y3371D01*
X599683Y3427D01*
X599710Y3479D01*
X599721Y3547D01*
X599751Y3642D01*
X599754Y3742D01*
X599765Y3810D01*
X599765Y262500D01*
X599757Y262558D01*
X599759Y262616D01*
X599737Y262698D01*
X599725Y262782D01*
X599702Y262835D01*
X599687Y262891D01*
X599644Y262964D01*
X599609Y263041D01*
X599571Y263086D01*
X599542Y263136D01*
X599480Y263194D01*
X599426Y263258D01*
X599377Y263290D01*
X599334Y263330D01*
X599259Y263369D01*
X599189Y263416D01*
X599133Y263433D01*
X599081Y263460D01*
X599013Y263471D01*
X598918Y263501D01*
X598818Y263504D01*
X598750Y263515D01*
X75590Y263515D01*
X75504Y263503D01*
X75416Y263500D01*
X75364Y263483D01*
X75309Y263475D01*
X75229Y263440D01*
X75146Y263413D01*
X75107Y263385D01*
X75049Y263359D01*
X74936Y263263D01*
X74872Y263218D01*
X73956Y262301D01*
X73938Y262277D01*
X73914Y262257D01*
X73872Y262190D01*
X73785Y262074D01*
X73762Y262014D01*
X73736Y261972D01*
X72880Y259906D01*
X71344Y258370D01*
X69336Y257538D01*
X67164Y257538D01*
X65156Y258370D01*
X63620Y259906D01*
X62788Y261914D01*
X62788Y262500D01*
X62780Y262558D01*
X62782Y262616D01*
X62760Y262698D01*
X62748Y262782D01*
X62725Y262835D01*
X62710Y262891D01*
X62667Y262964D01*
X62632Y263041D01*
X62594Y263086D01*
X62565Y263136D01*
X62503Y263194D01*
X62449Y263258D01*
X62400Y263290D01*
X62357Y263330D01*
X62282Y263369D01*
X62212Y263416D01*
X62156Y263433D01*
X62104Y263460D01*
X62036Y263471D01*
X61941Y263501D01*
X61841Y263504D01*
X61773Y263515D01*
X32840Y263515D01*
X32811Y263511D01*
X32782Y263514D01*
X32671Y263491D01*
X32559Y263475D01*
X32532Y263463D01*
X32503Y263458D01*
X32403Y263406D01*
X32299Y263359D01*
X32277Y263340D01*
X32251Y263327D01*
X32169Y263249D01*
X32082Y263176D01*
X32066Y263151D01*
X32045Y263131D01*
X31988Y263033D01*
X31925Y262939D01*
X31916Y262911D01*
X31901Y262886D01*
X31873Y262776D01*
X31839Y262668D01*
X31838Y262638D01*
X31831Y262610D01*
X31835Y262497D01*
X31832Y262384D01*
X31839Y262355D01*
X31840Y262326D01*
X31875Y262218D01*
X31904Y262109D01*
X31919Y262083D01*
X31928Y262055D01*
X31973Y261992D01*
X32049Y261864D01*
X32095Y261821D01*
X32122Y261782D01*
X41579Y252326D01*
X41648Y252274D01*
X41712Y252214D01*
X41762Y252188D01*
X41806Y252155D01*
X41887Y252124D01*
X41965Y252084D01*
X42013Y252076D01*
X42071Y252054D01*
X42219Y252042D01*
X42296Y252029D01*
X311454Y252029D01*
X311540Y252041D01*
X311628Y252044D01*
X311680Y252061D01*
X311735Y252069D01*
X311815Y252104D01*
X311898Y252131D01*
X311937Y252159D01*
X311995Y252185D01*
X312108Y252281D01*
X312171Y252326D01*
X314374Y254529D01*
X346459Y254529D01*
X346490Y254533D01*
X346521Y254531D01*
X346597Y254548D01*
X346741Y254569D01*
X346799Y254595D01*
X346848Y254606D01*
X348914Y255462D01*
X351086Y255462D01*
X353094Y254630D01*
X354630Y253094D01*
X355462Y251086D01*
X355462Y248914D01*
X354630Y246906D01*
X353094Y245370D01*
X351086Y244538D01*
X348914Y244538D01*
X346848Y245394D01*
X346818Y245402D01*
X346790Y245416D01*
X346713Y245429D01*
X346572Y245465D01*
X346508Y245463D01*
X346459Y245471D01*
X318546Y245471D01*
X318460Y245459D01*
X318372Y245456D01*
X318320Y245439D01*
X318265Y245431D01*
X318185Y245396D01*
X318102Y245369D01*
X318063Y245341D01*
X318005Y245315D01*
X317892Y245219D01*
X317829Y245174D01*
X315626Y242971D01*
X38124Y242971D01*
X35174Y245921D01*
X17878Y263218D01*
X17808Y263270D01*
X17744Y263330D01*
X17695Y263356D01*
X17650Y263389D01*
X17569Y263420D01*
X17491Y263460D01*
X17443Y263468D01*
X17385Y263490D01*
X17237Y263502D01*
X17160Y263515D01*
X3810Y263515D01*
X3752Y263507D01*
X3694Y263509D01*
X3612Y263487D01*
X3528Y263475D01*
X3475Y263452D01*
X3419Y263437D01*
X3346Y263394D01*
X3269Y263359D01*
X3224Y263321D01*
X3174Y263292D01*
X3116Y263230D01*
X3052Y263176D01*
X3020Y263127D01*
X2980Y263084D01*
X2941Y263009D01*
X2894Y262939D01*
X2877Y262883D01*
X2850Y262831D01*
X2839Y262763D01*
X2809Y262668D01*
X2806Y262568D01*
X2795Y262500D01*
X2795Y3810D01*
X2803Y3752D01*
X2801Y3694D01*
X2823Y3612D01*
X2835Y3528D01*
X2858Y3475D01*
X2873Y3419D01*
X2916Y3346D01*
X2951Y3269D01*
X2989Y3224D01*
X3018Y3174D01*
X3080Y3116D01*
X3134Y3052D01*
X3183Y3020D01*
X3226Y2980D01*
X3301Y2941D01*
X3371Y2894D01*
X3427Y2877D01*
X3479Y2850D01*
X3547Y2839D01*
X3642Y2809D01*
X3742Y2806D01*
X3810Y2795D01*
X521820Y2795D01*
X521878Y2803D01*
G37*
G36*
X3442248Y228993D02*
X3442248Y228993D01*
X3442306Y228991D01*
X3442388Y229013D01*
X3442472Y229025D01*
X3442525Y229049D01*
X3442581Y229063D01*
X3442654Y229106D01*
X3442731Y229141D01*
X3442776Y229179D01*
X3442826Y229209D01*
X3442884Y229270D01*
X3442948Y229325D01*
X3442980Y229373D01*
X3443020Y229416D01*
X3443059Y229491D01*
X3443106Y229561D01*
X3443123Y229617D01*
X3443150Y229669D01*
X3443161Y229737D01*
X3443191Y229832D01*
X3443194Y229932D01*
X3443205Y230000D01*
X3443205Y307158D01*
X3499241Y363193D01*
X3499293Y363263D01*
X3499353Y363327D01*
X3499379Y363376D01*
X3499412Y363420D01*
X3499443Y363502D01*
X3499483Y363580D01*
X3499491Y363628D01*
X3499513Y363686D01*
X3499525Y363834D01*
X3499538Y363911D01*
X3499538Y366086D01*
X3500370Y368094D01*
X3501906Y369630D01*
X3503914Y370462D01*
X3506086Y370462D01*
X3508094Y369630D01*
X3509630Y368094D01*
X3510462Y366086D01*
X3510462Y363914D01*
X3509630Y361906D01*
X3508094Y360370D01*
X3506086Y359538D01*
X3503911Y359538D01*
X3503825Y359526D01*
X3503737Y359523D01*
X3503684Y359506D01*
X3503630Y359498D01*
X3503550Y359463D01*
X3503467Y359436D01*
X3503427Y359408D01*
X3503370Y359382D01*
X3503257Y359286D01*
X3503193Y359241D01*
X3449092Y305140D01*
X3449040Y305070D01*
X3448980Y305006D01*
X3448954Y304957D01*
X3448921Y304913D01*
X3448890Y304831D01*
X3448850Y304753D01*
X3448842Y304705D01*
X3448820Y304647D01*
X3448808Y304499D01*
X3448795Y304422D01*
X3448795Y230000D01*
X3448803Y229942D01*
X3448801Y229884D01*
X3448823Y229802D01*
X3448835Y229719D01*
X3448858Y229665D01*
X3448873Y229609D01*
X3448916Y229536D01*
X3448951Y229459D01*
X3448989Y229414D01*
X3449018Y229364D01*
X3449080Y229306D01*
X3449134Y229242D01*
X3449183Y229210D01*
X3449226Y229170D01*
X3449301Y229131D01*
X3449371Y229085D01*
X3449427Y229067D01*
X3449479Y229040D01*
X3449547Y229029D01*
X3449642Y228999D01*
X3449742Y228996D01*
X3449810Y228985D01*
X3501190Y228985D01*
X3501248Y228993D01*
X3501306Y228991D01*
X3501388Y229013D01*
X3501472Y229025D01*
X3501525Y229049D01*
X3501581Y229063D01*
X3501654Y229106D01*
X3501731Y229141D01*
X3501776Y229179D01*
X3501826Y229209D01*
X3501884Y229270D01*
X3501948Y229325D01*
X3501980Y229373D01*
X3502020Y229416D01*
X3502059Y229491D01*
X3502106Y229561D01*
X3502123Y229617D01*
X3502150Y229669D01*
X3502161Y229737D01*
X3502191Y229832D01*
X3502194Y229932D01*
X3502205Y230000D01*
X3502205Y231158D01*
X3503842Y232795D01*
X3600000Y232795D01*
X3600058Y232803D01*
X3600116Y232801D01*
X3600198Y232823D01*
X3600282Y232835D01*
X3600335Y232858D01*
X3600391Y232873D01*
X3600464Y232916D01*
X3600541Y232951D01*
X3600586Y232989D01*
X3600636Y233018D01*
X3600694Y233080D01*
X3600758Y233134D01*
X3600790Y233183D01*
X3600830Y233226D01*
X3600869Y233301D01*
X3600916Y233371D01*
X3600933Y233427D01*
X3600960Y233479D01*
X3600971Y233547D01*
X3601001Y233642D01*
X3601004Y233742D01*
X3601015Y233810D01*
X3601015Y241828D01*
X3601011Y241857D01*
X3601014Y241886D01*
X3600991Y241997D01*
X3600975Y242109D01*
X3600963Y242136D01*
X3600958Y242165D01*
X3600906Y242265D01*
X3600859Y242369D01*
X3600840Y242391D01*
X3600827Y242417D01*
X3600749Y242499D01*
X3600676Y242586D01*
X3600651Y242602D01*
X3600631Y242623D01*
X3600533Y242680D01*
X3600439Y242743D01*
X3600411Y242752D01*
X3600386Y242767D01*
X3600276Y242795D01*
X3600168Y242829D01*
X3600138Y242830D01*
X3600110Y242837D01*
X3599997Y242833D01*
X3599884Y242836D01*
X3599855Y242829D01*
X3599826Y242828D01*
X3599718Y242793D01*
X3599609Y242764D01*
X3599583Y242749D01*
X3599555Y242740D01*
X3599492Y242695D01*
X3599364Y242619D01*
X3599321Y242573D01*
X3599282Y242546D01*
X3597790Y241053D01*
X3595298Y240021D01*
X3586602Y240021D01*
X3584110Y241053D01*
X3582203Y242960D01*
X3581171Y245452D01*
X3581171Y248148D01*
X3582203Y250640D01*
X3584110Y252547D01*
X3586602Y253579D01*
X3595298Y253579D01*
X3597790Y252547D01*
X3599282Y251054D01*
X3599306Y251037D01*
X3599325Y251014D01*
X3599419Y250952D01*
X3599509Y250884D01*
X3599537Y250873D01*
X3599561Y250857D01*
X3599669Y250823D01*
X3599775Y250782D01*
X3599804Y250780D01*
X3599832Y250771D01*
X3599946Y250768D01*
X3600058Y250759D01*
X3600087Y250765D01*
X3600116Y250764D01*
X3600226Y250792D01*
X3600337Y250815D01*
X3600363Y250828D01*
X3600391Y250836D01*
X3600489Y250893D01*
X3600589Y250946D01*
X3600611Y250966D01*
X3600636Y250981D01*
X3600713Y251063D01*
X3600795Y251141D01*
X3600810Y251167D01*
X3600830Y251188D01*
X3600882Y251289D01*
X3600939Y251387D01*
X3600946Y251415D01*
X3600960Y251441D01*
X3600973Y251519D01*
X3601009Y251662D01*
X3601007Y251725D01*
X3601015Y251772D01*
X3601015Y328228D01*
X3601011Y328257D01*
X3601014Y328286D01*
X3600991Y328397D01*
X3600975Y328509D01*
X3600963Y328536D01*
X3600958Y328565D01*
X3600906Y328665D01*
X3600859Y328769D01*
X3600840Y328791D01*
X3600827Y328817D01*
X3600749Y328899D01*
X3600676Y328986D01*
X3600651Y329002D01*
X3600631Y329023D01*
X3600533Y329080D01*
X3600439Y329143D01*
X3600411Y329152D01*
X3600386Y329167D01*
X3600276Y329195D01*
X3600168Y329229D01*
X3600138Y329230D01*
X3600110Y329237D01*
X3599997Y329233D01*
X3599884Y329236D01*
X3599855Y329229D01*
X3599826Y329228D01*
X3599718Y329193D01*
X3599609Y329164D01*
X3599583Y329149D01*
X3599555Y329140D01*
X3599492Y329095D01*
X3599364Y329019D01*
X3599321Y328973D01*
X3599282Y328946D01*
X3597790Y327453D01*
X3595298Y326421D01*
X3586602Y326421D01*
X3584110Y327453D01*
X3582203Y329360D01*
X3581171Y331852D01*
X3581171Y334548D01*
X3582203Y337040D01*
X3584110Y338947D01*
X3586602Y339979D01*
X3595298Y339979D01*
X3597790Y338947D01*
X3599282Y337454D01*
X3599306Y337437D01*
X3599325Y337414D01*
X3599419Y337352D01*
X3599509Y337284D01*
X3599537Y337273D01*
X3599561Y337257D01*
X3599669Y337223D01*
X3599775Y337182D01*
X3599804Y337180D01*
X3599832Y337171D01*
X3599946Y337168D01*
X3600058Y337159D01*
X3600087Y337165D01*
X3600116Y337164D01*
X3600226Y337192D01*
X3600337Y337215D01*
X3600363Y337228D01*
X3600391Y337236D01*
X3600489Y337293D01*
X3600589Y337346D01*
X3600611Y337366D01*
X3600636Y337381D01*
X3600713Y337463D01*
X3600795Y337541D01*
X3600810Y337567D01*
X3600830Y337588D01*
X3600882Y337689D01*
X3600939Y337787D01*
X3600946Y337815D01*
X3600960Y337841D01*
X3600973Y337919D01*
X3601009Y338062D01*
X3601007Y338125D01*
X3601015Y338172D01*
X3601015Y456001D01*
X3601011Y456030D01*
X3601014Y456059D01*
X3600991Y456170D01*
X3600975Y456282D01*
X3600963Y456309D01*
X3600958Y456338D01*
X3600906Y456438D01*
X3600859Y456542D01*
X3600840Y456564D01*
X3600827Y456590D01*
X3600749Y456672D01*
X3600676Y456759D01*
X3600651Y456775D01*
X3600631Y456796D01*
X3600533Y456854D01*
X3600439Y456916D01*
X3600411Y456925D01*
X3600386Y456940D01*
X3600276Y456968D01*
X3600168Y457002D01*
X3600138Y457003D01*
X3600110Y457010D01*
X3599997Y457007D01*
X3599884Y457009D01*
X3599855Y457002D01*
X3599826Y457001D01*
X3599718Y456966D01*
X3599609Y456938D01*
X3599583Y456923D01*
X3599555Y456914D01*
X3599492Y456868D01*
X3599364Y456792D01*
X3599321Y456747D01*
X3599282Y456719D01*
X3598832Y456268D01*
X3596516Y456268D01*
X3594879Y457905D01*
X3594879Y458216D01*
X3594871Y458274D01*
X3594873Y458333D01*
X3594851Y458414D01*
X3594839Y458498D01*
X3594816Y458551D01*
X3594801Y458608D01*
X3594758Y458680D01*
X3594723Y458757D01*
X3594685Y458802D01*
X3594656Y458852D01*
X3594594Y458910D01*
X3594540Y458974D01*
X3594491Y459007D01*
X3594448Y459047D01*
X3594373Y459085D01*
X3594303Y459132D01*
X3594247Y459150D01*
X3594195Y459176D01*
X3594127Y459188D01*
X3594032Y459218D01*
X3593932Y459220D01*
X3593864Y459232D01*
X3587217Y459232D01*
X3587154Y459223D01*
X3587105Y459225D01*
X3586123Y459116D01*
X3586059Y459154D01*
X3586029Y459162D01*
X3586001Y459176D01*
X3585923Y459189D01*
X3585880Y459200D01*
X3585179Y459901D01*
X3585128Y459939D01*
X3585095Y459976D01*
X3584324Y460593D01*
X3584305Y460665D01*
X3584289Y460692D01*
X3584280Y460722D01*
X3584234Y460786D01*
X3584211Y460825D01*
X3584211Y461815D01*
X3584202Y461879D01*
X3584205Y461927D01*
X3584096Y462910D01*
X3584134Y462973D01*
X3584141Y463004D01*
X3584156Y463032D01*
X3584169Y463109D01*
X3584205Y463248D01*
X3584205Y463255D01*
X3584205Y463257D01*
X3584203Y463316D01*
X3584211Y463363D01*
X3584211Y463367D01*
X3584199Y463453D01*
X3584197Y463533D01*
X3584196Y463534D01*
X3584196Y463541D01*
X3584179Y463594D01*
X3584171Y463649D01*
X3584136Y463729D01*
X3584109Y463812D01*
X3584081Y463851D01*
X3584055Y463908D01*
X3583986Y463991D01*
X3583953Y464040D01*
X3583937Y464053D01*
X3583914Y464085D01*
X3582406Y465594D01*
X3581221Y468453D01*
X3581221Y471547D01*
X3582406Y474406D01*
X3584594Y476594D01*
X3586362Y477327D01*
X3586437Y477371D01*
X3586516Y477407D01*
X3586553Y477439D01*
X3586607Y477472D01*
X3586708Y477578D01*
X3586767Y477631D01*
X3587902Y479050D01*
X3587928Y479095D01*
X3587962Y479134D01*
X3588000Y479216D01*
X3588046Y479294D01*
X3588059Y479345D01*
X3588081Y479392D01*
X3588095Y479482D01*
X3588118Y479569D01*
X3588116Y479622D01*
X3588124Y479673D01*
X3588113Y479745D01*
X3588110Y479854D01*
X3588082Y479941D01*
X3588072Y480005D01*
X3587545Y481587D01*
X3588396Y483289D01*
X3588401Y483305D01*
X3588410Y483320D01*
X3588446Y483440D01*
X3588486Y483559D01*
X3588487Y483576D01*
X3588492Y483592D01*
X3588493Y483718D01*
X3588498Y483843D01*
X3588494Y483859D01*
X3588494Y483876D01*
X3588473Y483945D01*
X3588431Y484119D01*
X3588407Y484161D01*
X3588396Y484197D01*
X3587545Y485900D01*
X3588277Y488096D01*
X3590348Y489131D01*
X3597353Y486796D01*
X3597368Y486793D01*
X3597382Y486787D01*
X3597508Y486768D01*
X3597633Y486745D01*
X3597648Y486747D01*
X3597663Y486744D01*
X3597731Y486755D01*
X3597872Y486769D01*
X3598682Y486364D01*
X3598761Y486338D01*
X3598815Y486309D01*
X3599679Y486021D01*
X3599757Y486007D01*
X3599832Y485983D01*
X3599896Y485981D01*
X3599959Y485970D01*
X3600037Y485978D01*
X3600116Y485976D01*
X3600178Y485992D01*
X3600241Y485998D01*
X3600315Y486027D01*
X3600391Y486047D01*
X3600446Y486080D01*
X3600505Y486104D01*
X3600568Y486152D01*
X3600636Y486193D01*
X3600679Y486239D01*
X3600730Y486278D01*
X3600776Y486342D01*
X3600830Y486400D01*
X3600859Y486457D01*
X3600897Y486508D01*
X3600924Y486583D01*
X3600960Y486653D01*
X3600969Y486707D01*
X3600994Y486776D01*
X3601002Y486907D01*
X3601015Y486984D01*
X3601015Y520000D01*
X3601007Y520058D01*
X3601009Y520116D01*
X3600987Y520198D01*
X3600975Y520282D01*
X3600952Y520335D01*
X3600937Y520391D01*
X3600894Y520464D01*
X3600859Y520541D01*
X3600821Y520586D01*
X3600792Y520636D01*
X3600730Y520694D01*
X3600676Y520758D01*
X3600627Y520790D01*
X3600584Y520830D01*
X3600509Y520869D01*
X3600439Y520916D01*
X3600383Y520933D01*
X3600331Y520960D01*
X3600263Y520971D01*
X3600168Y521001D01*
X3600068Y521004D01*
X3600000Y521015D01*
X3440000Y521015D01*
X3439942Y521007D01*
X3439884Y521009D01*
X3439802Y520987D01*
X3439719Y520975D01*
X3439665Y520952D01*
X3439609Y520937D01*
X3439536Y520894D01*
X3439459Y520859D01*
X3439414Y520821D01*
X3439364Y520792D01*
X3439306Y520730D01*
X3439242Y520676D01*
X3439210Y520627D01*
X3439170Y520584D01*
X3439131Y520509D01*
X3439085Y520439D01*
X3439067Y520383D01*
X3439040Y520331D01*
X3439029Y520263D01*
X3438999Y520168D01*
X3438996Y520068D01*
X3438985Y520000D01*
X3438985Y230000D01*
X3438993Y229942D01*
X3438991Y229884D01*
X3439013Y229802D01*
X3439025Y229719D01*
X3439049Y229665D01*
X3439063Y229609D01*
X3439106Y229536D01*
X3439141Y229459D01*
X3439179Y229414D01*
X3439209Y229364D01*
X3439270Y229306D01*
X3439325Y229242D01*
X3439373Y229210D01*
X3439416Y229170D01*
X3439491Y229131D01*
X3439561Y229085D01*
X3439617Y229067D01*
X3439669Y229040D01*
X3439737Y229029D01*
X3439832Y228999D01*
X3439932Y228996D01*
X3440000Y228985D01*
X3442190Y228985D01*
X3442248Y228993D01*
G37*
%LPC*%
G36*
X67664Y1577038D02*
X67664Y1577038D01*
X65656Y1577870D01*
X64120Y1579406D01*
X63288Y1581414D01*
X63288Y1583586D01*
X64120Y1585594D01*
X65656Y1587130D01*
X67664Y1587962D01*
X69836Y1587962D01*
X71902Y1587106D01*
X71932Y1587098D01*
X71960Y1587084D01*
X72037Y1587071D01*
X72178Y1587035D01*
X72242Y1587037D01*
X72291Y1587029D01*
X112341Y1587029D01*
X112428Y1587041D01*
X112516Y1587044D01*
X112568Y1587061D01*
X112623Y1587069D01*
X112703Y1587104D01*
X112786Y1587131D01*
X112825Y1587159D01*
X112882Y1587185D01*
X112996Y1587281D01*
X113059Y1587326D01*
X113473Y1587740D01*
X227165Y1587740D01*
X227251Y1587752D01*
X227339Y1587755D01*
X227391Y1587772D01*
X227446Y1587780D01*
X227526Y1587815D01*
X227609Y1587842D01*
X227648Y1587870D01*
X227706Y1587896D01*
X227819Y1587992D01*
X227882Y1588037D01*
X426874Y1787029D01*
X3395209Y1787029D01*
X3395240Y1787033D01*
X3395271Y1787031D01*
X3395347Y1787048D01*
X3395491Y1787069D01*
X3395549Y1787095D01*
X3395598Y1787106D01*
X3397664Y1787962D01*
X3399836Y1787962D01*
X3401844Y1787130D01*
X3403380Y1785594D01*
X3404212Y1783586D01*
X3404212Y1781414D01*
X3403380Y1779406D01*
X3401844Y1777870D01*
X3399836Y1777038D01*
X3397664Y1777038D01*
X3395598Y1777894D01*
X3395568Y1777902D01*
X3395540Y1777916D01*
X3395463Y1777929D01*
X3395322Y1777965D01*
X3395258Y1777963D01*
X3395209Y1777971D01*
X431046Y1777971D01*
X430960Y1777959D01*
X430872Y1777956D01*
X430820Y1777939D01*
X430765Y1777931D01*
X430685Y1777896D01*
X430602Y1777869D01*
X430563Y1777841D01*
X430505Y1777815D01*
X430392Y1777719D01*
X430329Y1777674D01*
X231337Y1578682D01*
X117645Y1578682D01*
X117559Y1578670D01*
X117471Y1578667D01*
X117419Y1578650D01*
X117364Y1578642D01*
X117284Y1578607D01*
X117201Y1578580D01*
X117161Y1578552D01*
X117104Y1578526D01*
X116991Y1578430D01*
X116927Y1578385D01*
X116514Y1577971D01*
X72291Y1577971D01*
X72260Y1577967D01*
X72229Y1577969D01*
X72153Y1577952D01*
X72009Y1577931D01*
X71951Y1577905D01*
X71902Y1577894D01*
X69836Y1577038D01*
X67664Y1577038D01*
G37*
%LPD*%
%LPC*%
G36*
X67664Y1727038D02*
X67664Y1727038D01*
X65656Y1727870D01*
X64120Y1729406D01*
X63288Y1731414D01*
X63288Y1733586D01*
X64120Y1735594D01*
X65656Y1737130D01*
X67664Y1737962D01*
X69836Y1737962D01*
X71902Y1737106D01*
X71932Y1737098D01*
X71960Y1737084D01*
X72037Y1737071D01*
X72178Y1737035D01*
X72242Y1737037D01*
X72291Y1737029D01*
X156454Y1737029D01*
X156540Y1737041D01*
X156628Y1737044D01*
X156680Y1737061D01*
X156735Y1737069D01*
X156815Y1737104D01*
X156898Y1737131D01*
X156937Y1737159D01*
X156995Y1737185D01*
X157108Y1737281D01*
X157171Y1737326D01*
X356874Y1937029D01*
X3395209Y1937029D01*
X3395240Y1937033D01*
X3395271Y1937031D01*
X3395347Y1937048D01*
X3395491Y1937069D01*
X3395549Y1937095D01*
X3395598Y1937106D01*
X3397664Y1937962D01*
X3399836Y1937962D01*
X3401844Y1937130D01*
X3403380Y1935594D01*
X3404212Y1933586D01*
X3404212Y1931414D01*
X3403380Y1929406D01*
X3401844Y1927870D01*
X3399836Y1927038D01*
X3397664Y1927038D01*
X3395598Y1927894D01*
X3395568Y1927902D01*
X3395540Y1927916D01*
X3395463Y1927929D01*
X3395322Y1927965D01*
X3395258Y1927963D01*
X3395209Y1927971D01*
X361046Y1927971D01*
X360960Y1927959D01*
X360872Y1927956D01*
X360820Y1927939D01*
X360765Y1927931D01*
X360685Y1927896D01*
X360602Y1927869D01*
X360563Y1927841D01*
X360505Y1927815D01*
X360392Y1927719D01*
X360329Y1927674D01*
X160626Y1727971D01*
X72291Y1727971D01*
X72260Y1727967D01*
X72229Y1727969D01*
X72153Y1727952D01*
X72009Y1727931D01*
X71951Y1727905D01*
X71902Y1727894D01*
X69836Y1727038D01*
X67664Y1727038D01*
G37*
%LPD*%
%LPC*%
G36*
X87664Y1282038D02*
X87664Y1282038D01*
X85656Y1282870D01*
X84120Y1284406D01*
X83288Y1286414D01*
X83288Y1288586D01*
X84120Y1290594D01*
X85656Y1292130D01*
X87664Y1292962D01*
X89836Y1292962D01*
X91902Y1292106D01*
X91932Y1292098D01*
X91960Y1292084D01*
X92037Y1292071D01*
X92178Y1292035D01*
X92242Y1292037D01*
X92291Y1292029D01*
X109841Y1292029D01*
X109928Y1292041D01*
X110016Y1292044D01*
X110068Y1292061D01*
X110123Y1292069D01*
X110203Y1292104D01*
X110286Y1292131D01*
X110325Y1292159D01*
X110382Y1292185D01*
X110496Y1292281D01*
X110559Y1292326D01*
X113473Y1295240D01*
X449665Y1295240D01*
X449751Y1295252D01*
X449839Y1295255D01*
X449891Y1295272D01*
X449946Y1295280D01*
X450026Y1295315D01*
X450109Y1295342D01*
X450148Y1295370D01*
X450206Y1295396D01*
X450319Y1295492D01*
X450382Y1295537D01*
X641874Y1487029D01*
X3395209Y1487029D01*
X3395240Y1487033D01*
X3395271Y1487031D01*
X3395347Y1487048D01*
X3395491Y1487069D01*
X3395549Y1487095D01*
X3395598Y1487106D01*
X3397664Y1487962D01*
X3399836Y1487962D01*
X3401844Y1487130D01*
X3403380Y1485594D01*
X3404212Y1483586D01*
X3404212Y1481414D01*
X3403380Y1479406D01*
X3401844Y1477870D01*
X3399836Y1477038D01*
X3397664Y1477038D01*
X3395598Y1477894D01*
X3395585Y1477897D01*
X3395584Y1477897D01*
X3395584Y1477898D01*
X3395568Y1477902D01*
X3395540Y1477916D01*
X3395463Y1477929D01*
X3395322Y1477965D01*
X3395258Y1477963D01*
X3395209Y1477971D01*
X646046Y1477971D01*
X645960Y1477959D01*
X645872Y1477956D01*
X645820Y1477939D01*
X645765Y1477931D01*
X645685Y1477896D01*
X645602Y1477869D01*
X645563Y1477841D01*
X645505Y1477815D01*
X645392Y1477719D01*
X645329Y1477674D01*
X453837Y1286182D01*
X117645Y1286182D01*
X117559Y1286170D01*
X117471Y1286167D01*
X117419Y1286150D01*
X117364Y1286142D01*
X117284Y1286107D01*
X117201Y1286080D01*
X117161Y1286052D01*
X117104Y1286026D01*
X116991Y1285930D01*
X116927Y1285885D01*
X114014Y1282971D01*
X92291Y1282971D01*
X92260Y1282967D01*
X92229Y1282969D01*
X92153Y1282952D01*
X92009Y1282931D01*
X91951Y1282905D01*
X91902Y1282894D01*
X89836Y1282038D01*
X87664Y1282038D01*
G37*
%LPD*%
%LPC*%
G36*
X87664Y1137038D02*
X87664Y1137038D01*
X85656Y1137870D01*
X84120Y1139406D01*
X83288Y1141414D01*
X83288Y1143586D01*
X84120Y1145594D01*
X85656Y1147130D01*
X87664Y1147962D01*
X89836Y1147962D01*
X91902Y1147106D01*
X91932Y1147098D01*
X91960Y1147084D01*
X92037Y1147071D01*
X92178Y1147035D01*
X92242Y1147037D01*
X92291Y1147029D01*
X516454Y1147029D01*
X516540Y1147041D01*
X516628Y1147044D01*
X516680Y1147061D01*
X516735Y1147069D01*
X516815Y1147104D01*
X516898Y1147131D01*
X516937Y1147159D01*
X516995Y1147185D01*
X517108Y1147281D01*
X517171Y1147326D01*
X706874Y1337029D01*
X3395209Y1337029D01*
X3395240Y1337033D01*
X3395271Y1337031D01*
X3395347Y1337048D01*
X3395491Y1337069D01*
X3395549Y1337095D01*
X3395598Y1337106D01*
X3397664Y1337962D01*
X3399836Y1337962D01*
X3401844Y1337130D01*
X3403380Y1335594D01*
X3404212Y1333586D01*
X3404212Y1331414D01*
X3403380Y1329406D01*
X3401844Y1327870D01*
X3399836Y1327038D01*
X3397664Y1327038D01*
X3395598Y1327894D01*
X3395568Y1327902D01*
X3395540Y1327916D01*
X3395463Y1327929D01*
X3395322Y1327965D01*
X3395258Y1327963D01*
X3395209Y1327971D01*
X711046Y1327971D01*
X710960Y1327959D01*
X710872Y1327956D01*
X710820Y1327939D01*
X710765Y1327931D01*
X710685Y1327896D01*
X710602Y1327869D01*
X710563Y1327841D01*
X710505Y1327815D01*
X710392Y1327719D01*
X710329Y1327674D01*
X520626Y1137971D01*
X92291Y1137971D01*
X92260Y1137967D01*
X92229Y1137969D01*
X92153Y1137952D01*
X92009Y1137931D01*
X91951Y1137905D01*
X91902Y1137894D01*
X89836Y1137038D01*
X87664Y1137038D01*
G37*
%LPD*%
%LPC*%
G36*
X92664Y519538D02*
X92664Y519538D01*
X90656Y520370D01*
X89120Y521906D01*
X88288Y523914D01*
X88288Y526086D01*
X89120Y528094D01*
X90656Y529630D01*
X92722Y530486D01*
X92749Y530502D01*
X92778Y530511D01*
X92842Y530557D01*
X92967Y530630D01*
X93011Y530677D01*
X93051Y530706D01*
X95085Y532740D01*
X757165Y532740D01*
X757251Y532752D01*
X757339Y532755D01*
X757391Y532772D01*
X757446Y532780D01*
X757526Y532815D01*
X757609Y532842D01*
X757648Y532870D01*
X757706Y532896D01*
X757819Y532992D01*
X757882Y533037D01*
X966874Y742029D01*
X3390209Y742029D01*
X3390240Y742033D01*
X3390271Y742031D01*
X3390347Y742048D01*
X3390491Y742069D01*
X3390549Y742095D01*
X3390598Y742106D01*
X3392664Y742962D01*
X3394836Y742962D01*
X3396844Y742130D01*
X3398380Y740594D01*
X3399212Y738586D01*
X3399212Y736414D01*
X3398380Y734406D01*
X3396844Y732870D01*
X3394836Y732038D01*
X3392664Y732038D01*
X3390598Y732894D01*
X3390568Y732902D01*
X3390540Y732916D01*
X3390463Y732929D01*
X3390322Y732965D01*
X3390258Y732963D01*
X3390209Y732971D01*
X971046Y732971D01*
X970960Y732959D01*
X970872Y732956D01*
X970820Y732939D01*
X970765Y732931D01*
X970685Y732896D01*
X970602Y732869D01*
X970563Y732841D01*
X970505Y732815D01*
X970392Y732719D01*
X970329Y732674D01*
X761337Y523682D01*
X99794Y523682D01*
X99793Y523682D01*
X99791Y523682D01*
X99650Y523662D01*
X99513Y523642D01*
X99511Y523642D01*
X99510Y523642D01*
X99382Y523584D01*
X99253Y523526D01*
X99252Y523525D01*
X99251Y523524D01*
X99143Y523433D01*
X99036Y523343D01*
X99035Y523341D01*
X99034Y523340D01*
X99026Y523327D01*
X98879Y523106D01*
X98870Y523077D01*
X98856Y523056D01*
X98380Y521906D01*
X96844Y520370D01*
X94836Y519538D01*
X92664Y519538D01*
G37*
%LPD*%
%LPC*%
G36*
X87514Y984538D02*
X87514Y984538D01*
X85506Y985370D01*
X83970Y986906D01*
X83138Y988914D01*
X83138Y991086D01*
X83970Y993094D01*
X85506Y994630D01*
X87514Y995462D01*
X89686Y995462D01*
X91752Y994606D01*
X91782Y994598D01*
X91810Y994584D01*
X91887Y994571D01*
X92028Y994535D01*
X92092Y994537D01*
X92141Y994529D01*
X112341Y994529D01*
X112428Y994541D01*
X112516Y994544D01*
X112568Y994561D01*
X112623Y994569D01*
X112703Y994604D01*
X112786Y994631D01*
X112825Y994659D01*
X112882Y994685D01*
X112996Y994781D01*
X113059Y994826D01*
X113473Y995240D01*
X550565Y995240D01*
X550651Y995252D01*
X550739Y995255D01*
X550791Y995272D01*
X550846Y995280D01*
X550926Y995315D01*
X551009Y995342D01*
X551048Y995370D01*
X551106Y995396D01*
X551219Y995492D01*
X551282Y995537D01*
X740774Y1185029D01*
X3393409Y1185029D01*
X3393440Y1185033D01*
X3393471Y1185031D01*
X3393547Y1185048D01*
X3393691Y1185069D01*
X3393749Y1185095D01*
X3393798Y1185106D01*
X3395864Y1185962D01*
X3398036Y1185962D01*
X3400044Y1185130D01*
X3401580Y1183594D01*
X3402412Y1181586D01*
X3402412Y1179414D01*
X3401580Y1177406D01*
X3400044Y1175870D01*
X3398036Y1175038D01*
X3395864Y1175038D01*
X3393798Y1175894D01*
X3393768Y1175902D01*
X3393740Y1175916D01*
X3393663Y1175929D01*
X3393522Y1175965D01*
X3393458Y1175963D01*
X3393409Y1175971D01*
X744946Y1175971D01*
X744860Y1175959D01*
X744772Y1175956D01*
X744720Y1175939D01*
X744665Y1175931D01*
X744585Y1175896D01*
X744502Y1175869D01*
X744463Y1175841D01*
X744405Y1175815D01*
X744292Y1175719D01*
X744229Y1175674D01*
X554737Y986182D01*
X117645Y986182D01*
X117559Y986170D01*
X117471Y986167D01*
X117419Y986150D01*
X117364Y986142D01*
X117284Y986107D01*
X117201Y986080D01*
X117161Y986052D01*
X117104Y986026D01*
X116991Y985930D01*
X116927Y985885D01*
X116514Y985471D01*
X92141Y985471D01*
X92110Y985467D01*
X92079Y985469D01*
X92003Y985452D01*
X91859Y985431D01*
X91801Y985405D01*
X91752Y985394D01*
X89686Y984538D01*
X87514Y984538D01*
G37*
%LPD*%
%LPC*%
G36*
X92664Y832038D02*
X92664Y832038D01*
X90656Y832870D01*
X89120Y834406D01*
X88288Y836414D01*
X88288Y838586D01*
X89120Y840594D01*
X90656Y842130D01*
X92664Y842962D01*
X94836Y842962D01*
X96902Y842106D01*
X96932Y842098D01*
X96960Y842084D01*
X97037Y842071D01*
X97178Y842035D01*
X97242Y842037D01*
X97291Y842029D01*
X109841Y842029D01*
X109928Y842041D01*
X110016Y842044D01*
X110068Y842061D01*
X110123Y842069D01*
X110203Y842104D01*
X110286Y842131D01*
X110325Y842159D01*
X110382Y842185D01*
X110496Y842281D01*
X110559Y842326D01*
X113473Y845240D01*
X574027Y845240D01*
X576941Y842326D01*
X577010Y842274D01*
X577074Y842214D01*
X577124Y842188D01*
X577168Y842155D01*
X577250Y842124D01*
X577327Y842084D01*
X577375Y842076D01*
X577433Y842054D01*
X577581Y842042D01*
X577659Y842029D01*
X616454Y842029D01*
X616540Y842041D01*
X616628Y842044D01*
X616680Y842061D01*
X616735Y842069D01*
X616815Y842104D01*
X616898Y842131D01*
X616937Y842159D01*
X616995Y842185D01*
X617108Y842281D01*
X617171Y842326D01*
X816874Y1042029D01*
X3390209Y1042029D01*
X3390240Y1042033D01*
X3390271Y1042031D01*
X3390347Y1042048D01*
X3390491Y1042069D01*
X3390549Y1042095D01*
X3390598Y1042106D01*
X3392664Y1042962D01*
X3394836Y1042962D01*
X3396844Y1042130D01*
X3398380Y1040594D01*
X3399212Y1038586D01*
X3399212Y1036414D01*
X3398380Y1034406D01*
X3396844Y1032870D01*
X3394836Y1032038D01*
X3392664Y1032038D01*
X3390598Y1032894D01*
X3390568Y1032902D01*
X3390540Y1032916D01*
X3390463Y1032929D01*
X3390322Y1032965D01*
X3390258Y1032963D01*
X3390209Y1032971D01*
X821046Y1032971D01*
X820960Y1032959D01*
X820872Y1032956D01*
X820820Y1032939D01*
X820765Y1032931D01*
X820685Y1032896D01*
X820602Y1032869D01*
X820563Y1032841D01*
X820505Y1032815D01*
X820392Y1032719D01*
X820329Y1032674D01*
X620626Y832971D01*
X573486Y832971D01*
X570573Y835885D01*
X570503Y835937D01*
X570439Y835997D01*
X570390Y836023D01*
X570345Y836056D01*
X570264Y836087D01*
X570186Y836127D01*
X570138Y836135D01*
X570080Y836157D01*
X569932Y836169D01*
X569855Y836182D01*
X117645Y836182D01*
X117559Y836170D01*
X117471Y836167D01*
X117419Y836150D01*
X117364Y836142D01*
X117284Y836107D01*
X117201Y836080D01*
X117161Y836052D01*
X117104Y836026D01*
X116991Y835930D01*
X116927Y835885D01*
X114014Y832971D01*
X97291Y832971D01*
X97260Y832967D01*
X97229Y832969D01*
X97153Y832952D01*
X97009Y832931D01*
X96951Y832905D01*
X96902Y832894D01*
X94836Y832038D01*
X92664Y832038D01*
G37*
%LPD*%
%LPC*%
G36*
X92664Y682038D02*
X92664Y682038D01*
X90656Y682870D01*
X89120Y684406D01*
X88288Y686414D01*
X88288Y688586D01*
X89120Y690594D01*
X90656Y692130D01*
X92664Y692962D01*
X94836Y692962D01*
X96902Y692106D01*
X96932Y692098D01*
X96960Y692084D01*
X97037Y692071D01*
X97178Y692035D01*
X97242Y692037D01*
X97291Y692029D01*
X109841Y692029D01*
X109928Y692041D01*
X110016Y692044D01*
X110068Y692061D01*
X110123Y692069D01*
X110203Y692104D01*
X110286Y692131D01*
X110325Y692159D01*
X110382Y692185D01*
X110496Y692281D01*
X110559Y692326D01*
X113473Y695240D01*
X574027Y695240D01*
X576941Y692326D01*
X577010Y692274D01*
X577074Y692214D01*
X577124Y692188D01*
X577168Y692155D01*
X577250Y692124D01*
X577327Y692084D01*
X577375Y692076D01*
X577433Y692054D01*
X577581Y692042D01*
X577659Y692029D01*
X691454Y692029D01*
X691540Y692041D01*
X691628Y692044D01*
X691680Y692061D01*
X691735Y692069D01*
X691815Y692104D01*
X691898Y692131D01*
X691937Y692159D01*
X691995Y692185D01*
X692108Y692281D01*
X692172Y692326D01*
X888924Y889078D01*
X888924Y889079D01*
X891874Y892029D01*
X3390209Y892029D01*
X3390240Y892033D01*
X3390271Y892031D01*
X3390347Y892048D01*
X3390491Y892069D01*
X3390549Y892095D01*
X3390598Y892106D01*
X3392664Y892962D01*
X3394836Y892962D01*
X3396844Y892130D01*
X3398380Y890594D01*
X3399212Y888586D01*
X3399212Y886414D01*
X3398380Y884406D01*
X3396844Y882870D01*
X3394836Y882038D01*
X3392664Y882038D01*
X3390598Y882894D01*
X3390568Y882902D01*
X3390540Y882916D01*
X3390463Y882929D01*
X3390322Y882965D01*
X3390258Y882963D01*
X3390209Y882971D01*
X896046Y882971D01*
X895960Y882959D01*
X895872Y882956D01*
X895820Y882939D01*
X895765Y882931D01*
X895685Y882896D01*
X895602Y882869D01*
X895563Y882841D01*
X895505Y882815D01*
X895392Y882719D01*
X895328Y882674D01*
X698576Y685922D01*
X698576Y685921D01*
X695626Y682971D01*
X573486Y682971D01*
X570573Y685885D01*
X570503Y685937D01*
X570439Y685997D01*
X570390Y686023D01*
X570345Y686056D01*
X570264Y686087D01*
X570186Y686127D01*
X570138Y686135D01*
X570080Y686157D01*
X569932Y686169D01*
X569855Y686182D01*
X117645Y686182D01*
X117559Y686170D01*
X117471Y686167D01*
X117419Y686150D01*
X117364Y686142D01*
X117284Y686107D01*
X117201Y686080D01*
X117161Y686052D01*
X117104Y686026D01*
X116991Y685930D01*
X116927Y685885D01*
X114014Y682971D01*
X97291Y682971D01*
X97260Y682967D01*
X97229Y682969D01*
X97153Y682952D01*
X97009Y682931D01*
X96951Y682905D01*
X96902Y682894D01*
X94836Y682038D01*
X92664Y682038D01*
G37*
%LPD*%
%LPC*%
G36*
X92664Y1432038D02*
X92664Y1432038D01*
X90656Y1432870D01*
X89120Y1434406D01*
X88288Y1436414D01*
X88288Y1438586D01*
X89120Y1440594D01*
X90656Y1442130D01*
X92664Y1442962D01*
X94836Y1442962D01*
X96902Y1442106D01*
X96932Y1442098D01*
X96960Y1442084D01*
X97037Y1442071D01*
X97178Y1442035D01*
X97242Y1442037D01*
X97291Y1442029D01*
X316454Y1442029D01*
X316540Y1442041D01*
X316628Y1442044D01*
X316680Y1442061D01*
X316735Y1442069D01*
X316815Y1442104D01*
X316898Y1442131D01*
X316937Y1442159D01*
X316995Y1442185D01*
X317108Y1442281D01*
X317172Y1442326D01*
X513924Y1639078D01*
X513924Y1639079D01*
X516874Y1642029D01*
X3390209Y1642029D01*
X3390240Y1642033D01*
X3390271Y1642031D01*
X3390347Y1642048D01*
X3390491Y1642069D01*
X3390549Y1642095D01*
X3390598Y1642106D01*
X3392664Y1642962D01*
X3394836Y1642962D01*
X3396844Y1642130D01*
X3398380Y1640594D01*
X3399212Y1638586D01*
X3399212Y1636414D01*
X3398380Y1634406D01*
X3396844Y1632870D01*
X3394836Y1632038D01*
X3392664Y1632038D01*
X3390598Y1632894D01*
X3390568Y1632902D01*
X3390540Y1632916D01*
X3390463Y1632929D01*
X3390322Y1632965D01*
X3390258Y1632963D01*
X3390209Y1632971D01*
X521046Y1632971D01*
X520960Y1632959D01*
X520872Y1632956D01*
X520820Y1632939D01*
X520765Y1632931D01*
X520685Y1632896D01*
X520602Y1632869D01*
X520563Y1632841D01*
X520505Y1632815D01*
X520392Y1632719D01*
X520328Y1632674D01*
X323576Y1435922D01*
X323576Y1435921D01*
X320626Y1432971D01*
X97291Y1432971D01*
X97260Y1432967D01*
X97229Y1432969D01*
X97153Y1432952D01*
X97009Y1432931D01*
X96951Y1432905D01*
X96902Y1432894D01*
X94836Y1432038D01*
X92664Y1432038D01*
G37*
%LPD*%
%LPC*%
G36*
X87664Y392038D02*
X87664Y392038D01*
X85656Y392870D01*
X84120Y394406D01*
X83288Y396414D01*
X83288Y398586D01*
X84120Y400594D01*
X85656Y402130D01*
X87664Y402962D01*
X89836Y402962D01*
X91902Y402106D01*
X91932Y402098D01*
X91960Y402084D01*
X92037Y402071D01*
X92178Y402035D01*
X92242Y402037D01*
X92291Y402029D01*
X821454Y402029D01*
X821540Y402041D01*
X821628Y402044D01*
X821680Y402061D01*
X821735Y402069D01*
X821815Y402104D01*
X821898Y402131D01*
X821937Y402159D01*
X821995Y402185D01*
X822108Y402281D01*
X822171Y402326D01*
X1016874Y597029D01*
X3385209Y597029D01*
X3385240Y597033D01*
X3385271Y597031D01*
X3385347Y597048D01*
X3385491Y597069D01*
X3385549Y597095D01*
X3385598Y597106D01*
X3387664Y597962D01*
X3389836Y597962D01*
X3391844Y597130D01*
X3393380Y595594D01*
X3394212Y593586D01*
X3394212Y591414D01*
X3393380Y589406D01*
X3391844Y587870D01*
X3389836Y587038D01*
X3387664Y587038D01*
X3385598Y587894D01*
X3385568Y587902D01*
X3385540Y587916D01*
X3385463Y587929D01*
X3385322Y587965D01*
X3385258Y587963D01*
X3385209Y587971D01*
X1021046Y587971D01*
X1020960Y587959D01*
X1020872Y587956D01*
X1020820Y587939D01*
X1020765Y587931D01*
X1020685Y587896D01*
X1020602Y587869D01*
X1020563Y587841D01*
X1020505Y587815D01*
X1020392Y587719D01*
X1020329Y587674D01*
X825626Y392971D01*
X92291Y392971D01*
X92260Y392967D01*
X92229Y392969D01*
X92153Y392952D01*
X92009Y392931D01*
X91951Y392905D01*
X91902Y392894D01*
X89836Y392038D01*
X87664Y392038D01*
G37*
%LPD*%
%LPC*%
G36*
X92664Y1882038D02*
X92664Y1882038D01*
X90656Y1882870D01*
X89120Y1884406D01*
X88288Y1886414D01*
X88288Y1888586D01*
X89120Y1890594D01*
X90656Y1892130D01*
X92722Y1892986D01*
X92749Y1893002D01*
X92778Y1893011D01*
X92842Y1893057D01*
X92967Y1893130D01*
X93011Y1893177D01*
X93051Y1893206D01*
X258924Y2059079D01*
X261874Y2062029D01*
X3261454Y2062029D01*
X3261540Y2062041D01*
X3261628Y2062044D01*
X3261680Y2062061D01*
X3261735Y2062069D01*
X3261815Y2062104D01*
X3261898Y2062131D01*
X3261937Y2062159D01*
X3261995Y2062185D01*
X3262108Y2062281D01*
X3262171Y2062326D01*
X3288044Y2088199D01*
X3288062Y2088223D01*
X3288086Y2088243D01*
X3288128Y2088310D01*
X3288215Y2088426D01*
X3288238Y2088486D01*
X3288264Y2088528D01*
X3289120Y2090594D01*
X3290656Y2092130D01*
X3292664Y2092962D01*
X3294836Y2092962D01*
X3296844Y2092130D01*
X3298380Y2090594D01*
X3299212Y2088586D01*
X3299212Y2086414D01*
X3298380Y2084406D01*
X3296844Y2082870D01*
X3294778Y2082014D01*
X3294751Y2081998D01*
X3294722Y2081989D01*
X3294658Y2081943D01*
X3294533Y2081870D01*
X3294489Y2081823D01*
X3294449Y2081794D01*
X3268576Y2055921D01*
X3265626Y2052971D01*
X266046Y2052971D01*
X265960Y2052959D01*
X265872Y2052956D01*
X265820Y2052939D01*
X265765Y2052931D01*
X265685Y2052896D01*
X265602Y2052869D01*
X265563Y2052841D01*
X265505Y2052815D01*
X265392Y2052719D01*
X265329Y2052674D01*
X99456Y1886801D01*
X99438Y1886778D01*
X99416Y1886759D01*
X99415Y1886758D01*
X99414Y1886757D01*
X99406Y1886744D01*
X99353Y1886665D01*
X99285Y1886574D01*
X99275Y1886547D01*
X99258Y1886522D01*
X99249Y1886493D01*
X99236Y1886472D01*
X98380Y1884406D01*
X96844Y1882870D01*
X94836Y1882038D01*
X92664Y1882038D01*
G37*
%LPD*%
%LPC*%
G36*
X638776Y91038D02*
X638776Y91038D01*
X636768Y91870D01*
X635232Y93406D01*
X634400Y95414D01*
X634400Y97586D01*
X635232Y99594D01*
X636768Y101130D01*
X638776Y101962D01*
X640949Y101962D01*
X643014Y101106D01*
X643044Y101098D01*
X643072Y101084D01*
X643149Y101071D01*
X643290Y101035D01*
X643354Y101037D01*
X643403Y101029D01*
X1225454Y101029D01*
X1225540Y101041D01*
X1225628Y101044D01*
X1225680Y101061D01*
X1225735Y101069D01*
X1225815Y101104D01*
X1225898Y101131D01*
X1225937Y101159D01*
X1225995Y101185D01*
X1226108Y101281D01*
X1226171Y101326D01*
X1416874Y292029D01*
X3390209Y292029D01*
X3390240Y292033D01*
X3390271Y292031D01*
X3390347Y292048D01*
X3390491Y292069D01*
X3390549Y292095D01*
X3390598Y292106D01*
X3392664Y292962D01*
X3394836Y292962D01*
X3396844Y292130D01*
X3398380Y290594D01*
X3399212Y288586D01*
X3399212Y286414D01*
X3398380Y284406D01*
X3396844Y282870D01*
X3394836Y282038D01*
X3392664Y282038D01*
X3390598Y282894D01*
X3390568Y282902D01*
X3390540Y282916D01*
X3390463Y282929D01*
X3390322Y282965D01*
X3390258Y282963D01*
X3390209Y282971D01*
X1421046Y282971D01*
X1420960Y282959D01*
X1420872Y282956D01*
X1420820Y282939D01*
X1420765Y282931D01*
X1420685Y282896D01*
X1420602Y282869D01*
X1420563Y282841D01*
X1420505Y282815D01*
X1420392Y282719D01*
X1420329Y282674D01*
X1229626Y91971D01*
X643403Y91971D01*
X643372Y91967D01*
X643342Y91969D01*
X643265Y91952D01*
X643121Y91931D01*
X643063Y91905D01*
X643014Y91894D01*
X640949Y91038D01*
X638776Y91038D01*
G37*
%LPD*%
%LPC*%
G36*
X303842Y142205D02*
X303842Y142205D01*
X301908Y144140D01*
X266807Y179241D01*
X266737Y179293D01*
X266673Y179353D01*
X266624Y179379D01*
X266580Y179412D01*
X266498Y179443D01*
X266420Y179483D01*
X266372Y179491D01*
X266314Y179513D01*
X266166Y179525D01*
X266089Y179538D01*
X263914Y179538D01*
X261906Y180370D01*
X260368Y181908D01*
X260298Y181960D01*
X260234Y182020D01*
X260185Y182046D01*
X260141Y182079D01*
X260059Y182110D01*
X259981Y182150D01*
X259934Y182158D01*
X259875Y182180D01*
X259727Y182192D01*
X259650Y182205D01*
X177342Y182205D01*
X169343Y190204D01*
X169273Y190257D01*
X169210Y190317D01*
X169160Y190342D01*
X169116Y190375D01*
X169034Y190406D01*
X168956Y190446D01*
X168909Y190454D01*
X168850Y190477D01*
X168703Y190489D01*
X168625Y190502D01*
X166450Y190502D01*
X164443Y191333D01*
X162906Y192870D01*
X162075Y194877D01*
X162075Y197052D01*
X162063Y197139D01*
X162060Y197226D01*
X162043Y197279D01*
X162035Y197334D01*
X161999Y197414D01*
X161972Y197497D01*
X161944Y197536D01*
X161919Y197593D01*
X161823Y197707D01*
X161777Y197770D01*
X152640Y206908D01*
X152570Y206960D01*
X152506Y207020D01*
X152457Y207046D01*
X152413Y207079D01*
X152331Y207110D01*
X152253Y207150D01*
X152205Y207158D01*
X152147Y207180D01*
X151999Y207192D01*
X151922Y207205D01*
X122350Y207205D01*
X122263Y207193D01*
X122176Y207190D01*
X122123Y207173D01*
X122068Y207165D01*
X121989Y207130D01*
X121905Y207103D01*
X121866Y207075D01*
X121809Y207049D01*
X121696Y206953D01*
X121632Y206908D01*
X120094Y205370D01*
X118086Y204538D01*
X115914Y204538D01*
X113906Y205370D01*
X112370Y206906D01*
X111538Y208914D01*
X111538Y211086D01*
X112370Y213094D01*
X113906Y214630D01*
X115914Y215462D01*
X118086Y215462D01*
X120094Y214630D01*
X121632Y213092D01*
X121702Y213040D01*
X121766Y212980D01*
X121815Y212954D01*
X121859Y212921D01*
X121941Y212890D01*
X122019Y212850D01*
X122066Y212842D01*
X122125Y212820D01*
X122273Y212808D01*
X122350Y212795D01*
X154658Y212795D01*
X165730Y201723D01*
X165800Y201670D01*
X165863Y201610D01*
X165913Y201585D01*
X165957Y201552D01*
X166039Y201521D01*
X166117Y201481D01*
X166164Y201473D01*
X166223Y201450D01*
X166370Y201438D01*
X166448Y201425D01*
X168623Y201425D01*
X170630Y200594D01*
X172167Y199057D01*
X172998Y197050D01*
X172998Y194875D01*
X173010Y194788D01*
X173013Y194701D01*
X173030Y194648D01*
X173038Y194593D01*
X173074Y194513D01*
X173101Y194430D01*
X173129Y194391D01*
X173154Y194334D01*
X173250Y194220D01*
X173296Y194157D01*
X179360Y188092D01*
X179430Y188040D01*
X179494Y187980D01*
X179543Y187954D01*
X179587Y187921D01*
X179669Y187890D01*
X179747Y187850D01*
X179795Y187842D01*
X179853Y187820D01*
X180001Y187808D01*
X180078Y187795D01*
X259650Y187795D01*
X259737Y187807D01*
X259824Y187810D01*
X259877Y187827D01*
X259932Y187835D01*
X260011Y187870D01*
X260095Y187897D01*
X260134Y187925D01*
X260191Y187951D01*
X260304Y188047D01*
X260368Y188092D01*
X261906Y189630D01*
X263914Y190462D01*
X266086Y190462D01*
X268094Y189630D01*
X269630Y188094D01*
X270462Y186086D01*
X270462Y183911D01*
X270474Y183825D01*
X270477Y183737D01*
X270494Y183684D01*
X270502Y183630D01*
X270537Y183550D01*
X270564Y183467D01*
X270592Y183427D01*
X270618Y183370D01*
X270714Y183257D01*
X270759Y183193D01*
X305860Y148092D01*
X305930Y148040D01*
X305994Y147980D01*
X306043Y147954D01*
X306087Y147921D01*
X306169Y147890D01*
X306247Y147850D01*
X306295Y147842D01*
X306353Y147820D01*
X306501Y147808D01*
X306578Y147795D01*
X468422Y147795D01*
X468508Y147807D01*
X468596Y147810D01*
X468649Y147827D01*
X468703Y147835D01*
X468783Y147870D01*
X468866Y147897D01*
X468906Y147925D01*
X468963Y147951D01*
X469076Y148047D01*
X469140Y148092D01*
X486908Y165860D01*
X486960Y165930D01*
X487020Y165994D01*
X487046Y166043D01*
X487079Y166087D01*
X487110Y166169D01*
X487150Y166247D01*
X487158Y166295D01*
X487180Y166353D01*
X487192Y166501D01*
X487205Y166578D01*
X487205Y184650D01*
X487193Y184737D01*
X487190Y184824D01*
X487173Y184877D01*
X487165Y184932D01*
X487130Y185011D01*
X487103Y185095D01*
X487075Y185134D01*
X487049Y185191D01*
X486953Y185304D01*
X486908Y185368D01*
X485370Y186906D01*
X484538Y188914D01*
X484538Y191086D01*
X485370Y193094D01*
X486906Y194630D01*
X488914Y195462D01*
X491086Y195462D01*
X493094Y194630D01*
X494630Y193094D01*
X495462Y191086D01*
X495462Y188914D01*
X494630Y186906D01*
X493092Y185368D01*
X493040Y185298D01*
X492980Y185234D01*
X492954Y185185D01*
X492921Y185141D01*
X492890Y185059D01*
X492850Y184981D01*
X492842Y184934D01*
X492820Y184875D01*
X492808Y184727D01*
X492795Y184650D01*
X492795Y163842D01*
X471158Y142205D01*
X303842Y142205D01*
G37*
%LPD*%
%LPC*%
G36*
X360714Y91688D02*
X360714Y91688D01*
X358706Y92520D01*
X357168Y94058D01*
X357098Y94110D01*
X357034Y94170D01*
X356985Y94196D01*
X356941Y94229D01*
X356859Y94260D01*
X356781Y94300D01*
X356734Y94308D01*
X356675Y94330D01*
X356527Y94342D01*
X356450Y94355D01*
X265692Y94355D01*
X241640Y118408D01*
X241570Y118460D01*
X241506Y118520D01*
X241457Y118546D01*
X241413Y118579D01*
X241331Y118610D01*
X241253Y118650D01*
X241205Y118658D01*
X241147Y118680D01*
X240999Y118692D01*
X240922Y118705D01*
X217342Y118705D01*
X204140Y131908D01*
X204070Y131960D01*
X204006Y132020D01*
X203957Y132046D01*
X203913Y132079D01*
X203831Y132110D01*
X203753Y132150D01*
X203705Y132158D01*
X203647Y132180D01*
X203499Y132192D01*
X203422Y132205D01*
X195350Y132205D01*
X195263Y132193D01*
X195176Y132190D01*
X195123Y132173D01*
X195068Y132165D01*
X194989Y132130D01*
X194905Y132103D01*
X194866Y132075D01*
X194809Y132049D01*
X194696Y131953D01*
X194632Y131908D01*
X193094Y130370D01*
X191086Y129538D01*
X188914Y129538D01*
X186906Y130370D01*
X185370Y131906D01*
X184538Y133914D01*
X184538Y136086D01*
X185370Y138094D01*
X186906Y139630D01*
X188914Y140462D01*
X189978Y140462D01*
X190036Y140470D01*
X190094Y140468D01*
X190176Y140490D01*
X190259Y140502D01*
X190313Y140525D01*
X190369Y140540D01*
X190441Y140583D01*
X190519Y140618D01*
X190563Y140656D01*
X190613Y140685D01*
X190671Y140747D01*
X190736Y140801D01*
X190768Y140850D01*
X190808Y140893D01*
X190846Y140968D01*
X190893Y141038D01*
X190911Y141094D01*
X190937Y141146D01*
X190949Y141214D01*
X190979Y141309D01*
X190981Y141409D01*
X190993Y141477D01*
X190993Y142563D01*
X191824Y144571D01*
X193361Y146107D01*
X195368Y146939D01*
X197541Y146939D01*
X199548Y146107D01*
X201087Y144569D01*
X201156Y144517D01*
X201220Y144457D01*
X201270Y144431D01*
X201314Y144398D01*
X201396Y144367D01*
X201473Y144327D01*
X201521Y144319D01*
X201579Y144297D01*
X201727Y144285D01*
X201804Y144272D01*
X209681Y144272D01*
X225550Y128402D01*
X225620Y128350D01*
X225684Y128290D01*
X225733Y128264D01*
X225777Y128231D01*
X225859Y128200D01*
X225937Y128160D01*
X225985Y128152D01*
X226043Y128130D01*
X226191Y128118D01*
X226268Y128105D01*
X245848Y128105D01*
X266660Y107292D01*
X266730Y107240D01*
X266794Y107180D01*
X266843Y107154D01*
X266887Y107121D01*
X266969Y107090D01*
X267047Y107050D01*
X267095Y107042D01*
X267153Y107020D01*
X267301Y107008D01*
X267378Y106995D01*
X349050Y106995D01*
X349137Y107007D01*
X349224Y107010D01*
X349277Y107027D01*
X349332Y107035D01*
X349411Y107070D01*
X349495Y107097D01*
X349534Y107125D01*
X349591Y107151D01*
X349704Y107247D01*
X349768Y107292D01*
X351306Y108830D01*
X353314Y109662D01*
X355486Y109662D01*
X357494Y108830D01*
X359030Y107294D01*
X359862Y105286D01*
X359862Y103627D01*
X359870Y103569D01*
X359868Y103511D01*
X359890Y103429D01*
X359902Y103345D01*
X359925Y103292D01*
X359940Y103236D01*
X359983Y103163D01*
X360018Y103086D01*
X360056Y103041D01*
X360085Y102991D01*
X360147Y102933D01*
X360201Y102869D01*
X360250Y102837D01*
X360293Y102797D01*
X360368Y102758D01*
X360438Y102711D01*
X360494Y102694D01*
X360546Y102667D01*
X360614Y102656D01*
X360709Y102626D01*
X360809Y102623D01*
X360877Y102612D01*
X362886Y102612D01*
X364894Y101780D01*
X366430Y100244D01*
X367262Y98236D01*
X367262Y96064D01*
X366430Y94056D01*
X364894Y92520D01*
X362886Y91688D01*
X360714Y91688D01*
G37*
%LPD*%
%LPC*%
G36*
X213394Y53588D02*
X213394Y53588D01*
X211386Y54420D01*
X209850Y55956D01*
X209018Y57964D01*
X209018Y60136D01*
X209255Y60707D01*
X209255Y60708D01*
X209256Y60710D01*
X209289Y60841D01*
X209325Y60982D01*
X209325Y60984D01*
X209326Y60985D01*
X209321Y61126D01*
X209317Y61266D01*
X209317Y61268D01*
X209317Y61269D01*
X209273Y61405D01*
X209231Y61537D01*
X209230Y61538D01*
X209229Y61540D01*
X209220Y61552D01*
X209072Y61773D01*
X209049Y61793D01*
X209034Y61813D01*
X206605Y64242D01*
X206605Y91452D01*
X206593Y91538D01*
X206590Y91626D01*
X206573Y91679D01*
X206565Y91733D01*
X206530Y91813D01*
X206503Y91896D01*
X206475Y91936D01*
X206449Y91993D01*
X206353Y92106D01*
X206308Y92170D01*
X168020Y130458D01*
X168019Y130459D01*
X168018Y130460D01*
X167937Y130521D01*
X167925Y130531D01*
X167916Y130536D01*
X167903Y130546D01*
X167793Y130628D01*
X167791Y130629D01*
X167790Y130630D01*
X167657Y130680D01*
X167527Y130730D01*
X167526Y130730D01*
X167524Y130730D01*
X167380Y130742D01*
X167244Y130753D01*
X167242Y130753D01*
X167241Y130753D01*
X167225Y130750D01*
X166965Y130697D01*
X166938Y130683D01*
X166914Y130678D01*
X164766Y129788D01*
X162594Y129788D01*
X160586Y130620D01*
X159050Y132156D01*
X158218Y134164D01*
X158218Y136336D01*
X159050Y138344D01*
X160586Y139880D01*
X162594Y140712D01*
X164766Y140712D01*
X166774Y139880D01*
X168310Y138344D01*
X168425Y138067D01*
X168441Y138040D01*
X168450Y138011D01*
X168496Y137947D01*
X168570Y137822D01*
X168616Y137777D01*
X168645Y137737D01*
X210260Y96122D01*
X212195Y94188D01*
X212195Y66978D01*
X212207Y66892D01*
X212210Y66804D01*
X212227Y66751D01*
X212235Y66697D01*
X212270Y66617D01*
X212297Y66534D01*
X212325Y66494D01*
X212351Y66437D01*
X212447Y66324D01*
X212492Y66260D01*
X213943Y64809D01*
X214013Y64757D01*
X214077Y64697D01*
X214126Y64671D01*
X214170Y64638D01*
X214252Y64607D01*
X214330Y64567D01*
X214378Y64559D01*
X214436Y64537D01*
X214584Y64525D01*
X214661Y64512D01*
X215569Y64512D01*
X215655Y64524D01*
X215743Y64527D01*
X215796Y64544D01*
X215850Y64552D01*
X215930Y64587D01*
X216013Y64614D01*
X216053Y64642D01*
X216110Y64668D01*
X216223Y64764D01*
X216287Y64809D01*
X222383Y70905D01*
X222400Y70929D01*
X222423Y70948D01*
X222486Y71042D01*
X222554Y71132D01*
X222564Y71160D01*
X222580Y71184D01*
X222615Y71292D01*
X222655Y71398D01*
X222657Y71427D01*
X222666Y71455D01*
X222669Y71569D01*
X222678Y71681D01*
X222673Y71710D01*
X222673Y71739D01*
X222645Y71849D01*
X222623Y71960D01*
X222609Y71986D01*
X222602Y72014D01*
X222544Y72112D01*
X222492Y72212D01*
X222471Y72234D01*
X222456Y72259D01*
X222374Y72336D01*
X222296Y72418D01*
X222270Y72433D01*
X222249Y72453D01*
X222148Y72505D01*
X222051Y72562D01*
X222022Y72569D01*
X221996Y72583D01*
X221919Y72596D01*
X221775Y72632D01*
X221713Y72630D01*
X221665Y72638D01*
X219744Y72638D01*
X217736Y73470D01*
X216200Y75006D01*
X215368Y77014D01*
X215368Y79186D01*
X216200Y81194D01*
X217738Y82732D01*
X217790Y82802D01*
X217850Y82866D01*
X217876Y82915D01*
X217909Y82959D01*
X217940Y83041D01*
X217980Y83119D01*
X217988Y83166D01*
X218010Y83225D01*
X218022Y83373D01*
X218035Y83450D01*
X218035Y95152D01*
X218023Y95238D01*
X218020Y95326D01*
X218003Y95379D01*
X217995Y95433D01*
X217960Y95513D01*
X217933Y95596D01*
X217905Y95636D01*
X217879Y95693D01*
X217800Y95787D01*
X217781Y95818D01*
X217762Y95836D01*
X217738Y95870D01*
X209517Y104091D01*
X209447Y104143D01*
X209383Y104203D01*
X209334Y104229D01*
X209290Y104262D01*
X209208Y104293D01*
X209130Y104333D01*
X209082Y104341D01*
X209024Y104363D01*
X208876Y104375D01*
X208799Y104388D01*
X206624Y104388D01*
X204616Y105220D01*
X203080Y106756D01*
X202248Y108764D01*
X202248Y110936D01*
X203080Y112944D01*
X204616Y114480D01*
X206624Y115312D01*
X208796Y115312D01*
X210804Y114480D01*
X212340Y112944D01*
X213172Y110936D01*
X213172Y108761D01*
X213184Y108675D01*
X213187Y108587D01*
X213204Y108534D01*
X213212Y108480D01*
X213247Y108400D01*
X213274Y108317D01*
X213302Y108277D01*
X213328Y108220D01*
X213424Y108107D01*
X213469Y108043D01*
X223625Y97888D01*
X223625Y83450D01*
X223637Y83363D01*
X223640Y83276D01*
X223657Y83223D01*
X223665Y83168D01*
X223700Y83089D01*
X223727Y83005D01*
X223755Y82966D01*
X223781Y82909D01*
X223877Y82796D01*
X223922Y82732D01*
X225460Y81194D01*
X226292Y79186D01*
X226292Y77265D01*
X226296Y77236D01*
X226293Y77207D01*
X226316Y77096D01*
X226332Y76984D01*
X226344Y76957D01*
X226349Y76928D01*
X226401Y76828D01*
X226448Y76724D01*
X226467Y76702D01*
X226480Y76676D01*
X226558Y76594D01*
X226631Y76507D01*
X226656Y76491D01*
X226676Y76470D01*
X226774Y76412D01*
X226868Y76350D01*
X226896Y76341D01*
X226921Y76326D01*
X227031Y76298D01*
X227139Y76264D01*
X227169Y76263D01*
X227197Y76256D01*
X227310Y76259D01*
X227423Y76257D01*
X227452Y76264D01*
X227481Y76265D01*
X227589Y76300D01*
X227698Y76328D01*
X227724Y76343D01*
X227752Y76352D01*
X227815Y76398D01*
X227943Y76474D01*
X227986Y76519D01*
X228025Y76547D01*
X244563Y93085D01*
X244615Y93155D01*
X244675Y93219D01*
X244700Y93268D01*
X244734Y93312D01*
X244765Y93394D01*
X244805Y93472D01*
X244813Y93520D01*
X244835Y93578D01*
X244847Y93726D01*
X244860Y93803D01*
X244860Y94144D01*
X245692Y96152D01*
X247228Y97688D01*
X249236Y98520D01*
X251408Y98520D01*
X253416Y97688D01*
X254952Y96152D01*
X255784Y94144D01*
X255784Y91972D01*
X254952Y89964D01*
X253416Y88428D01*
X251408Y87596D01*
X249236Y87596D01*
X248266Y87998D01*
X248265Y87998D01*
X248264Y87999D01*
X248130Y88033D01*
X247991Y88069D01*
X247990Y88069D01*
X247988Y88069D01*
X247847Y88065D01*
X247707Y88061D01*
X247705Y88060D01*
X247704Y88060D01*
X247571Y88017D01*
X247436Y87974D01*
X247435Y87973D01*
X247433Y87973D01*
X247421Y87964D01*
X247200Y87816D01*
X247180Y87792D01*
X247160Y87778D01*
X220239Y60857D01*
X220187Y60787D01*
X220127Y60723D01*
X220101Y60674D01*
X220068Y60630D01*
X220037Y60548D01*
X219997Y60470D01*
X219989Y60422D01*
X219967Y60364D01*
X219955Y60216D01*
X219942Y60139D01*
X219942Y57964D01*
X219110Y55956D01*
X217574Y54420D01*
X215566Y53588D01*
X213394Y53588D01*
G37*
%LPD*%
%LPC*%
G36*
X3426086Y2080321D02*
X3426086Y2080321D01*
X3418853Y2083317D01*
X3413317Y2088853D01*
X3410321Y2096086D01*
X3410321Y2103914D01*
X3413317Y2111147D01*
X3418853Y2116683D01*
X3426086Y2119679D01*
X3433914Y2119679D01*
X3441147Y2116683D01*
X3446683Y2111147D01*
X3449679Y2103914D01*
X3449679Y2096086D01*
X3446683Y2088853D01*
X3441147Y2083317D01*
X3433914Y2080321D01*
X3426086Y2080321D01*
G37*
%LPD*%
%LPC*%
G36*
X1926086Y2080321D02*
X1926086Y2080321D01*
X1918853Y2083317D01*
X1913317Y2088853D01*
X1910321Y2096086D01*
X1910321Y2103914D01*
X1913317Y2111147D01*
X1918853Y2116683D01*
X1926086Y2119679D01*
X1933914Y2119679D01*
X1941147Y2116683D01*
X1946683Y2111147D01*
X1949679Y2103914D01*
X1949679Y2096086D01*
X1946683Y2088853D01*
X1941147Y2083317D01*
X1933914Y2080321D01*
X1926086Y2080321D01*
G37*
%LPD*%
%LPC*%
G36*
X71086Y55321D02*
X71086Y55321D01*
X63853Y58317D01*
X58317Y63853D01*
X55321Y71086D01*
X55321Y78914D01*
X58317Y86147D01*
X63853Y91683D01*
X71086Y94679D01*
X78914Y94679D01*
X86147Y91683D01*
X91683Y86147D01*
X94679Y78914D01*
X94679Y71086D01*
X91683Y63853D01*
X86147Y58317D01*
X78914Y55321D01*
X71086Y55321D01*
G37*
%LPD*%
%LPC*%
G36*
X71086Y2080321D02*
X71086Y2080321D01*
X63853Y2083317D01*
X58317Y2088853D01*
X55321Y2096086D01*
X55321Y2103914D01*
X58317Y2111147D01*
X63853Y2116683D01*
X71086Y2119679D01*
X78914Y2119679D01*
X86147Y2116683D01*
X91683Y2111147D01*
X94679Y2103914D01*
X94679Y2096086D01*
X91683Y2088853D01*
X86147Y2083317D01*
X78914Y2080321D01*
X71086Y2080321D01*
G37*
%LPD*%
%LPC*%
G36*
X1571086Y55321D02*
X1571086Y55321D01*
X1563853Y58317D01*
X1558317Y63853D01*
X1555321Y71086D01*
X1555321Y78914D01*
X1558317Y86147D01*
X1563853Y91683D01*
X1571086Y94679D01*
X1578914Y94679D01*
X1586147Y91683D01*
X1591683Y86147D01*
X1594679Y78914D01*
X1594679Y71086D01*
X1591683Y63853D01*
X1586147Y58317D01*
X1578914Y55321D01*
X1571086Y55321D01*
G37*
%LPD*%
%LPC*%
G36*
X307214Y174111D02*
X307214Y174111D01*
X305206Y174943D01*
X303670Y176479D01*
X302838Y178487D01*
X302838Y180659D01*
X303670Y182667D01*
X305206Y184203D01*
X307214Y185035D01*
X309386Y185035D01*
X311394Y184203D01*
X312932Y182665D01*
X313002Y182613D01*
X313066Y182553D01*
X313115Y182527D01*
X313159Y182494D01*
X313241Y182463D01*
X313319Y182423D01*
X313366Y182415D01*
X313425Y182393D01*
X313573Y182381D01*
X313650Y182368D01*
X445058Y182368D01*
X445144Y182380D01*
X445232Y182383D01*
X445285Y182400D01*
X445339Y182408D01*
X445419Y182443D01*
X445502Y182470D01*
X445542Y182498D01*
X445599Y182524D01*
X445712Y182620D01*
X445776Y182665D01*
X471611Y208500D01*
X471663Y208570D01*
X471723Y208634D01*
X471749Y208683D01*
X471782Y208727D01*
X471813Y208809D01*
X471853Y208887D01*
X471861Y208935D01*
X471883Y208993D01*
X471895Y209141D01*
X471908Y209218D01*
X471908Y211393D01*
X472740Y213401D01*
X474276Y214937D01*
X476284Y215769D01*
X478456Y215769D01*
X480464Y214937D01*
X482000Y213401D01*
X482832Y211393D01*
X482832Y209221D01*
X482000Y207213D01*
X480464Y205677D01*
X478456Y204845D01*
X476281Y204845D01*
X476195Y204833D01*
X476107Y204830D01*
X476054Y204813D01*
X476000Y204805D01*
X475920Y204770D01*
X475837Y204743D01*
X475797Y204715D01*
X475740Y204689D01*
X475627Y204593D01*
X475563Y204548D01*
X447794Y176778D01*
X313650Y176778D01*
X313563Y176766D01*
X313476Y176763D01*
X313423Y176746D01*
X313368Y176738D01*
X313289Y176703D01*
X313205Y176676D01*
X313166Y176648D01*
X313109Y176622D01*
X312996Y176526D01*
X312932Y176481D01*
X311394Y174943D01*
X309386Y174111D01*
X307214Y174111D01*
G37*
%LPD*%
%LPC*%
G36*
X132042Y49905D02*
X132042Y49905D01*
X127985Y53962D01*
X127985Y62630D01*
X127973Y62717D01*
X127970Y62804D01*
X127953Y62857D01*
X127945Y62912D01*
X127910Y62991D01*
X127883Y63075D01*
X127855Y63114D01*
X127829Y63171D01*
X127733Y63284D01*
X127688Y63348D01*
X126150Y64886D01*
X125318Y66894D01*
X125318Y69066D01*
X126150Y71074D01*
X127686Y72610D01*
X129694Y73442D01*
X131866Y73442D01*
X133874Y72610D01*
X135410Y71074D01*
X136242Y69066D01*
X136242Y66894D01*
X135410Y64886D01*
X133872Y63348D01*
X133820Y63278D01*
X133760Y63214D01*
X133734Y63165D01*
X133701Y63121D01*
X133670Y63039D01*
X133630Y62961D01*
X133622Y62914D01*
X133600Y62855D01*
X133588Y62707D01*
X133575Y62630D01*
X133575Y56698D01*
X133587Y56612D01*
X133590Y56524D01*
X133607Y56471D01*
X133615Y56417D01*
X133650Y56337D01*
X133677Y56254D01*
X133705Y56214D01*
X133731Y56157D01*
X133827Y56044D01*
X133872Y55980D01*
X134060Y55792D01*
X134130Y55740D01*
X134194Y55680D01*
X134243Y55654D01*
X134287Y55621D01*
X134369Y55590D01*
X134447Y55550D01*
X134495Y55542D01*
X134553Y55520D01*
X134701Y55508D01*
X134778Y55495D01*
X182422Y55495D01*
X182508Y55507D01*
X182596Y55510D01*
X182649Y55527D01*
X182703Y55535D01*
X182783Y55570D01*
X182866Y55597D01*
X182906Y55625D01*
X182963Y55651D01*
X183076Y55747D01*
X183140Y55792D01*
X193608Y66260D01*
X193660Y66330D01*
X193720Y66394D01*
X193746Y66443D01*
X193779Y66487D01*
X193810Y66569D01*
X193850Y66647D01*
X193858Y66695D01*
X193880Y66753D01*
X193892Y66901D01*
X193905Y66978D01*
X193905Y72750D01*
X193893Y72837D01*
X193890Y72924D01*
X193873Y72977D01*
X193865Y73032D01*
X193830Y73111D01*
X193803Y73195D01*
X193775Y73234D01*
X193749Y73291D01*
X193653Y73404D01*
X193608Y73468D01*
X192070Y75006D01*
X191238Y77014D01*
X191238Y79186D01*
X192070Y81194D01*
X193606Y82730D01*
X195614Y83562D01*
X197786Y83562D01*
X199794Y82730D01*
X201330Y81194D01*
X202162Y79186D01*
X202162Y77014D01*
X201330Y75006D01*
X199792Y73468D01*
X199740Y73398D01*
X199680Y73334D01*
X199654Y73285D01*
X199621Y73241D01*
X199590Y73159D01*
X199550Y73081D01*
X199542Y73034D01*
X199520Y72975D01*
X199508Y72827D01*
X199495Y72750D01*
X199495Y64242D01*
X185158Y49905D01*
X132042Y49905D01*
G37*
%LPD*%
%LPC*%
G36*
X422414Y297538D02*
X422414Y297538D01*
X420406Y298370D01*
X418870Y299906D01*
X418038Y301914D01*
X418038Y304086D01*
X418870Y306094D01*
X420406Y307630D01*
X422414Y308462D01*
X423589Y308462D01*
X423675Y308474D01*
X423763Y308477D01*
X423816Y308494D01*
X423870Y308502D01*
X423950Y308537D01*
X424033Y308564D01*
X424073Y308592D01*
X424130Y308618D01*
X424243Y308714D01*
X424307Y308759D01*
X461741Y346193D01*
X461793Y346263D01*
X461853Y346327D01*
X461879Y346376D01*
X461912Y346420D01*
X461943Y346502D01*
X461983Y346580D01*
X461991Y346628D01*
X462013Y346686D01*
X462021Y346788D01*
X462024Y346797D01*
X462025Y346833D01*
X462025Y346834D01*
X462038Y346911D01*
X462038Y349086D01*
X462870Y351094D01*
X464406Y352630D01*
X466414Y353462D01*
X468586Y353462D01*
X470594Y352630D01*
X472130Y351094D01*
X472962Y349086D01*
X472962Y346914D01*
X472130Y344906D01*
X470594Y343370D01*
X468586Y342538D01*
X466411Y342538D01*
X466325Y342526D01*
X466237Y342523D01*
X466184Y342506D01*
X466130Y342498D01*
X466050Y342463D01*
X465967Y342436D01*
X465927Y342408D01*
X465870Y342382D01*
X465757Y342286D01*
X465693Y342241D01*
X429025Y305572D01*
X429024Y305571D01*
X429022Y305570D01*
X428936Y305454D01*
X428854Y305345D01*
X428853Y305344D01*
X428852Y305342D01*
X428802Y305210D01*
X428753Y305079D01*
X428752Y305078D01*
X428752Y305076D01*
X428741Y304937D01*
X428729Y304796D01*
X428729Y304795D01*
X428729Y304793D01*
X428733Y304778D01*
X428785Y304517D01*
X428799Y304490D01*
X428805Y304466D01*
X428962Y304086D01*
X428962Y301914D01*
X428130Y299906D01*
X426594Y298370D01*
X424586Y297538D01*
X422414Y297538D01*
G37*
%LPD*%
%LPC*%
G36*
X448314Y297188D02*
X448314Y297188D01*
X446306Y298020D01*
X444770Y299556D01*
X443938Y301564D01*
X443938Y303736D01*
X444770Y305744D01*
X446306Y307280D01*
X448314Y308112D01*
X450489Y308112D01*
X450575Y308124D01*
X450663Y308127D01*
X450716Y308144D01*
X450770Y308152D01*
X450850Y308187D01*
X450933Y308214D01*
X450973Y308242D01*
X451030Y308268D01*
X451143Y308364D01*
X451207Y308409D01*
X485756Y342958D01*
X485757Y342960D01*
X485758Y342961D01*
X485844Y343076D01*
X485927Y343185D01*
X485927Y343187D01*
X485928Y343189D01*
X485978Y343319D01*
X486028Y343451D01*
X486028Y343453D01*
X486029Y343455D01*
X486040Y343595D01*
X486051Y343734D01*
X486051Y343736D01*
X486051Y343738D01*
X486047Y343756D01*
X486038Y343800D01*
X486038Y346086D01*
X486870Y348094D01*
X488406Y349630D01*
X490414Y350462D01*
X492586Y350462D01*
X494594Y349630D01*
X496130Y348094D01*
X496962Y346086D01*
X496962Y343914D01*
X496130Y341906D01*
X494594Y340370D01*
X492586Y339538D01*
X490661Y339538D01*
X490575Y339526D01*
X490487Y339523D01*
X490434Y339506D01*
X490380Y339498D01*
X490300Y339463D01*
X490217Y339436D01*
X490177Y339408D01*
X490120Y339382D01*
X490007Y339286D01*
X489943Y339241D01*
X455159Y304457D01*
X455107Y304387D01*
X455047Y304323D01*
X455021Y304274D01*
X454988Y304230D01*
X454957Y304148D01*
X454917Y304070D01*
X454909Y304022D01*
X454887Y303964D01*
X454875Y303816D01*
X454862Y303739D01*
X454862Y301564D01*
X454030Y299556D01*
X452494Y298020D01*
X450486Y297188D01*
X448314Y297188D01*
G37*
%LPD*%
%LPC*%
G36*
X190664Y407538D02*
X190664Y407538D01*
X188598Y408394D01*
X188568Y408402D01*
X188540Y408416D01*
X188463Y408429D01*
X188322Y408465D01*
X188258Y408463D01*
X188209Y408471D01*
X182874Y408471D01*
X179924Y411421D01*
X168551Y422794D01*
X168527Y422813D01*
X168507Y422836D01*
X168440Y422878D01*
X168324Y422965D01*
X168264Y422988D01*
X168222Y423014D01*
X166156Y423870D01*
X164620Y425406D01*
X163788Y427414D01*
X163788Y429586D01*
X164620Y431594D01*
X166156Y433130D01*
X168164Y433962D01*
X170336Y433962D01*
X172344Y433130D01*
X173880Y431594D01*
X174736Y429528D01*
X174752Y429501D01*
X174761Y429472D01*
X174807Y429408D01*
X174880Y429283D01*
X174927Y429239D01*
X174956Y429199D01*
X186329Y417826D01*
X186398Y417774D01*
X186462Y417714D01*
X186512Y417688D01*
X186556Y417655D01*
X186637Y417624D01*
X186715Y417584D01*
X186763Y417576D01*
X186821Y417554D01*
X186969Y417542D01*
X187046Y417529D01*
X188209Y417529D01*
X188240Y417533D01*
X188271Y417531D01*
X188347Y417548D01*
X188491Y417569D01*
X188549Y417595D01*
X188598Y417606D01*
X190664Y418462D01*
X192836Y418462D01*
X194844Y417630D01*
X196380Y416094D01*
X197212Y414086D01*
X197212Y411914D01*
X196380Y409906D01*
X194844Y408370D01*
X192836Y407538D01*
X190664Y407538D01*
G37*
%LPD*%
%LPC*%
G36*
X3542302Y240021D02*
X3542302Y240021D01*
X3539810Y241053D01*
X3537903Y242960D01*
X3536871Y245452D01*
X3536871Y248148D01*
X3537903Y250640D01*
X3539810Y252547D01*
X3542302Y253579D01*
X3555998Y253579D01*
X3558490Y252547D01*
X3560397Y250640D01*
X3561429Y248148D01*
X3561429Y245452D01*
X3560397Y242960D01*
X3558490Y241053D01*
X3555998Y240021D01*
X3542302Y240021D01*
G37*
%LPD*%
%LPC*%
G36*
X3542302Y326421D02*
X3542302Y326421D01*
X3539810Y327453D01*
X3537903Y329360D01*
X3536871Y331852D01*
X3536871Y334548D01*
X3537903Y337040D01*
X3539810Y338947D01*
X3542302Y339979D01*
X3555998Y339979D01*
X3558490Y338947D01*
X3560397Y337040D01*
X3561429Y334548D01*
X3561429Y331852D01*
X3560397Y329360D01*
X3558490Y327453D01*
X3555998Y326421D01*
X3542302Y326421D01*
G37*
%LPD*%
%LPC*%
G36*
X3522983Y276491D02*
X3522983Y276491D01*
X3520975Y277323D01*
X3519439Y278859D01*
X3518607Y280867D01*
X3518607Y283039D01*
X3519439Y285047D01*
X3520977Y286585D01*
X3521029Y286655D01*
X3521089Y286719D01*
X3521115Y286768D01*
X3521148Y286812D01*
X3521179Y286894D01*
X3521219Y286972D01*
X3521227Y287019D01*
X3521249Y287078D01*
X3521261Y287226D01*
X3521274Y287303D01*
X3521274Y297761D01*
X3521270Y297792D01*
X3521272Y297823D01*
X3521255Y297899D01*
X3521234Y298043D01*
X3521208Y298102D01*
X3521197Y298150D01*
X3521107Y298367D01*
X3521107Y300539D01*
X3521939Y302547D01*
X3523475Y304083D01*
X3525483Y304915D01*
X3527655Y304915D01*
X3529663Y304083D01*
X3531199Y302547D01*
X3532031Y300539D01*
X3532031Y298367D01*
X3531199Y296359D01*
X3529663Y294823D01*
X3527490Y293923D01*
X3527489Y293922D01*
X3527488Y293922D01*
X3527369Y293852D01*
X3527246Y293778D01*
X3527245Y293777D01*
X3527243Y293776D01*
X3527146Y293672D01*
X3527050Y293572D01*
X3527050Y293570D01*
X3527049Y293569D01*
X3526984Y293444D01*
X3526920Y293319D01*
X3526920Y293317D01*
X3526919Y293316D01*
X3526917Y293301D01*
X3526883Y293130D01*
X3526878Y293113D01*
X3526877Y293102D01*
X3526865Y293040D01*
X3526868Y293010D01*
X3526864Y292985D01*
X3526864Y287303D01*
X3526876Y287216D01*
X3526879Y287129D01*
X3526896Y287076D01*
X3526904Y287021D01*
X3526939Y286942D01*
X3526966Y286858D01*
X3526994Y286819D01*
X3527020Y286762D01*
X3527116Y286649D01*
X3527161Y286585D01*
X3528699Y285047D01*
X3529531Y283039D01*
X3529531Y280867D01*
X3528699Y278859D01*
X3527163Y277323D01*
X3525155Y276491D01*
X3522983Y276491D01*
G37*
%LPD*%
%LPC*%
G36*
X3517453Y462221D02*
X3517453Y462221D01*
X3514594Y463406D01*
X3512406Y465594D01*
X3511221Y468453D01*
X3511221Y471547D01*
X3512406Y474406D01*
X3514594Y476594D01*
X3517453Y477779D01*
X3520547Y477779D01*
X3523406Y476594D01*
X3525594Y474406D01*
X3526779Y471547D01*
X3526779Y468453D01*
X3525594Y465594D01*
X3523406Y463406D01*
X3520547Y462221D01*
X3517453Y462221D01*
G37*
%LPD*%
%LPC*%
G36*
X235051Y133721D02*
X235051Y133721D01*
X232743Y134677D01*
X230977Y136443D01*
X230021Y138751D01*
X230021Y141249D01*
X230977Y143557D01*
X232743Y145323D01*
X235051Y146279D01*
X237549Y146279D01*
X239857Y145323D01*
X241623Y143557D01*
X242579Y141249D01*
X242579Y138751D01*
X241623Y136443D01*
X239857Y134677D01*
X237549Y133721D01*
X235051Y133721D01*
G37*
%LPD*%
%LPC*%
G36*
X3552367Y313871D02*
X3552367Y313871D01*
X3549421Y316817D01*
X3549421Y320983D01*
X3552367Y323929D01*
X3556533Y323929D01*
X3559479Y320983D01*
X3559479Y316817D01*
X3556533Y313871D01*
X3552367Y313871D01*
G37*
%LPD*%
%LPC*%
G36*
X3552367Y256071D02*
X3552367Y256071D01*
X3549421Y259017D01*
X3549421Y263183D01*
X3552367Y266129D01*
X3556533Y266129D01*
X3559479Y263183D01*
X3559479Y259017D01*
X3556533Y256071D01*
X3552367Y256071D01*
G37*
%LPD*%
D10*
X3590562Y486114D02*
X3597674Y483743D01*
X3590562Y481373D01*
X3589377Y476420D02*
X3587006Y473456D01*
X3597674Y473456D01*
X3597674Y470493D02*
X3597674Y476420D01*
X3589377Y464990D02*
X3587006Y462026D01*
X3597674Y462026D01*
X3597674Y459063D02*
X3597674Y464990D01*
D11*
X3554650Y246800D02*
X3543650Y246800D01*
X3543650Y333200D02*
X3554650Y333200D01*
X3587950Y246800D02*
X3593950Y246800D01*
X3593950Y333200D02*
X3587950Y333200D01*
D12*
X196700Y78100D03*
D10*
X196700Y65400D02*
X184000Y52700D01*
X133200Y52700D01*
X196700Y65400D02*
X196700Y78100D01*
X133200Y52700D02*
X130780Y55120D01*
X130780Y67980D01*
D12*
X130780Y67980D03*
X117000Y210000D03*
D10*
X153500Y210000D02*
X167537Y195964D01*
X153500Y210000D02*
X117000Y210000D01*
D12*
X167537Y195964D03*
D10*
X178500Y185000D01*
X265000Y185000D01*
D12*
X265000Y185000D03*
D10*
X305000Y145000D01*
X490000Y165000D02*
X490000Y190000D01*
D12*
X490000Y190000D03*
D10*
X470000Y145000D02*
X305000Y145000D01*
X470000Y145000D02*
X490000Y165000D01*
D12*
X3505000Y365000D03*
X3255000Y10000D03*
D10*
X3290000Y10000D01*
X3446000Y166000D01*
X3446000Y306000D02*
X3505000Y365000D01*
X3446000Y306000D02*
X3446000Y166000D01*
D12*
X308300Y179573D03*
D10*
X446636Y179573D01*
X477370Y210307D01*
D12*
X477370Y210307D03*
X114160Y164130D03*
X128310Y216780D03*
X293220Y111350D03*
X277980Y111120D03*
X377040Y155570D03*
X436500Y190020D03*
X289980Y225360D03*
X113810Y190490D03*
X3444410Y387990D03*
X249000Y152700D03*
X223800Y151300D03*
X189890Y221920D03*
X164100Y184800D03*
X372040Y105570D03*
X372040Y85570D03*
X163800Y111300D03*
X178800Y111300D03*
X178800Y96300D03*
X163800Y96300D03*
X3558590Y456010D03*
X3558590Y411010D03*
X3533590Y351010D03*
X3493590Y481010D03*
X3453590Y441010D03*
X3553590Y491010D03*
X3563590Y356010D03*
X3448590Y411010D03*
X3588590Y381010D03*
X3588590Y401010D03*
X3473590Y281010D03*
X3473590Y311010D03*
X3523590Y321010D03*
X3523590Y251010D03*
X3473590Y251010D03*
X214480Y59050D03*
D10*
X215115Y59685D01*
X248488Y93058D01*
X250322Y93058D01*
D12*
X250322Y93058D03*
X163680Y135250D03*
D10*
X167180Y135250D01*
X209400Y93030D01*
X209400Y65400D01*
X215115Y59685D01*
D12*
X268750Y2032500D03*
X418750Y2032500D03*
X568750Y2032500D03*
X718750Y2032500D03*
X868750Y2032500D03*
X1018750Y2032500D03*
D13*
X1018750Y2027500D01*
D12*
X1168750Y2032500D03*
X1318750Y2032500D03*
X1468750Y2032500D03*
X2068750Y2032500D03*
X2218750Y2032500D03*
X2368750Y2032500D03*
X2518750Y2032500D03*
X2668750Y2032500D03*
X3118750Y1882500D03*
X2968750Y1882500D03*
X2818750Y1882500D03*
X2668750Y1882500D03*
X2518750Y1882500D03*
X2368750Y1882500D03*
X2218750Y1882500D03*
X2068750Y1882500D03*
X1918750Y1882500D03*
X1768750Y1882500D03*
X1618750Y1882500D03*
X1468750Y1882500D03*
X1318750Y1882500D03*
X1168750Y1882500D03*
X1018750Y1882500D03*
X868750Y1882500D03*
D13*
X868750Y1877500D01*
D12*
X718750Y1882500D03*
X568750Y1882500D03*
X418750Y1882500D03*
X268750Y1882500D03*
X118750Y1857500D03*
X2818750Y2032500D03*
X2968750Y2032500D03*
X118750Y1707500D03*
X268750Y1732500D03*
X418750Y1732500D03*
X568750Y1732500D03*
X718750Y1732500D03*
X868750Y1732500D03*
X1018750Y1732500D03*
X1168750Y1732500D03*
D13*
X1168750Y1727500D01*
D12*
X1318750Y1732500D03*
X1468750Y1732500D03*
X1618750Y1732500D03*
X1768750Y1732500D03*
X1918750Y1732500D03*
X2068750Y1732500D03*
X2218750Y1732500D03*
X2368750Y1732500D03*
X2518750Y1732500D03*
X2668750Y1732500D03*
X2818750Y1732500D03*
X2968750Y1732500D03*
X3118750Y1732500D03*
X3418750Y1582500D03*
X2968750Y1582500D03*
X2818750Y1582500D03*
X2668750Y1582500D03*
X2518750Y1582500D03*
X2368750Y1582500D03*
X2218750Y1582500D03*
X2068750Y1582500D03*
X1918750Y1582500D03*
X1768750Y1582500D03*
X1618750Y1582500D03*
X1468750Y1582500D03*
X1318750Y1582500D03*
X1168750Y1582500D03*
X1018750Y1582500D03*
X868750Y1582500D03*
X718750Y1582500D03*
X568750Y1582500D03*
X418750Y1582500D03*
X268750Y1582500D03*
X118750Y1575000D03*
X118750Y1427500D03*
X268750Y1427500D03*
X418750Y1432500D03*
X568750Y1432500D03*
X718750Y1432500D03*
X868750Y1432500D03*
X1018750Y1432500D03*
X1168750Y1432500D03*
X1318750Y1432500D03*
X1468750Y1432500D03*
X1618750Y1432500D03*
X1768750Y1432500D03*
X1918750Y1432500D03*
X2068750Y1432500D03*
X2218750Y1432500D03*
X2368750Y1432500D03*
X2518750Y1432500D03*
X2668750Y1432500D03*
X2818750Y1432500D03*
X2968750Y1432500D03*
X3118750Y1432500D03*
X3118750Y1282500D03*
X2968750Y1282500D03*
X2818750Y1282500D03*
X2668750Y1282500D03*
X2518750Y1282500D03*
X2368750Y1282500D03*
X2218750Y1282500D03*
X2068750Y1282500D03*
X1918750Y1282500D03*
X1768750Y1282500D03*
X1618750Y1282500D03*
X1468750Y1282500D03*
X1318750Y1282500D03*
X1168750Y1282500D03*
X1018750Y1282500D03*
X868750Y1282500D03*
X718750Y1282500D03*
X568750Y1282500D03*
X418750Y1282500D03*
X268750Y1282500D03*
X118750Y1282500D03*
X118750Y1132500D03*
X268750Y1132500D03*
X418750Y1132500D03*
X568750Y1132500D03*
X718750Y1132500D03*
X868750Y1132500D03*
X1018750Y1132500D03*
D13*
X1023750Y1132500D01*
D12*
X1168750Y1132500D03*
X1318750Y1132500D03*
X1468750Y1132500D03*
X1618750Y1132500D03*
X1768750Y1132500D03*
X1918750Y1132500D03*
X2068750Y1132500D03*
X2218750Y1132500D03*
X2368750Y1132500D03*
X2518750Y1132500D03*
X2668750Y1132500D03*
X2818750Y1132500D03*
X2968750Y1132500D03*
X3118750Y1132500D03*
X118750Y982500D03*
X268750Y982500D03*
X418750Y982500D03*
X568750Y982500D03*
X718750Y982500D03*
X868750Y982500D03*
X1018750Y982500D03*
X1168750Y982500D03*
X1318750Y982500D03*
X1468750Y982500D03*
X1618750Y982500D03*
X1768750Y982500D03*
X1918750Y982500D03*
X2368750Y982500D03*
X2518750Y982500D03*
X2668750Y982500D03*
X2818750Y982500D03*
X2968750Y982500D03*
X3118750Y982500D03*
X3268750Y982500D03*
X3418750Y982500D03*
X118750Y832500D03*
X268750Y832500D03*
X418750Y832500D03*
X568750Y832500D03*
X718750Y832500D03*
X868750Y832500D03*
X1018750Y832500D03*
X1168750Y832500D03*
X1318750Y832500D03*
X1468750Y832500D03*
X1618750Y832500D03*
X1768750Y832500D03*
X1918750Y832500D03*
X2068750Y832500D03*
X2218750Y832500D03*
X2368750Y832500D03*
X2518750Y832500D03*
X2668750Y832500D03*
X3118750Y832500D03*
X3268750Y832500D03*
X3418750Y832500D03*
X3418750Y682500D03*
X3268750Y682500D03*
X3118750Y682500D03*
X2968750Y682500D03*
X2518750Y682500D03*
X2368750Y682500D03*
X2218750Y682500D03*
X2068750Y682500D03*
X1918750Y682500D03*
X1768750Y682500D03*
X1618750Y682500D03*
X1468750Y682500D03*
X1318750Y682500D03*
X1168750Y682500D03*
X1018750Y682500D03*
X868750Y682500D03*
X718750Y682500D03*
X568750Y682500D03*
X418750Y682500D03*
X268750Y682500D03*
X118750Y682500D03*
X268750Y382500D03*
X418750Y382500D03*
X568750Y382500D03*
X718750Y382500D03*
X868750Y382500D03*
X1018750Y382500D03*
X1168750Y382500D03*
X1318750Y382500D03*
X1468750Y382500D03*
X1618750Y382500D03*
X1768750Y382500D03*
X1918750Y382500D03*
X2068750Y382500D03*
X2218750Y382500D03*
X2368750Y382500D03*
X2518750Y382500D03*
X2668750Y382500D03*
X2818750Y382500D03*
X3268750Y382500D03*
X3418750Y382500D03*
X3418750Y232500D03*
X3268750Y232500D03*
X3118750Y232500D03*
X2668750Y232500D03*
X2518750Y232500D03*
X2368750Y232500D03*
X2218750Y232500D03*
X2068750Y232500D03*
X1918750Y232500D03*
X1768750Y232500D03*
X1618750Y232500D03*
X1468750Y232500D03*
X1318750Y232500D03*
X1168750Y232500D03*
X1018750Y232500D03*
X868750Y232500D03*
X1018750Y77500D03*
X868750Y82500D03*
X718750Y82500D03*
X1168750Y82500D03*
X1318750Y82500D03*
X1481250Y82500D03*
X2068750Y82500D03*
X2218750Y82500D03*
X2368750Y82500D03*
X2518750Y82500D03*
X3118750Y82500D03*
X3268750Y82500D03*
X2968750Y232500D03*
X138750Y547500D03*
X288750Y547500D03*
D13*
X283750Y547500D01*
D12*
X443750Y542500D03*
X588750Y542500D03*
X743750Y542500D03*
X868750Y532500D03*
X1018750Y532500D03*
X1168750Y532500D03*
X1318750Y532500D03*
X1468750Y532500D03*
X1618750Y532500D03*
X1768750Y532500D03*
X1918750Y532500D03*
X2068750Y532500D03*
X2218750Y532500D03*
X2368750Y532500D03*
X2518750Y532500D03*
X2668750Y532500D03*
X2818750Y532500D03*
X2968750Y532500D03*
X3118750Y532500D03*
X3268750Y532500D03*
X3418750Y532500D03*
X3118750Y382500D03*
X2968750Y382500D03*
X2818750Y232500D03*
X2818750Y82500D03*
X2968750Y82500D03*
X2668750Y82500D03*
X3418750Y1432500D03*
X2818750Y832500D03*
X2218750Y982500D03*
X2068750Y982500D03*
X2818750Y682500D03*
X2668750Y682500D03*
X3268750Y1732500D03*
X3418750Y1732500D03*
X3268750Y1132500D03*
X3418750Y1132500D03*
X3118750Y2032500D03*
X3268750Y2032500D03*
X3268750Y1432500D03*
X3268750Y1282500D03*
X3418750Y1282500D03*
X2968750Y832500D03*
X3268750Y1582500D03*
X3118750Y1577500D03*
X3418750Y1882500D03*
X3268750Y1882500D03*
X19000Y301500D03*
X118750Y384000D03*
D13*
X122250Y384000D01*
X122750Y384500D01*
D12*
X719250Y234500D03*
D13*
X693750Y260000D01*
X693750Y262500D01*
D12*
X3420000Y305000D03*
X3410000Y305000D03*
X3370000Y305000D03*
D14*
X3380000Y305000D01*
D12*
X3380000Y305000D03*
D15*
X3390000Y305000D01*
D12*
X3390000Y305000D03*
D15*
X3400000Y305000D01*
D12*
X3400000Y305000D03*
X220830Y78100D03*
D10*
X220830Y96730D01*
X207710Y109850D01*
D12*
X207710Y109850D03*
X361800Y97150D03*
X190000Y135000D03*
D10*
X205000Y135000D01*
X218500Y121500D01*
X242500Y121500D01*
X266850Y97150D01*
X361800Y97150D01*
D12*
X354400Y104200D03*
X196455Y141477D03*
D10*
X208523Y141477D01*
X224690Y125310D01*
X265800Y104200D02*
X354400Y104200D01*
X244690Y125310D02*
X224690Y125310D01*
X244690Y125310D02*
X265800Y104200D01*
D12*
X3526569Y299453D03*
D10*
X3524069Y296953D01*
X3524069Y281953D01*
D12*
X3524069Y281953D03*
X423500Y303000D03*
D10*
X423500Y304000D01*
X467500Y348000D01*
D12*
X467500Y348000D03*
X449400Y302650D03*
D10*
X491500Y344750D02*
X491500Y345000D01*
X491500Y344750D02*
X449400Y302650D01*
D12*
X491500Y345000D03*
X7500Y400000D03*
D13*
X7500Y280000D01*
X40000Y247500D01*
X313750Y247500D01*
D12*
X350000Y250000D03*
D13*
X316250Y250000D01*
X313750Y247500D01*
D12*
X169250Y428500D03*
D13*
X184750Y413000D01*
X191750Y413000D01*
D12*
X191750Y413000D03*
X3393750Y287500D03*
D13*
X1418750Y287500D01*
X1227750Y96500D01*
X639862Y96500D01*
D12*
X639862Y96500D03*
X3393750Y737500D03*
D13*
X968750Y737500D01*
X759461Y528211D01*
D12*
X93750Y525000D03*
D13*
X96961Y528211D02*
X759461Y528211D01*
X96961Y528211D02*
X93750Y525000D01*
D12*
X88750Y397500D03*
D13*
X823750Y397500D01*
X1018750Y592500D01*
X3388750Y592500D01*
D12*
X3388750Y592500D03*
X3293750Y2087500D03*
D13*
X263750Y2057500D02*
X93750Y1887500D01*
D12*
X93750Y1887500D03*
D13*
X3263750Y2057500D02*
X3293750Y2087500D01*
X3263750Y2057500D02*
X263750Y2057500D01*
D12*
X68250Y263000D03*
D13*
X1117750Y361500D02*
X1193750Y437500D01*
X1117750Y361500D02*
X650000Y361500D01*
X166750Y361500D01*
X68250Y263000D01*
X1193750Y437500D02*
X3393750Y437500D01*
D12*
X3393750Y437500D03*
X650000Y200000D03*
D13*
X650000Y361500D01*
D12*
X3398750Y1932500D03*
D13*
X358750Y1932500D01*
X158750Y1732500D02*
X68750Y1732500D01*
D12*
X68750Y1732500D03*
D13*
X158750Y1732500D02*
X358750Y1932500D01*
D12*
X68750Y1582500D03*
D13*
X114638Y1582500D01*
X115349Y1583211D01*
X229461Y1583211D01*
X428750Y1782500D02*
X3398750Y1782500D01*
D12*
X3398750Y1782500D03*
D13*
X428750Y1782500D02*
X229461Y1583211D01*
D12*
X3393750Y1637500D03*
D13*
X518750Y1637500D01*
X318750Y1437500D01*
D12*
X93750Y1437500D03*
D13*
X318750Y1437500D01*
D12*
X3398750Y1482500D03*
D13*
X643750Y1482500D01*
D12*
X88750Y1287500D03*
D13*
X112138Y1287500D02*
X115349Y1290711D01*
X112138Y1287500D02*
X88750Y1287500D01*
X115349Y1290711D02*
X451961Y1290711D01*
X643750Y1482500D01*
D12*
X88750Y1142500D03*
D13*
X518750Y1142500D01*
X708750Y1332500D01*
X3398750Y1332500D01*
D12*
X3398750Y1332500D03*
X88600Y990000D03*
D13*
X114638Y990000D01*
X115349Y990711D01*
X552861Y990711D01*
X742650Y1180500D02*
X3396950Y1180500D01*
D12*
X3396950Y1180500D03*
D13*
X742650Y1180500D02*
X552861Y990711D01*
D12*
X3393750Y1037500D03*
D13*
X818750Y1037500D01*
X618750Y837500D01*
D12*
X93750Y837500D03*
D13*
X575362Y837500D02*
X618750Y837500D01*
X575362Y837500D02*
X572151Y840711D01*
X115349Y840711D02*
X112138Y837500D01*
X93750Y837500D01*
X115349Y840711D02*
X572151Y840711D01*
D12*
X93750Y687500D03*
D13*
X112138Y687500D01*
X115349Y690711D01*
X572151Y690711D02*
X575362Y687500D01*
X693750Y687500D01*
X572151Y690711D02*
X115349Y690711D01*
X693750Y687500D02*
X893750Y887500D01*
D12*
X3393750Y887500D03*
D13*
X893750Y887500D01*
M02*
