G04 EAGLE Gerber RS-274X export*
G75*
%MOMM*%
%FSLAX34Y34*%
%LPD*%
%INSolderpaste Top*%
%IPPOS*%
%AMOC8*
5,1,8,0,0,1.08239X$1,22.5*%
G01*
%ADD10R,1.000000X1.100000*%
%ADD11R,0.300000X0.660000*%
%ADD12R,1.100000X1.000000*%
%ADD13R,0.900000X1.000000*%
%ADD14R,0.900000X1.500000*%
%ADD15R,1.500000X0.900000*%
%ADD16R,6.000000X6.000000*%
%ADD17R,0.550000X1.200000*%
%ADD18R,1.016000X0.300000*%
%ADD19R,1.016000X0.600000*%
%ADD20R,1.016000X0.550000*%
%ADD21R,1.200000X2.500000*%
%ADD22C,0.030000*%
%ADD23C,0.700000*%
%ADD24C,0.900000*%
%ADD25R,1.200000X0.550000*%
%ADD26R,1.651000X1.000000*%

G36*
X3555205Y327154D02*
X3555205Y327154D01*
X3555208Y327151D01*
X3556475Y327356D01*
X3556481Y327362D01*
X3556486Y327359D01*
X3557675Y327841D01*
X3557679Y327848D01*
X3557685Y327846D01*
X3558738Y328580D01*
X3558740Y328588D01*
X3558746Y328587D01*
X3559609Y329537D01*
X3559610Y329546D01*
X3559615Y329546D01*
X3560245Y330665D01*
X3560244Y330673D01*
X3560250Y330675D01*
X3560615Y331905D01*
X3560612Y331912D01*
X3560616Y331915D01*
X3560615Y331915D01*
X3560617Y331916D01*
X3560699Y333197D01*
X3560697Y333201D01*
X3560699Y333203D01*
X3560617Y334484D01*
X3560611Y334490D01*
X3560615Y334495D01*
X3560250Y335725D01*
X3560243Y335730D01*
X3560245Y335735D01*
X3559615Y336854D01*
X3559608Y336857D01*
X3559609Y336863D01*
X3558746Y337813D01*
X3558738Y337814D01*
X3558738Y337820D01*
X3557685Y338554D01*
X3557677Y338554D01*
X3557675Y338559D01*
X3556486Y339041D01*
X3556478Y339039D01*
X3556475Y339044D01*
X3555208Y339249D01*
X3555203Y339246D01*
X3555200Y339249D01*
X3543200Y339249D01*
X3543196Y339246D01*
X3543193Y339249D01*
X3542071Y339094D01*
X3542066Y339089D01*
X3542062Y339092D01*
X3540991Y338721D01*
X3540987Y338715D01*
X3540982Y338717D01*
X3540005Y338144D01*
X3540002Y338138D01*
X3539997Y338139D01*
X3539150Y337386D01*
X3539148Y337379D01*
X3539143Y337379D01*
X3538459Y336476D01*
X3538459Y336469D01*
X3538454Y336468D01*
X3537959Y335449D01*
X3537961Y335442D01*
X3537959Y335441D01*
X3537956Y335440D01*
X3537669Y334343D01*
X3537672Y334337D01*
X3537668Y334334D01*
X3537601Y333203D01*
X3537603Y333199D01*
X3537601Y333197D01*
X3537668Y332066D01*
X3537673Y332061D01*
X3537669Y332057D01*
X3537956Y330960D01*
X3537962Y330956D01*
X3537959Y330951D01*
X3538454Y329932D01*
X3538460Y329929D01*
X3538459Y329924D01*
X3539143Y329021D01*
X3539150Y329019D01*
X3539150Y329014D01*
X3539997Y328261D01*
X3540004Y328261D01*
X3540005Y328256D01*
X3540982Y327683D01*
X3540989Y327684D01*
X3540991Y327679D01*
X3542062Y327308D01*
X3542068Y327311D01*
X3542071Y327306D01*
X3543193Y327151D01*
X3543198Y327154D01*
X3543200Y327151D01*
X3555200Y327151D01*
X3555205Y327154D01*
G37*
G36*
X3555205Y240754D02*
X3555205Y240754D01*
X3555208Y240751D01*
X3556475Y240956D01*
X3556481Y240962D01*
X3556486Y240959D01*
X3557675Y241441D01*
X3557679Y241448D01*
X3557685Y241446D01*
X3558738Y242180D01*
X3558740Y242188D01*
X3558746Y242187D01*
X3559609Y243137D01*
X3559610Y243146D01*
X3559615Y243146D01*
X3560245Y244265D01*
X3560244Y244273D01*
X3560250Y244275D01*
X3560615Y245505D01*
X3560612Y245512D01*
X3560616Y245515D01*
X3560615Y245515D01*
X3560617Y245516D01*
X3560699Y246797D01*
X3560697Y246801D01*
X3560699Y246803D01*
X3560617Y248084D01*
X3560611Y248090D01*
X3560615Y248095D01*
X3560250Y249325D01*
X3560243Y249330D01*
X3560245Y249335D01*
X3559615Y250454D01*
X3559608Y250457D01*
X3559609Y250463D01*
X3558746Y251413D01*
X3558738Y251414D01*
X3558738Y251420D01*
X3557685Y252154D01*
X3557677Y252154D01*
X3557675Y252159D01*
X3556486Y252641D01*
X3556478Y252639D01*
X3556475Y252644D01*
X3555208Y252849D01*
X3555203Y252846D01*
X3555200Y252849D01*
X3543200Y252849D01*
X3543196Y252846D01*
X3543193Y252849D01*
X3542071Y252694D01*
X3542066Y252689D01*
X3542062Y252692D01*
X3540991Y252321D01*
X3540987Y252315D01*
X3540982Y252317D01*
X3540005Y251744D01*
X3540002Y251738D01*
X3539997Y251739D01*
X3539150Y250986D01*
X3539148Y250979D01*
X3539143Y250979D01*
X3538459Y250076D01*
X3538459Y250069D01*
X3538454Y250068D01*
X3537959Y249049D01*
X3537961Y249042D01*
X3537959Y249041D01*
X3537956Y249040D01*
X3537669Y247943D01*
X3537672Y247937D01*
X3537668Y247934D01*
X3537601Y246803D01*
X3537603Y246799D01*
X3537601Y246797D01*
X3537668Y245666D01*
X3537673Y245661D01*
X3537669Y245657D01*
X3537956Y244560D01*
X3537962Y244556D01*
X3537959Y244551D01*
X3538454Y243532D01*
X3538460Y243529D01*
X3538459Y243524D01*
X3539143Y242621D01*
X3539150Y242619D01*
X3539150Y242614D01*
X3539997Y241861D01*
X3540004Y241861D01*
X3540005Y241856D01*
X3540982Y241283D01*
X3540989Y241284D01*
X3540991Y241279D01*
X3542062Y240908D01*
X3542068Y240911D01*
X3542071Y240906D01*
X3543193Y240751D01*
X3543198Y240754D01*
X3543200Y240751D01*
X3555200Y240751D01*
X3555205Y240754D01*
G37*
G36*
X3594004Y327153D02*
X3594004Y327153D01*
X3594006Y327151D01*
X3595335Y327306D01*
X3595341Y327312D01*
X3595345Y327309D01*
X3596606Y327756D01*
X3596611Y327763D01*
X3596616Y327761D01*
X3597746Y328478D01*
X3597749Y328485D01*
X3597755Y328484D01*
X3598697Y329435D01*
X3598698Y329443D01*
X3598704Y329443D01*
X3599411Y330579D01*
X3599411Y330584D01*
X3599412Y330585D01*
X3599411Y330587D01*
X3599416Y330589D01*
X3599852Y331854D01*
X3599850Y331862D01*
X3599855Y331865D01*
X3599999Y333195D01*
X3599995Y333201D01*
X3599999Y333205D01*
X3599889Y334371D01*
X3599884Y334376D01*
X3599887Y334380D01*
X3599552Y335503D01*
X3599546Y335507D01*
X3599548Y335511D01*
X3599000Y336547D01*
X3598994Y336550D01*
X3598995Y336555D01*
X3598256Y337463D01*
X3598249Y337465D01*
X3598249Y337470D01*
X3597347Y338217D01*
X3597340Y338217D01*
X3597339Y338223D01*
X3596308Y338779D01*
X3596301Y338778D01*
X3596299Y338783D01*
X3595180Y339127D01*
X3595173Y339125D01*
X3595170Y339129D01*
X3594005Y339249D01*
X3594002Y339247D01*
X3594000Y339249D01*
X3588000Y339249D01*
X3587997Y339247D01*
X3587995Y339249D01*
X3586819Y339138D01*
X3586814Y339133D01*
X3586810Y339136D01*
X3585678Y338798D01*
X3585674Y338792D01*
X3585669Y338794D01*
X3584625Y338242D01*
X3584622Y338235D01*
X3584617Y338237D01*
X3583701Y337491D01*
X3583700Y337484D01*
X3583694Y337484D01*
X3582941Y336575D01*
X3582941Y336567D01*
X3582936Y336567D01*
X3582375Y335527D01*
X3582376Y335520D01*
X3582371Y335518D01*
X3582024Y334389D01*
X3582026Y334383D01*
X3582022Y334380D01*
X3581901Y333205D01*
X3581905Y333198D01*
X3581901Y333194D01*
X3582058Y331854D01*
X3582063Y331848D01*
X3582060Y331843D01*
X3582511Y330572D01*
X3582518Y330567D01*
X3582516Y330562D01*
X3583238Y329423D01*
X3583246Y329420D01*
X3583245Y329414D01*
X3584203Y328464D01*
X3584211Y328463D01*
X3584212Y328457D01*
X3585357Y327744D01*
X3585366Y327745D01*
X3585367Y327739D01*
X3586643Y327299D01*
X3586650Y327301D01*
X3586652Y327299D01*
X3586653Y327297D01*
X3587995Y327151D01*
X3587998Y327153D01*
X3588000Y327151D01*
X3594000Y327151D01*
X3594004Y327153D01*
G37*
G36*
X3594004Y240753D02*
X3594004Y240753D01*
X3594006Y240751D01*
X3595335Y240906D01*
X3595341Y240912D01*
X3595345Y240909D01*
X3596606Y241356D01*
X3596611Y241363D01*
X3596616Y241361D01*
X3597746Y242078D01*
X3597749Y242085D01*
X3597755Y242084D01*
X3598697Y243035D01*
X3598698Y243043D01*
X3598704Y243043D01*
X3599411Y244179D01*
X3599411Y244184D01*
X3599412Y244185D01*
X3599411Y244187D01*
X3599416Y244189D01*
X3599852Y245454D01*
X3599850Y245462D01*
X3599855Y245465D01*
X3599999Y246795D01*
X3599995Y246801D01*
X3599999Y246805D01*
X3599889Y247971D01*
X3599884Y247976D01*
X3599887Y247980D01*
X3599552Y249103D01*
X3599546Y249107D01*
X3599548Y249111D01*
X3599000Y250147D01*
X3598994Y250150D01*
X3598995Y250155D01*
X3598256Y251063D01*
X3598249Y251065D01*
X3598249Y251070D01*
X3597347Y251817D01*
X3597340Y251817D01*
X3597339Y251823D01*
X3596308Y252379D01*
X3596301Y252378D01*
X3596299Y252383D01*
X3595180Y252727D01*
X3595173Y252725D01*
X3595170Y252729D01*
X3594005Y252849D01*
X3594002Y252847D01*
X3594000Y252849D01*
X3588000Y252849D01*
X3587997Y252847D01*
X3587995Y252849D01*
X3586819Y252738D01*
X3586814Y252733D01*
X3586810Y252736D01*
X3585678Y252398D01*
X3585674Y252392D01*
X3585669Y252394D01*
X3584625Y251842D01*
X3584622Y251835D01*
X3584617Y251837D01*
X3583701Y251091D01*
X3583700Y251084D01*
X3583694Y251084D01*
X3582941Y250175D01*
X3582941Y250167D01*
X3582936Y250167D01*
X3582375Y249127D01*
X3582376Y249120D01*
X3582371Y249118D01*
X3582024Y247989D01*
X3582026Y247983D01*
X3582022Y247980D01*
X3581901Y246805D01*
X3581905Y246798D01*
X3581901Y246794D01*
X3582058Y245454D01*
X3582063Y245448D01*
X3582060Y245443D01*
X3582511Y244172D01*
X3582518Y244167D01*
X3582516Y244162D01*
X3583238Y243023D01*
X3583246Y243020D01*
X3583245Y243014D01*
X3584203Y242064D01*
X3584211Y242063D01*
X3584212Y242057D01*
X3585357Y241344D01*
X3585366Y241345D01*
X3585367Y241339D01*
X3586643Y240899D01*
X3586650Y240901D01*
X3586652Y240899D01*
X3586653Y240897D01*
X3587995Y240751D01*
X3587998Y240753D01*
X3588000Y240751D01*
X3594000Y240751D01*
X3594004Y240753D01*
G37*
G36*
X168865Y105377D02*
X168865Y105377D01*
X168931Y105379D01*
X168974Y105397D01*
X169021Y105405D01*
X169078Y105439D01*
X169138Y105464D01*
X169173Y105495D01*
X169214Y105520D01*
X169256Y105571D01*
X169304Y105615D01*
X169326Y105657D01*
X169355Y105694D01*
X169376Y105756D01*
X169407Y105815D01*
X169415Y105869D01*
X169427Y105906D01*
X169426Y105946D01*
X169434Y106000D01*
X169434Y113500D01*
X169423Y113565D01*
X169421Y113631D01*
X169403Y113674D01*
X169395Y113721D01*
X169361Y113778D01*
X169336Y113838D01*
X169305Y113873D01*
X169280Y113914D01*
X169229Y113956D01*
X169185Y114004D01*
X169143Y114026D01*
X169106Y114055D01*
X169044Y114076D01*
X168985Y114107D01*
X168931Y114115D01*
X168894Y114127D01*
X168854Y114126D01*
X168800Y114134D01*
X161300Y114134D01*
X161235Y114123D01*
X161169Y114121D01*
X161126Y114103D01*
X161079Y114095D01*
X161022Y114061D01*
X160962Y114036D01*
X160927Y114005D01*
X160886Y113980D01*
X160845Y113929D01*
X160796Y113885D01*
X160774Y113843D01*
X160745Y113806D01*
X160724Y113744D01*
X160693Y113685D01*
X160685Y113631D01*
X160673Y113594D01*
X160674Y113554D01*
X160666Y113500D01*
X160666Y106000D01*
X160677Y105935D01*
X160679Y105869D01*
X160697Y105826D01*
X160705Y105779D01*
X160739Y105722D01*
X160764Y105662D01*
X160795Y105627D01*
X160820Y105586D01*
X160871Y105545D01*
X160915Y105496D01*
X160957Y105474D01*
X160994Y105445D01*
X161056Y105424D01*
X161115Y105393D01*
X161169Y105385D01*
X161206Y105373D01*
X161246Y105374D01*
X161300Y105366D01*
X168800Y105366D01*
X168865Y105377D01*
G37*
G36*
X181365Y105377D02*
X181365Y105377D01*
X181431Y105379D01*
X181474Y105397D01*
X181521Y105405D01*
X181578Y105439D01*
X181638Y105464D01*
X181673Y105495D01*
X181714Y105520D01*
X181756Y105571D01*
X181804Y105615D01*
X181826Y105657D01*
X181855Y105694D01*
X181876Y105756D01*
X181907Y105815D01*
X181915Y105869D01*
X181927Y105906D01*
X181926Y105946D01*
X181934Y106000D01*
X181934Y113500D01*
X181923Y113565D01*
X181921Y113631D01*
X181903Y113674D01*
X181895Y113721D01*
X181861Y113778D01*
X181836Y113838D01*
X181805Y113873D01*
X181780Y113914D01*
X181729Y113956D01*
X181685Y114004D01*
X181643Y114026D01*
X181606Y114055D01*
X181544Y114076D01*
X181485Y114107D01*
X181431Y114115D01*
X181394Y114127D01*
X181354Y114126D01*
X181300Y114134D01*
X173800Y114134D01*
X173735Y114123D01*
X173669Y114121D01*
X173626Y114103D01*
X173579Y114095D01*
X173522Y114061D01*
X173462Y114036D01*
X173427Y114005D01*
X173386Y113980D01*
X173345Y113929D01*
X173296Y113885D01*
X173274Y113843D01*
X173245Y113806D01*
X173224Y113744D01*
X173193Y113685D01*
X173185Y113631D01*
X173173Y113594D01*
X173174Y113554D01*
X173166Y113500D01*
X173166Y106000D01*
X173177Y105935D01*
X173179Y105869D01*
X173197Y105826D01*
X173205Y105779D01*
X173239Y105722D01*
X173264Y105662D01*
X173295Y105627D01*
X173320Y105586D01*
X173371Y105545D01*
X173415Y105496D01*
X173457Y105474D01*
X173494Y105445D01*
X173556Y105424D01*
X173615Y105393D01*
X173669Y105385D01*
X173706Y105373D01*
X173746Y105374D01*
X173800Y105366D01*
X181300Y105366D01*
X181365Y105377D01*
G37*
G36*
X181365Y92877D02*
X181365Y92877D01*
X181431Y92879D01*
X181474Y92897D01*
X181521Y92905D01*
X181578Y92939D01*
X181638Y92964D01*
X181673Y92995D01*
X181714Y93020D01*
X181756Y93071D01*
X181804Y93115D01*
X181826Y93157D01*
X181855Y93194D01*
X181876Y93256D01*
X181907Y93315D01*
X181915Y93369D01*
X181927Y93406D01*
X181926Y93446D01*
X181934Y93500D01*
X181934Y101000D01*
X181923Y101065D01*
X181921Y101131D01*
X181903Y101174D01*
X181895Y101221D01*
X181861Y101278D01*
X181836Y101338D01*
X181805Y101373D01*
X181780Y101414D01*
X181729Y101456D01*
X181685Y101504D01*
X181643Y101526D01*
X181606Y101555D01*
X181544Y101576D01*
X181485Y101607D01*
X181431Y101615D01*
X181394Y101627D01*
X181354Y101626D01*
X181300Y101634D01*
X173800Y101634D01*
X173735Y101623D01*
X173669Y101621D01*
X173626Y101603D01*
X173579Y101595D01*
X173522Y101561D01*
X173462Y101536D01*
X173427Y101505D01*
X173386Y101480D01*
X173345Y101429D01*
X173296Y101385D01*
X173274Y101343D01*
X173245Y101306D01*
X173224Y101244D01*
X173193Y101185D01*
X173185Y101131D01*
X173173Y101094D01*
X173174Y101054D01*
X173166Y101000D01*
X173166Y93500D01*
X173177Y93435D01*
X173179Y93369D01*
X173197Y93326D01*
X173205Y93279D01*
X173239Y93222D01*
X173264Y93162D01*
X173295Y93127D01*
X173320Y93086D01*
X173371Y93045D01*
X173415Y92996D01*
X173457Y92974D01*
X173494Y92945D01*
X173556Y92924D01*
X173615Y92893D01*
X173669Y92885D01*
X173706Y92873D01*
X173746Y92874D01*
X173800Y92866D01*
X181300Y92866D01*
X181365Y92877D01*
G37*
G36*
X168865Y92877D02*
X168865Y92877D01*
X168931Y92879D01*
X168974Y92897D01*
X169021Y92905D01*
X169078Y92939D01*
X169138Y92964D01*
X169173Y92995D01*
X169214Y93020D01*
X169256Y93071D01*
X169304Y93115D01*
X169326Y93157D01*
X169355Y93194D01*
X169376Y93256D01*
X169407Y93315D01*
X169415Y93369D01*
X169427Y93406D01*
X169426Y93446D01*
X169434Y93500D01*
X169434Y101000D01*
X169423Y101065D01*
X169421Y101131D01*
X169403Y101174D01*
X169395Y101221D01*
X169361Y101278D01*
X169336Y101338D01*
X169305Y101373D01*
X169280Y101414D01*
X169229Y101456D01*
X169185Y101504D01*
X169143Y101526D01*
X169106Y101555D01*
X169044Y101576D01*
X168985Y101607D01*
X168931Y101615D01*
X168894Y101627D01*
X168854Y101626D01*
X168800Y101634D01*
X161300Y101634D01*
X161235Y101623D01*
X161169Y101621D01*
X161126Y101603D01*
X161079Y101595D01*
X161022Y101561D01*
X160962Y101536D01*
X160927Y101505D01*
X160886Y101480D01*
X160845Y101429D01*
X160796Y101385D01*
X160774Y101343D01*
X160745Y101306D01*
X160724Y101244D01*
X160693Y101185D01*
X160685Y101131D01*
X160673Y101094D01*
X160674Y101054D01*
X160666Y101000D01*
X160666Y93500D01*
X160677Y93435D01*
X160679Y93369D01*
X160697Y93326D01*
X160705Y93279D01*
X160739Y93222D01*
X160764Y93162D01*
X160795Y93127D01*
X160820Y93086D01*
X160871Y93045D01*
X160915Y92996D01*
X160957Y92974D01*
X160994Y92945D01*
X161056Y92924D01*
X161115Y92893D01*
X161169Y92885D01*
X161206Y92873D01*
X161246Y92874D01*
X161300Y92866D01*
X168800Y92866D01*
X168865Y92877D01*
G37*
G36*
X180047Y120087D02*
X180047Y120087D01*
X180042Y120094D01*
X180049Y120100D01*
X180049Y127900D01*
X180013Y127947D01*
X180006Y127942D01*
X180000Y127949D01*
X177600Y127949D01*
X177553Y127913D01*
X177558Y127906D01*
X177551Y127900D01*
X177551Y120100D01*
X177587Y120053D01*
X177594Y120058D01*
X177600Y120051D01*
X180000Y120051D01*
X180047Y120087D01*
G37*
G36*
X165047Y120087D02*
X165047Y120087D01*
X165042Y120094D01*
X165049Y120100D01*
X165049Y127900D01*
X165013Y127947D01*
X165006Y127942D01*
X165000Y127949D01*
X162600Y127949D01*
X162553Y127913D01*
X162558Y127906D01*
X162551Y127900D01*
X162551Y120100D01*
X162587Y120053D01*
X162594Y120058D01*
X162600Y120051D01*
X165000Y120051D01*
X165047Y120087D01*
G37*
G36*
X185047Y120087D02*
X185047Y120087D01*
X185042Y120094D01*
X185049Y120100D01*
X185049Y127900D01*
X185013Y127947D01*
X185006Y127942D01*
X185000Y127949D01*
X182600Y127949D01*
X182553Y127913D01*
X182558Y127906D01*
X182551Y127900D01*
X182551Y120100D01*
X182587Y120053D01*
X182594Y120058D01*
X182600Y120051D01*
X185000Y120051D01*
X185047Y120087D01*
G37*
G36*
X175047Y120087D02*
X175047Y120087D01*
X175042Y120094D01*
X175049Y120100D01*
X175049Y127900D01*
X175013Y127947D01*
X175006Y127942D01*
X175000Y127949D01*
X172600Y127949D01*
X172553Y127913D01*
X172558Y127906D01*
X172551Y127900D01*
X172551Y120100D01*
X172587Y120053D01*
X172594Y120058D01*
X172600Y120051D01*
X175000Y120051D01*
X175047Y120087D01*
G37*
G36*
X170047Y120087D02*
X170047Y120087D01*
X170042Y120094D01*
X170049Y120100D01*
X170049Y127900D01*
X170013Y127947D01*
X170006Y127942D01*
X170000Y127949D01*
X167600Y127949D01*
X167553Y127913D01*
X167558Y127906D01*
X167551Y127900D01*
X167551Y120100D01*
X167587Y120053D01*
X167594Y120058D01*
X167600Y120051D01*
X170000Y120051D01*
X170047Y120087D01*
G37*
G36*
X160047Y120087D02*
X160047Y120087D01*
X160042Y120094D01*
X160049Y120100D01*
X160049Y127900D01*
X160013Y127947D01*
X160006Y127942D01*
X160000Y127949D01*
X157600Y127949D01*
X157553Y127913D01*
X157558Y127906D01*
X157551Y127900D01*
X157551Y120100D01*
X157587Y120053D01*
X157594Y120058D01*
X157600Y120051D01*
X160000Y120051D01*
X160047Y120087D01*
G37*
G36*
X195747Y114787D02*
X195747Y114787D01*
X195742Y114794D01*
X195749Y114800D01*
X195749Y117200D01*
X195713Y117247D01*
X195706Y117242D01*
X195700Y117249D01*
X187900Y117249D01*
X187853Y117213D01*
X187858Y117206D01*
X187851Y117200D01*
X187851Y114800D01*
X187887Y114753D01*
X187894Y114758D01*
X187900Y114751D01*
X195700Y114751D01*
X195747Y114787D01*
G37*
G36*
X154747Y114787D02*
X154747Y114787D01*
X154742Y114794D01*
X154749Y114800D01*
X154749Y117200D01*
X154713Y117247D01*
X154706Y117242D01*
X154700Y117249D01*
X146900Y117249D01*
X146853Y117213D01*
X146858Y117206D01*
X146851Y117200D01*
X146851Y114800D01*
X146887Y114753D01*
X146894Y114758D01*
X146900Y114751D01*
X154700Y114751D01*
X154747Y114787D01*
G37*
G36*
X195747Y109787D02*
X195747Y109787D01*
X195742Y109794D01*
X195749Y109800D01*
X195749Y112200D01*
X195713Y112247D01*
X195706Y112242D01*
X195700Y112249D01*
X187900Y112249D01*
X187853Y112213D01*
X187858Y112206D01*
X187851Y112200D01*
X187851Y109800D01*
X187887Y109753D01*
X187894Y109758D01*
X187900Y109751D01*
X195700Y109751D01*
X195747Y109787D01*
G37*
G36*
X154747Y109787D02*
X154747Y109787D01*
X154742Y109794D01*
X154749Y109800D01*
X154749Y112200D01*
X154713Y112247D01*
X154706Y112242D01*
X154700Y112249D01*
X146900Y112249D01*
X146853Y112213D01*
X146858Y112206D01*
X146851Y112200D01*
X146851Y109800D01*
X146887Y109753D01*
X146894Y109758D01*
X146900Y109751D01*
X154700Y109751D01*
X154747Y109787D01*
G37*
G36*
X195747Y104787D02*
X195747Y104787D01*
X195742Y104794D01*
X195749Y104800D01*
X195749Y107200D01*
X195713Y107247D01*
X195706Y107242D01*
X195700Y107249D01*
X187900Y107249D01*
X187853Y107213D01*
X187858Y107206D01*
X187851Y107200D01*
X187851Y104800D01*
X187887Y104753D01*
X187894Y104758D01*
X187900Y104751D01*
X195700Y104751D01*
X195747Y104787D01*
G37*
G36*
X154747Y104787D02*
X154747Y104787D01*
X154742Y104794D01*
X154749Y104800D01*
X154749Y107200D01*
X154713Y107247D01*
X154706Y107242D01*
X154700Y107249D01*
X146900Y107249D01*
X146853Y107213D01*
X146858Y107206D01*
X146851Y107200D01*
X146851Y104800D01*
X146887Y104753D01*
X146894Y104758D01*
X146900Y104751D01*
X154700Y104751D01*
X154747Y104787D01*
G37*
G36*
X154747Y99787D02*
X154747Y99787D01*
X154742Y99794D01*
X154749Y99800D01*
X154749Y102200D01*
X154713Y102247D01*
X154706Y102242D01*
X154700Y102249D01*
X146900Y102249D01*
X146853Y102213D01*
X146858Y102206D01*
X146851Y102200D01*
X146851Y99800D01*
X146887Y99753D01*
X146894Y99758D01*
X146900Y99751D01*
X154700Y99751D01*
X154747Y99787D01*
G37*
G36*
X195747Y99787D02*
X195747Y99787D01*
X195742Y99794D01*
X195749Y99800D01*
X195749Y102200D01*
X195713Y102247D01*
X195706Y102242D01*
X195700Y102249D01*
X187900Y102249D01*
X187853Y102213D01*
X187858Y102206D01*
X187851Y102200D01*
X187851Y99800D01*
X187887Y99753D01*
X187894Y99758D01*
X187900Y99751D01*
X195700Y99751D01*
X195747Y99787D01*
G37*
G36*
X195747Y94787D02*
X195747Y94787D01*
X195742Y94794D01*
X195749Y94800D01*
X195749Y97200D01*
X195713Y97247D01*
X195706Y97242D01*
X195700Y97249D01*
X187900Y97249D01*
X187853Y97213D01*
X187858Y97206D01*
X187851Y97200D01*
X187851Y94800D01*
X187887Y94753D01*
X187894Y94758D01*
X187900Y94751D01*
X195700Y94751D01*
X195747Y94787D01*
G37*
G36*
X154747Y94787D02*
X154747Y94787D01*
X154742Y94794D01*
X154749Y94800D01*
X154749Y97200D01*
X154713Y97247D01*
X154706Y97242D01*
X154700Y97249D01*
X146900Y97249D01*
X146853Y97213D01*
X146858Y97206D01*
X146851Y97200D01*
X146851Y94800D01*
X146887Y94753D01*
X146894Y94758D01*
X146900Y94751D01*
X154700Y94751D01*
X154747Y94787D01*
G37*
G36*
X195747Y89787D02*
X195747Y89787D01*
X195742Y89794D01*
X195749Y89800D01*
X195749Y92200D01*
X195713Y92247D01*
X195706Y92242D01*
X195700Y92249D01*
X187900Y92249D01*
X187853Y92213D01*
X187858Y92206D01*
X187851Y92200D01*
X187851Y89800D01*
X187887Y89753D01*
X187894Y89758D01*
X187900Y89751D01*
X195700Y89751D01*
X195747Y89787D01*
G37*
G36*
X154747Y89787D02*
X154747Y89787D01*
X154742Y89794D01*
X154749Y89800D01*
X154749Y92200D01*
X154713Y92247D01*
X154706Y92242D01*
X154700Y92249D01*
X146900Y92249D01*
X146853Y92213D01*
X146858Y92206D01*
X146851Y92200D01*
X146851Y89800D01*
X146887Y89753D01*
X146894Y89758D01*
X146900Y89751D01*
X154700Y89751D01*
X154747Y89787D01*
G37*
G36*
X170047Y79087D02*
X170047Y79087D01*
X170042Y79094D01*
X170049Y79100D01*
X170049Y86900D01*
X170013Y86947D01*
X170006Y86942D01*
X170000Y86949D01*
X167600Y86949D01*
X167553Y86913D01*
X167558Y86906D01*
X167551Y86900D01*
X167551Y79100D01*
X167587Y79053D01*
X167594Y79058D01*
X167600Y79051D01*
X170000Y79051D01*
X170047Y79087D01*
G37*
G36*
X180047Y79087D02*
X180047Y79087D01*
X180042Y79094D01*
X180049Y79100D01*
X180049Y86900D01*
X180013Y86947D01*
X180006Y86942D01*
X180000Y86949D01*
X177600Y86949D01*
X177553Y86913D01*
X177558Y86906D01*
X177551Y86900D01*
X177551Y79100D01*
X177587Y79053D01*
X177594Y79058D01*
X177600Y79051D01*
X180000Y79051D01*
X180047Y79087D01*
G37*
G36*
X160047Y79087D02*
X160047Y79087D01*
X160042Y79094D01*
X160049Y79100D01*
X160049Y86900D01*
X160013Y86947D01*
X160006Y86942D01*
X160000Y86949D01*
X157600Y86949D01*
X157553Y86913D01*
X157558Y86906D01*
X157551Y86900D01*
X157551Y79100D01*
X157587Y79053D01*
X157594Y79058D01*
X157600Y79051D01*
X160000Y79051D01*
X160047Y79087D01*
G37*
G36*
X175047Y79087D02*
X175047Y79087D01*
X175042Y79094D01*
X175049Y79100D01*
X175049Y86900D01*
X175013Y86947D01*
X175006Y86942D01*
X175000Y86949D01*
X172600Y86949D01*
X172553Y86913D01*
X172558Y86906D01*
X172551Y86900D01*
X172551Y79100D01*
X172587Y79053D01*
X172594Y79058D01*
X172600Y79051D01*
X175000Y79051D01*
X175047Y79087D01*
G37*
G36*
X165047Y79087D02*
X165047Y79087D01*
X165042Y79094D01*
X165049Y79100D01*
X165049Y86900D01*
X165013Y86947D01*
X165006Y86942D01*
X165000Y86949D01*
X162600Y86949D01*
X162553Y86913D01*
X162558Y86906D01*
X162551Y86900D01*
X162551Y79100D01*
X162587Y79053D01*
X162594Y79058D01*
X162600Y79051D01*
X165000Y79051D01*
X165047Y79087D01*
G37*
G36*
X185047Y79087D02*
X185047Y79087D01*
X185042Y79094D01*
X185049Y79100D01*
X185049Y86900D01*
X185013Y86947D01*
X185006Y86942D01*
X185000Y86949D01*
X182600Y86949D01*
X182553Y86913D01*
X182558Y86906D01*
X182551Y86900D01*
X182551Y79100D01*
X182587Y79053D01*
X182594Y79058D01*
X182600Y79051D01*
X185000Y79051D01*
X185047Y79087D01*
G37*
D10*
X92000Y198500D03*
X92000Y181500D03*
D11*
X228300Y75250D03*
X234800Y93650D03*
X241300Y93650D03*
X228300Y93650D03*
X234800Y75250D03*
X241300Y75250D03*
D12*
X146600Y57900D03*
X163600Y57900D03*
X226300Y59050D03*
X243300Y59050D03*
X226300Y109850D03*
X243300Y109850D03*
D10*
X209400Y92950D03*
X209400Y75950D03*
D13*
X265100Y95500D03*
X265100Y111500D03*
X306100Y111500D03*
X306100Y95500D03*
X306100Y73400D03*
X306100Y57400D03*
X265100Y57400D03*
X265100Y73400D03*
D14*
X502300Y223980D03*
X489600Y223980D03*
X476900Y223980D03*
X464200Y223980D03*
X451500Y223980D03*
X438800Y223980D03*
X426100Y223980D03*
X413400Y223980D03*
X400700Y223980D03*
X388000Y223980D03*
X375300Y223980D03*
X362600Y223980D03*
X349900Y223980D03*
X337200Y223980D03*
D15*
X322300Y198750D03*
X322300Y186050D03*
X322300Y173350D03*
X322300Y160650D03*
X322300Y147950D03*
X322300Y135250D03*
X322300Y122550D03*
X322300Y109850D03*
X322300Y97150D03*
X322300Y84450D03*
D14*
X337200Y59220D03*
X349900Y59220D03*
X362600Y59220D03*
X375300Y59220D03*
X388000Y59220D03*
X400700Y59220D03*
X413400Y59220D03*
X426100Y59220D03*
X438800Y59220D03*
X451500Y59220D03*
X464200Y59220D03*
X476900Y59220D03*
X489600Y59220D03*
X502300Y59220D03*
D16*
X425300Y141600D03*
D17*
X107200Y177799D03*
X116700Y177799D03*
X126200Y177799D03*
X126200Y203801D03*
X107200Y203801D03*
D18*
X3538460Y297500D03*
X3538460Y292500D03*
D19*
X3538460Y322250D03*
D20*
X3538460Y314500D03*
D18*
X3538460Y307500D03*
X3538460Y302500D03*
X3538460Y282500D03*
X3538460Y287500D03*
D19*
X3538460Y257750D03*
D20*
X3538460Y265500D03*
D18*
X3538460Y272500D03*
X3538460Y277500D03*
D12*
X3491500Y305000D03*
X3508500Y305000D03*
X3491500Y275000D03*
X3508500Y275000D03*
D21*
X3503000Y437500D03*
X3492000Y502500D03*
X3543000Y437500D03*
X3573000Y437500D03*
D22*
X233917Y148047D02*
X234697Y145462D01*
X234553Y145413D01*
X234411Y145360D01*
X234270Y145303D01*
X234131Y145243D01*
X233993Y145179D01*
X233857Y145112D01*
X233722Y145042D01*
X233590Y144968D01*
X233459Y144890D01*
X233331Y144809D01*
X233204Y144725D01*
X233080Y144638D01*
X232958Y144548D01*
X232838Y144454D01*
X232721Y144358D01*
X232606Y144259D01*
X232494Y144156D01*
X232385Y144051D01*
X232278Y143943D01*
X232174Y143833D01*
X232073Y143719D01*
X231974Y143604D01*
X231879Y143485D01*
X231787Y143365D01*
X231698Y143242D01*
X231612Y143117D01*
X231529Y142989D01*
X231450Y142860D01*
X231374Y142729D01*
X231301Y142595D01*
X231232Y142460D01*
X231166Y142323D01*
X231103Y142185D01*
X231045Y142045D01*
X230989Y141904D01*
X230938Y141761D01*
X230890Y141617D01*
X228297Y142370D01*
X228361Y142568D01*
X228429Y142764D01*
X228502Y142958D01*
X228580Y143151D01*
X228662Y143341D01*
X228749Y143530D01*
X228841Y143716D01*
X228937Y143900D01*
X229037Y144082D01*
X229142Y144261D01*
X229251Y144438D01*
X229364Y144612D01*
X229481Y144783D01*
X229602Y144952D01*
X229728Y145117D01*
X229857Y145280D01*
X229990Y145439D01*
X230127Y145595D01*
X230268Y145748D01*
X230412Y145897D01*
X230560Y146043D01*
X230711Y146185D01*
X230866Y146323D01*
X231024Y146458D01*
X231185Y146589D01*
X231349Y146716D01*
X231516Y146839D01*
X231686Y146958D01*
X231859Y147073D01*
X232035Y147184D01*
X232213Y147290D01*
X232394Y147392D01*
X232577Y147490D01*
X232762Y147583D01*
X232950Y147672D01*
X233140Y147757D01*
X233331Y147836D01*
X233525Y147912D01*
X233720Y147982D01*
X233917Y148048D01*
X233999Y147776D01*
X233809Y147712D01*
X233620Y147644D01*
X233433Y147571D01*
X233248Y147494D01*
X233065Y147413D01*
X232884Y147327D01*
X232705Y147237D01*
X232528Y147142D01*
X232353Y147043D01*
X232181Y146940D01*
X232012Y146833D01*
X231845Y146722D01*
X231680Y146607D01*
X231519Y146489D01*
X231360Y146366D01*
X231205Y146239D01*
X231052Y146109D01*
X230903Y145975D01*
X230757Y145838D01*
X230614Y145697D01*
X230474Y145553D01*
X230339Y145405D01*
X230206Y145255D01*
X230078Y145101D01*
X229953Y144944D01*
X229832Y144784D01*
X229714Y144622D01*
X229601Y144456D01*
X229492Y144288D01*
X229387Y144117D01*
X229285Y143944D01*
X229188Y143769D01*
X229096Y143591D01*
X229007Y143411D01*
X228923Y143229D01*
X228844Y143045D01*
X228768Y142859D01*
X228698Y142671D01*
X228631Y142482D01*
X228570Y142291D01*
X228842Y142212D01*
X228902Y142396D01*
X228966Y142578D01*
X229034Y142759D01*
X229107Y142939D01*
X229184Y143116D01*
X229265Y143292D01*
X229351Y143465D01*
X229440Y143637D01*
X229534Y143806D01*
X229631Y143973D01*
X229733Y144138D01*
X229838Y144300D01*
X229948Y144460D01*
X230061Y144617D01*
X230178Y144771D01*
X230298Y144922D01*
X230422Y145071D01*
X230550Y145216D01*
X230681Y145358D01*
X230816Y145497D01*
X230953Y145633D01*
X231094Y145766D01*
X231238Y145895D01*
X231386Y146020D01*
X231536Y146143D01*
X231689Y146261D01*
X231844Y146376D01*
X232003Y146487D01*
X232164Y146594D01*
X232328Y146697D01*
X232494Y146796D01*
X232662Y146892D01*
X232833Y146983D01*
X233005Y147070D01*
X233180Y147153D01*
X233357Y147232D01*
X233535Y147306D01*
X233716Y147377D01*
X233898Y147442D01*
X234081Y147504D01*
X234163Y147232D01*
X233982Y147171D01*
X233802Y147106D01*
X233624Y147036D01*
X233448Y146962D01*
X233274Y146883D01*
X233101Y146801D01*
X232931Y146714D01*
X232763Y146623D01*
X232597Y146528D01*
X232433Y146429D01*
X232272Y146325D01*
X232114Y146218D01*
X231958Y146107D01*
X231805Y145993D01*
X231655Y145874D01*
X231508Y145752D01*
X231364Y145627D01*
X231223Y145498D01*
X231085Y145365D01*
X230951Y145229D01*
X230820Y145090D01*
X230692Y144948D01*
X230568Y144802D01*
X230447Y144654D01*
X230330Y144503D01*
X230217Y144349D01*
X230108Y144192D01*
X230002Y144032D01*
X229901Y143870D01*
X229803Y143706D01*
X229710Y143539D01*
X229621Y143370D01*
X229536Y143199D01*
X229455Y143026D01*
X229378Y142850D01*
X229306Y142673D01*
X229238Y142495D01*
X229174Y142314D01*
X229115Y142133D01*
X229388Y142053D01*
X229445Y142228D01*
X229506Y142402D01*
X229572Y142573D01*
X229641Y142744D01*
X229715Y142912D01*
X229793Y143079D01*
X229875Y143243D01*
X229961Y143406D01*
X230051Y143566D01*
X230145Y143725D01*
X230243Y143881D01*
X230344Y144034D01*
X230449Y144185D01*
X230558Y144333D01*
X230671Y144479D01*
X230787Y144621D01*
X230906Y144761D01*
X231029Y144898D01*
X231155Y145032D01*
X231284Y145163D01*
X231417Y145290D01*
X231553Y145414D01*
X231691Y145535D01*
X231833Y145653D01*
X231977Y145767D01*
X232124Y145877D01*
X232274Y145984D01*
X232427Y146087D01*
X232581Y146186D01*
X232739Y146282D01*
X232898Y146373D01*
X233060Y146461D01*
X233224Y146544D01*
X233390Y146624D01*
X233557Y146700D01*
X233727Y146771D01*
X233898Y146838D01*
X234071Y146901D01*
X234245Y146960D01*
X234327Y146688D01*
X234160Y146632D01*
X233994Y146571D01*
X233829Y146506D01*
X233667Y146437D01*
X233505Y146365D01*
X233346Y146288D01*
X233189Y146208D01*
X233034Y146124D01*
X232880Y146035D01*
X232729Y145944D01*
X232581Y145848D01*
X232434Y145749D01*
X232290Y145647D01*
X232149Y145541D01*
X232010Y145431D01*
X231874Y145318D01*
X231741Y145202D01*
X231611Y145083D01*
X231484Y144960D01*
X231359Y144835D01*
X231238Y144706D01*
X231120Y144575D01*
X231005Y144440D01*
X230894Y144303D01*
X230786Y144163D01*
X230681Y144021D01*
X230580Y143876D01*
X230483Y143729D01*
X230389Y143579D01*
X230299Y143427D01*
X230212Y143273D01*
X230129Y143117D01*
X230051Y142959D01*
X229976Y142799D01*
X229905Y142637D01*
X229837Y142474D01*
X229774Y142309D01*
X229715Y142142D01*
X229661Y141974D01*
X229933Y141895D01*
X229986Y142056D01*
X230043Y142215D01*
X230103Y142374D01*
X230168Y142530D01*
X230236Y142686D01*
X230308Y142839D01*
X230384Y142991D01*
X230463Y143140D01*
X230546Y143288D01*
X230633Y143434D01*
X230723Y143577D01*
X230816Y143718D01*
X230913Y143857D01*
X231014Y143994D01*
X231117Y144128D01*
X231224Y144259D01*
X231334Y144388D01*
X231448Y144514D01*
X231564Y144638D01*
X231683Y144758D01*
X231805Y144875D01*
X231930Y144990D01*
X232058Y145101D01*
X232188Y145210D01*
X232321Y145315D01*
X232457Y145416D01*
X232595Y145515D01*
X232735Y145610D01*
X232877Y145701D01*
X233022Y145789D01*
X233169Y145874D01*
X233318Y145955D01*
X233469Y146032D01*
X233621Y146106D01*
X233776Y146175D01*
X233932Y146241D01*
X234090Y146303D01*
X234249Y146362D01*
X234409Y146416D01*
X234491Y146144D01*
X234338Y146092D01*
X234185Y146036D01*
X234035Y145976D01*
X233885Y145913D01*
X233737Y145846D01*
X233591Y145776D01*
X233447Y145702D01*
X233304Y145624D01*
X233164Y145543D01*
X233025Y145459D01*
X232889Y145371D01*
X232755Y145280D01*
X232623Y145186D01*
X232493Y145089D01*
X232366Y144988D01*
X232241Y144884D01*
X232119Y144778D01*
X231999Y144668D01*
X231882Y144556D01*
X231768Y144440D01*
X231657Y144322D01*
X231548Y144202D01*
X231443Y144078D01*
X231341Y143953D01*
X231241Y143824D01*
X231145Y143694D01*
X231052Y143561D01*
X230963Y143425D01*
X230877Y143288D01*
X230794Y143149D01*
X230714Y143007D01*
X230638Y142864D01*
X230565Y142719D01*
X230496Y142572D01*
X230431Y142424D01*
X230369Y142274D01*
X230311Y142122D01*
X230257Y141970D01*
X230206Y141815D01*
X230479Y141736D01*
X230529Y141887D01*
X230582Y142037D01*
X230640Y142185D01*
X230701Y142332D01*
X230765Y142477D01*
X230834Y142621D01*
X230905Y142763D01*
X230981Y142903D01*
X231060Y143041D01*
X231142Y143177D01*
X231227Y143311D01*
X231316Y143443D01*
X231408Y143573D01*
X231504Y143700D01*
X231602Y143825D01*
X231704Y143947D01*
X231809Y144067D01*
X231916Y144184D01*
X232027Y144299D01*
X232140Y144410D01*
X232256Y144519D01*
X232375Y144625D01*
X232496Y144728D01*
X232620Y144827D01*
X232746Y144924D01*
X232875Y145018D01*
X233006Y145108D01*
X233139Y145195D01*
X233274Y145278D01*
X233412Y145359D01*
X233551Y145435D01*
X233692Y145509D01*
X233835Y145578D01*
X233980Y145644D01*
X234126Y145707D01*
X234274Y145766D01*
X234423Y145821D01*
X234573Y145872D01*
X234655Y145600D01*
X234512Y145551D01*
X234370Y145498D01*
X234229Y145442D01*
X234090Y145383D01*
X233952Y145319D01*
X233816Y145253D01*
X233681Y145183D01*
X233548Y145110D01*
X233417Y145033D01*
X233289Y144953D01*
X233162Y144870D01*
X233037Y144784D01*
X232914Y144695D01*
X232794Y144603D01*
X232676Y144508D01*
X232560Y144410D01*
X232447Y144309D01*
X232336Y144205D01*
X232228Y144099D01*
X232123Y143990D01*
X232021Y143878D01*
X231921Y143764D01*
X231824Y143647D01*
X231730Y143528D01*
X231639Y143407D01*
X231551Y143284D01*
X231466Y143158D01*
X231385Y143030D01*
X231306Y142900D01*
X231231Y142769D01*
X231159Y142635D01*
X231091Y142500D01*
X231025Y142363D01*
X230964Y142225D01*
X230905Y142085D01*
X230851Y141943D01*
X230799Y141801D01*
X230752Y141657D01*
X244347Y142383D02*
X241762Y141603D01*
X241713Y141747D01*
X241660Y141889D01*
X241603Y142030D01*
X241543Y142169D01*
X241479Y142307D01*
X241412Y142443D01*
X241342Y142578D01*
X241268Y142710D01*
X241190Y142841D01*
X241109Y142969D01*
X241025Y143096D01*
X240938Y143220D01*
X240848Y143342D01*
X240754Y143462D01*
X240658Y143579D01*
X240559Y143694D01*
X240456Y143806D01*
X240351Y143915D01*
X240243Y144022D01*
X240133Y144126D01*
X240019Y144227D01*
X239904Y144326D01*
X239785Y144421D01*
X239665Y144513D01*
X239542Y144602D01*
X239417Y144688D01*
X239289Y144771D01*
X239160Y144850D01*
X239029Y144926D01*
X238895Y144999D01*
X238760Y145068D01*
X238623Y145134D01*
X238485Y145197D01*
X238345Y145255D01*
X238204Y145311D01*
X238061Y145362D01*
X237917Y145410D01*
X238670Y148003D01*
X238868Y147939D01*
X239064Y147871D01*
X239258Y147798D01*
X239451Y147720D01*
X239641Y147638D01*
X239830Y147551D01*
X240016Y147459D01*
X240200Y147363D01*
X240382Y147263D01*
X240561Y147158D01*
X240738Y147049D01*
X240912Y146936D01*
X241083Y146819D01*
X241252Y146698D01*
X241417Y146572D01*
X241580Y146443D01*
X241739Y146310D01*
X241895Y146173D01*
X242048Y146032D01*
X242197Y145888D01*
X242343Y145740D01*
X242485Y145589D01*
X242623Y145434D01*
X242758Y145276D01*
X242889Y145115D01*
X243016Y144951D01*
X243139Y144784D01*
X243258Y144614D01*
X243373Y144441D01*
X243484Y144265D01*
X243590Y144087D01*
X243692Y143906D01*
X243790Y143723D01*
X243883Y143538D01*
X243972Y143350D01*
X244057Y143160D01*
X244136Y142969D01*
X244212Y142775D01*
X244282Y142580D01*
X244348Y142383D01*
X244076Y142301D01*
X244012Y142491D01*
X243944Y142680D01*
X243871Y142867D01*
X243794Y143052D01*
X243713Y143235D01*
X243627Y143416D01*
X243537Y143595D01*
X243442Y143772D01*
X243343Y143947D01*
X243240Y144119D01*
X243133Y144288D01*
X243022Y144455D01*
X242907Y144620D01*
X242789Y144781D01*
X242666Y144940D01*
X242539Y145095D01*
X242409Y145248D01*
X242275Y145397D01*
X242138Y145543D01*
X241997Y145686D01*
X241853Y145826D01*
X241705Y145961D01*
X241555Y146094D01*
X241401Y146222D01*
X241244Y146347D01*
X241084Y146468D01*
X240922Y146586D01*
X240756Y146699D01*
X240588Y146808D01*
X240417Y146913D01*
X240244Y147015D01*
X240069Y147112D01*
X239891Y147204D01*
X239711Y147293D01*
X239529Y147377D01*
X239345Y147456D01*
X239159Y147532D01*
X238971Y147602D01*
X238782Y147669D01*
X238591Y147730D01*
X238512Y147458D01*
X238696Y147398D01*
X238878Y147334D01*
X239059Y147266D01*
X239239Y147193D01*
X239416Y147116D01*
X239592Y147035D01*
X239765Y146949D01*
X239937Y146860D01*
X240106Y146766D01*
X240273Y146669D01*
X240438Y146567D01*
X240600Y146462D01*
X240760Y146352D01*
X240917Y146239D01*
X241071Y146122D01*
X241222Y146002D01*
X241371Y145878D01*
X241516Y145750D01*
X241658Y145619D01*
X241797Y145484D01*
X241933Y145347D01*
X242066Y145206D01*
X242195Y145062D01*
X242320Y144914D01*
X242443Y144764D01*
X242561Y144611D01*
X242676Y144456D01*
X242787Y144297D01*
X242894Y144136D01*
X242997Y143972D01*
X243096Y143806D01*
X243192Y143638D01*
X243283Y143467D01*
X243370Y143295D01*
X243453Y143120D01*
X243532Y142943D01*
X243606Y142765D01*
X243677Y142584D01*
X243742Y142402D01*
X243804Y142219D01*
X243532Y142137D01*
X243471Y142318D01*
X243406Y142498D01*
X243336Y142676D01*
X243262Y142852D01*
X243183Y143026D01*
X243101Y143199D01*
X243014Y143369D01*
X242923Y143537D01*
X242828Y143703D01*
X242729Y143867D01*
X242625Y144028D01*
X242518Y144186D01*
X242407Y144342D01*
X242293Y144495D01*
X242174Y144645D01*
X242052Y144792D01*
X241927Y144936D01*
X241798Y145077D01*
X241665Y145215D01*
X241529Y145349D01*
X241390Y145480D01*
X241248Y145608D01*
X241102Y145732D01*
X240954Y145853D01*
X240803Y145970D01*
X240649Y146083D01*
X240492Y146192D01*
X240332Y146298D01*
X240170Y146399D01*
X240006Y146497D01*
X239839Y146590D01*
X239670Y146679D01*
X239499Y146764D01*
X239326Y146845D01*
X239150Y146922D01*
X238973Y146994D01*
X238795Y147062D01*
X238614Y147126D01*
X238433Y147185D01*
X238353Y146912D01*
X238528Y146855D01*
X238702Y146794D01*
X238873Y146728D01*
X239044Y146659D01*
X239212Y146585D01*
X239379Y146507D01*
X239543Y146425D01*
X239706Y146339D01*
X239866Y146249D01*
X240025Y146155D01*
X240181Y146057D01*
X240334Y145956D01*
X240485Y145851D01*
X240633Y145742D01*
X240779Y145629D01*
X240921Y145513D01*
X241061Y145394D01*
X241198Y145271D01*
X241332Y145145D01*
X241463Y145016D01*
X241590Y144883D01*
X241714Y144747D01*
X241835Y144609D01*
X241953Y144467D01*
X242067Y144323D01*
X242177Y144176D01*
X242284Y144026D01*
X242387Y143873D01*
X242486Y143719D01*
X242582Y143561D01*
X242673Y143402D01*
X242761Y143240D01*
X242844Y143076D01*
X242924Y142910D01*
X243000Y142743D01*
X243071Y142573D01*
X243138Y142402D01*
X243201Y142229D01*
X243260Y142055D01*
X242988Y141973D01*
X242932Y142140D01*
X242871Y142306D01*
X242806Y142471D01*
X242737Y142633D01*
X242665Y142795D01*
X242588Y142954D01*
X242508Y143111D01*
X242424Y143266D01*
X242335Y143420D01*
X242244Y143571D01*
X242148Y143719D01*
X242049Y143866D01*
X241947Y144010D01*
X241841Y144151D01*
X241731Y144290D01*
X241618Y144426D01*
X241502Y144559D01*
X241383Y144689D01*
X241260Y144816D01*
X241135Y144941D01*
X241006Y145062D01*
X240875Y145180D01*
X240740Y145295D01*
X240603Y145406D01*
X240463Y145514D01*
X240321Y145619D01*
X240176Y145720D01*
X240029Y145817D01*
X239879Y145911D01*
X239727Y146001D01*
X239573Y146088D01*
X239417Y146171D01*
X239259Y146249D01*
X239099Y146324D01*
X238937Y146395D01*
X238774Y146463D01*
X238609Y146526D01*
X238442Y146585D01*
X238274Y146639D01*
X238195Y146367D01*
X238356Y146314D01*
X238515Y146257D01*
X238674Y146197D01*
X238830Y146132D01*
X238986Y146064D01*
X239139Y145992D01*
X239291Y145916D01*
X239440Y145837D01*
X239588Y145754D01*
X239734Y145667D01*
X239877Y145577D01*
X240018Y145484D01*
X240157Y145387D01*
X240294Y145286D01*
X240428Y145183D01*
X240559Y145076D01*
X240688Y144966D01*
X240814Y144852D01*
X240938Y144736D01*
X241058Y144617D01*
X241175Y144495D01*
X241290Y144370D01*
X241401Y144242D01*
X241510Y144112D01*
X241615Y143979D01*
X241716Y143843D01*
X241815Y143705D01*
X241910Y143565D01*
X242001Y143423D01*
X242089Y143278D01*
X242174Y143131D01*
X242255Y142982D01*
X242332Y142831D01*
X242406Y142679D01*
X242475Y142524D01*
X242541Y142368D01*
X242603Y142210D01*
X242662Y142051D01*
X242716Y141891D01*
X242444Y141809D01*
X242392Y141962D01*
X242336Y142115D01*
X242276Y142265D01*
X242213Y142415D01*
X242146Y142563D01*
X242076Y142709D01*
X242002Y142853D01*
X241924Y142996D01*
X241843Y143136D01*
X241759Y143275D01*
X241671Y143411D01*
X241580Y143545D01*
X241486Y143677D01*
X241389Y143807D01*
X241288Y143934D01*
X241184Y144059D01*
X241078Y144181D01*
X240968Y144301D01*
X240856Y144418D01*
X240740Y144532D01*
X240622Y144643D01*
X240502Y144752D01*
X240378Y144857D01*
X240253Y144959D01*
X240124Y145059D01*
X239994Y145155D01*
X239861Y145248D01*
X239725Y145337D01*
X239588Y145423D01*
X239449Y145506D01*
X239307Y145586D01*
X239164Y145662D01*
X239019Y145735D01*
X238872Y145804D01*
X238724Y145869D01*
X238574Y145931D01*
X238422Y145989D01*
X238270Y146043D01*
X238115Y146094D01*
X238036Y145821D01*
X238187Y145771D01*
X238337Y145718D01*
X238485Y145660D01*
X238632Y145599D01*
X238777Y145535D01*
X238921Y145466D01*
X239063Y145395D01*
X239203Y145319D01*
X239341Y145240D01*
X239477Y145158D01*
X239611Y145073D01*
X239743Y144984D01*
X239873Y144892D01*
X240000Y144796D01*
X240125Y144698D01*
X240247Y144596D01*
X240367Y144491D01*
X240484Y144384D01*
X240599Y144273D01*
X240710Y144160D01*
X240819Y144044D01*
X240925Y143925D01*
X241028Y143804D01*
X241127Y143680D01*
X241224Y143554D01*
X241318Y143425D01*
X241408Y143294D01*
X241495Y143161D01*
X241578Y143026D01*
X241659Y142888D01*
X241735Y142749D01*
X241809Y142608D01*
X241878Y142465D01*
X241944Y142320D01*
X242007Y142174D01*
X242066Y142026D01*
X242121Y141877D01*
X242172Y141727D01*
X241900Y141645D01*
X241851Y141788D01*
X241798Y141930D01*
X241742Y142071D01*
X241683Y142210D01*
X241619Y142348D01*
X241553Y142484D01*
X241483Y142619D01*
X241410Y142752D01*
X241333Y142883D01*
X241253Y143011D01*
X241170Y143138D01*
X241084Y143263D01*
X240995Y143386D01*
X240903Y143506D01*
X240808Y143624D01*
X240710Y143740D01*
X240609Y143853D01*
X240505Y143964D01*
X240399Y144072D01*
X240290Y144177D01*
X240178Y144279D01*
X240064Y144379D01*
X239947Y144476D01*
X239828Y144570D01*
X239707Y144661D01*
X239584Y144749D01*
X239458Y144834D01*
X239330Y144915D01*
X239200Y144994D01*
X239069Y145069D01*
X238935Y145141D01*
X238800Y145209D01*
X238663Y145275D01*
X238525Y145336D01*
X238385Y145395D01*
X238243Y145449D01*
X238101Y145501D01*
X237957Y145548D01*
X228253Y137617D02*
X230838Y138397D01*
X230887Y138253D01*
X230940Y138111D01*
X230997Y137970D01*
X231057Y137831D01*
X231121Y137693D01*
X231188Y137557D01*
X231258Y137422D01*
X231332Y137290D01*
X231410Y137159D01*
X231491Y137031D01*
X231575Y136904D01*
X231662Y136780D01*
X231752Y136658D01*
X231846Y136538D01*
X231942Y136421D01*
X232041Y136306D01*
X232144Y136194D01*
X232249Y136085D01*
X232357Y135978D01*
X232467Y135874D01*
X232581Y135773D01*
X232696Y135674D01*
X232815Y135579D01*
X232935Y135487D01*
X233058Y135398D01*
X233183Y135312D01*
X233311Y135229D01*
X233440Y135150D01*
X233571Y135074D01*
X233705Y135001D01*
X233840Y134932D01*
X233977Y134866D01*
X234115Y134803D01*
X234255Y134745D01*
X234396Y134689D01*
X234539Y134638D01*
X234683Y134590D01*
X233930Y131997D01*
X233732Y132061D01*
X233536Y132129D01*
X233342Y132202D01*
X233149Y132280D01*
X232959Y132362D01*
X232770Y132449D01*
X232584Y132541D01*
X232400Y132637D01*
X232218Y132737D01*
X232039Y132842D01*
X231862Y132951D01*
X231688Y133064D01*
X231517Y133181D01*
X231348Y133302D01*
X231183Y133428D01*
X231020Y133557D01*
X230861Y133690D01*
X230705Y133827D01*
X230552Y133968D01*
X230403Y134112D01*
X230257Y134260D01*
X230115Y134411D01*
X229977Y134566D01*
X229842Y134724D01*
X229711Y134885D01*
X229584Y135049D01*
X229461Y135216D01*
X229342Y135386D01*
X229227Y135559D01*
X229116Y135735D01*
X229010Y135913D01*
X228908Y136094D01*
X228810Y136277D01*
X228717Y136462D01*
X228628Y136650D01*
X228543Y136840D01*
X228464Y137031D01*
X228388Y137225D01*
X228318Y137420D01*
X228252Y137617D01*
X228524Y137699D01*
X228588Y137509D01*
X228656Y137320D01*
X228729Y137133D01*
X228806Y136948D01*
X228887Y136765D01*
X228973Y136584D01*
X229063Y136405D01*
X229158Y136228D01*
X229257Y136053D01*
X229360Y135881D01*
X229467Y135712D01*
X229578Y135545D01*
X229693Y135380D01*
X229811Y135219D01*
X229934Y135060D01*
X230061Y134905D01*
X230191Y134752D01*
X230325Y134603D01*
X230462Y134457D01*
X230603Y134314D01*
X230747Y134174D01*
X230895Y134039D01*
X231045Y133906D01*
X231199Y133778D01*
X231356Y133653D01*
X231516Y133532D01*
X231678Y133414D01*
X231844Y133301D01*
X232012Y133192D01*
X232183Y133087D01*
X232356Y132985D01*
X232531Y132888D01*
X232709Y132796D01*
X232889Y132707D01*
X233071Y132623D01*
X233255Y132544D01*
X233441Y132468D01*
X233629Y132398D01*
X233818Y132331D01*
X234009Y132270D01*
X234088Y132542D01*
X233904Y132602D01*
X233722Y132666D01*
X233541Y132734D01*
X233361Y132807D01*
X233184Y132884D01*
X233008Y132965D01*
X232835Y133051D01*
X232663Y133140D01*
X232494Y133234D01*
X232327Y133331D01*
X232162Y133433D01*
X232000Y133538D01*
X231840Y133648D01*
X231683Y133761D01*
X231529Y133878D01*
X231378Y133998D01*
X231229Y134122D01*
X231084Y134250D01*
X230942Y134381D01*
X230803Y134516D01*
X230667Y134653D01*
X230534Y134794D01*
X230405Y134938D01*
X230280Y135086D01*
X230157Y135236D01*
X230039Y135389D01*
X229924Y135544D01*
X229813Y135703D01*
X229706Y135864D01*
X229603Y136028D01*
X229504Y136194D01*
X229408Y136362D01*
X229317Y136533D01*
X229230Y136705D01*
X229147Y136880D01*
X229068Y137057D01*
X228994Y137235D01*
X228923Y137416D01*
X228858Y137598D01*
X228796Y137781D01*
X229068Y137863D01*
X229129Y137682D01*
X229194Y137502D01*
X229264Y137324D01*
X229338Y137148D01*
X229417Y136974D01*
X229499Y136801D01*
X229586Y136631D01*
X229677Y136463D01*
X229772Y136297D01*
X229871Y136133D01*
X229975Y135972D01*
X230082Y135814D01*
X230193Y135658D01*
X230307Y135505D01*
X230426Y135355D01*
X230548Y135208D01*
X230673Y135064D01*
X230802Y134923D01*
X230935Y134785D01*
X231071Y134651D01*
X231210Y134520D01*
X231352Y134392D01*
X231498Y134268D01*
X231646Y134147D01*
X231797Y134030D01*
X231951Y133917D01*
X232108Y133808D01*
X232268Y133702D01*
X232430Y133601D01*
X232594Y133503D01*
X232761Y133410D01*
X232930Y133321D01*
X233101Y133236D01*
X233274Y133155D01*
X233450Y133078D01*
X233627Y133006D01*
X233805Y132938D01*
X233986Y132874D01*
X234167Y132815D01*
X234247Y133088D01*
X234072Y133145D01*
X233898Y133206D01*
X233727Y133272D01*
X233556Y133341D01*
X233388Y133415D01*
X233221Y133493D01*
X233057Y133575D01*
X232894Y133661D01*
X232734Y133751D01*
X232575Y133845D01*
X232419Y133943D01*
X232266Y134044D01*
X232115Y134149D01*
X231967Y134258D01*
X231821Y134371D01*
X231679Y134487D01*
X231539Y134606D01*
X231402Y134729D01*
X231268Y134855D01*
X231137Y134984D01*
X231010Y135117D01*
X230886Y135253D01*
X230765Y135391D01*
X230647Y135533D01*
X230533Y135677D01*
X230423Y135824D01*
X230316Y135974D01*
X230213Y136127D01*
X230114Y136281D01*
X230018Y136439D01*
X229927Y136598D01*
X229839Y136760D01*
X229756Y136924D01*
X229676Y137090D01*
X229600Y137257D01*
X229529Y137427D01*
X229462Y137598D01*
X229399Y137771D01*
X229340Y137945D01*
X229612Y138027D01*
X229668Y137860D01*
X229729Y137694D01*
X229794Y137529D01*
X229863Y137367D01*
X229935Y137205D01*
X230012Y137046D01*
X230092Y136889D01*
X230176Y136734D01*
X230265Y136580D01*
X230356Y136429D01*
X230452Y136281D01*
X230551Y136134D01*
X230653Y135990D01*
X230759Y135849D01*
X230869Y135710D01*
X230982Y135574D01*
X231098Y135441D01*
X231217Y135311D01*
X231340Y135184D01*
X231465Y135059D01*
X231594Y134938D01*
X231725Y134820D01*
X231860Y134705D01*
X231997Y134594D01*
X232137Y134486D01*
X232279Y134381D01*
X232424Y134280D01*
X232571Y134183D01*
X232721Y134089D01*
X232873Y133999D01*
X233027Y133912D01*
X233183Y133829D01*
X233341Y133751D01*
X233501Y133676D01*
X233663Y133605D01*
X233826Y133537D01*
X233991Y133474D01*
X234158Y133415D01*
X234326Y133361D01*
X234405Y133633D01*
X234244Y133686D01*
X234085Y133743D01*
X233926Y133803D01*
X233770Y133868D01*
X233614Y133936D01*
X233461Y134008D01*
X233309Y134084D01*
X233160Y134163D01*
X233012Y134246D01*
X232866Y134333D01*
X232723Y134423D01*
X232582Y134516D01*
X232443Y134613D01*
X232306Y134714D01*
X232172Y134817D01*
X232041Y134924D01*
X231912Y135034D01*
X231786Y135148D01*
X231662Y135264D01*
X231542Y135383D01*
X231425Y135505D01*
X231310Y135630D01*
X231199Y135758D01*
X231090Y135888D01*
X230985Y136021D01*
X230884Y136157D01*
X230785Y136295D01*
X230690Y136435D01*
X230599Y136577D01*
X230511Y136722D01*
X230426Y136869D01*
X230345Y137018D01*
X230268Y137169D01*
X230194Y137321D01*
X230125Y137476D01*
X230059Y137632D01*
X229997Y137790D01*
X229938Y137949D01*
X229884Y138109D01*
X230156Y138191D01*
X230208Y138038D01*
X230264Y137885D01*
X230324Y137735D01*
X230387Y137585D01*
X230454Y137437D01*
X230524Y137291D01*
X230598Y137147D01*
X230676Y137004D01*
X230757Y136864D01*
X230841Y136725D01*
X230929Y136589D01*
X231020Y136455D01*
X231114Y136323D01*
X231211Y136193D01*
X231312Y136066D01*
X231416Y135941D01*
X231522Y135819D01*
X231632Y135699D01*
X231744Y135582D01*
X231860Y135468D01*
X231978Y135357D01*
X232098Y135248D01*
X232222Y135143D01*
X232347Y135041D01*
X232476Y134941D01*
X232606Y134845D01*
X232739Y134752D01*
X232875Y134663D01*
X233012Y134577D01*
X233151Y134494D01*
X233293Y134414D01*
X233436Y134338D01*
X233581Y134265D01*
X233728Y134196D01*
X233876Y134131D01*
X234026Y134069D01*
X234178Y134011D01*
X234330Y133957D01*
X234485Y133906D01*
X234564Y134179D01*
X234413Y134229D01*
X234263Y134282D01*
X234115Y134340D01*
X233968Y134401D01*
X233823Y134465D01*
X233679Y134534D01*
X233537Y134605D01*
X233397Y134681D01*
X233259Y134760D01*
X233123Y134842D01*
X232989Y134927D01*
X232857Y135016D01*
X232727Y135108D01*
X232600Y135204D01*
X232475Y135302D01*
X232353Y135404D01*
X232233Y135509D01*
X232116Y135616D01*
X232001Y135727D01*
X231890Y135840D01*
X231781Y135956D01*
X231675Y136075D01*
X231572Y136196D01*
X231473Y136320D01*
X231376Y136446D01*
X231282Y136575D01*
X231192Y136706D01*
X231105Y136839D01*
X231022Y136974D01*
X230941Y137112D01*
X230865Y137251D01*
X230791Y137392D01*
X230722Y137535D01*
X230656Y137680D01*
X230593Y137826D01*
X230534Y137974D01*
X230479Y138123D01*
X230428Y138273D01*
X230700Y138355D01*
X230749Y138212D01*
X230802Y138070D01*
X230858Y137929D01*
X230917Y137790D01*
X230981Y137652D01*
X231047Y137516D01*
X231117Y137381D01*
X231190Y137248D01*
X231267Y137117D01*
X231347Y136989D01*
X231430Y136862D01*
X231516Y136737D01*
X231605Y136614D01*
X231697Y136494D01*
X231792Y136376D01*
X231890Y136260D01*
X231991Y136147D01*
X232095Y136036D01*
X232201Y135928D01*
X232310Y135823D01*
X232422Y135721D01*
X232536Y135621D01*
X232653Y135524D01*
X232772Y135430D01*
X232893Y135339D01*
X233016Y135251D01*
X233142Y135166D01*
X233270Y135085D01*
X233400Y135006D01*
X233531Y134931D01*
X233665Y134859D01*
X233800Y134791D01*
X233937Y134725D01*
X234075Y134664D01*
X234215Y134605D01*
X234357Y134551D01*
X234499Y134499D01*
X234643Y134452D01*
X238683Y131953D02*
X237903Y134538D01*
X238047Y134587D01*
X238189Y134640D01*
X238330Y134697D01*
X238469Y134757D01*
X238607Y134821D01*
X238743Y134888D01*
X238878Y134958D01*
X239010Y135032D01*
X239141Y135110D01*
X239269Y135191D01*
X239396Y135275D01*
X239520Y135362D01*
X239642Y135452D01*
X239762Y135546D01*
X239879Y135642D01*
X239994Y135741D01*
X240106Y135844D01*
X240215Y135949D01*
X240322Y136057D01*
X240426Y136167D01*
X240527Y136281D01*
X240626Y136396D01*
X240721Y136515D01*
X240813Y136635D01*
X240902Y136758D01*
X240988Y136883D01*
X241071Y137011D01*
X241150Y137140D01*
X241226Y137271D01*
X241299Y137405D01*
X241368Y137540D01*
X241434Y137677D01*
X241497Y137815D01*
X241555Y137955D01*
X241611Y138096D01*
X241662Y138239D01*
X241710Y138383D01*
X244303Y137630D01*
X244239Y137432D01*
X244171Y137236D01*
X244098Y137042D01*
X244020Y136849D01*
X243938Y136659D01*
X243851Y136470D01*
X243759Y136284D01*
X243663Y136100D01*
X243563Y135918D01*
X243458Y135739D01*
X243349Y135562D01*
X243236Y135388D01*
X243119Y135217D01*
X242998Y135048D01*
X242872Y134883D01*
X242743Y134720D01*
X242610Y134561D01*
X242473Y134405D01*
X242332Y134252D01*
X242188Y134103D01*
X242040Y133957D01*
X241889Y133815D01*
X241734Y133677D01*
X241576Y133542D01*
X241415Y133411D01*
X241251Y133284D01*
X241084Y133161D01*
X240914Y133042D01*
X240741Y132927D01*
X240565Y132816D01*
X240387Y132710D01*
X240206Y132608D01*
X240023Y132510D01*
X239838Y132417D01*
X239650Y132328D01*
X239460Y132243D01*
X239269Y132164D01*
X239075Y132088D01*
X238880Y132018D01*
X238683Y131952D01*
X238601Y132224D01*
X238791Y132288D01*
X238980Y132356D01*
X239167Y132429D01*
X239352Y132506D01*
X239535Y132587D01*
X239716Y132673D01*
X239895Y132763D01*
X240072Y132858D01*
X240247Y132957D01*
X240419Y133060D01*
X240588Y133167D01*
X240755Y133278D01*
X240920Y133393D01*
X241081Y133511D01*
X241240Y133634D01*
X241395Y133761D01*
X241548Y133891D01*
X241697Y134025D01*
X241843Y134162D01*
X241986Y134303D01*
X242126Y134447D01*
X242261Y134595D01*
X242394Y134745D01*
X242522Y134899D01*
X242647Y135056D01*
X242768Y135216D01*
X242886Y135378D01*
X242999Y135544D01*
X243108Y135712D01*
X243213Y135883D01*
X243315Y136056D01*
X243412Y136231D01*
X243504Y136409D01*
X243593Y136589D01*
X243677Y136771D01*
X243756Y136955D01*
X243832Y137141D01*
X243902Y137329D01*
X243969Y137518D01*
X244030Y137709D01*
X243758Y137788D01*
X243698Y137604D01*
X243634Y137422D01*
X243566Y137241D01*
X243493Y137061D01*
X243416Y136884D01*
X243335Y136708D01*
X243249Y136535D01*
X243160Y136363D01*
X243066Y136194D01*
X242969Y136027D01*
X242867Y135862D01*
X242762Y135700D01*
X242652Y135540D01*
X242539Y135383D01*
X242422Y135229D01*
X242302Y135078D01*
X242178Y134929D01*
X242050Y134784D01*
X241919Y134642D01*
X241784Y134503D01*
X241647Y134367D01*
X241506Y134234D01*
X241362Y134105D01*
X241214Y133980D01*
X241064Y133857D01*
X240911Y133739D01*
X240756Y133624D01*
X240597Y133513D01*
X240436Y133406D01*
X240272Y133303D01*
X240106Y133204D01*
X239938Y133108D01*
X239767Y133017D01*
X239595Y132930D01*
X239420Y132847D01*
X239243Y132768D01*
X239065Y132694D01*
X238884Y132623D01*
X238702Y132558D01*
X238519Y132496D01*
X238437Y132768D01*
X238618Y132829D01*
X238798Y132894D01*
X238976Y132964D01*
X239152Y133038D01*
X239326Y133117D01*
X239499Y133199D01*
X239669Y133286D01*
X239837Y133377D01*
X240003Y133472D01*
X240167Y133571D01*
X240328Y133675D01*
X240486Y133782D01*
X240642Y133893D01*
X240795Y134007D01*
X240945Y134126D01*
X241092Y134248D01*
X241236Y134373D01*
X241377Y134502D01*
X241515Y134635D01*
X241649Y134771D01*
X241780Y134910D01*
X241908Y135052D01*
X242032Y135198D01*
X242153Y135346D01*
X242270Y135497D01*
X242383Y135651D01*
X242492Y135808D01*
X242598Y135968D01*
X242699Y136130D01*
X242797Y136294D01*
X242890Y136461D01*
X242979Y136630D01*
X243064Y136801D01*
X243145Y136974D01*
X243222Y137150D01*
X243294Y137327D01*
X243362Y137505D01*
X243426Y137686D01*
X243485Y137867D01*
X243212Y137947D01*
X243155Y137772D01*
X243094Y137598D01*
X243028Y137427D01*
X242959Y137256D01*
X242885Y137088D01*
X242807Y136921D01*
X242725Y136757D01*
X242639Y136594D01*
X242549Y136434D01*
X242455Y136275D01*
X242357Y136119D01*
X242256Y135966D01*
X242151Y135815D01*
X242042Y135667D01*
X241929Y135521D01*
X241813Y135379D01*
X241694Y135239D01*
X241571Y135102D01*
X241445Y134968D01*
X241316Y134837D01*
X241183Y134710D01*
X241047Y134586D01*
X240909Y134465D01*
X240767Y134347D01*
X240623Y134233D01*
X240476Y134123D01*
X240326Y134016D01*
X240173Y133913D01*
X240019Y133814D01*
X239861Y133718D01*
X239702Y133627D01*
X239540Y133539D01*
X239376Y133456D01*
X239210Y133376D01*
X239043Y133300D01*
X238873Y133229D01*
X238702Y133162D01*
X238529Y133099D01*
X238355Y133040D01*
X238273Y133312D01*
X238440Y133368D01*
X238606Y133429D01*
X238771Y133494D01*
X238933Y133563D01*
X239095Y133635D01*
X239254Y133712D01*
X239411Y133792D01*
X239566Y133876D01*
X239720Y133965D01*
X239871Y134056D01*
X240019Y134152D01*
X240166Y134251D01*
X240310Y134353D01*
X240451Y134459D01*
X240590Y134569D01*
X240726Y134682D01*
X240859Y134798D01*
X240989Y134917D01*
X241116Y135040D01*
X241241Y135165D01*
X241362Y135294D01*
X241480Y135425D01*
X241595Y135560D01*
X241706Y135697D01*
X241814Y135837D01*
X241919Y135979D01*
X242020Y136124D01*
X242117Y136271D01*
X242211Y136421D01*
X242301Y136573D01*
X242388Y136727D01*
X242471Y136883D01*
X242549Y137041D01*
X242624Y137201D01*
X242695Y137363D01*
X242763Y137526D01*
X242826Y137691D01*
X242885Y137858D01*
X242939Y138026D01*
X242667Y138105D01*
X242614Y137944D01*
X242557Y137785D01*
X242497Y137626D01*
X242432Y137470D01*
X242364Y137314D01*
X242292Y137161D01*
X242216Y137009D01*
X242137Y136860D01*
X242054Y136712D01*
X241967Y136566D01*
X241877Y136423D01*
X241784Y136282D01*
X241687Y136143D01*
X241586Y136006D01*
X241483Y135872D01*
X241376Y135741D01*
X241266Y135612D01*
X241152Y135486D01*
X241036Y135362D01*
X240917Y135242D01*
X240795Y135125D01*
X240670Y135010D01*
X240542Y134899D01*
X240412Y134790D01*
X240279Y134685D01*
X240143Y134584D01*
X240005Y134485D01*
X239865Y134390D01*
X239723Y134299D01*
X239578Y134211D01*
X239431Y134126D01*
X239282Y134045D01*
X239131Y133968D01*
X238979Y133894D01*
X238824Y133825D01*
X238668Y133759D01*
X238510Y133697D01*
X238351Y133638D01*
X238191Y133584D01*
X238109Y133856D01*
X238262Y133908D01*
X238415Y133964D01*
X238565Y134024D01*
X238715Y134087D01*
X238863Y134154D01*
X239009Y134224D01*
X239153Y134298D01*
X239296Y134376D01*
X239436Y134457D01*
X239575Y134541D01*
X239711Y134629D01*
X239845Y134720D01*
X239977Y134814D01*
X240107Y134911D01*
X240234Y135012D01*
X240359Y135116D01*
X240481Y135222D01*
X240601Y135332D01*
X240718Y135444D01*
X240832Y135560D01*
X240943Y135678D01*
X241052Y135798D01*
X241157Y135922D01*
X241259Y136047D01*
X241359Y136176D01*
X241455Y136306D01*
X241548Y136439D01*
X241637Y136575D01*
X241723Y136712D01*
X241806Y136851D01*
X241886Y136993D01*
X241962Y137136D01*
X242035Y137281D01*
X242104Y137428D01*
X242169Y137576D01*
X242231Y137726D01*
X242289Y137878D01*
X242343Y138030D01*
X242394Y138185D01*
X242121Y138264D01*
X242071Y138113D01*
X242018Y137963D01*
X241960Y137815D01*
X241899Y137668D01*
X241835Y137523D01*
X241766Y137379D01*
X241695Y137237D01*
X241619Y137097D01*
X241540Y136959D01*
X241458Y136823D01*
X241373Y136689D01*
X241284Y136557D01*
X241192Y136427D01*
X241096Y136300D01*
X240998Y136175D01*
X240896Y136053D01*
X240791Y135933D01*
X240684Y135816D01*
X240573Y135701D01*
X240460Y135590D01*
X240344Y135481D01*
X240225Y135375D01*
X240104Y135272D01*
X239980Y135173D01*
X239854Y135076D01*
X239725Y134982D01*
X239594Y134892D01*
X239461Y134805D01*
X239326Y134722D01*
X239188Y134641D01*
X239049Y134565D01*
X238908Y134491D01*
X238765Y134422D01*
X238620Y134356D01*
X238474Y134293D01*
X238326Y134234D01*
X238177Y134179D01*
X238027Y134128D01*
X237945Y134400D01*
X238088Y134449D01*
X238230Y134502D01*
X238371Y134558D01*
X238510Y134617D01*
X238648Y134681D01*
X238784Y134747D01*
X238919Y134817D01*
X239052Y134890D01*
X239183Y134967D01*
X239311Y135047D01*
X239438Y135130D01*
X239563Y135216D01*
X239686Y135305D01*
X239806Y135397D01*
X239924Y135492D01*
X240040Y135590D01*
X240153Y135691D01*
X240264Y135795D01*
X240372Y135901D01*
X240477Y136010D01*
X240579Y136122D01*
X240679Y136236D01*
X240776Y136353D01*
X240870Y136472D01*
X240961Y136593D01*
X241049Y136716D01*
X241134Y136842D01*
X241215Y136970D01*
X241294Y137100D01*
X241369Y137231D01*
X241441Y137365D01*
X241509Y137500D01*
X241575Y137637D01*
X241636Y137775D01*
X241695Y137915D01*
X241749Y138057D01*
X241801Y138199D01*
X241848Y138343D01*
D23*
X249300Y132000D03*
D24*
X236300Y166200D03*
X224300Y166200D03*
D23*
X223300Y132000D03*
D24*
X248300Y166200D03*
D12*
X233500Y190000D03*
X216500Y190000D03*
X181500Y190000D03*
X198500Y190000D03*
D25*
X203301Y207200D03*
X203301Y216700D03*
X203301Y226200D03*
X177299Y226200D03*
X177299Y207200D03*
D10*
X275000Y225500D03*
X275000Y208500D03*
X245150Y208200D03*
X245150Y225200D03*
X226100Y225200D03*
X226100Y208200D03*
D12*
X198500Y160000D03*
X181500Y160000D03*
D10*
X158550Y208200D03*
X158550Y225200D03*
D12*
X181500Y175000D03*
X198500Y175000D03*
D10*
X3514350Y394400D03*
X3514350Y377400D03*
X3457200Y394400D03*
X3457200Y377400D03*
X3495300Y377400D03*
X3495300Y394400D03*
X3552450Y394400D03*
X3552450Y377400D03*
X3476250Y394400D03*
X3476250Y377400D03*
X3533400Y377400D03*
X3533400Y394400D03*
D12*
X3467750Y411300D03*
X3484750Y411300D03*
X3540100Y413700D03*
X3523100Y413700D03*
D26*
X269520Y2046500D03*
X217980Y2046500D03*
X217980Y2078500D03*
X269520Y2078500D03*
X419520Y2046500D03*
X367980Y2046500D03*
X367980Y2078500D03*
X419520Y2078500D03*
X569520Y2046500D03*
X517980Y2046500D03*
X517980Y2078500D03*
X569520Y2078500D03*
X719520Y2046500D03*
X667980Y2046500D03*
X667980Y2078500D03*
X719520Y2078500D03*
X869520Y2046500D03*
X817980Y2046500D03*
X817980Y2078500D03*
X869520Y2078500D03*
X1019520Y2046500D03*
X967980Y2046500D03*
X967980Y2078500D03*
X1019520Y2078500D03*
X1169520Y2046500D03*
X1117980Y2046500D03*
X1117980Y2078500D03*
X1169520Y2078500D03*
X1319520Y2046500D03*
X1267980Y2046500D03*
X1267980Y2078500D03*
X1319520Y2078500D03*
X1469520Y2046500D03*
X1417980Y2046500D03*
X1417980Y2078500D03*
X1469520Y2078500D03*
X2069520Y2046500D03*
X2017980Y2046500D03*
X2017980Y2078500D03*
X2069520Y2078500D03*
X2219520Y2046500D03*
X2167980Y2046500D03*
X2167980Y2078500D03*
X2219520Y2078500D03*
X2369520Y2046500D03*
X2317980Y2046500D03*
X2317980Y2078500D03*
X2369520Y2078500D03*
X2519520Y2046500D03*
X2467980Y2046500D03*
X2467980Y2078500D03*
X2519520Y2078500D03*
X2669520Y2046500D03*
X2617980Y2046500D03*
X2617980Y2078500D03*
X2669520Y2078500D03*
X2819520Y2046500D03*
X2767980Y2046500D03*
X2767980Y2078500D03*
X2819520Y2078500D03*
X2969520Y2046500D03*
X2917980Y2046500D03*
X2917980Y2078500D03*
X2969520Y2078500D03*
X119520Y1896500D03*
X67980Y1896500D03*
X67980Y1928500D03*
X119520Y1928500D03*
X269520Y1896500D03*
X217980Y1896500D03*
X217980Y1928500D03*
X269520Y1928500D03*
X419520Y1896500D03*
X367980Y1896500D03*
X367980Y1928500D03*
X419520Y1928500D03*
X569520Y1896500D03*
X517980Y1896500D03*
X517980Y1928500D03*
X569520Y1928500D03*
X719520Y1896500D03*
X667980Y1896500D03*
X667980Y1928500D03*
X719520Y1928500D03*
X869520Y1896500D03*
X817980Y1896500D03*
X817980Y1928500D03*
X869520Y1928500D03*
X1019520Y1896500D03*
X967980Y1896500D03*
X967980Y1928500D03*
X1019520Y1928500D03*
X1169520Y1896500D03*
X1117980Y1896500D03*
X1117980Y1928500D03*
X1169520Y1928500D03*
X1319520Y1896500D03*
X1267980Y1896500D03*
X1267980Y1928500D03*
X1319520Y1928500D03*
X1469520Y1896500D03*
X1417980Y1896500D03*
X1417980Y1928500D03*
X1469520Y1928500D03*
X1619520Y1896500D03*
X1567980Y1896500D03*
X1567980Y1928500D03*
X1619520Y1928500D03*
X1769520Y1896500D03*
X1717980Y1896500D03*
X1717980Y1928500D03*
X1769520Y1928500D03*
X1919520Y1896500D03*
X1867980Y1896500D03*
X1867980Y1928500D03*
X1919520Y1928500D03*
X2069520Y1896500D03*
X2017980Y1896500D03*
X2017980Y1928500D03*
X2069520Y1928500D03*
X2219520Y1896500D03*
X2167980Y1896500D03*
X2167980Y1928500D03*
X2219520Y1928500D03*
X2369520Y1896500D03*
X2317980Y1896500D03*
X2317980Y1928500D03*
X2369520Y1928500D03*
X2519520Y1896500D03*
X2467980Y1896500D03*
X2467980Y1928500D03*
X2519520Y1928500D03*
X2669520Y1896500D03*
X2617980Y1896500D03*
X2617980Y1928500D03*
X2669520Y1928500D03*
X2819520Y1896500D03*
X2767980Y1896500D03*
X2767980Y1928500D03*
X2819520Y1928500D03*
X2969520Y1896500D03*
X2917980Y1896500D03*
X2917980Y1928500D03*
X2969520Y1928500D03*
X3119520Y1896500D03*
X3067980Y1896500D03*
X3067980Y1928500D03*
X3119520Y1928500D03*
X119520Y1746500D03*
X67980Y1746500D03*
X67980Y1778500D03*
X119520Y1778500D03*
X269520Y1746500D03*
X217980Y1746500D03*
X217980Y1778500D03*
X269520Y1778500D03*
X419520Y1746500D03*
X367980Y1746500D03*
X367980Y1778500D03*
X419520Y1778500D03*
X569520Y1746500D03*
X517980Y1746500D03*
X517980Y1778500D03*
X569520Y1778500D03*
X719520Y1746500D03*
X667980Y1746500D03*
X667980Y1778500D03*
X719520Y1778500D03*
X869520Y1746500D03*
X817980Y1746500D03*
X817980Y1778500D03*
X869520Y1778500D03*
X1019520Y1746500D03*
X967980Y1746500D03*
X967980Y1778500D03*
X1019520Y1778500D03*
X1169520Y1746500D03*
X1117980Y1746500D03*
X1117980Y1778500D03*
X1169520Y1778500D03*
X1319520Y1746500D03*
X1267980Y1746500D03*
X1267980Y1778500D03*
X1319520Y1778500D03*
X1469520Y1746500D03*
X1417980Y1746500D03*
X1417980Y1778500D03*
X1469520Y1778500D03*
X1619520Y1746500D03*
X1567980Y1746500D03*
X1567980Y1778500D03*
X1619520Y1778500D03*
X1769520Y1746500D03*
X1717980Y1746500D03*
X1717980Y1778500D03*
X1769520Y1778500D03*
X1919520Y1746500D03*
X1867980Y1746500D03*
X1867980Y1778500D03*
X1919520Y1778500D03*
X2069520Y1746500D03*
X2017980Y1746500D03*
X2017980Y1778500D03*
X2069520Y1778500D03*
X2219520Y1746500D03*
X2167980Y1746500D03*
X2167980Y1778500D03*
X2219520Y1778500D03*
X2369520Y1746500D03*
X2317980Y1746500D03*
X2317980Y1778500D03*
X2369520Y1778500D03*
X2519520Y1746500D03*
X2467980Y1746500D03*
X2467980Y1778500D03*
X2519520Y1778500D03*
X2669520Y1746500D03*
X2617980Y1746500D03*
X2617980Y1778500D03*
X2669520Y1778500D03*
X2819520Y1746500D03*
X2767980Y1746500D03*
X2767980Y1778500D03*
X2819520Y1778500D03*
X2969520Y1746500D03*
X2917980Y1746500D03*
X2917980Y1778500D03*
X2969520Y1778500D03*
X3119520Y1746500D03*
X3067980Y1746500D03*
X3067980Y1778500D03*
X3119520Y1778500D03*
X119520Y1596500D03*
X67980Y1596500D03*
X67980Y1628500D03*
X119520Y1628500D03*
X269520Y1596500D03*
X217980Y1596500D03*
X217980Y1628500D03*
X269520Y1628500D03*
X419520Y1596500D03*
X367980Y1596500D03*
X367980Y1628500D03*
X419520Y1628500D03*
X569520Y1596500D03*
X517980Y1596500D03*
X517980Y1628500D03*
X569520Y1628500D03*
X719520Y1596500D03*
X667980Y1596500D03*
X667980Y1628500D03*
X719520Y1628500D03*
X869520Y1596500D03*
X817980Y1596500D03*
X817980Y1628500D03*
X869520Y1628500D03*
X1019520Y1596500D03*
X967980Y1596500D03*
X967980Y1628500D03*
X1019520Y1628500D03*
X1169520Y1596500D03*
X1117980Y1596500D03*
X1117980Y1628500D03*
X1169520Y1628500D03*
X1319520Y1596500D03*
X1267980Y1596500D03*
X1267980Y1628500D03*
X1319520Y1628500D03*
X1469520Y1596500D03*
X1417980Y1596500D03*
X1417980Y1628500D03*
X1469520Y1628500D03*
X1619520Y1596500D03*
X1567980Y1596500D03*
X1567980Y1628500D03*
X1619520Y1628500D03*
X1769520Y1596500D03*
X1717980Y1596500D03*
X1717980Y1628500D03*
X1769520Y1628500D03*
X1919520Y1596500D03*
X1867980Y1596500D03*
X1867980Y1628500D03*
X1919520Y1628500D03*
X2069520Y1596500D03*
X2017980Y1596500D03*
X2017980Y1628500D03*
X2069520Y1628500D03*
X2219520Y1596500D03*
X2167980Y1596500D03*
X2167980Y1628500D03*
X2219520Y1628500D03*
X2369520Y1596500D03*
X2317980Y1596500D03*
X2317980Y1628500D03*
X2369520Y1628500D03*
X2519520Y1596500D03*
X2467980Y1596500D03*
X2467980Y1628500D03*
X2519520Y1628500D03*
X2669520Y1596500D03*
X2617980Y1596500D03*
X2617980Y1628500D03*
X2669520Y1628500D03*
X2819520Y1596500D03*
X2767980Y1596500D03*
X2767980Y1628500D03*
X2819520Y1628500D03*
X2969520Y1596500D03*
X2917980Y1596500D03*
X2917980Y1628500D03*
X2969520Y1628500D03*
X3419520Y1596500D03*
X3367980Y1596500D03*
X3367980Y1628500D03*
X3419520Y1628500D03*
X119520Y1446500D03*
X67980Y1446500D03*
X67980Y1478500D03*
X119520Y1478500D03*
X269520Y1446500D03*
X217980Y1446500D03*
X217980Y1478500D03*
X269520Y1478500D03*
X419520Y1446500D03*
X367980Y1446500D03*
X367980Y1478500D03*
X419520Y1478500D03*
X569520Y1446500D03*
X517980Y1446500D03*
X517980Y1478500D03*
X569520Y1478500D03*
X719520Y1446500D03*
X667980Y1446500D03*
X667980Y1478500D03*
X719520Y1478500D03*
X869520Y1446500D03*
X817980Y1446500D03*
X817980Y1478500D03*
X869520Y1478500D03*
X1019520Y1446500D03*
X967980Y1446500D03*
X967980Y1478500D03*
X1019520Y1478500D03*
X1169520Y1446500D03*
X1117980Y1446500D03*
X1117980Y1478500D03*
X1169520Y1478500D03*
X1319520Y1446500D03*
X1267980Y1446500D03*
X1267980Y1478500D03*
X1319520Y1478500D03*
X1469520Y1446500D03*
X1417980Y1446500D03*
X1417980Y1478500D03*
X1469520Y1478500D03*
X1619520Y1446500D03*
X1567980Y1446500D03*
X1567980Y1478500D03*
X1619520Y1478500D03*
X1769520Y1446500D03*
X1717980Y1446500D03*
X1717980Y1478500D03*
X1769520Y1478500D03*
X1919520Y1446500D03*
X1867980Y1446500D03*
X1867980Y1478500D03*
X1919520Y1478500D03*
X2069520Y1446500D03*
X2017980Y1446500D03*
X2017980Y1478500D03*
X2069520Y1478500D03*
X2219520Y1446500D03*
X2167980Y1446500D03*
X2167980Y1478500D03*
X2219520Y1478500D03*
X2369520Y1446500D03*
X2317980Y1446500D03*
X2317980Y1478500D03*
X2369520Y1478500D03*
X2519520Y1446500D03*
X2467980Y1446500D03*
X2467980Y1478500D03*
X2519520Y1478500D03*
X2669520Y1446500D03*
X2617980Y1446500D03*
X2617980Y1478500D03*
X2669520Y1478500D03*
X2819520Y1446500D03*
X2767980Y1446500D03*
X2767980Y1478500D03*
X2819520Y1478500D03*
X2969520Y1446500D03*
X2917980Y1446500D03*
X2917980Y1478500D03*
X2969520Y1478500D03*
X3119520Y1446500D03*
X3067980Y1446500D03*
X3067980Y1478500D03*
X3119520Y1478500D03*
X119520Y1296500D03*
X67980Y1296500D03*
X67980Y1328500D03*
X119520Y1328500D03*
X269520Y1296500D03*
X217980Y1296500D03*
X217980Y1328500D03*
X269520Y1328500D03*
X419520Y1296500D03*
X367980Y1296500D03*
X367980Y1328500D03*
X419520Y1328500D03*
X569520Y1296500D03*
X517980Y1296500D03*
X517980Y1328500D03*
X569520Y1328500D03*
X719520Y1296500D03*
X667980Y1296500D03*
X667980Y1328500D03*
X719520Y1328500D03*
X869520Y1296500D03*
X817980Y1296500D03*
X817980Y1328500D03*
X869520Y1328500D03*
X1019520Y1296500D03*
X967980Y1296500D03*
X967980Y1328500D03*
X1019520Y1328500D03*
X1169520Y1296500D03*
X1117980Y1296500D03*
X1117980Y1328500D03*
X1169520Y1328500D03*
X1319520Y1296500D03*
X1267980Y1296500D03*
X1267980Y1328500D03*
X1319520Y1328500D03*
X1469520Y1296500D03*
X1417980Y1296500D03*
X1417980Y1328500D03*
X1469520Y1328500D03*
X1619520Y1296500D03*
X1567980Y1296500D03*
X1567980Y1328500D03*
X1619520Y1328500D03*
X1769520Y1296500D03*
X1717980Y1296500D03*
X1717980Y1328500D03*
X1769520Y1328500D03*
X1919520Y1296500D03*
X1867980Y1296500D03*
X1867980Y1328500D03*
X1919520Y1328500D03*
X2069520Y1296500D03*
X2017980Y1296500D03*
X2017980Y1328500D03*
X2069520Y1328500D03*
X2219520Y1296500D03*
X2167980Y1296500D03*
X2167980Y1328500D03*
X2219520Y1328500D03*
X2369520Y1296500D03*
X2317980Y1296500D03*
X2317980Y1328500D03*
X2369520Y1328500D03*
X2519520Y1296500D03*
X2467980Y1296500D03*
X2467980Y1328500D03*
X2519520Y1328500D03*
X2669520Y1296500D03*
X2617980Y1296500D03*
X2617980Y1328500D03*
X2669520Y1328500D03*
X2819520Y1296500D03*
X2767980Y1296500D03*
X2767980Y1328500D03*
X2819520Y1328500D03*
X2969520Y1296500D03*
X2917980Y1296500D03*
X2917980Y1328500D03*
X2969520Y1328500D03*
X3119520Y1296500D03*
X3067980Y1296500D03*
X3067980Y1328500D03*
X3119520Y1328500D03*
X119520Y1146500D03*
X67980Y1146500D03*
X67980Y1178500D03*
X119520Y1178500D03*
X269520Y1146500D03*
X217980Y1146500D03*
X217980Y1178500D03*
X269520Y1178500D03*
X419520Y1146500D03*
X367980Y1146500D03*
X367980Y1178500D03*
X419520Y1178500D03*
X569520Y1146500D03*
X517980Y1146500D03*
X517980Y1178500D03*
X569520Y1178500D03*
X719520Y1146500D03*
X667980Y1146500D03*
X667980Y1178500D03*
X719520Y1178500D03*
X869520Y1146500D03*
X817980Y1146500D03*
X817980Y1178500D03*
X869520Y1178500D03*
X1019520Y1146500D03*
X967980Y1146500D03*
X967980Y1178500D03*
X1019520Y1178500D03*
X1169520Y1146500D03*
X1117980Y1146500D03*
X1117980Y1178500D03*
X1169520Y1178500D03*
X1319520Y1146500D03*
X1267980Y1146500D03*
X1267980Y1178500D03*
X1319520Y1178500D03*
X1469520Y1146500D03*
X1417980Y1146500D03*
X1417980Y1178500D03*
X1469520Y1178500D03*
X1619520Y1146500D03*
X1567980Y1146500D03*
X1567980Y1178500D03*
X1619520Y1178500D03*
X1769520Y1146500D03*
X1717980Y1146500D03*
X1717980Y1178500D03*
X1769520Y1178500D03*
X1919520Y1146500D03*
X1867980Y1146500D03*
X1867980Y1178500D03*
X1919520Y1178500D03*
X2069520Y1146500D03*
X2017980Y1146500D03*
X2017980Y1178500D03*
X2069520Y1178500D03*
X2219520Y1146500D03*
X2167980Y1146500D03*
X2167980Y1178500D03*
X2219520Y1178500D03*
X2369520Y1146500D03*
X2317980Y1146500D03*
X2317980Y1178500D03*
X2369520Y1178500D03*
X2519520Y1146500D03*
X2467980Y1146500D03*
X2467980Y1178500D03*
X2519520Y1178500D03*
X2669520Y1146500D03*
X2617980Y1146500D03*
X2617980Y1178500D03*
X2669520Y1178500D03*
X2819520Y1146500D03*
X2767980Y1146500D03*
X2767980Y1178500D03*
X2819520Y1178500D03*
X2969520Y1146500D03*
X2917980Y1146500D03*
X2917980Y1178500D03*
X2969520Y1178500D03*
X3119520Y1146500D03*
X3067980Y1146500D03*
X3067980Y1178500D03*
X3119520Y1178500D03*
X119520Y996500D03*
X67980Y996500D03*
X67980Y1028500D03*
X119520Y1028500D03*
X269520Y996500D03*
X217980Y996500D03*
X217980Y1028500D03*
X269520Y1028500D03*
X419520Y996500D03*
X367980Y996500D03*
X367980Y1028500D03*
X419520Y1028500D03*
X569520Y996500D03*
X517980Y996500D03*
X517980Y1028500D03*
X569520Y1028500D03*
X719520Y996500D03*
X667980Y996500D03*
X667980Y1028500D03*
X719520Y1028500D03*
X869520Y996500D03*
X817980Y996500D03*
X817980Y1028500D03*
X869520Y1028500D03*
X1019520Y996500D03*
X967980Y996500D03*
X967980Y1028500D03*
X1019520Y1028500D03*
X1169520Y996500D03*
X1117980Y996500D03*
X1117980Y1028500D03*
X1169520Y1028500D03*
X1319520Y996500D03*
X1267980Y996500D03*
X1267980Y1028500D03*
X1319520Y1028500D03*
X1469520Y996500D03*
X1417980Y996500D03*
X1417980Y1028500D03*
X1469520Y1028500D03*
X1619520Y996500D03*
X1567980Y996500D03*
X1567980Y1028500D03*
X1619520Y1028500D03*
X1769520Y996500D03*
X1717980Y996500D03*
X1717980Y1028500D03*
X1769520Y1028500D03*
X1919520Y996500D03*
X1867980Y996500D03*
X1867980Y1028500D03*
X1919520Y1028500D03*
X2369520Y996500D03*
X2317980Y996500D03*
X2317980Y1028500D03*
X2369520Y1028500D03*
X2519520Y996500D03*
X2467980Y996500D03*
X2467980Y1028500D03*
X2519520Y1028500D03*
X2669520Y996500D03*
X2617980Y996500D03*
X2617980Y1028500D03*
X2669520Y1028500D03*
X2819520Y996500D03*
X2767980Y996500D03*
X2767980Y1028500D03*
X2819520Y1028500D03*
X2969520Y996500D03*
X2917980Y996500D03*
X2917980Y1028500D03*
X2969520Y1028500D03*
X3119520Y996500D03*
X3067980Y996500D03*
X3067980Y1028500D03*
X3119520Y1028500D03*
X3269520Y996500D03*
X3217980Y996500D03*
X3217980Y1028500D03*
X3269520Y1028500D03*
X3419520Y996500D03*
X3367980Y996500D03*
X3367980Y1028500D03*
X3419520Y1028500D03*
X119520Y846500D03*
X67980Y846500D03*
X67980Y878500D03*
X119520Y878500D03*
X269520Y846500D03*
X217980Y846500D03*
X217980Y878500D03*
X269520Y878500D03*
X419520Y846500D03*
X367980Y846500D03*
X367980Y878500D03*
X419520Y878500D03*
X569520Y846500D03*
X517980Y846500D03*
X517980Y878500D03*
X569520Y878500D03*
X719520Y846500D03*
X667980Y846500D03*
X667980Y878500D03*
X719520Y878500D03*
X869520Y846500D03*
X817980Y846500D03*
X817980Y878500D03*
X869520Y878500D03*
X1019520Y846500D03*
X967980Y846500D03*
X967980Y878500D03*
X1019520Y878500D03*
X1169520Y846500D03*
X1117980Y846500D03*
X1117980Y878500D03*
X1169520Y878500D03*
X1319520Y846500D03*
X1267980Y846500D03*
X1267980Y878500D03*
X1319520Y878500D03*
X1469520Y846500D03*
X1417980Y846500D03*
X1417980Y878500D03*
X1469520Y878500D03*
X1619520Y846500D03*
X1567980Y846500D03*
X1567980Y878500D03*
X1619520Y878500D03*
X1769520Y846500D03*
X1717980Y846500D03*
X1717980Y878500D03*
X1769520Y878500D03*
X1919520Y846500D03*
X1867980Y846500D03*
X1867980Y878500D03*
X1919520Y878500D03*
X2069520Y846500D03*
X2017980Y846500D03*
X2017980Y878500D03*
X2069520Y878500D03*
X2219520Y846500D03*
X2167980Y846500D03*
X2167980Y878500D03*
X2219520Y878500D03*
X2369520Y846500D03*
X2317980Y846500D03*
X2317980Y878500D03*
X2369520Y878500D03*
X2519520Y846500D03*
X2467980Y846500D03*
X2467980Y878500D03*
X2519520Y878500D03*
X2669520Y846500D03*
X2617980Y846500D03*
X2617980Y878500D03*
X2669520Y878500D03*
X3119520Y846500D03*
X3067980Y846500D03*
X3067980Y878500D03*
X3119520Y878500D03*
X3269520Y846500D03*
X3217980Y846500D03*
X3217980Y878500D03*
X3269520Y878500D03*
X3419520Y846500D03*
X3367980Y846500D03*
X3367980Y878500D03*
X3419520Y878500D03*
X119520Y696500D03*
X67980Y696500D03*
X67980Y728500D03*
X119520Y728500D03*
X269520Y696500D03*
X217980Y696500D03*
X217980Y728500D03*
X269520Y728500D03*
X419520Y696500D03*
X367980Y696500D03*
X367980Y728500D03*
X419520Y728500D03*
X569520Y696500D03*
X517980Y696500D03*
X517980Y728500D03*
X569520Y728500D03*
X719520Y696500D03*
X667980Y696500D03*
X667980Y728500D03*
X719520Y728500D03*
X869520Y696500D03*
X817980Y696500D03*
X817980Y728500D03*
X869520Y728500D03*
X1019520Y696500D03*
X967980Y696500D03*
X967980Y728500D03*
X1019520Y728500D03*
X1169520Y696500D03*
X1117980Y696500D03*
X1117980Y728500D03*
X1169520Y728500D03*
X1319520Y696500D03*
X1267980Y696500D03*
X1267980Y728500D03*
X1319520Y728500D03*
X1469520Y696500D03*
X1417980Y696500D03*
X1417980Y728500D03*
X1469520Y728500D03*
X1619520Y696500D03*
X1567980Y696500D03*
X1567980Y728500D03*
X1619520Y728500D03*
X1769520Y696500D03*
X1717980Y696500D03*
X1717980Y728500D03*
X1769520Y728500D03*
X1919520Y696500D03*
X1867980Y696500D03*
X1867980Y728500D03*
X1919520Y728500D03*
X2069520Y696500D03*
X2017980Y696500D03*
X2017980Y728500D03*
X2069520Y728500D03*
X2219520Y696500D03*
X2167980Y696500D03*
X2167980Y728500D03*
X2219520Y728500D03*
X2369520Y696500D03*
X2317980Y696500D03*
X2317980Y728500D03*
X2369520Y728500D03*
X2519520Y696500D03*
X2467980Y696500D03*
X2467980Y728500D03*
X2519520Y728500D03*
X2969520Y696500D03*
X2917980Y696500D03*
X2917980Y728500D03*
X2969520Y728500D03*
X3119520Y696500D03*
X3067980Y696500D03*
X3067980Y728500D03*
X3119520Y728500D03*
X3269520Y696500D03*
X3217980Y696500D03*
X3217980Y728500D03*
X3269520Y728500D03*
X3419520Y696500D03*
X3367980Y696500D03*
X3367980Y728500D03*
X3419520Y728500D03*
X269520Y396500D03*
X217980Y396500D03*
X217980Y428500D03*
X269520Y428500D03*
X419520Y396500D03*
X367980Y396500D03*
X367980Y428500D03*
X419520Y428500D03*
X569520Y396500D03*
X517980Y396500D03*
X517980Y428500D03*
X569520Y428500D03*
X719520Y396500D03*
X667980Y396500D03*
X667980Y428500D03*
X719520Y428500D03*
X869520Y396500D03*
X817980Y396500D03*
X817980Y428500D03*
X869520Y428500D03*
X1019520Y396500D03*
X967980Y396500D03*
X967980Y428500D03*
X1019520Y428500D03*
X1169520Y396500D03*
X1117980Y396500D03*
X1117980Y428500D03*
X1169520Y428500D03*
X1319520Y396500D03*
X1267980Y396500D03*
X1267980Y428500D03*
X1319520Y428500D03*
X1469520Y396500D03*
X1417980Y396500D03*
X1417980Y428500D03*
X1469520Y428500D03*
X1619520Y396500D03*
X1567980Y396500D03*
X1567980Y428500D03*
X1619520Y428500D03*
X1769520Y396500D03*
X1717980Y396500D03*
X1717980Y428500D03*
X1769520Y428500D03*
X1919520Y396500D03*
X1867980Y396500D03*
X1867980Y428500D03*
X1919520Y428500D03*
X2069520Y396500D03*
X2017980Y396500D03*
X2017980Y428500D03*
X2069520Y428500D03*
X2219520Y396500D03*
X2167980Y396500D03*
X2167980Y428500D03*
X2219520Y428500D03*
X2369520Y396500D03*
X2317980Y396500D03*
X2317980Y428500D03*
X2369520Y428500D03*
X2519520Y396500D03*
X2467980Y396500D03*
X2467980Y428500D03*
X2519520Y428500D03*
X2669520Y396500D03*
X2617980Y396500D03*
X2617980Y428500D03*
X2669520Y428500D03*
X2819520Y396500D03*
X2767980Y396500D03*
X2767980Y428500D03*
X2819520Y428500D03*
X3269520Y396500D03*
X3217980Y396500D03*
X3217980Y428500D03*
X3269520Y428500D03*
X3419520Y396500D03*
X3367980Y396500D03*
X3367980Y428500D03*
X3419520Y428500D03*
X869520Y246500D03*
X817980Y246500D03*
X817980Y278500D03*
X869520Y278500D03*
X1019520Y246500D03*
X967980Y246500D03*
X967980Y278500D03*
X1019520Y278500D03*
X1169520Y246500D03*
X1117980Y246500D03*
X1117980Y278500D03*
X1169520Y278500D03*
X1319520Y246500D03*
X1267980Y246500D03*
X1267980Y278500D03*
X1319520Y278500D03*
X1469520Y246500D03*
X1417980Y246500D03*
X1417980Y278500D03*
X1469520Y278500D03*
X1619520Y246500D03*
X1567980Y246500D03*
X1567980Y278500D03*
X1619520Y278500D03*
X1769520Y246500D03*
X1717980Y246500D03*
X1717980Y278500D03*
X1769520Y278500D03*
X1919520Y246500D03*
X1867980Y246500D03*
X1867980Y278500D03*
X1919520Y278500D03*
X2069520Y246500D03*
X2017980Y246500D03*
X2017980Y278500D03*
X2069520Y278500D03*
X2219520Y246500D03*
X2167980Y246500D03*
X2167980Y278500D03*
X2219520Y278500D03*
X2369520Y246500D03*
X2317980Y246500D03*
X2317980Y278500D03*
X2369520Y278500D03*
X2519520Y246500D03*
X2467980Y246500D03*
X2467980Y278500D03*
X2519520Y278500D03*
X2669520Y246500D03*
X2617980Y246500D03*
X2617980Y278500D03*
X2669520Y278500D03*
X3119520Y246500D03*
X3067980Y246500D03*
X3067980Y278500D03*
X3119520Y278500D03*
X3269520Y246500D03*
X3217980Y246500D03*
X3217980Y278500D03*
X3269520Y278500D03*
X3419520Y246500D03*
X3367980Y246500D03*
X3367980Y278500D03*
X3419520Y278500D03*
X719520Y96500D03*
X667980Y96500D03*
X667980Y128500D03*
X719520Y128500D03*
X869520Y96500D03*
X817980Y96500D03*
X817980Y128500D03*
X869520Y128500D03*
X1019520Y96500D03*
X967980Y96500D03*
X967980Y128500D03*
X1019520Y128500D03*
X1169520Y96500D03*
X1117980Y96500D03*
X1117980Y128500D03*
X1169520Y128500D03*
X1319520Y96500D03*
X1267980Y96500D03*
X1267980Y128500D03*
X1319520Y128500D03*
X1482020Y96500D03*
X1430480Y96500D03*
X1430480Y128500D03*
X1482020Y128500D03*
X2069520Y96500D03*
X2017980Y96500D03*
X2017980Y128500D03*
X2069520Y128500D03*
X2219520Y96500D03*
X2167980Y96500D03*
X2167980Y128500D03*
X2219520Y128500D03*
X2369520Y96500D03*
X2317980Y96500D03*
X2317980Y128500D03*
X2369520Y128500D03*
X2519520Y96500D03*
X2467980Y96500D03*
X2467980Y128500D03*
X2519520Y128500D03*
X3119520Y96500D03*
X3067980Y96500D03*
X3067980Y128500D03*
X3119520Y128500D03*
X3269520Y96500D03*
X3217980Y96500D03*
X3217980Y128500D03*
X3269520Y128500D03*
D12*
X129290Y80030D03*
X146290Y80030D03*
D10*
X74500Y198500D03*
X74500Y181500D03*
X57000Y181500D03*
X57000Y198500D03*
D12*
X123000Y152500D03*
X106000Y152500D03*
D26*
X3119520Y2046500D03*
X3067980Y2046500D03*
X3067980Y2078500D03*
X3119520Y2078500D03*
X3269520Y2046500D03*
X3217980Y2046500D03*
X3217980Y2078500D03*
X3269520Y2078500D03*
X3269520Y1896500D03*
X3217980Y1896500D03*
X3217980Y1928500D03*
X3269520Y1928500D03*
X3419520Y1896500D03*
X3367980Y1896500D03*
X3367980Y1928500D03*
X3419520Y1928500D03*
X3269520Y1746500D03*
X3217980Y1746500D03*
X3217980Y1778500D03*
X3269520Y1778500D03*
X3419520Y1746500D03*
X3367980Y1746500D03*
X3367980Y1778500D03*
X3419520Y1778500D03*
X3119520Y1596500D03*
X3067980Y1596500D03*
X3067980Y1628500D03*
X3119520Y1628500D03*
X3269520Y1596500D03*
X3217980Y1596500D03*
X3217980Y1628500D03*
X3269520Y1628500D03*
X3269520Y1446500D03*
X3217980Y1446500D03*
X3217980Y1478500D03*
X3269520Y1478500D03*
X3419520Y1446500D03*
X3367980Y1446500D03*
X3367980Y1478500D03*
X3419520Y1478500D03*
X3269520Y1296500D03*
X3217980Y1296500D03*
X3217980Y1328500D03*
X3269520Y1328500D03*
X3419520Y1296500D03*
X3367980Y1296500D03*
X3367980Y1328500D03*
X3419520Y1328500D03*
X3269520Y1146500D03*
X3217980Y1146500D03*
X3217980Y1178500D03*
X3269520Y1178500D03*
X3419520Y1146500D03*
X3367980Y1146500D03*
X3367980Y1178500D03*
X3419520Y1178500D03*
X2069520Y996500D03*
X2017980Y996500D03*
X2017980Y1028500D03*
X2069520Y1028500D03*
X2219520Y996500D03*
X2167980Y996500D03*
X2167980Y1028500D03*
X2219520Y1028500D03*
X2819520Y846500D03*
X2767980Y846500D03*
X2767980Y878500D03*
X2819520Y878500D03*
X2969520Y846500D03*
X2917980Y846500D03*
X2917980Y878500D03*
X2969520Y878500D03*
X2669520Y696500D03*
X2617980Y696500D03*
X2617980Y728500D03*
X2669520Y728500D03*
X2819520Y696500D03*
X2767980Y696500D03*
X2767980Y728500D03*
X2819520Y728500D03*
X2969520Y396500D03*
X2917980Y396500D03*
X2917980Y428500D03*
X2969520Y428500D03*
X3119520Y396500D03*
X3067980Y396500D03*
X3067980Y428500D03*
X3119520Y428500D03*
X2819520Y246500D03*
X2767980Y246500D03*
X2767980Y278500D03*
X2819520Y278500D03*
X2969520Y246500D03*
X2917980Y246500D03*
X2917980Y278500D03*
X2969520Y278500D03*
X2669520Y96500D03*
X2617980Y96500D03*
X2617980Y128500D03*
X2669520Y128500D03*
X2819520Y96500D03*
X2767980Y96500D03*
X2767980Y128500D03*
X2819520Y128500D03*
X2969520Y96500D03*
X2917980Y96500D03*
X2917980Y128500D03*
X2969520Y128500D03*
X119520Y546500D03*
X67980Y546500D03*
X67980Y578500D03*
X119520Y578500D03*
X269520Y546500D03*
X217980Y546500D03*
X217980Y578500D03*
X269520Y578500D03*
X419520Y546500D03*
X367980Y546500D03*
X367980Y578500D03*
X419520Y578500D03*
X569520Y546500D03*
X517980Y546500D03*
X517980Y578500D03*
X569520Y578500D03*
X719520Y546500D03*
X667980Y546500D03*
X667980Y578500D03*
X719520Y578500D03*
X869520Y546500D03*
X817980Y546500D03*
X817980Y578500D03*
X869520Y578500D03*
X1019520Y546500D03*
X967980Y546500D03*
X967980Y578500D03*
X1019520Y578500D03*
X1169520Y546500D03*
X1117980Y546500D03*
X1117980Y578500D03*
X1169520Y578500D03*
X1319520Y546500D03*
X1267980Y546500D03*
X1267980Y578500D03*
X1319520Y578500D03*
X1619520Y546500D03*
X1567980Y546500D03*
X1567980Y578500D03*
X1619520Y578500D03*
X1769520Y546500D03*
X1717980Y546500D03*
X1717980Y578500D03*
X1769520Y578500D03*
X1919520Y546500D03*
X1867980Y546500D03*
X1867980Y578500D03*
X1919520Y578500D03*
X2069520Y546500D03*
X2017980Y546500D03*
X2017980Y578500D03*
X2069520Y578500D03*
X1467120Y546500D03*
X1415580Y546500D03*
X1415580Y578500D03*
X1467120Y578500D03*
X2219520Y546500D03*
X2167980Y546500D03*
X2167980Y578500D03*
X2219520Y578500D03*
X2369520Y546500D03*
X2317980Y546500D03*
X2317980Y578500D03*
X2369520Y578500D03*
X2519520Y546500D03*
X2467980Y546500D03*
X2467980Y578500D03*
X2519520Y578500D03*
X2669520Y546500D03*
X2617980Y546500D03*
X2617980Y578500D03*
X2669520Y578500D03*
X2819520Y546500D03*
X2767980Y546500D03*
X2767980Y578500D03*
X2819520Y578500D03*
X2969520Y546500D03*
X2917980Y546500D03*
X2917980Y578500D03*
X2969520Y578500D03*
X3119520Y546500D03*
X3067980Y546500D03*
X3067980Y578500D03*
X3119520Y578500D03*
X3269520Y546500D03*
X3217980Y546500D03*
X3217980Y578500D03*
X3269520Y578500D03*
X3419520Y546500D03*
X3367980Y546500D03*
X3367980Y578500D03*
X3419520Y578500D03*
X119520Y396500D03*
X67980Y396500D03*
X67980Y428500D03*
X119520Y428500D03*
X719520Y246500D03*
X667980Y246500D03*
X667980Y278500D03*
X719520Y278500D03*
M02*
