G04 EAGLE Gerber RS-274X export*
G75*
%MOMM*%
%FSLAX34Y34*%
%LPD*%
%INSoldermask Top*%
%IPPOS*%
%AMOC8*
5,1,8,0,0,1.08239X$1,22.5*%
G01*
%ADD10R,1.203200X1.303200*%
%ADD11C,0.838200*%
%ADD12R,0.503200X0.863200*%
%ADD13R,1.303200X1.203200*%
%ADD14R,1.103200X1.203200*%
%ADD15R,1.103200X1.703200*%
%ADD16R,1.703200X1.103200*%
%ADD17R,6.203200X6.203200*%
%ADD18R,0.753200X1.403200*%
%ADD19R,0.503200X1.053200*%
%ADD20R,1.053200X0.503200*%
%ADD21R,2.753200X2.753200*%
%ADD22C,3.505200*%
%ADD23R,1.219200X0.503200*%
%ADD24R,1.219200X0.803200*%
%ADD25R,1.219200X0.753200*%
%ADD26C,0.853200*%
%ADD27R,1.403200X2.703200*%
%ADD28C,1.403200*%
%ADD29C,0.500000*%
%ADD30C,0.903200*%
%ADD31C,1.103200*%
%ADD32R,1.403200X0.753200*%
%ADD33R,1.854200X1.203200*%
%ADD34R,0.838200X1.473200*%
%ADD35R,1.473200X0.838200*%

G36*
X3555205Y327154D02*
X3555205Y327154D01*
X3555208Y327151D01*
X3556475Y327356D01*
X3556481Y327362D01*
X3556486Y327359D01*
X3557675Y327841D01*
X3557679Y327848D01*
X3557685Y327846D01*
X3558738Y328580D01*
X3558740Y328588D01*
X3558746Y328587D01*
X3559609Y329537D01*
X3559610Y329546D01*
X3559615Y329546D01*
X3560245Y330665D01*
X3560244Y330673D01*
X3560250Y330675D01*
X3560615Y331905D01*
X3560612Y331912D01*
X3560616Y331915D01*
X3560615Y331915D01*
X3560617Y331916D01*
X3560699Y333197D01*
X3560697Y333201D01*
X3560699Y333203D01*
X3560617Y334484D01*
X3560611Y334490D01*
X3560615Y334495D01*
X3560250Y335725D01*
X3560243Y335730D01*
X3560245Y335735D01*
X3559615Y336854D01*
X3559608Y336857D01*
X3559609Y336863D01*
X3558746Y337813D01*
X3558738Y337814D01*
X3558738Y337820D01*
X3557685Y338554D01*
X3557677Y338554D01*
X3557675Y338559D01*
X3556486Y339041D01*
X3556478Y339039D01*
X3556475Y339044D01*
X3555208Y339249D01*
X3555203Y339246D01*
X3555200Y339249D01*
X3543200Y339249D01*
X3543196Y339246D01*
X3543193Y339249D01*
X3542071Y339094D01*
X3542066Y339089D01*
X3542062Y339092D01*
X3540991Y338721D01*
X3540987Y338715D01*
X3540982Y338717D01*
X3540005Y338144D01*
X3540002Y338138D01*
X3539997Y338139D01*
X3539150Y337386D01*
X3539148Y337379D01*
X3539143Y337379D01*
X3538459Y336476D01*
X3538459Y336469D01*
X3538454Y336468D01*
X3537959Y335449D01*
X3537961Y335442D01*
X3537959Y335441D01*
X3537956Y335440D01*
X3537669Y334343D01*
X3537672Y334337D01*
X3537668Y334334D01*
X3537601Y333203D01*
X3537603Y333199D01*
X3537601Y333197D01*
X3537668Y332066D01*
X3537673Y332061D01*
X3537669Y332057D01*
X3537956Y330960D01*
X3537962Y330956D01*
X3537959Y330951D01*
X3538454Y329932D01*
X3538460Y329929D01*
X3538459Y329924D01*
X3539143Y329021D01*
X3539150Y329019D01*
X3539150Y329014D01*
X3539997Y328261D01*
X3540004Y328261D01*
X3540005Y328256D01*
X3540982Y327683D01*
X3540989Y327684D01*
X3540991Y327679D01*
X3542062Y327308D01*
X3542068Y327311D01*
X3542071Y327306D01*
X3543193Y327151D01*
X3543198Y327154D01*
X3543200Y327151D01*
X3555200Y327151D01*
X3555205Y327154D01*
G37*
G36*
X3555205Y240754D02*
X3555205Y240754D01*
X3555208Y240751D01*
X3556475Y240956D01*
X3556481Y240962D01*
X3556486Y240959D01*
X3557675Y241441D01*
X3557679Y241448D01*
X3557685Y241446D01*
X3558738Y242180D01*
X3558740Y242188D01*
X3558746Y242187D01*
X3559609Y243137D01*
X3559610Y243146D01*
X3559615Y243146D01*
X3560245Y244265D01*
X3560244Y244273D01*
X3560250Y244275D01*
X3560615Y245505D01*
X3560612Y245512D01*
X3560616Y245515D01*
X3560615Y245515D01*
X3560617Y245516D01*
X3560699Y246797D01*
X3560697Y246801D01*
X3560699Y246803D01*
X3560617Y248084D01*
X3560611Y248090D01*
X3560615Y248095D01*
X3560250Y249325D01*
X3560243Y249330D01*
X3560245Y249335D01*
X3559615Y250454D01*
X3559608Y250457D01*
X3559609Y250463D01*
X3558746Y251413D01*
X3558738Y251414D01*
X3558738Y251420D01*
X3557685Y252154D01*
X3557677Y252154D01*
X3557675Y252159D01*
X3556486Y252641D01*
X3556478Y252639D01*
X3556475Y252644D01*
X3555208Y252849D01*
X3555203Y252846D01*
X3555200Y252849D01*
X3543200Y252849D01*
X3543196Y252846D01*
X3543193Y252849D01*
X3542071Y252694D01*
X3542066Y252689D01*
X3542062Y252692D01*
X3540991Y252321D01*
X3540987Y252315D01*
X3540982Y252317D01*
X3540005Y251744D01*
X3540002Y251738D01*
X3539997Y251739D01*
X3539150Y250986D01*
X3539148Y250979D01*
X3539143Y250979D01*
X3538459Y250076D01*
X3538459Y250069D01*
X3538454Y250068D01*
X3537959Y249049D01*
X3537961Y249042D01*
X3537959Y249041D01*
X3537956Y249040D01*
X3537669Y247943D01*
X3537672Y247937D01*
X3537668Y247934D01*
X3537601Y246803D01*
X3537603Y246799D01*
X3537601Y246797D01*
X3537668Y245666D01*
X3537673Y245661D01*
X3537669Y245657D01*
X3537956Y244560D01*
X3537962Y244556D01*
X3537959Y244551D01*
X3538454Y243532D01*
X3538460Y243529D01*
X3538459Y243524D01*
X3539143Y242621D01*
X3539150Y242619D01*
X3539150Y242614D01*
X3539997Y241861D01*
X3540004Y241861D01*
X3540005Y241856D01*
X3540982Y241283D01*
X3540989Y241284D01*
X3540991Y241279D01*
X3542062Y240908D01*
X3542068Y240911D01*
X3542071Y240906D01*
X3543193Y240751D01*
X3543198Y240754D01*
X3543200Y240751D01*
X3555200Y240751D01*
X3555205Y240754D01*
G37*
G36*
X3594004Y327153D02*
X3594004Y327153D01*
X3594006Y327151D01*
X3595335Y327306D01*
X3595341Y327312D01*
X3595345Y327309D01*
X3596606Y327756D01*
X3596611Y327763D01*
X3596616Y327761D01*
X3597746Y328478D01*
X3597749Y328485D01*
X3597755Y328484D01*
X3598697Y329435D01*
X3598698Y329443D01*
X3598704Y329443D01*
X3599411Y330579D01*
X3599411Y330584D01*
X3599412Y330585D01*
X3599411Y330587D01*
X3599416Y330589D01*
X3599852Y331854D01*
X3599850Y331862D01*
X3599855Y331865D01*
X3599999Y333195D01*
X3599995Y333201D01*
X3599999Y333205D01*
X3599889Y334371D01*
X3599884Y334376D01*
X3599887Y334380D01*
X3599552Y335503D01*
X3599546Y335507D01*
X3599548Y335511D01*
X3599000Y336547D01*
X3598994Y336550D01*
X3598995Y336555D01*
X3598256Y337463D01*
X3598249Y337465D01*
X3598249Y337470D01*
X3597347Y338217D01*
X3597340Y338217D01*
X3597339Y338223D01*
X3596308Y338779D01*
X3596301Y338778D01*
X3596299Y338783D01*
X3595180Y339127D01*
X3595173Y339125D01*
X3595170Y339129D01*
X3594005Y339249D01*
X3594002Y339247D01*
X3594000Y339249D01*
X3588000Y339249D01*
X3587997Y339247D01*
X3587995Y339249D01*
X3586819Y339138D01*
X3586814Y339133D01*
X3586810Y339136D01*
X3585678Y338798D01*
X3585674Y338792D01*
X3585669Y338794D01*
X3584625Y338242D01*
X3584622Y338235D01*
X3584617Y338237D01*
X3583701Y337491D01*
X3583700Y337484D01*
X3583694Y337484D01*
X3582941Y336575D01*
X3582941Y336567D01*
X3582936Y336567D01*
X3582375Y335527D01*
X3582376Y335520D01*
X3582371Y335518D01*
X3582024Y334389D01*
X3582026Y334383D01*
X3582022Y334380D01*
X3581901Y333205D01*
X3581905Y333198D01*
X3581901Y333194D01*
X3582058Y331854D01*
X3582063Y331848D01*
X3582060Y331843D01*
X3582511Y330572D01*
X3582518Y330567D01*
X3582516Y330562D01*
X3583238Y329423D01*
X3583246Y329420D01*
X3583245Y329414D01*
X3584203Y328464D01*
X3584211Y328463D01*
X3584212Y328457D01*
X3585357Y327744D01*
X3585366Y327745D01*
X3585367Y327739D01*
X3586643Y327299D01*
X3586650Y327301D01*
X3586652Y327299D01*
X3586653Y327297D01*
X3587995Y327151D01*
X3587998Y327153D01*
X3588000Y327151D01*
X3594000Y327151D01*
X3594004Y327153D01*
G37*
G36*
X3594004Y240753D02*
X3594004Y240753D01*
X3594006Y240751D01*
X3595335Y240906D01*
X3595341Y240912D01*
X3595345Y240909D01*
X3596606Y241356D01*
X3596611Y241363D01*
X3596616Y241361D01*
X3597746Y242078D01*
X3597749Y242085D01*
X3597755Y242084D01*
X3598697Y243035D01*
X3598698Y243043D01*
X3598704Y243043D01*
X3599411Y244179D01*
X3599411Y244184D01*
X3599412Y244185D01*
X3599411Y244187D01*
X3599416Y244189D01*
X3599852Y245454D01*
X3599850Y245462D01*
X3599855Y245465D01*
X3599999Y246795D01*
X3599995Y246801D01*
X3599999Y246805D01*
X3599889Y247971D01*
X3599884Y247976D01*
X3599887Y247980D01*
X3599552Y249103D01*
X3599546Y249107D01*
X3599548Y249111D01*
X3599000Y250147D01*
X3598994Y250150D01*
X3598995Y250155D01*
X3598256Y251063D01*
X3598249Y251065D01*
X3598249Y251070D01*
X3597347Y251817D01*
X3597340Y251817D01*
X3597339Y251823D01*
X3596308Y252379D01*
X3596301Y252378D01*
X3596299Y252383D01*
X3595180Y252727D01*
X3595173Y252725D01*
X3595170Y252729D01*
X3594005Y252849D01*
X3594002Y252847D01*
X3594000Y252849D01*
X3588000Y252849D01*
X3587997Y252847D01*
X3587995Y252849D01*
X3586819Y252738D01*
X3586814Y252733D01*
X3586810Y252736D01*
X3585678Y252398D01*
X3585674Y252392D01*
X3585669Y252394D01*
X3584625Y251842D01*
X3584622Y251835D01*
X3584617Y251837D01*
X3583701Y251091D01*
X3583700Y251084D01*
X3583694Y251084D01*
X3582941Y250175D01*
X3582941Y250167D01*
X3582936Y250167D01*
X3582375Y249127D01*
X3582376Y249120D01*
X3582371Y249118D01*
X3582024Y247989D01*
X3582026Y247983D01*
X3582022Y247980D01*
X3581901Y246805D01*
X3581905Y246798D01*
X3581901Y246794D01*
X3582058Y245454D01*
X3582063Y245448D01*
X3582060Y245443D01*
X3582511Y244172D01*
X3582518Y244167D01*
X3582516Y244162D01*
X3583238Y243023D01*
X3583246Y243020D01*
X3583245Y243014D01*
X3584203Y242064D01*
X3584211Y242063D01*
X3584212Y242057D01*
X3585357Y241344D01*
X3585366Y241345D01*
X3585367Y241339D01*
X3586643Y240899D01*
X3586650Y240901D01*
X3586652Y240899D01*
X3586653Y240897D01*
X3587995Y240751D01*
X3587998Y240753D01*
X3588000Y240751D01*
X3594000Y240751D01*
X3594004Y240753D01*
G37*
D10*
X92000Y198500D03*
X92000Y181500D03*
D11*
X3137500Y2100000D03*
X26250Y462500D03*
X10000Y20000D03*
D12*
X228300Y75250D03*
X234800Y93650D03*
X241300Y93650D03*
X228300Y93650D03*
X234800Y75250D03*
X241300Y75250D03*
D13*
X146600Y57900D03*
X163600Y57900D03*
X226300Y59050D03*
X243300Y59050D03*
X226300Y109850D03*
X243300Y109850D03*
D10*
X209400Y92950D03*
X209400Y75950D03*
D14*
X265100Y95500D03*
X265100Y111500D03*
X306100Y111500D03*
X306100Y95500D03*
X306100Y73400D03*
X306100Y57400D03*
X265100Y57400D03*
X265100Y73400D03*
D15*
X502300Y223980D03*
X489600Y223980D03*
X476900Y223980D03*
X464200Y223980D03*
X451500Y223980D03*
X438800Y223980D03*
X426100Y223980D03*
X413400Y223980D03*
X400700Y223980D03*
X388000Y223980D03*
X375300Y223980D03*
X362600Y223980D03*
X349900Y223980D03*
X337200Y223980D03*
D16*
X322300Y198750D03*
X322300Y186050D03*
X322300Y173350D03*
X322300Y160650D03*
X322300Y147950D03*
X322300Y135250D03*
X322300Y122550D03*
X322300Y109850D03*
X322300Y97150D03*
X322300Y84450D03*
D15*
X337200Y59220D03*
X349900Y59220D03*
X362600Y59220D03*
X375300Y59220D03*
X388000Y59220D03*
X400700Y59220D03*
X413400Y59220D03*
X426100Y59220D03*
X438800Y59220D03*
X451500Y59220D03*
X464200Y59220D03*
X476900Y59220D03*
X489600Y59220D03*
X502300Y59220D03*
D17*
X425300Y141600D03*
D18*
X107200Y177799D03*
X116700Y177799D03*
X126200Y177799D03*
X126200Y203801D03*
X107200Y203801D03*
D19*
X158800Y124000D03*
X163800Y124000D03*
X168800Y124000D03*
X173800Y124000D03*
X178800Y124000D03*
X183800Y124000D03*
D20*
X191800Y116000D03*
X191800Y111000D03*
X191800Y106000D03*
X191800Y101000D03*
X191800Y96000D03*
X191800Y91000D03*
X150800Y91000D03*
X150800Y96000D03*
X150800Y101000D03*
X150800Y106000D03*
X150800Y111000D03*
X150800Y116000D03*
D19*
X183800Y83000D03*
X178800Y83000D03*
X173800Y83000D03*
X168800Y83000D03*
X163800Y83000D03*
X158800Y83000D03*
D21*
X171300Y103500D03*
D22*
X3430000Y75000D03*
X75000Y75000D03*
D23*
X3538460Y297500D03*
X3538460Y292500D03*
D24*
X3538460Y322250D03*
D25*
X3538460Y314500D03*
D23*
X3538460Y307500D03*
X3538460Y302500D03*
X3538460Y282500D03*
X3538460Y287500D03*
D24*
X3538460Y257750D03*
D25*
X3538460Y265500D03*
D23*
X3538460Y272500D03*
X3538460Y277500D03*
D26*
X3554450Y261100D03*
X3554450Y318900D03*
D13*
X3491500Y305000D03*
X3508500Y305000D03*
X3491500Y275000D03*
X3508500Y275000D03*
D27*
X3503000Y437500D03*
X3492000Y502500D03*
X3543000Y437500D03*
X3573000Y437500D03*
D28*
X3589000Y470000D03*
X3519000Y470000D03*
D29*
X229300Y140000D02*
X229302Y140172D01*
X229308Y140343D01*
X229319Y140515D01*
X229334Y140686D01*
X229353Y140857D01*
X229376Y141027D01*
X229403Y141197D01*
X229435Y141366D01*
X229470Y141534D01*
X229510Y141701D01*
X229554Y141867D01*
X229601Y142032D01*
X229653Y142196D01*
X229709Y142358D01*
X229769Y142519D01*
X229833Y142679D01*
X229901Y142837D01*
X229972Y142993D01*
X230047Y143147D01*
X230127Y143300D01*
X230209Y143450D01*
X230296Y143599D01*
X230386Y143745D01*
X230480Y143889D01*
X230577Y144031D01*
X230678Y144170D01*
X230782Y144307D01*
X230889Y144441D01*
X231000Y144572D01*
X231113Y144701D01*
X231230Y144827D01*
X231350Y144950D01*
X231473Y145070D01*
X231599Y145187D01*
X231728Y145300D01*
X231859Y145411D01*
X231993Y145518D01*
X232130Y145622D01*
X232269Y145723D01*
X232411Y145820D01*
X232555Y145914D01*
X232701Y146004D01*
X232850Y146091D01*
X233000Y146173D01*
X233153Y146253D01*
X233307Y146328D01*
X233463Y146399D01*
X233621Y146467D01*
X233781Y146531D01*
X233942Y146591D01*
X234104Y146647D01*
X234268Y146699D01*
X234433Y146746D01*
X234599Y146790D01*
X234766Y146830D01*
X234934Y146865D01*
X235103Y146897D01*
X235273Y146924D01*
X235443Y146947D01*
X235614Y146966D01*
X235785Y146981D01*
X235957Y146992D01*
X236128Y146998D01*
X236300Y147000D01*
X236472Y146998D01*
X236643Y146992D01*
X236815Y146981D01*
X236986Y146966D01*
X237157Y146947D01*
X237327Y146924D01*
X237497Y146897D01*
X237666Y146865D01*
X237834Y146830D01*
X238001Y146790D01*
X238167Y146746D01*
X238332Y146699D01*
X238496Y146647D01*
X238658Y146591D01*
X238819Y146531D01*
X238979Y146467D01*
X239137Y146399D01*
X239293Y146328D01*
X239447Y146253D01*
X239600Y146173D01*
X239750Y146091D01*
X239899Y146004D01*
X240045Y145914D01*
X240189Y145820D01*
X240331Y145723D01*
X240470Y145622D01*
X240607Y145518D01*
X240741Y145411D01*
X240872Y145300D01*
X241001Y145187D01*
X241127Y145070D01*
X241250Y144950D01*
X241370Y144827D01*
X241487Y144701D01*
X241600Y144572D01*
X241711Y144441D01*
X241818Y144307D01*
X241922Y144170D01*
X242023Y144031D01*
X242120Y143889D01*
X242214Y143745D01*
X242304Y143599D01*
X242391Y143450D01*
X242473Y143300D01*
X242553Y143147D01*
X242628Y142993D01*
X242699Y142837D01*
X242767Y142679D01*
X242831Y142519D01*
X242891Y142358D01*
X242947Y142196D01*
X242999Y142032D01*
X243046Y141867D01*
X243090Y141701D01*
X243130Y141534D01*
X243165Y141366D01*
X243197Y141197D01*
X243224Y141027D01*
X243247Y140857D01*
X243266Y140686D01*
X243281Y140515D01*
X243292Y140343D01*
X243298Y140172D01*
X243300Y140000D01*
X243298Y139828D01*
X243292Y139657D01*
X243281Y139485D01*
X243266Y139314D01*
X243247Y139143D01*
X243224Y138973D01*
X243197Y138803D01*
X243165Y138634D01*
X243130Y138466D01*
X243090Y138299D01*
X243046Y138133D01*
X242999Y137968D01*
X242947Y137804D01*
X242891Y137642D01*
X242831Y137481D01*
X242767Y137321D01*
X242699Y137163D01*
X242628Y137007D01*
X242553Y136853D01*
X242473Y136700D01*
X242391Y136550D01*
X242304Y136401D01*
X242214Y136255D01*
X242120Y136111D01*
X242023Y135969D01*
X241922Y135830D01*
X241818Y135693D01*
X241711Y135559D01*
X241600Y135428D01*
X241487Y135299D01*
X241370Y135173D01*
X241250Y135050D01*
X241127Y134930D01*
X241001Y134813D01*
X240872Y134700D01*
X240741Y134589D01*
X240607Y134482D01*
X240470Y134378D01*
X240331Y134277D01*
X240189Y134180D01*
X240045Y134086D01*
X239899Y133996D01*
X239750Y133909D01*
X239600Y133827D01*
X239447Y133747D01*
X239293Y133672D01*
X239137Y133601D01*
X238979Y133533D01*
X238819Y133469D01*
X238658Y133409D01*
X238496Y133353D01*
X238332Y133301D01*
X238167Y133254D01*
X238001Y133210D01*
X237834Y133170D01*
X237666Y133135D01*
X237497Y133103D01*
X237327Y133076D01*
X237157Y133053D01*
X236986Y133034D01*
X236815Y133019D01*
X236643Y133008D01*
X236472Y133002D01*
X236300Y133000D01*
X236128Y133002D01*
X235957Y133008D01*
X235785Y133019D01*
X235614Y133034D01*
X235443Y133053D01*
X235273Y133076D01*
X235103Y133103D01*
X234934Y133135D01*
X234766Y133170D01*
X234599Y133210D01*
X234433Y133254D01*
X234268Y133301D01*
X234104Y133353D01*
X233942Y133409D01*
X233781Y133469D01*
X233621Y133533D01*
X233463Y133601D01*
X233307Y133672D01*
X233153Y133747D01*
X233000Y133827D01*
X232850Y133909D01*
X232701Y133996D01*
X232555Y134086D01*
X232411Y134180D01*
X232269Y134277D01*
X232130Y134378D01*
X231993Y134482D01*
X231859Y134589D01*
X231728Y134700D01*
X231599Y134813D01*
X231473Y134930D01*
X231350Y135050D01*
X231230Y135173D01*
X231113Y135299D01*
X231000Y135428D01*
X230889Y135559D01*
X230782Y135693D01*
X230678Y135830D01*
X230577Y135969D01*
X230480Y136111D01*
X230386Y136255D01*
X230296Y136401D01*
X230209Y136550D01*
X230127Y136700D01*
X230047Y136853D01*
X229972Y137007D01*
X229901Y137163D01*
X229833Y137321D01*
X229769Y137481D01*
X229709Y137642D01*
X229653Y137804D01*
X229601Y137968D01*
X229554Y138133D01*
X229510Y138299D01*
X229470Y138466D01*
X229435Y138634D01*
X229403Y138803D01*
X229376Y138973D01*
X229353Y139143D01*
X229334Y139314D01*
X229319Y139485D01*
X229308Y139657D01*
X229302Y139828D01*
X229300Y140000D01*
D30*
X249300Y132000D03*
D31*
X236300Y166200D03*
X224300Y166200D03*
D30*
X223300Y132000D03*
D31*
X248300Y166200D03*
X236300Y140000D03*
D13*
X233500Y190000D03*
X216500Y190000D03*
X181500Y190000D03*
X198500Y190000D03*
D32*
X203301Y207200D03*
X203301Y216700D03*
X203301Y226200D03*
X177299Y226200D03*
X177299Y207200D03*
D10*
X275000Y225500D03*
X275000Y208500D03*
X245150Y208200D03*
X245150Y225200D03*
X226100Y225200D03*
X226100Y208200D03*
D13*
X198500Y160000D03*
X181500Y160000D03*
D10*
X158550Y208200D03*
X158550Y225200D03*
D13*
X181500Y175000D03*
X198500Y175000D03*
D10*
X3514350Y394400D03*
X3514350Y377400D03*
X3457200Y394400D03*
X3457200Y377400D03*
X3495300Y377400D03*
X3495300Y394400D03*
X3552450Y394400D03*
X3552450Y377400D03*
X3476250Y394400D03*
X3476250Y377400D03*
X3533400Y377400D03*
X3533400Y394400D03*
D13*
X3467750Y411300D03*
X3484750Y411300D03*
X3540100Y413700D03*
X3523100Y413700D03*
D33*
X269520Y2046500D03*
X217980Y2046500D03*
X217980Y2078500D03*
X269520Y2078500D03*
X419520Y2046500D03*
X367980Y2046500D03*
X367980Y2078500D03*
X419520Y2078500D03*
D34*
X239686Y2062500D03*
X247814Y2062500D03*
X389686Y2062500D03*
X397814Y2062500D03*
D33*
X569520Y2046500D03*
X517980Y2046500D03*
X517980Y2078500D03*
X569520Y2078500D03*
X719520Y2046500D03*
X667980Y2046500D03*
X667980Y2078500D03*
X719520Y2078500D03*
D34*
X539686Y2062500D03*
X547814Y2062500D03*
X689686Y2062500D03*
X697814Y2062500D03*
D33*
X869520Y2046500D03*
X817980Y2046500D03*
X817980Y2078500D03*
X869520Y2078500D03*
X1019520Y2046500D03*
X967980Y2046500D03*
X967980Y2078500D03*
X1019520Y2078500D03*
D34*
X839686Y2062500D03*
X847814Y2062500D03*
X989686Y2062500D03*
X997814Y2062500D03*
D33*
X1169520Y2046500D03*
X1117980Y2046500D03*
X1117980Y2078500D03*
X1169520Y2078500D03*
X1319520Y2046500D03*
X1267980Y2046500D03*
X1267980Y2078500D03*
X1319520Y2078500D03*
D34*
X1139686Y2062500D03*
X1147814Y2062500D03*
X1289686Y2062500D03*
X1297814Y2062500D03*
D33*
X1469520Y2046500D03*
X1417980Y2046500D03*
X1417980Y2078500D03*
X1469520Y2078500D03*
D34*
X1439686Y2062500D03*
X1447814Y2062500D03*
D33*
X2069520Y2046500D03*
X2017980Y2046500D03*
X2017980Y2078500D03*
X2069520Y2078500D03*
D34*
X2039686Y2062500D03*
X2047814Y2062500D03*
D33*
X2219520Y2046500D03*
X2167980Y2046500D03*
X2167980Y2078500D03*
X2219520Y2078500D03*
X2369520Y2046500D03*
X2317980Y2046500D03*
X2317980Y2078500D03*
X2369520Y2078500D03*
D34*
X2189686Y2062500D03*
X2197814Y2062500D03*
X2339686Y2062500D03*
X2347814Y2062500D03*
D33*
X2519520Y2046500D03*
X2467980Y2046500D03*
X2467980Y2078500D03*
X2519520Y2078500D03*
X2669520Y2046500D03*
X2617980Y2046500D03*
X2617980Y2078500D03*
X2669520Y2078500D03*
D34*
X2489686Y2062500D03*
X2497814Y2062500D03*
X2639686Y2062500D03*
X2647814Y2062500D03*
D33*
X2819520Y2046500D03*
X2767980Y2046500D03*
X2767980Y2078500D03*
X2819520Y2078500D03*
X2969520Y2046500D03*
X2917980Y2046500D03*
X2917980Y2078500D03*
X2969520Y2078500D03*
D34*
X2789686Y2062500D03*
X2797814Y2062500D03*
X2939686Y2062500D03*
X2947814Y2062500D03*
D33*
X119520Y1896500D03*
X67980Y1896500D03*
X67980Y1928500D03*
X119520Y1928500D03*
D34*
X89686Y1912500D03*
X97814Y1912500D03*
D33*
X269520Y1896500D03*
X217980Y1896500D03*
X217980Y1928500D03*
X269520Y1928500D03*
D34*
X239686Y1912500D03*
X247814Y1912500D03*
D33*
X419520Y1896500D03*
X367980Y1896500D03*
X367980Y1928500D03*
X419520Y1928500D03*
X569520Y1896500D03*
X517980Y1896500D03*
X517980Y1928500D03*
X569520Y1928500D03*
D34*
X389686Y1912500D03*
X397814Y1912500D03*
X539686Y1912500D03*
X547814Y1912500D03*
D33*
X719520Y1896500D03*
X667980Y1896500D03*
X667980Y1928500D03*
X719520Y1928500D03*
X869520Y1896500D03*
X817980Y1896500D03*
X817980Y1928500D03*
X869520Y1928500D03*
D34*
X689686Y1912500D03*
X697814Y1912500D03*
X839686Y1912500D03*
X847814Y1912500D03*
D33*
X1019520Y1896500D03*
X967980Y1896500D03*
X967980Y1928500D03*
X1019520Y1928500D03*
X1169520Y1896500D03*
X1117980Y1896500D03*
X1117980Y1928500D03*
X1169520Y1928500D03*
D34*
X989686Y1912500D03*
X997814Y1912500D03*
X1139686Y1912500D03*
X1147814Y1912500D03*
D33*
X1319520Y1896500D03*
X1267980Y1896500D03*
X1267980Y1928500D03*
X1319520Y1928500D03*
X1469520Y1896500D03*
X1417980Y1896500D03*
X1417980Y1928500D03*
X1469520Y1928500D03*
D34*
X1289686Y1912500D03*
X1297814Y1912500D03*
X1439686Y1912500D03*
X1447814Y1912500D03*
D33*
X1619520Y1896500D03*
X1567980Y1896500D03*
X1567980Y1928500D03*
X1619520Y1928500D03*
X1769520Y1896500D03*
X1717980Y1896500D03*
X1717980Y1928500D03*
X1769520Y1928500D03*
D34*
X1589686Y1912500D03*
X1597814Y1912500D03*
X1739686Y1912500D03*
X1747814Y1912500D03*
D33*
X1919520Y1896500D03*
X1867980Y1896500D03*
X1867980Y1928500D03*
X1919520Y1928500D03*
D34*
X1889686Y1912500D03*
X1897814Y1912500D03*
D33*
X2069520Y1896500D03*
X2017980Y1896500D03*
X2017980Y1928500D03*
X2069520Y1928500D03*
X2219520Y1896500D03*
X2167980Y1896500D03*
X2167980Y1928500D03*
X2219520Y1928500D03*
D34*
X2039686Y1912500D03*
X2047814Y1912500D03*
X2189686Y1912500D03*
X2197814Y1912500D03*
D33*
X2369520Y1896500D03*
X2317980Y1896500D03*
X2317980Y1928500D03*
X2369520Y1928500D03*
X2519520Y1896500D03*
X2467980Y1896500D03*
X2467980Y1928500D03*
X2519520Y1928500D03*
D34*
X2339686Y1912500D03*
X2347814Y1912500D03*
X2489686Y1912500D03*
X2497814Y1912500D03*
D33*
X2669520Y1896500D03*
X2617980Y1896500D03*
X2617980Y1928500D03*
X2669520Y1928500D03*
X2819520Y1896500D03*
X2767980Y1896500D03*
X2767980Y1928500D03*
X2819520Y1928500D03*
D34*
X2639686Y1912500D03*
X2647814Y1912500D03*
X2789686Y1912500D03*
X2797814Y1912500D03*
D33*
X2969520Y1896500D03*
X2917980Y1896500D03*
X2917980Y1928500D03*
X2969520Y1928500D03*
X3119520Y1896500D03*
X3067980Y1896500D03*
X3067980Y1928500D03*
X3119520Y1928500D03*
D34*
X2939686Y1912500D03*
X2947814Y1912500D03*
X3089686Y1912500D03*
X3097814Y1912500D03*
D33*
X119520Y1746500D03*
X67980Y1746500D03*
X67980Y1778500D03*
X119520Y1778500D03*
X269520Y1746500D03*
X217980Y1746500D03*
X217980Y1778500D03*
X269520Y1778500D03*
D34*
X89686Y1762500D03*
X97814Y1762500D03*
X239686Y1762500D03*
X247814Y1762500D03*
D33*
X419520Y1746500D03*
X367980Y1746500D03*
X367980Y1778500D03*
X419520Y1778500D03*
D34*
X389686Y1762500D03*
X397814Y1762500D03*
D33*
X569520Y1746500D03*
X517980Y1746500D03*
X517980Y1778500D03*
X569520Y1778500D03*
X719520Y1746500D03*
X667980Y1746500D03*
X667980Y1778500D03*
X719520Y1778500D03*
D34*
X539686Y1762500D03*
X547814Y1762500D03*
X689686Y1762500D03*
X697814Y1762500D03*
D33*
X869520Y1746500D03*
X817980Y1746500D03*
X817980Y1778500D03*
X869520Y1778500D03*
X1019520Y1746500D03*
X967980Y1746500D03*
X967980Y1778500D03*
X1019520Y1778500D03*
D34*
X839686Y1762500D03*
X847814Y1762500D03*
X989686Y1762500D03*
X997814Y1762500D03*
D33*
X1169520Y1746500D03*
X1117980Y1746500D03*
X1117980Y1778500D03*
X1169520Y1778500D03*
X1319520Y1746500D03*
X1267980Y1746500D03*
X1267980Y1778500D03*
X1319520Y1778500D03*
D34*
X1139686Y1762500D03*
X1147814Y1762500D03*
X1289686Y1762500D03*
X1297814Y1762500D03*
D33*
X1469520Y1746500D03*
X1417980Y1746500D03*
X1417980Y1778500D03*
X1469520Y1778500D03*
X1619520Y1746500D03*
X1567980Y1746500D03*
X1567980Y1778500D03*
X1619520Y1778500D03*
D34*
X1439686Y1762500D03*
X1447814Y1762500D03*
X1589686Y1762500D03*
X1597814Y1762500D03*
D33*
X1769520Y1746500D03*
X1717980Y1746500D03*
X1717980Y1778500D03*
X1769520Y1778500D03*
X1919520Y1746500D03*
X1867980Y1746500D03*
X1867980Y1778500D03*
X1919520Y1778500D03*
D34*
X1739686Y1762500D03*
X1747814Y1762500D03*
X1889686Y1762500D03*
X1897814Y1762500D03*
D33*
X2069520Y1746500D03*
X2017980Y1746500D03*
X2017980Y1778500D03*
X2069520Y1778500D03*
D34*
X2039686Y1762500D03*
X2047814Y1762500D03*
D33*
X2219520Y1746500D03*
X2167980Y1746500D03*
X2167980Y1778500D03*
X2219520Y1778500D03*
X2369520Y1746500D03*
X2317980Y1746500D03*
X2317980Y1778500D03*
X2369520Y1778500D03*
D34*
X2189686Y1762500D03*
X2197814Y1762500D03*
X2339686Y1762500D03*
X2347814Y1762500D03*
D33*
X2519520Y1746500D03*
X2467980Y1746500D03*
X2467980Y1778500D03*
X2519520Y1778500D03*
X2669520Y1746500D03*
X2617980Y1746500D03*
X2617980Y1778500D03*
X2669520Y1778500D03*
D34*
X2489686Y1762500D03*
X2497814Y1762500D03*
X2639686Y1762500D03*
X2647814Y1762500D03*
D33*
X2819520Y1746500D03*
X2767980Y1746500D03*
X2767980Y1778500D03*
X2819520Y1778500D03*
X2969520Y1746500D03*
X2917980Y1746500D03*
X2917980Y1778500D03*
X2969520Y1778500D03*
D34*
X2789686Y1762500D03*
X2797814Y1762500D03*
X2939686Y1762500D03*
X2947814Y1762500D03*
D33*
X3119520Y1746500D03*
X3067980Y1746500D03*
X3067980Y1778500D03*
X3119520Y1778500D03*
X119520Y1596500D03*
X67980Y1596500D03*
X67980Y1628500D03*
X119520Y1628500D03*
D34*
X3089686Y1762500D03*
X3097814Y1762500D03*
X89686Y1612500D03*
X97814Y1612500D03*
D33*
X269520Y1596500D03*
X217980Y1596500D03*
X217980Y1628500D03*
X269520Y1628500D03*
X419520Y1596500D03*
X367980Y1596500D03*
X367980Y1628500D03*
X419520Y1628500D03*
D34*
X239686Y1612500D03*
X247814Y1612500D03*
X389686Y1612500D03*
X397814Y1612500D03*
D33*
X569520Y1596500D03*
X517980Y1596500D03*
X517980Y1628500D03*
X569520Y1628500D03*
D34*
X539686Y1612500D03*
X547814Y1612500D03*
D33*
X719520Y1596500D03*
X667980Y1596500D03*
X667980Y1628500D03*
X719520Y1628500D03*
X869520Y1596500D03*
X817980Y1596500D03*
X817980Y1628500D03*
X869520Y1628500D03*
D34*
X689686Y1612500D03*
X697814Y1612500D03*
X839686Y1612500D03*
X847814Y1612500D03*
D33*
X1019520Y1596500D03*
X967980Y1596500D03*
X967980Y1628500D03*
X1019520Y1628500D03*
X1169520Y1596500D03*
X1117980Y1596500D03*
X1117980Y1628500D03*
X1169520Y1628500D03*
D34*
X989686Y1612500D03*
X997814Y1612500D03*
X1139686Y1612500D03*
X1147814Y1612500D03*
D33*
X1319520Y1596500D03*
X1267980Y1596500D03*
X1267980Y1628500D03*
X1319520Y1628500D03*
X1469520Y1596500D03*
X1417980Y1596500D03*
X1417980Y1628500D03*
X1469520Y1628500D03*
D34*
X1289686Y1612500D03*
X1297814Y1612500D03*
X1439686Y1612500D03*
X1447814Y1612500D03*
D33*
X1619520Y1596500D03*
X1567980Y1596500D03*
X1567980Y1628500D03*
X1619520Y1628500D03*
X1769520Y1596500D03*
X1717980Y1596500D03*
X1717980Y1628500D03*
X1769520Y1628500D03*
D34*
X1589686Y1612500D03*
X1597814Y1612500D03*
X1739686Y1612500D03*
X1747814Y1612500D03*
D33*
X1919520Y1596500D03*
X1867980Y1596500D03*
X1867980Y1628500D03*
X1919520Y1628500D03*
X2069520Y1596500D03*
X2017980Y1596500D03*
X2017980Y1628500D03*
X2069520Y1628500D03*
D34*
X1889686Y1612500D03*
X1897814Y1612500D03*
X2039686Y1612500D03*
X2047814Y1612500D03*
D33*
X2219520Y1596500D03*
X2167980Y1596500D03*
X2167980Y1628500D03*
X2219520Y1628500D03*
D34*
X2189686Y1612500D03*
X2197814Y1612500D03*
D33*
X2369520Y1596500D03*
X2317980Y1596500D03*
X2317980Y1628500D03*
X2369520Y1628500D03*
X2519520Y1596500D03*
X2467980Y1596500D03*
X2467980Y1628500D03*
X2519520Y1628500D03*
D34*
X2339686Y1612500D03*
X2347814Y1612500D03*
X2489686Y1612500D03*
X2497814Y1612500D03*
D33*
X2669520Y1596500D03*
X2617980Y1596500D03*
X2617980Y1628500D03*
X2669520Y1628500D03*
X2819520Y1596500D03*
X2767980Y1596500D03*
X2767980Y1628500D03*
X2819520Y1628500D03*
D34*
X2639686Y1612500D03*
X2647814Y1612500D03*
X2789686Y1612500D03*
X2797814Y1612500D03*
D33*
X2969520Y1596500D03*
X2917980Y1596500D03*
X2917980Y1628500D03*
X2969520Y1628500D03*
X3419520Y1596500D03*
X3367980Y1596500D03*
X3367980Y1628500D03*
X3419520Y1628500D03*
D34*
X2939686Y1612500D03*
X2947814Y1612500D03*
X3389686Y1612500D03*
X3397814Y1612500D03*
D33*
X119520Y1446500D03*
X67980Y1446500D03*
X67980Y1478500D03*
X119520Y1478500D03*
X269520Y1446500D03*
X217980Y1446500D03*
X217980Y1478500D03*
X269520Y1478500D03*
D34*
X89686Y1462500D03*
X97814Y1462500D03*
X239686Y1462500D03*
X247814Y1462500D03*
D33*
X419520Y1446500D03*
X367980Y1446500D03*
X367980Y1478500D03*
X419520Y1478500D03*
X569520Y1446500D03*
X517980Y1446500D03*
X517980Y1478500D03*
X569520Y1478500D03*
D34*
X389686Y1462500D03*
X397814Y1462500D03*
X539686Y1462500D03*
X547814Y1462500D03*
D33*
X719520Y1446500D03*
X667980Y1446500D03*
X667980Y1478500D03*
X719520Y1478500D03*
D34*
X689686Y1462500D03*
X697814Y1462500D03*
D33*
X869520Y1446500D03*
X817980Y1446500D03*
X817980Y1478500D03*
X869520Y1478500D03*
X1019520Y1446500D03*
X967980Y1446500D03*
X967980Y1478500D03*
X1019520Y1478500D03*
D34*
X839686Y1462500D03*
X847814Y1462500D03*
X989686Y1462500D03*
X997814Y1462500D03*
D33*
X1169520Y1446500D03*
X1117980Y1446500D03*
X1117980Y1478500D03*
X1169520Y1478500D03*
X1319520Y1446500D03*
X1267980Y1446500D03*
X1267980Y1478500D03*
X1319520Y1478500D03*
D34*
X1139686Y1462500D03*
X1147814Y1462500D03*
X1289686Y1462500D03*
X1297814Y1462500D03*
D33*
X1469520Y1446500D03*
X1417980Y1446500D03*
X1417980Y1478500D03*
X1469520Y1478500D03*
X1619520Y1446500D03*
X1567980Y1446500D03*
X1567980Y1478500D03*
X1619520Y1478500D03*
D34*
X1439686Y1462500D03*
X1447814Y1462500D03*
X1589686Y1462500D03*
X1597814Y1462500D03*
D33*
X1769520Y1446500D03*
X1717980Y1446500D03*
X1717980Y1478500D03*
X1769520Y1478500D03*
X1919520Y1446500D03*
X1867980Y1446500D03*
X1867980Y1478500D03*
X1919520Y1478500D03*
D34*
X1739686Y1462500D03*
X1747814Y1462500D03*
X1889686Y1462500D03*
X1897814Y1462500D03*
D33*
X2069520Y1446500D03*
X2017980Y1446500D03*
X2017980Y1478500D03*
X2069520Y1478500D03*
X2219520Y1446500D03*
X2167980Y1446500D03*
X2167980Y1478500D03*
X2219520Y1478500D03*
D34*
X2039686Y1462500D03*
X2047814Y1462500D03*
X2189686Y1462500D03*
X2197814Y1462500D03*
D33*
X2369520Y1446500D03*
X2317980Y1446500D03*
X2317980Y1478500D03*
X2369520Y1478500D03*
D34*
X2339686Y1462500D03*
X2347814Y1462500D03*
D33*
X2519520Y1446500D03*
X2467980Y1446500D03*
X2467980Y1478500D03*
X2519520Y1478500D03*
X2669520Y1446500D03*
X2617980Y1446500D03*
X2617980Y1478500D03*
X2669520Y1478500D03*
D34*
X2489686Y1462500D03*
X2497814Y1462500D03*
X2639686Y1462500D03*
X2647814Y1462500D03*
D33*
X2819520Y1446500D03*
X2767980Y1446500D03*
X2767980Y1478500D03*
X2819520Y1478500D03*
X2969520Y1446500D03*
X2917980Y1446500D03*
X2917980Y1478500D03*
X2969520Y1478500D03*
D34*
X2789686Y1462500D03*
X2797814Y1462500D03*
X2939686Y1462500D03*
X2947814Y1462500D03*
D33*
X3119520Y1446500D03*
X3067980Y1446500D03*
X3067980Y1478500D03*
X3119520Y1478500D03*
X119520Y1296500D03*
X67980Y1296500D03*
X67980Y1328500D03*
X119520Y1328500D03*
D34*
X3089686Y1462500D03*
X3097814Y1462500D03*
X89686Y1312500D03*
X97814Y1312500D03*
D33*
X269520Y1296500D03*
X217980Y1296500D03*
X217980Y1328500D03*
X269520Y1328500D03*
X419520Y1296500D03*
X367980Y1296500D03*
X367980Y1328500D03*
X419520Y1328500D03*
D34*
X239686Y1312500D03*
X247814Y1312500D03*
X389686Y1312500D03*
X397814Y1312500D03*
D33*
X569520Y1296500D03*
X517980Y1296500D03*
X517980Y1328500D03*
X569520Y1328500D03*
X719520Y1296500D03*
X667980Y1296500D03*
X667980Y1328500D03*
X719520Y1328500D03*
D34*
X539686Y1312500D03*
X547814Y1312500D03*
X689686Y1312500D03*
X697814Y1312500D03*
D33*
X869520Y1296500D03*
X817980Y1296500D03*
X817980Y1328500D03*
X869520Y1328500D03*
D34*
X839686Y1312500D03*
X847814Y1312500D03*
D33*
X1019520Y1296500D03*
X967980Y1296500D03*
X967980Y1328500D03*
X1019520Y1328500D03*
X1169520Y1296500D03*
X1117980Y1296500D03*
X1117980Y1328500D03*
X1169520Y1328500D03*
D34*
X989686Y1312500D03*
X997814Y1312500D03*
X1139686Y1312500D03*
X1147814Y1312500D03*
D33*
X1319520Y1296500D03*
X1267980Y1296500D03*
X1267980Y1328500D03*
X1319520Y1328500D03*
X1469520Y1296500D03*
X1417980Y1296500D03*
X1417980Y1328500D03*
X1469520Y1328500D03*
D34*
X1289686Y1312500D03*
X1297814Y1312500D03*
X1439686Y1312500D03*
X1447814Y1312500D03*
D33*
X1619520Y1296500D03*
X1567980Y1296500D03*
X1567980Y1328500D03*
X1619520Y1328500D03*
X1769520Y1296500D03*
X1717980Y1296500D03*
X1717980Y1328500D03*
X1769520Y1328500D03*
D34*
X1589686Y1312500D03*
X1597814Y1312500D03*
X1739686Y1312500D03*
X1747814Y1312500D03*
D33*
X1919520Y1296500D03*
X1867980Y1296500D03*
X1867980Y1328500D03*
X1919520Y1328500D03*
X2069520Y1296500D03*
X2017980Y1296500D03*
X2017980Y1328500D03*
X2069520Y1328500D03*
D34*
X1889686Y1312500D03*
X1897814Y1312500D03*
X2039686Y1312500D03*
X2047814Y1312500D03*
D33*
X2219520Y1296500D03*
X2167980Y1296500D03*
X2167980Y1328500D03*
X2219520Y1328500D03*
X2369520Y1296500D03*
X2317980Y1296500D03*
X2317980Y1328500D03*
X2369520Y1328500D03*
D34*
X2189686Y1312500D03*
X2197814Y1312500D03*
X2339686Y1312500D03*
X2347814Y1312500D03*
D33*
X2519520Y1296500D03*
X2467980Y1296500D03*
X2467980Y1328500D03*
X2519520Y1328500D03*
D34*
X2489686Y1312500D03*
X2497814Y1312500D03*
D33*
X2669520Y1296500D03*
X2617980Y1296500D03*
X2617980Y1328500D03*
X2669520Y1328500D03*
X2819520Y1296500D03*
X2767980Y1296500D03*
X2767980Y1328500D03*
X2819520Y1328500D03*
D34*
X2639686Y1312500D03*
X2647814Y1312500D03*
X2789686Y1312500D03*
X2797814Y1312500D03*
D33*
X2969520Y1296500D03*
X2917980Y1296500D03*
X2917980Y1328500D03*
X2969520Y1328500D03*
X3119520Y1296500D03*
X3067980Y1296500D03*
X3067980Y1328500D03*
X3119520Y1328500D03*
D34*
X2939686Y1312500D03*
X2947814Y1312500D03*
X3089686Y1312500D03*
X3097814Y1312500D03*
D33*
X119520Y1146500D03*
X67980Y1146500D03*
X67980Y1178500D03*
X119520Y1178500D03*
X269520Y1146500D03*
X217980Y1146500D03*
X217980Y1178500D03*
X269520Y1178500D03*
D34*
X89686Y1162500D03*
X97814Y1162500D03*
X239686Y1162500D03*
X247814Y1162500D03*
D33*
X419520Y1146500D03*
X367980Y1146500D03*
X367980Y1178500D03*
X419520Y1178500D03*
X569520Y1146500D03*
X517980Y1146500D03*
X517980Y1178500D03*
X569520Y1178500D03*
D34*
X389686Y1162500D03*
X397814Y1162500D03*
X539686Y1162500D03*
X547814Y1162500D03*
D33*
X719520Y1146500D03*
X667980Y1146500D03*
X667980Y1178500D03*
X719520Y1178500D03*
X869520Y1146500D03*
X817980Y1146500D03*
X817980Y1178500D03*
X869520Y1178500D03*
D34*
X689686Y1162500D03*
X697814Y1162500D03*
X839686Y1162500D03*
X847814Y1162500D03*
D33*
X1019520Y1146500D03*
X967980Y1146500D03*
X967980Y1178500D03*
X1019520Y1178500D03*
D34*
X989686Y1162500D03*
X997814Y1162500D03*
D33*
X1169520Y1146500D03*
X1117980Y1146500D03*
X1117980Y1178500D03*
X1169520Y1178500D03*
X1319520Y1146500D03*
X1267980Y1146500D03*
X1267980Y1178500D03*
X1319520Y1178500D03*
D34*
X1139686Y1162500D03*
X1147814Y1162500D03*
X1289686Y1162500D03*
X1297814Y1162500D03*
D33*
X1469520Y1146500D03*
X1417980Y1146500D03*
X1417980Y1178500D03*
X1469520Y1178500D03*
X1619520Y1146500D03*
X1567980Y1146500D03*
X1567980Y1178500D03*
X1619520Y1178500D03*
D34*
X1439686Y1162500D03*
X1447814Y1162500D03*
X1589686Y1162500D03*
X1597814Y1162500D03*
D33*
X1769520Y1146500D03*
X1717980Y1146500D03*
X1717980Y1178500D03*
X1769520Y1178500D03*
X1919520Y1146500D03*
X1867980Y1146500D03*
X1867980Y1178500D03*
X1919520Y1178500D03*
D34*
X1739686Y1162500D03*
X1747814Y1162500D03*
X1889686Y1162500D03*
X1897814Y1162500D03*
D33*
X2069520Y1146500D03*
X2017980Y1146500D03*
X2017980Y1178500D03*
X2069520Y1178500D03*
X2219520Y1146500D03*
X2167980Y1146500D03*
X2167980Y1178500D03*
X2219520Y1178500D03*
D34*
X2039686Y1162500D03*
X2047814Y1162500D03*
X2189686Y1162500D03*
X2197814Y1162500D03*
D33*
X2369520Y1146500D03*
X2317980Y1146500D03*
X2317980Y1178500D03*
X2369520Y1178500D03*
X2519520Y1146500D03*
X2467980Y1146500D03*
X2467980Y1178500D03*
X2519520Y1178500D03*
D34*
X2339686Y1162500D03*
X2347814Y1162500D03*
X2489686Y1162500D03*
X2497814Y1162500D03*
D33*
X2669520Y1146500D03*
X2617980Y1146500D03*
X2617980Y1178500D03*
X2669520Y1178500D03*
D34*
X2639686Y1162500D03*
X2647814Y1162500D03*
D33*
X2819520Y1146500D03*
X2767980Y1146500D03*
X2767980Y1178500D03*
X2819520Y1178500D03*
X2969520Y1146500D03*
X2917980Y1146500D03*
X2917980Y1178500D03*
X2969520Y1178500D03*
D34*
X2789686Y1162500D03*
X2797814Y1162500D03*
X2939686Y1162500D03*
X2947814Y1162500D03*
D33*
X3119520Y1146500D03*
X3067980Y1146500D03*
X3067980Y1178500D03*
X3119520Y1178500D03*
X119520Y996500D03*
X67980Y996500D03*
X67980Y1028500D03*
X119520Y1028500D03*
D34*
X3089686Y1162500D03*
X3097814Y1162500D03*
X89686Y1012500D03*
X97814Y1012500D03*
D33*
X269520Y996500D03*
X217980Y996500D03*
X217980Y1028500D03*
X269520Y1028500D03*
X419520Y996500D03*
X367980Y996500D03*
X367980Y1028500D03*
X419520Y1028500D03*
D34*
X239686Y1012500D03*
X247814Y1012500D03*
X389686Y1012500D03*
X397814Y1012500D03*
D33*
X569520Y996500D03*
X517980Y996500D03*
X517980Y1028500D03*
X569520Y1028500D03*
X719520Y996500D03*
X667980Y996500D03*
X667980Y1028500D03*
X719520Y1028500D03*
D34*
X539686Y1012500D03*
X547814Y1012500D03*
X689686Y1012500D03*
X697814Y1012500D03*
D33*
X869520Y996500D03*
X817980Y996500D03*
X817980Y1028500D03*
X869520Y1028500D03*
X1019520Y996500D03*
X967980Y996500D03*
X967980Y1028500D03*
X1019520Y1028500D03*
D34*
X839686Y1012500D03*
X847814Y1012500D03*
X989686Y1012500D03*
X997814Y1012500D03*
D33*
X1169520Y996500D03*
X1117980Y996500D03*
X1117980Y1028500D03*
X1169520Y1028500D03*
D34*
X1139686Y1012500D03*
X1147814Y1012500D03*
D33*
X1319520Y996500D03*
X1267980Y996500D03*
X1267980Y1028500D03*
X1319520Y1028500D03*
X1469520Y996500D03*
X1417980Y996500D03*
X1417980Y1028500D03*
X1469520Y1028500D03*
D34*
X1289686Y1012500D03*
X1297814Y1012500D03*
X1439686Y1012500D03*
X1447814Y1012500D03*
D33*
X1619520Y996500D03*
X1567980Y996500D03*
X1567980Y1028500D03*
X1619520Y1028500D03*
X1769520Y996500D03*
X1717980Y996500D03*
X1717980Y1028500D03*
X1769520Y1028500D03*
D34*
X1589686Y1012500D03*
X1597814Y1012500D03*
X1739686Y1012500D03*
X1747814Y1012500D03*
D33*
X1919520Y996500D03*
X1867980Y996500D03*
X1867980Y1028500D03*
X1919520Y1028500D03*
X2369520Y996500D03*
X2317980Y996500D03*
X2317980Y1028500D03*
X2369520Y1028500D03*
D34*
X1889686Y1012500D03*
X1897814Y1012500D03*
X2339686Y1012500D03*
X2347814Y1012500D03*
D33*
X2519520Y996500D03*
X2467980Y996500D03*
X2467980Y1028500D03*
X2519520Y1028500D03*
X2669520Y996500D03*
X2617980Y996500D03*
X2617980Y1028500D03*
X2669520Y1028500D03*
D34*
X2489686Y1012500D03*
X2497814Y1012500D03*
X2639686Y1012500D03*
X2647814Y1012500D03*
D33*
X2819520Y996500D03*
X2767980Y996500D03*
X2767980Y1028500D03*
X2819520Y1028500D03*
X2969520Y996500D03*
X2917980Y996500D03*
X2917980Y1028500D03*
X2969520Y1028500D03*
D34*
X2789686Y1012500D03*
X2797814Y1012500D03*
X2939686Y1012500D03*
X2947814Y1012500D03*
D33*
X3119520Y996500D03*
X3067980Y996500D03*
X3067980Y1028500D03*
X3119520Y1028500D03*
D34*
X3089686Y1012500D03*
X3097814Y1012500D03*
D33*
X3269520Y996500D03*
X3217980Y996500D03*
X3217980Y1028500D03*
X3269520Y1028500D03*
X3419520Y996500D03*
X3367980Y996500D03*
X3367980Y1028500D03*
X3419520Y1028500D03*
D34*
X3239686Y1012500D03*
X3247814Y1012500D03*
X3389686Y1012500D03*
X3397814Y1012500D03*
D33*
X119520Y846500D03*
X67980Y846500D03*
X67980Y878500D03*
X119520Y878500D03*
X269520Y846500D03*
X217980Y846500D03*
X217980Y878500D03*
X269520Y878500D03*
D34*
X89686Y862500D03*
X97814Y862500D03*
X239686Y862500D03*
X247814Y862500D03*
D33*
X419520Y846500D03*
X367980Y846500D03*
X367980Y878500D03*
X419520Y878500D03*
X569520Y846500D03*
X517980Y846500D03*
X517980Y878500D03*
X569520Y878500D03*
D34*
X389686Y862500D03*
X397814Y862500D03*
X539686Y862500D03*
X547814Y862500D03*
D33*
X719520Y846500D03*
X667980Y846500D03*
X667980Y878500D03*
X719520Y878500D03*
X869520Y846500D03*
X817980Y846500D03*
X817980Y878500D03*
X869520Y878500D03*
D34*
X689686Y862500D03*
X697814Y862500D03*
X839686Y862500D03*
X847814Y862500D03*
D33*
X1019520Y846500D03*
X967980Y846500D03*
X967980Y878500D03*
X1019520Y878500D03*
X1169520Y846500D03*
X1117980Y846500D03*
X1117980Y878500D03*
X1169520Y878500D03*
D34*
X989686Y862500D03*
X997814Y862500D03*
X1139686Y862500D03*
X1147814Y862500D03*
D33*
X1319520Y846500D03*
X1267980Y846500D03*
X1267980Y878500D03*
X1319520Y878500D03*
D34*
X1289686Y862500D03*
X1297814Y862500D03*
D33*
X1469520Y846500D03*
X1417980Y846500D03*
X1417980Y878500D03*
X1469520Y878500D03*
X1619520Y846500D03*
X1567980Y846500D03*
X1567980Y878500D03*
X1619520Y878500D03*
D34*
X1439686Y862500D03*
X1447814Y862500D03*
X1589686Y862500D03*
X1597814Y862500D03*
D33*
X1769520Y846500D03*
X1717980Y846500D03*
X1717980Y878500D03*
X1769520Y878500D03*
X1919520Y846500D03*
X1867980Y846500D03*
X1867980Y878500D03*
X1919520Y878500D03*
D34*
X1739686Y862500D03*
X1747814Y862500D03*
X1889686Y862500D03*
X1897814Y862500D03*
D33*
X2069520Y846500D03*
X2017980Y846500D03*
X2017980Y878500D03*
X2069520Y878500D03*
X2219520Y846500D03*
X2167980Y846500D03*
X2167980Y878500D03*
X2219520Y878500D03*
D34*
X2039686Y862500D03*
X2047814Y862500D03*
X2189686Y862500D03*
X2197814Y862500D03*
D33*
X2369520Y846500D03*
X2317980Y846500D03*
X2317980Y878500D03*
X2369520Y878500D03*
X2519520Y846500D03*
X2467980Y846500D03*
X2467980Y878500D03*
X2519520Y878500D03*
D34*
X2339686Y862500D03*
X2347814Y862500D03*
X2489686Y862500D03*
X2497814Y862500D03*
D33*
X2669520Y846500D03*
X2617980Y846500D03*
X2617980Y878500D03*
X2669520Y878500D03*
X3119520Y846500D03*
X3067980Y846500D03*
X3067980Y878500D03*
X3119520Y878500D03*
D34*
X2639686Y862500D03*
X2647814Y862500D03*
X3089686Y862500D03*
X3097814Y862500D03*
D33*
X3269520Y846500D03*
X3217980Y846500D03*
X3217980Y878500D03*
X3269520Y878500D03*
D34*
X3239686Y862500D03*
X3247814Y862500D03*
D33*
X3419520Y846500D03*
X3367980Y846500D03*
X3367980Y878500D03*
X3419520Y878500D03*
X119520Y696500D03*
X67980Y696500D03*
X67980Y728500D03*
X119520Y728500D03*
D34*
X3389686Y862500D03*
X3397814Y862500D03*
X89686Y712500D03*
X97814Y712500D03*
D33*
X269520Y696500D03*
X217980Y696500D03*
X217980Y728500D03*
X269520Y728500D03*
X419520Y696500D03*
X367980Y696500D03*
X367980Y728500D03*
X419520Y728500D03*
D34*
X239686Y712500D03*
X247814Y712500D03*
X389686Y712500D03*
X397814Y712500D03*
D33*
X569520Y696500D03*
X517980Y696500D03*
X517980Y728500D03*
X569520Y728500D03*
X719520Y696500D03*
X667980Y696500D03*
X667980Y728500D03*
X719520Y728500D03*
D34*
X539686Y712500D03*
X547814Y712500D03*
X689686Y712500D03*
X697814Y712500D03*
D33*
X869520Y696500D03*
X817980Y696500D03*
X817980Y728500D03*
X869520Y728500D03*
X1019520Y696500D03*
X967980Y696500D03*
X967980Y728500D03*
X1019520Y728500D03*
D34*
X839686Y712500D03*
X847814Y712500D03*
X989686Y712500D03*
X997814Y712500D03*
D33*
X1169520Y696500D03*
X1117980Y696500D03*
X1117980Y728500D03*
X1169520Y728500D03*
X1319520Y696500D03*
X1267980Y696500D03*
X1267980Y728500D03*
X1319520Y728500D03*
D34*
X1139686Y712500D03*
X1147814Y712500D03*
X1289686Y712500D03*
X1297814Y712500D03*
D33*
X1469520Y696500D03*
X1417980Y696500D03*
X1417980Y728500D03*
X1469520Y728500D03*
D34*
X1439686Y712500D03*
X1447814Y712500D03*
D33*
X1619520Y696500D03*
X1567980Y696500D03*
X1567980Y728500D03*
X1619520Y728500D03*
X1769520Y696500D03*
X1717980Y696500D03*
X1717980Y728500D03*
X1769520Y728500D03*
D34*
X1589686Y712500D03*
X1597814Y712500D03*
X1739686Y712500D03*
X1747814Y712500D03*
D33*
X1919520Y696500D03*
X1867980Y696500D03*
X1867980Y728500D03*
X1919520Y728500D03*
X2069520Y696500D03*
X2017980Y696500D03*
X2017980Y728500D03*
X2069520Y728500D03*
D34*
X1889686Y712500D03*
X1897814Y712500D03*
X2039686Y712500D03*
X2047814Y712500D03*
D33*
X2219520Y696500D03*
X2167980Y696500D03*
X2167980Y728500D03*
X2219520Y728500D03*
X2369520Y696500D03*
X2317980Y696500D03*
X2317980Y728500D03*
X2369520Y728500D03*
D34*
X2189686Y712500D03*
X2197814Y712500D03*
X2339686Y712500D03*
X2347814Y712500D03*
D33*
X2519520Y696500D03*
X2467980Y696500D03*
X2467980Y728500D03*
X2519520Y728500D03*
X2969520Y696500D03*
X2917980Y696500D03*
X2917980Y728500D03*
X2969520Y728500D03*
D34*
X2489686Y712500D03*
X2497814Y712500D03*
X2939686Y712500D03*
X2947814Y712500D03*
D33*
X3119520Y696500D03*
X3067980Y696500D03*
X3067980Y728500D03*
X3119520Y728500D03*
X3269520Y696500D03*
X3217980Y696500D03*
X3217980Y728500D03*
X3269520Y728500D03*
D34*
X3089686Y712500D03*
X3097814Y712500D03*
X3239686Y712500D03*
X3247814Y712500D03*
D33*
X3419520Y696500D03*
X3367980Y696500D03*
X3367980Y728500D03*
X3419520Y728500D03*
D34*
X3389686Y712500D03*
X3397814Y712500D03*
D33*
X269520Y396500D03*
X217980Y396500D03*
X217980Y428500D03*
X269520Y428500D03*
D34*
X239686Y412500D03*
X247814Y412500D03*
D33*
X419520Y396500D03*
X367980Y396500D03*
X367980Y428500D03*
X419520Y428500D03*
X569520Y396500D03*
X517980Y396500D03*
X517980Y428500D03*
X569520Y428500D03*
D34*
X389686Y412500D03*
X397814Y412500D03*
X539686Y412500D03*
X547814Y412500D03*
D33*
X719520Y396500D03*
X667980Y396500D03*
X667980Y428500D03*
X719520Y428500D03*
X869520Y396500D03*
X817980Y396500D03*
X817980Y428500D03*
X869520Y428500D03*
D34*
X689686Y412500D03*
X697814Y412500D03*
X839686Y412500D03*
X847814Y412500D03*
D33*
X1019520Y396500D03*
X967980Y396500D03*
X967980Y428500D03*
X1019520Y428500D03*
X1169520Y396500D03*
X1117980Y396500D03*
X1117980Y428500D03*
X1169520Y428500D03*
D34*
X989686Y412500D03*
X997814Y412500D03*
X1139686Y412500D03*
X1147814Y412500D03*
D33*
X1319520Y396500D03*
X1267980Y396500D03*
X1267980Y428500D03*
X1319520Y428500D03*
X1469520Y396500D03*
X1417980Y396500D03*
X1417980Y428500D03*
X1469520Y428500D03*
D34*
X1289686Y412500D03*
X1297814Y412500D03*
X1439686Y412500D03*
X1447814Y412500D03*
D33*
X1619520Y396500D03*
X1567980Y396500D03*
X1567980Y428500D03*
X1619520Y428500D03*
D34*
X1589686Y412500D03*
X1597814Y412500D03*
D33*
X1769520Y396500D03*
X1717980Y396500D03*
X1717980Y428500D03*
X1769520Y428500D03*
X1919520Y396500D03*
X1867980Y396500D03*
X1867980Y428500D03*
X1919520Y428500D03*
D34*
X1739686Y412500D03*
X1747814Y412500D03*
X1889686Y412500D03*
X1897814Y412500D03*
D33*
X2069520Y396500D03*
X2017980Y396500D03*
X2017980Y428500D03*
X2069520Y428500D03*
X2219520Y396500D03*
X2167980Y396500D03*
X2167980Y428500D03*
X2219520Y428500D03*
D34*
X2039686Y412500D03*
X2047814Y412500D03*
X2189686Y412500D03*
X2197814Y412500D03*
D33*
X2369520Y396500D03*
X2317980Y396500D03*
X2317980Y428500D03*
X2369520Y428500D03*
X2519520Y396500D03*
X2467980Y396500D03*
X2467980Y428500D03*
X2519520Y428500D03*
D34*
X2339686Y412500D03*
X2347814Y412500D03*
X2489686Y412500D03*
X2497814Y412500D03*
D33*
X2669520Y396500D03*
X2617980Y396500D03*
X2617980Y428500D03*
X2669520Y428500D03*
X2819520Y396500D03*
X2767980Y396500D03*
X2767980Y428500D03*
X2819520Y428500D03*
D34*
X2639686Y412500D03*
X2647814Y412500D03*
X2789686Y412500D03*
X2797814Y412500D03*
D33*
X3269520Y396500D03*
X3217980Y396500D03*
X3217980Y428500D03*
X3269520Y428500D03*
X3419520Y396500D03*
X3367980Y396500D03*
X3367980Y428500D03*
X3419520Y428500D03*
D34*
X3239686Y412500D03*
X3247814Y412500D03*
X3389686Y412500D03*
X3397814Y412500D03*
D33*
X869520Y246500D03*
X817980Y246500D03*
X817980Y278500D03*
X869520Y278500D03*
D34*
X839686Y262500D03*
X847814Y262500D03*
D33*
X1019520Y246500D03*
X967980Y246500D03*
X967980Y278500D03*
X1019520Y278500D03*
X1169520Y246500D03*
X1117980Y246500D03*
X1117980Y278500D03*
X1169520Y278500D03*
D34*
X989686Y262500D03*
X997814Y262500D03*
X1139686Y262500D03*
X1147814Y262500D03*
D33*
X1319520Y246500D03*
X1267980Y246500D03*
X1267980Y278500D03*
X1319520Y278500D03*
X1469520Y246500D03*
X1417980Y246500D03*
X1417980Y278500D03*
X1469520Y278500D03*
D34*
X1289686Y262500D03*
X1297814Y262500D03*
X1439686Y262500D03*
X1447814Y262500D03*
D33*
X1619520Y246500D03*
X1567980Y246500D03*
X1567980Y278500D03*
X1619520Y278500D03*
X1769520Y246500D03*
X1717980Y246500D03*
X1717980Y278500D03*
X1769520Y278500D03*
D34*
X1589686Y262500D03*
X1597814Y262500D03*
X1739686Y262500D03*
X1747814Y262500D03*
D33*
X1919520Y246500D03*
X1867980Y246500D03*
X1867980Y278500D03*
X1919520Y278500D03*
X2069520Y246500D03*
X2017980Y246500D03*
X2017980Y278500D03*
X2069520Y278500D03*
D34*
X1889686Y262500D03*
X1897814Y262500D03*
X2039686Y262500D03*
X2047814Y262500D03*
D33*
X2219520Y246500D03*
X2167980Y246500D03*
X2167980Y278500D03*
X2219520Y278500D03*
X2369520Y246500D03*
X2317980Y246500D03*
X2317980Y278500D03*
X2369520Y278500D03*
D34*
X2189686Y262500D03*
X2197814Y262500D03*
X2339686Y262500D03*
X2347814Y262500D03*
D33*
X2519520Y246500D03*
X2467980Y246500D03*
X2467980Y278500D03*
X2519520Y278500D03*
D34*
X2489686Y262500D03*
X2497814Y262500D03*
D33*
X2669520Y246500D03*
X2617980Y246500D03*
X2617980Y278500D03*
X2669520Y278500D03*
X3119520Y246500D03*
X3067980Y246500D03*
X3067980Y278500D03*
X3119520Y278500D03*
D34*
X2639686Y262500D03*
X2647814Y262500D03*
X3089686Y262500D03*
X3097814Y262500D03*
D33*
X3269520Y246500D03*
X3217980Y246500D03*
X3217980Y278500D03*
X3269520Y278500D03*
X3419520Y246500D03*
X3367980Y246500D03*
X3367980Y278500D03*
X3419520Y278500D03*
D34*
X3239686Y262500D03*
X3247814Y262500D03*
X3389686Y262500D03*
X3397814Y262500D03*
D33*
X719520Y96500D03*
X667980Y96500D03*
X667980Y128500D03*
X719520Y128500D03*
X869520Y96500D03*
X817980Y96500D03*
X817980Y128500D03*
X869520Y128500D03*
D34*
X689686Y112500D03*
X697814Y112500D03*
X839686Y112500D03*
X847814Y112500D03*
D33*
X1019520Y96500D03*
X967980Y96500D03*
X967980Y128500D03*
X1019520Y128500D03*
X1169520Y96500D03*
X1117980Y96500D03*
X1117980Y128500D03*
X1169520Y128500D03*
D34*
X989686Y112500D03*
X997814Y112500D03*
X1139686Y112500D03*
X1147814Y112500D03*
D33*
X1319520Y96500D03*
X1267980Y96500D03*
X1267980Y128500D03*
X1319520Y128500D03*
D34*
X1289686Y112500D03*
X1297814Y112500D03*
D33*
X1482020Y96500D03*
X1430480Y96500D03*
X1430480Y128500D03*
X1482020Y128500D03*
X2069520Y96500D03*
X2017980Y96500D03*
X2017980Y128500D03*
X2069520Y128500D03*
D34*
X1452186Y112500D03*
X1460314Y112500D03*
X2039686Y112500D03*
X2047814Y112500D03*
D33*
X2219520Y96500D03*
X2167980Y96500D03*
X2167980Y128500D03*
X2219520Y128500D03*
X2369520Y96500D03*
X2317980Y96500D03*
X2317980Y128500D03*
X2369520Y128500D03*
D34*
X2189686Y112500D03*
X2197814Y112500D03*
X2339686Y112500D03*
X2347814Y112500D03*
D33*
X2519520Y96500D03*
X2467980Y96500D03*
X2467980Y128500D03*
X2519520Y128500D03*
X3119520Y96500D03*
X3067980Y96500D03*
X3067980Y128500D03*
X3119520Y128500D03*
D34*
X2489686Y112500D03*
X2497814Y112500D03*
X3089686Y112500D03*
X3097814Y112500D03*
D33*
X3269520Y96500D03*
X3217980Y96500D03*
X3217980Y128500D03*
X3269520Y128500D03*
D34*
X3239686Y112500D03*
X3247814Y112500D03*
D13*
X129290Y80030D03*
X146290Y80030D03*
D22*
X1930000Y2100000D03*
X1575000Y75000D03*
X3430000Y2100000D03*
X75000Y2100000D03*
D10*
X74500Y198500D03*
X74500Y181500D03*
X57000Y181500D03*
X57000Y198500D03*
D13*
X123000Y152500D03*
X106000Y152500D03*
D33*
X3119520Y2046500D03*
X3067980Y2046500D03*
X3067980Y2078500D03*
X3119520Y2078500D03*
D34*
X3089686Y2062500D03*
X3097814Y2062500D03*
D33*
X3269520Y2046500D03*
X3217980Y2046500D03*
X3217980Y2078500D03*
X3269520Y2078500D03*
D34*
X3239686Y2062500D03*
X3247814Y2062500D03*
D33*
X3269520Y1896500D03*
X3217980Y1896500D03*
X3217980Y1928500D03*
X3269520Y1928500D03*
X3419520Y1896500D03*
X3367980Y1896500D03*
X3367980Y1928500D03*
X3419520Y1928500D03*
D34*
X3239686Y1912500D03*
X3247814Y1912500D03*
X3389686Y1912500D03*
X3397814Y1912500D03*
D33*
X3269520Y1746500D03*
X3217980Y1746500D03*
X3217980Y1778500D03*
X3269520Y1778500D03*
X3419520Y1746500D03*
X3367980Y1746500D03*
X3367980Y1778500D03*
X3419520Y1778500D03*
D34*
X3239686Y1762500D03*
X3247814Y1762500D03*
X3389686Y1762500D03*
X3397814Y1762500D03*
D33*
X3119520Y1596500D03*
X3067980Y1596500D03*
X3067980Y1628500D03*
X3119520Y1628500D03*
X3269520Y1596500D03*
X3217980Y1596500D03*
X3217980Y1628500D03*
X3269520Y1628500D03*
D34*
X3089686Y1612500D03*
X3097814Y1612500D03*
X3239686Y1612500D03*
X3247814Y1612500D03*
D33*
X3269520Y1446500D03*
X3217980Y1446500D03*
X3217980Y1478500D03*
X3269520Y1478500D03*
X3419520Y1446500D03*
X3367980Y1446500D03*
X3367980Y1478500D03*
X3419520Y1478500D03*
D34*
X3239686Y1462500D03*
X3247814Y1462500D03*
X3389686Y1462500D03*
X3397814Y1462500D03*
D33*
X3269520Y1296500D03*
X3217980Y1296500D03*
X3217980Y1328500D03*
X3269520Y1328500D03*
X3419520Y1296500D03*
X3367980Y1296500D03*
X3367980Y1328500D03*
X3419520Y1328500D03*
D34*
X3239686Y1312500D03*
X3247814Y1312500D03*
X3389686Y1312500D03*
X3397814Y1312500D03*
D33*
X3269520Y1146500D03*
X3217980Y1146500D03*
X3217980Y1178500D03*
X3269520Y1178500D03*
X3419520Y1146500D03*
X3367980Y1146500D03*
X3367980Y1178500D03*
X3419520Y1178500D03*
D34*
X3239686Y1162500D03*
X3247814Y1162500D03*
X3389686Y1162500D03*
X3397814Y1162500D03*
D33*
X2069520Y996500D03*
X2017980Y996500D03*
X2017980Y1028500D03*
X2069520Y1028500D03*
X2219520Y996500D03*
X2167980Y996500D03*
X2167980Y1028500D03*
X2219520Y1028500D03*
D34*
X2039686Y1012500D03*
X2047814Y1012500D03*
X2189686Y1012500D03*
X2197814Y1012500D03*
D33*
X2819520Y846500D03*
X2767980Y846500D03*
X2767980Y878500D03*
X2819520Y878500D03*
X2969520Y846500D03*
X2917980Y846500D03*
X2917980Y878500D03*
X2969520Y878500D03*
D34*
X2789686Y862500D03*
X2797814Y862500D03*
X2939686Y862500D03*
X2947814Y862500D03*
D33*
X2669520Y696500D03*
X2617980Y696500D03*
X2617980Y728500D03*
X2669520Y728500D03*
X2819520Y696500D03*
X2767980Y696500D03*
X2767980Y728500D03*
X2819520Y728500D03*
D34*
X2639686Y712500D03*
X2647814Y712500D03*
X2789686Y712500D03*
X2797814Y712500D03*
D33*
X2969520Y396500D03*
X2917980Y396500D03*
X2917980Y428500D03*
X2969520Y428500D03*
X3119520Y396500D03*
X3067980Y396500D03*
X3067980Y428500D03*
X3119520Y428500D03*
D34*
X2939686Y412500D03*
X2947814Y412500D03*
X3089686Y412500D03*
X3097814Y412500D03*
D33*
X2819520Y246500D03*
X2767980Y246500D03*
X2767980Y278500D03*
X2819520Y278500D03*
X2969520Y246500D03*
X2917980Y246500D03*
X2917980Y278500D03*
X2969520Y278500D03*
D34*
X2789686Y262500D03*
X2797814Y262500D03*
X2939686Y262500D03*
X2947814Y262500D03*
D33*
X2669520Y96500D03*
X2617980Y96500D03*
X2617980Y128500D03*
X2669520Y128500D03*
X2819520Y96500D03*
X2767980Y96500D03*
X2767980Y128500D03*
X2819520Y128500D03*
D34*
X2639686Y112500D03*
X2647814Y112500D03*
X2789686Y112500D03*
X2797814Y112500D03*
D33*
X2969520Y96500D03*
X2917980Y96500D03*
X2917980Y128500D03*
X2969520Y128500D03*
D34*
X2939686Y112500D03*
X2947814Y112500D03*
D33*
X119520Y546500D03*
X67980Y546500D03*
X67980Y578500D03*
X119520Y578500D03*
D34*
X89686Y562500D03*
X97814Y562500D03*
D33*
X269520Y546500D03*
X217980Y546500D03*
X217980Y578500D03*
X269520Y578500D03*
X419520Y546500D03*
X367980Y546500D03*
X367980Y578500D03*
X419520Y578500D03*
D34*
X239686Y562500D03*
X247814Y562500D03*
X389686Y562500D03*
X397814Y562500D03*
D33*
X569520Y546500D03*
X517980Y546500D03*
X517980Y578500D03*
X569520Y578500D03*
X719520Y546500D03*
X667980Y546500D03*
X667980Y578500D03*
X719520Y578500D03*
D34*
X539686Y562500D03*
X547814Y562500D03*
X689686Y562500D03*
X697814Y562500D03*
D33*
X869520Y546500D03*
X817980Y546500D03*
X817980Y578500D03*
X869520Y578500D03*
X1019520Y546500D03*
X967980Y546500D03*
X967980Y578500D03*
X1019520Y578500D03*
D34*
X839686Y562500D03*
X847814Y562500D03*
X989686Y562500D03*
X997814Y562500D03*
D33*
X1169520Y546500D03*
X1117980Y546500D03*
X1117980Y578500D03*
X1169520Y578500D03*
X1319520Y546500D03*
X1267980Y546500D03*
X1267980Y578500D03*
X1319520Y578500D03*
D34*
X1139686Y562500D03*
X1147814Y562500D03*
X1289686Y562500D03*
X1297814Y562500D03*
D33*
X1619520Y546500D03*
X1567980Y546500D03*
X1567980Y578500D03*
X1619520Y578500D03*
D34*
X1589686Y562500D03*
X1597814Y562500D03*
D33*
X1769520Y546500D03*
X1717980Y546500D03*
X1717980Y578500D03*
X1769520Y578500D03*
X1919520Y546500D03*
X1867980Y546500D03*
X1867980Y578500D03*
X1919520Y578500D03*
D34*
X1739686Y562500D03*
X1747814Y562500D03*
X1889686Y562500D03*
X1897814Y562500D03*
D33*
X2069520Y546500D03*
X2017980Y546500D03*
X2017980Y578500D03*
X2069520Y578500D03*
D34*
X2039686Y562500D03*
X2047814Y562500D03*
D33*
X1467120Y546500D03*
X1415580Y546500D03*
X1415580Y578500D03*
X1467120Y578500D03*
D34*
X1437286Y562500D03*
X1445414Y562500D03*
D33*
X2219520Y546500D03*
X2167980Y546500D03*
X2167980Y578500D03*
X2219520Y578500D03*
D34*
X2189686Y562500D03*
X2197814Y562500D03*
D33*
X2369520Y546500D03*
X2317980Y546500D03*
X2317980Y578500D03*
X2369520Y578500D03*
X2519520Y546500D03*
X2467980Y546500D03*
X2467980Y578500D03*
X2519520Y578500D03*
D34*
X2339686Y562500D03*
X2347814Y562500D03*
X2489686Y562500D03*
X2497814Y562500D03*
D33*
X2669520Y546500D03*
X2617980Y546500D03*
X2617980Y578500D03*
X2669520Y578500D03*
X2819520Y546500D03*
X2767980Y546500D03*
X2767980Y578500D03*
X2819520Y578500D03*
D34*
X2639686Y562500D03*
X2647814Y562500D03*
X2789686Y562500D03*
X2797814Y562500D03*
D33*
X2969520Y546500D03*
X2917980Y546500D03*
X2917980Y578500D03*
X2969520Y578500D03*
X3119520Y546500D03*
X3067980Y546500D03*
X3067980Y578500D03*
X3119520Y578500D03*
D34*
X2939686Y562500D03*
X2947814Y562500D03*
X3089686Y562500D03*
X3097814Y562500D03*
D33*
X3269520Y546500D03*
X3217980Y546500D03*
X3217980Y578500D03*
X3269520Y578500D03*
X3419520Y546500D03*
X3367980Y546500D03*
X3367980Y578500D03*
X3419520Y578500D03*
D34*
X3239686Y562500D03*
X3247814Y562500D03*
X3389686Y562500D03*
X3397814Y562500D03*
D33*
X119520Y396500D03*
X67980Y396500D03*
X67980Y428500D03*
X119520Y428500D03*
D34*
X89686Y412500D03*
X97814Y412500D03*
D33*
X719520Y246500D03*
X667980Y246500D03*
X667980Y278500D03*
X719520Y278500D03*
D34*
X689686Y262500D03*
X697814Y262500D03*
D35*
X50000Y1979064D03*
X50000Y1970936D03*
X50000Y1829064D03*
X50000Y1820936D03*
X50000Y1679064D03*
X50000Y1670936D03*
X50000Y1529064D03*
X50000Y1520936D03*
X50000Y1379064D03*
X50000Y1370936D03*
X50000Y1229064D03*
X50000Y1220936D03*
X50000Y1079064D03*
X50000Y1070936D03*
X50000Y929064D03*
X50000Y920936D03*
X50000Y779064D03*
X50000Y770936D03*
X50000Y629064D03*
X50000Y620936D03*
X50000Y479064D03*
X50000Y470936D03*
X50000Y329064D03*
X50000Y320936D03*
X650000Y179064D03*
X650000Y170936D03*
M02*
