G04 EAGLE Gerber RS-274X export*
G75*
%MOMM*%
%FSLAX34Y34*%
%LPD*%
%INBottom Copper*%
%IPPOS*%
%AMOC8*
5,1,8,0,0,1.08239X$1,22.5*%
G01*
%ADD10C,0.203200*%
%ADD11C,1.000000*%
%ADD12C,0.736600*%
%ADD13C,0.550000*%
%ADD14C,1.270000*%

G36*
X3253104Y2807D02*
X3253104Y2807D01*
X3253190Y2809D01*
X3253244Y2827D01*
X3253300Y2835D01*
X3253379Y2870D01*
X3253461Y2896D01*
X3253508Y2928D01*
X3253560Y2951D01*
X3253625Y3006D01*
X3253697Y3054D01*
X3253733Y3098D01*
X3253777Y3134D01*
X3253824Y3206D01*
X3253880Y3272D01*
X3253903Y3324D01*
X3253934Y3371D01*
X3253960Y3453D01*
X3253995Y3532D01*
X3254003Y3588D01*
X3254020Y3642D01*
X3254022Y3728D01*
X3254034Y3813D01*
X3254026Y3869D01*
X3254027Y3926D01*
X3254006Y4009D01*
X3253993Y4095D01*
X3253970Y4146D01*
X3253956Y4201D01*
X3253912Y4275D01*
X3253876Y4354D01*
X3253840Y4397D01*
X3253810Y4446D01*
X3253748Y4505D01*
X3253692Y4570D01*
X3253650Y4596D01*
X3253603Y4640D01*
X3253474Y4706D01*
X3253407Y4748D01*
X3251906Y5370D01*
X3250370Y6906D01*
X3249538Y8914D01*
X3249538Y11086D01*
X3250370Y13094D01*
X3251906Y14630D01*
X3253914Y15462D01*
X3256089Y15462D01*
X3256175Y15474D01*
X3256263Y15477D01*
X3256316Y15494D01*
X3256370Y15502D01*
X3256450Y15537D01*
X3256533Y15564D01*
X3256573Y15592D01*
X3256630Y15618D01*
X3256743Y15714D01*
X3256807Y15759D01*
X3428218Y187170D01*
X3428270Y187240D01*
X3428330Y187304D01*
X3428356Y187353D01*
X3428389Y187397D01*
X3428420Y187479D01*
X3428460Y187557D01*
X3428468Y187605D01*
X3428490Y187663D01*
X3428502Y187811D01*
X3428515Y187888D01*
X3428515Y528985D01*
X3501190Y528985D01*
X3501248Y528993D01*
X3501306Y528991D01*
X3501388Y529013D01*
X3501472Y529025D01*
X3501525Y529049D01*
X3501581Y529063D01*
X3501654Y529106D01*
X3501731Y529141D01*
X3501776Y529179D01*
X3501826Y529209D01*
X3501884Y529270D01*
X3501948Y529325D01*
X3501980Y529373D01*
X3502020Y529416D01*
X3502059Y529491D01*
X3502106Y529561D01*
X3502123Y529617D01*
X3502150Y529669D01*
X3502161Y529737D01*
X3502191Y529832D01*
X3502194Y529932D01*
X3502205Y530000D01*
X3502205Y2171190D01*
X3502197Y2171248D01*
X3502199Y2171306D01*
X3502177Y2171388D01*
X3502165Y2171472D01*
X3502142Y2171525D01*
X3502127Y2171581D01*
X3502084Y2171654D01*
X3502049Y2171731D01*
X3502011Y2171776D01*
X3501982Y2171826D01*
X3501920Y2171884D01*
X3501866Y2171948D01*
X3501817Y2171980D01*
X3501774Y2172020D01*
X3501699Y2172059D01*
X3501629Y2172106D01*
X3501573Y2172123D01*
X3501521Y2172150D01*
X3501453Y2172161D01*
X3501358Y2172191D01*
X3501258Y2172194D01*
X3501190Y2172205D01*
X3810Y2172205D01*
X3752Y2172197D01*
X3694Y2172199D01*
X3612Y2172177D01*
X3528Y2172165D01*
X3475Y2172142D01*
X3419Y2172127D01*
X3346Y2172084D01*
X3269Y2172049D01*
X3224Y2172011D01*
X3174Y2171982D01*
X3116Y2171920D01*
X3052Y2171866D01*
X3020Y2171817D01*
X2980Y2171774D01*
X2941Y2171699D01*
X2894Y2171629D01*
X2877Y2171573D01*
X2850Y2171521D01*
X2839Y2171453D01*
X2809Y2171358D01*
X2806Y2171258D01*
X2795Y2171190D01*
X2795Y405470D01*
X2799Y405440D01*
X2796Y405411D01*
X2819Y405300D01*
X2835Y405188D01*
X2847Y405161D01*
X2853Y405132D01*
X2905Y405032D01*
X2951Y404929D01*
X2970Y404906D01*
X2984Y404880D01*
X3062Y404798D01*
X3134Y404712D01*
X3159Y404695D01*
X3180Y404674D01*
X3277Y404617D01*
X3371Y404554D01*
X3400Y404545D01*
X3425Y404530D01*
X3534Y404503D01*
X3642Y404469D01*
X3672Y404468D01*
X3701Y404460D01*
X3813Y404464D01*
X3926Y404461D01*
X3955Y404469D01*
X3985Y404470D01*
X4092Y404505D01*
X4201Y404533D01*
X4227Y404548D01*
X4255Y404557D01*
X4290Y404582D01*
X6414Y405462D01*
X8586Y405462D01*
X10594Y404630D01*
X12130Y403094D01*
X12962Y401086D01*
X12962Y398914D01*
X12106Y396848D01*
X12098Y396818D01*
X12084Y396790D01*
X12071Y396713D01*
X12035Y396572D01*
X12037Y396508D01*
X12029Y396459D01*
X12029Y272500D01*
X12037Y272442D01*
X12035Y272384D01*
X12057Y272302D01*
X12069Y272219D01*
X12092Y272165D01*
X12107Y272109D01*
X12150Y272036D01*
X12185Y271959D01*
X12223Y271914D01*
X12252Y271864D01*
X12314Y271806D01*
X12368Y271742D01*
X12417Y271710D01*
X12460Y271670D01*
X12535Y271631D01*
X12605Y271585D01*
X12661Y271567D01*
X12713Y271540D01*
X12781Y271529D01*
X12876Y271499D01*
X12976Y271496D01*
X13044Y271485D01*
X69910Y271485D01*
X69996Y271497D01*
X70084Y271500D01*
X70136Y271517D01*
X70191Y271525D01*
X70271Y271560D01*
X70354Y271587D01*
X70393Y271615D01*
X70451Y271641D01*
X70564Y271737D01*
X70628Y271782D01*
X164874Y366029D01*
X1115454Y366029D01*
X1115540Y366041D01*
X1115628Y366044D01*
X1115680Y366061D01*
X1115735Y366069D01*
X1115815Y366104D01*
X1115898Y366131D01*
X1115937Y366159D01*
X1115995Y366185D01*
X1116108Y366281D01*
X1116171Y366326D01*
X1191874Y442029D01*
X3390209Y442029D01*
X3390240Y442033D01*
X3390271Y442031D01*
X3390347Y442048D01*
X3390491Y442069D01*
X3390549Y442095D01*
X3390598Y442106D01*
X3392664Y442962D01*
X3394836Y442962D01*
X3396844Y442130D01*
X3398380Y440594D01*
X3399212Y438586D01*
X3399212Y436414D01*
X3398380Y434406D01*
X3396844Y432870D01*
X3394836Y432038D01*
X3392664Y432038D01*
X3390598Y432894D01*
X3390568Y432902D01*
X3390540Y432916D01*
X3390463Y432929D01*
X3390322Y432965D01*
X3390258Y432963D01*
X3390209Y432971D01*
X1196046Y432971D01*
X1195960Y432959D01*
X1195872Y432956D01*
X1195820Y432939D01*
X1195765Y432931D01*
X1195685Y432896D01*
X1195602Y432869D01*
X1195563Y432841D01*
X1195505Y432815D01*
X1195392Y432719D01*
X1195329Y432674D01*
X1119626Y356971D01*
X655544Y356971D01*
X655486Y356963D01*
X655428Y356965D01*
X655346Y356943D01*
X655262Y356931D01*
X655209Y356908D01*
X655153Y356893D01*
X655080Y356850D01*
X655003Y356815D01*
X654958Y356777D01*
X654908Y356748D01*
X654850Y356686D01*
X654786Y356632D01*
X654754Y356583D01*
X654714Y356540D01*
X654675Y356465D01*
X654628Y356395D01*
X654611Y356339D01*
X654584Y356287D01*
X654573Y356219D01*
X654543Y356124D01*
X654540Y356024D01*
X654529Y355956D01*
X654529Y203541D01*
X654533Y203510D01*
X654531Y203479D01*
X654548Y203403D01*
X654569Y203259D01*
X654595Y203201D01*
X654606Y203152D01*
X655462Y201086D01*
X655462Y198914D01*
X654630Y196906D01*
X653094Y195370D01*
X651086Y194538D01*
X648914Y194538D01*
X646906Y195370D01*
X645370Y196906D01*
X644538Y198914D01*
X644538Y201086D01*
X645394Y203152D01*
X645402Y203182D01*
X645416Y203210D01*
X645429Y203287D01*
X645465Y203428D01*
X645463Y203492D01*
X645471Y203541D01*
X645471Y355956D01*
X645463Y356014D01*
X645465Y356072D01*
X645443Y356154D01*
X645431Y356238D01*
X645408Y356291D01*
X645393Y356347D01*
X645350Y356420D01*
X645315Y356497D01*
X645277Y356542D01*
X645248Y356592D01*
X645186Y356650D01*
X645132Y356714D01*
X645083Y356746D01*
X645040Y356786D01*
X644965Y356825D01*
X644895Y356872D01*
X644839Y356889D01*
X644787Y356916D01*
X644719Y356927D01*
X644624Y356957D01*
X644524Y356960D01*
X644456Y356971D01*
X169046Y356971D01*
X168960Y356959D01*
X168872Y356956D01*
X168820Y356939D01*
X168765Y356931D01*
X168685Y356896D01*
X168602Y356869D01*
X168563Y356841D01*
X168505Y356815D01*
X168392Y356719D01*
X168329Y356674D01*
X84872Y273218D01*
X84855Y273195D01*
X84832Y273176D01*
X84770Y273081D01*
X84702Y272991D01*
X84691Y272963D01*
X84675Y272939D01*
X84641Y272831D01*
X84600Y272725D01*
X84598Y272696D01*
X84589Y272668D01*
X84586Y272554D01*
X84577Y272442D01*
X84583Y272413D01*
X84582Y272384D01*
X84610Y272274D01*
X84633Y272163D01*
X84646Y272137D01*
X84654Y272109D01*
X84711Y272011D01*
X84764Y271911D01*
X84784Y271889D01*
X84799Y271864D01*
X84881Y271787D01*
X84959Y271705D01*
X84985Y271690D01*
X85006Y271670D01*
X85107Y271618D01*
X85205Y271561D01*
X85233Y271554D01*
X85259Y271540D01*
X85337Y271527D01*
X85480Y271491D01*
X85543Y271493D01*
X85590Y271485D01*
X104360Y271485D01*
X104447Y271497D01*
X104534Y271500D01*
X104587Y271517D01*
X104642Y271525D01*
X104721Y271560D01*
X104805Y271587D01*
X104844Y271615D01*
X104901Y271641D01*
X105014Y271737D01*
X105078Y271782D01*
X105791Y272495D01*
X107799Y273327D01*
X109971Y273327D01*
X111979Y272495D01*
X112692Y271782D01*
X112762Y271730D01*
X112826Y271670D01*
X112875Y271644D01*
X112919Y271611D01*
X113001Y271580D01*
X113079Y271540D01*
X113126Y271532D01*
X113185Y271510D01*
X113332Y271498D01*
X113410Y271485D01*
X607735Y271485D01*
X607735Y3810D01*
X607743Y3752D01*
X607741Y3694D01*
X607763Y3612D01*
X607775Y3528D01*
X607799Y3475D01*
X607813Y3419D01*
X607856Y3346D01*
X607891Y3269D01*
X607929Y3224D01*
X607959Y3174D01*
X608020Y3116D01*
X608075Y3052D01*
X608123Y3020D01*
X608166Y2980D01*
X608241Y2941D01*
X608311Y2894D01*
X608367Y2877D01*
X608419Y2850D01*
X608487Y2839D01*
X608582Y2809D01*
X608682Y2806D01*
X608750Y2795D01*
X3253019Y2795D01*
X3253104Y2807D01*
G37*
G36*
X521878Y2803D02*
X521878Y2803D01*
X521936Y2801D01*
X522018Y2823D01*
X522102Y2835D01*
X522155Y2858D01*
X522211Y2873D01*
X522284Y2916D01*
X522361Y2951D01*
X522406Y2989D01*
X522456Y3018D01*
X522514Y3080D01*
X522578Y3134D01*
X522610Y3183D01*
X522650Y3226D01*
X522689Y3301D01*
X522736Y3371D01*
X522753Y3427D01*
X522780Y3479D01*
X522791Y3547D01*
X522821Y3642D01*
X522824Y3742D01*
X522835Y3810D01*
X522835Y194358D01*
X524472Y195995D01*
X586478Y195995D01*
X588115Y194358D01*
X588115Y3810D01*
X588123Y3752D01*
X588121Y3694D01*
X588143Y3612D01*
X588155Y3528D01*
X588178Y3475D01*
X588193Y3419D01*
X588236Y3346D01*
X588271Y3269D01*
X588309Y3224D01*
X588338Y3174D01*
X588400Y3116D01*
X588454Y3052D01*
X588503Y3020D01*
X588546Y2980D01*
X588621Y2941D01*
X588691Y2894D01*
X588747Y2877D01*
X588799Y2850D01*
X588867Y2839D01*
X588962Y2809D01*
X589062Y2806D01*
X589130Y2795D01*
X598750Y2795D01*
X598808Y2803D01*
X598866Y2801D01*
X598948Y2823D01*
X599031Y2835D01*
X599085Y2858D01*
X599141Y2873D01*
X599214Y2916D01*
X599291Y2951D01*
X599336Y2989D01*
X599386Y3018D01*
X599444Y3080D01*
X599508Y3134D01*
X599540Y3183D01*
X599580Y3226D01*
X599619Y3301D01*
X599665Y3371D01*
X599683Y3427D01*
X599710Y3479D01*
X599721Y3547D01*
X599751Y3642D01*
X599754Y3742D01*
X599765Y3810D01*
X599765Y240956D01*
X599757Y241014D01*
X599759Y241072D01*
X599737Y241154D01*
X599725Y241238D01*
X599702Y241291D01*
X599687Y241347D01*
X599644Y241420D01*
X599609Y241497D01*
X599571Y241542D01*
X599542Y241592D01*
X599480Y241650D01*
X599426Y241714D01*
X599377Y241746D01*
X599334Y241786D01*
X599259Y241825D01*
X599189Y241872D01*
X599133Y241889D01*
X599081Y241916D01*
X599013Y241927D01*
X598918Y241957D01*
X598818Y241960D01*
X598750Y241971D01*
X592791Y241971D01*
X592760Y241967D01*
X592729Y241969D01*
X592653Y241952D01*
X592509Y241931D01*
X592451Y241905D01*
X592402Y241894D01*
X590336Y241038D01*
X588164Y241038D01*
X586156Y241870D01*
X584620Y243406D01*
X583788Y245414D01*
X583788Y247586D01*
X584620Y249594D01*
X586156Y251130D01*
X588164Y251962D01*
X590336Y251962D01*
X592402Y251106D01*
X592432Y251098D01*
X592460Y251084D01*
X592537Y251071D01*
X592678Y251035D01*
X592742Y251037D01*
X592791Y251029D01*
X598750Y251029D01*
X598808Y251037D01*
X598866Y251035D01*
X598948Y251057D01*
X599032Y251069D01*
X599085Y251092D01*
X599141Y251107D01*
X599214Y251150D01*
X599291Y251185D01*
X599336Y251223D01*
X599386Y251252D01*
X599444Y251314D01*
X599508Y251368D01*
X599540Y251417D01*
X599580Y251460D01*
X599619Y251535D01*
X599666Y251605D01*
X599683Y251661D01*
X599710Y251713D01*
X599721Y251781D01*
X599751Y251876D01*
X599754Y251976D01*
X599765Y252044D01*
X599765Y262500D01*
X599757Y262558D01*
X599759Y262616D01*
X599737Y262698D01*
X599725Y262782D01*
X599702Y262835D01*
X599687Y262891D01*
X599644Y262964D01*
X599609Y263041D01*
X599571Y263086D01*
X599542Y263136D01*
X599480Y263194D01*
X599426Y263258D01*
X599377Y263290D01*
X599334Y263330D01*
X599259Y263369D01*
X599189Y263416D01*
X599133Y263433D01*
X599081Y263460D01*
X599013Y263471D01*
X598918Y263501D01*
X598818Y263504D01*
X598750Y263515D01*
X282227Y263515D01*
X282169Y263507D01*
X282111Y263509D01*
X282029Y263487D01*
X281945Y263475D01*
X281892Y263452D01*
X281836Y263437D01*
X281763Y263394D01*
X281686Y263359D01*
X281641Y263321D01*
X281591Y263292D01*
X281533Y263230D01*
X281469Y263176D01*
X281437Y263127D01*
X281397Y263084D01*
X281358Y263009D01*
X281311Y262939D01*
X281294Y262883D01*
X281267Y262831D01*
X281256Y262763D01*
X281226Y262668D01*
X281223Y262568D01*
X281212Y262500D01*
X281212Y261414D01*
X280380Y259406D01*
X278844Y257870D01*
X276836Y257038D01*
X274664Y257038D01*
X272656Y257870D01*
X271120Y259406D01*
X270288Y261414D01*
X270288Y262500D01*
X270280Y262558D01*
X270282Y262616D01*
X270260Y262698D01*
X270248Y262782D01*
X270225Y262835D01*
X270210Y262891D01*
X270167Y262964D01*
X270132Y263041D01*
X270094Y263086D01*
X270065Y263136D01*
X270003Y263194D01*
X269949Y263258D01*
X269900Y263290D01*
X269857Y263330D01*
X269782Y263369D01*
X269712Y263416D01*
X269656Y263433D01*
X269604Y263460D01*
X269536Y263471D01*
X269441Y263501D01*
X269341Y263504D01*
X269273Y263515D01*
X175227Y263515D01*
X175169Y263507D01*
X175111Y263509D01*
X175029Y263487D01*
X174945Y263475D01*
X174892Y263452D01*
X174836Y263437D01*
X174763Y263394D01*
X174686Y263359D01*
X174641Y263321D01*
X174591Y263292D01*
X174533Y263230D01*
X174469Y263176D01*
X174437Y263127D01*
X174397Y263084D01*
X174358Y263009D01*
X174311Y262939D01*
X174294Y262883D01*
X174267Y262831D01*
X174256Y262763D01*
X174226Y262668D01*
X174223Y262568D01*
X174212Y262500D01*
X174212Y261414D01*
X173380Y259406D01*
X171844Y257870D01*
X169836Y257038D01*
X167664Y257038D01*
X165598Y257894D01*
X165568Y257902D01*
X165540Y257916D01*
X165463Y257929D01*
X165322Y257965D01*
X165258Y257963D01*
X165209Y257971D01*
X112374Y257971D01*
X108186Y262159D01*
X108162Y262178D01*
X108142Y262201D01*
X108075Y262243D01*
X107959Y262330D01*
X107899Y262353D01*
X107857Y262379D01*
X105779Y263240D01*
X105738Y263270D01*
X105674Y263330D01*
X105625Y263356D01*
X105581Y263389D01*
X105499Y263420D01*
X105421Y263460D01*
X105374Y263468D01*
X105315Y263490D01*
X105167Y263502D01*
X105090Y263515D01*
X75590Y263515D01*
X75504Y263503D01*
X75416Y263500D01*
X75364Y263483D01*
X75309Y263475D01*
X75229Y263440D01*
X75146Y263413D01*
X75107Y263385D01*
X75049Y263359D01*
X74936Y263263D01*
X74872Y263218D01*
X73956Y262301D01*
X73938Y262277D01*
X73914Y262257D01*
X73872Y262190D01*
X73785Y262074D01*
X73762Y262014D01*
X73736Y261972D01*
X72880Y259906D01*
X71344Y258370D01*
X69336Y257538D01*
X67164Y257538D01*
X65156Y258370D01*
X63620Y259906D01*
X62788Y261914D01*
X62788Y262500D01*
X62780Y262558D01*
X62782Y262616D01*
X62760Y262698D01*
X62748Y262782D01*
X62725Y262835D01*
X62710Y262891D01*
X62667Y262964D01*
X62632Y263041D01*
X62594Y263086D01*
X62565Y263136D01*
X62503Y263194D01*
X62449Y263258D01*
X62400Y263290D01*
X62357Y263330D01*
X62282Y263369D01*
X62212Y263416D01*
X62156Y263433D01*
X62104Y263460D01*
X62036Y263471D01*
X61941Y263501D01*
X61841Y263504D01*
X61773Y263515D01*
X13044Y263515D01*
X12986Y263507D01*
X12928Y263509D01*
X12846Y263487D01*
X12762Y263475D01*
X12709Y263452D01*
X12653Y263437D01*
X12580Y263394D01*
X12503Y263359D01*
X12458Y263321D01*
X12408Y263292D01*
X12350Y263230D01*
X12286Y263176D01*
X12254Y263127D01*
X12214Y263084D01*
X12175Y263009D01*
X12128Y262939D01*
X12111Y262883D01*
X12084Y262831D01*
X12073Y262763D01*
X12043Y262668D01*
X12040Y262568D01*
X12029Y262500D01*
X12029Y253044D01*
X12037Y252986D01*
X12035Y252928D01*
X12057Y252846D01*
X12069Y252762D01*
X12092Y252709D01*
X12107Y252653D01*
X12150Y252580D01*
X12185Y252503D01*
X12223Y252458D01*
X12252Y252408D01*
X12314Y252350D01*
X12368Y252286D01*
X12417Y252254D01*
X12460Y252214D01*
X12535Y252175D01*
X12605Y252128D01*
X12661Y252111D01*
X12713Y252084D01*
X12781Y252073D01*
X12876Y252043D01*
X12976Y252040D01*
X13044Y252029D01*
X308126Y252029D01*
X345329Y214826D01*
X345398Y214774D01*
X345462Y214714D01*
X345512Y214688D01*
X345556Y214655D01*
X345637Y214624D01*
X345715Y214584D01*
X345763Y214576D01*
X345821Y214554D01*
X345969Y214542D01*
X346046Y214529D01*
X346459Y214529D01*
X346490Y214533D01*
X346521Y214531D01*
X346597Y214548D01*
X346741Y214569D01*
X346799Y214595D01*
X346848Y214606D01*
X348914Y215462D01*
X351086Y215462D01*
X353094Y214630D01*
X354630Y213094D01*
X355462Y211086D01*
X355462Y208914D01*
X354630Y206906D01*
X353094Y205370D01*
X351086Y204538D01*
X348914Y204538D01*
X346848Y205394D01*
X346818Y205402D01*
X346790Y205416D01*
X346713Y205429D01*
X346572Y205465D01*
X346508Y205463D01*
X346459Y205471D01*
X341874Y205471D01*
X304671Y242674D01*
X304602Y242726D01*
X304538Y242786D01*
X304488Y242812D01*
X304444Y242845D01*
X304363Y242876D01*
X304285Y242916D01*
X304237Y242924D01*
X304179Y242946D01*
X304031Y242958D01*
X303954Y242971D01*
X5624Y242971D01*
X4528Y244068D01*
X4504Y244085D01*
X4485Y244108D01*
X4391Y244170D01*
X4301Y244238D01*
X4273Y244249D01*
X4249Y244265D01*
X4141Y244299D01*
X4035Y244340D01*
X4006Y244342D01*
X3978Y244351D01*
X3864Y244354D01*
X3752Y244363D01*
X3723Y244357D01*
X3694Y244358D01*
X3584Y244330D01*
X3473Y244307D01*
X3447Y244294D01*
X3419Y244286D01*
X3321Y244229D01*
X3221Y244176D01*
X3199Y244156D01*
X3174Y244141D01*
X3097Y244059D01*
X3015Y243981D01*
X3000Y243955D01*
X2980Y243934D01*
X2928Y243833D01*
X2871Y243735D01*
X2864Y243707D01*
X2850Y243681D01*
X2837Y243603D01*
X2801Y243460D01*
X2803Y243397D01*
X2795Y243350D01*
X2795Y3810D01*
X2803Y3752D01*
X2801Y3694D01*
X2823Y3612D01*
X2835Y3528D01*
X2858Y3475D01*
X2873Y3419D01*
X2916Y3346D01*
X2951Y3269D01*
X2989Y3224D01*
X3018Y3174D01*
X3080Y3116D01*
X3134Y3052D01*
X3183Y3020D01*
X3226Y2980D01*
X3301Y2941D01*
X3371Y2894D01*
X3427Y2877D01*
X3479Y2850D01*
X3547Y2839D01*
X3642Y2809D01*
X3742Y2806D01*
X3810Y2795D01*
X521820Y2795D01*
X521878Y2803D01*
G37*
G36*
X3501248Y228993D02*
X3501248Y228993D01*
X3501306Y228991D01*
X3501388Y229013D01*
X3501472Y229025D01*
X3501525Y229049D01*
X3501581Y229063D01*
X3501654Y229106D01*
X3501731Y229141D01*
X3501776Y229179D01*
X3501826Y229209D01*
X3501884Y229270D01*
X3501948Y229325D01*
X3501980Y229373D01*
X3502020Y229416D01*
X3502059Y229491D01*
X3502106Y229561D01*
X3502123Y229617D01*
X3502150Y229669D01*
X3502161Y229737D01*
X3502191Y229832D01*
X3502194Y229932D01*
X3502205Y230000D01*
X3502205Y231158D01*
X3503842Y232795D01*
X3600000Y232795D01*
X3600058Y232803D01*
X3600116Y232801D01*
X3600198Y232823D01*
X3600282Y232835D01*
X3600335Y232858D01*
X3600391Y232873D01*
X3600464Y232916D01*
X3600541Y232951D01*
X3600586Y232989D01*
X3600636Y233018D01*
X3600694Y233080D01*
X3600758Y233134D01*
X3600790Y233183D01*
X3600830Y233226D01*
X3600869Y233301D01*
X3600916Y233371D01*
X3600933Y233427D01*
X3600960Y233479D01*
X3600971Y233547D01*
X3601001Y233642D01*
X3601004Y233742D01*
X3601015Y233810D01*
X3601015Y456001D01*
X3601011Y456030D01*
X3601014Y456059D01*
X3600991Y456170D01*
X3600975Y456282D01*
X3600963Y456309D01*
X3600958Y456338D01*
X3600906Y456438D01*
X3600859Y456542D01*
X3600840Y456564D01*
X3600827Y456590D01*
X3600749Y456672D01*
X3600676Y456759D01*
X3600651Y456775D01*
X3600631Y456796D01*
X3600533Y456854D01*
X3600439Y456916D01*
X3600411Y456925D01*
X3600386Y456940D01*
X3600276Y456968D01*
X3600168Y457002D01*
X3600138Y457003D01*
X3600110Y457010D01*
X3599997Y457007D01*
X3599884Y457009D01*
X3599855Y457002D01*
X3599826Y457001D01*
X3599718Y456966D01*
X3599609Y456938D01*
X3599583Y456923D01*
X3599555Y456914D01*
X3599492Y456868D01*
X3599364Y456792D01*
X3599321Y456747D01*
X3599282Y456719D01*
X3598832Y456268D01*
X3596516Y456268D01*
X3594879Y457905D01*
X3594879Y458216D01*
X3594871Y458274D01*
X3594873Y458333D01*
X3594851Y458414D01*
X3594839Y458498D01*
X3594816Y458551D01*
X3594801Y458608D01*
X3594758Y458680D01*
X3594723Y458757D01*
X3594685Y458802D01*
X3594656Y458852D01*
X3594594Y458910D01*
X3594540Y458974D01*
X3594491Y459007D01*
X3594448Y459047D01*
X3594373Y459085D01*
X3594303Y459132D01*
X3594247Y459150D01*
X3594195Y459176D01*
X3594127Y459188D01*
X3594032Y459218D01*
X3593932Y459220D01*
X3593864Y459232D01*
X3587217Y459232D01*
X3587154Y459223D01*
X3587105Y459225D01*
X3586123Y459116D01*
X3586059Y459154D01*
X3586029Y459162D01*
X3586001Y459176D01*
X3585923Y459189D01*
X3585880Y459200D01*
X3585179Y459901D01*
X3585128Y459939D01*
X3585095Y459976D01*
X3584324Y460593D01*
X3584305Y460665D01*
X3584289Y460692D01*
X3584280Y460722D01*
X3584234Y460786D01*
X3584211Y460825D01*
X3584211Y461815D01*
X3584202Y461879D01*
X3584205Y461927D01*
X3584096Y462910D01*
X3584134Y462973D01*
X3584141Y463004D01*
X3584156Y463032D01*
X3584169Y463109D01*
X3584180Y463153D01*
X3584881Y463853D01*
X3584919Y463904D01*
X3584956Y463937D01*
X3587918Y467640D01*
X3590219Y467895D01*
X3592027Y466449D01*
X3592107Y465724D01*
X3592108Y465722D01*
X3592107Y465720D01*
X3592143Y465585D01*
X3592178Y465449D01*
X3592179Y465447D01*
X3592179Y465445D01*
X3592249Y465328D01*
X3592322Y465204D01*
X3592323Y465202D01*
X3592325Y465201D01*
X3592426Y465106D01*
X3592528Y465009D01*
X3592530Y465008D01*
X3592532Y465006D01*
X3592657Y464942D01*
X3592781Y464878D01*
X3592783Y464878D01*
X3592785Y464877D01*
X3592805Y464873D01*
X3593060Y464823D01*
X3593091Y464825D01*
X3593116Y464821D01*
X3593864Y464821D01*
X3593922Y464829D01*
X3593980Y464828D01*
X3594062Y464849D01*
X3594146Y464861D01*
X3594199Y464885D01*
X3594255Y464900D01*
X3594328Y464943D01*
X3594405Y464977D01*
X3594450Y465015D01*
X3594500Y465045D01*
X3594558Y465106D01*
X3594622Y465161D01*
X3594654Y465210D01*
X3594694Y465252D01*
X3594733Y465327D01*
X3594780Y465398D01*
X3594797Y465453D01*
X3594824Y465505D01*
X3594835Y465573D01*
X3594865Y465669D01*
X3594868Y465768D01*
X3594879Y465836D01*
X3594879Y466147D01*
X3595755Y467024D01*
X3595790Y467070D01*
X3595833Y467111D01*
X3595876Y467183D01*
X3595926Y467251D01*
X3595947Y467305D01*
X3595977Y467356D01*
X3595997Y467437D01*
X3596028Y467516D01*
X3596032Y467575D01*
X3596047Y467631D01*
X3596044Y467716D01*
X3596051Y467800D01*
X3596040Y467857D01*
X3596038Y467915D01*
X3596012Y467996D01*
X3595995Y468078D01*
X3595968Y468130D01*
X3595950Y468186D01*
X3595910Y468242D01*
X3595864Y468331D01*
X3595796Y468403D01*
X3595755Y468459D01*
X3594879Y469335D01*
X3594879Y469646D01*
X3594872Y469697D01*
X3594873Y469715D01*
X3594871Y469720D01*
X3594873Y469763D01*
X3594851Y469844D01*
X3594839Y469928D01*
X3594816Y469981D01*
X3594801Y470038D01*
X3594758Y470110D01*
X3594723Y470187D01*
X3594685Y470232D01*
X3594656Y470282D01*
X3594594Y470340D01*
X3594540Y470404D01*
X3594491Y470437D01*
X3594448Y470477D01*
X3594373Y470515D01*
X3594303Y470562D01*
X3594247Y470580D01*
X3594195Y470606D01*
X3594127Y470618D01*
X3594032Y470648D01*
X3593932Y470650D01*
X3593864Y470662D01*
X3587217Y470662D01*
X3587154Y470653D01*
X3587105Y470655D01*
X3586123Y470546D01*
X3586059Y470584D01*
X3586029Y470592D01*
X3586001Y470606D01*
X3585923Y470619D01*
X3585880Y470630D01*
X3585179Y471331D01*
X3585128Y471369D01*
X3585095Y471406D01*
X3584324Y472023D01*
X3584305Y472095D01*
X3584289Y472122D01*
X3584280Y472152D01*
X3584234Y472216D01*
X3584211Y472255D01*
X3584211Y473245D01*
X3584202Y473309D01*
X3584205Y473357D01*
X3584096Y474340D01*
X3584134Y474403D01*
X3584141Y474434D01*
X3584156Y474462D01*
X3584169Y474539D01*
X3584180Y474583D01*
X3584881Y475283D01*
X3584919Y475334D01*
X3584956Y475367D01*
X3587902Y479050D01*
X3587928Y479095D01*
X3587962Y479134D01*
X3588000Y479216D01*
X3588046Y479294D01*
X3588059Y479345D01*
X3588081Y479392D01*
X3588095Y479482D01*
X3588118Y479569D01*
X3588116Y479622D01*
X3588124Y479673D01*
X3588113Y479745D01*
X3588110Y479854D01*
X3588082Y479941D01*
X3588072Y480005D01*
X3587545Y481587D01*
X3588396Y483289D01*
X3588401Y483305D01*
X3588410Y483320D01*
X3588446Y483440D01*
X3588486Y483559D01*
X3588487Y483576D01*
X3588492Y483592D01*
X3588493Y483718D01*
X3588498Y483843D01*
X3588494Y483859D01*
X3588494Y483876D01*
X3588473Y483945D01*
X3588431Y484119D01*
X3588407Y484161D01*
X3588396Y484197D01*
X3587545Y485900D01*
X3588277Y488096D01*
X3590348Y489131D01*
X3597353Y486796D01*
X3597368Y486793D01*
X3597382Y486787D01*
X3597508Y486768D01*
X3597633Y486745D01*
X3597648Y486747D01*
X3597663Y486744D01*
X3597731Y486755D01*
X3597872Y486769D01*
X3598682Y486364D01*
X3598761Y486338D01*
X3598815Y486309D01*
X3599679Y486021D01*
X3599757Y486007D01*
X3599832Y485983D01*
X3599896Y485981D01*
X3599959Y485970D01*
X3600037Y485978D01*
X3600116Y485976D01*
X3600178Y485992D01*
X3600241Y485998D01*
X3600315Y486027D01*
X3600391Y486047D01*
X3600446Y486080D01*
X3600505Y486104D01*
X3600568Y486152D01*
X3600636Y486193D01*
X3600679Y486239D01*
X3600730Y486278D01*
X3600776Y486342D01*
X3600830Y486400D01*
X3600859Y486457D01*
X3600897Y486508D01*
X3600924Y486583D01*
X3600960Y486653D01*
X3600969Y486707D01*
X3600994Y486776D01*
X3601002Y486907D01*
X3601015Y486984D01*
X3601015Y520000D01*
X3601007Y520058D01*
X3601009Y520116D01*
X3600987Y520198D01*
X3600975Y520282D01*
X3600952Y520335D01*
X3600937Y520391D01*
X3600894Y520464D01*
X3600859Y520541D01*
X3600821Y520586D01*
X3600792Y520636D01*
X3600730Y520694D01*
X3600676Y520758D01*
X3600627Y520790D01*
X3600584Y520830D01*
X3600509Y520869D01*
X3600439Y520916D01*
X3600383Y520933D01*
X3600331Y520960D01*
X3600263Y520971D01*
X3600168Y521001D01*
X3600068Y521004D01*
X3600000Y521015D01*
X3594054Y521015D01*
X3593941Y520999D01*
X3593826Y520989D01*
X3593800Y520979D01*
X3593773Y520975D01*
X3593668Y520928D01*
X3593561Y520887D01*
X3593539Y520871D01*
X3593514Y520859D01*
X3593426Y520785D01*
X3593334Y520716D01*
X3593318Y520693D01*
X3593297Y520676D01*
X3593233Y520580D01*
X3593164Y520488D01*
X3593154Y520462D01*
X3593139Y520439D01*
X3593104Y520329D01*
X3593064Y520222D01*
X3593062Y520194D01*
X3593053Y520168D01*
X3593050Y520053D01*
X3593041Y519939D01*
X3593047Y519914D01*
X3593046Y519884D01*
X3593113Y519627D01*
X3593116Y519611D01*
X3593379Y518978D01*
X3593379Y516282D01*
X3592347Y513790D01*
X3590440Y511883D01*
X3587948Y510851D01*
X3579252Y510851D01*
X3576760Y511883D01*
X3574853Y513790D01*
X3573821Y516282D01*
X3573821Y518978D01*
X3574084Y519611D01*
X3574112Y519723D01*
X3574147Y519832D01*
X3574148Y519860D01*
X3574154Y519887D01*
X3574151Y520001D01*
X3574154Y520116D01*
X3574147Y520143D01*
X3574146Y520171D01*
X3574111Y520280D01*
X3574082Y520391D01*
X3574068Y520415D01*
X3574060Y520442D01*
X3573996Y520537D01*
X3573937Y520636D01*
X3573917Y520655D01*
X3573901Y520678D01*
X3573814Y520752D01*
X3573730Y520830D01*
X3573705Y520843D01*
X3573684Y520861D01*
X3573579Y520907D01*
X3573477Y520960D01*
X3573452Y520964D01*
X3573424Y520976D01*
X3573160Y521013D01*
X3573146Y521015D01*
X3554754Y521015D01*
X3554641Y520999D01*
X3554526Y520989D01*
X3554500Y520979D01*
X3554473Y520975D01*
X3554368Y520928D01*
X3554261Y520887D01*
X3554239Y520871D01*
X3554214Y520859D01*
X3554126Y520785D01*
X3554034Y520716D01*
X3554018Y520693D01*
X3553997Y520676D01*
X3553933Y520580D01*
X3553864Y520488D01*
X3553854Y520462D01*
X3553839Y520439D01*
X3553804Y520329D01*
X3553764Y520222D01*
X3553762Y520194D01*
X3553753Y520168D01*
X3553750Y520053D01*
X3553741Y519939D01*
X3553747Y519914D01*
X3553746Y519884D01*
X3553813Y519627D01*
X3553816Y519611D01*
X3554079Y518978D01*
X3554079Y516282D01*
X3553047Y513790D01*
X3551140Y511883D01*
X3548648Y510851D01*
X3534952Y510851D01*
X3532460Y511883D01*
X3530553Y513790D01*
X3529521Y516282D01*
X3529521Y518978D01*
X3529784Y519611D01*
X3529812Y519723D01*
X3529847Y519832D01*
X3529848Y519860D01*
X3529854Y519887D01*
X3529851Y520001D01*
X3529854Y520116D01*
X3529847Y520143D01*
X3529846Y520171D01*
X3529811Y520280D01*
X3529782Y520391D01*
X3529768Y520415D01*
X3529760Y520442D01*
X3529696Y520537D01*
X3529637Y520636D01*
X3529617Y520655D01*
X3529601Y520678D01*
X3529514Y520752D01*
X3529430Y520830D01*
X3529405Y520843D01*
X3529384Y520861D01*
X3529279Y520907D01*
X3529177Y520960D01*
X3529152Y520964D01*
X3529124Y520976D01*
X3528860Y521013D01*
X3528846Y521015D01*
X3440000Y521015D01*
X3439942Y521007D01*
X3439884Y521009D01*
X3439802Y520987D01*
X3439719Y520975D01*
X3439665Y520952D01*
X3439609Y520937D01*
X3439536Y520894D01*
X3439459Y520859D01*
X3439414Y520821D01*
X3439364Y520792D01*
X3439306Y520730D01*
X3439242Y520676D01*
X3439210Y520627D01*
X3439170Y520584D01*
X3439131Y520509D01*
X3439085Y520439D01*
X3439067Y520383D01*
X3439040Y520331D01*
X3439029Y520263D01*
X3438999Y520168D01*
X3438996Y520068D01*
X3438985Y520000D01*
X3438985Y374160D01*
X3438993Y374103D01*
X3438991Y374049D01*
X3438999Y374022D01*
X3439000Y373986D01*
X3439017Y373933D01*
X3439025Y373878D01*
X3439052Y373817D01*
X3439063Y373774D01*
X3439074Y373756D01*
X3439087Y373715D01*
X3439115Y373676D01*
X3439141Y373619D01*
X3439190Y373561D01*
X3439209Y373530D01*
X3439242Y373498D01*
X3439282Y373442D01*
X3440630Y372094D01*
X3441462Y370086D01*
X3441462Y367914D01*
X3440630Y365906D01*
X3439282Y364558D01*
X3439230Y364488D01*
X3439170Y364424D01*
X3439144Y364375D01*
X3439111Y364331D01*
X3439080Y364249D01*
X3439040Y364171D01*
X3439032Y364124D01*
X3439010Y364065D01*
X3438998Y363918D01*
X3438985Y363840D01*
X3438985Y230000D01*
X3438993Y229942D01*
X3438991Y229884D01*
X3439013Y229802D01*
X3439025Y229719D01*
X3439049Y229665D01*
X3439063Y229609D01*
X3439106Y229536D01*
X3439141Y229459D01*
X3439179Y229414D01*
X3439209Y229364D01*
X3439270Y229306D01*
X3439325Y229242D01*
X3439373Y229210D01*
X3439416Y229170D01*
X3439491Y229131D01*
X3439561Y229085D01*
X3439617Y229067D01*
X3439669Y229040D01*
X3439737Y229029D01*
X3439832Y228999D01*
X3439932Y228996D01*
X3440000Y228985D01*
X3501190Y228985D01*
X3501248Y228993D01*
G37*
%LPC*%
G36*
X67664Y1577038D02*
X67664Y1577038D01*
X65656Y1577870D01*
X64120Y1579406D01*
X63288Y1581414D01*
X63288Y1583586D01*
X64120Y1585594D01*
X65656Y1587130D01*
X67664Y1587962D01*
X69836Y1587962D01*
X71902Y1587106D01*
X71932Y1587098D01*
X71960Y1587084D01*
X72037Y1587071D01*
X72178Y1587035D01*
X72242Y1587037D01*
X72291Y1587029D01*
X112341Y1587029D01*
X112428Y1587041D01*
X112516Y1587044D01*
X112568Y1587061D01*
X112623Y1587069D01*
X112703Y1587104D01*
X112786Y1587131D01*
X112825Y1587159D01*
X112882Y1587185D01*
X112996Y1587281D01*
X113059Y1587326D01*
X113473Y1587740D01*
X227165Y1587740D01*
X227251Y1587752D01*
X227339Y1587755D01*
X227391Y1587772D01*
X227446Y1587780D01*
X227526Y1587815D01*
X227609Y1587842D01*
X227648Y1587870D01*
X227706Y1587896D01*
X227819Y1587992D01*
X227882Y1588037D01*
X426874Y1787029D01*
X3395209Y1787029D01*
X3395240Y1787033D01*
X3395271Y1787031D01*
X3395347Y1787048D01*
X3395491Y1787069D01*
X3395549Y1787095D01*
X3395598Y1787106D01*
X3397664Y1787962D01*
X3399836Y1787962D01*
X3401844Y1787130D01*
X3403380Y1785594D01*
X3404212Y1783586D01*
X3404212Y1781414D01*
X3403380Y1779406D01*
X3401844Y1777870D01*
X3399836Y1777038D01*
X3397664Y1777038D01*
X3395598Y1777894D01*
X3395568Y1777902D01*
X3395540Y1777916D01*
X3395463Y1777929D01*
X3395322Y1777965D01*
X3395258Y1777963D01*
X3395209Y1777971D01*
X431046Y1777971D01*
X430960Y1777959D01*
X430872Y1777956D01*
X430820Y1777939D01*
X430765Y1777931D01*
X430685Y1777896D01*
X430602Y1777869D01*
X430563Y1777841D01*
X430505Y1777815D01*
X430392Y1777719D01*
X430329Y1777674D01*
X231337Y1578682D01*
X117645Y1578682D01*
X117559Y1578670D01*
X117471Y1578667D01*
X117419Y1578650D01*
X117364Y1578642D01*
X117284Y1578607D01*
X117201Y1578580D01*
X117161Y1578552D01*
X117104Y1578526D01*
X116991Y1578430D01*
X116927Y1578385D01*
X116514Y1577971D01*
X72291Y1577971D01*
X72260Y1577967D01*
X72229Y1577969D01*
X72153Y1577952D01*
X72009Y1577931D01*
X71951Y1577905D01*
X71902Y1577894D01*
X69836Y1577038D01*
X67664Y1577038D01*
G37*
%LPD*%
%LPC*%
G36*
X67664Y1727038D02*
X67664Y1727038D01*
X65656Y1727870D01*
X64120Y1729406D01*
X63288Y1731414D01*
X63288Y1733586D01*
X64120Y1735594D01*
X65656Y1737130D01*
X67664Y1737962D01*
X69836Y1737962D01*
X71902Y1737106D01*
X71932Y1737098D01*
X71960Y1737084D01*
X72037Y1737071D01*
X72178Y1737035D01*
X72242Y1737037D01*
X72291Y1737029D01*
X156454Y1737029D01*
X156540Y1737041D01*
X156628Y1737044D01*
X156680Y1737061D01*
X156735Y1737069D01*
X156815Y1737104D01*
X156898Y1737131D01*
X156937Y1737159D01*
X156995Y1737185D01*
X157108Y1737281D01*
X157171Y1737326D01*
X356874Y1937029D01*
X3395209Y1937029D01*
X3395240Y1937033D01*
X3395271Y1937031D01*
X3395347Y1937048D01*
X3395491Y1937069D01*
X3395549Y1937095D01*
X3395598Y1937106D01*
X3397664Y1937962D01*
X3399836Y1937962D01*
X3401844Y1937130D01*
X3403380Y1935594D01*
X3404212Y1933586D01*
X3404212Y1931414D01*
X3403380Y1929406D01*
X3401844Y1927870D01*
X3399836Y1927038D01*
X3397664Y1927038D01*
X3395598Y1927894D01*
X3395568Y1927902D01*
X3395540Y1927916D01*
X3395463Y1927929D01*
X3395322Y1927965D01*
X3395258Y1927963D01*
X3395209Y1927971D01*
X361046Y1927971D01*
X360960Y1927959D01*
X360872Y1927956D01*
X360820Y1927939D01*
X360765Y1927931D01*
X360685Y1927896D01*
X360602Y1927869D01*
X360563Y1927841D01*
X360505Y1927815D01*
X360392Y1927719D01*
X360329Y1927674D01*
X160626Y1727971D01*
X72291Y1727971D01*
X72260Y1727967D01*
X72229Y1727969D01*
X72153Y1727952D01*
X72009Y1727931D01*
X71951Y1727905D01*
X71902Y1727894D01*
X69836Y1727038D01*
X67664Y1727038D01*
G37*
%LPD*%
%LPC*%
G36*
X87664Y1282038D02*
X87664Y1282038D01*
X85656Y1282870D01*
X84120Y1284406D01*
X83288Y1286414D01*
X83288Y1288586D01*
X84120Y1290594D01*
X85656Y1292130D01*
X87664Y1292962D01*
X89836Y1292962D01*
X91902Y1292106D01*
X91932Y1292098D01*
X91960Y1292084D01*
X92037Y1292071D01*
X92178Y1292035D01*
X92242Y1292037D01*
X92291Y1292029D01*
X109841Y1292029D01*
X109928Y1292041D01*
X110016Y1292044D01*
X110068Y1292061D01*
X110123Y1292069D01*
X110203Y1292104D01*
X110286Y1292131D01*
X110325Y1292159D01*
X110382Y1292185D01*
X110496Y1292281D01*
X110559Y1292326D01*
X113473Y1295240D01*
X449665Y1295240D01*
X449751Y1295252D01*
X449839Y1295255D01*
X449891Y1295272D01*
X449946Y1295280D01*
X450026Y1295315D01*
X450109Y1295342D01*
X450148Y1295370D01*
X450206Y1295396D01*
X450319Y1295492D01*
X450382Y1295537D01*
X641874Y1487029D01*
X3395209Y1487029D01*
X3395240Y1487033D01*
X3395271Y1487031D01*
X3395347Y1487048D01*
X3395491Y1487069D01*
X3395549Y1487095D01*
X3395598Y1487106D01*
X3397664Y1487962D01*
X3399836Y1487962D01*
X3401844Y1487130D01*
X3403380Y1485594D01*
X3404212Y1483586D01*
X3404212Y1481414D01*
X3403380Y1479406D01*
X3401844Y1477870D01*
X3399836Y1477038D01*
X3397664Y1477038D01*
X3395598Y1477894D01*
X3395585Y1477897D01*
X3395584Y1477897D01*
X3395584Y1477898D01*
X3395568Y1477902D01*
X3395540Y1477916D01*
X3395463Y1477929D01*
X3395322Y1477965D01*
X3395258Y1477963D01*
X3395209Y1477971D01*
X646046Y1477971D01*
X645960Y1477959D01*
X645872Y1477956D01*
X645820Y1477939D01*
X645765Y1477931D01*
X645685Y1477896D01*
X645602Y1477869D01*
X645563Y1477841D01*
X645505Y1477815D01*
X645392Y1477719D01*
X645329Y1477674D01*
X453837Y1286182D01*
X117645Y1286182D01*
X117559Y1286170D01*
X117471Y1286167D01*
X117419Y1286150D01*
X117364Y1286142D01*
X117284Y1286107D01*
X117201Y1286080D01*
X117161Y1286052D01*
X117104Y1286026D01*
X116991Y1285930D01*
X116927Y1285885D01*
X114014Y1282971D01*
X92291Y1282971D01*
X92260Y1282967D01*
X92229Y1282969D01*
X92153Y1282952D01*
X92009Y1282931D01*
X91951Y1282905D01*
X91902Y1282894D01*
X89836Y1282038D01*
X87664Y1282038D01*
G37*
%LPD*%
%LPC*%
G36*
X87664Y1137038D02*
X87664Y1137038D01*
X85656Y1137870D01*
X84120Y1139406D01*
X83288Y1141414D01*
X83288Y1143586D01*
X84120Y1145594D01*
X85656Y1147130D01*
X87664Y1147962D01*
X89836Y1147962D01*
X91902Y1147106D01*
X91932Y1147098D01*
X91960Y1147084D01*
X92037Y1147071D01*
X92178Y1147035D01*
X92242Y1147037D01*
X92291Y1147029D01*
X516454Y1147029D01*
X516540Y1147041D01*
X516628Y1147044D01*
X516680Y1147061D01*
X516735Y1147069D01*
X516815Y1147104D01*
X516898Y1147131D01*
X516937Y1147159D01*
X516995Y1147185D01*
X517108Y1147281D01*
X517171Y1147326D01*
X706874Y1337029D01*
X3395209Y1337029D01*
X3395240Y1337033D01*
X3395271Y1337031D01*
X3395347Y1337048D01*
X3395491Y1337069D01*
X3395549Y1337095D01*
X3395598Y1337106D01*
X3397664Y1337962D01*
X3399836Y1337962D01*
X3401844Y1337130D01*
X3403380Y1335594D01*
X3404212Y1333586D01*
X3404212Y1331414D01*
X3403380Y1329406D01*
X3401844Y1327870D01*
X3399836Y1327038D01*
X3397664Y1327038D01*
X3395598Y1327894D01*
X3395568Y1327902D01*
X3395540Y1327916D01*
X3395463Y1327929D01*
X3395322Y1327965D01*
X3395258Y1327963D01*
X3395209Y1327971D01*
X711046Y1327971D01*
X710960Y1327959D01*
X710872Y1327956D01*
X710820Y1327939D01*
X710765Y1327931D01*
X710685Y1327896D01*
X710602Y1327869D01*
X710563Y1327841D01*
X710505Y1327815D01*
X710392Y1327719D01*
X710329Y1327674D01*
X520626Y1137971D01*
X92291Y1137971D01*
X92260Y1137967D01*
X92229Y1137969D01*
X92153Y1137952D01*
X92009Y1137931D01*
X91951Y1137905D01*
X91902Y1137894D01*
X89836Y1137038D01*
X87664Y1137038D01*
G37*
%LPD*%
%LPC*%
G36*
X92664Y519538D02*
X92664Y519538D01*
X90656Y520370D01*
X89120Y521906D01*
X88288Y523914D01*
X88288Y526086D01*
X89120Y528094D01*
X90656Y529630D01*
X92722Y530486D01*
X92749Y530502D01*
X92778Y530511D01*
X92842Y530557D01*
X92967Y530630D01*
X93011Y530677D01*
X93051Y530706D01*
X95085Y532740D01*
X757165Y532740D01*
X757251Y532752D01*
X757339Y532755D01*
X757391Y532772D01*
X757446Y532780D01*
X757526Y532815D01*
X757609Y532842D01*
X757648Y532870D01*
X757706Y532896D01*
X757819Y532992D01*
X757882Y533037D01*
X966874Y742029D01*
X3390209Y742029D01*
X3390240Y742033D01*
X3390271Y742031D01*
X3390347Y742048D01*
X3390491Y742069D01*
X3390549Y742095D01*
X3390598Y742106D01*
X3392664Y742962D01*
X3394836Y742962D01*
X3396844Y742130D01*
X3398380Y740594D01*
X3399212Y738586D01*
X3399212Y736414D01*
X3398380Y734406D01*
X3396844Y732870D01*
X3394836Y732038D01*
X3392664Y732038D01*
X3390598Y732894D01*
X3390568Y732902D01*
X3390540Y732916D01*
X3390463Y732929D01*
X3390322Y732965D01*
X3390258Y732963D01*
X3390209Y732971D01*
X971046Y732971D01*
X970960Y732959D01*
X970872Y732956D01*
X970820Y732939D01*
X970765Y732931D01*
X970685Y732896D01*
X970602Y732869D01*
X970563Y732841D01*
X970505Y732815D01*
X970392Y732719D01*
X970329Y732674D01*
X761337Y523682D01*
X99794Y523682D01*
X99793Y523682D01*
X99791Y523682D01*
X99650Y523662D01*
X99513Y523642D01*
X99511Y523642D01*
X99510Y523642D01*
X99382Y523584D01*
X99253Y523526D01*
X99252Y523525D01*
X99251Y523524D01*
X99143Y523433D01*
X99036Y523343D01*
X99035Y523341D01*
X99034Y523340D01*
X99026Y523327D01*
X98879Y523106D01*
X98870Y523077D01*
X98856Y523056D01*
X98380Y521906D01*
X96844Y520370D01*
X94836Y519538D01*
X92664Y519538D01*
G37*
%LPD*%
%LPC*%
G36*
X87514Y984538D02*
X87514Y984538D01*
X85506Y985370D01*
X83970Y986906D01*
X83138Y988914D01*
X83138Y991086D01*
X83970Y993094D01*
X85506Y994630D01*
X87514Y995462D01*
X89686Y995462D01*
X91752Y994606D01*
X91782Y994598D01*
X91810Y994584D01*
X91887Y994571D01*
X92028Y994535D01*
X92092Y994537D01*
X92141Y994529D01*
X112341Y994529D01*
X112428Y994541D01*
X112516Y994544D01*
X112568Y994561D01*
X112623Y994569D01*
X112703Y994604D01*
X112786Y994631D01*
X112825Y994659D01*
X112882Y994685D01*
X112996Y994781D01*
X113059Y994826D01*
X113473Y995240D01*
X550565Y995240D01*
X550651Y995252D01*
X550739Y995255D01*
X550791Y995272D01*
X550846Y995280D01*
X550926Y995315D01*
X551009Y995342D01*
X551048Y995370D01*
X551106Y995396D01*
X551219Y995492D01*
X551282Y995537D01*
X740774Y1185029D01*
X3393409Y1185029D01*
X3393440Y1185033D01*
X3393471Y1185031D01*
X3393547Y1185048D01*
X3393691Y1185069D01*
X3393749Y1185095D01*
X3393798Y1185106D01*
X3395864Y1185962D01*
X3398036Y1185962D01*
X3400044Y1185130D01*
X3401580Y1183594D01*
X3402412Y1181586D01*
X3402412Y1179414D01*
X3401580Y1177406D01*
X3400044Y1175870D01*
X3398036Y1175038D01*
X3395864Y1175038D01*
X3393798Y1175894D01*
X3393768Y1175902D01*
X3393740Y1175916D01*
X3393663Y1175929D01*
X3393522Y1175965D01*
X3393458Y1175963D01*
X3393409Y1175971D01*
X744946Y1175971D01*
X744860Y1175959D01*
X744772Y1175956D01*
X744720Y1175939D01*
X744665Y1175931D01*
X744585Y1175896D01*
X744502Y1175869D01*
X744463Y1175841D01*
X744405Y1175815D01*
X744292Y1175719D01*
X744229Y1175674D01*
X554737Y986182D01*
X117645Y986182D01*
X117559Y986170D01*
X117471Y986167D01*
X117419Y986150D01*
X117364Y986142D01*
X117284Y986107D01*
X117201Y986080D01*
X117161Y986052D01*
X117104Y986026D01*
X116991Y985930D01*
X116927Y985885D01*
X116514Y985471D01*
X92141Y985471D01*
X92110Y985467D01*
X92079Y985469D01*
X92003Y985452D01*
X91859Y985431D01*
X91801Y985405D01*
X91752Y985394D01*
X89686Y984538D01*
X87514Y984538D01*
G37*
%LPD*%
%LPC*%
G36*
X92664Y832038D02*
X92664Y832038D01*
X90656Y832870D01*
X89120Y834406D01*
X88288Y836414D01*
X88288Y838586D01*
X89120Y840594D01*
X90656Y842130D01*
X92664Y842962D01*
X94836Y842962D01*
X96902Y842106D01*
X96932Y842098D01*
X96960Y842084D01*
X97037Y842071D01*
X97178Y842035D01*
X97242Y842037D01*
X97291Y842029D01*
X109841Y842029D01*
X109928Y842041D01*
X110016Y842044D01*
X110068Y842061D01*
X110123Y842069D01*
X110203Y842104D01*
X110286Y842131D01*
X110325Y842159D01*
X110382Y842185D01*
X110496Y842281D01*
X110559Y842326D01*
X113473Y845240D01*
X574027Y845240D01*
X576941Y842326D01*
X577010Y842274D01*
X577074Y842214D01*
X577124Y842188D01*
X577168Y842155D01*
X577250Y842124D01*
X577327Y842084D01*
X577375Y842076D01*
X577433Y842054D01*
X577581Y842042D01*
X577659Y842029D01*
X616454Y842029D01*
X616540Y842041D01*
X616628Y842044D01*
X616680Y842061D01*
X616735Y842069D01*
X616815Y842104D01*
X616898Y842131D01*
X616937Y842159D01*
X616995Y842185D01*
X617108Y842281D01*
X617171Y842326D01*
X816874Y1042029D01*
X3390209Y1042029D01*
X3390240Y1042033D01*
X3390271Y1042031D01*
X3390347Y1042048D01*
X3390491Y1042069D01*
X3390549Y1042095D01*
X3390598Y1042106D01*
X3392664Y1042962D01*
X3394836Y1042962D01*
X3396844Y1042130D01*
X3398380Y1040594D01*
X3399212Y1038586D01*
X3399212Y1036414D01*
X3398380Y1034406D01*
X3396844Y1032870D01*
X3394836Y1032038D01*
X3392664Y1032038D01*
X3390598Y1032894D01*
X3390568Y1032902D01*
X3390540Y1032916D01*
X3390463Y1032929D01*
X3390322Y1032965D01*
X3390258Y1032963D01*
X3390209Y1032971D01*
X821046Y1032971D01*
X820960Y1032959D01*
X820872Y1032956D01*
X820820Y1032939D01*
X820765Y1032931D01*
X820685Y1032896D01*
X820602Y1032869D01*
X820563Y1032841D01*
X820505Y1032815D01*
X820392Y1032719D01*
X820329Y1032674D01*
X620626Y832971D01*
X573486Y832971D01*
X570573Y835885D01*
X570503Y835937D01*
X570439Y835997D01*
X570390Y836023D01*
X570345Y836056D01*
X570264Y836087D01*
X570186Y836127D01*
X570138Y836135D01*
X570080Y836157D01*
X569932Y836169D01*
X569855Y836182D01*
X117645Y836182D01*
X117559Y836170D01*
X117471Y836167D01*
X117419Y836150D01*
X117364Y836142D01*
X117284Y836107D01*
X117201Y836080D01*
X117161Y836052D01*
X117104Y836026D01*
X116991Y835930D01*
X116927Y835885D01*
X114014Y832971D01*
X97291Y832971D01*
X97260Y832967D01*
X97229Y832969D01*
X97153Y832952D01*
X97009Y832931D01*
X96951Y832905D01*
X96902Y832894D01*
X94836Y832038D01*
X92664Y832038D01*
G37*
%LPD*%
%LPC*%
G36*
X92664Y682038D02*
X92664Y682038D01*
X90656Y682870D01*
X89120Y684406D01*
X88288Y686414D01*
X88288Y688586D01*
X89120Y690594D01*
X90656Y692130D01*
X92664Y692962D01*
X94836Y692962D01*
X96902Y692106D01*
X96932Y692098D01*
X96960Y692084D01*
X97037Y692071D01*
X97178Y692035D01*
X97242Y692037D01*
X97291Y692029D01*
X109841Y692029D01*
X109928Y692041D01*
X110016Y692044D01*
X110068Y692061D01*
X110123Y692069D01*
X110203Y692104D01*
X110286Y692131D01*
X110325Y692159D01*
X110382Y692185D01*
X110496Y692281D01*
X110559Y692326D01*
X113473Y695240D01*
X574027Y695240D01*
X576941Y692326D01*
X577010Y692274D01*
X577074Y692214D01*
X577124Y692188D01*
X577168Y692155D01*
X577250Y692124D01*
X577327Y692084D01*
X577375Y692076D01*
X577433Y692054D01*
X577581Y692042D01*
X577659Y692029D01*
X691454Y692029D01*
X691540Y692041D01*
X691628Y692044D01*
X691680Y692061D01*
X691735Y692069D01*
X691815Y692104D01*
X691898Y692131D01*
X691937Y692159D01*
X691995Y692185D01*
X692108Y692281D01*
X692171Y692326D01*
X891874Y892029D01*
X3390209Y892029D01*
X3390240Y892033D01*
X3390271Y892031D01*
X3390347Y892048D01*
X3390491Y892069D01*
X3390549Y892095D01*
X3390598Y892106D01*
X3392664Y892962D01*
X3394836Y892962D01*
X3396844Y892130D01*
X3398380Y890594D01*
X3399212Y888586D01*
X3399212Y886414D01*
X3398380Y884406D01*
X3396844Y882870D01*
X3394836Y882038D01*
X3392664Y882038D01*
X3390598Y882894D01*
X3390568Y882902D01*
X3390540Y882916D01*
X3390463Y882929D01*
X3390322Y882965D01*
X3390258Y882963D01*
X3390209Y882971D01*
X896046Y882971D01*
X895960Y882959D01*
X895872Y882956D01*
X895820Y882939D01*
X895765Y882931D01*
X895685Y882896D01*
X895602Y882869D01*
X895563Y882841D01*
X895505Y882815D01*
X895392Y882719D01*
X895329Y882674D01*
X695626Y682971D01*
X573486Y682971D01*
X570573Y685885D01*
X570503Y685937D01*
X570439Y685997D01*
X570390Y686023D01*
X570345Y686056D01*
X570264Y686087D01*
X570186Y686127D01*
X570138Y686135D01*
X570080Y686157D01*
X569932Y686169D01*
X569855Y686182D01*
X117645Y686182D01*
X117559Y686170D01*
X117471Y686167D01*
X117419Y686150D01*
X117364Y686142D01*
X117284Y686107D01*
X117201Y686080D01*
X117161Y686052D01*
X117104Y686026D01*
X116991Y685930D01*
X116927Y685885D01*
X114014Y682971D01*
X97291Y682971D01*
X97260Y682967D01*
X97229Y682969D01*
X97153Y682952D01*
X97009Y682931D01*
X96951Y682905D01*
X96902Y682894D01*
X94836Y682038D01*
X92664Y682038D01*
G37*
%LPD*%
%LPC*%
G36*
X92664Y1432038D02*
X92664Y1432038D01*
X90656Y1432870D01*
X89120Y1434406D01*
X88288Y1436414D01*
X88288Y1438586D01*
X89120Y1440594D01*
X90656Y1442130D01*
X92664Y1442962D01*
X94836Y1442962D01*
X96902Y1442106D01*
X96932Y1442098D01*
X96960Y1442084D01*
X97037Y1442071D01*
X97178Y1442035D01*
X97242Y1442037D01*
X97291Y1442029D01*
X316454Y1442029D01*
X316540Y1442041D01*
X316628Y1442044D01*
X316680Y1442061D01*
X316735Y1442069D01*
X316815Y1442104D01*
X316898Y1442131D01*
X316937Y1442159D01*
X316995Y1442185D01*
X317108Y1442281D01*
X317171Y1442326D01*
X516874Y1642029D01*
X3390209Y1642029D01*
X3390240Y1642033D01*
X3390271Y1642031D01*
X3390347Y1642048D01*
X3390491Y1642069D01*
X3390549Y1642095D01*
X3390598Y1642106D01*
X3392664Y1642962D01*
X3394836Y1642962D01*
X3396844Y1642130D01*
X3398380Y1640594D01*
X3399212Y1638586D01*
X3399212Y1636414D01*
X3398380Y1634406D01*
X3396844Y1632870D01*
X3394836Y1632038D01*
X3392664Y1632038D01*
X3390598Y1632894D01*
X3390568Y1632902D01*
X3390540Y1632916D01*
X3390463Y1632929D01*
X3390322Y1632965D01*
X3390258Y1632963D01*
X3390209Y1632971D01*
X521046Y1632971D01*
X520960Y1632959D01*
X520872Y1632956D01*
X520820Y1632939D01*
X520765Y1632931D01*
X520685Y1632896D01*
X520602Y1632869D01*
X520563Y1632841D01*
X520505Y1632815D01*
X520392Y1632719D01*
X520329Y1632674D01*
X320626Y1432971D01*
X97291Y1432971D01*
X97260Y1432967D01*
X97229Y1432969D01*
X97153Y1432952D01*
X97009Y1432931D01*
X96951Y1432905D01*
X96902Y1432894D01*
X94836Y1432038D01*
X92664Y1432038D01*
G37*
%LPD*%
%LPC*%
G36*
X87664Y392038D02*
X87664Y392038D01*
X85656Y392870D01*
X84120Y394406D01*
X83288Y396414D01*
X83288Y398586D01*
X84120Y400594D01*
X85656Y402130D01*
X87664Y402962D01*
X89836Y402962D01*
X91902Y402106D01*
X91932Y402098D01*
X91960Y402084D01*
X92037Y402071D01*
X92178Y402035D01*
X92242Y402037D01*
X92291Y402029D01*
X821454Y402029D01*
X821540Y402041D01*
X821628Y402044D01*
X821680Y402061D01*
X821735Y402069D01*
X821815Y402104D01*
X821898Y402131D01*
X821937Y402159D01*
X821995Y402185D01*
X822108Y402281D01*
X822171Y402326D01*
X1013924Y594078D01*
X1013924Y594079D01*
X1016874Y597029D01*
X3385209Y597029D01*
X3385240Y597033D01*
X3385271Y597031D01*
X3385347Y597048D01*
X3385491Y597069D01*
X3385549Y597095D01*
X3385598Y597106D01*
X3387664Y597962D01*
X3389836Y597962D01*
X3391844Y597130D01*
X3393380Y595594D01*
X3394212Y593586D01*
X3394212Y591414D01*
X3393380Y589406D01*
X3391844Y587870D01*
X3389836Y587038D01*
X3387664Y587038D01*
X3385598Y587894D01*
X3385568Y587902D01*
X3385540Y587916D01*
X3385463Y587929D01*
X3385322Y587965D01*
X3385258Y587963D01*
X3385209Y587971D01*
X1021046Y587971D01*
X1020960Y587959D01*
X1020872Y587956D01*
X1020820Y587939D01*
X1020765Y587931D01*
X1020685Y587896D01*
X1020602Y587869D01*
X1020563Y587841D01*
X1020505Y587815D01*
X1020392Y587719D01*
X1020328Y587674D01*
X825626Y392971D01*
X92291Y392971D01*
X92260Y392967D01*
X92229Y392969D01*
X92153Y392952D01*
X92009Y392931D01*
X91951Y392905D01*
X91902Y392894D01*
X89836Y392038D01*
X87664Y392038D01*
G37*
%LPD*%
%LPC*%
G36*
X92664Y1882038D02*
X92664Y1882038D01*
X90656Y1882870D01*
X89120Y1884406D01*
X88288Y1886414D01*
X88288Y1888586D01*
X89120Y1890594D01*
X90656Y1892130D01*
X92722Y1892986D01*
X92749Y1893002D01*
X92778Y1893011D01*
X92842Y1893057D01*
X92967Y1893130D01*
X93011Y1893177D01*
X93051Y1893206D01*
X258924Y2059078D01*
X258924Y2059079D01*
X261874Y2062029D01*
X3261454Y2062029D01*
X3261540Y2062041D01*
X3261628Y2062044D01*
X3261680Y2062061D01*
X3261735Y2062069D01*
X3261815Y2062104D01*
X3261898Y2062131D01*
X3261937Y2062159D01*
X3261995Y2062185D01*
X3262108Y2062281D01*
X3262171Y2062326D01*
X3288044Y2088199D01*
X3288062Y2088223D01*
X3288086Y2088243D01*
X3288128Y2088310D01*
X3288215Y2088426D01*
X3288238Y2088486D01*
X3288264Y2088528D01*
X3289120Y2090594D01*
X3290656Y2092130D01*
X3292664Y2092962D01*
X3294836Y2092962D01*
X3296844Y2092130D01*
X3298380Y2090594D01*
X3299212Y2088586D01*
X3299212Y2086414D01*
X3298380Y2084406D01*
X3296844Y2082870D01*
X3294778Y2082014D01*
X3294751Y2081998D01*
X3294722Y2081989D01*
X3294658Y2081943D01*
X3294533Y2081870D01*
X3294489Y2081823D01*
X3294449Y2081794D01*
X3268576Y2055921D01*
X3265626Y2052971D01*
X266046Y2052971D01*
X265960Y2052959D01*
X265872Y2052956D01*
X265820Y2052939D01*
X265765Y2052931D01*
X265685Y2052896D01*
X265602Y2052869D01*
X265563Y2052841D01*
X265505Y2052815D01*
X265392Y2052719D01*
X265328Y2052674D01*
X99456Y1886801D01*
X99438Y1886778D01*
X99416Y1886759D01*
X99415Y1886758D01*
X99414Y1886757D01*
X99406Y1886744D01*
X99353Y1886665D01*
X99285Y1886574D01*
X99275Y1886547D01*
X99258Y1886522D01*
X99249Y1886493D01*
X99236Y1886472D01*
X98380Y1884406D01*
X96844Y1882870D01*
X94836Y1882038D01*
X92664Y1882038D01*
G37*
%LPD*%
%LPC*%
G36*
X638776Y91038D02*
X638776Y91038D01*
X636768Y91870D01*
X635232Y93406D01*
X634400Y95414D01*
X634400Y97586D01*
X635232Y99594D01*
X636768Y101130D01*
X638776Y101962D01*
X640949Y101962D01*
X643014Y101106D01*
X643044Y101098D01*
X643072Y101084D01*
X643149Y101071D01*
X643290Y101035D01*
X643354Y101037D01*
X643403Y101029D01*
X1225454Y101029D01*
X1225540Y101041D01*
X1225628Y101044D01*
X1225680Y101061D01*
X1225735Y101069D01*
X1225815Y101104D01*
X1225898Y101131D01*
X1225937Y101159D01*
X1225995Y101185D01*
X1226108Y101281D01*
X1226171Y101326D01*
X1416874Y292029D01*
X3390209Y292029D01*
X3390240Y292033D01*
X3390271Y292031D01*
X3390347Y292048D01*
X3390491Y292069D01*
X3390549Y292095D01*
X3390598Y292106D01*
X3392664Y292962D01*
X3394836Y292962D01*
X3396844Y292130D01*
X3398380Y290594D01*
X3399212Y288586D01*
X3399212Y286414D01*
X3398380Y284406D01*
X3396844Y282870D01*
X3394836Y282038D01*
X3392664Y282038D01*
X3390598Y282894D01*
X3390568Y282902D01*
X3390540Y282916D01*
X3390463Y282929D01*
X3390322Y282965D01*
X3390258Y282963D01*
X3390209Y282971D01*
X1421046Y282971D01*
X1420960Y282959D01*
X1420872Y282956D01*
X1420820Y282939D01*
X1420765Y282931D01*
X1420685Y282896D01*
X1420602Y282869D01*
X1420563Y282841D01*
X1420505Y282815D01*
X1420392Y282719D01*
X1420329Y282674D01*
X1229626Y91971D01*
X643403Y91971D01*
X643372Y91967D01*
X643342Y91969D01*
X643265Y91952D01*
X643121Y91931D01*
X643063Y91905D01*
X643014Y91894D01*
X640949Y91038D01*
X638776Y91038D01*
G37*
%LPD*%
%LPC*%
G36*
X303842Y102205D02*
X303842Y102205D01*
X301908Y104140D01*
X266807Y139241D01*
X266737Y139293D01*
X266673Y139353D01*
X266624Y139379D01*
X266580Y139412D01*
X266498Y139443D01*
X266420Y139483D01*
X266372Y139491D01*
X266314Y139513D01*
X266166Y139525D01*
X266089Y139538D01*
X263914Y139538D01*
X261906Y140370D01*
X260368Y141908D01*
X260298Y141960D01*
X260234Y142020D01*
X260185Y142046D01*
X260141Y142079D01*
X260059Y142110D01*
X259981Y142150D01*
X259934Y142158D01*
X259875Y142180D01*
X259727Y142192D01*
X259650Y142205D01*
X177342Y142205D01*
X169343Y150204D01*
X169273Y150257D01*
X169210Y150317D01*
X169160Y150342D01*
X169116Y150375D01*
X169034Y150406D01*
X168956Y150446D01*
X168909Y150454D01*
X168850Y150477D01*
X168703Y150489D01*
X168625Y150502D01*
X166450Y150502D01*
X164443Y151333D01*
X162906Y152870D01*
X162075Y154877D01*
X162075Y157052D01*
X162063Y157139D01*
X162060Y157226D01*
X162043Y157279D01*
X162035Y157334D01*
X161999Y157414D01*
X161972Y157497D01*
X161944Y157536D01*
X161919Y157593D01*
X161823Y157707D01*
X161777Y157770D01*
X114513Y205035D01*
X114488Y205053D01*
X114468Y205077D01*
X114401Y205119D01*
X114286Y205206D01*
X114225Y205229D01*
X114183Y205255D01*
X113906Y205370D01*
X112370Y206906D01*
X111538Y208914D01*
X111538Y211086D01*
X112370Y213094D01*
X113906Y214630D01*
X115914Y215462D01*
X118086Y215462D01*
X120094Y214630D01*
X121630Y213094D01*
X122462Y211086D01*
X122462Y208914D01*
X121572Y206766D01*
X121572Y206765D01*
X121571Y206763D01*
X121537Y206629D01*
X121501Y206491D01*
X121501Y206489D01*
X121501Y206488D01*
X121506Y206347D01*
X121510Y206207D01*
X121510Y206205D01*
X121510Y206204D01*
X121553Y206071D01*
X121596Y205936D01*
X121597Y205935D01*
X121598Y205933D01*
X121606Y205921D01*
X121754Y205700D01*
X121778Y205680D01*
X121792Y205660D01*
X165730Y161723D01*
X165800Y161670D01*
X165863Y161610D01*
X165913Y161585D01*
X165957Y161552D01*
X166039Y161521D01*
X166117Y161481D01*
X166164Y161473D01*
X166223Y161450D01*
X166370Y161438D01*
X166448Y161425D01*
X168623Y161425D01*
X170630Y160594D01*
X172167Y159057D01*
X172998Y157050D01*
X172998Y154875D01*
X173010Y154788D01*
X173013Y154701D01*
X173030Y154648D01*
X173038Y154593D01*
X173074Y154513D01*
X173101Y154430D01*
X173129Y154391D01*
X173154Y154334D01*
X173250Y154220D01*
X173296Y154157D01*
X179360Y148092D01*
X179430Y148040D01*
X179494Y147980D01*
X179543Y147954D01*
X179587Y147921D01*
X179669Y147890D01*
X179747Y147850D01*
X179795Y147842D01*
X179853Y147820D01*
X180001Y147808D01*
X180078Y147795D01*
X259650Y147795D01*
X259737Y147807D01*
X259824Y147810D01*
X259877Y147827D01*
X259932Y147835D01*
X260011Y147870D01*
X260095Y147897D01*
X260134Y147925D01*
X260191Y147951D01*
X260304Y148047D01*
X260368Y148092D01*
X261906Y149630D01*
X263914Y150462D01*
X266086Y150462D01*
X268094Y149630D01*
X269630Y148094D01*
X270462Y146086D01*
X270462Y143911D01*
X270470Y143854D01*
X270468Y143798D01*
X270476Y143770D01*
X270477Y143737D01*
X270494Y143684D01*
X270502Y143630D01*
X270528Y143572D01*
X270540Y143523D01*
X270553Y143502D01*
X270564Y143467D01*
X270592Y143427D01*
X270618Y143370D01*
X270662Y143318D01*
X270685Y143279D01*
X270724Y143243D01*
X270759Y143193D01*
X305860Y108092D01*
X305930Y108040D01*
X305994Y107980D01*
X306043Y107954D01*
X306087Y107921D01*
X306169Y107890D01*
X306247Y107850D01*
X306295Y107842D01*
X306353Y107820D01*
X306501Y107808D01*
X306578Y107795D01*
X468422Y107795D01*
X468508Y107807D01*
X468596Y107810D01*
X468649Y107827D01*
X468703Y107835D01*
X468783Y107870D01*
X468866Y107897D01*
X468906Y107925D01*
X468963Y107951D01*
X469076Y108047D01*
X469140Y108092D01*
X486908Y125860D01*
X486960Y125930D01*
X487020Y125994D01*
X487046Y126043D01*
X487079Y126087D01*
X487110Y126169D01*
X487150Y126247D01*
X487158Y126295D01*
X487180Y126353D01*
X487191Y126487D01*
X487191Y126489D01*
X487192Y126501D01*
X487205Y126578D01*
X487205Y144650D01*
X487193Y144737D01*
X487190Y144824D01*
X487173Y144877D01*
X487165Y144932D01*
X487130Y145011D01*
X487103Y145095D01*
X487075Y145134D01*
X487049Y145191D01*
X486953Y145304D01*
X486908Y145368D01*
X485370Y146906D01*
X484538Y148914D01*
X484538Y151086D01*
X485370Y153094D01*
X486906Y154630D01*
X488914Y155462D01*
X491086Y155462D01*
X493094Y154630D01*
X494630Y153094D01*
X495462Y151086D01*
X495462Y148914D01*
X494630Y146906D01*
X493092Y145368D01*
X493040Y145298D01*
X492980Y145234D01*
X492954Y145185D01*
X492921Y145141D01*
X492890Y145059D01*
X492850Y144981D01*
X492842Y144934D01*
X492820Y144875D01*
X492808Y144727D01*
X492795Y144650D01*
X492795Y123842D01*
X471158Y102205D01*
X303842Y102205D01*
G37*
%LPD*%
%LPC*%
G36*
X389374Y165471D02*
X389374Y165471D01*
X386721Y168124D01*
X386721Y227704D01*
X386709Y227790D01*
X386706Y227878D01*
X386689Y227930D01*
X386681Y227985D01*
X386646Y228065D01*
X386619Y228148D01*
X386591Y228187D01*
X386565Y228245D01*
X386469Y228358D01*
X386424Y228421D01*
X365551Y249294D01*
X365527Y249313D01*
X365507Y249336D01*
X365440Y249378D01*
X365324Y249465D01*
X365264Y249488D01*
X365222Y249514D01*
X363156Y250370D01*
X361620Y251906D01*
X360788Y253914D01*
X360788Y256086D01*
X361620Y258094D01*
X363156Y259630D01*
X365164Y260462D01*
X367336Y260462D01*
X369344Y259630D01*
X370880Y258094D01*
X371736Y256028D01*
X371752Y256001D01*
X371761Y255972D01*
X371807Y255908D01*
X371880Y255783D01*
X371927Y255739D01*
X371956Y255699D01*
X392829Y234826D01*
X395779Y231876D01*
X395779Y175544D01*
X395787Y175486D01*
X395785Y175428D01*
X395807Y175346D01*
X395819Y175262D01*
X395842Y175209D01*
X395857Y175153D01*
X395900Y175080D01*
X395935Y175003D01*
X395973Y174958D01*
X396002Y174908D01*
X396064Y174850D01*
X396118Y174786D01*
X396167Y174754D01*
X396210Y174714D01*
X396285Y174675D01*
X396355Y174628D01*
X396411Y174611D01*
X396463Y174584D01*
X396531Y174573D01*
X396626Y174543D01*
X396726Y174540D01*
X396794Y174529D01*
X416704Y174529D01*
X416790Y174541D01*
X416878Y174544D01*
X416930Y174561D01*
X416985Y174569D01*
X417065Y174604D01*
X417148Y174631D01*
X417187Y174659D01*
X417245Y174685D01*
X417358Y174781D01*
X417421Y174826D01*
X420674Y178079D01*
X420726Y178148D01*
X420786Y178212D01*
X420812Y178262D01*
X420845Y178306D01*
X420876Y178387D01*
X420916Y178465D01*
X420924Y178513D01*
X420946Y178571D01*
X420958Y178719D01*
X420971Y178796D01*
X420971Y243626D01*
X427374Y250029D01*
X494709Y250029D01*
X494740Y250033D01*
X494771Y250031D01*
X494847Y250048D01*
X494991Y250069D01*
X495049Y250095D01*
X495098Y250106D01*
X497164Y250962D01*
X499336Y250962D01*
X501344Y250130D01*
X502880Y248594D01*
X503712Y246586D01*
X503712Y244414D01*
X502880Y242406D01*
X501344Y240870D01*
X499336Y240038D01*
X497164Y240038D01*
X495098Y240894D01*
X495068Y240902D01*
X495040Y240916D01*
X494963Y240929D01*
X494822Y240965D01*
X494758Y240963D01*
X494709Y240971D01*
X431546Y240971D01*
X431460Y240959D01*
X431372Y240956D01*
X431320Y240939D01*
X431265Y240931D01*
X431185Y240896D01*
X431102Y240869D01*
X431063Y240841D01*
X431005Y240815D01*
X430892Y240719D01*
X430829Y240674D01*
X430326Y240171D01*
X430274Y240102D01*
X430214Y240038D01*
X430188Y239988D01*
X430155Y239944D01*
X430124Y239863D01*
X430084Y239785D01*
X430076Y239737D01*
X430054Y239679D01*
X430042Y239531D01*
X430029Y239454D01*
X430029Y174624D01*
X420876Y165471D01*
X389374Y165471D01*
G37*
%LPD*%
%LPC*%
G36*
X360714Y51688D02*
X360714Y51688D01*
X358706Y52520D01*
X357168Y54058D01*
X357098Y54110D01*
X357034Y54170D01*
X356985Y54196D01*
X356941Y54229D01*
X356859Y54260D01*
X356781Y54300D01*
X356734Y54308D01*
X356675Y54330D01*
X356527Y54342D01*
X356450Y54355D01*
X265692Y54355D01*
X263758Y56290D01*
X241640Y78408D01*
X241570Y78460D01*
X241506Y78520D01*
X241457Y78546D01*
X241413Y78579D01*
X241331Y78610D01*
X241253Y78650D01*
X241205Y78658D01*
X241147Y78680D01*
X240999Y78692D01*
X240922Y78705D01*
X217342Y78705D01*
X204140Y91908D01*
X204070Y91960D01*
X204006Y92020D01*
X203957Y92046D01*
X203913Y92079D01*
X203831Y92110D01*
X203753Y92150D01*
X203705Y92158D01*
X203647Y92180D01*
X203499Y92192D01*
X203422Y92205D01*
X195350Y92205D01*
X195263Y92193D01*
X195176Y92190D01*
X195123Y92173D01*
X195068Y92165D01*
X194989Y92130D01*
X194905Y92103D01*
X194866Y92075D01*
X194809Y92049D01*
X194696Y91953D01*
X194632Y91908D01*
X193094Y90370D01*
X191086Y89538D01*
X188914Y89538D01*
X186906Y90370D01*
X185370Y91906D01*
X184538Y93914D01*
X184538Y96086D01*
X185370Y98094D01*
X186906Y99630D01*
X188914Y100462D01*
X189978Y100462D01*
X190036Y100470D01*
X190094Y100468D01*
X190176Y100490D01*
X190259Y100502D01*
X190313Y100525D01*
X190369Y100540D01*
X190441Y100583D01*
X190519Y100618D01*
X190563Y100656D01*
X190613Y100685D01*
X190671Y100747D01*
X190736Y100801D01*
X190768Y100850D01*
X190808Y100893D01*
X190846Y100968D01*
X190893Y101038D01*
X190911Y101094D01*
X190937Y101146D01*
X190949Y101214D01*
X190979Y101309D01*
X190981Y101409D01*
X190993Y101477D01*
X190993Y102563D01*
X191824Y104571D01*
X193361Y106107D01*
X195368Y106939D01*
X197541Y106939D01*
X199549Y106107D01*
X201087Y104569D01*
X201156Y104517D01*
X201220Y104457D01*
X201270Y104431D01*
X201314Y104398D01*
X201395Y104367D01*
X201473Y104327D01*
X201521Y104319D01*
X201579Y104297D01*
X201727Y104285D01*
X201804Y104272D01*
X209681Y104272D01*
X225550Y88402D01*
X225620Y88350D01*
X225684Y88290D01*
X225733Y88264D01*
X225777Y88231D01*
X225859Y88200D01*
X225937Y88160D01*
X225985Y88152D01*
X226043Y88130D01*
X226191Y88118D01*
X226268Y88105D01*
X245848Y88105D01*
X266660Y67292D01*
X266730Y67240D01*
X266794Y67180D01*
X266843Y67154D01*
X266887Y67121D01*
X266969Y67090D01*
X267047Y67050D01*
X267095Y67042D01*
X267153Y67020D01*
X267301Y67008D01*
X267378Y66995D01*
X349050Y66995D01*
X349137Y67007D01*
X349224Y67010D01*
X349277Y67027D01*
X349332Y67035D01*
X349411Y67070D01*
X349495Y67097D01*
X349534Y67125D01*
X349591Y67151D01*
X349704Y67247D01*
X349768Y67292D01*
X351306Y68830D01*
X353314Y69662D01*
X355486Y69662D01*
X357494Y68830D01*
X359030Y67294D01*
X359862Y65286D01*
X359862Y63627D01*
X359870Y63569D01*
X359868Y63511D01*
X359890Y63429D01*
X359902Y63345D01*
X359925Y63292D01*
X359940Y63236D01*
X359983Y63163D01*
X360018Y63086D01*
X360056Y63041D01*
X360085Y62991D01*
X360147Y62933D01*
X360201Y62869D01*
X360250Y62837D01*
X360293Y62797D01*
X360368Y62758D01*
X360438Y62711D01*
X360494Y62694D01*
X360546Y62667D01*
X360614Y62656D01*
X360709Y62626D01*
X360809Y62623D01*
X360877Y62612D01*
X362886Y62612D01*
X364894Y61780D01*
X366430Y60244D01*
X367262Y58236D01*
X367262Y56064D01*
X366430Y54056D01*
X364894Y52520D01*
X362886Y51688D01*
X360714Y51688D01*
G37*
%LPD*%
%LPC*%
G36*
X213394Y13588D02*
X213394Y13588D01*
X211386Y14420D01*
X209850Y15956D01*
X209018Y17964D01*
X209018Y20136D01*
X209255Y20707D01*
X209255Y20708D01*
X209256Y20710D01*
X209289Y20841D01*
X209294Y20861D01*
X209307Y20901D01*
X209307Y20912D01*
X209325Y20982D01*
X209325Y20984D01*
X209326Y20985D01*
X209321Y21125D01*
X209317Y21266D01*
X209317Y21268D01*
X209317Y21269D01*
X209273Y21405D01*
X209231Y21537D01*
X209230Y21538D01*
X209229Y21540D01*
X209220Y21552D01*
X209072Y21773D01*
X209049Y21793D01*
X209034Y21813D01*
X206605Y24242D01*
X206605Y51452D01*
X206593Y51538D01*
X206590Y51626D01*
X206573Y51679D01*
X206565Y51733D01*
X206530Y51813D01*
X206503Y51896D01*
X206475Y51936D01*
X206449Y51993D01*
X206353Y52106D01*
X206308Y52170D01*
X168020Y90458D01*
X168019Y90459D01*
X168018Y90460D01*
X167904Y90545D01*
X167793Y90628D01*
X167791Y90629D01*
X167790Y90630D01*
X167657Y90680D01*
X167527Y90730D01*
X167526Y90730D01*
X167524Y90730D01*
X167380Y90742D01*
X167244Y90753D01*
X167242Y90753D01*
X167241Y90753D01*
X167225Y90750D01*
X166965Y90697D01*
X166938Y90683D01*
X166914Y90678D01*
X164766Y89788D01*
X162594Y89788D01*
X160586Y90620D01*
X159050Y92156D01*
X158218Y94164D01*
X158218Y96336D01*
X159050Y98344D01*
X160586Y99880D01*
X162594Y100712D01*
X164766Y100712D01*
X166774Y99880D01*
X168310Y98344D01*
X168425Y98067D01*
X168441Y98040D01*
X168450Y98011D01*
X168496Y97947D01*
X168570Y97822D01*
X168616Y97777D01*
X168645Y97737D01*
X210260Y56122D01*
X212195Y54188D01*
X212195Y26978D01*
X212207Y26892D01*
X212210Y26804D01*
X212227Y26751D01*
X212235Y26697D01*
X212270Y26617D01*
X212297Y26534D01*
X212325Y26494D01*
X212351Y26437D01*
X212447Y26324D01*
X212492Y26260D01*
X213943Y24809D01*
X214013Y24757D01*
X214077Y24697D01*
X214126Y24671D01*
X214170Y24638D01*
X214252Y24607D01*
X214330Y24567D01*
X214378Y24559D01*
X214436Y24537D01*
X214584Y24525D01*
X214661Y24512D01*
X215569Y24512D01*
X215655Y24524D01*
X215743Y24527D01*
X215796Y24544D01*
X215850Y24552D01*
X215930Y24587D01*
X216013Y24614D01*
X216053Y24642D01*
X216110Y24668D01*
X216223Y24764D01*
X216287Y24809D01*
X222383Y30905D01*
X222400Y30929D01*
X222423Y30948D01*
X222486Y31042D01*
X222554Y31132D01*
X222564Y31160D01*
X222580Y31184D01*
X222615Y31292D01*
X222655Y31398D01*
X222657Y31427D01*
X222666Y31455D01*
X222669Y31569D01*
X222678Y31681D01*
X222673Y31710D01*
X222673Y31739D01*
X222645Y31849D01*
X222623Y31960D01*
X222609Y31986D01*
X222602Y32014D01*
X222544Y32112D01*
X222492Y32212D01*
X222471Y32234D01*
X222456Y32259D01*
X222374Y32336D01*
X222296Y32418D01*
X222270Y32433D01*
X222249Y32453D01*
X222148Y32505D01*
X222051Y32562D01*
X222022Y32569D01*
X221996Y32583D01*
X221919Y32596D01*
X221775Y32632D01*
X221713Y32630D01*
X221665Y32638D01*
X219744Y32638D01*
X217736Y33470D01*
X216200Y35006D01*
X215368Y37014D01*
X215368Y39186D01*
X216200Y41194D01*
X217738Y42732D01*
X217790Y42802D01*
X217850Y42866D01*
X217876Y42915D01*
X217909Y42959D01*
X217940Y43041D01*
X217980Y43119D01*
X217988Y43166D01*
X218010Y43225D01*
X218022Y43373D01*
X218035Y43450D01*
X218035Y55152D01*
X218023Y55238D01*
X218020Y55326D01*
X218003Y55379D01*
X217995Y55433D01*
X217960Y55513D01*
X217933Y55596D01*
X217905Y55636D01*
X217879Y55693D01*
X217783Y55806D01*
X217738Y55870D01*
X209517Y64091D01*
X209447Y64143D01*
X209383Y64203D01*
X209334Y64229D01*
X209290Y64262D01*
X209208Y64293D01*
X209130Y64333D01*
X209082Y64341D01*
X209024Y64363D01*
X208876Y64375D01*
X208799Y64388D01*
X206624Y64388D01*
X204616Y65220D01*
X203080Y66756D01*
X202248Y68764D01*
X202248Y70936D01*
X203080Y72944D01*
X204616Y74480D01*
X206624Y75312D01*
X208796Y75312D01*
X210804Y74480D01*
X212340Y72944D01*
X213172Y70936D01*
X213172Y68761D01*
X213179Y68707D01*
X213178Y68670D01*
X213185Y68645D01*
X213187Y68587D01*
X213204Y68534D01*
X213212Y68480D01*
X213247Y68400D01*
X213274Y68317D01*
X213302Y68277D01*
X213328Y68220D01*
X213424Y68107D01*
X213469Y68043D01*
X223625Y57888D01*
X223625Y43450D01*
X223637Y43363D01*
X223640Y43276D01*
X223657Y43223D01*
X223665Y43168D01*
X223700Y43089D01*
X223727Y43005D01*
X223755Y42966D01*
X223781Y42909D01*
X223877Y42796D01*
X223883Y42787D01*
X223894Y42769D01*
X223900Y42763D01*
X223922Y42732D01*
X225460Y41194D01*
X226292Y39186D01*
X226292Y37265D01*
X226296Y37236D01*
X226293Y37207D01*
X226316Y37096D01*
X226332Y36984D01*
X226344Y36957D01*
X226349Y36928D01*
X226401Y36828D01*
X226448Y36724D01*
X226467Y36702D01*
X226480Y36676D01*
X226558Y36594D01*
X226631Y36507D01*
X226656Y36491D01*
X226676Y36470D01*
X226774Y36412D01*
X226868Y36350D01*
X226896Y36341D01*
X226921Y36326D01*
X227031Y36298D01*
X227139Y36264D01*
X227169Y36263D01*
X227197Y36256D01*
X227310Y36259D01*
X227423Y36257D01*
X227452Y36264D01*
X227481Y36265D01*
X227589Y36300D01*
X227698Y36328D01*
X227724Y36343D01*
X227752Y36352D01*
X227815Y36398D01*
X227943Y36474D01*
X227986Y36519D01*
X228025Y36547D01*
X244563Y53085D01*
X244615Y53155D01*
X244675Y53219D01*
X244700Y53268D01*
X244734Y53312D01*
X244765Y53394D01*
X244805Y53472D01*
X244813Y53520D01*
X244835Y53578D01*
X244847Y53726D01*
X244860Y53803D01*
X244860Y54144D01*
X245692Y56152D01*
X247228Y57688D01*
X249236Y58520D01*
X251408Y58520D01*
X253416Y57688D01*
X254952Y56152D01*
X255784Y54144D01*
X255784Y51972D01*
X254952Y49964D01*
X253416Y48428D01*
X251408Y47596D01*
X249236Y47596D01*
X248266Y47998D01*
X248265Y47998D01*
X248264Y47999D01*
X248130Y48033D01*
X247991Y48069D01*
X247990Y48069D01*
X247988Y48069D01*
X247847Y48065D01*
X247707Y48061D01*
X247705Y48060D01*
X247704Y48060D01*
X247571Y48017D01*
X247436Y47974D01*
X247435Y47973D01*
X247433Y47973D01*
X247421Y47964D01*
X247200Y47816D01*
X247180Y47792D01*
X247160Y47778D01*
X220239Y20857D01*
X220187Y20787D01*
X220127Y20723D01*
X220101Y20674D01*
X220068Y20630D01*
X220037Y20548D01*
X219997Y20470D01*
X219989Y20422D01*
X219967Y20364D01*
X219955Y20216D01*
X219942Y20139D01*
X219942Y17964D01*
X219110Y15956D01*
X217574Y14420D01*
X215566Y13588D01*
X213394Y13588D01*
G37*
%LPD*%
%LPC*%
G36*
X1926086Y2080321D02*
X1926086Y2080321D01*
X1918853Y2083317D01*
X1913317Y2088853D01*
X1910321Y2096086D01*
X1910321Y2103914D01*
X1913317Y2111147D01*
X1918853Y2116683D01*
X1926086Y2119679D01*
X1933914Y2119679D01*
X1941147Y2116683D01*
X1946683Y2111147D01*
X1949679Y2103914D01*
X1949679Y2096086D01*
X1946683Y2088853D01*
X1941147Y2083317D01*
X1933914Y2080321D01*
X1926086Y2080321D01*
G37*
%LPD*%
%LPC*%
G36*
X3426086Y2080321D02*
X3426086Y2080321D01*
X3418853Y2083317D01*
X3413317Y2088853D01*
X3410321Y2096086D01*
X3410321Y2103914D01*
X3413317Y2111147D01*
X3418853Y2116683D01*
X3426086Y2119679D01*
X3433914Y2119679D01*
X3441147Y2116683D01*
X3446683Y2111147D01*
X3449679Y2103914D01*
X3449679Y2096086D01*
X3446683Y2088853D01*
X3441147Y2083317D01*
X3433914Y2080321D01*
X3426086Y2080321D01*
G37*
%LPD*%
%LPC*%
G36*
X71086Y55321D02*
X71086Y55321D01*
X63853Y58317D01*
X58317Y63853D01*
X55321Y71086D01*
X55321Y78914D01*
X58317Y86147D01*
X63853Y91683D01*
X71086Y94679D01*
X78914Y94679D01*
X86147Y91683D01*
X91683Y86147D01*
X94679Y78914D01*
X94679Y71086D01*
X91683Y63853D01*
X86147Y58317D01*
X78914Y55321D01*
X71086Y55321D01*
G37*
%LPD*%
%LPC*%
G36*
X71086Y2080321D02*
X71086Y2080321D01*
X63853Y2083317D01*
X58317Y2088853D01*
X55321Y2096086D01*
X55321Y2103914D01*
X58317Y2111147D01*
X63853Y2116683D01*
X71086Y2119679D01*
X78914Y2119679D01*
X86147Y2116683D01*
X91683Y2111147D01*
X94679Y2103914D01*
X94679Y2096086D01*
X91683Y2088853D01*
X86147Y2083317D01*
X78914Y2080321D01*
X71086Y2080321D01*
G37*
%LPD*%
%LPC*%
G36*
X1571086Y55321D02*
X1571086Y55321D01*
X1563853Y58317D01*
X1558317Y63853D01*
X1555321Y71086D01*
X1555321Y78914D01*
X1558317Y86147D01*
X1563853Y91683D01*
X1571086Y94679D01*
X1578914Y94679D01*
X1586147Y91683D01*
X1591683Y86147D01*
X1594679Y78914D01*
X1594679Y71086D01*
X1591683Y63853D01*
X1586147Y58317D01*
X1578914Y55321D01*
X1571086Y55321D01*
G37*
%LPD*%
%LPC*%
G36*
X307214Y134111D02*
X307214Y134111D01*
X305206Y134943D01*
X303670Y136479D01*
X302838Y138487D01*
X302838Y140659D01*
X303670Y142667D01*
X305206Y144203D01*
X307214Y145035D01*
X309386Y145035D01*
X311394Y144203D01*
X312932Y142665D01*
X313002Y142613D01*
X313066Y142553D01*
X313115Y142527D01*
X313159Y142494D01*
X313241Y142463D01*
X313319Y142423D01*
X313366Y142415D01*
X313425Y142393D01*
X313573Y142381D01*
X313650Y142368D01*
X445058Y142368D01*
X445144Y142380D01*
X445232Y142383D01*
X445285Y142400D01*
X445339Y142408D01*
X445419Y142443D01*
X445502Y142470D01*
X445542Y142498D01*
X445599Y142524D01*
X445712Y142620D01*
X445776Y142665D01*
X471611Y168500D01*
X471663Y168570D01*
X471723Y168634D01*
X471749Y168683D01*
X471782Y168727D01*
X471813Y168809D01*
X471853Y168887D01*
X471861Y168935D01*
X471883Y168993D01*
X471894Y169128D01*
X471894Y169129D01*
X471895Y169141D01*
X471908Y169218D01*
X471908Y171393D01*
X472740Y173401D01*
X474276Y174937D01*
X476284Y175769D01*
X478456Y175769D01*
X480464Y174937D01*
X482000Y173401D01*
X482832Y171393D01*
X482832Y169221D01*
X482000Y167213D01*
X480464Y165677D01*
X478456Y164845D01*
X476281Y164845D01*
X476195Y164833D01*
X476107Y164830D01*
X476054Y164813D01*
X476000Y164805D01*
X475920Y164770D01*
X475837Y164743D01*
X475797Y164715D01*
X475740Y164689D01*
X475627Y164593D01*
X475563Y164548D01*
X447794Y136778D01*
X313650Y136778D01*
X313563Y136766D01*
X313476Y136763D01*
X313423Y136746D01*
X313368Y136738D01*
X313289Y136703D01*
X313205Y136676D01*
X313166Y136648D01*
X313109Y136622D01*
X312996Y136526D01*
X312932Y136481D01*
X311394Y134943D01*
X309386Y134111D01*
X307214Y134111D01*
G37*
%LPD*%
%LPC*%
G36*
X132042Y9905D02*
X132042Y9905D01*
X127985Y13962D01*
X127985Y22630D01*
X127973Y22717D01*
X127970Y22804D01*
X127953Y22857D01*
X127945Y22912D01*
X127910Y22991D01*
X127883Y23075D01*
X127855Y23114D01*
X127829Y23171D01*
X127733Y23284D01*
X127688Y23348D01*
X126150Y24886D01*
X125318Y26894D01*
X125318Y29066D01*
X126150Y31074D01*
X127686Y32610D01*
X129694Y33442D01*
X131866Y33442D01*
X133874Y32610D01*
X135410Y31074D01*
X136242Y29066D01*
X136242Y26894D01*
X135410Y24886D01*
X133872Y23348D01*
X133820Y23278D01*
X133760Y23214D01*
X133734Y23165D01*
X133701Y23121D01*
X133670Y23039D01*
X133630Y22961D01*
X133622Y22914D01*
X133600Y22855D01*
X133588Y22707D01*
X133575Y22630D01*
X133575Y16698D01*
X133587Y16612D01*
X133590Y16524D01*
X133607Y16471D01*
X133615Y16417D01*
X133650Y16337D01*
X133677Y16254D01*
X133705Y16214D01*
X133731Y16157D01*
X133827Y16044D01*
X133872Y15980D01*
X134060Y15792D01*
X134130Y15740D01*
X134194Y15680D01*
X134243Y15654D01*
X134287Y15621D01*
X134369Y15590D01*
X134447Y15550D01*
X134495Y15542D01*
X134553Y15520D01*
X134701Y15508D01*
X134778Y15495D01*
X182422Y15495D01*
X182508Y15507D01*
X182596Y15510D01*
X182649Y15527D01*
X182703Y15535D01*
X182783Y15570D01*
X182866Y15597D01*
X182906Y15625D01*
X182963Y15651D01*
X183076Y15747D01*
X183140Y15792D01*
X193608Y26260D01*
X193660Y26330D01*
X193720Y26394D01*
X193746Y26443D01*
X193779Y26487D01*
X193810Y26569D01*
X193850Y26647D01*
X193858Y26695D01*
X193880Y26753D01*
X193892Y26901D01*
X193905Y26978D01*
X193905Y32750D01*
X193893Y32837D01*
X193890Y32924D01*
X193873Y32977D01*
X193865Y33032D01*
X193830Y33111D01*
X193803Y33195D01*
X193775Y33234D01*
X193749Y33291D01*
X193653Y33404D01*
X193608Y33468D01*
X192070Y35006D01*
X191238Y37014D01*
X191238Y39186D01*
X192070Y41194D01*
X193606Y42730D01*
X195614Y43562D01*
X197786Y43562D01*
X199794Y42730D01*
X201330Y41194D01*
X202162Y39186D01*
X202162Y37014D01*
X201330Y35006D01*
X199792Y33468D01*
X199740Y33398D01*
X199680Y33334D01*
X199654Y33285D01*
X199621Y33241D01*
X199590Y33159D01*
X199550Y33081D01*
X199542Y33034D01*
X199520Y32975D01*
X199508Y32827D01*
X199495Y32750D01*
X199495Y24242D01*
X185158Y9905D01*
X132042Y9905D01*
G37*
%LPD*%
%LPC*%
G36*
X190664Y407538D02*
X190664Y407538D01*
X188598Y408394D01*
X188568Y408402D01*
X188540Y408416D01*
X188463Y408429D01*
X188322Y408465D01*
X188258Y408463D01*
X188209Y408471D01*
X182874Y408471D01*
X179924Y411421D01*
X168551Y422794D01*
X168527Y422813D01*
X168507Y422836D01*
X168440Y422878D01*
X168324Y422965D01*
X168264Y422988D01*
X168222Y423014D01*
X166156Y423870D01*
X164620Y425406D01*
X163788Y427414D01*
X163788Y429586D01*
X164620Y431594D01*
X166156Y433130D01*
X168164Y433962D01*
X170336Y433962D01*
X172344Y433130D01*
X173880Y431594D01*
X174736Y429528D01*
X174752Y429501D01*
X174761Y429472D01*
X174807Y429408D01*
X174880Y429283D01*
X174927Y429239D01*
X174956Y429199D01*
X186329Y417826D01*
X186398Y417774D01*
X186462Y417714D01*
X186512Y417688D01*
X186556Y417655D01*
X186637Y417624D01*
X186715Y417584D01*
X186763Y417576D01*
X186821Y417554D01*
X186969Y417542D01*
X187046Y417529D01*
X188209Y417529D01*
X188240Y417533D01*
X188271Y417531D01*
X188347Y417548D01*
X188491Y417569D01*
X188549Y417595D01*
X188598Y417606D01*
X190664Y418462D01*
X192836Y418462D01*
X194844Y417630D01*
X196380Y416094D01*
X197212Y414086D01*
X197212Y411914D01*
X196380Y409906D01*
X194844Y408370D01*
X192836Y407538D01*
X190664Y407538D01*
G37*
%LPD*%
%LPC*%
G36*
X3534952Y424451D02*
X3534952Y424451D01*
X3532460Y425483D01*
X3530553Y427390D01*
X3529521Y429882D01*
X3529521Y432578D01*
X3530553Y435070D01*
X3532460Y436977D01*
X3534952Y438009D01*
X3548648Y438009D01*
X3551140Y436977D01*
X3553047Y435070D01*
X3554079Y432578D01*
X3554079Y429882D01*
X3553047Y427390D01*
X3551140Y425483D01*
X3548648Y424451D01*
X3534952Y424451D01*
G37*
%LPD*%
%LPC*%
G36*
X3579252Y424451D02*
X3579252Y424451D01*
X3576760Y425483D01*
X3574853Y427390D01*
X3573821Y429882D01*
X3573821Y432578D01*
X3574853Y435070D01*
X3576760Y436977D01*
X3579252Y438009D01*
X3587948Y438009D01*
X3590440Y436977D01*
X3592347Y435070D01*
X3593379Y432578D01*
X3593379Y429882D01*
X3592347Y427390D01*
X3590440Y425483D01*
X3587948Y424451D01*
X3579252Y424451D01*
G37*
%LPD*%
%LPC*%
G36*
X3519483Y464991D02*
X3519483Y464991D01*
X3517475Y465823D01*
X3515939Y467359D01*
X3515107Y469367D01*
X3515107Y471539D01*
X3515939Y473547D01*
X3517477Y475085D01*
X3517529Y475155D01*
X3517589Y475219D01*
X3517615Y475268D01*
X3517648Y475312D01*
X3517679Y475394D01*
X3517719Y475472D01*
X3517727Y475519D01*
X3517749Y475578D01*
X3517761Y475726D01*
X3517774Y475803D01*
X3517774Y480103D01*
X3517762Y480190D01*
X3517759Y480277D01*
X3517742Y480330D01*
X3517734Y480385D01*
X3517699Y480464D01*
X3517672Y480548D01*
X3517644Y480587D01*
X3517618Y480644D01*
X3517522Y480757D01*
X3517477Y480821D01*
X3515939Y482359D01*
X3515107Y484367D01*
X3515107Y486539D01*
X3515939Y488547D01*
X3517475Y490083D01*
X3519483Y490915D01*
X3521655Y490915D01*
X3523663Y490083D01*
X3525199Y488547D01*
X3526031Y486539D01*
X3526031Y484367D01*
X3525199Y482359D01*
X3523661Y480821D01*
X3523609Y480751D01*
X3523549Y480687D01*
X3523523Y480638D01*
X3523490Y480594D01*
X3523459Y480512D01*
X3523419Y480434D01*
X3523411Y480387D01*
X3523389Y480328D01*
X3523377Y480180D01*
X3523364Y480103D01*
X3523364Y475803D01*
X3523376Y475716D01*
X3523379Y475629D01*
X3523396Y475576D01*
X3523404Y475521D01*
X3523439Y475442D01*
X3523466Y475358D01*
X3523494Y475319D01*
X3523520Y475262D01*
X3523616Y475149D01*
X3523661Y475085D01*
X3525199Y473547D01*
X3526031Y471539D01*
X3526031Y469367D01*
X3525199Y467359D01*
X3523663Y465823D01*
X3521655Y464991D01*
X3519483Y464991D01*
G37*
%LPD*%
%LPC*%
G36*
X3514953Y278221D02*
X3514953Y278221D01*
X3512094Y279406D01*
X3509906Y281594D01*
X3508721Y284453D01*
X3508721Y287547D01*
X3509906Y290406D01*
X3512094Y292594D01*
X3514953Y293779D01*
X3518047Y293779D01*
X3520906Y292594D01*
X3523094Y290406D01*
X3524279Y287547D01*
X3524279Y284453D01*
X3523094Y281594D01*
X3520906Y279406D01*
X3518047Y278221D01*
X3514953Y278221D01*
G37*
%LPD*%
%LPC*%
G36*
X3584953Y278221D02*
X3584953Y278221D01*
X3582094Y279406D01*
X3579906Y281594D01*
X3578721Y284453D01*
X3578721Y287547D01*
X3579906Y290406D01*
X3582094Y292594D01*
X3584953Y293779D01*
X3588047Y293779D01*
X3590906Y292594D01*
X3593094Y290406D01*
X3594279Y287547D01*
X3594279Y284453D01*
X3593094Y281594D01*
X3590906Y279406D01*
X3588047Y278221D01*
X3584953Y278221D01*
G37*
%LPD*%
%LPC*%
G36*
X235051Y93721D02*
X235051Y93721D01*
X232743Y94677D01*
X230977Y96443D01*
X230021Y98751D01*
X230021Y101249D01*
X230977Y103557D01*
X232743Y105323D01*
X235051Y106279D01*
X237549Y106279D01*
X239857Y105323D01*
X241623Y103557D01*
X242579Y101249D01*
X242579Y98751D01*
X241623Y96443D01*
X239857Y94677D01*
X237549Y93721D01*
X235051Y93721D01*
G37*
%LPD*%
%LPC*%
G36*
X3545017Y498301D02*
X3545017Y498301D01*
X3542071Y501247D01*
X3542071Y505413D01*
X3545017Y508359D01*
X3549183Y508359D01*
X3552129Y505413D01*
X3552129Y501247D01*
X3549183Y498301D01*
X3545017Y498301D01*
G37*
%LPD*%
%LPC*%
G36*
X3545017Y440501D02*
X3545017Y440501D01*
X3542071Y443447D01*
X3542071Y447613D01*
X3545017Y450559D01*
X3549183Y450559D01*
X3552129Y447613D01*
X3552129Y443447D01*
X3549183Y440501D01*
X3545017Y440501D01*
G37*
%LPD*%
D10*
X3590562Y486114D02*
X3597674Y483743D01*
X3590562Y481373D01*
X3589377Y476420D02*
X3587006Y473456D01*
X3597674Y473456D01*
X3597674Y470493D02*
X3597674Y476420D01*
X3589377Y464990D02*
X3587006Y462026D01*
X3597674Y462026D01*
X3597674Y459063D02*
X3597674Y464990D01*
D11*
X3547300Y431230D02*
X3536300Y431230D01*
X3536300Y517630D02*
X3547300Y517630D01*
X3580600Y431230D02*
X3586600Y431230D01*
X3586600Y517630D02*
X3580600Y517630D01*
D12*
X196700Y38100D03*
D10*
X196700Y25400D02*
X184000Y12700D01*
X133200Y12700D01*
X196700Y25400D02*
X196700Y38100D01*
X133200Y12700D02*
X130780Y15120D01*
X130780Y27980D01*
D12*
X130780Y27980D03*
X117000Y210000D03*
D10*
X117000Y206500D01*
X167537Y155964D01*
D12*
X167537Y155964D03*
D10*
X178500Y145000D01*
X265000Y145000D01*
D12*
X265000Y145000D03*
D10*
X305000Y105000D01*
X490000Y125000D02*
X490000Y150000D01*
D12*
X490000Y150000D03*
D10*
X470000Y105000D02*
X305000Y105000D01*
X470000Y105000D02*
X490000Y125000D01*
D12*
X3436000Y369000D03*
X3255000Y10000D03*
D10*
X3436000Y191000D02*
X3436000Y369000D01*
X3436000Y191000D02*
X3255000Y10000D01*
D12*
X308300Y139573D03*
D10*
X446636Y139573D01*
X477370Y170307D01*
D12*
X477370Y170307D03*
X114160Y164130D03*
X128310Y216780D03*
X293220Y71350D03*
X277980Y71120D03*
X377040Y115570D03*
X436500Y150020D03*
X289980Y185360D03*
X113810Y190490D03*
X3510590Y407010D03*
X249000Y112700D03*
X223800Y111300D03*
X189890Y181920D03*
X164100Y144800D03*
X372040Y65570D03*
X372040Y45570D03*
X163800Y71300D03*
X178800Y71300D03*
X178800Y56300D03*
X163800Y56300D03*
X3558590Y341010D03*
X3558590Y381010D03*
X3498590Y341010D03*
X3488590Y291010D03*
X3448590Y251010D03*
X3548590Y301010D03*
X3578590Y341010D03*
X3578590Y381010D03*
X3568590Y351010D03*
X3568590Y371010D03*
X214480Y19050D03*
D10*
X215115Y19685D01*
X248488Y53058D01*
X250322Y53058D01*
D12*
X250322Y53058D03*
X163680Y95250D03*
D10*
X167180Y95250D01*
X209400Y53030D01*
X209400Y25400D01*
X215115Y19685D01*
D12*
X268750Y2032500D03*
X418750Y2032500D03*
X568750Y2032500D03*
X718750Y2032500D03*
X868750Y2032500D03*
X1018750Y2032500D03*
D13*
X1018750Y2027500D01*
D12*
X1168750Y2032500D03*
X1318750Y2032500D03*
X1468750Y2032500D03*
X2068750Y2032500D03*
X2218750Y2032500D03*
X2368750Y2032500D03*
X2518750Y2032500D03*
X2668750Y2032500D03*
X3118750Y1882500D03*
X2968750Y1882500D03*
X2818750Y1882500D03*
X2668750Y1882500D03*
X2518750Y1882500D03*
X2368750Y1882500D03*
X2218750Y1882500D03*
X2068750Y1882500D03*
X1918750Y1882500D03*
X1768750Y1882500D03*
X1618750Y1882500D03*
X1468750Y1882500D03*
X1318750Y1882500D03*
X1168750Y1882500D03*
X1018750Y1882500D03*
X868750Y1882500D03*
D13*
X868750Y1877500D01*
D12*
X718750Y1882500D03*
X568750Y1882500D03*
X418750Y1882500D03*
X268750Y1882500D03*
X118750Y1857500D03*
X2818750Y2032500D03*
X2968750Y2032500D03*
X118750Y1707500D03*
X268750Y1732500D03*
X418750Y1732500D03*
X568750Y1732500D03*
X718750Y1732500D03*
X868750Y1732500D03*
X1018750Y1732500D03*
X1168750Y1732500D03*
D13*
X1168750Y1727500D01*
D12*
X1318750Y1732500D03*
X1468750Y1732500D03*
X1618750Y1732500D03*
X1768750Y1732500D03*
X1918750Y1732500D03*
X2068750Y1732500D03*
X2218750Y1732500D03*
X2368750Y1732500D03*
X2518750Y1732500D03*
X2668750Y1732500D03*
X2818750Y1732500D03*
X2968750Y1732500D03*
X3118750Y1732500D03*
X3418750Y1582500D03*
X2968750Y1582500D03*
X2818750Y1582500D03*
X2668750Y1582500D03*
X2518750Y1582500D03*
X2368750Y1582500D03*
X2218750Y1582500D03*
X2068750Y1582500D03*
X1918750Y1582500D03*
X1768750Y1582500D03*
X1618750Y1582500D03*
X1468750Y1582500D03*
X1318750Y1582500D03*
X1168750Y1582500D03*
X1018750Y1582500D03*
X868750Y1582500D03*
X718750Y1582500D03*
X568750Y1582500D03*
X418750Y1582500D03*
X268750Y1582500D03*
X118750Y1575000D03*
X118750Y1427500D03*
X268750Y1427500D03*
X418750Y1432500D03*
X568750Y1432500D03*
X718750Y1432500D03*
X868750Y1432500D03*
X1018750Y1432500D03*
X1168750Y1432500D03*
X1318750Y1432500D03*
X1468750Y1432500D03*
X1618750Y1432500D03*
X1768750Y1432500D03*
X1918750Y1432500D03*
X2068750Y1432500D03*
X2218750Y1432500D03*
X2368750Y1432500D03*
X2518750Y1432500D03*
X2668750Y1432500D03*
X2818750Y1432500D03*
X2968750Y1432500D03*
X3118750Y1432500D03*
X3118750Y1282500D03*
X2968750Y1282500D03*
X2818750Y1282500D03*
X2668750Y1282500D03*
X2518750Y1282500D03*
X2368750Y1282500D03*
X2218750Y1282500D03*
X2068750Y1282500D03*
X1918750Y1282500D03*
X1768750Y1282500D03*
X1618750Y1282500D03*
X1468750Y1282500D03*
X1318750Y1282500D03*
X1168750Y1282500D03*
X1018750Y1282500D03*
X868750Y1282500D03*
X718750Y1282500D03*
X568750Y1282500D03*
X418750Y1282500D03*
X268750Y1282500D03*
X118750Y1282500D03*
X118750Y1132500D03*
X268750Y1132500D03*
X418750Y1132500D03*
X568750Y1132500D03*
X718750Y1132500D03*
X868750Y1132500D03*
X1018750Y1132500D03*
D13*
X1023750Y1132500D01*
D12*
X1168750Y1132500D03*
X1318750Y1132500D03*
X1468750Y1132500D03*
X1618750Y1132500D03*
X1768750Y1132500D03*
X1918750Y1132500D03*
X2068750Y1132500D03*
X2218750Y1132500D03*
X2368750Y1132500D03*
X2518750Y1132500D03*
X2668750Y1132500D03*
X2818750Y1132500D03*
X2968750Y1132500D03*
X3118750Y1132500D03*
X118750Y982500D03*
X268750Y982500D03*
X418750Y982500D03*
X568750Y982500D03*
X718750Y982500D03*
X868750Y982500D03*
X1018750Y982500D03*
X1168750Y982500D03*
X1318750Y982500D03*
X1468750Y982500D03*
X1618750Y982500D03*
X1768750Y982500D03*
X1918750Y982500D03*
X2368750Y982500D03*
X2518750Y982500D03*
X2668750Y982500D03*
X2818750Y982500D03*
X2968750Y982500D03*
X3118750Y982500D03*
X3268750Y982500D03*
X3418750Y982500D03*
X118750Y832500D03*
X268750Y832500D03*
X418750Y832500D03*
X568750Y832500D03*
X718750Y832500D03*
X868750Y832500D03*
X1018750Y832500D03*
X1168750Y832500D03*
X1318750Y832500D03*
X1468750Y832500D03*
X1618750Y832500D03*
X1768750Y832500D03*
X1918750Y832500D03*
X2068750Y832500D03*
X2218750Y832500D03*
X2368750Y832500D03*
X2518750Y832500D03*
X2668750Y832500D03*
X3118750Y832500D03*
X3268750Y832500D03*
X3418750Y832500D03*
X3418750Y682500D03*
X3268750Y682500D03*
X3118750Y682500D03*
X2968750Y682500D03*
X2518750Y682500D03*
X2368750Y682500D03*
X2218750Y682500D03*
X2068750Y682500D03*
X1918750Y682500D03*
X1768750Y682500D03*
X1618750Y682500D03*
X1468750Y682500D03*
X1318750Y682500D03*
X1168750Y682500D03*
X1018750Y682500D03*
X868750Y682500D03*
X718750Y682500D03*
X568750Y682500D03*
X418750Y682500D03*
X268750Y682500D03*
X118750Y682500D03*
X268750Y382500D03*
X418750Y382500D03*
X568750Y382500D03*
X718750Y382500D03*
X868750Y382500D03*
X1018750Y382500D03*
X1168750Y382500D03*
X1318750Y382500D03*
X1468750Y382500D03*
X1618750Y382500D03*
X1768750Y382500D03*
X1918750Y382500D03*
X2068750Y382500D03*
X2218750Y382500D03*
X2368750Y382500D03*
X2518750Y382500D03*
X2668750Y382500D03*
X2818750Y382500D03*
X3268750Y382500D03*
X3418750Y382500D03*
X3418750Y232500D03*
X3268750Y232500D03*
X3118750Y232500D03*
X2668750Y232500D03*
X2518750Y232500D03*
X2368750Y232500D03*
X2218750Y232500D03*
X2068750Y232500D03*
X1918750Y232500D03*
X1768750Y232500D03*
X1618750Y232500D03*
X1468750Y232500D03*
X1318750Y232500D03*
X1168750Y232500D03*
X1018750Y232500D03*
X868750Y232500D03*
X1018750Y77500D03*
X868750Y82500D03*
X718750Y82500D03*
X1168750Y82500D03*
X1318750Y82500D03*
X1481250Y82500D03*
X2068750Y82500D03*
X2218750Y82500D03*
X2368750Y82500D03*
X2518750Y82500D03*
X3118750Y82500D03*
X3268750Y82500D03*
X3402500Y457500D03*
X3390000Y457500D03*
X3415000Y457500D03*
X3377500Y457500D03*
X3365000Y457500D03*
D14*
X3415000Y457500D01*
X3365000Y457500D02*
X3352500Y457500D01*
D12*
X3352500Y457500D03*
X2968750Y232500D03*
X138750Y547500D03*
X288750Y547500D03*
D13*
X283750Y547500D01*
D12*
X443750Y542500D03*
X588750Y542500D03*
X743750Y542500D03*
X868750Y532500D03*
X1018750Y532500D03*
X1168750Y532500D03*
X1318750Y532500D03*
X1468750Y532500D03*
X1618750Y532500D03*
X1768750Y532500D03*
X1918750Y532500D03*
X2068750Y532500D03*
X2218750Y532500D03*
X2368750Y532500D03*
X2518750Y532500D03*
X2668750Y532500D03*
X2818750Y532500D03*
X2968750Y532500D03*
X3118750Y532500D03*
X3268750Y532500D03*
X3418750Y532500D03*
X3118750Y382500D03*
X2968750Y382500D03*
X2818750Y232500D03*
X2818750Y82500D03*
X2968750Y82500D03*
X2668750Y82500D03*
X3418750Y1432500D03*
X2818750Y832500D03*
X2218750Y982500D03*
X2068750Y982500D03*
X2818750Y682500D03*
X2668750Y682500D03*
X3268750Y1732500D03*
X3418750Y1732500D03*
X3268750Y1132500D03*
X3418750Y1132500D03*
X3118750Y2032500D03*
X3268750Y2032500D03*
X3268750Y1432500D03*
X3268750Y1282500D03*
X3418750Y1282500D03*
X2968750Y832500D03*
X3268750Y1582500D03*
X3118750Y1577500D03*
X3418750Y1882500D03*
X3268750Y1882500D03*
X19000Y301500D03*
X118750Y384000D03*
D13*
X122250Y384000D01*
X122750Y384500D01*
D12*
X275750Y262500D03*
D13*
X275750Y277500D01*
X282250Y284000D01*
D12*
X719250Y234500D03*
D13*
X693750Y260000D01*
X693750Y262500D01*
D12*
X589250Y246500D03*
D13*
X602750Y246500D01*
X618750Y262500D01*
D12*
X220830Y38100D03*
D10*
X220830Y56730D01*
X207710Y69850D01*
D12*
X207710Y69850D03*
X361800Y57150D03*
X190000Y95000D03*
D10*
X205000Y95000D01*
X218500Y81500D01*
X242500Y81500D01*
X266850Y57150D01*
X361800Y57150D01*
D12*
X354400Y64200D03*
X196455Y101477D03*
D10*
X208523Y101477D01*
X224690Y85310D01*
X265800Y64200D02*
X354400Y64200D01*
X244690Y85310D02*
X224690Y85310D01*
X244690Y85310D02*
X265800Y64200D01*
D12*
X3520569Y485453D03*
D10*
X3520569Y470453D01*
D12*
X3520569Y470453D03*
X7500Y400000D03*
D13*
X7500Y247500D01*
X306250Y247500D01*
D12*
X350000Y210000D03*
D13*
X343750Y210000D02*
X306250Y247500D01*
X343750Y210000D02*
X350000Y210000D01*
D12*
X169250Y428500D03*
D13*
X184750Y413000D01*
X191750Y413000D01*
D12*
X191750Y413000D03*
X168750Y262500D03*
D13*
X114250Y262500D01*
X108885Y267865D01*
D12*
X108885Y267865D03*
X366250Y255000D03*
D13*
X391250Y230000D01*
X391250Y170000D01*
X419000Y170000D01*
D12*
X498250Y245500D03*
D13*
X425500Y176500D02*
X419000Y170000D01*
X425500Y176500D02*
X425500Y241750D01*
X429250Y245500D01*
X498250Y245500D01*
D12*
X3393750Y287500D03*
D13*
X1418750Y287500D01*
X1227750Y96500D01*
X639862Y96500D01*
D12*
X639862Y96500D03*
X3393750Y737500D03*
D13*
X968750Y737500D01*
X759461Y528211D01*
D12*
X93750Y525000D03*
D13*
X96961Y528211D02*
X759461Y528211D01*
X96961Y528211D02*
X93750Y525000D01*
D12*
X88750Y397500D03*
D13*
X823750Y397500D01*
X1018750Y592500D01*
X3388750Y592500D01*
D12*
X3388750Y592500D03*
X3293750Y2087500D03*
D13*
X263750Y2057500D02*
X93750Y1887500D01*
D12*
X93750Y1887500D03*
D13*
X3263750Y2057500D02*
X3293750Y2087500D01*
X3263750Y2057500D02*
X263750Y2057500D01*
D12*
X68250Y263000D03*
D13*
X1117750Y361500D02*
X1193750Y437500D01*
X1117750Y361500D02*
X650000Y361500D01*
X166750Y361500D01*
X68250Y263000D01*
X1193750Y437500D02*
X3393750Y437500D01*
D12*
X3393750Y437500D03*
X650000Y200000D03*
D13*
X650000Y361500D01*
D12*
X3398750Y1932500D03*
D13*
X358750Y1932500D01*
X158750Y1732500D02*
X68750Y1732500D01*
D12*
X68750Y1732500D03*
D13*
X158750Y1732500D02*
X358750Y1932500D01*
D12*
X68750Y1582500D03*
D13*
X114638Y1582500D01*
X115349Y1583211D01*
X229461Y1583211D01*
X428750Y1782500D02*
X3398750Y1782500D01*
D12*
X3398750Y1782500D03*
D13*
X428750Y1782500D02*
X229461Y1583211D01*
D12*
X3393750Y1637500D03*
D13*
X518750Y1637500D01*
X318750Y1437500D01*
D12*
X93750Y1437500D03*
D13*
X318750Y1437500D01*
D12*
X3398750Y1482500D03*
D13*
X643750Y1482500D01*
D12*
X88750Y1287500D03*
D13*
X112138Y1287500D02*
X115349Y1290711D01*
X112138Y1287500D02*
X88750Y1287500D01*
X115349Y1290711D02*
X451961Y1290711D01*
X643750Y1482500D01*
D12*
X88750Y1142500D03*
D13*
X518750Y1142500D01*
X708750Y1332500D01*
X3398750Y1332500D01*
D12*
X3398750Y1332500D03*
X88600Y990000D03*
D13*
X114638Y990000D01*
X115349Y990711D01*
X552861Y990711D01*
X742650Y1180500D02*
X3396950Y1180500D01*
D12*
X3396950Y1180500D03*
D13*
X742650Y1180500D02*
X552861Y990711D01*
D12*
X3393750Y1037500D03*
D13*
X818750Y1037500D01*
X618750Y837500D01*
D12*
X93750Y837500D03*
D13*
X575362Y837500D02*
X618750Y837500D01*
X575362Y837500D02*
X572151Y840711D01*
X115349Y840711D02*
X112138Y837500D01*
X93750Y837500D01*
X115349Y840711D02*
X572151Y840711D01*
D12*
X93750Y687500D03*
D13*
X112138Y687500D01*
X115349Y690711D01*
X572151Y690711D02*
X575362Y687500D01*
X693750Y687500D01*
X572151Y690711D02*
X115349Y690711D01*
X693750Y687500D02*
X893750Y887500D01*
D12*
X3393750Y887500D03*
D13*
X893750Y887500D01*
M02*
