G04 EAGLE Gerber RS-274X export*
G75*
%MOMM*%
%FSLAX34Y34*%
%LPD*%
%IN*%
%IPPOS*%
%AMOC8*
5,1,8,0,0,1.08239X$1,22.5*%
G01*
%ADD10C,0.203200*%
%ADD11C,0.000000*%
%ADD12C,0.010000*%
%ADD13C,0.254000*%


D10*
X3505000Y0D02*
X3505000Y230000D01*
X3605000Y230000D01*
X3605000Y530000D01*
X3505000Y530000D01*
X3505000Y2175000D01*
X0Y2175000D01*
X0Y0D01*
X525630Y0D01*
X525630Y233200D01*
X585320Y233200D01*
X585320Y0D01*
X3505000Y0D01*
D11*
X3413490Y75000D02*
X3413495Y75405D01*
X3413510Y75810D01*
X3413535Y76215D01*
X3413570Y76618D01*
X3413614Y77021D01*
X3413669Y77423D01*
X3413733Y77823D01*
X3413807Y78221D01*
X3413891Y78617D01*
X3413985Y79012D01*
X3414088Y79403D01*
X3414201Y79793D01*
X3414323Y80179D01*
X3414455Y80562D01*
X3414596Y80942D01*
X3414747Y81318D01*
X3414906Y81691D01*
X3415075Y82059D01*
X3415253Y82423D01*
X3415439Y82783D01*
X3415635Y83138D01*
X3415839Y83488D01*
X3416051Y83833D01*
X3416272Y84172D01*
X3416502Y84507D01*
X3416739Y84835D01*
X3416984Y85157D01*
X3417238Y85474D01*
X3417498Y85784D01*
X3417767Y86087D01*
X3418043Y86384D01*
X3418326Y86674D01*
X3418616Y86957D01*
X3418913Y87233D01*
X3419216Y87502D01*
X3419526Y87762D01*
X3419843Y88016D01*
X3420165Y88261D01*
X3420493Y88498D01*
X3420828Y88728D01*
X3421167Y88949D01*
X3421512Y89161D01*
X3421862Y89365D01*
X3422217Y89561D01*
X3422577Y89747D01*
X3422941Y89925D01*
X3423309Y90094D01*
X3423682Y90253D01*
X3424058Y90404D01*
X3424438Y90545D01*
X3424821Y90677D01*
X3425207Y90799D01*
X3425597Y90912D01*
X3425988Y91015D01*
X3426383Y91109D01*
X3426779Y91193D01*
X3427177Y91267D01*
X3427577Y91331D01*
X3427979Y91386D01*
X3428382Y91430D01*
X3428785Y91465D01*
X3429190Y91490D01*
X3429595Y91505D01*
X3430000Y91510D01*
X3430405Y91505D01*
X3430810Y91490D01*
X3431215Y91465D01*
X3431618Y91430D01*
X3432021Y91386D01*
X3432423Y91331D01*
X3432823Y91267D01*
X3433221Y91193D01*
X3433617Y91109D01*
X3434012Y91015D01*
X3434403Y90912D01*
X3434793Y90799D01*
X3435179Y90677D01*
X3435562Y90545D01*
X3435942Y90404D01*
X3436318Y90253D01*
X3436691Y90094D01*
X3437059Y89925D01*
X3437423Y89747D01*
X3437783Y89561D01*
X3438138Y89365D01*
X3438488Y89161D01*
X3438833Y88949D01*
X3439172Y88728D01*
X3439507Y88498D01*
X3439835Y88261D01*
X3440157Y88016D01*
X3440474Y87762D01*
X3440784Y87502D01*
X3441087Y87233D01*
X3441384Y86957D01*
X3441674Y86674D01*
X3441957Y86384D01*
X3442233Y86087D01*
X3442502Y85784D01*
X3442762Y85474D01*
X3443016Y85157D01*
X3443261Y84835D01*
X3443498Y84507D01*
X3443728Y84172D01*
X3443949Y83833D01*
X3444161Y83488D01*
X3444365Y83138D01*
X3444561Y82783D01*
X3444747Y82423D01*
X3444925Y82059D01*
X3445094Y81691D01*
X3445253Y81318D01*
X3445404Y80942D01*
X3445545Y80562D01*
X3445677Y80179D01*
X3445799Y79793D01*
X3445912Y79403D01*
X3446015Y79012D01*
X3446109Y78617D01*
X3446193Y78221D01*
X3446267Y77823D01*
X3446331Y77423D01*
X3446386Y77021D01*
X3446430Y76618D01*
X3446465Y76215D01*
X3446490Y75810D01*
X3446505Y75405D01*
X3446510Y75000D01*
X3446505Y74595D01*
X3446490Y74190D01*
X3446465Y73785D01*
X3446430Y73382D01*
X3446386Y72979D01*
X3446331Y72577D01*
X3446267Y72177D01*
X3446193Y71779D01*
X3446109Y71383D01*
X3446015Y70988D01*
X3445912Y70597D01*
X3445799Y70207D01*
X3445677Y69821D01*
X3445545Y69438D01*
X3445404Y69058D01*
X3445253Y68682D01*
X3445094Y68309D01*
X3444925Y67941D01*
X3444747Y67577D01*
X3444561Y67217D01*
X3444365Y66862D01*
X3444161Y66512D01*
X3443949Y66167D01*
X3443728Y65828D01*
X3443498Y65493D01*
X3443261Y65165D01*
X3443016Y64843D01*
X3442762Y64526D01*
X3442502Y64216D01*
X3442233Y63913D01*
X3441957Y63616D01*
X3441674Y63326D01*
X3441384Y63043D01*
X3441087Y62767D01*
X3440784Y62498D01*
X3440474Y62238D01*
X3440157Y61984D01*
X3439835Y61739D01*
X3439507Y61502D01*
X3439172Y61272D01*
X3438833Y61051D01*
X3438488Y60839D01*
X3438138Y60635D01*
X3437783Y60439D01*
X3437423Y60253D01*
X3437059Y60075D01*
X3436691Y59906D01*
X3436318Y59747D01*
X3435942Y59596D01*
X3435562Y59455D01*
X3435179Y59323D01*
X3434793Y59201D01*
X3434403Y59088D01*
X3434012Y58985D01*
X3433617Y58891D01*
X3433221Y58807D01*
X3432823Y58733D01*
X3432423Y58669D01*
X3432021Y58614D01*
X3431618Y58570D01*
X3431215Y58535D01*
X3430810Y58510D01*
X3430405Y58495D01*
X3430000Y58490D01*
X3429595Y58495D01*
X3429190Y58510D01*
X3428785Y58535D01*
X3428382Y58570D01*
X3427979Y58614D01*
X3427577Y58669D01*
X3427177Y58733D01*
X3426779Y58807D01*
X3426383Y58891D01*
X3425988Y58985D01*
X3425597Y59088D01*
X3425207Y59201D01*
X3424821Y59323D01*
X3424438Y59455D01*
X3424058Y59596D01*
X3423682Y59747D01*
X3423309Y59906D01*
X3422941Y60075D01*
X3422577Y60253D01*
X3422217Y60439D01*
X3421862Y60635D01*
X3421512Y60839D01*
X3421167Y61051D01*
X3420828Y61272D01*
X3420493Y61502D01*
X3420165Y61739D01*
X3419843Y61984D01*
X3419526Y62238D01*
X3419216Y62498D01*
X3418913Y62767D01*
X3418616Y63043D01*
X3418326Y63326D01*
X3418043Y63616D01*
X3417767Y63913D01*
X3417498Y64216D01*
X3417238Y64526D01*
X3416984Y64843D01*
X3416739Y65165D01*
X3416502Y65493D01*
X3416272Y65828D01*
X3416051Y66167D01*
X3415839Y66512D01*
X3415635Y66862D01*
X3415439Y67217D01*
X3415253Y67577D01*
X3415075Y67941D01*
X3414906Y68309D01*
X3414747Y68682D01*
X3414596Y69058D01*
X3414455Y69438D01*
X3414323Y69821D01*
X3414201Y70207D01*
X3414088Y70597D01*
X3413985Y70988D01*
X3413891Y71383D01*
X3413807Y71779D01*
X3413733Y72177D01*
X3413669Y72577D01*
X3413614Y72979D01*
X3413570Y73382D01*
X3413535Y73785D01*
X3413510Y74190D01*
X3413495Y74595D01*
X3413490Y75000D01*
X58490Y75000D02*
X58495Y75405D01*
X58510Y75810D01*
X58535Y76215D01*
X58570Y76618D01*
X58614Y77021D01*
X58669Y77423D01*
X58733Y77823D01*
X58807Y78221D01*
X58891Y78617D01*
X58985Y79012D01*
X59088Y79403D01*
X59201Y79793D01*
X59323Y80179D01*
X59455Y80562D01*
X59596Y80942D01*
X59747Y81318D01*
X59906Y81691D01*
X60075Y82059D01*
X60253Y82423D01*
X60439Y82783D01*
X60635Y83138D01*
X60839Y83488D01*
X61051Y83833D01*
X61272Y84172D01*
X61502Y84507D01*
X61739Y84835D01*
X61984Y85157D01*
X62238Y85474D01*
X62498Y85784D01*
X62767Y86087D01*
X63043Y86384D01*
X63326Y86674D01*
X63616Y86957D01*
X63913Y87233D01*
X64216Y87502D01*
X64526Y87762D01*
X64843Y88016D01*
X65165Y88261D01*
X65493Y88498D01*
X65828Y88728D01*
X66167Y88949D01*
X66512Y89161D01*
X66862Y89365D01*
X67217Y89561D01*
X67577Y89747D01*
X67941Y89925D01*
X68309Y90094D01*
X68682Y90253D01*
X69058Y90404D01*
X69438Y90545D01*
X69821Y90677D01*
X70207Y90799D01*
X70597Y90912D01*
X70988Y91015D01*
X71383Y91109D01*
X71779Y91193D01*
X72177Y91267D01*
X72577Y91331D01*
X72979Y91386D01*
X73382Y91430D01*
X73785Y91465D01*
X74190Y91490D01*
X74595Y91505D01*
X75000Y91510D01*
X75405Y91505D01*
X75810Y91490D01*
X76215Y91465D01*
X76618Y91430D01*
X77021Y91386D01*
X77423Y91331D01*
X77823Y91267D01*
X78221Y91193D01*
X78617Y91109D01*
X79012Y91015D01*
X79403Y90912D01*
X79793Y90799D01*
X80179Y90677D01*
X80562Y90545D01*
X80942Y90404D01*
X81318Y90253D01*
X81691Y90094D01*
X82059Y89925D01*
X82423Y89747D01*
X82783Y89561D01*
X83138Y89365D01*
X83488Y89161D01*
X83833Y88949D01*
X84172Y88728D01*
X84507Y88498D01*
X84835Y88261D01*
X85157Y88016D01*
X85474Y87762D01*
X85784Y87502D01*
X86087Y87233D01*
X86384Y86957D01*
X86674Y86674D01*
X86957Y86384D01*
X87233Y86087D01*
X87502Y85784D01*
X87762Y85474D01*
X88016Y85157D01*
X88261Y84835D01*
X88498Y84507D01*
X88728Y84172D01*
X88949Y83833D01*
X89161Y83488D01*
X89365Y83138D01*
X89561Y82783D01*
X89747Y82423D01*
X89925Y82059D01*
X90094Y81691D01*
X90253Y81318D01*
X90404Y80942D01*
X90545Y80562D01*
X90677Y80179D01*
X90799Y79793D01*
X90912Y79403D01*
X91015Y79012D01*
X91109Y78617D01*
X91193Y78221D01*
X91267Y77823D01*
X91331Y77423D01*
X91386Y77021D01*
X91430Y76618D01*
X91465Y76215D01*
X91490Y75810D01*
X91505Y75405D01*
X91510Y75000D01*
X91505Y74595D01*
X91490Y74190D01*
X91465Y73785D01*
X91430Y73382D01*
X91386Y72979D01*
X91331Y72577D01*
X91267Y72177D01*
X91193Y71779D01*
X91109Y71383D01*
X91015Y70988D01*
X90912Y70597D01*
X90799Y70207D01*
X90677Y69821D01*
X90545Y69438D01*
X90404Y69058D01*
X90253Y68682D01*
X90094Y68309D01*
X89925Y67941D01*
X89747Y67577D01*
X89561Y67217D01*
X89365Y66862D01*
X89161Y66512D01*
X88949Y66167D01*
X88728Y65828D01*
X88498Y65493D01*
X88261Y65165D01*
X88016Y64843D01*
X87762Y64526D01*
X87502Y64216D01*
X87233Y63913D01*
X86957Y63616D01*
X86674Y63326D01*
X86384Y63043D01*
X86087Y62767D01*
X85784Y62498D01*
X85474Y62238D01*
X85157Y61984D01*
X84835Y61739D01*
X84507Y61502D01*
X84172Y61272D01*
X83833Y61051D01*
X83488Y60839D01*
X83138Y60635D01*
X82783Y60439D01*
X82423Y60253D01*
X82059Y60075D01*
X81691Y59906D01*
X81318Y59747D01*
X80942Y59596D01*
X80562Y59455D01*
X80179Y59323D01*
X79793Y59201D01*
X79403Y59088D01*
X79012Y58985D01*
X78617Y58891D01*
X78221Y58807D01*
X77823Y58733D01*
X77423Y58669D01*
X77021Y58614D01*
X76618Y58570D01*
X76215Y58535D01*
X75810Y58510D01*
X75405Y58495D01*
X75000Y58490D01*
X74595Y58495D01*
X74190Y58510D01*
X73785Y58535D01*
X73382Y58570D01*
X72979Y58614D01*
X72577Y58669D01*
X72177Y58733D01*
X71779Y58807D01*
X71383Y58891D01*
X70988Y58985D01*
X70597Y59088D01*
X70207Y59201D01*
X69821Y59323D01*
X69438Y59455D01*
X69058Y59596D01*
X68682Y59747D01*
X68309Y59906D01*
X67941Y60075D01*
X67577Y60253D01*
X67217Y60439D01*
X66862Y60635D01*
X66512Y60839D01*
X66167Y61051D01*
X65828Y61272D01*
X65493Y61502D01*
X65165Y61739D01*
X64843Y61984D01*
X64526Y62238D01*
X64216Y62498D01*
X63913Y62767D01*
X63616Y63043D01*
X63326Y63326D01*
X63043Y63616D01*
X62767Y63913D01*
X62498Y64216D01*
X62238Y64526D01*
X61984Y64843D01*
X61739Y65165D01*
X61502Y65493D01*
X61272Y65828D01*
X61051Y66167D01*
X60839Y66512D01*
X60635Y66862D01*
X60439Y67217D01*
X60253Y67577D01*
X60075Y67941D01*
X59906Y68309D01*
X59747Y68682D01*
X59596Y69058D01*
X59455Y69438D01*
X59323Y69821D01*
X59201Y70207D01*
X59088Y70597D01*
X58985Y70988D01*
X58891Y71383D01*
X58807Y71779D01*
X58733Y72177D01*
X58669Y72577D01*
X58614Y72979D01*
X58570Y73382D01*
X58535Y73785D01*
X58510Y74190D01*
X58495Y74595D01*
X58490Y75000D01*
X3551200Y261100D02*
X3551202Y261213D01*
X3551208Y261327D01*
X3551218Y261440D01*
X3551232Y261552D01*
X3551249Y261664D01*
X3551271Y261776D01*
X3551297Y261886D01*
X3551326Y261996D01*
X3551359Y262104D01*
X3551396Y262212D01*
X3551437Y262317D01*
X3551481Y262422D01*
X3551529Y262525D01*
X3551580Y262626D01*
X3551635Y262725D01*
X3551694Y262822D01*
X3551756Y262917D01*
X3551821Y263010D01*
X3551889Y263101D01*
X3551960Y263189D01*
X3552035Y263275D01*
X3552112Y263358D01*
X3552192Y263438D01*
X3552275Y263515D01*
X3552361Y263590D01*
X3552449Y263661D01*
X3552540Y263729D01*
X3552633Y263794D01*
X3552728Y263856D01*
X3552825Y263915D01*
X3552924Y263970D01*
X3553025Y264021D01*
X3553128Y264069D01*
X3553233Y264113D01*
X3553338Y264154D01*
X3553446Y264191D01*
X3553554Y264224D01*
X3553664Y264253D01*
X3553774Y264279D01*
X3553886Y264301D01*
X3553998Y264318D01*
X3554110Y264332D01*
X3554223Y264342D01*
X3554337Y264348D01*
X3554450Y264350D01*
X3554563Y264348D01*
X3554677Y264342D01*
X3554790Y264332D01*
X3554902Y264318D01*
X3555014Y264301D01*
X3555126Y264279D01*
X3555236Y264253D01*
X3555346Y264224D01*
X3555454Y264191D01*
X3555562Y264154D01*
X3555667Y264113D01*
X3555772Y264069D01*
X3555875Y264021D01*
X3555976Y263970D01*
X3556075Y263915D01*
X3556172Y263856D01*
X3556267Y263794D01*
X3556360Y263729D01*
X3556451Y263661D01*
X3556539Y263590D01*
X3556625Y263515D01*
X3556708Y263438D01*
X3556788Y263358D01*
X3556865Y263275D01*
X3556940Y263189D01*
X3557011Y263101D01*
X3557079Y263010D01*
X3557144Y262917D01*
X3557206Y262822D01*
X3557265Y262725D01*
X3557320Y262626D01*
X3557371Y262525D01*
X3557419Y262422D01*
X3557463Y262317D01*
X3557504Y262212D01*
X3557541Y262104D01*
X3557574Y261996D01*
X3557603Y261886D01*
X3557629Y261776D01*
X3557651Y261664D01*
X3557668Y261552D01*
X3557682Y261440D01*
X3557692Y261327D01*
X3557698Y261213D01*
X3557700Y261100D01*
X3557698Y260987D01*
X3557692Y260873D01*
X3557682Y260760D01*
X3557668Y260648D01*
X3557651Y260536D01*
X3557629Y260424D01*
X3557603Y260314D01*
X3557574Y260204D01*
X3557541Y260096D01*
X3557504Y259988D01*
X3557463Y259883D01*
X3557419Y259778D01*
X3557371Y259675D01*
X3557320Y259574D01*
X3557265Y259475D01*
X3557206Y259378D01*
X3557144Y259283D01*
X3557079Y259190D01*
X3557011Y259099D01*
X3556940Y259011D01*
X3556865Y258925D01*
X3556788Y258842D01*
X3556708Y258762D01*
X3556625Y258685D01*
X3556539Y258610D01*
X3556451Y258539D01*
X3556360Y258471D01*
X3556267Y258406D01*
X3556172Y258344D01*
X3556075Y258285D01*
X3555976Y258230D01*
X3555875Y258179D01*
X3555772Y258131D01*
X3555667Y258087D01*
X3555562Y258046D01*
X3555454Y258009D01*
X3555346Y257976D01*
X3555236Y257947D01*
X3555126Y257921D01*
X3555014Y257899D01*
X3554902Y257882D01*
X3554790Y257868D01*
X3554677Y257858D01*
X3554563Y257852D01*
X3554450Y257850D01*
X3554337Y257852D01*
X3554223Y257858D01*
X3554110Y257868D01*
X3553998Y257882D01*
X3553886Y257899D01*
X3553774Y257921D01*
X3553664Y257947D01*
X3553554Y257976D01*
X3553446Y258009D01*
X3553338Y258046D01*
X3553233Y258087D01*
X3553128Y258131D01*
X3553025Y258179D01*
X3552924Y258230D01*
X3552825Y258285D01*
X3552728Y258344D01*
X3552633Y258406D01*
X3552540Y258471D01*
X3552449Y258539D01*
X3552361Y258610D01*
X3552275Y258685D01*
X3552192Y258762D01*
X3552112Y258842D01*
X3552035Y258925D01*
X3551960Y259011D01*
X3551889Y259099D01*
X3551821Y259190D01*
X3551756Y259283D01*
X3551694Y259378D01*
X3551635Y259475D01*
X3551580Y259574D01*
X3551529Y259675D01*
X3551481Y259778D01*
X3551437Y259883D01*
X3551396Y259988D01*
X3551359Y260096D01*
X3551326Y260204D01*
X3551297Y260314D01*
X3551271Y260424D01*
X3551249Y260536D01*
X3551232Y260648D01*
X3551218Y260760D01*
X3551208Y260873D01*
X3551202Y260987D01*
X3551200Y261100D01*
X3551200Y318900D02*
X3551202Y319013D01*
X3551208Y319127D01*
X3551218Y319240D01*
X3551232Y319352D01*
X3551249Y319464D01*
X3551271Y319576D01*
X3551297Y319686D01*
X3551326Y319796D01*
X3551359Y319904D01*
X3551396Y320012D01*
X3551437Y320117D01*
X3551481Y320222D01*
X3551529Y320325D01*
X3551580Y320426D01*
X3551635Y320525D01*
X3551694Y320622D01*
X3551756Y320717D01*
X3551821Y320810D01*
X3551889Y320901D01*
X3551960Y320989D01*
X3552035Y321075D01*
X3552112Y321158D01*
X3552192Y321238D01*
X3552275Y321315D01*
X3552361Y321390D01*
X3552449Y321461D01*
X3552540Y321529D01*
X3552633Y321594D01*
X3552728Y321656D01*
X3552825Y321715D01*
X3552924Y321770D01*
X3553025Y321821D01*
X3553128Y321869D01*
X3553233Y321913D01*
X3553338Y321954D01*
X3553446Y321991D01*
X3553554Y322024D01*
X3553664Y322053D01*
X3553774Y322079D01*
X3553886Y322101D01*
X3553998Y322118D01*
X3554110Y322132D01*
X3554223Y322142D01*
X3554337Y322148D01*
X3554450Y322150D01*
X3554563Y322148D01*
X3554677Y322142D01*
X3554790Y322132D01*
X3554902Y322118D01*
X3555014Y322101D01*
X3555126Y322079D01*
X3555236Y322053D01*
X3555346Y322024D01*
X3555454Y321991D01*
X3555562Y321954D01*
X3555667Y321913D01*
X3555772Y321869D01*
X3555875Y321821D01*
X3555976Y321770D01*
X3556075Y321715D01*
X3556172Y321656D01*
X3556267Y321594D01*
X3556360Y321529D01*
X3556451Y321461D01*
X3556539Y321390D01*
X3556625Y321315D01*
X3556708Y321238D01*
X3556788Y321158D01*
X3556865Y321075D01*
X3556940Y320989D01*
X3557011Y320901D01*
X3557079Y320810D01*
X3557144Y320717D01*
X3557206Y320622D01*
X3557265Y320525D01*
X3557320Y320426D01*
X3557371Y320325D01*
X3557419Y320222D01*
X3557463Y320117D01*
X3557504Y320012D01*
X3557541Y319904D01*
X3557574Y319796D01*
X3557603Y319686D01*
X3557629Y319576D01*
X3557651Y319464D01*
X3557668Y319352D01*
X3557682Y319240D01*
X3557692Y319127D01*
X3557698Y319013D01*
X3557700Y318900D01*
X3557698Y318787D01*
X3557692Y318673D01*
X3557682Y318560D01*
X3557668Y318448D01*
X3557651Y318336D01*
X3557629Y318224D01*
X3557603Y318114D01*
X3557574Y318004D01*
X3557541Y317896D01*
X3557504Y317788D01*
X3557463Y317683D01*
X3557419Y317578D01*
X3557371Y317475D01*
X3557320Y317374D01*
X3557265Y317275D01*
X3557206Y317178D01*
X3557144Y317083D01*
X3557079Y316990D01*
X3557011Y316899D01*
X3556940Y316811D01*
X3556865Y316725D01*
X3556788Y316642D01*
X3556708Y316562D01*
X3556625Y316485D01*
X3556539Y316410D01*
X3556451Y316339D01*
X3556360Y316271D01*
X3556267Y316206D01*
X3556172Y316144D01*
X3556075Y316085D01*
X3555976Y316030D01*
X3555875Y315979D01*
X3555772Y315931D01*
X3555667Y315887D01*
X3555562Y315846D01*
X3555454Y315809D01*
X3555346Y315776D01*
X3555236Y315747D01*
X3555126Y315721D01*
X3555014Y315699D01*
X3554902Y315682D01*
X3554790Y315668D01*
X3554677Y315658D01*
X3554563Y315652D01*
X3554450Y315650D01*
X3554337Y315652D01*
X3554223Y315658D01*
X3554110Y315668D01*
X3553998Y315682D01*
X3553886Y315699D01*
X3553774Y315721D01*
X3553664Y315747D01*
X3553554Y315776D01*
X3553446Y315809D01*
X3553338Y315846D01*
X3553233Y315887D01*
X3553128Y315931D01*
X3553025Y315979D01*
X3552924Y316030D01*
X3552825Y316085D01*
X3552728Y316144D01*
X3552633Y316206D01*
X3552540Y316271D01*
X3552449Y316339D01*
X3552361Y316410D01*
X3552275Y316485D01*
X3552192Y316562D01*
X3552112Y316642D01*
X3552035Y316725D01*
X3551960Y316811D01*
X3551889Y316899D01*
X3551821Y316990D01*
X3551756Y317083D01*
X3551694Y317178D01*
X3551635Y317275D01*
X3551580Y317374D01*
X3551529Y317475D01*
X3551481Y317578D01*
X3551437Y317683D01*
X3551396Y317788D01*
X3551359Y317896D01*
X3551326Y318004D01*
X3551297Y318114D01*
X3551271Y318224D01*
X3551249Y318336D01*
X3551232Y318448D01*
X3551218Y318560D01*
X3551208Y318673D01*
X3551202Y318787D01*
X3551200Y318900D01*
D12*
X3587800Y243800D02*
X3594000Y243800D01*
X3594000Y249800D02*
X3587800Y249800D01*
X3587692Y249798D01*
X3587584Y249792D01*
X3587476Y249782D01*
X3587368Y249769D01*
X3587261Y249751D01*
X3587155Y249730D01*
X3587050Y249705D01*
X3586945Y249676D01*
X3586842Y249643D01*
X3586740Y249607D01*
X3586639Y249566D01*
X3586540Y249523D01*
X3586443Y249475D01*
X3586347Y249425D01*
X3586253Y249371D01*
X3586162Y249313D01*
X3586072Y249252D01*
X3585984Y249188D01*
X3585899Y249121D01*
X3585817Y249051D01*
X3585737Y248978D01*
X3585660Y248902D01*
X3585585Y248823D01*
X3585514Y248742D01*
X3585445Y248658D01*
X3585379Y248572D01*
X3585317Y248484D01*
X3585258Y248393D01*
X3585202Y248300D01*
X3585149Y248205D01*
X3585100Y248109D01*
X3585055Y248010D01*
X3585013Y247910D01*
X3584975Y247809D01*
X3584940Y247706D01*
X3584909Y247603D01*
X3584882Y247498D01*
X3584859Y247392D01*
X3584840Y247285D01*
X3584824Y247178D01*
X3584812Y247070D01*
X3584804Y246962D01*
X3584800Y246854D01*
X3584800Y246746D01*
X3584804Y246638D01*
X3584812Y246530D01*
X3584824Y246422D01*
X3584840Y246315D01*
X3584859Y246208D01*
X3584882Y246102D01*
X3584909Y245997D01*
X3584940Y245894D01*
X3584975Y245791D01*
X3585013Y245690D01*
X3585055Y245590D01*
X3585100Y245491D01*
X3585149Y245395D01*
X3585202Y245300D01*
X3585258Y245207D01*
X3585317Y245116D01*
X3585379Y245028D01*
X3585445Y244942D01*
X3585514Y244858D01*
X3585585Y244777D01*
X3585660Y244698D01*
X3585737Y244622D01*
X3585817Y244549D01*
X3585899Y244479D01*
X3585984Y244412D01*
X3586072Y244348D01*
X3586162Y244287D01*
X3586253Y244229D01*
X3586347Y244175D01*
X3586443Y244125D01*
X3586540Y244077D01*
X3586639Y244034D01*
X3586740Y243993D01*
X3586842Y243957D01*
X3586945Y243924D01*
X3587050Y243895D01*
X3587155Y243870D01*
X3587261Y243849D01*
X3587368Y243831D01*
X3587476Y243818D01*
X3587584Y243808D01*
X3587692Y243802D01*
X3587800Y243800D01*
X3594000Y243800D02*
X3594108Y243802D01*
X3594216Y243808D01*
X3594324Y243818D01*
X3594432Y243831D01*
X3594539Y243849D01*
X3594645Y243870D01*
X3594750Y243895D01*
X3594855Y243924D01*
X3594958Y243957D01*
X3595060Y243993D01*
X3595161Y244034D01*
X3595260Y244077D01*
X3595357Y244125D01*
X3595453Y244175D01*
X3595547Y244229D01*
X3595638Y244287D01*
X3595728Y244348D01*
X3595816Y244412D01*
X3595901Y244479D01*
X3595983Y244549D01*
X3596063Y244622D01*
X3596140Y244698D01*
X3596215Y244777D01*
X3596286Y244858D01*
X3596355Y244942D01*
X3596421Y245028D01*
X3596483Y245116D01*
X3596542Y245207D01*
X3596598Y245300D01*
X3596651Y245395D01*
X3596700Y245491D01*
X3596745Y245590D01*
X3596787Y245690D01*
X3596825Y245791D01*
X3596860Y245894D01*
X3596891Y245997D01*
X3596918Y246102D01*
X3596941Y246208D01*
X3596960Y246315D01*
X3596976Y246422D01*
X3596988Y246530D01*
X3596996Y246638D01*
X3597000Y246746D01*
X3597000Y246854D01*
X3596996Y246962D01*
X3596988Y247070D01*
X3596976Y247178D01*
X3596960Y247285D01*
X3596941Y247392D01*
X3596918Y247498D01*
X3596891Y247603D01*
X3596860Y247706D01*
X3596825Y247809D01*
X3596787Y247910D01*
X3596745Y248010D01*
X3596700Y248109D01*
X3596651Y248205D01*
X3596598Y248300D01*
X3596542Y248393D01*
X3596483Y248484D01*
X3596421Y248572D01*
X3596355Y248658D01*
X3596286Y248742D01*
X3596215Y248823D01*
X3596140Y248902D01*
X3596063Y248978D01*
X3595983Y249051D01*
X3595901Y249121D01*
X3595816Y249188D01*
X3595728Y249252D01*
X3595638Y249313D01*
X3595547Y249371D01*
X3595453Y249425D01*
X3595357Y249475D01*
X3595260Y249523D01*
X3595161Y249566D01*
X3595060Y249607D01*
X3594958Y249643D01*
X3594855Y249676D01*
X3594750Y249705D01*
X3594645Y249730D01*
X3594539Y249751D01*
X3594432Y249769D01*
X3594324Y249782D01*
X3594216Y249792D01*
X3594108Y249798D01*
X3594000Y249800D01*
X3554650Y243800D02*
X3543650Y243800D01*
X3543650Y249800D02*
X3554650Y249800D01*
X3554758Y249798D01*
X3554866Y249792D01*
X3554974Y249782D01*
X3555082Y249769D01*
X3555189Y249751D01*
X3555295Y249730D01*
X3555400Y249705D01*
X3555505Y249676D01*
X3555608Y249643D01*
X3555710Y249607D01*
X3555811Y249566D01*
X3555910Y249523D01*
X3556007Y249475D01*
X3556103Y249425D01*
X3556197Y249371D01*
X3556288Y249313D01*
X3556378Y249252D01*
X3556466Y249188D01*
X3556551Y249121D01*
X3556633Y249051D01*
X3556713Y248978D01*
X3556790Y248902D01*
X3556865Y248823D01*
X3556936Y248742D01*
X3557005Y248658D01*
X3557071Y248572D01*
X3557133Y248484D01*
X3557192Y248393D01*
X3557248Y248300D01*
X3557301Y248205D01*
X3557350Y248109D01*
X3557395Y248010D01*
X3557437Y247910D01*
X3557475Y247809D01*
X3557510Y247706D01*
X3557541Y247603D01*
X3557568Y247498D01*
X3557591Y247392D01*
X3557610Y247285D01*
X3557626Y247178D01*
X3557638Y247070D01*
X3557646Y246962D01*
X3557650Y246854D01*
X3557650Y246746D01*
X3557646Y246638D01*
X3557638Y246530D01*
X3557626Y246422D01*
X3557610Y246315D01*
X3557591Y246208D01*
X3557568Y246102D01*
X3557541Y245997D01*
X3557510Y245894D01*
X3557475Y245791D01*
X3557437Y245690D01*
X3557395Y245590D01*
X3557350Y245491D01*
X3557301Y245395D01*
X3557248Y245300D01*
X3557192Y245207D01*
X3557133Y245116D01*
X3557071Y245028D01*
X3557005Y244942D01*
X3556936Y244858D01*
X3556865Y244777D01*
X3556790Y244698D01*
X3556713Y244622D01*
X3556633Y244549D01*
X3556551Y244479D01*
X3556466Y244412D01*
X3556378Y244348D01*
X3556288Y244287D01*
X3556197Y244229D01*
X3556103Y244175D01*
X3556007Y244125D01*
X3555910Y244077D01*
X3555811Y244034D01*
X3555710Y243993D01*
X3555608Y243957D01*
X3555505Y243924D01*
X3555400Y243895D01*
X3555295Y243870D01*
X3555189Y243849D01*
X3555082Y243831D01*
X3554974Y243818D01*
X3554866Y243808D01*
X3554758Y243802D01*
X3554650Y243800D01*
X3543650Y243800D02*
X3543542Y243802D01*
X3543434Y243808D01*
X3543326Y243818D01*
X3543218Y243831D01*
X3543111Y243849D01*
X3543005Y243870D01*
X3542900Y243895D01*
X3542795Y243924D01*
X3542692Y243957D01*
X3542590Y243993D01*
X3542489Y244034D01*
X3542390Y244077D01*
X3542293Y244125D01*
X3542197Y244175D01*
X3542103Y244229D01*
X3542012Y244287D01*
X3541922Y244348D01*
X3541834Y244412D01*
X3541749Y244479D01*
X3541667Y244549D01*
X3541587Y244622D01*
X3541510Y244698D01*
X3541435Y244777D01*
X3541364Y244858D01*
X3541295Y244942D01*
X3541229Y245028D01*
X3541167Y245116D01*
X3541108Y245207D01*
X3541052Y245300D01*
X3540999Y245395D01*
X3540950Y245491D01*
X3540905Y245590D01*
X3540863Y245690D01*
X3540825Y245791D01*
X3540790Y245894D01*
X3540759Y245997D01*
X3540732Y246102D01*
X3540709Y246208D01*
X3540690Y246315D01*
X3540674Y246422D01*
X3540662Y246530D01*
X3540654Y246638D01*
X3540650Y246746D01*
X3540650Y246854D01*
X3540654Y246962D01*
X3540662Y247070D01*
X3540674Y247178D01*
X3540690Y247285D01*
X3540709Y247392D01*
X3540732Y247498D01*
X3540759Y247603D01*
X3540790Y247706D01*
X3540825Y247809D01*
X3540863Y247910D01*
X3540905Y248010D01*
X3540950Y248109D01*
X3540999Y248205D01*
X3541052Y248300D01*
X3541108Y248393D01*
X3541167Y248484D01*
X3541229Y248572D01*
X3541295Y248658D01*
X3541364Y248742D01*
X3541435Y248823D01*
X3541510Y248902D01*
X3541587Y248978D01*
X3541667Y249051D01*
X3541749Y249121D01*
X3541834Y249188D01*
X3541922Y249252D01*
X3542012Y249313D01*
X3542103Y249371D01*
X3542197Y249425D01*
X3542293Y249475D01*
X3542390Y249523D01*
X3542489Y249566D01*
X3542590Y249607D01*
X3542692Y249643D01*
X3542795Y249676D01*
X3542900Y249705D01*
X3543005Y249730D01*
X3543111Y249751D01*
X3543218Y249769D01*
X3543326Y249782D01*
X3543434Y249792D01*
X3543542Y249798D01*
X3543650Y249800D01*
X3587800Y330200D02*
X3594000Y330200D01*
X3594000Y336200D02*
X3587800Y336200D01*
X3587692Y336198D01*
X3587584Y336192D01*
X3587476Y336182D01*
X3587368Y336169D01*
X3587261Y336151D01*
X3587155Y336130D01*
X3587050Y336105D01*
X3586945Y336076D01*
X3586842Y336043D01*
X3586740Y336007D01*
X3586639Y335966D01*
X3586540Y335923D01*
X3586443Y335875D01*
X3586347Y335825D01*
X3586253Y335771D01*
X3586162Y335713D01*
X3586072Y335652D01*
X3585984Y335588D01*
X3585899Y335521D01*
X3585817Y335451D01*
X3585737Y335378D01*
X3585660Y335302D01*
X3585585Y335223D01*
X3585514Y335142D01*
X3585445Y335058D01*
X3585379Y334972D01*
X3585317Y334884D01*
X3585258Y334793D01*
X3585202Y334700D01*
X3585149Y334605D01*
X3585100Y334509D01*
X3585055Y334410D01*
X3585013Y334310D01*
X3584975Y334209D01*
X3584940Y334106D01*
X3584909Y334003D01*
X3584882Y333898D01*
X3584859Y333792D01*
X3584840Y333685D01*
X3584824Y333578D01*
X3584812Y333470D01*
X3584804Y333362D01*
X3584800Y333254D01*
X3584800Y333146D01*
X3584804Y333038D01*
X3584812Y332930D01*
X3584824Y332822D01*
X3584840Y332715D01*
X3584859Y332608D01*
X3584882Y332502D01*
X3584909Y332397D01*
X3584940Y332294D01*
X3584975Y332191D01*
X3585013Y332090D01*
X3585055Y331990D01*
X3585100Y331891D01*
X3585149Y331795D01*
X3585202Y331700D01*
X3585258Y331607D01*
X3585317Y331516D01*
X3585379Y331428D01*
X3585445Y331342D01*
X3585514Y331258D01*
X3585585Y331177D01*
X3585660Y331098D01*
X3585737Y331022D01*
X3585817Y330949D01*
X3585899Y330879D01*
X3585984Y330812D01*
X3586072Y330748D01*
X3586162Y330687D01*
X3586253Y330629D01*
X3586347Y330575D01*
X3586443Y330525D01*
X3586540Y330477D01*
X3586639Y330434D01*
X3586740Y330393D01*
X3586842Y330357D01*
X3586945Y330324D01*
X3587050Y330295D01*
X3587155Y330270D01*
X3587261Y330249D01*
X3587368Y330231D01*
X3587476Y330218D01*
X3587584Y330208D01*
X3587692Y330202D01*
X3587800Y330200D01*
X3594000Y330200D02*
X3594108Y330202D01*
X3594216Y330208D01*
X3594324Y330218D01*
X3594432Y330231D01*
X3594539Y330249D01*
X3594645Y330270D01*
X3594750Y330295D01*
X3594855Y330324D01*
X3594958Y330357D01*
X3595060Y330393D01*
X3595161Y330434D01*
X3595260Y330477D01*
X3595357Y330525D01*
X3595453Y330575D01*
X3595547Y330629D01*
X3595638Y330687D01*
X3595728Y330748D01*
X3595816Y330812D01*
X3595901Y330879D01*
X3595983Y330949D01*
X3596063Y331022D01*
X3596140Y331098D01*
X3596215Y331177D01*
X3596286Y331258D01*
X3596355Y331342D01*
X3596421Y331428D01*
X3596483Y331516D01*
X3596542Y331607D01*
X3596598Y331700D01*
X3596651Y331795D01*
X3596700Y331891D01*
X3596745Y331990D01*
X3596787Y332090D01*
X3596825Y332191D01*
X3596860Y332294D01*
X3596891Y332397D01*
X3596918Y332502D01*
X3596941Y332608D01*
X3596960Y332715D01*
X3596976Y332822D01*
X3596988Y332930D01*
X3596996Y333038D01*
X3597000Y333146D01*
X3597000Y333254D01*
X3596996Y333362D01*
X3596988Y333470D01*
X3596976Y333578D01*
X3596960Y333685D01*
X3596941Y333792D01*
X3596918Y333898D01*
X3596891Y334003D01*
X3596860Y334106D01*
X3596825Y334209D01*
X3596787Y334310D01*
X3596745Y334410D01*
X3596700Y334509D01*
X3596651Y334605D01*
X3596598Y334700D01*
X3596542Y334793D01*
X3596483Y334884D01*
X3596421Y334972D01*
X3596355Y335058D01*
X3596286Y335142D01*
X3596215Y335223D01*
X3596140Y335302D01*
X3596063Y335378D01*
X3595983Y335451D01*
X3595901Y335521D01*
X3595816Y335588D01*
X3595728Y335652D01*
X3595638Y335713D01*
X3595547Y335771D01*
X3595453Y335825D01*
X3595357Y335875D01*
X3595260Y335923D01*
X3595161Y335966D01*
X3595060Y336007D01*
X3594958Y336043D01*
X3594855Y336076D01*
X3594750Y336105D01*
X3594645Y336130D01*
X3594539Y336151D01*
X3594432Y336169D01*
X3594324Y336182D01*
X3594216Y336192D01*
X3594108Y336198D01*
X3594000Y336200D01*
X3554650Y330200D02*
X3543650Y330200D01*
X3543650Y336200D02*
X3554650Y336200D01*
X3554758Y336198D01*
X3554866Y336192D01*
X3554974Y336182D01*
X3555082Y336169D01*
X3555189Y336151D01*
X3555295Y336130D01*
X3555400Y336105D01*
X3555505Y336076D01*
X3555608Y336043D01*
X3555710Y336007D01*
X3555811Y335966D01*
X3555910Y335923D01*
X3556007Y335875D01*
X3556103Y335825D01*
X3556197Y335771D01*
X3556288Y335713D01*
X3556378Y335652D01*
X3556466Y335588D01*
X3556551Y335521D01*
X3556633Y335451D01*
X3556713Y335378D01*
X3556790Y335302D01*
X3556865Y335223D01*
X3556936Y335142D01*
X3557005Y335058D01*
X3557071Y334972D01*
X3557133Y334884D01*
X3557192Y334793D01*
X3557248Y334700D01*
X3557301Y334605D01*
X3557350Y334509D01*
X3557395Y334410D01*
X3557437Y334310D01*
X3557475Y334209D01*
X3557510Y334106D01*
X3557541Y334003D01*
X3557568Y333898D01*
X3557591Y333792D01*
X3557610Y333685D01*
X3557626Y333578D01*
X3557638Y333470D01*
X3557646Y333362D01*
X3557650Y333254D01*
X3557650Y333146D01*
X3557646Y333038D01*
X3557638Y332930D01*
X3557626Y332822D01*
X3557610Y332715D01*
X3557591Y332608D01*
X3557568Y332502D01*
X3557541Y332397D01*
X3557510Y332294D01*
X3557475Y332191D01*
X3557437Y332090D01*
X3557395Y331990D01*
X3557350Y331891D01*
X3557301Y331795D01*
X3557248Y331700D01*
X3557192Y331607D01*
X3557133Y331516D01*
X3557071Y331428D01*
X3557005Y331342D01*
X3556936Y331258D01*
X3556865Y331177D01*
X3556790Y331098D01*
X3556713Y331022D01*
X3556633Y330949D01*
X3556551Y330879D01*
X3556466Y330812D01*
X3556378Y330748D01*
X3556288Y330687D01*
X3556197Y330629D01*
X3556103Y330575D01*
X3556007Y330525D01*
X3555910Y330477D01*
X3555811Y330434D01*
X3555710Y330393D01*
X3555608Y330357D01*
X3555505Y330324D01*
X3555400Y330295D01*
X3555295Y330270D01*
X3555189Y330249D01*
X3555082Y330231D01*
X3554974Y330218D01*
X3554866Y330208D01*
X3554758Y330202D01*
X3554650Y330200D01*
X3543650Y330200D02*
X3543542Y330202D01*
X3543434Y330208D01*
X3543326Y330218D01*
X3543218Y330231D01*
X3543111Y330249D01*
X3543005Y330270D01*
X3542900Y330295D01*
X3542795Y330324D01*
X3542692Y330357D01*
X3542590Y330393D01*
X3542489Y330434D01*
X3542390Y330477D01*
X3542293Y330525D01*
X3542197Y330575D01*
X3542103Y330629D01*
X3542012Y330687D01*
X3541922Y330748D01*
X3541834Y330812D01*
X3541749Y330879D01*
X3541667Y330949D01*
X3541587Y331022D01*
X3541510Y331098D01*
X3541435Y331177D01*
X3541364Y331258D01*
X3541295Y331342D01*
X3541229Y331428D01*
X3541167Y331516D01*
X3541108Y331607D01*
X3541052Y331700D01*
X3540999Y331795D01*
X3540950Y331891D01*
X3540905Y331990D01*
X3540863Y332090D01*
X3540825Y332191D01*
X3540790Y332294D01*
X3540759Y332397D01*
X3540732Y332502D01*
X3540709Y332608D01*
X3540690Y332715D01*
X3540674Y332822D01*
X3540662Y332930D01*
X3540654Y333038D01*
X3540650Y333146D01*
X3540650Y333254D01*
X3540654Y333362D01*
X3540662Y333470D01*
X3540674Y333578D01*
X3540690Y333685D01*
X3540709Y333792D01*
X3540732Y333898D01*
X3540759Y334003D01*
X3540790Y334106D01*
X3540825Y334209D01*
X3540863Y334310D01*
X3540905Y334410D01*
X3540950Y334509D01*
X3540999Y334605D01*
X3541052Y334700D01*
X3541108Y334793D01*
X3541167Y334884D01*
X3541229Y334972D01*
X3541295Y335058D01*
X3541364Y335142D01*
X3541435Y335223D01*
X3541510Y335302D01*
X3541587Y335378D01*
X3541667Y335451D01*
X3541749Y335521D01*
X3541834Y335588D01*
X3541922Y335652D01*
X3542012Y335713D01*
X3542103Y335771D01*
X3542197Y335825D01*
X3542293Y335875D01*
X3542390Y335923D01*
X3542489Y335966D01*
X3542590Y336007D01*
X3542692Y336043D01*
X3542795Y336076D01*
X3542900Y336105D01*
X3543005Y336130D01*
X3543111Y336151D01*
X3543218Y336169D01*
X3543326Y336182D01*
X3543434Y336192D01*
X3543542Y336198D01*
X3543650Y336200D01*
D11*
X3583000Y470000D02*
X3583002Y470154D01*
X3583008Y470309D01*
X3583018Y470463D01*
X3583032Y470617D01*
X3583050Y470770D01*
X3583071Y470923D01*
X3583097Y471076D01*
X3583127Y471227D01*
X3583160Y471378D01*
X3583198Y471528D01*
X3583239Y471677D01*
X3583284Y471825D01*
X3583333Y471971D01*
X3583386Y472117D01*
X3583442Y472260D01*
X3583502Y472403D01*
X3583566Y472543D01*
X3583633Y472683D01*
X3583704Y472820D01*
X3583778Y472955D01*
X3583856Y473089D01*
X3583937Y473220D01*
X3584022Y473349D01*
X3584110Y473477D01*
X3584201Y473601D01*
X3584295Y473724D01*
X3584393Y473844D01*
X3584493Y473961D01*
X3584597Y474076D01*
X3584703Y474188D01*
X3584812Y474297D01*
X3584924Y474403D01*
X3585039Y474507D01*
X3585156Y474607D01*
X3585276Y474705D01*
X3585399Y474799D01*
X3585523Y474890D01*
X3585651Y474978D01*
X3585780Y475063D01*
X3585911Y475144D01*
X3586045Y475222D01*
X3586180Y475296D01*
X3586317Y475367D01*
X3586457Y475434D01*
X3586597Y475498D01*
X3586740Y475558D01*
X3586883Y475614D01*
X3587029Y475667D01*
X3587175Y475716D01*
X3587323Y475761D01*
X3587472Y475802D01*
X3587622Y475840D01*
X3587773Y475873D01*
X3587924Y475903D01*
X3588077Y475929D01*
X3588230Y475950D01*
X3588383Y475968D01*
X3588537Y475982D01*
X3588691Y475992D01*
X3588846Y475998D01*
X3589000Y476000D01*
X3589154Y475998D01*
X3589309Y475992D01*
X3589463Y475982D01*
X3589617Y475968D01*
X3589770Y475950D01*
X3589923Y475929D01*
X3590076Y475903D01*
X3590227Y475873D01*
X3590378Y475840D01*
X3590528Y475802D01*
X3590677Y475761D01*
X3590825Y475716D01*
X3590971Y475667D01*
X3591117Y475614D01*
X3591260Y475558D01*
X3591403Y475498D01*
X3591543Y475434D01*
X3591683Y475367D01*
X3591820Y475296D01*
X3591955Y475222D01*
X3592089Y475144D01*
X3592220Y475063D01*
X3592349Y474978D01*
X3592477Y474890D01*
X3592601Y474799D01*
X3592724Y474705D01*
X3592844Y474607D01*
X3592961Y474507D01*
X3593076Y474403D01*
X3593188Y474297D01*
X3593297Y474188D01*
X3593403Y474076D01*
X3593507Y473961D01*
X3593607Y473844D01*
X3593705Y473724D01*
X3593799Y473601D01*
X3593890Y473477D01*
X3593978Y473349D01*
X3594063Y473220D01*
X3594144Y473089D01*
X3594222Y472955D01*
X3594296Y472820D01*
X3594367Y472683D01*
X3594434Y472543D01*
X3594498Y472403D01*
X3594558Y472260D01*
X3594614Y472117D01*
X3594667Y471971D01*
X3594716Y471825D01*
X3594761Y471677D01*
X3594802Y471528D01*
X3594840Y471378D01*
X3594873Y471227D01*
X3594903Y471076D01*
X3594929Y470923D01*
X3594950Y470770D01*
X3594968Y470617D01*
X3594982Y470463D01*
X3594992Y470309D01*
X3594998Y470154D01*
X3595000Y470000D01*
X3594998Y469846D01*
X3594992Y469691D01*
X3594982Y469537D01*
X3594968Y469383D01*
X3594950Y469230D01*
X3594929Y469077D01*
X3594903Y468924D01*
X3594873Y468773D01*
X3594840Y468622D01*
X3594802Y468472D01*
X3594761Y468323D01*
X3594716Y468175D01*
X3594667Y468029D01*
X3594614Y467883D01*
X3594558Y467740D01*
X3594498Y467597D01*
X3594434Y467457D01*
X3594367Y467317D01*
X3594296Y467180D01*
X3594222Y467045D01*
X3594144Y466911D01*
X3594063Y466780D01*
X3593978Y466651D01*
X3593890Y466523D01*
X3593799Y466399D01*
X3593705Y466276D01*
X3593607Y466156D01*
X3593507Y466039D01*
X3593403Y465924D01*
X3593297Y465812D01*
X3593188Y465703D01*
X3593076Y465597D01*
X3592961Y465493D01*
X3592844Y465393D01*
X3592724Y465295D01*
X3592601Y465201D01*
X3592477Y465110D01*
X3592349Y465022D01*
X3592220Y464937D01*
X3592089Y464856D01*
X3591955Y464778D01*
X3591820Y464704D01*
X3591683Y464633D01*
X3591543Y464566D01*
X3591403Y464502D01*
X3591260Y464442D01*
X3591117Y464386D01*
X3590971Y464333D01*
X3590825Y464284D01*
X3590677Y464239D01*
X3590528Y464198D01*
X3590378Y464160D01*
X3590227Y464127D01*
X3590076Y464097D01*
X3589923Y464071D01*
X3589770Y464050D01*
X3589617Y464032D01*
X3589463Y464018D01*
X3589309Y464008D01*
X3589154Y464002D01*
X3589000Y464000D01*
X3588846Y464002D01*
X3588691Y464008D01*
X3588537Y464018D01*
X3588383Y464032D01*
X3588230Y464050D01*
X3588077Y464071D01*
X3587924Y464097D01*
X3587773Y464127D01*
X3587622Y464160D01*
X3587472Y464198D01*
X3587323Y464239D01*
X3587175Y464284D01*
X3587029Y464333D01*
X3586883Y464386D01*
X3586740Y464442D01*
X3586597Y464502D01*
X3586457Y464566D01*
X3586317Y464633D01*
X3586180Y464704D01*
X3586045Y464778D01*
X3585911Y464856D01*
X3585780Y464937D01*
X3585651Y465022D01*
X3585523Y465110D01*
X3585399Y465201D01*
X3585276Y465295D01*
X3585156Y465393D01*
X3585039Y465493D01*
X3584924Y465597D01*
X3584812Y465703D01*
X3584703Y465812D01*
X3584597Y465924D01*
X3584493Y466039D01*
X3584393Y466156D01*
X3584295Y466276D01*
X3584201Y466399D01*
X3584110Y466523D01*
X3584022Y466651D01*
X3583937Y466780D01*
X3583856Y466911D01*
X3583778Y467045D01*
X3583704Y467180D01*
X3583633Y467317D01*
X3583566Y467457D01*
X3583502Y467597D01*
X3583442Y467740D01*
X3583386Y467883D01*
X3583333Y468029D01*
X3583284Y468175D01*
X3583239Y468323D01*
X3583198Y468472D01*
X3583160Y468622D01*
X3583127Y468773D01*
X3583097Y468924D01*
X3583071Y469077D01*
X3583050Y469230D01*
X3583032Y469383D01*
X3583018Y469537D01*
X3583008Y469691D01*
X3583002Y469846D01*
X3583000Y470000D01*
X3513000Y470000D02*
X3513002Y470154D01*
X3513008Y470309D01*
X3513018Y470463D01*
X3513032Y470617D01*
X3513050Y470770D01*
X3513071Y470923D01*
X3513097Y471076D01*
X3513127Y471227D01*
X3513160Y471378D01*
X3513198Y471528D01*
X3513239Y471677D01*
X3513284Y471825D01*
X3513333Y471971D01*
X3513386Y472117D01*
X3513442Y472260D01*
X3513502Y472403D01*
X3513566Y472543D01*
X3513633Y472683D01*
X3513704Y472820D01*
X3513778Y472955D01*
X3513856Y473089D01*
X3513937Y473220D01*
X3514022Y473349D01*
X3514110Y473477D01*
X3514201Y473601D01*
X3514295Y473724D01*
X3514393Y473844D01*
X3514493Y473961D01*
X3514597Y474076D01*
X3514703Y474188D01*
X3514812Y474297D01*
X3514924Y474403D01*
X3515039Y474507D01*
X3515156Y474607D01*
X3515276Y474705D01*
X3515399Y474799D01*
X3515523Y474890D01*
X3515651Y474978D01*
X3515780Y475063D01*
X3515911Y475144D01*
X3516045Y475222D01*
X3516180Y475296D01*
X3516317Y475367D01*
X3516457Y475434D01*
X3516597Y475498D01*
X3516740Y475558D01*
X3516883Y475614D01*
X3517029Y475667D01*
X3517175Y475716D01*
X3517323Y475761D01*
X3517472Y475802D01*
X3517622Y475840D01*
X3517773Y475873D01*
X3517924Y475903D01*
X3518077Y475929D01*
X3518230Y475950D01*
X3518383Y475968D01*
X3518537Y475982D01*
X3518691Y475992D01*
X3518846Y475998D01*
X3519000Y476000D01*
X3519154Y475998D01*
X3519309Y475992D01*
X3519463Y475982D01*
X3519617Y475968D01*
X3519770Y475950D01*
X3519923Y475929D01*
X3520076Y475903D01*
X3520227Y475873D01*
X3520378Y475840D01*
X3520528Y475802D01*
X3520677Y475761D01*
X3520825Y475716D01*
X3520971Y475667D01*
X3521117Y475614D01*
X3521260Y475558D01*
X3521403Y475498D01*
X3521543Y475434D01*
X3521683Y475367D01*
X3521820Y475296D01*
X3521955Y475222D01*
X3522089Y475144D01*
X3522220Y475063D01*
X3522349Y474978D01*
X3522477Y474890D01*
X3522601Y474799D01*
X3522724Y474705D01*
X3522844Y474607D01*
X3522961Y474507D01*
X3523076Y474403D01*
X3523188Y474297D01*
X3523297Y474188D01*
X3523403Y474076D01*
X3523507Y473961D01*
X3523607Y473844D01*
X3523705Y473724D01*
X3523799Y473601D01*
X3523890Y473477D01*
X3523978Y473349D01*
X3524063Y473220D01*
X3524144Y473089D01*
X3524222Y472955D01*
X3524296Y472820D01*
X3524367Y472683D01*
X3524434Y472543D01*
X3524498Y472403D01*
X3524558Y472260D01*
X3524614Y472117D01*
X3524667Y471971D01*
X3524716Y471825D01*
X3524761Y471677D01*
X3524802Y471528D01*
X3524840Y471378D01*
X3524873Y471227D01*
X3524903Y471076D01*
X3524929Y470923D01*
X3524950Y470770D01*
X3524968Y470617D01*
X3524982Y470463D01*
X3524992Y470309D01*
X3524998Y470154D01*
X3525000Y470000D01*
X3524998Y469846D01*
X3524992Y469691D01*
X3524982Y469537D01*
X3524968Y469383D01*
X3524950Y469230D01*
X3524929Y469077D01*
X3524903Y468924D01*
X3524873Y468773D01*
X3524840Y468622D01*
X3524802Y468472D01*
X3524761Y468323D01*
X3524716Y468175D01*
X3524667Y468029D01*
X3524614Y467883D01*
X3524558Y467740D01*
X3524498Y467597D01*
X3524434Y467457D01*
X3524367Y467317D01*
X3524296Y467180D01*
X3524222Y467045D01*
X3524144Y466911D01*
X3524063Y466780D01*
X3523978Y466651D01*
X3523890Y466523D01*
X3523799Y466399D01*
X3523705Y466276D01*
X3523607Y466156D01*
X3523507Y466039D01*
X3523403Y465924D01*
X3523297Y465812D01*
X3523188Y465703D01*
X3523076Y465597D01*
X3522961Y465493D01*
X3522844Y465393D01*
X3522724Y465295D01*
X3522601Y465201D01*
X3522477Y465110D01*
X3522349Y465022D01*
X3522220Y464937D01*
X3522089Y464856D01*
X3521955Y464778D01*
X3521820Y464704D01*
X3521683Y464633D01*
X3521543Y464566D01*
X3521403Y464502D01*
X3521260Y464442D01*
X3521117Y464386D01*
X3520971Y464333D01*
X3520825Y464284D01*
X3520677Y464239D01*
X3520528Y464198D01*
X3520378Y464160D01*
X3520227Y464127D01*
X3520076Y464097D01*
X3519923Y464071D01*
X3519770Y464050D01*
X3519617Y464032D01*
X3519463Y464018D01*
X3519309Y464008D01*
X3519154Y464002D01*
X3519000Y464000D01*
X3518846Y464002D01*
X3518691Y464008D01*
X3518537Y464018D01*
X3518383Y464032D01*
X3518230Y464050D01*
X3518077Y464071D01*
X3517924Y464097D01*
X3517773Y464127D01*
X3517622Y464160D01*
X3517472Y464198D01*
X3517323Y464239D01*
X3517175Y464284D01*
X3517029Y464333D01*
X3516883Y464386D01*
X3516740Y464442D01*
X3516597Y464502D01*
X3516457Y464566D01*
X3516317Y464633D01*
X3516180Y464704D01*
X3516045Y464778D01*
X3515911Y464856D01*
X3515780Y464937D01*
X3515651Y465022D01*
X3515523Y465110D01*
X3515399Y465201D01*
X3515276Y465295D01*
X3515156Y465393D01*
X3515039Y465493D01*
X3514924Y465597D01*
X3514812Y465703D01*
X3514703Y465812D01*
X3514597Y465924D01*
X3514493Y466039D01*
X3514393Y466156D01*
X3514295Y466276D01*
X3514201Y466399D01*
X3514110Y466523D01*
X3514022Y466651D01*
X3513937Y466780D01*
X3513856Y466911D01*
X3513778Y467045D01*
X3513704Y467180D01*
X3513633Y467317D01*
X3513566Y467457D01*
X3513502Y467597D01*
X3513442Y467740D01*
X3513386Y467883D01*
X3513333Y468029D01*
X3513284Y468175D01*
X3513239Y468323D01*
X3513198Y468472D01*
X3513160Y468622D01*
X3513127Y468773D01*
X3513097Y468924D01*
X3513071Y469077D01*
X3513050Y469230D01*
X3513032Y469383D01*
X3513018Y469537D01*
X3513008Y469691D01*
X3513002Y469846D01*
X3513000Y470000D01*
X231800Y140000D02*
X231802Y140134D01*
X231808Y140268D01*
X231818Y140401D01*
X231832Y140535D01*
X231850Y140668D01*
X231872Y140800D01*
X231897Y140931D01*
X231927Y141062D01*
X231961Y141192D01*
X231998Y141320D01*
X232039Y141448D01*
X232084Y141574D01*
X232133Y141699D01*
X232185Y141822D01*
X232241Y141944D01*
X232301Y142064D01*
X232364Y142182D01*
X232431Y142298D01*
X232501Y142412D01*
X232575Y142524D01*
X232652Y142634D01*
X232732Y142742D01*
X232815Y142847D01*
X232901Y142949D01*
X232990Y143049D01*
X233083Y143146D01*
X233178Y143241D01*
X233276Y143332D01*
X233376Y143421D01*
X233479Y143506D01*
X233585Y143589D01*
X233693Y143668D01*
X233803Y143744D01*
X233916Y143817D01*
X234031Y143886D01*
X234147Y143952D01*
X234266Y144014D01*
X234386Y144073D01*
X234509Y144128D01*
X234632Y144180D01*
X234757Y144227D01*
X234884Y144271D01*
X235012Y144312D01*
X235141Y144348D01*
X235271Y144381D01*
X235402Y144409D01*
X235533Y144434D01*
X235666Y144455D01*
X235799Y144472D01*
X235932Y144485D01*
X236066Y144494D01*
X236200Y144499D01*
X236334Y144500D01*
X236467Y144497D01*
X236601Y144490D01*
X236735Y144479D01*
X236868Y144464D01*
X237001Y144445D01*
X237133Y144422D01*
X237264Y144396D01*
X237394Y144365D01*
X237524Y144330D01*
X237652Y144292D01*
X237779Y144250D01*
X237905Y144204D01*
X238030Y144154D01*
X238153Y144101D01*
X238274Y144044D01*
X238394Y143983D01*
X238511Y143919D01*
X238627Y143852D01*
X238741Y143781D01*
X238852Y143706D01*
X238961Y143629D01*
X239068Y143548D01*
X239173Y143464D01*
X239274Y143377D01*
X239374Y143287D01*
X239470Y143194D01*
X239564Y143098D01*
X239655Y142999D01*
X239742Y142898D01*
X239827Y142794D01*
X239909Y142688D01*
X239987Y142580D01*
X240062Y142469D01*
X240134Y142356D01*
X240203Y142240D01*
X240268Y142123D01*
X240329Y142004D01*
X240387Y141883D01*
X240441Y141761D01*
X240492Y141637D01*
X240539Y141511D01*
X240582Y141384D01*
X240621Y141256D01*
X240657Y141127D01*
X240688Y140997D01*
X240716Y140866D01*
X240740Y140734D01*
X240760Y140601D01*
X240776Y140468D01*
X240788Y140335D01*
X240796Y140201D01*
X240800Y140067D01*
X240800Y139933D01*
X240796Y139799D01*
X240788Y139665D01*
X240776Y139532D01*
X240760Y139399D01*
X240740Y139266D01*
X240716Y139134D01*
X240688Y139003D01*
X240657Y138873D01*
X240621Y138744D01*
X240582Y138616D01*
X240539Y138489D01*
X240492Y138363D01*
X240441Y138239D01*
X240387Y138117D01*
X240329Y137996D01*
X240268Y137877D01*
X240203Y137760D01*
X240134Y137644D01*
X240062Y137531D01*
X239987Y137420D01*
X239909Y137312D01*
X239827Y137206D01*
X239742Y137102D01*
X239655Y137001D01*
X239564Y136902D01*
X239470Y136806D01*
X239374Y136713D01*
X239274Y136623D01*
X239173Y136536D01*
X239068Y136452D01*
X238961Y136371D01*
X238852Y136294D01*
X238741Y136219D01*
X238627Y136148D01*
X238511Y136081D01*
X238394Y136017D01*
X238274Y135956D01*
X238153Y135899D01*
X238030Y135846D01*
X237905Y135796D01*
X237779Y135750D01*
X237652Y135708D01*
X237524Y135670D01*
X237394Y135635D01*
X237264Y135604D01*
X237133Y135578D01*
X237001Y135555D01*
X236868Y135536D01*
X236735Y135521D01*
X236601Y135510D01*
X236467Y135503D01*
X236334Y135500D01*
X236200Y135501D01*
X236066Y135506D01*
X235932Y135515D01*
X235799Y135528D01*
X235666Y135545D01*
X235533Y135566D01*
X235402Y135591D01*
X235271Y135619D01*
X235141Y135652D01*
X235012Y135688D01*
X234884Y135729D01*
X234757Y135773D01*
X234632Y135820D01*
X234509Y135872D01*
X234386Y135927D01*
X234266Y135986D01*
X234147Y136048D01*
X234031Y136114D01*
X233916Y136183D01*
X233803Y136256D01*
X233693Y136332D01*
X233585Y136411D01*
X233479Y136494D01*
X233376Y136579D01*
X233276Y136668D01*
X233178Y136759D01*
X233083Y136854D01*
X232990Y136951D01*
X232901Y137051D01*
X232815Y137153D01*
X232732Y137258D01*
X232652Y137366D01*
X232575Y137476D01*
X232501Y137588D01*
X232431Y137702D01*
X232364Y137818D01*
X232301Y137936D01*
X232241Y138056D01*
X232185Y138178D01*
X232133Y138301D01*
X232084Y138426D01*
X232039Y138552D01*
X231998Y138680D01*
X231961Y138808D01*
X231927Y138938D01*
X231897Y139069D01*
X231872Y139200D01*
X231850Y139332D01*
X231832Y139465D01*
X231818Y139599D01*
X231808Y139732D01*
X231802Y139866D01*
X231800Y140000D01*
X1913490Y2100000D02*
X1913495Y2100405D01*
X1913510Y2100810D01*
X1913535Y2101215D01*
X1913570Y2101618D01*
X1913614Y2102021D01*
X1913669Y2102423D01*
X1913733Y2102823D01*
X1913807Y2103221D01*
X1913891Y2103617D01*
X1913985Y2104012D01*
X1914088Y2104403D01*
X1914201Y2104793D01*
X1914323Y2105179D01*
X1914455Y2105562D01*
X1914596Y2105942D01*
X1914747Y2106318D01*
X1914906Y2106691D01*
X1915075Y2107059D01*
X1915253Y2107423D01*
X1915439Y2107783D01*
X1915635Y2108138D01*
X1915839Y2108488D01*
X1916051Y2108833D01*
X1916272Y2109172D01*
X1916502Y2109507D01*
X1916739Y2109835D01*
X1916984Y2110157D01*
X1917238Y2110474D01*
X1917498Y2110784D01*
X1917767Y2111087D01*
X1918043Y2111384D01*
X1918326Y2111674D01*
X1918616Y2111957D01*
X1918913Y2112233D01*
X1919216Y2112502D01*
X1919526Y2112762D01*
X1919843Y2113016D01*
X1920165Y2113261D01*
X1920493Y2113498D01*
X1920828Y2113728D01*
X1921167Y2113949D01*
X1921512Y2114161D01*
X1921862Y2114365D01*
X1922217Y2114561D01*
X1922577Y2114747D01*
X1922941Y2114925D01*
X1923309Y2115094D01*
X1923682Y2115253D01*
X1924058Y2115404D01*
X1924438Y2115545D01*
X1924821Y2115677D01*
X1925207Y2115799D01*
X1925597Y2115912D01*
X1925988Y2116015D01*
X1926383Y2116109D01*
X1926779Y2116193D01*
X1927177Y2116267D01*
X1927577Y2116331D01*
X1927979Y2116386D01*
X1928382Y2116430D01*
X1928785Y2116465D01*
X1929190Y2116490D01*
X1929595Y2116505D01*
X1930000Y2116510D01*
X1930405Y2116505D01*
X1930810Y2116490D01*
X1931215Y2116465D01*
X1931618Y2116430D01*
X1932021Y2116386D01*
X1932423Y2116331D01*
X1932823Y2116267D01*
X1933221Y2116193D01*
X1933617Y2116109D01*
X1934012Y2116015D01*
X1934403Y2115912D01*
X1934793Y2115799D01*
X1935179Y2115677D01*
X1935562Y2115545D01*
X1935942Y2115404D01*
X1936318Y2115253D01*
X1936691Y2115094D01*
X1937059Y2114925D01*
X1937423Y2114747D01*
X1937783Y2114561D01*
X1938138Y2114365D01*
X1938488Y2114161D01*
X1938833Y2113949D01*
X1939172Y2113728D01*
X1939507Y2113498D01*
X1939835Y2113261D01*
X1940157Y2113016D01*
X1940474Y2112762D01*
X1940784Y2112502D01*
X1941087Y2112233D01*
X1941384Y2111957D01*
X1941674Y2111674D01*
X1941957Y2111384D01*
X1942233Y2111087D01*
X1942502Y2110784D01*
X1942762Y2110474D01*
X1943016Y2110157D01*
X1943261Y2109835D01*
X1943498Y2109507D01*
X1943728Y2109172D01*
X1943949Y2108833D01*
X1944161Y2108488D01*
X1944365Y2108138D01*
X1944561Y2107783D01*
X1944747Y2107423D01*
X1944925Y2107059D01*
X1945094Y2106691D01*
X1945253Y2106318D01*
X1945404Y2105942D01*
X1945545Y2105562D01*
X1945677Y2105179D01*
X1945799Y2104793D01*
X1945912Y2104403D01*
X1946015Y2104012D01*
X1946109Y2103617D01*
X1946193Y2103221D01*
X1946267Y2102823D01*
X1946331Y2102423D01*
X1946386Y2102021D01*
X1946430Y2101618D01*
X1946465Y2101215D01*
X1946490Y2100810D01*
X1946505Y2100405D01*
X1946510Y2100000D01*
X1946505Y2099595D01*
X1946490Y2099190D01*
X1946465Y2098785D01*
X1946430Y2098382D01*
X1946386Y2097979D01*
X1946331Y2097577D01*
X1946267Y2097177D01*
X1946193Y2096779D01*
X1946109Y2096383D01*
X1946015Y2095988D01*
X1945912Y2095597D01*
X1945799Y2095207D01*
X1945677Y2094821D01*
X1945545Y2094438D01*
X1945404Y2094058D01*
X1945253Y2093682D01*
X1945094Y2093309D01*
X1944925Y2092941D01*
X1944747Y2092577D01*
X1944561Y2092217D01*
X1944365Y2091862D01*
X1944161Y2091512D01*
X1943949Y2091167D01*
X1943728Y2090828D01*
X1943498Y2090493D01*
X1943261Y2090165D01*
X1943016Y2089843D01*
X1942762Y2089526D01*
X1942502Y2089216D01*
X1942233Y2088913D01*
X1941957Y2088616D01*
X1941674Y2088326D01*
X1941384Y2088043D01*
X1941087Y2087767D01*
X1940784Y2087498D01*
X1940474Y2087238D01*
X1940157Y2086984D01*
X1939835Y2086739D01*
X1939507Y2086502D01*
X1939172Y2086272D01*
X1938833Y2086051D01*
X1938488Y2085839D01*
X1938138Y2085635D01*
X1937783Y2085439D01*
X1937423Y2085253D01*
X1937059Y2085075D01*
X1936691Y2084906D01*
X1936318Y2084747D01*
X1935942Y2084596D01*
X1935562Y2084455D01*
X1935179Y2084323D01*
X1934793Y2084201D01*
X1934403Y2084088D01*
X1934012Y2083985D01*
X1933617Y2083891D01*
X1933221Y2083807D01*
X1932823Y2083733D01*
X1932423Y2083669D01*
X1932021Y2083614D01*
X1931618Y2083570D01*
X1931215Y2083535D01*
X1930810Y2083510D01*
X1930405Y2083495D01*
X1930000Y2083490D01*
X1929595Y2083495D01*
X1929190Y2083510D01*
X1928785Y2083535D01*
X1928382Y2083570D01*
X1927979Y2083614D01*
X1927577Y2083669D01*
X1927177Y2083733D01*
X1926779Y2083807D01*
X1926383Y2083891D01*
X1925988Y2083985D01*
X1925597Y2084088D01*
X1925207Y2084201D01*
X1924821Y2084323D01*
X1924438Y2084455D01*
X1924058Y2084596D01*
X1923682Y2084747D01*
X1923309Y2084906D01*
X1922941Y2085075D01*
X1922577Y2085253D01*
X1922217Y2085439D01*
X1921862Y2085635D01*
X1921512Y2085839D01*
X1921167Y2086051D01*
X1920828Y2086272D01*
X1920493Y2086502D01*
X1920165Y2086739D01*
X1919843Y2086984D01*
X1919526Y2087238D01*
X1919216Y2087498D01*
X1918913Y2087767D01*
X1918616Y2088043D01*
X1918326Y2088326D01*
X1918043Y2088616D01*
X1917767Y2088913D01*
X1917498Y2089216D01*
X1917238Y2089526D01*
X1916984Y2089843D01*
X1916739Y2090165D01*
X1916502Y2090493D01*
X1916272Y2090828D01*
X1916051Y2091167D01*
X1915839Y2091512D01*
X1915635Y2091862D01*
X1915439Y2092217D01*
X1915253Y2092577D01*
X1915075Y2092941D01*
X1914906Y2093309D01*
X1914747Y2093682D01*
X1914596Y2094058D01*
X1914455Y2094438D01*
X1914323Y2094821D01*
X1914201Y2095207D01*
X1914088Y2095597D01*
X1913985Y2095988D01*
X1913891Y2096383D01*
X1913807Y2096779D01*
X1913733Y2097177D01*
X1913669Y2097577D01*
X1913614Y2097979D01*
X1913570Y2098382D01*
X1913535Y2098785D01*
X1913510Y2099190D01*
X1913495Y2099595D01*
X1913490Y2100000D01*
X1558490Y75000D02*
X1558495Y75405D01*
X1558510Y75810D01*
X1558535Y76215D01*
X1558570Y76618D01*
X1558614Y77021D01*
X1558669Y77423D01*
X1558733Y77823D01*
X1558807Y78221D01*
X1558891Y78617D01*
X1558985Y79012D01*
X1559088Y79403D01*
X1559201Y79793D01*
X1559323Y80179D01*
X1559455Y80562D01*
X1559596Y80942D01*
X1559747Y81318D01*
X1559906Y81691D01*
X1560075Y82059D01*
X1560253Y82423D01*
X1560439Y82783D01*
X1560635Y83138D01*
X1560839Y83488D01*
X1561051Y83833D01*
X1561272Y84172D01*
X1561502Y84507D01*
X1561739Y84835D01*
X1561984Y85157D01*
X1562238Y85474D01*
X1562498Y85784D01*
X1562767Y86087D01*
X1563043Y86384D01*
X1563326Y86674D01*
X1563616Y86957D01*
X1563913Y87233D01*
X1564216Y87502D01*
X1564526Y87762D01*
X1564843Y88016D01*
X1565165Y88261D01*
X1565493Y88498D01*
X1565828Y88728D01*
X1566167Y88949D01*
X1566512Y89161D01*
X1566862Y89365D01*
X1567217Y89561D01*
X1567577Y89747D01*
X1567941Y89925D01*
X1568309Y90094D01*
X1568682Y90253D01*
X1569058Y90404D01*
X1569438Y90545D01*
X1569821Y90677D01*
X1570207Y90799D01*
X1570597Y90912D01*
X1570988Y91015D01*
X1571383Y91109D01*
X1571779Y91193D01*
X1572177Y91267D01*
X1572577Y91331D01*
X1572979Y91386D01*
X1573382Y91430D01*
X1573785Y91465D01*
X1574190Y91490D01*
X1574595Y91505D01*
X1575000Y91510D01*
X1575405Y91505D01*
X1575810Y91490D01*
X1576215Y91465D01*
X1576618Y91430D01*
X1577021Y91386D01*
X1577423Y91331D01*
X1577823Y91267D01*
X1578221Y91193D01*
X1578617Y91109D01*
X1579012Y91015D01*
X1579403Y90912D01*
X1579793Y90799D01*
X1580179Y90677D01*
X1580562Y90545D01*
X1580942Y90404D01*
X1581318Y90253D01*
X1581691Y90094D01*
X1582059Y89925D01*
X1582423Y89747D01*
X1582783Y89561D01*
X1583138Y89365D01*
X1583488Y89161D01*
X1583833Y88949D01*
X1584172Y88728D01*
X1584507Y88498D01*
X1584835Y88261D01*
X1585157Y88016D01*
X1585474Y87762D01*
X1585784Y87502D01*
X1586087Y87233D01*
X1586384Y86957D01*
X1586674Y86674D01*
X1586957Y86384D01*
X1587233Y86087D01*
X1587502Y85784D01*
X1587762Y85474D01*
X1588016Y85157D01*
X1588261Y84835D01*
X1588498Y84507D01*
X1588728Y84172D01*
X1588949Y83833D01*
X1589161Y83488D01*
X1589365Y83138D01*
X1589561Y82783D01*
X1589747Y82423D01*
X1589925Y82059D01*
X1590094Y81691D01*
X1590253Y81318D01*
X1590404Y80942D01*
X1590545Y80562D01*
X1590677Y80179D01*
X1590799Y79793D01*
X1590912Y79403D01*
X1591015Y79012D01*
X1591109Y78617D01*
X1591193Y78221D01*
X1591267Y77823D01*
X1591331Y77423D01*
X1591386Y77021D01*
X1591430Y76618D01*
X1591465Y76215D01*
X1591490Y75810D01*
X1591505Y75405D01*
X1591510Y75000D01*
X1591505Y74595D01*
X1591490Y74190D01*
X1591465Y73785D01*
X1591430Y73382D01*
X1591386Y72979D01*
X1591331Y72577D01*
X1591267Y72177D01*
X1591193Y71779D01*
X1591109Y71383D01*
X1591015Y70988D01*
X1590912Y70597D01*
X1590799Y70207D01*
X1590677Y69821D01*
X1590545Y69438D01*
X1590404Y69058D01*
X1590253Y68682D01*
X1590094Y68309D01*
X1589925Y67941D01*
X1589747Y67577D01*
X1589561Y67217D01*
X1589365Y66862D01*
X1589161Y66512D01*
X1588949Y66167D01*
X1588728Y65828D01*
X1588498Y65493D01*
X1588261Y65165D01*
X1588016Y64843D01*
X1587762Y64526D01*
X1587502Y64216D01*
X1587233Y63913D01*
X1586957Y63616D01*
X1586674Y63326D01*
X1586384Y63043D01*
X1586087Y62767D01*
X1585784Y62498D01*
X1585474Y62238D01*
X1585157Y61984D01*
X1584835Y61739D01*
X1584507Y61502D01*
X1584172Y61272D01*
X1583833Y61051D01*
X1583488Y60839D01*
X1583138Y60635D01*
X1582783Y60439D01*
X1582423Y60253D01*
X1582059Y60075D01*
X1581691Y59906D01*
X1581318Y59747D01*
X1580942Y59596D01*
X1580562Y59455D01*
X1580179Y59323D01*
X1579793Y59201D01*
X1579403Y59088D01*
X1579012Y58985D01*
X1578617Y58891D01*
X1578221Y58807D01*
X1577823Y58733D01*
X1577423Y58669D01*
X1577021Y58614D01*
X1576618Y58570D01*
X1576215Y58535D01*
X1575810Y58510D01*
X1575405Y58495D01*
X1575000Y58490D01*
X1574595Y58495D01*
X1574190Y58510D01*
X1573785Y58535D01*
X1573382Y58570D01*
X1572979Y58614D01*
X1572577Y58669D01*
X1572177Y58733D01*
X1571779Y58807D01*
X1571383Y58891D01*
X1570988Y58985D01*
X1570597Y59088D01*
X1570207Y59201D01*
X1569821Y59323D01*
X1569438Y59455D01*
X1569058Y59596D01*
X1568682Y59747D01*
X1568309Y59906D01*
X1567941Y60075D01*
X1567577Y60253D01*
X1567217Y60439D01*
X1566862Y60635D01*
X1566512Y60839D01*
X1566167Y61051D01*
X1565828Y61272D01*
X1565493Y61502D01*
X1565165Y61739D01*
X1564843Y61984D01*
X1564526Y62238D01*
X1564216Y62498D01*
X1563913Y62767D01*
X1563616Y63043D01*
X1563326Y63326D01*
X1563043Y63616D01*
X1562767Y63913D01*
X1562498Y64216D01*
X1562238Y64526D01*
X1561984Y64843D01*
X1561739Y65165D01*
X1561502Y65493D01*
X1561272Y65828D01*
X1561051Y66167D01*
X1560839Y66512D01*
X1560635Y66862D01*
X1560439Y67217D01*
X1560253Y67577D01*
X1560075Y67941D01*
X1559906Y68309D01*
X1559747Y68682D01*
X1559596Y69058D01*
X1559455Y69438D01*
X1559323Y69821D01*
X1559201Y70207D01*
X1559088Y70597D01*
X1558985Y70988D01*
X1558891Y71383D01*
X1558807Y71779D01*
X1558733Y72177D01*
X1558669Y72577D01*
X1558614Y72979D01*
X1558570Y73382D01*
X1558535Y73785D01*
X1558510Y74190D01*
X1558495Y74595D01*
X1558490Y75000D01*
X3413490Y2100000D02*
X3413495Y2100405D01*
X3413510Y2100810D01*
X3413535Y2101215D01*
X3413570Y2101618D01*
X3413614Y2102021D01*
X3413669Y2102423D01*
X3413733Y2102823D01*
X3413807Y2103221D01*
X3413891Y2103617D01*
X3413985Y2104012D01*
X3414088Y2104403D01*
X3414201Y2104793D01*
X3414323Y2105179D01*
X3414455Y2105562D01*
X3414596Y2105942D01*
X3414747Y2106318D01*
X3414906Y2106691D01*
X3415075Y2107059D01*
X3415253Y2107423D01*
X3415439Y2107783D01*
X3415635Y2108138D01*
X3415839Y2108488D01*
X3416051Y2108833D01*
X3416272Y2109172D01*
X3416502Y2109507D01*
X3416739Y2109835D01*
X3416984Y2110157D01*
X3417238Y2110474D01*
X3417498Y2110784D01*
X3417767Y2111087D01*
X3418043Y2111384D01*
X3418326Y2111674D01*
X3418616Y2111957D01*
X3418913Y2112233D01*
X3419216Y2112502D01*
X3419526Y2112762D01*
X3419843Y2113016D01*
X3420165Y2113261D01*
X3420493Y2113498D01*
X3420828Y2113728D01*
X3421167Y2113949D01*
X3421512Y2114161D01*
X3421862Y2114365D01*
X3422217Y2114561D01*
X3422577Y2114747D01*
X3422941Y2114925D01*
X3423309Y2115094D01*
X3423682Y2115253D01*
X3424058Y2115404D01*
X3424438Y2115545D01*
X3424821Y2115677D01*
X3425207Y2115799D01*
X3425597Y2115912D01*
X3425988Y2116015D01*
X3426383Y2116109D01*
X3426779Y2116193D01*
X3427177Y2116267D01*
X3427577Y2116331D01*
X3427979Y2116386D01*
X3428382Y2116430D01*
X3428785Y2116465D01*
X3429190Y2116490D01*
X3429595Y2116505D01*
X3430000Y2116510D01*
X3430405Y2116505D01*
X3430810Y2116490D01*
X3431215Y2116465D01*
X3431618Y2116430D01*
X3432021Y2116386D01*
X3432423Y2116331D01*
X3432823Y2116267D01*
X3433221Y2116193D01*
X3433617Y2116109D01*
X3434012Y2116015D01*
X3434403Y2115912D01*
X3434793Y2115799D01*
X3435179Y2115677D01*
X3435562Y2115545D01*
X3435942Y2115404D01*
X3436318Y2115253D01*
X3436691Y2115094D01*
X3437059Y2114925D01*
X3437423Y2114747D01*
X3437783Y2114561D01*
X3438138Y2114365D01*
X3438488Y2114161D01*
X3438833Y2113949D01*
X3439172Y2113728D01*
X3439507Y2113498D01*
X3439835Y2113261D01*
X3440157Y2113016D01*
X3440474Y2112762D01*
X3440784Y2112502D01*
X3441087Y2112233D01*
X3441384Y2111957D01*
X3441674Y2111674D01*
X3441957Y2111384D01*
X3442233Y2111087D01*
X3442502Y2110784D01*
X3442762Y2110474D01*
X3443016Y2110157D01*
X3443261Y2109835D01*
X3443498Y2109507D01*
X3443728Y2109172D01*
X3443949Y2108833D01*
X3444161Y2108488D01*
X3444365Y2108138D01*
X3444561Y2107783D01*
X3444747Y2107423D01*
X3444925Y2107059D01*
X3445094Y2106691D01*
X3445253Y2106318D01*
X3445404Y2105942D01*
X3445545Y2105562D01*
X3445677Y2105179D01*
X3445799Y2104793D01*
X3445912Y2104403D01*
X3446015Y2104012D01*
X3446109Y2103617D01*
X3446193Y2103221D01*
X3446267Y2102823D01*
X3446331Y2102423D01*
X3446386Y2102021D01*
X3446430Y2101618D01*
X3446465Y2101215D01*
X3446490Y2100810D01*
X3446505Y2100405D01*
X3446510Y2100000D01*
X3446505Y2099595D01*
X3446490Y2099190D01*
X3446465Y2098785D01*
X3446430Y2098382D01*
X3446386Y2097979D01*
X3446331Y2097577D01*
X3446267Y2097177D01*
X3446193Y2096779D01*
X3446109Y2096383D01*
X3446015Y2095988D01*
X3445912Y2095597D01*
X3445799Y2095207D01*
X3445677Y2094821D01*
X3445545Y2094438D01*
X3445404Y2094058D01*
X3445253Y2093682D01*
X3445094Y2093309D01*
X3444925Y2092941D01*
X3444747Y2092577D01*
X3444561Y2092217D01*
X3444365Y2091862D01*
X3444161Y2091512D01*
X3443949Y2091167D01*
X3443728Y2090828D01*
X3443498Y2090493D01*
X3443261Y2090165D01*
X3443016Y2089843D01*
X3442762Y2089526D01*
X3442502Y2089216D01*
X3442233Y2088913D01*
X3441957Y2088616D01*
X3441674Y2088326D01*
X3441384Y2088043D01*
X3441087Y2087767D01*
X3440784Y2087498D01*
X3440474Y2087238D01*
X3440157Y2086984D01*
X3439835Y2086739D01*
X3439507Y2086502D01*
X3439172Y2086272D01*
X3438833Y2086051D01*
X3438488Y2085839D01*
X3438138Y2085635D01*
X3437783Y2085439D01*
X3437423Y2085253D01*
X3437059Y2085075D01*
X3436691Y2084906D01*
X3436318Y2084747D01*
X3435942Y2084596D01*
X3435562Y2084455D01*
X3435179Y2084323D01*
X3434793Y2084201D01*
X3434403Y2084088D01*
X3434012Y2083985D01*
X3433617Y2083891D01*
X3433221Y2083807D01*
X3432823Y2083733D01*
X3432423Y2083669D01*
X3432021Y2083614D01*
X3431618Y2083570D01*
X3431215Y2083535D01*
X3430810Y2083510D01*
X3430405Y2083495D01*
X3430000Y2083490D01*
X3429595Y2083495D01*
X3429190Y2083510D01*
X3428785Y2083535D01*
X3428382Y2083570D01*
X3427979Y2083614D01*
X3427577Y2083669D01*
X3427177Y2083733D01*
X3426779Y2083807D01*
X3426383Y2083891D01*
X3425988Y2083985D01*
X3425597Y2084088D01*
X3425207Y2084201D01*
X3424821Y2084323D01*
X3424438Y2084455D01*
X3424058Y2084596D01*
X3423682Y2084747D01*
X3423309Y2084906D01*
X3422941Y2085075D01*
X3422577Y2085253D01*
X3422217Y2085439D01*
X3421862Y2085635D01*
X3421512Y2085839D01*
X3421167Y2086051D01*
X3420828Y2086272D01*
X3420493Y2086502D01*
X3420165Y2086739D01*
X3419843Y2086984D01*
X3419526Y2087238D01*
X3419216Y2087498D01*
X3418913Y2087767D01*
X3418616Y2088043D01*
X3418326Y2088326D01*
X3418043Y2088616D01*
X3417767Y2088913D01*
X3417498Y2089216D01*
X3417238Y2089526D01*
X3416984Y2089843D01*
X3416739Y2090165D01*
X3416502Y2090493D01*
X3416272Y2090828D01*
X3416051Y2091167D01*
X3415839Y2091512D01*
X3415635Y2091862D01*
X3415439Y2092217D01*
X3415253Y2092577D01*
X3415075Y2092941D01*
X3414906Y2093309D01*
X3414747Y2093682D01*
X3414596Y2094058D01*
X3414455Y2094438D01*
X3414323Y2094821D01*
X3414201Y2095207D01*
X3414088Y2095597D01*
X3413985Y2095988D01*
X3413891Y2096383D01*
X3413807Y2096779D01*
X3413733Y2097177D01*
X3413669Y2097577D01*
X3413614Y2097979D01*
X3413570Y2098382D01*
X3413535Y2098785D01*
X3413510Y2099190D01*
X3413495Y2099595D01*
X3413490Y2100000D01*
X58490Y2100000D02*
X58495Y2100405D01*
X58510Y2100810D01*
X58535Y2101215D01*
X58570Y2101618D01*
X58614Y2102021D01*
X58669Y2102423D01*
X58733Y2102823D01*
X58807Y2103221D01*
X58891Y2103617D01*
X58985Y2104012D01*
X59088Y2104403D01*
X59201Y2104793D01*
X59323Y2105179D01*
X59455Y2105562D01*
X59596Y2105942D01*
X59747Y2106318D01*
X59906Y2106691D01*
X60075Y2107059D01*
X60253Y2107423D01*
X60439Y2107783D01*
X60635Y2108138D01*
X60839Y2108488D01*
X61051Y2108833D01*
X61272Y2109172D01*
X61502Y2109507D01*
X61739Y2109835D01*
X61984Y2110157D01*
X62238Y2110474D01*
X62498Y2110784D01*
X62767Y2111087D01*
X63043Y2111384D01*
X63326Y2111674D01*
X63616Y2111957D01*
X63913Y2112233D01*
X64216Y2112502D01*
X64526Y2112762D01*
X64843Y2113016D01*
X65165Y2113261D01*
X65493Y2113498D01*
X65828Y2113728D01*
X66167Y2113949D01*
X66512Y2114161D01*
X66862Y2114365D01*
X67217Y2114561D01*
X67577Y2114747D01*
X67941Y2114925D01*
X68309Y2115094D01*
X68682Y2115253D01*
X69058Y2115404D01*
X69438Y2115545D01*
X69821Y2115677D01*
X70207Y2115799D01*
X70597Y2115912D01*
X70988Y2116015D01*
X71383Y2116109D01*
X71779Y2116193D01*
X72177Y2116267D01*
X72577Y2116331D01*
X72979Y2116386D01*
X73382Y2116430D01*
X73785Y2116465D01*
X74190Y2116490D01*
X74595Y2116505D01*
X75000Y2116510D01*
X75405Y2116505D01*
X75810Y2116490D01*
X76215Y2116465D01*
X76618Y2116430D01*
X77021Y2116386D01*
X77423Y2116331D01*
X77823Y2116267D01*
X78221Y2116193D01*
X78617Y2116109D01*
X79012Y2116015D01*
X79403Y2115912D01*
X79793Y2115799D01*
X80179Y2115677D01*
X80562Y2115545D01*
X80942Y2115404D01*
X81318Y2115253D01*
X81691Y2115094D01*
X82059Y2114925D01*
X82423Y2114747D01*
X82783Y2114561D01*
X83138Y2114365D01*
X83488Y2114161D01*
X83833Y2113949D01*
X84172Y2113728D01*
X84507Y2113498D01*
X84835Y2113261D01*
X85157Y2113016D01*
X85474Y2112762D01*
X85784Y2112502D01*
X86087Y2112233D01*
X86384Y2111957D01*
X86674Y2111674D01*
X86957Y2111384D01*
X87233Y2111087D01*
X87502Y2110784D01*
X87762Y2110474D01*
X88016Y2110157D01*
X88261Y2109835D01*
X88498Y2109507D01*
X88728Y2109172D01*
X88949Y2108833D01*
X89161Y2108488D01*
X89365Y2108138D01*
X89561Y2107783D01*
X89747Y2107423D01*
X89925Y2107059D01*
X90094Y2106691D01*
X90253Y2106318D01*
X90404Y2105942D01*
X90545Y2105562D01*
X90677Y2105179D01*
X90799Y2104793D01*
X90912Y2104403D01*
X91015Y2104012D01*
X91109Y2103617D01*
X91193Y2103221D01*
X91267Y2102823D01*
X91331Y2102423D01*
X91386Y2102021D01*
X91430Y2101618D01*
X91465Y2101215D01*
X91490Y2100810D01*
X91505Y2100405D01*
X91510Y2100000D01*
X91505Y2099595D01*
X91490Y2099190D01*
X91465Y2098785D01*
X91430Y2098382D01*
X91386Y2097979D01*
X91331Y2097577D01*
X91267Y2097177D01*
X91193Y2096779D01*
X91109Y2096383D01*
X91015Y2095988D01*
X90912Y2095597D01*
X90799Y2095207D01*
X90677Y2094821D01*
X90545Y2094438D01*
X90404Y2094058D01*
X90253Y2093682D01*
X90094Y2093309D01*
X89925Y2092941D01*
X89747Y2092577D01*
X89561Y2092217D01*
X89365Y2091862D01*
X89161Y2091512D01*
X88949Y2091167D01*
X88728Y2090828D01*
X88498Y2090493D01*
X88261Y2090165D01*
X88016Y2089843D01*
X87762Y2089526D01*
X87502Y2089216D01*
X87233Y2088913D01*
X86957Y2088616D01*
X86674Y2088326D01*
X86384Y2088043D01*
X86087Y2087767D01*
X85784Y2087498D01*
X85474Y2087238D01*
X85157Y2086984D01*
X84835Y2086739D01*
X84507Y2086502D01*
X84172Y2086272D01*
X83833Y2086051D01*
X83488Y2085839D01*
X83138Y2085635D01*
X82783Y2085439D01*
X82423Y2085253D01*
X82059Y2085075D01*
X81691Y2084906D01*
X81318Y2084747D01*
X80942Y2084596D01*
X80562Y2084455D01*
X80179Y2084323D01*
X79793Y2084201D01*
X79403Y2084088D01*
X79012Y2083985D01*
X78617Y2083891D01*
X78221Y2083807D01*
X77823Y2083733D01*
X77423Y2083669D01*
X77021Y2083614D01*
X76618Y2083570D01*
X76215Y2083535D01*
X75810Y2083510D01*
X75405Y2083495D01*
X75000Y2083490D01*
X74595Y2083495D01*
X74190Y2083510D01*
X73785Y2083535D01*
X73382Y2083570D01*
X72979Y2083614D01*
X72577Y2083669D01*
X72177Y2083733D01*
X71779Y2083807D01*
X71383Y2083891D01*
X70988Y2083985D01*
X70597Y2084088D01*
X70207Y2084201D01*
X69821Y2084323D01*
X69438Y2084455D01*
X69058Y2084596D01*
X68682Y2084747D01*
X68309Y2084906D01*
X67941Y2085075D01*
X67577Y2085253D01*
X67217Y2085439D01*
X66862Y2085635D01*
X66512Y2085839D01*
X66167Y2086051D01*
X65828Y2086272D01*
X65493Y2086502D01*
X65165Y2086739D01*
X64843Y2086984D01*
X64526Y2087238D01*
X64216Y2087498D01*
X63913Y2087767D01*
X63616Y2088043D01*
X63326Y2088326D01*
X63043Y2088616D01*
X62767Y2088913D01*
X62498Y2089216D01*
X62238Y2089526D01*
X61984Y2089843D01*
X61739Y2090165D01*
X61502Y2090493D01*
X61272Y2090828D01*
X61051Y2091167D01*
X60839Y2091512D01*
X60635Y2091862D01*
X60439Y2092217D01*
X60253Y2092577D01*
X60075Y2092941D01*
X59906Y2093309D01*
X59747Y2093682D01*
X59596Y2094058D01*
X59455Y2094438D01*
X59323Y2094821D01*
X59201Y2095207D01*
X59088Y2095597D01*
X58985Y2095988D01*
X58891Y2096383D01*
X58807Y2096779D01*
X58733Y2097177D01*
X58669Y2097577D01*
X58614Y2097979D01*
X58570Y2098382D01*
X58535Y2098785D01*
X58510Y2099190D01*
X58495Y2099595D01*
X58490Y2100000D01*
D13*
X0Y0D02*
X525630Y0D01*
X525630Y233200D01*
X585320Y233200D01*
X585320Y0D01*
X3505000Y0D01*
X3505000Y230000D01*
X3605000Y230000D01*
X3605000Y530000D01*
X3505000Y530000D01*
X3505000Y2175000D01*
X0Y2175000D01*
X0Y0D01*
X3543650Y330200D02*
X3554650Y330200D01*
X3554911Y330211D01*
X3555171Y330246D01*
X3555426Y330302D01*
X3555676Y330381D01*
X3555918Y330481D01*
X3556150Y330602D01*
X3556371Y330743D01*
X3556578Y330902D01*
X3556771Y331079D01*
X3556948Y331272D01*
X3557107Y331479D01*
X3557248Y331700D01*
X3557369Y331932D01*
X3557469Y332174D01*
X3557548Y332424D01*
X3557604Y332679D01*
X3557639Y332939D01*
X3557650Y333200D01*
X3557639Y333461D01*
X3557604Y333721D01*
X3557548Y333976D01*
X3557469Y334226D01*
X3557369Y334468D01*
X3557248Y334700D01*
X3557107Y334921D01*
X3556948Y335128D01*
X3556771Y335321D01*
X3556578Y335498D01*
X3556371Y335657D01*
X3556150Y335798D01*
X3555918Y335919D01*
X3555676Y336019D01*
X3555426Y336098D01*
X3555171Y336154D01*
X3554911Y336189D01*
X3554650Y336200D01*
X3543650Y336200D01*
X3543389Y336189D01*
X3543129Y336154D01*
X3542874Y336098D01*
X3542624Y336019D01*
X3542382Y335919D01*
X3542150Y335798D01*
X3541929Y335657D01*
X3541722Y335498D01*
X3541529Y335321D01*
X3541352Y335128D01*
X3541193Y334921D01*
X3541052Y334700D01*
X3540931Y334468D01*
X3540831Y334226D01*
X3540752Y333976D01*
X3540696Y333721D01*
X3540661Y333461D01*
X3540650Y333200D01*
X3540661Y332939D01*
X3540696Y332679D01*
X3540752Y332424D01*
X3540831Y332174D01*
X3540931Y331932D01*
X3541052Y331700D01*
X3541193Y331479D01*
X3541352Y331272D01*
X3541529Y331079D01*
X3541722Y330902D01*
X3541929Y330743D01*
X3542150Y330602D01*
X3542382Y330481D01*
X3542624Y330381D01*
X3542874Y330302D01*
X3543129Y330246D01*
X3543389Y330211D01*
X3543650Y330200D01*
X3587800Y330200D02*
X3594000Y330200D01*
X3594261Y330211D01*
X3594521Y330246D01*
X3594776Y330302D01*
X3595026Y330381D01*
X3595268Y330481D01*
X3595500Y330602D01*
X3595721Y330743D01*
X3595928Y330902D01*
X3596121Y331079D01*
X3596298Y331272D01*
X3596457Y331479D01*
X3596598Y331700D01*
X3596719Y331932D01*
X3596819Y332174D01*
X3596898Y332424D01*
X3596954Y332679D01*
X3596989Y332939D01*
X3597000Y333200D01*
X3596989Y333461D01*
X3596954Y333721D01*
X3596898Y333976D01*
X3596819Y334226D01*
X3596719Y334468D01*
X3596598Y334700D01*
X3596457Y334921D01*
X3596298Y335128D01*
X3596121Y335321D01*
X3595928Y335498D01*
X3595721Y335657D01*
X3595500Y335798D01*
X3595268Y335919D01*
X3595026Y336019D01*
X3594776Y336098D01*
X3594521Y336154D01*
X3594261Y336189D01*
X3594000Y336200D01*
X3587800Y336200D01*
X3587539Y336189D01*
X3587279Y336154D01*
X3587024Y336098D01*
X3586774Y336019D01*
X3586532Y335919D01*
X3586300Y335798D01*
X3586079Y335657D01*
X3585872Y335498D01*
X3585679Y335321D01*
X3585502Y335128D01*
X3585343Y334921D01*
X3585202Y334700D01*
X3585081Y334468D01*
X3584981Y334226D01*
X3584902Y333976D01*
X3584846Y333721D01*
X3584811Y333461D01*
X3584800Y333200D01*
X3584811Y332939D01*
X3584846Y332679D01*
X3584902Y332424D01*
X3584981Y332174D01*
X3585081Y331932D01*
X3585202Y331700D01*
X3585343Y331479D01*
X3585502Y331272D01*
X3585679Y331079D01*
X3585872Y330902D01*
X3586079Y330743D01*
X3586300Y330602D01*
X3586532Y330481D01*
X3586774Y330381D01*
X3587024Y330302D01*
X3587279Y330246D01*
X3587539Y330211D01*
X3587800Y330200D01*
X3587800Y243800D02*
X3594000Y243800D01*
X3594261Y243811D01*
X3594521Y243846D01*
X3594776Y243902D01*
X3595026Y243981D01*
X3595268Y244081D01*
X3595500Y244202D01*
X3595721Y244343D01*
X3595928Y244502D01*
X3596121Y244679D01*
X3596298Y244872D01*
X3596457Y245079D01*
X3596598Y245300D01*
X3596719Y245532D01*
X3596819Y245774D01*
X3596898Y246024D01*
X3596954Y246279D01*
X3596989Y246539D01*
X3597000Y246800D01*
X3596989Y247061D01*
X3596954Y247321D01*
X3596898Y247576D01*
X3596819Y247826D01*
X3596719Y248068D01*
X3596598Y248300D01*
X3596457Y248521D01*
X3596298Y248728D01*
X3596121Y248921D01*
X3595928Y249098D01*
X3595721Y249257D01*
X3595500Y249398D01*
X3595268Y249519D01*
X3595026Y249619D01*
X3594776Y249698D01*
X3594521Y249754D01*
X3594261Y249789D01*
X3594000Y249800D01*
X3587800Y249800D01*
X3587539Y249789D01*
X3587279Y249754D01*
X3587024Y249698D01*
X3586774Y249619D01*
X3586532Y249519D01*
X3586300Y249398D01*
X3586079Y249257D01*
X3585872Y249098D01*
X3585679Y248921D01*
X3585502Y248728D01*
X3585343Y248521D01*
X3585202Y248300D01*
X3585081Y248068D01*
X3584981Y247826D01*
X3584902Y247576D01*
X3584846Y247321D01*
X3584811Y247061D01*
X3584800Y246800D01*
X3584811Y246539D01*
X3584846Y246279D01*
X3584902Y246024D01*
X3584981Y245774D01*
X3585081Y245532D01*
X3585202Y245300D01*
X3585343Y245079D01*
X3585502Y244872D01*
X3585679Y244679D01*
X3585872Y244502D01*
X3586079Y244343D01*
X3586300Y244202D01*
X3586532Y244081D01*
X3586774Y243981D01*
X3587024Y243902D01*
X3587279Y243846D01*
X3587539Y243811D01*
X3587800Y243800D01*
X3543650Y243800D02*
X3554650Y243800D01*
X3554911Y243811D01*
X3555171Y243846D01*
X3555426Y243902D01*
X3555676Y243981D01*
X3555918Y244081D01*
X3556150Y244202D01*
X3556371Y244343D01*
X3556578Y244502D01*
X3556771Y244679D01*
X3556948Y244872D01*
X3557107Y245079D01*
X3557248Y245300D01*
X3557369Y245532D01*
X3557469Y245774D01*
X3557548Y246024D01*
X3557604Y246279D01*
X3557639Y246539D01*
X3557650Y246800D01*
X3557639Y247061D01*
X3557604Y247321D01*
X3557548Y247576D01*
X3557469Y247826D01*
X3557369Y248068D01*
X3557248Y248300D01*
X3557107Y248521D01*
X3556948Y248728D01*
X3556771Y248921D01*
X3556578Y249098D01*
X3556371Y249257D01*
X3556150Y249398D01*
X3555918Y249519D01*
X3555676Y249619D01*
X3555426Y249698D01*
X3555171Y249754D01*
X3554911Y249789D01*
X3554650Y249800D01*
X3543650Y249800D01*
X3543389Y249789D01*
X3543129Y249754D01*
X3542874Y249698D01*
X3542624Y249619D01*
X3542382Y249519D01*
X3542150Y249398D01*
X3541929Y249257D01*
X3541722Y249098D01*
X3541529Y248921D01*
X3541352Y248728D01*
X3541193Y248521D01*
X3541052Y248300D01*
X3540931Y248068D01*
X3540831Y247826D01*
X3540752Y247576D01*
X3540696Y247321D01*
X3540661Y247061D01*
X3540650Y246800D01*
X3540661Y246539D01*
X3540696Y246279D01*
X3540752Y246024D01*
X3540831Y245774D01*
X3540931Y245532D01*
X3541052Y245300D01*
X3541193Y245079D01*
X3541352Y244872D01*
X3541529Y244679D01*
X3541722Y244502D01*
X3541929Y244343D01*
X3542150Y244202D01*
X3542382Y244081D01*
X3542624Y243981D01*
X3542874Y243902D01*
X3543129Y243846D01*
X3543389Y243811D01*
X3543650Y243800D01*
X3446510Y74460D02*
X3446439Y73381D01*
X3446298Y72309D01*
X3446087Y71249D01*
X3445808Y70205D01*
X3445460Y69181D01*
X3445046Y68183D01*
X3444568Y67213D01*
X3444028Y66277D01*
X3443427Y65378D01*
X3442769Y64521D01*
X3442057Y63708D01*
X3441292Y62944D01*
X3440479Y62231D01*
X3439622Y61573D01*
X3438723Y60972D01*
X3437787Y60432D01*
X3436817Y59954D01*
X3435819Y59540D01*
X3434795Y59192D01*
X3433751Y58913D01*
X3432691Y58702D01*
X3431619Y58561D01*
X3430540Y58490D01*
X3429460Y58490D01*
X3428381Y58561D01*
X3427309Y58702D01*
X3426249Y58913D01*
X3425205Y59192D01*
X3424181Y59540D01*
X3423183Y59954D01*
X3422213Y60432D01*
X3421277Y60972D01*
X3420378Y61573D01*
X3419521Y62231D01*
X3418708Y62944D01*
X3417944Y63708D01*
X3417231Y64521D01*
X3416573Y65378D01*
X3415972Y66277D01*
X3415432Y67213D01*
X3414954Y68183D01*
X3414540Y69181D01*
X3414192Y70205D01*
X3413913Y71249D01*
X3413702Y72309D01*
X3413561Y73381D01*
X3413490Y74460D01*
X3413490Y75540D01*
X3413561Y76619D01*
X3413702Y77691D01*
X3413913Y78751D01*
X3414192Y79795D01*
X3414540Y80819D01*
X3414954Y81817D01*
X3415432Y82787D01*
X3415972Y83723D01*
X3416573Y84622D01*
X3417231Y85479D01*
X3417944Y86292D01*
X3418708Y87057D01*
X3419521Y87769D01*
X3420378Y88427D01*
X3421277Y89028D01*
X3422213Y89568D01*
X3423183Y90046D01*
X3424181Y90460D01*
X3425205Y90808D01*
X3426249Y91087D01*
X3427309Y91298D01*
X3428381Y91439D01*
X3429460Y91510D01*
X3430540Y91510D01*
X3431619Y91439D01*
X3432691Y91298D01*
X3433751Y91087D01*
X3434795Y90808D01*
X3435819Y90460D01*
X3436817Y90046D01*
X3437787Y89568D01*
X3438723Y89028D01*
X3439622Y88427D01*
X3440479Y87769D01*
X3441292Y87057D01*
X3442057Y86292D01*
X3442769Y85479D01*
X3443427Y84622D01*
X3444028Y83723D01*
X3444568Y82787D01*
X3445046Y81817D01*
X3445460Y80819D01*
X3445808Y79795D01*
X3446087Y78751D01*
X3446298Y77691D01*
X3446439Y76619D01*
X3446510Y75540D01*
X3446510Y74460D01*
X91510Y74460D02*
X91439Y73381D01*
X91298Y72309D01*
X91087Y71249D01*
X90808Y70205D01*
X90460Y69181D01*
X90046Y68183D01*
X89568Y67213D01*
X89028Y66277D01*
X88427Y65378D01*
X87769Y64521D01*
X87057Y63708D01*
X86292Y62944D01*
X85479Y62231D01*
X84622Y61573D01*
X83723Y60972D01*
X82787Y60432D01*
X81817Y59954D01*
X80819Y59540D01*
X79795Y59192D01*
X78751Y58913D01*
X77691Y58702D01*
X76619Y58561D01*
X75540Y58490D01*
X74460Y58490D01*
X73381Y58561D01*
X72309Y58702D01*
X71249Y58913D01*
X70205Y59192D01*
X69181Y59540D01*
X68183Y59954D01*
X67213Y60432D01*
X66277Y60972D01*
X65378Y61573D01*
X64521Y62231D01*
X63708Y62944D01*
X62944Y63708D01*
X62231Y64521D01*
X61573Y65378D01*
X60972Y66277D01*
X60432Y67213D01*
X59954Y68183D01*
X59540Y69181D01*
X59192Y70205D01*
X58913Y71249D01*
X58702Y72309D01*
X58561Y73381D01*
X58490Y74460D01*
X58490Y75540D01*
X58561Y76619D01*
X58702Y77691D01*
X58913Y78751D01*
X59192Y79795D01*
X59540Y80819D01*
X59954Y81817D01*
X60432Y82787D01*
X60972Y83723D01*
X61573Y84622D01*
X62231Y85479D01*
X62944Y86292D01*
X63708Y87057D01*
X64521Y87769D01*
X65378Y88427D01*
X66277Y89028D01*
X67213Y89568D01*
X68183Y90046D01*
X69181Y90460D01*
X70205Y90808D01*
X71249Y91087D01*
X72309Y91298D01*
X73381Y91439D01*
X74460Y91510D01*
X75540Y91510D01*
X76619Y91439D01*
X77691Y91298D01*
X78751Y91087D01*
X79795Y90808D01*
X80819Y90460D01*
X81817Y90046D01*
X82787Y89568D01*
X83723Y89028D01*
X84622Y88427D01*
X85479Y87769D01*
X86292Y87057D01*
X87057Y86292D01*
X87769Y85479D01*
X88427Y84622D01*
X89028Y83723D01*
X89568Y82787D01*
X90046Y81817D01*
X90460Y80819D01*
X90808Y79795D01*
X91087Y78751D01*
X91298Y77691D01*
X91439Y76619D01*
X91510Y75540D01*
X91510Y74460D01*
X3554663Y264350D02*
X3555085Y264294D01*
X3555497Y264184D01*
X3555891Y264021D01*
X3556259Y263808D01*
X3556597Y263549D01*
X3556899Y263247D01*
X3557158Y262909D01*
X3557371Y262541D01*
X3557534Y262147D01*
X3557644Y261735D01*
X3557700Y261313D01*
X3557700Y260887D01*
X3557644Y260465D01*
X3557534Y260053D01*
X3557371Y259659D01*
X3557158Y259291D01*
X3556899Y258953D01*
X3556597Y258651D01*
X3556259Y258392D01*
X3555891Y258179D01*
X3555497Y258016D01*
X3555085Y257906D01*
X3554663Y257850D01*
X3554237Y257850D01*
X3553815Y257906D01*
X3553403Y258016D01*
X3553009Y258179D01*
X3552641Y258392D01*
X3552303Y258651D01*
X3552001Y258953D01*
X3551742Y259291D01*
X3551529Y259659D01*
X3551366Y260053D01*
X3551256Y260465D01*
X3551200Y260887D01*
X3551200Y261313D01*
X3551256Y261735D01*
X3551366Y262147D01*
X3551529Y262541D01*
X3551742Y262909D01*
X3552001Y263247D01*
X3552303Y263549D01*
X3552641Y263808D01*
X3553009Y264021D01*
X3553403Y264184D01*
X3553815Y264294D01*
X3554237Y264350D01*
X3554663Y264350D01*
X3554663Y322150D02*
X3555085Y322094D01*
X3555497Y321984D01*
X3555891Y321821D01*
X3556259Y321608D01*
X3556597Y321349D01*
X3556899Y321047D01*
X3557158Y320709D01*
X3557371Y320341D01*
X3557534Y319947D01*
X3557644Y319535D01*
X3557700Y319113D01*
X3557700Y318687D01*
X3557644Y318265D01*
X3557534Y317853D01*
X3557371Y317459D01*
X3557158Y317091D01*
X3556899Y316753D01*
X3556597Y316451D01*
X3556259Y316192D01*
X3555891Y315979D01*
X3555497Y315816D01*
X3555085Y315706D01*
X3554663Y315650D01*
X3554237Y315650D01*
X3553815Y315706D01*
X3553403Y315816D01*
X3553009Y315979D01*
X3552641Y316192D01*
X3552303Y316451D01*
X3552001Y316753D01*
X3551742Y317091D01*
X3551529Y317459D01*
X3551366Y317853D01*
X3551256Y318265D01*
X3551200Y318687D01*
X3551200Y319113D01*
X3551256Y319535D01*
X3551366Y319947D01*
X3551529Y320341D01*
X3551742Y320709D01*
X3552001Y321047D01*
X3552303Y321349D01*
X3552641Y321608D01*
X3553009Y321821D01*
X3553403Y321984D01*
X3553815Y322094D01*
X3554237Y322150D01*
X3554663Y322150D01*
X3583000Y470337D02*
X3583075Y471007D01*
X3583225Y471664D01*
X3583448Y472300D01*
X3583740Y472907D01*
X3584099Y473478D01*
X3584519Y474004D01*
X3584996Y474481D01*
X3585523Y474901D01*
X3586093Y475260D01*
X3586700Y475552D01*
X3587336Y475775D01*
X3587993Y475925D01*
X3588663Y476000D01*
X3589337Y476000D01*
X3590007Y475925D01*
X3590664Y475775D01*
X3591300Y475552D01*
X3591907Y475260D01*
X3592478Y474901D01*
X3593004Y474481D01*
X3593481Y474004D01*
X3593901Y473478D01*
X3594260Y472907D01*
X3594552Y472300D01*
X3594775Y471664D01*
X3594925Y471007D01*
X3595000Y470337D01*
X3595000Y469663D01*
X3594925Y468993D01*
X3594775Y468336D01*
X3594552Y467700D01*
X3594260Y467093D01*
X3593901Y466523D01*
X3593481Y465996D01*
X3593004Y465519D01*
X3592478Y465099D01*
X3591907Y464740D01*
X3591300Y464448D01*
X3590664Y464225D01*
X3590007Y464075D01*
X3589337Y464000D01*
X3588663Y464000D01*
X3587993Y464075D01*
X3587336Y464225D01*
X3586700Y464448D01*
X3586093Y464740D01*
X3585523Y465099D01*
X3584996Y465519D01*
X3584519Y465996D01*
X3584099Y466523D01*
X3583740Y467093D01*
X3583448Y467700D01*
X3583225Y468336D01*
X3583075Y468993D01*
X3583000Y469663D01*
X3583000Y470337D01*
X3513000Y470337D02*
X3513075Y471007D01*
X3513225Y471664D01*
X3513448Y472300D01*
X3513740Y472907D01*
X3514099Y473478D01*
X3514519Y474004D01*
X3514996Y474481D01*
X3515523Y474901D01*
X3516093Y475260D01*
X3516700Y475552D01*
X3517336Y475775D01*
X3517993Y475925D01*
X3518663Y476000D01*
X3519337Y476000D01*
X3520007Y475925D01*
X3520664Y475775D01*
X3521300Y475552D01*
X3521907Y475260D01*
X3522478Y474901D01*
X3523004Y474481D01*
X3523481Y474004D01*
X3523901Y473478D01*
X3524260Y472907D01*
X3524552Y472300D01*
X3524775Y471664D01*
X3524925Y471007D01*
X3525000Y470337D01*
X3525000Y469663D01*
X3524925Y468993D01*
X3524775Y468336D01*
X3524552Y467700D01*
X3524260Y467093D01*
X3523901Y466523D01*
X3523481Y465996D01*
X3523004Y465519D01*
X3522478Y465099D01*
X3521907Y464740D01*
X3521300Y464448D01*
X3520664Y464225D01*
X3520007Y464075D01*
X3519337Y464000D01*
X3518663Y464000D01*
X3517993Y464075D01*
X3517336Y464225D01*
X3516700Y464448D01*
X3516093Y464740D01*
X3515523Y465099D01*
X3514996Y465519D01*
X3514519Y465996D01*
X3514099Y466523D01*
X3513740Y467093D01*
X3513448Y467700D01*
X3513225Y468336D01*
X3513075Y468993D01*
X3513000Y469663D01*
X3513000Y470337D01*
X240800Y139705D02*
X240723Y139120D01*
X240570Y138550D01*
X240345Y138005D01*
X240050Y137495D01*
X239691Y137027D01*
X239273Y136609D01*
X238805Y136250D01*
X238295Y135955D01*
X237750Y135730D01*
X237180Y135577D01*
X236595Y135500D01*
X236005Y135500D01*
X235420Y135577D01*
X234850Y135730D01*
X234305Y135955D01*
X233795Y136250D01*
X233327Y136609D01*
X232909Y137027D01*
X232550Y137495D01*
X232255Y138005D01*
X232030Y138550D01*
X231877Y139120D01*
X231800Y139705D01*
X231800Y140295D01*
X231877Y140880D01*
X232030Y141450D01*
X232255Y141995D01*
X232550Y142505D01*
X232909Y142973D01*
X233327Y143391D01*
X233795Y143750D01*
X234305Y144045D01*
X234850Y144270D01*
X235420Y144423D01*
X236005Y144500D01*
X236595Y144500D01*
X237180Y144423D01*
X237750Y144270D01*
X238295Y144045D01*
X238805Y143750D01*
X239273Y143391D01*
X239691Y142973D01*
X240050Y142505D01*
X240345Y141995D01*
X240570Y141450D01*
X240723Y140880D01*
X240800Y140295D01*
X240800Y139705D01*
X1946510Y2099460D02*
X1946439Y2098381D01*
X1946298Y2097309D01*
X1946087Y2096249D01*
X1945808Y2095205D01*
X1945460Y2094181D01*
X1945046Y2093183D01*
X1944568Y2092213D01*
X1944028Y2091277D01*
X1943427Y2090378D01*
X1942769Y2089521D01*
X1942057Y2088708D01*
X1941292Y2087944D01*
X1940479Y2087231D01*
X1939622Y2086573D01*
X1938723Y2085972D01*
X1937787Y2085432D01*
X1936817Y2084954D01*
X1935819Y2084540D01*
X1934795Y2084192D01*
X1933751Y2083913D01*
X1932691Y2083702D01*
X1931619Y2083561D01*
X1930540Y2083490D01*
X1929460Y2083490D01*
X1928381Y2083561D01*
X1927309Y2083702D01*
X1926249Y2083913D01*
X1925205Y2084192D01*
X1924181Y2084540D01*
X1923183Y2084954D01*
X1922213Y2085432D01*
X1921277Y2085972D01*
X1920378Y2086573D01*
X1919521Y2087231D01*
X1918708Y2087944D01*
X1917944Y2088708D01*
X1917231Y2089521D01*
X1916573Y2090378D01*
X1915972Y2091277D01*
X1915432Y2092213D01*
X1914954Y2093183D01*
X1914540Y2094181D01*
X1914192Y2095205D01*
X1913913Y2096249D01*
X1913702Y2097309D01*
X1913561Y2098381D01*
X1913490Y2099460D01*
X1913490Y2100540D01*
X1913561Y2101619D01*
X1913702Y2102691D01*
X1913913Y2103751D01*
X1914192Y2104795D01*
X1914540Y2105819D01*
X1914954Y2106817D01*
X1915432Y2107787D01*
X1915972Y2108723D01*
X1916573Y2109622D01*
X1917231Y2110479D01*
X1917944Y2111292D01*
X1918708Y2112057D01*
X1919521Y2112769D01*
X1920378Y2113427D01*
X1921277Y2114028D01*
X1922213Y2114568D01*
X1923183Y2115046D01*
X1924181Y2115460D01*
X1925205Y2115808D01*
X1926249Y2116087D01*
X1927309Y2116298D01*
X1928381Y2116439D01*
X1929460Y2116510D01*
X1930540Y2116510D01*
X1931619Y2116439D01*
X1932691Y2116298D01*
X1933751Y2116087D01*
X1934795Y2115808D01*
X1935819Y2115460D01*
X1936817Y2115046D01*
X1937787Y2114568D01*
X1938723Y2114028D01*
X1939622Y2113427D01*
X1940479Y2112769D01*
X1941292Y2112057D01*
X1942057Y2111292D01*
X1942769Y2110479D01*
X1943427Y2109622D01*
X1944028Y2108723D01*
X1944568Y2107787D01*
X1945046Y2106817D01*
X1945460Y2105819D01*
X1945808Y2104795D01*
X1946087Y2103751D01*
X1946298Y2102691D01*
X1946439Y2101619D01*
X1946510Y2100540D01*
X1946510Y2099460D01*
X1591510Y74460D02*
X1591439Y73381D01*
X1591298Y72309D01*
X1591087Y71249D01*
X1590808Y70205D01*
X1590460Y69181D01*
X1590046Y68183D01*
X1589568Y67213D01*
X1589028Y66277D01*
X1588427Y65378D01*
X1587769Y64521D01*
X1587057Y63708D01*
X1586292Y62944D01*
X1585479Y62231D01*
X1584622Y61573D01*
X1583723Y60972D01*
X1582787Y60432D01*
X1581817Y59954D01*
X1580819Y59540D01*
X1579795Y59192D01*
X1578751Y58913D01*
X1577691Y58702D01*
X1576619Y58561D01*
X1575540Y58490D01*
X1574460Y58490D01*
X1573381Y58561D01*
X1572309Y58702D01*
X1571249Y58913D01*
X1570205Y59192D01*
X1569181Y59540D01*
X1568183Y59954D01*
X1567213Y60432D01*
X1566277Y60972D01*
X1565378Y61573D01*
X1564521Y62231D01*
X1563708Y62944D01*
X1562944Y63708D01*
X1562231Y64521D01*
X1561573Y65378D01*
X1560972Y66277D01*
X1560432Y67213D01*
X1559954Y68183D01*
X1559540Y69181D01*
X1559192Y70205D01*
X1558913Y71249D01*
X1558702Y72309D01*
X1558561Y73381D01*
X1558490Y74460D01*
X1558490Y75540D01*
X1558561Y76619D01*
X1558702Y77691D01*
X1558913Y78751D01*
X1559192Y79795D01*
X1559540Y80819D01*
X1559954Y81817D01*
X1560432Y82787D01*
X1560972Y83723D01*
X1561573Y84622D01*
X1562231Y85479D01*
X1562944Y86292D01*
X1563708Y87057D01*
X1564521Y87769D01*
X1565378Y88427D01*
X1566277Y89028D01*
X1567213Y89568D01*
X1568183Y90046D01*
X1569181Y90460D01*
X1570205Y90808D01*
X1571249Y91087D01*
X1572309Y91298D01*
X1573381Y91439D01*
X1574460Y91510D01*
X1575540Y91510D01*
X1576619Y91439D01*
X1577691Y91298D01*
X1578751Y91087D01*
X1579795Y90808D01*
X1580819Y90460D01*
X1581817Y90046D01*
X1582787Y89568D01*
X1583723Y89028D01*
X1584622Y88427D01*
X1585479Y87769D01*
X1586292Y87057D01*
X1587057Y86292D01*
X1587769Y85479D01*
X1588427Y84622D01*
X1589028Y83723D01*
X1589568Y82787D01*
X1590046Y81817D01*
X1590460Y80819D01*
X1590808Y79795D01*
X1591087Y78751D01*
X1591298Y77691D01*
X1591439Y76619D01*
X1591510Y75540D01*
X1591510Y74460D01*
X3446510Y2099460D02*
X3446439Y2098381D01*
X3446298Y2097309D01*
X3446087Y2096249D01*
X3445808Y2095205D01*
X3445460Y2094181D01*
X3445046Y2093183D01*
X3444568Y2092213D01*
X3444028Y2091277D01*
X3443427Y2090378D01*
X3442769Y2089521D01*
X3442057Y2088708D01*
X3441292Y2087944D01*
X3440479Y2087231D01*
X3439622Y2086573D01*
X3438723Y2085972D01*
X3437787Y2085432D01*
X3436817Y2084954D01*
X3435819Y2084540D01*
X3434795Y2084192D01*
X3433751Y2083913D01*
X3432691Y2083702D01*
X3431619Y2083561D01*
X3430540Y2083490D01*
X3429460Y2083490D01*
X3428381Y2083561D01*
X3427309Y2083702D01*
X3426249Y2083913D01*
X3425205Y2084192D01*
X3424181Y2084540D01*
X3423183Y2084954D01*
X3422213Y2085432D01*
X3421277Y2085972D01*
X3420378Y2086573D01*
X3419521Y2087231D01*
X3418708Y2087944D01*
X3417944Y2088708D01*
X3417231Y2089521D01*
X3416573Y2090378D01*
X3415972Y2091277D01*
X3415432Y2092213D01*
X3414954Y2093183D01*
X3414540Y2094181D01*
X3414192Y2095205D01*
X3413913Y2096249D01*
X3413702Y2097309D01*
X3413561Y2098381D01*
X3413490Y2099460D01*
X3413490Y2100540D01*
X3413561Y2101619D01*
X3413702Y2102691D01*
X3413913Y2103751D01*
X3414192Y2104795D01*
X3414540Y2105819D01*
X3414954Y2106817D01*
X3415432Y2107787D01*
X3415972Y2108723D01*
X3416573Y2109622D01*
X3417231Y2110479D01*
X3417944Y2111292D01*
X3418708Y2112057D01*
X3419521Y2112769D01*
X3420378Y2113427D01*
X3421277Y2114028D01*
X3422213Y2114568D01*
X3423183Y2115046D01*
X3424181Y2115460D01*
X3425205Y2115808D01*
X3426249Y2116087D01*
X3427309Y2116298D01*
X3428381Y2116439D01*
X3429460Y2116510D01*
X3430540Y2116510D01*
X3431619Y2116439D01*
X3432691Y2116298D01*
X3433751Y2116087D01*
X3434795Y2115808D01*
X3435819Y2115460D01*
X3436817Y2115046D01*
X3437787Y2114568D01*
X3438723Y2114028D01*
X3439622Y2113427D01*
X3440479Y2112769D01*
X3441292Y2112057D01*
X3442057Y2111292D01*
X3442769Y2110479D01*
X3443427Y2109622D01*
X3444028Y2108723D01*
X3444568Y2107787D01*
X3445046Y2106817D01*
X3445460Y2105819D01*
X3445808Y2104795D01*
X3446087Y2103751D01*
X3446298Y2102691D01*
X3446439Y2101619D01*
X3446510Y2100540D01*
X3446510Y2099460D01*
X91510Y2099460D02*
X91439Y2098381D01*
X91298Y2097309D01*
X91087Y2096249D01*
X90808Y2095205D01*
X90460Y2094181D01*
X90046Y2093183D01*
X89568Y2092213D01*
X89028Y2091277D01*
X88427Y2090378D01*
X87769Y2089521D01*
X87057Y2088708D01*
X86292Y2087944D01*
X85479Y2087231D01*
X84622Y2086573D01*
X83723Y2085972D01*
X82787Y2085432D01*
X81817Y2084954D01*
X80819Y2084540D01*
X79795Y2084192D01*
X78751Y2083913D01*
X77691Y2083702D01*
X76619Y2083561D01*
X75540Y2083490D01*
X74460Y2083490D01*
X73381Y2083561D01*
X72309Y2083702D01*
X71249Y2083913D01*
X70205Y2084192D01*
X69181Y2084540D01*
X68183Y2084954D01*
X67213Y2085432D01*
X66277Y2085972D01*
X65378Y2086573D01*
X64521Y2087231D01*
X63708Y2087944D01*
X62944Y2088708D01*
X62231Y2089521D01*
X61573Y2090378D01*
X60972Y2091277D01*
X60432Y2092213D01*
X59954Y2093183D01*
X59540Y2094181D01*
X59192Y2095205D01*
X58913Y2096249D01*
X58702Y2097309D01*
X58561Y2098381D01*
X58490Y2099460D01*
X58490Y2100540D01*
X58561Y2101619D01*
X58702Y2102691D01*
X58913Y2103751D01*
X59192Y2104795D01*
X59540Y2105819D01*
X59954Y2106817D01*
X60432Y2107787D01*
X60972Y2108723D01*
X61573Y2109622D01*
X62231Y2110479D01*
X62944Y2111292D01*
X63708Y2112057D01*
X64521Y2112769D01*
X65378Y2113427D01*
X66277Y2114028D01*
X67213Y2114568D01*
X68183Y2115046D01*
X69181Y2115460D01*
X70205Y2115808D01*
X71249Y2116087D01*
X72309Y2116298D01*
X73381Y2116439D01*
X74460Y2116510D01*
X75540Y2116510D01*
X76619Y2116439D01*
X77691Y2116298D01*
X78751Y2116087D01*
X79795Y2115808D01*
X80819Y2115460D01*
X81817Y2115046D01*
X82787Y2114568D01*
X83723Y2114028D01*
X84622Y2113427D01*
X85479Y2112769D01*
X86292Y2112057D01*
X87057Y2111292D01*
X87769Y2110479D01*
X88427Y2109622D01*
X89028Y2108723D01*
X89568Y2107787D01*
X90046Y2106817D01*
X90460Y2105819D01*
X90808Y2104795D01*
X91087Y2103751D01*
X91298Y2102691D01*
X91439Y2101619D01*
X91510Y2100540D01*
X91510Y2099460D01*
M02*
