G75*
%MOIN*%
%OFA0B0*%
%FSLAX25Y25*%
%IPPOS*%
%LPD*%
%AMOC8*
5,1,8,0,0,1.08239X$1,22.5*
%
%ADD10R,0.05131X0.04737*%
%ADD11R,0.04146X0.04343*%
%ADD12R,0.04737X0.05131*%
%ADD13C,0.03300*%
%ADD14R,0.01981X0.03398*%
%ADD15R,0.04343X0.04737*%
%ADD16R,0.04343X0.06706*%
%ADD17R,0.06706X0.04343*%
%ADD18R,0.24422X0.24422*%
%ADD19R,0.02965X0.05524*%
%ADD20R,0.01981X0.04146*%
%ADD21R,0.04146X0.01981*%
%ADD22R,0.10839X0.10839*%
%ADD23C,0.13800*%
%ADD24R,0.04800X0.01981*%
%ADD25R,0.04800X0.03162*%
%ADD26R,0.04800X0.02965*%
%ADD27C,0.03359*%
%ADD28C,0.00039*%
%ADD29R,0.05524X0.10643*%
%ADD30C,0.05524*%
%ADD31R,0.05524X0.03950*%
%ADD32R,0.03162X0.02855*%
%ADD33C,0.01181*%
%ADD34C,0.08200*%
D10*
X0251654Y0090000D03*
X0258346Y0090000D03*
X0258346Y0100000D03*
X0251654Y0100000D03*
X0261654Y0072500D03*
X0268346Y0072500D03*
X0301654Y0050000D03*
X0308346Y0050000D03*
X0331654Y0047500D03*
X0338346Y0047500D03*
X0338346Y0067500D03*
X0331654Y0067500D03*
X0381654Y0125000D03*
X0388346Y0125000D03*
X0396654Y0125000D03*
X0403346Y0125000D03*
X0459154Y0142500D03*
X0465846Y0142500D03*
D11*
X0267283Y0080000D03*
X0262717Y0080000D03*
X0262717Y0045000D03*
X0267283Y0045000D03*
D12*
X0253000Y0054154D03*
X0253000Y0060846D03*
X0290000Y0053346D03*
X0290000Y0046654D03*
X0325000Y0054154D03*
X0325000Y0060846D03*
X0451500Y0124154D03*
X0451500Y0130846D03*
D13*
X0035000Y0230000D03*
X0025000Y0230000D03*
X0015000Y0230000D03*
X0005000Y0230000D03*
D14*
X0332441Y0061122D03*
X0335000Y0061122D03*
X0337559Y0061122D03*
X0337559Y0053878D03*
X0335000Y0053878D03*
X0332441Y0053878D03*
D15*
X0346929Y0053150D03*
X0346929Y0046850D03*
X0363071Y0046850D03*
X0363071Y0053150D03*
X0363071Y0061850D03*
X0363071Y0068150D03*
X0346929Y0068150D03*
X0346929Y0061850D03*
D16*
X0375315Y0047567D03*
X0380315Y0047567D03*
X0385315Y0047567D03*
X0390315Y0047567D03*
X0395315Y0047567D03*
X0400315Y0047567D03*
X0405315Y0047567D03*
X0410315Y0047567D03*
X0415315Y0047567D03*
X0420315Y0047567D03*
X0425315Y0047567D03*
X0430315Y0047567D03*
X0435315Y0047567D03*
X0440315Y0047567D03*
X0440315Y0112433D03*
X0435315Y0112433D03*
X0430315Y0112433D03*
X0425315Y0112433D03*
X0420315Y0112433D03*
X0415315Y0112433D03*
X0410315Y0112433D03*
X0405315Y0112433D03*
X0400315Y0112433D03*
X0395315Y0112433D03*
X0390315Y0112433D03*
X0385315Y0112433D03*
X0380315Y0112433D03*
X0375315Y0112433D03*
D17*
X0369449Y0102500D03*
X0369449Y0097500D03*
X0369449Y0092500D03*
X0369449Y0087500D03*
X0369449Y0082500D03*
X0369449Y0077500D03*
X0369449Y0072500D03*
X0369449Y0067500D03*
X0369449Y0062500D03*
X0369449Y0057500D03*
D18*
X0410000Y0080000D03*
D19*
X0268740Y0065119D03*
X0261260Y0065119D03*
X0261260Y0054881D03*
X0265000Y0054881D03*
X0268740Y0054881D03*
D20*
X0305079Y0056929D03*
X0307047Y0056929D03*
X0309016Y0056929D03*
X0310984Y0056929D03*
X0312953Y0056929D03*
X0314921Y0056929D03*
X0314921Y0073071D03*
X0312953Y0073071D03*
X0310984Y0073071D03*
X0309016Y0073071D03*
X0307047Y0073071D03*
X0305079Y0073071D03*
D21*
X0301929Y0069921D03*
X0301929Y0067953D03*
X0301929Y0065984D03*
X0301929Y0064016D03*
X0301929Y0062047D03*
X0301929Y0060079D03*
X0318071Y0060079D03*
X0318071Y0062047D03*
X0318071Y0064016D03*
X0318071Y0065984D03*
X0318071Y0067953D03*
X0318071Y0069921D03*
D22*
X0310000Y0065000D03*
D23*
X0225000Y0050000D03*
X0465000Y0155000D03*
D24*
X0243106Y0102390D03*
X0243106Y0100421D03*
X0243106Y0098453D03*
X0243106Y0096484D03*
X0243106Y0094516D03*
X0243106Y0092547D03*
X0243106Y0090579D03*
X0243106Y0088610D03*
D25*
X0243106Y0082803D03*
X0243106Y0108197D03*
D26*
X0243106Y0105146D03*
X0243106Y0085854D03*
D27*
X0236811Y0084122D03*
X0236811Y0106878D03*
D28*
X0218941Y0078033D02*
X0219073Y0077591D01*
X0219289Y0077184D01*
X0219580Y0076826D01*
X0219935Y0076532D01*
X0220341Y0076313D01*
X0220781Y0076177D01*
X0221240Y0076130D01*
X0223602Y0076130D01*
X0224065Y0076174D01*
X0224511Y0076307D01*
X0224922Y0076524D01*
X0225283Y0076818D01*
X0225579Y0077176D01*
X0225800Y0077585D01*
X0225937Y0078030D01*
X0225984Y0078492D01*
X0225923Y0079020D01*
X0225745Y0079520D01*
X0225461Y0079969D01*
X0225083Y0080343D01*
X0224633Y0080624D01*
X0224130Y0080797D01*
X0223602Y0080854D01*
X0221240Y0080854D01*
X0220717Y0080793D01*
X0220220Y0080617D01*
X0219776Y0080335D01*
X0219405Y0079961D01*
X0219126Y0079514D01*
X0218954Y0079016D01*
X0218898Y0078492D01*
X0218941Y0078033D01*
X0225937Y0078033D01*
X0225941Y0078071D02*
X0218937Y0078071D01*
X0218934Y0078109D02*
X0225945Y0078109D01*
X0225949Y0078147D02*
X0218930Y0078147D01*
X0218927Y0078184D02*
X0225953Y0078184D01*
X0225957Y0078222D02*
X0218923Y0078222D01*
X0218920Y0078260D02*
X0225960Y0078260D01*
X0225964Y0078298D02*
X0218916Y0078298D01*
X0218912Y0078336D02*
X0225968Y0078336D01*
X0225972Y0078374D02*
X0218909Y0078374D01*
X0218905Y0078412D02*
X0225976Y0078412D01*
X0225980Y0078450D02*
X0218902Y0078450D01*
X0218898Y0078488D02*
X0225984Y0078488D01*
X0225980Y0078525D02*
X0218901Y0078525D01*
X0218905Y0078563D02*
X0225976Y0078563D01*
X0225972Y0078601D02*
X0218909Y0078601D01*
X0218914Y0078639D02*
X0225967Y0078639D01*
X0225963Y0078677D02*
X0218918Y0078677D01*
X0218922Y0078715D02*
X0225958Y0078715D01*
X0225954Y0078753D02*
X0218926Y0078753D01*
X0218930Y0078791D02*
X0225949Y0078791D01*
X0225945Y0078828D02*
X0218934Y0078828D01*
X0218938Y0078866D02*
X0225941Y0078866D01*
X0225936Y0078904D02*
X0218942Y0078904D01*
X0218946Y0078942D02*
X0225932Y0078942D01*
X0225927Y0078980D02*
X0218951Y0078980D01*
X0218955Y0079018D02*
X0225923Y0079018D01*
X0225910Y0079056D02*
X0218968Y0079056D01*
X0218981Y0079094D02*
X0225896Y0079094D01*
X0225883Y0079131D02*
X0218994Y0079131D01*
X0219007Y0079169D02*
X0225870Y0079169D01*
X0225856Y0079207D02*
X0219021Y0079207D01*
X0219034Y0079245D02*
X0225843Y0079245D01*
X0225829Y0079283D02*
X0219047Y0079283D01*
X0219060Y0079321D02*
X0225816Y0079321D01*
X0225802Y0079359D02*
X0219073Y0079359D01*
X0219086Y0079397D02*
X0225789Y0079397D01*
X0225776Y0079435D02*
X0219099Y0079435D01*
X0219112Y0079472D02*
X0225762Y0079472D01*
X0225749Y0079510D02*
X0219125Y0079510D01*
X0219148Y0079548D02*
X0225727Y0079548D01*
X0225703Y0079586D02*
X0219171Y0079586D01*
X0219195Y0079624D02*
X0225679Y0079624D01*
X0225655Y0079662D02*
X0219218Y0079662D01*
X0219242Y0079700D02*
X0225631Y0079700D01*
X0225607Y0079738D02*
X0219266Y0079738D01*
X0219289Y0079775D02*
X0225583Y0079775D01*
X0225559Y0079813D02*
X0219313Y0079813D01*
X0219336Y0079851D02*
X0225535Y0079851D01*
X0225511Y0079889D02*
X0219360Y0079889D01*
X0219384Y0079927D02*
X0225487Y0079927D01*
X0225463Y0079965D02*
X0219409Y0079965D01*
X0219446Y0080003D02*
X0225426Y0080003D01*
X0225388Y0080041D02*
X0219484Y0080041D01*
X0219521Y0080079D02*
X0225350Y0080079D01*
X0225312Y0080116D02*
X0219559Y0080116D01*
X0219596Y0080154D02*
X0225274Y0080154D01*
X0225236Y0080192D02*
X0219634Y0080192D01*
X0219672Y0080230D02*
X0225197Y0080230D01*
X0225159Y0080268D02*
X0219709Y0080268D01*
X0219747Y0080306D02*
X0225121Y0080306D01*
X0225082Y0080344D02*
X0219789Y0080344D01*
X0219849Y0080382D02*
X0225021Y0080382D01*
X0224961Y0080419D02*
X0219909Y0080419D01*
X0219969Y0080457D02*
X0224900Y0080457D01*
X0224839Y0080495D02*
X0220028Y0080495D01*
X0220088Y0080533D02*
X0224778Y0080533D01*
X0224717Y0080571D02*
X0220148Y0080571D01*
X0220207Y0080609D02*
X0224656Y0080609D01*
X0224566Y0080647D02*
X0220304Y0080647D01*
X0220411Y0080685D02*
X0224456Y0080685D01*
X0224346Y0080723D02*
X0220518Y0080723D01*
X0220625Y0080760D02*
X0224237Y0080760D01*
X0224119Y0080798D02*
X0220761Y0080798D01*
X0221085Y0080836D02*
X0223770Y0080836D01*
X0225926Y0077995D02*
X0218952Y0077995D01*
X0218964Y0077957D02*
X0225914Y0077957D01*
X0225903Y0077919D02*
X0218975Y0077919D01*
X0218986Y0077881D02*
X0225891Y0077881D01*
X0225879Y0077844D02*
X0218998Y0077844D01*
X0219009Y0077806D02*
X0225868Y0077806D01*
X0225856Y0077768D02*
X0219020Y0077768D01*
X0219031Y0077730D02*
X0225844Y0077730D01*
X0225833Y0077692D02*
X0219043Y0077692D01*
X0219054Y0077654D02*
X0225821Y0077654D01*
X0225809Y0077616D02*
X0219065Y0077616D01*
X0219080Y0077578D02*
X0225796Y0077578D01*
X0225776Y0077540D02*
X0219100Y0077540D01*
X0219120Y0077503D02*
X0225755Y0077503D01*
X0225735Y0077465D02*
X0219140Y0077465D01*
X0219160Y0077427D02*
X0225714Y0077427D01*
X0225694Y0077389D02*
X0219180Y0077389D01*
X0219200Y0077351D02*
X0225674Y0077351D01*
X0225653Y0077313D02*
X0219220Y0077313D01*
X0219240Y0077275D02*
X0225633Y0077275D01*
X0225612Y0077237D02*
X0219260Y0077237D01*
X0219280Y0077200D02*
X0225592Y0077200D01*
X0225567Y0077162D02*
X0219306Y0077162D01*
X0219337Y0077124D02*
X0225536Y0077124D01*
X0225504Y0077086D02*
X0219368Y0077086D01*
X0219399Y0077048D02*
X0225473Y0077048D01*
X0225442Y0077010D02*
X0219430Y0077010D01*
X0219461Y0076972D02*
X0225410Y0076972D01*
X0225379Y0076934D02*
X0219491Y0076934D01*
X0219522Y0076896D02*
X0225348Y0076896D01*
X0225316Y0076859D02*
X0219553Y0076859D01*
X0219586Y0076821D02*
X0225285Y0076821D01*
X0225240Y0076783D02*
X0219632Y0076783D01*
X0219677Y0076745D02*
X0225193Y0076745D01*
X0225147Y0076707D02*
X0219723Y0076707D01*
X0219769Y0076669D02*
X0225100Y0076669D01*
X0225053Y0076631D02*
X0219815Y0076631D01*
X0219860Y0076593D02*
X0225007Y0076593D01*
X0224960Y0076556D02*
X0219906Y0076556D01*
X0219961Y0076518D02*
X0224909Y0076518D01*
X0224838Y0076480D02*
X0220031Y0076480D01*
X0220101Y0076442D02*
X0224766Y0076442D01*
X0224695Y0076404D02*
X0220172Y0076404D01*
X0220242Y0076366D02*
X0224623Y0076366D01*
X0224552Y0076328D02*
X0220312Y0076328D01*
X0220413Y0076290D02*
X0224456Y0076290D01*
X0224329Y0076252D02*
X0220536Y0076252D01*
X0220659Y0076215D02*
X0224203Y0076215D01*
X0224076Y0076177D02*
X0220784Y0076177D01*
X0221153Y0076139D02*
X0223697Y0076139D01*
X0234402Y0077988D02*
X0234546Y0077503D01*
X0234794Y0077063D01*
X0235134Y0076689D01*
X0235549Y0076400D01*
X0236017Y0076211D01*
X0236516Y0076130D01*
X0241240Y0076130D01*
X0241682Y0076191D01*
X0242103Y0076337D01*
X0242488Y0076562D01*
X0242822Y0076858D01*
X0243091Y0077214D01*
X0243286Y0077615D01*
X0243399Y0078047D01*
X0243425Y0078492D01*
X0243399Y0078937D01*
X0243286Y0079369D01*
X0243091Y0079770D01*
X0242822Y0080126D01*
X0242488Y0080422D01*
X0242103Y0080647D01*
X0241682Y0080793D01*
X0241240Y0080854D01*
X0236516Y0080854D01*
X0236017Y0080774D01*
X0235549Y0080584D01*
X0235134Y0080295D01*
X0234794Y0079921D01*
X0234546Y0079481D01*
X0234402Y0078996D01*
X0234370Y0078492D01*
X0234402Y0077988D01*
X0234402Y0077995D02*
X0243385Y0077995D01*
X0243375Y0077957D02*
X0234412Y0077957D01*
X0234423Y0077919D02*
X0243365Y0077919D01*
X0243356Y0077881D02*
X0234434Y0077881D01*
X0234445Y0077844D02*
X0243346Y0077844D01*
X0243336Y0077806D02*
X0234457Y0077806D01*
X0234468Y0077768D02*
X0243326Y0077768D01*
X0243316Y0077730D02*
X0234479Y0077730D01*
X0234490Y0077692D02*
X0243306Y0077692D01*
X0243296Y0077654D02*
X0234502Y0077654D01*
X0234513Y0077616D02*
X0243286Y0077616D01*
X0243268Y0077578D02*
X0234524Y0077578D01*
X0234535Y0077540D02*
X0243250Y0077540D01*
X0243231Y0077503D02*
X0234547Y0077503D01*
X0234568Y0077465D02*
X0243213Y0077465D01*
X0243195Y0077427D02*
X0234589Y0077427D01*
X0234611Y0077389D02*
X0243176Y0077389D01*
X0243158Y0077351D02*
X0234632Y0077351D01*
X0234654Y0077313D02*
X0243139Y0077313D01*
X0243121Y0077275D02*
X0234675Y0077275D01*
X0234696Y0077237D02*
X0243103Y0077237D01*
X0243080Y0077200D02*
X0234718Y0077200D01*
X0234739Y0077162D02*
X0243052Y0077162D01*
X0243023Y0077124D02*
X0234760Y0077124D01*
X0234782Y0077086D02*
X0242994Y0077086D01*
X0242965Y0077048D02*
X0234808Y0077048D01*
X0234843Y0077010D02*
X0242937Y0077010D01*
X0242908Y0076972D02*
X0234877Y0076972D01*
X0234911Y0076934D02*
X0242879Y0076934D01*
X0242851Y0076896D02*
X0234946Y0076896D01*
X0234980Y0076859D02*
X0242822Y0076859D01*
X0242779Y0076821D02*
X0235015Y0076821D01*
X0235049Y0076783D02*
X0242737Y0076783D01*
X0242694Y0076745D02*
X0235083Y0076745D01*
X0235118Y0076707D02*
X0242651Y0076707D01*
X0242609Y0076669D02*
X0235163Y0076669D01*
X0235217Y0076631D02*
X0242566Y0076631D01*
X0242523Y0076593D02*
X0235271Y0076593D01*
X0235326Y0076556D02*
X0242477Y0076556D01*
X0242412Y0076518D02*
X0235380Y0076518D01*
X0235434Y0076480D02*
X0242347Y0076480D01*
X0242283Y0076442D02*
X0235489Y0076442D01*
X0235543Y0076404D02*
X0242218Y0076404D01*
X0242153Y0076366D02*
X0235632Y0076366D01*
X0235726Y0076328D02*
X0242079Y0076328D01*
X0241969Y0076290D02*
X0235820Y0076290D01*
X0235913Y0076252D02*
X0241860Y0076252D01*
X0241751Y0076215D02*
X0236007Y0076215D01*
X0236226Y0076177D02*
X0241579Y0076177D01*
X0241305Y0076139D02*
X0236460Y0076139D01*
X0234400Y0078033D02*
X0243395Y0078033D01*
X0243400Y0078071D02*
X0234397Y0078071D01*
X0234395Y0078109D02*
X0243402Y0078109D01*
X0243405Y0078147D02*
X0234392Y0078147D01*
X0234390Y0078184D02*
X0243407Y0078184D01*
X0243409Y0078222D02*
X0234387Y0078222D01*
X0234385Y0078260D02*
X0243411Y0078260D01*
X0243414Y0078298D02*
X0234383Y0078298D01*
X0234380Y0078336D02*
X0243416Y0078336D01*
X0243418Y0078374D02*
X0234378Y0078374D01*
X0234375Y0078412D02*
X0243420Y0078412D01*
X0243423Y0078450D02*
X0234373Y0078450D01*
X0234370Y0078488D02*
X0243425Y0078488D01*
X0243423Y0078525D02*
X0234372Y0078525D01*
X0234375Y0078563D02*
X0243421Y0078563D01*
X0243419Y0078601D02*
X0234377Y0078601D01*
X0234380Y0078639D02*
X0243416Y0078639D01*
X0243414Y0078677D02*
X0234382Y0078677D01*
X0234384Y0078715D02*
X0243412Y0078715D01*
X0243410Y0078753D02*
X0234387Y0078753D01*
X0234389Y0078791D02*
X0243407Y0078791D01*
X0243405Y0078828D02*
X0234392Y0078828D01*
X0234394Y0078866D02*
X0243403Y0078866D01*
X0243401Y0078904D02*
X0234397Y0078904D01*
X0234399Y0078942D02*
X0243398Y0078942D01*
X0243388Y0078980D02*
X0234401Y0078980D01*
X0234409Y0079018D02*
X0243378Y0079018D01*
X0243368Y0079056D02*
X0234420Y0079056D01*
X0234431Y0079094D02*
X0243358Y0079094D01*
X0243348Y0079131D02*
X0234443Y0079131D01*
X0234454Y0079169D02*
X0243338Y0079169D01*
X0243328Y0079207D02*
X0234465Y0079207D01*
X0234476Y0079245D02*
X0243318Y0079245D01*
X0243308Y0079283D02*
X0234488Y0079283D01*
X0234499Y0079321D02*
X0243299Y0079321D01*
X0243289Y0079359D02*
X0234510Y0079359D01*
X0234521Y0079397D02*
X0243273Y0079397D01*
X0243254Y0079435D02*
X0234533Y0079435D01*
X0234544Y0079472D02*
X0243236Y0079472D01*
X0243217Y0079510D02*
X0234563Y0079510D01*
X0234584Y0079548D02*
X0243199Y0079548D01*
X0243181Y0079586D02*
X0234606Y0079586D01*
X0234627Y0079624D02*
X0243162Y0079624D01*
X0243144Y0079662D02*
X0234648Y0079662D01*
X0234670Y0079700D02*
X0243125Y0079700D01*
X0243107Y0079738D02*
X0234691Y0079738D01*
X0234712Y0079775D02*
X0243087Y0079775D01*
X0243059Y0079813D02*
X0234734Y0079813D01*
X0234755Y0079851D02*
X0243030Y0079851D01*
X0243001Y0079889D02*
X0234776Y0079889D01*
X0234800Y0079927D02*
X0242972Y0079927D01*
X0242944Y0079965D02*
X0234834Y0079965D01*
X0234869Y0080003D02*
X0242915Y0080003D01*
X0242886Y0080041D02*
X0234903Y0080041D01*
X0234937Y0080079D02*
X0242858Y0080079D01*
X0242829Y0080116D02*
X0234972Y0080116D01*
X0235006Y0080154D02*
X0242790Y0080154D01*
X0242747Y0080192D02*
X0235041Y0080192D01*
X0235075Y0080230D02*
X0242704Y0080230D01*
X0242662Y0080268D02*
X0235109Y0080268D01*
X0235149Y0080306D02*
X0242619Y0080306D01*
X0242577Y0080344D02*
X0235204Y0080344D01*
X0235258Y0080382D02*
X0242534Y0080382D01*
X0242491Y0080419D02*
X0235312Y0080419D01*
X0235367Y0080457D02*
X0242428Y0080457D01*
X0242363Y0080495D02*
X0235421Y0080495D01*
X0235475Y0080533D02*
X0242299Y0080533D01*
X0242234Y0080571D02*
X0235530Y0080571D01*
X0235610Y0080609D02*
X0242169Y0080609D01*
X0242105Y0080647D02*
X0235703Y0080647D01*
X0235797Y0080685D02*
X0241996Y0080685D01*
X0241887Y0080723D02*
X0235890Y0080723D01*
X0235984Y0080760D02*
X0241777Y0080760D01*
X0241646Y0080798D02*
X0236169Y0080798D01*
X0236403Y0080836D02*
X0241372Y0080836D01*
X0241240Y0110146D02*
X0236516Y0110146D01*
X0236017Y0110226D01*
X0235549Y0110416D01*
X0235134Y0110705D01*
X0234794Y0111079D01*
X0234546Y0111519D01*
X0234402Y0112004D01*
X0234370Y0112508D01*
X0234402Y0113012D01*
X0234546Y0113497D01*
X0234794Y0113937D01*
X0235134Y0114311D01*
X0235549Y0114600D01*
X0236017Y0114789D01*
X0236516Y0114870D01*
X0241240Y0114870D01*
X0241682Y0114809D01*
X0242103Y0114663D01*
X0242488Y0114438D01*
X0242822Y0114142D01*
X0243091Y0113786D01*
X0243286Y0113385D01*
X0243399Y0112953D01*
X0243425Y0112508D01*
X0243399Y0112063D01*
X0243286Y0111631D01*
X0243091Y0111230D01*
X0242822Y0110874D01*
X0242488Y0110578D01*
X0242103Y0110353D01*
X0241682Y0110207D01*
X0241240Y0110146D01*
X0241318Y0110156D02*
X0236450Y0110156D01*
X0236215Y0110194D02*
X0241592Y0110194D01*
X0241756Y0110232D02*
X0236002Y0110232D01*
X0235909Y0110270D02*
X0241865Y0110270D01*
X0241974Y0110308D02*
X0235815Y0110308D01*
X0235722Y0110346D02*
X0242084Y0110346D01*
X0242156Y0110384D02*
X0235628Y0110384D01*
X0235540Y0110422D02*
X0242221Y0110422D01*
X0242286Y0110459D02*
X0235486Y0110459D01*
X0235432Y0110497D02*
X0242350Y0110497D01*
X0242415Y0110535D02*
X0235377Y0110535D01*
X0235323Y0110573D02*
X0242480Y0110573D01*
X0242525Y0110611D02*
X0235269Y0110611D01*
X0235215Y0110649D02*
X0242568Y0110649D01*
X0242611Y0110687D02*
X0235160Y0110687D01*
X0235116Y0110725D02*
X0242653Y0110725D01*
X0242696Y0110762D02*
X0235082Y0110762D01*
X0235047Y0110800D02*
X0242739Y0110800D01*
X0242781Y0110838D02*
X0235013Y0110838D01*
X0234979Y0110876D02*
X0242823Y0110876D01*
X0242852Y0110914D02*
X0234944Y0110914D01*
X0234910Y0110952D02*
X0242881Y0110952D01*
X0242909Y0110990D02*
X0234875Y0110990D01*
X0234841Y0111028D02*
X0242938Y0111028D01*
X0242967Y0111066D02*
X0234807Y0111066D01*
X0234781Y0111103D02*
X0242995Y0111103D01*
X0243024Y0111141D02*
X0234759Y0111141D01*
X0234738Y0111179D02*
X0243053Y0111179D01*
X0243082Y0111217D02*
X0234717Y0111217D01*
X0234695Y0111255D02*
X0243103Y0111255D01*
X0243122Y0111293D02*
X0234674Y0111293D01*
X0234653Y0111331D02*
X0243140Y0111331D01*
X0243159Y0111369D02*
X0234631Y0111369D01*
X0234610Y0111406D02*
X0243177Y0111406D01*
X0243195Y0111444D02*
X0234588Y0111444D01*
X0234567Y0111482D02*
X0243214Y0111482D01*
X0243232Y0111520D02*
X0234546Y0111520D01*
X0234535Y0111558D02*
X0243251Y0111558D01*
X0243269Y0111596D02*
X0234524Y0111596D01*
X0234512Y0111634D02*
X0243287Y0111634D01*
X0243297Y0111672D02*
X0234501Y0111672D01*
X0234490Y0111709D02*
X0243307Y0111709D01*
X0243316Y0111747D02*
X0234479Y0111747D01*
X0234467Y0111785D02*
X0243326Y0111785D01*
X0243336Y0111823D02*
X0234456Y0111823D01*
X0234445Y0111861D02*
X0243346Y0111861D01*
X0243356Y0111899D02*
X0234434Y0111899D01*
X0234422Y0111937D02*
X0243366Y0111937D01*
X0243376Y0111975D02*
X0234411Y0111975D01*
X0234402Y0112013D02*
X0243386Y0112013D01*
X0243396Y0112050D02*
X0234399Y0112050D01*
X0234397Y0112088D02*
X0243400Y0112088D01*
X0243403Y0112126D02*
X0234395Y0112126D01*
X0234392Y0112164D02*
X0243405Y0112164D01*
X0243407Y0112202D02*
X0234390Y0112202D01*
X0234387Y0112240D02*
X0243409Y0112240D01*
X0243412Y0112278D02*
X0234385Y0112278D01*
X0234382Y0112316D02*
X0243414Y0112316D01*
X0243416Y0112353D02*
X0234380Y0112353D01*
X0234378Y0112391D02*
X0243418Y0112391D01*
X0243421Y0112429D02*
X0234375Y0112429D01*
X0234373Y0112467D02*
X0243423Y0112467D01*
X0243425Y0112505D02*
X0234370Y0112505D01*
X0234372Y0112543D02*
X0243423Y0112543D01*
X0243421Y0112581D02*
X0234375Y0112581D01*
X0234377Y0112619D02*
X0243419Y0112619D01*
X0243416Y0112657D02*
X0234380Y0112657D01*
X0234382Y0112694D02*
X0243414Y0112694D01*
X0243412Y0112732D02*
X0234384Y0112732D01*
X0234387Y0112770D02*
X0243410Y0112770D01*
X0243407Y0112808D02*
X0234389Y0112808D01*
X0234392Y0112846D02*
X0243405Y0112846D01*
X0243403Y0112884D02*
X0234394Y0112884D01*
X0234397Y0112922D02*
X0243401Y0112922D01*
X0243397Y0112960D02*
X0234399Y0112960D01*
X0234402Y0112997D02*
X0243387Y0112997D01*
X0243377Y0113035D02*
X0234409Y0113035D01*
X0234421Y0113073D02*
X0243367Y0113073D01*
X0243358Y0113111D02*
X0234432Y0113111D01*
X0234443Y0113149D02*
X0243348Y0113149D01*
X0243338Y0113187D02*
X0234454Y0113187D01*
X0234466Y0113225D02*
X0243328Y0113225D01*
X0243318Y0113263D02*
X0234477Y0113263D01*
X0234488Y0113301D02*
X0243308Y0113301D01*
X0243298Y0113338D02*
X0234499Y0113338D01*
X0234511Y0113376D02*
X0243288Y0113376D01*
X0243272Y0113414D02*
X0234522Y0113414D01*
X0234533Y0113452D02*
X0243253Y0113452D01*
X0243235Y0113490D02*
X0234544Y0113490D01*
X0234564Y0113528D02*
X0243217Y0113528D01*
X0243198Y0113566D02*
X0234585Y0113566D01*
X0234607Y0113604D02*
X0243180Y0113604D01*
X0243161Y0113641D02*
X0234628Y0113641D01*
X0234649Y0113679D02*
X0243143Y0113679D01*
X0243125Y0113717D02*
X0234671Y0113717D01*
X0234692Y0113755D02*
X0243106Y0113755D01*
X0243086Y0113793D02*
X0234713Y0113793D01*
X0234735Y0113831D02*
X0243057Y0113831D01*
X0243029Y0113869D02*
X0234756Y0113869D01*
X0234777Y0113907D02*
X0243000Y0113907D01*
X0242971Y0113944D02*
X0234801Y0113944D01*
X0234836Y0113982D02*
X0242942Y0113982D01*
X0242914Y0114020D02*
X0234870Y0114020D01*
X0234905Y0114058D02*
X0242885Y0114058D01*
X0242856Y0114096D02*
X0234939Y0114096D01*
X0234973Y0114134D02*
X0242828Y0114134D01*
X0242788Y0114172D02*
X0235008Y0114172D01*
X0235042Y0114210D02*
X0242745Y0114210D01*
X0242703Y0114248D02*
X0235077Y0114248D01*
X0235111Y0114285D02*
X0242660Y0114285D01*
X0242617Y0114323D02*
X0235152Y0114323D01*
X0235206Y0114361D02*
X0242575Y0114361D01*
X0242532Y0114399D02*
X0235261Y0114399D01*
X0235315Y0114437D02*
X0242489Y0114437D01*
X0242425Y0114475D02*
X0235369Y0114475D01*
X0235424Y0114513D02*
X0242360Y0114513D01*
X0242296Y0114551D02*
X0235478Y0114551D01*
X0235532Y0114588D02*
X0242231Y0114588D01*
X0242166Y0114626D02*
X0235614Y0114626D01*
X0235707Y0114664D02*
X0242100Y0114664D01*
X0241991Y0114702D02*
X0235801Y0114702D01*
X0235895Y0114740D02*
X0241882Y0114740D01*
X0241772Y0114778D02*
X0235988Y0114778D01*
X0236180Y0114816D02*
X0241634Y0114816D01*
X0241359Y0114854D02*
X0236414Y0114854D01*
X0225923Y0113035D02*
X0225984Y0112508D01*
X0225937Y0112045D01*
X0225800Y0111601D01*
X0225579Y0111192D01*
X0225283Y0110833D01*
X0224922Y0110540D01*
X0224511Y0110322D01*
X0224065Y0110189D01*
X0223602Y0110146D01*
X0221240Y0110146D01*
X0220781Y0110193D01*
X0220341Y0110328D01*
X0219935Y0110548D01*
X0219580Y0110842D01*
X0219289Y0111199D01*
X0219073Y0111607D01*
X0218941Y0112049D01*
X0218898Y0112508D01*
X0218954Y0113032D01*
X0219126Y0113530D01*
X0219405Y0113977D01*
X0219776Y0114351D01*
X0220220Y0114633D01*
X0220717Y0114809D01*
X0221240Y0114870D01*
X0223602Y0114870D01*
X0224130Y0114813D01*
X0224633Y0114639D01*
X0225083Y0114359D01*
X0225461Y0113985D01*
X0225745Y0113536D01*
X0225923Y0113035D01*
X0218956Y0113035D01*
X0218951Y0112997D02*
X0225927Y0112997D01*
X0225931Y0112960D02*
X0218947Y0112960D01*
X0218943Y0112922D02*
X0225936Y0112922D01*
X0225940Y0112884D02*
X0218938Y0112884D01*
X0218934Y0112846D02*
X0225945Y0112846D01*
X0225949Y0112808D02*
X0218930Y0112808D01*
X0218926Y0112770D02*
X0225954Y0112770D01*
X0225958Y0112732D02*
X0218922Y0112732D01*
X0218918Y0112694D02*
X0225962Y0112694D01*
X0225967Y0112657D02*
X0218914Y0112657D01*
X0218910Y0112619D02*
X0225971Y0112619D01*
X0225976Y0112581D02*
X0218906Y0112581D01*
X0218901Y0112543D02*
X0225980Y0112543D01*
X0225984Y0112505D02*
X0218898Y0112505D01*
X0218901Y0112467D02*
X0225980Y0112467D01*
X0225976Y0112429D02*
X0218905Y0112429D01*
X0218909Y0112391D02*
X0225972Y0112391D01*
X0225968Y0112353D02*
X0218912Y0112353D01*
X0218916Y0112316D02*
X0225965Y0112316D01*
X0225961Y0112278D02*
X0218919Y0112278D01*
X0218923Y0112240D02*
X0225957Y0112240D01*
X0225953Y0112202D02*
X0218926Y0112202D01*
X0218930Y0112164D02*
X0225949Y0112164D01*
X0225945Y0112126D02*
X0218934Y0112126D01*
X0218937Y0112088D02*
X0225941Y0112088D01*
X0225937Y0112050D02*
X0218941Y0112050D01*
X0218952Y0112013D02*
X0225927Y0112013D01*
X0225915Y0111975D02*
X0218963Y0111975D01*
X0218974Y0111937D02*
X0225903Y0111937D01*
X0225892Y0111899D02*
X0218986Y0111899D01*
X0218997Y0111861D02*
X0225880Y0111861D01*
X0225868Y0111823D02*
X0219008Y0111823D01*
X0219020Y0111785D02*
X0225857Y0111785D01*
X0225845Y0111747D02*
X0219031Y0111747D01*
X0219042Y0111709D02*
X0225833Y0111709D01*
X0225822Y0111672D02*
X0219054Y0111672D01*
X0219065Y0111634D02*
X0225810Y0111634D01*
X0225797Y0111596D02*
X0219079Y0111596D01*
X0219099Y0111558D02*
X0225777Y0111558D01*
X0225756Y0111520D02*
X0219119Y0111520D01*
X0219139Y0111482D02*
X0225736Y0111482D01*
X0225715Y0111444D02*
X0219159Y0111444D01*
X0219179Y0111406D02*
X0225695Y0111406D01*
X0225675Y0111369D02*
X0219199Y0111369D01*
X0219219Y0111331D02*
X0225654Y0111331D01*
X0225634Y0111293D02*
X0219239Y0111293D01*
X0219259Y0111255D02*
X0225613Y0111255D01*
X0225593Y0111217D02*
X0219279Y0111217D01*
X0219305Y0111179D02*
X0225569Y0111179D01*
X0225537Y0111141D02*
X0219336Y0111141D01*
X0219367Y0111103D02*
X0225506Y0111103D01*
X0225475Y0111066D02*
X0219398Y0111066D01*
X0219428Y0111028D02*
X0225443Y0111028D01*
X0225412Y0110990D02*
X0219459Y0110990D01*
X0219490Y0110952D02*
X0225381Y0110952D01*
X0225349Y0110914D02*
X0219521Y0110914D01*
X0219552Y0110876D02*
X0225318Y0110876D01*
X0225286Y0110838D02*
X0219584Y0110838D01*
X0219630Y0110800D02*
X0225242Y0110800D01*
X0225195Y0110762D02*
X0219675Y0110762D01*
X0219721Y0110725D02*
X0225149Y0110725D01*
X0225102Y0110687D02*
X0219767Y0110687D01*
X0219813Y0110649D02*
X0225056Y0110649D01*
X0225009Y0110611D02*
X0219858Y0110611D01*
X0219904Y0110573D02*
X0224963Y0110573D01*
X0224913Y0110535D02*
X0219958Y0110535D01*
X0220028Y0110497D02*
X0224841Y0110497D01*
X0224770Y0110459D02*
X0220098Y0110459D01*
X0220168Y0110422D02*
X0224698Y0110422D01*
X0224626Y0110384D02*
X0220239Y0110384D01*
X0220309Y0110346D02*
X0224555Y0110346D01*
X0224462Y0110308D02*
X0220408Y0110308D01*
X0220531Y0110270D02*
X0224335Y0110270D01*
X0224208Y0110232D02*
X0220654Y0110232D01*
X0220777Y0110194D02*
X0224082Y0110194D01*
X0223716Y0110156D02*
X0221136Y0110156D01*
X0218969Y0113073D02*
X0225909Y0113073D01*
X0225896Y0113111D02*
X0218982Y0113111D01*
X0218995Y0113149D02*
X0225882Y0113149D01*
X0225869Y0113187D02*
X0219008Y0113187D01*
X0219021Y0113225D02*
X0225855Y0113225D01*
X0225842Y0113263D02*
X0219034Y0113263D01*
X0219047Y0113301D02*
X0225829Y0113301D01*
X0225815Y0113338D02*
X0219060Y0113338D01*
X0219073Y0113376D02*
X0225802Y0113376D01*
X0225788Y0113414D02*
X0219087Y0113414D01*
X0219100Y0113452D02*
X0225775Y0113452D01*
X0225761Y0113490D02*
X0219113Y0113490D01*
X0219126Y0113528D02*
X0225748Y0113528D01*
X0225726Y0113566D02*
X0219149Y0113566D01*
X0219172Y0113604D02*
X0225702Y0113604D01*
X0225678Y0113641D02*
X0219196Y0113641D01*
X0219220Y0113679D02*
X0225654Y0113679D01*
X0225630Y0113717D02*
X0219243Y0113717D01*
X0219267Y0113755D02*
X0225606Y0113755D01*
X0225582Y0113793D02*
X0219290Y0113793D01*
X0219314Y0113831D02*
X0225558Y0113831D01*
X0225534Y0113869D02*
X0219337Y0113869D01*
X0219361Y0113907D02*
X0225510Y0113907D01*
X0225486Y0113944D02*
X0219385Y0113944D01*
X0219410Y0113982D02*
X0225462Y0113982D01*
X0225425Y0114020D02*
X0219448Y0114020D01*
X0219485Y0114058D02*
X0225387Y0114058D01*
X0225348Y0114096D02*
X0219523Y0114096D01*
X0219561Y0114134D02*
X0225310Y0114134D01*
X0225272Y0114172D02*
X0219598Y0114172D01*
X0219636Y0114210D02*
X0225234Y0114210D01*
X0225196Y0114248D02*
X0219673Y0114248D01*
X0219711Y0114285D02*
X0225157Y0114285D01*
X0225119Y0114323D02*
X0219748Y0114323D01*
X0219792Y0114361D02*
X0225079Y0114361D01*
X0225019Y0114399D02*
X0219852Y0114399D01*
X0219912Y0114437D02*
X0224958Y0114437D01*
X0224897Y0114475D02*
X0219971Y0114475D01*
X0220031Y0114513D02*
X0224836Y0114513D01*
X0224775Y0114551D02*
X0220091Y0114551D01*
X0220151Y0114588D02*
X0224714Y0114588D01*
X0224654Y0114626D02*
X0220210Y0114626D01*
X0220309Y0114664D02*
X0224561Y0114664D01*
X0224451Y0114702D02*
X0220416Y0114702D01*
X0220523Y0114740D02*
X0224341Y0114740D01*
X0224232Y0114778D02*
X0220629Y0114778D01*
X0220776Y0114816D02*
X0224103Y0114816D01*
X0223754Y0114854D02*
X0221100Y0114854D01*
D29*
X0259488Y0127205D03*
X0255157Y0152795D03*
X0239409Y0152795D03*
X0227598Y0152795D03*
D30*
X0221299Y0140000D03*
X0248858Y0140000D03*
D31*
X0280000Y0053543D03*
X0280000Y0046457D03*
D32*
X0458957Y0132429D03*
X0458957Y0135665D03*
X0462500Y0135665D03*
X0466043Y0135665D03*
X0466043Y0132429D03*
D33*
X0459894Y0127500D02*
X0459896Y0127602D01*
X0459902Y0127703D01*
X0459912Y0127804D01*
X0459926Y0127905D01*
X0459943Y0128005D01*
X0459965Y0128105D01*
X0459991Y0128203D01*
X0460020Y0128300D01*
X0460053Y0128397D01*
X0460090Y0128491D01*
X0460130Y0128585D01*
X0460175Y0128676D01*
X0460222Y0128766D01*
X0460273Y0128854D01*
X0460328Y0128940D01*
X0460386Y0129024D01*
X0460447Y0129105D01*
X0460511Y0129184D01*
X0460578Y0129260D01*
X0460648Y0129334D01*
X0460721Y0129405D01*
X0460797Y0129473D01*
X0460875Y0129537D01*
X0460956Y0129599D01*
X0461039Y0129658D01*
X0461124Y0129713D01*
X0461212Y0129765D01*
X0461301Y0129814D01*
X0461392Y0129859D01*
X0461485Y0129900D01*
X0461580Y0129938D01*
X0461675Y0129972D01*
X0461772Y0130002D01*
X0461871Y0130029D01*
X0461970Y0130051D01*
X0462070Y0130070D01*
X0462170Y0130085D01*
X0462271Y0130096D01*
X0462373Y0130103D01*
X0462475Y0130106D01*
X0462576Y0130105D01*
X0462678Y0130100D01*
X0462779Y0130091D01*
X0462880Y0130078D01*
X0462980Y0130061D01*
X0463080Y0130041D01*
X0463179Y0130016D01*
X0463276Y0129988D01*
X0463373Y0129956D01*
X0463468Y0129920D01*
X0463562Y0129880D01*
X0463654Y0129837D01*
X0463744Y0129790D01*
X0463832Y0129740D01*
X0463919Y0129686D01*
X0464003Y0129629D01*
X0464085Y0129569D01*
X0464164Y0129505D01*
X0464241Y0129439D01*
X0464316Y0129369D01*
X0464387Y0129297D01*
X0464456Y0129222D01*
X0464522Y0129145D01*
X0464584Y0129064D01*
X0464644Y0128982D01*
X0464700Y0128897D01*
X0464753Y0128810D01*
X0464802Y0128721D01*
X0464848Y0128631D01*
X0464890Y0128538D01*
X0464929Y0128444D01*
X0464964Y0128349D01*
X0464995Y0128252D01*
X0465023Y0128154D01*
X0465046Y0128055D01*
X0465066Y0127955D01*
X0465082Y0127855D01*
X0465094Y0127754D01*
X0465102Y0127652D01*
X0465106Y0127551D01*
X0465106Y0127449D01*
X0465102Y0127348D01*
X0465094Y0127246D01*
X0465082Y0127145D01*
X0465066Y0127045D01*
X0465046Y0126945D01*
X0465023Y0126846D01*
X0464995Y0126748D01*
X0464964Y0126651D01*
X0464929Y0126556D01*
X0464890Y0126462D01*
X0464848Y0126369D01*
X0464802Y0126279D01*
X0464753Y0126190D01*
X0464700Y0126103D01*
X0464644Y0126018D01*
X0464584Y0125936D01*
X0464522Y0125855D01*
X0464456Y0125778D01*
X0464387Y0125703D01*
X0464316Y0125631D01*
X0464241Y0125561D01*
X0464164Y0125495D01*
X0464085Y0125431D01*
X0464003Y0125371D01*
X0463919Y0125314D01*
X0463832Y0125260D01*
X0463744Y0125210D01*
X0463654Y0125163D01*
X0463562Y0125120D01*
X0463468Y0125080D01*
X0463373Y0125044D01*
X0463276Y0125012D01*
X0463179Y0124984D01*
X0463080Y0124959D01*
X0462980Y0124939D01*
X0462880Y0124922D01*
X0462779Y0124909D01*
X0462678Y0124900D01*
X0462576Y0124895D01*
X0462475Y0124894D01*
X0462373Y0124897D01*
X0462271Y0124904D01*
X0462170Y0124915D01*
X0462070Y0124930D01*
X0461970Y0124949D01*
X0461871Y0124971D01*
X0461772Y0124998D01*
X0461675Y0125028D01*
X0461580Y0125062D01*
X0461485Y0125100D01*
X0461392Y0125141D01*
X0461301Y0125186D01*
X0461212Y0125235D01*
X0461124Y0125287D01*
X0461039Y0125342D01*
X0460956Y0125401D01*
X0460875Y0125463D01*
X0460797Y0125527D01*
X0460721Y0125595D01*
X0460648Y0125666D01*
X0460578Y0125740D01*
X0460511Y0125816D01*
X0460447Y0125895D01*
X0460386Y0125976D01*
X0460328Y0126060D01*
X0460273Y0126146D01*
X0460222Y0126234D01*
X0460175Y0126324D01*
X0460130Y0126415D01*
X0460090Y0126509D01*
X0460053Y0126603D01*
X0460020Y0126700D01*
X0459991Y0126797D01*
X0459965Y0126895D01*
X0459943Y0126995D01*
X0459926Y0127095D01*
X0459912Y0127196D01*
X0459902Y0127297D01*
X0459896Y0127398D01*
X0459894Y0127500D01*
D34*
X0400000Y0160000D03*
X0390000Y0160000D03*
X0380000Y0160000D03*
M02*
