G75*
%MOIN*%
%OFA0B0*%
%FSLAX25Y25*%
%IPPOS*%
%LPD*%
%AMOC8*
5,1,8,0,0,1.08239X$1,22.5*
%
%ADD10C,0.00800*%
%ADD11C,0.03937*%
%ADD12C,0.07400*%
%ADD13C,0.02900*%
%ADD14C,0.01200*%
%ADD15C,0.02000*%
D10*
X0216500Y0041500D02*
X0216500Y0060356D01*
X0216785Y0060214D01*
X0216900Y0060252D01*
X0219815Y0059280D01*
X0220927Y0059836D01*
X0221319Y0061015D01*
X0220910Y0061833D01*
X0221319Y0062652D01*
X0221059Y0063432D01*
X0222219Y0064881D01*
X0222600Y0065262D01*
X0222600Y0065357D01*
X0222659Y0065431D01*
X0222600Y0065966D01*
X0222600Y0066505D01*
X0222533Y0066572D01*
X0222522Y0066666D01*
X0222102Y0067003D01*
X0221721Y0067383D01*
X0221626Y0067383D01*
X0221552Y0067443D01*
X0221017Y0067383D01*
X0218400Y0067383D01*
X0218400Y0067671D01*
X0218355Y0067717D01*
X0220145Y0067717D01*
X0221091Y0068178D01*
X0221720Y0068393D01*
X0222600Y0069626D01*
X0222600Y0071141D01*
X0221720Y0072373D01*
X0221720Y0072373D01*
X0221091Y0072589D01*
X0221056Y0072606D01*
X0220950Y0072739D01*
X0220734Y0072763D01*
X0220145Y0073050D01*
X0217855Y0073050D01*
X0216909Y0072589D01*
X0216500Y0072449D01*
X0216500Y0163500D01*
X0376288Y0163500D01*
X0376110Y0163322D01*
X0375638Y0162673D01*
X0375274Y0161958D01*
X0375026Y0161194D01*
X0374900Y0160401D01*
X0374900Y0160400D01*
X0379600Y0160400D01*
X0379600Y0159600D01*
X0374900Y0159600D01*
X0374900Y0159599D01*
X0375026Y0158806D01*
X0375274Y0158042D01*
X0375638Y0157327D01*
X0376110Y0156678D01*
X0376678Y0156110D01*
X0377327Y0155638D01*
X0378042Y0155274D01*
X0378806Y0155026D01*
X0379599Y0154900D01*
X0379600Y0154900D01*
X0379600Y0159600D01*
X0380400Y0159600D01*
X0380400Y0160400D01*
X0385100Y0160400D01*
X0385100Y0160401D01*
X0384974Y0161194D01*
X0384726Y0161958D01*
X0384362Y0162673D01*
X0383890Y0163322D01*
X0383712Y0163500D01*
X0386712Y0163500D01*
X0385931Y0162719D01*
X0385200Y0160955D01*
X0385200Y0159045D01*
X0385931Y0157281D01*
X0387281Y0155931D01*
X0389045Y0155200D01*
X0390955Y0155200D01*
X0392719Y0155931D01*
X0394069Y0157281D01*
X0394800Y0159045D01*
X0394800Y0160955D01*
X0394069Y0162719D01*
X0393288Y0163500D01*
X0396712Y0163500D01*
X0395931Y0162719D01*
X0395200Y0160955D01*
X0395200Y0159045D01*
X0395931Y0157281D01*
X0397281Y0155931D01*
X0397900Y0155674D01*
X0397900Y0141150D01*
X0350180Y0141150D01*
X0300580Y0091550D01*
X0300493Y0091550D01*
X0299556Y0091162D01*
X0298838Y0090444D01*
X0298450Y0089507D01*
X0298450Y0088493D01*
X0298800Y0087648D01*
X0298800Y0059200D01*
X0286906Y0059200D01*
X0286444Y0059662D01*
X0285507Y0060050D01*
X0284493Y0060050D01*
X0283556Y0059662D01*
X0282838Y0058944D01*
X0282450Y0058007D01*
X0282450Y0056993D01*
X0282838Y0056056D01*
X0283556Y0055338D01*
X0284493Y0054950D01*
X0285507Y0054950D01*
X0286444Y0055338D01*
X0286906Y0055800D01*
X0298191Y0055800D01*
X0298338Y0055445D01*
X0299056Y0054727D01*
X0299993Y0054339D01*
X0301007Y0054339D01*
X0301944Y0054727D01*
X0302662Y0055445D01*
X0303050Y0056382D01*
X0303050Y0057396D01*
X0302662Y0058333D01*
X0302200Y0058795D01*
X0302200Y0086737D01*
X0302444Y0086838D01*
X0303162Y0087556D01*
X0303550Y0088493D01*
X0303550Y0088580D01*
X0351920Y0136950D01*
X0437844Y0136950D01*
X0437838Y0136944D01*
X0437450Y0136007D01*
X0437450Y0134993D01*
X0437838Y0134056D01*
X0437894Y0134000D01*
X0382879Y0134000D01*
X0382429Y0133550D01*
X0381493Y0133550D01*
X0380556Y0133162D01*
X0379838Y0132444D01*
X0379450Y0131507D01*
X0379450Y0130493D01*
X0379838Y0129556D01*
X0380556Y0128838D01*
X0381493Y0128450D01*
X0382507Y0128450D01*
X0383444Y0128838D01*
X0384162Y0129556D01*
X0384550Y0130493D01*
X0384550Y0131000D01*
X0468394Y0131000D01*
X0469056Y0130338D01*
X0469993Y0129950D01*
X0471007Y0129950D01*
X0471944Y0130338D01*
X0472662Y0131056D01*
X0473050Y0131993D01*
X0473050Y0133007D01*
X0472662Y0133944D01*
X0471944Y0134662D01*
X0471731Y0134750D01*
X0471944Y0134838D01*
X0472662Y0135556D01*
X0473050Y0136493D01*
X0473050Y0137507D01*
X0472662Y0138444D01*
X0471944Y0139162D01*
X0471007Y0139550D01*
X0469993Y0139550D01*
X0469056Y0139162D01*
X0468394Y0138500D01*
X0456657Y0138500D01*
X0454657Y0140500D01*
X0451606Y0140500D01*
X0450944Y0141162D01*
X0450007Y0141550D01*
X0448993Y0141550D01*
X0448056Y0141162D01*
X0448044Y0141150D01*
X0402100Y0141150D01*
X0402100Y0155674D01*
X0402719Y0155931D01*
X0404069Y0157281D01*
X0404800Y0159045D01*
X0404800Y0160955D01*
X0404069Y0162719D01*
X0403288Y0163500D01*
X0473500Y0163500D01*
X0473500Y0121500D01*
X0448879Y0121500D01*
X0448000Y0120621D01*
X0448000Y0041500D01*
X0216500Y0041500D01*
X0216500Y0041597D02*
X0448000Y0041597D01*
X0448000Y0042396D02*
X0227807Y0042396D01*
X0226611Y0041900D02*
X0229588Y0043133D01*
X0231867Y0045412D01*
X0233100Y0048389D01*
X0233100Y0051611D01*
X0231867Y0054588D01*
X0231867Y0054588D01*
X0229588Y0056867D01*
X0226611Y0058100D01*
X0223389Y0058100D01*
X0220412Y0056867D01*
X0220412Y0056867D01*
X0218133Y0054588D01*
X0216900Y0051611D01*
X0216900Y0048389D01*
X0218133Y0045412D01*
X0220412Y0043133D01*
X0223389Y0041900D01*
X0224669Y0041900D01*
X0226611Y0041900D01*
X0226611Y0041900D01*
X0229649Y0043194D02*
X0448000Y0043194D01*
X0448000Y0043993D02*
X0316114Y0043993D01*
X0316500Y0044379D02*
X0320621Y0048500D01*
X0321500Y0049379D01*
X0321500Y0052894D01*
X0322162Y0053556D01*
X0322550Y0054493D01*
X0322550Y0055507D01*
X0322162Y0056444D01*
X0321444Y0057162D01*
X0320507Y0057550D01*
X0319493Y0057550D01*
X0318556Y0057162D01*
X0317838Y0056444D01*
X0317450Y0055507D01*
X0317450Y0054493D01*
X0317838Y0053556D01*
X0318500Y0052894D01*
X0318500Y0050621D01*
X0314379Y0046500D01*
X0296500Y0046500D01*
X0296500Y0049379D01*
X0296571Y0049450D01*
X0297507Y0049450D01*
X0298444Y0049838D01*
X0299162Y0050556D01*
X0299550Y0051493D01*
X0299550Y0052507D01*
X0299162Y0053444D01*
X0298444Y0054162D01*
X0297507Y0054550D01*
X0296493Y0054550D01*
X0295556Y0054162D01*
X0294838Y0053444D01*
X0294450Y0052507D01*
X0294450Y0051571D01*
X0293500Y0050621D01*
X0293500Y0046500D01*
X0275621Y0046500D01*
X0266500Y0055621D01*
X0266500Y0062894D01*
X0267162Y0063556D01*
X0267550Y0064493D01*
X0267550Y0065507D01*
X0267162Y0066444D01*
X0266444Y0067162D01*
X0265507Y0067550D01*
X0264493Y0067550D01*
X0263556Y0067162D01*
X0262838Y0066444D01*
X0262450Y0065507D01*
X0262450Y0064493D01*
X0262838Y0063556D01*
X0263500Y0062894D01*
X0263500Y0054379D01*
X0273500Y0044379D01*
X0273500Y0044379D01*
X0274379Y0043500D01*
X0315621Y0043500D01*
X0316500Y0044379D01*
X0316912Y0044791D02*
X0448000Y0044791D01*
X0448000Y0045590D02*
X0328696Y0045590D01*
X0328444Y0045338D02*
X0329162Y0046056D01*
X0329550Y0046993D01*
X0329550Y0047929D01*
X0340149Y0058527D01*
X0340604Y0058339D01*
X0341618Y0058339D01*
X0342555Y0058727D01*
X0343273Y0059445D01*
X0343661Y0060382D01*
X0343661Y0061396D01*
X0343273Y0062333D01*
X0342555Y0063051D01*
X0341618Y0063439D01*
X0340604Y0063439D01*
X0339667Y0063051D01*
X0338949Y0062333D01*
X0338561Y0061396D01*
X0338561Y0061182D01*
X0332050Y0054671D01*
X0332050Y0055507D01*
X0331662Y0056444D01*
X0331000Y0057106D01*
X0331000Y0065121D01*
X0329050Y0067071D01*
X0329050Y0068007D01*
X0328662Y0068944D01*
X0327944Y0069662D01*
X0327007Y0070050D01*
X0325993Y0070050D01*
X0325056Y0069662D01*
X0324338Y0068944D01*
X0323950Y0068007D01*
X0323950Y0066993D01*
X0324338Y0066056D01*
X0325056Y0065338D01*
X0325993Y0064950D01*
X0326929Y0064950D01*
X0328000Y0063879D01*
X0328000Y0057106D01*
X0327338Y0056444D01*
X0326950Y0055507D01*
X0326950Y0054493D01*
X0327338Y0053556D01*
X0328056Y0052838D01*
X0328993Y0052450D01*
X0329829Y0052450D01*
X0327429Y0050050D01*
X0327071Y0050050D01*
X0326500Y0050621D01*
X0326500Y0060121D01*
X0325621Y0061000D01*
X0309550Y0077071D01*
X0309550Y0078007D01*
X0309162Y0078944D01*
X0308444Y0079662D01*
X0307507Y0080050D01*
X0306493Y0080050D01*
X0305556Y0079662D01*
X0304838Y0078944D01*
X0304450Y0078007D01*
X0304450Y0076993D01*
X0304838Y0076056D01*
X0305556Y0075338D01*
X0306493Y0074950D01*
X0307429Y0074950D01*
X0323500Y0058879D01*
X0323500Y0049379D01*
X0324573Y0048305D01*
X0324450Y0048007D01*
X0324450Y0046993D01*
X0324838Y0046056D01*
X0325556Y0045338D01*
X0326493Y0044950D01*
X0327507Y0044950D01*
X0328444Y0045338D01*
X0329300Y0046388D02*
X0448000Y0046388D01*
X0448000Y0047187D02*
X0329550Y0047187D01*
X0329606Y0047985D02*
X0448000Y0047985D01*
X0448000Y0048784D02*
X0330405Y0048784D01*
X0331203Y0049582D02*
X0448000Y0049582D01*
X0448000Y0050381D02*
X0332002Y0050381D01*
X0332800Y0051179D02*
X0448000Y0051179D01*
X0448000Y0051978D02*
X0333599Y0051978D01*
X0334397Y0052776D02*
X0448000Y0052776D01*
X0448000Y0053575D02*
X0335196Y0053575D01*
X0335995Y0054373D02*
X0448000Y0054373D01*
X0448000Y0055172D02*
X0336793Y0055172D01*
X0337592Y0055970D02*
X0448000Y0055970D01*
X0448000Y0056769D02*
X0338390Y0056769D01*
X0339189Y0057567D02*
X0448000Y0057567D01*
X0448000Y0058366D02*
X0341683Y0058366D01*
X0340539Y0058366D02*
X0339987Y0058366D01*
X0340389Y0060889D02*
X0341111Y0060889D01*
X0340389Y0060889D02*
X0327250Y0047750D01*
X0325000Y0050000D01*
X0325000Y0059500D01*
X0307000Y0077500D01*
X0306047Y0075134D02*
X0302200Y0075134D01*
X0302200Y0074336D02*
X0308043Y0074336D01*
X0308841Y0073537D02*
X0302200Y0073537D01*
X0302200Y0072739D02*
X0309640Y0072739D01*
X0310438Y0071940D02*
X0302200Y0071940D01*
X0302200Y0071142D02*
X0311237Y0071142D01*
X0312035Y0070343D02*
X0302200Y0070343D01*
X0302200Y0069545D02*
X0312834Y0069545D01*
X0313632Y0068746D02*
X0302200Y0068746D01*
X0302200Y0067948D02*
X0314431Y0067948D01*
X0315229Y0067149D02*
X0302200Y0067149D01*
X0302200Y0066351D02*
X0316028Y0066351D01*
X0316826Y0065552D02*
X0302200Y0065552D01*
X0302200Y0064754D02*
X0317625Y0064754D01*
X0318423Y0063955D02*
X0302200Y0063955D01*
X0302200Y0063157D02*
X0319222Y0063157D01*
X0320020Y0062358D02*
X0302200Y0062358D01*
X0302200Y0061560D02*
X0320819Y0061560D01*
X0321617Y0060761D02*
X0302200Y0060761D01*
X0302200Y0059963D02*
X0322416Y0059963D01*
X0323214Y0059164D02*
X0302200Y0059164D01*
X0302629Y0058366D02*
X0323500Y0058366D01*
X0323500Y0057567D02*
X0302979Y0057567D01*
X0303050Y0056769D02*
X0318163Y0056769D01*
X0317642Y0055970D02*
X0302880Y0055970D01*
X0302389Y0055172D02*
X0317450Y0055172D01*
X0317500Y0054373D02*
X0301090Y0054373D01*
X0299910Y0054373D02*
X0297934Y0054373D01*
X0298611Y0055172D02*
X0286042Y0055172D01*
X0283957Y0055172D02*
X0266950Y0055172D01*
X0266500Y0055970D02*
X0282924Y0055970D01*
X0282543Y0056769D02*
X0266500Y0056769D01*
X0266500Y0057567D02*
X0282450Y0057567D01*
X0282599Y0058366D02*
X0266500Y0058366D01*
X0266500Y0059164D02*
X0283058Y0059164D01*
X0284282Y0059963D02*
X0266500Y0059963D01*
X0266500Y0060761D02*
X0298800Y0060761D01*
X0298800Y0059963D02*
X0285718Y0059963D01*
X0296066Y0054373D02*
X0267748Y0054373D01*
X0268547Y0053575D02*
X0294968Y0053575D01*
X0294561Y0052776D02*
X0269345Y0052776D01*
X0270144Y0051978D02*
X0294450Y0051978D01*
X0294058Y0051179D02*
X0270942Y0051179D01*
X0271741Y0050381D02*
X0293500Y0050381D01*
X0293500Y0049582D02*
X0272539Y0049582D01*
X0273338Y0048784D02*
X0293500Y0048784D01*
X0293500Y0047985D02*
X0274136Y0047985D01*
X0274935Y0047187D02*
X0293500Y0047187D01*
X0295000Y0045000D02*
X0295000Y0050000D01*
X0297000Y0052000D01*
X0299550Y0051978D02*
X0318500Y0051978D01*
X0318500Y0052776D02*
X0299439Y0052776D01*
X0299032Y0053575D02*
X0317830Y0053575D01*
X0318500Y0051179D02*
X0299420Y0051179D01*
X0298987Y0050381D02*
X0318259Y0050381D01*
X0317461Y0049582D02*
X0297826Y0049582D01*
X0296500Y0048784D02*
X0316662Y0048784D01*
X0315864Y0047985D02*
X0296500Y0047985D01*
X0296500Y0047187D02*
X0315065Y0047187D01*
X0315000Y0045000D02*
X0295000Y0045000D01*
X0275000Y0045000D01*
X0265000Y0055000D01*
X0265000Y0065000D01*
X0266763Y0063157D02*
X0298800Y0063157D01*
X0298800Y0063955D02*
X0267327Y0063955D01*
X0267550Y0064754D02*
X0298800Y0064754D01*
X0298800Y0065552D02*
X0267531Y0065552D01*
X0267201Y0066351D02*
X0298800Y0066351D01*
X0298800Y0067149D02*
X0266457Y0067149D01*
X0263543Y0067149D02*
X0221955Y0067149D01*
X0222600Y0066351D02*
X0262799Y0066351D01*
X0262469Y0065552D02*
X0222646Y0065552D01*
X0222117Y0064754D02*
X0262450Y0064754D01*
X0262673Y0063955D02*
X0221479Y0063955D01*
X0221151Y0063157D02*
X0263237Y0063157D01*
X0263500Y0062358D02*
X0221173Y0062358D01*
X0221047Y0061560D02*
X0263500Y0061560D01*
X0263500Y0060761D02*
X0221235Y0060761D01*
X0220969Y0059963D02*
X0263500Y0059963D01*
X0263500Y0059164D02*
X0216500Y0059164D01*
X0216500Y0058366D02*
X0263500Y0058366D01*
X0263500Y0057567D02*
X0227897Y0057567D01*
X0229588Y0056867D02*
X0229588Y0056867D01*
X0229686Y0056769D02*
X0263500Y0056769D01*
X0263500Y0055970D02*
X0230485Y0055970D01*
X0231283Y0055172D02*
X0263500Y0055172D01*
X0263505Y0054373D02*
X0231956Y0054373D01*
X0232287Y0053575D02*
X0264304Y0053575D01*
X0265102Y0052776D02*
X0232617Y0052776D01*
X0232948Y0051978D02*
X0265901Y0051978D01*
X0266700Y0051179D02*
X0233100Y0051179D01*
X0233100Y0050381D02*
X0267498Y0050381D01*
X0268297Y0049582D02*
X0233100Y0049582D01*
X0233100Y0048784D02*
X0269095Y0048784D01*
X0269894Y0047985D02*
X0232933Y0047985D01*
X0232602Y0047187D02*
X0270692Y0047187D01*
X0271491Y0046388D02*
X0232271Y0046388D01*
X0231941Y0045590D02*
X0272289Y0045590D01*
X0273088Y0044791D02*
X0231246Y0044791D01*
X0231867Y0045412D02*
X0231867Y0045412D01*
X0230448Y0043993D02*
X0273886Y0043993D01*
X0266500Y0061560D02*
X0298800Y0061560D01*
X0298800Y0062358D02*
X0266500Y0062358D01*
X0243664Y0076754D02*
X0244131Y0077882D01*
X0244131Y0079102D01*
X0243664Y0080230D01*
X0242801Y0081093D01*
X0241673Y0081561D01*
X0236122Y0081561D01*
X0234994Y0081093D01*
X0234131Y0080230D01*
X0233664Y0079102D01*
X0233664Y0077882D01*
X0234131Y0076754D01*
X0234994Y0075891D01*
X0236122Y0075424D01*
X0241673Y0075424D01*
X0242801Y0075891D01*
X0243664Y0076754D01*
X0243642Y0076732D02*
X0298800Y0076732D01*
X0298800Y0077530D02*
X0243986Y0077530D01*
X0244131Y0078329D02*
X0298800Y0078329D01*
X0298800Y0079127D02*
X0244121Y0079127D01*
X0243791Y0079926D02*
X0298800Y0079926D01*
X0298800Y0080724D02*
X0243171Y0080724D01*
X0241765Y0081523D02*
X0298800Y0081523D01*
X0298800Y0082321D02*
X0238375Y0082321D01*
X0237797Y0081743D02*
X0239191Y0083136D01*
X0239191Y0085108D01*
X0237797Y0086502D01*
X0235825Y0086502D01*
X0234431Y0085108D01*
X0234431Y0083136D01*
X0235825Y0081743D01*
X0237797Y0081743D01*
X0236030Y0081523D02*
X0224324Y0081523D01*
X0224232Y0081561D02*
X0220649Y0081561D01*
X0219522Y0081093D01*
X0218658Y0080230D01*
X0218191Y0079102D01*
X0218191Y0077882D01*
X0218658Y0076754D01*
X0219522Y0075891D01*
X0220649Y0075424D01*
X0224232Y0075424D01*
X0225360Y0075891D01*
X0226223Y0076754D01*
X0226691Y0077882D01*
X0226691Y0079102D01*
X0226223Y0080230D01*
X0225360Y0081093D01*
X0224232Y0081561D01*
X0225730Y0080724D02*
X0234625Y0080724D01*
X0234005Y0079926D02*
X0226350Y0079926D01*
X0226680Y0079127D02*
X0233674Y0079127D01*
X0233664Y0078329D02*
X0226691Y0078329D01*
X0226545Y0077530D02*
X0233809Y0077530D01*
X0234153Y0076732D02*
X0226201Y0076732D01*
X0225402Y0075933D02*
X0234952Y0075933D01*
X0242843Y0075933D02*
X0298800Y0075933D01*
X0298800Y0075134D02*
X0216500Y0075134D01*
X0216500Y0074336D02*
X0298800Y0074336D01*
X0298800Y0073537D02*
X0216500Y0073537D01*
X0216500Y0072739D02*
X0217217Y0072739D01*
X0217483Y0069567D02*
X0217585Y0069519D01*
X0217688Y0069475D01*
X0217792Y0069434D01*
X0217898Y0069397D01*
X0218005Y0069363D01*
X0218113Y0069333D01*
X0218222Y0069306D01*
X0218331Y0069282D01*
X0218442Y0069262D01*
X0218553Y0069246D01*
X0218664Y0069233D01*
X0218776Y0069224D01*
X0218888Y0069219D01*
X0219000Y0069217D01*
X0219000Y0071550D02*
X0219112Y0071548D01*
X0219224Y0071543D01*
X0219336Y0071534D01*
X0219447Y0071521D01*
X0219558Y0071505D01*
X0219669Y0071485D01*
X0219778Y0071461D01*
X0219887Y0071434D01*
X0219995Y0071404D01*
X0220102Y0071370D01*
X0220208Y0071333D01*
X0220312Y0071292D01*
X0220415Y0071248D01*
X0220517Y0071200D01*
X0220167Y0071317D02*
X0217833Y0069450D01*
X0216900Y0070383D02*
X0216902Y0070439D01*
X0216907Y0070495D01*
X0216917Y0070551D01*
X0216929Y0070606D01*
X0216946Y0070660D01*
X0216965Y0070712D01*
X0216989Y0070764D01*
X0217015Y0070814D01*
X0217045Y0070861D01*
X0217077Y0070907D01*
X0217113Y0070951D01*
X0217152Y0070992D01*
X0217193Y0071031D01*
X0217236Y0071066D01*
X0217282Y0071099D01*
X0217330Y0071129D01*
X0217379Y0071156D01*
X0217430Y0071179D01*
X0217483Y0071199D01*
X0216900Y0070383D02*
X0216902Y0070327D01*
X0216907Y0070271D01*
X0216917Y0070215D01*
X0216929Y0070160D01*
X0216946Y0070106D01*
X0216965Y0070054D01*
X0216989Y0070002D01*
X0217015Y0069952D01*
X0217045Y0069905D01*
X0217077Y0069859D01*
X0217113Y0069815D01*
X0217152Y0069774D01*
X0217193Y0069735D01*
X0217236Y0069700D01*
X0217282Y0069667D01*
X0217330Y0069637D01*
X0217379Y0069610D01*
X0217430Y0069587D01*
X0217483Y0069567D01*
X0217483Y0071200D02*
X0217585Y0071248D01*
X0217688Y0071292D01*
X0217792Y0071333D01*
X0217898Y0071370D01*
X0218005Y0071404D01*
X0218113Y0071434D01*
X0218222Y0071461D01*
X0218331Y0071485D01*
X0218442Y0071505D01*
X0218553Y0071521D01*
X0218664Y0071534D01*
X0218776Y0071543D01*
X0218888Y0071548D01*
X0219000Y0071550D01*
X0219000Y0069217D02*
X0219112Y0069219D01*
X0219224Y0069224D01*
X0219336Y0069233D01*
X0219447Y0069246D01*
X0219558Y0069262D01*
X0219669Y0069282D01*
X0219778Y0069306D01*
X0219887Y0069333D01*
X0219995Y0069363D01*
X0220102Y0069397D01*
X0220208Y0069434D01*
X0220312Y0069475D01*
X0220415Y0069519D01*
X0220517Y0069567D01*
X0220570Y0069587D01*
X0220621Y0069610D01*
X0220670Y0069637D01*
X0220718Y0069667D01*
X0220764Y0069700D01*
X0220807Y0069735D01*
X0220848Y0069774D01*
X0220887Y0069815D01*
X0220922Y0069859D01*
X0220955Y0069905D01*
X0220985Y0069952D01*
X0221011Y0070002D01*
X0221035Y0070054D01*
X0221054Y0070106D01*
X0221071Y0070160D01*
X0221083Y0070215D01*
X0221093Y0070271D01*
X0221098Y0070327D01*
X0221100Y0070383D01*
X0221098Y0070439D01*
X0221093Y0070495D01*
X0221083Y0070551D01*
X0221071Y0070606D01*
X0221054Y0070660D01*
X0221035Y0070712D01*
X0221011Y0070764D01*
X0220985Y0070814D01*
X0220955Y0070861D01*
X0220923Y0070907D01*
X0220887Y0070951D01*
X0220848Y0070992D01*
X0220807Y0071031D01*
X0220764Y0071066D01*
X0220718Y0071099D01*
X0220670Y0071129D01*
X0220621Y0071156D01*
X0220570Y0071179D01*
X0220517Y0071199D01*
X0220949Y0072739D02*
X0298800Y0072739D01*
X0298800Y0071940D02*
X0222029Y0071940D01*
X0221720Y0072373D02*
X0221720Y0072373D01*
X0222599Y0071142D02*
X0298800Y0071142D01*
X0298800Y0070343D02*
X0222600Y0070343D01*
X0222542Y0069545D02*
X0298800Y0069545D01*
X0298800Y0068746D02*
X0221972Y0068746D01*
X0221720Y0068393D02*
X0221720Y0068393D01*
X0220619Y0067948D02*
X0298800Y0067948D01*
X0311487Y0075134D02*
X0321000Y0075134D01*
X0321000Y0075106D02*
X0320338Y0074444D01*
X0319950Y0073507D01*
X0319950Y0072493D01*
X0320338Y0071556D01*
X0321056Y0070838D01*
X0321993Y0070450D01*
X0323007Y0070450D01*
X0323944Y0070838D01*
X0324662Y0071556D01*
X0325050Y0072493D01*
X0325050Y0073507D01*
X0324662Y0074444D01*
X0324000Y0075106D01*
X0324000Y0080894D01*
X0324662Y0081556D01*
X0325050Y0082493D01*
X0325050Y0083507D01*
X0324662Y0084444D01*
X0324000Y0085106D01*
X0324000Y0096879D01*
X0345621Y0118500D01*
X0397894Y0118500D01*
X0398556Y0117838D01*
X0399493Y0117450D01*
X0400507Y0117450D01*
X0401444Y0117838D01*
X0402162Y0118556D01*
X0402550Y0119493D01*
X0402550Y0120507D01*
X0402162Y0121444D01*
X0401444Y0122162D01*
X0400507Y0122550D01*
X0399493Y0122550D01*
X0398556Y0122162D01*
X0397894Y0121500D01*
X0344379Y0121500D01*
X0321879Y0099000D01*
X0321000Y0098121D01*
X0321000Y0085106D01*
X0320338Y0084444D01*
X0319950Y0083507D01*
X0319950Y0082493D01*
X0320338Y0081556D01*
X0321000Y0080894D01*
X0321000Y0075106D01*
X0321000Y0075933D02*
X0310688Y0075933D01*
X0309890Y0076732D02*
X0321000Y0076732D01*
X0321000Y0077530D02*
X0309550Y0077530D01*
X0309417Y0078329D02*
X0321000Y0078329D01*
X0321000Y0079127D02*
X0308979Y0079127D01*
X0307808Y0079926D02*
X0321000Y0079926D01*
X0321000Y0080724D02*
X0302200Y0080724D01*
X0302200Y0079926D02*
X0306192Y0079926D01*
X0305021Y0079127D02*
X0302200Y0079127D01*
X0302200Y0078329D02*
X0304583Y0078329D01*
X0304450Y0077530D02*
X0302200Y0077530D01*
X0302200Y0076732D02*
X0304558Y0076732D01*
X0304961Y0075933D02*
X0302200Y0075933D01*
X0302200Y0081523D02*
X0320371Y0081523D01*
X0320021Y0082321D02*
X0302200Y0082321D01*
X0302200Y0083120D02*
X0319950Y0083120D01*
X0320120Y0083918D02*
X0302200Y0083918D01*
X0302200Y0084717D02*
X0320610Y0084717D01*
X0321000Y0085515D02*
X0302200Y0085515D01*
X0302200Y0086314D02*
X0321000Y0086314D01*
X0321000Y0087112D02*
X0302718Y0087112D01*
X0303309Y0087911D02*
X0321000Y0087911D01*
X0321000Y0088709D02*
X0303679Y0088709D01*
X0304478Y0089508D02*
X0321000Y0089508D01*
X0321000Y0090306D02*
X0305276Y0090306D01*
X0306075Y0091105D02*
X0321000Y0091105D01*
X0321000Y0091903D02*
X0306873Y0091903D01*
X0307672Y0092702D02*
X0321000Y0092702D01*
X0321000Y0093500D02*
X0308470Y0093500D01*
X0309269Y0094299D02*
X0321000Y0094299D01*
X0321000Y0095097D02*
X0310067Y0095097D01*
X0310866Y0095896D02*
X0321000Y0095896D01*
X0321000Y0096694D02*
X0311664Y0096694D01*
X0312463Y0097493D02*
X0321000Y0097493D01*
X0321170Y0098291D02*
X0313261Y0098291D01*
X0314060Y0099090D02*
X0321969Y0099090D01*
X0322767Y0099888D02*
X0314858Y0099888D01*
X0315657Y0100687D02*
X0323566Y0100687D01*
X0324364Y0101485D02*
X0316455Y0101485D01*
X0317254Y0102284D02*
X0325163Y0102284D01*
X0325961Y0103082D02*
X0318052Y0103082D01*
X0318851Y0103881D02*
X0326760Y0103881D01*
X0327558Y0104679D02*
X0319649Y0104679D01*
X0320448Y0105478D02*
X0328357Y0105478D01*
X0329155Y0106276D02*
X0321246Y0106276D01*
X0322045Y0107075D02*
X0329954Y0107075D01*
X0330752Y0107873D02*
X0322843Y0107873D01*
X0323642Y0108672D02*
X0331551Y0108672D01*
X0332349Y0109470D02*
X0324440Y0109470D01*
X0325239Y0110269D02*
X0333148Y0110269D01*
X0333946Y0111068D02*
X0326037Y0111068D01*
X0326836Y0111866D02*
X0334745Y0111866D01*
X0335543Y0112665D02*
X0327634Y0112665D01*
X0328433Y0113463D02*
X0336342Y0113463D01*
X0337140Y0114262D02*
X0329231Y0114262D01*
X0330030Y0115060D02*
X0337939Y0115060D01*
X0338737Y0115859D02*
X0330828Y0115859D01*
X0331627Y0116657D02*
X0339536Y0116657D01*
X0340334Y0117456D02*
X0332425Y0117456D01*
X0333224Y0118254D02*
X0341133Y0118254D01*
X0341931Y0119053D02*
X0334022Y0119053D01*
X0334821Y0119851D02*
X0342730Y0119851D01*
X0343528Y0120650D02*
X0335619Y0120650D01*
X0336418Y0121448D02*
X0344327Y0121448D01*
X0345000Y0120000D02*
X0322500Y0097500D01*
X0322500Y0083000D01*
X0322500Y0073000D01*
X0324248Y0071142D02*
X0357737Y0071142D01*
X0358535Y0070343D02*
X0316278Y0070343D01*
X0317076Y0069545D02*
X0324939Y0069545D01*
X0324256Y0068746D02*
X0317875Y0068746D01*
X0318673Y0067948D02*
X0323950Y0067948D01*
X0323950Y0067149D02*
X0319472Y0067149D01*
X0320270Y0066351D02*
X0324216Y0066351D01*
X0324841Y0065552D02*
X0321069Y0065552D01*
X0321867Y0064754D02*
X0327125Y0064754D01*
X0327923Y0063955D02*
X0322666Y0063955D01*
X0323464Y0063157D02*
X0328000Y0063157D01*
X0328000Y0062358D02*
X0324263Y0062358D01*
X0325062Y0061560D02*
X0328000Y0061560D01*
X0328000Y0060761D02*
X0325860Y0060761D01*
X0326500Y0059963D02*
X0328000Y0059963D01*
X0328000Y0059164D02*
X0326500Y0059164D01*
X0326500Y0058366D02*
X0328000Y0058366D01*
X0328000Y0057567D02*
X0326500Y0057567D01*
X0326500Y0056769D02*
X0327663Y0056769D01*
X0327142Y0055970D02*
X0326500Y0055970D01*
X0326500Y0055172D02*
X0326950Y0055172D01*
X0327000Y0054373D02*
X0326500Y0054373D01*
X0326500Y0053575D02*
X0327330Y0053575D01*
X0326500Y0052776D02*
X0328205Y0052776D01*
X0329356Y0051978D02*
X0326500Y0051978D01*
X0326500Y0051179D02*
X0328558Y0051179D01*
X0327759Y0050381D02*
X0326741Y0050381D01*
X0327250Y0047750D02*
X0327000Y0047500D01*
X0324700Y0046388D02*
X0318509Y0046388D01*
X0317711Y0045590D02*
X0325304Y0045590D01*
X0324450Y0047187D02*
X0319308Y0047187D01*
X0320106Y0047985D02*
X0324450Y0047985D01*
X0324095Y0048784D02*
X0320905Y0048784D01*
X0321500Y0049582D02*
X0323500Y0049582D01*
X0323500Y0050381D02*
X0321500Y0050381D01*
X0321500Y0051179D02*
X0323500Y0051179D01*
X0323500Y0051978D02*
X0321500Y0051978D01*
X0321500Y0052776D02*
X0323500Y0052776D01*
X0323500Y0053575D02*
X0322170Y0053575D01*
X0322500Y0054373D02*
X0323500Y0054373D01*
X0323500Y0055172D02*
X0322550Y0055172D01*
X0322358Y0055970D02*
X0323500Y0055970D01*
X0323500Y0056769D02*
X0321837Y0056769D01*
X0320000Y0055000D02*
X0320000Y0050000D01*
X0315000Y0045000D01*
X0329500Y0055000D02*
X0329500Y0064500D01*
X0326500Y0067500D01*
X0328744Y0068746D02*
X0360132Y0068746D01*
X0360931Y0067948D02*
X0329050Y0067948D01*
X0329050Y0067149D02*
X0361729Y0067149D01*
X0362528Y0066351D02*
X0329770Y0066351D01*
X0330569Y0065552D02*
X0363326Y0065552D01*
X0364125Y0064754D02*
X0331000Y0064754D01*
X0331000Y0063955D02*
X0364923Y0063955D01*
X0365722Y0063157D02*
X0342299Y0063157D01*
X0343248Y0062358D02*
X0366520Y0062358D01*
X0367000Y0061879D02*
X0367879Y0061000D01*
X0382894Y0061000D01*
X0383556Y0060338D01*
X0384493Y0059950D01*
X0385507Y0059950D01*
X0386444Y0060338D01*
X0387162Y0061056D01*
X0387550Y0061993D01*
X0387550Y0063007D01*
X0387162Y0063944D01*
X0386444Y0064662D01*
X0385507Y0065050D01*
X0384493Y0065050D01*
X0383556Y0064662D01*
X0382894Y0064000D01*
X0369121Y0064000D01*
X0357550Y0075571D01*
X0357550Y0076507D01*
X0357162Y0077444D01*
X0356606Y0078000D01*
X0357106Y0078500D01*
X0364379Y0078500D01*
X0372450Y0070429D01*
X0372450Y0069493D01*
X0372838Y0068556D01*
X0373556Y0067838D01*
X0374493Y0067450D01*
X0375507Y0067450D01*
X0376444Y0067838D01*
X0377162Y0068556D01*
X0377550Y0069493D01*
X0377550Y0070507D01*
X0377162Y0071444D01*
X0376444Y0072162D01*
X0375507Y0072550D01*
X0374571Y0072550D01*
X0366500Y0080621D01*
X0365621Y0081500D01*
X0357106Y0081500D01*
X0356444Y0082162D01*
X0355507Y0082550D01*
X0354493Y0082550D01*
X0353556Y0082162D01*
X0352838Y0081444D01*
X0352450Y0080507D01*
X0352450Y0079493D01*
X0352838Y0078556D01*
X0353394Y0078000D01*
X0352838Y0077444D01*
X0352450Y0076507D01*
X0352450Y0075493D01*
X0352838Y0074556D01*
X0353556Y0073838D01*
X0354493Y0073450D01*
X0355429Y0073450D01*
X0367000Y0061879D01*
X0367319Y0061560D02*
X0343593Y0061560D01*
X0343661Y0060761D02*
X0383132Y0060761D01*
X0384462Y0059963D02*
X0343487Y0059963D01*
X0342992Y0059164D02*
X0448000Y0059164D01*
X0448000Y0059963D02*
X0385538Y0059963D01*
X0386868Y0060761D02*
X0448000Y0060761D01*
X0448000Y0061560D02*
X0387371Y0061560D01*
X0387550Y0062358D02*
X0448000Y0062358D01*
X0448000Y0063157D02*
X0387488Y0063157D01*
X0387151Y0063955D02*
X0448000Y0063955D01*
X0448000Y0064754D02*
X0386222Y0064754D01*
X0383778Y0064754D02*
X0368367Y0064754D01*
X0367569Y0065552D02*
X0448000Y0065552D01*
X0448000Y0066351D02*
X0366770Y0066351D01*
X0365972Y0067149D02*
X0448000Y0067149D01*
X0448000Y0067948D02*
X0376554Y0067948D01*
X0377241Y0068746D02*
X0448000Y0068746D01*
X0448000Y0069545D02*
X0377550Y0069545D01*
X0377550Y0070343D02*
X0448000Y0070343D01*
X0448000Y0071142D02*
X0377287Y0071142D01*
X0376666Y0071940D02*
X0448000Y0071940D01*
X0448000Y0072739D02*
X0374382Y0072739D01*
X0373584Y0073537D02*
X0448000Y0073537D01*
X0448000Y0074336D02*
X0372785Y0074336D01*
X0371987Y0075134D02*
X0448000Y0075134D01*
X0448000Y0075933D02*
X0371188Y0075933D01*
X0370390Y0076732D02*
X0448000Y0076732D01*
X0448000Y0077530D02*
X0369591Y0077530D01*
X0368793Y0078329D02*
X0448000Y0078329D01*
X0448000Y0079127D02*
X0367994Y0079127D01*
X0367196Y0079926D02*
X0448000Y0079926D01*
X0448000Y0080724D02*
X0366397Y0080724D01*
X0365000Y0080000D02*
X0355000Y0080000D01*
X0352450Y0079926D02*
X0324000Y0079926D01*
X0324000Y0080724D02*
X0352540Y0080724D01*
X0352916Y0081523D02*
X0324629Y0081523D01*
X0324979Y0082321D02*
X0353940Y0082321D01*
X0356060Y0082321D02*
X0448000Y0082321D01*
X0448000Y0081523D02*
X0357084Y0081523D01*
X0356935Y0078329D02*
X0364550Y0078329D01*
X0365349Y0077530D02*
X0357076Y0077530D01*
X0357457Y0076732D02*
X0366147Y0076732D01*
X0366946Y0075933D02*
X0357550Y0075933D01*
X0357987Y0075134D02*
X0367744Y0075134D01*
X0368543Y0074336D02*
X0358785Y0074336D01*
X0359584Y0073537D02*
X0369341Y0073537D01*
X0370140Y0072739D02*
X0360382Y0072739D01*
X0361181Y0071940D02*
X0370938Y0071940D01*
X0371737Y0071142D02*
X0361979Y0071142D01*
X0362778Y0070343D02*
X0372450Y0070343D01*
X0372450Y0069545D02*
X0363576Y0069545D01*
X0364375Y0068746D02*
X0372759Y0068746D01*
X0373446Y0067948D02*
X0365173Y0067948D01*
X0359334Y0069545D02*
X0328061Y0069545D01*
X0324821Y0071940D02*
X0356938Y0071940D01*
X0356140Y0072739D02*
X0325050Y0072739D01*
X0325037Y0073537D02*
X0354282Y0073537D01*
X0353058Y0074336D02*
X0324707Y0074336D01*
X0324000Y0075134D02*
X0352598Y0075134D01*
X0352450Y0075933D02*
X0324000Y0075933D01*
X0324000Y0076732D02*
X0352543Y0076732D01*
X0352924Y0077530D02*
X0324000Y0077530D01*
X0324000Y0078329D02*
X0353065Y0078329D01*
X0352601Y0079127D02*
X0324000Y0079127D01*
X0325050Y0083120D02*
X0448000Y0083120D01*
X0448000Y0083918D02*
X0324880Y0083918D01*
X0324390Y0084717D02*
X0448000Y0084717D01*
X0448000Y0085515D02*
X0324000Y0085515D01*
X0324000Y0086314D02*
X0448000Y0086314D01*
X0448000Y0087112D02*
X0324000Y0087112D01*
X0324000Y0087911D02*
X0448000Y0087911D01*
X0448000Y0088709D02*
X0324000Y0088709D01*
X0324000Y0089508D02*
X0448000Y0089508D01*
X0448000Y0090306D02*
X0324000Y0090306D01*
X0324000Y0091105D02*
X0448000Y0091105D01*
X0448000Y0091903D02*
X0324000Y0091903D01*
X0324000Y0092702D02*
X0358764Y0092702D01*
X0358556Y0092788D02*
X0359493Y0092400D01*
X0360507Y0092400D01*
X0361444Y0092788D01*
X0362106Y0093450D01*
X0419021Y0093450D01*
X0430071Y0104500D01*
X0431007Y0104500D01*
X0431944Y0104888D01*
X0432662Y0105606D01*
X0433050Y0106543D01*
X0433050Y0107557D01*
X0432662Y0108494D01*
X0431944Y0109212D01*
X0431007Y0109600D01*
X0429993Y0109600D01*
X0429056Y0109212D01*
X0428338Y0108494D01*
X0427950Y0107557D01*
X0427950Y0106621D01*
X0417779Y0096450D01*
X0362106Y0096450D01*
X0361444Y0097112D01*
X0360507Y0097500D01*
X0359493Y0097500D01*
X0358556Y0097112D01*
X0357838Y0096394D01*
X0357450Y0095457D01*
X0357450Y0094443D01*
X0357838Y0093506D01*
X0358556Y0092788D01*
X0357843Y0093500D02*
X0324000Y0093500D01*
X0324000Y0094299D02*
X0357510Y0094299D01*
X0357450Y0095097D02*
X0324000Y0095097D01*
X0324000Y0095896D02*
X0357632Y0095896D01*
X0358138Y0096694D02*
X0324000Y0096694D01*
X0324614Y0097493D02*
X0359475Y0097493D01*
X0360525Y0097493D02*
X0418821Y0097493D01*
X0418023Y0096694D02*
X0361862Y0096694D01*
X0360000Y0094950D02*
X0418400Y0094950D01*
X0430500Y0107050D01*
X0433050Y0107075D02*
X0448000Y0107075D01*
X0448000Y0107873D02*
X0432919Y0107873D01*
X0432484Y0108672D02*
X0448000Y0108672D01*
X0448000Y0109470D02*
X0431320Y0109470D01*
X0429680Y0109470D02*
X0336592Y0109470D01*
X0335793Y0108672D02*
X0428516Y0108672D01*
X0428081Y0107873D02*
X0334995Y0107873D01*
X0334196Y0107075D02*
X0427950Y0107075D01*
X0427605Y0106276D02*
X0333398Y0106276D01*
X0332599Y0105478D02*
X0426807Y0105478D01*
X0426008Y0104679D02*
X0331801Y0104679D01*
X0331002Y0103881D02*
X0425210Y0103881D01*
X0424411Y0103082D02*
X0330204Y0103082D01*
X0329405Y0102284D02*
X0423613Y0102284D01*
X0422814Y0101485D02*
X0328607Y0101485D01*
X0327808Y0100687D02*
X0422016Y0100687D01*
X0421217Y0099888D02*
X0327010Y0099888D01*
X0326211Y0099090D02*
X0420419Y0099090D01*
X0419620Y0098291D02*
X0325413Y0098291D01*
X0312113Y0103082D02*
X0216500Y0103082D01*
X0216500Y0102284D02*
X0311314Y0102284D01*
X0310516Y0101485D02*
X0216500Y0101485D01*
X0216500Y0100687D02*
X0309717Y0100687D01*
X0308919Y0099888D02*
X0216500Y0099888D01*
X0216500Y0099090D02*
X0245674Y0099090D01*
X0245812Y0099228D02*
X0245095Y0098510D01*
X0244706Y0097573D01*
X0244706Y0096559D01*
X0245095Y0095621D01*
X0245756Y0094959D01*
X0245756Y0093266D01*
X0245095Y0092605D01*
X0244706Y0091667D01*
X0244706Y0090653D01*
X0245095Y0089716D01*
X0245812Y0088998D01*
X0246749Y0088610D01*
X0247764Y0088610D01*
X0248701Y0088998D01*
X0249418Y0089716D01*
X0249806Y0090653D01*
X0249806Y0091667D01*
X0249418Y0092605D01*
X0248756Y0093266D01*
X0248756Y0094959D01*
X0249418Y0095621D01*
X0249806Y0096559D01*
X0249806Y0097573D01*
X0249418Y0098510D01*
X0248701Y0099228D01*
X0247764Y0099616D01*
X0246749Y0099616D01*
X0245812Y0099228D01*
X0245004Y0098291D02*
X0216500Y0098291D01*
X0216500Y0097493D02*
X0244706Y0097493D01*
X0244706Y0096694D02*
X0216500Y0096694D01*
X0216500Y0095896D02*
X0244981Y0095896D01*
X0245619Y0095097D02*
X0216500Y0095097D01*
X0216500Y0094299D02*
X0245756Y0094299D01*
X0245756Y0093500D02*
X0216500Y0093500D01*
X0216500Y0092702D02*
X0245192Y0092702D01*
X0244804Y0091903D02*
X0216500Y0091903D01*
X0216500Y0091105D02*
X0244706Y0091105D01*
X0244850Y0090306D02*
X0216500Y0090306D01*
X0216500Y0089508D02*
X0245303Y0089508D01*
X0246510Y0088709D02*
X0216500Y0088709D01*
X0216500Y0087911D02*
X0298691Y0087911D01*
X0298800Y0087112D02*
X0216500Y0087112D01*
X0216500Y0086314D02*
X0235637Y0086314D01*
X0234839Y0085515D02*
X0216500Y0085515D01*
X0216500Y0084717D02*
X0234431Y0084717D01*
X0234431Y0083918D02*
X0216500Y0083918D01*
X0216500Y0083120D02*
X0234448Y0083120D01*
X0235247Y0082321D02*
X0216500Y0082321D01*
X0216500Y0081523D02*
X0220558Y0081523D01*
X0219152Y0080724D02*
X0216500Y0080724D01*
X0216500Y0079926D02*
X0218532Y0079926D01*
X0218202Y0079127D02*
X0216500Y0079127D01*
X0216500Y0078329D02*
X0218191Y0078329D01*
X0218337Y0077530D02*
X0216500Y0077530D01*
X0216500Y0076732D02*
X0218681Y0076732D01*
X0219479Y0075933D02*
X0216500Y0075933D01*
X0216900Y0067050D02*
X0216900Y0064717D01*
X0216900Y0065883D02*
X0221100Y0065883D01*
X0220167Y0064717D01*
X0219700Y0062767D02*
X0216900Y0061833D01*
X0219700Y0060900D01*
X0217768Y0059963D02*
X0216500Y0059963D01*
X0216500Y0057567D02*
X0222103Y0057567D01*
X0220314Y0056769D02*
X0216500Y0056769D01*
X0216500Y0055970D02*
X0219515Y0055970D01*
X0218717Y0055172D02*
X0216500Y0055172D01*
X0216500Y0054373D02*
X0218044Y0054373D01*
X0218133Y0054588D02*
X0218133Y0054588D01*
X0217713Y0053575D02*
X0216500Y0053575D01*
X0216500Y0052776D02*
X0217383Y0052776D01*
X0217052Y0051978D02*
X0216500Y0051978D01*
X0216500Y0051179D02*
X0216900Y0051179D01*
X0216900Y0050381D02*
X0216500Y0050381D01*
X0216500Y0049582D02*
X0216900Y0049582D01*
X0216900Y0048784D02*
X0216500Y0048784D01*
X0216500Y0047985D02*
X0217067Y0047985D01*
X0217398Y0047187D02*
X0216500Y0047187D01*
X0216500Y0046388D02*
X0217729Y0046388D01*
X0218059Y0045590D02*
X0216500Y0045590D01*
X0216500Y0044791D02*
X0218754Y0044791D01*
X0218133Y0045412D02*
X0218133Y0045412D01*
X0219552Y0043993D02*
X0216500Y0043993D01*
X0216500Y0043194D02*
X0220351Y0043194D01*
X0220412Y0043133D02*
X0220412Y0043133D01*
X0222192Y0042396D02*
X0216500Y0042396D01*
X0239174Y0083120D02*
X0298800Y0083120D01*
X0298800Y0083918D02*
X0239191Y0083918D01*
X0239191Y0084717D02*
X0298800Y0084717D01*
X0298800Y0085515D02*
X0238783Y0085515D01*
X0237985Y0086314D02*
X0298800Y0086314D01*
X0298450Y0088709D02*
X0248002Y0088709D01*
X0249210Y0089508D02*
X0298450Y0089508D01*
X0298781Y0090306D02*
X0249663Y0090306D01*
X0249806Y0091105D02*
X0299498Y0091105D01*
X0300933Y0091903D02*
X0249709Y0091903D01*
X0249321Y0092702D02*
X0301732Y0092702D01*
X0302530Y0093500D02*
X0248756Y0093500D01*
X0248756Y0094299D02*
X0303329Y0094299D01*
X0304127Y0095097D02*
X0248894Y0095097D01*
X0249532Y0095896D02*
X0304926Y0095896D01*
X0305724Y0096694D02*
X0249806Y0096694D01*
X0249806Y0097493D02*
X0306523Y0097493D01*
X0307321Y0098291D02*
X0249509Y0098291D01*
X0248838Y0099090D02*
X0308120Y0099090D01*
X0312911Y0103881D02*
X0216500Y0103881D01*
X0216500Y0104679D02*
X0235644Y0104679D01*
X0235825Y0104498D02*
X0237797Y0104498D01*
X0239191Y0105892D01*
X0239191Y0107864D01*
X0237797Y0109257D01*
X0235825Y0109257D01*
X0234431Y0107864D01*
X0234431Y0105892D01*
X0235825Y0104498D01*
X0234846Y0105478D02*
X0216500Y0105478D01*
X0216500Y0106276D02*
X0234431Y0106276D01*
X0234431Y0107075D02*
X0216500Y0107075D01*
X0216500Y0107873D02*
X0234441Y0107873D01*
X0235240Y0108672D02*
X0216500Y0108672D01*
X0216500Y0109470D02*
X0220574Y0109470D01*
X0220649Y0109439D02*
X0219522Y0109907D01*
X0218658Y0110770D01*
X0218191Y0111898D01*
X0218191Y0113118D01*
X0218658Y0114246D01*
X0219522Y0115109D01*
X0220649Y0115576D01*
X0224232Y0115576D01*
X0225360Y0115109D01*
X0226223Y0114246D01*
X0226691Y0113118D01*
X0226691Y0111898D01*
X0226223Y0110770D01*
X0225360Y0109907D01*
X0224232Y0109439D01*
X0220649Y0109439D01*
X0219159Y0110269D02*
X0216500Y0110269D01*
X0216500Y0111068D02*
X0218535Y0111068D01*
X0218204Y0111866D02*
X0216500Y0111866D01*
X0216500Y0112665D02*
X0218191Y0112665D01*
X0218334Y0113463D02*
X0216500Y0113463D01*
X0216500Y0114262D02*
X0218674Y0114262D01*
X0219473Y0115060D02*
X0216500Y0115060D01*
X0216500Y0115859D02*
X0324889Y0115859D01*
X0325687Y0116657D02*
X0216500Y0116657D01*
X0216500Y0117456D02*
X0326486Y0117456D01*
X0327284Y0118254D02*
X0216500Y0118254D01*
X0216500Y0119053D02*
X0328083Y0119053D01*
X0328881Y0119851D02*
X0216500Y0119851D01*
X0216500Y0120650D02*
X0329680Y0120650D01*
X0330478Y0121448D02*
X0216500Y0121448D01*
X0216500Y0122247D02*
X0331277Y0122247D01*
X0332075Y0123045D02*
X0216500Y0123045D01*
X0216500Y0123844D02*
X0332874Y0123844D01*
X0333672Y0124642D02*
X0216500Y0124642D01*
X0216500Y0125441D02*
X0334471Y0125441D01*
X0335269Y0126239D02*
X0216500Y0126239D01*
X0216500Y0127038D02*
X0336068Y0127038D01*
X0336866Y0127836D02*
X0216500Y0127836D01*
X0216500Y0128635D02*
X0337665Y0128635D01*
X0338463Y0129433D02*
X0216500Y0129433D01*
X0216500Y0130232D02*
X0339262Y0130232D01*
X0340060Y0131030D02*
X0216500Y0131030D01*
X0216500Y0131829D02*
X0340859Y0131829D01*
X0341657Y0132627D02*
X0216500Y0132627D01*
X0216500Y0133426D02*
X0342456Y0133426D01*
X0343254Y0134224D02*
X0216500Y0134224D01*
X0216500Y0135023D02*
X0344053Y0135023D01*
X0344852Y0135821D02*
X0216500Y0135821D01*
X0216500Y0136620D02*
X0220412Y0136620D01*
X0220611Y0136538D02*
X0221988Y0136538D01*
X0223260Y0137065D01*
X0224234Y0138039D01*
X0224761Y0139311D01*
X0224761Y0140689D01*
X0224234Y0141961D01*
X0223260Y0142935D01*
X0221988Y0143462D01*
X0220611Y0143462D01*
X0219338Y0142935D01*
X0218364Y0141961D01*
X0217837Y0140689D01*
X0217837Y0139311D01*
X0218364Y0138039D01*
X0219338Y0137065D01*
X0220611Y0136538D01*
X0222186Y0136620D02*
X0247971Y0136620D01*
X0248170Y0136538D02*
X0249547Y0136538D01*
X0250819Y0137065D01*
X0251793Y0138039D01*
X0252320Y0139311D01*
X0252320Y0140689D01*
X0251793Y0141961D01*
X0250819Y0142935D01*
X0249547Y0143462D01*
X0248170Y0143462D01*
X0246897Y0142935D01*
X0245923Y0141961D01*
X0245396Y0140689D01*
X0245396Y0139311D01*
X0245923Y0138039D01*
X0246897Y0137065D01*
X0248170Y0136538D01*
X0249745Y0136620D02*
X0345650Y0136620D01*
X0346449Y0137418D02*
X0251173Y0137418D01*
X0251867Y0138217D02*
X0347247Y0138217D01*
X0348046Y0139015D02*
X0252198Y0139015D01*
X0252320Y0139814D02*
X0348844Y0139814D01*
X0349643Y0140612D02*
X0252320Y0140612D01*
X0252021Y0141411D02*
X0397900Y0141411D01*
X0397900Y0142209D02*
X0251545Y0142209D01*
X0250644Y0143008D02*
X0397900Y0143008D01*
X0397900Y0143806D02*
X0216500Y0143806D01*
X0216500Y0143008D02*
X0219514Y0143008D01*
X0218612Y0142209D02*
X0216500Y0142209D01*
X0216500Y0141411D02*
X0218136Y0141411D01*
X0217837Y0140612D02*
X0216500Y0140612D01*
X0216500Y0139814D02*
X0217837Y0139814D01*
X0217960Y0139015D02*
X0216500Y0139015D01*
X0216500Y0138217D02*
X0218290Y0138217D01*
X0218985Y0137418D02*
X0216500Y0137418D01*
X0223614Y0137418D02*
X0246544Y0137418D01*
X0245849Y0138217D02*
X0224308Y0138217D01*
X0224639Y0139015D02*
X0245519Y0139015D01*
X0245396Y0139814D02*
X0224761Y0139814D01*
X0224761Y0140612D02*
X0245396Y0140612D01*
X0245695Y0141411D02*
X0224462Y0141411D01*
X0223986Y0142209D02*
X0246171Y0142209D01*
X0247073Y0143008D02*
X0223084Y0143008D01*
X0216500Y0144605D02*
X0397900Y0144605D01*
X0397900Y0145403D02*
X0216500Y0145403D01*
X0216500Y0146202D02*
X0397900Y0146202D01*
X0397900Y0147001D02*
X0216500Y0147001D01*
X0216500Y0147799D02*
X0397900Y0147799D01*
X0397900Y0148598D02*
X0216500Y0148598D01*
X0216500Y0149396D02*
X0397900Y0149396D01*
X0397900Y0150195D02*
X0216500Y0150195D01*
X0216500Y0150993D02*
X0397900Y0150993D01*
X0397900Y0151792D02*
X0216500Y0151792D01*
X0216500Y0152590D02*
X0397900Y0152590D01*
X0397900Y0153389D02*
X0216500Y0153389D01*
X0216500Y0154187D02*
X0397900Y0154187D01*
X0397900Y0154986D02*
X0380942Y0154986D01*
X0381194Y0155026D02*
X0381958Y0155274D01*
X0382673Y0155638D01*
X0383322Y0156110D01*
X0383890Y0156678D01*
X0384362Y0157327D01*
X0384726Y0158042D01*
X0384974Y0158806D01*
X0385100Y0159599D01*
X0385100Y0159600D01*
X0380400Y0159600D01*
X0380400Y0154900D01*
X0380401Y0154900D01*
X0381194Y0155026D01*
X0380400Y0154986D02*
X0379600Y0154986D01*
X0379058Y0154986D02*
X0216500Y0154986D01*
X0216500Y0155784D02*
X0377126Y0155784D01*
X0376205Y0156583D02*
X0216500Y0156583D01*
X0216500Y0157381D02*
X0375610Y0157381D01*
X0375229Y0158180D02*
X0216500Y0158180D01*
X0216500Y0158978D02*
X0374998Y0158978D01*
X0374928Y0160575D02*
X0216500Y0160575D01*
X0216500Y0159777D02*
X0379600Y0159777D01*
X0379600Y0158978D02*
X0380400Y0158978D01*
X0380400Y0158180D02*
X0379600Y0158180D01*
X0379600Y0157381D02*
X0380400Y0157381D01*
X0380400Y0156583D02*
X0379600Y0156583D01*
X0379600Y0155784D02*
X0380400Y0155784D01*
X0382874Y0155784D02*
X0387635Y0155784D01*
X0386629Y0156583D02*
X0383795Y0156583D01*
X0384389Y0157381D02*
X0385889Y0157381D01*
X0385559Y0158180D02*
X0384771Y0158180D01*
X0385002Y0158978D02*
X0385228Y0158978D01*
X0385200Y0159777D02*
X0380400Y0159777D01*
X0385072Y0160575D02*
X0385200Y0160575D01*
X0385374Y0161374D02*
X0384916Y0161374D01*
X0384617Y0162172D02*
X0385704Y0162172D01*
X0386183Y0162971D02*
X0384146Y0162971D01*
X0375854Y0162971D02*
X0216500Y0162971D01*
X0216500Y0162172D02*
X0375383Y0162172D01*
X0375084Y0161374D02*
X0216500Y0161374D01*
X0236122Y0115576D02*
X0234994Y0115109D01*
X0234131Y0114246D01*
X0233664Y0113118D01*
X0233664Y0111898D01*
X0234131Y0110770D01*
X0234994Y0109907D01*
X0236122Y0109439D01*
X0241673Y0109439D01*
X0242801Y0109907D01*
X0243664Y0110770D01*
X0244131Y0111898D01*
X0244131Y0113118D01*
X0243664Y0114246D01*
X0242801Y0115109D01*
X0241673Y0115576D01*
X0236122Y0115576D01*
X0234945Y0115060D02*
X0225409Y0115060D01*
X0226208Y0114262D02*
X0234146Y0114262D01*
X0233807Y0113463D02*
X0226548Y0113463D01*
X0226691Y0112665D02*
X0233664Y0112665D01*
X0233677Y0111866D02*
X0226677Y0111866D01*
X0226347Y0111068D02*
X0234008Y0111068D01*
X0234632Y0110269D02*
X0225723Y0110269D01*
X0224308Y0109470D02*
X0236047Y0109470D01*
X0238382Y0108672D02*
X0317702Y0108672D01*
X0316904Y0107873D02*
X0239181Y0107873D01*
X0239191Y0107075D02*
X0316105Y0107075D01*
X0315307Y0106276D02*
X0239191Y0106276D01*
X0238776Y0105478D02*
X0314508Y0105478D01*
X0313710Y0104679D02*
X0237978Y0104679D01*
X0241748Y0109470D02*
X0318501Y0109470D01*
X0319299Y0110269D02*
X0243164Y0110269D01*
X0243788Y0111068D02*
X0320098Y0111068D01*
X0320896Y0111866D02*
X0244118Y0111866D01*
X0244131Y0112665D02*
X0321695Y0112665D01*
X0322493Y0113463D02*
X0243989Y0113463D01*
X0243649Y0114262D02*
X0323292Y0114262D01*
X0324090Y0115060D02*
X0242850Y0115060D01*
X0247256Y0097066D02*
X0247256Y0091160D01*
X0312285Y0074336D02*
X0320293Y0074336D01*
X0319963Y0073537D02*
X0313084Y0073537D01*
X0313882Y0072739D02*
X0319950Y0072739D01*
X0320179Y0071940D02*
X0314681Y0071940D01*
X0315479Y0071142D02*
X0320752Y0071142D01*
X0331000Y0063157D02*
X0339923Y0063157D01*
X0338974Y0062358D02*
X0331000Y0062358D01*
X0331000Y0061560D02*
X0338629Y0061560D01*
X0338140Y0060761D02*
X0331000Y0060761D01*
X0331000Y0059963D02*
X0337341Y0059963D01*
X0336543Y0059164D02*
X0331000Y0059164D01*
X0331000Y0058366D02*
X0335744Y0058366D01*
X0334946Y0057567D02*
X0331000Y0057567D01*
X0331337Y0056769D02*
X0334147Y0056769D01*
X0333349Y0055970D02*
X0331858Y0055970D01*
X0332050Y0055172D02*
X0332550Y0055172D01*
X0355000Y0076000D02*
X0368500Y0062500D01*
X0385000Y0062500D01*
X0375000Y0070000D02*
X0365000Y0080000D01*
X0361236Y0092702D02*
X0448000Y0092702D01*
X0448000Y0093500D02*
X0419072Y0093500D01*
X0419870Y0094299D02*
X0448000Y0094299D01*
X0448000Y0095097D02*
X0420669Y0095097D01*
X0421467Y0095896D02*
X0448000Y0095896D01*
X0448000Y0096694D02*
X0422266Y0096694D01*
X0423064Y0097493D02*
X0448000Y0097493D01*
X0448000Y0098291D02*
X0423863Y0098291D01*
X0424661Y0099090D02*
X0448000Y0099090D01*
X0448000Y0099888D02*
X0425460Y0099888D01*
X0426258Y0100687D02*
X0448000Y0100687D01*
X0448000Y0101485D02*
X0427057Y0101485D01*
X0427855Y0102284D02*
X0448000Y0102284D01*
X0448000Y0103082D02*
X0428654Y0103082D01*
X0429452Y0103881D02*
X0448000Y0103881D01*
X0448000Y0104679D02*
X0431440Y0104679D01*
X0432534Y0105478D02*
X0448000Y0105478D01*
X0448000Y0106276D02*
X0432940Y0106276D01*
X0448000Y0110269D02*
X0337390Y0110269D01*
X0338189Y0111068D02*
X0448000Y0111068D01*
X0448000Y0111866D02*
X0338987Y0111866D01*
X0339786Y0112665D02*
X0448000Y0112665D01*
X0448000Y0113463D02*
X0340584Y0113463D01*
X0341383Y0114262D02*
X0448000Y0114262D01*
X0448000Y0115060D02*
X0342181Y0115060D01*
X0342980Y0115859D02*
X0448000Y0115859D01*
X0448000Y0116657D02*
X0343778Y0116657D01*
X0344577Y0117456D02*
X0399479Y0117456D01*
X0400521Y0117456D02*
X0448000Y0117456D01*
X0448000Y0118254D02*
X0401860Y0118254D01*
X0402368Y0119053D02*
X0448000Y0119053D01*
X0448000Y0119851D02*
X0402550Y0119851D01*
X0402491Y0120650D02*
X0448028Y0120650D01*
X0448827Y0121448D02*
X0402158Y0121448D01*
X0401240Y0122247D02*
X0473500Y0122247D01*
X0473500Y0123045D02*
X0338015Y0123045D01*
X0337217Y0122247D02*
X0398760Y0122247D01*
X0400000Y0120000D02*
X0345000Y0120000D01*
X0345375Y0118254D02*
X0398140Y0118254D01*
X0382953Y0128635D02*
X0473500Y0128635D01*
X0473500Y0129433D02*
X0384040Y0129433D01*
X0384442Y0130232D02*
X0469312Y0130232D01*
X0471687Y0130232D02*
X0473500Y0130232D01*
X0473500Y0131030D02*
X0472637Y0131030D01*
X0472982Y0131829D02*
X0473500Y0131829D01*
X0473500Y0132627D02*
X0473050Y0132627D01*
X0472877Y0133426D02*
X0473500Y0133426D01*
X0473500Y0134224D02*
X0472382Y0134224D01*
X0472129Y0135023D02*
X0473500Y0135023D01*
X0473500Y0135821D02*
X0472772Y0135821D01*
X0473050Y0136620D02*
X0473500Y0136620D01*
X0473500Y0137418D02*
X0473050Y0137418D01*
X0472756Y0138217D02*
X0473500Y0138217D01*
X0473500Y0139015D02*
X0472091Y0139015D01*
X0473500Y0139814D02*
X0455343Y0139814D01*
X0456141Y0139015D02*
X0468909Y0139015D01*
X0470500Y0137000D02*
X0456036Y0137000D01*
X0454036Y0139000D01*
X0449500Y0139000D01*
X0449100Y0139000D01*
X0449050Y0139050D01*
X0448657Y0141411D02*
X0402100Y0141411D01*
X0402100Y0142209D02*
X0473500Y0142209D01*
X0473500Y0141411D02*
X0450343Y0141411D01*
X0451494Y0140612D02*
X0473500Y0140612D01*
X0473500Y0143008D02*
X0402100Y0143008D01*
X0402100Y0143806D02*
X0473500Y0143806D01*
X0473500Y0144605D02*
X0402100Y0144605D01*
X0402100Y0145403D02*
X0473500Y0145403D01*
X0473500Y0146202D02*
X0402100Y0146202D01*
X0402100Y0147001D02*
X0463146Y0147001D01*
X0463389Y0146900D02*
X0465331Y0146900D01*
X0466611Y0146900D01*
X0466611Y0146900D01*
X0469588Y0148133D01*
X0469588Y0148133D01*
X0471867Y0150412D01*
X0473100Y0153389D01*
X0473100Y0156611D01*
X0471867Y0159588D01*
X0471867Y0159588D01*
X0469588Y0161867D01*
X0466611Y0163100D01*
X0463389Y0163100D01*
X0460412Y0161867D01*
X0460412Y0161867D01*
X0458133Y0159588D01*
X0456900Y0156611D01*
X0456900Y0153389D01*
X0458133Y0150412D01*
X0460412Y0148133D01*
X0463389Y0146900D01*
X0461218Y0147799D02*
X0402100Y0147799D01*
X0402100Y0148598D02*
X0459947Y0148598D01*
X0460412Y0148133D02*
X0460412Y0148133D01*
X0459149Y0149396D02*
X0402100Y0149396D01*
X0402100Y0150195D02*
X0458350Y0150195D01*
X0458133Y0150412D02*
X0458133Y0150412D01*
X0457892Y0150993D02*
X0402100Y0150993D01*
X0402100Y0151792D02*
X0457562Y0151792D01*
X0457231Y0152590D02*
X0402100Y0152590D01*
X0402100Y0153389D02*
X0456900Y0153389D01*
X0456900Y0154187D02*
X0402100Y0154187D01*
X0402100Y0154986D02*
X0456900Y0154986D01*
X0456900Y0155784D02*
X0402365Y0155784D01*
X0403371Y0156583D02*
X0456900Y0156583D01*
X0457219Y0157381D02*
X0404111Y0157381D01*
X0404441Y0158180D02*
X0457550Y0158180D01*
X0457880Y0158978D02*
X0404772Y0158978D01*
X0404800Y0159777D02*
X0458322Y0159777D01*
X0458133Y0159588D02*
X0458133Y0159588D01*
X0459120Y0160575D02*
X0404800Y0160575D01*
X0404626Y0161374D02*
X0459919Y0161374D01*
X0461149Y0162172D02*
X0404296Y0162172D01*
X0403817Y0162971D02*
X0463077Y0162971D01*
X0466923Y0162971D02*
X0473500Y0162971D01*
X0473500Y0162172D02*
X0468851Y0162172D01*
X0469588Y0161867D02*
X0469588Y0161867D01*
X0470081Y0161374D02*
X0473500Y0161374D01*
X0473500Y0160575D02*
X0470880Y0160575D01*
X0471678Y0159777D02*
X0473500Y0159777D01*
X0473500Y0158978D02*
X0472120Y0158978D01*
X0472450Y0158180D02*
X0473500Y0158180D01*
X0473500Y0157381D02*
X0472781Y0157381D01*
X0473100Y0156583D02*
X0473500Y0156583D01*
X0473500Y0155784D02*
X0473100Y0155784D01*
X0473100Y0154986D02*
X0473500Y0154986D01*
X0473500Y0154187D02*
X0473100Y0154187D01*
X0473100Y0153389D02*
X0473500Y0153389D01*
X0473500Y0152590D02*
X0472769Y0152590D01*
X0472438Y0151792D02*
X0473500Y0151792D01*
X0473500Y0150993D02*
X0472108Y0150993D01*
X0471867Y0150412D02*
X0471867Y0150412D01*
X0471650Y0150195D02*
X0473500Y0150195D01*
X0473500Y0149396D02*
X0470851Y0149396D01*
X0470053Y0148598D02*
X0473500Y0148598D01*
X0473500Y0147799D02*
X0468782Y0147799D01*
X0466854Y0147001D02*
X0473500Y0147001D01*
X0453000Y0136000D02*
X0452500Y0135500D01*
X0440000Y0135500D01*
X0437704Y0136620D02*
X0351590Y0136620D01*
X0350791Y0135821D02*
X0437450Y0135821D01*
X0437450Y0135023D02*
X0349993Y0135023D01*
X0349194Y0134224D02*
X0437768Y0134224D01*
X0470500Y0132500D02*
X0383500Y0132500D01*
X0382000Y0131000D01*
X0381047Y0128635D02*
X0343605Y0128635D01*
X0344403Y0129433D02*
X0379960Y0129433D01*
X0379558Y0130232D02*
X0345202Y0130232D01*
X0346000Y0131030D02*
X0379450Y0131030D01*
X0379583Y0131829D02*
X0346799Y0131829D01*
X0347597Y0132627D02*
X0380021Y0132627D01*
X0381193Y0133426D02*
X0348396Y0133426D01*
X0342806Y0127836D02*
X0473500Y0127836D01*
X0473500Y0127038D02*
X0342008Y0127038D01*
X0341209Y0126239D02*
X0473500Y0126239D01*
X0473500Y0125441D02*
X0340411Y0125441D01*
X0339612Y0124642D02*
X0473500Y0124642D01*
X0473500Y0123844D02*
X0338814Y0123844D01*
X0392365Y0155784D02*
X0397635Y0155784D01*
X0396629Y0156583D02*
X0393371Y0156583D01*
X0394111Y0157381D02*
X0395889Y0157381D01*
X0395559Y0158180D02*
X0394441Y0158180D01*
X0394772Y0158978D02*
X0395228Y0158978D01*
X0395200Y0159777D02*
X0394800Y0159777D01*
X0394800Y0160575D02*
X0395200Y0160575D01*
X0395374Y0161374D02*
X0394626Y0161374D01*
X0394296Y0162172D02*
X0395704Y0162172D01*
X0396183Y0162971D02*
X0393817Y0162971D01*
D11*
X0236732Y0112508D02*
X0236732Y0112508D01*
X0241064Y0112508D01*
X0241064Y0112508D01*
X0236732Y0112508D01*
X0221260Y0112508D02*
X0221260Y0112508D01*
X0223622Y0112508D01*
X0223622Y0112508D01*
X0221260Y0112508D01*
X0221260Y0078492D02*
X0221260Y0078492D01*
X0223622Y0078492D01*
X0223622Y0078492D01*
X0221260Y0078492D01*
X0236732Y0078492D02*
X0236732Y0078492D01*
X0241064Y0078492D01*
X0241064Y0078492D01*
X0236732Y0078492D01*
D12*
X0380000Y0160000D03*
X0390000Y0160000D03*
X0400000Y0160000D03*
D13*
X0449500Y0139000D03*
X0453000Y0136000D03*
X0440000Y0135500D03*
X0457500Y0123500D03*
X0467500Y0123000D03*
X0470500Y0123000D03*
X0471000Y0127500D03*
X0470500Y0132500D03*
X0470500Y0137000D03*
X0443000Y0121000D03*
X0438000Y0121500D03*
X0430500Y0107050D03*
X0400000Y0120000D03*
X0382000Y0131000D03*
X0390000Y0103000D03*
X0360000Y0094950D03*
X0349000Y0103000D03*
X0337000Y0090500D03*
X0322500Y0083000D03*
X0314000Y0090500D03*
X0301000Y0089000D03*
X0286500Y0093500D03*
X0307000Y0077500D03*
X0322500Y0073000D03*
X0326500Y0067500D03*
X0341111Y0060889D03*
X0329500Y0055000D03*
X0320000Y0055000D03*
X0327000Y0047500D03*
X0300500Y0056889D03*
X0297000Y0052000D03*
X0285000Y0057500D03*
X0265000Y0065000D03*
X0253000Y0066500D03*
X0264000Y0049500D03*
X0247256Y0091160D03*
X0247256Y0097066D03*
X0271500Y0113500D03*
X0355000Y0080000D03*
X0355000Y0076000D03*
X0352000Y0068000D03*
X0358000Y0067500D03*
X0375000Y0070000D03*
X0385000Y0062500D03*
X0391000Y0085500D03*
D14*
X0301000Y0089000D02*
X0300500Y0088500D01*
X0300500Y0056889D01*
X0299889Y0057500D01*
X0285000Y0057500D01*
D15*
X0301000Y0089000D02*
X0351050Y0139050D01*
X0400000Y0139050D01*
X0400000Y0160000D01*
X0400000Y0139050D02*
X0449050Y0139050D01*
M02*
