G75*
%MOIN*%
%OFA0B0*%
%FSLAX25Y25*%
%IPPOS*%
%LPD*%
%AMOC8*
5,1,8,0,0,1.08239X$1,22.5*
%
%ADD10R,0.04331X0.03937*%
%ADD11R,0.03346X0.03543*%
%ADD12R,0.03937X0.04331*%
%ADD13R,0.01181X0.02598*%
%ADD14R,0.03543X0.03937*%
%ADD15R,0.03543X0.05906*%
%ADD16R,0.05906X0.03543*%
%ADD17R,0.23622X0.23622*%
%ADD18R,0.02165X0.04724*%
%ADD19C,0.00039*%
%ADD20C,0.00500*%
%ADD21R,0.04000X0.01181*%
%ADD22R,0.04000X0.02362*%
%ADD23R,0.04000X0.02165*%
%ADD24R,0.04724X0.09843*%
%ADD25R,0.04724X0.03150*%
%ADD26R,0.02362X0.02055*%
%ADD27C,0.01181*%
D10*
X0251654Y0090000D03*
X0258346Y0090000D03*
X0258346Y0100000D03*
X0251654Y0100000D03*
X0261654Y0072500D03*
X0268346Y0072500D03*
X0301654Y0050000D03*
X0308346Y0050000D03*
X0331654Y0047500D03*
X0338346Y0047500D03*
X0338346Y0067500D03*
X0331654Y0067500D03*
X0381654Y0125000D03*
X0388346Y0125000D03*
X0396654Y0125000D03*
X0403346Y0125000D03*
X0459154Y0142500D03*
X0465846Y0142500D03*
D11*
X0267283Y0080000D03*
X0262717Y0080000D03*
X0262717Y0045000D03*
X0267283Y0045000D03*
D12*
X0253000Y0054154D03*
X0253000Y0060846D03*
X0290000Y0053346D03*
X0290000Y0046654D03*
X0325000Y0054154D03*
X0325000Y0060846D03*
X0451500Y0124154D03*
X0451500Y0130846D03*
D13*
X0337559Y0061122D03*
X0335000Y0061122D03*
X0332441Y0061122D03*
X0332441Y0053878D03*
X0335000Y0053878D03*
X0337559Y0053878D03*
D14*
X0346929Y0053150D03*
X0346929Y0046850D03*
X0363071Y0046850D03*
X0363071Y0053150D03*
X0363071Y0061850D03*
X0363071Y0068150D03*
X0346929Y0068150D03*
X0346929Y0061850D03*
D15*
X0375315Y0047567D03*
X0380315Y0047567D03*
X0385315Y0047567D03*
X0390315Y0047567D03*
X0395315Y0047567D03*
X0400315Y0047567D03*
X0405315Y0047567D03*
X0410315Y0047567D03*
X0415315Y0047567D03*
X0420315Y0047567D03*
X0425315Y0047567D03*
X0430315Y0047567D03*
X0435315Y0047567D03*
X0440315Y0047567D03*
X0440315Y0112433D03*
X0435315Y0112433D03*
X0430315Y0112433D03*
X0425315Y0112433D03*
X0420315Y0112433D03*
X0415315Y0112433D03*
X0410315Y0112433D03*
X0405315Y0112433D03*
X0400315Y0112433D03*
X0395315Y0112433D03*
X0390315Y0112433D03*
X0385315Y0112433D03*
X0380315Y0112433D03*
X0375315Y0112433D03*
D16*
X0369449Y0102500D03*
X0369449Y0097500D03*
X0369449Y0092500D03*
X0369449Y0087500D03*
X0369449Y0082500D03*
X0369449Y0077500D03*
X0369449Y0072500D03*
X0369449Y0067500D03*
X0369449Y0062500D03*
X0369449Y0057500D03*
D17*
X0410000Y0080000D03*
D18*
X0268740Y0065119D03*
X0261260Y0065119D03*
X0261260Y0054881D03*
X0265000Y0054881D03*
X0268740Y0054881D03*
D19*
X0219073Y0077591D02*
X0218941Y0078033D01*
X0225937Y0078033D01*
X0225937Y0078030D02*
X0225800Y0077585D01*
X0225579Y0077176D01*
X0225283Y0076818D01*
X0224922Y0076524D01*
X0224511Y0076307D01*
X0224065Y0076174D01*
X0223602Y0076130D01*
X0221240Y0076130D01*
X0220781Y0076177D01*
X0220341Y0076313D01*
X0219935Y0076532D01*
X0219580Y0076826D01*
X0219289Y0077184D01*
X0219073Y0077591D01*
X0219080Y0077578D02*
X0225796Y0077578D01*
X0225809Y0077616D02*
X0219065Y0077616D01*
X0219054Y0077654D02*
X0225821Y0077654D01*
X0225833Y0077692D02*
X0219043Y0077692D01*
X0219031Y0077730D02*
X0225844Y0077730D01*
X0225856Y0077768D02*
X0219020Y0077768D01*
X0219009Y0077806D02*
X0225868Y0077806D01*
X0225879Y0077844D02*
X0218998Y0077844D01*
X0218986Y0077881D02*
X0225891Y0077881D01*
X0225903Y0077919D02*
X0218975Y0077919D01*
X0218964Y0077957D02*
X0225914Y0077957D01*
X0225926Y0077995D02*
X0218952Y0077995D01*
X0218941Y0078033D02*
X0218898Y0078492D01*
X0218954Y0079016D01*
X0219126Y0079514D01*
X0219405Y0079961D01*
X0219776Y0080335D01*
X0220220Y0080617D01*
X0220717Y0080793D01*
X0221240Y0080854D01*
X0223602Y0080854D01*
X0224130Y0080797D01*
X0224633Y0080624D01*
X0225083Y0080343D01*
X0225461Y0079969D01*
X0225745Y0079520D01*
X0225923Y0079020D01*
X0225984Y0078492D01*
X0225937Y0078030D01*
X0225941Y0078071D02*
X0218937Y0078071D01*
X0218934Y0078109D02*
X0225945Y0078109D01*
X0225949Y0078147D02*
X0218930Y0078147D01*
X0218927Y0078184D02*
X0225953Y0078184D01*
X0225957Y0078222D02*
X0218923Y0078222D01*
X0218920Y0078260D02*
X0225960Y0078260D01*
X0225964Y0078298D02*
X0218916Y0078298D01*
X0218912Y0078336D02*
X0225968Y0078336D01*
X0225972Y0078374D02*
X0218909Y0078374D01*
X0218905Y0078412D02*
X0225976Y0078412D01*
X0225980Y0078450D02*
X0218902Y0078450D01*
X0218898Y0078488D02*
X0225984Y0078488D01*
X0225980Y0078525D02*
X0218901Y0078525D01*
X0218905Y0078563D02*
X0225976Y0078563D01*
X0225972Y0078601D02*
X0218909Y0078601D01*
X0218914Y0078639D02*
X0225967Y0078639D01*
X0225963Y0078677D02*
X0218918Y0078677D01*
X0218922Y0078715D02*
X0225958Y0078715D01*
X0225954Y0078753D02*
X0218926Y0078753D01*
X0218930Y0078791D02*
X0225949Y0078791D01*
X0225945Y0078828D02*
X0218934Y0078828D01*
X0218938Y0078866D02*
X0225941Y0078866D01*
X0225936Y0078904D02*
X0218942Y0078904D01*
X0218946Y0078942D02*
X0225932Y0078942D01*
X0225927Y0078980D02*
X0218951Y0078980D01*
X0218955Y0079018D02*
X0225923Y0079018D01*
X0225910Y0079056D02*
X0218968Y0079056D01*
X0218981Y0079094D02*
X0225896Y0079094D01*
X0225883Y0079131D02*
X0218994Y0079131D01*
X0219007Y0079169D02*
X0225870Y0079169D01*
X0225856Y0079207D02*
X0219021Y0079207D01*
X0219034Y0079245D02*
X0225843Y0079245D01*
X0225829Y0079283D02*
X0219047Y0079283D01*
X0219060Y0079321D02*
X0225816Y0079321D01*
X0225802Y0079359D02*
X0219073Y0079359D01*
X0219086Y0079397D02*
X0225789Y0079397D01*
X0225776Y0079435D02*
X0219099Y0079435D01*
X0219112Y0079472D02*
X0225762Y0079472D01*
X0225749Y0079510D02*
X0219125Y0079510D01*
X0219148Y0079548D02*
X0225727Y0079548D01*
X0225703Y0079586D02*
X0219171Y0079586D01*
X0219195Y0079624D02*
X0225679Y0079624D01*
X0225655Y0079662D02*
X0219218Y0079662D01*
X0219242Y0079700D02*
X0225631Y0079700D01*
X0225607Y0079738D02*
X0219266Y0079738D01*
X0219289Y0079775D02*
X0225583Y0079775D01*
X0225559Y0079813D02*
X0219313Y0079813D01*
X0219336Y0079851D02*
X0225535Y0079851D01*
X0225511Y0079889D02*
X0219360Y0079889D01*
X0219384Y0079927D02*
X0225487Y0079927D01*
X0225463Y0079965D02*
X0219409Y0079965D01*
X0219446Y0080003D02*
X0225426Y0080003D01*
X0225388Y0080041D02*
X0219484Y0080041D01*
X0219521Y0080079D02*
X0225350Y0080079D01*
X0225312Y0080116D02*
X0219559Y0080116D01*
X0219596Y0080154D02*
X0225274Y0080154D01*
X0225236Y0080192D02*
X0219634Y0080192D01*
X0219672Y0080230D02*
X0225197Y0080230D01*
X0225159Y0080268D02*
X0219709Y0080268D01*
X0219747Y0080306D02*
X0225121Y0080306D01*
X0225082Y0080344D02*
X0219789Y0080344D01*
X0219849Y0080382D02*
X0225021Y0080382D01*
X0224961Y0080419D02*
X0219909Y0080419D01*
X0219969Y0080457D02*
X0224900Y0080457D01*
X0224839Y0080495D02*
X0220028Y0080495D01*
X0220088Y0080533D02*
X0224778Y0080533D01*
X0224717Y0080571D02*
X0220148Y0080571D01*
X0220207Y0080609D02*
X0224656Y0080609D01*
X0224566Y0080647D02*
X0220304Y0080647D01*
X0220411Y0080685D02*
X0224456Y0080685D01*
X0224346Y0080723D02*
X0220518Y0080723D01*
X0220625Y0080760D02*
X0224237Y0080760D01*
X0224119Y0080798D02*
X0220761Y0080798D01*
X0221085Y0080836D02*
X0223770Y0080836D01*
X0225776Y0077540D02*
X0219100Y0077540D01*
X0219120Y0077503D02*
X0225755Y0077503D01*
X0225735Y0077465D02*
X0219140Y0077465D01*
X0219160Y0077427D02*
X0225714Y0077427D01*
X0225694Y0077389D02*
X0219180Y0077389D01*
X0219200Y0077351D02*
X0225674Y0077351D01*
X0225653Y0077313D02*
X0219220Y0077313D01*
X0219240Y0077275D02*
X0225633Y0077275D01*
X0225612Y0077237D02*
X0219260Y0077237D01*
X0219280Y0077200D02*
X0225592Y0077200D01*
X0225567Y0077162D02*
X0219306Y0077162D01*
X0219337Y0077124D02*
X0225536Y0077124D01*
X0225504Y0077086D02*
X0219368Y0077086D01*
X0219399Y0077048D02*
X0225473Y0077048D01*
X0225442Y0077010D02*
X0219430Y0077010D01*
X0219461Y0076972D02*
X0225410Y0076972D01*
X0225379Y0076934D02*
X0219491Y0076934D01*
X0219522Y0076896D02*
X0225348Y0076896D01*
X0225316Y0076859D02*
X0219553Y0076859D01*
X0219586Y0076821D02*
X0225285Y0076821D01*
X0225240Y0076783D02*
X0219632Y0076783D01*
X0219677Y0076745D02*
X0225193Y0076745D01*
X0225147Y0076707D02*
X0219723Y0076707D01*
X0219769Y0076669D02*
X0225100Y0076669D01*
X0225053Y0076631D02*
X0219815Y0076631D01*
X0219860Y0076593D02*
X0225007Y0076593D01*
X0224960Y0076556D02*
X0219906Y0076556D01*
X0219961Y0076518D02*
X0224909Y0076518D01*
X0224838Y0076480D02*
X0220031Y0076480D01*
X0220101Y0076442D02*
X0224766Y0076442D01*
X0224695Y0076404D02*
X0220172Y0076404D01*
X0220242Y0076366D02*
X0224623Y0076366D01*
X0224552Y0076328D02*
X0220312Y0076328D01*
X0220413Y0076290D02*
X0224456Y0076290D01*
X0224329Y0076252D02*
X0220536Y0076252D01*
X0220659Y0076215D02*
X0224203Y0076215D01*
X0224076Y0076177D02*
X0220784Y0076177D01*
X0221153Y0076139D02*
X0223697Y0076139D01*
X0234402Y0077988D02*
X0234546Y0077503D01*
X0234794Y0077063D01*
X0235134Y0076689D01*
X0235549Y0076400D01*
X0236017Y0076211D01*
X0236516Y0076130D01*
X0241240Y0076130D01*
X0241682Y0076191D01*
X0242103Y0076337D01*
X0242488Y0076562D01*
X0242822Y0076858D01*
X0243091Y0077214D01*
X0243286Y0077615D01*
X0243399Y0078047D01*
X0243425Y0078492D01*
X0243399Y0078937D01*
X0243286Y0079369D01*
X0243091Y0079770D01*
X0242822Y0080126D01*
X0242488Y0080422D01*
X0242103Y0080647D01*
X0241682Y0080793D01*
X0241240Y0080854D01*
X0236516Y0080854D01*
X0236017Y0080774D01*
X0235549Y0080584D01*
X0235134Y0080295D01*
X0234794Y0079921D01*
X0234546Y0079481D01*
X0234402Y0078996D01*
X0234370Y0078492D01*
X0234402Y0077988D01*
X0234402Y0077995D02*
X0243385Y0077995D01*
X0243375Y0077957D02*
X0234412Y0077957D01*
X0234423Y0077919D02*
X0243365Y0077919D01*
X0243356Y0077881D02*
X0234434Y0077881D01*
X0234445Y0077844D02*
X0243346Y0077844D01*
X0243336Y0077806D02*
X0234457Y0077806D01*
X0234468Y0077768D02*
X0243326Y0077768D01*
X0243316Y0077730D02*
X0234479Y0077730D01*
X0234490Y0077692D02*
X0243306Y0077692D01*
X0243296Y0077654D02*
X0234502Y0077654D01*
X0234513Y0077616D02*
X0243286Y0077616D01*
X0243268Y0077578D02*
X0234524Y0077578D01*
X0234535Y0077540D02*
X0243250Y0077540D01*
X0243231Y0077503D02*
X0234547Y0077503D01*
X0234568Y0077465D02*
X0243213Y0077465D01*
X0243195Y0077427D02*
X0234589Y0077427D01*
X0234611Y0077389D02*
X0243176Y0077389D01*
X0243158Y0077351D02*
X0234632Y0077351D01*
X0234654Y0077313D02*
X0243139Y0077313D01*
X0243121Y0077275D02*
X0234675Y0077275D01*
X0234696Y0077237D02*
X0243103Y0077237D01*
X0243080Y0077200D02*
X0234718Y0077200D01*
X0234739Y0077162D02*
X0243052Y0077162D01*
X0243023Y0077124D02*
X0234760Y0077124D01*
X0234782Y0077086D02*
X0242994Y0077086D01*
X0242965Y0077048D02*
X0234808Y0077048D01*
X0234843Y0077010D02*
X0242937Y0077010D01*
X0242908Y0076972D02*
X0234877Y0076972D01*
X0234911Y0076934D02*
X0242879Y0076934D01*
X0242851Y0076896D02*
X0234946Y0076896D01*
X0234980Y0076859D02*
X0242822Y0076859D01*
X0242779Y0076821D02*
X0235015Y0076821D01*
X0235049Y0076783D02*
X0242737Y0076783D01*
X0242694Y0076745D02*
X0235083Y0076745D01*
X0235118Y0076707D02*
X0242651Y0076707D01*
X0242609Y0076669D02*
X0235163Y0076669D01*
X0235217Y0076631D02*
X0242566Y0076631D01*
X0242523Y0076593D02*
X0235271Y0076593D01*
X0235326Y0076556D02*
X0242477Y0076556D01*
X0242412Y0076518D02*
X0235380Y0076518D01*
X0235434Y0076480D02*
X0242347Y0076480D01*
X0242283Y0076442D02*
X0235489Y0076442D01*
X0235543Y0076404D02*
X0242218Y0076404D01*
X0242153Y0076366D02*
X0235632Y0076366D01*
X0235726Y0076328D02*
X0242079Y0076328D01*
X0241969Y0076290D02*
X0235820Y0076290D01*
X0235913Y0076252D02*
X0241860Y0076252D01*
X0241751Y0076215D02*
X0236007Y0076215D01*
X0236226Y0076177D02*
X0241579Y0076177D01*
X0241305Y0076139D02*
X0236460Y0076139D01*
X0234400Y0078033D02*
X0243395Y0078033D01*
X0243400Y0078071D02*
X0234397Y0078071D01*
X0234395Y0078109D02*
X0243402Y0078109D01*
X0243405Y0078147D02*
X0234392Y0078147D01*
X0234390Y0078184D02*
X0243407Y0078184D01*
X0243409Y0078222D02*
X0234387Y0078222D01*
X0234385Y0078260D02*
X0243411Y0078260D01*
X0243414Y0078298D02*
X0234383Y0078298D01*
X0234380Y0078336D02*
X0243416Y0078336D01*
X0243418Y0078374D02*
X0234378Y0078374D01*
X0234375Y0078412D02*
X0243420Y0078412D01*
X0243423Y0078450D02*
X0234373Y0078450D01*
X0234370Y0078488D02*
X0243425Y0078488D01*
X0243423Y0078525D02*
X0234372Y0078525D01*
X0234375Y0078563D02*
X0243421Y0078563D01*
X0243419Y0078601D02*
X0234377Y0078601D01*
X0234380Y0078639D02*
X0243416Y0078639D01*
X0243414Y0078677D02*
X0234382Y0078677D01*
X0234384Y0078715D02*
X0243412Y0078715D01*
X0243410Y0078753D02*
X0234387Y0078753D01*
X0234389Y0078791D02*
X0243407Y0078791D01*
X0243405Y0078828D02*
X0234392Y0078828D01*
X0234394Y0078866D02*
X0243403Y0078866D01*
X0243401Y0078904D02*
X0234397Y0078904D01*
X0234399Y0078942D02*
X0243398Y0078942D01*
X0243388Y0078980D02*
X0234401Y0078980D01*
X0234409Y0079018D02*
X0243378Y0079018D01*
X0243368Y0079056D02*
X0234420Y0079056D01*
X0234431Y0079094D02*
X0243358Y0079094D01*
X0243348Y0079131D02*
X0234443Y0079131D01*
X0234454Y0079169D02*
X0243338Y0079169D01*
X0243328Y0079207D02*
X0234465Y0079207D01*
X0234476Y0079245D02*
X0243318Y0079245D01*
X0243308Y0079283D02*
X0234488Y0079283D01*
X0234499Y0079321D02*
X0243299Y0079321D01*
X0243289Y0079359D02*
X0234510Y0079359D01*
X0234521Y0079397D02*
X0243273Y0079397D01*
X0243254Y0079435D02*
X0234533Y0079435D01*
X0234544Y0079472D02*
X0243236Y0079472D01*
X0243217Y0079510D02*
X0234563Y0079510D01*
X0234584Y0079548D02*
X0243199Y0079548D01*
X0243181Y0079586D02*
X0234606Y0079586D01*
X0234627Y0079624D02*
X0243162Y0079624D01*
X0243144Y0079662D02*
X0234648Y0079662D01*
X0234670Y0079700D02*
X0243125Y0079700D01*
X0243107Y0079738D02*
X0234691Y0079738D01*
X0234712Y0079775D02*
X0243087Y0079775D01*
X0243059Y0079813D02*
X0234734Y0079813D01*
X0234755Y0079851D02*
X0243030Y0079851D01*
X0243001Y0079889D02*
X0234776Y0079889D01*
X0234800Y0079927D02*
X0242972Y0079927D01*
X0242944Y0079965D02*
X0234834Y0079965D01*
X0234869Y0080003D02*
X0242915Y0080003D01*
X0242886Y0080041D02*
X0234903Y0080041D01*
X0234937Y0080079D02*
X0242858Y0080079D01*
X0242829Y0080116D02*
X0234972Y0080116D01*
X0235006Y0080154D02*
X0242790Y0080154D01*
X0242747Y0080192D02*
X0235041Y0080192D01*
X0235075Y0080230D02*
X0242704Y0080230D01*
X0242662Y0080268D02*
X0235109Y0080268D01*
X0235149Y0080306D02*
X0242619Y0080306D01*
X0242577Y0080344D02*
X0235204Y0080344D01*
X0235258Y0080382D02*
X0242534Y0080382D01*
X0242491Y0080419D02*
X0235312Y0080419D01*
X0235367Y0080457D02*
X0242428Y0080457D01*
X0242363Y0080495D02*
X0235421Y0080495D01*
X0235475Y0080533D02*
X0242299Y0080533D01*
X0242234Y0080571D02*
X0235530Y0080571D01*
X0235610Y0080609D02*
X0242169Y0080609D01*
X0242105Y0080647D02*
X0235703Y0080647D01*
X0235797Y0080685D02*
X0241996Y0080685D01*
X0241887Y0080723D02*
X0235890Y0080723D01*
X0235984Y0080760D02*
X0241777Y0080760D01*
X0241646Y0080798D02*
X0236169Y0080798D01*
X0236403Y0080836D02*
X0241372Y0080836D01*
X0300394Y0070394D02*
X0303465Y0070394D01*
X0303465Y0069449D01*
X0300394Y0069449D01*
X0300394Y0070394D01*
X0300394Y0070381D02*
X0303465Y0070381D01*
X0303465Y0070343D02*
X0300394Y0070343D01*
X0300394Y0070305D02*
X0303465Y0070305D01*
X0303465Y0070267D02*
X0300394Y0070267D01*
X0300394Y0070229D02*
X0303465Y0070229D01*
X0303465Y0070191D02*
X0300394Y0070191D01*
X0300394Y0070154D02*
X0303465Y0070154D01*
X0303465Y0070116D02*
X0300394Y0070116D01*
X0300394Y0070078D02*
X0303465Y0070078D01*
X0303465Y0070040D02*
X0300394Y0070040D01*
X0300394Y0070002D02*
X0303465Y0070002D01*
X0303465Y0069964D02*
X0300394Y0069964D01*
X0300394Y0069926D02*
X0303465Y0069926D01*
X0303465Y0069888D02*
X0300394Y0069888D01*
X0300394Y0069851D02*
X0303465Y0069851D01*
X0303465Y0069813D02*
X0300394Y0069813D01*
X0300394Y0069775D02*
X0303465Y0069775D01*
X0303465Y0069737D02*
X0300394Y0069737D01*
X0300394Y0069699D02*
X0303465Y0069699D01*
X0303465Y0069661D02*
X0300394Y0069661D01*
X0300394Y0069623D02*
X0303465Y0069623D01*
X0303465Y0069585D02*
X0300394Y0069585D01*
X0300394Y0069547D02*
X0303465Y0069547D01*
X0303465Y0069510D02*
X0300394Y0069510D01*
X0300394Y0069472D02*
X0303465Y0069472D01*
X0303465Y0068425D02*
X0303465Y0067480D01*
X0300394Y0067480D01*
X0300394Y0068425D01*
X0303465Y0068425D01*
X0303465Y0068411D02*
X0300394Y0068411D01*
X0300394Y0068373D02*
X0303465Y0068373D01*
X0303465Y0068335D02*
X0300394Y0068335D01*
X0300394Y0068297D02*
X0303465Y0068297D01*
X0303465Y0068260D02*
X0300394Y0068260D01*
X0300394Y0068222D02*
X0303465Y0068222D01*
X0303465Y0068184D02*
X0300394Y0068184D01*
X0300394Y0068146D02*
X0303465Y0068146D01*
X0303465Y0068108D02*
X0300394Y0068108D01*
X0300394Y0068070D02*
X0303465Y0068070D01*
X0303465Y0068032D02*
X0300394Y0068032D01*
X0300394Y0067994D02*
X0303465Y0067994D01*
X0303465Y0067956D02*
X0300394Y0067956D01*
X0300394Y0067919D02*
X0303465Y0067919D01*
X0303465Y0067881D02*
X0300394Y0067881D01*
X0300394Y0067843D02*
X0303465Y0067843D01*
X0303465Y0067805D02*
X0300394Y0067805D01*
X0300394Y0067767D02*
X0303465Y0067767D01*
X0303465Y0067729D02*
X0300394Y0067729D01*
X0300394Y0067691D02*
X0303465Y0067691D01*
X0303465Y0067653D02*
X0300394Y0067653D01*
X0300394Y0067616D02*
X0303465Y0067616D01*
X0303465Y0067578D02*
X0300394Y0067578D01*
X0300394Y0067540D02*
X0303465Y0067540D01*
X0303465Y0067502D02*
X0300394Y0067502D01*
X0300394Y0066457D02*
X0303465Y0066457D01*
X0303465Y0065512D01*
X0300394Y0065512D01*
X0300394Y0066457D01*
X0300394Y0066441D02*
X0303465Y0066441D01*
X0303465Y0066403D02*
X0300394Y0066403D01*
X0300394Y0066365D02*
X0303465Y0066365D01*
X0303465Y0066328D02*
X0300394Y0066328D01*
X0300394Y0066290D02*
X0303465Y0066290D01*
X0303465Y0066252D02*
X0300394Y0066252D01*
X0300394Y0066214D02*
X0303465Y0066214D01*
X0303465Y0066176D02*
X0300394Y0066176D01*
X0300394Y0066138D02*
X0303465Y0066138D01*
X0303465Y0066100D02*
X0300394Y0066100D01*
X0300394Y0066062D02*
X0303465Y0066062D01*
X0303465Y0066025D02*
X0300394Y0066025D01*
X0300394Y0065987D02*
X0303465Y0065987D01*
X0303465Y0065949D02*
X0300394Y0065949D01*
X0300394Y0065911D02*
X0303465Y0065911D01*
X0303465Y0065873D02*
X0300394Y0065873D01*
X0300394Y0065835D02*
X0303465Y0065835D01*
X0303465Y0065797D02*
X0300394Y0065797D01*
X0300394Y0065759D02*
X0303465Y0065759D01*
X0303465Y0065721D02*
X0300394Y0065721D01*
X0300394Y0065684D02*
X0303465Y0065684D01*
X0303465Y0065646D02*
X0300394Y0065646D01*
X0300394Y0065608D02*
X0303465Y0065608D01*
X0303465Y0065570D02*
X0300394Y0065570D01*
X0300394Y0065532D02*
X0303465Y0065532D01*
X0303465Y0064488D02*
X0303465Y0063543D01*
X0300394Y0063543D01*
X0300394Y0064488D01*
X0303465Y0064488D01*
X0303465Y0064471D02*
X0300394Y0064471D01*
X0300394Y0064434D02*
X0303465Y0064434D01*
X0303465Y0064396D02*
X0300394Y0064396D01*
X0300394Y0064358D02*
X0303465Y0064358D01*
X0303465Y0064320D02*
X0300394Y0064320D01*
X0300394Y0064282D02*
X0303465Y0064282D01*
X0303465Y0064244D02*
X0300394Y0064244D01*
X0300394Y0064206D02*
X0303465Y0064206D01*
X0303465Y0064168D02*
X0300394Y0064168D01*
X0300394Y0064130D02*
X0303465Y0064130D01*
X0303465Y0064093D02*
X0300394Y0064093D01*
X0300394Y0064055D02*
X0303465Y0064055D01*
X0303465Y0064017D02*
X0300394Y0064017D01*
X0300394Y0063979D02*
X0303465Y0063979D01*
X0303465Y0063941D02*
X0300394Y0063941D01*
X0300394Y0063903D02*
X0303465Y0063903D01*
X0303465Y0063865D02*
X0300394Y0063865D01*
X0300394Y0063827D02*
X0303465Y0063827D01*
X0303465Y0063790D02*
X0300394Y0063790D01*
X0300394Y0063752D02*
X0303465Y0063752D01*
X0303465Y0063714D02*
X0300394Y0063714D01*
X0300394Y0063676D02*
X0303465Y0063676D01*
X0303465Y0063638D02*
X0300394Y0063638D01*
X0300394Y0063600D02*
X0303465Y0063600D01*
X0303465Y0063562D02*
X0300394Y0063562D01*
X0300394Y0062520D02*
X0303465Y0062520D01*
X0303465Y0061575D01*
X0300394Y0061575D01*
X0300394Y0062520D01*
X0300394Y0062502D02*
X0303465Y0062502D01*
X0303465Y0062464D02*
X0300394Y0062464D01*
X0300394Y0062426D02*
X0303465Y0062426D01*
X0303465Y0062388D02*
X0300394Y0062388D01*
X0300394Y0062350D02*
X0303465Y0062350D01*
X0303465Y0062312D02*
X0300394Y0062312D01*
X0300394Y0062274D02*
X0303465Y0062274D01*
X0303465Y0062236D02*
X0300394Y0062236D01*
X0300394Y0062198D02*
X0303465Y0062198D01*
X0303465Y0062161D02*
X0300394Y0062161D01*
X0300394Y0062123D02*
X0303465Y0062123D01*
X0303465Y0062085D02*
X0300394Y0062085D01*
X0300394Y0062047D02*
X0303465Y0062047D01*
X0303465Y0062009D02*
X0300394Y0062009D01*
X0300394Y0061971D02*
X0303465Y0061971D01*
X0303465Y0061933D02*
X0300394Y0061933D01*
X0300394Y0061895D02*
X0303465Y0061895D01*
X0303465Y0061858D02*
X0300394Y0061858D01*
X0300394Y0061820D02*
X0303465Y0061820D01*
X0303465Y0061782D02*
X0300394Y0061782D01*
X0300394Y0061744D02*
X0303465Y0061744D01*
X0303465Y0061706D02*
X0300394Y0061706D01*
X0300394Y0061668D02*
X0303465Y0061668D01*
X0303465Y0061630D02*
X0300394Y0061630D01*
X0300394Y0061592D02*
X0303465Y0061592D01*
X0303465Y0060551D02*
X0300394Y0060551D01*
X0300394Y0059606D01*
X0303465Y0059606D01*
X0303465Y0060551D01*
X0303465Y0060532D02*
X0300394Y0060532D01*
X0300394Y0060494D02*
X0303465Y0060494D01*
X0303465Y0060456D02*
X0300394Y0060456D01*
X0300394Y0060418D02*
X0303465Y0060418D01*
X0303465Y0060380D02*
X0300394Y0060380D01*
X0300394Y0060342D02*
X0303465Y0060342D01*
X0303465Y0060304D02*
X0300394Y0060304D01*
X0300394Y0060267D02*
X0303465Y0060267D01*
X0303465Y0060229D02*
X0300394Y0060229D01*
X0300394Y0060191D02*
X0303465Y0060191D01*
X0303465Y0060153D02*
X0300394Y0060153D01*
X0300394Y0060115D02*
X0303465Y0060115D01*
X0303465Y0060077D02*
X0300394Y0060077D01*
X0300394Y0060039D02*
X0303465Y0060039D01*
X0303465Y0060001D02*
X0300394Y0060001D01*
X0300394Y0059963D02*
X0303465Y0059963D01*
X0303465Y0059926D02*
X0300394Y0059926D01*
X0300394Y0059888D02*
X0303465Y0059888D01*
X0303465Y0059850D02*
X0300394Y0059850D01*
X0300394Y0059812D02*
X0303465Y0059812D01*
X0303465Y0059774D02*
X0300394Y0059774D01*
X0300394Y0059736D02*
X0303465Y0059736D01*
X0303465Y0059698D02*
X0300394Y0059698D01*
X0300394Y0059660D02*
X0303465Y0059660D01*
X0303465Y0059623D02*
X0300394Y0059623D01*
X0304606Y0058465D02*
X0305551Y0058465D01*
X0305551Y0055394D01*
X0304606Y0055394D01*
X0304606Y0058465D01*
X0304606Y0058448D02*
X0305551Y0058448D01*
X0305551Y0058410D02*
X0304606Y0058410D01*
X0304606Y0058372D02*
X0305551Y0058372D01*
X0305551Y0058335D02*
X0304606Y0058335D01*
X0304606Y0058297D02*
X0305551Y0058297D01*
X0305551Y0058259D02*
X0304606Y0058259D01*
X0304606Y0058221D02*
X0305551Y0058221D01*
X0305551Y0058183D02*
X0304606Y0058183D01*
X0304606Y0058145D02*
X0305551Y0058145D01*
X0305551Y0058107D02*
X0304606Y0058107D01*
X0304606Y0058069D02*
X0305551Y0058069D01*
X0305551Y0058032D02*
X0304606Y0058032D01*
X0304606Y0057994D02*
X0305551Y0057994D01*
X0305551Y0057956D02*
X0304606Y0057956D01*
X0304606Y0057918D02*
X0305551Y0057918D01*
X0305551Y0057880D02*
X0304606Y0057880D01*
X0304606Y0057842D02*
X0305551Y0057842D01*
X0305551Y0057804D02*
X0304606Y0057804D01*
X0304606Y0057766D02*
X0305551Y0057766D01*
X0305551Y0057728D02*
X0304606Y0057728D01*
X0304606Y0057691D02*
X0305551Y0057691D01*
X0305551Y0057653D02*
X0304606Y0057653D01*
X0304606Y0057615D02*
X0305551Y0057615D01*
X0305551Y0057577D02*
X0304606Y0057577D01*
X0304606Y0057539D02*
X0305551Y0057539D01*
X0305551Y0057501D02*
X0304606Y0057501D01*
X0304606Y0057463D02*
X0305551Y0057463D01*
X0305551Y0057425D02*
X0304606Y0057425D01*
X0304606Y0057388D02*
X0305551Y0057388D01*
X0305551Y0057350D02*
X0304606Y0057350D01*
X0304606Y0057312D02*
X0305551Y0057312D01*
X0305551Y0057274D02*
X0304606Y0057274D01*
X0304606Y0057236D02*
X0305551Y0057236D01*
X0305551Y0057198D02*
X0304606Y0057198D01*
X0304606Y0057160D02*
X0305551Y0057160D01*
X0305551Y0057122D02*
X0304606Y0057122D01*
X0304606Y0057085D02*
X0305551Y0057085D01*
X0305551Y0057047D02*
X0304606Y0057047D01*
X0304606Y0057009D02*
X0305551Y0057009D01*
X0305551Y0056971D02*
X0304606Y0056971D01*
X0304606Y0056933D02*
X0305551Y0056933D01*
X0305551Y0056895D02*
X0304606Y0056895D01*
X0304606Y0056857D02*
X0305551Y0056857D01*
X0305551Y0056819D02*
X0304606Y0056819D01*
X0304606Y0056781D02*
X0305551Y0056781D01*
X0305551Y0056744D02*
X0304606Y0056744D01*
X0304606Y0056706D02*
X0305551Y0056706D01*
X0305551Y0056668D02*
X0304606Y0056668D01*
X0304606Y0056630D02*
X0305551Y0056630D01*
X0305551Y0056592D02*
X0304606Y0056592D01*
X0304606Y0056554D02*
X0305551Y0056554D01*
X0305551Y0056516D02*
X0304606Y0056516D01*
X0304606Y0056478D02*
X0305551Y0056478D01*
X0305551Y0056441D02*
X0304606Y0056441D01*
X0304606Y0056403D02*
X0305551Y0056403D01*
X0305551Y0056365D02*
X0304606Y0056365D01*
X0304606Y0056327D02*
X0305551Y0056327D01*
X0305551Y0056289D02*
X0304606Y0056289D01*
X0304606Y0056251D02*
X0305551Y0056251D01*
X0305551Y0056213D02*
X0304606Y0056213D01*
X0304606Y0056175D02*
X0305551Y0056175D01*
X0305551Y0056137D02*
X0304606Y0056137D01*
X0304606Y0056100D02*
X0305551Y0056100D01*
X0305551Y0056062D02*
X0304606Y0056062D01*
X0304606Y0056024D02*
X0305551Y0056024D01*
X0305551Y0055986D02*
X0304606Y0055986D01*
X0304606Y0055948D02*
X0305551Y0055948D01*
X0305551Y0055910D02*
X0304606Y0055910D01*
X0304606Y0055872D02*
X0305551Y0055872D01*
X0305551Y0055834D02*
X0304606Y0055834D01*
X0304606Y0055797D02*
X0305551Y0055797D01*
X0305551Y0055759D02*
X0304606Y0055759D01*
X0304606Y0055721D02*
X0305551Y0055721D01*
X0305551Y0055683D02*
X0304606Y0055683D01*
X0304606Y0055645D02*
X0305551Y0055645D01*
X0305551Y0055607D02*
X0304606Y0055607D01*
X0304606Y0055569D02*
X0305551Y0055569D01*
X0305551Y0055531D02*
X0304606Y0055531D01*
X0304606Y0055493D02*
X0305551Y0055493D01*
X0305551Y0055456D02*
X0304606Y0055456D01*
X0304606Y0055418D02*
X0305551Y0055418D01*
X0306575Y0055418D02*
X0307520Y0055418D01*
X0307520Y0055394D02*
X0307520Y0058465D01*
X0306575Y0058465D01*
X0306575Y0055394D01*
X0307520Y0055394D01*
X0307520Y0055456D02*
X0306575Y0055456D01*
X0306575Y0055493D02*
X0307520Y0055493D01*
X0307520Y0055531D02*
X0306575Y0055531D01*
X0306575Y0055569D02*
X0307520Y0055569D01*
X0307520Y0055607D02*
X0306575Y0055607D01*
X0306575Y0055645D02*
X0307520Y0055645D01*
X0307520Y0055683D02*
X0306575Y0055683D01*
X0306575Y0055721D02*
X0307520Y0055721D01*
X0307520Y0055759D02*
X0306575Y0055759D01*
X0306575Y0055797D02*
X0307520Y0055797D01*
X0307520Y0055834D02*
X0306575Y0055834D01*
X0306575Y0055872D02*
X0307520Y0055872D01*
X0307520Y0055910D02*
X0306575Y0055910D01*
X0306575Y0055948D02*
X0307520Y0055948D01*
X0307520Y0055986D02*
X0306575Y0055986D01*
X0306575Y0056024D02*
X0307520Y0056024D01*
X0307520Y0056062D02*
X0306575Y0056062D01*
X0306575Y0056100D02*
X0307520Y0056100D01*
X0307520Y0056137D02*
X0306575Y0056137D01*
X0306575Y0056175D02*
X0307520Y0056175D01*
X0307520Y0056213D02*
X0306575Y0056213D01*
X0306575Y0056251D02*
X0307520Y0056251D01*
X0307520Y0056289D02*
X0306575Y0056289D01*
X0306575Y0056327D02*
X0307520Y0056327D01*
X0307520Y0056365D02*
X0306575Y0056365D01*
X0306575Y0056403D02*
X0307520Y0056403D01*
X0307520Y0056441D02*
X0306575Y0056441D01*
X0306575Y0056478D02*
X0307520Y0056478D01*
X0307520Y0056516D02*
X0306575Y0056516D01*
X0306575Y0056554D02*
X0307520Y0056554D01*
X0307520Y0056592D02*
X0306575Y0056592D01*
X0306575Y0056630D02*
X0307520Y0056630D01*
X0307520Y0056668D02*
X0306575Y0056668D01*
X0306575Y0056706D02*
X0307520Y0056706D01*
X0307520Y0056744D02*
X0306575Y0056744D01*
X0306575Y0056781D02*
X0307520Y0056781D01*
X0307520Y0056819D02*
X0306575Y0056819D01*
X0306575Y0056857D02*
X0307520Y0056857D01*
X0307520Y0056895D02*
X0306575Y0056895D01*
X0306575Y0056933D02*
X0307520Y0056933D01*
X0307520Y0056971D02*
X0306575Y0056971D01*
X0306575Y0057009D02*
X0307520Y0057009D01*
X0307520Y0057047D02*
X0306575Y0057047D01*
X0306575Y0057085D02*
X0307520Y0057085D01*
X0307520Y0057122D02*
X0306575Y0057122D01*
X0306575Y0057160D02*
X0307520Y0057160D01*
X0307520Y0057198D02*
X0306575Y0057198D01*
X0306575Y0057236D02*
X0307520Y0057236D01*
X0307520Y0057274D02*
X0306575Y0057274D01*
X0306575Y0057312D02*
X0307520Y0057312D01*
X0307520Y0057350D02*
X0306575Y0057350D01*
X0306575Y0057388D02*
X0307520Y0057388D01*
X0307520Y0057425D02*
X0306575Y0057425D01*
X0306575Y0057463D02*
X0307520Y0057463D01*
X0307520Y0057501D02*
X0306575Y0057501D01*
X0306575Y0057539D02*
X0307520Y0057539D01*
X0307520Y0057577D02*
X0306575Y0057577D01*
X0306575Y0057615D02*
X0307520Y0057615D01*
X0307520Y0057653D02*
X0306575Y0057653D01*
X0306575Y0057691D02*
X0307520Y0057691D01*
X0307520Y0057728D02*
X0306575Y0057728D01*
X0306575Y0057766D02*
X0307520Y0057766D01*
X0307520Y0057804D02*
X0306575Y0057804D01*
X0306575Y0057842D02*
X0307520Y0057842D01*
X0307520Y0057880D02*
X0306575Y0057880D01*
X0306575Y0057918D02*
X0307520Y0057918D01*
X0307520Y0057956D02*
X0306575Y0057956D01*
X0306575Y0057994D02*
X0307520Y0057994D01*
X0307520Y0058032D02*
X0306575Y0058032D01*
X0306575Y0058069D02*
X0307520Y0058069D01*
X0307520Y0058107D02*
X0306575Y0058107D01*
X0306575Y0058145D02*
X0307520Y0058145D01*
X0307520Y0058183D02*
X0306575Y0058183D01*
X0306575Y0058221D02*
X0307520Y0058221D01*
X0307520Y0058259D02*
X0306575Y0058259D01*
X0306575Y0058297D02*
X0307520Y0058297D01*
X0307520Y0058335D02*
X0306575Y0058335D01*
X0306575Y0058372D02*
X0307520Y0058372D01*
X0307520Y0058410D02*
X0306575Y0058410D01*
X0306575Y0058448D02*
X0307520Y0058448D01*
X0308543Y0058448D02*
X0309488Y0058448D01*
X0309488Y0058465D02*
X0309488Y0055394D01*
X0308543Y0055394D01*
X0308543Y0058465D01*
X0309488Y0058465D01*
X0309488Y0058410D02*
X0308543Y0058410D01*
X0308543Y0058372D02*
X0309488Y0058372D01*
X0309488Y0058335D02*
X0308543Y0058335D01*
X0308543Y0058297D02*
X0309488Y0058297D01*
X0309488Y0058259D02*
X0308543Y0058259D01*
X0308543Y0058221D02*
X0309488Y0058221D01*
X0309488Y0058183D02*
X0308543Y0058183D01*
X0308543Y0058145D02*
X0309488Y0058145D01*
X0309488Y0058107D02*
X0308543Y0058107D01*
X0308543Y0058069D02*
X0309488Y0058069D01*
X0309488Y0058032D02*
X0308543Y0058032D01*
X0308543Y0057994D02*
X0309488Y0057994D01*
X0309488Y0057956D02*
X0308543Y0057956D01*
X0308543Y0057918D02*
X0309488Y0057918D01*
X0309488Y0057880D02*
X0308543Y0057880D01*
X0308543Y0057842D02*
X0309488Y0057842D01*
X0309488Y0057804D02*
X0308543Y0057804D01*
X0308543Y0057766D02*
X0309488Y0057766D01*
X0309488Y0057728D02*
X0308543Y0057728D01*
X0308543Y0057691D02*
X0309488Y0057691D01*
X0309488Y0057653D02*
X0308543Y0057653D01*
X0308543Y0057615D02*
X0309488Y0057615D01*
X0309488Y0057577D02*
X0308543Y0057577D01*
X0308543Y0057539D02*
X0309488Y0057539D01*
X0309488Y0057501D02*
X0308543Y0057501D01*
X0308543Y0057463D02*
X0309488Y0057463D01*
X0309488Y0057425D02*
X0308543Y0057425D01*
X0308543Y0057388D02*
X0309488Y0057388D01*
X0309488Y0057350D02*
X0308543Y0057350D01*
X0308543Y0057312D02*
X0309488Y0057312D01*
X0309488Y0057274D02*
X0308543Y0057274D01*
X0308543Y0057236D02*
X0309488Y0057236D01*
X0309488Y0057198D02*
X0308543Y0057198D01*
X0308543Y0057160D02*
X0309488Y0057160D01*
X0309488Y0057122D02*
X0308543Y0057122D01*
X0308543Y0057085D02*
X0309488Y0057085D01*
X0309488Y0057047D02*
X0308543Y0057047D01*
X0308543Y0057009D02*
X0309488Y0057009D01*
X0309488Y0056971D02*
X0308543Y0056971D01*
X0308543Y0056933D02*
X0309488Y0056933D01*
X0309488Y0056895D02*
X0308543Y0056895D01*
X0308543Y0056857D02*
X0309488Y0056857D01*
X0309488Y0056819D02*
X0308543Y0056819D01*
X0308543Y0056781D02*
X0309488Y0056781D01*
X0309488Y0056744D02*
X0308543Y0056744D01*
X0308543Y0056706D02*
X0309488Y0056706D01*
X0309488Y0056668D02*
X0308543Y0056668D01*
X0308543Y0056630D02*
X0309488Y0056630D01*
X0309488Y0056592D02*
X0308543Y0056592D01*
X0308543Y0056554D02*
X0309488Y0056554D01*
X0309488Y0056516D02*
X0308543Y0056516D01*
X0308543Y0056478D02*
X0309488Y0056478D01*
X0309488Y0056441D02*
X0308543Y0056441D01*
X0308543Y0056403D02*
X0309488Y0056403D01*
X0309488Y0056365D02*
X0308543Y0056365D01*
X0308543Y0056327D02*
X0309488Y0056327D01*
X0309488Y0056289D02*
X0308543Y0056289D01*
X0308543Y0056251D02*
X0309488Y0056251D01*
X0309488Y0056213D02*
X0308543Y0056213D01*
X0308543Y0056175D02*
X0309488Y0056175D01*
X0309488Y0056137D02*
X0308543Y0056137D01*
X0308543Y0056100D02*
X0309488Y0056100D01*
X0309488Y0056062D02*
X0308543Y0056062D01*
X0308543Y0056024D02*
X0309488Y0056024D01*
X0309488Y0055986D02*
X0308543Y0055986D01*
X0308543Y0055948D02*
X0309488Y0055948D01*
X0309488Y0055910D02*
X0308543Y0055910D01*
X0308543Y0055872D02*
X0309488Y0055872D01*
X0309488Y0055834D02*
X0308543Y0055834D01*
X0308543Y0055797D02*
X0309488Y0055797D01*
X0309488Y0055759D02*
X0308543Y0055759D01*
X0308543Y0055721D02*
X0309488Y0055721D01*
X0309488Y0055683D02*
X0308543Y0055683D01*
X0308543Y0055645D02*
X0309488Y0055645D01*
X0309488Y0055607D02*
X0308543Y0055607D01*
X0308543Y0055569D02*
X0309488Y0055569D01*
X0309488Y0055531D02*
X0308543Y0055531D01*
X0308543Y0055493D02*
X0309488Y0055493D01*
X0309488Y0055456D02*
X0308543Y0055456D01*
X0308543Y0055418D02*
X0309488Y0055418D01*
X0310512Y0055418D02*
X0311457Y0055418D01*
X0311457Y0055394D02*
X0311457Y0058465D01*
X0310512Y0058465D01*
X0310512Y0055394D01*
X0311457Y0055394D01*
X0311457Y0055456D02*
X0310512Y0055456D01*
X0310512Y0055493D02*
X0311457Y0055493D01*
X0311457Y0055531D02*
X0310512Y0055531D01*
X0310512Y0055569D02*
X0311457Y0055569D01*
X0311457Y0055607D02*
X0310512Y0055607D01*
X0310512Y0055645D02*
X0311457Y0055645D01*
X0311457Y0055683D02*
X0310512Y0055683D01*
X0310512Y0055721D02*
X0311457Y0055721D01*
X0311457Y0055759D02*
X0310512Y0055759D01*
X0310512Y0055797D02*
X0311457Y0055797D01*
X0311457Y0055834D02*
X0310512Y0055834D01*
X0310512Y0055872D02*
X0311457Y0055872D01*
X0311457Y0055910D02*
X0310512Y0055910D01*
X0310512Y0055948D02*
X0311457Y0055948D01*
X0311457Y0055986D02*
X0310512Y0055986D01*
X0310512Y0056024D02*
X0311457Y0056024D01*
X0311457Y0056062D02*
X0310512Y0056062D01*
X0310512Y0056100D02*
X0311457Y0056100D01*
X0311457Y0056137D02*
X0310512Y0056137D01*
X0310512Y0056175D02*
X0311457Y0056175D01*
X0311457Y0056213D02*
X0310512Y0056213D01*
X0310512Y0056251D02*
X0311457Y0056251D01*
X0311457Y0056289D02*
X0310512Y0056289D01*
X0310512Y0056327D02*
X0311457Y0056327D01*
X0311457Y0056365D02*
X0310512Y0056365D01*
X0310512Y0056403D02*
X0311457Y0056403D01*
X0311457Y0056441D02*
X0310512Y0056441D01*
X0310512Y0056478D02*
X0311457Y0056478D01*
X0311457Y0056516D02*
X0310512Y0056516D01*
X0310512Y0056554D02*
X0311457Y0056554D01*
X0311457Y0056592D02*
X0310512Y0056592D01*
X0310512Y0056630D02*
X0311457Y0056630D01*
X0311457Y0056668D02*
X0310512Y0056668D01*
X0310512Y0056706D02*
X0311457Y0056706D01*
X0311457Y0056744D02*
X0310512Y0056744D01*
X0310512Y0056781D02*
X0311457Y0056781D01*
X0311457Y0056819D02*
X0310512Y0056819D01*
X0310512Y0056857D02*
X0311457Y0056857D01*
X0311457Y0056895D02*
X0310512Y0056895D01*
X0310512Y0056933D02*
X0311457Y0056933D01*
X0311457Y0056971D02*
X0310512Y0056971D01*
X0310512Y0057009D02*
X0311457Y0057009D01*
X0311457Y0057047D02*
X0310512Y0057047D01*
X0310512Y0057085D02*
X0311457Y0057085D01*
X0311457Y0057122D02*
X0310512Y0057122D01*
X0310512Y0057160D02*
X0311457Y0057160D01*
X0311457Y0057198D02*
X0310512Y0057198D01*
X0310512Y0057236D02*
X0311457Y0057236D01*
X0311457Y0057274D02*
X0310512Y0057274D01*
X0310512Y0057312D02*
X0311457Y0057312D01*
X0311457Y0057350D02*
X0310512Y0057350D01*
X0310512Y0057388D02*
X0311457Y0057388D01*
X0311457Y0057425D02*
X0310512Y0057425D01*
X0310512Y0057463D02*
X0311457Y0057463D01*
X0311457Y0057501D02*
X0310512Y0057501D01*
X0310512Y0057539D02*
X0311457Y0057539D01*
X0311457Y0057577D02*
X0310512Y0057577D01*
X0310512Y0057615D02*
X0311457Y0057615D01*
X0311457Y0057653D02*
X0310512Y0057653D01*
X0310512Y0057691D02*
X0311457Y0057691D01*
X0311457Y0057728D02*
X0310512Y0057728D01*
X0310512Y0057766D02*
X0311457Y0057766D01*
X0311457Y0057804D02*
X0310512Y0057804D01*
X0310512Y0057842D02*
X0311457Y0057842D01*
X0311457Y0057880D02*
X0310512Y0057880D01*
X0310512Y0057918D02*
X0311457Y0057918D01*
X0311457Y0057956D02*
X0310512Y0057956D01*
X0310512Y0057994D02*
X0311457Y0057994D01*
X0311457Y0058032D02*
X0310512Y0058032D01*
X0310512Y0058069D02*
X0311457Y0058069D01*
X0311457Y0058107D02*
X0310512Y0058107D01*
X0310512Y0058145D02*
X0311457Y0058145D01*
X0311457Y0058183D02*
X0310512Y0058183D01*
X0310512Y0058221D02*
X0311457Y0058221D01*
X0311457Y0058259D02*
X0310512Y0058259D01*
X0310512Y0058297D02*
X0311457Y0058297D01*
X0311457Y0058335D02*
X0310512Y0058335D01*
X0310512Y0058372D02*
X0311457Y0058372D01*
X0311457Y0058410D02*
X0310512Y0058410D01*
X0310512Y0058448D02*
X0311457Y0058448D01*
X0312480Y0058448D02*
X0313425Y0058448D01*
X0313425Y0058465D02*
X0313425Y0055394D01*
X0312480Y0055394D01*
X0312480Y0058465D01*
X0313425Y0058465D01*
X0313425Y0058410D02*
X0312480Y0058410D01*
X0312480Y0058372D02*
X0313425Y0058372D01*
X0313425Y0058335D02*
X0312480Y0058335D01*
X0312480Y0058297D02*
X0313425Y0058297D01*
X0313425Y0058259D02*
X0312480Y0058259D01*
X0312480Y0058221D02*
X0313425Y0058221D01*
X0313425Y0058183D02*
X0312480Y0058183D01*
X0312480Y0058145D02*
X0313425Y0058145D01*
X0313425Y0058107D02*
X0312480Y0058107D01*
X0312480Y0058069D02*
X0313425Y0058069D01*
X0313425Y0058032D02*
X0312480Y0058032D01*
X0312480Y0057994D02*
X0313425Y0057994D01*
X0313425Y0057956D02*
X0312480Y0057956D01*
X0312480Y0057918D02*
X0313425Y0057918D01*
X0313425Y0057880D02*
X0312480Y0057880D01*
X0312480Y0057842D02*
X0313425Y0057842D01*
X0313425Y0057804D02*
X0312480Y0057804D01*
X0312480Y0057766D02*
X0313425Y0057766D01*
X0313425Y0057728D02*
X0312480Y0057728D01*
X0312480Y0057691D02*
X0313425Y0057691D01*
X0313425Y0057653D02*
X0312480Y0057653D01*
X0312480Y0057615D02*
X0313425Y0057615D01*
X0313425Y0057577D02*
X0312480Y0057577D01*
X0312480Y0057539D02*
X0313425Y0057539D01*
X0313425Y0057501D02*
X0312480Y0057501D01*
X0312480Y0057463D02*
X0313425Y0057463D01*
X0313425Y0057425D02*
X0312480Y0057425D01*
X0312480Y0057388D02*
X0313425Y0057388D01*
X0313425Y0057350D02*
X0312480Y0057350D01*
X0312480Y0057312D02*
X0313425Y0057312D01*
X0313425Y0057274D02*
X0312480Y0057274D01*
X0312480Y0057236D02*
X0313425Y0057236D01*
X0313425Y0057198D02*
X0312480Y0057198D01*
X0312480Y0057160D02*
X0313425Y0057160D01*
X0313425Y0057122D02*
X0312480Y0057122D01*
X0312480Y0057085D02*
X0313425Y0057085D01*
X0313425Y0057047D02*
X0312480Y0057047D01*
X0312480Y0057009D02*
X0313425Y0057009D01*
X0313425Y0056971D02*
X0312480Y0056971D01*
X0312480Y0056933D02*
X0313425Y0056933D01*
X0313425Y0056895D02*
X0312480Y0056895D01*
X0312480Y0056857D02*
X0313425Y0056857D01*
X0313425Y0056819D02*
X0312480Y0056819D01*
X0312480Y0056781D02*
X0313425Y0056781D01*
X0313425Y0056744D02*
X0312480Y0056744D01*
X0312480Y0056706D02*
X0313425Y0056706D01*
X0313425Y0056668D02*
X0312480Y0056668D01*
X0312480Y0056630D02*
X0313425Y0056630D01*
X0313425Y0056592D02*
X0312480Y0056592D01*
X0312480Y0056554D02*
X0313425Y0056554D01*
X0313425Y0056516D02*
X0312480Y0056516D01*
X0312480Y0056478D02*
X0313425Y0056478D01*
X0313425Y0056441D02*
X0312480Y0056441D01*
X0312480Y0056403D02*
X0313425Y0056403D01*
X0313425Y0056365D02*
X0312480Y0056365D01*
X0312480Y0056327D02*
X0313425Y0056327D01*
X0313425Y0056289D02*
X0312480Y0056289D01*
X0312480Y0056251D02*
X0313425Y0056251D01*
X0313425Y0056213D02*
X0312480Y0056213D01*
X0312480Y0056175D02*
X0313425Y0056175D01*
X0313425Y0056137D02*
X0312480Y0056137D01*
X0312480Y0056100D02*
X0313425Y0056100D01*
X0313425Y0056062D02*
X0312480Y0056062D01*
X0312480Y0056024D02*
X0313425Y0056024D01*
X0313425Y0055986D02*
X0312480Y0055986D01*
X0312480Y0055948D02*
X0313425Y0055948D01*
X0313425Y0055910D02*
X0312480Y0055910D01*
X0312480Y0055872D02*
X0313425Y0055872D01*
X0313425Y0055834D02*
X0312480Y0055834D01*
X0312480Y0055797D02*
X0313425Y0055797D01*
X0313425Y0055759D02*
X0312480Y0055759D01*
X0312480Y0055721D02*
X0313425Y0055721D01*
X0313425Y0055683D02*
X0312480Y0055683D01*
X0312480Y0055645D02*
X0313425Y0055645D01*
X0313425Y0055607D02*
X0312480Y0055607D01*
X0312480Y0055569D02*
X0313425Y0055569D01*
X0313425Y0055531D02*
X0312480Y0055531D01*
X0312480Y0055493D02*
X0313425Y0055493D01*
X0313425Y0055456D02*
X0312480Y0055456D01*
X0312480Y0055418D02*
X0313425Y0055418D01*
X0314449Y0055418D02*
X0315394Y0055418D01*
X0315394Y0055394D02*
X0315394Y0058465D01*
X0314449Y0058465D01*
X0314449Y0055394D01*
X0315394Y0055394D01*
X0315394Y0055456D02*
X0314449Y0055456D01*
X0314449Y0055493D02*
X0315394Y0055493D01*
X0315394Y0055531D02*
X0314449Y0055531D01*
X0314449Y0055569D02*
X0315394Y0055569D01*
X0315394Y0055607D02*
X0314449Y0055607D01*
X0314449Y0055645D02*
X0315394Y0055645D01*
X0315394Y0055683D02*
X0314449Y0055683D01*
X0314449Y0055721D02*
X0315394Y0055721D01*
X0315394Y0055759D02*
X0314449Y0055759D01*
X0314449Y0055797D02*
X0315394Y0055797D01*
X0315394Y0055834D02*
X0314449Y0055834D01*
X0314449Y0055872D02*
X0315394Y0055872D01*
X0315394Y0055910D02*
X0314449Y0055910D01*
X0314449Y0055948D02*
X0315394Y0055948D01*
X0315394Y0055986D02*
X0314449Y0055986D01*
X0314449Y0056024D02*
X0315394Y0056024D01*
X0315394Y0056062D02*
X0314449Y0056062D01*
X0314449Y0056100D02*
X0315394Y0056100D01*
X0315394Y0056137D02*
X0314449Y0056137D01*
X0314449Y0056175D02*
X0315394Y0056175D01*
X0315394Y0056213D02*
X0314449Y0056213D01*
X0314449Y0056251D02*
X0315394Y0056251D01*
X0315394Y0056289D02*
X0314449Y0056289D01*
X0314449Y0056327D02*
X0315394Y0056327D01*
X0315394Y0056365D02*
X0314449Y0056365D01*
X0314449Y0056403D02*
X0315394Y0056403D01*
X0315394Y0056441D02*
X0314449Y0056441D01*
X0314449Y0056478D02*
X0315394Y0056478D01*
X0315394Y0056516D02*
X0314449Y0056516D01*
X0314449Y0056554D02*
X0315394Y0056554D01*
X0315394Y0056592D02*
X0314449Y0056592D01*
X0314449Y0056630D02*
X0315394Y0056630D01*
X0315394Y0056668D02*
X0314449Y0056668D01*
X0314449Y0056706D02*
X0315394Y0056706D01*
X0315394Y0056744D02*
X0314449Y0056744D01*
X0314449Y0056781D02*
X0315394Y0056781D01*
X0315394Y0056819D02*
X0314449Y0056819D01*
X0314449Y0056857D02*
X0315394Y0056857D01*
X0315394Y0056895D02*
X0314449Y0056895D01*
X0314449Y0056933D02*
X0315394Y0056933D01*
X0315394Y0056971D02*
X0314449Y0056971D01*
X0314449Y0057009D02*
X0315394Y0057009D01*
X0315394Y0057047D02*
X0314449Y0057047D01*
X0314449Y0057085D02*
X0315394Y0057085D01*
X0315394Y0057122D02*
X0314449Y0057122D01*
X0314449Y0057160D02*
X0315394Y0057160D01*
X0315394Y0057198D02*
X0314449Y0057198D01*
X0314449Y0057236D02*
X0315394Y0057236D01*
X0315394Y0057274D02*
X0314449Y0057274D01*
X0314449Y0057312D02*
X0315394Y0057312D01*
X0315394Y0057350D02*
X0314449Y0057350D01*
X0314449Y0057388D02*
X0315394Y0057388D01*
X0315394Y0057425D02*
X0314449Y0057425D01*
X0314449Y0057463D02*
X0315394Y0057463D01*
X0315394Y0057501D02*
X0314449Y0057501D01*
X0314449Y0057539D02*
X0315394Y0057539D01*
X0315394Y0057577D02*
X0314449Y0057577D01*
X0314449Y0057615D02*
X0315394Y0057615D01*
X0315394Y0057653D02*
X0314449Y0057653D01*
X0314449Y0057691D02*
X0315394Y0057691D01*
X0315394Y0057728D02*
X0314449Y0057728D01*
X0314449Y0057766D02*
X0315394Y0057766D01*
X0315394Y0057804D02*
X0314449Y0057804D01*
X0314449Y0057842D02*
X0315394Y0057842D01*
X0315394Y0057880D02*
X0314449Y0057880D01*
X0314449Y0057918D02*
X0315394Y0057918D01*
X0315394Y0057956D02*
X0314449Y0057956D01*
X0314449Y0057994D02*
X0315394Y0057994D01*
X0315394Y0058032D02*
X0314449Y0058032D01*
X0314449Y0058069D02*
X0315394Y0058069D01*
X0315394Y0058107D02*
X0314449Y0058107D01*
X0314449Y0058145D02*
X0315394Y0058145D01*
X0315394Y0058183D02*
X0314449Y0058183D01*
X0314449Y0058221D02*
X0315394Y0058221D01*
X0315394Y0058259D02*
X0314449Y0058259D01*
X0314449Y0058297D02*
X0315394Y0058297D01*
X0315394Y0058335D02*
X0314449Y0058335D01*
X0314449Y0058372D02*
X0315394Y0058372D01*
X0315394Y0058410D02*
X0314449Y0058410D01*
X0314449Y0058448D02*
X0315394Y0058448D01*
X0316535Y0059606D02*
X0316535Y0060551D01*
X0319606Y0060551D01*
X0319606Y0059606D01*
X0316535Y0059606D01*
X0316535Y0059623D02*
X0319606Y0059623D01*
X0319606Y0059660D02*
X0316535Y0059660D01*
X0316535Y0059698D02*
X0319606Y0059698D01*
X0319606Y0059736D02*
X0316535Y0059736D01*
X0316535Y0059774D02*
X0319606Y0059774D01*
X0319606Y0059812D02*
X0316535Y0059812D01*
X0316535Y0059850D02*
X0319606Y0059850D01*
X0319606Y0059888D02*
X0316535Y0059888D01*
X0316535Y0059926D02*
X0319606Y0059926D01*
X0319606Y0059963D02*
X0316535Y0059963D01*
X0316535Y0060001D02*
X0319606Y0060001D01*
X0319606Y0060039D02*
X0316535Y0060039D01*
X0316535Y0060077D02*
X0319606Y0060077D01*
X0319606Y0060115D02*
X0316535Y0060115D01*
X0316535Y0060153D02*
X0319606Y0060153D01*
X0319606Y0060191D02*
X0316535Y0060191D01*
X0316535Y0060229D02*
X0319606Y0060229D01*
X0319606Y0060267D02*
X0316535Y0060267D01*
X0316535Y0060304D02*
X0319606Y0060304D01*
X0319606Y0060342D02*
X0316535Y0060342D01*
X0316535Y0060380D02*
X0319606Y0060380D01*
X0319606Y0060418D02*
X0316535Y0060418D01*
X0316535Y0060456D02*
X0319606Y0060456D01*
X0319606Y0060494D02*
X0316535Y0060494D01*
X0316535Y0060532D02*
X0319606Y0060532D01*
X0319606Y0061575D02*
X0316535Y0061575D01*
X0316535Y0062520D01*
X0319606Y0062520D01*
X0319606Y0061575D01*
X0319606Y0061592D02*
X0316535Y0061592D01*
X0316535Y0061630D02*
X0319606Y0061630D01*
X0319606Y0061668D02*
X0316535Y0061668D01*
X0316535Y0061706D02*
X0319606Y0061706D01*
X0319606Y0061744D02*
X0316535Y0061744D01*
X0316535Y0061782D02*
X0319606Y0061782D01*
X0319606Y0061820D02*
X0316535Y0061820D01*
X0316535Y0061858D02*
X0319606Y0061858D01*
X0319606Y0061895D02*
X0316535Y0061895D01*
X0316535Y0061933D02*
X0319606Y0061933D01*
X0319606Y0061971D02*
X0316535Y0061971D01*
X0316535Y0062009D02*
X0319606Y0062009D01*
X0319606Y0062047D02*
X0316535Y0062047D01*
X0316535Y0062085D02*
X0319606Y0062085D01*
X0319606Y0062123D02*
X0316535Y0062123D01*
X0316535Y0062161D02*
X0319606Y0062161D01*
X0319606Y0062198D02*
X0316535Y0062198D01*
X0316535Y0062236D02*
X0319606Y0062236D01*
X0319606Y0062274D02*
X0316535Y0062274D01*
X0316535Y0062312D02*
X0319606Y0062312D01*
X0319606Y0062350D02*
X0316535Y0062350D01*
X0316535Y0062388D02*
X0319606Y0062388D01*
X0319606Y0062426D02*
X0316535Y0062426D01*
X0316535Y0062464D02*
X0319606Y0062464D01*
X0319606Y0062502D02*
X0316535Y0062502D01*
X0316535Y0063543D02*
X0316535Y0064488D01*
X0319606Y0064488D01*
X0319606Y0063543D01*
X0316535Y0063543D01*
X0316535Y0063562D02*
X0319606Y0063562D01*
X0319606Y0063600D02*
X0316535Y0063600D01*
X0316535Y0063638D02*
X0319606Y0063638D01*
X0319606Y0063676D02*
X0316535Y0063676D01*
X0316535Y0063714D02*
X0319606Y0063714D01*
X0319606Y0063752D02*
X0316535Y0063752D01*
X0316535Y0063790D02*
X0319606Y0063790D01*
X0319606Y0063827D02*
X0316535Y0063827D01*
X0316535Y0063865D02*
X0319606Y0063865D01*
X0319606Y0063903D02*
X0316535Y0063903D01*
X0316535Y0063941D02*
X0319606Y0063941D01*
X0319606Y0063979D02*
X0316535Y0063979D01*
X0316535Y0064017D02*
X0319606Y0064017D01*
X0319606Y0064055D02*
X0316535Y0064055D01*
X0316535Y0064093D02*
X0319606Y0064093D01*
X0319606Y0064130D02*
X0316535Y0064130D01*
X0316535Y0064168D02*
X0319606Y0064168D01*
X0319606Y0064206D02*
X0316535Y0064206D01*
X0316535Y0064244D02*
X0319606Y0064244D01*
X0319606Y0064282D02*
X0316535Y0064282D01*
X0316535Y0064320D02*
X0319606Y0064320D01*
X0319606Y0064358D02*
X0316535Y0064358D01*
X0316535Y0064396D02*
X0319606Y0064396D01*
X0319606Y0064434D02*
X0316535Y0064434D01*
X0316535Y0064471D02*
X0319606Y0064471D01*
X0319606Y0065512D02*
X0316535Y0065512D01*
X0316535Y0066457D01*
X0319606Y0066457D01*
X0319606Y0065512D01*
X0319606Y0065532D02*
X0316535Y0065532D01*
X0316535Y0065570D02*
X0319606Y0065570D01*
X0319606Y0065608D02*
X0316535Y0065608D01*
X0316535Y0065646D02*
X0319606Y0065646D01*
X0319606Y0065684D02*
X0316535Y0065684D01*
X0316535Y0065721D02*
X0319606Y0065721D01*
X0319606Y0065759D02*
X0316535Y0065759D01*
X0316535Y0065797D02*
X0319606Y0065797D01*
X0319606Y0065835D02*
X0316535Y0065835D01*
X0316535Y0065873D02*
X0319606Y0065873D01*
X0319606Y0065911D02*
X0316535Y0065911D01*
X0316535Y0065949D02*
X0319606Y0065949D01*
X0319606Y0065987D02*
X0316535Y0065987D01*
X0316535Y0066025D02*
X0319606Y0066025D01*
X0319606Y0066062D02*
X0316535Y0066062D01*
X0316535Y0066100D02*
X0319606Y0066100D01*
X0319606Y0066138D02*
X0316535Y0066138D01*
X0316535Y0066176D02*
X0319606Y0066176D01*
X0319606Y0066214D02*
X0316535Y0066214D01*
X0316535Y0066252D02*
X0319606Y0066252D01*
X0319606Y0066290D02*
X0316535Y0066290D01*
X0316535Y0066328D02*
X0319606Y0066328D01*
X0319606Y0066365D02*
X0316535Y0066365D01*
X0316535Y0066403D02*
X0319606Y0066403D01*
X0319606Y0066441D02*
X0316535Y0066441D01*
X0316535Y0067480D02*
X0316535Y0068425D01*
X0319606Y0068425D01*
X0319606Y0067480D01*
X0316535Y0067480D01*
X0316535Y0067502D02*
X0319606Y0067502D01*
X0319606Y0067540D02*
X0316535Y0067540D01*
X0316535Y0067578D02*
X0319606Y0067578D01*
X0319606Y0067616D02*
X0316535Y0067616D01*
X0316535Y0067653D02*
X0319606Y0067653D01*
X0319606Y0067691D02*
X0316535Y0067691D01*
X0316535Y0067729D02*
X0319606Y0067729D01*
X0319606Y0067767D02*
X0316535Y0067767D01*
X0316535Y0067805D02*
X0319606Y0067805D01*
X0319606Y0067843D02*
X0316535Y0067843D01*
X0316535Y0067881D02*
X0319606Y0067881D01*
X0319606Y0067919D02*
X0316535Y0067919D01*
X0316535Y0067956D02*
X0319606Y0067956D01*
X0319606Y0067994D02*
X0316535Y0067994D01*
X0316535Y0068032D02*
X0319606Y0068032D01*
X0319606Y0068070D02*
X0316535Y0068070D01*
X0316535Y0068108D02*
X0319606Y0068108D01*
X0319606Y0068146D02*
X0316535Y0068146D01*
X0316535Y0068184D02*
X0319606Y0068184D01*
X0319606Y0068222D02*
X0316535Y0068222D01*
X0316535Y0068260D02*
X0319606Y0068260D01*
X0319606Y0068297D02*
X0316535Y0068297D01*
X0316535Y0068335D02*
X0319606Y0068335D01*
X0319606Y0068373D02*
X0316535Y0068373D01*
X0316535Y0068411D02*
X0319606Y0068411D01*
X0319606Y0069449D02*
X0316535Y0069449D01*
X0316535Y0070394D01*
X0319606Y0070394D01*
X0319606Y0069449D01*
X0319606Y0069472D02*
X0316535Y0069472D01*
X0316535Y0069510D02*
X0319606Y0069510D01*
X0319606Y0069547D02*
X0316535Y0069547D01*
X0316535Y0069585D02*
X0319606Y0069585D01*
X0319606Y0069623D02*
X0316535Y0069623D01*
X0316535Y0069661D02*
X0319606Y0069661D01*
X0319606Y0069699D02*
X0316535Y0069699D01*
X0316535Y0069737D02*
X0319606Y0069737D01*
X0319606Y0069775D02*
X0316535Y0069775D01*
X0316535Y0069813D02*
X0319606Y0069813D01*
X0319606Y0069851D02*
X0316535Y0069851D01*
X0316535Y0069888D02*
X0319606Y0069888D01*
X0319606Y0069926D02*
X0316535Y0069926D01*
X0316535Y0069964D02*
X0319606Y0069964D01*
X0319606Y0070002D02*
X0316535Y0070002D01*
X0316535Y0070040D02*
X0319606Y0070040D01*
X0319606Y0070078D02*
X0316535Y0070078D01*
X0316535Y0070116D02*
X0319606Y0070116D01*
X0319606Y0070154D02*
X0316535Y0070154D01*
X0316535Y0070191D02*
X0319606Y0070191D01*
X0319606Y0070229D02*
X0316535Y0070229D01*
X0316535Y0070267D02*
X0319606Y0070267D01*
X0319606Y0070305D02*
X0316535Y0070305D01*
X0316535Y0070343D02*
X0319606Y0070343D01*
X0319606Y0070381D02*
X0316535Y0070381D01*
X0315394Y0071535D02*
X0314449Y0071535D01*
X0314449Y0074606D01*
X0315394Y0074606D01*
X0315394Y0071535D01*
X0315394Y0071555D02*
X0314449Y0071555D01*
X0314449Y0071593D02*
X0315394Y0071593D01*
X0315394Y0071631D02*
X0314449Y0071631D01*
X0314449Y0071669D02*
X0315394Y0071669D01*
X0315394Y0071707D02*
X0314449Y0071707D01*
X0314449Y0071745D02*
X0315394Y0071745D01*
X0315394Y0071782D02*
X0314449Y0071782D01*
X0314449Y0071820D02*
X0315394Y0071820D01*
X0315394Y0071858D02*
X0314449Y0071858D01*
X0314449Y0071896D02*
X0315394Y0071896D01*
X0315394Y0071934D02*
X0314449Y0071934D01*
X0314449Y0071972D02*
X0315394Y0071972D01*
X0315394Y0072010D02*
X0314449Y0072010D01*
X0314449Y0072048D02*
X0315394Y0072048D01*
X0315394Y0072086D02*
X0314449Y0072086D01*
X0314449Y0072123D02*
X0315394Y0072123D01*
X0315394Y0072161D02*
X0314449Y0072161D01*
X0314449Y0072199D02*
X0315394Y0072199D01*
X0315394Y0072237D02*
X0314449Y0072237D01*
X0314449Y0072275D02*
X0315394Y0072275D01*
X0315394Y0072313D02*
X0314449Y0072313D01*
X0314449Y0072351D02*
X0315394Y0072351D01*
X0315394Y0072389D02*
X0314449Y0072389D01*
X0314449Y0072426D02*
X0315394Y0072426D01*
X0315394Y0072464D02*
X0314449Y0072464D01*
X0314449Y0072502D02*
X0315394Y0072502D01*
X0315394Y0072540D02*
X0314449Y0072540D01*
X0314449Y0072578D02*
X0315394Y0072578D01*
X0315394Y0072616D02*
X0314449Y0072616D01*
X0314449Y0072654D02*
X0315394Y0072654D01*
X0315394Y0072692D02*
X0314449Y0072692D01*
X0314449Y0072730D02*
X0315394Y0072730D01*
X0315394Y0072767D02*
X0314449Y0072767D01*
X0314449Y0072805D02*
X0315394Y0072805D01*
X0315394Y0072843D02*
X0314449Y0072843D01*
X0314449Y0072881D02*
X0315394Y0072881D01*
X0315394Y0072919D02*
X0314449Y0072919D01*
X0314449Y0072957D02*
X0315394Y0072957D01*
X0315394Y0072995D02*
X0314449Y0072995D01*
X0314449Y0073033D02*
X0315394Y0073033D01*
X0315394Y0073070D02*
X0314449Y0073070D01*
X0314449Y0073108D02*
X0315394Y0073108D01*
X0315394Y0073146D02*
X0314449Y0073146D01*
X0314449Y0073184D02*
X0315394Y0073184D01*
X0315394Y0073222D02*
X0314449Y0073222D01*
X0314449Y0073260D02*
X0315394Y0073260D01*
X0315394Y0073298D02*
X0314449Y0073298D01*
X0314449Y0073336D02*
X0315394Y0073336D01*
X0315394Y0073374D02*
X0314449Y0073374D01*
X0314449Y0073411D02*
X0315394Y0073411D01*
X0315394Y0073449D02*
X0314449Y0073449D01*
X0314449Y0073487D02*
X0315394Y0073487D01*
X0315394Y0073525D02*
X0314449Y0073525D01*
X0314449Y0073563D02*
X0315394Y0073563D01*
X0315394Y0073601D02*
X0314449Y0073601D01*
X0314449Y0073639D02*
X0315394Y0073639D01*
X0315394Y0073677D02*
X0314449Y0073677D01*
X0314449Y0073714D02*
X0315394Y0073714D01*
X0315394Y0073752D02*
X0314449Y0073752D01*
X0314449Y0073790D02*
X0315394Y0073790D01*
X0315394Y0073828D02*
X0314449Y0073828D01*
X0314449Y0073866D02*
X0315394Y0073866D01*
X0315394Y0073904D02*
X0314449Y0073904D01*
X0314449Y0073942D02*
X0315394Y0073942D01*
X0315394Y0073980D02*
X0314449Y0073980D01*
X0314449Y0074017D02*
X0315394Y0074017D01*
X0315394Y0074055D02*
X0314449Y0074055D01*
X0314449Y0074093D02*
X0315394Y0074093D01*
X0315394Y0074131D02*
X0314449Y0074131D01*
X0314449Y0074169D02*
X0315394Y0074169D01*
X0315394Y0074207D02*
X0314449Y0074207D01*
X0314449Y0074245D02*
X0315394Y0074245D01*
X0315394Y0074283D02*
X0314449Y0074283D01*
X0314449Y0074321D02*
X0315394Y0074321D01*
X0315394Y0074358D02*
X0314449Y0074358D01*
X0314449Y0074396D02*
X0315394Y0074396D01*
X0315394Y0074434D02*
X0314449Y0074434D01*
X0314449Y0074472D02*
X0315394Y0074472D01*
X0315394Y0074510D02*
X0314449Y0074510D01*
X0314449Y0074548D02*
X0315394Y0074548D01*
X0315394Y0074586D02*
X0314449Y0074586D01*
X0313425Y0074586D02*
X0312480Y0074586D01*
X0312480Y0074606D02*
X0312480Y0071535D01*
X0313425Y0071535D01*
X0313425Y0074606D01*
X0312480Y0074606D01*
X0312480Y0074548D02*
X0313425Y0074548D01*
X0313425Y0074510D02*
X0312480Y0074510D01*
X0312480Y0074472D02*
X0313425Y0074472D01*
X0313425Y0074434D02*
X0312480Y0074434D01*
X0312480Y0074396D02*
X0313425Y0074396D01*
X0313425Y0074358D02*
X0312480Y0074358D01*
X0312480Y0074321D02*
X0313425Y0074321D01*
X0313425Y0074283D02*
X0312480Y0074283D01*
X0312480Y0074245D02*
X0313425Y0074245D01*
X0313425Y0074207D02*
X0312480Y0074207D01*
X0312480Y0074169D02*
X0313425Y0074169D01*
X0313425Y0074131D02*
X0312480Y0074131D01*
X0312480Y0074093D02*
X0313425Y0074093D01*
X0313425Y0074055D02*
X0312480Y0074055D01*
X0312480Y0074017D02*
X0313425Y0074017D01*
X0313425Y0073980D02*
X0312480Y0073980D01*
X0312480Y0073942D02*
X0313425Y0073942D01*
X0313425Y0073904D02*
X0312480Y0073904D01*
X0312480Y0073866D02*
X0313425Y0073866D01*
X0313425Y0073828D02*
X0312480Y0073828D01*
X0312480Y0073790D02*
X0313425Y0073790D01*
X0313425Y0073752D02*
X0312480Y0073752D01*
X0312480Y0073714D02*
X0313425Y0073714D01*
X0313425Y0073677D02*
X0312480Y0073677D01*
X0312480Y0073639D02*
X0313425Y0073639D01*
X0313425Y0073601D02*
X0312480Y0073601D01*
X0312480Y0073563D02*
X0313425Y0073563D01*
X0313425Y0073525D02*
X0312480Y0073525D01*
X0312480Y0073487D02*
X0313425Y0073487D01*
X0313425Y0073449D02*
X0312480Y0073449D01*
X0312480Y0073411D02*
X0313425Y0073411D01*
X0313425Y0073374D02*
X0312480Y0073374D01*
X0312480Y0073336D02*
X0313425Y0073336D01*
X0313425Y0073298D02*
X0312480Y0073298D01*
X0312480Y0073260D02*
X0313425Y0073260D01*
X0313425Y0073222D02*
X0312480Y0073222D01*
X0312480Y0073184D02*
X0313425Y0073184D01*
X0313425Y0073146D02*
X0312480Y0073146D01*
X0312480Y0073108D02*
X0313425Y0073108D01*
X0313425Y0073070D02*
X0312480Y0073070D01*
X0312480Y0073033D02*
X0313425Y0073033D01*
X0313425Y0072995D02*
X0312480Y0072995D01*
X0312480Y0072957D02*
X0313425Y0072957D01*
X0313425Y0072919D02*
X0312480Y0072919D01*
X0312480Y0072881D02*
X0313425Y0072881D01*
X0313425Y0072843D02*
X0312480Y0072843D01*
X0312480Y0072805D02*
X0313425Y0072805D01*
X0313425Y0072767D02*
X0312480Y0072767D01*
X0312480Y0072730D02*
X0313425Y0072730D01*
X0313425Y0072692D02*
X0312480Y0072692D01*
X0312480Y0072654D02*
X0313425Y0072654D01*
X0313425Y0072616D02*
X0312480Y0072616D01*
X0312480Y0072578D02*
X0313425Y0072578D01*
X0313425Y0072540D02*
X0312480Y0072540D01*
X0312480Y0072502D02*
X0313425Y0072502D01*
X0313425Y0072464D02*
X0312480Y0072464D01*
X0312480Y0072426D02*
X0313425Y0072426D01*
X0313425Y0072389D02*
X0312480Y0072389D01*
X0312480Y0072351D02*
X0313425Y0072351D01*
X0313425Y0072313D02*
X0312480Y0072313D01*
X0312480Y0072275D02*
X0313425Y0072275D01*
X0313425Y0072237D02*
X0312480Y0072237D01*
X0312480Y0072199D02*
X0313425Y0072199D01*
X0313425Y0072161D02*
X0312480Y0072161D01*
X0312480Y0072123D02*
X0313425Y0072123D01*
X0313425Y0072086D02*
X0312480Y0072086D01*
X0312480Y0072048D02*
X0313425Y0072048D01*
X0313425Y0072010D02*
X0312480Y0072010D01*
X0312480Y0071972D02*
X0313425Y0071972D01*
X0313425Y0071934D02*
X0312480Y0071934D01*
X0312480Y0071896D02*
X0313425Y0071896D01*
X0313425Y0071858D02*
X0312480Y0071858D01*
X0312480Y0071820D02*
X0313425Y0071820D01*
X0313425Y0071782D02*
X0312480Y0071782D01*
X0312480Y0071745D02*
X0313425Y0071745D01*
X0313425Y0071707D02*
X0312480Y0071707D01*
X0312480Y0071669D02*
X0313425Y0071669D01*
X0313425Y0071631D02*
X0312480Y0071631D01*
X0312480Y0071593D02*
X0313425Y0071593D01*
X0313425Y0071555D02*
X0312480Y0071555D01*
X0311457Y0071555D02*
X0310512Y0071555D01*
X0310512Y0071535D02*
X0310512Y0074606D01*
X0311457Y0074606D01*
X0311457Y0071535D01*
X0310512Y0071535D01*
X0310512Y0071593D02*
X0311457Y0071593D01*
X0311457Y0071631D02*
X0310512Y0071631D01*
X0310512Y0071669D02*
X0311457Y0071669D01*
X0311457Y0071707D02*
X0310512Y0071707D01*
X0310512Y0071745D02*
X0311457Y0071745D01*
X0311457Y0071782D02*
X0310512Y0071782D01*
X0310512Y0071820D02*
X0311457Y0071820D01*
X0311457Y0071858D02*
X0310512Y0071858D01*
X0310512Y0071896D02*
X0311457Y0071896D01*
X0311457Y0071934D02*
X0310512Y0071934D01*
X0310512Y0071972D02*
X0311457Y0071972D01*
X0311457Y0072010D02*
X0310512Y0072010D01*
X0310512Y0072048D02*
X0311457Y0072048D01*
X0311457Y0072086D02*
X0310512Y0072086D01*
X0310512Y0072123D02*
X0311457Y0072123D01*
X0311457Y0072161D02*
X0310512Y0072161D01*
X0310512Y0072199D02*
X0311457Y0072199D01*
X0311457Y0072237D02*
X0310512Y0072237D01*
X0310512Y0072275D02*
X0311457Y0072275D01*
X0311457Y0072313D02*
X0310512Y0072313D01*
X0310512Y0072351D02*
X0311457Y0072351D01*
X0311457Y0072389D02*
X0310512Y0072389D01*
X0310512Y0072426D02*
X0311457Y0072426D01*
X0311457Y0072464D02*
X0310512Y0072464D01*
X0310512Y0072502D02*
X0311457Y0072502D01*
X0311457Y0072540D02*
X0310512Y0072540D01*
X0310512Y0072578D02*
X0311457Y0072578D01*
X0311457Y0072616D02*
X0310512Y0072616D01*
X0310512Y0072654D02*
X0311457Y0072654D01*
X0311457Y0072692D02*
X0310512Y0072692D01*
X0310512Y0072730D02*
X0311457Y0072730D01*
X0311457Y0072767D02*
X0310512Y0072767D01*
X0310512Y0072805D02*
X0311457Y0072805D01*
X0311457Y0072843D02*
X0310512Y0072843D01*
X0310512Y0072881D02*
X0311457Y0072881D01*
X0311457Y0072919D02*
X0310512Y0072919D01*
X0310512Y0072957D02*
X0311457Y0072957D01*
X0311457Y0072995D02*
X0310512Y0072995D01*
X0310512Y0073033D02*
X0311457Y0073033D01*
X0311457Y0073070D02*
X0310512Y0073070D01*
X0310512Y0073108D02*
X0311457Y0073108D01*
X0311457Y0073146D02*
X0310512Y0073146D01*
X0310512Y0073184D02*
X0311457Y0073184D01*
X0311457Y0073222D02*
X0310512Y0073222D01*
X0310512Y0073260D02*
X0311457Y0073260D01*
X0311457Y0073298D02*
X0310512Y0073298D01*
X0310512Y0073336D02*
X0311457Y0073336D01*
X0311457Y0073374D02*
X0310512Y0073374D01*
X0310512Y0073411D02*
X0311457Y0073411D01*
X0311457Y0073449D02*
X0310512Y0073449D01*
X0310512Y0073487D02*
X0311457Y0073487D01*
X0311457Y0073525D02*
X0310512Y0073525D01*
X0310512Y0073563D02*
X0311457Y0073563D01*
X0311457Y0073601D02*
X0310512Y0073601D01*
X0310512Y0073639D02*
X0311457Y0073639D01*
X0311457Y0073677D02*
X0310512Y0073677D01*
X0310512Y0073714D02*
X0311457Y0073714D01*
X0311457Y0073752D02*
X0310512Y0073752D01*
X0310512Y0073790D02*
X0311457Y0073790D01*
X0311457Y0073828D02*
X0310512Y0073828D01*
X0310512Y0073866D02*
X0311457Y0073866D01*
X0311457Y0073904D02*
X0310512Y0073904D01*
X0310512Y0073942D02*
X0311457Y0073942D01*
X0311457Y0073980D02*
X0310512Y0073980D01*
X0310512Y0074017D02*
X0311457Y0074017D01*
X0311457Y0074055D02*
X0310512Y0074055D01*
X0310512Y0074093D02*
X0311457Y0074093D01*
X0311457Y0074131D02*
X0310512Y0074131D01*
X0310512Y0074169D02*
X0311457Y0074169D01*
X0311457Y0074207D02*
X0310512Y0074207D01*
X0310512Y0074245D02*
X0311457Y0074245D01*
X0311457Y0074283D02*
X0310512Y0074283D01*
X0310512Y0074321D02*
X0311457Y0074321D01*
X0311457Y0074358D02*
X0310512Y0074358D01*
X0310512Y0074396D02*
X0311457Y0074396D01*
X0311457Y0074434D02*
X0310512Y0074434D01*
X0310512Y0074472D02*
X0311457Y0074472D01*
X0311457Y0074510D02*
X0310512Y0074510D01*
X0310512Y0074548D02*
X0311457Y0074548D01*
X0311457Y0074586D02*
X0310512Y0074586D01*
X0309488Y0074586D02*
X0308543Y0074586D01*
X0308543Y0074606D02*
X0308543Y0071535D01*
X0309488Y0071535D01*
X0309488Y0074606D01*
X0308543Y0074606D01*
X0308543Y0074548D02*
X0309488Y0074548D01*
X0309488Y0074510D02*
X0308543Y0074510D01*
X0308543Y0074472D02*
X0309488Y0074472D01*
X0309488Y0074434D02*
X0308543Y0074434D01*
X0308543Y0074396D02*
X0309488Y0074396D01*
X0309488Y0074358D02*
X0308543Y0074358D01*
X0308543Y0074321D02*
X0309488Y0074321D01*
X0309488Y0074283D02*
X0308543Y0074283D01*
X0308543Y0074245D02*
X0309488Y0074245D01*
X0309488Y0074207D02*
X0308543Y0074207D01*
X0308543Y0074169D02*
X0309488Y0074169D01*
X0309488Y0074131D02*
X0308543Y0074131D01*
X0308543Y0074093D02*
X0309488Y0074093D01*
X0309488Y0074055D02*
X0308543Y0074055D01*
X0308543Y0074017D02*
X0309488Y0074017D01*
X0309488Y0073980D02*
X0308543Y0073980D01*
X0308543Y0073942D02*
X0309488Y0073942D01*
X0309488Y0073904D02*
X0308543Y0073904D01*
X0308543Y0073866D02*
X0309488Y0073866D01*
X0309488Y0073828D02*
X0308543Y0073828D01*
X0308543Y0073790D02*
X0309488Y0073790D01*
X0309488Y0073752D02*
X0308543Y0073752D01*
X0308543Y0073714D02*
X0309488Y0073714D01*
X0309488Y0073677D02*
X0308543Y0073677D01*
X0308543Y0073639D02*
X0309488Y0073639D01*
X0309488Y0073601D02*
X0308543Y0073601D01*
X0308543Y0073563D02*
X0309488Y0073563D01*
X0309488Y0073525D02*
X0308543Y0073525D01*
X0308543Y0073487D02*
X0309488Y0073487D01*
X0309488Y0073449D02*
X0308543Y0073449D01*
X0308543Y0073411D02*
X0309488Y0073411D01*
X0309488Y0073374D02*
X0308543Y0073374D01*
X0308543Y0073336D02*
X0309488Y0073336D01*
X0309488Y0073298D02*
X0308543Y0073298D01*
X0308543Y0073260D02*
X0309488Y0073260D01*
X0309488Y0073222D02*
X0308543Y0073222D01*
X0308543Y0073184D02*
X0309488Y0073184D01*
X0309488Y0073146D02*
X0308543Y0073146D01*
X0308543Y0073108D02*
X0309488Y0073108D01*
X0309488Y0073070D02*
X0308543Y0073070D01*
X0308543Y0073033D02*
X0309488Y0073033D01*
X0309488Y0072995D02*
X0308543Y0072995D01*
X0308543Y0072957D02*
X0309488Y0072957D01*
X0309488Y0072919D02*
X0308543Y0072919D01*
X0308543Y0072881D02*
X0309488Y0072881D01*
X0309488Y0072843D02*
X0308543Y0072843D01*
X0308543Y0072805D02*
X0309488Y0072805D01*
X0309488Y0072767D02*
X0308543Y0072767D01*
X0308543Y0072730D02*
X0309488Y0072730D01*
X0309488Y0072692D02*
X0308543Y0072692D01*
X0308543Y0072654D02*
X0309488Y0072654D01*
X0309488Y0072616D02*
X0308543Y0072616D01*
X0308543Y0072578D02*
X0309488Y0072578D01*
X0309488Y0072540D02*
X0308543Y0072540D01*
X0308543Y0072502D02*
X0309488Y0072502D01*
X0309488Y0072464D02*
X0308543Y0072464D01*
X0308543Y0072426D02*
X0309488Y0072426D01*
X0309488Y0072389D02*
X0308543Y0072389D01*
X0308543Y0072351D02*
X0309488Y0072351D01*
X0309488Y0072313D02*
X0308543Y0072313D01*
X0308543Y0072275D02*
X0309488Y0072275D01*
X0309488Y0072237D02*
X0308543Y0072237D01*
X0308543Y0072199D02*
X0309488Y0072199D01*
X0309488Y0072161D02*
X0308543Y0072161D01*
X0308543Y0072123D02*
X0309488Y0072123D01*
X0309488Y0072086D02*
X0308543Y0072086D01*
X0308543Y0072048D02*
X0309488Y0072048D01*
X0309488Y0072010D02*
X0308543Y0072010D01*
X0308543Y0071972D02*
X0309488Y0071972D01*
X0309488Y0071934D02*
X0308543Y0071934D01*
X0308543Y0071896D02*
X0309488Y0071896D01*
X0309488Y0071858D02*
X0308543Y0071858D01*
X0308543Y0071820D02*
X0309488Y0071820D01*
X0309488Y0071782D02*
X0308543Y0071782D01*
X0308543Y0071745D02*
X0309488Y0071745D01*
X0309488Y0071707D02*
X0308543Y0071707D01*
X0308543Y0071669D02*
X0309488Y0071669D01*
X0309488Y0071631D02*
X0308543Y0071631D01*
X0308543Y0071593D02*
X0309488Y0071593D01*
X0309488Y0071555D02*
X0308543Y0071555D01*
X0307520Y0071555D02*
X0306575Y0071555D01*
X0306575Y0071535D02*
X0306575Y0074606D01*
X0307520Y0074606D01*
X0307520Y0071535D01*
X0306575Y0071535D01*
X0306575Y0071593D02*
X0307520Y0071593D01*
X0307520Y0071631D02*
X0306575Y0071631D01*
X0306575Y0071669D02*
X0307520Y0071669D01*
X0307520Y0071707D02*
X0306575Y0071707D01*
X0306575Y0071745D02*
X0307520Y0071745D01*
X0307520Y0071782D02*
X0306575Y0071782D01*
X0306575Y0071820D02*
X0307520Y0071820D01*
X0307520Y0071858D02*
X0306575Y0071858D01*
X0306575Y0071896D02*
X0307520Y0071896D01*
X0307520Y0071934D02*
X0306575Y0071934D01*
X0306575Y0071972D02*
X0307520Y0071972D01*
X0307520Y0072010D02*
X0306575Y0072010D01*
X0306575Y0072048D02*
X0307520Y0072048D01*
X0307520Y0072086D02*
X0306575Y0072086D01*
X0306575Y0072123D02*
X0307520Y0072123D01*
X0307520Y0072161D02*
X0306575Y0072161D01*
X0306575Y0072199D02*
X0307520Y0072199D01*
X0307520Y0072237D02*
X0306575Y0072237D01*
X0306575Y0072275D02*
X0307520Y0072275D01*
X0307520Y0072313D02*
X0306575Y0072313D01*
X0306575Y0072351D02*
X0307520Y0072351D01*
X0307520Y0072389D02*
X0306575Y0072389D01*
X0306575Y0072426D02*
X0307520Y0072426D01*
X0307520Y0072464D02*
X0306575Y0072464D01*
X0306575Y0072502D02*
X0307520Y0072502D01*
X0307520Y0072540D02*
X0306575Y0072540D01*
X0306575Y0072578D02*
X0307520Y0072578D01*
X0307520Y0072616D02*
X0306575Y0072616D01*
X0306575Y0072654D02*
X0307520Y0072654D01*
X0307520Y0072692D02*
X0306575Y0072692D01*
X0306575Y0072730D02*
X0307520Y0072730D01*
X0307520Y0072767D02*
X0306575Y0072767D01*
X0306575Y0072805D02*
X0307520Y0072805D01*
X0307520Y0072843D02*
X0306575Y0072843D01*
X0306575Y0072881D02*
X0307520Y0072881D01*
X0307520Y0072919D02*
X0306575Y0072919D01*
X0306575Y0072957D02*
X0307520Y0072957D01*
X0307520Y0072995D02*
X0306575Y0072995D01*
X0306575Y0073033D02*
X0307520Y0073033D01*
X0307520Y0073070D02*
X0306575Y0073070D01*
X0306575Y0073108D02*
X0307520Y0073108D01*
X0307520Y0073146D02*
X0306575Y0073146D01*
X0306575Y0073184D02*
X0307520Y0073184D01*
X0307520Y0073222D02*
X0306575Y0073222D01*
X0306575Y0073260D02*
X0307520Y0073260D01*
X0307520Y0073298D02*
X0306575Y0073298D01*
X0306575Y0073336D02*
X0307520Y0073336D01*
X0307520Y0073374D02*
X0306575Y0073374D01*
X0306575Y0073411D02*
X0307520Y0073411D01*
X0307520Y0073449D02*
X0306575Y0073449D01*
X0306575Y0073487D02*
X0307520Y0073487D01*
X0307520Y0073525D02*
X0306575Y0073525D01*
X0306575Y0073563D02*
X0307520Y0073563D01*
X0307520Y0073601D02*
X0306575Y0073601D01*
X0306575Y0073639D02*
X0307520Y0073639D01*
X0307520Y0073677D02*
X0306575Y0073677D01*
X0306575Y0073714D02*
X0307520Y0073714D01*
X0307520Y0073752D02*
X0306575Y0073752D01*
X0306575Y0073790D02*
X0307520Y0073790D01*
X0307520Y0073828D02*
X0306575Y0073828D01*
X0306575Y0073866D02*
X0307520Y0073866D01*
X0307520Y0073904D02*
X0306575Y0073904D01*
X0306575Y0073942D02*
X0307520Y0073942D01*
X0307520Y0073980D02*
X0306575Y0073980D01*
X0306575Y0074017D02*
X0307520Y0074017D01*
X0307520Y0074055D02*
X0306575Y0074055D01*
X0306575Y0074093D02*
X0307520Y0074093D01*
X0307520Y0074131D02*
X0306575Y0074131D01*
X0306575Y0074169D02*
X0307520Y0074169D01*
X0307520Y0074207D02*
X0306575Y0074207D01*
X0306575Y0074245D02*
X0307520Y0074245D01*
X0307520Y0074283D02*
X0306575Y0074283D01*
X0306575Y0074321D02*
X0307520Y0074321D01*
X0307520Y0074358D02*
X0306575Y0074358D01*
X0306575Y0074396D02*
X0307520Y0074396D01*
X0307520Y0074434D02*
X0306575Y0074434D01*
X0306575Y0074472D02*
X0307520Y0074472D01*
X0307520Y0074510D02*
X0306575Y0074510D01*
X0306575Y0074548D02*
X0307520Y0074548D01*
X0307520Y0074586D02*
X0306575Y0074586D01*
X0305551Y0074586D02*
X0304606Y0074586D01*
X0304606Y0074606D02*
X0304606Y0071535D01*
X0305551Y0071535D01*
X0305551Y0074606D01*
X0304606Y0074606D01*
X0304606Y0074548D02*
X0305551Y0074548D01*
X0305551Y0074510D02*
X0304606Y0074510D01*
X0304606Y0074472D02*
X0305551Y0074472D01*
X0305551Y0074434D02*
X0304606Y0074434D01*
X0304606Y0074396D02*
X0305551Y0074396D01*
X0305551Y0074358D02*
X0304606Y0074358D01*
X0304606Y0074321D02*
X0305551Y0074321D01*
X0305551Y0074283D02*
X0304606Y0074283D01*
X0304606Y0074245D02*
X0305551Y0074245D01*
X0305551Y0074207D02*
X0304606Y0074207D01*
X0304606Y0074169D02*
X0305551Y0074169D01*
X0305551Y0074131D02*
X0304606Y0074131D01*
X0304606Y0074093D02*
X0305551Y0074093D01*
X0305551Y0074055D02*
X0304606Y0074055D01*
X0304606Y0074017D02*
X0305551Y0074017D01*
X0305551Y0073980D02*
X0304606Y0073980D01*
X0304606Y0073942D02*
X0305551Y0073942D01*
X0305551Y0073904D02*
X0304606Y0073904D01*
X0304606Y0073866D02*
X0305551Y0073866D01*
X0305551Y0073828D02*
X0304606Y0073828D01*
X0304606Y0073790D02*
X0305551Y0073790D01*
X0305551Y0073752D02*
X0304606Y0073752D01*
X0304606Y0073714D02*
X0305551Y0073714D01*
X0305551Y0073677D02*
X0304606Y0073677D01*
X0304606Y0073639D02*
X0305551Y0073639D01*
X0305551Y0073601D02*
X0304606Y0073601D01*
X0304606Y0073563D02*
X0305551Y0073563D01*
X0305551Y0073525D02*
X0304606Y0073525D01*
X0304606Y0073487D02*
X0305551Y0073487D01*
X0305551Y0073449D02*
X0304606Y0073449D01*
X0304606Y0073411D02*
X0305551Y0073411D01*
X0305551Y0073374D02*
X0304606Y0073374D01*
X0304606Y0073336D02*
X0305551Y0073336D01*
X0305551Y0073298D02*
X0304606Y0073298D01*
X0304606Y0073260D02*
X0305551Y0073260D01*
X0305551Y0073222D02*
X0304606Y0073222D01*
X0304606Y0073184D02*
X0305551Y0073184D01*
X0305551Y0073146D02*
X0304606Y0073146D01*
X0304606Y0073108D02*
X0305551Y0073108D01*
X0305551Y0073070D02*
X0304606Y0073070D01*
X0304606Y0073033D02*
X0305551Y0073033D01*
X0305551Y0072995D02*
X0304606Y0072995D01*
X0304606Y0072957D02*
X0305551Y0072957D01*
X0305551Y0072919D02*
X0304606Y0072919D01*
X0304606Y0072881D02*
X0305551Y0072881D01*
X0305551Y0072843D02*
X0304606Y0072843D01*
X0304606Y0072805D02*
X0305551Y0072805D01*
X0305551Y0072767D02*
X0304606Y0072767D01*
X0304606Y0072730D02*
X0305551Y0072730D01*
X0305551Y0072692D02*
X0304606Y0072692D01*
X0304606Y0072654D02*
X0305551Y0072654D01*
X0305551Y0072616D02*
X0304606Y0072616D01*
X0304606Y0072578D02*
X0305551Y0072578D01*
X0305551Y0072540D02*
X0304606Y0072540D01*
X0304606Y0072502D02*
X0305551Y0072502D01*
X0305551Y0072464D02*
X0304606Y0072464D01*
X0304606Y0072426D02*
X0305551Y0072426D01*
X0305551Y0072389D02*
X0304606Y0072389D01*
X0304606Y0072351D02*
X0305551Y0072351D01*
X0305551Y0072313D02*
X0304606Y0072313D01*
X0304606Y0072275D02*
X0305551Y0072275D01*
X0305551Y0072237D02*
X0304606Y0072237D01*
X0304606Y0072199D02*
X0305551Y0072199D01*
X0305551Y0072161D02*
X0304606Y0072161D01*
X0304606Y0072123D02*
X0305551Y0072123D01*
X0305551Y0072086D02*
X0304606Y0072086D01*
X0304606Y0072048D02*
X0305551Y0072048D01*
X0305551Y0072010D02*
X0304606Y0072010D01*
X0304606Y0071972D02*
X0305551Y0071972D01*
X0305551Y0071934D02*
X0304606Y0071934D01*
X0304606Y0071896D02*
X0305551Y0071896D01*
X0305551Y0071858D02*
X0304606Y0071858D01*
X0304606Y0071820D02*
X0305551Y0071820D01*
X0305551Y0071782D02*
X0304606Y0071782D01*
X0304606Y0071745D02*
X0305551Y0071745D01*
X0305551Y0071707D02*
X0304606Y0071707D01*
X0304606Y0071669D02*
X0305551Y0071669D01*
X0305551Y0071631D02*
X0304606Y0071631D01*
X0304606Y0071593D02*
X0305551Y0071593D01*
X0305551Y0071555D02*
X0304606Y0071555D01*
X0242488Y0110578D02*
X0242103Y0110353D01*
X0241682Y0110207D01*
X0241240Y0110146D01*
X0236516Y0110146D01*
X0236017Y0110226D01*
X0235549Y0110416D01*
X0235134Y0110705D01*
X0234794Y0111079D01*
X0234546Y0111519D01*
X0234402Y0112004D01*
X0234370Y0112508D01*
X0234402Y0113012D01*
X0234546Y0113497D01*
X0234794Y0113937D01*
X0235134Y0114311D01*
X0235549Y0114600D01*
X0236017Y0114789D01*
X0236516Y0114870D01*
X0241240Y0114870D01*
X0241682Y0114809D01*
X0242103Y0114663D01*
X0242488Y0114438D01*
X0242822Y0114142D01*
X0243091Y0113786D01*
X0243286Y0113385D01*
X0243399Y0112953D01*
X0243425Y0112508D01*
X0243399Y0112063D01*
X0243286Y0111631D01*
X0243091Y0111230D01*
X0242822Y0110874D01*
X0242488Y0110578D01*
X0242480Y0110573D02*
X0235323Y0110573D01*
X0235269Y0110611D02*
X0242525Y0110611D01*
X0242568Y0110649D02*
X0235215Y0110649D01*
X0235160Y0110687D02*
X0242611Y0110687D01*
X0242653Y0110725D02*
X0235116Y0110725D01*
X0235082Y0110762D02*
X0242696Y0110762D01*
X0242739Y0110800D02*
X0235047Y0110800D01*
X0235013Y0110838D02*
X0242781Y0110838D01*
X0242823Y0110876D02*
X0234979Y0110876D01*
X0234944Y0110914D02*
X0242852Y0110914D01*
X0242881Y0110952D02*
X0234910Y0110952D01*
X0234875Y0110990D02*
X0242909Y0110990D01*
X0242938Y0111028D02*
X0234841Y0111028D01*
X0234807Y0111066D02*
X0242967Y0111066D01*
X0242995Y0111103D02*
X0234781Y0111103D01*
X0234759Y0111141D02*
X0243024Y0111141D01*
X0243053Y0111179D02*
X0234738Y0111179D01*
X0234717Y0111217D02*
X0243082Y0111217D01*
X0243103Y0111255D02*
X0234695Y0111255D01*
X0234674Y0111293D02*
X0243122Y0111293D01*
X0243140Y0111331D02*
X0234653Y0111331D01*
X0234631Y0111369D02*
X0243159Y0111369D01*
X0243177Y0111406D02*
X0234610Y0111406D01*
X0234588Y0111444D02*
X0243195Y0111444D01*
X0243214Y0111482D02*
X0234567Y0111482D01*
X0234546Y0111520D02*
X0243232Y0111520D01*
X0243251Y0111558D02*
X0234535Y0111558D01*
X0234524Y0111596D02*
X0243269Y0111596D01*
X0243287Y0111634D02*
X0234512Y0111634D01*
X0234501Y0111672D02*
X0243297Y0111672D01*
X0243307Y0111709D02*
X0234490Y0111709D01*
X0234479Y0111747D02*
X0243316Y0111747D01*
X0243326Y0111785D02*
X0234467Y0111785D01*
X0234456Y0111823D02*
X0243336Y0111823D01*
X0243346Y0111861D02*
X0234445Y0111861D01*
X0234434Y0111899D02*
X0243356Y0111899D01*
X0243366Y0111937D02*
X0234422Y0111937D01*
X0234411Y0111975D02*
X0243376Y0111975D01*
X0243386Y0112013D02*
X0234402Y0112013D01*
X0234399Y0112050D02*
X0243396Y0112050D01*
X0243400Y0112088D02*
X0234397Y0112088D01*
X0234395Y0112126D02*
X0243403Y0112126D01*
X0243405Y0112164D02*
X0234392Y0112164D01*
X0234390Y0112202D02*
X0243407Y0112202D01*
X0243409Y0112240D02*
X0234387Y0112240D01*
X0234385Y0112278D02*
X0243412Y0112278D01*
X0243414Y0112316D02*
X0234382Y0112316D01*
X0234380Y0112353D02*
X0243416Y0112353D01*
X0243418Y0112391D02*
X0234378Y0112391D01*
X0234375Y0112429D02*
X0243421Y0112429D01*
X0243423Y0112467D02*
X0234373Y0112467D01*
X0234370Y0112505D02*
X0243425Y0112505D01*
X0243423Y0112543D02*
X0234372Y0112543D01*
X0234375Y0112581D02*
X0243421Y0112581D01*
X0243419Y0112619D02*
X0234377Y0112619D01*
X0234380Y0112657D02*
X0243416Y0112657D01*
X0243414Y0112694D02*
X0234382Y0112694D01*
X0234384Y0112732D02*
X0243412Y0112732D01*
X0243410Y0112770D02*
X0234387Y0112770D01*
X0234389Y0112808D02*
X0243407Y0112808D01*
X0243405Y0112846D02*
X0234392Y0112846D01*
X0234394Y0112884D02*
X0243403Y0112884D01*
X0243401Y0112922D02*
X0234397Y0112922D01*
X0234399Y0112960D02*
X0243397Y0112960D01*
X0243387Y0112997D02*
X0234402Y0112997D01*
X0234409Y0113035D02*
X0243377Y0113035D01*
X0243367Y0113073D02*
X0234421Y0113073D01*
X0234432Y0113111D02*
X0243358Y0113111D01*
X0243348Y0113149D02*
X0234443Y0113149D01*
X0234454Y0113187D02*
X0243338Y0113187D01*
X0243328Y0113225D02*
X0234466Y0113225D01*
X0234477Y0113263D02*
X0243318Y0113263D01*
X0243308Y0113301D02*
X0234488Y0113301D01*
X0234499Y0113338D02*
X0243298Y0113338D01*
X0243288Y0113376D02*
X0234511Y0113376D01*
X0234522Y0113414D02*
X0243272Y0113414D01*
X0243253Y0113452D02*
X0234533Y0113452D01*
X0234544Y0113490D02*
X0243235Y0113490D01*
X0243217Y0113528D02*
X0234564Y0113528D01*
X0234585Y0113566D02*
X0243198Y0113566D01*
X0243180Y0113604D02*
X0234607Y0113604D01*
X0234628Y0113641D02*
X0243161Y0113641D01*
X0243143Y0113679D02*
X0234649Y0113679D01*
X0234671Y0113717D02*
X0243125Y0113717D01*
X0243106Y0113755D02*
X0234692Y0113755D01*
X0234713Y0113793D02*
X0243086Y0113793D01*
X0243057Y0113831D02*
X0234735Y0113831D01*
X0234756Y0113869D02*
X0243029Y0113869D01*
X0243000Y0113907D02*
X0234777Y0113907D01*
X0234801Y0113944D02*
X0242971Y0113944D01*
X0242942Y0113982D02*
X0234836Y0113982D01*
X0234870Y0114020D02*
X0242914Y0114020D01*
X0242885Y0114058D02*
X0234905Y0114058D01*
X0234939Y0114096D02*
X0242856Y0114096D01*
X0242828Y0114134D02*
X0234973Y0114134D01*
X0235008Y0114172D02*
X0242788Y0114172D01*
X0242745Y0114210D02*
X0235042Y0114210D01*
X0235077Y0114248D02*
X0242703Y0114248D01*
X0242660Y0114285D02*
X0235111Y0114285D01*
X0235152Y0114323D02*
X0242617Y0114323D01*
X0242575Y0114361D02*
X0235206Y0114361D01*
X0235261Y0114399D02*
X0242532Y0114399D01*
X0242489Y0114437D02*
X0235315Y0114437D01*
X0235369Y0114475D02*
X0242425Y0114475D01*
X0242360Y0114513D02*
X0235424Y0114513D01*
X0235478Y0114551D02*
X0242296Y0114551D01*
X0242231Y0114588D02*
X0235532Y0114588D01*
X0235614Y0114626D02*
X0242166Y0114626D01*
X0242100Y0114664D02*
X0235707Y0114664D01*
X0235801Y0114702D02*
X0241991Y0114702D01*
X0241882Y0114740D02*
X0235895Y0114740D01*
X0235988Y0114778D02*
X0241772Y0114778D01*
X0241634Y0114816D02*
X0236180Y0114816D01*
X0236414Y0114854D02*
X0241359Y0114854D01*
X0242415Y0110535D02*
X0235377Y0110535D01*
X0235432Y0110497D02*
X0242350Y0110497D01*
X0242286Y0110459D02*
X0235486Y0110459D01*
X0235540Y0110422D02*
X0242221Y0110422D01*
X0242156Y0110384D02*
X0235628Y0110384D01*
X0235722Y0110346D02*
X0242084Y0110346D01*
X0241974Y0110308D02*
X0235815Y0110308D01*
X0235909Y0110270D02*
X0241865Y0110270D01*
X0241756Y0110232D02*
X0236002Y0110232D01*
X0236215Y0110194D02*
X0241592Y0110194D01*
X0241318Y0110156D02*
X0236450Y0110156D01*
X0225937Y0112045D02*
X0225800Y0111601D01*
X0225579Y0111192D01*
X0225283Y0110833D01*
X0224922Y0110540D01*
X0224511Y0110322D01*
X0224065Y0110189D01*
X0223602Y0110146D01*
X0221240Y0110146D01*
X0220781Y0110193D01*
X0220341Y0110328D01*
X0219935Y0110548D01*
X0219580Y0110842D01*
X0219289Y0111199D01*
X0219073Y0111607D01*
X0218941Y0112049D01*
X0218898Y0112508D01*
X0218954Y0113032D01*
X0219126Y0113530D01*
X0219405Y0113977D01*
X0219776Y0114351D01*
X0220220Y0114633D01*
X0220717Y0114809D01*
X0221240Y0114870D01*
X0223602Y0114870D01*
X0224130Y0114813D01*
X0224633Y0114639D01*
X0225083Y0114359D01*
X0225461Y0113985D01*
X0225745Y0113536D01*
X0225923Y0113035D01*
X0218956Y0113035D01*
X0218951Y0112997D02*
X0225927Y0112997D01*
X0225931Y0112960D02*
X0218947Y0112960D01*
X0218943Y0112922D02*
X0225936Y0112922D01*
X0225940Y0112884D02*
X0218938Y0112884D01*
X0218934Y0112846D02*
X0225945Y0112846D01*
X0225949Y0112808D02*
X0218930Y0112808D01*
X0218926Y0112770D02*
X0225954Y0112770D01*
X0225958Y0112732D02*
X0218922Y0112732D01*
X0218918Y0112694D02*
X0225962Y0112694D01*
X0225967Y0112657D02*
X0218914Y0112657D01*
X0218910Y0112619D02*
X0225971Y0112619D01*
X0225976Y0112581D02*
X0218906Y0112581D01*
X0218901Y0112543D02*
X0225980Y0112543D01*
X0225984Y0112508D02*
X0225937Y0112045D01*
X0225937Y0112050D02*
X0218941Y0112050D01*
X0218937Y0112088D02*
X0225941Y0112088D01*
X0225945Y0112126D02*
X0218934Y0112126D01*
X0218930Y0112164D02*
X0225949Y0112164D01*
X0225953Y0112202D02*
X0218926Y0112202D01*
X0218923Y0112240D02*
X0225957Y0112240D01*
X0225961Y0112278D02*
X0218919Y0112278D01*
X0218916Y0112316D02*
X0225965Y0112316D01*
X0225968Y0112353D02*
X0218912Y0112353D01*
X0218909Y0112391D02*
X0225972Y0112391D01*
X0225976Y0112429D02*
X0218905Y0112429D01*
X0218901Y0112467D02*
X0225980Y0112467D01*
X0225984Y0112505D02*
X0218898Y0112505D01*
X0218952Y0112013D02*
X0225927Y0112013D01*
X0225915Y0111975D02*
X0218963Y0111975D01*
X0218974Y0111937D02*
X0225903Y0111937D01*
X0225892Y0111899D02*
X0218986Y0111899D01*
X0218997Y0111861D02*
X0225880Y0111861D01*
X0225868Y0111823D02*
X0219008Y0111823D01*
X0219020Y0111785D02*
X0225857Y0111785D01*
X0225845Y0111747D02*
X0219031Y0111747D01*
X0219042Y0111709D02*
X0225833Y0111709D01*
X0225822Y0111672D02*
X0219054Y0111672D01*
X0219065Y0111634D02*
X0225810Y0111634D01*
X0225797Y0111596D02*
X0219079Y0111596D01*
X0219099Y0111558D02*
X0225777Y0111558D01*
X0225756Y0111520D02*
X0219119Y0111520D01*
X0219139Y0111482D02*
X0225736Y0111482D01*
X0225715Y0111444D02*
X0219159Y0111444D01*
X0219179Y0111406D02*
X0225695Y0111406D01*
X0225675Y0111369D02*
X0219199Y0111369D01*
X0219219Y0111331D02*
X0225654Y0111331D01*
X0225634Y0111293D02*
X0219239Y0111293D01*
X0219259Y0111255D02*
X0225613Y0111255D01*
X0225593Y0111217D02*
X0219279Y0111217D01*
X0219305Y0111179D02*
X0225569Y0111179D01*
X0225537Y0111141D02*
X0219336Y0111141D01*
X0219367Y0111103D02*
X0225506Y0111103D01*
X0225475Y0111066D02*
X0219398Y0111066D01*
X0219428Y0111028D02*
X0225443Y0111028D01*
X0225412Y0110990D02*
X0219459Y0110990D01*
X0219490Y0110952D02*
X0225381Y0110952D01*
X0225349Y0110914D02*
X0219521Y0110914D01*
X0219552Y0110876D02*
X0225318Y0110876D01*
X0225286Y0110838D02*
X0219584Y0110838D01*
X0219630Y0110800D02*
X0225242Y0110800D01*
X0225195Y0110762D02*
X0219675Y0110762D01*
X0219721Y0110725D02*
X0225149Y0110725D01*
X0225102Y0110687D02*
X0219767Y0110687D01*
X0219813Y0110649D02*
X0225056Y0110649D01*
X0225009Y0110611D02*
X0219858Y0110611D01*
X0219904Y0110573D02*
X0224963Y0110573D01*
X0224913Y0110535D02*
X0219958Y0110535D01*
X0220028Y0110497D02*
X0224841Y0110497D01*
X0224770Y0110459D02*
X0220098Y0110459D01*
X0220168Y0110422D02*
X0224698Y0110422D01*
X0224626Y0110384D02*
X0220239Y0110384D01*
X0220309Y0110346D02*
X0224555Y0110346D01*
X0224462Y0110308D02*
X0220408Y0110308D01*
X0220531Y0110270D02*
X0224335Y0110270D01*
X0224208Y0110232D02*
X0220654Y0110232D01*
X0220777Y0110194D02*
X0224082Y0110194D01*
X0223716Y0110156D02*
X0221136Y0110156D01*
X0225984Y0112508D02*
X0225923Y0113035D01*
X0225909Y0113073D02*
X0218969Y0113073D01*
X0218982Y0113111D02*
X0225896Y0113111D01*
X0225882Y0113149D02*
X0218995Y0113149D01*
X0219008Y0113187D02*
X0225869Y0113187D01*
X0225855Y0113225D02*
X0219021Y0113225D01*
X0219034Y0113263D02*
X0225842Y0113263D01*
X0225829Y0113301D02*
X0219047Y0113301D01*
X0219060Y0113338D02*
X0225815Y0113338D01*
X0225802Y0113376D02*
X0219073Y0113376D01*
X0219087Y0113414D02*
X0225788Y0113414D01*
X0225775Y0113452D02*
X0219100Y0113452D01*
X0219113Y0113490D02*
X0225761Y0113490D01*
X0225748Y0113528D02*
X0219126Y0113528D01*
X0219149Y0113566D02*
X0225726Y0113566D01*
X0225702Y0113604D02*
X0219172Y0113604D01*
X0219196Y0113641D02*
X0225678Y0113641D01*
X0225654Y0113679D02*
X0219220Y0113679D01*
X0219243Y0113717D02*
X0225630Y0113717D01*
X0225606Y0113755D02*
X0219267Y0113755D01*
X0219290Y0113793D02*
X0225582Y0113793D01*
X0225558Y0113831D02*
X0219314Y0113831D01*
X0219337Y0113869D02*
X0225534Y0113869D01*
X0225510Y0113907D02*
X0219361Y0113907D01*
X0219385Y0113944D02*
X0225486Y0113944D01*
X0225462Y0113982D02*
X0219410Y0113982D01*
X0219448Y0114020D02*
X0225425Y0114020D01*
X0225387Y0114058D02*
X0219485Y0114058D01*
X0219523Y0114096D02*
X0225348Y0114096D01*
X0225310Y0114134D02*
X0219561Y0114134D01*
X0219598Y0114172D02*
X0225272Y0114172D01*
X0225234Y0114210D02*
X0219636Y0114210D01*
X0219673Y0114248D02*
X0225196Y0114248D01*
X0225157Y0114285D02*
X0219711Y0114285D01*
X0219748Y0114323D02*
X0225119Y0114323D01*
X0225079Y0114361D02*
X0219792Y0114361D01*
X0219852Y0114399D02*
X0225019Y0114399D01*
X0224958Y0114437D02*
X0219912Y0114437D01*
X0219971Y0114475D02*
X0224897Y0114475D01*
X0224836Y0114513D02*
X0220031Y0114513D01*
X0220091Y0114551D02*
X0224775Y0114551D01*
X0224714Y0114588D02*
X0220151Y0114588D01*
X0220210Y0114626D02*
X0224654Y0114626D01*
X0224561Y0114664D02*
X0220309Y0114664D01*
X0220416Y0114702D02*
X0224451Y0114702D01*
X0224341Y0114740D02*
X0220523Y0114740D01*
X0220629Y0114778D02*
X0224232Y0114778D01*
X0224103Y0114816D02*
X0220776Y0114816D01*
X0221100Y0114854D02*
X0223754Y0114854D01*
D20*
X0306063Y0068937D02*
X0306063Y0065984D01*
X0309016Y0065984D01*
X0309016Y0068937D01*
X0306063Y0068937D01*
X0306063Y0068914D02*
X0309016Y0068914D01*
X0309016Y0068415D02*
X0306063Y0068415D01*
X0306063Y0067917D02*
X0309016Y0067917D01*
X0309016Y0067418D02*
X0306063Y0067418D01*
X0306063Y0066920D02*
X0309016Y0066920D01*
X0309016Y0066421D02*
X0306063Y0066421D01*
X0306063Y0064016D02*
X0309016Y0064016D01*
X0309016Y0061063D01*
X0306063Y0061063D01*
X0306063Y0064016D01*
X0306063Y0063929D02*
X0309016Y0063929D01*
X0309016Y0063430D02*
X0306063Y0063430D01*
X0306063Y0062932D02*
X0309016Y0062932D01*
X0309016Y0062433D02*
X0306063Y0062433D01*
X0306063Y0061934D02*
X0309016Y0061934D01*
X0309016Y0061436D02*
X0306063Y0061436D01*
X0310984Y0061436D02*
X0313937Y0061436D01*
X0313937Y0061063D02*
X0310984Y0061063D01*
X0310984Y0064016D01*
X0313937Y0064016D01*
X0313937Y0061063D01*
X0313937Y0061934D02*
X0310984Y0061934D01*
X0310984Y0062433D02*
X0313937Y0062433D01*
X0313937Y0062932D02*
X0310984Y0062932D01*
X0310984Y0063430D02*
X0313937Y0063430D01*
X0313937Y0063929D02*
X0310984Y0063929D01*
X0310984Y0065984D02*
X0313937Y0065984D01*
X0313937Y0068937D01*
X0310984Y0068937D01*
X0310984Y0065984D01*
X0310984Y0066421D02*
X0313937Y0066421D01*
X0313937Y0066920D02*
X0310984Y0066920D01*
X0310984Y0067418D02*
X0313937Y0067418D01*
X0313937Y0067917D02*
X0310984Y0067917D01*
X0310984Y0068415D02*
X0313937Y0068415D01*
X0313937Y0068914D02*
X0310984Y0068914D01*
D21*
X0243106Y0088610D03*
X0243106Y0090579D03*
X0243106Y0092547D03*
X0243106Y0094516D03*
X0243106Y0096484D03*
X0243106Y0098453D03*
X0243106Y0100421D03*
X0243106Y0102390D03*
D22*
X0243106Y0108197D03*
X0243106Y0082803D03*
D23*
X0243106Y0085854D03*
X0243106Y0105146D03*
D24*
X0259488Y0127205D03*
X0255157Y0152795D03*
X0239409Y0152795D03*
X0227598Y0152795D03*
D25*
X0280000Y0053543D03*
X0280000Y0046457D03*
D26*
X0458957Y0132429D03*
X0458957Y0135665D03*
X0462500Y0135665D03*
X0466043Y0135665D03*
X0466043Y0132429D03*
D27*
X0459894Y0127500D02*
X0459896Y0127602D01*
X0459902Y0127703D01*
X0459912Y0127804D01*
X0459926Y0127905D01*
X0459943Y0128005D01*
X0459965Y0128105D01*
X0459991Y0128203D01*
X0460020Y0128300D01*
X0460053Y0128397D01*
X0460090Y0128491D01*
X0460130Y0128585D01*
X0460175Y0128676D01*
X0460222Y0128766D01*
X0460273Y0128854D01*
X0460328Y0128940D01*
X0460386Y0129024D01*
X0460447Y0129105D01*
X0460511Y0129184D01*
X0460578Y0129260D01*
X0460648Y0129334D01*
X0460721Y0129405D01*
X0460797Y0129473D01*
X0460875Y0129537D01*
X0460956Y0129599D01*
X0461039Y0129658D01*
X0461124Y0129713D01*
X0461212Y0129765D01*
X0461301Y0129814D01*
X0461392Y0129859D01*
X0461485Y0129900D01*
X0461580Y0129938D01*
X0461675Y0129972D01*
X0461772Y0130002D01*
X0461871Y0130029D01*
X0461970Y0130051D01*
X0462070Y0130070D01*
X0462170Y0130085D01*
X0462271Y0130096D01*
X0462373Y0130103D01*
X0462475Y0130106D01*
X0462576Y0130105D01*
X0462678Y0130100D01*
X0462779Y0130091D01*
X0462880Y0130078D01*
X0462980Y0130061D01*
X0463080Y0130041D01*
X0463179Y0130016D01*
X0463276Y0129988D01*
X0463373Y0129956D01*
X0463468Y0129920D01*
X0463562Y0129880D01*
X0463654Y0129837D01*
X0463744Y0129790D01*
X0463832Y0129740D01*
X0463919Y0129686D01*
X0464003Y0129629D01*
X0464085Y0129569D01*
X0464164Y0129505D01*
X0464241Y0129439D01*
X0464316Y0129369D01*
X0464387Y0129297D01*
X0464456Y0129222D01*
X0464522Y0129145D01*
X0464584Y0129064D01*
X0464644Y0128982D01*
X0464700Y0128897D01*
X0464753Y0128810D01*
X0464802Y0128721D01*
X0464848Y0128631D01*
X0464890Y0128538D01*
X0464929Y0128444D01*
X0464964Y0128349D01*
X0464995Y0128252D01*
X0465023Y0128154D01*
X0465046Y0128055D01*
X0465066Y0127955D01*
X0465082Y0127855D01*
X0465094Y0127754D01*
X0465102Y0127652D01*
X0465106Y0127551D01*
X0465106Y0127449D01*
X0465102Y0127348D01*
X0465094Y0127246D01*
X0465082Y0127145D01*
X0465066Y0127045D01*
X0465046Y0126945D01*
X0465023Y0126846D01*
X0464995Y0126748D01*
X0464964Y0126651D01*
X0464929Y0126556D01*
X0464890Y0126462D01*
X0464848Y0126369D01*
X0464802Y0126279D01*
X0464753Y0126190D01*
X0464700Y0126103D01*
X0464644Y0126018D01*
X0464584Y0125936D01*
X0464522Y0125855D01*
X0464456Y0125778D01*
X0464387Y0125703D01*
X0464316Y0125631D01*
X0464241Y0125561D01*
X0464164Y0125495D01*
X0464085Y0125431D01*
X0464003Y0125371D01*
X0463919Y0125314D01*
X0463832Y0125260D01*
X0463744Y0125210D01*
X0463654Y0125163D01*
X0463562Y0125120D01*
X0463468Y0125080D01*
X0463373Y0125044D01*
X0463276Y0125012D01*
X0463179Y0124984D01*
X0463080Y0124959D01*
X0462980Y0124939D01*
X0462880Y0124922D01*
X0462779Y0124909D01*
X0462678Y0124900D01*
X0462576Y0124895D01*
X0462475Y0124894D01*
X0462373Y0124897D01*
X0462271Y0124904D01*
X0462170Y0124915D01*
X0462070Y0124930D01*
X0461970Y0124949D01*
X0461871Y0124971D01*
X0461772Y0124998D01*
X0461675Y0125028D01*
X0461580Y0125062D01*
X0461485Y0125100D01*
X0461392Y0125141D01*
X0461301Y0125186D01*
X0461212Y0125235D01*
X0461124Y0125287D01*
X0461039Y0125342D01*
X0460956Y0125401D01*
X0460875Y0125463D01*
X0460797Y0125527D01*
X0460721Y0125595D01*
X0460648Y0125666D01*
X0460578Y0125740D01*
X0460511Y0125816D01*
X0460447Y0125895D01*
X0460386Y0125976D01*
X0460328Y0126060D01*
X0460273Y0126146D01*
X0460222Y0126234D01*
X0460175Y0126324D01*
X0460130Y0126415D01*
X0460090Y0126509D01*
X0460053Y0126603D01*
X0460020Y0126700D01*
X0459991Y0126797D01*
X0459965Y0126895D01*
X0459943Y0126995D01*
X0459926Y0127095D01*
X0459912Y0127196D01*
X0459902Y0127297D01*
X0459896Y0127398D01*
X0459894Y0127500D01*
M02*
