G75*
%MOIN*%
%OFA0B0*%
%FSLAX25Y25*%
%IPPOS*%
%LPD*%
%AMOC8*
5,1,8,0,0,1.08239X$1,22.5*
%
%ADD10R,0.04331X0.03937*%
%ADD11R,0.03346X0.03543*%
%ADD12R,0.03937X0.04331*%
%ADD13R,0.01181X0.02598*%
%ADD14R,0.03543X0.03937*%
%ADD15R,0.03543X0.05906*%
%ADD16R,0.05906X0.03543*%
%ADD17R,0.23622X0.23622*%
%ADD18R,0.02165X0.04724*%
%ADD19C,0.00039*%
%ADD20C,0.00500*%
%ADD21R,0.04000X0.01181*%
%ADD22R,0.04000X0.02362*%
%ADD23R,0.04000X0.02165*%
%ADD24R,0.04724X0.09843*%
%ADD25R,0.04724X0.03150*%
%ADD26C,0.00118*%
%ADD27C,0.02756*%
%ADD28C,0.03543*%
%ADD29R,0.04724X0.02165*%
D10*
X0251654Y0080000D03*
X0258346Y0080000D03*
X0258346Y0090000D03*
X0251654Y0090000D03*
X0266654Y0072500D03*
X0273346Y0072500D03*
X0301654Y0050000D03*
X0308346Y0050000D03*
X0331654Y0047500D03*
X0338346Y0047500D03*
X0338346Y0067500D03*
X0331654Y0067500D03*
X0283346Y0120000D03*
X0276654Y0120000D03*
X0276654Y0127500D03*
X0283346Y0127500D03*
X0283346Y0135000D03*
X0276654Y0135000D03*
X0276654Y0142500D03*
X0283346Y0142500D03*
X0283346Y0150000D03*
X0276654Y0150000D03*
X0276654Y0157500D03*
X0283346Y0157500D03*
X0411654Y0130000D03*
X0418346Y0130000D03*
X0418346Y0122500D03*
X0411654Y0122500D03*
D11*
X0272283Y0080000D03*
X0267717Y0080000D03*
X0267717Y0045000D03*
X0272283Y0045000D03*
D12*
X0258000Y0054154D03*
X0258000Y0060846D03*
X0325000Y0060846D03*
X0325000Y0054154D03*
X0270000Y0124154D03*
X0270000Y0130846D03*
X0270000Y0146654D03*
X0270000Y0153346D03*
X0397500Y0148346D03*
X0397500Y0141654D03*
X0422500Y0141654D03*
X0430000Y0141654D03*
X0437500Y0141654D03*
X0445000Y0138346D03*
X0445000Y0131654D03*
X0437500Y0148346D03*
X0430000Y0148346D03*
X0422500Y0148346D03*
D13*
X0337559Y0061122D03*
X0335000Y0061122D03*
X0332441Y0061122D03*
X0332441Y0053878D03*
X0335000Y0053878D03*
X0337559Y0053878D03*
D14*
X0346929Y0053150D03*
X0346929Y0046850D03*
X0363071Y0046850D03*
X0363071Y0053150D03*
X0363071Y0061850D03*
X0363071Y0068150D03*
X0346929Y0068150D03*
X0346929Y0061850D03*
D15*
X0375315Y0047567D03*
X0380315Y0047567D03*
X0385315Y0047567D03*
X0390315Y0047567D03*
X0395315Y0047567D03*
X0400315Y0047567D03*
X0405315Y0047567D03*
X0410315Y0047567D03*
X0415315Y0047567D03*
X0420315Y0047567D03*
X0425315Y0047567D03*
X0430315Y0047567D03*
X0435315Y0047567D03*
X0440315Y0047567D03*
X0440315Y0112433D03*
X0435315Y0112433D03*
X0430315Y0112433D03*
X0425315Y0112433D03*
X0420315Y0112433D03*
X0415315Y0112433D03*
X0410315Y0112433D03*
X0405315Y0112433D03*
X0400315Y0112433D03*
X0395315Y0112433D03*
X0390315Y0112433D03*
X0385315Y0112433D03*
X0380315Y0112433D03*
X0375315Y0112433D03*
D16*
X0369449Y0102500D03*
X0369449Y0097500D03*
X0369449Y0092500D03*
X0369449Y0087500D03*
X0369449Y0082500D03*
X0369449Y0077500D03*
X0369449Y0072500D03*
X0369449Y0067500D03*
X0369449Y0062500D03*
X0369449Y0057500D03*
D17*
X0410000Y0080000D03*
D18*
X0273740Y0065119D03*
X0266260Y0065119D03*
X0266260Y0054881D03*
X0270000Y0054881D03*
X0273740Y0054881D03*
D19*
X0219073Y0067591D02*
X0218941Y0068033D01*
X0218898Y0068492D01*
X0218954Y0069016D01*
X0219126Y0069514D01*
X0219405Y0069961D01*
X0219776Y0070335D01*
X0220220Y0070617D01*
X0220717Y0070793D01*
X0221240Y0070854D01*
X0223602Y0070854D01*
X0224130Y0070797D01*
X0224633Y0070624D01*
X0225083Y0070343D01*
X0219788Y0070343D01*
X0219746Y0070305D02*
X0225122Y0070305D01*
X0225160Y0070267D02*
X0219708Y0070267D01*
X0219671Y0070229D02*
X0225198Y0070229D01*
X0225236Y0070191D02*
X0219633Y0070191D01*
X0219596Y0070154D02*
X0225274Y0070154D01*
X0225313Y0070116D02*
X0219558Y0070116D01*
X0219521Y0070078D02*
X0225351Y0070078D01*
X0225389Y0070040D02*
X0219483Y0070040D01*
X0219445Y0070002D02*
X0225427Y0070002D01*
X0225461Y0069969D02*
X0225745Y0069520D01*
X0225923Y0069020D01*
X0225984Y0068492D01*
X0225937Y0068030D01*
X0225800Y0067585D01*
X0225579Y0067176D01*
X0225283Y0066818D01*
X0224922Y0066524D01*
X0224511Y0066307D01*
X0224065Y0066174D01*
X0223602Y0066130D01*
X0221240Y0066130D01*
X0220781Y0066177D01*
X0220341Y0066313D01*
X0219935Y0066532D01*
X0219580Y0066826D01*
X0219289Y0067184D01*
X0219073Y0067591D01*
X0219080Y0067578D02*
X0225796Y0067578D01*
X0225809Y0067616D02*
X0219066Y0067616D01*
X0219054Y0067653D02*
X0225821Y0067653D01*
X0225833Y0067691D02*
X0219043Y0067691D01*
X0219032Y0067729D02*
X0225844Y0067729D01*
X0225856Y0067767D02*
X0219020Y0067767D01*
X0219009Y0067805D02*
X0225868Y0067805D01*
X0225879Y0067843D02*
X0218998Y0067843D01*
X0218986Y0067881D02*
X0225891Y0067881D01*
X0225903Y0067919D02*
X0218975Y0067919D01*
X0218964Y0067956D02*
X0225914Y0067956D01*
X0225926Y0067994D02*
X0218952Y0067994D01*
X0218941Y0068032D02*
X0225937Y0068032D01*
X0225941Y0068070D02*
X0218937Y0068070D01*
X0218934Y0068108D02*
X0225945Y0068108D01*
X0225949Y0068146D02*
X0218930Y0068146D01*
X0218927Y0068184D02*
X0225953Y0068184D01*
X0225956Y0068222D02*
X0218923Y0068222D01*
X0218920Y0068260D02*
X0225960Y0068260D01*
X0225964Y0068297D02*
X0218916Y0068297D01*
X0218912Y0068335D02*
X0225968Y0068335D01*
X0225972Y0068373D02*
X0218909Y0068373D01*
X0218905Y0068411D02*
X0225976Y0068411D01*
X0225980Y0068449D02*
X0218902Y0068449D01*
X0218898Y0068487D02*
X0225984Y0068487D01*
X0225980Y0068525D02*
X0218901Y0068525D01*
X0218905Y0068563D02*
X0225976Y0068563D01*
X0225972Y0068600D02*
X0218909Y0068600D01*
X0218913Y0068638D02*
X0225967Y0068638D01*
X0225963Y0068676D02*
X0218918Y0068676D01*
X0218922Y0068714D02*
X0225958Y0068714D01*
X0225954Y0068752D02*
X0218926Y0068752D01*
X0218930Y0068790D02*
X0225949Y0068790D01*
X0225945Y0068828D02*
X0218934Y0068828D01*
X0218938Y0068866D02*
X0225941Y0068866D01*
X0225936Y0068904D02*
X0218942Y0068904D01*
X0218946Y0068941D02*
X0225932Y0068941D01*
X0225927Y0068979D02*
X0218950Y0068979D01*
X0218955Y0069017D02*
X0225923Y0069017D01*
X0225910Y0069055D02*
X0218968Y0069055D01*
X0218981Y0069093D02*
X0225897Y0069093D01*
X0225883Y0069131D02*
X0218994Y0069131D01*
X0219007Y0069169D02*
X0225870Y0069169D01*
X0225856Y0069207D02*
X0219020Y0069207D01*
X0219033Y0069244D02*
X0225843Y0069244D01*
X0225829Y0069282D02*
X0219046Y0069282D01*
X0219059Y0069320D02*
X0225816Y0069320D01*
X0225803Y0069358D02*
X0219073Y0069358D01*
X0219086Y0069396D02*
X0225789Y0069396D01*
X0225776Y0069434D02*
X0219099Y0069434D01*
X0219112Y0069472D02*
X0225762Y0069472D01*
X0225749Y0069510D02*
X0219125Y0069510D01*
X0219147Y0069547D02*
X0225728Y0069547D01*
X0225704Y0069585D02*
X0219171Y0069585D01*
X0219194Y0069623D02*
X0225680Y0069623D01*
X0225656Y0069661D02*
X0219218Y0069661D01*
X0219242Y0069699D02*
X0225632Y0069699D01*
X0225608Y0069737D02*
X0219265Y0069737D01*
X0219289Y0069775D02*
X0225584Y0069775D01*
X0225560Y0069813D02*
X0219312Y0069813D01*
X0219336Y0069851D02*
X0225536Y0069851D01*
X0225512Y0069888D02*
X0219360Y0069888D01*
X0219383Y0069926D02*
X0225488Y0069926D01*
X0225464Y0069964D02*
X0219408Y0069964D01*
X0219848Y0070381D02*
X0225023Y0070381D01*
X0225083Y0070343D02*
X0225461Y0069969D01*
X0224962Y0070419D02*
X0219908Y0070419D01*
X0219967Y0070457D02*
X0224901Y0070457D01*
X0224840Y0070495D02*
X0220027Y0070495D01*
X0220087Y0070532D02*
X0224779Y0070532D01*
X0224718Y0070570D02*
X0220147Y0070570D01*
X0220206Y0070608D02*
X0224657Y0070608D01*
X0224568Y0070646D02*
X0220302Y0070646D01*
X0220409Y0070684D02*
X0224458Y0070684D01*
X0224348Y0070722D02*
X0220516Y0070722D01*
X0220623Y0070760D02*
X0224239Y0070760D01*
X0224126Y0070798D02*
X0220755Y0070798D01*
X0221079Y0070835D02*
X0223776Y0070835D01*
X0225775Y0067540D02*
X0219100Y0067540D01*
X0219120Y0067502D02*
X0225755Y0067502D01*
X0225735Y0067464D02*
X0219140Y0067464D01*
X0219160Y0067426D02*
X0225714Y0067426D01*
X0225694Y0067388D02*
X0219180Y0067388D01*
X0219200Y0067350D02*
X0225673Y0067350D01*
X0225653Y0067312D02*
X0219220Y0067312D01*
X0219240Y0067275D02*
X0225632Y0067275D01*
X0225612Y0067237D02*
X0219260Y0067237D01*
X0219281Y0067199D02*
X0225591Y0067199D01*
X0225567Y0067161D02*
X0219307Y0067161D01*
X0219338Y0067123D02*
X0225535Y0067123D01*
X0225504Y0067085D02*
X0219369Y0067085D01*
X0219399Y0067047D02*
X0225473Y0067047D01*
X0225441Y0067009D02*
X0219430Y0067009D01*
X0219461Y0066972D02*
X0225410Y0066972D01*
X0225379Y0066934D02*
X0219492Y0066934D01*
X0219523Y0066896D02*
X0225347Y0066896D01*
X0225316Y0066858D02*
X0219554Y0066858D01*
X0219587Y0066820D02*
X0225284Y0066820D01*
X0225239Y0066782D02*
X0219632Y0066782D01*
X0219678Y0066744D02*
X0225192Y0066744D01*
X0225146Y0066706D02*
X0219724Y0066706D01*
X0219770Y0066669D02*
X0225099Y0066669D01*
X0225053Y0066631D02*
X0219816Y0066631D01*
X0219861Y0066593D02*
X0225006Y0066593D01*
X0224960Y0066555D02*
X0219907Y0066555D01*
X0219962Y0066517D02*
X0224908Y0066517D01*
X0224837Y0066479D02*
X0220033Y0066479D01*
X0220103Y0066441D02*
X0224765Y0066441D01*
X0224693Y0066403D02*
X0220173Y0066403D01*
X0220243Y0066365D02*
X0224622Y0066365D01*
X0224550Y0066328D02*
X0220313Y0066328D01*
X0220416Y0066290D02*
X0224454Y0066290D01*
X0224327Y0066252D02*
X0220539Y0066252D01*
X0220662Y0066214D02*
X0224200Y0066214D01*
X0224074Y0066176D02*
X0220791Y0066176D01*
X0221160Y0066138D02*
X0223690Y0066138D01*
X0234402Y0067988D02*
X0234370Y0068492D01*
X0234402Y0068996D01*
X0234546Y0069481D01*
X0234794Y0069921D01*
X0235134Y0070295D01*
X0235549Y0070584D01*
X0236017Y0070774D01*
X0236516Y0070854D01*
X0241240Y0070854D01*
X0241682Y0070793D01*
X0242103Y0070647D01*
X0242488Y0070422D01*
X0242822Y0070126D01*
X0243091Y0069770D01*
X0243286Y0069369D01*
X0243399Y0068937D01*
X0243425Y0068492D01*
X0243399Y0068047D01*
X0243286Y0067615D01*
X0243091Y0067214D01*
X0242822Y0066858D01*
X0242488Y0066562D01*
X0242103Y0066337D01*
X0241682Y0066191D01*
X0241240Y0066130D01*
X0236516Y0066130D01*
X0236017Y0066211D01*
X0235549Y0066400D01*
X0235134Y0066689D01*
X0234794Y0067063D01*
X0234546Y0067503D01*
X0234402Y0067988D01*
X0234402Y0067994D02*
X0243385Y0067994D01*
X0243375Y0067956D02*
X0234412Y0067956D01*
X0234423Y0067919D02*
X0243365Y0067919D01*
X0243355Y0067881D02*
X0234434Y0067881D01*
X0234446Y0067843D02*
X0243345Y0067843D01*
X0243336Y0067805D02*
X0234457Y0067805D01*
X0234468Y0067767D02*
X0243326Y0067767D01*
X0243316Y0067729D02*
X0234479Y0067729D01*
X0234491Y0067691D02*
X0243306Y0067691D01*
X0243296Y0067653D02*
X0234502Y0067653D01*
X0234513Y0067616D02*
X0243286Y0067616D01*
X0243268Y0067578D02*
X0234524Y0067578D01*
X0234536Y0067540D02*
X0243249Y0067540D01*
X0243231Y0067502D02*
X0234547Y0067502D01*
X0234569Y0067464D02*
X0243213Y0067464D01*
X0243194Y0067426D02*
X0234590Y0067426D01*
X0234611Y0067388D02*
X0243176Y0067388D01*
X0243157Y0067350D02*
X0234633Y0067350D01*
X0234654Y0067312D02*
X0243139Y0067312D01*
X0243121Y0067275D02*
X0234675Y0067275D01*
X0234697Y0067237D02*
X0243102Y0067237D01*
X0243080Y0067199D02*
X0234718Y0067199D01*
X0234739Y0067161D02*
X0243051Y0067161D01*
X0243022Y0067123D02*
X0234761Y0067123D01*
X0234782Y0067085D02*
X0242994Y0067085D01*
X0242965Y0067047D02*
X0234809Y0067047D01*
X0234843Y0067009D02*
X0242936Y0067009D01*
X0242908Y0066972D02*
X0234878Y0066972D01*
X0234912Y0066934D02*
X0242879Y0066934D01*
X0242850Y0066896D02*
X0234946Y0066896D01*
X0234981Y0066858D02*
X0242821Y0066858D01*
X0242779Y0066820D02*
X0235015Y0066820D01*
X0235050Y0066782D02*
X0242736Y0066782D01*
X0242693Y0066744D02*
X0235084Y0066744D01*
X0235118Y0066706D02*
X0242651Y0066706D01*
X0242608Y0066669D02*
X0235164Y0066669D01*
X0235218Y0066631D02*
X0242565Y0066631D01*
X0242523Y0066593D02*
X0235272Y0066593D01*
X0235327Y0066555D02*
X0242476Y0066555D01*
X0242411Y0066517D02*
X0235381Y0066517D01*
X0235435Y0066479D02*
X0242346Y0066479D01*
X0242282Y0066441D02*
X0235490Y0066441D01*
X0235544Y0066403D02*
X0242217Y0066403D01*
X0242152Y0066365D02*
X0235634Y0066365D01*
X0235728Y0066328D02*
X0242077Y0066328D01*
X0241967Y0066290D02*
X0235821Y0066290D01*
X0235915Y0066252D02*
X0241858Y0066252D01*
X0241749Y0066214D02*
X0236009Y0066214D01*
X0236230Y0066176D02*
X0241574Y0066176D01*
X0241300Y0066138D02*
X0236465Y0066138D01*
X0234400Y0068032D02*
X0243395Y0068032D01*
X0243400Y0068070D02*
X0234397Y0068070D01*
X0234395Y0068108D02*
X0243402Y0068108D01*
X0243405Y0068146D02*
X0234392Y0068146D01*
X0234390Y0068184D02*
X0243407Y0068184D01*
X0243409Y0068222D02*
X0234387Y0068222D01*
X0234385Y0068260D02*
X0243411Y0068260D01*
X0243414Y0068297D02*
X0234383Y0068297D01*
X0234380Y0068335D02*
X0243416Y0068335D01*
X0243418Y0068373D02*
X0234378Y0068373D01*
X0234375Y0068411D02*
X0243420Y0068411D01*
X0243423Y0068449D02*
X0234373Y0068449D01*
X0234370Y0068487D02*
X0243425Y0068487D01*
X0243423Y0068525D02*
X0234372Y0068525D01*
X0234375Y0068563D02*
X0243421Y0068563D01*
X0243419Y0068600D02*
X0234377Y0068600D01*
X0234379Y0068638D02*
X0243417Y0068638D01*
X0243414Y0068676D02*
X0234382Y0068676D01*
X0234384Y0068714D02*
X0243412Y0068714D01*
X0243410Y0068752D02*
X0234387Y0068752D01*
X0234389Y0068790D02*
X0243408Y0068790D01*
X0243405Y0068828D02*
X0234392Y0068828D01*
X0234394Y0068866D02*
X0243403Y0068866D01*
X0243401Y0068904D02*
X0234397Y0068904D01*
X0234399Y0068941D02*
X0243398Y0068941D01*
X0243388Y0068979D02*
X0234401Y0068979D01*
X0234409Y0069017D02*
X0243378Y0069017D01*
X0243368Y0069055D02*
X0234420Y0069055D01*
X0234431Y0069093D02*
X0243358Y0069093D01*
X0243348Y0069131D02*
X0234442Y0069131D01*
X0234454Y0069169D02*
X0243338Y0069169D01*
X0243328Y0069207D02*
X0234465Y0069207D01*
X0234476Y0069244D02*
X0243319Y0069244D01*
X0243309Y0069282D02*
X0234487Y0069282D01*
X0234499Y0069320D02*
X0243299Y0069320D01*
X0243289Y0069358D02*
X0234510Y0069358D01*
X0234521Y0069396D02*
X0243273Y0069396D01*
X0243255Y0069434D02*
X0234532Y0069434D01*
X0234544Y0069472D02*
X0243236Y0069472D01*
X0243218Y0069510D02*
X0234563Y0069510D01*
X0234584Y0069547D02*
X0243199Y0069547D01*
X0243181Y0069585D02*
X0234605Y0069585D01*
X0234627Y0069623D02*
X0243163Y0069623D01*
X0243144Y0069661D02*
X0234648Y0069661D01*
X0234669Y0069699D02*
X0243126Y0069699D01*
X0243107Y0069737D02*
X0234691Y0069737D01*
X0234712Y0069775D02*
X0243088Y0069775D01*
X0243059Y0069813D02*
X0234733Y0069813D01*
X0234755Y0069851D02*
X0243030Y0069851D01*
X0243002Y0069888D02*
X0234776Y0069888D01*
X0234799Y0069926D02*
X0242973Y0069926D01*
X0242944Y0069964D02*
X0234833Y0069964D01*
X0234868Y0070002D02*
X0242916Y0070002D01*
X0242887Y0070040D02*
X0234902Y0070040D01*
X0234937Y0070078D02*
X0242858Y0070078D01*
X0242830Y0070116D02*
X0234971Y0070116D01*
X0235006Y0070154D02*
X0242791Y0070154D01*
X0242748Y0070191D02*
X0235040Y0070191D01*
X0235074Y0070229D02*
X0242705Y0070229D01*
X0242663Y0070267D02*
X0235109Y0070267D01*
X0235148Y0070305D02*
X0242620Y0070305D01*
X0242577Y0070343D02*
X0235203Y0070343D01*
X0235257Y0070381D02*
X0242535Y0070381D01*
X0242492Y0070419D02*
X0235311Y0070419D01*
X0235366Y0070457D02*
X0242429Y0070457D01*
X0242364Y0070495D02*
X0235420Y0070495D01*
X0235474Y0070532D02*
X0242300Y0070532D01*
X0242235Y0070570D02*
X0235529Y0070570D01*
X0235608Y0070608D02*
X0242170Y0070608D01*
X0242106Y0070646D02*
X0235701Y0070646D01*
X0235795Y0070684D02*
X0241998Y0070684D01*
X0241889Y0070722D02*
X0235889Y0070722D01*
X0235982Y0070760D02*
X0241779Y0070760D01*
X0241651Y0070798D02*
X0236164Y0070798D01*
X0236399Y0070835D02*
X0241377Y0070835D01*
X0300394Y0070394D02*
X0303465Y0070394D01*
X0303465Y0069449D01*
X0300394Y0069449D01*
X0300394Y0070394D01*
X0300394Y0070381D02*
X0303465Y0070381D01*
X0303465Y0070343D02*
X0300394Y0070343D01*
X0300394Y0070305D02*
X0303465Y0070305D01*
X0303465Y0070267D02*
X0300394Y0070267D01*
X0300394Y0070229D02*
X0303465Y0070229D01*
X0303465Y0070191D02*
X0300394Y0070191D01*
X0300394Y0070154D02*
X0303465Y0070154D01*
X0303465Y0070116D02*
X0300394Y0070116D01*
X0300394Y0070078D02*
X0303465Y0070078D01*
X0303465Y0070040D02*
X0300394Y0070040D01*
X0300394Y0070002D02*
X0303465Y0070002D01*
X0303465Y0069964D02*
X0300394Y0069964D01*
X0300394Y0069926D02*
X0303465Y0069926D01*
X0303465Y0069888D02*
X0300394Y0069888D01*
X0300394Y0069851D02*
X0303465Y0069851D01*
X0303465Y0069813D02*
X0300394Y0069813D01*
X0300394Y0069775D02*
X0303465Y0069775D01*
X0303465Y0069737D02*
X0300394Y0069737D01*
X0300394Y0069699D02*
X0303465Y0069699D01*
X0303465Y0069661D02*
X0300394Y0069661D01*
X0300394Y0069623D02*
X0303465Y0069623D01*
X0303465Y0069585D02*
X0300394Y0069585D01*
X0300394Y0069547D02*
X0303465Y0069547D01*
X0303465Y0069510D02*
X0300394Y0069510D01*
X0300394Y0069472D02*
X0303465Y0069472D01*
X0303465Y0068425D02*
X0303465Y0067480D01*
X0300394Y0067480D01*
X0300394Y0068425D01*
X0303465Y0068425D01*
X0303465Y0068411D02*
X0300394Y0068411D01*
X0300394Y0068373D02*
X0303465Y0068373D01*
X0303465Y0068335D02*
X0300394Y0068335D01*
X0300394Y0068297D02*
X0303465Y0068297D01*
X0303465Y0068260D02*
X0300394Y0068260D01*
X0300394Y0068222D02*
X0303465Y0068222D01*
X0303465Y0068184D02*
X0300394Y0068184D01*
X0300394Y0068146D02*
X0303465Y0068146D01*
X0303465Y0068108D02*
X0300394Y0068108D01*
X0300394Y0068070D02*
X0303465Y0068070D01*
X0303465Y0068032D02*
X0300394Y0068032D01*
X0300394Y0067994D02*
X0303465Y0067994D01*
X0303465Y0067956D02*
X0300394Y0067956D01*
X0300394Y0067919D02*
X0303465Y0067919D01*
X0303465Y0067881D02*
X0300394Y0067881D01*
X0300394Y0067843D02*
X0303465Y0067843D01*
X0303465Y0067805D02*
X0300394Y0067805D01*
X0300394Y0067767D02*
X0303465Y0067767D01*
X0303465Y0067729D02*
X0300394Y0067729D01*
X0300394Y0067691D02*
X0303465Y0067691D01*
X0303465Y0067653D02*
X0300394Y0067653D01*
X0300394Y0067616D02*
X0303465Y0067616D01*
X0303465Y0067578D02*
X0300394Y0067578D01*
X0300394Y0067540D02*
X0303465Y0067540D01*
X0303465Y0067502D02*
X0300394Y0067502D01*
X0300394Y0066457D02*
X0303465Y0066457D01*
X0303465Y0065512D01*
X0300394Y0065512D01*
X0300394Y0066457D01*
X0300394Y0066441D02*
X0303465Y0066441D01*
X0303465Y0066403D02*
X0300394Y0066403D01*
X0300394Y0066365D02*
X0303465Y0066365D01*
X0303465Y0066328D02*
X0300394Y0066328D01*
X0300394Y0066290D02*
X0303465Y0066290D01*
X0303465Y0066252D02*
X0300394Y0066252D01*
X0300394Y0066214D02*
X0303465Y0066214D01*
X0303465Y0066176D02*
X0300394Y0066176D01*
X0300394Y0066138D02*
X0303465Y0066138D01*
X0303465Y0066100D02*
X0300394Y0066100D01*
X0300394Y0066062D02*
X0303465Y0066062D01*
X0303465Y0066025D02*
X0300394Y0066025D01*
X0300394Y0065987D02*
X0303465Y0065987D01*
X0303465Y0065949D02*
X0300394Y0065949D01*
X0300394Y0065911D02*
X0303465Y0065911D01*
X0303465Y0065873D02*
X0300394Y0065873D01*
X0300394Y0065835D02*
X0303465Y0065835D01*
X0303465Y0065797D02*
X0300394Y0065797D01*
X0300394Y0065759D02*
X0303465Y0065759D01*
X0303465Y0065721D02*
X0300394Y0065721D01*
X0300394Y0065684D02*
X0303465Y0065684D01*
X0303465Y0065646D02*
X0300394Y0065646D01*
X0300394Y0065608D02*
X0303465Y0065608D01*
X0303465Y0065570D02*
X0300394Y0065570D01*
X0300394Y0065532D02*
X0303465Y0065532D01*
X0303465Y0064488D02*
X0303465Y0063543D01*
X0300394Y0063543D01*
X0300394Y0064488D01*
X0303465Y0064488D01*
X0303465Y0064471D02*
X0300394Y0064471D01*
X0300394Y0064434D02*
X0303465Y0064434D01*
X0303465Y0064396D02*
X0300394Y0064396D01*
X0300394Y0064358D02*
X0303465Y0064358D01*
X0303465Y0064320D02*
X0300394Y0064320D01*
X0300394Y0064282D02*
X0303465Y0064282D01*
X0303465Y0064244D02*
X0300394Y0064244D01*
X0300394Y0064206D02*
X0303465Y0064206D01*
X0303465Y0064168D02*
X0300394Y0064168D01*
X0300394Y0064130D02*
X0303465Y0064130D01*
X0303465Y0064093D02*
X0300394Y0064093D01*
X0300394Y0064055D02*
X0303465Y0064055D01*
X0303465Y0064017D02*
X0300394Y0064017D01*
X0300394Y0063979D02*
X0303465Y0063979D01*
X0303465Y0063941D02*
X0300394Y0063941D01*
X0300394Y0063903D02*
X0303465Y0063903D01*
X0303465Y0063865D02*
X0300394Y0063865D01*
X0300394Y0063827D02*
X0303465Y0063827D01*
X0303465Y0063790D02*
X0300394Y0063790D01*
X0300394Y0063752D02*
X0303465Y0063752D01*
X0303465Y0063714D02*
X0300394Y0063714D01*
X0300394Y0063676D02*
X0303465Y0063676D01*
X0303465Y0063638D02*
X0300394Y0063638D01*
X0300394Y0063600D02*
X0303465Y0063600D01*
X0303465Y0063562D02*
X0300394Y0063562D01*
X0300394Y0062520D02*
X0303465Y0062520D01*
X0303465Y0061575D01*
X0300394Y0061575D01*
X0300394Y0062520D01*
X0300394Y0062502D02*
X0303465Y0062502D01*
X0303465Y0062464D02*
X0300394Y0062464D01*
X0300394Y0062426D02*
X0303465Y0062426D01*
X0303465Y0062388D02*
X0300394Y0062388D01*
X0300394Y0062350D02*
X0303465Y0062350D01*
X0303465Y0062312D02*
X0300394Y0062312D01*
X0300394Y0062274D02*
X0303465Y0062274D01*
X0303465Y0062236D02*
X0300394Y0062236D01*
X0300394Y0062198D02*
X0303465Y0062198D01*
X0303465Y0062161D02*
X0300394Y0062161D01*
X0300394Y0062123D02*
X0303465Y0062123D01*
X0303465Y0062085D02*
X0300394Y0062085D01*
X0300394Y0062047D02*
X0303465Y0062047D01*
X0303465Y0062009D02*
X0300394Y0062009D01*
X0300394Y0061971D02*
X0303465Y0061971D01*
X0303465Y0061933D02*
X0300394Y0061933D01*
X0300394Y0061895D02*
X0303465Y0061895D01*
X0303465Y0061858D02*
X0300394Y0061858D01*
X0300394Y0061820D02*
X0303465Y0061820D01*
X0303465Y0061782D02*
X0300394Y0061782D01*
X0300394Y0061744D02*
X0303465Y0061744D01*
X0303465Y0061706D02*
X0300394Y0061706D01*
X0300394Y0061668D02*
X0303465Y0061668D01*
X0303465Y0061630D02*
X0300394Y0061630D01*
X0300394Y0061592D02*
X0303465Y0061592D01*
X0303465Y0060551D02*
X0300394Y0060551D01*
X0300394Y0059606D01*
X0303465Y0059606D01*
X0303465Y0060551D01*
X0303465Y0060532D02*
X0300394Y0060532D01*
X0300394Y0060494D02*
X0303465Y0060494D01*
X0303465Y0060456D02*
X0300394Y0060456D01*
X0300394Y0060418D02*
X0303465Y0060418D01*
X0303465Y0060380D02*
X0300394Y0060380D01*
X0300394Y0060342D02*
X0303465Y0060342D01*
X0303465Y0060304D02*
X0300394Y0060304D01*
X0300394Y0060267D02*
X0303465Y0060267D01*
X0303465Y0060229D02*
X0300394Y0060229D01*
X0300394Y0060191D02*
X0303465Y0060191D01*
X0303465Y0060153D02*
X0300394Y0060153D01*
X0300394Y0060115D02*
X0303465Y0060115D01*
X0303465Y0060077D02*
X0300394Y0060077D01*
X0300394Y0060039D02*
X0303465Y0060039D01*
X0303465Y0060001D02*
X0300394Y0060001D01*
X0300394Y0059963D02*
X0303465Y0059963D01*
X0303465Y0059926D02*
X0300394Y0059926D01*
X0300394Y0059888D02*
X0303465Y0059888D01*
X0303465Y0059850D02*
X0300394Y0059850D01*
X0300394Y0059812D02*
X0303465Y0059812D01*
X0303465Y0059774D02*
X0300394Y0059774D01*
X0300394Y0059736D02*
X0303465Y0059736D01*
X0303465Y0059698D02*
X0300394Y0059698D01*
X0300394Y0059660D02*
X0303465Y0059660D01*
X0303465Y0059623D02*
X0300394Y0059623D01*
X0304606Y0058465D02*
X0305551Y0058465D01*
X0305551Y0055394D01*
X0304606Y0055394D01*
X0304606Y0058465D01*
X0304606Y0058448D02*
X0305551Y0058448D01*
X0305551Y0058410D02*
X0304606Y0058410D01*
X0304606Y0058372D02*
X0305551Y0058372D01*
X0305551Y0058335D02*
X0304606Y0058335D01*
X0304606Y0058297D02*
X0305551Y0058297D01*
X0305551Y0058259D02*
X0304606Y0058259D01*
X0304606Y0058221D02*
X0305551Y0058221D01*
X0305551Y0058183D02*
X0304606Y0058183D01*
X0304606Y0058145D02*
X0305551Y0058145D01*
X0305551Y0058107D02*
X0304606Y0058107D01*
X0304606Y0058069D02*
X0305551Y0058069D01*
X0305551Y0058032D02*
X0304606Y0058032D01*
X0304606Y0057994D02*
X0305551Y0057994D01*
X0305551Y0057956D02*
X0304606Y0057956D01*
X0304606Y0057918D02*
X0305551Y0057918D01*
X0305551Y0057880D02*
X0304606Y0057880D01*
X0304606Y0057842D02*
X0305551Y0057842D01*
X0305551Y0057804D02*
X0304606Y0057804D01*
X0304606Y0057766D02*
X0305551Y0057766D01*
X0305551Y0057728D02*
X0304606Y0057728D01*
X0304606Y0057691D02*
X0305551Y0057691D01*
X0305551Y0057653D02*
X0304606Y0057653D01*
X0304606Y0057615D02*
X0305551Y0057615D01*
X0305551Y0057577D02*
X0304606Y0057577D01*
X0304606Y0057539D02*
X0305551Y0057539D01*
X0305551Y0057501D02*
X0304606Y0057501D01*
X0304606Y0057463D02*
X0305551Y0057463D01*
X0305551Y0057425D02*
X0304606Y0057425D01*
X0304606Y0057388D02*
X0305551Y0057388D01*
X0305551Y0057350D02*
X0304606Y0057350D01*
X0304606Y0057312D02*
X0305551Y0057312D01*
X0305551Y0057274D02*
X0304606Y0057274D01*
X0304606Y0057236D02*
X0305551Y0057236D01*
X0305551Y0057198D02*
X0304606Y0057198D01*
X0304606Y0057160D02*
X0305551Y0057160D01*
X0305551Y0057122D02*
X0304606Y0057122D01*
X0304606Y0057085D02*
X0305551Y0057085D01*
X0305551Y0057047D02*
X0304606Y0057047D01*
X0304606Y0057009D02*
X0305551Y0057009D01*
X0305551Y0056971D02*
X0304606Y0056971D01*
X0304606Y0056933D02*
X0305551Y0056933D01*
X0305551Y0056895D02*
X0304606Y0056895D01*
X0304606Y0056857D02*
X0305551Y0056857D01*
X0305551Y0056819D02*
X0304606Y0056819D01*
X0304606Y0056781D02*
X0305551Y0056781D01*
X0305551Y0056744D02*
X0304606Y0056744D01*
X0304606Y0056706D02*
X0305551Y0056706D01*
X0305551Y0056668D02*
X0304606Y0056668D01*
X0304606Y0056630D02*
X0305551Y0056630D01*
X0305551Y0056592D02*
X0304606Y0056592D01*
X0304606Y0056554D02*
X0305551Y0056554D01*
X0305551Y0056516D02*
X0304606Y0056516D01*
X0304606Y0056478D02*
X0305551Y0056478D01*
X0305551Y0056441D02*
X0304606Y0056441D01*
X0304606Y0056403D02*
X0305551Y0056403D01*
X0305551Y0056365D02*
X0304606Y0056365D01*
X0304606Y0056327D02*
X0305551Y0056327D01*
X0305551Y0056289D02*
X0304606Y0056289D01*
X0304606Y0056251D02*
X0305551Y0056251D01*
X0305551Y0056213D02*
X0304606Y0056213D01*
X0304606Y0056175D02*
X0305551Y0056175D01*
X0305551Y0056137D02*
X0304606Y0056137D01*
X0304606Y0056100D02*
X0305551Y0056100D01*
X0305551Y0056062D02*
X0304606Y0056062D01*
X0304606Y0056024D02*
X0305551Y0056024D01*
X0305551Y0055986D02*
X0304606Y0055986D01*
X0304606Y0055948D02*
X0305551Y0055948D01*
X0305551Y0055910D02*
X0304606Y0055910D01*
X0304606Y0055872D02*
X0305551Y0055872D01*
X0305551Y0055834D02*
X0304606Y0055834D01*
X0304606Y0055797D02*
X0305551Y0055797D01*
X0305551Y0055759D02*
X0304606Y0055759D01*
X0304606Y0055721D02*
X0305551Y0055721D01*
X0305551Y0055683D02*
X0304606Y0055683D01*
X0304606Y0055645D02*
X0305551Y0055645D01*
X0305551Y0055607D02*
X0304606Y0055607D01*
X0304606Y0055569D02*
X0305551Y0055569D01*
X0305551Y0055531D02*
X0304606Y0055531D01*
X0304606Y0055493D02*
X0305551Y0055493D01*
X0305551Y0055456D02*
X0304606Y0055456D01*
X0304606Y0055418D02*
X0305551Y0055418D01*
X0306575Y0055418D02*
X0307520Y0055418D01*
X0307520Y0055394D02*
X0307520Y0058465D01*
X0306575Y0058465D01*
X0306575Y0055394D01*
X0307520Y0055394D01*
X0307520Y0055456D02*
X0306575Y0055456D01*
X0306575Y0055493D02*
X0307520Y0055493D01*
X0307520Y0055531D02*
X0306575Y0055531D01*
X0306575Y0055569D02*
X0307520Y0055569D01*
X0307520Y0055607D02*
X0306575Y0055607D01*
X0306575Y0055645D02*
X0307520Y0055645D01*
X0307520Y0055683D02*
X0306575Y0055683D01*
X0306575Y0055721D02*
X0307520Y0055721D01*
X0307520Y0055759D02*
X0306575Y0055759D01*
X0306575Y0055797D02*
X0307520Y0055797D01*
X0307520Y0055834D02*
X0306575Y0055834D01*
X0306575Y0055872D02*
X0307520Y0055872D01*
X0307520Y0055910D02*
X0306575Y0055910D01*
X0306575Y0055948D02*
X0307520Y0055948D01*
X0307520Y0055986D02*
X0306575Y0055986D01*
X0306575Y0056024D02*
X0307520Y0056024D01*
X0307520Y0056062D02*
X0306575Y0056062D01*
X0306575Y0056100D02*
X0307520Y0056100D01*
X0307520Y0056137D02*
X0306575Y0056137D01*
X0306575Y0056175D02*
X0307520Y0056175D01*
X0307520Y0056213D02*
X0306575Y0056213D01*
X0306575Y0056251D02*
X0307520Y0056251D01*
X0307520Y0056289D02*
X0306575Y0056289D01*
X0306575Y0056327D02*
X0307520Y0056327D01*
X0307520Y0056365D02*
X0306575Y0056365D01*
X0306575Y0056403D02*
X0307520Y0056403D01*
X0307520Y0056441D02*
X0306575Y0056441D01*
X0306575Y0056478D02*
X0307520Y0056478D01*
X0307520Y0056516D02*
X0306575Y0056516D01*
X0306575Y0056554D02*
X0307520Y0056554D01*
X0307520Y0056592D02*
X0306575Y0056592D01*
X0306575Y0056630D02*
X0307520Y0056630D01*
X0307520Y0056668D02*
X0306575Y0056668D01*
X0306575Y0056706D02*
X0307520Y0056706D01*
X0307520Y0056744D02*
X0306575Y0056744D01*
X0306575Y0056781D02*
X0307520Y0056781D01*
X0307520Y0056819D02*
X0306575Y0056819D01*
X0306575Y0056857D02*
X0307520Y0056857D01*
X0307520Y0056895D02*
X0306575Y0056895D01*
X0306575Y0056933D02*
X0307520Y0056933D01*
X0307520Y0056971D02*
X0306575Y0056971D01*
X0306575Y0057009D02*
X0307520Y0057009D01*
X0307520Y0057047D02*
X0306575Y0057047D01*
X0306575Y0057085D02*
X0307520Y0057085D01*
X0307520Y0057122D02*
X0306575Y0057122D01*
X0306575Y0057160D02*
X0307520Y0057160D01*
X0307520Y0057198D02*
X0306575Y0057198D01*
X0306575Y0057236D02*
X0307520Y0057236D01*
X0307520Y0057274D02*
X0306575Y0057274D01*
X0306575Y0057312D02*
X0307520Y0057312D01*
X0307520Y0057350D02*
X0306575Y0057350D01*
X0306575Y0057388D02*
X0307520Y0057388D01*
X0307520Y0057425D02*
X0306575Y0057425D01*
X0306575Y0057463D02*
X0307520Y0057463D01*
X0307520Y0057501D02*
X0306575Y0057501D01*
X0306575Y0057539D02*
X0307520Y0057539D01*
X0307520Y0057577D02*
X0306575Y0057577D01*
X0306575Y0057615D02*
X0307520Y0057615D01*
X0307520Y0057653D02*
X0306575Y0057653D01*
X0306575Y0057691D02*
X0307520Y0057691D01*
X0307520Y0057728D02*
X0306575Y0057728D01*
X0306575Y0057766D02*
X0307520Y0057766D01*
X0307520Y0057804D02*
X0306575Y0057804D01*
X0306575Y0057842D02*
X0307520Y0057842D01*
X0307520Y0057880D02*
X0306575Y0057880D01*
X0306575Y0057918D02*
X0307520Y0057918D01*
X0307520Y0057956D02*
X0306575Y0057956D01*
X0306575Y0057994D02*
X0307520Y0057994D01*
X0307520Y0058032D02*
X0306575Y0058032D01*
X0306575Y0058069D02*
X0307520Y0058069D01*
X0307520Y0058107D02*
X0306575Y0058107D01*
X0306575Y0058145D02*
X0307520Y0058145D01*
X0307520Y0058183D02*
X0306575Y0058183D01*
X0306575Y0058221D02*
X0307520Y0058221D01*
X0307520Y0058259D02*
X0306575Y0058259D01*
X0306575Y0058297D02*
X0307520Y0058297D01*
X0307520Y0058335D02*
X0306575Y0058335D01*
X0306575Y0058372D02*
X0307520Y0058372D01*
X0307520Y0058410D02*
X0306575Y0058410D01*
X0306575Y0058448D02*
X0307520Y0058448D01*
X0308543Y0058448D02*
X0309488Y0058448D01*
X0309488Y0058465D02*
X0309488Y0055394D01*
X0308543Y0055394D01*
X0308543Y0058465D01*
X0309488Y0058465D01*
X0309488Y0058410D02*
X0308543Y0058410D01*
X0308543Y0058372D02*
X0309488Y0058372D01*
X0309488Y0058335D02*
X0308543Y0058335D01*
X0308543Y0058297D02*
X0309488Y0058297D01*
X0309488Y0058259D02*
X0308543Y0058259D01*
X0308543Y0058221D02*
X0309488Y0058221D01*
X0309488Y0058183D02*
X0308543Y0058183D01*
X0308543Y0058145D02*
X0309488Y0058145D01*
X0309488Y0058107D02*
X0308543Y0058107D01*
X0308543Y0058069D02*
X0309488Y0058069D01*
X0309488Y0058032D02*
X0308543Y0058032D01*
X0308543Y0057994D02*
X0309488Y0057994D01*
X0309488Y0057956D02*
X0308543Y0057956D01*
X0308543Y0057918D02*
X0309488Y0057918D01*
X0309488Y0057880D02*
X0308543Y0057880D01*
X0308543Y0057842D02*
X0309488Y0057842D01*
X0309488Y0057804D02*
X0308543Y0057804D01*
X0308543Y0057766D02*
X0309488Y0057766D01*
X0309488Y0057728D02*
X0308543Y0057728D01*
X0308543Y0057691D02*
X0309488Y0057691D01*
X0309488Y0057653D02*
X0308543Y0057653D01*
X0308543Y0057615D02*
X0309488Y0057615D01*
X0309488Y0057577D02*
X0308543Y0057577D01*
X0308543Y0057539D02*
X0309488Y0057539D01*
X0309488Y0057501D02*
X0308543Y0057501D01*
X0308543Y0057463D02*
X0309488Y0057463D01*
X0309488Y0057425D02*
X0308543Y0057425D01*
X0308543Y0057388D02*
X0309488Y0057388D01*
X0309488Y0057350D02*
X0308543Y0057350D01*
X0308543Y0057312D02*
X0309488Y0057312D01*
X0309488Y0057274D02*
X0308543Y0057274D01*
X0308543Y0057236D02*
X0309488Y0057236D01*
X0309488Y0057198D02*
X0308543Y0057198D01*
X0308543Y0057160D02*
X0309488Y0057160D01*
X0309488Y0057122D02*
X0308543Y0057122D01*
X0308543Y0057085D02*
X0309488Y0057085D01*
X0309488Y0057047D02*
X0308543Y0057047D01*
X0308543Y0057009D02*
X0309488Y0057009D01*
X0309488Y0056971D02*
X0308543Y0056971D01*
X0308543Y0056933D02*
X0309488Y0056933D01*
X0309488Y0056895D02*
X0308543Y0056895D01*
X0308543Y0056857D02*
X0309488Y0056857D01*
X0309488Y0056819D02*
X0308543Y0056819D01*
X0308543Y0056781D02*
X0309488Y0056781D01*
X0309488Y0056744D02*
X0308543Y0056744D01*
X0308543Y0056706D02*
X0309488Y0056706D01*
X0309488Y0056668D02*
X0308543Y0056668D01*
X0308543Y0056630D02*
X0309488Y0056630D01*
X0309488Y0056592D02*
X0308543Y0056592D01*
X0308543Y0056554D02*
X0309488Y0056554D01*
X0309488Y0056516D02*
X0308543Y0056516D01*
X0308543Y0056478D02*
X0309488Y0056478D01*
X0309488Y0056441D02*
X0308543Y0056441D01*
X0308543Y0056403D02*
X0309488Y0056403D01*
X0309488Y0056365D02*
X0308543Y0056365D01*
X0308543Y0056327D02*
X0309488Y0056327D01*
X0309488Y0056289D02*
X0308543Y0056289D01*
X0308543Y0056251D02*
X0309488Y0056251D01*
X0309488Y0056213D02*
X0308543Y0056213D01*
X0308543Y0056175D02*
X0309488Y0056175D01*
X0309488Y0056137D02*
X0308543Y0056137D01*
X0308543Y0056100D02*
X0309488Y0056100D01*
X0309488Y0056062D02*
X0308543Y0056062D01*
X0308543Y0056024D02*
X0309488Y0056024D01*
X0309488Y0055986D02*
X0308543Y0055986D01*
X0308543Y0055948D02*
X0309488Y0055948D01*
X0309488Y0055910D02*
X0308543Y0055910D01*
X0308543Y0055872D02*
X0309488Y0055872D01*
X0309488Y0055834D02*
X0308543Y0055834D01*
X0308543Y0055797D02*
X0309488Y0055797D01*
X0309488Y0055759D02*
X0308543Y0055759D01*
X0308543Y0055721D02*
X0309488Y0055721D01*
X0309488Y0055683D02*
X0308543Y0055683D01*
X0308543Y0055645D02*
X0309488Y0055645D01*
X0309488Y0055607D02*
X0308543Y0055607D01*
X0308543Y0055569D02*
X0309488Y0055569D01*
X0309488Y0055531D02*
X0308543Y0055531D01*
X0308543Y0055493D02*
X0309488Y0055493D01*
X0309488Y0055456D02*
X0308543Y0055456D01*
X0308543Y0055418D02*
X0309488Y0055418D01*
X0310512Y0055418D02*
X0311457Y0055418D01*
X0311457Y0055394D02*
X0311457Y0058465D01*
X0310512Y0058465D01*
X0310512Y0055394D01*
X0311457Y0055394D01*
X0311457Y0055456D02*
X0310512Y0055456D01*
X0310512Y0055493D02*
X0311457Y0055493D01*
X0311457Y0055531D02*
X0310512Y0055531D01*
X0310512Y0055569D02*
X0311457Y0055569D01*
X0311457Y0055607D02*
X0310512Y0055607D01*
X0310512Y0055645D02*
X0311457Y0055645D01*
X0311457Y0055683D02*
X0310512Y0055683D01*
X0310512Y0055721D02*
X0311457Y0055721D01*
X0311457Y0055759D02*
X0310512Y0055759D01*
X0310512Y0055797D02*
X0311457Y0055797D01*
X0311457Y0055834D02*
X0310512Y0055834D01*
X0310512Y0055872D02*
X0311457Y0055872D01*
X0311457Y0055910D02*
X0310512Y0055910D01*
X0310512Y0055948D02*
X0311457Y0055948D01*
X0311457Y0055986D02*
X0310512Y0055986D01*
X0310512Y0056024D02*
X0311457Y0056024D01*
X0311457Y0056062D02*
X0310512Y0056062D01*
X0310512Y0056100D02*
X0311457Y0056100D01*
X0311457Y0056137D02*
X0310512Y0056137D01*
X0310512Y0056175D02*
X0311457Y0056175D01*
X0311457Y0056213D02*
X0310512Y0056213D01*
X0310512Y0056251D02*
X0311457Y0056251D01*
X0311457Y0056289D02*
X0310512Y0056289D01*
X0310512Y0056327D02*
X0311457Y0056327D01*
X0311457Y0056365D02*
X0310512Y0056365D01*
X0310512Y0056403D02*
X0311457Y0056403D01*
X0311457Y0056441D02*
X0310512Y0056441D01*
X0310512Y0056478D02*
X0311457Y0056478D01*
X0311457Y0056516D02*
X0310512Y0056516D01*
X0310512Y0056554D02*
X0311457Y0056554D01*
X0311457Y0056592D02*
X0310512Y0056592D01*
X0310512Y0056630D02*
X0311457Y0056630D01*
X0311457Y0056668D02*
X0310512Y0056668D01*
X0310512Y0056706D02*
X0311457Y0056706D01*
X0311457Y0056744D02*
X0310512Y0056744D01*
X0310512Y0056781D02*
X0311457Y0056781D01*
X0311457Y0056819D02*
X0310512Y0056819D01*
X0310512Y0056857D02*
X0311457Y0056857D01*
X0311457Y0056895D02*
X0310512Y0056895D01*
X0310512Y0056933D02*
X0311457Y0056933D01*
X0311457Y0056971D02*
X0310512Y0056971D01*
X0310512Y0057009D02*
X0311457Y0057009D01*
X0311457Y0057047D02*
X0310512Y0057047D01*
X0310512Y0057085D02*
X0311457Y0057085D01*
X0311457Y0057122D02*
X0310512Y0057122D01*
X0310512Y0057160D02*
X0311457Y0057160D01*
X0311457Y0057198D02*
X0310512Y0057198D01*
X0310512Y0057236D02*
X0311457Y0057236D01*
X0311457Y0057274D02*
X0310512Y0057274D01*
X0310512Y0057312D02*
X0311457Y0057312D01*
X0311457Y0057350D02*
X0310512Y0057350D01*
X0310512Y0057388D02*
X0311457Y0057388D01*
X0311457Y0057425D02*
X0310512Y0057425D01*
X0310512Y0057463D02*
X0311457Y0057463D01*
X0311457Y0057501D02*
X0310512Y0057501D01*
X0310512Y0057539D02*
X0311457Y0057539D01*
X0311457Y0057577D02*
X0310512Y0057577D01*
X0310512Y0057615D02*
X0311457Y0057615D01*
X0311457Y0057653D02*
X0310512Y0057653D01*
X0310512Y0057691D02*
X0311457Y0057691D01*
X0311457Y0057728D02*
X0310512Y0057728D01*
X0310512Y0057766D02*
X0311457Y0057766D01*
X0311457Y0057804D02*
X0310512Y0057804D01*
X0310512Y0057842D02*
X0311457Y0057842D01*
X0311457Y0057880D02*
X0310512Y0057880D01*
X0310512Y0057918D02*
X0311457Y0057918D01*
X0311457Y0057956D02*
X0310512Y0057956D01*
X0310512Y0057994D02*
X0311457Y0057994D01*
X0311457Y0058032D02*
X0310512Y0058032D01*
X0310512Y0058069D02*
X0311457Y0058069D01*
X0311457Y0058107D02*
X0310512Y0058107D01*
X0310512Y0058145D02*
X0311457Y0058145D01*
X0311457Y0058183D02*
X0310512Y0058183D01*
X0310512Y0058221D02*
X0311457Y0058221D01*
X0311457Y0058259D02*
X0310512Y0058259D01*
X0310512Y0058297D02*
X0311457Y0058297D01*
X0311457Y0058335D02*
X0310512Y0058335D01*
X0310512Y0058372D02*
X0311457Y0058372D01*
X0311457Y0058410D02*
X0310512Y0058410D01*
X0310512Y0058448D02*
X0311457Y0058448D01*
X0312480Y0058448D02*
X0313425Y0058448D01*
X0313425Y0058465D02*
X0313425Y0055394D01*
X0312480Y0055394D01*
X0312480Y0058465D01*
X0313425Y0058465D01*
X0313425Y0058410D02*
X0312480Y0058410D01*
X0312480Y0058372D02*
X0313425Y0058372D01*
X0313425Y0058335D02*
X0312480Y0058335D01*
X0312480Y0058297D02*
X0313425Y0058297D01*
X0313425Y0058259D02*
X0312480Y0058259D01*
X0312480Y0058221D02*
X0313425Y0058221D01*
X0313425Y0058183D02*
X0312480Y0058183D01*
X0312480Y0058145D02*
X0313425Y0058145D01*
X0313425Y0058107D02*
X0312480Y0058107D01*
X0312480Y0058069D02*
X0313425Y0058069D01*
X0313425Y0058032D02*
X0312480Y0058032D01*
X0312480Y0057994D02*
X0313425Y0057994D01*
X0313425Y0057956D02*
X0312480Y0057956D01*
X0312480Y0057918D02*
X0313425Y0057918D01*
X0313425Y0057880D02*
X0312480Y0057880D01*
X0312480Y0057842D02*
X0313425Y0057842D01*
X0313425Y0057804D02*
X0312480Y0057804D01*
X0312480Y0057766D02*
X0313425Y0057766D01*
X0313425Y0057728D02*
X0312480Y0057728D01*
X0312480Y0057691D02*
X0313425Y0057691D01*
X0313425Y0057653D02*
X0312480Y0057653D01*
X0312480Y0057615D02*
X0313425Y0057615D01*
X0313425Y0057577D02*
X0312480Y0057577D01*
X0312480Y0057539D02*
X0313425Y0057539D01*
X0313425Y0057501D02*
X0312480Y0057501D01*
X0312480Y0057463D02*
X0313425Y0057463D01*
X0313425Y0057425D02*
X0312480Y0057425D01*
X0312480Y0057388D02*
X0313425Y0057388D01*
X0313425Y0057350D02*
X0312480Y0057350D01*
X0312480Y0057312D02*
X0313425Y0057312D01*
X0313425Y0057274D02*
X0312480Y0057274D01*
X0312480Y0057236D02*
X0313425Y0057236D01*
X0313425Y0057198D02*
X0312480Y0057198D01*
X0312480Y0057160D02*
X0313425Y0057160D01*
X0313425Y0057122D02*
X0312480Y0057122D01*
X0312480Y0057085D02*
X0313425Y0057085D01*
X0313425Y0057047D02*
X0312480Y0057047D01*
X0312480Y0057009D02*
X0313425Y0057009D01*
X0313425Y0056971D02*
X0312480Y0056971D01*
X0312480Y0056933D02*
X0313425Y0056933D01*
X0313425Y0056895D02*
X0312480Y0056895D01*
X0312480Y0056857D02*
X0313425Y0056857D01*
X0313425Y0056819D02*
X0312480Y0056819D01*
X0312480Y0056781D02*
X0313425Y0056781D01*
X0313425Y0056744D02*
X0312480Y0056744D01*
X0312480Y0056706D02*
X0313425Y0056706D01*
X0313425Y0056668D02*
X0312480Y0056668D01*
X0312480Y0056630D02*
X0313425Y0056630D01*
X0313425Y0056592D02*
X0312480Y0056592D01*
X0312480Y0056554D02*
X0313425Y0056554D01*
X0313425Y0056516D02*
X0312480Y0056516D01*
X0312480Y0056478D02*
X0313425Y0056478D01*
X0313425Y0056441D02*
X0312480Y0056441D01*
X0312480Y0056403D02*
X0313425Y0056403D01*
X0313425Y0056365D02*
X0312480Y0056365D01*
X0312480Y0056327D02*
X0313425Y0056327D01*
X0313425Y0056289D02*
X0312480Y0056289D01*
X0312480Y0056251D02*
X0313425Y0056251D01*
X0313425Y0056213D02*
X0312480Y0056213D01*
X0312480Y0056175D02*
X0313425Y0056175D01*
X0313425Y0056137D02*
X0312480Y0056137D01*
X0312480Y0056100D02*
X0313425Y0056100D01*
X0313425Y0056062D02*
X0312480Y0056062D01*
X0312480Y0056024D02*
X0313425Y0056024D01*
X0313425Y0055986D02*
X0312480Y0055986D01*
X0312480Y0055948D02*
X0313425Y0055948D01*
X0313425Y0055910D02*
X0312480Y0055910D01*
X0312480Y0055872D02*
X0313425Y0055872D01*
X0313425Y0055834D02*
X0312480Y0055834D01*
X0312480Y0055797D02*
X0313425Y0055797D01*
X0313425Y0055759D02*
X0312480Y0055759D01*
X0312480Y0055721D02*
X0313425Y0055721D01*
X0313425Y0055683D02*
X0312480Y0055683D01*
X0312480Y0055645D02*
X0313425Y0055645D01*
X0313425Y0055607D02*
X0312480Y0055607D01*
X0312480Y0055569D02*
X0313425Y0055569D01*
X0313425Y0055531D02*
X0312480Y0055531D01*
X0312480Y0055493D02*
X0313425Y0055493D01*
X0313425Y0055456D02*
X0312480Y0055456D01*
X0312480Y0055418D02*
X0313425Y0055418D01*
X0314449Y0055418D02*
X0315394Y0055418D01*
X0315394Y0055394D02*
X0315394Y0058465D01*
X0314449Y0058465D01*
X0314449Y0055394D01*
X0315394Y0055394D01*
X0315394Y0055456D02*
X0314449Y0055456D01*
X0314449Y0055493D02*
X0315394Y0055493D01*
X0315394Y0055531D02*
X0314449Y0055531D01*
X0314449Y0055569D02*
X0315394Y0055569D01*
X0315394Y0055607D02*
X0314449Y0055607D01*
X0314449Y0055645D02*
X0315394Y0055645D01*
X0315394Y0055683D02*
X0314449Y0055683D01*
X0314449Y0055721D02*
X0315394Y0055721D01*
X0315394Y0055759D02*
X0314449Y0055759D01*
X0314449Y0055797D02*
X0315394Y0055797D01*
X0315394Y0055834D02*
X0314449Y0055834D01*
X0314449Y0055872D02*
X0315394Y0055872D01*
X0315394Y0055910D02*
X0314449Y0055910D01*
X0314449Y0055948D02*
X0315394Y0055948D01*
X0315394Y0055986D02*
X0314449Y0055986D01*
X0314449Y0056024D02*
X0315394Y0056024D01*
X0315394Y0056062D02*
X0314449Y0056062D01*
X0314449Y0056100D02*
X0315394Y0056100D01*
X0315394Y0056137D02*
X0314449Y0056137D01*
X0314449Y0056175D02*
X0315394Y0056175D01*
X0315394Y0056213D02*
X0314449Y0056213D01*
X0314449Y0056251D02*
X0315394Y0056251D01*
X0315394Y0056289D02*
X0314449Y0056289D01*
X0314449Y0056327D02*
X0315394Y0056327D01*
X0315394Y0056365D02*
X0314449Y0056365D01*
X0314449Y0056403D02*
X0315394Y0056403D01*
X0315394Y0056441D02*
X0314449Y0056441D01*
X0314449Y0056478D02*
X0315394Y0056478D01*
X0315394Y0056516D02*
X0314449Y0056516D01*
X0314449Y0056554D02*
X0315394Y0056554D01*
X0315394Y0056592D02*
X0314449Y0056592D01*
X0314449Y0056630D02*
X0315394Y0056630D01*
X0315394Y0056668D02*
X0314449Y0056668D01*
X0314449Y0056706D02*
X0315394Y0056706D01*
X0315394Y0056744D02*
X0314449Y0056744D01*
X0314449Y0056781D02*
X0315394Y0056781D01*
X0315394Y0056819D02*
X0314449Y0056819D01*
X0314449Y0056857D02*
X0315394Y0056857D01*
X0315394Y0056895D02*
X0314449Y0056895D01*
X0314449Y0056933D02*
X0315394Y0056933D01*
X0315394Y0056971D02*
X0314449Y0056971D01*
X0314449Y0057009D02*
X0315394Y0057009D01*
X0315394Y0057047D02*
X0314449Y0057047D01*
X0314449Y0057085D02*
X0315394Y0057085D01*
X0315394Y0057122D02*
X0314449Y0057122D01*
X0314449Y0057160D02*
X0315394Y0057160D01*
X0315394Y0057198D02*
X0314449Y0057198D01*
X0314449Y0057236D02*
X0315394Y0057236D01*
X0315394Y0057274D02*
X0314449Y0057274D01*
X0314449Y0057312D02*
X0315394Y0057312D01*
X0315394Y0057350D02*
X0314449Y0057350D01*
X0314449Y0057388D02*
X0315394Y0057388D01*
X0315394Y0057425D02*
X0314449Y0057425D01*
X0314449Y0057463D02*
X0315394Y0057463D01*
X0315394Y0057501D02*
X0314449Y0057501D01*
X0314449Y0057539D02*
X0315394Y0057539D01*
X0315394Y0057577D02*
X0314449Y0057577D01*
X0314449Y0057615D02*
X0315394Y0057615D01*
X0315394Y0057653D02*
X0314449Y0057653D01*
X0314449Y0057691D02*
X0315394Y0057691D01*
X0315394Y0057728D02*
X0314449Y0057728D01*
X0314449Y0057766D02*
X0315394Y0057766D01*
X0315394Y0057804D02*
X0314449Y0057804D01*
X0314449Y0057842D02*
X0315394Y0057842D01*
X0315394Y0057880D02*
X0314449Y0057880D01*
X0314449Y0057918D02*
X0315394Y0057918D01*
X0315394Y0057956D02*
X0314449Y0057956D01*
X0314449Y0057994D02*
X0315394Y0057994D01*
X0315394Y0058032D02*
X0314449Y0058032D01*
X0314449Y0058069D02*
X0315394Y0058069D01*
X0315394Y0058107D02*
X0314449Y0058107D01*
X0314449Y0058145D02*
X0315394Y0058145D01*
X0315394Y0058183D02*
X0314449Y0058183D01*
X0314449Y0058221D02*
X0315394Y0058221D01*
X0315394Y0058259D02*
X0314449Y0058259D01*
X0314449Y0058297D02*
X0315394Y0058297D01*
X0315394Y0058335D02*
X0314449Y0058335D01*
X0314449Y0058372D02*
X0315394Y0058372D01*
X0315394Y0058410D02*
X0314449Y0058410D01*
X0314449Y0058448D02*
X0315394Y0058448D01*
X0316535Y0059606D02*
X0316535Y0060551D01*
X0319606Y0060551D01*
X0319606Y0059606D01*
X0316535Y0059606D01*
X0316535Y0059623D02*
X0319606Y0059623D01*
X0319606Y0059660D02*
X0316535Y0059660D01*
X0316535Y0059698D02*
X0319606Y0059698D01*
X0319606Y0059736D02*
X0316535Y0059736D01*
X0316535Y0059774D02*
X0319606Y0059774D01*
X0319606Y0059812D02*
X0316535Y0059812D01*
X0316535Y0059850D02*
X0319606Y0059850D01*
X0319606Y0059888D02*
X0316535Y0059888D01*
X0316535Y0059926D02*
X0319606Y0059926D01*
X0319606Y0059963D02*
X0316535Y0059963D01*
X0316535Y0060001D02*
X0319606Y0060001D01*
X0319606Y0060039D02*
X0316535Y0060039D01*
X0316535Y0060077D02*
X0319606Y0060077D01*
X0319606Y0060115D02*
X0316535Y0060115D01*
X0316535Y0060153D02*
X0319606Y0060153D01*
X0319606Y0060191D02*
X0316535Y0060191D01*
X0316535Y0060229D02*
X0319606Y0060229D01*
X0319606Y0060267D02*
X0316535Y0060267D01*
X0316535Y0060304D02*
X0319606Y0060304D01*
X0319606Y0060342D02*
X0316535Y0060342D01*
X0316535Y0060380D02*
X0319606Y0060380D01*
X0319606Y0060418D02*
X0316535Y0060418D01*
X0316535Y0060456D02*
X0319606Y0060456D01*
X0319606Y0060494D02*
X0316535Y0060494D01*
X0316535Y0060532D02*
X0319606Y0060532D01*
X0319606Y0061575D02*
X0316535Y0061575D01*
X0316535Y0062520D01*
X0319606Y0062520D01*
X0319606Y0061575D01*
X0319606Y0061592D02*
X0316535Y0061592D01*
X0316535Y0061630D02*
X0319606Y0061630D01*
X0319606Y0061668D02*
X0316535Y0061668D01*
X0316535Y0061706D02*
X0319606Y0061706D01*
X0319606Y0061744D02*
X0316535Y0061744D01*
X0316535Y0061782D02*
X0319606Y0061782D01*
X0319606Y0061820D02*
X0316535Y0061820D01*
X0316535Y0061858D02*
X0319606Y0061858D01*
X0319606Y0061895D02*
X0316535Y0061895D01*
X0316535Y0061933D02*
X0319606Y0061933D01*
X0319606Y0061971D02*
X0316535Y0061971D01*
X0316535Y0062009D02*
X0319606Y0062009D01*
X0319606Y0062047D02*
X0316535Y0062047D01*
X0316535Y0062085D02*
X0319606Y0062085D01*
X0319606Y0062123D02*
X0316535Y0062123D01*
X0316535Y0062161D02*
X0319606Y0062161D01*
X0319606Y0062198D02*
X0316535Y0062198D01*
X0316535Y0062236D02*
X0319606Y0062236D01*
X0319606Y0062274D02*
X0316535Y0062274D01*
X0316535Y0062312D02*
X0319606Y0062312D01*
X0319606Y0062350D02*
X0316535Y0062350D01*
X0316535Y0062388D02*
X0319606Y0062388D01*
X0319606Y0062426D02*
X0316535Y0062426D01*
X0316535Y0062464D02*
X0319606Y0062464D01*
X0319606Y0062502D02*
X0316535Y0062502D01*
X0316535Y0063543D02*
X0316535Y0064488D01*
X0319606Y0064488D01*
X0319606Y0063543D01*
X0316535Y0063543D01*
X0316535Y0063562D02*
X0319606Y0063562D01*
X0319606Y0063600D02*
X0316535Y0063600D01*
X0316535Y0063638D02*
X0319606Y0063638D01*
X0319606Y0063676D02*
X0316535Y0063676D01*
X0316535Y0063714D02*
X0319606Y0063714D01*
X0319606Y0063752D02*
X0316535Y0063752D01*
X0316535Y0063790D02*
X0319606Y0063790D01*
X0319606Y0063827D02*
X0316535Y0063827D01*
X0316535Y0063865D02*
X0319606Y0063865D01*
X0319606Y0063903D02*
X0316535Y0063903D01*
X0316535Y0063941D02*
X0319606Y0063941D01*
X0319606Y0063979D02*
X0316535Y0063979D01*
X0316535Y0064017D02*
X0319606Y0064017D01*
X0319606Y0064055D02*
X0316535Y0064055D01*
X0316535Y0064093D02*
X0319606Y0064093D01*
X0319606Y0064130D02*
X0316535Y0064130D01*
X0316535Y0064168D02*
X0319606Y0064168D01*
X0319606Y0064206D02*
X0316535Y0064206D01*
X0316535Y0064244D02*
X0319606Y0064244D01*
X0319606Y0064282D02*
X0316535Y0064282D01*
X0316535Y0064320D02*
X0319606Y0064320D01*
X0319606Y0064358D02*
X0316535Y0064358D01*
X0316535Y0064396D02*
X0319606Y0064396D01*
X0319606Y0064434D02*
X0316535Y0064434D01*
X0316535Y0064471D02*
X0319606Y0064471D01*
X0319606Y0065512D02*
X0316535Y0065512D01*
X0316535Y0066457D01*
X0319606Y0066457D01*
X0319606Y0065512D01*
X0319606Y0065532D02*
X0316535Y0065532D01*
X0316535Y0065570D02*
X0319606Y0065570D01*
X0319606Y0065608D02*
X0316535Y0065608D01*
X0316535Y0065646D02*
X0319606Y0065646D01*
X0319606Y0065684D02*
X0316535Y0065684D01*
X0316535Y0065721D02*
X0319606Y0065721D01*
X0319606Y0065759D02*
X0316535Y0065759D01*
X0316535Y0065797D02*
X0319606Y0065797D01*
X0319606Y0065835D02*
X0316535Y0065835D01*
X0316535Y0065873D02*
X0319606Y0065873D01*
X0319606Y0065911D02*
X0316535Y0065911D01*
X0316535Y0065949D02*
X0319606Y0065949D01*
X0319606Y0065987D02*
X0316535Y0065987D01*
X0316535Y0066025D02*
X0319606Y0066025D01*
X0319606Y0066062D02*
X0316535Y0066062D01*
X0316535Y0066100D02*
X0319606Y0066100D01*
X0319606Y0066138D02*
X0316535Y0066138D01*
X0316535Y0066176D02*
X0319606Y0066176D01*
X0319606Y0066214D02*
X0316535Y0066214D01*
X0316535Y0066252D02*
X0319606Y0066252D01*
X0319606Y0066290D02*
X0316535Y0066290D01*
X0316535Y0066328D02*
X0319606Y0066328D01*
X0319606Y0066365D02*
X0316535Y0066365D01*
X0316535Y0066403D02*
X0319606Y0066403D01*
X0319606Y0066441D02*
X0316535Y0066441D01*
X0316535Y0067480D02*
X0316535Y0068425D01*
X0319606Y0068425D01*
X0319606Y0067480D01*
X0316535Y0067480D01*
X0316535Y0067502D02*
X0319606Y0067502D01*
X0319606Y0067540D02*
X0316535Y0067540D01*
X0316535Y0067578D02*
X0319606Y0067578D01*
X0319606Y0067616D02*
X0316535Y0067616D01*
X0316535Y0067653D02*
X0319606Y0067653D01*
X0319606Y0067691D02*
X0316535Y0067691D01*
X0316535Y0067729D02*
X0319606Y0067729D01*
X0319606Y0067767D02*
X0316535Y0067767D01*
X0316535Y0067805D02*
X0319606Y0067805D01*
X0319606Y0067843D02*
X0316535Y0067843D01*
X0316535Y0067881D02*
X0319606Y0067881D01*
X0319606Y0067919D02*
X0316535Y0067919D01*
X0316535Y0067956D02*
X0319606Y0067956D01*
X0319606Y0067994D02*
X0316535Y0067994D01*
X0316535Y0068032D02*
X0319606Y0068032D01*
X0319606Y0068070D02*
X0316535Y0068070D01*
X0316535Y0068108D02*
X0319606Y0068108D01*
X0319606Y0068146D02*
X0316535Y0068146D01*
X0316535Y0068184D02*
X0319606Y0068184D01*
X0319606Y0068222D02*
X0316535Y0068222D01*
X0316535Y0068260D02*
X0319606Y0068260D01*
X0319606Y0068297D02*
X0316535Y0068297D01*
X0316535Y0068335D02*
X0319606Y0068335D01*
X0319606Y0068373D02*
X0316535Y0068373D01*
X0316535Y0068411D02*
X0319606Y0068411D01*
X0319606Y0069449D02*
X0316535Y0069449D01*
X0316535Y0070394D01*
X0319606Y0070394D01*
X0319606Y0069449D01*
X0319606Y0069472D02*
X0316535Y0069472D01*
X0316535Y0069510D02*
X0319606Y0069510D01*
X0319606Y0069547D02*
X0316535Y0069547D01*
X0316535Y0069585D02*
X0319606Y0069585D01*
X0319606Y0069623D02*
X0316535Y0069623D01*
X0316535Y0069661D02*
X0319606Y0069661D01*
X0319606Y0069699D02*
X0316535Y0069699D01*
X0316535Y0069737D02*
X0319606Y0069737D01*
X0319606Y0069775D02*
X0316535Y0069775D01*
X0316535Y0069813D02*
X0319606Y0069813D01*
X0319606Y0069851D02*
X0316535Y0069851D01*
X0316535Y0069888D02*
X0319606Y0069888D01*
X0319606Y0069926D02*
X0316535Y0069926D01*
X0316535Y0069964D02*
X0319606Y0069964D01*
X0319606Y0070002D02*
X0316535Y0070002D01*
X0316535Y0070040D02*
X0319606Y0070040D01*
X0319606Y0070078D02*
X0316535Y0070078D01*
X0316535Y0070116D02*
X0319606Y0070116D01*
X0319606Y0070154D02*
X0316535Y0070154D01*
X0316535Y0070191D02*
X0319606Y0070191D01*
X0319606Y0070229D02*
X0316535Y0070229D01*
X0316535Y0070267D02*
X0319606Y0070267D01*
X0319606Y0070305D02*
X0316535Y0070305D01*
X0316535Y0070343D02*
X0319606Y0070343D01*
X0319606Y0070381D02*
X0316535Y0070381D01*
X0315394Y0071535D02*
X0314449Y0071535D01*
X0314449Y0074606D01*
X0315394Y0074606D01*
X0315394Y0071535D01*
X0315394Y0071555D02*
X0314449Y0071555D01*
X0314449Y0071593D02*
X0315394Y0071593D01*
X0315394Y0071631D02*
X0314449Y0071631D01*
X0314449Y0071669D02*
X0315394Y0071669D01*
X0315394Y0071707D02*
X0314449Y0071707D01*
X0314449Y0071745D02*
X0315394Y0071745D01*
X0315394Y0071782D02*
X0314449Y0071782D01*
X0314449Y0071820D02*
X0315394Y0071820D01*
X0315394Y0071858D02*
X0314449Y0071858D01*
X0314449Y0071896D02*
X0315394Y0071896D01*
X0315394Y0071934D02*
X0314449Y0071934D01*
X0314449Y0071972D02*
X0315394Y0071972D01*
X0315394Y0072010D02*
X0314449Y0072010D01*
X0314449Y0072048D02*
X0315394Y0072048D01*
X0315394Y0072086D02*
X0314449Y0072086D01*
X0314449Y0072123D02*
X0315394Y0072123D01*
X0315394Y0072161D02*
X0314449Y0072161D01*
X0314449Y0072199D02*
X0315394Y0072199D01*
X0315394Y0072237D02*
X0314449Y0072237D01*
X0314449Y0072275D02*
X0315394Y0072275D01*
X0315394Y0072313D02*
X0314449Y0072313D01*
X0314449Y0072351D02*
X0315394Y0072351D01*
X0315394Y0072389D02*
X0314449Y0072389D01*
X0314449Y0072426D02*
X0315394Y0072426D01*
X0315394Y0072464D02*
X0314449Y0072464D01*
X0314449Y0072502D02*
X0315394Y0072502D01*
X0315394Y0072540D02*
X0314449Y0072540D01*
X0314449Y0072578D02*
X0315394Y0072578D01*
X0315394Y0072616D02*
X0314449Y0072616D01*
X0314449Y0072654D02*
X0315394Y0072654D01*
X0315394Y0072692D02*
X0314449Y0072692D01*
X0314449Y0072730D02*
X0315394Y0072730D01*
X0315394Y0072767D02*
X0314449Y0072767D01*
X0314449Y0072805D02*
X0315394Y0072805D01*
X0315394Y0072843D02*
X0314449Y0072843D01*
X0314449Y0072881D02*
X0315394Y0072881D01*
X0315394Y0072919D02*
X0314449Y0072919D01*
X0314449Y0072957D02*
X0315394Y0072957D01*
X0315394Y0072995D02*
X0314449Y0072995D01*
X0314449Y0073033D02*
X0315394Y0073033D01*
X0315394Y0073070D02*
X0314449Y0073070D01*
X0314449Y0073108D02*
X0315394Y0073108D01*
X0315394Y0073146D02*
X0314449Y0073146D01*
X0314449Y0073184D02*
X0315394Y0073184D01*
X0315394Y0073222D02*
X0314449Y0073222D01*
X0314449Y0073260D02*
X0315394Y0073260D01*
X0315394Y0073298D02*
X0314449Y0073298D01*
X0314449Y0073336D02*
X0315394Y0073336D01*
X0315394Y0073374D02*
X0314449Y0073374D01*
X0314449Y0073411D02*
X0315394Y0073411D01*
X0315394Y0073449D02*
X0314449Y0073449D01*
X0314449Y0073487D02*
X0315394Y0073487D01*
X0315394Y0073525D02*
X0314449Y0073525D01*
X0314449Y0073563D02*
X0315394Y0073563D01*
X0315394Y0073601D02*
X0314449Y0073601D01*
X0314449Y0073639D02*
X0315394Y0073639D01*
X0315394Y0073677D02*
X0314449Y0073677D01*
X0314449Y0073714D02*
X0315394Y0073714D01*
X0315394Y0073752D02*
X0314449Y0073752D01*
X0314449Y0073790D02*
X0315394Y0073790D01*
X0315394Y0073828D02*
X0314449Y0073828D01*
X0314449Y0073866D02*
X0315394Y0073866D01*
X0315394Y0073904D02*
X0314449Y0073904D01*
X0314449Y0073942D02*
X0315394Y0073942D01*
X0315394Y0073980D02*
X0314449Y0073980D01*
X0314449Y0074017D02*
X0315394Y0074017D01*
X0315394Y0074055D02*
X0314449Y0074055D01*
X0314449Y0074093D02*
X0315394Y0074093D01*
X0315394Y0074131D02*
X0314449Y0074131D01*
X0314449Y0074169D02*
X0315394Y0074169D01*
X0315394Y0074207D02*
X0314449Y0074207D01*
X0314449Y0074245D02*
X0315394Y0074245D01*
X0315394Y0074283D02*
X0314449Y0074283D01*
X0314449Y0074321D02*
X0315394Y0074321D01*
X0315394Y0074358D02*
X0314449Y0074358D01*
X0314449Y0074396D02*
X0315394Y0074396D01*
X0315394Y0074434D02*
X0314449Y0074434D01*
X0314449Y0074472D02*
X0315394Y0074472D01*
X0315394Y0074510D02*
X0314449Y0074510D01*
X0314449Y0074548D02*
X0315394Y0074548D01*
X0315394Y0074586D02*
X0314449Y0074586D01*
X0313425Y0074586D02*
X0312480Y0074586D01*
X0312480Y0074606D02*
X0312480Y0071535D01*
X0313425Y0071535D01*
X0313425Y0074606D01*
X0312480Y0074606D01*
X0312480Y0074548D02*
X0313425Y0074548D01*
X0313425Y0074510D02*
X0312480Y0074510D01*
X0312480Y0074472D02*
X0313425Y0074472D01*
X0313425Y0074434D02*
X0312480Y0074434D01*
X0312480Y0074396D02*
X0313425Y0074396D01*
X0313425Y0074358D02*
X0312480Y0074358D01*
X0312480Y0074321D02*
X0313425Y0074321D01*
X0313425Y0074283D02*
X0312480Y0074283D01*
X0312480Y0074245D02*
X0313425Y0074245D01*
X0313425Y0074207D02*
X0312480Y0074207D01*
X0312480Y0074169D02*
X0313425Y0074169D01*
X0313425Y0074131D02*
X0312480Y0074131D01*
X0312480Y0074093D02*
X0313425Y0074093D01*
X0313425Y0074055D02*
X0312480Y0074055D01*
X0312480Y0074017D02*
X0313425Y0074017D01*
X0313425Y0073980D02*
X0312480Y0073980D01*
X0312480Y0073942D02*
X0313425Y0073942D01*
X0313425Y0073904D02*
X0312480Y0073904D01*
X0312480Y0073866D02*
X0313425Y0073866D01*
X0313425Y0073828D02*
X0312480Y0073828D01*
X0312480Y0073790D02*
X0313425Y0073790D01*
X0313425Y0073752D02*
X0312480Y0073752D01*
X0312480Y0073714D02*
X0313425Y0073714D01*
X0313425Y0073677D02*
X0312480Y0073677D01*
X0312480Y0073639D02*
X0313425Y0073639D01*
X0313425Y0073601D02*
X0312480Y0073601D01*
X0312480Y0073563D02*
X0313425Y0073563D01*
X0313425Y0073525D02*
X0312480Y0073525D01*
X0312480Y0073487D02*
X0313425Y0073487D01*
X0313425Y0073449D02*
X0312480Y0073449D01*
X0312480Y0073411D02*
X0313425Y0073411D01*
X0313425Y0073374D02*
X0312480Y0073374D01*
X0312480Y0073336D02*
X0313425Y0073336D01*
X0313425Y0073298D02*
X0312480Y0073298D01*
X0312480Y0073260D02*
X0313425Y0073260D01*
X0313425Y0073222D02*
X0312480Y0073222D01*
X0312480Y0073184D02*
X0313425Y0073184D01*
X0313425Y0073146D02*
X0312480Y0073146D01*
X0312480Y0073108D02*
X0313425Y0073108D01*
X0313425Y0073070D02*
X0312480Y0073070D01*
X0312480Y0073033D02*
X0313425Y0073033D01*
X0313425Y0072995D02*
X0312480Y0072995D01*
X0312480Y0072957D02*
X0313425Y0072957D01*
X0313425Y0072919D02*
X0312480Y0072919D01*
X0312480Y0072881D02*
X0313425Y0072881D01*
X0313425Y0072843D02*
X0312480Y0072843D01*
X0312480Y0072805D02*
X0313425Y0072805D01*
X0313425Y0072767D02*
X0312480Y0072767D01*
X0312480Y0072730D02*
X0313425Y0072730D01*
X0313425Y0072692D02*
X0312480Y0072692D01*
X0312480Y0072654D02*
X0313425Y0072654D01*
X0313425Y0072616D02*
X0312480Y0072616D01*
X0312480Y0072578D02*
X0313425Y0072578D01*
X0313425Y0072540D02*
X0312480Y0072540D01*
X0312480Y0072502D02*
X0313425Y0072502D01*
X0313425Y0072464D02*
X0312480Y0072464D01*
X0312480Y0072426D02*
X0313425Y0072426D01*
X0313425Y0072389D02*
X0312480Y0072389D01*
X0312480Y0072351D02*
X0313425Y0072351D01*
X0313425Y0072313D02*
X0312480Y0072313D01*
X0312480Y0072275D02*
X0313425Y0072275D01*
X0313425Y0072237D02*
X0312480Y0072237D01*
X0312480Y0072199D02*
X0313425Y0072199D01*
X0313425Y0072161D02*
X0312480Y0072161D01*
X0312480Y0072123D02*
X0313425Y0072123D01*
X0313425Y0072086D02*
X0312480Y0072086D01*
X0312480Y0072048D02*
X0313425Y0072048D01*
X0313425Y0072010D02*
X0312480Y0072010D01*
X0312480Y0071972D02*
X0313425Y0071972D01*
X0313425Y0071934D02*
X0312480Y0071934D01*
X0312480Y0071896D02*
X0313425Y0071896D01*
X0313425Y0071858D02*
X0312480Y0071858D01*
X0312480Y0071820D02*
X0313425Y0071820D01*
X0313425Y0071782D02*
X0312480Y0071782D01*
X0312480Y0071745D02*
X0313425Y0071745D01*
X0313425Y0071707D02*
X0312480Y0071707D01*
X0312480Y0071669D02*
X0313425Y0071669D01*
X0313425Y0071631D02*
X0312480Y0071631D01*
X0312480Y0071593D02*
X0313425Y0071593D01*
X0313425Y0071555D02*
X0312480Y0071555D01*
X0311457Y0071555D02*
X0310512Y0071555D01*
X0310512Y0071535D02*
X0310512Y0074606D01*
X0311457Y0074606D01*
X0311457Y0071535D01*
X0310512Y0071535D01*
X0310512Y0071593D02*
X0311457Y0071593D01*
X0311457Y0071631D02*
X0310512Y0071631D01*
X0310512Y0071669D02*
X0311457Y0071669D01*
X0311457Y0071707D02*
X0310512Y0071707D01*
X0310512Y0071745D02*
X0311457Y0071745D01*
X0311457Y0071782D02*
X0310512Y0071782D01*
X0310512Y0071820D02*
X0311457Y0071820D01*
X0311457Y0071858D02*
X0310512Y0071858D01*
X0310512Y0071896D02*
X0311457Y0071896D01*
X0311457Y0071934D02*
X0310512Y0071934D01*
X0310512Y0071972D02*
X0311457Y0071972D01*
X0311457Y0072010D02*
X0310512Y0072010D01*
X0310512Y0072048D02*
X0311457Y0072048D01*
X0311457Y0072086D02*
X0310512Y0072086D01*
X0310512Y0072123D02*
X0311457Y0072123D01*
X0311457Y0072161D02*
X0310512Y0072161D01*
X0310512Y0072199D02*
X0311457Y0072199D01*
X0311457Y0072237D02*
X0310512Y0072237D01*
X0310512Y0072275D02*
X0311457Y0072275D01*
X0311457Y0072313D02*
X0310512Y0072313D01*
X0310512Y0072351D02*
X0311457Y0072351D01*
X0311457Y0072389D02*
X0310512Y0072389D01*
X0310512Y0072426D02*
X0311457Y0072426D01*
X0311457Y0072464D02*
X0310512Y0072464D01*
X0310512Y0072502D02*
X0311457Y0072502D01*
X0311457Y0072540D02*
X0310512Y0072540D01*
X0310512Y0072578D02*
X0311457Y0072578D01*
X0311457Y0072616D02*
X0310512Y0072616D01*
X0310512Y0072654D02*
X0311457Y0072654D01*
X0311457Y0072692D02*
X0310512Y0072692D01*
X0310512Y0072730D02*
X0311457Y0072730D01*
X0311457Y0072767D02*
X0310512Y0072767D01*
X0310512Y0072805D02*
X0311457Y0072805D01*
X0311457Y0072843D02*
X0310512Y0072843D01*
X0310512Y0072881D02*
X0311457Y0072881D01*
X0311457Y0072919D02*
X0310512Y0072919D01*
X0310512Y0072957D02*
X0311457Y0072957D01*
X0311457Y0072995D02*
X0310512Y0072995D01*
X0310512Y0073033D02*
X0311457Y0073033D01*
X0311457Y0073070D02*
X0310512Y0073070D01*
X0310512Y0073108D02*
X0311457Y0073108D01*
X0311457Y0073146D02*
X0310512Y0073146D01*
X0310512Y0073184D02*
X0311457Y0073184D01*
X0311457Y0073222D02*
X0310512Y0073222D01*
X0310512Y0073260D02*
X0311457Y0073260D01*
X0311457Y0073298D02*
X0310512Y0073298D01*
X0310512Y0073336D02*
X0311457Y0073336D01*
X0311457Y0073374D02*
X0310512Y0073374D01*
X0310512Y0073411D02*
X0311457Y0073411D01*
X0311457Y0073449D02*
X0310512Y0073449D01*
X0310512Y0073487D02*
X0311457Y0073487D01*
X0311457Y0073525D02*
X0310512Y0073525D01*
X0310512Y0073563D02*
X0311457Y0073563D01*
X0311457Y0073601D02*
X0310512Y0073601D01*
X0310512Y0073639D02*
X0311457Y0073639D01*
X0311457Y0073677D02*
X0310512Y0073677D01*
X0310512Y0073714D02*
X0311457Y0073714D01*
X0311457Y0073752D02*
X0310512Y0073752D01*
X0310512Y0073790D02*
X0311457Y0073790D01*
X0311457Y0073828D02*
X0310512Y0073828D01*
X0310512Y0073866D02*
X0311457Y0073866D01*
X0311457Y0073904D02*
X0310512Y0073904D01*
X0310512Y0073942D02*
X0311457Y0073942D01*
X0311457Y0073980D02*
X0310512Y0073980D01*
X0310512Y0074017D02*
X0311457Y0074017D01*
X0311457Y0074055D02*
X0310512Y0074055D01*
X0310512Y0074093D02*
X0311457Y0074093D01*
X0311457Y0074131D02*
X0310512Y0074131D01*
X0310512Y0074169D02*
X0311457Y0074169D01*
X0311457Y0074207D02*
X0310512Y0074207D01*
X0310512Y0074245D02*
X0311457Y0074245D01*
X0311457Y0074283D02*
X0310512Y0074283D01*
X0310512Y0074321D02*
X0311457Y0074321D01*
X0311457Y0074358D02*
X0310512Y0074358D01*
X0310512Y0074396D02*
X0311457Y0074396D01*
X0311457Y0074434D02*
X0310512Y0074434D01*
X0310512Y0074472D02*
X0311457Y0074472D01*
X0311457Y0074510D02*
X0310512Y0074510D01*
X0310512Y0074548D02*
X0311457Y0074548D01*
X0311457Y0074586D02*
X0310512Y0074586D01*
X0309488Y0074586D02*
X0308543Y0074586D01*
X0308543Y0074606D02*
X0308543Y0071535D01*
X0309488Y0071535D01*
X0309488Y0074606D01*
X0308543Y0074606D01*
X0308543Y0074548D02*
X0309488Y0074548D01*
X0309488Y0074510D02*
X0308543Y0074510D01*
X0308543Y0074472D02*
X0309488Y0074472D01*
X0309488Y0074434D02*
X0308543Y0074434D01*
X0308543Y0074396D02*
X0309488Y0074396D01*
X0309488Y0074358D02*
X0308543Y0074358D01*
X0308543Y0074321D02*
X0309488Y0074321D01*
X0309488Y0074283D02*
X0308543Y0074283D01*
X0308543Y0074245D02*
X0309488Y0074245D01*
X0309488Y0074207D02*
X0308543Y0074207D01*
X0308543Y0074169D02*
X0309488Y0074169D01*
X0309488Y0074131D02*
X0308543Y0074131D01*
X0308543Y0074093D02*
X0309488Y0074093D01*
X0309488Y0074055D02*
X0308543Y0074055D01*
X0308543Y0074017D02*
X0309488Y0074017D01*
X0309488Y0073980D02*
X0308543Y0073980D01*
X0308543Y0073942D02*
X0309488Y0073942D01*
X0309488Y0073904D02*
X0308543Y0073904D01*
X0308543Y0073866D02*
X0309488Y0073866D01*
X0309488Y0073828D02*
X0308543Y0073828D01*
X0308543Y0073790D02*
X0309488Y0073790D01*
X0309488Y0073752D02*
X0308543Y0073752D01*
X0308543Y0073714D02*
X0309488Y0073714D01*
X0309488Y0073677D02*
X0308543Y0073677D01*
X0308543Y0073639D02*
X0309488Y0073639D01*
X0309488Y0073601D02*
X0308543Y0073601D01*
X0308543Y0073563D02*
X0309488Y0073563D01*
X0309488Y0073525D02*
X0308543Y0073525D01*
X0308543Y0073487D02*
X0309488Y0073487D01*
X0309488Y0073449D02*
X0308543Y0073449D01*
X0308543Y0073411D02*
X0309488Y0073411D01*
X0309488Y0073374D02*
X0308543Y0073374D01*
X0308543Y0073336D02*
X0309488Y0073336D01*
X0309488Y0073298D02*
X0308543Y0073298D01*
X0308543Y0073260D02*
X0309488Y0073260D01*
X0309488Y0073222D02*
X0308543Y0073222D01*
X0308543Y0073184D02*
X0309488Y0073184D01*
X0309488Y0073146D02*
X0308543Y0073146D01*
X0308543Y0073108D02*
X0309488Y0073108D01*
X0309488Y0073070D02*
X0308543Y0073070D01*
X0308543Y0073033D02*
X0309488Y0073033D01*
X0309488Y0072995D02*
X0308543Y0072995D01*
X0308543Y0072957D02*
X0309488Y0072957D01*
X0309488Y0072919D02*
X0308543Y0072919D01*
X0308543Y0072881D02*
X0309488Y0072881D01*
X0309488Y0072843D02*
X0308543Y0072843D01*
X0308543Y0072805D02*
X0309488Y0072805D01*
X0309488Y0072767D02*
X0308543Y0072767D01*
X0308543Y0072730D02*
X0309488Y0072730D01*
X0309488Y0072692D02*
X0308543Y0072692D01*
X0308543Y0072654D02*
X0309488Y0072654D01*
X0309488Y0072616D02*
X0308543Y0072616D01*
X0308543Y0072578D02*
X0309488Y0072578D01*
X0309488Y0072540D02*
X0308543Y0072540D01*
X0308543Y0072502D02*
X0309488Y0072502D01*
X0309488Y0072464D02*
X0308543Y0072464D01*
X0308543Y0072426D02*
X0309488Y0072426D01*
X0309488Y0072389D02*
X0308543Y0072389D01*
X0308543Y0072351D02*
X0309488Y0072351D01*
X0309488Y0072313D02*
X0308543Y0072313D01*
X0308543Y0072275D02*
X0309488Y0072275D01*
X0309488Y0072237D02*
X0308543Y0072237D01*
X0308543Y0072199D02*
X0309488Y0072199D01*
X0309488Y0072161D02*
X0308543Y0072161D01*
X0308543Y0072123D02*
X0309488Y0072123D01*
X0309488Y0072086D02*
X0308543Y0072086D01*
X0308543Y0072048D02*
X0309488Y0072048D01*
X0309488Y0072010D02*
X0308543Y0072010D01*
X0308543Y0071972D02*
X0309488Y0071972D01*
X0309488Y0071934D02*
X0308543Y0071934D01*
X0308543Y0071896D02*
X0309488Y0071896D01*
X0309488Y0071858D02*
X0308543Y0071858D01*
X0308543Y0071820D02*
X0309488Y0071820D01*
X0309488Y0071782D02*
X0308543Y0071782D01*
X0308543Y0071745D02*
X0309488Y0071745D01*
X0309488Y0071707D02*
X0308543Y0071707D01*
X0308543Y0071669D02*
X0309488Y0071669D01*
X0309488Y0071631D02*
X0308543Y0071631D01*
X0308543Y0071593D02*
X0309488Y0071593D01*
X0309488Y0071555D02*
X0308543Y0071555D01*
X0307520Y0071555D02*
X0306575Y0071555D01*
X0306575Y0071535D02*
X0306575Y0074606D01*
X0307520Y0074606D01*
X0307520Y0071535D01*
X0306575Y0071535D01*
X0306575Y0071593D02*
X0307520Y0071593D01*
X0307520Y0071631D02*
X0306575Y0071631D01*
X0306575Y0071669D02*
X0307520Y0071669D01*
X0307520Y0071707D02*
X0306575Y0071707D01*
X0306575Y0071745D02*
X0307520Y0071745D01*
X0307520Y0071782D02*
X0306575Y0071782D01*
X0306575Y0071820D02*
X0307520Y0071820D01*
X0307520Y0071858D02*
X0306575Y0071858D01*
X0306575Y0071896D02*
X0307520Y0071896D01*
X0307520Y0071934D02*
X0306575Y0071934D01*
X0306575Y0071972D02*
X0307520Y0071972D01*
X0307520Y0072010D02*
X0306575Y0072010D01*
X0306575Y0072048D02*
X0307520Y0072048D01*
X0307520Y0072086D02*
X0306575Y0072086D01*
X0306575Y0072123D02*
X0307520Y0072123D01*
X0307520Y0072161D02*
X0306575Y0072161D01*
X0306575Y0072199D02*
X0307520Y0072199D01*
X0307520Y0072237D02*
X0306575Y0072237D01*
X0306575Y0072275D02*
X0307520Y0072275D01*
X0307520Y0072313D02*
X0306575Y0072313D01*
X0306575Y0072351D02*
X0307520Y0072351D01*
X0307520Y0072389D02*
X0306575Y0072389D01*
X0306575Y0072426D02*
X0307520Y0072426D01*
X0307520Y0072464D02*
X0306575Y0072464D01*
X0306575Y0072502D02*
X0307520Y0072502D01*
X0307520Y0072540D02*
X0306575Y0072540D01*
X0306575Y0072578D02*
X0307520Y0072578D01*
X0307520Y0072616D02*
X0306575Y0072616D01*
X0306575Y0072654D02*
X0307520Y0072654D01*
X0307520Y0072692D02*
X0306575Y0072692D01*
X0306575Y0072730D02*
X0307520Y0072730D01*
X0307520Y0072767D02*
X0306575Y0072767D01*
X0306575Y0072805D02*
X0307520Y0072805D01*
X0307520Y0072843D02*
X0306575Y0072843D01*
X0306575Y0072881D02*
X0307520Y0072881D01*
X0307520Y0072919D02*
X0306575Y0072919D01*
X0306575Y0072957D02*
X0307520Y0072957D01*
X0307520Y0072995D02*
X0306575Y0072995D01*
X0306575Y0073033D02*
X0307520Y0073033D01*
X0307520Y0073070D02*
X0306575Y0073070D01*
X0306575Y0073108D02*
X0307520Y0073108D01*
X0307520Y0073146D02*
X0306575Y0073146D01*
X0306575Y0073184D02*
X0307520Y0073184D01*
X0307520Y0073222D02*
X0306575Y0073222D01*
X0306575Y0073260D02*
X0307520Y0073260D01*
X0307520Y0073298D02*
X0306575Y0073298D01*
X0306575Y0073336D02*
X0307520Y0073336D01*
X0307520Y0073374D02*
X0306575Y0073374D01*
X0306575Y0073411D02*
X0307520Y0073411D01*
X0307520Y0073449D02*
X0306575Y0073449D01*
X0306575Y0073487D02*
X0307520Y0073487D01*
X0307520Y0073525D02*
X0306575Y0073525D01*
X0306575Y0073563D02*
X0307520Y0073563D01*
X0307520Y0073601D02*
X0306575Y0073601D01*
X0306575Y0073639D02*
X0307520Y0073639D01*
X0307520Y0073677D02*
X0306575Y0073677D01*
X0306575Y0073714D02*
X0307520Y0073714D01*
X0307520Y0073752D02*
X0306575Y0073752D01*
X0306575Y0073790D02*
X0307520Y0073790D01*
X0307520Y0073828D02*
X0306575Y0073828D01*
X0306575Y0073866D02*
X0307520Y0073866D01*
X0307520Y0073904D02*
X0306575Y0073904D01*
X0306575Y0073942D02*
X0307520Y0073942D01*
X0307520Y0073980D02*
X0306575Y0073980D01*
X0306575Y0074017D02*
X0307520Y0074017D01*
X0307520Y0074055D02*
X0306575Y0074055D01*
X0306575Y0074093D02*
X0307520Y0074093D01*
X0307520Y0074131D02*
X0306575Y0074131D01*
X0306575Y0074169D02*
X0307520Y0074169D01*
X0307520Y0074207D02*
X0306575Y0074207D01*
X0306575Y0074245D02*
X0307520Y0074245D01*
X0307520Y0074283D02*
X0306575Y0074283D01*
X0306575Y0074321D02*
X0307520Y0074321D01*
X0307520Y0074358D02*
X0306575Y0074358D01*
X0306575Y0074396D02*
X0307520Y0074396D01*
X0307520Y0074434D02*
X0306575Y0074434D01*
X0306575Y0074472D02*
X0307520Y0074472D01*
X0307520Y0074510D02*
X0306575Y0074510D01*
X0306575Y0074548D02*
X0307520Y0074548D01*
X0307520Y0074586D02*
X0306575Y0074586D01*
X0305551Y0074586D02*
X0304606Y0074586D01*
X0304606Y0074606D02*
X0304606Y0071535D01*
X0305551Y0071535D01*
X0305551Y0074606D01*
X0304606Y0074606D01*
X0304606Y0074548D02*
X0305551Y0074548D01*
X0305551Y0074510D02*
X0304606Y0074510D01*
X0304606Y0074472D02*
X0305551Y0074472D01*
X0305551Y0074434D02*
X0304606Y0074434D01*
X0304606Y0074396D02*
X0305551Y0074396D01*
X0305551Y0074358D02*
X0304606Y0074358D01*
X0304606Y0074321D02*
X0305551Y0074321D01*
X0305551Y0074283D02*
X0304606Y0074283D01*
X0304606Y0074245D02*
X0305551Y0074245D01*
X0305551Y0074207D02*
X0304606Y0074207D01*
X0304606Y0074169D02*
X0305551Y0074169D01*
X0305551Y0074131D02*
X0304606Y0074131D01*
X0304606Y0074093D02*
X0305551Y0074093D01*
X0305551Y0074055D02*
X0304606Y0074055D01*
X0304606Y0074017D02*
X0305551Y0074017D01*
X0305551Y0073980D02*
X0304606Y0073980D01*
X0304606Y0073942D02*
X0305551Y0073942D01*
X0305551Y0073904D02*
X0304606Y0073904D01*
X0304606Y0073866D02*
X0305551Y0073866D01*
X0305551Y0073828D02*
X0304606Y0073828D01*
X0304606Y0073790D02*
X0305551Y0073790D01*
X0305551Y0073752D02*
X0304606Y0073752D01*
X0304606Y0073714D02*
X0305551Y0073714D01*
X0305551Y0073677D02*
X0304606Y0073677D01*
X0304606Y0073639D02*
X0305551Y0073639D01*
X0305551Y0073601D02*
X0304606Y0073601D01*
X0304606Y0073563D02*
X0305551Y0073563D01*
X0305551Y0073525D02*
X0304606Y0073525D01*
X0304606Y0073487D02*
X0305551Y0073487D01*
X0305551Y0073449D02*
X0304606Y0073449D01*
X0304606Y0073411D02*
X0305551Y0073411D01*
X0305551Y0073374D02*
X0304606Y0073374D01*
X0304606Y0073336D02*
X0305551Y0073336D01*
X0305551Y0073298D02*
X0304606Y0073298D01*
X0304606Y0073260D02*
X0305551Y0073260D01*
X0305551Y0073222D02*
X0304606Y0073222D01*
X0304606Y0073184D02*
X0305551Y0073184D01*
X0305551Y0073146D02*
X0304606Y0073146D01*
X0304606Y0073108D02*
X0305551Y0073108D01*
X0305551Y0073070D02*
X0304606Y0073070D01*
X0304606Y0073033D02*
X0305551Y0073033D01*
X0305551Y0072995D02*
X0304606Y0072995D01*
X0304606Y0072957D02*
X0305551Y0072957D01*
X0305551Y0072919D02*
X0304606Y0072919D01*
X0304606Y0072881D02*
X0305551Y0072881D01*
X0305551Y0072843D02*
X0304606Y0072843D01*
X0304606Y0072805D02*
X0305551Y0072805D01*
X0305551Y0072767D02*
X0304606Y0072767D01*
X0304606Y0072730D02*
X0305551Y0072730D01*
X0305551Y0072692D02*
X0304606Y0072692D01*
X0304606Y0072654D02*
X0305551Y0072654D01*
X0305551Y0072616D02*
X0304606Y0072616D01*
X0304606Y0072578D02*
X0305551Y0072578D01*
X0305551Y0072540D02*
X0304606Y0072540D01*
X0304606Y0072502D02*
X0305551Y0072502D01*
X0305551Y0072464D02*
X0304606Y0072464D01*
X0304606Y0072426D02*
X0305551Y0072426D01*
X0305551Y0072389D02*
X0304606Y0072389D01*
X0304606Y0072351D02*
X0305551Y0072351D01*
X0305551Y0072313D02*
X0304606Y0072313D01*
X0304606Y0072275D02*
X0305551Y0072275D01*
X0305551Y0072237D02*
X0304606Y0072237D01*
X0304606Y0072199D02*
X0305551Y0072199D01*
X0305551Y0072161D02*
X0304606Y0072161D01*
X0304606Y0072123D02*
X0305551Y0072123D01*
X0305551Y0072086D02*
X0304606Y0072086D01*
X0304606Y0072048D02*
X0305551Y0072048D01*
X0305551Y0072010D02*
X0304606Y0072010D01*
X0304606Y0071972D02*
X0305551Y0071972D01*
X0305551Y0071934D02*
X0304606Y0071934D01*
X0304606Y0071896D02*
X0305551Y0071896D01*
X0305551Y0071858D02*
X0304606Y0071858D01*
X0304606Y0071820D02*
X0305551Y0071820D01*
X0305551Y0071782D02*
X0304606Y0071782D01*
X0304606Y0071745D02*
X0305551Y0071745D01*
X0305551Y0071707D02*
X0304606Y0071707D01*
X0304606Y0071669D02*
X0305551Y0071669D01*
X0305551Y0071631D02*
X0304606Y0071631D01*
X0304606Y0071593D02*
X0305551Y0071593D01*
X0305551Y0071555D02*
X0304606Y0071555D01*
X0243091Y0101230D02*
X0242822Y0100874D01*
X0242488Y0100578D01*
X0242103Y0100353D01*
X0241682Y0100207D01*
X0241240Y0100146D01*
X0236516Y0100146D01*
X0236017Y0100226D01*
X0235549Y0100416D01*
X0235134Y0100705D01*
X0234794Y0101079D01*
X0234546Y0101519D01*
X0234402Y0102004D01*
X0234370Y0102508D01*
X0234402Y0103012D01*
X0234546Y0103497D01*
X0234794Y0103937D01*
X0235134Y0104311D01*
X0235549Y0104600D01*
X0236017Y0104789D01*
X0236516Y0104870D01*
X0241240Y0104870D01*
X0241682Y0104809D01*
X0242103Y0104663D01*
X0242488Y0104438D01*
X0242822Y0104142D01*
X0243091Y0103786D01*
X0243286Y0103385D01*
X0243399Y0102953D01*
X0243425Y0102508D01*
X0243399Y0102063D01*
X0243286Y0101631D01*
X0243091Y0101230D01*
X0243081Y0101216D02*
X0234717Y0101216D01*
X0234738Y0101178D02*
X0243052Y0101178D01*
X0243024Y0101141D02*
X0234760Y0101141D01*
X0234781Y0101103D02*
X0242995Y0101103D01*
X0242966Y0101065D02*
X0234807Y0101065D01*
X0234842Y0101027D02*
X0242938Y0101027D01*
X0242909Y0100989D02*
X0234876Y0100989D01*
X0234910Y0100951D02*
X0242880Y0100951D01*
X0242852Y0100913D02*
X0234945Y0100913D01*
X0234979Y0100875D02*
X0242823Y0100875D01*
X0242781Y0100838D02*
X0235014Y0100838D01*
X0235048Y0100800D02*
X0242738Y0100800D01*
X0242695Y0100762D02*
X0235082Y0100762D01*
X0235117Y0100724D02*
X0242653Y0100724D01*
X0242610Y0100686D02*
X0235161Y0100686D01*
X0235216Y0100648D02*
X0242567Y0100648D01*
X0242525Y0100610D02*
X0235270Y0100610D01*
X0235324Y0100572D02*
X0242479Y0100572D01*
X0242414Y0100534D02*
X0235378Y0100534D01*
X0235433Y0100497D02*
X0242349Y0100497D01*
X0242285Y0100459D02*
X0235487Y0100459D01*
X0235541Y0100421D02*
X0242220Y0100421D01*
X0242155Y0100383D02*
X0235630Y0100383D01*
X0235723Y0100345D02*
X0242082Y0100345D01*
X0241972Y0100307D02*
X0235817Y0100307D01*
X0235911Y0100269D02*
X0241863Y0100269D01*
X0241754Y0100231D02*
X0236004Y0100231D01*
X0236219Y0100194D02*
X0241587Y0100194D01*
X0241313Y0100156D02*
X0236454Y0100156D01*
X0234696Y0101254D02*
X0243103Y0101254D01*
X0243121Y0101292D02*
X0234674Y0101292D01*
X0234653Y0101330D02*
X0243140Y0101330D01*
X0243158Y0101368D02*
X0234632Y0101368D01*
X0234610Y0101406D02*
X0243177Y0101406D01*
X0243195Y0101444D02*
X0234589Y0101444D01*
X0234568Y0101482D02*
X0243213Y0101482D01*
X0243232Y0101519D02*
X0234546Y0101519D01*
X0234535Y0101557D02*
X0243250Y0101557D01*
X0243269Y0101595D02*
X0234524Y0101595D01*
X0234513Y0101633D02*
X0243287Y0101633D01*
X0243296Y0101671D02*
X0234501Y0101671D01*
X0234490Y0101709D02*
X0243306Y0101709D01*
X0243316Y0101747D02*
X0234479Y0101747D01*
X0234468Y0101785D02*
X0243326Y0101785D01*
X0243336Y0101822D02*
X0234456Y0101822D01*
X0234445Y0101860D02*
X0243346Y0101860D01*
X0243356Y0101898D02*
X0234434Y0101898D01*
X0234423Y0101936D02*
X0243366Y0101936D01*
X0243376Y0101974D02*
X0234411Y0101974D01*
X0234402Y0102012D02*
X0243386Y0102012D01*
X0243395Y0102050D02*
X0234400Y0102050D01*
X0234397Y0102088D02*
X0243400Y0102088D01*
X0243403Y0102125D02*
X0234395Y0102125D01*
X0234392Y0102163D02*
X0243405Y0102163D01*
X0243407Y0102201D02*
X0234390Y0102201D01*
X0234387Y0102239D02*
X0243409Y0102239D01*
X0243412Y0102277D02*
X0234385Y0102277D01*
X0234382Y0102315D02*
X0243414Y0102315D01*
X0243416Y0102353D02*
X0234380Y0102353D01*
X0234378Y0102391D02*
X0243418Y0102391D01*
X0243420Y0102429D02*
X0234375Y0102429D01*
X0234373Y0102466D02*
X0243423Y0102466D01*
X0243425Y0102504D02*
X0234370Y0102504D01*
X0234372Y0102542D02*
X0243423Y0102542D01*
X0243421Y0102580D02*
X0234375Y0102580D01*
X0234377Y0102618D02*
X0243419Y0102618D01*
X0243416Y0102656D02*
X0234380Y0102656D01*
X0234382Y0102694D02*
X0243414Y0102694D01*
X0243412Y0102732D02*
X0234384Y0102732D01*
X0234387Y0102769D02*
X0243410Y0102769D01*
X0243407Y0102807D02*
X0234389Y0102807D01*
X0234392Y0102845D02*
X0243405Y0102845D01*
X0243403Y0102883D02*
X0234394Y0102883D01*
X0234397Y0102921D02*
X0243401Y0102921D01*
X0243397Y0102959D02*
X0234399Y0102959D01*
X0234402Y0102997D02*
X0243387Y0102997D01*
X0243377Y0103035D02*
X0234409Y0103035D01*
X0234420Y0103073D02*
X0243368Y0103073D01*
X0243358Y0103110D02*
X0234432Y0103110D01*
X0234443Y0103148D02*
X0243348Y0103148D01*
X0243338Y0103186D02*
X0234454Y0103186D01*
X0234465Y0103224D02*
X0243328Y0103224D01*
X0243318Y0103262D02*
X0234477Y0103262D01*
X0234488Y0103300D02*
X0243308Y0103300D01*
X0243298Y0103338D02*
X0234499Y0103338D01*
X0234510Y0103376D02*
X0243288Y0103376D01*
X0243272Y0103413D02*
X0234522Y0103413D01*
X0234533Y0103451D02*
X0243254Y0103451D01*
X0243235Y0103489D02*
X0234544Y0103489D01*
X0234564Y0103527D02*
X0243217Y0103527D01*
X0243198Y0103565D02*
X0234585Y0103565D01*
X0234606Y0103603D02*
X0243180Y0103603D01*
X0243162Y0103641D02*
X0234628Y0103641D01*
X0234649Y0103679D02*
X0243143Y0103679D01*
X0243125Y0103717D02*
X0234670Y0103717D01*
X0234692Y0103754D02*
X0243107Y0103754D01*
X0243086Y0103792D02*
X0234713Y0103792D01*
X0234734Y0103830D02*
X0243058Y0103830D01*
X0243029Y0103868D02*
X0234756Y0103868D01*
X0234777Y0103906D02*
X0243000Y0103906D01*
X0242972Y0103944D02*
X0234801Y0103944D01*
X0234835Y0103982D02*
X0242943Y0103982D01*
X0242914Y0104020D02*
X0234869Y0104020D01*
X0234904Y0104057D02*
X0242886Y0104057D01*
X0242857Y0104095D02*
X0234938Y0104095D01*
X0234973Y0104133D02*
X0242828Y0104133D01*
X0242789Y0104171D02*
X0235007Y0104171D01*
X0235042Y0104209D02*
X0242746Y0104209D01*
X0242703Y0104247D02*
X0235076Y0104247D01*
X0235110Y0104285D02*
X0242661Y0104285D01*
X0242618Y0104323D02*
X0235151Y0104323D01*
X0235205Y0104360D02*
X0242575Y0104360D01*
X0242533Y0104398D02*
X0235260Y0104398D01*
X0235314Y0104436D02*
X0242490Y0104436D01*
X0242426Y0104474D02*
X0235368Y0104474D01*
X0235423Y0104512D02*
X0242361Y0104512D01*
X0242297Y0104550D02*
X0235477Y0104550D01*
X0235531Y0104588D02*
X0242232Y0104588D01*
X0242167Y0104626D02*
X0235612Y0104626D01*
X0235706Y0104664D02*
X0242102Y0104664D01*
X0241993Y0104701D02*
X0235799Y0104701D01*
X0235893Y0104739D02*
X0241884Y0104739D01*
X0241774Y0104777D02*
X0235987Y0104777D01*
X0236175Y0104815D02*
X0241639Y0104815D01*
X0241364Y0104853D02*
X0236410Y0104853D01*
X0225923Y0103035D02*
X0225984Y0102508D01*
X0225937Y0102045D01*
X0225800Y0101601D01*
X0225579Y0101192D01*
X0225283Y0100833D01*
X0224922Y0100540D01*
X0224511Y0100322D01*
X0224065Y0100189D01*
X0223602Y0100146D01*
X0221240Y0100146D01*
X0220781Y0100193D01*
X0220341Y0100328D01*
X0219935Y0100548D01*
X0219580Y0100842D01*
X0219289Y0101199D01*
X0219073Y0101607D01*
X0218941Y0102049D01*
X0218898Y0102508D01*
X0218954Y0103032D01*
X0219126Y0103530D01*
X0219405Y0103977D01*
X0219776Y0104351D01*
X0220220Y0104633D01*
X0220717Y0104809D01*
X0221240Y0104870D01*
X0223602Y0104870D01*
X0224130Y0104813D01*
X0224633Y0104639D01*
X0225083Y0104359D01*
X0225461Y0103985D01*
X0225745Y0103536D01*
X0225923Y0103035D01*
X0218955Y0103035D01*
X0218951Y0102997D02*
X0225927Y0102997D01*
X0225932Y0102959D02*
X0218947Y0102959D01*
X0218942Y0102921D02*
X0225936Y0102921D01*
X0225940Y0102883D02*
X0218938Y0102883D01*
X0218934Y0102845D02*
X0225945Y0102845D01*
X0225949Y0102807D02*
X0218930Y0102807D01*
X0218926Y0102769D02*
X0225954Y0102769D01*
X0225958Y0102732D02*
X0218922Y0102732D01*
X0218918Y0102694D02*
X0225963Y0102694D01*
X0225967Y0102656D02*
X0218914Y0102656D01*
X0218910Y0102618D02*
X0225971Y0102618D01*
X0225976Y0102580D02*
X0218905Y0102580D01*
X0218901Y0102542D02*
X0225980Y0102542D01*
X0225984Y0102504D02*
X0218898Y0102504D01*
X0218902Y0102466D02*
X0225980Y0102466D01*
X0225976Y0102429D02*
X0218905Y0102429D01*
X0218909Y0102391D02*
X0225972Y0102391D01*
X0225968Y0102353D02*
X0218912Y0102353D01*
X0218916Y0102315D02*
X0225964Y0102315D01*
X0225961Y0102277D02*
X0218919Y0102277D01*
X0218923Y0102239D02*
X0225957Y0102239D01*
X0225953Y0102201D02*
X0218927Y0102201D01*
X0218930Y0102163D02*
X0225949Y0102163D01*
X0225945Y0102125D02*
X0218934Y0102125D01*
X0218937Y0102088D02*
X0225941Y0102088D01*
X0225937Y0102050D02*
X0218941Y0102050D01*
X0218952Y0102012D02*
X0225926Y0102012D01*
X0225915Y0101974D02*
X0218963Y0101974D01*
X0218975Y0101936D02*
X0225903Y0101936D01*
X0225891Y0101898D02*
X0218986Y0101898D01*
X0218997Y0101860D02*
X0225880Y0101860D01*
X0225868Y0101822D02*
X0219009Y0101822D01*
X0219020Y0101785D02*
X0225856Y0101785D01*
X0225845Y0101747D02*
X0219031Y0101747D01*
X0219042Y0101709D02*
X0225833Y0101709D01*
X0225821Y0101671D02*
X0219054Y0101671D01*
X0219065Y0101633D02*
X0225810Y0101633D01*
X0225797Y0101595D02*
X0219079Y0101595D01*
X0219099Y0101557D02*
X0225776Y0101557D01*
X0225756Y0101519D02*
X0219119Y0101519D01*
X0219139Y0101482D02*
X0225735Y0101482D01*
X0225715Y0101444D02*
X0219159Y0101444D01*
X0219179Y0101406D02*
X0225695Y0101406D01*
X0225674Y0101368D02*
X0219199Y0101368D01*
X0219219Y0101330D02*
X0225654Y0101330D01*
X0225633Y0101292D02*
X0219240Y0101292D01*
X0219260Y0101254D02*
X0225613Y0101254D01*
X0225592Y0101216D02*
X0219280Y0101216D01*
X0219306Y0101178D02*
X0225568Y0101178D01*
X0225537Y0101141D02*
X0219336Y0101141D01*
X0219367Y0101103D02*
X0225505Y0101103D01*
X0225474Y0101065D02*
X0219398Y0101065D01*
X0219429Y0101027D02*
X0225443Y0101027D01*
X0225411Y0100989D02*
X0219460Y0100989D01*
X0219491Y0100951D02*
X0225380Y0100951D01*
X0225349Y0100913D02*
X0219521Y0100913D01*
X0219552Y0100875D02*
X0225317Y0100875D01*
X0225286Y0100838D02*
X0219585Y0100838D01*
X0219630Y0100800D02*
X0225241Y0100800D01*
X0225194Y0100762D02*
X0219676Y0100762D01*
X0219722Y0100724D02*
X0225148Y0100724D01*
X0225101Y0100686D02*
X0219768Y0100686D01*
X0219813Y0100648D02*
X0225055Y0100648D01*
X0225008Y0100610D02*
X0219859Y0100610D01*
X0219905Y0100572D02*
X0224962Y0100572D01*
X0224912Y0100534D02*
X0219959Y0100534D01*
X0220029Y0100497D02*
X0224840Y0100497D01*
X0224768Y0100459D02*
X0220100Y0100459D01*
X0220170Y0100421D02*
X0224697Y0100421D01*
X0224625Y0100383D02*
X0220240Y0100383D01*
X0220310Y0100345D02*
X0224554Y0100345D01*
X0224460Y0100307D02*
X0220410Y0100307D01*
X0220533Y0100269D02*
X0224333Y0100269D01*
X0224206Y0100231D02*
X0220656Y0100231D01*
X0220779Y0100194D02*
X0224079Y0100194D01*
X0223708Y0100156D02*
X0221143Y0100156D01*
X0218969Y0103073D02*
X0225909Y0103073D01*
X0225896Y0103110D02*
X0218982Y0103110D01*
X0218995Y0103148D02*
X0225883Y0103148D01*
X0225869Y0103186D02*
X0219008Y0103186D01*
X0219021Y0103224D02*
X0225856Y0103224D01*
X0225842Y0103262D02*
X0219034Y0103262D01*
X0219047Y0103300D02*
X0225829Y0103300D01*
X0225815Y0103338D02*
X0219060Y0103338D01*
X0219073Y0103376D02*
X0225802Y0103376D01*
X0225789Y0103413D02*
X0219086Y0103413D01*
X0219099Y0103451D02*
X0225775Y0103451D01*
X0225762Y0103489D02*
X0219112Y0103489D01*
X0219125Y0103527D02*
X0225748Y0103527D01*
X0225727Y0103565D02*
X0219148Y0103565D01*
X0219172Y0103603D02*
X0225703Y0103603D01*
X0225679Y0103641D02*
X0219196Y0103641D01*
X0219219Y0103679D02*
X0225655Y0103679D01*
X0225631Y0103717D02*
X0219243Y0103717D01*
X0219266Y0103754D02*
X0225607Y0103754D01*
X0225583Y0103792D02*
X0219290Y0103792D01*
X0219313Y0103830D02*
X0225559Y0103830D01*
X0225535Y0103868D02*
X0219337Y0103868D01*
X0219361Y0103906D02*
X0225511Y0103906D01*
X0225487Y0103944D02*
X0219384Y0103944D01*
X0219410Y0103982D02*
X0225462Y0103982D01*
X0225425Y0104020D02*
X0219447Y0104020D01*
X0219485Y0104057D02*
X0225387Y0104057D01*
X0225349Y0104095D02*
X0219522Y0104095D01*
X0219560Y0104133D02*
X0225311Y0104133D01*
X0225273Y0104171D02*
X0219597Y0104171D01*
X0219635Y0104209D02*
X0225234Y0104209D01*
X0225196Y0104247D02*
X0219673Y0104247D01*
X0219710Y0104285D02*
X0225158Y0104285D01*
X0225120Y0104323D02*
X0219748Y0104323D01*
X0219791Y0104360D02*
X0225081Y0104360D01*
X0225020Y0104398D02*
X0219851Y0104398D01*
X0219910Y0104436D02*
X0224959Y0104436D01*
X0224898Y0104474D02*
X0219970Y0104474D01*
X0220030Y0104512D02*
X0224837Y0104512D01*
X0224776Y0104550D02*
X0220090Y0104550D01*
X0220149Y0104588D02*
X0224716Y0104588D01*
X0224655Y0104626D02*
X0220209Y0104626D01*
X0220307Y0104664D02*
X0224563Y0104664D01*
X0224453Y0104701D02*
X0220414Y0104701D01*
X0220521Y0104739D02*
X0224343Y0104739D01*
X0224234Y0104777D02*
X0220628Y0104777D01*
X0220770Y0104815D02*
X0224109Y0104815D01*
X0223760Y0104853D02*
X0221094Y0104853D01*
D20*
X0306063Y0068937D02*
X0306063Y0065984D01*
X0309016Y0065984D01*
X0309016Y0068937D01*
X0306063Y0068937D01*
X0306063Y0068914D02*
X0309016Y0068914D01*
X0309016Y0068415D02*
X0306063Y0068415D01*
X0306063Y0067917D02*
X0309016Y0067917D01*
X0309016Y0067418D02*
X0306063Y0067418D01*
X0306063Y0066920D02*
X0309016Y0066920D01*
X0309016Y0066421D02*
X0306063Y0066421D01*
X0306063Y0064016D02*
X0309016Y0064016D01*
X0309016Y0061063D01*
X0306063Y0061063D01*
X0306063Y0064016D01*
X0306063Y0063929D02*
X0309016Y0063929D01*
X0309016Y0063430D02*
X0306063Y0063430D01*
X0306063Y0062932D02*
X0309016Y0062932D01*
X0309016Y0062433D02*
X0306063Y0062433D01*
X0306063Y0061934D02*
X0309016Y0061934D01*
X0309016Y0061436D02*
X0306063Y0061436D01*
X0310984Y0061436D02*
X0313937Y0061436D01*
X0313937Y0061063D02*
X0310984Y0061063D01*
X0310984Y0064016D01*
X0313937Y0064016D01*
X0313937Y0061063D01*
X0313937Y0061934D02*
X0310984Y0061934D01*
X0310984Y0062433D02*
X0313937Y0062433D01*
X0313937Y0062932D02*
X0310984Y0062932D01*
X0310984Y0063430D02*
X0313937Y0063430D01*
X0313937Y0063929D02*
X0310984Y0063929D01*
X0310984Y0065984D02*
X0313937Y0065984D01*
X0313937Y0068937D01*
X0310984Y0068937D01*
X0310984Y0065984D01*
X0310984Y0066421D02*
X0313937Y0066421D01*
X0313937Y0066920D02*
X0310984Y0066920D01*
X0310984Y0067418D02*
X0313937Y0067418D01*
X0313937Y0067917D02*
X0310984Y0067917D01*
X0310984Y0068415D02*
X0313937Y0068415D01*
X0313937Y0068914D02*
X0310984Y0068914D01*
D21*
X0243106Y0078610D03*
X0243106Y0080579D03*
X0243106Y0082547D03*
X0243106Y0084516D03*
X0243106Y0086484D03*
X0243106Y0088453D03*
X0243106Y0090421D03*
X0243106Y0092390D03*
D22*
X0243106Y0098197D03*
X0243106Y0072803D03*
D23*
X0243106Y0075854D03*
X0243106Y0095146D03*
D24*
X0259488Y0127205D03*
X0255157Y0152795D03*
X0239409Y0152795D03*
X0227598Y0152795D03*
D25*
X0285000Y0053543D03*
X0285000Y0046457D03*
D26*
X0468168Y0135937D02*
X0467150Y0135630D01*
X0467150Y0135631D02*
X0467118Y0135721D01*
X0467083Y0135811D01*
X0467044Y0135899D01*
X0467001Y0135985D01*
X0466954Y0136069D01*
X0466905Y0136151D01*
X0466851Y0136231D01*
X0466795Y0136309D01*
X0466736Y0136385D01*
X0466673Y0136458D01*
X0466607Y0136528D01*
X0466539Y0136596D01*
X0466468Y0136661D01*
X0466394Y0136723D01*
X0466318Y0136781D01*
X0466240Y0136837D01*
X0466159Y0136889D01*
X0466076Y0136938D01*
X0465992Y0136984D01*
X0465905Y0137026D01*
X0465817Y0137064D01*
X0465727Y0137099D01*
X0465636Y0137130D01*
X0465932Y0138150D01*
X0465933Y0138151D01*
X0466040Y0138116D01*
X0466146Y0138077D01*
X0466251Y0138035D01*
X0466354Y0137989D01*
X0466455Y0137940D01*
X0466555Y0137888D01*
X0466653Y0137832D01*
X0466749Y0137774D01*
X0466844Y0137712D01*
X0466936Y0137647D01*
X0467026Y0137579D01*
X0467113Y0137508D01*
X0467198Y0137434D01*
X0467281Y0137357D01*
X0467361Y0137278D01*
X0467439Y0137196D01*
X0467513Y0137112D01*
X0467585Y0137025D01*
X0467654Y0136935D01*
X0467720Y0136844D01*
X0467783Y0136750D01*
X0467843Y0136655D01*
X0467899Y0136557D01*
X0467953Y0136458D01*
X0468003Y0136357D01*
X0468049Y0136254D01*
X0468092Y0136150D01*
X0468132Y0136045D01*
X0468168Y0135938D01*
X0468062Y0135906D01*
X0468026Y0136013D01*
X0467986Y0136118D01*
X0467942Y0136222D01*
X0467895Y0136325D01*
X0467844Y0136426D01*
X0467790Y0136525D01*
X0467733Y0136622D01*
X0467672Y0136717D01*
X0467608Y0136810D01*
X0467541Y0136901D01*
X0467471Y0136989D01*
X0467398Y0137075D01*
X0467322Y0137158D01*
X0467243Y0137239D01*
X0467162Y0137317D01*
X0467078Y0137392D01*
X0466991Y0137464D01*
X0466902Y0137534D01*
X0466810Y0137600D01*
X0466717Y0137663D01*
X0466621Y0137722D01*
X0466523Y0137779D01*
X0466424Y0137832D01*
X0466322Y0137881D01*
X0466219Y0137927D01*
X0466115Y0137970D01*
X0466009Y0138009D01*
X0465902Y0138044D01*
X0465871Y0137938D01*
X0465974Y0137903D01*
X0466076Y0137866D01*
X0466177Y0137825D01*
X0466277Y0137780D01*
X0466374Y0137732D01*
X0466471Y0137681D01*
X0466565Y0137627D01*
X0466657Y0137569D01*
X0466748Y0137508D01*
X0466836Y0137444D01*
X0466922Y0137378D01*
X0467005Y0137308D01*
X0467087Y0137235D01*
X0467165Y0137160D01*
X0467241Y0137082D01*
X0467315Y0137002D01*
X0467385Y0136919D01*
X0467453Y0136834D01*
X0467518Y0136746D01*
X0467579Y0136656D01*
X0467638Y0136564D01*
X0467693Y0136471D01*
X0467745Y0136375D01*
X0467794Y0136278D01*
X0467840Y0136179D01*
X0467882Y0136079D01*
X0467921Y0135977D01*
X0467956Y0135874D01*
X0467849Y0135842D01*
X0467814Y0135945D01*
X0467775Y0136046D01*
X0467733Y0136146D01*
X0467687Y0136245D01*
X0467637Y0136342D01*
X0467585Y0136437D01*
X0467528Y0136530D01*
X0467469Y0136621D01*
X0467406Y0136710D01*
X0467341Y0136797D01*
X0467272Y0136882D01*
X0467200Y0136963D01*
X0467126Y0137043D01*
X0467048Y0137119D01*
X0466968Y0137193D01*
X0466886Y0137264D01*
X0466801Y0137332D01*
X0466713Y0137397D01*
X0466624Y0137458D01*
X0466532Y0137517D01*
X0466438Y0137572D01*
X0466342Y0137624D01*
X0466245Y0137672D01*
X0466146Y0137717D01*
X0466045Y0137759D01*
X0465943Y0137797D01*
X0465840Y0137831D01*
X0465809Y0137724D01*
X0465912Y0137690D01*
X0466014Y0137652D01*
X0466114Y0137610D01*
X0466213Y0137565D01*
X0466310Y0137516D01*
X0466405Y0137463D01*
X0466499Y0137407D01*
X0466590Y0137347D01*
X0466679Y0137285D01*
X0466765Y0137219D01*
X0466849Y0137150D01*
X0466930Y0137077D01*
X0467009Y0137002D01*
X0467085Y0136924D01*
X0467158Y0136844D01*
X0467228Y0136760D01*
X0467295Y0136675D01*
X0467358Y0136587D01*
X0467419Y0136496D01*
X0467476Y0136403D01*
X0467529Y0136309D01*
X0467579Y0136212D01*
X0467626Y0136114D01*
X0467669Y0136014D01*
X0467708Y0135912D01*
X0467743Y0135810D01*
X0467637Y0135778D01*
X0467603Y0135876D01*
X0467565Y0135974D01*
X0467524Y0136070D01*
X0467479Y0136164D01*
X0467431Y0136257D01*
X0467380Y0136348D01*
X0467325Y0136437D01*
X0467267Y0136524D01*
X0467206Y0136609D01*
X0467141Y0136691D01*
X0467074Y0136771D01*
X0467004Y0136849D01*
X0466931Y0136923D01*
X0466855Y0136996D01*
X0466777Y0137065D01*
X0466696Y0137131D01*
X0466613Y0137195D01*
X0466528Y0137255D01*
X0466441Y0137312D01*
X0466351Y0137366D01*
X0466260Y0137417D01*
X0466166Y0137464D01*
X0466071Y0137508D01*
X0465975Y0137548D01*
X0465877Y0137585D01*
X0465778Y0137618D01*
X0465747Y0137511D01*
X0465846Y0137478D01*
X0465943Y0137441D01*
X0466039Y0137400D01*
X0466134Y0137356D01*
X0466227Y0137309D01*
X0466317Y0137257D01*
X0466406Y0137203D01*
X0466493Y0137145D01*
X0466577Y0137083D01*
X0466659Y0137019D01*
X0466739Y0136951D01*
X0466816Y0136881D01*
X0466890Y0136808D01*
X0466961Y0136731D01*
X0467029Y0136653D01*
X0467094Y0136571D01*
X0467157Y0136488D01*
X0467215Y0136401D01*
X0467271Y0136313D01*
X0467323Y0136223D01*
X0467372Y0136131D01*
X0467417Y0136037D01*
X0467459Y0135941D01*
X0467496Y0135844D01*
X0467531Y0135745D01*
X0467424Y0135713D01*
X0467392Y0135808D01*
X0467355Y0135901D01*
X0467315Y0135992D01*
X0467272Y0136082D01*
X0467225Y0136171D01*
X0467175Y0136257D01*
X0467122Y0136341D01*
X0467066Y0136424D01*
X0467006Y0136504D01*
X0466944Y0136582D01*
X0466878Y0136657D01*
X0466810Y0136730D01*
X0466739Y0136800D01*
X0466665Y0136868D01*
X0466589Y0136933D01*
X0466511Y0136994D01*
X0466430Y0137053D01*
X0466347Y0137109D01*
X0466262Y0137161D01*
X0466175Y0137210D01*
X0466086Y0137256D01*
X0465996Y0137298D01*
X0465904Y0137337D01*
X0465811Y0137373D01*
X0465716Y0137404D01*
X0465685Y0137298D01*
X0465779Y0137266D01*
X0465872Y0137230D01*
X0465963Y0137191D01*
X0466053Y0137149D01*
X0466141Y0137102D01*
X0466227Y0137053D01*
X0466311Y0136999D01*
X0466393Y0136943D01*
X0466473Y0136884D01*
X0466550Y0136821D01*
X0466625Y0136755D01*
X0466697Y0136687D01*
X0466766Y0136615D01*
X0466832Y0136541D01*
X0466896Y0136465D01*
X0466956Y0136386D01*
X0467013Y0136305D01*
X0467067Y0136221D01*
X0467118Y0136135D01*
X0467165Y0136048D01*
X0467209Y0135959D01*
X0467249Y0135868D01*
X0467285Y0135775D01*
X0467318Y0135681D01*
X0467212Y0135649D01*
X0467180Y0135739D01*
X0467145Y0135827D01*
X0467107Y0135914D01*
X0467065Y0135999D01*
X0467020Y0136082D01*
X0466972Y0136164D01*
X0466921Y0136243D01*
X0466866Y0136321D01*
X0466809Y0136396D01*
X0466748Y0136469D01*
X0466685Y0136540D01*
X0466619Y0136608D01*
X0466550Y0136673D01*
X0466479Y0136736D01*
X0466405Y0136796D01*
X0466329Y0136852D01*
X0466251Y0136906D01*
X0466171Y0136957D01*
X0466089Y0137004D01*
X0466005Y0137048D01*
X0465919Y0137089D01*
X0465832Y0137127D01*
X0465744Y0137161D01*
X0465654Y0137191D01*
X0461832Y0134063D02*
X0462850Y0134370D01*
X0462850Y0134369D02*
X0462882Y0134279D01*
X0462917Y0134189D01*
X0462956Y0134101D01*
X0462999Y0134015D01*
X0463046Y0133931D01*
X0463095Y0133849D01*
X0463149Y0133769D01*
X0463205Y0133691D01*
X0463264Y0133615D01*
X0463327Y0133542D01*
X0463393Y0133472D01*
X0463461Y0133404D01*
X0463532Y0133339D01*
X0463606Y0133277D01*
X0463682Y0133219D01*
X0463760Y0133163D01*
X0463841Y0133111D01*
X0463924Y0133062D01*
X0464008Y0133016D01*
X0464095Y0132974D01*
X0464183Y0132936D01*
X0464273Y0132901D01*
X0464364Y0132870D01*
X0464068Y0131850D01*
X0464067Y0131849D01*
X0463960Y0131884D01*
X0463854Y0131923D01*
X0463749Y0131965D01*
X0463646Y0132011D01*
X0463545Y0132060D01*
X0463445Y0132112D01*
X0463347Y0132168D01*
X0463251Y0132226D01*
X0463156Y0132288D01*
X0463064Y0132353D01*
X0462974Y0132421D01*
X0462887Y0132492D01*
X0462802Y0132566D01*
X0462719Y0132643D01*
X0462639Y0132722D01*
X0462561Y0132804D01*
X0462487Y0132888D01*
X0462415Y0132975D01*
X0462346Y0133065D01*
X0462280Y0133156D01*
X0462217Y0133250D01*
X0462157Y0133345D01*
X0462101Y0133443D01*
X0462047Y0133542D01*
X0461997Y0133643D01*
X0461951Y0133746D01*
X0461908Y0133850D01*
X0461868Y0133955D01*
X0461832Y0134062D01*
X0461938Y0134094D01*
X0461974Y0133987D01*
X0462014Y0133882D01*
X0462058Y0133778D01*
X0462105Y0133675D01*
X0462156Y0133574D01*
X0462210Y0133475D01*
X0462267Y0133378D01*
X0462328Y0133283D01*
X0462392Y0133190D01*
X0462459Y0133099D01*
X0462529Y0133011D01*
X0462602Y0132925D01*
X0462678Y0132842D01*
X0462757Y0132761D01*
X0462838Y0132683D01*
X0462922Y0132608D01*
X0463009Y0132536D01*
X0463098Y0132466D01*
X0463190Y0132400D01*
X0463283Y0132337D01*
X0463379Y0132278D01*
X0463477Y0132221D01*
X0463576Y0132168D01*
X0463678Y0132119D01*
X0463781Y0132073D01*
X0463885Y0132030D01*
X0463991Y0131991D01*
X0464098Y0131956D01*
X0464129Y0132062D01*
X0464026Y0132097D01*
X0463924Y0132134D01*
X0463823Y0132175D01*
X0463723Y0132220D01*
X0463626Y0132268D01*
X0463529Y0132319D01*
X0463435Y0132373D01*
X0463343Y0132431D01*
X0463252Y0132492D01*
X0463164Y0132556D01*
X0463078Y0132622D01*
X0462995Y0132692D01*
X0462913Y0132765D01*
X0462835Y0132840D01*
X0462759Y0132918D01*
X0462685Y0132998D01*
X0462615Y0133081D01*
X0462547Y0133166D01*
X0462482Y0133254D01*
X0462421Y0133344D01*
X0462362Y0133436D01*
X0462307Y0133529D01*
X0462255Y0133625D01*
X0462206Y0133722D01*
X0462160Y0133821D01*
X0462118Y0133921D01*
X0462079Y0134023D01*
X0462044Y0134126D01*
X0462151Y0134158D01*
X0462186Y0134055D01*
X0462225Y0133954D01*
X0462267Y0133854D01*
X0462313Y0133755D01*
X0462363Y0133658D01*
X0462415Y0133563D01*
X0462472Y0133470D01*
X0462531Y0133379D01*
X0462594Y0133290D01*
X0462659Y0133203D01*
X0462728Y0133118D01*
X0462800Y0133037D01*
X0462874Y0132957D01*
X0462952Y0132881D01*
X0463032Y0132807D01*
X0463114Y0132736D01*
X0463199Y0132668D01*
X0463287Y0132603D01*
X0463376Y0132542D01*
X0463468Y0132483D01*
X0463562Y0132428D01*
X0463658Y0132376D01*
X0463755Y0132328D01*
X0463854Y0132283D01*
X0463955Y0132241D01*
X0464057Y0132203D01*
X0464160Y0132169D01*
X0464191Y0132276D01*
X0464088Y0132310D01*
X0463986Y0132348D01*
X0463886Y0132390D01*
X0463787Y0132435D01*
X0463690Y0132484D01*
X0463595Y0132537D01*
X0463501Y0132593D01*
X0463410Y0132653D01*
X0463321Y0132715D01*
X0463235Y0132781D01*
X0463151Y0132850D01*
X0463070Y0132923D01*
X0462991Y0132998D01*
X0462915Y0133076D01*
X0462842Y0133156D01*
X0462772Y0133240D01*
X0462705Y0133325D01*
X0462642Y0133413D01*
X0462581Y0133504D01*
X0462524Y0133597D01*
X0462471Y0133691D01*
X0462421Y0133788D01*
X0462374Y0133886D01*
X0462331Y0133986D01*
X0462292Y0134088D01*
X0462257Y0134190D01*
X0462363Y0134222D01*
X0462397Y0134124D01*
X0462435Y0134026D01*
X0462476Y0133930D01*
X0462521Y0133836D01*
X0462569Y0133743D01*
X0462620Y0133652D01*
X0462675Y0133563D01*
X0462733Y0133476D01*
X0462794Y0133391D01*
X0462859Y0133309D01*
X0462926Y0133229D01*
X0462996Y0133151D01*
X0463069Y0133077D01*
X0463145Y0133004D01*
X0463223Y0132935D01*
X0463304Y0132869D01*
X0463387Y0132805D01*
X0463472Y0132745D01*
X0463559Y0132688D01*
X0463649Y0132634D01*
X0463740Y0132583D01*
X0463834Y0132536D01*
X0463929Y0132492D01*
X0464025Y0132452D01*
X0464123Y0132415D01*
X0464222Y0132382D01*
X0464253Y0132489D01*
X0464154Y0132522D01*
X0464057Y0132559D01*
X0463961Y0132600D01*
X0463866Y0132644D01*
X0463773Y0132691D01*
X0463683Y0132743D01*
X0463594Y0132797D01*
X0463507Y0132855D01*
X0463423Y0132917D01*
X0463341Y0132981D01*
X0463261Y0133049D01*
X0463184Y0133119D01*
X0463110Y0133192D01*
X0463039Y0133269D01*
X0462971Y0133347D01*
X0462906Y0133429D01*
X0462843Y0133512D01*
X0462785Y0133599D01*
X0462729Y0133687D01*
X0462677Y0133777D01*
X0462628Y0133869D01*
X0462583Y0133963D01*
X0462541Y0134059D01*
X0462504Y0134156D01*
X0462469Y0134255D01*
X0462576Y0134287D01*
X0462608Y0134192D01*
X0462645Y0134099D01*
X0462685Y0134008D01*
X0462728Y0133918D01*
X0462775Y0133829D01*
X0462825Y0133743D01*
X0462878Y0133659D01*
X0462934Y0133576D01*
X0462994Y0133496D01*
X0463056Y0133418D01*
X0463122Y0133343D01*
X0463190Y0133270D01*
X0463261Y0133200D01*
X0463335Y0133132D01*
X0463411Y0133067D01*
X0463489Y0133006D01*
X0463570Y0132947D01*
X0463653Y0132891D01*
X0463738Y0132839D01*
X0463825Y0132790D01*
X0463914Y0132744D01*
X0464004Y0132702D01*
X0464096Y0132663D01*
X0464189Y0132627D01*
X0464284Y0132596D01*
X0464315Y0132702D01*
X0464221Y0132734D01*
X0464128Y0132770D01*
X0464037Y0132809D01*
X0463947Y0132851D01*
X0463859Y0132898D01*
X0463773Y0132947D01*
X0463689Y0133001D01*
X0463607Y0133057D01*
X0463527Y0133116D01*
X0463450Y0133179D01*
X0463375Y0133245D01*
X0463303Y0133313D01*
X0463234Y0133385D01*
X0463168Y0133459D01*
X0463104Y0133535D01*
X0463044Y0133614D01*
X0462987Y0133695D01*
X0462933Y0133779D01*
X0462882Y0133865D01*
X0462835Y0133952D01*
X0462791Y0134041D01*
X0462751Y0134132D01*
X0462715Y0134225D01*
X0462682Y0134319D01*
X0462788Y0134351D01*
X0462820Y0134261D01*
X0462855Y0134173D01*
X0462893Y0134086D01*
X0462935Y0134001D01*
X0462980Y0133918D01*
X0463028Y0133836D01*
X0463079Y0133757D01*
X0463134Y0133679D01*
X0463191Y0133604D01*
X0463252Y0133531D01*
X0463315Y0133460D01*
X0463381Y0133392D01*
X0463450Y0133327D01*
X0463521Y0133264D01*
X0463595Y0133204D01*
X0463671Y0133148D01*
X0463749Y0133094D01*
X0463829Y0133043D01*
X0463911Y0132996D01*
X0463995Y0132952D01*
X0464081Y0132911D01*
X0464168Y0132873D01*
X0464256Y0132839D01*
X0464346Y0132809D01*
X0464063Y0138168D02*
X0464370Y0137150D01*
X0464369Y0137150D02*
X0464279Y0137118D01*
X0464189Y0137083D01*
X0464101Y0137044D01*
X0464015Y0137001D01*
X0463931Y0136954D01*
X0463849Y0136905D01*
X0463769Y0136851D01*
X0463691Y0136795D01*
X0463615Y0136736D01*
X0463542Y0136673D01*
X0463472Y0136607D01*
X0463404Y0136539D01*
X0463339Y0136468D01*
X0463277Y0136394D01*
X0463219Y0136318D01*
X0463163Y0136240D01*
X0463111Y0136159D01*
X0463062Y0136076D01*
X0463016Y0135992D01*
X0462974Y0135905D01*
X0462936Y0135817D01*
X0462901Y0135727D01*
X0462870Y0135636D01*
X0461850Y0135932D01*
X0461849Y0135933D01*
X0461884Y0136040D01*
X0461923Y0136146D01*
X0461965Y0136251D01*
X0462011Y0136354D01*
X0462060Y0136455D01*
X0462112Y0136555D01*
X0462168Y0136653D01*
X0462226Y0136749D01*
X0462288Y0136844D01*
X0462353Y0136936D01*
X0462421Y0137026D01*
X0462492Y0137113D01*
X0462566Y0137198D01*
X0462643Y0137281D01*
X0462722Y0137361D01*
X0462804Y0137439D01*
X0462888Y0137513D01*
X0462975Y0137585D01*
X0463065Y0137654D01*
X0463156Y0137720D01*
X0463250Y0137783D01*
X0463345Y0137843D01*
X0463443Y0137899D01*
X0463542Y0137953D01*
X0463643Y0138003D01*
X0463746Y0138049D01*
X0463850Y0138092D01*
X0463955Y0138132D01*
X0464062Y0138168D01*
X0464094Y0138062D01*
X0463987Y0138026D01*
X0463882Y0137986D01*
X0463778Y0137942D01*
X0463675Y0137895D01*
X0463574Y0137844D01*
X0463475Y0137790D01*
X0463378Y0137733D01*
X0463283Y0137672D01*
X0463190Y0137608D01*
X0463099Y0137541D01*
X0463011Y0137471D01*
X0462925Y0137398D01*
X0462842Y0137322D01*
X0462761Y0137243D01*
X0462683Y0137162D01*
X0462608Y0137078D01*
X0462536Y0136991D01*
X0462466Y0136902D01*
X0462400Y0136810D01*
X0462337Y0136717D01*
X0462278Y0136621D01*
X0462221Y0136523D01*
X0462168Y0136424D01*
X0462119Y0136322D01*
X0462073Y0136219D01*
X0462030Y0136115D01*
X0461991Y0136009D01*
X0461956Y0135902D01*
X0462062Y0135871D01*
X0462097Y0135974D01*
X0462134Y0136076D01*
X0462175Y0136177D01*
X0462220Y0136277D01*
X0462268Y0136374D01*
X0462319Y0136471D01*
X0462373Y0136565D01*
X0462431Y0136657D01*
X0462492Y0136748D01*
X0462556Y0136836D01*
X0462622Y0136922D01*
X0462692Y0137005D01*
X0462765Y0137087D01*
X0462840Y0137165D01*
X0462918Y0137241D01*
X0462998Y0137315D01*
X0463081Y0137385D01*
X0463166Y0137453D01*
X0463254Y0137518D01*
X0463344Y0137579D01*
X0463436Y0137638D01*
X0463529Y0137693D01*
X0463625Y0137745D01*
X0463722Y0137794D01*
X0463821Y0137840D01*
X0463921Y0137882D01*
X0464023Y0137921D01*
X0464126Y0137956D01*
X0464158Y0137849D01*
X0464055Y0137814D01*
X0463954Y0137775D01*
X0463854Y0137733D01*
X0463755Y0137687D01*
X0463658Y0137637D01*
X0463563Y0137585D01*
X0463470Y0137528D01*
X0463379Y0137469D01*
X0463290Y0137406D01*
X0463203Y0137341D01*
X0463118Y0137272D01*
X0463037Y0137200D01*
X0462957Y0137126D01*
X0462881Y0137048D01*
X0462807Y0136968D01*
X0462736Y0136886D01*
X0462668Y0136801D01*
X0462603Y0136713D01*
X0462542Y0136624D01*
X0462483Y0136532D01*
X0462428Y0136438D01*
X0462376Y0136342D01*
X0462328Y0136245D01*
X0462283Y0136146D01*
X0462241Y0136045D01*
X0462203Y0135943D01*
X0462169Y0135840D01*
X0462276Y0135809D01*
X0462310Y0135912D01*
X0462348Y0136014D01*
X0462390Y0136114D01*
X0462435Y0136213D01*
X0462484Y0136310D01*
X0462537Y0136405D01*
X0462593Y0136499D01*
X0462653Y0136590D01*
X0462715Y0136679D01*
X0462781Y0136765D01*
X0462850Y0136849D01*
X0462923Y0136930D01*
X0462998Y0137009D01*
X0463076Y0137085D01*
X0463156Y0137158D01*
X0463240Y0137228D01*
X0463325Y0137295D01*
X0463413Y0137358D01*
X0463504Y0137419D01*
X0463597Y0137476D01*
X0463691Y0137529D01*
X0463788Y0137579D01*
X0463886Y0137626D01*
X0463986Y0137669D01*
X0464088Y0137708D01*
X0464190Y0137743D01*
X0464222Y0137637D01*
X0464124Y0137603D01*
X0464026Y0137565D01*
X0463930Y0137524D01*
X0463836Y0137479D01*
X0463743Y0137431D01*
X0463652Y0137380D01*
X0463563Y0137325D01*
X0463476Y0137267D01*
X0463391Y0137206D01*
X0463309Y0137141D01*
X0463229Y0137074D01*
X0463151Y0137004D01*
X0463077Y0136931D01*
X0463004Y0136855D01*
X0462935Y0136777D01*
X0462869Y0136696D01*
X0462805Y0136613D01*
X0462745Y0136528D01*
X0462688Y0136441D01*
X0462634Y0136351D01*
X0462583Y0136260D01*
X0462536Y0136166D01*
X0462492Y0136071D01*
X0462452Y0135975D01*
X0462415Y0135877D01*
X0462382Y0135778D01*
X0462489Y0135747D01*
X0462522Y0135846D01*
X0462559Y0135943D01*
X0462600Y0136039D01*
X0462644Y0136134D01*
X0462691Y0136227D01*
X0462743Y0136317D01*
X0462797Y0136406D01*
X0462855Y0136493D01*
X0462917Y0136577D01*
X0462981Y0136659D01*
X0463049Y0136739D01*
X0463119Y0136816D01*
X0463192Y0136890D01*
X0463269Y0136961D01*
X0463347Y0137029D01*
X0463429Y0137094D01*
X0463512Y0137157D01*
X0463599Y0137215D01*
X0463687Y0137271D01*
X0463777Y0137323D01*
X0463869Y0137372D01*
X0463963Y0137417D01*
X0464059Y0137459D01*
X0464156Y0137496D01*
X0464255Y0137531D01*
X0464287Y0137424D01*
X0464192Y0137392D01*
X0464099Y0137355D01*
X0464008Y0137315D01*
X0463918Y0137272D01*
X0463829Y0137225D01*
X0463743Y0137175D01*
X0463659Y0137122D01*
X0463576Y0137066D01*
X0463496Y0137006D01*
X0463418Y0136944D01*
X0463343Y0136878D01*
X0463270Y0136810D01*
X0463200Y0136739D01*
X0463132Y0136665D01*
X0463067Y0136589D01*
X0463006Y0136511D01*
X0462947Y0136430D01*
X0462891Y0136347D01*
X0462839Y0136262D01*
X0462790Y0136175D01*
X0462744Y0136086D01*
X0462702Y0135996D01*
X0462663Y0135904D01*
X0462627Y0135811D01*
X0462596Y0135716D01*
X0462702Y0135685D01*
X0462734Y0135779D01*
X0462770Y0135872D01*
X0462809Y0135963D01*
X0462851Y0136053D01*
X0462898Y0136141D01*
X0462947Y0136227D01*
X0463001Y0136311D01*
X0463057Y0136393D01*
X0463116Y0136473D01*
X0463179Y0136550D01*
X0463245Y0136625D01*
X0463313Y0136697D01*
X0463385Y0136766D01*
X0463459Y0136832D01*
X0463535Y0136896D01*
X0463614Y0136956D01*
X0463695Y0137013D01*
X0463779Y0137067D01*
X0463865Y0137118D01*
X0463952Y0137165D01*
X0464041Y0137209D01*
X0464132Y0137249D01*
X0464225Y0137285D01*
X0464319Y0137318D01*
X0464351Y0137212D01*
X0464261Y0137180D01*
X0464173Y0137145D01*
X0464086Y0137107D01*
X0464001Y0137065D01*
X0463918Y0137020D01*
X0463836Y0136972D01*
X0463757Y0136921D01*
X0463679Y0136866D01*
X0463604Y0136809D01*
X0463531Y0136748D01*
X0463460Y0136685D01*
X0463392Y0136619D01*
X0463327Y0136550D01*
X0463264Y0136479D01*
X0463204Y0136405D01*
X0463148Y0136329D01*
X0463094Y0136251D01*
X0463043Y0136171D01*
X0462996Y0136089D01*
X0462952Y0136005D01*
X0462911Y0135919D01*
X0462873Y0135832D01*
X0462839Y0135744D01*
X0462809Y0135654D01*
X0465937Y0131832D02*
X0465630Y0132850D01*
X0465631Y0132850D02*
X0465721Y0132882D01*
X0465811Y0132917D01*
X0465899Y0132956D01*
X0465985Y0132999D01*
X0466069Y0133046D01*
X0466151Y0133095D01*
X0466231Y0133149D01*
X0466309Y0133205D01*
X0466385Y0133264D01*
X0466458Y0133327D01*
X0466528Y0133393D01*
X0466596Y0133461D01*
X0466661Y0133532D01*
X0466723Y0133606D01*
X0466781Y0133682D01*
X0466837Y0133760D01*
X0466889Y0133841D01*
X0466938Y0133924D01*
X0466984Y0134008D01*
X0467026Y0134095D01*
X0467064Y0134183D01*
X0467099Y0134273D01*
X0467130Y0134364D01*
X0468150Y0134068D01*
X0468151Y0134067D01*
X0468116Y0133960D01*
X0468077Y0133854D01*
X0468035Y0133749D01*
X0467989Y0133646D01*
X0467940Y0133545D01*
X0467888Y0133445D01*
X0467832Y0133347D01*
X0467774Y0133251D01*
X0467712Y0133156D01*
X0467647Y0133064D01*
X0467579Y0132974D01*
X0467508Y0132887D01*
X0467434Y0132802D01*
X0467357Y0132719D01*
X0467278Y0132639D01*
X0467196Y0132561D01*
X0467112Y0132487D01*
X0467025Y0132415D01*
X0466935Y0132346D01*
X0466844Y0132280D01*
X0466750Y0132217D01*
X0466655Y0132157D01*
X0466557Y0132101D01*
X0466458Y0132047D01*
X0466357Y0131997D01*
X0466254Y0131951D01*
X0466150Y0131908D01*
X0466045Y0131868D01*
X0465938Y0131832D01*
X0465906Y0131938D01*
X0466013Y0131974D01*
X0466118Y0132014D01*
X0466222Y0132058D01*
X0466325Y0132105D01*
X0466426Y0132156D01*
X0466525Y0132210D01*
X0466622Y0132267D01*
X0466717Y0132328D01*
X0466810Y0132392D01*
X0466901Y0132459D01*
X0466989Y0132529D01*
X0467075Y0132602D01*
X0467158Y0132678D01*
X0467239Y0132757D01*
X0467317Y0132838D01*
X0467392Y0132922D01*
X0467464Y0133009D01*
X0467534Y0133098D01*
X0467600Y0133190D01*
X0467663Y0133283D01*
X0467722Y0133379D01*
X0467779Y0133477D01*
X0467832Y0133576D01*
X0467881Y0133678D01*
X0467927Y0133781D01*
X0467970Y0133885D01*
X0468009Y0133991D01*
X0468044Y0134098D01*
X0467938Y0134129D01*
X0467903Y0134026D01*
X0467866Y0133924D01*
X0467825Y0133823D01*
X0467780Y0133723D01*
X0467732Y0133626D01*
X0467681Y0133529D01*
X0467627Y0133435D01*
X0467569Y0133343D01*
X0467508Y0133252D01*
X0467444Y0133164D01*
X0467378Y0133078D01*
X0467308Y0132995D01*
X0467235Y0132913D01*
X0467160Y0132835D01*
X0467082Y0132759D01*
X0467002Y0132685D01*
X0466919Y0132615D01*
X0466834Y0132547D01*
X0466746Y0132482D01*
X0466656Y0132421D01*
X0466564Y0132362D01*
X0466471Y0132307D01*
X0466375Y0132255D01*
X0466278Y0132206D01*
X0466179Y0132160D01*
X0466079Y0132118D01*
X0465977Y0132079D01*
X0465874Y0132044D01*
X0465842Y0132151D01*
X0465945Y0132186D01*
X0466046Y0132225D01*
X0466146Y0132267D01*
X0466245Y0132313D01*
X0466342Y0132363D01*
X0466437Y0132415D01*
X0466530Y0132472D01*
X0466621Y0132531D01*
X0466710Y0132594D01*
X0466797Y0132659D01*
X0466882Y0132728D01*
X0466963Y0132800D01*
X0467043Y0132874D01*
X0467119Y0132952D01*
X0467193Y0133032D01*
X0467264Y0133114D01*
X0467332Y0133199D01*
X0467397Y0133287D01*
X0467458Y0133376D01*
X0467517Y0133468D01*
X0467572Y0133562D01*
X0467624Y0133658D01*
X0467672Y0133755D01*
X0467717Y0133854D01*
X0467759Y0133955D01*
X0467797Y0134057D01*
X0467831Y0134160D01*
X0467724Y0134191D01*
X0467690Y0134088D01*
X0467652Y0133986D01*
X0467610Y0133886D01*
X0467565Y0133787D01*
X0467516Y0133690D01*
X0467463Y0133595D01*
X0467407Y0133501D01*
X0467347Y0133410D01*
X0467285Y0133321D01*
X0467219Y0133235D01*
X0467150Y0133151D01*
X0467077Y0133070D01*
X0467002Y0132991D01*
X0466924Y0132915D01*
X0466844Y0132842D01*
X0466760Y0132772D01*
X0466675Y0132705D01*
X0466587Y0132642D01*
X0466496Y0132581D01*
X0466403Y0132524D01*
X0466309Y0132471D01*
X0466212Y0132421D01*
X0466114Y0132374D01*
X0466014Y0132331D01*
X0465912Y0132292D01*
X0465810Y0132257D01*
X0465778Y0132363D01*
X0465876Y0132397D01*
X0465974Y0132435D01*
X0466070Y0132476D01*
X0466164Y0132521D01*
X0466257Y0132569D01*
X0466348Y0132620D01*
X0466437Y0132675D01*
X0466524Y0132733D01*
X0466609Y0132794D01*
X0466691Y0132859D01*
X0466771Y0132926D01*
X0466849Y0132996D01*
X0466923Y0133069D01*
X0466996Y0133145D01*
X0467065Y0133223D01*
X0467131Y0133304D01*
X0467195Y0133387D01*
X0467255Y0133472D01*
X0467312Y0133559D01*
X0467366Y0133649D01*
X0467417Y0133740D01*
X0467464Y0133834D01*
X0467508Y0133929D01*
X0467548Y0134025D01*
X0467585Y0134123D01*
X0467618Y0134222D01*
X0467511Y0134253D01*
X0467478Y0134154D01*
X0467441Y0134057D01*
X0467400Y0133961D01*
X0467356Y0133866D01*
X0467309Y0133773D01*
X0467257Y0133683D01*
X0467203Y0133594D01*
X0467145Y0133507D01*
X0467083Y0133423D01*
X0467019Y0133341D01*
X0466951Y0133261D01*
X0466881Y0133184D01*
X0466808Y0133110D01*
X0466731Y0133039D01*
X0466653Y0132971D01*
X0466571Y0132906D01*
X0466488Y0132843D01*
X0466401Y0132785D01*
X0466313Y0132729D01*
X0466223Y0132677D01*
X0466131Y0132628D01*
X0466037Y0132583D01*
X0465941Y0132541D01*
X0465844Y0132504D01*
X0465745Y0132469D01*
X0465713Y0132576D01*
X0465808Y0132608D01*
X0465901Y0132645D01*
X0465992Y0132685D01*
X0466082Y0132728D01*
X0466171Y0132775D01*
X0466257Y0132825D01*
X0466341Y0132878D01*
X0466424Y0132934D01*
X0466504Y0132994D01*
X0466582Y0133056D01*
X0466657Y0133122D01*
X0466730Y0133190D01*
X0466800Y0133261D01*
X0466868Y0133335D01*
X0466933Y0133411D01*
X0466994Y0133489D01*
X0467053Y0133570D01*
X0467109Y0133653D01*
X0467161Y0133738D01*
X0467210Y0133825D01*
X0467256Y0133914D01*
X0467298Y0134004D01*
X0467337Y0134096D01*
X0467373Y0134189D01*
X0467404Y0134284D01*
X0467298Y0134315D01*
X0467266Y0134221D01*
X0467230Y0134128D01*
X0467191Y0134037D01*
X0467149Y0133947D01*
X0467102Y0133859D01*
X0467053Y0133773D01*
X0466999Y0133689D01*
X0466943Y0133607D01*
X0466884Y0133527D01*
X0466821Y0133450D01*
X0466755Y0133375D01*
X0466687Y0133303D01*
X0466615Y0133234D01*
X0466541Y0133168D01*
X0466465Y0133104D01*
X0466386Y0133044D01*
X0466305Y0132987D01*
X0466221Y0132933D01*
X0466135Y0132882D01*
X0466048Y0132835D01*
X0465959Y0132791D01*
X0465868Y0132751D01*
X0465775Y0132715D01*
X0465681Y0132682D01*
X0465649Y0132788D01*
X0465739Y0132820D01*
X0465827Y0132855D01*
X0465914Y0132893D01*
X0465999Y0132935D01*
X0466082Y0132980D01*
X0466164Y0133028D01*
X0466243Y0133079D01*
X0466321Y0133134D01*
X0466396Y0133191D01*
X0466469Y0133252D01*
X0466540Y0133315D01*
X0466608Y0133381D01*
X0466673Y0133450D01*
X0466736Y0133521D01*
X0466796Y0133595D01*
X0466852Y0133671D01*
X0466906Y0133749D01*
X0466957Y0133829D01*
X0467004Y0133911D01*
X0467048Y0133995D01*
X0467089Y0134081D01*
X0467127Y0134168D01*
X0467161Y0134256D01*
X0467191Y0134346D01*
D27*
X0468150Y0129882D03*
X0468150Y0140118D03*
D28*
X0454685Y0139724D03*
X0454685Y0135000D03*
X0454685Y0130276D03*
D29*
X0415119Y0141260D03*
X0415119Y0145000D03*
X0415119Y0148740D03*
X0404881Y0148740D03*
X0404881Y0141260D03*
M02*
