G75*
%MOIN*%
%OFA0B0*%
%FSLAX25Y25*%
%IPPOS*%
%LPD*%
%AMOC8*
5,1,8,0,0,1.08239X$1,22.5*
%
%ADD10C,0.00800*%
%ADD11C,0.00000*%
D10*
X0215000Y0040000D02*
X0449500Y0040000D01*
X0449500Y0120000D01*
X0475000Y0120000D01*
X0475000Y0165000D01*
X0215000Y0165000D01*
X0215000Y0040000D01*
D11*
X0218500Y0050000D02*
X0218502Y0050161D01*
X0218508Y0050321D01*
X0218518Y0050482D01*
X0218532Y0050642D01*
X0218550Y0050802D01*
X0218571Y0050961D01*
X0218597Y0051120D01*
X0218627Y0051278D01*
X0218660Y0051435D01*
X0218698Y0051592D01*
X0218739Y0051747D01*
X0218784Y0051901D01*
X0218833Y0052054D01*
X0218886Y0052206D01*
X0218942Y0052357D01*
X0219003Y0052506D01*
X0219066Y0052654D01*
X0219134Y0052800D01*
X0219205Y0052944D01*
X0219279Y0053086D01*
X0219357Y0053227D01*
X0219439Y0053365D01*
X0219524Y0053502D01*
X0219612Y0053636D01*
X0219704Y0053768D01*
X0219799Y0053898D01*
X0219897Y0054026D01*
X0219998Y0054151D01*
X0220102Y0054273D01*
X0220209Y0054393D01*
X0220319Y0054510D01*
X0220432Y0054625D01*
X0220548Y0054736D01*
X0220667Y0054845D01*
X0220788Y0054950D01*
X0220912Y0055053D01*
X0221038Y0055153D01*
X0221166Y0055249D01*
X0221297Y0055342D01*
X0221431Y0055432D01*
X0221566Y0055519D01*
X0221704Y0055602D01*
X0221843Y0055682D01*
X0221985Y0055758D01*
X0222128Y0055831D01*
X0222273Y0055900D01*
X0222420Y0055966D01*
X0222568Y0056028D01*
X0222718Y0056086D01*
X0222869Y0056141D01*
X0223022Y0056192D01*
X0223176Y0056239D01*
X0223331Y0056282D01*
X0223487Y0056321D01*
X0223643Y0056357D01*
X0223801Y0056388D01*
X0223959Y0056416D01*
X0224118Y0056440D01*
X0224278Y0056460D01*
X0224438Y0056476D01*
X0224598Y0056488D01*
X0224759Y0056496D01*
X0224920Y0056500D01*
X0225080Y0056500D01*
X0225241Y0056496D01*
X0225402Y0056488D01*
X0225562Y0056476D01*
X0225722Y0056460D01*
X0225882Y0056440D01*
X0226041Y0056416D01*
X0226199Y0056388D01*
X0226357Y0056357D01*
X0226513Y0056321D01*
X0226669Y0056282D01*
X0226824Y0056239D01*
X0226978Y0056192D01*
X0227131Y0056141D01*
X0227282Y0056086D01*
X0227432Y0056028D01*
X0227580Y0055966D01*
X0227727Y0055900D01*
X0227872Y0055831D01*
X0228015Y0055758D01*
X0228157Y0055682D01*
X0228296Y0055602D01*
X0228434Y0055519D01*
X0228569Y0055432D01*
X0228703Y0055342D01*
X0228834Y0055249D01*
X0228962Y0055153D01*
X0229088Y0055053D01*
X0229212Y0054950D01*
X0229333Y0054845D01*
X0229452Y0054736D01*
X0229568Y0054625D01*
X0229681Y0054510D01*
X0229791Y0054393D01*
X0229898Y0054273D01*
X0230002Y0054151D01*
X0230103Y0054026D01*
X0230201Y0053898D01*
X0230296Y0053768D01*
X0230388Y0053636D01*
X0230476Y0053502D01*
X0230561Y0053365D01*
X0230643Y0053227D01*
X0230721Y0053086D01*
X0230795Y0052944D01*
X0230866Y0052800D01*
X0230934Y0052654D01*
X0230997Y0052506D01*
X0231058Y0052357D01*
X0231114Y0052206D01*
X0231167Y0052054D01*
X0231216Y0051901D01*
X0231261Y0051747D01*
X0231302Y0051592D01*
X0231340Y0051435D01*
X0231373Y0051278D01*
X0231403Y0051120D01*
X0231429Y0050961D01*
X0231450Y0050802D01*
X0231468Y0050642D01*
X0231482Y0050482D01*
X0231492Y0050321D01*
X0231498Y0050161D01*
X0231500Y0050000D01*
X0231498Y0049839D01*
X0231492Y0049679D01*
X0231482Y0049518D01*
X0231468Y0049358D01*
X0231450Y0049198D01*
X0231429Y0049039D01*
X0231403Y0048880D01*
X0231373Y0048722D01*
X0231340Y0048565D01*
X0231302Y0048408D01*
X0231261Y0048253D01*
X0231216Y0048099D01*
X0231167Y0047946D01*
X0231114Y0047794D01*
X0231058Y0047643D01*
X0230997Y0047494D01*
X0230934Y0047346D01*
X0230866Y0047200D01*
X0230795Y0047056D01*
X0230721Y0046914D01*
X0230643Y0046773D01*
X0230561Y0046635D01*
X0230476Y0046498D01*
X0230388Y0046364D01*
X0230296Y0046232D01*
X0230201Y0046102D01*
X0230103Y0045974D01*
X0230002Y0045849D01*
X0229898Y0045727D01*
X0229791Y0045607D01*
X0229681Y0045490D01*
X0229568Y0045375D01*
X0229452Y0045264D01*
X0229333Y0045155D01*
X0229212Y0045050D01*
X0229088Y0044947D01*
X0228962Y0044847D01*
X0228834Y0044751D01*
X0228703Y0044658D01*
X0228569Y0044568D01*
X0228434Y0044481D01*
X0228296Y0044398D01*
X0228157Y0044318D01*
X0228015Y0044242D01*
X0227872Y0044169D01*
X0227727Y0044100D01*
X0227580Y0044034D01*
X0227432Y0043972D01*
X0227282Y0043914D01*
X0227131Y0043859D01*
X0226978Y0043808D01*
X0226824Y0043761D01*
X0226669Y0043718D01*
X0226513Y0043679D01*
X0226357Y0043643D01*
X0226199Y0043612D01*
X0226041Y0043584D01*
X0225882Y0043560D01*
X0225722Y0043540D01*
X0225562Y0043524D01*
X0225402Y0043512D01*
X0225241Y0043504D01*
X0225080Y0043500D01*
X0224920Y0043500D01*
X0224759Y0043504D01*
X0224598Y0043512D01*
X0224438Y0043524D01*
X0224278Y0043540D01*
X0224118Y0043560D01*
X0223959Y0043584D01*
X0223801Y0043612D01*
X0223643Y0043643D01*
X0223487Y0043679D01*
X0223331Y0043718D01*
X0223176Y0043761D01*
X0223022Y0043808D01*
X0222869Y0043859D01*
X0222718Y0043914D01*
X0222568Y0043972D01*
X0222420Y0044034D01*
X0222273Y0044100D01*
X0222128Y0044169D01*
X0221985Y0044242D01*
X0221843Y0044318D01*
X0221704Y0044398D01*
X0221566Y0044481D01*
X0221431Y0044568D01*
X0221297Y0044658D01*
X0221166Y0044751D01*
X0221038Y0044847D01*
X0220912Y0044947D01*
X0220788Y0045050D01*
X0220667Y0045155D01*
X0220548Y0045264D01*
X0220432Y0045375D01*
X0220319Y0045490D01*
X0220209Y0045607D01*
X0220102Y0045727D01*
X0219998Y0045849D01*
X0219897Y0045974D01*
X0219799Y0046102D01*
X0219704Y0046232D01*
X0219612Y0046364D01*
X0219524Y0046498D01*
X0219439Y0046635D01*
X0219357Y0046773D01*
X0219279Y0046914D01*
X0219205Y0047056D01*
X0219134Y0047200D01*
X0219066Y0047346D01*
X0219003Y0047494D01*
X0218942Y0047643D01*
X0218886Y0047794D01*
X0218833Y0047946D01*
X0218784Y0048099D01*
X0218739Y0048253D01*
X0218698Y0048408D01*
X0218660Y0048565D01*
X0218627Y0048722D01*
X0218597Y0048880D01*
X0218571Y0049039D01*
X0218550Y0049198D01*
X0218532Y0049358D01*
X0218518Y0049518D01*
X0218508Y0049679D01*
X0218502Y0049839D01*
X0218500Y0050000D01*
X0235531Y0074122D02*
X0235533Y0074193D01*
X0235539Y0074264D01*
X0235549Y0074335D01*
X0235563Y0074404D01*
X0235580Y0074473D01*
X0235602Y0074541D01*
X0235627Y0074608D01*
X0235656Y0074673D01*
X0235688Y0074736D01*
X0235724Y0074798D01*
X0235763Y0074857D01*
X0235806Y0074914D01*
X0235851Y0074969D01*
X0235900Y0075021D01*
X0235951Y0075070D01*
X0236005Y0075116D01*
X0236062Y0075160D01*
X0236120Y0075200D01*
X0236181Y0075236D01*
X0236244Y0075270D01*
X0236309Y0075299D01*
X0236375Y0075325D01*
X0236443Y0075348D01*
X0236511Y0075366D01*
X0236581Y0075381D01*
X0236651Y0075392D01*
X0236722Y0075399D01*
X0236793Y0075402D01*
X0236864Y0075401D01*
X0236935Y0075396D01*
X0237006Y0075387D01*
X0237076Y0075374D01*
X0237145Y0075358D01*
X0237213Y0075337D01*
X0237280Y0075313D01*
X0237346Y0075285D01*
X0237409Y0075253D01*
X0237471Y0075218D01*
X0237531Y0075180D01*
X0237589Y0075138D01*
X0237644Y0075094D01*
X0237697Y0075046D01*
X0237747Y0074995D01*
X0237794Y0074942D01*
X0237838Y0074886D01*
X0237879Y0074828D01*
X0237917Y0074767D01*
X0237951Y0074705D01*
X0237981Y0074640D01*
X0238008Y0074575D01*
X0238032Y0074507D01*
X0238051Y0074439D01*
X0238067Y0074370D01*
X0238079Y0074299D01*
X0238087Y0074229D01*
X0238091Y0074158D01*
X0238091Y0074086D01*
X0238087Y0074015D01*
X0238079Y0073945D01*
X0238067Y0073874D01*
X0238051Y0073805D01*
X0238032Y0073737D01*
X0238008Y0073669D01*
X0237981Y0073604D01*
X0237951Y0073539D01*
X0237917Y0073477D01*
X0237879Y0073416D01*
X0237838Y0073358D01*
X0237794Y0073302D01*
X0237747Y0073249D01*
X0237697Y0073198D01*
X0237644Y0073150D01*
X0237589Y0073106D01*
X0237531Y0073064D01*
X0237471Y0073026D01*
X0237409Y0072991D01*
X0237346Y0072959D01*
X0237280Y0072931D01*
X0237213Y0072907D01*
X0237145Y0072886D01*
X0237076Y0072870D01*
X0237006Y0072857D01*
X0236935Y0072848D01*
X0236864Y0072843D01*
X0236793Y0072842D01*
X0236722Y0072845D01*
X0236651Y0072852D01*
X0236581Y0072863D01*
X0236511Y0072878D01*
X0236443Y0072896D01*
X0236375Y0072919D01*
X0236309Y0072945D01*
X0236244Y0072974D01*
X0236181Y0073008D01*
X0236120Y0073044D01*
X0236062Y0073084D01*
X0236005Y0073128D01*
X0235951Y0073174D01*
X0235900Y0073223D01*
X0235851Y0073275D01*
X0235806Y0073330D01*
X0235763Y0073387D01*
X0235724Y0073446D01*
X0235688Y0073508D01*
X0235656Y0073571D01*
X0235627Y0073636D01*
X0235602Y0073703D01*
X0235580Y0073771D01*
X0235563Y0073840D01*
X0235549Y0073909D01*
X0235539Y0073980D01*
X0235533Y0074051D01*
X0235531Y0074122D01*
X0235531Y0096878D02*
X0235533Y0096949D01*
X0235539Y0097020D01*
X0235549Y0097091D01*
X0235563Y0097160D01*
X0235580Y0097229D01*
X0235602Y0097297D01*
X0235627Y0097364D01*
X0235656Y0097429D01*
X0235688Y0097492D01*
X0235724Y0097554D01*
X0235763Y0097613D01*
X0235806Y0097670D01*
X0235851Y0097725D01*
X0235900Y0097777D01*
X0235951Y0097826D01*
X0236005Y0097872D01*
X0236062Y0097916D01*
X0236120Y0097956D01*
X0236181Y0097992D01*
X0236244Y0098026D01*
X0236309Y0098055D01*
X0236375Y0098081D01*
X0236443Y0098104D01*
X0236511Y0098122D01*
X0236581Y0098137D01*
X0236651Y0098148D01*
X0236722Y0098155D01*
X0236793Y0098158D01*
X0236864Y0098157D01*
X0236935Y0098152D01*
X0237006Y0098143D01*
X0237076Y0098130D01*
X0237145Y0098114D01*
X0237213Y0098093D01*
X0237280Y0098069D01*
X0237346Y0098041D01*
X0237409Y0098009D01*
X0237471Y0097974D01*
X0237531Y0097936D01*
X0237589Y0097894D01*
X0237644Y0097850D01*
X0237697Y0097802D01*
X0237747Y0097751D01*
X0237794Y0097698D01*
X0237838Y0097642D01*
X0237879Y0097584D01*
X0237917Y0097523D01*
X0237951Y0097461D01*
X0237981Y0097396D01*
X0238008Y0097331D01*
X0238032Y0097263D01*
X0238051Y0097195D01*
X0238067Y0097126D01*
X0238079Y0097055D01*
X0238087Y0096985D01*
X0238091Y0096914D01*
X0238091Y0096842D01*
X0238087Y0096771D01*
X0238079Y0096701D01*
X0238067Y0096630D01*
X0238051Y0096561D01*
X0238032Y0096493D01*
X0238008Y0096425D01*
X0237981Y0096360D01*
X0237951Y0096295D01*
X0237917Y0096233D01*
X0237879Y0096172D01*
X0237838Y0096114D01*
X0237794Y0096058D01*
X0237747Y0096005D01*
X0237697Y0095954D01*
X0237644Y0095906D01*
X0237589Y0095862D01*
X0237531Y0095820D01*
X0237471Y0095782D01*
X0237409Y0095747D01*
X0237346Y0095715D01*
X0237280Y0095687D01*
X0237213Y0095663D01*
X0237145Y0095642D01*
X0237076Y0095626D01*
X0237006Y0095613D01*
X0236935Y0095604D01*
X0236864Y0095599D01*
X0236793Y0095598D01*
X0236722Y0095601D01*
X0236651Y0095608D01*
X0236581Y0095619D01*
X0236511Y0095634D01*
X0236443Y0095652D01*
X0236375Y0095675D01*
X0236309Y0095701D01*
X0236244Y0095730D01*
X0236181Y0095764D01*
X0236120Y0095800D01*
X0236062Y0095840D01*
X0236005Y0095884D01*
X0235951Y0095930D01*
X0235900Y0095979D01*
X0235851Y0096031D01*
X0235806Y0096086D01*
X0235763Y0096143D01*
X0235724Y0096202D01*
X0235688Y0096264D01*
X0235656Y0096327D01*
X0235627Y0096392D01*
X0235602Y0096459D01*
X0235580Y0096527D01*
X0235563Y0096596D01*
X0235549Y0096665D01*
X0235539Y0096736D01*
X0235533Y0096807D01*
X0235531Y0096878D01*
X0246496Y0140000D02*
X0246498Y0140097D01*
X0246504Y0140194D01*
X0246514Y0140290D01*
X0246528Y0140386D01*
X0246546Y0140482D01*
X0246567Y0140576D01*
X0246593Y0140670D01*
X0246622Y0140762D01*
X0246656Y0140853D01*
X0246692Y0140943D01*
X0246733Y0141031D01*
X0246777Y0141117D01*
X0246825Y0141202D01*
X0246876Y0141284D01*
X0246930Y0141365D01*
X0246988Y0141443D01*
X0247049Y0141518D01*
X0247112Y0141591D01*
X0247179Y0141662D01*
X0247249Y0141729D01*
X0247321Y0141794D01*
X0247396Y0141855D01*
X0247474Y0141914D01*
X0247553Y0141969D01*
X0247635Y0142021D01*
X0247719Y0142069D01*
X0247805Y0142114D01*
X0247893Y0142156D01*
X0247982Y0142194D01*
X0248073Y0142228D01*
X0248165Y0142258D01*
X0248258Y0142285D01*
X0248353Y0142307D01*
X0248448Y0142326D01*
X0248544Y0142341D01*
X0248640Y0142352D01*
X0248737Y0142359D01*
X0248834Y0142362D01*
X0248931Y0142361D01*
X0249028Y0142356D01*
X0249124Y0142347D01*
X0249220Y0142334D01*
X0249316Y0142317D01*
X0249411Y0142296D01*
X0249504Y0142272D01*
X0249597Y0142243D01*
X0249689Y0142211D01*
X0249779Y0142175D01*
X0249867Y0142136D01*
X0249954Y0142092D01*
X0250039Y0142046D01*
X0250122Y0141995D01*
X0250203Y0141942D01*
X0250281Y0141885D01*
X0250358Y0141825D01*
X0250431Y0141762D01*
X0250502Y0141696D01*
X0250570Y0141627D01*
X0250636Y0141555D01*
X0250698Y0141481D01*
X0250757Y0141404D01*
X0250813Y0141325D01*
X0250866Y0141243D01*
X0250916Y0141160D01*
X0250961Y0141074D01*
X0251004Y0140987D01*
X0251043Y0140898D01*
X0251078Y0140808D01*
X0251109Y0140716D01*
X0251136Y0140623D01*
X0251160Y0140529D01*
X0251180Y0140434D01*
X0251196Y0140338D01*
X0251208Y0140242D01*
X0251216Y0140145D01*
X0251220Y0140048D01*
X0251220Y0139952D01*
X0251216Y0139855D01*
X0251208Y0139758D01*
X0251196Y0139662D01*
X0251180Y0139566D01*
X0251160Y0139471D01*
X0251136Y0139377D01*
X0251109Y0139284D01*
X0251078Y0139192D01*
X0251043Y0139102D01*
X0251004Y0139013D01*
X0250961Y0138926D01*
X0250916Y0138840D01*
X0250866Y0138757D01*
X0250813Y0138675D01*
X0250757Y0138596D01*
X0250698Y0138519D01*
X0250636Y0138445D01*
X0250570Y0138373D01*
X0250502Y0138304D01*
X0250431Y0138238D01*
X0250358Y0138175D01*
X0250281Y0138115D01*
X0250203Y0138058D01*
X0250122Y0138005D01*
X0250039Y0137954D01*
X0249954Y0137908D01*
X0249867Y0137864D01*
X0249779Y0137825D01*
X0249689Y0137789D01*
X0249597Y0137757D01*
X0249504Y0137728D01*
X0249411Y0137704D01*
X0249316Y0137683D01*
X0249220Y0137666D01*
X0249124Y0137653D01*
X0249028Y0137644D01*
X0248931Y0137639D01*
X0248834Y0137638D01*
X0248737Y0137641D01*
X0248640Y0137648D01*
X0248544Y0137659D01*
X0248448Y0137674D01*
X0248353Y0137693D01*
X0248258Y0137715D01*
X0248165Y0137742D01*
X0248073Y0137772D01*
X0247982Y0137806D01*
X0247893Y0137844D01*
X0247805Y0137886D01*
X0247719Y0137931D01*
X0247635Y0137979D01*
X0247553Y0138031D01*
X0247474Y0138086D01*
X0247396Y0138145D01*
X0247321Y0138206D01*
X0247249Y0138271D01*
X0247179Y0138338D01*
X0247112Y0138409D01*
X0247049Y0138482D01*
X0246988Y0138557D01*
X0246930Y0138635D01*
X0246876Y0138716D01*
X0246825Y0138798D01*
X0246777Y0138883D01*
X0246733Y0138969D01*
X0246692Y0139057D01*
X0246656Y0139147D01*
X0246622Y0139238D01*
X0246593Y0139330D01*
X0246567Y0139424D01*
X0246546Y0139518D01*
X0246528Y0139614D01*
X0246514Y0139710D01*
X0246504Y0139806D01*
X0246498Y0139903D01*
X0246496Y0140000D01*
X0218937Y0140000D02*
X0218939Y0140097D01*
X0218945Y0140194D01*
X0218955Y0140290D01*
X0218969Y0140386D01*
X0218987Y0140482D01*
X0219008Y0140576D01*
X0219034Y0140670D01*
X0219063Y0140762D01*
X0219097Y0140853D01*
X0219133Y0140943D01*
X0219174Y0141031D01*
X0219218Y0141117D01*
X0219266Y0141202D01*
X0219317Y0141284D01*
X0219371Y0141365D01*
X0219429Y0141443D01*
X0219490Y0141518D01*
X0219553Y0141591D01*
X0219620Y0141662D01*
X0219690Y0141729D01*
X0219762Y0141794D01*
X0219837Y0141855D01*
X0219915Y0141914D01*
X0219994Y0141969D01*
X0220076Y0142021D01*
X0220160Y0142069D01*
X0220246Y0142114D01*
X0220334Y0142156D01*
X0220423Y0142194D01*
X0220514Y0142228D01*
X0220606Y0142258D01*
X0220699Y0142285D01*
X0220794Y0142307D01*
X0220889Y0142326D01*
X0220985Y0142341D01*
X0221081Y0142352D01*
X0221178Y0142359D01*
X0221275Y0142362D01*
X0221372Y0142361D01*
X0221469Y0142356D01*
X0221565Y0142347D01*
X0221661Y0142334D01*
X0221757Y0142317D01*
X0221852Y0142296D01*
X0221945Y0142272D01*
X0222038Y0142243D01*
X0222130Y0142211D01*
X0222220Y0142175D01*
X0222308Y0142136D01*
X0222395Y0142092D01*
X0222480Y0142046D01*
X0222563Y0141995D01*
X0222644Y0141942D01*
X0222722Y0141885D01*
X0222799Y0141825D01*
X0222872Y0141762D01*
X0222943Y0141696D01*
X0223011Y0141627D01*
X0223077Y0141555D01*
X0223139Y0141481D01*
X0223198Y0141404D01*
X0223254Y0141325D01*
X0223307Y0141243D01*
X0223357Y0141160D01*
X0223402Y0141074D01*
X0223445Y0140987D01*
X0223484Y0140898D01*
X0223519Y0140808D01*
X0223550Y0140716D01*
X0223577Y0140623D01*
X0223601Y0140529D01*
X0223621Y0140434D01*
X0223637Y0140338D01*
X0223649Y0140242D01*
X0223657Y0140145D01*
X0223661Y0140048D01*
X0223661Y0139952D01*
X0223657Y0139855D01*
X0223649Y0139758D01*
X0223637Y0139662D01*
X0223621Y0139566D01*
X0223601Y0139471D01*
X0223577Y0139377D01*
X0223550Y0139284D01*
X0223519Y0139192D01*
X0223484Y0139102D01*
X0223445Y0139013D01*
X0223402Y0138926D01*
X0223357Y0138840D01*
X0223307Y0138757D01*
X0223254Y0138675D01*
X0223198Y0138596D01*
X0223139Y0138519D01*
X0223077Y0138445D01*
X0223011Y0138373D01*
X0222943Y0138304D01*
X0222872Y0138238D01*
X0222799Y0138175D01*
X0222722Y0138115D01*
X0222644Y0138058D01*
X0222563Y0138005D01*
X0222480Y0137954D01*
X0222395Y0137908D01*
X0222308Y0137864D01*
X0222220Y0137825D01*
X0222130Y0137789D01*
X0222038Y0137757D01*
X0221945Y0137728D01*
X0221852Y0137704D01*
X0221757Y0137683D01*
X0221661Y0137666D01*
X0221565Y0137653D01*
X0221469Y0137644D01*
X0221372Y0137639D01*
X0221275Y0137638D01*
X0221178Y0137641D01*
X0221081Y0137648D01*
X0220985Y0137659D01*
X0220889Y0137674D01*
X0220794Y0137693D01*
X0220699Y0137715D01*
X0220606Y0137742D01*
X0220514Y0137772D01*
X0220423Y0137806D01*
X0220334Y0137844D01*
X0220246Y0137886D01*
X0220160Y0137931D01*
X0220076Y0137979D01*
X0219994Y0138031D01*
X0219915Y0138086D01*
X0219837Y0138145D01*
X0219762Y0138206D01*
X0219690Y0138271D01*
X0219620Y0138338D01*
X0219553Y0138409D01*
X0219490Y0138482D01*
X0219429Y0138557D01*
X0219371Y0138635D01*
X0219317Y0138716D01*
X0219266Y0138798D01*
X0219218Y0138883D01*
X0219174Y0138969D01*
X0219133Y0139057D01*
X0219097Y0139147D01*
X0219063Y0139238D01*
X0219034Y0139330D01*
X0219008Y0139424D01*
X0218987Y0139518D01*
X0218969Y0139614D01*
X0218955Y0139710D01*
X0218945Y0139806D01*
X0218939Y0139903D01*
X0218937Y0140000D01*
X0463228Y0135000D02*
X0463230Y0135084D01*
X0463236Y0135167D01*
X0463246Y0135250D01*
X0463260Y0135333D01*
X0463277Y0135415D01*
X0463299Y0135496D01*
X0463324Y0135575D01*
X0463353Y0135654D01*
X0463386Y0135731D01*
X0463422Y0135806D01*
X0463462Y0135880D01*
X0463505Y0135952D01*
X0463552Y0136021D01*
X0463602Y0136088D01*
X0463655Y0136153D01*
X0463711Y0136215D01*
X0463769Y0136275D01*
X0463831Y0136332D01*
X0463895Y0136385D01*
X0463962Y0136436D01*
X0464031Y0136483D01*
X0464102Y0136528D01*
X0464175Y0136568D01*
X0464250Y0136605D01*
X0464327Y0136639D01*
X0464405Y0136669D01*
X0464484Y0136695D01*
X0464565Y0136718D01*
X0464647Y0136736D01*
X0464729Y0136751D01*
X0464812Y0136762D01*
X0464895Y0136769D01*
X0464979Y0136772D01*
X0465063Y0136771D01*
X0465146Y0136766D01*
X0465230Y0136757D01*
X0465312Y0136744D01*
X0465394Y0136728D01*
X0465475Y0136707D01*
X0465556Y0136683D01*
X0465634Y0136655D01*
X0465712Y0136623D01*
X0465788Y0136587D01*
X0465862Y0136548D01*
X0465934Y0136506D01*
X0466004Y0136460D01*
X0466072Y0136411D01*
X0466137Y0136359D01*
X0466200Y0136304D01*
X0466260Y0136246D01*
X0466318Y0136185D01*
X0466372Y0136121D01*
X0466424Y0136055D01*
X0466472Y0135987D01*
X0466517Y0135916D01*
X0466558Y0135843D01*
X0466597Y0135769D01*
X0466631Y0135693D01*
X0466662Y0135615D01*
X0466689Y0135536D01*
X0466713Y0135455D01*
X0466732Y0135374D01*
X0466748Y0135292D01*
X0466760Y0135209D01*
X0466768Y0135125D01*
X0466772Y0135042D01*
X0466772Y0134958D01*
X0466768Y0134875D01*
X0466760Y0134791D01*
X0466748Y0134708D01*
X0466732Y0134626D01*
X0466713Y0134545D01*
X0466689Y0134464D01*
X0466662Y0134385D01*
X0466631Y0134307D01*
X0466597Y0134231D01*
X0466558Y0134157D01*
X0466517Y0134084D01*
X0466472Y0134013D01*
X0466424Y0133945D01*
X0466372Y0133879D01*
X0466318Y0133815D01*
X0466260Y0133754D01*
X0466200Y0133696D01*
X0466137Y0133641D01*
X0466072Y0133589D01*
X0466004Y0133540D01*
X0465934Y0133494D01*
X0465862Y0133452D01*
X0465788Y0133413D01*
X0465712Y0133377D01*
X0465634Y0133345D01*
X0465556Y0133317D01*
X0465475Y0133293D01*
X0465394Y0133272D01*
X0465312Y0133256D01*
X0465230Y0133243D01*
X0465146Y0133234D01*
X0465063Y0133229D01*
X0464979Y0133228D01*
X0464895Y0133231D01*
X0464812Y0133238D01*
X0464729Y0133249D01*
X0464647Y0133264D01*
X0464565Y0133282D01*
X0464484Y0133305D01*
X0464405Y0133331D01*
X0464327Y0133361D01*
X0464250Y0133395D01*
X0464175Y0133432D01*
X0464102Y0133472D01*
X0464031Y0133517D01*
X0463962Y0133564D01*
X0463895Y0133615D01*
X0463831Y0133668D01*
X0463769Y0133725D01*
X0463711Y0133785D01*
X0463655Y0133847D01*
X0463602Y0133912D01*
X0463552Y0133979D01*
X0463505Y0134048D01*
X0463462Y0134120D01*
X0463422Y0134194D01*
X0463386Y0134269D01*
X0463353Y0134346D01*
X0463324Y0134425D01*
X0463299Y0134504D01*
X0463277Y0134585D01*
X0463260Y0134667D01*
X0463246Y0134750D01*
X0463236Y0134833D01*
X0463230Y0134916D01*
X0463228Y0135000D01*
X0458500Y0155000D02*
X0458502Y0155161D01*
X0458508Y0155321D01*
X0458518Y0155482D01*
X0458532Y0155642D01*
X0458550Y0155802D01*
X0458571Y0155961D01*
X0458597Y0156120D01*
X0458627Y0156278D01*
X0458660Y0156435D01*
X0458698Y0156592D01*
X0458739Y0156747D01*
X0458784Y0156901D01*
X0458833Y0157054D01*
X0458886Y0157206D01*
X0458942Y0157357D01*
X0459003Y0157506D01*
X0459066Y0157654D01*
X0459134Y0157800D01*
X0459205Y0157944D01*
X0459279Y0158086D01*
X0459357Y0158227D01*
X0459439Y0158365D01*
X0459524Y0158502D01*
X0459612Y0158636D01*
X0459704Y0158768D01*
X0459799Y0158898D01*
X0459897Y0159026D01*
X0459998Y0159151D01*
X0460102Y0159273D01*
X0460209Y0159393D01*
X0460319Y0159510D01*
X0460432Y0159625D01*
X0460548Y0159736D01*
X0460667Y0159845D01*
X0460788Y0159950D01*
X0460912Y0160053D01*
X0461038Y0160153D01*
X0461166Y0160249D01*
X0461297Y0160342D01*
X0461431Y0160432D01*
X0461566Y0160519D01*
X0461704Y0160602D01*
X0461843Y0160682D01*
X0461985Y0160758D01*
X0462128Y0160831D01*
X0462273Y0160900D01*
X0462420Y0160966D01*
X0462568Y0161028D01*
X0462718Y0161086D01*
X0462869Y0161141D01*
X0463022Y0161192D01*
X0463176Y0161239D01*
X0463331Y0161282D01*
X0463487Y0161321D01*
X0463643Y0161357D01*
X0463801Y0161388D01*
X0463959Y0161416D01*
X0464118Y0161440D01*
X0464278Y0161460D01*
X0464438Y0161476D01*
X0464598Y0161488D01*
X0464759Y0161496D01*
X0464920Y0161500D01*
X0465080Y0161500D01*
X0465241Y0161496D01*
X0465402Y0161488D01*
X0465562Y0161476D01*
X0465722Y0161460D01*
X0465882Y0161440D01*
X0466041Y0161416D01*
X0466199Y0161388D01*
X0466357Y0161357D01*
X0466513Y0161321D01*
X0466669Y0161282D01*
X0466824Y0161239D01*
X0466978Y0161192D01*
X0467131Y0161141D01*
X0467282Y0161086D01*
X0467432Y0161028D01*
X0467580Y0160966D01*
X0467727Y0160900D01*
X0467872Y0160831D01*
X0468015Y0160758D01*
X0468157Y0160682D01*
X0468296Y0160602D01*
X0468434Y0160519D01*
X0468569Y0160432D01*
X0468703Y0160342D01*
X0468834Y0160249D01*
X0468962Y0160153D01*
X0469088Y0160053D01*
X0469212Y0159950D01*
X0469333Y0159845D01*
X0469452Y0159736D01*
X0469568Y0159625D01*
X0469681Y0159510D01*
X0469791Y0159393D01*
X0469898Y0159273D01*
X0470002Y0159151D01*
X0470103Y0159026D01*
X0470201Y0158898D01*
X0470296Y0158768D01*
X0470388Y0158636D01*
X0470476Y0158502D01*
X0470561Y0158365D01*
X0470643Y0158227D01*
X0470721Y0158086D01*
X0470795Y0157944D01*
X0470866Y0157800D01*
X0470934Y0157654D01*
X0470997Y0157506D01*
X0471058Y0157357D01*
X0471114Y0157206D01*
X0471167Y0157054D01*
X0471216Y0156901D01*
X0471261Y0156747D01*
X0471302Y0156592D01*
X0471340Y0156435D01*
X0471373Y0156278D01*
X0471403Y0156120D01*
X0471429Y0155961D01*
X0471450Y0155802D01*
X0471468Y0155642D01*
X0471482Y0155482D01*
X0471492Y0155321D01*
X0471498Y0155161D01*
X0471500Y0155000D01*
X0471498Y0154839D01*
X0471492Y0154679D01*
X0471482Y0154518D01*
X0471468Y0154358D01*
X0471450Y0154198D01*
X0471429Y0154039D01*
X0471403Y0153880D01*
X0471373Y0153722D01*
X0471340Y0153565D01*
X0471302Y0153408D01*
X0471261Y0153253D01*
X0471216Y0153099D01*
X0471167Y0152946D01*
X0471114Y0152794D01*
X0471058Y0152643D01*
X0470997Y0152494D01*
X0470934Y0152346D01*
X0470866Y0152200D01*
X0470795Y0152056D01*
X0470721Y0151914D01*
X0470643Y0151773D01*
X0470561Y0151635D01*
X0470476Y0151498D01*
X0470388Y0151364D01*
X0470296Y0151232D01*
X0470201Y0151102D01*
X0470103Y0150974D01*
X0470002Y0150849D01*
X0469898Y0150727D01*
X0469791Y0150607D01*
X0469681Y0150490D01*
X0469568Y0150375D01*
X0469452Y0150264D01*
X0469333Y0150155D01*
X0469212Y0150050D01*
X0469088Y0149947D01*
X0468962Y0149847D01*
X0468834Y0149751D01*
X0468703Y0149658D01*
X0468569Y0149568D01*
X0468434Y0149481D01*
X0468296Y0149398D01*
X0468157Y0149318D01*
X0468015Y0149242D01*
X0467872Y0149169D01*
X0467727Y0149100D01*
X0467580Y0149034D01*
X0467432Y0148972D01*
X0467282Y0148914D01*
X0467131Y0148859D01*
X0466978Y0148808D01*
X0466824Y0148761D01*
X0466669Y0148718D01*
X0466513Y0148679D01*
X0466357Y0148643D01*
X0466199Y0148612D01*
X0466041Y0148584D01*
X0465882Y0148560D01*
X0465722Y0148540D01*
X0465562Y0148524D01*
X0465402Y0148512D01*
X0465241Y0148504D01*
X0465080Y0148500D01*
X0464920Y0148500D01*
X0464759Y0148504D01*
X0464598Y0148512D01*
X0464438Y0148524D01*
X0464278Y0148540D01*
X0464118Y0148560D01*
X0463959Y0148584D01*
X0463801Y0148612D01*
X0463643Y0148643D01*
X0463487Y0148679D01*
X0463331Y0148718D01*
X0463176Y0148761D01*
X0463022Y0148808D01*
X0462869Y0148859D01*
X0462718Y0148914D01*
X0462568Y0148972D01*
X0462420Y0149034D01*
X0462273Y0149100D01*
X0462128Y0149169D01*
X0461985Y0149242D01*
X0461843Y0149318D01*
X0461704Y0149398D01*
X0461566Y0149481D01*
X0461431Y0149568D01*
X0461297Y0149658D01*
X0461166Y0149751D01*
X0461038Y0149847D01*
X0460912Y0149947D01*
X0460788Y0150050D01*
X0460667Y0150155D01*
X0460548Y0150264D01*
X0460432Y0150375D01*
X0460319Y0150490D01*
X0460209Y0150607D01*
X0460102Y0150727D01*
X0459998Y0150849D01*
X0459897Y0150974D01*
X0459799Y0151102D01*
X0459704Y0151232D01*
X0459612Y0151364D01*
X0459524Y0151498D01*
X0459439Y0151635D01*
X0459357Y0151773D01*
X0459279Y0151914D01*
X0459205Y0152056D01*
X0459134Y0152200D01*
X0459066Y0152346D01*
X0459003Y0152494D01*
X0458942Y0152643D01*
X0458886Y0152794D01*
X0458833Y0152946D01*
X0458784Y0153099D01*
X0458739Y0153253D01*
X0458698Y0153408D01*
X0458660Y0153565D01*
X0458627Y0153722D01*
X0458597Y0153880D01*
X0458571Y0154039D01*
X0458550Y0154198D01*
X0458532Y0154358D01*
X0458518Y0154518D01*
X0458508Y0154679D01*
X0458502Y0154839D01*
X0458500Y0155000D01*
M02*
