G04 EAGLE Gerber RS-274X export*
G75*
%MOMM*%
%FSLAX34Y34*%
%LPD*%
%INBottom Copper*%
%IPPOS*%
%AMOC8*
5,1,8,0,0,1.08239X$1,22.5*%
G01*
%ADD10C,0.203200*%
%ADD11C,1.000000*%
%ADD12C,0.736600*%
%ADD13C,0.550000*%
%ADD14C,1.270000*%

G36*
X3253104Y2807D02*
X3253104Y2807D01*
X3253190Y2809D01*
X3253244Y2827D01*
X3253300Y2835D01*
X3253379Y2870D01*
X3253461Y2896D01*
X3253508Y2928D01*
X3253560Y2951D01*
X3253625Y3006D01*
X3253697Y3054D01*
X3253733Y3098D01*
X3253777Y3134D01*
X3253824Y3206D01*
X3253880Y3272D01*
X3253903Y3324D01*
X3253934Y3371D01*
X3253960Y3453D01*
X3253995Y3532D01*
X3254003Y3588D01*
X3254020Y3642D01*
X3254022Y3728D01*
X3254034Y3813D01*
X3254026Y3869D01*
X3254027Y3926D01*
X3254006Y4009D01*
X3253993Y4095D01*
X3253970Y4146D01*
X3253956Y4201D01*
X3253912Y4275D01*
X3253876Y4354D01*
X3253840Y4397D01*
X3253810Y4446D01*
X3253748Y4505D01*
X3253692Y4570D01*
X3253650Y4596D01*
X3253603Y4640D01*
X3253474Y4706D01*
X3253407Y4748D01*
X3251906Y5370D01*
X3250370Y6906D01*
X3249538Y8914D01*
X3249538Y11086D01*
X3250370Y13094D01*
X3251906Y14630D01*
X3253914Y15462D01*
X3256086Y15462D01*
X3258094Y14630D01*
X3259632Y13092D01*
X3259702Y13040D01*
X3259766Y12980D01*
X3259815Y12954D01*
X3259859Y12921D01*
X3259941Y12890D01*
X3260019Y12850D01*
X3260066Y12842D01*
X3260125Y12820D01*
X3260273Y12808D01*
X3260350Y12795D01*
X3313422Y12795D01*
X3313508Y12807D01*
X3313596Y12810D01*
X3313649Y12827D01*
X3313703Y12835D01*
X3313783Y12870D01*
X3313866Y12897D01*
X3313906Y12925D01*
X3313963Y12951D01*
X3314076Y13047D01*
X3314140Y13092D01*
X3499408Y198360D01*
X3499460Y198430D01*
X3499520Y198494D01*
X3499546Y198543D01*
X3499579Y198587D01*
X3499610Y198669D01*
X3499650Y198747D01*
X3499658Y198795D01*
X3499680Y198853D01*
X3499692Y199001D01*
X3499705Y199078D01*
X3499705Y225000D01*
X3499697Y225058D01*
X3499699Y225116D01*
X3499677Y225198D01*
X3499665Y225282D01*
X3499642Y225335D01*
X3499627Y225391D01*
X3499584Y225464D01*
X3499549Y225541D01*
X3499511Y225586D01*
X3499482Y225636D01*
X3499420Y225694D01*
X3499366Y225758D01*
X3499317Y225790D01*
X3499274Y225830D01*
X3499199Y225869D01*
X3499129Y225916D01*
X3499073Y225933D01*
X3499021Y225960D01*
X3498953Y225971D01*
X3498858Y226001D01*
X3498758Y226004D01*
X3498690Y226015D01*
X3466015Y226015D01*
X3466015Y533985D01*
X3561190Y533985D01*
X3561248Y533993D01*
X3561306Y533991D01*
X3561388Y534013D01*
X3561472Y534025D01*
X3561525Y534048D01*
X3561581Y534063D01*
X3561654Y534106D01*
X3561731Y534141D01*
X3561776Y534179D01*
X3561826Y534208D01*
X3561884Y534270D01*
X3561948Y534324D01*
X3561980Y534373D01*
X3562020Y534416D01*
X3562059Y534491D01*
X3562106Y534561D01*
X3562123Y534617D01*
X3562150Y534669D01*
X3562161Y534737D01*
X3562191Y534832D01*
X3562194Y534932D01*
X3562205Y535000D01*
X3562205Y2201190D01*
X3562197Y2201248D01*
X3562199Y2201306D01*
X3562177Y2201388D01*
X3562165Y2201472D01*
X3562142Y2201525D01*
X3562127Y2201581D01*
X3562084Y2201654D01*
X3562049Y2201731D01*
X3562011Y2201776D01*
X3561982Y2201826D01*
X3561920Y2201884D01*
X3561866Y2201948D01*
X3561817Y2201980D01*
X3561774Y2202020D01*
X3561699Y2202059D01*
X3561629Y2202106D01*
X3561573Y2202123D01*
X3561521Y2202150D01*
X3561453Y2202161D01*
X3561358Y2202191D01*
X3561258Y2202194D01*
X3561190Y2202205D01*
X3810Y2202205D01*
X3752Y2202197D01*
X3694Y2202199D01*
X3612Y2202177D01*
X3528Y2202165D01*
X3475Y2202142D01*
X3419Y2202127D01*
X3346Y2202084D01*
X3269Y2202049D01*
X3224Y2202011D01*
X3174Y2201982D01*
X3116Y2201920D01*
X3052Y2201866D01*
X3020Y2201817D01*
X2980Y2201774D01*
X2941Y2201699D01*
X2894Y2201629D01*
X2877Y2201573D01*
X2850Y2201521D01*
X2839Y2201453D01*
X2809Y2201358D01*
X2806Y2201258D01*
X2795Y2201190D01*
X2795Y405470D01*
X2799Y405440D01*
X2796Y405411D01*
X2819Y405300D01*
X2835Y405188D01*
X2847Y405161D01*
X2853Y405132D01*
X2905Y405032D01*
X2951Y404929D01*
X2970Y404906D01*
X2984Y404880D01*
X3062Y404798D01*
X3134Y404712D01*
X3159Y404695D01*
X3180Y404674D01*
X3277Y404617D01*
X3371Y404554D01*
X3400Y404545D01*
X3425Y404530D01*
X3534Y404503D01*
X3642Y404469D01*
X3672Y404468D01*
X3701Y404460D01*
X3813Y404464D01*
X3926Y404461D01*
X3955Y404469D01*
X3985Y404470D01*
X4092Y404505D01*
X4201Y404533D01*
X4227Y404548D01*
X4255Y404557D01*
X4290Y404582D01*
X6414Y405462D01*
X8586Y405462D01*
X10594Y404630D01*
X12130Y403094D01*
X12962Y401086D01*
X12962Y398914D01*
X12106Y396848D01*
X12098Y396818D01*
X12084Y396790D01*
X12071Y396713D01*
X12035Y396572D01*
X12037Y396508D01*
X12029Y396459D01*
X12029Y294796D01*
X12041Y294710D01*
X12044Y294622D01*
X12061Y294570D01*
X12069Y294515D01*
X12104Y294435D01*
X12131Y294352D01*
X12159Y294313D01*
X12185Y294255D01*
X12281Y294142D01*
X12326Y294079D01*
X14622Y291782D01*
X14692Y291730D01*
X14756Y291670D01*
X14806Y291644D01*
X14850Y291611D01*
X14931Y291580D01*
X15009Y291540D01*
X15057Y291532D01*
X15115Y291510D01*
X15263Y291498D01*
X15340Y291485D01*
X101456Y291485D01*
X101514Y291493D01*
X101572Y291491D01*
X101654Y291513D01*
X101738Y291525D01*
X101791Y291549D01*
X101847Y291563D01*
X101920Y291606D01*
X101997Y291641D01*
X102042Y291679D01*
X102092Y291709D01*
X102150Y291770D01*
X102214Y291825D01*
X102246Y291873D01*
X102286Y291916D01*
X102325Y291991D01*
X102372Y292061D01*
X102389Y292117D01*
X102416Y292169D01*
X102427Y292237D01*
X102457Y292332D01*
X102460Y292432D01*
X102471Y292500D01*
X102471Y375956D01*
X102463Y376014D01*
X102465Y376072D01*
X102443Y376154D01*
X102431Y376238D01*
X102408Y376291D01*
X102393Y376347D01*
X102350Y376420D01*
X102315Y376497D01*
X102277Y376542D01*
X102248Y376592D01*
X102186Y376650D01*
X102132Y376714D01*
X102083Y376746D01*
X102040Y376786D01*
X101965Y376825D01*
X101895Y376872D01*
X101839Y376889D01*
X101787Y376916D01*
X101719Y376927D01*
X101624Y376957D01*
X101524Y376960D01*
X101456Y376971D01*
X93296Y376971D01*
X93210Y376959D01*
X93122Y376956D01*
X93070Y376939D01*
X93015Y376931D01*
X92935Y376896D01*
X92852Y376869D01*
X92813Y376841D01*
X92755Y376815D01*
X92642Y376719D01*
X92579Y376674D01*
X73826Y357921D01*
X73774Y357852D01*
X73714Y357788D01*
X73688Y357738D01*
X73655Y357694D01*
X73624Y357613D01*
X73584Y357535D01*
X73576Y357487D01*
X73554Y357429D01*
X73542Y357281D01*
X73529Y357204D01*
X73529Y349541D01*
X73533Y349510D01*
X73531Y349479D01*
X73548Y349403D01*
X73569Y349259D01*
X73595Y349201D01*
X73606Y349152D01*
X74462Y347086D01*
X74462Y344914D01*
X73630Y342906D01*
X72094Y341370D01*
X70086Y340538D01*
X67914Y340538D01*
X65906Y341370D01*
X64370Y342906D01*
X63538Y344914D01*
X63538Y347086D01*
X64394Y349152D01*
X64402Y349182D01*
X64416Y349210D01*
X64429Y349287D01*
X64465Y349428D01*
X64463Y349492D01*
X64471Y349541D01*
X64471Y361376D01*
X89124Y386029D01*
X108876Y386029D01*
X111529Y383376D01*
X111529Y352044D01*
X111537Y351986D01*
X111535Y351928D01*
X111557Y351846D01*
X111569Y351762D01*
X111592Y351709D01*
X111607Y351653D01*
X111650Y351580D01*
X111685Y351503D01*
X111723Y351458D01*
X111752Y351408D01*
X111814Y351350D01*
X111868Y351286D01*
X111917Y351254D01*
X111960Y351214D01*
X112035Y351175D01*
X112105Y351128D01*
X112161Y351111D01*
X112213Y351084D01*
X112281Y351073D01*
X112376Y351043D01*
X112476Y351040D01*
X112544Y351029D01*
X1119204Y351029D01*
X1119290Y351041D01*
X1119378Y351044D01*
X1119430Y351061D01*
X1119485Y351069D01*
X1119565Y351104D01*
X1119648Y351131D01*
X1119687Y351159D01*
X1119745Y351185D01*
X1119858Y351281D01*
X1119921Y351326D01*
X1230624Y462029D01*
X3428959Y462029D01*
X3428990Y462033D01*
X3429021Y462031D01*
X3429097Y462048D01*
X3429241Y462069D01*
X3429299Y462095D01*
X3429348Y462106D01*
X3431414Y462962D01*
X3433586Y462962D01*
X3435594Y462130D01*
X3437130Y460594D01*
X3437962Y458586D01*
X3437962Y456414D01*
X3437130Y454406D01*
X3435594Y452870D01*
X3433586Y452038D01*
X3431414Y452038D01*
X3429348Y452894D01*
X3429318Y452902D01*
X3429290Y452916D01*
X3429213Y452929D01*
X3429072Y452965D01*
X3429008Y452963D01*
X3428959Y452971D01*
X1234796Y452971D01*
X1234710Y452959D01*
X1234622Y452956D01*
X1234570Y452939D01*
X1234515Y452931D01*
X1234435Y452896D01*
X1234352Y452869D01*
X1234313Y452841D01*
X1234255Y452815D01*
X1234142Y452719D01*
X1234079Y452674D01*
X1123376Y341971D01*
X705544Y341971D01*
X705486Y341963D01*
X705428Y341965D01*
X705346Y341943D01*
X705262Y341931D01*
X705209Y341908D01*
X705153Y341893D01*
X705080Y341850D01*
X705003Y341815D01*
X704958Y341777D01*
X704908Y341748D01*
X704850Y341686D01*
X704786Y341632D01*
X704754Y341583D01*
X704714Y341540D01*
X704675Y341465D01*
X704628Y341395D01*
X704611Y341339D01*
X704584Y341287D01*
X704573Y341219D01*
X704543Y341124D01*
X704540Y341024D01*
X704529Y340956D01*
X704529Y218541D01*
X704533Y218510D01*
X704531Y218479D01*
X704548Y218403D01*
X704569Y218259D01*
X704595Y218201D01*
X704606Y218152D01*
X705462Y216086D01*
X705462Y213914D01*
X704630Y211906D01*
X703094Y210370D01*
X701086Y209538D01*
X698914Y209538D01*
X696906Y210370D01*
X695370Y211906D01*
X694538Y213914D01*
X694538Y216086D01*
X695394Y218152D01*
X695402Y218182D01*
X695416Y218210D01*
X695429Y218287D01*
X695465Y218428D01*
X695463Y218492D01*
X695471Y218541D01*
X695471Y340956D01*
X695463Y341014D01*
X695465Y341072D01*
X695443Y341154D01*
X695431Y341238D01*
X695408Y341291D01*
X695393Y341347D01*
X695350Y341420D01*
X695315Y341497D01*
X695277Y341542D01*
X695248Y341592D01*
X695186Y341650D01*
X695132Y341714D01*
X695083Y341746D01*
X695040Y341786D01*
X694965Y341825D01*
X694895Y341872D01*
X694839Y341889D01*
X694787Y341916D01*
X694719Y341927D01*
X694624Y341957D01*
X694524Y341960D01*
X694456Y341971D01*
X112544Y341971D01*
X112486Y341963D01*
X112428Y341965D01*
X112346Y341943D01*
X112262Y341931D01*
X112209Y341908D01*
X112153Y341893D01*
X112080Y341850D01*
X112003Y341815D01*
X111958Y341777D01*
X111908Y341748D01*
X111850Y341686D01*
X111786Y341632D01*
X111754Y341583D01*
X111714Y341540D01*
X111675Y341465D01*
X111628Y341395D01*
X111611Y341339D01*
X111584Y341287D01*
X111573Y341219D01*
X111543Y341124D01*
X111540Y341024D01*
X111529Y340956D01*
X111529Y292500D01*
X111537Y292442D01*
X111535Y292384D01*
X111557Y292302D01*
X111569Y292219D01*
X111592Y292165D01*
X111607Y292109D01*
X111650Y292036D01*
X111685Y291959D01*
X111723Y291914D01*
X111752Y291864D01*
X111814Y291806D01*
X111868Y291742D01*
X111917Y291710D01*
X111960Y291670D01*
X112035Y291631D01*
X112105Y291585D01*
X112161Y291567D01*
X112213Y291540D01*
X112281Y291529D01*
X112376Y291499D01*
X112476Y291496D01*
X112544Y291485D01*
X143110Y291485D01*
X143197Y291497D01*
X143284Y291500D01*
X143337Y291517D01*
X143392Y291525D01*
X143471Y291560D01*
X143555Y291587D01*
X143594Y291615D01*
X143651Y291641D01*
X143764Y291737D01*
X143828Y291782D01*
X144541Y292495D01*
X146549Y293327D01*
X148721Y293327D01*
X150729Y292495D01*
X151442Y291782D01*
X151512Y291730D01*
X151576Y291670D01*
X151625Y291644D01*
X151669Y291611D01*
X151751Y291580D01*
X151829Y291540D01*
X151876Y291532D01*
X151935Y291510D01*
X152082Y291498D01*
X152160Y291485D01*
X621485Y291485D01*
X621485Y237010D01*
X621493Y236952D01*
X621491Y236894D01*
X621513Y236812D01*
X621525Y236728D01*
X621549Y236675D01*
X621563Y236619D01*
X621606Y236546D01*
X621641Y236469D01*
X621679Y236424D01*
X621709Y236374D01*
X621770Y236316D01*
X621825Y236252D01*
X621873Y236220D01*
X621916Y236180D01*
X621991Y236141D01*
X622061Y236094D01*
X622117Y236077D01*
X622169Y236050D01*
X622237Y236039D01*
X622332Y236009D01*
X622432Y236006D01*
X622500Y235995D01*
X636478Y235995D01*
X638115Y234358D01*
X638115Y3810D01*
X638123Y3752D01*
X638121Y3694D01*
X638143Y3612D01*
X638155Y3528D01*
X638178Y3475D01*
X638193Y3419D01*
X638236Y3346D01*
X638271Y3269D01*
X638309Y3224D01*
X638338Y3174D01*
X638400Y3116D01*
X638454Y3052D01*
X638503Y3020D01*
X638546Y2980D01*
X638621Y2941D01*
X638691Y2894D01*
X638747Y2877D01*
X638799Y2850D01*
X638867Y2839D01*
X638962Y2809D01*
X639062Y2806D01*
X639130Y2795D01*
X3253019Y2795D01*
X3253104Y2807D01*
G37*
G36*
X571878Y2803D02*
X571878Y2803D01*
X571936Y2801D01*
X572018Y2823D01*
X572102Y2835D01*
X572155Y2858D01*
X572211Y2873D01*
X572284Y2916D01*
X572361Y2951D01*
X572406Y2989D01*
X572456Y3018D01*
X572514Y3080D01*
X572578Y3134D01*
X572610Y3183D01*
X572650Y3226D01*
X572689Y3301D01*
X572736Y3371D01*
X572753Y3427D01*
X572780Y3479D01*
X572791Y3547D01*
X572821Y3642D01*
X572824Y3742D01*
X572835Y3810D01*
X572835Y234358D01*
X574472Y235995D01*
X612500Y235995D01*
X612558Y236003D01*
X612616Y236001D01*
X612698Y236023D01*
X612782Y236035D01*
X612835Y236058D01*
X612891Y236073D01*
X612964Y236116D01*
X613041Y236151D01*
X613086Y236189D01*
X613136Y236218D01*
X613194Y236280D01*
X613258Y236334D01*
X613290Y236383D01*
X613330Y236426D01*
X613369Y236501D01*
X613416Y236571D01*
X613433Y236627D01*
X613460Y236679D01*
X613471Y236747D01*
X613501Y236842D01*
X613504Y236942D01*
X613515Y237010D01*
X613515Y282500D01*
X613507Y282558D01*
X613509Y282616D01*
X613487Y282698D01*
X613475Y282782D01*
X613452Y282835D01*
X613437Y282891D01*
X613394Y282964D01*
X613359Y283041D01*
X613321Y283086D01*
X613292Y283136D01*
X613230Y283194D01*
X613176Y283258D01*
X613127Y283290D01*
X613084Y283330D01*
X613009Y283369D01*
X612939Y283416D01*
X612883Y283433D01*
X612831Y283460D01*
X612763Y283471D01*
X612668Y283501D01*
X612568Y283504D01*
X612500Y283515D01*
X320977Y283515D01*
X320919Y283507D01*
X320861Y283509D01*
X320779Y283487D01*
X320695Y283475D01*
X320642Y283452D01*
X320586Y283437D01*
X320513Y283394D01*
X320436Y283359D01*
X320391Y283321D01*
X320341Y283292D01*
X320283Y283230D01*
X320219Y283176D01*
X320187Y283127D01*
X320147Y283084D01*
X320108Y283009D01*
X320061Y282939D01*
X320044Y282883D01*
X320017Y282831D01*
X320006Y282763D01*
X319976Y282668D01*
X319973Y282568D01*
X319962Y282500D01*
X319962Y281414D01*
X319130Y279406D01*
X317594Y277870D01*
X315586Y277038D01*
X313414Y277038D01*
X311406Y277870D01*
X309870Y279406D01*
X309038Y281414D01*
X309038Y282500D01*
X309030Y282558D01*
X309032Y282616D01*
X309010Y282698D01*
X308998Y282782D01*
X308975Y282835D01*
X308960Y282891D01*
X308917Y282964D01*
X308882Y283041D01*
X308844Y283086D01*
X308815Y283136D01*
X308753Y283194D01*
X308699Y283258D01*
X308650Y283290D01*
X308607Y283330D01*
X308532Y283369D01*
X308462Y283416D01*
X308406Y283433D01*
X308354Y283460D01*
X308286Y283471D01*
X308191Y283501D01*
X308091Y283504D01*
X308023Y283515D01*
X213977Y283515D01*
X213919Y283507D01*
X213861Y283509D01*
X213779Y283487D01*
X213695Y283475D01*
X213642Y283452D01*
X213586Y283437D01*
X213513Y283394D01*
X213436Y283359D01*
X213391Y283321D01*
X213341Y283292D01*
X213283Y283230D01*
X213219Y283176D01*
X213187Y283127D01*
X213147Y283084D01*
X213108Y283009D01*
X213061Y282939D01*
X213044Y282883D01*
X213017Y282831D01*
X213006Y282763D01*
X212976Y282668D01*
X212973Y282568D01*
X212962Y282500D01*
X212962Y281414D01*
X212130Y279406D01*
X210594Y277870D01*
X208586Y277038D01*
X206414Y277038D01*
X204348Y277894D01*
X204318Y277902D01*
X204290Y277916D01*
X204213Y277929D01*
X204072Y277965D01*
X204008Y277963D01*
X203959Y277971D01*
X151124Y277971D01*
X146936Y282159D01*
X146912Y282178D01*
X146892Y282201D01*
X146825Y282243D01*
X146709Y282330D01*
X146649Y282353D01*
X146607Y282379D01*
X144529Y283240D01*
X144488Y283270D01*
X144424Y283330D01*
X144375Y283356D01*
X144331Y283389D01*
X144249Y283420D01*
X144171Y283460D01*
X144124Y283468D01*
X144065Y283490D01*
X143917Y283502D01*
X143840Y283515D01*
X113477Y283515D01*
X113419Y283507D01*
X113361Y283509D01*
X113279Y283487D01*
X113195Y283475D01*
X113142Y283452D01*
X113086Y283437D01*
X113013Y283394D01*
X112936Y283359D01*
X112891Y283321D01*
X112841Y283292D01*
X112783Y283230D01*
X112719Y283176D01*
X112687Y283127D01*
X112647Y283084D01*
X112608Y283009D01*
X112561Y282939D01*
X112544Y282883D01*
X112517Y282831D01*
X112506Y282763D01*
X112476Y282668D01*
X112473Y282568D01*
X112462Y282500D01*
X112462Y281914D01*
X111630Y279906D01*
X110094Y278370D01*
X108086Y277538D01*
X105914Y277538D01*
X103906Y278370D01*
X102370Y279906D01*
X101538Y281914D01*
X101538Y282500D01*
X101530Y282558D01*
X101532Y282616D01*
X101510Y282698D01*
X101498Y282782D01*
X101475Y282835D01*
X101460Y282891D01*
X101417Y282964D01*
X101382Y283041D01*
X101344Y283086D01*
X101315Y283136D01*
X101253Y283194D01*
X101199Y283258D01*
X101150Y283290D01*
X101107Y283330D01*
X101032Y283369D01*
X100962Y283416D01*
X100906Y283433D01*
X100854Y283460D01*
X100786Y283471D01*
X100691Y283501D01*
X100591Y283504D01*
X100523Y283515D01*
X25340Y283515D01*
X25311Y283511D01*
X25282Y283514D01*
X25171Y283491D01*
X25059Y283475D01*
X25032Y283463D01*
X25003Y283458D01*
X24903Y283406D01*
X24799Y283359D01*
X24777Y283340D01*
X24751Y283327D01*
X24669Y283249D01*
X24582Y283176D01*
X24566Y283151D01*
X24545Y283131D01*
X24488Y283033D01*
X24425Y282939D01*
X24416Y282911D01*
X24401Y282886D01*
X24373Y282776D01*
X24339Y282668D01*
X24338Y282638D01*
X24331Y282610D01*
X24335Y282497D01*
X24332Y282384D01*
X24339Y282355D01*
X24340Y282326D01*
X24375Y282218D01*
X24404Y282109D01*
X24419Y282083D01*
X24428Y282055D01*
X24473Y281992D01*
X24549Y281864D01*
X24595Y281821D01*
X24622Y281782D01*
X34079Y272326D01*
X34148Y272274D01*
X34212Y272214D01*
X34262Y272188D01*
X34306Y272155D01*
X34387Y272124D01*
X34465Y272084D01*
X34513Y272076D01*
X34571Y272054D01*
X34719Y272042D01*
X34796Y272029D01*
X324376Y272029D01*
X341579Y254826D01*
X341648Y254774D01*
X341712Y254714D01*
X341762Y254688D01*
X341806Y254655D01*
X341887Y254624D01*
X341965Y254584D01*
X342013Y254576D01*
X342071Y254554D01*
X342219Y254542D01*
X342296Y254529D01*
X396459Y254529D01*
X396490Y254533D01*
X396521Y254531D01*
X396597Y254548D01*
X396741Y254569D01*
X396799Y254595D01*
X396848Y254606D01*
X398914Y255462D01*
X401086Y255462D01*
X403094Y254630D01*
X404630Y253094D01*
X405462Y251086D01*
X405462Y248914D01*
X404630Y246906D01*
X403094Y245370D01*
X401086Y244538D01*
X398914Y244538D01*
X396848Y245394D01*
X396818Y245402D01*
X396790Y245416D01*
X396713Y245429D01*
X396572Y245465D01*
X396508Y245463D01*
X396459Y245471D01*
X338124Y245471D01*
X320921Y262674D01*
X320852Y262726D01*
X320788Y262786D01*
X320738Y262812D01*
X320694Y262845D01*
X320613Y262876D01*
X320535Y262916D01*
X320487Y262924D01*
X320429Y262946D01*
X320281Y262958D01*
X320204Y262971D01*
X30624Y262971D01*
X27674Y265921D01*
X10378Y283218D01*
X10308Y283270D01*
X10244Y283330D01*
X10195Y283356D01*
X10150Y283389D01*
X10069Y283420D01*
X9991Y283460D01*
X9943Y283468D01*
X9885Y283490D01*
X9737Y283502D01*
X9660Y283515D01*
X3810Y283515D01*
X3752Y283507D01*
X3694Y283509D01*
X3612Y283487D01*
X3528Y283475D01*
X3475Y283452D01*
X3419Y283437D01*
X3346Y283394D01*
X3269Y283359D01*
X3224Y283321D01*
X3174Y283292D01*
X3116Y283230D01*
X3052Y283176D01*
X3020Y283127D01*
X2980Y283084D01*
X2941Y283009D01*
X2894Y282939D01*
X2877Y282883D01*
X2850Y282831D01*
X2839Y282763D01*
X2809Y282668D01*
X2806Y282568D01*
X2795Y282500D01*
X2795Y3810D01*
X2803Y3752D01*
X2801Y3694D01*
X2823Y3612D01*
X2835Y3528D01*
X2858Y3475D01*
X2873Y3419D01*
X2916Y3346D01*
X2951Y3269D01*
X2989Y3224D01*
X3018Y3174D01*
X3080Y3116D01*
X3134Y3052D01*
X3183Y3020D01*
X3226Y2980D01*
X3301Y2941D01*
X3371Y2894D01*
X3427Y2877D01*
X3479Y2850D01*
X3547Y2839D01*
X3642Y2809D01*
X3742Y2806D01*
X3810Y2795D01*
X571820Y2795D01*
X571878Y2803D01*
G37*
G36*
X3498748Y228993D02*
X3498748Y228993D01*
X3498806Y228991D01*
X3498888Y229013D01*
X3498972Y229025D01*
X3499025Y229049D01*
X3499081Y229063D01*
X3499154Y229106D01*
X3499231Y229141D01*
X3499276Y229179D01*
X3499326Y229209D01*
X3499384Y229270D01*
X3499448Y229325D01*
X3499480Y229373D01*
X3499520Y229416D01*
X3499559Y229491D01*
X3499606Y229561D01*
X3499623Y229617D01*
X3499650Y229669D01*
X3499661Y229737D01*
X3499691Y229832D01*
X3499694Y229932D01*
X3499705Y230000D01*
X3499705Y409650D01*
X3499693Y409737D01*
X3499690Y409824D01*
X3499673Y409877D01*
X3499665Y409932D01*
X3499630Y410011D01*
X3499603Y410095D01*
X3499575Y410134D01*
X3499549Y410191D01*
X3499453Y410304D01*
X3499437Y410326D01*
X3499432Y410335D01*
X3499429Y410338D01*
X3499408Y410368D01*
X3497870Y411906D01*
X3497038Y413914D01*
X3497038Y416086D01*
X3497870Y418094D01*
X3499406Y419630D01*
X3501414Y420462D01*
X3503586Y420462D01*
X3505594Y419630D01*
X3507130Y418094D01*
X3507962Y416086D01*
X3507962Y413914D01*
X3507130Y411906D01*
X3505592Y410368D01*
X3505540Y410298D01*
X3505480Y410234D01*
X3505454Y410185D01*
X3505421Y410141D01*
X3505390Y410059D01*
X3505350Y409981D01*
X3505342Y409934D01*
X3505320Y409875D01*
X3505308Y409727D01*
X3505295Y409650D01*
X3505295Y230000D01*
X3505303Y229942D01*
X3505301Y229884D01*
X3505323Y229802D01*
X3505335Y229719D01*
X3505358Y229665D01*
X3505373Y229609D01*
X3505416Y229536D01*
X3505451Y229459D01*
X3505489Y229414D01*
X3505518Y229364D01*
X3505580Y229306D01*
X3505634Y229242D01*
X3505683Y229210D01*
X3505726Y229170D01*
X3505801Y229131D01*
X3505871Y229085D01*
X3505927Y229067D01*
X3505979Y229040D01*
X3506047Y229029D01*
X3506142Y228999D01*
X3506242Y228996D01*
X3506310Y228985D01*
X3561190Y228985D01*
X3561248Y228993D01*
X3561306Y228991D01*
X3561388Y229013D01*
X3561472Y229025D01*
X3561525Y229049D01*
X3561581Y229063D01*
X3561654Y229106D01*
X3561731Y229141D01*
X3561776Y229179D01*
X3561826Y229209D01*
X3561884Y229270D01*
X3561948Y229325D01*
X3561980Y229373D01*
X3562020Y229416D01*
X3562059Y229491D01*
X3562106Y229561D01*
X3562123Y229617D01*
X3562150Y229669D01*
X3562161Y229737D01*
X3562191Y229832D01*
X3562194Y229932D01*
X3562205Y230000D01*
X3562205Y231158D01*
X3563842Y232795D01*
X3661190Y232795D01*
X3661248Y232803D01*
X3661306Y232801D01*
X3661388Y232823D01*
X3661472Y232835D01*
X3661525Y232858D01*
X3661581Y232873D01*
X3661654Y232916D01*
X3661731Y232951D01*
X3661776Y232989D01*
X3661826Y233018D01*
X3661884Y233080D01*
X3661948Y233134D01*
X3661980Y233183D01*
X3662020Y233226D01*
X3662059Y233301D01*
X3662106Y233371D01*
X3662123Y233427D01*
X3662150Y233479D01*
X3662161Y233547D01*
X3662191Y233642D01*
X3662194Y233742D01*
X3662205Y233810D01*
X3662205Y243912D01*
X3662193Y243997D01*
X3662191Y244083D01*
X3662173Y244138D01*
X3662165Y244194D01*
X3662130Y244272D01*
X3662104Y244354D01*
X3662072Y244401D01*
X3662049Y244453D01*
X3661994Y244519D01*
X3661946Y244590D01*
X3661902Y244627D01*
X3661866Y244670D01*
X3661794Y244718D01*
X3661728Y244773D01*
X3661676Y244796D01*
X3661629Y244828D01*
X3661547Y244854D01*
X3661468Y244889D01*
X3661412Y244896D01*
X3661358Y244914D01*
X3661272Y244916D01*
X3661187Y244928D01*
X3661131Y244919D01*
X3661074Y244921D01*
X3660991Y244899D01*
X3660905Y244887D01*
X3660854Y244863D01*
X3660799Y244849D01*
X3660725Y244805D01*
X3660646Y244770D01*
X3660603Y244733D01*
X3660554Y244704D01*
X3660495Y244641D01*
X3660430Y244585D01*
X3660404Y244544D01*
X3660360Y244497D01*
X3660294Y244367D01*
X3660252Y244301D01*
X3659697Y242960D01*
X3657790Y241053D01*
X3655298Y240021D01*
X3646602Y240021D01*
X3644110Y241053D01*
X3642203Y242960D01*
X3641171Y245452D01*
X3641171Y248148D01*
X3642203Y250640D01*
X3644110Y252547D01*
X3646602Y253579D01*
X3655298Y253579D01*
X3657790Y252547D01*
X3659697Y250640D01*
X3660252Y249299D01*
X3660296Y249225D01*
X3660331Y249147D01*
X3660368Y249103D01*
X3660397Y249054D01*
X3660459Y248995D01*
X3660515Y248930D01*
X3660562Y248898D01*
X3660603Y248859D01*
X3660680Y248820D01*
X3660751Y248772D01*
X3660805Y248755D01*
X3660856Y248729D01*
X3660940Y248712D01*
X3661022Y248686D01*
X3661079Y248685D01*
X3661135Y248674D01*
X3661220Y248681D01*
X3661306Y248679D01*
X3661361Y248693D01*
X3661418Y248698D01*
X3661499Y248729D01*
X3661581Y248751D01*
X3661630Y248780D01*
X3661683Y248800D01*
X3661752Y248852D01*
X3661826Y248896D01*
X3661865Y248938D01*
X3661910Y248972D01*
X3661962Y249041D01*
X3662020Y249103D01*
X3662046Y249154D01*
X3662080Y249200D01*
X3662111Y249280D01*
X3662150Y249357D01*
X3662158Y249405D01*
X3662181Y249466D01*
X3662192Y249610D01*
X3662205Y249688D01*
X3662205Y330312D01*
X3662193Y330397D01*
X3662191Y330483D01*
X3662173Y330538D01*
X3662165Y330594D01*
X3662130Y330672D01*
X3662104Y330754D01*
X3662072Y330801D01*
X3662049Y330853D01*
X3661994Y330919D01*
X3661946Y330990D01*
X3661902Y331027D01*
X3661866Y331070D01*
X3661794Y331118D01*
X3661728Y331173D01*
X3661676Y331196D01*
X3661629Y331228D01*
X3661547Y331254D01*
X3661468Y331289D01*
X3661412Y331296D01*
X3661358Y331314D01*
X3661272Y331316D01*
X3661187Y331328D01*
X3661131Y331319D01*
X3661074Y331321D01*
X3660991Y331299D01*
X3660905Y331287D01*
X3660854Y331263D01*
X3660799Y331249D01*
X3660725Y331205D01*
X3660646Y331170D01*
X3660603Y331133D01*
X3660554Y331104D01*
X3660495Y331041D01*
X3660430Y330985D01*
X3660404Y330944D01*
X3660360Y330897D01*
X3660294Y330767D01*
X3660252Y330701D01*
X3659697Y329360D01*
X3657790Y327453D01*
X3655298Y326421D01*
X3646602Y326421D01*
X3644110Y327453D01*
X3642203Y329360D01*
X3641171Y331852D01*
X3641171Y334548D01*
X3642203Y337040D01*
X3644110Y338947D01*
X3646602Y339979D01*
X3655298Y339979D01*
X3657790Y338947D01*
X3659697Y337040D01*
X3660252Y335699D01*
X3660296Y335625D01*
X3660331Y335547D01*
X3660368Y335503D01*
X3660397Y335454D01*
X3660459Y335395D01*
X3660515Y335330D01*
X3660562Y335298D01*
X3660603Y335259D01*
X3660680Y335220D01*
X3660751Y335172D01*
X3660805Y335155D01*
X3660856Y335129D01*
X3660940Y335112D01*
X3661022Y335086D01*
X3661079Y335085D01*
X3661135Y335074D01*
X3661220Y335081D01*
X3661306Y335079D01*
X3661361Y335093D01*
X3661418Y335098D01*
X3661499Y335129D01*
X3661581Y335151D01*
X3661630Y335180D01*
X3661683Y335200D01*
X3661752Y335252D01*
X3661826Y335296D01*
X3661865Y335338D01*
X3661910Y335372D01*
X3661962Y335441D01*
X3662020Y335503D01*
X3662046Y335554D01*
X3662080Y335600D01*
X3662111Y335680D01*
X3662150Y335757D01*
X3662158Y335805D01*
X3662181Y335866D01*
X3662192Y336010D01*
X3662205Y336088D01*
X3662205Y357191D01*
X3662201Y357220D01*
X3662204Y357249D01*
X3662181Y357360D01*
X3662165Y357472D01*
X3662153Y357499D01*
X3662148Y357528D01*
X3662095Y357629D01*
X3662049Y357732D01*
X3662030Y357754D01*
X3662017Y357780D01*
X3661939Y357862D01*
X3661866Y357949D01*
X3661841Y357965D01*
X3661821Y357986D01*
X3661723Y358044D01*
X3661629Y358106D01*
X3661601Y358115D01*
X3661576Y358130D01*
X3661466Y358158D01*
X3661358Y358192D01*
X3661328Y358193D01*
X3661300Y358200D01*
X3661187Y358197D01*
X3661074Y358200D01*
X3661045Y358192D01*
X3661016Y358191D01*
X3660908Y358156D01*
X3660799Y358128D01*
X3660773Y358113D01*
X3660745Y358104D01*
X3660682Y358058D01*
X3660554Y357982D01*
X3660511Y357937D01*
X3660472Y357909D01*
X3658832Y356268D01*
X3656516Y356268D01*
X3654879Y357905D01*
X3654879Y358216D01*
X3654871Y358274D01*
X3654873Y358333D01*
X3654851Y358414D01*
X3654839Y358498D01*
X3654816Y358551D01*
X3654801Y358608D01*
X3654758Y358680D01*
X3654723Y358757D01*
X3654685Y358802D01*
X3654656Y358852D01*
X3654594Y358910D01*
X3654540Y358974D01*
X3654491Y359007D01*
X3654448Y359047D01*
X3654373Y359085D01*
X3654303Y359132D01*
X3654247Y359150D01*
X3654195Y359176D01*
X3654127Y359188D01*
X3654032Y359218D01*
X3653932Y359220D01*
X3653864Y359232D01*
X3647217Y359232D01*
X3647154Y359223D01*
X3647105Y359225D01*
X3646123Y359116D01*
X3646059Y359154D01*
X3646029Y359162D01*
X3646001Y359176D01*
X3645923Y359189D01*
X3645880Y359200D01*
X3645179Y359901D01*
X3645128Y359939D01*
X3645095Y359976D01*
X3644324Y360593D01*
X3644305Y360665D01*
X3644289Y360692D01*
X3644280Y360722D01*
X3644234Y360786D01*
X3644211Y360825D01*
X3644211Y361815D01*
X3644202Y361879D01*
X3644205Y361927D01*
X3644096Y362910D01*
X3644134Y362973D01*
X3644141Y363004D01*
X3644156Y363032D01*
X3644169Y363109D01*
X3644180Y363153D01*
X3644881Y363853D01*
X3644919Y363904D01*
X3644956Y363937D01*
X3647918Y367640D01*
X3650219Y367895D01*
X3652027Y366449D01*
X3652107Y365724D01*
X3652108Y365722D01*
X3652107Y365720D01*
X3652143Y365585D01*
X3652178Y365449D01*
X3652179Y365447D01*
X3652179Y365445D01*
X3652249Y365328D01*
X3652322Y365204D01*
X3652323Y365202D01*
X3652325Y365201D01*
X3652426Y365106D01*
X3652528Y365009D01*
X3652530Y365008D01*
X3652532Y365006D01*
X3652657Y364942D01*
X3652781Y364878D01*
X3652783Y364878D01*
X3652785Y364877D01*
X3652805Y364873D01*
X3653060Y364823D01*
X3653091Y364825D01*
X3653116Y364821D01*
X3653864Y364821D01*
X3653922Y364829D01*
X3653980Y364828D01*
X3654062Y364849D01*
X3654146Y364861D01*
X3654199Y364885D01*
X3654255Y364900D01*
X3654328Y364943D01*
X3654405Y364977D01*
X3654450Y365015D01*
X3654500Y365045D01*
X3654558Y365106D01*
X3654622Y365161D01*
X3654654Y365210D01*
X3654694Y365252D01*
X3654733Y365327D01*
X3654780Y365398D01*
X3654797Y365453D01*
X3654824Y365505D01*
X3654835Y365573D01*
X3654865Y365669D01*
X3654868Y365768D01*
X3654879Y365836D01*
X3654879Y366147D01*
X3655755Y367024D01*
X3655790Y367070D01*
X3655833Y367111D01*
X3655876Y367183D01*
X3655926Y367251D01*
X3655947Y367305D01*
X3655977Y367356D01*
X3655997Y367437D01*
X3656028Y367516D01*
X3656032Y367575D01*
X3656047Y367631D01*
X3656044Y367716D01*
X3656051Y367800D01*
X3656040Y367857D01*
X3656038Y367915D01*
X3656012Y367996D01*
X3655995Y368078D01*
X3655968Y368130D01*
X3655950Y368186D01*
X3655910Y368242D01*
X3655864Y368331D01*
X3655796Y368403D01*
X3655755Y368459D01*
X3654879Y369335D01*
X3654879Y369646D01*
X3654871Y369704D01*
X3654873Y369763D01*
X3654851Y369844D01*
X3654839Y369928D01*
X3654816Y369981D01*
X3654801Y370038D01*
X3654758Y370110D01*
X3654723Y370187D01*
X3654685Y370232D01*
X3654656Y370282D01*
X3654594Y370340D01*
X3654540Y370404D01*
X3654491Y370437D01*
X3654448Y370477D01*
X3654373Y370515D01*
X3654303Y370562D01*
X3654247Y370580D01*
X3654195Y370606D01*
X3654127Y370618D01*
X3654032Y370648D01*
X3653932Y370650D01*
X3653864Y370662D01*
X3647217Y370662D01*
X3647154Y370653D01*
X3647105Y370655D01*
X3646123Y370546D01*
X3646059Y370584D01*
X3646029Y370592D01*
X3646001Y370606D01*
X3645923Y370619D01*
X3645880Y370630D01*
X3645179Y371331D01*
X3645128Y371369D01*
X3645095Y371406D01*
X3644324Y372023D01*
X3644305Y372095D01*
X3644289Y372122D01*
X3644280Y372152D01*
X3644234Y372216D01*
X3644211Y372255D01*
X3644211Y373245D01*
X3644202Y373309D01*
X3644205Y373357D01*
X3644096Y374340D01*
X3644134Y374403D01*
X3644141Y374434D01*
X3644156Y374462D01*
X3644169Y374539D01*
X3644180Y374583D01*
X3644881Y375283D01*
X3644919Y375334D01*
X3644956Y375367D01*
X3647902Y379050D01*
X3647928Y379095D01*
X3647962Y379134D01*
X3648000Y379216D01*
X3648046Y379294D01*
X3648059Y379345D01*
X3648081Y379392D01*
X3648095Y379482D01*
X3648118Y379569D01*
X3648116Y379622D01*
X3648124Y379673D01*
X3648113Y379745D01*
X3648110Y379854D01*
X3648082Y379941D01*
X3648072Y380005D01*
X3647545Y381587D01*
X3648396Y383289D01*
X3648401Y383305D01*
X3648410Y383320D01*
X3648446Y383440D01*
X3648486Y383559D01*
X3648487Y383576D01*
X3648492Y383592D01*
X3648493Y383718D01*
X3648498Y383843D01*
X3648494Y383859D01*
X3648494Y383876D01*
X3648473Y383945D01*
X3648431Y384119D01*
X3648407Y384161D01*
X3648396Y384197D01*
X3647545Y385900D01*
X3648277Y388096D01*
X3650348Y389131D01*
X3657353Y386796D01*
X3657368Y386793D01*
X3657382Y386787D01*
X3657508Y386768D01*
X3657633Y386745D01*
X3657648Y386747D01*
X3657663Y386744D01*
X3657731Y386755D01*
X3657872Y386769D01*
X3658682Y386364D01*
X3658761Y386338D01*
X3658815Y386309D01*
X3659680Y386021D01*
X3659695Y386000D01*
X3659767Y385895D01*
X3659779Y385885D01*
X3659788Y385873D01*
X3659844Y385832D01*
X3659953Y385743D01*
X3660227Y384922D01*
X3660281Y384814D01*
X3660331Y384703D01*
X3660344Y384687D01*
X3660354Y384668D01*
X3660436Y384578D01*
X3660515Y384486D01*
X3660532Y384474D01*
X3660546Y384459D01*
X3660650Y384395D01*
X3660751Y384328D01*
X3660771Y384322D01*
X3660789Y384311D01*
X3660906Y384279D01*
X3661022Y384242D01*
X3661043Y384242D01*
X3661063Y384236D01*
X3661184Y384238D01*
X3661306Y384235D01*
X3661327Y384240D01*
X3661347Y384240D01*
X3661464Y384276D01*
X3661581Y384307D01*
X3661599Y384317D01*
X3661619Y384323D01*
X3661721Y384390D01*
X3661826Y384452D01*
X3661840Y384467D01*
X3661858Y384479D01*
X3661937Y384570D01*
X3662020Y384659D01*
X3662030Y384678D01*
X3662043Y384694D01*
X3662094Y384804D01*
X3662150Y384912D01*
X3662153Y384931D01*
X3662162Y384952D01*
X3662205Y385233D01*
X3662204Y385238D01*
X3662205Y385243D01*
X3662205Y526190D01*
X3662197Y526248D01*
X3662199Y526306D01*
X3662177Y526388D01*
X3662165Y526472D01*
X3662142Y526525D01*
X3662127Y526581D01*
X3662084Y526654D01*
X3662049Y526731D01*
X3662011Y526776D01*
X3661982Y526826D01*
X3661920Y526884D01*
X3661866Y526948D01*
X3661817Y526980D01*
X3661774Y527020D01*
X3661699Y527059D01*
X3661629Y527106D01*
X3661573Y527123D01*
X3661521Y527150D01*
X3661453Y527161D01*
X3661358Y527191D01*
X3661258Y527194D01*
X3661190Y527205D01*
X3563842Y527205D01*
X3562205Y528842D01*
X3562205Y530000D01*
X3562197Y530058D01*
X3562199Y530116D01*
X3562177Y530198D01*
X3562165Y530281D01*
X3562142Y530335D01*
X3562127Y530391D01*
X3562084Y530464D01*
X3562049Y530541D01*
X3562011Y530586D01*
X3561982Y530636D01*
X3561920Y530694D01*
X3561866Y530758D01*
X3561817Y530790D01*
X3561774Y530830D01*
X3561699Y530869D01*
X3561629Y530915D01*
X3561573Y530933D01*
X3561521Y530960D01*
X3561453Y530971D01*
X3561358Y531001D01*
X3561258Y531004D01*
X3561190Y531015D01*
X3470000Y531015D01*
X3469942Y531007D01*
X3469884Y531009D01*
X3469802Y530987D01*
X3469719Y530975D01*
X3469665Y530952D01*
X3469609Y530937D01*
X3469536Y530894D01*
X3469459Y530859D01*
X3469414Y530821D01*
X3469364Y530792D01*
X3469306Y530730D01*
X3469242Y530676D01*
X3469210Y530627D01*
X3469170Y530584D01*
X3469131Y530509D01*
X3469085Y530439D01*
X3469067Y530383D01*
X3469040Y530331D01*
X3469029Y530263D01*
X3468999Y530168D01*
X3468996Y530068D01*
X3468985Y530000D01*
X3468985Y230000D01*
X3468993Y229942D01*
X3468991Y229884D01*
X3469013Y229802D01*
X3469025Y229719D01*
X3469049Y229665D01*
X3469063Y229609D01*
X3469106Y229536D01*
X3469141Y229459D01*
X3469179Y229414D01*
X3469209Y229364D01*
X3469270Y229306D01*
X3469325Y229242D01*
X3469373Y229210D01*
X3469416Y229170D01*
X3469491Y229131D01*
X3469561Y229085D01*
X3469617Y229067D01*
X3469669Y229040D01*
X3469737Y229029D01*
X3469832Y228999D01*
X3469932Y228996D01*
X3470000Y228985D01*
X3498690Y228985D01*
X3498748Y228993D01*
G37*
%LPC*%
G36*
X131414Y1902038D02*
X131414Y1902038D01*
X129406Y1902870D01*
X127870Y1904406D01*
X127038Y1906414D01*
X127038Y1908586D01*
X127870Y1910594D01*
X129406Y1912130D01*
X131472Y1912986D01*
X131499Y1913002D01*
X131528Y1913011D01*
X131592Y1913057D01*
X131717Y1913130D01*
X131761Y1913177D01*
X131801Y1913206D01*
X327674Y2109079D01*
X330624Y2112029D01*
X1947690Y2112029D01*
X1947719Y2112033D01*
X1947749Y2112030D01*
X1947860Y2112053D01*
X1947972Y2112069D01*
X1947999Y2112081D01*
X1948027Y2112086D01*
X1948128Y2112138D01*
X1948231Y2112185D01*
X1948254Y2112204D01*
X1948280Y2112217D01*
X1948362Y2112295D01*
X1948448Y2112368D01*
X1948465Y2112393D01*
X1948486Y2112413D01*
X1948543Y2112511D01*
X1948606Y2112605D01*
X1948615Y2112633D01*
X1948629Y2112658D01*
X1948657Y2112768D01*
X1948692Y2112876D01*
X1948692Y2112906D01*
X1948700Y2112934D01*
X1948696Y2113047D01*
X1948699Y2113160D01*
X1948691Y2113189D01*
X1948691Y2113218D01*
X1948656Y2113326D01*
X1948627Y2113435D01*
X1948612Y2113461D01*
X1948603Y2113489D01*
X1948558Y2113552D01*
X1948482Y2113680D01*
X1948436Y2113723D01*
X1948408Y2113762D01*
X1943317Y2118853D01*
X1940321Y2126086D01*
X1940321Y2133914D01*
X1943317Y2141147D01*
X1948853Y2146683D01*
X1956086Y2149679D01*
X1963914Y2149679D01*
X1971147Y2146683D01*
X1976683Y2141147D01*
X1979679Y2133914D01*
X1979679Y2126086D01*
X1976683Y2118853D01*
X1971592Y2113762D01*
X1971574Y2113738D01*
X1971552Y2113719D01*
X1971489Y2113625D01*
X1971421Y2113535D01*
X1971410Y2113507D01*
X1971394Y2113483D01*
X1971360Y2113375D01*
X1971320Y2113269D01*
X1971317Y2113240D01*
X1971308Y2113212D01*
X1971305Y2113098D01*
X1971296Y2112986D01*
X1971302Y2112957D01*
X1971301Y2112928D01*
X1971330Y2112818D01*
X1971352Y2112707D01*
X1971366Y2112681D01*
X1971373Y2112653D01*
X1971431Y2112555D01*
X1971483Y2112455D01*
X1971503Y2112433D01*
X1971518Y2112408D01*
X1971601Y2112331D01*
X1971679Y2112249D01*
X1971704Y2112234D01*
X1971725Y2112214D01*
X1971826Y2112162D01*
X1971924Y2112105D01*
X1971952Y2112098D01*
X1971979Y2112084D01*
X1972056Y2112071D01*
X1972200Y2112035D01*
X1972262Y2112037D01*
X1972310Y2112029D01*
X3328959Y2112029D01*
X3328990Y2112033D01*
X3329021Y2112031D01*
X3329097Y2112048D01*
X3329241Y2112069D01*
X3329299Y2112095D01*
X3329348Y2112106D01*
X3331414Y2112962D01*
X3333586Y2112962D01*
X3335594Y2112130D01*
X3337130Y2110594D01*
X3337962Y2108586D01*
X3337962Y2106414D01*
X3337130Y2104406D01*
X3335594Y2102870D01*
X3333586Y2102038D01*
X3331414Y2102038D01*
X3329348Y2102894D01*
X3329318Y2102902D01*
X3329290Y2102916D01*
X3329213Y2102929D01*
X3329072Y2102965D01*
X3329008Y2102963D01*
X3328959Y2102971D01*
X334796Y2102971D01*
X334710Y2102959D01*
X334622Y2102956D01*
X334570Y2102939D01*
X334515Y2102931D01*
X334435Y2102896D01*
X334352Y2102869D01*
X334313Y2102841D01*
X334255Y2102815D01*
X334142Y2102719D01*
X334079Y2102674D01*
X138206Y1906801D01*
X138188Y1906777D01*
X138164Y1906757D01*
X138122Y1906690D01*
X138035Y1906574D01*
X138012Y1906514D01*
X137986Y1906472D01*
X137130Y1904406D01*
X135594Y1902870D01*
X133586Y1902038D01*
X131414Y1902038D01*
G37*
%LPD*%
%LPC*%
G36*
X106414Y1597038D02*
X106414Y1597038D01*
X104406Y1597870D01*
X102870Y1599406D01*
X102038Y1601414D01*
X102038Y1603586D01*
X102870Y1605594D01*
X104406Y1607130D01*
X106414Y1607962D01*
X108586Y1607962D01*
X110652Y1607106D01*
X110682Y1607098D01*
X110710Y1607084D01*
X110787Y1607071D01*
X110928Y1607035D01*
X110992Y1607037D01*
X111041Y1607029D01*
X151091Y1607029D01*
X151178Y1607041D01*
X151266Y1607044D01*
X151318Y1607061D01*
X151373Y1607069D01*
X151453Y1607104D01*
X151536Y1607131D01*
X151575Y1607159D01*
X151632Y1607185D01*
X151746Y1607281D01*
X151809Y1607326D01*
X152223Y1607740D01*
X265915Y1607740D01*
X266001Y1607752D01*
X266089Y1607755D01*
X266141Y1607772D01*
X266196Y1607780D01*
X266276Y1607815D01*
X266359Y1607842D01*
X266398Y1607870D01*
X266456Y1607896D01*
X266569Y1607992D01*
X266632Y1608037D01*
X465624Y1807029D01*
X3433959Y1807029D01*
X3433990Y1807033D01*
X3434021Y1807031D01*
X3434097Y1807048D01*
X3434241Y1807069D01*
X3434299Y1807095D01*
X3434348Y1807106D01*
X3436414Y1807962D01*
X3438586Y1807962D01*
X3440594Y1807130D01*
X3442130Y1805594D01*
X3442962Y1803586D01*
X3442962Y1801414D01*
X3442130Y1799406D01*
X3440594Y1797870D01*
X3438586Y1797038D01*
X3436414Y1797038D01*
X3434348Y1797894D01*
X3434318Y1797902D01*
X3434290Y1797916D01*
X3434213Y1797929D01*
X3434072Y1797965D01*
X3434008Y1797963D01*
X3433959Y1797971D01*
X469796Y1797971D01*
X469710Y1797959D01*
X469622Y1797956D01*
X469570Y1797939D01*
X469515Y1797931D01*
X469435Y1797896D01*
X469352Y1797869D01*
X469313Y1797841D01*
X469255Y1797815D01*
X469142Y1797719D01*
X469079Y1797674D01*
X270087Y1598682D01*
X156395Y1598682D01*
X156309Y1598670D01*
X156221Y1598667D01*
X156169Y1598650D01*
X156114Y1598642D01*
X156034Y1598607D01*
X155951Y1598580D01*
X155911Y1598552D01*
X155854Y1598526D01*
X155741Y1598430D01*
X155677Y1598385D01*
X155264Y1597971D01*
X111041Y1597971D01*
X111010Y1597967D01*
X110979Y1597969D01*
X110903Y1597952D01*
X110759Y1597931D01*
X110701Y1597905D01*
X110652Y1597894D01*
X108586Y1597038D01*
X106414Y1597038D01*
G37*
%LPD*%
%LPC*%
G36*
X106414Y1747038D02*
X106414Y1747038D01*
X104406Y1747870D01*
X102870Y1749406D01*
X102038Y1751414D01*
X102038Y1753586D01*
X102870Y1755594D01*
X104406Y1757130D01*
X106414Y1757962D01*
X108586Y1757962D01*
X110652Y1757106D01*
X110682Y1757098D01*
X110710Y1757084D01*
X110787Y1757071D01*
X110928Y1757035D01*
X110992Y1757037D01*
X111041Y1757029D01*
X195204Y1757029D01*
X195290Y1757041D01*
X195378Y1757044D01*
X195430Y1757061D01*
X195485Y1757069D01*
X195565Y1757104D01*
X195648Y1757131D01*
X195687Y1757159D01*
X195745Y1757185D01*
X195858Y1757281D01*
X195922Y1757326D01*
X392674Y1954078D01*
X392674Y1954079D01*
X395624Y1957029D01*
X3433959Y1957029D01*
X3433990Y1957033D01*
X3434021Y1957031D01*
X3434097Y1957048D01*
X3434241Y1957069D01*
X3434299Y1957095D01*
X3434348Y1957106D01*
X3436414Y1957962D01*
X3438586Y1957962D01*
X3440594Y1957130D01*
X3442130Y1955594D01*
X3442962Y1953586D01*
X3442962Y1951414D01*
X3442130Y1949406D01*
X3440594Y1947870D01*
X3438586Y1947038D01*
X3436414Y1947038D01*
X3434348Y1947894D01*
X3434318Y1947902D01*
X3434290Y1947916D01*
X3434213Y1947929D01*
X3434072Y1947965D01*
X3434008Y1947963D01*
X3433959Y1947971D01*
X399796Y1947971D01*
X399710Y1947959D01*
X399622Y1947956D01*
X399570Y1947939D01*
X399515Y1947931D01*
X399435Y1947896D01*
X399352Y1947869D01*
X399313Y1947841D01*
X399255Y1947815D01*
X399142Y1947719D01*
X399078Y1947674D01*
X202326Y1750922D01*
X202326Y1750921D01*
X199376Y1747971D01*
X111041Y1747971D01*
X111010Y1747967D01*
X110979Y1747969D01*
X110903Y1747952D01*
X110759Y1747931D01*
X110701Y1747905D01*
X110652Y1747894D01*
X108586Y1747038D01*
X106414Y1747038D01*
G37*
%LPD*%
%LPC*%
G36*
X126414Y1302038D02*
X126414Y1302038D01*
X124406Y1302870D01*
X122870Y1304406D01*
X122038Y1306414D01*
X122038Y1308586D01*
X122870Y1310594D01*
X124406Y1312130D01*
X126414Y1312962D01*
X128586Y1312962D01*
X130652Y1312106D01*
X130682Y1312098D01*
X130710Y1312084D01*
X130787Y1312071D01*
X130928Y1312035D01*
X130992Y1312037D01*
X131041Y1312029D01*
X148591Y1312029D01*
X148678Y1312041D01*
X148766Y1312044D01*
X148818Y1312061D01*
X148873Y1312069D01*
X148953Y1312104D01*
X149036Y1312131D01*
X149075Y1312159D01*
X149132Y1312185D01*
X149246Y1312281D01*
X149309Y1312326D01*
X152223Y1315240D01*
X488415Y1315240D01*
X488501Y1315252D01*
X488589Y1315255D01*
X488641Y1315272D01*
X488696Y1315280D01*
X488776Y1315315D01*
X488859Y1315342D01*
X488898Y1315370D01*
X488956Y1315396D01*
X489069Y1315492D01*
X489132Y1315537D01*
X680624Y1507029D01*
X3433959Y1507029D01*
X3433990Y1507033D01*
X3434021Y1507031D01*
X3434097Y1507048D01*
X3434241Y1507069D01*
X3434299Y1507095D01*
X3434348Y1507106D01*
X3436414Y1507962D01*
X3438586Y1507962D01*
X3440594Y1507130D01*
X3442130Y1505594D01*
X3442962Y1503586D01*
X3442962Y1501414D01*
X3442130Y1499406D01*
X3440594Y1497870D01*
X3438586Y1497038D01*
X3436414Y1497038D01*
X3434348Y1497894D01*
X3434318Y1497902D01*
X3434290Y1497916D01*
X3434213Y1497929D01*
X3434072Y1497965D01*
X3434008Y1497963D01*
X3433959Y1497971D01*
X684796Y1497971D01*
X684710Y1497959D01*
X684622Y1497956D01*
X684570Y1497939D01*
X684515Y1497931D01*
X684435Y1497896D01*
X684352Y1497869D01*
X684313Y1497841D01*
X684255Y1497815D01*
X684142Y1497719D01*
X684079Y1497674D01*
X492587Y1306182D01*
X156395Y1306182D01*
X156309Y1306170D01*
X156221Y1306167D01*
X156169Y1306150D01*
X156114Y1306142D01*
X156034Y1306107D01*
X155951Y1306080D01*
X155911Y1306052D01*
X155854Y1306026D01*
X155741Y1305930D01*
X155677Y1305885D01*
X152764Y1302971D01*
X131041Y1302971D01*
X131010Y1302967D01*
X130979Y1302969D01*
X130903Y1302952D01*
X130759Y1302931D01*
X130701Y1302905D01*
X130652Y1302894D01*
X128586Y1302038D01*
X126414Y1302038D01*
G37*
%LPD*%
%LPC*%
G36*
X126414Y1157038D02*
X126414Y1157038D01*
X124406Y1157870D01*
X122870Y1159406D01*
X122038Y1161414D01*
X122038Y1163586D01*
X122870Y1165594D01*
X124406Y1167130D01*
X126414Y1167962D01*
X128586Y1167962D01*
X130652Y1167106D01*
X130682Y1167098D01*
X130710Y1167084D01*
X130787Y1167071D01*
X130928Y1167035D01*
X130992Y1167037D01*
X131041Y1167029D01*
X555204Y1167029D01*
X555290Y1167041D01*
X555378Y1167044D01*
X555430Y1167061D01*
X555485Y1167069D01*
X555565Y1167104D01*
X555648Y1167131D01*
X555687Y1167159D01*
X555745Y1167185D01*
X555858Y1167281D01*
X555921Y1167326D01*
X745624Y1357029D01*
X3433959Y1357029D01*
X3433990Y1357033D01*
X3434021Y1357031D01*
X3434097Y1357048D01*
X3434241Y1357069D01*
X3434299Y1357095D01*
X3434348Y1357106D01*
X3436414Y1357962D01*
X3438586Y1357962D01*
X3440594Y1357130D01*
X3442130Y1355594D01*
X3442962Y1353586D01*
X3442962Y1351414D01*
X3442130Y1349406D01*
X3440594Y1347870D01*
X3438586Y1347038D01*
X3436414Y1347038D01*
X3434348Y1347894D01*
X3434318Y1347902D01*
X3434290Y1347916D01*
X3434213Y1347929D01*
X3434072Y1347965D01*
X3434008Y1347963D01*
X3433959Y1347971D01*
X749796Y1347971D01*
X749710Y1347959D01*
X749622Y1347956D01*
X749570Y1347939D01*
X749515Y1347931D01*
X749435Y1347896D01*
X749352Y1347869D01*
X749313Y1347841D01*
X749255Y1347815D01*
X749142Y1347719D01*
X749079Y1347674D01*
X559376Y1157971D01*
X131041Y1157971D01*
X131010Y1157967D01*
X130979Y1157969D01*
X130903Y1157952D01*
X130759Y1157931D01*
X130701Y1157905D01*
X130652Y1157894D01*
X128586Y1157038D01*
X126414Y1157038D01*
G37*
%LPD*%
%LPC*%
G36*
X131414Y539538D02*
X131414Y539538D01*
X129406Y540370D01*
X127870Y541906D01*
X127038Y543914D01*
X127038Y546086D01*
X127870Y548094D01*
X129406Y549630D01*
X131472Y550486D01*
X131499Y550502D01*
X131528Y550511D01*
X131592Y550557D01*
X131717Y550630D01*
X131761Y550677D01*
X131801Y550706D01*
X133835Y552740D01*
X795915Y552740D01*
X796001Y552752D01*
X796089Y552755D01*
X796141Y552772D01*
X796196Y552780D01*
X796276Y552815D01*
X796359Y552842D01*
X796398Y552870D01*
X796456Y552896D01*
X796569Y552992D01*
X796632Y553037D01*
X1005624Y762029D01*
X3428959Y762029D01*
X3428990Y762033D01*
X3429021Y762031D01*
X3429097Y762048D01*
X3429241Y762069D01*
X3429299Y762095D01*
X3429348Y762106D01*
X3431414Y762962D01*
X3433586Y762962D01*
X3435594Y762130D01*
X3437130Y760594D01*
X3437962Y758586D01*
X3437962Y756414D01*
X3437130Y754406D01*
X3435594Y752870D01*
X3433586Y752038D01*
X3431414Y752038D01*
X3429348Y752894D01*
X3429318Y752902D01*
X3429290Y752916D01*
X3429213Y752929D01*
X3429072Y752965D01*
X3429008Y752963D01*
X3428959Y752971D01*
X1009796Y752971D01*
X1009710Y752959D01*
X1009622Y752956D01*
X1009570Y752939D01*
X1009515Y752931D01*
X1009435Y752896D01*
X1009352Y752869D01*
X1009313Y752841D01*
X1009255Y752815D01*
X1009142Y752719D01*
X1009079Y752674D01*
X800087Y543682D01*
X138544Y543682D01*
X138543Y543682D01*
X138541Y543682D01*
X138400Y543662D01*
X138263Y543642D01*
X138261Y543642D01*
X138260Y543642D01*
X138131Y543583D01*
X138003Y543526D01*
X138002Y543525D01*
X138001Y543524D01*
X137894Y543433D01*
X137786Y543343D01*
X137785Y543341D01*
X137784Y543340D01*
X137776Y543327D01*
X137629Y543106D01*
X137620Y543077D01*
X137606Y543056D01*
X137130Y541906D01*
X135594Y540370D01*
X133586Y539538D01*
X131414Y539538D01*
G37*
%LPD*%
%LPC*%
G36*
X126264Y1004538D02*
X126264Y1004538D01*
X124256Y1005370D01*
X122720Y1006906D01*
X121888Y1008914D01*
X121888Y1011086D01*
X122720Y1013094D01*
X124256Y1014630D01*
X126264Y1015462D01*
X128436Y1015462D01*
X130502Y1014606D01*
X130532Y1014598D01*
X130560Y1014584D01*
X130637Y1014571D01*
X130778Y1014535D01*
X130842Y1014537D01*
X130891Y1014529D01*
X151091Y1014529D01*
X151178Y1014541D01*
X151266Y1014544D01*
X151318Y1014561D01*
X151373Y1014569D01*
X151453Y1014604D01*
X151536Y1014631D01*
X151575Y1014659D01*
X151632Y1014685D01*
X151746Y1014781D01*
X151809Y1014826D01*
X152223Y1015240D01*
X589315Y1015240D01*
X589401Y1015252D01*
X589489Y1015255D01*
X589541Y1015272D01*
X589596Y1015280D01*
X589676Y1015315D01*
X589759Y1015342D01*
X589798Y1015370D01*
X589856Y1015396D01*
X589969Y1015492D01*
X590032Y1015537D01*
X779524Y1205029D01*
X3432159Y1205029D01*
X3432190Y1205033D01*
X3432221Y1205031D01*
X3432297Y1205048D01*
X3432441Y1205069D01*
X3432499Y1205095D01*
X3432548Y1205106D01*
X3434614Y1205962D01*
X3436786Y1205962D01*
X3438794Y1205130D01*
X3440330Y1203594D01*
X3441162Y1201586D01*
X3441162Y1199414D01*
X3440330Y1197406D01*
X3438794Y1195870D01*
X3436786Y1195038D01*
X3434614Y1195038D01*
X3432548Y1195894D01*
X3432518Y1195902D01*
X3432490Y1195916D01*
X3432413Y1195929D01*
X3432272Y1195965D01*
X3432208Y1195963D01*
X3432159Y1195971D01*
X783696Y1195971D01*
X783610Y1195959D01*
X783522Y1195956D01*
X783470Y1195939D01*
X783415Y1195931D01*
X783335Y1195896D01*
X783252Y1195869D01*
X783213Y1195841D01*
X783155Y1195815D01*
X783042Y1195719D01*
X782979Y1195674D01*
X593487Y1006182D01*
X156395Y1006182D01*
X156309Y1006170D01*
X156221Y1006167D01*
X156169Y1006150D01*
X156114Y1006142D01*
X156034Y1006107D01*
X155951Y1006080D01*
X155911Y1006052D01*
X155854Y1006026D01*
X155741Y1005930D01*
X155677Y1005885D01*
X155264Y1005471D01*
X130891Y1005471D01*
X130860Y1005467D01*
X130829Y1005469D01*
X130753Y1005452D01*
X130609Y1005431D01*
X130551Y1005405D01*
X130502Y1005394D01*
X128436Y1004538D01*
X126264Y1004538D01*
G37*
%LPD*%
%LPC*%
G36*
X131414Y702038D02*
X131414Y702038D01*
X129406Y702870D01*
X127870Y704406D01*
X127038Y706414D01*
X127038Y708586D01*
X127870Y710594D01*
X129406Y712130D01*
X131414Y712962D01*
X133586Y712962D01*
X135652Y712106D01*
X135682Y712098D01*
X135710Y712084D01*
X135787Y712071D01*
X135928Y712035D01*
X135992Y712037D01*
X136041Y712029D01*
X148591Y712029D01*
X148678Y712041D01*
X148766Y712044D01*
X148818Y712061D01*
X148873Y712069D01*
X148953Y712104D01*
X149036Y712131D01*
X149075Y712159D01*
X149132Y712185D01*
X149246Y712281D01*
X149309Y712326D01*
X152223Y715240D01*
X612777Y715240D01*
X615691Y712326D01*
X615760Y712274D01*
X615824Y712214D01*
X615874Y712188D01*
X615918Y712155D01*
X616000Y712124D01*
X616077Y712084D01*
X616125Y712076D01*
X616183Y712054D01*
X616331Y712042D01*
X616409Y712029D01*
X730204Y712029D01*
X730290Y712041D01*
X730378Y712044D01*
X730430Y712061D01*
X730485Y712069D01*
X730565Y712104D01*
X730648Y712131D01*
X730687Y712159D01*
X730745Y712185D01*
X730858Y712281D01*
X730921Y712326D01*
X930624Y912029D01*
X3428959Y912029D01*
X3428990Y912033D01*
X3429021Y912031D01*
X3429097Y912048D01*
X3429241Y912069D01*
X3429299Y912095D01*
X3429348Y912106D01*
X3431414Y912962D01*
X3433586Y912962D01*
X3435594Y912130D01*
X3437130Y910594D01*
X3437962Y908586D01*
X3437962Y906414D01*
X3437130Y904406D01*
X3435594Y902870D01*
X3433586Y902038D01*
X3431414Y902038D01*
X3429348Y902894D01*
X3429318Y902902D01*
X3429290Y902916D01*
X3429213Y902929D01*
X3429072Y902965D01*
X3429008Y902963D01*
X3428959Y902971D01*
X934796Y902971D01*
X934710Y902959D01*
X934622Y902956D01*
X934570Y902939D01*
X934515Y902931D01*
X934435Y902896D01*
X934352Y902869D01*
X934313Y902841D01*
X934255Y902815D01*
X934142Y902719D01*
X934079Y902674D01*
X734376Y702971D01*
X612236Y702971D01*
X609323Y705885D01*
X609253Y705937D01*
X609189Y705997D01*
X609140Y706023D01*
X609095Y706056D01*
X609014Y706087D01*
X608936Y706127D01*
X608888Y706135D01*
X608830Y706157D01*
X608682Y706169D01*
X608605Y706182D01*
X156395Y706182D01*
X156309Y706170D01*
X156221Y706167D01*
X156169Y706150D01*
X156114Y706142D01*
X156034Y706107D01*
X155951Y706080D01*
X155911Y706052D01*
X155854Y706026D01*
X155741Y705930D01*
X155677Y705885D01*
X152764Y702971D01*
X136041Y702971D01*
X136010Y702967D01*
X135979Y702969D01*
X135903Y702952D01*
X135759Y702931D01*
X135701Y702905D01*
X135652Y702894D01*
X133586Y702038D01*
X131414Y702038D01*
G37*
%LPD*%
%LPC*%
G36*
X131414Y852038D02*
X131414Y852038D01*
X129406Y852870D01*
X127870Y854406D01*
X127038Y856414D01*
X127038Y858586D01*
X127870Y860594D01*
X129406Y862130D01*
X131414Y862962D01*
X133586Y862962D01*
X135652Y862106D01*
X135682Y862098D01*
X135710Y862084D01*
X135787Y862071D01*
X135928Y862035D01*
X135992Y862037D01*
X136041Y862029D01*
X148591Y862029D01*
X148678Y862041D01*
X148766Y862044D01*
X148818Y862061D01*
X148873Y862069D01*
X148953Y862104D01*
X149036Y862131D01*
X149075Y862159D01*
X149132Y862185D01*
X149246Y862281D01*
X149309Y862326D01*
X152223Y865240D01*
X612777Y865240D01*
X615691Y862326D01*
X615760Y862274D01*
X615824Y862214D01*
X615874Y862188D01*
X615918Y862155D01*
X616000Y862124D01*
X616077Y862084D01*
X616125Y862076D01*
X616183Y862054D01*
X616331Y862042D01*
X616409Y862029D01*
X655204Y862029D01*
X655290Y862041D01*
X655378Y862044D01*
X655430Y862061D01*
X655485Y862069D01*
X655565Y862104D01*
X655648Y862131D01*
X655687Y862159D01*
X655745Y862185D01*
X655858Y862281D01*
X655921Y862326D01*
X855624Y1062029D01*
X3428959Y1062029D01*
X3428990Y1062033D01*
X3429021Y1062031D01*
X3429097Y1062048D01*
X3429241Y1062069D01*
X3429299Y1062095D01*
X3429348Y1062106D01*
X3431414Y1062962D01*
X3433586Y1062962D01*
X3435594Y1062130D01*
X3437130Y1060594D01*
X3437962Y1058586D01*
X3437962Y1056414D01*
X3437130Y1054406D01*
X3435594Y1052870D01*
X3433586Y1052038D01*
X3431414Y1052038D01*
X3429348Y1052894D01*
X3429318Y1052902D01*
X3429290Y1052916D01*
X3429213Y1052929D01*
X3429072Y1052965D01*
X3429008Y1052963D01*
X3428959Y1052971D01*
X859796Y1052971D01*
X859710Y1052959D01*
X859622Y1052956D01*
X859570Y1052939D01*
X859515Y1052931D01*
X859435Y1052896D01*
X859352Y1052869D01*
X859313Y1052841D01*
X859255Y1052815D01*
X859142Y1052719D01*
X859079Y1052674D01*
X659376Y852971D01*
X612236Y852971D01*
X609323Y855885D01*
X609253Y855937D01*
X609189Y855997D01*
X609140Y856023D01*
X609095Y856056D01*
X609014Y856087D01*
X608936Y856127D01*
X608888Y856135D01*
X608830Y856157D01*
X608682Y856169D01*
X608605Y856182D01*
X156395Y856182D01*
X156309Y856170D01*
X156221Y856167D01*
X156169Y856150D01*
X156114Y856142D01*
X156034Y856107D01*
X155951Y856080D01*
X155911Y856052D01*
X155854Y856026D01*
X155741Y855930D01*
X155677Y855885D01*
X152764Y852971D01*
X136041Y852971D01*
X136010Y852967D01*
X135979Y852969D01*
X135903Y852952D01*
X135759Y852931D01*
X135701Y852905D01*
X135652Y852894D01*
X133586Y852038D01*
X131414Y852038D01*
G37*
%LPD*%
%LPC*%
G36*
X131414Y1452038D02*
X131414Y1452038D01*
X129406Y1452870D01*
X127870Y1454406D01*
X127038Y1456414D01*
X127038Y1458586D01*
X127870Y1460594D01*
X129406Y1462130D01*
X131414Y1462962D01*
X133586Y1462962D01*
X135652Y1462106D01*
X135682Y1462098D01*
X135710Y1462084D01*
X135787Y1462071D01*
X135928Y1462035D01*
X135992Y1462037D01*
X136041Y1462029D01*
X355204Y1462029D01*
X355290Y1462041D01*
X355378Y1462044D01*
X355430Y1462061D01*
X355485Y1462069D01*
X355565Y1462104D01*
X355648Y1462131D01*
X355687Y1462159D01*
X355745Y1462185D01*
X355858Y1462281D01*
X355921Y1462326D01*
X555624Y1662029D01*
X3428959Y1662029D01*
X3428990Y1662033D01*
X3429021Y1662031D01*
X3429097Y1662048D01*
X3429241Y1662069D01*
X3429299Y1662095D01*
X3429348Y1662106D01*
X3431414Y1662962D01*
X3433586Y1662962D01*
X3435594Y1662130D01*
X3437130Y1660594D01*
X3437962Y1658586D01*
X3437962Y1656414D01*
X3437130Y1654406D01*
X3435594Y1652870D01*
X3433586Y1652038D01*
X3431414Y1652038D01*
X3429348Y1652894D01*
X3429318Y1652902D01*
X3429290Y1652916D01*
X3429213Y1652929D01*
X3429072Y1652965D01*
X3429008Y1652963D01*
X3428959Y1652971D01*
X559796Y1652971D01*
X559710Y1652959D01*
X559622Y1652956D01*
X559570Y1652939D01*
X559515Y1652931D01*
X559435Y1652896D01*
X559352Y1652869D01*
X559313Y1652841D01*
X559255Y1652815D01*
X559142Y1652719D01*
X559079Y1652674D01*
X359376Y1452971D01*
X136041Y1452971D01*
X136010Y1452967D01*
X135979Y1452969D01*
X135903Y1452952D01*
X135759Y1452931D01*
X135701Y1452905D01*
X135652Y1452894D01*
X133586Y1452038D01*
X131414Y1452038D01*
G37*
%LPD*%
%LPC*%
G36*
X126414Y412038D02*
X126414Y412038D01*
X124406Y412870D01*
X122870Y414406D01*
X122038Y416414D01*
X122038Y418586D01*
X122870Y420594D01*
X124406Y422130D01*
X126472Y422986D01*
X126499Y423002D01*
X126528Y423011D01*
X126592Y423057D01*
X126717Y423130D01*
X126761Y423177D01*
X126801Y423206D01*
X167674Y464079D01*
X170624Y467029D01*
X905204Y467029D01*
X905290Y467041D01*
X905378Y467044D01*
X905430Y467061D01*
X905485Y467069D01*
X905565Y467104D01*
X905648Y467131D01*
X905687Y467159D01*
X905745Y467185D01*
X905858Y467281D01*
X905921Y467326D01*
X1055624Y617029D01*
X3423959Y617029D01*
X3423990Y617033D01*
X3424021Y617031D01*
X3424097Y617048D01*
X3424241Y617069D01*
X3424299Y617095D01*
X3424348Y617106D01*
X3426414Y617962D01*
X3428586Y617962D01*
X3430594Y617130D01*
X3432130Y615594D01*
X3432962Y613586D01*
X3432962Y611414D01*
X3432130Y609406D01*
X3430594Y607870D01*
X3428586Y607038D01*
X3426414Y607038D01*
X3424348Y607894D01*
X3424318Y607902D01*
X3424290Y607916D01*
X3424213Y607929D01*
X3424072Y607965D01*
X3424008Y607963D01*
X3423959Y607971D01*
X1059796Y607971D01*
X1059710Y607959D01*
X1059622Y607956D01*
X1059570Y607939D01*
X1059515Y607931D01*
X1059435Y607896D01*
X1059352Y607869D01*
X1059313Y607841D01*
X1059255Y607815D01*
X1059142Y607719D01*
X1059079Y607674D01*
X909376Y457971D01*
X174796Y457971D01*
X174710Y457959D01*
X174622Y457956D01*
X174570Y457939D01*
X174515Y457931D01*
X174435Y457896D01*
X174352Y457869D01*
X174313Y457841D01*
X174255Y457815D01*
X174142Y457719D01*
X174079Y457674D01*
X133206Y416801D01*
X133188Y416777D01*
X133164Y416757D01*
X133122Y416690D01*
X133035Y416574D01*
X133012Y416514D01*
X132986Y416472D01*
X132130Y414406D01*
X130594Y412870D01*
X128586Y412038D01*
X126414Y412038D01*
G37*
%LPD*%
%LPC*%
G36*
X677526Y111038D02*
X677526Y111038D01*
X675518Y111870D01*
X673982Y113406D01*
X673150Y115414D01*
X673150Y117586D01*
X673982Y119594D01*
X675518Y121130D01*
X677526Y121962D01*
X679699Y121962D01*
X681764Y121106D01*
X681794Y121098D01*
X681822Y121084D01*
X681899Y121071D01*
X682040Y121035D01*
X682104Y121037D01*
X682153Y121029D01*
X1264204Y121029D01*
X1264290Y121041D01*
X1264378Y121044D01*
X1264430Y121061D01*
X1264485Y121069D01*
X1264565Y121104D01*
X1264648Y121131D01*
X1264687Y121159D01*
X1264745Y121185D01*
X1264858Y121281D01*
X1264921Y121326D01*
X1455624Y312029D01*
X3428959Y312029D01*
X3428990Y312033D01*
X3429021Y312031D01*
X3429097Y312048D01*
X3429241Y312069D01*
X3429299Y312095D01*
X3429348Y312106D01*
X3431414Y312962D01*
X3433586Y312962D01*
X3435594Y312130D01*
X3437130Y310594D01*
X3437962Y308586D01*
X3437962Y306414D01*
X3437130Y304406D01*
X3435594Y302870D01*
X3433586Y302038D01*
X3431414Y302038D01*
X3429348Y302894D01*
X3429318Y302902D01*
X3429290Y302916D01*
X3429213Y302929D01*
X3429072Y302965D01*
X3429008Y302963D01*
X3428959Y302971D01*
X1459796Y302971D01*
X1459710Y302959D01*
X1459622Y302956D01*
X1459570Y302939D01*
X1459515Y302931D01*
X1459435Y302896D01*
X1459352Y302869D01*
X1459313Y302841D01*
X1459255Y302815D01*
X1459142Y302719D01*
X1459079Y302674D01*
X1268376Y111971D01*
X682153Y111971D01*
X682122Y111967D01*
X682092Y111969D01*
X682015Y111952D01*
X681871Y111931D01*
X681813Y111905D01*
X681764Y111894D01*
X679699Y111038D01*
X677526Y111038D01*
G37*
%LPD*%
%LPC*%
G36*
X353842Y142205D02*
X353842Y142205D01*
X351908Y144140D01*
X316807Y179241D01*
X316737Y179293D01*
X316673Y179353D01*
X316624Y179379D01*
X316580Y179412D01*
X316498Y179443D01*
X316420Y179483D01*
X316372Y179491D01*
X316314Y179513D01*
X316166Y179525D01*
X316089Y179538D01*
X313914Y179538D01*
X311906Y180370D01*
X310368Y181908D01*
X310298Y181960D01*
X310234Y182020D01*
X310185Y182046D01*
X310141Y182079D01*
X310059Y182110D01*
X309981Y182150D01*
X309934Y182158D01*
X309875Y182180D01*
X309727Y182192D01*
X309650Y182205D01*
X227342Y182205D01*
X219343Y190204D01*
X219273Y190257D01*
X219210Y190317D01*
X219160Y190342D01*
X219116Y190375D01*
X219034Y190406D01*
X218956Y190446D01*
X218909Y190454D01*
X218850Y190477D01*
X218703Y190489D01*
X218625Y190502D01*
X216450Y190502D01*
X214443Y191333D01*
X212906Y192870D01*
X212075Y194877D01*
X212075Y197052D01*
X212063Y197139D01*
X212060Y197226D01*
X212043Y197279D01*
X212035Y197334D01*
X211999Y197414D01*
X211972Y197497D01*
X211944Y197536D01*
X211919Y197593D01*
X211823Y197707D01*
X211777Y197770D01*
X164640Y244908D01*
X164570Y244960D01*
X164506Y245020D01*
X164457Y245046D01*
X164413Y245079D01*
X164331Y245110D01*
X164253Y245150D01*
X164205Y245158D01*
X164147Y245180D01*
X163999Y245192D01*
X163922Y245205D01*
X147850Y245205D01*
X147763Y245193D01*
X147676Y245190D01*
X147623Y245173D01*
X147568Y245165D01*
X147489Y245130D01*
X147405Y245103D01*
X147366Y245075D01*
X147309Y245049D01*
X147196Y244953D01*
X147132Y244908D01*
X145594Y243370D01*
X143586Y242538D01*
X141414Y242538D01*
X139406Y243370D01*
X137870Y244906D01*
X137038Y246914D01*
X137038Y249086D01*
X137870Y251094D01*
X139406Y252630D01*
X141414Y253462D01*
X143586Y253462D01*
X145594Y252630D01*
X147132Y251092D01*
X147202Y251040D01*
X147266Y250980D01*
X147315Y250954D01*
X147359Y250921D01*
X147441Y250890D01*
X147519Y250850D01*
X147566Y250842D01*
X147625Y250820D01*
X147773Y250808D01*
X147850Y250795D01*
X166658Y250795D01*
X215730Y201723D01*
X215800Y201670D01*
X215863Y201610D01*
X215913Y201585D01*
X215957Y201552D01*
X216039Y201521D01*
X216117Y201481D01*
X216164Y201473D01*
X216223Y201450D01*
X216370Y201438D01*
X216448Y201425D01*
X218623Y201425D01*
X220630Y200594D01*
X222167Y199057D01*
X222998Y197050D01*
X222998Y194875D01*
X223010Y194788D01*
X223013Y194701D01*
X223030Y194648D01*
X223038Y194593D01*
X223074Y194513D01*
X223101Y194430D01*
X223129Y194391D01*
X223154Y194334D01*
X223250Y194220D01*
X223296Y194157D01*
X229360Y188092D01*
X229430Y188040D01*
X229494Y187980D01*
X229543Y187954D01*
X229587Y187921D01*
X229669Y187890D01*
X229747Y187850D01*
X229795Y187842D01*
X229853Y187820D01*
X230001Y187808D01*
X230078Y187795D01*
X309650Y187795D01*
X309737Y187807D01*
X309824Y187810D01*
X309877Y187827D01*
X309932Y187835D01*
X310011Y187870D01*
X310095Y187897D01*
X310134Y187925D01*
X310191Y187951D01*
X310304Y188047D01*
X310368Y188092D01*
X311906Y189630D01*
X313914Y190462D01*
X316086Y190462D01*
X318094Y189630D01*
X319630Y188094D01*
X320462Y186086D01*
X320462Y183911D01*
X320474Y183825D01*
X320477Y183737D01*
X320494Y183684D01*
X320502Y183630D01*
X320537Y183550D01*
X320564Y183467D01*
X320592Y183427D01*
X320618Y183370D01*
X320714Y183257D01*
X320759Y183193D01*
X355860Y148092D01*
X355930Y148040D01*
X355994Y147980D01*
X356043Y147954D01*
X356087Y147921D01*
X356169Y147890D01*
X356247Y147850D01*
X356295Y147842D01*
X356353Y147820D01*
X356501Y147808D01*
X356578Y147795D01*
X518422Y147795D01*
X518508Y147807D01*
X518596Y147810D01*
X518649Y147827D01*
X518703Y147835D01*
X518783Y147870D01*
X518866Y147897D01*
X518906Y147925D01*
X518963Y147951D01*
X519076Y148047D01*
X519140Y148092D01*
X536908Y165860D01*
X536960Y165930D01*
X537020Y165994D01*
X537046Y166043D01*
X537079Y166087D01*
X537110Y166169D01*
X537150Y166247D01*
X537158Y166295D01*
X537180Y166353D01*
X537192Y166501D01*
X537205Y166578D01*
X537205Y184650D01*
X537193Y184737D01*
X537190Y184824D01*
X537173Y184877D01*
X537165Y184932D01*
X537130Y185011D01*
X537103Y185095D01*
X537075Y185134D01*
X537049Y185191D01*
X536953Y185304D01*
X536908Y185368D01*
X535370Y186906D01*
X534538Y188914D01*
X534538Y191086D01*
X535370Y193094D01*
X536906Y194630D01*
X538914Y195462D01*
X541086Y195462D01*
X543094Y194630D01*
X544630Y193094D01*
X545462Y191086D01*
X545462Y188914D01*
X544630Y186906D01*
X543092Y185368D01*
X543040Y185298D01*
X542980Y185234D01*
X542954Y185185D01*
X542921Y185141D01*
X542890Y185059D01*
X542850Y184981D01*
X542842Y184934D01*
X542820Y184875D01*
X542808Y184727D01*
X542795Y184650D01*
X542795Y163842D01*
X521158Y142205D01*
X353842Y142205D01*
G37*
%LPD*%
%LPC*%
G36*
X410714Y91688D02*
X410714Y91688D01*
X408706Y92520D01*
X407168Y94058D01*
X407098Y94110D01*
X407034Y94170D01*
X406985Y94196D01*
X406941Y94229D01*
X406859Y94260D01*
X406781Y94300D01*
X406734Y94308D01*
X406675Y94330D01*
X406527Y94342D01*
X406450Y94355D01*
X315692Y94355D01*
X291640Y118408D01*
X291570Y118460D01*
X291506Y118520D01*
X291457Y118546D01*
X291413Y118579D01*
X291331Y118610D01*
X291253Y118650D01*
X291205Y118658D01*
X291147Y118680D01*
X290999Y118692D01*
X290922Y118705D01*
X267342Y118705D01*
X254140Y131908D01*
X254070Y131960D01*
X254006Y132020D01*
X253957Y132046D01*
X253913Y132079D01*
X253831Y132110D01*
X253753Y132150D01*
X253705Y132158D01*
X253647Y132180D01*
X253499Y132192D01*
X253422Y132205D01*
X245350Y132205D01*
X245263Y132193D01*
X245176Y132190D01*
X245123Y132173D01*
X245068Y132165D01*
X244989Y132130D01*
X244905Y132103D01*
X244866Y132075D01*
X244809Y132049D01*
X244696Y131953D01*
X244632Y131908D01*
X243094Y130370D01*
X241086Y129538D01*
X238914Y129538D01*
X236906Y130370D01*
X235370Y131906D01*
X234538Y133914D01*
X234538Y136086D01*
X235370Y138094D01*
X236906Y139630D01*
X238914Y140462D01*
X239978Y140462D01*
X240036Y140470D01*
X240094Y140468D01*
X240176Y140490D01*
X240259Y140502D01*
X240313Y140525D01*
X240369Y140540D01*
X240441Y140583D01*
X240519Y140618D01*
X240563Y140656D01*
X240613Y140685D01*
X240671Y140747D01*
X240736Y140801D01*
X240768Y140850D01*
X240808Y140893D01*
X240846Y140968D01*
X240893Y141038D01*
X240911Y141094D01*
X240937Y141146D01*
X240949Y141214D01*
X240979Y141309D01*
X240981Y141409D01*
X240993Y141477D01*
X240993Y142563D01*
X241824Y144571D01*
X243361Y146107D01*
X245368Y146939D01*
X247541Y146939D01*
X249548Y146107D01*
X251087Y144569D01*
X251156Y144517D01*
X251220Y144457D01*
X251270Y144431D01*
X251314Y144398D01*
X251396Y144367D01*
X251473Y144327D01*
X251521Y144319D01*
X251579Y144297D01*
X251727Y144285D01*
X251804Y144272D01*
X259681Y144272D01*
X275550Y128402D01*
X275620Y128350D01*
X275684Y128290D01*
X275733Y128264D01*
X275777Y128231D01*
X275859Y128200D01*
X275937Y128160D01*
X275985Y128152D01*
X276043Y128130D01*
X276191Y128118D01*
X276268Y128105D01*
X295848Y128105D01*
X316660Y107292D01*
X316730Y107240D01*
X316794Y107180D01*
X316843Y107154D01*
X316887Y107121D01*
X316969Y107090D01*
X317047Y107050D01*
X317095Y107042D01*
X317153Y107020D01*
X317301Y107008D01*
X317378Y106995D01*
X399050Y106995D01*
X399137Y107007D01*
X399224Y107010D01*
X399277Y107027D01*
X399332Y107035D01*
X399411Y107070D01*
X399495Y107097D01*
X399534Y107125D01*
X399591Y107151D01*
X399704Y107247D01*
X399768Y107292D01*
X401306Y108830D01*
X403314Y109662D01*
X405486Y109662D01*
X407494Y108830D01*
X409030Y107294D01*
X409862Y105286D01*
X409862Y103627D01*
X409870Y103569D01*
X409868Y103511D01*
X409890Y103429D01*
X409902Y103345D01*
X409925Y103292D01*
X409940Y103236D01*
X409983Y103163D01*
X410018Y103086D01*
X410056Y103041D01*
X410085Y102991D01*
X410147Y102933D01*
X410201Y102869D01*
X410250Y102837D01*
X410293Y102797D01*
X410368Y102758D01*
X410438Y102711D01*
X410494Y102694D01*
X410546Y102667D01*
X410614Y102656D01*
X410709Y102626D01*
X410809Y102623D01*
X410877Y102612D01*
X412886Y102612D01*
X414894Y101780D01*
X416430Y100244D01*
X417262Y98236D01*
X417262Y96064D01*
X416430Y94056D01*
X414894Y92520D01*
X412886Y91688D01*
X410714Y91688D01*
G37*
%LPD*%
%LPC*%
G36*
X263394Y53588D02*
X263394Y53588D01*
X261386Y54420D01*
X259850Y55956D01*
X259018Y57964D01*
X259018Y60136D01*
X259255Y60707D01*
X259255Y60708D01*
X259256Y60710D01*
X259289Y60841D01*
X259325Y60982D01*
X259325Y60984D01*
X259326Y60985D01*
X259321Y61126D01*
X259317Y61266D01*
X259317Y61268D01*
X259317Y61269D01*
X259273Y61405D01*
X259231Y61537D01*
X259230Y61538D01*
X259229Y61540D01*
X259220Y61552D01*
X259072Y61773D01*
X259049Y61793D01*
X259034Y61813D01*
X256605Y64242D01*
X256605Y91452D01*
X256593Y91538D01*
X256590Y91626D01*
X256573Y91679D01*
X256565Y91733D01*
X256530Y91813D01*
X256503Y91896D01*
X256475Y91936D01*
X256449Y91993D01*
X256353Y92106D01*
X256308Y92170D01*
X218020Y130458D01*
X218019Y130459D01*
X218018Y130460D01*
X217937Y130521D01*
X217925Y130531D01*
X217916Y130536D01*
X217903Y130546D01*
X217793Y130628D01*
X217791Y130629D01*
X217790Y130630D01*
X217657Y130680D01*
X217527Y130730D01*
X217526Y130730D01*
X217524Y130730D01*
X217380Y130742D01*
X217244Y130753D01*
X217242Y130753D01*
X217241Y130753D01*
X217225Y130750D01*
X216965Y130697D01*
X216938Y130683D01*
X216914Y130678D01*
X214766Y129788D01*
X212594Y129788D01*
X210586Y130620D01*
X209050Y132156D01*
X208218Y134164D01*
X208218Y136336D01*
X209050Y138344D01*
X210586Y139880D01*
X212594Y140712D01*
X214766Y140712D01*
X216774Y139880D01*
X218310Y138344D01*
X218425Y138067D01*
X218441Y138040D01*
X218450Y138011D01*
X218496Y137947D01*
X218570Y137822D01*
X218616Y137777D01*
X218645Y137737D01*
X260260Y96122D01*
X262195Y94188D01*
X262195Y66978D01*
X262207Y66892D01*
X262210Y66804D01*
X262227Y66751D01*
X262235Y66697D01*
X262270Y66617D01*
X262297Y66534D01*
X262325Y66494D01*
X262351Y66437D01*
X262447Y66324D01*
X262492Y66260D01*
X263943Y64809D01*
X264013Y64757D01*
X264077Y64697D01*
X264126Y64671D01*
X264170Y64638D01*
X264252Y64607D01*
X264330Y64567D01*
X264378Y64559D01*
X264436Y64537D01*
X264584Y64525D01*
X264661Y64512D01*
X265569Y64512D01*
X265655Y64524D01*
X265743Y64527D01*
X265796Y64544D01*
X265850Y64552D01*
X265930Y64587D01*
X266013Y64614D01*
X266053Y64642D01*
X266110Y64668D01*
X266223Y64764D01*
X266287Y64809D01*
X272383Y70905D01*
X272400Y70929D01*
X272423Y70948D01*
X272486Y71042D01*
X272554Y71132D01*
X272564Y71160D01*
X272580Y71184D01*
X272615Y71292D01*
X272655Y71398D01*
X272657Y71427D01*
X272666Y71455D01*
X272669Y71569D01*
X272678Y71681D01*
X272673Y71710D01*
X272673Y71739D01*
X272645Y71849D01*
X272623Y71960D01*
X272609Y71986D01*
X272602Y72014D01*
X272544Y72112D01*
X272492Y72212D01*
X272471Y72234D01*
X272456Y72259D01*
X272374Y72336D01*
X272296Y72418D01*
X272270Y72433D01*
X272249Y72453D01*
X272148Y72505D01*
X272051Y72562D01*
X272022Y72569D01*
X271996Y72583D01*
X271919Y72596D01*
X271775Y72632D01*
X271713Y72630D01*
X271665Y72638D01*
X269744Y72638D01*
X267736Y73470D01*
X266200Y75006D01*
X265368Y77014D01*
X265368Y79186D01*
X266200Y81194D01*
X267738Y82732D01*
X267790Y82802D01*
X267850Y82866D01*
X267876Y82915D01*
X267909Y82959D01*
X267940Y83041D01*
X267980Y83119D01*
X267988Y83166D01*
X268010Y83225D01*
X268022Y83373D01*
X268035Y83450D01*
X268035Y95152D01*
X268023Y95238D01*
X268020Y95326D01*
X268003Y95379D01*
X267995Y95433D01*
X267960Y95513D01*
X267933Y95596D01*
X267905Y95636D01*
X267879Y95693D01*
X267800Y95787D01*
X267781Y95818D01*
X267762Y95836D01*
X267738Y95870D01*
X259517Y104091D01*
X259447Y104143D01*
X259383Y104203D01*
X259334Y104229D01*
X259290Y104262D01*
X259208Y104293D01*
X259130Y104333D01*
X259082Y104341D01*
X259024Y104363D01*
X258876Y104375D01*
X258799Y104388D01*
X256624Y104388D01*
X254616Y105220D01*
X253080Y106756D01*
X252248Y108764D01*
X252248Y110936D01*
X253080Y112944D01*
X254616Y114480D01*
X256624Y115312D01*
X258796Y115312D01*
X260804Y114480D01*
X262340Y112944D01*
X263172Y110936D01*
X263172Y108761D01*
X263184Y108675D01*
X263187Y108587D01*
X263204Y108534D01*
X263212Y108480D01*
X263247Y108400D01*
X263274Y108317D01*
X263302Y108277D01*
X263328Y108220D01*
X263424Y108107D01*
X263469Y108043D01*
X273625Y97888D01*
X273625Y83450D01*
X273637Y83363D01*
X273640Y83276D01*
X273657Y83223D01*
X273665Y83168D01*
X273700Y83089D01*
X273727Y83005D01*
X273755Y82966D01*
X273781Y82909D01*
X273877Y82796D01*
X273922Y82732D01*
X275460Y81194D01*
X276292Y79186D01*
X276292Y77265D01*
X276296Y77236D01*
X276293Y77207D01*
X276316Y77096D01*
X276332Y76984D01*
X276344Y76957D01*
X276349Y76928D01*
X276401Y76828D01*
X276448Y76724D01*
X276467Y76702D01*
X276480Y76676D01*
X276558Y76594D01*
X276631Y76507D01*
X276656Y76491D01*
X276676Y76470D01*
X276774Y76412D01*
X276868Y76350D01*
X276896Y76341D01*
X276921Y76326D01*
X277031Y76298D01*
X277139Y76264D01*
X277169Y76263D01*
X277197Y76256D01*
X277310Y76259D01*
X277423Y76257D01*
X277452Y76264D01*
X277481Y76265D01*
X277589Y76300D01*
X277698Y76328D01*
X277724Y76343D01*
X277752Y76352D01*
X277815Y76398D01*
X277943Y76474D01*
X277986Y76519D01*
X278025Y76547D01*
X294563Y93085D01*
X294615Y93155D01*
X294675Y93219D01*
X294700Y93268D01*
X294734Y93312D01*
X294765Y93394D01*
X294805Y93472D01*
X294813Y93520D01*
X294835Y93578D01*
X294847Y93726D01*
X294860Y93803D01*
X294860Y94144D01*
X295692Y96152D01*
X297228Y97688D01*
X299236Y98520D01*
X301408Y98520D01*
X303416Y97688D01*
X304952Y96152D01*
X305784Y94144D01*
X305784Y91972D01*
X304952Y89964D01*
X303416Y88428D01*
X301408Y87596D01*
X299236Y87596D01*
X298266Y87998D01*
X298265Y87998D01*
X298264Y87999D01*
X298130Y88033D01*
X297991Y88069D01*
X297990Y88069D01*
X297988Y88069D01*
X297847Y88065D01*
X297707Y88061D01*
X297705Y88060D01*
X297704Y88060D01*
X297571Y88017D01*
X297436Y87974D01*
X297435Y87973D01*
X297433Y87973D01*
X297421Y87964D01*
X297200Y87816D01*
X297180Y87792D01*
X297160Y87778D01*
X270239Y60857D01*
X270187Y60787D01*
X270127Y60723D01*
X270101Y60674D01*
X270068Y60630D01*
X270037Y60548D01*
X269997Y60470D01*
X269989Y60422D01*
X269967Y60364D01*
X269955Y60216D01*
X269942Y60139D01*
X269942Y57964D01*
X269110Y55956D01*
X267574Y54420D01*
X265566Y53588D01*
X263394Y53588D01*
G37*
%LPD*%
%LPC*%
G36*
X535914Y260038D02*
X535914Y260038D01*
X533848Y260894D01*
X533818Y260902D01*
X533790Y260916D01*
X533713Y260929D01*
X533572Y260965D01*
X533508Y260963D01*
X533459Y260971D01*
X452624Y260971D01*
X449674Y263921D01*
X449674Y263922D01*
X443421Y270174D01*
X443352Y270226D01*
X443288Y270286D01*
X443238Y270312D01*
X443194Y270345D01*
X443113Y270376D01*
X443035Y270416D01*
X442987Y270424D01*
X442929Y270446D01*
X442781Y270458D01*
X442704Y270471D01*
X408541Y270471D01*
X408510Y270467D01*
X408479Y270469D01*
X408403Y270452D01*
X408259Y270431D01*
X408201Y270405D01*
X408152Y270394D01*
X406086Y269538D01*
X403914Y269538D01*
X401906Y270370D01*
X400370Y271906D01*
X399538Y273914D01*
X399538Y276086D01*
X400370Y278094D01*
X401906Y279630D01*
X403914Y280462D01*
X406086Y280462D01*
X408152Y279606D01*
X408182Y279598D01*
X408210Y279584D01*
X408287Y279571D01*
X408428Y279535D01*
X408492Y279537D01*
X408541Y279529D01*
X446876Y279529D01*
X449826Y276579D01*
X456078Y270326D01*
X456148Y270274D01*
X456212Y270214D01*
X456261Y270188D01*
X456306Y270155D01*
X456387Y270124D01*
X456465Y270084D01*
X456513Y270076D01*
X456571Y270054D01*
X456719Y270042D01*
X456796Y270029D01*
X533459Y270029D01*
X533490Y270033D01*
X533521Y270031D01*
X533597Y270048D01*
X533741Y270069D01*
X533799Y270095D01*
X533848Y270106D01*
X535914Y270962D01*
X538086Y270962D01*
X540094Y270130D01*
X541630Y268594D01*
X542462Y266586D01*
X542462Y264414D01*
X541630Y262406D01*
X540094Y260870D01*
X538086Y260038D01*
X535914Y260038D01*
G37*
%LPD*%
%LPC*%
G36*
X3486086Y2080321D02*
X3486086Y2080321D01*
X3478853Y2083317D01*
X3473317Y2088853D01*
X3470321Y2096086D01*
X3470321Y2103914D01*
X3473317Y2111147D01*
X3478853Y2116683D01*
X3486086Y2119679D01*
X3493914Y2119679D01*
X3501147Y2116683D01*
X3506683Y2111147D01*
X3509679Y2103914D01*
X3509679Y2096086D01*
X3506683Y2088853D01*
X3501147Y2083317D01*
X3493914Y2080321D01*
X3486086Y2080321D01*
G37*
%LPD*%
%LPC*%
G36*
X71086Y55321D02*
X71086Y55321D01*
X63853Y58317D01*
X58317Y63853D01*
X55321Y71086D01*
X55321Y78914D01*
X58317Y86147D01*
X63853Y91683D01*
X71086Y94679D01*
X78914Y94679D01*
X86147Y91683D01*
X91683Y86147D01*
X94679Y78914D01*
X94679Y71086D01*
X91683Y63853D01*
X86147Y58317D01*
X78914Y55321D01*
X71086Y55321D01*
G37*
%LPD*%
%LPC*%
G36*
X71086Y2110321D02*
X71086Y2110321D01*
X63853Y2113317D01*
X58317Y2118853D01*
X55321Y2126086D01*
X55321Y2133914D01*
X58317Y2141147D01*
X63853Y2146683D01*
X71086Y2149679D01*
X78914Y2149679D01*
X86147Y2146683D01*
X91683Y2141147D01*
X94679Y2133914D01*
X94679Y2126086D01*
X91683Y2118853D01*
X86147Y2113317D01*
X78914Y2110321D01*
X71086Y2110321D01*
G37*
%LPD*%
%LPC*%
G36*
X1601086Y55321D02*
X1601086Y55321D01*
X1593853Y58317D01*
X1588317Y63853D01*
X1585321Y71086D01*
X1585321Y78914D01*
X1588317Y86147D01*
X1593853Y91683D01*
X1601086Y94679D01*
X1608914Y94679D01*
X1616147Y91683D01*
X1621683Y86147D01*
X1624679Y78914D01*
X1624679Y71086D01*
X1621683Y63853D01*
X1616147Y58317D01*
X1608914Y55321D01*
X1601086Y55321D01*
G37*
%LPD*%
%LPC*%
G36*
X357214Y174111D02*
X357214Y174111D01*
X355206Y174943D01*
X353670Y176479D01*
X352838Y178487D01*
X352838Y180659D01*
X353670Y182667D01*
X355206Y184203D01*
X357214Y185035D01*
X359386Y185035D01*
X361394Y184203D01*
X362932Y182665D01*
X363002Y182613D01*
X363066Y182553D01*
X363115Y182527D01*
X363159Y182494D01*
X363241Y182463D01*
X363319Y182423D01*
X363366Y182415D01*
X363425Y182393D01*
X363573Y182381D01*
X363650Y182368D01*
X495058Y182368D01*
X495144Y182380D01*
X495232Y182383D01*
X495285Y182400D01*
X495339Y182408D01*
X495419Y182443D01*
X495502Y182470D01*
X495542Y182498D01*
X495599Y182524D01*
X495712Y182620D01*
X495776Y182665D01*
X521611Y208500D01*
X521663Y208570D01*
X521723Y208634D01*
X521749Y208683D01*
X521782Y208727D01*
X521813Y208809D01*
X521853Y208887D01*
X521861Y208935D01*
X521883Y208993D01*
X521895Y209141D01*
X521908Y209218D01*
X521908Y211393D01*
X522740Y213401D01*
X524276Y214937D01*
X526284Y215769D01*
X528456Y215769D01*
X530464Y214937D01*
X532000Y213401D01*
X532832Y211393D01*
X532832Y209221D01*
X532000Y207213D01*
X530464Y205677D01*
X528456Y204845D01*
X526281Y204845D01*
X526195Y204833D01*
X526107Y204830D01*
X526054Y204813D01*
X526000Y204805D01*
X525920Y204770D01*
X525837Y204743D01*
X525797Y204715D01*
X525740Y204689D01*
X525627Y204593D01*
X525563Y204548D01*
X497794Y176778D01*
X363650Y176778D01*
X363563Y176766D01*
X363476Y176763D01*
X363423Y176746D01*
X363368Y176738D01*
X363289Y176703D01*
X363205Y176676D01*
X363166Y176648D01*
X363109Y176622D01*
X362996Y176526D01*
X362932Y176481D01*
X361394Y174943D01*
X359386Y174111D01*
X357214Y174111D01*
G37*
%LPD*%
%LPC*%
G36*
X182042Y49905D02*
X182042Y49905D01*
X177985Y53962D01*
X177985Y62630D01*
X177973Y62717D01*
X177970Y62804D01*
X177953Y62857D01*
X177945Y62912D01*
X177910Y62991D01*
X177883Y63075D01*
X177855Y63114D01*
X177829Y63171D01*
X177733Y63284D01*
X177688Y63348D01*
X176150Y64886D01*
X175318Y66894D01*
X175318Y69066D01*
X176150Y71074D01*
X177686Y72610D01*
X179694Y73442D01*
X181866Y73442D01*
X183874Y72610D01*
X185410Y71074D01*
X186242Y69066D01*
X186242Y66894D01*
X185410Y64886D01*
X183872Y63348D01*
X183820Y63278D01*
X183760Y63214D01*
X183734Y63165D01*
X183701Y63121D01*
X183670Y63039D01*
X183630Y62961D01*
X183622Y62914D01*
X183600Y62855D01*
X183588Y62707D01*
X183575Y62630D01*
X183575Y56698D01*
X183587Y56612D01*
X183590Y56524D01*
X183607Y56471D01*
X183615Y56417D01*
X183650Y56337D01*
X183677Y56254D01*
X183705Y56214D01*
X183731Y56157D01*
X183827Y56044D01*
X183872Y55980D01*
X184060Y55792D01*
X184130Y55740D01*
X184194Y55680D01*
X184243Y55654D01*
X184287Y55621D01*
X184369Y55590D01*
X184447Y55550D01*
X184495Y55542D01*
X184553Y55520D01*
X184701Y55508D01*
X184778Y55495D01*
X232422Y55495D01*
X232508Y55507D01*
X232596Y55510D01*
X232649Y55527D01*
X232703Y55535D01*
X232783Y55570D01*
X232866Y55597D01*
X232906Y55625D01*
X232963Y55651D01*
X233076Y55747D01*
X233140Y55792D01*
X243608Y66260D01*
X243660Y66330D01*
X243720Y66394D01*
X243746Y66443D01*
X243779Y66487D01*
X243810Y66569D01*
X243850Y66647D01*
X243858Y66695D01*
X243880Y66753D01*
X243892Y66901D01*
X243905Y66978D01*
X243905Y72750D01*
X243893Y72837D01*
X243890Y72924D01*
X243873Y72977D01*
X243865Y73032D01*
X243830Y73111D01*
X243803Y73195D01*
X243775Y73234D01*
X243749Y73291D01*
X243653Y73404D01*
X243608Y73468D01*
X242070Y75006D01*
X241238Y77014D01*
X241238Y79186D01*
X242070Y81194D01*
X243606Y82730D01*
X245614Y83562D01*
X247786Y83562D01*
X249794Y82730D01*
X251330Y81194D01*
X252162Y79186D01*
X252162Y77014D01*
X251330Y75006D01*
X249792Y73468D01*
X249740Y73398D01*
X249680Y73334D01*
X249654Y73285D01*
X249621Y73241D01*
X249590Y73159D01*
X249550Y73081D01*
X249542Y73034D01*
X249520Y72975D01*
X249508Y72827D01*
X249495Y72750D01*
X249495Y64242D01*
X235158Y49905D01*
X182042Y49905D01*
G37*
%LPD*%
%LPC*%
G36*
X466414Y354038D02*
X466414Y354038D01*
X464406Y354870D01*
X462870Y356406D01*
X462084Y358302D01*
X462070Y358327D01*
X462061Y358355D01*
X461997Y358450D01*
X461940Y358547D01*
X461919Y358567D01*
X461902Y358592D01*
X461815Y358665D01*
X461733Y358742D01*
X461707Y358756D01*
X461685Y358775D01*
X461581Y358821D01*
X461481Y358872D01*
X461452Y358878D01*
X461425Y358890D01*
X461313Y358906D01*
X461202Y358927D01*
X461172Y358925D01*
X461143Y358929D01*
X461031Y358913D01*
X460918Y358903D01*
X460891Y358892D01*
X460862Y358888D01*
X460759Y358842D01*
X460653Y358801D01*
X460630Y358783D01*
X460603Y358771D01*
X460517Y358698D01*
X460426Y358629D01*
X460409Y358606D01*
X460386Y358587D01*
X460345Y358520D01*
X460256Y358402D01*
X460234Y358343D01*
X460208Y358302D01*
X459630Y356906D01*
X458094Y355370D01*
X456086Y354538D01*
X453914Y354538D01*
X451906Y355370D01*
X450370Y356906D01*
X449538Y358914D01*
X449538Y361086D01*
X450370Y363094D01*
X451906Y364630D01*
X452279Y364784D01*
X452280Y364785D01*
X452281Y364786D01*
X452400Y364856D01*
X452523Y364929D01*
X452524Y364930D01*
X452526Y364931D01*
X452624Y365035D01*
X452719Y365136D01*
X452719Y365137D01*
X452720Y365138D01*
X452784Y365263D01*
X452849Y365388D01*
X452849Y365390D01*
X452850Y365391D01*
X452852Y365406D01*
X452904Y365667D01*
X452901Y365698D01*
X452905Y365722D01*
X452905Y380350D01*
X452893Y380437D01*
X452890Y380524D01*
X452873Y380577D01*
X452865Y380632D01*
X452830Y380711D01*
X452803Y380795D01*
X452775Y380834D01*
X452749Y380891D01*
X452653Y381004D01*
X452608Y381068D01*
X451070Y382606D01*
X450238Y384614D01*
X450238Y386786D01*
X451070Y388794D01*
X452606Y390330D01*
X454614Y391162D01*
X456786Y391162D01*
X458794Y390330D01*
X460330Y388794D01*
X461162Y386786D01*
X461162Y385160D01*
X461174Y385075D01*
X461176Y384989D01*
X461194Y384935D01*
X461202Y384878D01*
X461237Y384800D01*
X461263Y384718D01*
X461295Y384671D01*
X461318Y384619D01*
X461373Y384554D01*
X461421Y384482D01*
X461465Y384446D01*
X461501Y384402D01*
X461573Y384354D01*
X461639Y384299D01*
X461691Y384276D01*
X461738Y384244D01*
X461820Y384219D01*
X461899Y384184D01*
X461955Y384176D01*
X462009Y384159D01*
X462095Y384157D01*
X462180Y384145D01*
X462236Y384153D01*
X462293Y384151D01*
X462376Y384173D01*
X462462Y384185D01*
X462513Y384209D01*
X462568Y384223D01*
X462642Y384267D01*
X462721Y384303D01*
X462764Y384339D01*
X462813Y384368D01*
X462872Y384431D01*
X462937Y384487D01*
X462963Y384529D01*
X463007Y384576D01*
X463073Y384705D01*
X463115Y384771D01*
X463870Y386594D01*
X465406Y388130D01*
X467414Y388962D01*
X469586Y388962D01*
X471594Y388130D01*
X473130Y386594D01*
X473962Y384586D01*
X473962Y382414D01*
X473130Y380406D01*
X471594Y378870D01*
X470921Y378591D01*
X470920Y378590D01*
X470919Y378590D01*
X470800Y378520D01*
X470677Y378447D01*
X470676Y378446D01*
X470674Y378445D01*
X470579Y378343D01*
X470481Y378240D01*
X470481Y378239D01*
X470480Y378237D01*
X470417Y378116D01*
X470351Y377987D01*
X470351Y377986D01*
X470350Y377984D01*
X470348Y377970D01*
X470296Y377708D01*
X470299Y377678D01*
X470295Y377653D01*
X470295Y364850D01*
X470307Y364763D01*
X470310Y364676D01*
X470327Y364623D01*
X470335Y364568D01*
X470370Y364489D01*
X470397Y364405D01*
X470425Y364366D01*
X470451Y364309D01*
X470547Y364196D01*
X470592Y364132D01*
X472130Y362594D01*
X472962Y360586D01*
X472962Y358414D01*
X472130Y356406D01*
X470594Y354870D01*
X468586Y354038D01*
X466414Y354038D01*
G37*
%LPD*%
%LPC*%
G36*
X522414Y411038D02*
X522414Y411038D01*
X520406Y411870D01*
X518870Y413406D01*
X518014Y415472D01*
X517998Y415499D01*
X517989Y415528D01*
X517943Y415592D01*
X517870Y415717D01*
X517823Y415761D01*
X517794Y415801D01*
X490801Y442794D01*
X490777Y442812D01*
X490757Y442836D01*
X490690Y442878D01*
X490574Y442965D01*
X490514Y442988D01*
X490472Y443014D01*
X488406Y443870D01*
X486870Y445406D01*
X486038Y447414D01*
X486038Y449586D01*
X486870Y451594D01*
X488406Y453130D01*
X490414Y453962D01*
X492586Y453962D01*
X494594Y453130D01*
X496130Y451594D01*
X496986Y449528D01*
X497002Y449501D01*
X497011Y449472D01*
X497057Y449408D01*
X497130Y449283D01*
X497177Y449239D01*
X497206Y449199D01*
X524199Y422206D01*
X524223Y422188D01*
X524243Y422164D01*
X524310Y422122D01*
X524426Y422035D01*
X524486Y422012D01*
X524528Y421986D01*
X526594Y421130D01*
X528130Y419594D01*
X528962Y417586D01*
X528962Y415414D01*
X528130Y413406D01*
X526594Y411870D01*
X524586Y411038D01*
X522414Y411038D01*
G37*
%LPD*%
%LPC*%
G36*
X229414Y427538D02*
X229414Y427538D01*
X227348Y428394D01*
X227318Y428402D01*
X227290Y428416D01*
X227213Y428429D01*
X227072Y428465D01*
X227008Y428463D01*
X226959Y428471D01*
X221624Y428471D01*
X218674Y431421D01*
X207301Y442794D01*
X207277Y442813D01*
X207257Y442836D01*
X207190Y442878D01*
X207074Y442965D01*
X207014Y442988D01*
X206972Y443014D01*
X204906Y443870D01*
X203370Y445406D01*
X202538Y447414D01*
X202538Y449586D01*
X203370Y451594D01*
X204906Y453130D01*
X206914Y453962D01*
X209086Y453962D01*
X211094Y453130D01*
X212630Y451594D01*
X213486Y449528D01*
X213502Y449501D01*
X213511Y449472D01*
X213557Y449408D01*
X213630Y449283D01*
X213677Y449239D01*
X213706Y449199D01*
X225079Y437826D01*
X225148Y437774D01*
X225212Y437714D01*
X225262Y437688D01*
X225306Y437655D01*
X225387Y437624D01*
X225465Y437584D01*
X225513Y437576D01*
X225571Y437554D01*
X225719Y437542D01*
X225796Y437529D01*
X226959Y437529D01*
X226990Y437533D01*
X227021Y437531D01*
X227097Y437548D01*
X227241Y437569D01*
X227299Y437595D01*
X227348Y437606D01*
X229414Y438462D01*
X231586Y438462D01*
X233594Y437630D01*
X235130Y436094D01*
X235962Y434086D01*
X235962Y431914D01*
X235130Y429906D01*
X233594Y428370D01*
X231586Y427538D01*
X229414Y427538D01*
G37*
%LPD*%
%LPC*%
G36*
X3602302Y240021D02*
X3602302Y240021D01*
X3599810Y241053D01*
X3597903Y242960D01*
X3596871Y245452D01*
X3596871Y248148D01*
X3597903Y250640D01*
X3599810Y252547D01*
X3602302Y253579D01*
X3615998Y253579D01*
X3618490Y252547D01*
X3620397Y250640D01*
X3621429Y248148D01*
X3621429Y245452D01*
X3620397Y242960D01*
X3618490Y241053D01*
X3615998Y240021D01*
X3602302Y240021D01*
G37*
%LPD*%
%LPC*%
G36*
X3602302Y326421D02*
X3602302Y326421D01*
X3599810Y327453D01*
X3597903Y329360D01*
X3596871Y331852D01*
X3596871Y334548D01*
X3597903Y337040D01*
X3599810Y338947D01*
X3602302Y339979D01*
X3615998Y339979D01*
X3618490Y338947D01*
X3620397Y337040D01*
X3621429Y334548D01*
X3621429Y331852D01*
X3620397Y329360D01*
X3618490Y327453D01*
X3615998Y326421D01*
X3602302Y326421D01*
G37*
%LPD*%
%LPC*%
G36*
X3584483Y279991D02*
X3584483Y279991D01*
X3582475Y280823D01*
X3580939Y282359D01*
X3580107Y284367D01*
X3580107Y286539D01*
X3580939Y288547D01*
X3582477Y290085D01*
X3582529Y290155D01*
X3582589Y290219D01*
X3582615Y290268D01*
X3582648Y290312D01*
X3582679Y290394D01*
X3582719Y290472D01*
X3582727Y290519D01*
X3582749Y290578D01*
X3582761Y290726D01*
X3582774Y290803D01*
X3582774Y295103D01*
X3582762Y295190D01*
X3582759Y295277D01*
X3582742Y295330D01*
X3582734Y295385D01*
X3582699Y295464D01*
X3582672Y295548D01*
X3582644Y295587D01*
X3582618Y295644D01*
X3582522Y295757D01*
X3582477Y295821D01*
X3580939Y297359D01*
X3580107Y299367D01*
X3580107Y301539D01*
X3580939Y303547D01*
X3582475Y305083D01*
X3584483Y305915D01*
X3586655Y305915D01*
X3588663Y305083D01*
X3590199Y303547D01*
X3591031Y301539D01*
X3591031Y299367D01*
X3590199Y297359D01*
X3588661Y295821D01*
X3588609Y295751D01*
X3588549Y295687D01*
X3588523Y295638D01*
X3588490Y295594D01*
X3588459Y295512D01*
X3588419Y295434D01*
X3588411Y295387D01*
X3588389Y295328D01*
X3588377Y295180D01*
X3588364Y295103D01*
X3588364Y290803D01*
X3588376Y290716D01*
X3588379Y290629D01*
X3588396Y290576D01*
X3588404Y290521D01*
X3588439Y290442D01*
X3588466Y290358D01*
X3588494Y290319D01*
X3588520Y290262D01*
X3588616Y290149D01*
X3588661Y290085D01*
X3590199Y288547D01*
X3591031Y286539D01*
X3591031Y284367D01*
X3590199Y282359D01*
X3588663Y280823D01*
X3586655Y279991D01*
X3584483Y279991D01*
G37*
%LPD*%
%LPC*%
G36*
X3647453Y462221D02*
X3647453Y462221D01*
X3644594Y463406D01*
X3642406Y465594D01*
X3641221Y468453D01*
X3641221Y471547D01*
X3642406Y474406D01*
X3644594Y476594D01*
X3647453Y477779D01*
X3650547Y477779D01*
X3653406Y476594D01*
X3655594Y474406D01*
X3656779Y471547D01*
X3656779Y468453D01*
X3655594Y465594D01*
X3653406Y463406D01*
X3650547Y462221D01*
X3647453Y462221D01*
G37*
%LPD*%
%LPC*%
G36*
X3577453Y462221D02*
X3577453Y462221D01*
X3574594Y463406D01*
X3572406Y465594D01*
X3571221Y468453D01*
X3571221Y471547D01*
X3572406Y474406D01*
X3574594Y476594D01*
X3577453Y477779D01*
X3580547Y477779D01*
X3583406Y476594D01*
X3585594Y474406D01*
X3586779Y471547D01*
X3586779Y468453D01*
X3585594Y465594D01*
X3583406Y463406D01*
X3580547Y462221D01*
X3577453Y462221D01*
G37*
%LPD*%
%LPC*%
G36*
X285051Y133721D02*
X285051Y133721D01*
X282743Y134677D01*
X280977Y136443D01*
X280021Y138751D01*
X280021Y141249D01*
X280977Y143557D01*
X282743Y145323D01*
X285051Y146279D01*
X287549Y146279D01*
X289857Y145323D01*
X291623Y143557D01*
X292579Y141249D01*
X292579Y138751D01*
X291623Y136443D01*
X289857Y134677D01*
X287549Y133721D01*
X285051Y133721D01*
G37*
%LPD*%
%LPC*%
G36*
X3612367Y256071D02*
X3612367Y256071D01*
X3609421Y259017D01*
X3609421Y263183D01*
X3612367Y266129D01*
X3616533Y266129D01*
X3619479Y263183D01*
X3619479Y259017D01*
X3616533Y256071D01*
X3612367Y256071D01*
G37*
%LPD*%
%LPC*%
G36*
X3612367Y313871D02*
X3612367Y313871D01*
X3609421Y316817D01*
X3609421Y320983D01*
X3612367Y323929D01*
X3616533Y323929D01*
X3619479Y320983D01*
X3619479Y316817D01*
X3616533Y313871D01*
X3612367Y313871D01*
G37*
%LPD*%
D10*
X3650562Y386114D02*
X3657674Y383743D01*
X3650562Y381373D01*
X3649377Y376420D02*
X3647006Y373456D01*
X3657674Y373456D01*
X3657674Y370493D02*
X3657674Y376420D01*
X3649377Y364990D02*
X3647006Y362026D01*
X3657674Y362026D01*
X3657674Y359063D02*
X3657674Y364990D01*
D11*
X3614650Y246800D02*
X3603650Y246800D01*
X3603650Y333200D02*
X3614650Y333200D01*
X3647950Y246800D02*
X3653950Y246800D01*
X3653950Y333200D02*
X3647950Y333200D01*
D12*
X246700Y78100D03*
D10*
X246700Y65400D02*
X234000Y52700D01*
X183200Y52700D01*
X246700Y65400D02*
X246700Y78100D01*
X183200Y52700D02*
X180780Y55120D01*
X180780Y67980D01*
D12*
X180780Y67980D03*
X142500Y248000D03*
D10*
X165500Y248000D01*
X217537Y195964D01*
D12*
X217537Y195964D03*
D10*
X228500Y185000D01*
X315000Y185000D01*
D12*
X315000Y185000D03*
D10*
X355000Y145000D01*
X540000Y165000D02*
X540000Y190000D01*
D12*
X540000Y190000D03*
D10*
X520000Y145000D02*
X355000Y145000D01*
X520000Y145000D02*
X540000Y165000D01*
D12*
X3502500Y415000D03*
D10*
X3502500Y197500D01*
X3315000Y10000D01*
X3255000Y10000D01*
D12*
X3255000Y10000D03*
X358300Y179573D03*
D10*
X496636Y179573D01*
X527370Y210307D01*
D12*
X527370Y210307D03*
X139660Y202130D03*
X175310Y256780D03*
X343220Y111350D03*
X327980Y111120D03*
X427040Y155570D03*
X486500Y190020D03*
X339980Y225360D03*
X139310Y228490D03*
X3553590Y231010D03*
X299000Y152700D03*
X273800Y151300D03*
X239890Y221920D03*
X214100Y184800D03*
X422040Y105570D03*
X422040Y85570D03*
X213800Y111300D03*
X228800Y111300D03*
X228800Y96300D03*
X213800Y96300D03*
X3483590Y366010D03*
X3533590Y326010D03*
X3573590Y326010D03*
X3633590Y306010D03*
X3628590Y261010D03*
X3578590Y246010D03*
X3528590Y526010D03*
X3578590Y516010D03*
X3523590Y471010D03*
X3623590Y461010D03*
X3543590Y426010D03*
X264480Y59050D03*
D10*
X265115Y59685D01*
X298488Y93058D01*
X300322Y93058D01*
D12*
X300322Y93058D03*
X213680Y135250D03*
D10*
X217180Y135250D01*
X259400Y93030D01*
X259400Y65400D01*
X265115Y59685D01*
D12*
X307500Y2052500D03*
X457500Y2052500D03*
X607500Y2052500D03*
X757500Y2052500D03*
X907500Y2052500D03*
X1057500Y2052500D03*
D13*
X1057500Y2047500D01*
D12*
X1207500Y2052500D03*
X1357500Y2052500D03*
X1507500Y2052500D03*
X2107500Y2052500D03*
X2257500Y2052500D03*
X2407500Y2052500D03*
X2557500Y2052500D03*
X2707500Y2052500D03*
X3157500Y1902500D03*
X3007500Y1902500D03*
X2857500Y1902500D03*
X2707500Y1902500D03*
X2557500Y1902500D03*
X2407500Y1902500D03*
X2257500Y1902500D03*
X2107500Y1902500D03*
X1957500Y1902500D03*
X1807500Y1902500D03*
X1657500Y1902500D03*
X1507500Y1902500D03*
X1357500Y1902500D03*
X1207500Y1902500D03*
X1057500Y1902500D03*
X907500Y1902500D03*
D13*
X907500Y1897500D01*
D12*
X757500Y1902500D03*
X607500Y1902500D03*
X457500Y1902500D03*
X307500Y1902500D03*
X157500Y1877500D03*
X2857500Y2052500D03*
X3007500Y2052500D03*
X157500Y1727500D03*
X307500Y1752500D03*
X457500Y1752500D03*
X607500Y1752500D03*
X757500Y1752500D03*
X907500Y1752500D03*
X1057500Y1752500D03*
X1207500Y1752500D03*
D13*
X1207500Y1747500D01*
D12*
X1357500Y1752500D03*
X1507500Y1752500D03*
X1657500Y1752500D03*
X1807500Y1752500D03*
X1957500Y1752500D03*
X2107500Y1752500D03*
X2257500Y1752500D03*
X2407500Y1752500D03*
X2557500Y1752500D03*
X2707500Y1752500D03*
X2857500Y1752500D03*
X3007500Y1752500D03*
X3157500Y1752500D03*
X3457500Y1602500D03*
X3007500Y1602500D03*
X2857500Y1602500D03*
X2707500Y1602500D03*
X2557500Y1602500D03*
X2407500Y1602500D03*
X2257500Y1602500D03*
X2107500Y1602500D03*
X1957500Y1602500D03*
X1807500Y1602500D03*
X1657500Y1602500D03*
X1507500Y1602500D03*
X1357500Y1602500D03*
X1207500Y1602500D03*
X1057500Y1602500D03*
X907500Y1602500D03*
X757500Y1602500D03*
X607500Y1602500D03*
X457500Y1602500D03*
X307500Y1602500D03*
X157500Y1595000D03*
X157500Y1447500D03*
X307500Y1447500D03*
X457500Y1452500D03*
X607500Y1452500D03*
X757500Y1452500D03*
X907500Y1452500D03*
X1057500Y1452500D03*
X1207500Y1452500D03*
X1357500Y1452500D03*
X1507500Y1452500D03*
X1657500Y1452500D03*
X1807500Y1452500D03*
X1957500Y1452500D03*
X2107500Y1452500D03*
X2257500Y1452500D03*
X2407500Y1452500D03*
X2557500Y1452500D03*
X2707500Y1452500D03*
X2857500Y1452500D03*
X3007500Y1452500D03*
X3157500Y1452500D03*
X3157500Y1302500D03*
X3007500Y1302500D03*
X2857500Y1302500D03*
X2707500Y1302500D03*
X2557500Y1302500D03*
X2407500Y1302500D03*
X2257500Y1302500D03*
X2107500Y1302500D03*
X1957500Y1302500D03*
X1807500Y1302500D03*
X1657500Y1302500D03*
X1507500Y1302500D03*
X1357500Y1302500D03*
X1207500Y1302500D03*
X1057500Y1302500D03*
X907500Y1302500D03*
X757500Y1302500D03*
X607500Y1302500D03*
X457500Y1302500D03*
X307500Y1302500D03*
X157500Y1302500D03*
X157500Y1152500D03*
X307500Y1152500D03*
X457500Y1152500D03*
X607500Y1152500D03*
X757500Y1152500D03*
X907500Y1152500D03*
X1057500Y1152500D03*
D13*
X1062500Y1152500D01*
D12*
X1207500Y1152500D03*
X1357500Y1152500D03*
X1507500Y1152500D03*
X1657500Y1152500D03*
X1807500Y1152500D03*
X1957500Y1152500D03*
X2107500Y1152500D03*
X2257500Y1152500D03*
X2407500Y1152500D03*
X2557500Y1152500D03*
X2707500Y1152500D03*
X2857500Y1152500D03*
X3007500Y1152500D03*
X3157500Y1152500D03*
X157500Y1002500D03*
X307500Y1002500D03*
X457500Y1002500D03*
X607500Y1002500D03*
X757500Y1002500D03*
X907500Y1002500D03*
X1057500Y1002500D03*
X1207500Y1002500D03*
X1357500Y1002500D03*
X1507500Y1002500D03*
X1657500Y1002500D03*
X1807500Y1002500D03*
X1957500Y1002500D03*
X2407500Y1002500D03*
X2557500Y1002500D03*
X2707500Y1002500D03*
X2857500Y1002500D03*
X3007500Y1002500D03*
X3157500Y1002500D03*
X3307500Y1002500D03*
X3457500Y1002500D03*
X157500Y852500D03*
X307500Y852500D03*
X457500Y852500D03*
X607500Y852500D03*
X757500Y852500D03*
X907500Y852500D03*
X1057500Y852500D03*
X1207500Y852500D03*
X1357500Y852500D03*
X1507500Y852500D03*
X1657500Y852500D03*
X1807500Y852500D03*
X1957500Y852500D03*
X2107500Y852500D03*
X2257500Y852500D03*
X2407500Y852500D03*
X2557500Y852500D03*
X2707500Y852500D03*
X3157500Y852500D03*
X3307500Y852500D03*
X3457500Y852500D03*
X3457500Y702500D03*
X3307500Y702500D03*
X3157500Y702500D03*
X3007500Y702500D03*
X2557500Y702500D03*
X2407500Y702500D03*
X2257500Y702500D03*
X2107500Y702500D03*
X1957500Y702500D03*
X1807500Y702500D03*
X1657500Y702500D03*
X1507500Y702500D03*
X1357500Y702500D03*
X1207500Y702500D03*
X1057500Y702500D03*
X907500Y702500D03*
X757500Y702500D03*
X607500Y702500D03*
X457500Y702500D03*
X307500Y702500D03*
X157500Y702500D03*
X307500Y402500D03*
X457500Y402500D03*
X607500Y402500D03*
X757500Y402500D03*
X907500Y402500D03*
X1057500Y402500D03*
X1207500Y402500D03*
X1357500Y402500D03*
X1507500Y402500D03*
X1657500Y402500D03*
X1807500Y402500D03*
X1957500Y402500D03*
X2107500Y402500D03*
X2257500Y402500D03*
X2407500Y402500D03*
X2557500Y402500D03*
X2707500Y402500D03*
X2857500Y402500D03*
X3307500Y402500D03*
X3457500Y402500D03*
X3457000Y254000D03*
X3307500Y252500D03*
X3157500Y252500D03*
X2707500Y252500D03*
X2557500Y252500D03*
X2407500Y252500D03*
X2257500Y252500D03*
X2107500Y252500D03*
X1957500Y252500D03*
X1807500Y252500D03*
X1657500Y252500D03*
X1507500Y252500D03*
X1357500Y252500D03*
X1207500Y252500D03*
X1057500Y252500D03*
X907500Y252500D03*
X1057500Y97500D03*
X907500Y102500D03*
X757500Y102500D03*
X1207500Y102500D03*
X1357500Y102500D03*
X1520000Y102500D03*
X2107500Y102500D03*
X2257500Y102500D03*
X2407500Y102500D03*
X2557500Y102500D03*
X3157500Y102500D03*
X3307500Y102500D03*
X3432500Y222500D03*
X3420000Y222500D03*
X3445000Y222500D03*
X3407500Y222500D03*
X3395000Y222500D03*
D14*
X3445000Y222500D01*
X3395000Y222500D02*
X3382500Y222500D01*
D12*
X3382500Y222500D03*
X3007500Y252500D03*
X177500Y567500D03*
X327500Y567500D03*
D13*
X322500Y567500D01*
D12*
X482500Y562500D03*
X627500Y562500D03*
X782500Y562500D03*
X907500Y552500D03*
X1057500Y552500D03*
X1207500Y552500D03*
X1357500Y552500D03*
X1507500Y552500D03*
X1657500Y552500D03*
X1807500Y552500D03*
X1957500Y552500D03*
X2107500Y552500D03*
X2257500Y552500D03*
X2407500Y552500D03*
X2557500Y552500D03*
X2707500Y552500D03*
X2857500Y552500D03*
X3007500Y552500D03*
X3157500Y552500D03*
X3307500Y552500D03*
X3457500Y552500D03*
X3157500Y402500D03*
X3007500Y402500D03*
X2857500Y252500D03*
X2857500Y102500D03*
X3007500Y102500D03*
X2707500Y102500D03*
X3457500Y1452500D03*
X2857500Y852500D03*
X2257500Y1002500D03*
X2107500Y1002500D03*
X2857500Y702500D03*
X2707500Y702500D03*
X3307500Y1752500D03*
X3457500Y1752500D03*
X3307500Y1152500D03*
X3457500Y1152500D03*
X3157500Y2052500D03*
X3307500Y2052500D03*
X3307500Y1452500D03*
X3307500Y1302500D03*
X3457500Y1302500D03*
X3007500Y852500D03*
X3307500Y1602500D03*
X3157500Y1597500D03*
X3457500Y1902500D03*
X3307500Y1902500D03*
X32000Y315000D03*
X157500Y404000D03*
D13*
X161000Y404000D01*
X161500Y404500D01*
D12*
X314500Y282500D03*
D13*
X314500Y297500D01*
X321000Y304000D01*
D12*
X758000Y254500D03*
X628000Y266500D03*
X270830Y78100D03*
D10*
X270830Y96730D01*
X257710Y109850D01*
D12*
X257710Y109850D03*
X411800Y97150D03*
X240000Y135000D03*
D10*
X255000Y135000D01*
X268500Y121500D01*
X292500Y121500D01*
X316850Y97150D01*
X411800Y97150D01*
D12*
X404400Y104200D03*
X246455Y141477D03*
D10*
X258523Y141477D01*
X274690Y125310D01*
X315800Y104200D02*
X404400Y104200D01*
X294690Y125310D02*
X274690Y125310D01*
X294690Y125310D02*
X315800Y104200D01*
D12*
X3585569Y300453D03*
D10*
X3585569Y285453D01*
D12*
X3585569Y285453D03*
X455700Y385700D03*
D10*
X455700Y360700D01*
X455000Y360000D01*
D12*
X455000Y360000D03*
X467500Y359500D03*
D10*
X467500Y382500D01*
X468500Y383500D01*
D12*
X468500Y383500D03*
X7500Y400000D03*
D13*
X7500Y292500D01*
X32500Y267500D01*
X322500Y267500D01*
D12*
X400000Y250000D03*
D13*
X340000Y250000D02*
X322500Y267500D01*
X340000Y250000D02*
X400000Y250000D01*
D12*
X491500Y448500D03*
D13*
X523500Y416500D01*
D12*
X523500Y416500D03*
X3432500Y307500D03*
D13*
X1457500Y307500D01*
X1266500Y116500D01*
X678612Y116500D01*
D12*
X678612Y116500D03*
X208000Y448500D03*
D13*
X223500Y433000D01*
X230500Y433000D01*
D12*
X230500Y433000D03*
X207500Y282500D03*
D13*
X153000Y282500D01*
X147635Y287865D01*
D12*
X147635Y287865D03*
X405000Y275000D03*
D13*
X445000Y275000D02*
X454500Y265500D01*
X445000Y275000D02*
X405000Y275000D01*
D12*
X537000Y265500D03*
D13*
X454500Y265500D01*
D12*
X3432500Y757500D03*
D13*
X1007500Y757500D01*
X798211Y548211D01*
D12*
X132500Y545000D03*
D13*
X135711Y548211D02*
X798211Y548211D01*
X135711Y548211D02*
X132500Y545000D01*
D12*
X127500Y417500D03*
D13*
X172500Y462500D01*
X907500Y462500D01*
X1057500Y612500D01*
X3427500Y612500D01*
D12*
X3427500Y612500D03*
X3332500Y2107500D03*
D13*
X332500Y2107500D02*
X132500Y1907500D01*
D12*
X132500Y1907500D03*
D13*
X332500Y2107500D02*
X3332500Y2107500D01*
D12*
X107000Y283000D03*
D13*
X1121500Y346500D02*
X1232500Y457500D01*
X1121500Y346500D02*
X700000Y346500D01*
X107000Y346500D01*
X107000Y381500D02*
X91000Y381500D01*
X1232500Y457500D02*
X3432500Y457500D01*
D12*
X3432500Y457500D03*
D13*
X91000Y381500D02*
X69000Y359500D01*
X69000Y346000D01*
D12*
X69000Y346000D03*
D13*
X107000Y346500D02*
X107000Y283000D01*
X107000Y346500D02*
X107000Y381500D01*
D12*
X700000Y215000D03*
D13*
X700000Y346500D01*
D12*
X3437500Y1952500D03*
D13*
X397500Y1952500D01*
X197500Y1752500D02*
X107500Y1752500D01*
D12*
X107500Y1752500D03*
D13*
X197500Y1752500D02*
X397500Y1952500D01*
D12*
X107500Y1602500D03*
D13*
X153388Y1602500D01*
X154099Y1603211D01*
X268211Y1603211D01*
X467500Y1802500D02*
X3437500Y1802500D01*
D12*
X3437500Y1802500D03*
D13*
X467500Y1802500D02*
X268211Y1603211D01*
D12*
X3432500Y1657500D03*
D13*
X557500Y1657500D01*
X357500Y1457500D01*
D12*
X132500Y1457500D03*
D13*
X357500Y1457500D01*
D12*
X3437500Y1502500D03*
D13*
X682500Y1502500D01*
D12*
X127500Y1307500D03*
D13*
X150888Y1307500D02*
X154099Y1310711D01*
X150888Y1307500D02*
X127500Y1307500D01*
X154099Y1310711D02*
X490711Y1310711D01*
X682500Y1502500D01*
D12*
X127500Y1162500D03*
D13*
X557500Y1162500D01*
X747500Y1352500D01*
X3437500Y1352500D01*
D12*
X3437500Y1352500D03*
X127350Y1010000D03*
D13*
X153388Y1010000D01*
X154099Y1010711D01*
X591611Y1010711D01*
X781400Y1200500D02*
X3435700Y1200500D01*
D12*
X3435700Y1200500D03*
D13*
X781400Y1200500D02*
X591611Y1010711D01*
D12*
X3432500Y1057500D03*
D13*
X857500Y1057500D01*
X657500Y857500D01*
D12*
X132500Y857500D03*
D13*
X614112Y857500D02*
X657500Y857500D01*
X614112Y857500D02*
X610901Y860711D01*
X154099Y860711D02*
X150888Y857500D01*
X132500Y857500D01*
X154099Y860711D02*
X610901Y860711D01*
D12*
X132500Y707500D03*
D13*
X150888Y707500D01*
X154099Y710711D01*
X610901Y710711D02*
X614112Y707500D01*
X732500Y707500D01*
X610901Y710711D02*
X154099Y710711D01*
X732500Y707500D02*
X932500Y907500D01*
D12*
X3432500Y907500D03*
D13*
X932500Y907500D01*
M02*
