G04 EAGLE Gerber RS-274X export*
G75*
%MOMM*%
%FSLAX34Y34*%
%LPD*%
%INBottom Copper*%
%IPPOS*%
%AMOC8*
5,1,8,0,0,1.08239X$1,22.5*%
G01*
%ADD10C,0.203200*%
%ADD11C,1.000000*%
%ADD12C,0.736600*%
%ADD13C,0.550000*%
%ADD14C,1.270000*%

G36*
X3253104Y2807D02*
X3253104Y2807D01*
X3253190Y2809D01*
X3253244Y2827D01*
X3253300Y2835D01*
X3253379Y2870D01*
X3253461Y2896D01*
X3253508Y2928D01*
X3253560Y2951D01*
X3253625Y3006D01*
X3253697Y3054D01*
X3253733Y3098D01*
X3253777Y3134D01*
X3253824Y3206D01*
X3253880Y3272D01*
X3253903Y3324D01*
X3253934Y3371D01*
X3253960Y3453D01*
X3253995Y3532D01*
X3254003Y3588D01*
X3254020Y3642D01*
X3254022Y3728D01*
X3254034Y3813D01*
X3254026Y3869D01*
X3254027Y3926D01*
X3254006Y4009D01*
X3253993Y4095D01*
X3253970Y4146D01*
X3253956Y4201D01*
X3253912Y4275D01*
X3253876Y4354D01*
X3253840Y4397D01*
X3253810Y4446D01*
X3253748Y4505D01*
X3253692Y4570D01*
X3253650Y4596D01*
X3253603Y4640D01*
X3253474Y4706D01*
X3253407Y4748D01*
X3251906Y5370D01*
X3250370Y6906D01*
X3249538Y8914D01*
X3249538Y11086D01*
X3250370Y13094D01*
X3251906Y14630D01*
X3253914Y15462D01*
X3256086Y15462D01*
X3258094Y14630D01*
X3259632Y13092D01*
X3259702Y13040D01*
X3259766Y12980D01*
X3259815Y12954D01*
X3259859Y12921D01*
X3259941Y12890D01*
X3260019Y12850D01*
X3260066Y12842D01*
X3260125Y12820D01*
X3260273Y12808D01*
X3260350Y12795D01*
X3313422Y12795D01*
X3313508Y12807D01*
X3313596Y12810D01*
X3313649Y12827D01*
X3313703Y12835D01*
X3313783Y12870D01*
X3313866Y12897D01*
X3313906Y12925D01*
X3313963Y12951D01*
X3314076Y13047D01*
X3314140Y13092D01*
X3494408Y193360D01*
X3494460Y193430D01*
X3494520Y193494D01*
X3494546Y193543D01*
X3494579Y193587D01*
X3494610Y193669D01*
X3494650Y193747D01*
X3494658Y193795D01*
X3494680Y193853D01*
X3494692Y194001D01*
X3494705Y194078D01*
X3494705Y224650D01*
X3494693Y224737D01*
X3494690Y224824D01*
X3494673Y224877D01*
X3494665Y224932D01*
X3494630Y225011D01*
X3494603Y225095D01*
X3494575Y225134D01*
X3494549Y225191D01*
X3494453Y225304D01*
X3494408Y225368D01*
X3494058Y225718D01*
X3493988Y225770D01*
X3493924Y225830D01*
X3493875Y225856D01*
X3493831Y225889D01*
X3493749Y225920D01*
X3493671Y225960D01*
X3493624Y225968D01*
X3493565Y225990D01*
X3493417Y226002D01*
X3493340Y226015D01*
X3466015Y226015D01*
X3466015Y533985D01*
X3561190Y533985D01*
X3561248Y533993D01*
X3561306Y533991D01*
X3561388Y534013D01*
X3561472Y534025D01*
X3561525Y534048D01*
X3561581Y534063D01*
X3561654Y534106D01*
X3561731Y534141D01*
X3561776Y534179D01*
X3561826Y534208D01*
X3561884Y534270D01*
X3561948Y534324D01*
X3561980Y534373D01*
X3562020Y534416D01*
X3562059Y534491D01*
X3562106Y534561D01*
X3562123Y534617D01*
X3562150Y534669D01*
X3562161Y534737D01*
X3562191Y534832D01*
X3562194Y534932D01*
X3562205Y535000D01*
X3562205Y2201190D01*
X3562197Y2201248D01*
X3562199Y2201306D01*
X3562177Y2201388D01*
X3562165Y2201472D01*
X3562142Y2201525D01*
X3562127Y2201581D01*
X3562084Y2201654D01*
X3562049Y2201731D01*
X3562011Y2201776D01*
X3561982Y2201826D01*
X3561920Y2201884D01*
X3561866Y2201948D01*
X3561817Y2201980D01*
X3561774Y2202020D01*
X3561699Y2202059D01*
X3561629Y2202106D01*
X3561573Y2202123D01*
X3561521Y2202150D01*
X3561453Y2202161D01*
X3561358Y2202191D01*
X3561258Y2202194D01*
X3561190Y2202205D01*
X3810Y2202205D01*
X3752Y2202197D01*
X3694Y2202199D01*
X3612Y2202177D01*
X3528Y2202165D01*
X3475Y2202142D01*
X3419Y2202127D01*
X3346Y2202084D01*
X3269Y2202049D01*
X3224Y2202011D01*
X3174Y2201982D01*
X3116Y2201920D01*
X3052Y2201866D01*
X3020Y2201817D01*
X2980Y2201774D01*
X2941Y2201699D01*
X2894Y2201629D01*
X2877Y2201573D01*
X2850Y2201521D01*
X2839Y2201453D01*
X2809Y2201358D01*
X2806Y2201258D01*
X2795Y2201190D01*
X2795Y405470D01*
X2799Y405440D01*
X2796Y405411D01*
X2819Y405300D01*
X2835Y405188D01*
X2847Y405161D01*
X2853Y405132D01*
X2905Y405032D01*
X2951Y404929D01*
X2970Y404906D01*
X2984Y404880D01*
X3062Y404798D01*
X3134Y404712D01*
X3159Y404695D01*
X3180Y404674D01*
X3277Y404617D01*
X3371Y404554D01*
X3400Y404545D01*
X3425Y404530D01*
X3534Y404503D01*
X3642Y404469D01*
X3672Y404468D01*
X3701Y404460D01*
X3813Y404464D01*
X3926Y404461D01*
X3955Y404469D01*
X3985Y404470D01*
X4092Y404505D01*
X4201Y404533D01*
X4227Y404548D01*
X4255Y404557D01*
X4290Y404582D01*
X6414Y405462D01*
X8586Y405462D01*
X10594Y404630D01*
X12130Y403094D01*
X12962Y401086D01*
X12962Y398914D01*
X12106Y396848D01*
X12098Y396818D01*
X12084Y396790D01*
X12071Y396713D01*
X12035Y396572D01*
X12037Y396508D01*
X12029Y396459D01*
X12029Y292500D01*
X12037Y292442D01*
X12035Y292384D01*
X12057Y292302D01*
X12069Y292219D01*
X12092Y292165D01*
X12107Y292109D01*
X12150Y292036D01*
X12185Y291959D01*
X12223Y291914D01*
X12252Y291864D01*
X12314Y291806D01*
X12368Y291742D01*
X12417Y291710D01*
X12460Y291670D01*
X12535Y291631D01*
X12605Y291585D01*
X12661Y291567D01*
X12713Y291540D01*
X12781Y291529D01*
X12876Y291499D01*
X12976Y291496D01*
X13044Y291485D01*
X101456Y291485D01*
X101514Y291493D01*
X101572Y291491D01*
X101654Y291513D01*
X101738Y291525D01*
X101791Y291549D01*
X101847Y291563D01*
X101920Y291606D01*
X101997Y291641D01*
X102042Y291679D01*
X102092Y291709D01*
X102150Y291770D01*
X102214Y291825D01*
X102246Y291873D01*
X102286Y291916D01*
X102325Y291991D01*
X102372Y292061D01*
X102389Y292117D01*
X102416Y292169D01*
X102427Y292237D01*
X102457Y292332D01*
X102460Y292432D01*
X102471Y292500D01*
X102471Y375956D01*
X102463Y376014D01*
X102465Y376072D01*
X102443Y376154D01*
X102431Y376238D01*
X102408Y376291D01*
X102393Y376347D01*
X102350Y376420D01*
X102315Y376497D01*
X102277Y376542D01*
X102248Y376592D01*
X102186Y376650D01*
X102132Y376714D01*
X102083Y376746D01*
X102040Y376786D01*
X101965Y376825D01*
X101895Y376872D01*
X101839Y376889D01*
X101787Y376916D01*
X101719Y376927D01*
X101624Y376957D01*
X101524Y376960D01*
X101456Y376971D01*
X93296Y376971D01*
X93210Y376959D01*
X93122Y376956D01*
X93070Y376939D01*
X93015Y376931D01*
X92935Y376896D01*
X92852Y376869D01*
X92813Y376841D01*
X92755Y376815D01*
X92642Y376719D01*
X92579Y376674D01*
X73826Y357921D01*
X73774Y357852D01*
X73714Y357788D01*
X73688Y357738D01*
X73655Y357694D01*
X73624Y357613D01*
X73584Y357535D01*
X73576Y357487D01*
X73554Y357429D01*
X73542Y357281D01*
X73529Y357204D01*
X73529Y349541D01*
X73533Y349510D01*
X73531Y349479D01*
X73548Y349403D01*
X73569Y349259D01*
X73595Y349201D01*
X73606Y349152D01*
X74462Y347086D01*
X74462Y344914D01*
X73630Y342906D01*
X72094Y341370D01*
X70086Y340538D01*
X67914Y340538D01*
X65906Y341370D01*
X64370Y342906D01*
X63538Y344914D01*
X63538Y347086D01*
X64394Y349152D01*
X64402Y349182D01*
X64416Y349210D01*
X64429Y349287D01*
X64465Y349428D01*
X64463Y349492D01*
X64471Y349541D01*
X64471Y361376D01*
X89124Y386029D01*
X1154204Y386029D01*
X1154290Y386041D01*
X1154378Y386044D01*
X1154430Y386061D01*
X1154485Y386069D01*
X1154565Y386104D01*
X1154648Y386131D01*
X1154687Y386159D01*
X1154745Y386185D01*
X1154858Y386281D01*
X1154921Y386326D01*
X1227674Y459078D01*
X1227674Y459079D01*
X1230624Y462029D01*
X3428959Y462029D01*
X3428990Y462033D01*
X3429021Y462031D01*
X3429097Y462048D01*
X3429241Y462069D01*
X3429299Y462095D01*
X3429348Y462106D01*
X3431414Y462962D01*
X3433586Y462962D01*
X3435594Y462130D01*
X3437130Y460594D01*
X3437962Y458586D01*
X3437962Y456414D01*
X3437130Y454406D01*
X3435594Y452870D01*
X3433586Y452038D01*
X3431414Y452038D01*
X3429348Y452894D01*
X3429318Y452902D01*
X3429290Y452916D01*
X3429213Y452929D01*
X3429072Y452965D01*
X3429008Y452963D01*
X3428959Y452971D01*
X1234796Y452971D01*
X1234710Y452959D01*
X1234622Y452956D01*
X1234570Y452939D01*
X1234515Y452931D01*
X1234435Y452896D01*
X1234352Y452869D01*
X1234313Y452841D01*
X1234255Y452815D01*
X1234142Y452719D01*
X1234078Y452674D01*
X1161326Y379921D01*
X1158376Y376971D01*
X705544Y376971D01*
X705486Y376963D01*
X705428Y376965D01*
X705346Y376943D01*
X705262Y376931D01*
X705209Y376908D01*
X705153Y376893D01*
X705080Y376850D01*
X705003Y376815D01*
X704958Y376777D01*
X704908Y376748D01*
X704850Y376686D01*
X704786Y376632D01*
X704754Y376583D01*
X704714Y376540D01*
X704675Y376465D01*
X704628Y376395D01*
X704611Y376339D01*
X704584Y376287D01*
X704573Y376219D01*
X704543Y376124D01*
X704540Y376024D01*
X704529Y375956D01*
X704529Y218541D01*
X704533Y218510D01*
X704531Y218479D01*
X704548Y218403D01*
X704569Y218259D01*
X704595Y218201D01*
X704606Y218152D01*
X705462Y216086D01*
X705462Y213914D01*
X704630Y211906D01*
X703094Y210370D01*
X701086Y209538D01*
X698914Y209538D01*
X696906Y210370D01*
X695370Y211906D01*
X694538Y213914D01*
X694538Y216086D01*
X695394Y218152D01*
X695402Y218182D01*
X695416Y218210D01*
X695429Y218287D01*
X695465Y218428D01*
X695463Y218492D01*
X695471Y218541D01*
X695471Y375956D01*
X695463Y376014D01*
X695465Y376072D01*
X695443Y376154D01*
X695431Y376238D01*
X695408Y376291D01*
X695393Y376347D01*
X695350Y376420D01*
X695315Y376497D01*
X695277Y376542D01*
X695248Y376592D01*
X695186Y376650D01*
X695132Y376714D01*
X695083Y376746D01*
X695040Y376786D01*
X694965Y376825D01*
X694895Y376872D01*
X694839Y376889D01*
X694787Y376916D01*
X694719Y376927D01*
X694624Y376957D01*
X694524Y376960D01*
X694456Y376971D01*
X112544Y376971D01*
X112486Y376963D01*
X112428Y376965D01*
X112346Y376943D01*
X112262Y376931D01*
X112209Y376908D01*
X112153Y376893D01*
X112080Y376850D01*
X112003Y376815D01*
X111958Y376777D01*
X111908Y376748D01*
X111850Y376686D01*
X111786Y376632D01*
X111754Y376583D01*
X111714Y376540D01*
X111675Y376465D01*
X111628Y376395D01*
X111611Y376339D01*
X111584Y376287D01*
X111573Y376219D01*
X111543Y376124D01*
X111540Y376024D01*
X111529Y375956D01*
X111529Y292500D01*
X111537Y292442D01*
X111535Y292384D01*
X111557Y292302D01*
X111569Y292219D01*
X111592Y292165D01*
X111607Y292109D01*
X111650Y292036D01*
X111685Y291959D01*
X111723Y291914D01*
X111752Y291864D01*
X111814Y291806D01*
X111868Y291742D01*
X111917Y291710D01*
X111960Y291670D01*
X112035Y291631D01*
X112105Y291585D01*
X112161Y291567D01*
X112213Y291540D01*
X112281Y291529D01*
X112376Y291499D01*
X112476Y291496D01*
X112544Y291485D01*
X143110Y291485D01*
X143197Y291497D01*
X143284Y291500D01*
X143337Y291517D01*
X143392Y291525D01*
X143471Y291560D01*
X143555Y291587D01*
X143594Y291615D01*
X143651Y291641D01*
X143764Y291737D01*
X143828Y291782D01*
X144541Y292495D01*
X146549Y293327D01*
X148721Y293327D01*
X150729Y292495D01*
X151442Y291782D01*
X151512Y291730D01*
X151576Y291670D01*
X151625Y291644D01*
X151669Y291611D01*
X151751Y291580D01*
X151829Y291540D01*
X151876Y291532D01*
X151935Y291510D01*
X152082Y291498D01*
X152160Y291485D01*
X621485Y291485D01*
X621485Y197010D01*
X621493Y196952D01*
X621491Y196894D01*
X621513Y196812D01*
X621525Y196728D01*
X621549Y196675D01*
X621563Y196619D01*
X621606Y196546D01*
X621641Y196469D01*
X621679Y196424D01*
X621709Y196374D01*
X621770Y196316D01*
X621825Y196252D01*
X621873Y196220D01*
X621916Y196180D01*
X621991Y196141D01*
X622061Y196094D01*
X622117Y196077D01*
X622169Y196050D01*
X622237Y196039D01*
X622332Y196009D01*
X622432Y196006D01*
X622500Y195995D01*
X636478Y195995D01*
X638115Y194358D01*
X638115Y3810D01*
X638123Y3752D01*
X638121Y3694D01*
X638143Y3612D01*
X638155Y3528D01*
X638178Y3475D01*
X638193Y3419D01*
X638236Y3346D01*
X638271Y3269D01*
X638309Y3224D01*
X638338Y3174D01*
X638400Y3116D01*
X638454Y3052D01*
X638503Y3020D01*
X638546Y2980D01*
X638621Y2941D01*
X638691Y2894D01*
X638747Y2877D01*
X638799Y2850D01*
X638867Y2839D01*
X638962Y2809D01*
X639062Y2806D01*
X639130Y2795D01*
X3253019Y2795D01*
X3253104Y2807D01*
G37*
G36*
X571878Y2803D02*
X571878Y2803D01*
X571936Y2801D01*
X572018Y2823D01*
X572102Y2835D01*
X572155Y2858D01*
X572211Y2873D01*
X572284Y2916D01*
X572361Y2951D01*
X572406Y2989D01*
X572456Y3018D01*
X572514Y3080D01*
X572578Y3134D01*
X572610Y3183D01*
X572650Y3226D01*
X572689Y3301D01*
X572736Y3371D01*
X572753Y3427D01*
X572780Y3479D01*
X572791Y3547D01*
X572821Y3642D01*
X572824Y3742D01*
X572835Y3810D01*
X572835Y194358D01*
X574472Y195995D01*
X612500Y195995D01*
X612558Y196003D01*
X612616Y196001D01*
X612698Y196023D01*
X612782Y196035D01*
X612835Y196058D01*
X612891Y196073D01*
X612964Y196116D01*
X613041Y196151D01*
X613086Y196189D01*
X613136Y196218D01*
X613194Y196280D01*
X613258Y196334D01*
X613290Y196383D01*
X613330Y196426D01*
X613369Y196501D01*
X613416Y196571D01*
X613433Y196627D01*
X613460Y196679D01*
X613471Y196747D01*
X613501Y196842D01*
X613504Y196942D01*
X613515Y197010D01*
X613515Y282500D01*
X613507Y282558D01*
X613509Y282616D01*
X613487Y282698D01*
X613475Y282782D01*
X613452Y282835D01*
X613437Y282891D01*
X613394Y282964D01*
X613359Y283041D01*
X613321Y283086D01*
X613292Y283136D01*
X613230Y283194D01*
X613176Y283258D01*
X613127Y283290D01*
X613084Y283330D01*
X613009Y283369D01*
X612939Y283416D01*
X612883Y283433D01*
X612831Y283460D01*
X612763Y283471D01*
X612668Y283501D01*
X612568Y283504D01*
X612500Y283515D01*
X320977Y283515D01*
X320919Y283507D01*
X320861Y283509D01*
X320779Y283487D01*
X320695Y283475D01*
X320642Y283452D01*
X320586Y283437D01*
X320513Y283394D01*
X320436Y283359D01*
X320391Y283321D01*
X320341Y283292D01*
X320283Y283230D01*
X320219Y283176D01*
X320187Y283127D01*
X320147Y283084D01*
X320108Y283009D01*
X320061Y282939D01*
X320044Y282883D01*
X320017Y282831D01*
X320006Y282763D01*
X319976Y282668D01*
X319973Y282568D01*
X319962Y282500D01*
X319962Y281414D01*
X319130Y279406D01*
X317594Y277870D01*
X315586Y277038D01*
X313414Y277038D01*
X311406Y277870D01*
X309870Y279406D01*
X309038Y281414D01*
X309038Y282500D01*
X309030Y282558D01*
X309032Y282616D01*
X309010Y282698D01*
X308998Y282782D01*
X308975Y282835D01*
X308960Y282891D01*
X308917Y282964D01*
X308882Y283041D01*
X308844Y283086D01*
X308815Y283136D01*
X308753Y283194D01*
X308699Y283258D01*
X308650Y283290D01*
X308607Y283330D01*
X308532Y283369D01*
X308462Y283416D01*
X308406Y283433D01*
X308354Y283460D01*
X308286Y283471D01*
X308191Y283501D01*
X308091Y283504D01*
X308023Y283515D01*
X213977Y283515D01*
X213919Y283507D01*
X213861Y283509D01*
X213779Y283487D01*
X213695Y283475D01*
X213642Y283452D01*
X213586Y283437D01*
X213513Y283394D01*
X213436Y283359D01*
X213391Y283321D01*
X213341Y283292D01*
X213283Y283230D01*
X213219Y283176D01*
X213187Y283127D01*
X213147Y283084D01*
X213108Y283009D01*
X213061Y282939D01*
X213044Y282883D01*
X213017Y282831D01*
X213006Y282763D01*
X212976Y282668D01*
X212973Y282568D01*
X212962Y282500D01*
X212962Y281414D01*
X212130Y279406D01*
X210594Y277870D01*
X208586Y277038D01*
X206414Y277038D01*
X204348Y277894D01*
X204318Y277902D01*
X204290Y277916D01*
X204213Y277929D01*
X204072Y277965D01*
X204008Y277963D01*
X203959Y277971D01*
X151124Y277971D01*
X146936Y282159D01*
X146912Y282178D01*
X146892Y282201D01*
X146825Y282243D01*
X146709Y282330D01*
X146649Y282353D01*
X146607Y282379D01*
X144529Y283240D01*
X144488Y283270D01*
X144424Y283330D01*
X144375Y283356D01*
X144331Y283389D01*
X144249Y283420D01*
X144171Y283460D01*
X144124Y283468D01*
X144065Y283490D01*
X143917Y283502D01*
X143840Y283515D01*
X113477Y283515D01*
X113419Y283507D01*
X113361Y283509D01*
X113279Y283487D01*
X113195Y283475D01*
X113142Y283452D01*
X113086Y283437D01*
X113013Y283394D01*
X112936Y283359D01*
X112891Y283321D01*
X112841Y283292D01*
X112783Y283230D01*
X112719Y283176D01*
X112687Y283127D01*
X112647Y283084D01*
X112608Y283009D01*
X112561Y282939D01*
X112544Y282883D01*
X112517Y282831D01*
X112506Y282763D01*
X112476Y282668D01*
X112473Y282568D01*
X112462Y282500D01*
X112462Y281914D01*
X111630Y279906D01*
X110094Y278370D01*
X108086Y277538D01*
X105914Y277538D01*
X103906Y278370D01*
X102370Y279906D01*
X101538Y281914D01*
X101538Y282500D01*
X101530Y282558D01*
X101532Y282616D01*
X101510Y282698D01*
X101498Y282782D01*
X101475Y282835D01*
X101460Y282891D01*
X101417Y282964D01*
X101382Y283041D01*
X101344Y283086D01*
X101315Y283136D01*
X101253Y283194D01*
X101199Y283258D01*
X101150Y283290D01*
X101107Y283330D01*
X101032Y283369D01*
X100962Y283416D01*
X100906Y283433D01*
X100854Y283460D01*
X100786Y283471D01*
X100691Y283501D01*
X100591Y283504D01*
X100523Y283515D01*
X13044Y283515D01*
X12986Y283507D01*
X12928Y283509D01*
X12846Y283487D01*
X12762Y283475D01*
X12709Y283452D01*
X12653Y283437D01*
X12580Y283394D01*
X12503Y283359D01*
X12458Y283321D01*
X12408Y283292D01*
X12350Y283230D01*
X12286Y283176D01*
X12254Y283127D01*
X12214Y283084D01*
X12175Y283009D01*
X12128Y282939D01*
X12111Y282883D01*
X12084Y282831D01*
X12073Y282763D01*
X12043Y282668D01*
X12040Y282568D01*
X12029Y282500D01*
X12029Y273044D01*
X12037Y272986D01*
X12035Y272928D01*
X12057Y272846D01*
X12069Y272762D01*
X12092Y272709D01*
X12107Y272653D01*
X12150Y272580D01*
X12185Y272503D01*
X12223Y272458D01*
X12252Y272408D01*
X12314Y272350D01*
X12368Y272286D01*
X12417Y272254D01*
X12460Y272214D01*
X12535Y272175D01*
X12605Y272128D01*
X12661Y272111D01*
X12713Y272084D01*
X12781Y272073D01*
X12876Y272043D01*
X12976Y272040D01*
X13044Y272029D01*
X284376Y272029D01*
X341579Y214826D01*
X341648Y214774D01*
X341712Y214714D01*
X341762Y214688D01*
X341806Y214655D01*
X341887Y214624D01*
X341965Y214584D01*
X342013Y214576D01*
X342071Y214554D01*
X342219Y214542D01*
X342296Y214529D01*
X396459Y214529D01*
X396490Y214533D01*
X396521Y214531D01*
X396597Y214548D01*
X396741Y214569D01*
X396799Y214595D01*
X396848Y214606D01*
X398914Y215462D01*
X401086Y215462D01*
X403094Y214630D01*
X404630Y213094D01*
X405462Y211086D01*
X405462Y208914D01*
X404630Y206906D01*
X403094Y205370D01*
X401086Y204538D01*
X398914Y204538D01*
X396848Y205394D01*
X396818Y205402D01*
X396790Y205416D01*
X396713Y205429D01*
X396572Y205465D01*
X396508Y205463D01*
X396459Y205471D01*
X338124Y205471D01*
X280921Y262674D01*
X280852Y262726D01*
X280788Y262786D01*
X280738Y262812D01*
X280694Y262845D01*
X280613Y262876D01*
X280535Y262916D01*
X280487Y262924D01*
X280429Y262946D01*
X280281Y262958D01*
X280204Y262971D01*
X5624Y262971D01*
X4528Y264068D01*
X4504Y264085D01*
X4485Y264108D01*
X4391Y264170D01*
X4301Y264238D01*
X4273Y264249D01*
X4249Y264265D01*
X4141Y264299D01*
X4035Y264340D01*
X4006Y264342D01*
X3978Y264351D01*
X3864Y264354D01*
X3752Y264363D01*
X3723Y264357D01*
X3694Y264358D01*
X3584Y264330D01*
X3473Y264307D01*
X3447Y264294D01*
X3419Y264286D01*
X3321Y264229D01*
X3221Y264176D01*
X3199Y264156D01*
X3174Y264141D01*
X3097Y264059D01*
X3015Y263981D01*
X3000Y263955D01*
X2980Y263934D01*
X2928Y263833D01*
X2871Y263735D01*
X2864Y263707D01*
X2850Y263681D01*
X2837Y263603D01*
X2801Y263460D01*
X2803Y263397D01*
X2795Y263350D01*
X2795Y3810D01*
X2803Y3752D01*
X2801Y3694D01*
X2823Y3612D01*
X2835Y3528D01*
X2858Y3475D01*
X2873Y3419D01*
X2916Y3346D01*
X2951Y3269D01*
X2989Y3224D01*
X3018Y3174D01*
X3080Y3116D01*
X3134Y3052D01*
X3183Y3020D01*
X3226Y2980D01*
X3301Y2941D01*
X3371Y2894D01*
X3427Y2877D01*
X3479Y2850D01*
X3547Y2839D01*
X3642Y2809D01*
X3742Y2806D01*
X3810Y2795D01*
X571820Y2795D01*
X571878Y2803D01*
G37*
G36*
X3491081Y228993D02*
X3491081Y228993D01*
X3491139Y228991D01*
X3491221Y229013D01*
X3491305Y229025D01*
X3491358Y229049D01*
X3491414Y229063D01*
X3491487Y229106D01*
X3491564Y229141D01*
X3491609Y229179D01*
X3491659Y229209D01*
X3491717Y229270D01*
X3491781Y229325D01*
X3491813Y229373D01*
X3491853Y229416D01*
X3491892Y229491D01*
X3491939Y229561D01*
X3491956Y229617D01*
X3491983Y229669D01*
X3491994Y229737D01*
X3492024Y229832D01*
X3492027Y229932D01*
X3492038Y230000D01*
X3492038Y231086D01*
X3492870Y233094D01*
X3494406Y234630D01*
X3496414Y235462D01*
X3498586Y235462D01*
X3500594Y234630D01*
X3502130Y233094D01*
X3502962Y231086D01*
X3502962Y230000D01*
X3502970Y229942D01*
X3502968Y229884D01*
X3502990Y229802D01*
X3503002Y229719D01*
X3503025Y229665D01*
X3503040Y229609D01*
X3503083Y229536D01*
X3503118Y229459D01*
X3503156Y229414D01*
X3503185Y229364D01*
X3503247Y229306D01*
X3503301Y229242D01*
X3503350Y229210D01*
X3503393Y229170D01*
X3503468Y229131D01*
X3503538Y229085D01*
X3503594Y229067D01*
X3503646Y229040D01*
X3503714Y229029D01*
X3503809Y228999D01*
X3503909Y228996D01*
X3503977Y228985D01*
X3561190Y228985D01*
X3561248Y228993D01*
X3561306Y228991D01*
X3561388Y229013D01*
X3561472Y229025D01*
X3561525Y229049D01*
X3561581Y229063D01*
X3561654Y229106D01*
X3561731Y229141D01*
X3561776Y229179D01*
X3561826Y229209D01*
X3561884Y229270D01*
X3561948Y229325D01*
X3561980Y229373D01*
X3562020Y229416D01*
X3562059Y229491D01*
X3562106Y229561D01*
X3562123Y229617D01*
X3562150Y229669D01*
X3562161Y229737D01*
X3562191Y229832D01*
X3562194Y229932D01*
X3562205Y230000D01*
X3562205Y231158D01*
X3563842Y232795D01*
X3661190Y232795D01*
X3661248Y232803D01*
X3661306Y232801D01*
X3661388Y232823D01*
X3661472Y232835D01*
X3661525Y232858D01*
X3661581Y232873D01*
X3661654Y232916D01*
X3661731Y232951D01*
X3661776Y232989D01*
X3661826Y233018D01*
X3661884Y233080D01*
X3661948Y233134D01*
X3661980Y233183D01*
X3662020Y233226D01*
X3662059Y233301D01*
X3662106Y233371D01*
X3662123Y233427D01*
X3662150Y233479D01*
X3662161Y233547D01*
X3662191Y233642D01*
X3662194Y233742D01*
X3662205Y233810D01*
X3662205Y457191D01*
X3662201Y457220D01*
X3662204Y457249D01*
X3662181Y457360D01*
X3662165Y457472D01*
X3662153Y457499D01*
X3662148Y457528D01*
X3662095Y457629D01*
X3662049Y457732D01*
X3662030Y457754D01*
X3662017Y457780D01*
X3661939Y457862D01*
X3661866Y457949D01*
X3661841Y457965D01*
X3661821Y457986D01*
X3661723Y458044D01*
X3661629Y458106D01*
X3661601Y458115D01*
X3661576Y458130D01*
X3661466Y458158D01*
X3661358Y458192D01*
X3661328Y458193D01*
X3661300Y458200D01*
X3661187Y458197D01*
X3661074Y458200D01*
X3661045Y458192D01*
X3661016Y458191D01*
X3660908Y458156D01*
X3660799Y458128D01*
X3660773Y458113D01*
X3660745Y458104D01*
X3660682Y458058D01*
X3660554Y457982D01*
X3660511Y457937D01*
X3660472Y457909D01*
X3658832Y456268D01*
X3656516Y456268D01*
X3654879Y457905D01*
X3654879Y458216D01*
X3654871Y458274D01*
X3654873Y458333D01*
X3654851Y458414D01*
X3654839Y458498D01*
X3654816Y458551D01*
X3654801Y458608D01*
X3654758Y458680D01*
X3654723Y458757D01*
X3654685Y458802D01*
X3654656Y458852D01*
X3654594Y458910D01*
X3654540Y458974D01*
X3654491Y459007D01*
X3654448Y459047D01*
X3654373Y459085D01*
X3654303Y459132D01*
X3654247Y459150D01*
X3654195Y459176D01*
X3654127Y459188D01*
X3654032Y459218D01*
X3653932Y459220D01*
X3653864Y459232D01*
X3647217Y459232D01*
X3647154Y459223D01*
X3647105Y459225D01*
X3646123Y459116D01*
X3646059Y459154D01*
X3646029Y459162D01*
X3646001Y459176D01*
X3645923Y459189D01*
X3645880Y459200D01*
X3645179Y459901D01*
X3645128Y459939D01*
X3645095Y459976D01*
X3644324Y460593D01*
X3644305Y460665D01*
X3644289Y460692D01*
X3644280Y460722D01*
X3644234Y460786D01*
X3644211Y460825D01*
X3644211Y461815D01*
X3644202Y461879D01*
X3644205Y461927D01*
X3644096Y462910D01*
X3644134Y462973D01*
X3644141Y463004D01*
X3644156Y463032D01*
X3644169Y463109D01*
X3644180Y463153D01*
X3644881Y463853D01*
X3644919Y463904D01*
X3644956Y463937D01*
X3647918Y467640D01*
X3650219Y467895D01*
X3652027Y466449D01*
X3652107Y465724D01*
X3652108Y465722D01*
X3652107Y465720D01*
X3652143Y465585D01*
X3652178Y465449D01*
X3652179Y465447D01*
X3652179Y465445D01*
X3652249Y465328D01*
X3652322Y465204D01*
X3652323Y465202D01*
X3652325Y465201D01*
X3652426Y465106D01*
X3652528Y465009D01*
X3652530Y465008D01*
X3652532Y465006D01*
X3652657Y464942D01*
X3652781Y464878D01*
X3652783Y464878D01*
X3652785Y464877D01*
X3652805Y464873D01*
X3653060Y464823D01*
X3653091Y464825D01*
X3653116Y464821D01*
X3653864Y464821D01*
X3653922Y464829D01*
X3653980Y464828D01*
X3654062Y464849D01*
X3654146Y464861D01*
X3654199Y464885D01*
X3654255Y464900D01*
X3654328Y464943D01*
X3654405Y464977D01*
X3654450Y465015D01*
X3654500Y465045D01*
X3654558Y465106D01*
X3654622Y465161D01*
X3654654Y465210D01*
X3654694Y465252D01*
X3654733Y465327D01*
X3654780Y465398D01*
X3654797Y465453D01*
X3654824Y465505D01*
X3654835Y465573D01*
X3654865Y465669D01*
X3654868Y465768D01*
X3654879Y465836D01*
X3654879Y466147D01*
X3655755Y467024D01*
X3655790Y467070D01*
X3655833Y467111D01*
X3655876Y467183D01*
X3655926Y467251D01*
X3655947Y467305D01*
X3655977Y467356D01*
X3655997Y467437D01*
X3656028Y467516D01*
X3656032Y467575D01*
X3656047Y467631D01*
X3656044Y467716D01*
X3656051Y467800D01*
X3656040Y467857D01*
X3656038Y467915D01*
X3656012Y467996D01*
X3655995Y468078D01*
X3655968Y468130D01*
X3655950Y468186D01*
X3655910Y468242D01*
X3655864Y468331D01*
X3655796Y468403D01*
X3655755Y468459D01*
X3654879Y469335D01*
X3654879Y469646D01*
X3654872Y469697D01*
X3654873Y469715D01*
X3654871Y469720D01*
X3654873Y469763D01*
X3654851Y469844D01*
X3654839Y469928D01*
X3654816Y469981D01*
X3654801Y470038D01*
X3654758Y470110D01*
X3654723Y470187D01*
X3654685Y470232D01*
X3654656Y470282D01*
X3654594Y470340D01*
X3654540Y470404D01*
X3654491Y470437D01*
X3654448Y470477D01*
X3654373Y470515D01*
X3654303Y470562D01*
X3654247Y470580D01*
X3654195Y470606D01*
X3654127Y470618D01*
X3654032Y470648D01*
X3653932Y470650D01*
X3653864Y470662D01*
X3647217Y470662D01*
X3647154Y470653D01*
X3647105Y470655D01*
X3646123Y470546D01*
X3646059Y470584D01*
X3646029Y470592D01*
X3646001Y470606D01*
X3645923Y470619D01*
X3645880Y470630D01*
X3645179Y471331D01*
X3645128Y471369D01*
X3645095Y471406D01*
X3644324Y472023D01*
X3644305Y472095D01*
X3644289Y472122D01*
X3644280Y472152D01*
X3644234Y472216D01*
X3644211Y472255D01*
X3644211Y473245D01*
X3644202Y473309D01*
X3644205Y473357D01*
X3644096Y474340D01*
X3644134Y474403D01*
X3644141Y474434D01*
X3644156Y474462D01*
X3644169Y474539D01*
X3644180Y474583D01*
X3644881Y475283D01*
X3644919Y475334D01*
X3644956Y475367D01*
X3647902Y479050D01*
X3647928Y479095D01*
X3647962Y479134D01*
X3648000Y479216D01*
X3648046Y479294D01*
X3648059Y479345D01*
X3648081Y479392D01*
X3648095Y479482D01*
X3648118Y479569D01*
X3648116Y479622D01*
X3648124Y479673D01*
X3648113Y479745D01*
X3648110Y479854D01*
X3648082Y479941D01*
X3648072Y480005D01*
X3647545Y481587D01*
X3648396Y483289D01*
X3648401Y483305D01*
X3648410Y483320D01*
X3648446Y483440D01*
X3648486Y483559D01*
X3648487Y483576D01*
X3648492Y483592D01*
X3648493Y483718D01*
X3648498Y483843D01*
X3648494Y483859D01*
X3648494Y483876D01*
X3648473Y483945D01*
X3648431Y484119D01*
X3648407Y484161D01*
X3648396Y484197D01*
X3647545Y485900D01*
X3648277Y488096D01*
X3650348Y489131D01*
X3657353Y486796D01*
X3657368Y486793D01*
X3657382Y486787D01*
X3657508Y486768D01*
X3657633Y486745D01*
X3657648Y486747D01*
X3657663Y486744D01*
X3657731Y486755D01*
X3657872Y486769D01*
X3658682Y486364D01*
X3658761Y486338D01*
X3658815Y486309D01*
X3659680Y486021D01*
X3659695Y486000D01*
X3659767Y485895D01*
X3659779Y485885D01*
X3659788Y485873D01*
X3659844Y485832D01*
X3659953Y485743D01*
X3660227Y484922D01*
X3660281Y484814D01*
X3660331Y484703D01*
X3660344Y484687D01*
X3660354Y484668D01*
X3660436Y484578D01*
X3660515Y484486D01*
X3660532Y484474D01*
X3660546Y484459D01*
X3660650Y484395D01*
X3660751Y484328D01*
X3660771Y484322D01*
X3660789Y484311D01*
X3660906Y484279D01*
X3661022Y484242D01*
X3661043Y484242D01*
X3661063Y484236D01*
X3661184Y484238D01*
X3661306Y484235D01*
X3661327Y484240D01*
X3661347Y484240D01*
X3661464Y484276D01*
X3661581Y484307D01*
X3661599Y484317D01*
X3661619Y484323D01*
X3661721Y484390D01*
X3661826Y484452D01*
X3661840Y484467D01*
X3661858Y484479D01*
X3661937Y484570D01*
X3662020Y484659D01*
X3662030Y484678D01*
X3662043Y484694D01*
X3662094Y484804D01*
X3662150Y484912D01*
X3662153Y484931D01*
X3662162Y484952D01*
X3662205Y485233D01*
X3662204Y485238D01*
X3662205Y485243D01*
X3662205Y526190D01*
X3662197Y526248D01*
X3662199Y526306D01*
X3662177Y526388D01*
X3662165Y526472D01*
X3662142Y526525D01*
X3662127Y526581D01*
X3662084Y526654D01*
X3662049Y526731D01*
X3662011Y526776D01*
X3661982Y526826D01*
X3661920Y526884D01*
X3661866Y526948D01*
X3661817Y526980D01*
X3661774Y527020D01*
X3661699Y527059D01*
X3661629Y527106D01*
X3661573Y527123D01*
X3661521Y527150D01*
X3661453Y527161D01*
X3661358Y527191D01*
X3661258Y527194D01*
X3661190Y527205D01*
X3563842Y527205D01*
X3562205Y528842D01*
X3562205Y530000D01*
X3562197Y530058D01*
X3562199Y530116D01*
X3562177Y530198D01*
X3562165Y530281D01*
X3562142Y530335D01*
X3562127Y530391D01*
X3562084Y530464D01*
X3562049Y530541D01*
X3562011Y530586D01*
X3561982Y530636D01*
X3561920Y530694D01*
X3561866Y530758D01*
X3561817Y530790D01*
X3561774Y530830D01*
X3561699Y530869D01*
X3561629Y530915D01*
X3561573Y530933D01*
X3561521Y530960D01*
X3561453Y530971D01*
X3561358Y531001D01*
X3561258Y531004D01*
X3561190Y531015D01*
X3470000Y531015D01*
X3469942Y531007D01*
X3469884Y531009D01*
X3469802Y530987D01*
X3469719Y530975D01*
X3469665Y530952D01*
X3469609Y530937D01*
X3469536Y530894D01*
X3469459Y530859D01*
X3469414Y530821D01*
X3469364Y530792D01*
X3469306Y530730D01*
X3469242Y530676D01*
X3469210Y530627D01*
X3469170Y530584D01*
X3469131Y530509D01*
X3469085Y530439D01*
X3469067Y530383D01*
X3469040Y530331D01*
X3469029Y530263D01*
X3468999Y530168D01*
X3468996Y530068D01*
X3468985Y530000D01*
X3468985Y230000D01*
X3468993Y229942D01*
X3468991Y229884D01*
X3469013Y229802D01*
X3469025Y229719D01*
X3469049Y229665D01*
X3469063Y229609D01*
X3469106Y229536D01*
X3469141Y229459D01*
X3469179Y229414D01*
X3469209Y229364D01*
X3469270Y229306D01*
X3469325Y229242D01*
X3469373Y229210D01*
X3469416Y229170D01*
X3469491Y229131D01*
X3469561Y229085D01*
X3469617Y229067D01*
X3469669Y229040D01*
X3469737Y229029D01*
X3469832Y228999D01*
X3469932Y228996D01*
X3470000Y228985D01*
X3491023Y228985D01*
X3491081Y228993D01*
G37*
%LPC*%
G36*
X131414Y1902038D02*
X131414Y1902038D01*
X129406Y1902870D01*
X127870Y1904406D01*
X127038Y1906414D01*
X127038Y1908586D01*
X127870Y1910594D01*
X129406Y1912130D01*
X131472Y1912986D01*
X131499Y1913002D01*
X131528Y1913011D01*
X131592Y1913057D01*
X131717Y1913130D01*
X131761Y1913177D01*
X131801Y1913206D01*
X327674Y2109079D01*
X330624Y2112029D01*
X1947690Y2112029D01*
X1947719Y2112033D01*
X1947749Y2112030D01*
X1947860Y2112053D01*
X1947972Y2112069D01*
X1947999Y2112081D01*
X1948027Y2112086D01*
X1948128Y2112138D01*
X1948231Y2112185D01*
X1948254Y2112204D01*
X1948280Y2112217D01*
X1948362Y2112295D01*
X1948448Y2112368D01*
X1948465Y2112393D01*
X1948486Y2112413D01*
X1948543Y2112511D01*
X1948606Y2112605D01*
X1948615Y2112633D01*
X1948629Y2112658D01*
X1948657Y2112768D01*
X1948692Y2112876D01*
X1948692Y2112906D01*
X1948700Y2112934D01*
X1948696Y2113047D01*
X1948699Y2113160D01*
X1948691Y2113189D01*
X1948691Y2113218D01*
X1948656Y2113326D01*
X1948627Y2113435D01*
X1948612Y2113461D01*
X1948603Y2113489D01*
X1948558Y2113552D01*
X1948482Y2113680D01*
X1948436Y2113723D01*
X1948408Y2113762D01*
X1943317Y2118853D01*
X1940321Y2126086D01*
X1940321Y2133914D01*
X1943317Y2141147D01*
X1948853Y2146683D01*
X1956086Y2149679D01*
X1963914Y2149679D01*
X1971147Y2146683D01*
X1976683Y2141147D01*
X1979679Y2133914D01*
X1979679Y2126086D01*
X1976683Y2118853D01*
X1971592Y2113762D01*
X1971574Y2113738D01*
X1971552Y2113719D01*
X1971489Y2113625D01*
X1971421Y2113535D01*
X1971410Y2113507D01*
X1971394Y2113483D01*
X1971360Y2113375D01*
X1971320Y2113269D01*
X1971317Y2113240D01*
X1971308Y2113212D01*
X1971305Y2113098D01*
X1971296Y2112986D01*
X1971302Y2112957D01*
X1971301Y2112928D01*
X1971330Y2112818D01*
X1971352Y2112707D01*
X1971366Y2112681D01*
X1971373Y2112653D01*
X1971431Y2112555D01*
X1971483Y2112455D01*
X1971503Y2112433D01*
X1971518Y2112408D01*
X1971601Y2112331D01*
X1971679Y2112249D01*
X1971704Y2112234D01*
X1971725Y2112214D01*
X1971826Y2112162D01*
X1971924Y2112105D01*
X1971952Y2112098D01*
X1971979Y2112084D01*
X1972056Y2112071D01*
X1972200Y2112035D01*
X1972262Y2112037D01*
X1972310Y2112029D01*
X3328959Y2112029D01*
X3328990Y2112033D01*
X3329021Y2112031D01*
X3329097Y2112048D01*
X3329241Y2112069D01*
X3329299Y2112095D01*
X3329348Y2112106D01*
X3331414Y2112962D01*
X3333586Y2112962D01*
X3335594Y2112130D01*
X3337130Y2110594D01*
X3337962Y2108586D01*
X3337962Y2106414D01*
X3337130Y2104406D01*
X3335594Y2102870D01*
X3333586Y2102038D01*
X3331414Y2102038D01*
X3329348Y2102894D01*
X3329318Y2102902D01*
X3329290Y2102916D01*
X3329213Y2102929D01*
X3329072Y2102965D01*
X3329008Y2102963D01*
X3328959Y2102971D01*
X334796Y2102971D01*
X334710Y2102959D01*
X334622Y2102956D01*
X334570Y2102939D01*
X334515Y2102931D01*
X334435Y2102896D01*
X334352Y2102869D01*
X334313Y2102841D01*
X334255Y2102815D01*
X334142Y2102719D01*
X334079Y2102674D01*
X138206Y1906801D01*
X138188Y1906777D01*
X138164Y1906757D01*
X138122Y1906690D01*
X138035Y1906574D01*
X138012Y1906514D01*
X137986Y1906472D01*
X137130Y1904406D01*
X135594Y1902870D01*
X133586Y1902038D01*
X131414Y1902038D01*
G37*
%LPD*%
%LPC*%
G36*
X106414Y1597038D02*
X106414Y1597038D01*
X104406Y1597870D01*
X102870Y1599406D01*
X102038Y1601414D01*
X102038Y1603586D01*
X102870Y1605594D01*
X104406Y1607130D01*
X106414Y1607962D01*
X108586Y1607962D01*
X110652Y1607106D01*
X110682Y1607098D01*
X110710Y1607084D01*
X110787Y1607071D01*
X110928Y1607035D01*
X110992Y1607037D01*
X111041Y1607029D01*
X151091Y1607029D01*
X151178Y1607041D01*
X151266Y1607044D01*
X151318Y1607061D01*
X151373Y1607069D01*
X151453Y1607104D01*
X151536Y1607131D01*
X151575Y1607159D01*
X151632Y1607185D01*
X151746Y1607281D01*
X151809Y1607326D01*
X152223Y1607740D01*
X265915Y1607740D01*
X266001Y1607752D01*
X266089Y1607755D01*
X266141Y1607772D01*
X266196Y1607780D01*
X266276Y1607815D01*
X266359Y1607842D01*
X266398Y1607870D01*
X266456Y1607896D01*
X266569Y1607992D01*
X266632Y1608037D01*
X465624Y1807029D01*
X3433959Y1807029D01*
X3433990Y1807033D01*
X3434021Y1807031D01*
X3434097Y1807048D01*
X3434241Y1807069D01*
X3434299Y1807095D01*
X3434348Y1807106D01*
X3436414Y1807962D01*
X3438586Y1807962D01*
X3440594Y1807130D01*
X3442130Y1805594D01*
X3442962Y1803586D01*
X3442962Y1801414D01*
X3442130Y1799406D01*
X3440594Y1797870D01*
X3438586Y1797038D01*
X3436414Y1797038D01*
X3434348Y1797894D01*
X3434318Y1797902D01*
X3434290Y1797916D01*
X3434213Y1797929D01*
X3434072Y1797965D01*
X3434008Y1797963D01*
X3433959Y1797971D01*
X469796Y1797971D01*
X469710Y1797959D01*
X469622Y1797956D01*
X469570Y1797939D01*
X469515Y1797931D01*
X469435Y1797896D01*
X469352Y1797869D01*
X469313Y1797841D01*
X469255Y1797815D01*
X469142Y1797719D01*
X469079Y1797674D01*
X270087Y1598682D01*
X156395Y1598682D01*
X156309Y1598670D01*
X156221Y1598667D01*
X156169Y1598650D01*
X156114Y1598642D01*
X156034Y1598607D01*
X155951Y1598580D01*
X155911Y1598552D01*
X155854Y1598526D01*
X155741Y1598430D01*
X155677Y1598385D01*
X155264Y1597971D01*
X111041Y1597971D01*
X111010Y1597967D01*
X110979Y1597969D01*
X110903Y1597952D01*
X110759Y1597931D01*
X110701Y1597905D01*
X110652Y1597894D01*
X108586Y1597038D01*
X106414Y1597038D01*
G37*
%LPD*%
%LPC*%
G36*
X106414Y1747038D02*
X106414Y1747038D01*
X104406Y1747870D01*
X102870Y1749406D01*
X102038Y1751414D01*
X102038Y1753586D01*
X102870Y1755594D01*
X104406Y1757130D01*
X106414Y1757962D01*
X108586Y1757962D01*
X110652Y1757106D01*
X110682Y1757098D01*
X110710Y1757084D01*
X110787Y1757071D01*
X110928Y1757035D01*
X110992Y1757037D01*
X111041Y1757029D01*
X195204Y1757029D01*
X195290Y1757041D01*
X195378Y1757044D01*
X195430Y1757061D01*
X195485Y1757069D01*
X195565Y1757104D01*
X195648Y1757131D01*
X195687Y1757159D01*
X195745Y1757185D01*
X195858Y1757281D01*
X195921Y1757326D01*
X395624Y1957029D01*
X3433959Y1957029D01*
X3433990Y1957033D01*
X3434021Y1957031D01*
X3434097Y1957048D01*
X3434241Y1957069D01*
X3434299Y1957095D01*
X3434348Y1957106D01*
X3436414Y1957962D01*
X3438586Y1957962D01*
X3440594Y1957130D01*
X3442130Y1955594D01*
X3442962Y1953586D01*
X3442962Y1951414D01*
X3442130Y1949406D01*
X3440594Y1947870D01*
X3438586Y1947038D01*
X3436414Y1947038D01*
X3434348Y1947894D01*
X3434318Y1947902D01*
X3434290Y1947916D01*
X3434213Y1947929D01*
X3434072Y1947965D01*
X3434008Y1947963D01*
X3433959Y1947971D01*
X399796Y1947971D01*
X399710Y1947959D01*
X399622Y1947956D01*
X399570Y1947939D01*
X399515Y1947931D01*
X399435Y1947896D01*
X399352Y1947869D01*
X399313Y1947841D01*
X399255Y1947815D01*
X399142Y1947719D01*
X399079Y1947674D01*
X199376Y1747971D01*
X111041Y1747971D01*
X111010Y1747967D01*
X110979Y1747969D01*
X110903Y1747952D01*
X110759Y1747931D01*
X110701Y1747905D01*
X110652Y1747894D01*
X108586Y1747038D01*
X106414Y1747038D01*
G37*
%LPD*%
%LPC*%
G36*
X126414Y1302038D02*
X126414Y1302038D01*
X124406Y1302870D01*
X122870Y1304406D01*
X122038Y1306414D01*
X122038Y1308586D01*
X122870Y1310594D01*
X124406Y1312130D01*
X126414Y1312962D01*
X128586Y1312962D01*
X130652Y1312106D01*
X130682Y1312098D01*
X130710Y1312084D01*
X130787Y1312071D01*
X130928Y1312035D01*
X130992Y1312037D01*
X131041Y1312029D01*
X148591Y1312029D01*
X148678Y1312041D01*
X148766Y1312044D01*
X148818Y1312061D01*
X148873Y1312069D01*
X148953Y1312104D01*
X149036Y1312131D01*
X149075Y1312159D01*
X149132Y1312185D01*
X149246Y1312281D01*
X149309Y1312326D01*
X152223Y1315240D01*
X488415Y1315240D01*
X488501Y1315252D01*
X488589Y1315255D01*
X488641Y1315272D01*
X488696Y1315280D01*
X488776Y1315315D01*
X488859Y1315342D01*
X488898Y1315370D01*
X488956Y1315396D01*
X489069Y1315492D01*
X489132Y1315537D01*
X680624Y1507029D01*
X3433959Y1507029D01*
X3433990Y1507033D01*
X3434021Y1507031D01*
X3434097Y1507048D01*
X3434241Y1507069D01*
X3434299Y1507095D01*
X3434348Y1507106D01*
X3436414Y1507962D01*
X3438586Y1507962D01*
X3440594Y1507130D01*
X3442130Y1505594D01*
X3442962Y1503586D01*
X3442962Y1501414D01*
X3442130Y1499406D01*
X3440594Y1497870D01*
X3438586Y1497038D01*
X3436414Y1497038D01*
X3434348Y1497894D01*
X3434318Y1497902D01*
X3434290Y1497916D01*
X3434213Y1497929D01*
X3434072Y1497965D01*
X3434008Y1497963D01*
X3433959Y1497971D01*
X684796Y1497971D01*
X684710Y1497959D01*
X684622Y1497956D01*
X684570Y1497939D01*
X684515Y1497931D01*
X684435Y1497896D01*
X684352Y1497869D01*
X684313Y1497841D01*
X684255Y1497815D01*
X684142Y1497719D01*
X684079Y1497674D01*
X492587Y1306182D01*
X156395Y1306182D01*
X156309Y1306170D01*
X156221Y1306167D01*
X156169Y1306150D01*
X156114Y1306142D01*
X156034Y1306107D01*
X155951Y1306080D01*
X155911Y1306052D01*
X155854Y1306026D01*
X155741Y1305930D01*
X155677Y1305885D01*
X152764Y1302971D01*
X131041Y1302971D01*
X131010Y1302967D01*
X130979Y1302969D01*
X130903Y1302952D01*
X130759Y1302931D01*
X130701Y1302905D01*
X130652Y1302894D01*
X128586Y1302038D01*
X126414Y1302038D01*
G37*
%LPD*%
%LPC*%
G36*
X126414Y1157038D02*
X126414Y1157038D01*
X124406Y1157870D01*
X122870Y1159406D01*
X122038Y1161414D01*
X122038Y1163586D01*
X122870Y1165594D01*
X124406Y1167130D01*
X126414Y1167962D01*
X128586Y1167962D01*
X130652Y1167106D01*
X130682Y1167098D01*
X130710Y1167084D01*
X130787Y1167071D01*
X130928Y1167035D01*
X130992Y1167037D01*
X131041Y1167029D01*
X555204Y1167029D01*
X555290Y1167041D01*
X555378Y1167044D01*
X555430Y1167061D01*
X555485Y1167069D01*
X555565Y1167104D01*
X555648Y1167131D01*
X555687Y1167159D01*
X555745Y1167185D01*
X555858Y1167281D01*
X555921Y1167326D01*
X745624Y1357029D01*
X3433959Y1357029D01*
X3433990Y1357033D01*
X3434021Y1357031D01*
X3434097Y1357048D01*
X3434241Y1357069D01*
X3434299Y1357095D01*
X3434348Y1357106D01*
X3436414Y1357962D01*
X3438586Y1357962D01*
X3440594Y1357130D01*
X3442130Y1355594D01*
X3442962Y1353586D01*
X3442962Y1351414D01*
X3442130Y1349406D01*
X3440594Y1347870D01*
X3438586Y1347038D01*
X3436414Y1347038D01*
X3434348Y1347894D01*
X3434318Y1347902D01*
X3434290Y1347916D01*
X3434213Y1347929D01*
X3434072Y1347965D01*
X3434008Y1347963D01*
X3433959Y1347971D01*
X749796Y1347971D01*
X749710Y1347959D01*
X749622Y1347956D01*
X749570Y1347939D01*
X749515Y1347931D01*
X749435Y1347896D01*
X749352Y1347869D01*
X749313Y1347841D01*
X749255Y1347815D01*
X749142Y1347719D01*
X749079Y1347674D01*
X559376Y1157971D01*
X131041Y1157971D01*
X131010Y1157967D01*
X130979Y1157969D01*
X130903Y1157952D01*
X130759Y1157931D01*
X130701Y1157905D01*
X130652Y1157894D01*
X128586Y1157038D01*
X126414Y1157038D01*
G37*
%LPD*%
%LPC*%
G36*
X131414Y539538D02*
X131414Y539538D01*
X129406Y540370D01*
X127870Y541906D01*
X127038Y543914D01*
X127038Y546086D01*
X127870Y548094D01*
X129406Y549630D01*
X131472Y550486D01*
X131499Y550502D01*
X131528Y550511D01*
X131592Y550557D01*
X131717Y550630D01*
X131761Y550677D01*
X131801Y550706D01*
X133835Y552740D01*
X795915Y552740D01*
X796001Y552752D01*
X796089Y552755D01*
X796141Y552772D01*
X796196Y552780D01*
X796276Y552815D01*
X796359Y552842D01*
X796398Y552870D01*
X796456Y552896D01*
X796569Y552992D01*
X796632Y553037D01*
X1005624Y762029D01*
X3428959Y762029D01*
X3428990Y762033D01*
X3429021Y762031D01*
X3429097Y762048D01*
X3429241Y762069D01*
X3429299Y762095D01*
X3429348Y762106D01*
X3431414Y762962D01*
X3433586Y762962D01*
X3435594Y762130D01*
X3437130Y760594D01*
X3437962Y758586D01*
X3437962Y756414D01*
X3437130Y754406D01*
X3435594Y752870D01*
X3433586Y752038D01*
X3431414Y752038D01*
X3429348Y752894D01*
X3429318Y752902D01*
X3429290Y752916D01*
X3429213Y752929D01*
X3429072Y752965D01*
X3429008Y752963D01*
X3428959Y752971D01*
X1009796Y752971D01*
X1009710Y752959D01*
X1009622Y752956D01*
X1009570Y752939D01*
X1009515Y752931D01*
X1009435Y752896D01*
X1009352Y752869D01*
X1009313Y752841D01*
X1009255Y752815D01*
X1009142Y752719D01*
X1009079Y752674D01*
X800087Y543682D01*
X138544Y543682D01*
X138543Y543682D01*
X138541Y543682D01*
X138400Y543662D01*
X138263Y543642D01*
X138261Y543642D01*
X138260Y543642D01*
X138131Y543583D01*
X138003Y543526D01*
X138002Y543525D01*
X138001Y543524D01*
X137894Y543433D01*
X137786Y543343D01*
X137785Y543341D01*
X137784Y543340D01*
X137776Y543327D01*
X137629Y543106D01*
X137620Y543077D01*
X137606Y543056D01*
X137130Y541906D01*
X135594Y540370D01*
X133586Y539538D01*
X131414Y539538D01*
G37*
%LPD*%
%LPC*%
G36*
X126264Y1004538D02*
X126264Y1004538D01*
X124256Y1005370D01*
X122720Y1006906D01*
X121888Y1008914D01*
X121888Y1011086D01*
X122720Y1013094D01*
X124256Y1014630D01*
X126264Y1015462D01*
X128436Y1015462D01*
X130502Y1014606D01*
X130532Y1014598D01*
X130560Y1014584D01*
X130637Y1014571D01*
X130778Y1014535D01*
X130842Y1014537D01*
X130891Y1014529D01*
X151091Y1014529D01*
X151178Y1014541D01*
X151266Y1014544D01*
X151318Y1014561D01*
X151373Y1014569D01*
X151453Y1014604D01*
X151536Y1014631D01*
X151575Y1014659D01*
X151632Y1014685D01*
X151746Y1014781D01*
X151809Y1014826D01*
X152223Y1015240D01*
X589315Y1015240D01*
X589401Y1015252D01*
X589489Y1015255D01*
X589541Y1015272D01*
X589596Y1015280D01*
X589676Y1015315D01*
X589759Y1015342D01*
X589798Y1015370D01*
X589856Y1015396D01*
X589969Y1015492D01*
X590032Y1015537D01*
X779524Y1205029D01*
X3432159Y1205029D01*
X3432190Y1205033D01*
X3432221Y1205031D01*
X3432297Y1205048D01*
X3432441Y1205069D01*
X3432499Y1205095D01*
X3432548Y1205106D01*
X3434614Y1205962D01*
X3436786Y1205962D01*
X3438794Y1205130D01*
X3440330Y1203594D01*
X3441162Y1201586D01*
X3441162Y1199414D01*
X3440330Y1197406D01*
X3438794Y1195870D01*
X3436786Y1195038D01*
X3434614Y1195038D01*
X3432548Y1195894D01*
X3432518Y1195902D01*
X3432490Y1195916D01*
X3432413Y1195929D01*
X3432272Y1195965D01*
X3432208Y1195963D01*
X3432159Y1195971D01*
X783696Y1195971D01*
X783610Y1195959D01*
X783522Y1195956D01*
X783470Y1195939D01*
X783415Y1195931D01*
X783335Y1195896D01*
X783252Y1195869D01*
X783213Y1195841D01*
X783155Y1195815D01*
X783042Y1195719D01*
X782979Y1195674D01*
X593487Y1006182D01*
X156395Y1006182D01*
X156309Y1006170D01*
X156221Y1006167D01*
X156169Y1006150D01*
X156114Y1006142D01*
X156034Y1006107D01*
X155951Y1006080D01*
X155911Y1006052D01*
X155854Y1006026D01*
X155741Y1005930D01*
X155677Y1005885D01*
X155264Y1005471D01*
X130891Y1005471D01*
X130860Y1005467D01*
X130829Y1005469D01*
X130753Y1005452D01*
X130609Y1005431D01*
X130551Y1005405D01*
X130502Y1005394D01*
X128436Y1004538D01*
X126264Y1004538D01*
G37*
%LPD*%
%LPC*%
G36*
X131414Y852038D02*
X131414Y852038D01*
X129406Y852870D01*
X127870Y854406D01*
X127038Y856414D01*
X127038Y858586D01*
X127870Y860594D01*
X129406Y862130D01*
X131414Y862962D01*
X133586Y862962D01*
X135652Y862106D01*
X135682Y862098D01*
X135710Y862084D01*
X135787Y862071D01*
X135928Y862035D01*
X135992Y862037D01*
X136041Y862029D01*
X148591Y862029D01*
X148678Y862041D01*
X148766Y862044D01*
X148818Y862061D01*
X148873Y862069D01*
X148953Y862104D01*
X149036Y862131D01*
X149075Y862159D01*
X149132Y862185D01*
X149246Y862281D01*
X149309Y862326D01*
X152223Y865240D01*
X612777Y865240D01*
X615691Y862326D01*
X615760Y862274D01*
X615824Y862214D01*
X615874Y862188D01*
X615918Y862155D01*
X616000Y862124D01*
X616077Y862084D01*
X616125Y862076D01*
X616183Y862054D01*
X616331Y862042D01*
X616409Y862029D01*
X655204Y862029D01*
X655290Y862041D01*
X655378Y862044D01*
X655430Y862061D01*
X655485Y862069D01*
X655565Y862104D01*
X655648Y862131D01*
X655687Y862159D01*
X655745Y862185D01*
X655858Y862281D01*
X655921Y862326D01*
X855624Y1062029D01*
X3428959Y1062029D01*
X3428990Y1062033D01*
X3429021Y1062031D01*
X3429097Y1062048D01*
X3429241Y1062069D01*
X3429299Y1062095D01*
X3429348Y1062106D01*
X3431414Y1062962D01*
X3433586Y1062962D01*
X3435594Y1062130D01*
X3437130Y1060594D01*
X3437962Y1058586D01*
X3437962Y1056414D01*
X3437130Y1054406D01*
X3435594Y1052870D01*
X3433586Y1052038D01*
X3431414Y1052038D01*
X3429348Y1052894D01*
X3429318Y1052902D01*
X3429290Y1052916D01*
X3429213Y1052929D01*
X3429072Y1052965D01*
X3429008Y1052963D01*
X3428959Y1052971D01*
X859796Y1052971D01*
X859710Y1052959D01*
X859622Y1052956D01*
X859570Y1052939D01*
X859515Y1052931D01*
X859435Y1052896D01*
X859352Y1052869D01*
X859313Y1052841D01*
X859255Y1052815D01*
X859142Y1052719D01*
X859079Y1052674D01*
X659376Y852971D01*
X612236Y852971D01*
X609323Y855885D01*
X609253Y855937D01*
X609189Y855997D01*
X609140Y856023D01*
X609095Y856056D01*
X609014Y856087D01*
X608936Y856127D01*
X608888Y856135D01*
X608830Y856157D01*
X608682Y856169D01*
X608605Y856182D01*
X156395Y856182D01*
X156309Y856170D01*
X156221Y856167D01*
X156169Y856150D01*
X156114Y856142D01*
X156034Y856107D01*
X155951Y856080D01*
X155911Y856052D01*
X155854Y856026D01*
X155741Y855930D01*
X155677Y855885D01*
X152764Y852971D01*
X136041Y852971D01*
X136010Y852967D01*
X135979Y852969D01*
X135903Y852952D01*
X135759Y852931D01*
X135701Y852905D01*
X135652Y852894D01*
X133586Y852038D01*
X131414Y852038D01*
G37*
%LPD*%
%LPC*%
G36*
X131414Y702038D02*
X131414Y702038D01*
X129406Y702870D01*
X127870Y704406D01*
X127038Y706414D01*
X127038Y708586D01*
X127870Y710594D01*
X129406Y712130D01*
X131414Y712962D01*
X133586Y712962D01*
X135652Y712106D01*
X135682Y712098D01*
X135710Y712084D01*
X135787Y712071D01*
X135928Y712035D01*
X135992Y712037D01*
X136041Y712029D01*
X148591Y712029D01*
X148678Y712041D01*
X148766Y712044D01*
X148818Y712061D01*
X148873Y712069D01*
X148953Y712104D01*
X149036Y712131D01*
X149075Y712159D01*
X149132Y712185D01*
X149246Y712281D01*
X149309Y712326D01*
X152223Y715240D01*
X612777Y715240D01*
X615691Y712326D01*
X615760Y712274D01*
X615824Y712214D01*
X615874Y712188D01*
X615918Y712155D01*
X616000Y712124D01*
X616077Y712084D01*
X616125Y712076D01*
X616183Y712054D01*
X616331Y712042D01*
X616409Y712029D01*
X730204Y712029D01*
X730290Y712041D01*
X730378Y712044D01*
X730430Y712061D01*
X730485Y712069D01*
X730565Y712104D01*
X730648Y712131D01*
X730687Y712159D01*
X730745Y712185D01*
X730858Y712281D01*
X730921Y712326D01*
X930624Y912029D01*
X3428959Y912029D01*
X3428990Y912033D01*
X3429021Y912031D01*
X3429097Y912048D01*
X3429241Y912069D01*
X3429299Y912095D01*
X3429348Y912106D01*
X3431414Y912962D01*
X3433586Y912962D01*
X3435594Y912130D01*
X3437130Y910594D01*
X3437962Y908586D01*
X3437962Y906414D01*
X3437130Y904406D01*
X3435594Y902870D01*
X3433586Y902038D01*
X3431414Y902038D01*
X3429348Y902894D01*
X3429318Y902902D01*
X3429290Y902916D01*
X3429213Y902929D01*
X3429072Y902965D01*
X3429008Y902963D01*
X3428959Y902971D01*
X934796Y902971D01*
X934710Y902959D01*
X934622Y902956D01*
X934570Y902939D01*
X934515Y902931D01*
X934435Y902896D01*
X934352Y902869D01*
X934313Y902841D01*
X934255Y902815D01*
X934142Y902719D01*
X934079Y902674D01*
X734376Y702971D01*
X612236Y702971D01*
X609323Y705885D01*
X609253Y705937D01*
X609189Y705997D01*
X609140Y706023D01*
X609095Y706056D01*
X609014Y706087D01*
X608936Y706127D01*
X608888Y706135D01*
X608830Y706157D01*
X608682Y706169D01*
X608605Y706182D01*
X156395Y706182D01*
X156309Y706170D01*
X156221Y706167D01*
X156169Y706150D01*
X156114Y706142D01*
X156034Y706107D01*
X155951Y706080D01*
X155911Y706052D01*
X155854Y706026D01*
X155741Y705930D01*
X155677Y705885D01*
X152764Y702971D01*
X136041Y702971D01*
X136010Y702967D01*
X135979Y702969D01*
X135903Y702952D01*
X135759Y702931D01*
X135701Y702905D01*
X135652Y702894D01*
X133586Y702038D01*
X131414Y702038D01*
G37*
%LPD*%
%LPC*%
G36*
X131414Y1452038D02*
X131414Y1452038D01*
X129406Y1452870D01*
X127870Y1454406D01*
X127038Y1456414D01*
X127038Y1458586D01*
X127870Y1460594D01*
X129406Y1462130D01*
X131414Y1462962D01*
X133586Y1462962D01*
X135652Y1462106D01*
X135682Y1462098D01*
X135710Y1462084D01*
X135787Y1462071D01*
X135928Y1462035D01*
X135992Y1462037D01*
X136041Y1462029D01*
X355204Y1462029D01*
X355290Y1462041D01*
X355378Y1462044D01*
X355430Y1462061D01*
X355485Y1462069D01*
X355565Y1462104D01*
X355648Y1462131D01*
X355687Y1462159D01*
X355745Y1462185D01*
X355858Y1462281D01*
X355921Y1462326D01*
X555624Y1662029D01*
X3428959Y1662029D01*
X3428990Y1662033D01*
X3429021Y1662031D01*
X3429097Y1662048D01*
X3429241Y1662069D01*
X3429299Y1662095D01*
X3429348Y1662106D01*
X3431414Y1662962D01*
X3433586Y1662962D01*
X3435594Y1662130D01*
X3437130Y1660594D01*
X3437962Y1658586D01*
X3437962Y1656414D01*
X3437130Y1654406D01*
X3435594Y1652870D01*
X3433586Y1652038D01*
X3431414Y1652038D01*
X3429348Y1652894D01*
X3429318Y1652902D01*
X3429290Y1652916D01*
X3429213Y1652929D01*
X3429072Y1652965D01*
X3429008Y1652963D01*
X3428959Y1652971D01*
X559796Y1652971D01*
X559710Y1652959D01*
X559622Y1652956D01*
X559570Y1652939D01*
X559515Y1652931D01*
X559435Y1652896D01*
X559352Y1652869D01*
X559313Y1652841D01*
X559255Y1652815D01*
X559142Y1652719D01*
X559079Y1652674D01*
X359376Y1452971D01*
X136041Y1452971D01*
X136010Y1452967D01*
X135979Y1452969D01*
X135903Y1452952D01*
X135759Y1452931D01*
X135701Y1452905D01*
X135652Y1452894D01*
X133586Y1452038D01*
X131414Y1452038D01*
G37*
%LPD*%
%LPC*%
G36*
X126414Y412038D02*
X126414Y412038D01*
X124406Y412870D01*
X122870Y414406D01*
X122038Y416414D01*
X122038Y418586D01*
X122870Y420594D01*
X124406Y422130D01*
X126414Y422962D01*
X128586Y422962D01*
X130652Y422106D01*
X130682Y422098D01*
X130710Y422084D01*
X130787Y422071D01*
X130928Y422035D01*
X130992Y422037D01*
X131041Y422029D01*
X860204Y422029D01*
X860290Y422041D01*
X860378Y422044D01*
X860430Y422061D01*
X860485Y422069D01*
X860565Y422104D01*
X860648Y422131D01*
X860687Y422159D01*
X860745Y422185D01*
X860858Y422281D01*
X860922Y422326D01*
X1052674Y614078D01*
X1052674Y614079D01*
X1055624Y617029D01*
X3423959Y617029D01*
X3423990Y617033D01*
X3424021Y617031D01*
X3424097Y617048D01*
X3424241Y617069D01*
X3424299Y617095D01*
X3424348Y617106D01*
X3426414Y617962D01*
X3428586Y617962D01*
X3430594Y617130D01*
X3432130Y615594D01*
X3432962Y613586D01*
X3432962Y611414D01*
X3432130Y609406D01*
X3430594Y607870D01*
X3428586Y607038D01*
X3426414Y607038D01*
X3424348Y607894D01*
X3424318Y607902D01*
X3424290Y607916D01*
X3424213Y607929D01*
X3424072Y607965D01*
X3424008Y607963D01*
X3423959Y607971D01*
X1059796Y607971D01*
X1059710Y607959D01*
X1059622Y607956D01*
X1059570Y607939D01*
X1059515Y607931D01*
X1059435Y607896D01*
X1059352Y607869D01*
X1059313Y607841D01*
X1059255Y607815D01*
X1059142Y607719D01*
X1059078Y607674D01*
X867326Y415922D01*
X867326Y415921D01*
X864376Y412971D01*
X131041Y412971D01*
X131010Y412967D01*
X130979Y412969D01*
X130903Y412952D01*
X130759Y412931D01*
X130726Y412917D01*
X130722Y412916D01*
X130695Y412904D01*
X130652Y412894D01*
X128586Y412038D01*
X126414Y412038D01*
G37*
%LPD*%
%LPC*%
G36*
X677526Y111038D02*
X677526Y111038D01*
X675518Y111870D01*
X673982Y113406D01*
X673150Y115414D01*
X673150Y117586D01*
X673982Y119594D01*
X675518Y121130D01*
X677526Y121962D01*
X679699Y121962D01*
X681764Y121106D01*
X681794Y121098D01*
X681822Y121084D01*
X681899Y121071D01*
X682040Y121035D01*
X682104Y121037D01*
X682153Y121029D01*
X1264204Y121029D01*
X1264290Y121041D01*
X1264378Y121044D01*
X1264430Y121061D01*
X1264485Y121069D01*
X1264565Y121104D01*
X1264648Y121131D01*
X1264687Y121159D01*
X1264745Y121185D01*
X1264858Y121281D01*
X1264921Y121326D01*
X1455624Y312029D01*
X3428959Y312029D01*
X3428990Y312033D01*
X3429021Y312031D01*
X3429097Y312048D01*
X3429241Y312069D01*
X3429299Y312095D01*
X3429348Y312106D01*
X3431414Y312962D01*
X3433586Y312962D01*
X3435594Y312130D01*
X3437130Y310594D01*
X3437962Y308586D01*
X3437962Y306414D01*
X3437130Y304406D01*
X3435594Y302870D01*
X3433586Y302038D01*
X3431414Y302038D01*
X3429348Y302894D01*
X3429318Y302902D01*
X3429290Y302916D01*
X3429213Y302929D01*
X3429072Y302965D01*
X3429008Y302963D01*
X3428959Y302971D01*
X1459796Y302971D01*
X1459710Y302959D01*
X1459622Y302956D01*
X1459570Y302939D01*
X1459515Y302931D01*
X1459435Y302896D01*
X1459352Y302869D01*
X1459313Y302841D01*
X1459255Y302815D01*
X1459142Y302719D01*
X1459079Y302674D01*
X1268376Y111971D01*
X682153Y111971D01*
X682122Y111967D01*
X682092Y111969D01*
X682015Y111952D01*
X681871Y111931D01*
X681813Y111905D01*
X681764Y111894D01*
X679699Y111038D01*
X677526Y111038D01*
G37*
%LPD*%
%LPC*%
G36*
X353842Y102205D02*
X353842Y102205D01*
X351908Y104140D01*
X316807Y139241D01*
X316737Y139293D01*
X316673Y139353D01*
X316624Y139379D01*
X316580Y139412D01*
X316498Y139443D01*
X316420Y139483D01*
X316372Y139491D01*
X316314Y139513D01*
X316166Y139525D01*
X316089Y139538D01*
X313914Y139538D01*
X311906Y140370D01*
X310368Y141908D01*
X310298Y141960D01*
X310234Y142020D01*
X310185Y142046D01*
X310141Y142079D01*
X310059Y142110D01*
X309981Y142150D01*
X309934Y142158D01*
X309875Y142180D01*
X309727Y142192D01*
X309650Y142205D01*
X227342Y142205D01*
X219343Y150204D01*
X219273Y150257D01*
X219210Y150317D01*
X219160Y150342D01*
X219116Y150375D01*
X219034Y150406D01*
X218956Y150446D01*
X218909Y150454D01*
X218850Y150477D01*
X218703Y150489D01*
X218625Y150502D01*
X216450Y150502D01*
X214443Y151333D01*
X212906Y152870D01*
X212075Y154877D01*
X212075Y157052D01*
X212063Y157139D01*
X212060Y157226D01*
X212043Y157279D01*
X212035Y157334D01*
X211999Y157414D01*
X211972Y157497D01*
X211944Y157536D01*
X211919Y157593D01*
X211823Y157707D01*
X211777Y157770D01*
X164640Y204908D01*
X164570Y204960D01*
X164506Y205020D01*
X164457Y205046D01*
X164413Y205079D01*
X164331Y205110D01*
X164253Y205150D01*
X164205Y205158D01*
X164147Y205180D01*
X163999Y205192D01*
X163922Y205205D01*
X147850Y205205D01*
X147763Y205193D01*
X147676Y205190D01*
X147623Y205173D01*
X147568Y205165D01*
X147489Y205130D01*
X147405Y205103D01*
X147366Y205075D01*
X147309Y205049D01*
X147196Y204953D01*
X147132Y204908D01*
X145594Y203370D01*
X143586Y202538D01*
X141414Y202538D01*
X139406Y203370D01*
X137870Y204906D01*
X137038Y206914D01*
X137038Y209086D01*
X137870Y211094D01*
X139406Y212630D01*
X141414Y213462D01*
X143586Y213462D01*
X145594Y212630D01*
X147132Y211092D01*
X147202Y211040D01*
X147266Y210980D01*
X147315Y210954D01*
X147359Y210921D01*
X147441Y210890D01*
X147519Y210850D01*
X147566Y210842D01*
X147625Y210820D01*
X147773Y210808D01*
X147850Y210795D01*
X166658Y210795D01*
X215730Y161723D01*
X215800Y161670D01*
X215863Y161610D01*
X215913Y161585D01*
X215957Y161552D01*
X216039Y161521D01*
X216117Y161481D01*
X216164Y161473D01*
X216223Y161450D01*
X216370Y161438D01*
X216448Y161425D01*
X218623Y161425D01*
X220630Y160594D01*
X222167Y159057D01*
X222998Y157050D01*
X222998Y154875D01*
X223010Y154788D01*
X223013Y154701D01*
X223030Y154648D01*
X223038Y154593D01*
X223074Y154513D01*
X223101Y154430D01*
X223129Y154391D01*
X223154Y154334D01*
X223250Y154220D01*
X223296Y154157D01*
X229360Y148092D01*
X229430Y148040D01*
X229494Y147980D01*
X229543Y147954D01*
X229587Y147921D01*
X229669Y147890D01*
X229747Y147850D01*
X229795Y147842D01*
X229853Y147820D01*
X230001Y147808D01*
X230078Y147795D01*
X309650Y147795D01*
X309737Y147807D01*
X309824Y147810D01*
X309877Y147827D01*
X309932Y147835D01*
X310011Y147870D01*
X310095Y147897D01*
X310134Y147925D01*
X310191Y147951D01*
X310304Y148047D01*
X310368Y148092D01*
X311906Y149630D01*
X313914Y150462D01*
X316086Y150462D01*
X318094Y149630D01*
X319630Y148094D01*
X320462Y146086D01*
X320462Y143911D01*
X320470Y143854D01*
X320468Y143798D01*
X320476Y143770D01*
X320477Y143737D01*
X320494Y143684D01*
X320502Y143630D01*
X320528Y143572D01*
X320540Y143523D01*
X320553Y143502D01*
X320564Y143467D01*
X320592Y143427D01*
X320618Y143370D01*
X320662Y143318D01*
X320685Y143279D01*
X320724Y143243D01*
X320759Y143193D01*
X355860Y108092D01*
X355930Y108040D01*
X355994Y107980D01*
X356043Y107954D01*
X356087Y107921D01*
X356169Y107890D01*
X356247Y107850D01*
X356295Y107842D01*
X356353Y107820D01*
X356501Y107808D01*
X356578Y107795D01*
X518422Y107795D01*
X518508Y107807D01*
X518596Y107810D01*
X518649Y107827D01*
X518703Y107835D01*
X518783Y107870D01*
X518866Y107897D01*
X518906Y107925D01*
X518963Y107951D01*
X519076Y108047D01*
X519140Y108092D01*
X536908Y125860D01*
X536960Y125930D01*
X537020Y125994D01*
X537046Y126043D01*
X537079Y126087D01*
X537110Y126169D01*
X537150Y126247D01*
X537158Y126295D01*
X537180Y126353D01*
X537191Y126487D01*
X537191Y126489D01*
X537192Y126501D01*
X537205Y126578D01*
X537205Y144650D01*
X537193Y144737D01*
X537190Y144824D01*
X537173Y144877D01*
X537165Y144932D01*
X537130Y145011D01*
X537103Y145095D01*
X537075Y145134D01*
X537049Y145191D01*
X536953Y145304D01*
X536908Y145368D01*
X535370Y146906D01*
X534538Y148914D01*
X534538Y151086D01*
X535370Y153094D01*
X536906Y154630D01*
X538914Y155462D01*
X541086Y155462D01*
X543094Y154630D01*
X544630Y153094D01*
X545462Y151086D01*
X545462Y148914D01*
X544630Y146906D01*
X543092Y145368D01*
X543040Y145298D01*
X542980Y145234D01*
X542954Y145185D01*
X542921Y145141D01*
X542890Y145059D01*
X542850Y144981D01*
X542842Y144934D01*
X542820Y144875D01*
X542808Y144727D01*
X542795Y144650D01*
X542795Y123842D01*
X521158Y102205D01*
X353842Y102205D01*
G37*
%LPD*%
%LPC*%
G36*
X410714Y51688D02*
X410714Y51688D01*
X408706Y52520D01*
X407168Y54058D01*
X407098Y54110D01*
X407034Y54170D01*
X406985Y54196D01*
X406941Y54229D01*
X406859Y54260D01*
X406781Y54300D01*
X406734Y54308D01*
X406675Y54330D01*
X406527Y54342D01*
X406450Y54355D01*
X315692Y54355D01*
X291640Y78408D01*
X291570Y78460D01*
X291506Y78520D01*
X291457Y78546D01*
X291413Y78579D01*
X291331Y78610D01*
X291253Y78650D01*
X291205Y78658D01*
X291147Y78680D01*
X290999Y78692D01*
X290922Y78705D01*
X267342Y78705D01*
X254140Y91908D01*
X254070Y91960D01*
X254006Y92020D01*
X253957Y92046D01*
X253913Y92079D01*
X253831Y92110D01*
X253753Y92150D01*
X253705Y92158D01*
X253647Y92180D01*
X253499Y92192D01*
X253422Y92205D01*
X245350Y92205D01*
X245263Y92193D01*
X245176Y92190D01*
X245123Y92173D01*
X245068Y92165D01*
X244989Y92130D01*
X244905Y92103D01*
X244866Y92075D01*
X244809Y92049D01*
X244696Y91953D01*
X244632Y91908D01*
X243094Y90370D01*
X241086Y89538D01*
X238914Y89538D01*
X236906Y90370D01*
X235370Y91906D01*
X234538Y93914D01*
X234538Y96086D01*
X235370Y98094D01*
X236906Y99630D01*
X238914Y100462D01*
X239978Y100462D01*
X240036Y100470D01*
X240094Y100468D01*
X240176Y100490D01*
X240259Y100502D01*
X240313Y100525D01*
X240369Y100540D01*
X240441Y100583D01*
X240519Y100618D01*
X240563Y100656D01*
X240613Y100685D01*
X240671Y100747D01*
X240736Y100801D01*
X240768Y100850D01*
X240808Y100893D01*
X240846Y100968D01*
X240893Y101038D01*
X240911Y101094D01*
X240937Y101146D01*
X240949Y101214D01*
X240979Y101309D01*
X240981Y101409D01*
X240993Y101477D01*
X240993Y102563D01*
X241824Y104571D01*
X243361Y106107D01*
X245368Y106939D01*
X247541Y106939D01*
X249548Y106107D01*
X251087Y104569D01*
X251156Y104517D01*
X251220Y104457D01*
X251270Y104431D01*
X251314Y104398D01*
X251396Y104367D01*
X251473Y104327D01*
X251521Y104319D01*
X251579Y104297D01*
X251727Y104285D01*
X251804Y104272D01*
X259681Y104272D01*
X275550Y88402D01*
X275620Y88350D01*
X275684Y88290D01*
X275733Y88264D01*
X275777Y88231D01*
X275859Y88200D01*
X275937Y88160D01*
X275985Y88152D01*
X276043Y88130D01*
X276191Y88118D01*
X276268Y88105D01*
X295848Y88105D01*
X316660Y67292D01*
X316730Y67240D01*
X316794Y67180D01*
X316843Y67154D01*
X316887Y67121D01*
X316969Y67090D01*
X317047Y67050D01*
X317095Y67042D01*
X317153Y67020D01*
X317301Y67008D01*
X317378Y66995D01*
X399050Y66995D01*
X399137Y67007D01*
X399224Y67010D01*
X399277Y67027D01*
X399332Y67035D01*
X399411Y67070D01*
X399495Y67097D01*
X399534Y67125D01*
X399591Y67151D01*
X399704Y67247D01*
X399768Y67292D01*
X401306Y68830D01*
X403314Y69662D01*
X405486Y69662D01*
X407494Y68830D01*
X409030Y67294D01*
X409862Y65286D01*
X409862Y63627D01*
X409870Y63569D01*
X409868Y63511D01*
X409890Y63429D01*
X409902Y63345D01*
X409925Y63292D01*
X409940Y63236D01*
X409983Y63163D01*
X410018Y63086D01*
X410056Y63041D01*
X410085Y62991D01*
X410147Y62933D01*
X410201Y62869D01*
X410250Y62837D01*
X410293Y62797D01*
X410368Y62758D01*
X410438Y62711D01*
X410494Y62694D01*
X410546Y62667D01*
X410614Y62656D01*
X410709Y62626D01*
X410809Y62623D01*
X410877Y62612D01*
X412886Y62612D01*
X414894Y61780D01*
X416430Y60244D01*
X417262Y58236D01*
X417262Y56064D01*
X416430Y54056D01*
X414894Y52520D01*
X412886Y51688D01*
X410714Y51688D01*
G37*
%LPD*%
%LPC*%
G36*
X473624Y193471D02*
X473624Y193471D01*
X470971Y196124D01*
X470971Y202204D01*
X470959Y202290D01*
X470956Y202378D01*
X470939Y202430D01*
X470931Y202485D01*
X470896Y202565D01*
X470869Y202648D01*
X470841Y202687D01*
X470815Y202745D01*
X470719Y202858D01*
X470674Y202921D01*
X404301Y269294D01*
X404277Y269312D01*
X404257Y269336D01*
X404190Y269378D01*
X404074Y269465D01*
X404014Y269488D01*
X403972Y269514D01*
X401906Y270370D01*
X400370Y271906D01*
X399538Y273914D01*
X399538Y276086D01*
X400370Y278094D01*
X401906Y279630D01*
X403914Y280462D01*
X406086Y280462D01*
X408094Y279630D01*
X409630Y278094D01*
X410486Y276028D01*
X410502Y276001D01*
X410511Y275972D01*
X410557Y275908D01*
X410630Y275783D01*
X410677Y275739D01*
X410706Y275699D01*
X477078Y209326D01*
X478032Y208372D01*
X478079Y208337D01*
X478119Y208295D01*
X478192Y208252D01*
X478259Y208202D01*
X478314Y208181D01*
X478364Y208151D01*
X478446Y208130D01*
X478525Y208100D01*
X478583Y208096D01*
X478640Y208081D01*
X478724Y208084D01*
X478808Y208077D01*
X478866Y208088D01*
X478924Y208090D01*
X479004Y208116D01*
X479087Y208133D01*
X479139Y208160D01*
X479195Y208178D01*
X479251Y208218D01*
X479339Y208264D01*
X479412Y208332D01*
X479468Y208372D01*
X532174Y261079D01*
X532226Y261148D01*
X532286Y261212D01*
X532312Y261262D01*
X532345Y261306D01*
X532376Y261387D01*
X532416Y261465D01*
X532424Y261513D01*
X532446Y261571D01*
X532458Y261719D01*
X532471Y261796D01*
X532471Y261959D01*
X532467Y261990D01*
X532469Y262021D01*
X532452Y262097D01*
X532431Y262241D01*
X532405Y262299D01*
X532394Y262348D01*
X531538Y264414D01*
X531538Y266586D01*
X532370Y268594D01*
X533906Y270130D01*
X535914Y270962D01*
X538086Y270962D01*
X540094Y270130D01*
X541630Y268594D01*
X542462Y266586D01*
X542462Y264414D01*
X541606Y262348D01*
X541598Y262318D01*
X541584Y262290D01*
X541571Y262213D01*
X541535Y262072D01*
X541537Y262008D01*
X541529Y261959D01*
X541529Y257624D01*
X477376Y193471D01*
X473624Y193471D01*
G37*
%LPD*%
%LPC*%
G36*
X263394Y13588D02*
X263394Y13588D01*
X261386Y14420D01*
X259850Y15956D01*
X259018Y17964D01*
X259018Y20136D01*
X259255Y20707D01*
X259255Y20708D01*
X259256Y20710D01*
X259289Y20841D01*
X259294Y20861D01*
X259307Y20901D01*
X259307Y20912D01*
X259325Y20982D01*
X259325Y20984D01*
X259326Y20985D01*
X259321Y21125D01*
X259317Y21266D01*
X259317Y21268D01*
X259317Y21269D01*
X259273Y21405D01*
X259231Y21537D01*
X259230Y21538D01*
X259229Y21540D01*
X259220Y21552D01*
X259072Y21773D01*
X259049Y21793D01*
X259034Y21813D01*
X256605Y24242D01*
X256605Y51452D01*
X256593Y51538D01*
X256590Y51626D01*
X256573Y51679D01*
X256565Y51733D01*
X256530Y51813D01*
X256503Y51896D01*
X256475Y51936D01*
X256449Y51993D01*
X256353Y52106D01*
X256308Y52170D01*
X218020Y90458D01*
X218019Y90459D01*
X218018Y90460D01*
X217904Y90545D01*
X217793Y90628D01*
X217791Y90629D01*
X217790Y90630D01*
X217657Y90680D01*
X217527Y90730D01*
X217526Y90730D01*
X217524Y90730D01*
X217380Y90742D01*
X217244Y90753D01*
X217242Y90753D01*
X217241Y90753D01*
X217225Y90750D01*
X216965Y90697D01*
X216938Y90683D01*
X216914Y90678D01*
X214766Y89788D01*
X212594Y89788D01*
X210586Y90620D01*
X209050Y92156D01*
X208218Y94164D01*
X208218Y96336D01*
X209050Y98344D01*
X210586Y99880D01*
X212594Y100712D01*
X214766Y100712D01*
X216774Y99880D01*
X218310Y98344D01*
X218425Y98067D01*
X218441Y98040D01*
X218450Y98011D01*
X218496Y97947D01*
X218570Y97822D01*
X218616Y97777D01*
X218645Y97737D01*
X260260Y56122D01*
X262195Y54188D01*
X262195Y26978D01*
X262207Y26892D01*
X262210Y26804D01*
X262227Y26751D01*
X262235Y26697D01*
X262270Y26617D01*
X262297Y26534D01*
X262325Y26494D01*
X262351Y26437D01*
X262447Y26324D01*
X262492Y26260D01*
X263943Y24809D01*
X264013Y24757D01*
X264077Y24697D01*
X264126Y24671D01*
X264170Y24638D01*
X264252Y24607D01*
X264330Y24567D01*
X264378Y24559D01*
X264436Y24537D01*
X264584Y24525D01*
X264661Y24512D01*
X265569Y24512D01*
X265655Y24524D01*
X265743Y24527D01*
X265796Y24544D01*
X265850Y24552D01*
X265930Y24587D01*
X266013Y24614D01*
X266053Y24642D01*
X266110Y24668D01*
X266223Y24764D01*
X266287Y24809D01*
X272383Y30905D01*
X272400Y30929D01*
X272423Y30948D01*
X272486Y31042D01*
X272554Y31132D01*
X272564Y31160D01*
X272580Y31184D01*
X272615Y31292D01*
X272655Y31398D01*
X272657Y31427D01*
X272666Y31455D01*
X272669Y31569D01*
X272678Y31681D01*
X272673Y31710D01*
X272673Y31739D01*
X272645Y31849D01*
X272623Y31960D01*
X272609Y31986D01*
X272602Y32014D01*
X272544Y32112D01*
X272492Y32212D01*
X272471Y32234D01*
X272456Y32259D01*
X272374Y32336D01*
X272296Y32418D01*
X272270Y32433D01*
X272249Y32453D01*
X272148Y32505D01*
X272051Y32562D01*
X272022Y32569D01*
X271996Y32583D01*
X271919Y32596D01*
X271775Y32632D01*
X271713Y32630D01*
X271665Y32638D01*
X269744Y32638D01*
X267736Y33470D01*
X266200Y35006D01*
X265368Y37014D01*
X265368Y39186D01*
X266200Y41194D01*
X267738Y42732D01*
X267790Y42802D01*
X267850Y42866D01*
X267876Y42915D01*
X267909Y42959D01*
X267940Y43041D01*
X267980Y43119D01*
X267988Y43166D01*
X268010Y43225D01*
X268022Y43373D01*
X268035Y43450D01*
X268035Y55152D01*
X268023Y55238D01*
X268020Y55326D01*
X268003Y55379D01*
X267995Y55433D01*
X267960Y55513D01*
X267933Y55596D01*
X267905Y55636D01*
X267879Y55693D01*
X267783Y55806D01*
X267738Y55870D01*
X259517Y64091D01*
X259447Y64143D01*
X259383Y64203D01*
X259334Y64229D01*
X259290Y64262D01*
X259208Y64293D01*
X259130Y64333D01*
X259082Y64341D01*
X259024Y64363D01*
X258876Y64375D01*
X258799Y64388D01*
X256624Y64388D01*
X254616Y65220D01*
X253080Y66756D01*
X252248Y68764D01*
X252248Y70936D01*
X253080Y72944D01*
X254616Y74480D01*
X256624Y75312D01*
X258796Y75312D01*
X260804Y74480D01*
X262340Y72944D01*
X263172Y70936D01*
X263172Y68761D01*
X263179Y68707D01*
X263178Y68670D01*
X263185Y68645D01*
X263187Y68587D01*
X263204Y68534D01*
X263212Y68480D01*
X263247Y68400D01*
X263274Y68317D01*
X263302Y68277D01*
X263328Y68220D01*
X263424Y68107D01*
X263469Y68043D01*
X273625Y57888D01*
X273625Y43450D01*
X273637Y43363D01*
X273640Y43276D01*
X273657Y43223D01*
X273665Y43168D01*
X273700Y43089D01*
X273727Y43005D01*
X273755Y42966D01*
X273781Y42909D01*
X273877Y42796D01*
X273883Y42787D01*
X273894Y42769D01*
X273900Y42763D01*
X273922Y42732D01*
X275460Y41194D01*
X276292Y39186D01*
X276292Y37265D01*
X276296Y37236D01*
X276293Y37207D01*
X276316Y37096D01*
X276332Y36984D01*
X276344Y36957D01*
X276349Y36928D01*
X276401Y36828D01*
X276448Y36724D01*
X276467Y36702D01*
X276480Y36676D01*
X276558Y36594D01*
X276631Y36507D01*
X276656Y36491D01*
X276676Y36470D01*
X276774Y36412D01*
X276868Y36350D01*
X276896Y36341D01*
X276921Y36326D01*
X277031Y36298D01*
X277139Y36264D01*
X277169Y36263D01*
X277197Y36256D01*
X277310Y36259D01*
X277423Y36257D01*
X277452Y36264D01*
X277481Y36265D01*
X277589Y36300D01*
X277698Y36328D01*
X277724Y36343D01*
X277752Y36352D01*
X277815Y36398D01*
X277943Y36474D01*
X277986Y36519D01*
X278025Y36547D01*
X294563Y53085D01*
X294615Y53155D01*
X294675Y53219D01*
X294700Y53268D01*
X294734Y53312D01*
X294765Y53394D01*
X294805Y53472D01*
X294813Y53520D01*
X294835Y53578D01*
X294847Y53726D01*
X294860Y53803D01*
X294860Y54144D01*
X295692Y56152D01*
X297228Y57688D01*
X299236Y58520D01*
X301408Y58520D01*
X303416Y57688D01*
X304952Y56152D01*
X305784Y54144D01*
X305784Y51972D01*
X304952Y49964D01*
X303416Y48428D01*
X301408Y47596D01*
X299236Y47596D01*
X298266Y47998D01*
X298265Y47998D01*
X298264Y47999D01*
X298130Y48033D01*
X297991Y48069D01*
X297990Y48069D01*
X297988Y48069D01*
X297847Y48065D01*
X297707Y48061D01*
X297705Y48060D01*
X297704Y48060D01*
X297571Y48017D01*
X297436Y47974D01*
X297435Y47973D01*
X297433Y47973D01*
X297421Y47964D01*
X297200Y47816D01*
X297180Y47792D01*
X297160Y47778D01*
X270239Y20857D01*
X270187Y20787D01*
X270127Y20723D01*
X270101Y20674D01*
X270068Y20630D01*
X270037Y20548D01*
X269997Y20470D01*
X269989Y20422D01*
X269967Y20364D01*
X269955Y20216D01*
X269942Y20139D01*
X269942Y17964D01*
X269110Y15956D01*
X267574Y14420D01*
X265566Y13588D01*
X263394Y13588D01*
G37*
%LPD*%
%LPC*%
G36*
X3486086Y2080321D02*
X3486086Y2080321D01*
X3478853Y2083317D01*
X3473317Y2088853D01*
X3470321Y2096086D01*
X3470321Y2103914D01*
X3473317Y2111147D01*
X3478853Y2116683D01*
X3486086Y2119679D01*
X3493914Y2119679D01*
X3501147Y2116683D01*
X3506683Y2111147D01*
X3509679Y2103914D01*
X3509679Y2096086D01*
X3506683Y2088853D01*
X3501147Y2083317D01*
X3493914Y2080321D01*
X3486086Y2080321D01*
G37*
%LPD*%
%LPC*%
G36*
X71086Y55321D02*
X71086Y55321D01*
X63853Y58317D01*
X58317Y63853D01*
X55321Y71086D01*
X55321Y78914D01*
X58317Y86147D01*
X63853Y91683D01*
X71086Y94679D01*
X78914Y94679D01*
X86147Y91683D01*
X91683Y86147D01*
X94679Y78914D01*
X94679Y71086D01*
X91683Y63853D01*
X86147Y58317D01*
X78914Y55321D01*
X71086Y55321D01*
G37*
%LPD*%
%LPC*%
G36*
X71086Y2110321D02*
X71086Y2110321D01*
X63853Y2113317D01*
X58317Y2118853D01*
X55321Y2126086D01*
X55321Y2133914D01*
X58317Y2141147D01*
X63853Y2146683D01*
X71086Y2149679D01*
X78914Y2149679D01*
X86147Y2146683D01*
X91683Y2141147D01*
X94679Y2133914D01*
X94679Y2126086D01*
X91683Y2118853D01*
X86147Y2113317D01*
X78914Y2110321D01*
X71086Y2110321D01*
G37*
%LPD*%
%LPC*%
G36*
X1601086Y112821D02*
X1601086Y112821D01*
X1593853Y115817D01*
X1588317Y121353D01*
X1585321Y128586D01*
X1585321Y136414D01*
X1588317Y143647D01*
X1593853Y149183D01*
X1601086Y152179D01*
X1608914Y152179D01*
X1616147Y149183D01*
X1621683Y143647D01*
X1624679Y136414D01*
X1624679Y128586D01*
X1621683Y121353D01*
X1616147Y115817D01*
X1608914Y112821D01*
X1601086Y112821D01*
G37*
%LPD*%
%LPC*%
G36*
X357214Y134111D02*
X357214Y134111D01*
X355206Y134943D01*
X353670Y136479D01*
X352838Y138487D01*
X352838Y140659D01*
X353670Y142667D01*
X355206Y144203D01*
X357214Y145035D01*
X359386Y145035D01*
X361394Y144203D01*
X362932Y142665D01*
X363002Y142613D01*
X363066Y142553D01*
X363115Y142527D01*
X363159Y142494D01*
X363241Y142463D01*
X363319Y142423D01*
X363366Y142415D01*
X363425Y142393D01*
X363573Y142381D01*
X363650Y142368D01*
X495058Y142368D01*
X495144Y142380D01*
X495232Y142383D01*
X495285Y142400D01*
X495339Y142408D01*
X495419Y142443D01*
X495502Y142470D01*
X495542Y142498D01*
X495599Y142524D01*
X495712Y142620D01*
X495776Y142665D01*
X521611Y168500D01*
X521663Y168570D01*
X521723Y168634D01*
X521749Y168683D01*
X521782Y168727D01*
X521813Y168809D01*
X521853Y168887D01*
X521861Y168935D01*
X521883Y168993D01*
X521894Y169128D01*
X521894Y169129D01*
X521895Y169141D01*
X521908Y169218D01*
X521908Y171393D01*
X522740Y173401D01*
X524276Y174937D01*
X526284Y175769D01*
X528456Y175769D01*
X530464Y174937D01*
X532000Y173401D01*
X532832Y171393D01*
X532832Y169221D01*
X532000Y167213D01*
X530464Y165677D01*
X528456Y164845D01*
X526281Y164845D01*
X526195Y164833D01*
X526107Y164830D01*
X526054Y164813D01*
X526000Y164805D01*
X525920Y164770D01*
X525837Y164743D01*
X525797Y164715D01*
X525740Y164689D01*
X525627Y164593D01*
X525563Y164548D01*
X497794Y136778D01*
X363650Y136778D01*
X363563Y136766D01*
X363476Y136763D01*
X363423Y136746D01*
X363368Y136738D01*
X363289Y136703D01*
X363205Y136676D01*
X363166Y136648D01*
X363109Y136622D01*
X362996Y136526D01*
X362932Y136481D01*
X361394Y134943D01*
X359386Y134111D01*
X357214Y134111D01*
G37*
%LPD*%
%LPC*%
G36*
X182042Y9905D02*
X182042Y9905D01*
X177985Y13962D01*
X177985Y22630D01*
X177973Y22717D01*
X177970Y22804D01*
X177953Y22857D01*
X177945Y22912D01*
X177910Y22991D01*
X177883Y23075D01*
X177855Y23114D01*
X177829Y23171D01*
X177733Y23284D01*
X177688Y23348D01*
X176150Y24886D01*
X175318Y26894D01*
X175318Y29066D01*
X176150Y31074D01*
X177686Y32610D01*
X179694Y33442D01*
X181866Y33442D01*
X183874Y32610D01*
X185410Y31074D01*
X186242Y29066D01*
X186242Y26894D01*
X185410Y24886D01*
X183872Y23348D01*
X183820Y23278D01*
X183760Y23214D01*
X183734Y23165D01*
X183701Y23121D01*
X183670Y23039D01*
X183630Y22961D01*
X183622Y22914D01*
X183600Y22855D01*
X183588Y22707D01*
X183575Y22630D01*
X183575Y16698D01*
X183587Y16612D01*
X183590Y16524D01*
X183607Y16471D01*
X183615Y16417D01*
X183650Y16337D01*
X183677Y16254D01*
X183705Y16214D01*
X183731Y16157D01*
X183827Y16044D01*
X183872Y15980D01*
X184060Y15792D01*
X184130Y15740D01*
X184194Y15680D01*
X184243Y15654D01*
X184287Y15621D01*
X184369Y15590D01*
X184447Y15550D01*
X184495Y15542D01*
X184553Y15520D01*
X184701Y15508D01*
X184778Y15495D01*
X232422Y15495D01*
X232508Y15507D01*
X232596Y15510D01*
X232649Y15527D01*
X232703Y15535D01*
X232783Y15570D01*
X232866Y15597D01*
X232906Y15625D01*
X232963Y15651D01*
X233076Y15747D01*
X233140Y15792D01*
X243608Y26260D01*
X243660Y26330D01*
X243720Y26394D01*
X243746Y26443D01*
X243779Y26487D01*
X243810Y26569D01*
X243850Y26647D01*
X243858Y26695D01*
X243880Y26753D01*
X243892Y26901D01*
X243905Y26978D01*
X243905Y32750D01*
X243893Y32837D01*
X243890Y32924D01*
X243873Y32977D01*
X243865Y33032D01*
X243830Y33111D01*
X243803Y33195D01*
X243775Y33234D01*
X243749Y33291D01*
X243653Y33404D01*
X243608Y33468D01*
X242070Y35006D01*
X241238Y37014D01*
X241238Y39186D01*
X242070Y41194D01*
X243606Y42730D01*
X245614Y43562D01*
X247786Y43562D01*
X249794Y42730D01*
X251330Y41194D01*
X252162Y39186D01*
X252162Y37014D01*
X251330Y35006D01*
X249792Y33468D01*
X249740Y33398D01*
X249680Y33334D01*
X249654Y33285D01*
X249621Y33241D01*
X249590Y33159D01*
X249550Y33081D01*
X249542Y33034D01*
X249520Y32975D01*
X249508Y32827D01*
X249495Y32750D01*
X249495Y24242D01*
X235158Y9905D01*
X182042Y9905D01*
G37*
%LPD*%
%LPC*%
G36*
X229414Y427538D02*
X229414Y427538D01*
X227348Y428394D01*
X227318Y428402D01*
X227290Y428416D01*
X227213Y428429D01*
X227072Y428465D01*
X227008Y428463D01*
X226959Y428471D01*
X221624Y428471D01*
X218674Y431421D01*
X207301Y442794D01*
X207277Y442813D01*
X207257Y442836D01*
X207190Y442878D01*
X207074Y442965D01*
X207014Y442988D01*
X206972Y443014D01*
X204906Y443870D01*
X203370Y445406D01*
X202538Y447414D01*
X202538Y449586D01*
X203370Y451594D01*
X204906Y453130D01*
X206914Y453962D01*
X209086Y453962D01*
X211094Y453130D01*
X212630Y451594D01*
X213486Y449528D01*
X213502Y449501D01*
X213511Y449472D01*
X213557Y449408D01*
X213630Y449283D01*
X213677Y449239D01*
X213706Y449199D01*
X225079Y437826D01*
X225148Y437774D01*
X225212Y437714D01*
X225262Y437688D01*
X225306Y437655D01*
X225387Y437624D01*
X225465Y437584D01*
X225513Y437576D01*
X225571Y437554D01*
X225719Y437542D01*
X225796Y437529D01*
X226959Y437529D01*
X226990Y437533D01*
X227021Y437531D01*
X227097Y437548D01*
X227241Y437569D01*
X227299Y437595D01*
X227348Y437606D01*
X229414Y438462D01*
X231586Y438462D01*
X233594Y437630D01*
X235130Y436094D01*
X235962Y434086D01*
X235962Y431914D01*
X235130Y429906D01*
X233594Y428370D01*
X231586Y427538D01*
X229414Y427538D01*
G37*
%LPD*%
%LPC*%
G36*
X3594952Y510851D02*
X3594952Y510851D01*
X3592460Y511883D01*
X3590553Y513790D01*
X3589521Y516282D01*
X3589521Y518978D01*
X3590553Y521470D01*
X3592460Y523377D01*
X3594952Y524409D01*
X3608648Y524409D01*
X3611140Y523377D01*
X3613047Y521470D01*
X3614079Y518978D01*
X3614079Y516282D01*
X3613047Y513790D01*
X3611140Y511883D01*
X3608648Y510851D01*
X3594952Y510851D01*
G37*
%LPD*%
%LPC*%
G36*
X3594952Y424451D02*
X3594952Y424451D01*
X3592460Y425483D01*
X3590553Y427390D01*
X3589521Y429882D01*
X3589521Y432578D01*
X3590553Y435070D01*
X3592460Y436977D01*
X3594952Y438009D01*
X3608648Y438009D01*
X3611140Y436977D01*
X3613047Y435070D01*
X3614079Y432578D01*
X3614079Y429882D01*
X3613047Y427390D01*
X3611140Y425483D01*
X3608648Y424451D01*
X3594952Y424451D01*
G37*
%LPD*%
%LPC*%
G36*
X3639252Y510851D02*
X3639252Y510851D01*
X3636760Y511883D01*
X3634853Y513790D01*
X3633821Y516282D01*
X3633821Y518978D01*
X3634853Y521470D01*
X3636760Y523377D01*
X3639252Y524409D01*
X3647948Y524409D01*
X3650440Y523377D01*
X3652347Y521470D01*
X3653379Y518978D01*
X3653379Y516282D01*
X3652347Y513790D01*
X3650440Y511883D01*
X3647948Y510851D01*
X3639252Y510851D01*
G37*
%LPD*%
%LPC*%
G36*
X3639252Y424451D02*
X3639252Y424451D01*
X3636760Y425483D01*
X3634853Y427390D01*
X3633821Y429882D01*
X3633821Y432578D01*
X3634853Y435070D01*
X3636760Y436977D01*
X3639252Y438009D01*
X3647948Y438009D01*
X3650440Y436977D01*
X3652347Y435070D01*
X3653379Y432578D01*
X3653379Y429882D01*
X3652347Y427390D01*
X3650440Y425483D01*
X3647948Y424451D01*
X3639252Y424451D01*
G37*
%LPD*%
%LPC*%
G36*
X3579483Y464991D02*
X3579483Y464991D01*
X3577475Y465823D01*
X3575939Y467359D01*
X3575107Y469367D01*
X3575107Y471539D01*
X3575939Y473547D01*
X3577477Y475085D01*
X3577529Y475155D01*
X3577589Y475219D01*
X3577615Y475268D01*
X3577648Y475312D01*
X3577679Y475394D01*
X3577719Y475472D01*
X3577727Y475519D01*
X3577749Y475578D01*
X3577761Y475726D01*
X3577774Y475803D01*
X3577774Y480103D01*
X3577762Y480190D01*
X3577759Y480277D01*
X3577742Y480330D01*
X3577734Y480385D01*
X3577699Y480464D01*
X3577672Y480548D01*
X3577644Y480587D01*
X3577618Y480644D01*
X3577522Y480757D01*
X3577477Y480821D01*
X3575939Y482359D01*
X3575107Y484367D01*
X3575107Y486539D01*
X3575939Y488547D01*
X3577475Y490083D01*
X3579483Y490915D01*
X3581655Y490915D01*
X3583663Y490083D01*
X3585199Y488547D01*
X3586031Y486539D01*
X3586031Y484367D01*
X3585199Y482359D01*
X3583661Y480821D01*
X3583609Y480751D01*
X3583549Y480687D01*
X3583523Y480638D01*
X3583490Y480594D01*
X3583459Y480512D01*
X3583419Y480434D01*
X3583411Y480387D01*
X3583389Y480328D01*
X3583377Y480180D01*
X3583364Y480103D01*
X3583364Y475803D01*
X3583376Y475716D01*
X3583379Y475629D01*
X3583396Y475576D01*
X3583404Y475521D01*
X3583439Y475442D01*
X3583466Y475358D01*
X3583494Y475319D01*
X3583520Y475262D01*
X3583616Y475149D01*
X3583661Y475085D01*
X3585199Y473547D01*
X3586031Y471539D01*
X3586031Y469367D01*
X3585199Y467359D01*
X3583663Y465823D01*
X3581655Y464991D01*
X3579483Y464991D01*
G37*
%LPD*%
%LPC*%
G36*
X3644953Y278221D02*
X3644953Y278221D01*
X3642094Y279406D01*
X3639906Y281594D01*
X3638721Y284453D01*
X3638721Y287547D01*
X3639906Y290406D01*
X3642094Y292594D01*
X3644953Y293779D01*
X3648047Y293779D01*
X3650906Y292594D01*
X3653094Y290406D01*
X3654279Y287547D01*
X3654279Y284453D01*
X3653094Y281594D01*
X3650906Y279406D01*
X3648047Y278221D01*
X3644953Y278221D01*
G37*
%LPD*%
%LPC*%
G36*
X3574953Y278221D02*
X3574953Y278221D01*
X3572094Y279406D01*
X3569906Y281594D01*
X3568721Y284453D01*
X3568721Y287547D01*
X3569906Y290406D01*
X3572094Y292594D01*
X3574953Y293779D01*
X3578047Y293779D01*
X3580906Y292594D01*
X3583094Y290406D01*
X3584279Y287547D01*
X3584279Y284453D01*
X3583094Y281594D01*
X3580906Y279406D01*
X3578047Y278221D01*
X3574953Y278221D01*
G37*
%LPD*%
%LPC*%
G36*
X285051Y93721D02*
X285051Y93721D01*
X282743Y94677D01*
X280977Y96443D01*
X280021Y98751D01*
X280021Y101249D01*
X280977Y103557D01*
X282743Y105323D01*
X285051Y106279D01*
X287549Y106279D01*
X289857Y105323D01*
X291623Y103557D01*
X292579Y101249D01*
X292579Y98751D01*
X291623Y96443D01*
X289857Y94677D01*
X287549Y93721D01*
X285051Y93721D01*
G37*
%LPD*%
%LPC*%
G36*
X3605017Y440501D02*
X3605017Y440501D01*
X3602071Y443447D01*
X3602071Y447613D01*
X3605017Y450559D01*
X3609183Y450559D01*
X3612129Y447613D01*
X3612129Y443447D01*
X3609183Y440501D01*
X3605017Y440501D01*
G37*
%LPD*%
%LPC*%
G36*
X3605017Y498301D02*
X3605017Y498301D01*
X3602071Y501247D01*
X3602071Y505413D01*
X3605017Y508359D01*
X3609183Y508359D01*
X3612129Y505413D01*
X3612129Y501247D01*
X3609183Y498301D01*
X3605017Y498301D01*
G37*
%LPD*%
D10*
X3650562Y486114D02*
X3657674Y483743D01*
X3650562Y481373D01*
X3649377Y476420D02*
X3647006Y473456D01*
X3657674Y473456D01*
X3657674Y470493D02*
X3657674Y476420D01*
X3649377Y464990D02*
X3647006Y462026D01*
X3657674Y462026D01*
X3657674Y459063D02*
X3657674Y464990D01*
D11*
X3607300Y431230D02*
X3596300Y431230D01*
X3596300Y517630D02*
X3607300Y517630D01*
X3640600Y431230D02*
X3646600Y431230D01*
X3646600Y517630D02*
X3640600Y517630D01*
D12*
X246700Y38100D03*
D10*
X246700Y25400D02*
X234000Y12700D01*
X183200Y12700D01*
X246700Y25400D02*
X246700Y38100D01*
X183200Y12700D02*
X180780Y15120D01*
X180780Y27980D01*
D12*
X180780Y27980D03*
X142500Y208000D03*
D10*
X165500Y208000D01*
X217537Y155964D01*
D12*
X217537Y155964D03*
D10*
X228500Y145000D01*
X315000Y145000D01*
D12*
X315000Y145000D03*
D10*
X355000Y105000D01*
X540000Y125000D02*
X540000Y150000D01*
D12*
X540000Y150000D03*
D10*
X520000Y105000D02*
X355000Y105000D01*
X520000Y105000D02*
X540000Y125000D01*
D12*
X3497500Y230000D03*
D10*
X3497500Y192500D01*
X3315000Y10000D01*
X3255000Y10000D01*
D12*
X3255000Y10000D03*
X358300Y139573D03*
D10*
X496636Y139573D01*
X527370Y170307D01*
D12*
X527370Y170307D03*
X139660Y162130D03*
X170310Y221780D03*
X343220Y71350D03*
X327980Y71120D03*
X427040Y115570D03*
X486500Y150020D03*
X339980Y185360D03*
X139310Y188490D03*
X3488590Y441010D03*
X299000Y112700D03*
X273800Y111300D03*
X239890Y181920D03*
X214100Y144800D03*
X422040Y65570D03*
X422040Y45570D03*
X213800Y71300D03*
X228800Y71300D03*
X228800Y56300D03*
X213800Y56300D03*
X3488590Y481010D03*
X3528590Y511010D03*
X3568590Y511010D03*
X3628590Y491010D03*
X3623590Y446010D03*
X3583590Y406010D03*
X3523590Y341010D03*
X3563590Y346010D03*
X3518590Y286010D03*
X3618590Y276010D03*
X3538590Y241010D03*
X264480Y19050D03*
D10*
X265115Y19685D01*
X298488Y53058D01*
X300322Y53058D01*
D12*
X300322Y53058D03*
X213680Y95250D03*
D10*
X217180Y95250D01*
X259400Y53030D01*
X259400Y25400D01*
X265115Y19685D01*
D12*
X307500Y2052500D03*
X457500Y2052500D03*
X607500Y2052500D03*
X757500Y2052500D03*
X907500Y2052500D03*
X1057500Y2052500D03*
D13*
X1057500Y2047500D01*
D12*
X1207500Y2052500D03*
X1357500Y2052500D03*
X1507500Y2052500D03*
X2107500Y2052500D03*
X2257500Y2052500D03*
X2407500Y2052500D03*
X2557500Y2052500D03*
X2707500Y2052500D03*
X3157500Y1902500D03*
X3007500Y1902500D03*
X2857500Y1902500D03*
X2707500Y1902500D03*
X2557500Y1902500D03*
X2407500Y1902500D03*
X2257500Y1902500D03*
X2107500Y1902500D03*
X1957500Y1902500D03*
X1807500Y1902500D03*
X1657500Y1902500D03*
X1507500Y1902500D03*
X1357500Y1902500D03*
X1207500Y1902500D03*
X1057500Y1902500D03*
X907500Y1902500D03*
D13*
X907500Y1897500D01*
D12*
X757500Y1902500D03*
X607500Y1902500D03*
X457500Y1902500D03*
X307500Y1902500D03*
X157500Y1877500D03*
X2857500Y2052500D03*
X3007500Y2052500D03*
X157500Y1727500D03*
X307500Y1752500D03*
X457500Y1752500D03*
X607500Y1752500D03*
X757500Y1752500D03*
X907500Y1752500D03*
X1057500Y1752500D03*
X1207500Y1752500D03*
D13*
X1207500Y1747500D01*
D12*
X1357500Y1752500D03*
X1507500Y1752500D03*
X1657500Y1752500D03*
X1807500Y1752500D03*
X1957500Y1752500D03*
X2107500Y1752500D03*
X2257500Y1752500D03*
X2407500Y1752500D03*
X2557500Y1752500D03*
X2707500Y1752500D03*
X2857500Y1752500D03*
X3007500Y1752500D03*
X3157500Y1752500D03*
X3457500Y1602500D03*
X3007500Y1602500D03*
X2857500Y1602500D03*
X2707500Y1602500D03*
X2557500Y1602500D03*
X2407500Y1602500D03*
X2257500Y1602500D03*
X2107500Y1602500D03*
X1957500Y1602500D03*
X1807500Y1602500D03*
X1657500Y1602500D03*
X1507500Y1602500D03*
X1357500Y1602500D03*
X1207500Y1602500D03*
X1057500Y1602500D03*
X907500Y1602500D03*
X757500Y1602500D03*
X607500Y1602500D03*
X457500Y1602500D03*
X307500Y1602500D03*
X157500Y1595000D03*
X157500Y1447500D03*
X307500Y1447500D03*
X457500Y1452500D03*
X607500Y1452500D03*
X757500Y1452500D03*
X907500Y1452500D03*
X1057500Y1452500D03*
X1207500Y1452500D03*
X1357500Y1452500D03*
X1507500Y1452500D03*
X1657500Y1452500D03*
X1807500Y1452500D03*
X1957500Y1452500D03*
X2107500Y1452500D03*
X2257500Y1452500D03*
X2407500Y1452500D03*
X2557500Y1452500D03*
X2707500Y1452500D03*
X2857500Y1452500D03*
X3007500Y1452500D03*
X3157500Y1452500D03*
X3157500Y1302500D03*
X3007500Y1302500D03*
X2857500Y1302500D03*
X2707500Y1302500D03*
X2557500Y1302500D03*
X2407500Y1302500D03*
X2257500Y1302500D03*
X2107500Y1302500D03*
X1957500Y1302500D03*
X1807500Y1302500D03*
X1657500Y1302500D03*
X1507500Y1302500D03*
X1357500Y1302500D03*
X1207500Y1302500D03*
X1057500Y1302500D03*
X907500Y1302500D03*
X757500Y1302500D03*
X607500Y1302500D03*
X457500Y1302500D03*
X307500Y1302500D03*
X157500Y1302500D03*
X157500Y1152500D03*
X307500Y1152500D03*
X457500Y1152500D03*
X607500Y1152500D03*
X757500Y1152500D03*
X907500Y1152500D03*
X1057500Y1152500D03*
D13*
X1062500Y1152500D01*
D12*
X1207500Y1152500D03*
X1357500Y1152500D03*
X1507500Y1152500D03*
X1657500Y1152500D03*
X1807500Y1152500D03*
X1957500Y1152500D03*
X2107500Y1152500D03*
X2257500Y1152500D03*
X2407500Y1152500D03*
X2557500Y1152500D03*
X2707500Y1152500D03*
X2857500Y1152500D03*
X3007500Y1152500D03*
X3157500Y1152500D03*
X157500Y1002500D03*
X307500Y1002500D03*
X457500Y1002500D03*
X607500Y1002500D03*
X757500Y1002500D03*
X907500Y1002500D03*
X1057500Y1002500D03*
X1207500Y1002500D03*
X1357500Y1002500D03*
X1507500Y1002500D03*
X1657500Y1002500D03*
X1807500Y1002500D03*
X1957500Y1002500D03*
X2407500Y1002500D03*
X2557500Y1002500D03*
X2707500Y1002500D03*
X2857500Y1002500D03*
X3007500Y1002500D03*
X3157500Y1002500D03*
X3307500Y1002500D03*
X3457500Y1002500D03*
X157500Y852500D03*
X307500Y852500D03*
X457500Y852500D03*
X607500Y852500D03*
X757500Y852500D03*
X907500Y852500D03*
X1057500Y852500D03*
X1207500Y852500D03*
X1357500Y852500D03*
X1507500Y852500D03*
X1657500Y852500D03*
X1807500Y852500D03*
X1957500Y852500D03*
X2107500Y852500D03*
X2257500Y852500D03*
X2407500Y852500D03*
X2557500Y852500D03*
X2707500Y852500D03*
X3157500Y852500D03*
X3307500Y852500D03*
X3457500Y852500D03*
X3457500Y702500D03*
X3307500Y702500D03*
X3157500Y702500D03*
X3007500Y702500D03*
X2557500Y702500D03*
X2407500Y702500D03*
X2257500Y702500D03*
X2107500Y702500D03*
X1957500Y702500D03*
X1807500Y702500D03*
X1657500Y702500D03*
X1507500Y702500D03*
X1357500Y702500D03*
X1207500Y702500D03*
X1057500Y702500D03*
X907500Y702500D03*
X757500Y702500D03*
X607500Y702500D03*
X457500Y702500D03*
X307500Y702500D03*
X157500Y702500D03*
X307500Y402500D03*
X457500Y402500D03*
X607500Y402500D03*
X757500Y402500D03*
X907500Y402500D03*
X1057500Y402500D03*
X1207500Y402500D03*
X1357500Y402500D03*
X1507500Y402500D03*
X1657500Y402500D03*
X1807500Y402500D03*
X1957500Y402500D03*
X2107500Y402500D03*
X2257500Y402500D03*
X2407500Y402500D03*
X2557500Y402500D03*
X2707500Y402500D03*
X2857500Y402500D03*
X3307500Y402500D03*
X3457500Y402500D03*
X3457500Y252500D03*
X3307500Y252500D03*
X3157500Y252500D03*
X2707500Y252500D03*
X2557500Y252500D03*
X2407500Y252500D03*
X2257500Y252500D03*
X2107500Y252500D03*
X1957500Y252500D03*
X1807500Y252500D03*
X1657500Y252500D03*
X1507500Y252500D03*
X1357500Y252500D03*
X1207500Y252500D03*
X1057500Y252500D03*
X907500Y252500D03*
X1057500Y97500D03*
X907500Y102500D03*
X757500Y102500D03*
X1207500Y102500D03*
X1357500Y102500D03*
X1520000Y102500D03*
X2107500Y102500D03*
X2257500Y102500D03*
X2407500Y102500D03*
X2557500Y102500D03*
X3157500Y102500D03*
X3307500Y102500D03*
X3427500Y367500D03*
X3415000Y367500D03*
X3440000Y367500D03*
X3402500Y367500D03*
X3390000Y367500D03*
D14*
X3440000Y367500D01*
X3390000Y367500D02*
X3377500Y367500D01*
D12*
X3377500Y367500D03*
X3007500Y252500D03*
X177500Y567500D03*
X327500Y567500D03*
D13*
X322500Y567500D01*
D12*
X482500Y562500D03*
X627500Y562500D03*
X782500Y562500D03*
X907500Y552500D03*
X1057500Y552500D03*
X1207500Y552500D03*
X1357500Y552500D03*
X1507500Y552500D03*
X1657500Y552500D03*
X1807500Y552500D03*
X1957500Y552500D03*
X2107500Y552500D03*
X2257500Y552500D03*
X2407500Y552500D03*
X2557500Y552500D03*
X2707500Y552500D03*
X2857500Y552500D03*
X3007500Y552500D03*
X3157500Y552500D03*
X3307500Y552500D03*
X3457500Y552500D03*
X3157500Y402500D03*
X3007500Y402500D03*
X2857500Y252500D03*
X2857500Y102500D03*
X3007500Y102500D03*
X2707500Y102500D03*
X3457500Y1452500D03*
X2857500Y852500D03*
X2257500Y1002500D03*
X2107500Y1002500D03*
X2857500Y702500D03*
X2707500Y702500D03*
X3307500Y1752500D03*
X3457500Y1752500D03*
X3307500Y1152500D03*
X3457500Y1152500D03*
X3157500Y2052500D03*
X3307500Y2052500D03*
X3307500Y1452500D03*
X3307500Y1302500D03*
X3457500Y1302500D03*
X3007500Y852500D03*
X3307500Y1602500D03*
X3157500Y1597500D03*
X3457500Y1902500D03*
X3307500Y1902500D03*
X32000Y315000D03*
X157500Y404000D03*
D13*
X161000Y404000D01*
X161500Y404500D01*
D12*
X314500Y282500D03*
D13*
X314500Y297500D01*
X321000Y304000D01*
D12*
X758000Y254500D03*
X628000Y266500D03*
X270830Y38100D03*
D10*
X270830Y56730D01*
X257710Y69850D01*
D12*
X257710Y69850D03*
X411800Y57150D03*
X240000Y95000D03*
D10*
X255000Y95000D01*
X268500Y81500D01*
X292500Y81500D01*
X316850Y57150D01*
X411800Y57150D01*
D12*
X404400Y64200D03*
X246455Y101477D03*
D10*
X258523Y101477D01*
X274690Y85310D01*
X315800Y64200D02*
X404400Y64200D01*
X294690Y85310D02*
X274690Y85310D01*
X294690Y85310D02*
X315800Y64200D01*
D12*
X3580569Y485453D03*
D10*
X3580569Y470453D01*
D12*
X3580569Y470453D03*
X7500Y400000D03*
D13*
X7500Y267500D01*
X282500Y267500D01*
D12*
X400000Y210000D03*
D13*
X340000Y210000D02*
X282500Y267500D01*
X340000Y210000D02*
X400000Y210000D01*
D12*
X3432500Y307500D03*
D13*
X1457500Y307500D01*
X1266500Y116500D01*
X678612Y116500D01*
D12*
X678612Y116500D03*
X208000Y448500D03*
D13*
X223500Y433000D01*
X230500Y433000D01*
D12*
X230500Y433000D03*
X207500Y282500D03*
D13*
X153000Y282500D01*
X147635Y287865D01*
D12*
X147635Y287865D03*
X405000Y275000D03*
D13*
X475500Y204500D01*
X475500Y198000D01*
D12*
X537000Y265500D03*
D13*
X537000Y259500D01*
X475500Y198000D01*
D12*
X3432500Y757500D03*
D13*
X1007500Y757500D01*
X798211Y548211D01*
D12*
X132500Y545000D03*
D13*
X135711Y548211D02*
X798211Y548211D01*
X135711Y548211D02*
X132500Y545000D01*
D12*
X127500Y417500D03*
D13*
X862500Y417500D01*
X1057500Y612500D01*
X3427500Y612500D01*
D12*
X3427500Y612500D03*
X3332500Y2107500D03*
D13*
X332500Y2107500D02*
X132500Y1907500D01*
D12*
X132500Y1907500D03*
D13*
X332500Y2107500D02*
X3332500Y2107500D01*
D12*
X107000Y283000D03*
D13*
X1156500Y381500D02*
X1232500Y457500D01*
X1156500Y381500D02*
X700000Y381500D01*
X107000Y381500D01*
X91000Y381500D01*
X1232500Y457500D02*
X3432500Y457500D01*
D12*
X3432500Y457500D03*
D13*
X91000Y381500D02*
X69000Y359500D01*
X69000Y346000D01*
D12*
X69000Y346000D03*
D13*
X107000Y381500D02*
X107000Y283000D01*
D12*
X700000Y215000D03*
D13*
X700000Y381500D01*
D12*
X3437500Y1952500D03*
D13*
X397500Y1952500D01*
X197500Y1752500D02*
X107500Y1752500D01*
D12*
X107500Y1752500D03*
D13*
X197500Y1752500D02*
X397500Y1952500D01*
D12*
X107500Y1602500D03*
D13*
X153388Y1602500D01*
X154099Y1603211D01*
X268211Y1603211D01*
X467500Y1802500D02*
X3437500Y1802500D01*
D12*
X3437500Y1802500D03*
D13*
X467500Y1802500D02*
X268211Y1603211D01*
D12*
X3432500Y1657500D03*
D13*
X557500Y1657500D01*
X357500Y1457500D01*
D12*
X132500Y1457500D03*
D13*
X357500Y1457500D01*
D12*
X3437500Y1502500D03*
D13*
X682500Y1502500D01*
D12*
X127500Y1307500D03*
D13*
X150888Y1307500D02*
X154099Y1310711D01*
X150888Y1307500D02*
X127500Y1307500D01*
X154099Y1310711D02*
X490711Y1310711D01*
X682500Y1502500D01*
D12*
X127500Y1162500D03*
D13*
X557500Y1162500D01*
X747500Y1352500D01*
X3437500Y1352500D01*
D12*
X3437500Y1352500D03*
X127350Y1010000D03*
D13*
X153388Y1010000D01*
X154099Y1010711D01*
X591611Y1010711D01*
X781400Y1200500D02*
X3435700Y1200500D01*
D12*
X3435700Y1200500D03*
D13*
X781400Y1200500D02*
X591611Y1010711D01*
D12*
X3432500Y1057500D03*
D13*
X857500Y1057500D01*
X657500Y857500D01*
D12*
X132500Y857500D03*
D13*
X614112Y857500D02*
X657500Y857500D01*
X614112Y857500D02*
X610901Y860711D01*
X154099Y860711D02*
X150888Y857500D01*
X132500Y857500D01*
X154099Y860711D02*
X610901Y860711D01*
D12*
X132500Y707500D03*
D13*
X150888Y707500D01*
X154099Y710711D01*
X610901Y710711D02*
X614112Y707500D01*
X732500Y707500D01*
X610901Y710711D02*
X154099Y710711D01*
X732500Y707500D02*
X932500Y907500D01*
D12*
X3432500Y907500D03*
D13*
X932500Y907500D01*
M02*
