M48
;GenerationSoftware,Autodesk,EAGLE,9.6.0*%
;CreationDate,2020-09-24T03:02:50Z*%
FMAT,2
ICI,OFF
METRIC,TZ,000.000
T5C0.381
T4C0.650
T3C0.900
T2C1.200
T1C3.302
%
G90
M71
T1
X7500Y183125
X298000Y7500
X7500Y7500
X170632Y183125
X134868Y7500
X298000Y183125
T2
X313900Y41000
X306900Y41000
T3
X12700Y17520
T4
X310445Y20110
X310445Y25890
T5
X35322Y10985
X33798Y11112
X43704Y15557
X43450Y19002
X33086Y19252
X16238Y12927
X25396Y19277
X9681Y11049
X17588Y22426
X13270Y20060
X12770Y15600
X25120Y21870
X29011Y19258
X32240Y22370
X35780Y19870
X303350Y24300
X303350Y21800
X56400Y20802
X55204Y14557
X55550Y18402
X312000Y31000
X305850Y29500
X310500Y34500
X301300Y34100
X305900Y33000
X49400Y28802
X312500Y35000
X27448Y5905
X31032Y9306
X22368Y13525
X282750Y174500
X267750Y174500
X252750Y174500
X237750Y174500
X222750Y174500
X207750Y174500
X192750Y174500
X132750Y174500
X117750Y174500
X102750Y174500
X87750Y174500
X72750Y174500
X57750Y174500
X42750Y174500
X27750Y174500
X12750Y157000
X27750Y159500
X42750Y159500
X57750Y159500
X72750Y159500
X87750Y159500
X102750Y159500
X117750Y159500
X132750Y159500
X147750Y159500
X162750Y159500
X177750Y159500
X192750Y159500
X207750Y159500
X222750Y159500
X237750Y159500
X252750Y159500
X267750Y159500
X282750Y159500
X297750Y159500
X297750Y144500
X282750Y144500
X267750Y144500
X252750Y144500
X237750Y144500
X222750Y144500
X207750Y144500
X192750Y144500
X177750Y144500
X162750Y144500
X147750Y144500
X132750Y144500
X117750Y144500
X102750Y144500
X87750Y144500
X72750Y144500
X57750Y144500
X42750Y144500
X27750Y144500
X12750Y143750
X12750Y129000
X27750Y129000
X42750Y129500
X57750Y129500
X72750Y129500
X87750Y129500
X102750Y129500
X117750Y129500
X132750Y129500
X147750Y129500
X162750Y129500
X177750Y129500
X192750Y129500
X207750Y129500
X222750Y129500
X237750Y129500
X252750Y129500
X267750Y129500
X282750Y129500
X297750Y129500
X297750Y114500
X282750Y114500
X267750Y114500
X252750Y114500
X237750Y114500
X222750Y114500
X207750Y114500
X192750Y114500
X177750Y114500
X162750Y114500
X147750Y114500
X132750Y114500
X117750Y114500
X102750Y114500
X87750Y114500
X72750Y114500
X57750Y114500
X42750Y114500
X27750Y114500
X12750Y114500
X12750Y99500
X27750Y99500
X42750Y99500
X57750Y99500
X72750Y99500
X87750Y99500
X102750Y99500
X117750Y99500
X132750Y99500
X147750Y99500
X162750Y99500
X177750Y99500
X192750Y99500
X207750Y99500
X222750Y99500
X237750Y99500
X252750Y99500
X267750Y99500
X282750Y99500
X297750Y99500
X12750Y84500
X27750Y84500
X42750Y84500
X57750Y84500
X72750Y84500
X87750Y84500
X102750Y84500
X117750Y84500
X132750Y84500
X147750Y84500
X162750Y84500
X177750Y84500
X192750Y84500
X207750Y84500
X222750Y84500
X237750Y84500
X252750Y84500
X267750Y84500
X282750Y84500
X297750Y84500
X12750Y69500
X27750Y69500
X42750Y69500
X57750Y69500
X72750Y69500
X87750Y69500
X102750Y69500
X117750Y69500
X132750Y69500
X147750Y69500
X162750Y69500
X177750Y69500
X192750Y69500
X207750Y69500
X222750Y69500
X237750Y69500
X252750Y69500
X267750Y69500
X282750Y69500
X297750Y69500
X297750Y54500
X282750Y54500
X267750Y54500
X252750Y54500
X237750Y54500
X222750Y54500
X207750Y54500
X192750Y54500
X177750Y54500
X162750Y54500
X147750Y54500
X132750Y54500
X117750Y54500
X102750Y54500
X87750Y54500
X72750Y54500
X57750Y54500
X42750Y54500
X27750Y54500
X12750Y54500
X27750Y39500
X42750Y39500
X57750Y39500
X72750Y39500
X87750Y39500
X102750Y39500
X117750Y39500
X132750Y39500
X147750Y39500
X162750Y39500
X177750Y39500
X192750Y39500
X207750Y39500
X222750Y39500
X237750Y39500
X252750Y39500
X267750Y39500
X282750Y39500
X297750Y39500
X297750Y24500
X282750Y24500
X267750Y24500
X252750Y24500
X237750Y24500
X222750Y24500
X207750Y24500
X192750Y24500
X177750Y24500
X162750Y24500
X147750Y24500
X132750Y24500
X117750Y24500
X102750Y24500
X87750Y24500
X117750Y9500
X102750Y9500
X26305Y12382
X72750Y9500
X179000Y9500
X192750Y9500
X207750Y9500
X222750Y9500
X237750Y9500
X252750Y9500
X267750Y9500
X280000Y9500
X299500Y26000
X12750Y39500
X72750Y24500
X57750Y27000
X11250Y26500
X28250Y27000
X299500Y27000
X299500Y28000
X299500Y29000
X295500Y19500
X294500Y19500
X296500Y19500
X297500Y19500
X298500Y19500
X19350Y25129
X66500Y24735
X28083Y7810
X27321Y10985
X32560Y13144
X42180Y9715
X39640Y11620
X35060Y14160
X307307Y24045
X307457Y22445
X65500Y24354
X20098Y24329
X18680Y20520
X21950Y20550
X137500Y35000
X268500Y35000
X268500Y31500
X121000Y31500
X87750Y9500
X15750Y31800
X31150Y44100
X34350Y40900
X20600Y25950
X15133Y26117
X45750Y27000
X31250Y28500
X295500Y60000
X9750Y40500
X6250Y27000
X295500Y44500
X70000Y22150
X12750Y33500
X295500Y30000
X70250Y10000
X280000Y180000
X10250Y160000
X10250Y145000
X295500Y165000
X295500Y150000
X10250Y130000
X10250Y115000
X295500Y135000
X10250Y100000
X295500Y120000
X10250Y85000
X295500Y105000
X295500Y90000
X10250Y70000
X10250Y55000
X295500Y75000
X15290Y14830
X57800Y23494
X26305Y20150
X33500Y20500
X302500Y27500
X298800Y21200
X8000Y15500
X36330Y16457
X53737Y21031
X7284Y21787
X25250Y30000
M30