G04 EAGLE Gerber RS-274X export*
G75*
%MOMM*%
%FSLAX34Y34*%
%LPD*%
%IN*%
%IPPOS*%
%AMOC8*
5,1,8,0,0,1.08239X$1,22.5*%
G01*
%ADD10C,0.203200*%
%ADD11C,0.000000*%
%ADD12C,0.010000*%
%ADD13C,0.254000*%


D10*
X3055000Y0D02*
X3055000Y170000D01*
X3155000Y170000D01*
X3155000Y470000D01*
X3055000Y470000D01*
X3055000Y1971250D01*
X0Y1971250D01*
X0Y0D01*
X585630Y0D01*
X585630Y193200D01*
X645320Y193200D01*
X645320Y0D01*
X3055000Y0D01*
D11*
X2963490Y75000D02*
X2963495Y75405D01*
X2963510Y75810D01*
X2963535Y76215D01*
X2963570Y76618D01*
X2963614Y77021D01*
X2963669Y77423D01*
X2963733Y77823D01*
X2963807Y78221D01*
X2963891Y78617D01*
X2963985Y79012D01*
X2964088Y79403D01*
X2964201Y79793D01*
X2964323Y80179D01*
X2964455Y80562D01*
X2964596Y80942D01*
X2964747Y81318D01*
X2964906Y81691D01*
X2965075Y82059D01*
X2965253Y82423D01*
X2965439Y82783D01*
X2965635Y83138D01*
X2965839Y83488D01*
X2966051Y83833D01*
X2966272Y84172D01*
X2966502Y84507D01*
X2966739Y84835D01*
X2966984Y85157D01*
X2967238Y85474D01*
X2967498Y85784D01*
X2967767Y86087D01*
X2968043Y86384D01*
X2968326Y86674D01*
X2968616Y86957D01*
X2968913Y87233D01*
X2969216Y87502D01*
X2969526Y87762D01*
X2969843Y88016D01*
X2970165Y88261D01*
X2970493Y88498D01*
X2970828Y88728D01*
X2971167Y88949D01*
X2971512Y89161D01*
X2971862Y89365D01*
X2972217Y89561D01*
X2972577Y89747D01*
X2972941Y89925D01*
X2973309Y90094D01*
X2973682Y90253D01*
X2974058Y90404D01*
X2974438Y90545D01*
X2974821Y90677D01*
X2975207Y90799D01*
X2975597Y90912D01*
X2975988Y91015D01*
X2976383Y91109D01*
X2976779Y91193D01*
X2977177Y91267D01*
X2977577Y91331D01*
X2977979Y91386D01*
X2978382Y91430D01*
X2978785Y91465D01*
X2979190Y91490D01*
X2979595Y91505D01*
X2980000Y91510D01*
X2980405Y91505D01*
X2980810Y91490D01*
X2981215Y91465D01*
X2981618Y91430D01*
X2982021Y91386D01*
X2982423Y91331D01*
X2982823Y91267D01*
X2983221Y91193D01*
X2983617Y91109D01*
X2984012Y91015D01*
X2984403Y90912D01*
X2984793Y90799D01*
X2985179Y90677D01*
X2985562Y90545D01*
X2985942Y90404D01*
X2986318Y90253D01*
X2986691Y90094D01*
X2987059Y89925D01*
X2987423Y89747D01*
X2987783Y89561D01*
X2988138Y89365D01*
X2988488Y89161D01*
X2988833Y88949D01*
X2989172Y88728D01*
X2989507Y88498D01*
X2989835Y88261D01*
X2990157Y88016D01*
X2990474Y87762D01*
X2990784Y87502D01*
X2991087Y87233D01*
X2991384Y86957D01*
X2991674Y86674D01*
X2991957Y86384D01*
X2992233Y86087D01*
X2992502Y85784D01*
X2992762Y85474D01*
X2993016Y85157D01*
X2993261Y84835D01*
X2993498Y84507D01*
X2993728Y84172D01*
X2993949Y83833D01*
X2994161Y83488D01*
X2994365Y83138D01*
X2994561Y82783D01*
X2994747Y82423D01*
X2994925Y82059D01*
X2995094Y81691D01*
X2995253Y81318D01*
X2995404Y80942D01*
X2995545Y80562D01*
X2995677Y80179D01*
X2995799Y79793D01*
X2995912Y79403D01*
X2996015Y79012D01*
X2996109Y78617D01*
X2996193Y78221D01*
X2996267Y77823D01*
X2996331Y77423D01*
X2996386Y77021D01*
X2996430Y76618D01*
X2996465Y76215D01*
X2996490Y75810D01*
X2996505Y75405D01*
X2996510Y75000D01*
X2996505Y74595D01*
X2996490Y74190D01*
X2996465Y73785D01*
X2996430Y73382D01*
X2996386Y72979D01*
X2996331Y72577D01*
X2996267Y72177D01*
X2996193Y71779D01*
X2996109Y71383D01*
X2996015Y70988D01*
X2995912Y70597D01*
X2995799Y70207D01*
X2995677Y69821D01*
X2995545Y69438D01*
X2995404Y69058D01*
X2995253Y68682D01*
X2995094Y68309D01*
X2994925Y67941D01*
X2994747Y67577D01*
X2994561Y67217D01*
X2994365Y66862D01*
X2994161Y66512D01*
X2993949Y66167D01*
X2993728Y65828D01*
X2993498Y65493D01*
X2993261Y65165D01*
X2993016Y64843D01*
X2992762Y64526D01*
X2992502Y64216D01*
X2992233Y63913D01*
X2991957Y63616D01*
X2991674Y63326D01*
X2991384Y63043D01*
X2991087Y62767D01*
X2990784Y62498D01*
X2990474Y62238D01*
X2990157Y61984D01*
X2989835Y61739D01*
X2989507Y61502D01*
X2989172Y61272D01*
X2988833Y61051D01*
X2988488Y60839D01*
X2988138Y60635D01*
X2987783Y60439D01*
X2987423Y60253D01*
X2987059Y60075D01*
X2986691Y59906D01*
X2986318Y59747D01*
X2985942Y59596D01*
X2985562Y59455D01*
X2985179Y59323D01*
X2984793Y59201D01*
X2984403Y59088D01*
X2984012Y58985D01*
X2983617Y58891D01*
X2983221Y58807D01*
X2982823Y58733D01*
X2982423Y58669D01*
X2982021Y58614D01*
X2981618Y58570D01*
X2981215Y58535D01*
X2980810Y58510D01*
X2980405Y58495D01*
X2980000Y58490D01*
X2979595Y58495D01*
X2979190Y58510D01*
X2978785Y58535D01*
X2978382Y58570D01*
X2977979Y58614D01*
X2977577Y58669D01*
X2977177Y58733D01*
X2976779Y58807D01*
X2976383Y58891D01*
X2975988Y58985D01*
X2975597Y59088D01*
X2975207Y59201D01*
X2974821Y59323D01*
X2974438Y59455D01*
X2974058Y59596D01*
X2973682Y59747D01*
X2973309Y59906D01*
X2972941Y60075D01*
X2972577Y60253D01*
X2972217Y60439D01*
X2971862Y60635D01*
X2971512Y60839D01*
X2971167Y61051D01*
X2970828Y61272D01*
X2970493Y61502D01*
X2970165Y61739D01*
X2969843Y61984D01*
X2969526Y62238D01*
X2969216Y62498D01*
X2968913Y62767D01*
X2968616Y63043D01*
X2968326Y63326D01*
X2968043Y63616D01*
X2967767Y63913D01*
X2967498Y64216D01*
X2967238Y64526D01*
X2966984Y64843D01*
X2966739Y65165D01*
X2966502Y65493D01*
X2966272Y65828D01*
X2966051Y66167D01*
X2965839Y66512D01*
X2965635Y66862D01*
X2965439Y67217D01*
X2965253Y67577D01*
X2965075Y67941D01*
X2964906Y68309D01*
X2964747Y68682D01*
X2964596Y69058D01*
X2964455Y69438D01*
X2964323Y69821D01*
X2964201Y70207D01*
X2964088Y70597D01*
X2963985Y70988D01*
X2963891Y71383D01*
X2963807Y71779D01*
X2963733Y72177D01*
X2963669Y72577D01*
X2963614Y72979D01*
X2963570Y73382D01*
X2963535Y73785D01*
X2963510Y74190D01*
X2963495Y74595D01*
X2963490Y75000D01*
X58490Y75000D02*
X58495Y75405D01*
X58510Y75810D01*
X58535Y76215D01*
X58570Y76618D01*
X58614Y77021D01*
X58669Y77423D01*
X58733Y77823D01*
X58807Y78221D01*
X58891Y78617D01*
X58985Y79012D01*
X59088Y79403D01*
X59201Y79793D01*
X59323Y80179D01*
X59455Y80562D01*
X59596Y80942D01*
X59747Y81318D01*
X59906Y81691D01*
X60075Y82059D01*
X60253Y82423D01*
X60439Y82783D01*
X60635Y83138D01*
X60839Y83488D01*
X61051Y83833D01*
X61272Y84172D01*
X61502Y84507D01*
X61739Y84835D01*
X61984Y85157D01*
X62238Y85474D01*
X62498Y85784D01*
X62767Y86087D01*
X63043Y86384D01*
X63326Y86674D01*
X63616Y86957D01*
X63913Y87233D01*
X64216Y87502D01*
X64526Y87762D01*
X64843Y88016D01*
X65165Y88261D01*
X65493Y88498D01*
X65828Y88728D01*
X66167Y88949D01*
X66512Y89161D01*
X66862Y89365D01*
X67217Y89561D01*
X67577Y89747D01*
X67941Y89925D01*
X68309Y90094D01*
X68682Y90253D01*
X69058Y90404D01*
X69438Y90545D01*
X69821Y90677D01*
X70207Y90799D01*
X70597Y90912D01*
X70988Y91015D01*
X71383Y91109D01*
X71779Y91193D01*
X72177Y91267D01*
X72577Y91331D01*
X72979Y91386D01*
X73382Y91430D01*
X73785Y91465D01*
X74190Y91490D01*
X74595Y91505D01*
X75000Y91510D01*
X75405Y91505D01*
X75810Y91490D01*
X76215Y91465D01*
X76618Y91430D01*
X77021Y91386D01*
X77423Y91331D01*
X77823Y91267D01*
X78221Y91193D01*
X78617Y91109D01*
X79012Y91015D01*
X79403Y90912D01*
X79793Y90799D01*
X80179Y90677D01*
X80562Y90545D01*
X80942Y90404D01*
X81318Y90253D01*
X81691Y90094D01*
X82059Y89925D01*
X82423Y89747D01*
X82783Y89561D01*
X83138Y89365D01*
X83488Y89161D01*
X83833Y88949D01*
X84172Y88728D01*
X84507Y88498D01*
X84835Y88261D01*
X85157Y88016D01*
X85474Y87762D01*
X85784Y87502D01*
X86087Y87233D01*
X86384Y86957D01*
X86674Y86674D01*
X86957Y86384D01*
X87233Y86087D01*
X87502Y85784D01*
X87762Y85474D01*
X88016Y85157D01*
X88261Y84835D01*
X88498Y84507D01*
X88728Y84172D01*
X88949Y83833D01*
X89161Y83488D01*
X89365Y83138D01*
X89561Y82783D01*
X89747Y82423D01*
X89925Y82059D01*
X90094Y81691D01*
X90253Y81318D01*
X90404Y80942D01*
X90545Y80562D01*
X90677Y80179D01*
X90799Y79793D01*
X90912Y79403D01*
X91015Y79012D01*
X91109Y78617D01*
X91193Y78221D01*
X91267Y77823D01*
X91331Y77423D01*
X91386Y77021D01*
X91430Y76618D01*
X91465Y76215D01*
X91490Y75810D01*
X91505Y75405D01*
X91510Y75000D01*
X91505Y74595D01*
X91490Y74190D01*
X91465Y73785D01*
X91430Y73382D01*
X91386Y72979D01*
X91331Y72577D01*
X91267Y72177D01*
X91193Y71779D01*
X91109Y71383D01*
X91015Y70988D01*
X90912Y70597D01*
X90799Y70207D01*
X90677Y69821D01*
X90545Y69438D01*
X90404Y69058D01*
X90253Y68682D01*
X90094Y68309D01*
X89925Y67941D01*
X89747Y67577D01*
X89561Y67217D01*
X89365Y66862D01*
X89161Y66512D01*
X88949Y66167D01*
X88728Y65828D01*
X88498Y65493D01*
X88261Y65165D01*
X88016Y64843D01*
X87762Y64526D01*
X87502Y64216D01*
X87233Y63913D01*
X86957Y63616D01*
X86674Y63326D01*
X86384Y63043D01*
X86087Y62767D01*
X85784Y62498D01*
X85474Y62238D01*
X85157Y61984D01*
X84835Y61739D01*
X84507Y61502D01*
X84172Y61272D01*
X83833Y61051D01*
X83488Y60839D01*
X83138Y60635D01*
X82783Y60439D01*
X82423Y60253D01*
X82059Y60075D01*
X81691Y59906D01*
X81318Y59747D01*
X80942Y59596D01*
X80562Y59455D01*
X80179Y59323D01*
X79793Y59201D01*
X79403Y59088D01*
X79012Y58985D01*
X78617Y58891D01*
X78221Y58807D01*
X77823Y58733D01*
X77423Y58669D01*
X77021Y58614D01*
X76618Y58570D01*
X76215Y58535D01*
X75810Y58510D01*
X75405Y58495D01*
X75000Y58490D01*
X74595Y58495D01*
X74190Y58510D01*
X73785Y58535D01*
X73382Y58570D01*
X72979Y58614D01*
X72577Y58669D01*
X72177Y58733D01*
X71779Y58807D01*
X71383Y58891D01*
X70988Y58985D01*
X70597Y59088D01*
X70207Y59201D01*
X69821Y59323D01*
X69438Y59455D01*
X69058Y59596D01*
X68682Y59747D01*
X68309Y59906D01*
X67941Y60075D01*
X67577Y60253D01*
X67217Y60439D01*
X66862Y60635D01*
X66512Y60839D01*
X66167Y61051D01*
X65828Y61272D01*
X65493Y61502D01*
X65165Y61739D01*
X64843Y61984D01*
X64526Y62238D01*
X64216Y62498D01*
X63913Y62767D01*
X63616Y63043D01*
X63326Y63326D01*
X63043Y63616D01*
X62767Y63913D01*
X62498Y64216D01*
X62238Y64526D01*
X61984Y64843D01*
X61739Y65165D01*
X61502Y65493D01*
X61272Y65828D01*
X61051Y66167D01*
X60839Y66512D01*
X60635Y66862D01*
X60439Y67217D01*
X60253Y67577D01*
X60075Y67941D01*
X59906Y68309D01*
X59747Y68682D01*
X59596Y69058D01*
X59455Y69438D01*
X59323Y69821D01*
X59201Y70207D01*
X59088Y70597D01*
X58985Y70988D01*
X58891Y71383D01*
X58807Y71779D01*
X58733Y72177D01*
X58669Y72577D01*
X58614Y72979D01*
X58570Y73382D01*
X58535Y73785D01*
X58510Y74190D01*
X58495Y74595D01*
X58490Y75000D01*
X3091350Y385530D02*
X3091352Y385643D01*
X3091358Y385757D01*
X3091368Y385870D01*
X3091382Y385982D01*
X3091399Y386094D01*
X3091421Y386206D01*
X3091447Y386316D01*
X3091476Y386426D01*
X3091509Y386534D01*
X3091546Y386642D01*
X3091587Y386747D01*
X3091631Y386852D01*
X3091679Y386955D01*
X3091730Y387056D01*
X3091785Y387155D01*
X3091844Y387252D01*
X3091906Y387347D01*
X3091971Y387440D01*
X3092039Y387531D01*
X3092110Y387619D01*
X3092185Y387705D01*
X3092262Y387788D01*
X3092342Y387868D01*
X3092425Y387945D01*
X3092511Y388020D01*
X3092599Y388091D01*
X3092690Y388159D01*
X3092783Y388224D01*
X3092878Y388286D01*
X3092975Y388345D01*
X3093074Y388400D01*
X3093175Y388451D01*
X3093278Y388499D01*
X3093383Y388543D01*
X3093488Y388584D01*
X3093596Y388621D01*
X3093704Y388654D01*
X3093814Y388683D01*
X3093924Y388709D01*
X3094036Y388731D01*
X3094148Y388748D01*
X3094260Y388762D01*
X3094373Y388772D01*
X3094487Y388778D01*
X3094600Y388780D01*
X3094713Y388778D01*
X3094827Y388772D01*
X3094940Y388762D01*
X3095052Y388748D01*
X3095164Y388731D01*
X3095276Y388709D01*
X3095386Y388683D01*
X3095496Y388654D01*
X3095604Y388621D01*
X3095712Y388584D01*
X3095817Y388543D01*
X3095922Y388499D01*
X3096025Y388451D01*
X3096126Y388400D01*
X3096225Y388345D01*
X3096322Y388286D01*
X3096417Y388224D01*
X3096510Y388159D01*
X3096601Y388091D01*
X3096689Y388020D01*
X3096775Y387945D01*
X3096858Y387868D01*
X3096938Y387788D01*
X3097015Y387705D01*
X3097090Y387619D01*
X3097161Y387531D01*
X3097229Y387440D01*
X3097294Y387347D01*
X3097356Y387252D01*
X3097415Y387155D01*
X3097470Y387056D01*
X3097521Y386955D01*
X3097569Y386852D01*
X3097613Y386747D01*
X3097654Y386642D01*
X3097691Y386534D01*
X3097724Y386426D01*
X3097753Y386316D01*
X3097779Y386206D01*
X3097801Y386094D01*
X3097818Y385982D01*
X3097832Y385870D01*
X3097842Y385757D01*
X3097848Y385643D01*
X3097850Y385530D01*
X3097848Y385417D01*
X3097842Y385303D01*
X3097832Y385190D01*
X3097818Y385078D01*
X3097801Y384966D01*
X3097779Y384854D01*
X3097753Y384744D01*
X3097724Y384634D01*
X3097691Y384526D01*
X3097654Y384418D01*
X3097613Y384313D01*
X3097569Y384208D01*
X3097521Y384105D01*
X3097470Y384004D01*
X3097415Y383905D01*
X3097356Y383808D01*
X3097294Y383713D01*
X3097229Y383620D01*
X3097161Y383529D01*
X3097090Y383441D01*
X3097015Y383355D01*
X3096938Y383272D01*
X3096858Y383192D01*
X3096775Y383115D01*
X3096689Y383040D01*
X3096601Y382969D01*
X3096510Y382901D01*
X3096417Y382836D01*
X3096322Y382774D01*
X3096225Y382715D01*
X3096126Y382660D01*
X3096025Y382609D01*
X3095922Y382561D01*
X3095817Y382517D01*
X3095712Y382476D01*
X3095604Y382439D01*
X3095496Y382406D01*
X3095386Y382377D01*
X3095276Y382351D01*
X3095164Y382329D01*
X3095052Y382312D01*
X3094940Y382298D01*
X3094827Y382288D01*
X3094713Y382282D01*
X3094600Y382280D01*
X3094487Y382282D01*
X3094373Y382288D01*
X3094260Y382298D01*
X3094148Y382312D01*
X3094036Y382329D01*
X3093924Y382351D01*
X3093814Y382377D01*
X3093704Y382406D01*
X3093596Y382439D01*
X3093488Y382476D01*
X3093383Y382517D01*
X3093278Y382561D01*
X3093175Y382609D01*
X3093074Y382660D01*
X3092975Y382715D01*
X3092878Y382774D01*
X3092783Y382836D01*
X3092690Y382901D01*
X3092599Y382969D01*
X3092511Y383040D01*
X3092425Y383115D01*
X3092342Y383192D01*
X3092262Y383272D01*
X3092185Y383355D01*
X3092110Y383441D01*
X3092039Y383529D01*
X3091971Y383620D01*
X3091906Y383713D01*
X3091844Y383808D01*
X3091785Y383905D01*
X3091730Y384004D01*
X3091679Y384105D01*
X3091631Y384208D01*
X3091587Y384313D01*
X3091546Y384418D01*
X3091509Y384526D01*
X3091476Y384634D01*
X3091447Y384744D01*
X3091421Y384854D01*
X3091399Y384966D01*
X3091382Y385078D01*
X3091368Y385190D01*
X3091358Y385303D01*
X3091352Y385417D01*
X3091350Y385530D01*
X3091350Y443330D02*
X3091352Y443443D01*
X3091358Y443557D01*
X3091368Y443670D01*
X3091382Y443782D01*
X3091399Y443894D01*
X3091421Y444006D01*
X3091447Y444116D01*
X3091476Y444226D01*
X3091509Y444334D01*
X3091546Y444442D01*
X3091587Y444547D01*
X3091631Y444652D01*
X3091679Y444755D01*
X3091730Y444856D01*
X3091785Y444955D01*
X3091844Y445052D01*
X3091906Y445147D01*
X3091971Y445240D01*
X3092039Y445331D01*
X3092110Y445419D01*
X3092185Y445505D01*
X3092262Y445588D01*
X3092342Y445668D01*
X3092425Y445745D01*
X3092511Y445820D01*
X3092599Y445891D01*
X3092690Y445959D01*
X3092783Y446024D01*
X3092878Y446086D01*
X3092975Y446145D01*
X3093074Y446200D01*
X3093175Y446251D01*
X3093278Y446299D01*
X3093383Y446343D01*
X3093488Y446384D01*
X3093596Y446421D01*
X3093704Y446454D01*
X3093814Y446483D01*
X3093924Y446509D01*
X3094036Y446531D01*
X3094148Y446548D01*
X3094260Y446562D01*
X3094373Y446572D01*
X3094487Y446578D01*
X3094600Y446580D01*
X3094713Y446578D01*
X3094827Y446572D01*
X3094940Y446562D01*
X3095052Y446548D01*
X3095164Y446531D01*
X3095276Y446509D01*
X3095386Y446483D01*
X3095496Y446454D01*
X3095604Y446421D01*
X3095712Y446384D01*
X3095817Y446343D01*
X3095922Y446299D01*
X3096025Y446251D01*
X3096126Y446200D01*
X3096225Y446145D01*
X3096322Y446086D01*
X3096417Y446024D01*
X3096510Y445959D01*
X3096601Y445891D01*
X3096689Y445820D01*
X3096775Y445745D01*
X3096858Y445668D01*
X3096938Y445588D01*
X3097015Y445505D01*
X3097090Y445419D01*
X3097161Y445331D01*
X3097229Y445240D01*
X3097294Y445147D01*
X3097356Y445052D01*
X3097415Y444955D01*
X3097470Y444856D01*
X3097521Y444755D01*
X3097569Y444652D01*
X3097613Y444547D01*
X3097654Y444442D01*
X3097691Y444334D01*
X3097724Y444226D01*
X3097753Y444116D01*
X3097779Y444006D01*
X3097801Y443894D01*
X3097818Y443782D01*
X3097832Y443670D01*
X3097842Y443557D01*
X3097848Y443443D01*
X3097850Y443330D01*
X3097848Y443217D01*
X3097842Y443103D01*
X3097832Y442990D01*
X3097818Y442878D01*
X3097801Y442766D01*
X3097779Y442654D01*
X3097753Y442544D01*
X3097724Y442434D01*
X3097691Y442326D01*
X3097654Y442218D01*
X3097613Y442113D01*
X3097569Y442008D01*
X3097521Y441905D01*
X3097470Y441804D01*
X3097415Y441705D01*
X3097356Y441608D01*
X3097294Y441513D01*
X3097229Y441420D01*
X3097161Y441329D01*
X3097090Y441241D01*
X3097015Y441155D01*
X3096938Y441072D01*
X3096858Y440992D01*
X3096775Y440915D01*
X3096689Y440840D01*
X3096601Y440769D01*
X3096510Y440701D01*
X3096417Y440636D01*
X3096322Y440574D01*
X3096225Y440515D01*
X3096126Y440460D01*
X3096025Y440409D01*
X3095922Y440361D01*
X3095817Y440317D01*
X3095712Y440276D01*
X3095604Y440239D01*
X3095496Y440206D01*
X3095386Y440177D01*
X3095276Y440151D01*
X3095164Y440129D01*
X3095052Y440112D01*
X3094940Y440098D01*
X3094827Y440088D01*
X3094713Y440082D01*
X3094600Y440080D01*
X3094487Y440082D01*
X3094373Y440088D01*
X3094260Y440098D01*
X3094148Y440112D01*
X3094036Y440129D01*
X3093924Y440151D01*
X3093814Y440177D01*
X3093704Y440206D01*
X3093596Y440239D01*
X3093488Y440276D01*
X3093383Y440317D01*
X3093278Y440361D01*
X3093175Y440409D01*
X3093074Y440460D01*
X3092975Y440515D01*
X3092878Y440574D01*
X3092783Y440636D01*
X3092690Y440701D01*
X3092599Y440769D01*
X3092511Y440840D01*
X3092425Y440915D01*
X3092342Y440992D01*
X3092262Y441072D01*
X3092185Y441155D01*
X3092110Y441241D01*
X3092039Y441329D01*
X3091971Y441420D01*
X3091906Y441513D01*
X3091844Y441608D01*
X3091785Y441705D01*
X3091730Y441804D01*
X3091679Y441905D01*
X3091631Y442008D01*
X3091587Y442113D01*
X3091546Y442218D01*
X3091509Y442326D01*
X3091476Y442434D01*
X3091447Y442544D01*
X3091421Y442654D01*
X3091399Y442766D01*
X3091382Y442878D01*
X3091368Y442990D01*
X3091358Y443103D01*
X3091352Y443217D01*
X3091350Y443330D01*
D12*
X3127950Y368230D02*
X3134150Y368230D01*
X3134150Y374230D02*
X3127950Y374230D01*
X3127842Y374228D01*
X3127734Y374222D01*
X3127626Y374212D01*
X3127518Y374199D01*
X3127411Y374181D01*
X3127305Y374160D01*
X3127200Y374135D01*
X3127095Y374106D01*
X3126992Y374073D01*
X3126890Y374037D01*
X3126789Y373996D01*
X3126690Y373953D01*
X3126593Y373905D01*
X3126497Y373855D01*
X3126403Y373801D01*
X3126312Y373743D01*
X3126222Y373682D01*
X3126134Y373618D01*
X3126049Y373551D01*
X3125967Y373481D01*
X3125887Y373408D01*
X3125810Y373332D01*
X3125735Y373253D01*
X3125664Y373172D01*
X3125595Y373088D01*
X3125529Y373002D01*
X3125467Y372914D01*
X3125408Y372823D01*
X3125352Y372730D01*
X3125299Y372635D01*
X3125250Y372539D01*
X3125205Y372440D01*
X3125163Y372340D01*
X3125125Y372239D01*
X3125090Y372136D01*
X3125059Y372033D01*
X3125032Y371928D01*
X3125009Y371822D01*
X3124990Y371715D01*
X3124974Y371608D01*
X3124962Y371500D01*
X3124954Y371392D01*
X3124950Y371284D01*
X3124950Y371176D01*
X3124954Y371068D01*
X3124962Y370960D01*
X3124974Y370852D01*
X3124990Y370745D01*
X3125009Y370638D01*
X3125032Y370532D01*
X3125059Y370427D01*
X3125090Y370324D01*
X3125125Y370221D01*
X3125163Y370120D01*
X3125205Y370020D01*
X3125250Y369921D01*
X3125299Y369825D01*
X3125352Y369730D01*
X3125408Y369637D01*
X3125467Y369546D01*
X3125529Y369458D01*
X3125595Y369372D01*
X3125664Y369288D01*
X3125735Y369207D01*
X3125810Y369128D01*
X3125887Y369052D01*
X3125967Y368979D01*
X3126049Y368909D01*
X3126134Y368842D01*
X3126222Y368778D01*
X3126312Y368717D01*
X3126403Y368659D01*
X3126497Y368605D01*
X3126593Y368555D01*
X3126690Y368507D01*
X3126789Y368464D01*
X3126890Y368423D01*
X3126992Y368387D01*
X3127095Y368354D01*
X3127200Y368325D01*
X3127305Y368300D01*
X3127411Y368279D01*
X3127518Y368261D01*
X3127626Y368248D01*
X3127734Y368238D01*
X3127842Y368232D01*
X3127950Y368230D01*
X3134150Y368230D02*
X3134258Y368232D01*
X3134366Y368238D01*
X3134474Y368248D01*
X3134582Y368261D01*
X3134689Y368279D01*
X3134795Y368300D01*
X3134900Y368325D01*
X3135005Y368354D01*
X3135108Y368387D01*
X3135210Y368423D01*
X3135311Y368464D01*
X3135410Y368507D01*
X3135507Y368555D01*
X3135603Y368605D01*
X3135697Y368659D01*
X3135788Y368717D01*
X3135878Y368778D01*
X3135966Y368842D01*
X3136051Y368909D01*
X3136133Y368979D01*
X3136213Y369052D01*
X3136290Y369128D01*
X3136365Y369207D01*
X3136436Y369288D01*
X3136505Y369372D01*
X3136571Y369458D01*
X3136633Y369546D01*
X3136692Y369637D01*
X3136748Y369730D01*
X3136801Y369825D01*
X3136850Y369921D01*
X3136895Y370020D01*
X3136937Y370120D01*
X3136975Y370221D01*
X3137010Y370324D01*
X3137041Y370427D01*
X3137068Y370532D01*
X3137091Y370638D01*
X3137110Y370745D01*
X3137126Y370852D01*
X3137138Y370960D01*
X3137146Y371068D01*
X3137150Y371176D01*
X3137150Y371284D01*
X3137146Y371392D01*
X3137138Y371500D01*
X3137126Y371608D01*
X3137110Y371715D01*
X3137091Y371822D01*
X3137068Y371928D01*
X3137041Y372033D01*
X3137010Y372136D01*
X3136975Y372239D01*
X3136937Y372340D01*
X3136895Y372440D01*
X3136850Y372539D01*
X3136801Y372635D01*
X3136748Y372730D01*
X3136692Y372823D01*
X3136633Y372914D01*
X3136571Y373002D01*
X3136505Y373088D01*
X3136436Y373172D01*
X3136365Y373253D01*
X3136290Y373332D01*
X3136213Y373408D01*
X3136133Y373481D01*
X3136051Y373551D01*
X3135966Y373618D01*
X3135878Y373682D01*
X3135788Y373743D01*
X3135697Y373801D01*
X3135603Y373855D01*
X3135507Y373905D01*
X3135410Y373953D01*
X3135311Y373996D01*
X3135210Y374037D01*
X3135108Y374073D01*
X3135005Y374106D01*
X3134900Y374135D01*
X3134795Y374160D01*
X3134689Y374181D01*
X3134582Y374199D01*
X3134474Y374212D01*
X3134366Y374222D01*
X3134258Y374228D01*
X3134150Y374230D01*
X3094800Y368230D02*
X3083800Y368230D01*
X3083800Y374230D02*
X3094800Y374230D01*
X3094908Y374228D01*
X3095016Y374222D01*
X3095124Y374212D01*
X3095232Y374199D01*
X3095339Y374181D01*
X3095445Y374160D01*
X3095550Y374135D01*
X3095655Y374106D01*
X3095758Y374073D01*
X3095860Y374037D01*
X3095961Y373996D01*
X3096060Y373953D01*
X3096157Y373905D01*
X3096253Y373855D01*
X3096347Y373801D01*
X3096438Y373743D01*
X3096528Y373682D01*
X3096616Y373618D01*
X3096701Y373551D01*
X3096783Y373481D01*
X3096863Y373408D01*
X3096940Y373332D01*
X3097015Y373253D01*
X3097086Y373172D01*
X3097155Y373088D01*
X3097221Y373002D01*
X3097283Y372914D01*
X3097342Y372823D01*
X3097398Y372730D01*
X3097451Y372635D01*
X3097500Y372539D01*
X3097545Y372440D01*
X3097587Y372340D01*
X3097625Y372239D01*
X3097660Y372136D01*
X3097691Y372033D01*
X3097718Y371928D01*
X3097741Y371822D01*
X3097760Y371715D01*
X3097776Y371608D01*
X3097788Y371500D01*
X3097796Y371392D01*
X3097800Y371284D01*
X3097800Y371176D01*
X3097796Y371068D01*
X3097788Y370960D01*
X3097776Y370852D01*
X3097760Y370745D01*
X3097741Y370638D01*
X3097718Y370532D01*
X3097691Y370427D01*
X3097660Y370324D01*
X3097625Y370221D01*
X3097587Y370120D01*
X3097545Y370020D01*
X3097500Y369921D01*
X3097451Y369825D01*
X3097398Y369730D01*
X3097342Y369637D01*
X3097283Y369546D01*
X3097221Y369458D01*
X3097155Y369372D01*
X3097086Y369288D01*
X3097015Y369207D01*
X3096940Y369128D01*
X3096863Y369052D01*
X3096783Y368979D01*
X3096701Y368909D01*
X3096616Y368842D01*
X3096528Y368778D01*
X3096438Y368717D01*
X3096347Y368659D01*
X3096253Y368605D01*
X3096157Y368555D01*
X3096060Y368507D01*
X3095961Y368464D01*
X3095860Y368423D01*
X3095758Y368387D01*
X3095655Y368354D01*
X3095550Y368325D01*
X3095445Y368300D01*
X3095339Y368279D01*
X3095232Y368261D01*
X3095124Y368248D01*
X3095016Y368238D01*
X3094908Y368232D01*
X3094800Y368230D01*
X3083800Y368230D02*
X3083692Y368232D01*
X3083584Y368238D01*
X3083476Y368248D01*
X3083368Y368261D01*
X3083261Y368279D01*
X3083155Y368300D01*
X3083050Y368325D01*
X3082945Y368354D01*
X3082842Y368387D01*
X3082740Y368423D01*
X3082639Y368464D01*
X3082540Y368507D01*
X3082443Y368555D01*
X3082347Y368605D01*
X3082253Y368659D01*
X3082162Y368717D01*
X3082072Y368778D01*
X3081984Y368842D01*
X3081899Y368909D01*
X3081817Y368979D01*
X3081737Y369052D01*
X3081660Y369128D01*
X3081585Y369207D01*
X3081514Y369288D01*
X3081445Y369372D01*
X3081379Y369458D01*
X3081317Y369546D01*
X3081258Y369637D01*
X3081202Y369730D01*
X3081149Y369825D01*
X3081100Y369921D01*
X3081055Y370020D01*
X3081013Y370120D01*
X3080975Y370221D01*
X3080940Y370324D01*
X3080909Y370427D01*
X3080882Y370532D01*
X3080859Y370638D01*
X3080840Y370745D01*
X3080824Y370852D01*
X3080812Y370960D01*
X3080804Y371068D01*
X3080800Y371176D01*
X3080800Y371284D01*
X3080804Y371392D01*
X3080812Y371500D01*
X3080824Y371608D01*
X3080840Y371715D01*
X3080859Y371822D01*
X3080882Y371928D01*
X3080909Y372033D01*
X3080940Y372136D01*
X3080975Y372239D01*
X3081013Y372340D01*
X3081055Y372440D01*
X3081100Y372539D01*
X3081149Y372635D01*
X3081202Y372730D01*
X3081258Y372823D01*
X3081317Y372914D01*
X3081379Y373002D01*
X3081445Y373088D01*
X3081514Y373172D01*
X3081585Y373253D01*
X3081660Y373332D01*
X3081737Y373408D01*
X3081817Y373481D01*
X3081899Y373551D01*
X3081984Y373618D01*
X3082072Y373682D01*
X3082162Y373743D01*
X3082253Y373801D01*
X3082347Y373855D01*
X3082443Y373905D01*
X3082540Y373953D01*
X3082639Y373996D01*
X3082740Y374037D01*
X3082842Y374073D01*
X3082945Y374106D01*
X3083050Y374135D01*
X3083155Y374160D01*
X3083261Y374181D01*
X3083368Y374199D01*
X3083476Y374212D01*
X3083584Y374222D01*
X3083692Y374228D01*
X3083800Y374230D01*
X3127950Y454630D02*
X3134150Y454630D01*
X3134150Y460630D02*
X3127950Y460630D01*
X3127842Y460628D01*
X3127734Y460622D01*
X3127626Y460612D01*
X3127518Y460599D01*
X3127411Y460581D01*
X3127305Y460560D01*
X3127200Y460535D01*
X3127095Y460506D01*
X3126992Y460473D01*
X3126890Y460437D01*
X3126789Y460396D01*
X3126690Y460353D01*
X3126593Y460305D01*
X3126497Y460255D01*
X3126403Y460201D01*
X3126312Y460143D01*
X3126222Y460082D01*
X3126134Y460018D01*
X3126049Y459951D01*
X3125967Y459881D01*
X3125887Y459808D01*
X3125810Y459732D01*
X3125735Y459653D01*
X3125664Y459572D01*
X3125595Y459488D01*
X3125529Y459402D01*
X3125467Y459314D01*
X3125408Y459223D01*
X3125352Y459130D01*
X3125299Y459035D01*
X3125250Y458939D01*
X3125205Y458840D01*
X3125163Y458740D01*
X3125125Y458639D01*
X3125090Y458536D01*
X3125059Y458433D01*
X3125032Y458328D01*
X3125009Y458222D01*
X3124990Y458115D01*
X3124974Y458008D01*
X3124962Y457900D01*
X3124954Y457792D01*
X3124950Y457684D01*
X3124950Y457576D01*
X3124954Y457468D01*
X3124962Y457360D01*
X3124974Y457252D01*
X3124990Y457145D01*
X3125009Y457038D01*
X3125032Y456932D01*
X3125059Y456827D01*
X3125090Y456724D01*
X3125125Y456621D01*
X3125163Y456520D01*
X3125205Y456420D01*
X3125250Y456321D01*
X3125299Y456225D01*
X3125352Y456130D01*
X3125408Y456037D01*
X3125467Y455946D01*
X3125529Y455858D01*
X3125595Y455772D01*
X3125664Y455688D01*
X3125735Y455607D01*
X3125810Y455528D01*
X3125887Y455452D01*
X3125967Y455379D01*
X3126049Y455309D01*
X3126134Y455242D01*
X3126222Y455178D01*
X3126312Y455117D01*
X3126403Y455059D01*
X3126497Y455005D01*
X3126593Y454955D01*
X3126690Y454907D01*
X3126789Y454864D01*
X3126890Y454823D01*
X3126992Y454787D01*
X3127095Y454754D01*
X3127200Y454725D01*
X3127305Y454700D01*
X3127411Y454679D01*
X3127518Y454661D01*
X3127626Y454648D01*
X3127734Y454638D01*
X3127842Y454632D01*
X3127950Y454630D01*
X3134150Y454630D02*
X3134258Y454632D01*
X3134366Y454638D01*
X3134474Y454648D01*
X3134582Y454661D01*
X3134689Y454679D01*
X3134795Y454700D01*
X3134900Y454725D01*
X3135005Y454754D01*
X3135108Y454787D01*
X3135210Y454823D01*
X3135311Y454864D01*
X3135410Y454907D01*
X3135507Y454955D01*
X3135603Y455005D01*
X3135697Y455059D01*
X3135788Y455117D01*
X3135878Y455178D01*
X3135966Y455242D01*
X3136051Y455309D01*
X3136133Y455379D01*
X3136213Y455452D01*
X3136290Y455528D01*
X3136365Y455607D01*
X3136436Y455688D01*
X3136505Y455772D01*
X3136571Y455858D01*
X3136633Y455946D01*
X3136692Y456037D01*
X3136748Y456130D01*
X3136801Y456225D01*
X3136850Y456321D01*
X3136895Y456420D01*
X3136937Y456520D01*
X3136975Y456621D01*
X3137010Y456724D01*
X3137041Y456827D01*
X3137068Y456932D01*
X3137091Y457038D01*
X3137110Y457145D01*
X3137126Y457252D01*
X3137138Y457360D01*
X3137146Y457468D01*
X3137150Y457576D01*
X3137150Y457684D01*
X3137146Y457792D01*
X3137138Y457900D01*
X3137126Y458008D01*
X3137110Y458115D01*
X3137091Y458222D01*
X3137068Y458328D01*
X3137041Y458433D01*
X3137010Y458536D01*
X3136975Y458639D01*
X3136937Y458740D01*
X3136895Y458840D01*
X3136850Y458939D01*
X3136801Y459035D01*
X3136748Y459130D01*
X3136692Y459223D01*
X3136633Y459314D01*
X3136571Y459402D01*
X3136505Y459488D01*
X3136436Y459572D01*
X3136365Y459653D01*
X3136290Y459732D01*
X3136213Y459808D01*
X3136133Y459881D01*
X3136051Y459951D01*
X3135966Y460018D01*
X3135878Y460082D01*
X3135788Y460143D01*
X3135697Y460201D01*
X3135603Y460255D01*
X3135507Y460305D01*
X3135410Y460353D01*
X3135311Y460396D01*
X3135210Y460437D01*
X3135108Y460473D01*
X3135005Y460506D01*
X3134900Y460535D01*
X3134795Y460560D01*
X3134689Y460581D01*
X3134582Y460599D01*
X3134474Y460612D01*
X3134366Y460622D01*
X3134258Y460628D01*
X3134150Y460630D01*
X3094800Y454630D02*
X3083800Y454630D01*
X3083800Y460630D02*
X3094800Y460630D01*
X3094908Y460628D01*
X3095016Y460622D01*
X3095124Y460612D01*
X3095232Y460599D01*
X3095339Y460581D01*
X3095445Y460560D01*
X3095550Y460535D01*
X3095655Y460506D01*
X3095758Y460473D01*
X3095860Y460437D01*
X3095961Y460396D01*
X3096060Y460353D01*
X3096157Y460305D01*
X3096253Y460255D01*
X3096347Y460201D01*
X3096438Y460143D01*
X3096528Y460082D01*
X3096616Y460018D01*
X3096701Y459951D01*
X3096783Y459881D01*
X3096863Y459808D01*
X3096940Y459732D01*
X3097015Y459653D01*
X3097086Y459572D01*
X3097155Y459488D01*
X3097221Y459402D01*
X3097283Y459314D01*
X3097342Y459223D01*
X3097398Y459130D01*
X3097451Y459035D01*
X3097500Y458939D01*
X3097545Y458840D01*
X3097587Y458740D01*
X3097625Y458639D01*
X3097660Y458536D01*
X3097691Y458433D01*
X3097718Y458328D01*
X3097741Y458222D01*
X3097760Y458115D01*
X3097776Y458008D01*
X3097788Y457900D01*
X3097796Y457792D01*
X3097800Y457684D01*
X3097800Y457576D01*
X3097796Y457468D01*
X3097788Y457360D01*
X3097776Y457252D01*
X3097760Y457145D01*
X3097741Y457038D01*
X3097718Y456932D01*
X3097691Y456827D01*
X3097660Y456724D01*
X3097625Y456621D01*
X3097587Y456520D01*
X3097545Y456420D01*
X3097500Y456321D01*
X3097451Y456225D01*
X3097398Y456130D01*
X3097342Y456037D01*
X3097283Y455946D01*
X3097221Y455858D01*
X3097155Y455772D01*
X3097086Y455688D01*
X3097015Y455607D01*
X3096940Y455528D01*
X3096863Y455452D01*
X3096783Y455379D01*
X3096701Y455309D01*
X3096616Y455242D01*
X3096528Y455178D01*
X3096438Y455117D01*
X3096347Y455059D01*
X3096253Y455005D01*
X3096157Y454955D01*
X3096060Y454907D01*
X3095961Y454864D01*
X3095860Y454823D01*
X3095758Y454787D01*
X3095655Y454754D01*
X3095550Y454725D01*
X3095445Y454700D01*
X3095339Y454679D01*
X3095232Y454661D01*
X3095124Y454648D01*
X3095016Y454638D01*
X3094908Y454632D01*
X3094800Y454630D01*
X3083800Y454630D02*
X3083692Y454632D01*
X3083584Y454638D01*
X3083476Y454648D01*
X3083368Y454661D01*
X3083261Y454679D01*
X3083155Y454700D01*
X3083050Y454725D01*
X3082945Y454754D01*
X3082842Y454787D01*
X3082740Y454823D01*
X3082639Y454864D01*
X3082540Y454907D01*
X3082443Y454955D01*
X3082347Y455005D01*
X3082253Y455059D01*
X3082162Y455117D01*
X3082072Y455178D01*
X3081984Y455242D01*
X3081899Y455309D01*
X3081817Y455379D01*
X3081737Y455452D01*
X3081660Y455528D01*
X3081585Y455607D01*
X3081514Y455688D01*
X3081445Y455772D01*
X3081379Y455858D01*
X3081317Y455946D01*
X3081258Y456037D01*
X3081202Y456130D01*
X3081149Y456225D01*
X3081100Y456321D01*
X3081055Y456420D01*
X3081013Y456520D01*
X3080975Y456621D01*
X3080940Y456724D01*
X3080909Y456827D01*
X3080882Y456932D01*
X3080859Y457038D01*
X3080840Y457145D01*
X3080824Y457252D01*
X3080812Y457360D01*
X3080804Y457468D01*
X3080800Y457576D01*
X3080800Y457684D01*
X3080804Y457792D01*
X3080812Y457900D01*
X3080824Y458008D01*
X3080840Y458115D01*
X3080859Y458222D01*
X3080882Y458328D01*
X3080909Y458433D01*
X3080940Y458536D01*
X3080975Y458639D01*
X3081013Y458740D01*
X3081055Y458840D01*
X3081100Y458939D01*
X3081149Y459035D01*
X3081202Y459130D01*
X3081258Y459223D01*
X3081317Y459314D01*
X3081379Y459402D01*
X3081445Y459488D01*
X3081514Y459572D01*
X3081585Y459653D01*
X3081660Y459732D01*
X3081737Y459808D01*
X3081817Y459881D01*
X3081899Y459951D01*
X3081984Y460018D01*
X3082072Y460082D01*
X3082162Y460143D01*
X3082253Y460201D01*
X3082347Y460255D01*
X3082443Y460305D01*
X3082540Y460353D01*
X3082639Y460396D01*
X3082740Y460437D01*
X3082842Y460473D01*
X3082945Y460506D01*
X3083050Y460535D01*
X3083155Y460560D01*
X3083261Y460581D01*
X3083368Y460599D01*
X3083476Y460612D01*
X3083584Y460622D01*
X3083692Y460628D01*
X3083800Y460630D01*
D11*
X3113000Y241000D02*
X3113002Y241154D01*
X3113008Y241309D01*
X3113018Y241463D01*
X3113032Y241617D01*
X3113050Y241770D01*
X3113071Y241923D01*
X3113097Y242076D01*
X3113127Y242227D01*
X3113160Y242378D01*
X3113198Y242528D01*
X3113239Y242677D01*
X3113284Y242825D01*
X3113333Y242971D01*
X3113386Y243117D01*
X3113442Y243260D01*
X3113502Y243403D01*
X3113566Y243543D01*
X3113633Y243683D01*
X3113704Y243820D01*
X3113778Y243955D01*
X3113856Y244089D01*
X3113937Y244220D01*
X3114022Y244349D01*
X3114110Y244477D01*
X3114201Y244601D01*
X3114295Y244724D01*
X3114393Y244844D01*
X3114493Y244961D01*
X3114597Y245076D01*
X3114703Y245188D01*
X3114812Y245297D01*
X3114924Y245403D01*
X3115039Y245507D01*
X3115156Y245607D01*
X3115276Y245705D01*
X3115399Y245799D01*
X3115523Y245890D01*
X3115651Y245978D01*
X3115780Y246063D01*
X3115911Y246144D01*
X3116045Y246222D01*
X3116180Y246296D01*
X3116317Y246367D01*
X3116457Y246434D01*
X3116597Y246498D01*
X3116740Y246558D01*
X3116883Y246614D01*
X3117029Y246667D01*
X3117175Y246716D01*
X3117323Y246761D01*
X3117472Y246802D01*
X3117622Y246840D01*
X3117773Y246873D01*
X3117924Y246903D01*
X3118077Y246929D01*
X3118230Y246950D01*
X3118383Y246968D01*
X3118537Y246982D01*
X3118691Y246992D01*
X3118846Y246998D01*
X3119000Y247000D01*
X3119154Y246998D01*
X3119309Y246992D01*
X3119463Y246982D01*
X3119617Y246968D01*
X3119770Y246950D01*
X3119923Y246929D01*
X3120076Y246903D01*
X3120227Y246873D01*
X3120378Y246840D01*
X3120528Y246802D01*
X3120677Y246761D01*
X3120825Y246716D01*
X3120971Y246667D01*
X3121117Y246614D01*
X3121260Y246558D01*
X3121403Y246498D01*
X3121543Y246434D01*
X3121683Y246367D01*
X3121820Y246296D01*
X3121955Y246222D01*
X3122089Y246144D01*
X3122220Y246063D01*
X3122349Y245978D01*
X3122477Y245890D01*
X3122601Y245799D01*
X3122724Y245705D01*
X3122844Y245607D01*
X3122961Y245507D01*
X3123076Y245403D01*
X3123188Y245297D01*
X3123297Y245188D01*
X3123403Y245076D01*
X3123507Y244961D01*
X3123607Y244844D01*
X3123705Y244724D01*
X3123799Y244601D01*
X3123890Y244477D01*
X3123978Y244349D01*
X3124063Y244220D01*
X3124144Y244089D01*
X3124222Y243955D01*
X3124296Y243820D01*
X3124367Y243683D01*
X3124434Y243543D01*
X3124498Y243403D01*
X3124558Y243260D01*
X3124614Y243117D01*
X3124667Y242971D01*
X3124716Y242825D01*
X3124761Y242677D01*
X3124802Y242528D01*
X3124840Y242378D01*
X3124873Y242227D01*
X3124903Y242076D01*
X3124929Y241923D01*
X3124950Y241770D01*
X3124968Y241617D01*
X3124982Y241463D01*
X3124992Y241309D01*
X3124998Y241154D01*
X3125000Y241000D01*
X3124998Y240846D01*
X3124992Y240691D01*
X3124982Y240537D01*
X3124968Y240383D01*
X3124950Y240230D01*
X3124929Y240077D01*
X3124903Y239924D01*
X3124873Y239773D01*
X3124840Y239622D01*
X3124802Y239472D01*
X3124761Y239323D01*
X3124716Y239175D01*
X3124667Y239029D01*
X3124614Y238883D01*
X3124558Y238740D01*
X3124498Y238597D01*
X3124434Y238457D01*
X3124367Y238317D01*
X3124296Y238180D01*
X3124222Y238045D01*
X3124144Y237911D01*
X3124063Y237780D01*
X3123978Y237651D01*
X3123890Y237523D01*
X3123799Y237399D01*
X3123705Y237276D01*
X3123607Y237156D01*
X3123507Y237039D01*
X3123403Y236924D01*
X3123297Y236812D01*
X3123188Y236703D01*
X3123076Y236597D01*
X3122961Y236493D01*
X3122844Y236393D01*
X3122724Y236295D01*
X3122601Y236201D01*
X3122477Y236110D01*
X3122349Y236022D01*
X3122220Y235937D01*
X3122089Y235856D01*
X3121955Y235778D01*
X3121820Y235704D01*
X3121683Y235633D01*
X3121543Y235566D01*
X3121403Y235502D01*
X3121260Y235442D01*
X3121117Y235386D01*
X3120971Y235333D01*
X3120825Y235284D01*
X3120677Y235239D01*
X3120528Y235198D01*
X3120378Y235160D01*
X3120227Y235127D01*
X3120076Y235097D01*
X3119923Y235071D01*
X3119770Y235050D01*
X3119617Y235032D01*
X3119463Y235018D01*
X3119309Y235008D01*
X3119154Y235002D01*
X3119000Y235000D01*
X3118846Y235002D01*
X3118691Y235008D01*
X3118537Y235018D01*
X3118383Y235032D01*
X3118230Y235050D01*
X3118077Y235071D01*
X3117924Y235097D01*
X3117773Y235127D01*
X3117622Y235160D01*
X3117472Y235198D01*
X3117323Y235239D01*
X3117175Y235284D01*
X3117029Y235333D01*
X3116883Y235386D01*
X3116740Y235442D01*
X3116597Y235502D01*
X3116457Y235566D01*
X3116317Y235633D01*
X3116180Y235704D01*
X3116045Y235778D01*
X3115911Y235856D01*
X3115780Y235937D01*
X3115651Y236022D01*
X3115523Y236110D01*
X3115399Y236201D01*
X3115276Y236295D01*
X3115156Y236393D01*
X3115039Y236493D01*
X3114924Y236597D01*
X3114812Y236703D01*
X3114703Y236812D01*
X3114597Y236924D01*
X3114493Y237039D01*
X3114393Y237156D01*
X3114295Y237276D01*
X3114201Y237399D01*
X3114110Y237523D01*
X3114022Y237651D01*
X3113937Y237780D01*
X3113856Y237911D01*
X3113778Y238045D01*
X3113704Y238180D01*
X3113633Y238317D01*
X3113566Y238457D01*
X3113502Y238597D01*
X3113442Y238740D01*
X3113386Y238883D01*
X3113333Y239029D01*
X3113284Y239175D01*
X3113239Y239323D01*
X3113198Y239472D01*
X3113160Y239622D01*
X3113127Y239773D01*
X3113097Y239924D01*
X3113071Y240077D01*
X3113050Y240230D01*
X3113032Y240383D01*
X3113018Y240537D01*
X3113008Y240691D01*
X3113002Y240846D01*
X3113000Y241000D01*
X3043000Y241000D02*
X3043002Y241154D01*
X3043008Y241309D01*
X3043018Y241463D01*
X3043032Y241617D01*
X3043050Y241770D01*
X3043071Y241923D01*
X3043097Y242076D01*
X3043127Y242227D01*
X3043160Y242378D01*
X3043198Y242528D01*
X3043239Y242677D01*
X3043284Y242825D01*
X3043333Y242971D01*
X3043386Y243117D01*
X3043442Y243260D01*
X3043502Y243403D01*
X3043566Y243543D01*
X3043633Y243683D01*
X3043704Y243820D01*
X3043778Y243955D01*
X3043856Y244089D01*
X3043937Y244220D01*
X3044022Y244349D01*
X3044110Y244477D01*
X3044201Y244601D01*
X3044295Y244724D01*
X3044393Y244844D01*
X3044493Y244961D01*
X3044597Y245076D01*
X3044703Y245188D01*
X3044812Y245297D01*
X3044924Y245403D01*
X3045039Y245507D01*
X3045156Y245607D01*
X3045276Y245705D01*
X3045399Y245799D01*
X3045523Y245890D01*
X3045651Y245978D01*
X3045780Y246063D01*
X3045911Y246144D01*
X3046045Y246222D01*
X3046180Y246296D01*
X3046317Y246367D01*
X3046457Y246434D01*
X3046597Y246498D01*
X3046740Y246558D01*
X3046883Y246614D01*
X3047029Y246667D01*
X3047175Y246716D01*
X3047323Y246761D01*
X3047472Y246802D01*
X3047622Y246840D01*
X3047773Y246873D01*
X3047924Y246903D01*
X3048077Y246929D01*
X3048230Y246950D01*
X3048383Y246968D01*
X3048537Y246982D01*
X3048691Y246992D01*
X3048846Y246998D01*
X3049000Y247000D01*
X3049154Y246998D01*
X3049309Y246992D01*
X3049463Y246982D01*
X3049617Y246968D01*
X3049770Y246950D01*
X3049923Y246929D01*
X3050076Y246903D01*
X3050227Y246873D01*
X3050378Y246840D01*
X3050528Y246802D01*
X3050677Y246761D01*
X3050825Y246716D01*
X3050971Y246667D01*
X3051117Y246614D01*
X3051260Y246558D01*
X3051403Y246498D01*
X3051543Y246434D01*
X3051683Y246367D01*
X3051820Y246296D01*
X3051955Y246222D01*
X3052089Y246144D01*
X3052220Y246063D01*
X3052349Y245978D01*
X3052477Y245890D01*
X3052601Y245799D01*
X3052724Y245705D01*
X3052844Y245607D01*
X3052961Y245507D01*
X3053076Y245403D01*
X3053188Y245297D01*
X3053297Y245188D01*
X3053403Y245076D01*
X3053507Y244961D01*
X3053607Y244844D01*
X3053705Y244724D01*
X3053799Y244601D01*
X3053890Y244477D01*
X3053978Y244349D01*
X3054063Y244220D01*
X3054144Y244089D01*
X3054222Y243955D01*
X3054296Y243820D01*
X3054367Y243683D01*
X3054434Y243543D01*
X3054498Y243403D01*
X3054558Y243260D01*
X3054614Y243117D01*
X3054667Y242971D01*
X3054716Y242825D01*
X3054761Y242677D01*
X3054802Y242528D01*
X3054840Y242378D01*
X3054873Y242227D01*
X3054903Y242076D01*
X3054929Y241923D01*
X3054950Y241770D01*
X3054968Y241617D01*
X3054982Y241463D01*
X3054992Y241309D01*
X3054998Y241154D01*
X3055000Y241000D01*
X3054998Y240846D01*
X3054992Y240691D01*
X3054982Y240537D01*
X3054968Y240383D01*
X3054950Y240230D01*
X3054929Y240077D01*
X3054903Y239924D01*
X3054873Y239773D01*
X3054840Y239622D01*
X3054802Y239472D01*
X3054761Y239323D01*
X3054716Y239175D01*
X3054667Y239029D01*
X3054614Y238883D01*
X3054558Y238740D01*
X3054498Y238597D01*
X3054434Y238457D01*
X3054367Y238317D01*
X3054296Y238180D01*
X3054222Y238045D01*
X3054144Y237911D01*
X3054063Y237780D01*
X3053978Y237651D01*
X3053890Y237523D01*
X3053799Y237399D01*
X3053705Y237276D01*
X3053607Y237156D01*
X3053507Y237039D01*
X3053403Y236924D01*
X3053297Y236812D01*
X3053188Y236703D01*
X3053076Y236597D01*
X3052961Y236493D01*
X3052844Y236393D01*
X3052724Y236295D01*
X3052601Y236201D01*
X3052477Y236110D01*
X3052349Y236022D01*
X3052220Y235937D01*
X3052089Y235856D01*
X3051955Y235778D01*
X3051820Y235704D01*
X3051683Y235633D01*
X3051543Y235566D01*
X3051403Y235502D01*
X3051260Y235442D01*
X3051117Y235386D01*
X3050971Y235333D01*
X3050825Y235284D01*
X3050677Y235239D01*
X3050528Y235198D01*
X3050378Y235160D01*
X3050227Y235127D01*
X3050076Y235097D01*
X3049923Y235071D01*
X3049770Y235050D01*
X3049617Y235032D01*
X3049463Y235018D01*
X3049309Y235008D01*
X3049154Y235002D01*
X3049000Y235000D01*
X3048846Y235002D01*
X3048691Y235008D01*
X3048537Y235018D01*
X3048383Y235032D01*
X3048230Y235050D01*
X3048077Y235071D01*
X3047924Y235097D01*
X3047773Y235127D01*
X3047622Y235160D01*
X3047472Y235198D01*
X3047323Y235239D01*
X3047175Y235284D01*
X3047029Y235333D01*
X3046883Y235386D01*
X3046740Y235442D01*
X3046597Y235502D01*
X3046457Y235566D01*
X3046317Y235633D01*
X3046180Y235704D01*
X3046045Y235778D01*
X3045911Y235856D01*
X3045780Y235937D01*
X3045651Y236022D01*
X3045523Y236110D01*
X3045399Y236201D01*
X3045276Y236295D01*
X3045156Y236393D01*
X3045039Y236493D01*
X3044924Y236597D01*
X3044812Y236703D01*
X3044703Y236812D01*
X3044597Y236924D01*
X3044493Y237039D01*
X3044393Y237156D01*
X3044295Y237276D01*
X3044201Y237399D01*
X3044110Y237523D01*
X3044022Y237651D01*
X3043937Y237780D01*
X3043856Y237911D01*
X3043778Y238045D01*
X3043704Y238180D01*
X3043633Y238317D01*
X3043566Y238457D01*
X3043502Y238597D01*
X3043442Y238740D01*
X3043386Y238883D01*
X3043333Y239029D01*
X3043284Y239175D01*
X3043239Y239323D01*
X3043198Y239472D01*
X3043160Y239622D01*
X3043127Y239773D01*
X3043097Y239924D01*
X3043071Y240077D01*
X3043050Y240230D01*
X3043032Y240383D01*
X3043018Y240537D01*
X3043008Y240691D01*
X3043002Y240846D01*
X3043000Y241000D01*
X122500Y175200D02*
X122502Y175334D01*
X122508Y175468D01*
X122518Y175601D01*
X122532Y175735D01*
X122550Y175868D01*
X122572Y176000D01*
X122597Y176131D01*
X122627Y176262D01*
X122661Y176392D01*
X122698Y176520D01*
X122739Y176648D01*
X122784Y176774D01*
X122833Y176899D01*
X122885Y177022D01*
X122941Y177144D01*
X123001Y177264D01*
X123064Y177382D01*
X123131Y177498D01*
X123201Y177612D01*
X123275Y177724D01*
X123352Y177834D01*
X123432Y177942D01*
X123515Y178047D01*
X123601Y178149D01*
X123690Y178249D01*
X123783Y178346D01*
X123878Y178441D01*
X123976Y178532D01*
X124076Y178621D01*
X124179Y178706D01*
X124285Y178789D01*
X124393Y178868D01*
X124503Y178944D01*
X124616Y179017D01*
X124731Y179086D01*
X124847Y179152D01*
X124966Y179214D01*
X125086Y179273D01*
X125209Y179328D01*
X125332Y179380D01*
X125457Y179427D01*
X125584Y179471D01*
X125712Y179512D01*
X125841Y179548D01*
X125971Y179581D01*
X126102Y179609D01*
X126233Y179634D01*
X126366Y179655D01*
X126499Y179672D01*
X126632Y179685D01*
X126766Y179694D01*
X126900Y179699D01*
X127034Y179700D01*
X127167Y179697D01*
X127301Y179690D01*
X127435Y179679D01*
X127568Y179664D01*
X127701Y179645D01*
X127833Y179622D01*
X127964Y179596D01*
X128094Y179565D01*
X128224Y179530D01*
X128352Y179492D01*
X128479Y179450D01*
X128605Y179404D01*
X128730Y179354D01*
X128853Y179301D01*
X128974Y179244D01*
X129094Y179183D01*
X129211Y179119D01*
X129327Y179052D01*
X129441Y178981D01*
X129552Y178906D01*
X129661Y178829D01*
X129768Y178748D01*
X129873Y178664D01*
X129974Y178577D01*
X130074Y178487D01*
X130170Y178394D01*
X130264Y178298D01*
X130355Y178199D01*
X130442Y178098D01*
X130527Y177994D01*
X130609Y177888D01*
X130687Y177780D01*
X130762Y177669D01*
X130834Y177556D01*
X130903Y177440D01*
X130968Y177323D01*
X131029Y177204D01*
X131087Y177083D01*
X131141Y176961D01*
X131192Y176837D01*
X131239Y176711D01*
X131282Y176584D01*
X131321Y176456D01*
X131357Y176327D01*
X131388Y176197D01*
X131416Y176066D01*
X131440Y175934D01*
X131460Y175801D01*
X131476Y175668D01*
X131488Y175535D01*
X131496Y175401D01*
X131500Y175267D01*
X131500Y175133D01*
X131496Y174999D01*
X131488Y174865D01*
X131476Y174732D01*
X131460Y174599D01*
X131440Y174466D01*
X131416Y174334D01*
X131388Y174203D01*
X131357Y174073D01*
X131321Y173944D01*
X131282Y173816D01*
X131239Y173689D01*
X131192Y173563D01*
X131141Y173439D01*
X131087Y173317D01*
X131029Y173196D01*
X130968Y173077D01*
X130903Y172960D01*
X130834Y172844D01*
X130762Y172731D01*
X130687Y172620D01*
X130609Y172512D01*
X130527Y172406D01*
X130442Y172302D01*
X130355Y172201D01*
X130264Y172102D01*
X130170Y172006D01*
X130074Y171913D01*
X129974Y171823D01*
X129873Y171736D01*
X129768Y171652D01*
X129661Y171571D01*
X129552Y171494D01*
X129441Y171419D01*
X129327Y171348D01*
X129211Y171281D01*
X129094Y171217D01*
X128974Y171156D01*
X128853Y171099D01*
X128730Y171046D01*
X128605Y170996D01*
X128479Y170950D01*
X128352Y170908D01*
X128224Y170870D01*
X128094Y170835D01*
X127964Y170804D01*
X127833Y170778D01*
X127701Y170755D01*
X127568Y170736D01*
X127435Y170721D01*
X127301Y170710D01*
X127167Y170703D01*
X127034Y170700D01*
X126900Y170701D01*
X126766Y170706D01*
X126632Y170715D01*
X126499Y170728D01*
X126366Y170745D01*
X126233Y170766D01*
X126102Y170791D01*
X125971Y170819D01*
X125841Y170852D01*
X125712Y170888D01*
X125584Y170929D01*
X125457Y170973D01*
X125332Y171020D01*
X125209Y171072D01*
X125086Y171127D01*
X124966Y171186D01*
X124847Y171248D01*
X124731Y171314D01*
X124616Y171383D01*
X124503Y171456D01*
X124393Y171532D01*
X124285Y171611D01*
X124179Y171694D01*
X124076Y171779D01*
X123976Y171868D01*
X123878Y171959D01*
X123783Y172054D01*
X123690Y172151D01*
X123601Y172251D01*
X123515Y172353D01*
X123432Y172458D01*
X123352Y172566D01*
X123275Y172676D01*
X123201Y172788D01*
X123131Y172902D01*
X123064Y173018D01*
X123001Y173136D01*
X122941Y173256D01*
X122885Y173378D01*
X122833Y173501D01*
X122784Y173626D01*
X122739Y173752D01*
X122698Y173880D01*
X122661Y174008D01*
X122627Y174138D01*
X122597Y174269D01*
X122572Y174400D01*
X122550Y174532D01*
X122532Y174665D01*
X122518Y174799D01*
X122508Y174932D01*
X122502Y175066D01*
X122500Y175200D01*
X1689810Y1902500D02*
X1689815Y1902905D01*
X1689830Y1903310D01*
X1689855Y1903715D01*
X1689890Y1904118D01*
X1689934Y1904521D01*
X1689989Y1904923D01*
X1690053Y1905323D01*
X1690127Y1905721D01*
X1690211Y1906117D01*
X1690305Y1906512D01*
X1690408Y1906903D01*
X1690521Y1907293D01*
X1690643Y1907679D01*
X1690775Y1908062D01*
X1690916Y1908442D01*
X1691067Y1908818D01*
X1691226Y1909191D01*
X1691395Y1909559D01*
X1691573Y1909923D01*
X1691759Y1910283D01*
X1691955Y1910638D01*
X1692159Y1910988D01*
X1692371Y1911333D01*
X1692592Y1911672D01*
X1692822Y1912007D01*
X1693059Y1912335D01*
X1693304Y1912657D01*
X1693558Y1912974D01*
X1693818Y1913284D01*
X1694087Y1913587D01*
X1694363Y1913884D01*
X1694646Y1914174D01*
X1694936Y1914457D01*
X1695233Y1914733D01*
X1695536Y1915002D01*
X1695846Y1915262D01*
X1696163Y1915516D01*
X1696485Y1915761D01*
X1696813Y1915998D01*
X1697148Y1916228D01*
X1697487Y1916449D01*
X1697832Y1916661D01*
X1698182Y1916865D01*
X1698537Y1917061D01*
X1698897Y1917247D01*
X1699261Y1917425D01*
X1699629Y1917594D01*
X1700002Y1917753D01*
X1700378Y1917904D01*
X1700758Y1918045D01*
X1701141Y1918177D01*
X1701527Y1918299D01*
X1701917Y1918412D01*
X1702308Y1918515D01*
X1702703Y1918609D01*
X1703099Y1918693D01*
X1703497Y1918767D01*
X1703897Y1918831D01*
X1704299Y1918886D01*
X1704702Y1918930D01*
X1705105Y1918965D01*
X1705510Y1918990D01*
X1705915Y1919005D01*
X1706320Y1919010D01*
X1706725Y1919005D01*
X1707130Y1918990D01*
X1707535Y1918965D01*
X1707938Y1918930D01*
X1708341Y1918886D01*
X1708743Y1918831D01*
X1709143Y1918767D01*
X1709541Y1918693D01*
X1709937Y1918609D01*
X1710332Y1918515D01*
X1710723Y1918412D01*
X1711113Y1918299D01*
X1711499Y1918177D01*
X1711882Y1918045D01*
X1712262Y1917904D01*
X1712638Y1917753D01*
X1713011Y1917594D01*
X1713379Y1917425D01*
X1713743Y1917247D01*
X1714103Y1917061D01*
X1714458Y1916865D01*
X1714808Y1916661D01*
X1715153Y1916449D01*
X1715492Y1916228D01*
X1715827Y1915998D01*
X1716155Y1915761D01*
X1716477Y1915516D01*
X1716794Y1915262D01*
X1717104Y1915002D01*
X1717407Y1914733D01*
X1717704Y1914457D01*
X1717994Y1914174D01*
X1718277Y1913884D01*
X1718553Y1913587D01*
X1718822Y1913284D01*
X1719082Y1912974D01*
X1719336Y1912657D01*
X1719581Y1912335D01*
X1719818Y1912007D01*
X1720048Y1911672D01*
X1720269Y1911333D01*
X1720481Y1910988D01*
X1720685Y1910638D01*
X1720881Y1910283D01*
X1721067Y1909923D01*
X1721245Y1909559D01*
X1721414Y1909191D01*
X1721573Y1908818D01*
X1721724Y1908442D01*
X1721865Y1908062D01*
X1721997Y1907679D01*
X1722119Y1907293D01*
X1722232Y1906903D01*
X1722335Y1906512D01*
X1722429Y1906117D01*
X1722513Y1905721D01*
X1722587Y1905323D01*
X1722651Y1904923D01*
X1722706Y1904521D01*
X1722750Y1904118D01*
X1722785Y1903715D01*
X1722810Y1903310D01*
X1722825Y1902905D01*
X1722830Y1902500D01*
X1722825Y1902095D01*
X1722810Y1901690D01*
X1722785Y1901285D01*
X1722750Y1900882D01*
X1722706Y1900479D01*
X1722651Y1900077D01*
X1722587Y1899677D01*
X1722513Y1899279D01*
X1722429Y1898883D01*
X1722335Y1898488D01*
X1722232Y1898097D01*
X1722119Y1897707D01*
X1721997Y1897321D01*
X1721865Y1896938D01*
X1721724Y1896558D01*
X1721573Y1896182D01*
X1721414Y1895809D01*
X1721245Y1895441D01*
X1721067Y1895077D01*
X1720881Y1894717D01*
X1720685Y1894362D01*
X1720481Y1894012D01*
X1720269Y1893667D01*
X1720048Y1893328D01*
X1719818Y1892993D01*
X1719581Y1892665D01*
X1719336Y1892343D01*
X1719082Y1892026D01*
X1718822Y1891716D01*
X1718553Y1891413D01*
X1718277Y1891116D01*
X1717994Y1890826D01*
X1717704Y1890543D01*
X1717407Y1890267D01*
X1717104Y1889998D01*
X1716794Y1889738D01*
X1716477Y1889484D01*
X1716155Y1889239D01*
X1715827Y1889002D01*
X1715492Y1888772D01*
X1715153Y1888551D01*
X1714808Y1888339D01*
X1714458Y1888135D01*
X1714103Y1887939D01*
X1713743Y1887753D01*
X1713379Y1887575D01*
X1713011Y1887406D01*
X1712638Y1887247D01*
X1712262Y1887096D01*
X1711882Y1886955D01*
X1711499Y1886823D01*
X1711113Y1886701D01*
X1710723Y1886588D01*
X1710332Y1886485D01*
X1709937Y1886391D01*
X1709541Y1886307D01*
X1709143Y1886233D01*
X1708743Y1886169D01*
X1708341Y1886114D01*
X1707938Y1886070D01*
X1707535Y1886035D01*
X1707130Y1886010D01*
X1706725Y1885995D01*
X1706320Y1885990D01*
X1705915Y1885995D01*
X1705510Y1886010D01*
X1705105Y1886035D01*
X1704702Y1886070D01*
X1704299Y1886114D01*
X1703897Y1886169D01*
X1703497Y1886233D01*
X1703099Y1886307D01*
X1702703Y1886391D01*
X1702308Y1886485D01*
X1701917Y1886588D01*
X1701527Y1886701D01*
X1701141Y1886823D01*
X1700758Y1886955D01*
X1700378Y1887096D01*
X1700002Y1887247D01*
X1699629Y1887406D01*
X1699261Y1887575D01*
X1698897Y1887753D01*
X1698537Y1887939D01*
X1698182Y1888135D01*
X1697832Y1888339D01*
X1697487Y1888551D01*
X1697148Y1888772D01*
X1696813Y1889002D01*
X1696485Y1889239D01*
X1696163Y1889484D01*
X1695846Y1889738D01*
X1695536Y1889998D01*
X1695233Y1890267D01*
X1694936Y1890543D01*
X1694646Y1890826D01*
X1694363Y1891116D01*
X1694087Y1891413D01*
X1693818Y1891716D01*
X1693558Y1892026D01*
X1693304Y1892343D01*
X1693059Y1892665D01*
X1692822Y1892993D01*
X1692592Y1893328D01*
X1692371Y1893667D01*
X1692159Y1894012D01*
X1691955Y1894362D01*
X1691759Y1894717D01*
X1691573Y1895077D01*
X1691395Y1895441D01*
X1691226Y1895809D01*
X1691067Y1896182D01*
X1690916Y1896558D01*
X1690775Y1896938D01*
X1690643Y1897321D01*
X1690521Y1897707D01*
X1690408Y1898097D01*
X1690305Y1898488D01*
X1690211Y1898883D01*
X1690127Y1899279D01*
X1690053Y1899677D01*
X1689989Y1900077D01*
X1689934Y1900479D01*
X1689890Y1900882D01*
X1689855Y1901285D01*
X1689830Y1901690D01*
X1689815Y1902095D01*
X1689810Y1902500D01*
X1332170Y75000D02*
X1332175Y75405D01*
X1332190Y75810D01*
X1332215Y76215D01*
X1332250Y76618D01*
X1332294Y77021D01*
X1332349Y77423D01*
X1332413Y77823D01*
X1332487Y78221D01*
X1332571Y78617D01*
X1332665Y79012D01*
X1332768Y79403D01*
X1332881Y79793D01*
X1333003Y80179D01*
X1333135Y80562D01*
X1333276Y80942D01*
X1333427Y81318D01*
X1333586Y81691D01*
X1333755Y82059D01*
X1333933Y82423D01*
X1334119Y82783D01*
X1334315Y83138D01*
X1334519Y83488D01*
X1334731Y83833D01*
X1334952Y84172D01*
X1335182Y84507D01*
X1335419Y84835D01*
X1335664Y85157D01*
X1335918Y85474D01*
X1336178Y85784D01*
X1336447Y86087D01*
X1336723Y86384D01*
X1337006Y86674D01*
X1337296Y86957D01*
X1337593Y87233D01*
X1337896Y87502D01*
X1338206Y87762D01*
X1338523Y88016D01*
X1338845Y88261D01*
X1339173Y88498D01*
X1339508Y88728D01*
X1339847Y88949D01*
X1340192Y89161D01*
X1340542Y89365D01*
X1340897Y89561D01*
X1341257Y89747D01*
X1341621Y89925D01*
X1341989Y90094D01*
X1342362Y90253D01*
X1342738Y90404D01*
X1343118Y90545D01*
X1343501Y90677D01*
X1343887Y90799D01*
X1344277Y90912D01*
X1344668Y91015D01*
X1345063Y91109D01*
X1345459Y91193D01*
X1345857Y91267D01*
X1346257Y91331D01*
X1346659Y91386D01*
X1347062Y91430D01*
X1347465Y91465D01*
X1347870Y91490D01*
X1348275Y91505D01*
X1348680Y91510D01*
X1349085Y91505D01*
X1349490Y91490D01*
X1349895Y91465D01*
X1350298Y91430D01*
X1350701Y91386D01*
X1351103Y91331D01*
X1351503Y91267D01*
X1351901Y91193D01*
X1352297Y91109D01*
X1352692Y91015D01*
X1353083Y90912D01*
X1353473Y90799D01*
X1353859Y90677D01*
X1354242Y90545D01*
X1354622Y90404D01*
X1354998Y90253D01*
X1355371Y90094D01*
X1355739Y89925D01*
X1356103Y89747D01*
X1356463Y89561D01*
X1356818Y89365D01*
X1357168Y89161D01*
X1357513Y88949D01*
X1357852Y88728D01*
X1358187Y88498D01*
X1358515Y88261D01*
X1358837Y88016D01*
X1359154Y87762D01*
X1359464Y87502D01*
X1359767Y87233D01*
X1360064Y86957D01*
X1360354Y86674D01*
X1360637Y86384D01*
X1360913Y86087D01*
X1361182Y85784D01*
X1361442Y85474D01*
X1361696Y85157D01*
X1361941Y84835D01*
X1362178Y84507D01*
X1362408Y84172D01*
X1362629Y83833D01*
X1362841Y83488D01*
X1363045Y83138D01*
X1363241Y82783D01*
X1363427Y82423D01*
X1363605Y82059D01*
X1363774Y81691D01*
X1363933Y81318D01*
X1364084Y80942D01*
X1364225Y80562D01*
X1364357Y80179D01*
X1364479Y79793D01*
X1364592Y79403D01*
X1364695Y79012D01*
X1364789Y78617D01*
X1364873Y78221D01*
X1364947Y77823D01*
X1365011Y77423D01*
X1365066Y77021D01*
X1365110Y76618D01*
X1365145Y76215D01*
X1365170Y75810D01*
X1365185Y75405D01*
X1365190Y75000D01*
X1365185Y74595D01*
X1365170Y74190D01*
X1365145Y73785D01*
X1365110Y73382D01*
X1365066Y72979D01*
X1365011Y72577D01*
X1364947Y72177D01*
X1364873Y71779D01*
X1364789Y71383D01*
X1364695Y70988D01*
X1364592Y70597D01*
X1364479Y70207D01*
X1364357Y69821D01*
X1364225Y69438D01*
X1364084Y69058D01*
X1363933Y68682D01*
X1363774Y68309D01*
X1363605Y67941D01*
X1363427Y67577D01*
X1363241Y67217D01*
X1363045Y66862D01*
X1362841Y66512D01*
X1362629Y66167D01*
X1362408Y65828D01*
X1362178Y65493D01*
X1361941Y65165D01*
X1361696Y64843D01*
X1361442Y64526D01*
X1361182Y64216D01*
X1360913Y63913D01*
X1360637Y63616D01*
X1360354Y63326D01*
X1360064Y63043D01*
X1359767Y62767D01*
X1359464Y62498D01*
X1359154Y62238D01*
X1358837Y61984D01*
X1358515Y61739D01*
X1358187Y61502D01*
X1357852Y61272D01*
X1357513Y61051D01*
X1357168Y60839D01*
X1356818Y60635D01*
X1356463Y60439D01*
X1356103Y60253D01*
X1355739Y60075D01*
X1355371Y59906D01*
X1354998Y59747D01*
X1354622Y59596D01*
X1354242Y59455D01*
X1353859Y59323D01*
X1353473Y59201D01*
X1353083Y59088D01*
X1352692Y58985D01*
X1352297Y58891D01*
X1351901Y58807D01*
X1351503Y58733D01*
X1351103Y58669D01*
X1350701Y58614D01*
X1350298Y58570D01*
X1349895Y58535D01*
X1349490Y58510D01*
X1349085Y58495D01*
X1348680Y58490D01*
X1348275Y58495D01*
X1347870Y58510D01*
X1347465Y58535D01*
X1347062Y58570D01*
X1346659Y58614D01*
X1346257Y58669D01*
X1345857Y58733D01*
X1345459Y58807D01*
X1345063Y58891D01*
X1344668Y58985D01*
X1344277Y59088D01*
X1343887Y59201D01*
X1343501Y59323D01*
X1343118Y59455D01*
X1342738Y59596D01*
X1342362Y59747D01*
X1341989Y59906D01*
X1341621Y60075D01*
X1341257Y60253D01*
X1340897Y60439D01*
X1340542Y60635D01*
X1340192Y60839D01*
X1339847Y61051D01*
X1339508Y61272D01*
X1339173Y61502D01*
X1338845Y61739D01*
X1338523Y61984D01*
X1338206Y62238D01*
X1337896Y62498D01*
X1337593Y62767D01*
X1337296Y63043D01*
X1337006Y63326D01*
X1336723Y63616D01*
X1336447Y63913D01*
X1336178Y64216D01*
X1335918Y64526D01*
X1335664Y64843D01*
X1335419Y65165D01*
X1335182Y65493D01*
X1334952Y65828D01*
X1334731Y66167D01*
X1334519Y66512D01*
X1334315Y66862D01*
X1334119Y67217D01*
X1333933Y67577D01*
X1333755Y67941D01*
X1333586Y68309D01*
X1333427Y68682D01*
X1333276Y69058D01*
X1333135Y69438D01*
X1333003Y69821D01*
X1332881Y70207D01*
X1332768Y70597D01*
X1332665Y70988D01*
X1332571Y71383D01*
X1332487Y71779D01*
X1332413Y72177D01*
X1332349Y72577D01*
X1332294Y72979D01*
X1332250Y73382D01*
X1332215Y73785D01*
X1332190Y74190D01*
X1332175Y74595D01*
X1332170Y75000D01*
X2963490Y1902500D02*
X2963495Y1902905D01*
X2963510Y1903310D01*
X2963535Y1903715D01*
X2963570Y1904118D01*
X2963614Y1904521D01*
X2963669Y1904923D01*
X2963733Y1905323D01*
X2963807Y1905721D01*
X2963891Y1906117D01*
X2963985Y1906512D01*
X2964088Y1906903D01*
X2964201Y1907293D01*
X2964323Y1907679D01*
X2964455Y1908062D01*
X2964596Y1908442D01*
X2964747Y1908818D01*
X2964906Y1909191D01*
X2965075Y1909559D01*
X2965253Y1909923D01*
X2965439Y1910283D01*
X2965635Y1910638D01*
X2965839Y1910988D01*
X2966051Y1911333D01*
X2966272Y1911672D01*
X2966502Y1912007D01*
X2966739Y1912335D01*
X2966984Y1912657D01*
X2967238Y1912974D01*
X2967498Y1913284D01*
X2967767Y1913587D01*
X2968043Y1913884D01*
X2968326Y1914174D01*
X2968616Y1914457D01*
X2968913Y1914733D01*
X2969216Y1915002D01*
X2969526Y1915262D01*
X2969843Y1915516D01*
X2970165Y1915761D01*
X2970493Y1915998D01*
X2970828Y1916228D01*
X2971167Y1916449D01*
X2971512Y1916661D01*
X2971862Y1916865D01*
X2972217Y1917061D01*
X2972577Y1917247D01*
X2972941Y1917425D01*
X2973309Y1917594D01*
X2973682Y1917753D01*
X2974058Y1917904D01*
X2974438Y1918045D01*
X2974821Y1918177D01*
X2975207Y1918299D01*
X2975597Y1918412D01*
X2975988Y1918515D01*
X2976383Y1918609D01*
X2976779Y1918693D01*
X2977177Y1918767D01*
X2977577Y1918831D01*
X2977979Y1918886D01*
X2978382Y1918930D01*
X2978785Y1918965D01*
X2979190Y1918990D01*
X2979595Y1919005D01*
X2980000Y1919010D01*
X2980405Y1919005D01*
X2980810Y1918990D01*
X2981215Y1918965D01*
X2981618Y1918930D01*
X2982021Y1918886D01*
X2982423Y1918831D01*
X2982823Y1918767D01*
X2983221Y1918693D01*
X2983617Y1918609D01*
X2984012Y1918515D01*
X2984403Y1918412D01*
X2984793Y1918299D01*
X2985179Y1918177D01*
X2985562Y1918045D01*
X2985942Y1917904D01*
X2986318Y1917753D01*
X2986691Y1917594D01*
X2987059Y1917425D01*
X2987423Y1917247D01*
X2987783Y1917061D01*
X2988138Y1916865D01*
X2988488Y1916661D01*
X2988833Y1916449D01*
X2989172Y1916228D01*
X2989507Y1915998D01*
X2989835Y1915761D01*
X2990157Y1915516D01*
X2990474Y1915262D01*
X2990784Y1915002D01*
X2991087Y1914733D01*
X2991384Y1914457D01*
X2991674Y1914174D01*
X2991957Y1913884D01*
X2992233Y1913587D01*
X2992502Y1913284D01*
X2992762Y1912974D01*
X2993016Y1912657D01*
X2993261Y1912335D01*
X2993498Y1912007D01*
X2993728Y1911672D01*
X2993949Y1911333D01*
X2994161Y1910988D01*
X2994365Y1910638D01*
X2994561Y1910283D01*
X2994747Y1909923D01*
X2994925Y1909559D01*
X2995094Y1909191D01*
X2995253Y1908818D01*
X2995404Y1908442D01*
X2995545Y1908062D01*
X2995677Y1907679D01*
X2995799Y1907293D01*
X2995912Y1906903D01*
X2996015Y1906512D01*
X2996109Y1906117D01*
X2996193Y1905721D01*
X2996267Y1905323D01*
X2996331Y1904923D01*
X2996386Y1904521D01*
X2996430Y1904118D01*
X2996465Y1903715D01*
X2996490Y1903310D01*
X2996505Y1902905D01*
X2996510Y1902500D01*
X2996505Y1902095D01*
X2996490Y1901690D01*
X2996465Y1901285D01*
X2996430Y1900882D01*
X2996386Y1900479D01*
X2996331Y1900077D01*
X2996267Y1899677D01*
X2996193Y1899279D01*
X2996109Y1898883D01*
X2996015Y1898488D01*
X2995912Y1898097D01*
X2995799Y1897707D01*
X2995677Y1897321D01*
X2995545Y1896938D01*
X2995404Y1896558D01*
X2995253Y1896182D01*
X2995094Y1895809D01*
X2994925Y1895441D01*
X2994747Y1895077D01*
X2994561Y1894717D01*
X2994365Y1894362D01*
X2994161Y1894012D01*
X2993949Y1893667D01*
X2993728Y1893328D01*
X2993498Y1892993D01*
X2993261Y1892665D01*
X2993016Y1892343D01*
X2992762Y1892026D01*
X2992502Y1891716D01*
X2992233Y1891413D01*
X2991957Y1891116D01*
X2991674Y1890826D01*
X2991384Y1890543D01*
X2991087Y1890267D01*
X2990784Y1889998D01*
X2990474Y1889738D01*
X2990157Y1889484D01*
X2989835Y1889239D01*
X2989507Y1889002D01*
X2989172Y1888772D01*
X2988833Y1888551D01*
X2988488Y1888339D01*
X2988138Y1888135D01*
X2987783Y1887939D01*
X2987423Y1887753D01*
X2987059Y1887575D01*
X2986691Y1887406D01*
X2986318Y1887247D01*
X2985942Y1887096D01*
X2985562Y1886955D01*
X2985179Y1886823D01*
X2984793Y1886701D01*
X2984403Y1886588D01*
X2984012Y1886485D01*
X2983617Y1886391D01*
X2983221Y1886307D01*
X2982823Y1886233D01*
X2982423Y1886169D01*
X2982021Y1886114D01*
X2981618Y1886070D01*
X2981215Y1886035D01*
X2980810Y1886010D01*
X2980405Y1885995D01*
X2980000Y1885990D01*
X2979595Y1885995D01*
X2979190Y1886010D01*
X2978785Y1886035D01*
X2978382Y1886070D01*
X2977979Y1886114D01*
X2977577Y1886169D01*
X2977177Y1886233D01*
X2976779Y1886307D01*
X2976383Y1886391D01*
X2975988Y1886485D01*
X2975597Y1886588D01*
X2975207Y1886701D01*
X2974821Y1886823D01*
X2974438Y1886955D01*
X2974058Y1887096D01*
X2973682Y1887247D01*
X2973309Y1887406D01*
X2972941Y1887575D01*
X2972577Y1887753D01*
X2972217Y1887939D01*
X2971862Y1888135D01*
X2971512Y1888339D01*
X2971167Y1888551D01*
X2970828Y1888772D01*
X2970493Y1889002D01*
X2970165Y1889239D01*
X2969843Y1889484D01*
X2969526Y1889738D01*
X2969216Y1889998D01*
X2968913Y1890267D01*
X2968616Y1890543D01*
X2968326Y1890826D01*
X2968043Y1891116D01*
X2967767Y1891413D01*
X2967498Y1891716D01*
X2967238Y1892026D01*
X2966984Y1892343D01*
X2966739Y1892665D01*
X2966502Y1892993D01*
X2966272Y1893328D01*
X2966051Y1893667D01*
X2965839Y1894012D01*
X2965635Y1894362D01*
X2965439Y1894717D01*
X2965253Y1895077D01*
X2965075Y1895441D01*
X2964906Y1895809D01*
X2964747Y1896182D01*
X2964596Y1896558D01*
X2964455Y1896938D01*
X2964323Y1897321D01*
X2964201Y1897707D01*
X2964088Y1898097D01*
X2963985Y1898488D01*
X2963891Y1898883D01*
X2963807Y1899279D01*
X2963733Y1899677D01*
X2963669Y1900077D01*
X2963614Y1900479D01*
X2963570Y1900882D01*
X2963535Y1901285D01*
X2963510Y1901690D01*
X2963495Y1902095D01*
X2963490Y1902500D01*
X58490Y1902500D02*
X58495Y1902905D01*
X58510Y1903310D01*
X58535Y1903715D01*
X58570Y1904118D01*
X58614Y1904521D01*
X58669Y1904923D01*
X58733Y1905323D01*
X58807Y1905721D01*
X58891Y1906117D01*
X58985Y1906512D01*
X59088Y1906903D01*
X59201Y1907293D01*
X59323Y1907679D01*
X59455Y1908062D01*
X59596Y1908442D01*
X59747Y1908818D01*
X59906Y1909191D01*
X60075Y1909559D01*
X60253Y1909923D01*
X60439Y1910283D01*
X60635Y1910638D01*
X60839Y1910988D01*
X61051Y1911333D01*
X61272Y1911672D01*
X61502Y1912007D01*
X61739Y1912335D01*
X61984Y1912657D01*
X62238Y1912974D01*
X62498Y1913284D01*
X62767Y1913587D01*
X63043Y1913884D01*
X63326Y1914174D01*
X63616Y1914457D01*
X63913Y1914733D01*
X64216Y1915002D01*
X64526Y1915262D01*
X64843Y1915516D01*
X65165Y1915761D01*
X65493Y1915998D01*
X65828Y1916228D01*
X66167Y1916449D01*
X66512Y1916661D01*
X66862Y1916865D01*
X67217Y1917061D01*
X67577Y1917247D01*
X67941Y1917425D01*
X68309Y1917594D01*
X68682Y1917753D01*
X69058Y1917904D01*
X69438Y1918045D01*
X69821Y1918177D01*
X70207Y1918299D01*
X70597Y1918412D01*
X70988Y1918515D01*
X71383Y1918609D01*
X71779Y1918693D01*
X72177Y1918767D01*
X72577Y1918831D01*
X72979Y1918886D01*
X73382Y1918930D01*
X73785Y1918965D01*
X74190Y1918990D01*
X74595Y1919005D01*
X75000Y1919010D01*
X75405Y1919005D01*
X75810Y1918990D01*
X76215Y1918965D01*
X76618Y1918930D01*
X77021Y1918886D01*
X77423Y1918831D01*
X77823Y1918767D01*
X78221Y1918693D01*
X78617Y1918609D01*
X79012Y1918515D01*
X79403Y1918412D01*
X79793Y1918299D01*
X80179Y1918177D01*
X80562Y1918045D01*
X80942Y1917904D01*
X81318Y1917753D01*
X81691Y1917594D01*
X82059Y1917425D01*
X82423Y1917247D01*
X82783Y1917061D01*
X83138Y1916865D01*
X83488Y1916661D01*
X83833Y1916449D01*
X84172Y1916228D01*
X84507Y1915998D01*
X84835Y1915761D01*
X85157Y1915516D01*
X85474Y1915262D01*
X85784Y1915002D01*
X86087Y1914733D01*
X86384Y1914457D01*
X86674Y1914174D01*
X86957Y1913884D01*
X87233Y1913587D01*
X87502Y1913284D01*
X87762Y1912974D01*
X88016Y1912657D01*
X88261Y1912335D01*
X88498Y1912007D01*
X88728Y1911672D01*
X88949Y1911333D01*
X89161Y1910988D01*
X89365Y1910638D01*
X89561Y1910283D01*
X89747Y1909923D01*
X89925Y1909559D01*
X90094Y1909191D01*
X90253Y1908818D01*
X90404Y1908442D01*
X90545Y1908062D01*
X90677Y1907679D01*
X90799Y1907293D01*
X90912Y1906903D01*
X91015Y1906512D01*
X91109Y1906117D01*
X91193Y1905721D01*
X91267Y1905323D01*
X91331Y1904923D01*
X91386Y1904521D01*
X91430Y1904118D01*
X91465Y1903715D01*
X91490Y1903310D01*
X91505Y1902905D01*
X91510Y1902500D01*
X91505Y1902095D01*
X91490Y1901690D01*
X91465Y1901285D01*
X91430Y1900882D01*
X91386Y1900479D01*
X91331Y1900077D01*
X91267Y1899677D01*
X91193Y1899279D01*
X91109Y1898883D01*
X91015Y1898488D01*
X90912Y1898097D01*
X90799Y1897707D01*
X90677Y1897321D01*
X90545Y1896938D01*
X90404Y1896558D01*
X90253Y1896182D01*
X90094Y1895809D01*
X89925Y1895441D01*
X89747Y1895077D01*
X89561Y1894717D01*
X89365Y1894362D01*
X89161Y1894012D01*
X88949Y1893667D01*
X88728Y1893328D01*
X88498Y1892993D01*
X88261Y1892665D01*
X88016Y1892343D01*
X87762Y1892026D01*
X87502Y1891716D01*
X87233Y1891413D01*
X86957Y1891116D01*
X86674Y1890826D01*
X86384Y1890543D01*
X86087Y1890267D01*
X85784Y1889998D01*
X85474Y1889738D01*
X85157Y1889484D01*
X84835Y1889239D01*
X84507Y1889002D01*
X84172Y1888772D01*
X83833Y1888551D01*
X83488Y1888339D01*
X83138Y1888135D01*
X82783Y1887939D01*
X82423Y1887753D01*
X82059Y1887575D01*
X81691Y1887406D01*
X81318Y1887247D01*
X80942Y1887096D01*
X80562Y1886955D01*
X80179Y1886823D01*
X79793Y1886701D01*
X79403Y1886588D01*
X79012Y1886485D01*
X78617Y1886391D01*
X78221Y1886307D01*
X77823Y1886233D01*
X77423Y1886169D01*
X77021Y1886114D01*
X76618Y1886070D01*
X76215Y1886035D01*
X75810Y1886010D01*
X75405Y1885995D01*
X75000Y1885990D01*
X74595Y1885995D01*
X74190Y1886010D01*
X73785Y1886035D01*
X73382Y1886070D01*
X72979Y1886114D01*
X72577Y1886169D01*
X72177Y1886233D01*
X71779Y1886307D01*
X71383Y1886391D01*
X70988Y1886485D01*
X70597Y1886588D01*
X70207Y1886701D01*
X69821Y1886823D01*
X69438Y1886955D01*
X69058Y1887096D01*
X68682Y1887247D01*
X68309Y1887406D01*
X67941Y1887575D01*
X67577Y1887753D01*
X67217Y1887939D01*
X66862Y1888135D01*
X66512Y1888339D01*
X66167Y1888551D01*
X65828Y1888772D01*
X65493Y1889002D01*
X65165Y1889239D01*
X64843Y1889484D01*
X64526Y1889738D01*
X64216Y1889998D01*
X63913Y1890267D01*
X63616Y1890543D01*
X63326Y1890826D01*
X63043Y1891116D01*
X62767Y1891413D01*
X62498Y1891716D01*
X62238Y1892026D01*
X61984Y1892343D01*
X61739Y1892665D01*
X61502Y1892993D01*
X61272Y1893328D01*
X61051Y1893667D01*
X60839Y1894012D01*
X60635Y1894362D01*
X60439Y1894717D01*
X60253Y1895077D01*
X60075Y1895441D01*
X59906Y1895809D01*
X59747Y1896182D01*
X59596Y1896558D01*
X59455Y1896938D01*
X59323Y1897321D01*
X59201Y1897707D01*
X59088Y1898097D01*
X58985Y1898488D01*
X58891Y1898883D01*
X58807Y1899279D01*
X58733Y1899677D01*
X58669Y1900077D01*
X58614Y1900479D01*
X58570Y1900882D01*
X58535Y1901285D01*
X58510Y1901690D01*
X58495Y1902095D01*
X58490Y1902500D01*
D13*
X0Y0D02*
X585630Y0D01*
X585630Y193200D01*
X645320Y193200D01*
X645320Y0D01*
X3055000Y0D01*
X3055000Y170000D01*
X3155000Y170000D01*
X3155000Y470000D01*
X3055000Y470000D01*
X3055000Y1971250D01*
X0Y1971250D01*
X0Y0D01*
X3083800Y454630D02*
X3094800Y454630D01*
X3095061Y454641D01*
X3095321Y454676D01*
X3095576Y454732D01*
X3095826Y454811D01*
X3096068Y454911D01*
X3096300Y455032D01*
X3096521Y455173D01*
X3096728Y455332D01*
X3096921Y455509D01*
X3097098Y455702D01*
X3097257Y455909D01*
X3097398Y456130D01*
X3097519Y456362D01*
X3097619Y456604D01*
X3097698Y456854D01*
X3097754Y457109D01*
X3097789Y457369D01*
X3097800Y457630D01*
X3097789Y457891D01*
X3097754Y458151D01*
X3097698Y458406D01*
X3097619Y458656D01*
X3097519Y458898D01*
X3097398Y459130D01*
X3097257Y459351D01*
X3097098Y459558D01*
X3096921Y459751D01*
X3096728Y459928D01*
X3096521Y460087D01*
X3096300Y460228D01*
X3096068Y460349D01*
X3095826Y460449D01*
X3095576Y460528D01*
X3095321Y460584D01*
X3095061Y460619D01*
X3094800Y460630D01*
X3083800Y460630D01*
X3083539Y460619D01*
X3083279Y460584D01*
X3083024Y460528D01*
X3082774Y460449D01*
X3082532Y460349D01*
X3082300Y460228D01*
X3082079Y460087D01*
X3081872Y459928D01*
X3081679Y459751D01*
X3081502Y459558D01*
X3081343Y459351D01*
X3081202Y459130D01*
X3081081Y458898D01*
X3080981Y458656D01*
X3080902Y458406D01*
X3080846Y458151D01*
X3080811Y457891D01*
X3080800Y457630D01*
X3080811Y457369D01*
X3080846Y457109D01*
X3080902Y456854D01*
X3080981Y456604D01*
X3081081Y456362D01*
X3081202Y456130D01*
X3081343Y455909D01*
X3081502Y455702D01*
X3081679Y455509D01*
X3081872Y455332D01*
X3082079Y455173D01*
X3082300Y455032D01*
X3082532Y454911D01*
X3082774Y454811D01*
X3083024Y454732D01*
X3083279Y454676D01*
X3083539Y454641D01*
X3083800Y454630D01*
X3127950Y454630D02*
X3134150Y454630D01*
X3134411Y454641D01*
X3134671Y454676D01*
X3134926Y454732D01*
X3135176Y454811D01*
X3135418Y454911D01*
X3135650Y455032D01*
X3135871Y455173D01*
X3136078Y455332D01*
X3136271Y455509D01*
X3136448Y455702D01*
X3136607Y455909D01*
X3136748Y456130D01*
X3136869Y456362D01*
X3136969Y456604D01*
X3137048Y456854D01*
X3137104Y457109D01*
X3137139Y457369D01*
X3137150Y457630D01*
X3137139Y457891D01*
X3137104Y458151D01*
X3137048Y458406D01*
X3136969Y458656D01*
X3136869Y458898D01*
X3136748Y459130D01*
X3136607Y459351D01*
X3136448Y459558D01*
X3136271Y459751D01*
X3136078Y459928D01*
X3135871Y460087D01*
X3135650Y460228D01*
X3135418Y460349D01*
X3135176Y460449D01*
X3134926Y460528D01*
X3134671Y460584D01*
X3134411Y460619D01*
X3134150Y460630D01*
X3127950Y460630D01*
X3127689Y460619D01*
X3127429Y460584D01*
X3127174Y460528D01*
X3126924Y460449D01*
X3126682Y460349D01*
X3126450Y460228D01*
X3126229Y460087D01*
X3126022Y459928D01*
X3125829Y459751D01*
X3125652Y459558D01*
X3125493Y459351D01*
X3125352Y459130D01*
X3125231Y458898D01*
X3125131Y458656D01*
X3125052Y458406D01*
X3124996Y458151D01*
X3124961Y457891D01*
X3124950Y457630D01*
X3124961Y457369D01*
X3124996Y457109D01*
X3125052Y456854D01*
X3125131Y456604D01*
X3125231Y456362D01*
X3125352Y456130D01*
X3125493Y455909D01*
X3125652Y455702D01*
X3125829Y455509D01*
X3126022Y455332D01*
X3126229Y455173D01*
X3126450Y455032D01*
X3126682Y454911D01*
X3126924Y454811D01*
X3127174Y454732D01*
X3127429Y454676D01*
X3127689Y454641D01*
X3127950Y454630D01*
X3127950Y368230D02*
X3134150Y368230D01*
X3134411Y368241D01*
X3134671Y368276D01*
X3134926Y368332D01*
X3135176Y368411D01*
X3135418Y368511D01*
X3135650Y368632D01*
X3135871Y368773D01*
X3136078Y368932D01*
X3136271Y369109D01*
X3136448Y369302D01*
X3136607Y369509D01*
X3136748Y369730D01*
X3136869Y369962D01*
X3136969Y370204D01*
X3137048Y370454D01*
X3137104Y370709D01*
X3137139Y370969D01*
X3137150Y371230D01*
X3137139Y371491D01*
X3137104Y371751D01*
X3137048Y372006D01*
X3136969Y372256D01*
X3136869Y372498D01*
X3136748Y372730D01*
X3136607Y372951D01*
X3136448Y373158D01*
X3136271Y373351D01*
X3136078Y373528D01*
X3135871Y373687D01*
X3135650Y373828D01*
X3135418Y373949D01*
X3135176Y374049D01*
X3134926Y374128D01*
X3134671Y374184D01*
X3134411Y374219D01*
X3134150Y374230D01*
X3127950Y374230D01*
X3127689Y374219D01*
X3127429Y374184D01*
X3127174Y374128D01*
X3126924Y374049D01*
X3126682Y373949D01*
X3126450Y373828D01*
X3126229Y373687D01*
X3126022Y373528D01*
X3125829Y373351D01*
X3125652Y373158D01*
X3125493Y372951D01*
X3125352Y372730D01*
X3125231Y372498D01*
X3125131Y372256D01*
X3125052Y372006D01*
X3124996Y371751D01*
X3124961Y371491D01*
X3124950Y371230D01*
X3124961Y370969D01*
X3124996Y370709D01*
X3125052Y370454D01*
X3125131Y370204D01*
X3125231Y369962D01*
X3125352Y369730D01*
X3125493Y369509D01*
X3125652Y369302D01*
X3125829Y369109D01*
X3126022Y368932D01*
X3126229Y368773D01*
X3126450Y368632D01*
X3126682Y368511D01*
X3126924Y368411D01*
X3127174Y368332D01*
X3127429Y368276D01*
X3127689Y368241D01*
X3127950Y368230D01*
X3083800Y368230D02*
X3094800Y368230D01*
X3095061Y368241D01*
X3095321Y368276D01*
X3095576Y368332D01*
X3095826Y368411D01*
X3096068Y368511D01*
X3096300Y368632D01*
X3096521Y368773D01*
X3096728Y368932D01*
X3096921Y369109D01*
X3097098Y369302D01*
X3097257Y369509D01*
X3097398Y369730D01*
X3097519Y369962D01*
X3097619Y370204D01*
X3097698Y370454D01*
X3097754Y370709D01*
X3097789Y370969D01*
X3097800Y371230D01*
X3097789Y371491D01*
X3097754Y371751D01*
X3097698Y372006D01*
X3097619Y372256D01*
X3097519Y372498D01*
X3097398Y372730D01*
X3097257Y372951D01*
X3097098Y373158D01*
X3096921Y373351D01*
X3096728Y373528D01*
X3096521Y373687D01*
X3096300Y373828D01*
X3096068Y373949D01*
X3095826Y374049D01*
X3095576Y374128D01*
X3095321Y374184D01*
X3095061Y374219D01*
X3094800Y374230D01*
X3083800Y374230D01*
X3083539Y374219D01*
X3083279Y374184D01*
X3083024Y374128D01*
X3082774Y374049D01*
X3082532Y373949D01*
X3082300Y373828D01*
X3082079Y373687D01*
X3081872Y373528D01*
X3081679Y373351D01*
X3081502Y373158D01*
X3081343Y372951D01*
X3081202Y372730D01*
X3081081Y372498D01*
X3080981Y372256D01*
X3080902Y372006D01*
X3080846Y371751D01*
X3080811Y371491D01*
X3080800Y371230D01*
X3080811Y370969D01*
X3080846Y370709D01*
X3080902Y370454D01*
X3080981Y370204D01*
X3081081Y369962D01*
X3081202Y369730D01*
X3081343Y369509D01*
X3081502Y369302D01*
X3081679Y369109D01*
X3081872Y368932D01*
X3082079Y368773D01*
X3082300Y368632D01*
X3082532Y368511D01*
X3082774Y368411D01*
X3083024Y368332D01*
X3083279Y368276D01*
X3083539Y368241D01*
X3083800Y368230D01*
X2996510Y74460D02*
X2996439Y73381D01*
X2996298Y72309D01*
X2996087Y71249D01*
X2995808Y70205D01*
X2995460Y69181D01*
X2995046Y68183D01*
X2994568Y67213D01*
X2994028Y66277D01*
X2993427Y65378D01*
X2992769Y64521D01*
X2992057Y63708D01*
X2991292Y62944D01*
X2990479Y62231D01*
X2989622Y61573D01*
X2988723Y60972D01*
X2987787Y60432D01*
X2986817Y59954D01*
X2985819Y59540D01*
X2984795Y59192D01*
X2983751Y58913D01*
X2982691Y58702D01*
X2981619Y58561D01*
X2980540Y58490D01*
X2979460Y58490D01*
X2978381Y58561D01*
X2977309Y58702D01*
X2976249Y58913D01*
X2975205Y59192D01*
X2974181Y59540D01*
X2973183Y59954D01*
X2972213Y60432D01*
X2971277Y60972D01*
X2970378Y61573D01*
X2969521Y62231D01*
X2968708Y62944D01*
X2967944Y63708D01*
X2967231Y64521D01*
X2966573Y65378D01*
X2965972Y66277D01*
X2965432Y67213D01*
X2964954Y68183D01*
X2964540Y69181D01*
X2964192Y70205D01*
X2963913Y71249D01*
X2963702Y72309D01*
X2963561Y73381D01*
X2963490Y74460D01*
X2963490Y75540D01*
X2963561Y76619D01*
X2963702Y77691D01*
X2963913Y78751D01*
X2964192Y79795D01*
X2964540Y80819D01*
X2964954Y81817D01*
X2965432Y82787D01*
X2965972Y83723D01*
X2966573Y84622D01*
X2967231Y85479D01*
X2967944Y86292D01*
X2968708Y87057D01*
X2969521Y87769D01*
X2970378Y88427D01*
X2971277Y89028D01*
X2972213Y89568D01*
X2973183Y90046D01*
X2974181Y90460D01*
X2975205Y90808D01*
X2976249Y91087D01*
X2977309Y91298D01*
X2978381Y91439D01*
X2979460Y91510D01*
X2980540Y91510D01*
X2981619Y91439D01*
X2982691Y91298D01*
X2983751Y91087D01*
X2984795Y90808D01*
X2985819Y90460D01*
X2986817Y90046D01*
X2987787Y89568D01*
X2988723Y89028D01*
X2989622Y88427D01*
X2990479Y87769D01*
X2991292Y87057D01*
X2992057Y86292D01*
X2992769Y85479D01*
X2993427Y84622D01*
X2994028Y83723D01*
X2994568Y82787D01*
X2995046Y81817D01*
X2995460Y80819D01*
X2995808Y79795D01*
X2996087Y78751D01*
X2996298Y77691D01*
X2996439Y76619D01*
X2996510Y75540D01*
X2996510Y74460D01*
X91510Y74460D02*
X91439Y73381D01*
X91298Y72309D01*
X91087Y71249D01*
X90808Y70205D01*
X90460Y69181D01*
X90046Y68183D01*
X89568Y67213D01*
X89028Y66277D01*
X88427Y65378D01*
X87769Y64521D01*
X87057Y63708D01*
X86292Y62944D01*
X85479Y62231D01*
X84622Y61573D01*
X83723Y60972D01*
X82787Y60432D01*
X81817Y59954D01*
X80819Y59540D01*
X79795Y59192D01*
X78751Y58913D01*
X77691Y58702D01*
X76619Y58561D01*
X75540Y58490D01*
X74460Y58490D01*
X73381Y58561D01*
X72309Y58702D01*
X71249Y58913D01*
X70205Y59192D01*
X69181Y59540D01*
X68183Y59954D01*
X67213Y60432D01*
X66277Y60972D01*
X65378Y61573D01*
X64521Y62231D01*
X63708Y62944D01*
X62944Y63708D01*
X62231Y64521D01*
X61573Y65378D01*
X60972Y66277D01*
X60432Y67213D01*
X59954Y68183D01*
X59540Y69181D01*
X59192Y70205D01*
X58913Y71249D01*
X58702Y72309D01*
X58561Y73381D01*
X58490Y74460D01*
X58490Y75540D01*
X58561Y76619D01*
X58702Y77691D01*
X58913Y78751D01*
X59192Y79795D01*
X59540Y80819D01*
X59954Y81817D01*
X60432Y82787D01*
X60972Y83723D01*
X61573Y84622D01*
X62231Y85479D01*
X62944Y86292D01*
X63708Y87057D01*
X64521Y87769D01*
X65378Y88427D01*
X66277Y89028D01*
X67213Y89568D01*
X68183Y90046D01*
X69181Y90460D01*
X70205Y90808D01*
X71249Y91087D01*
X72309Y91298D01*
X73381Y91439D01*
X74460Y91510D01*
X75540Y91510D01*
X76619Y91439D01*
X77691Y91298D01*
X78751Y91087D01*
X79795Y90808D01*
X80819Y90460D01*
X81817Y90046D01*
X82787Y89568D01*
X83723Y89028D01*
X84622Y88427D01*
X85479Y87769D01*
X86292Y87057D01*
X87057Y86292D01*
X87769Y85479D01*
X88427Y84622D01*
X89028Y83723D01*
X89568Y82787D01*
X90046Y81817D01*
X90460Y80819D01*
X90808Y79795D01*
X91087Y78751D01*
X91298Y77691D01*
X91439Y76619D01*
X91510Y75540D01*
X91510Y74460D01*
X3094813Y388780D02*
X3095235Y388724D01*
X3095647Y388614D01*
X3096041Y388451D01*
X3096409Y388238D01*
X3096747Y387979D01*
X3097049Y387677D01*
X3097308Y387339D01*
X3097521Y386971D01*
X3097684Y386577D01*
X3097794Y386165D01*
X3097850Y385743D01*
X3097850Y385317D01*
X3097794Y384895D01*
X3097684Y384483D01*
X3097521Y384089D01*
X3097308Y383721D01*
X3097049Y383383D01*
X3096747Y383081D01*
X3096409Y382822D01*
X3096041Y382609D01*
X3095647Y382446D01*
X3095235Y382336D01*
X3094813Y382280D01*
X3094387Y382280D01*
X3093965Y382336D01*
X3093553Y382446D01*
X3093159Y382609D01*
X3092791Y382822D01*
X3092453Y383081D01*
X3092151Y383383D01*
X3091892Y383721D01*
X3091679Y384089D01*
X3091516Y384483D01*
X3091406Y384895D01*
X3091350Y385317D01*
X3091350Y385743D01*
X3091406Y386165D01*
X3091516Y386577D01*
X3091679Y386971D01*
X3091892Y387339D01*
X3092151Y387677D01*
X3092453Y387979D01*
X3092791Y388238D01*
X3093159Y388451D01*
X3093553Y388614D01*
X3093965Y388724D01*
X3094387Y388780D01*
X3094813Y388780D01*
X3094813Y446580D02*
X3095235Y446524D01*
X3095647Y446414D01*
X3096041Y446251D01*
X3096409Y446038D01*
X3096747Y445779D01*
X3097049Y445477D01*
X3097308Y445139D01*
X3097521Y444771D01*
X3097684Y444377D01*
X3097794Y443965D01*
X3097850Y443543D01*
X3097850Y443117D01*
X3097794Y442695D01*
X3097684Y442283D01*
X3097521Y441889D01*
X3097308Y441521D01*
X3097049Y441183D01*
X3096747Y440881D01*
X3096409Y440622D01*
X3096041Y440409D01*
X3095647Y440246D01*
X3095235Y440136D01*
X3094813Y440080D01*
X3094387Y440080D01*
X3093965Y440136D01*
X3093553Y440246D01*
X3093159Y440409D01*
X3092791Y440622D01*
X3092453Y440881D01*
X3092151Y441183D01*
X3091892Y441521D01*
X3091679Y441889D01*
X3091516Y442283D01*
X3091406Y442695D01*
X3091350Y443117D01*
X3091350Y443543D01*
X3091406Y443965D01*
X3091516Y444377D01*
X3091679Y444771D01*
X3091892Y445139D01*
X3092151Y445477D01*
X3092453Y445779D01*
X3092791Y446038D01*
X3093159Y446251D01*
X3093553Y446414D01*
X3093965Y446524D01*
X3094387Y446580D01*
X3094813Y446580D01*
X3113000Y241337D02*
X3113075Y242007D01*
X3113225Y242664D01*
X3113448Y243300D01*
X3113740Y243907D01*
X3114099Y244478D01*
X3114519Y245004D01*
X3114996Y245481D01*
X3115523Y245901D01*
X3116093Y246260D01*
X3116700Y246552D01*
X3117336Y246775D01*
X3117993Y246925D01*
X3118663Y247000D01*
X3119337Y247000D01*
X3120007Y246925D01*
X3120664Y246775D01*
X3121300Y246552D01*
X3121907Y246260D01*
X3122478Y245901D01*
X3123004Y245481D01*
X3123481Y245004D01*
X3123901Y244478D01*
X3124260Y243907D01*
X3124552Y243300D01*
X3124775Y242664D01*
X3124925Y242007D01*
X3125000Y241337D01*
X3125000Y240663D01*
X3124925Y239993D01*
X3124775Y239336D01*
X3124552Y238700D01*
X3124260Y238093D01*
X3123901Y237523D01*
X3123481Y236996D01*
X3123004Y236519D01*
X3122478Y236099D01*
X3121907Y235740D01*
X3121300Y235448D01*
X3120664Y235225D01*
X3120007Y235075D01*
X3119337Y235000D01*
X3118663Y235000D01*
X3117993Y235075D01*
X3117336Y235225D01*
X3116700Y235448D01*
X3116093Y235740D01*
X3115523Y236099D01*
X3114996Y236519D01*
X3114519Y236996D01*
X3114099Y237523D01*
X3113740Y238093D01*
X3113448Y238700D01*
X3113225Y239336D01*
X3113075Y239993D01*
X3113000Y240663D01*
X3113000Y241337D01*
X3043000Y241337D02*
X3043075Y242007D01*
X3043225Y242664D01*
X3043448Y243300D01*
X3043740Y243907D01*
X3044099Y244478D01*
X3044519Y245004D01*
X3044996Y245481D01*
X3045523Y245901D01*
X3046093Y246260D01*
X3046700Y246552D01*
X3047336Y246775D01*
X3047993Y246925D01*
X3048663Y247000D01*
X3049337Y247000D01*
X3050007Y246925D01*
X3050664Y246775D01*
X3051300Y246552D01*
X3051907Y246260D01*
X3052478Y245901D01*
X3053004Y245481D01*
X3053481Y245004D01*
X3053901Y244478D01*
X3054260Y243907D01*
X3054552Y243300D01*
X3054775Y242664D01*
X3054925Y242007D01*
X3055000Y241337D01*
X3055000Y240663D01*
X3054925Y239993D01*
X3054775Y239336D01*
X3054552Y238700D01*
X3054260Y238093D01*
X3053901Y237523D01*
X3053481Y236996D01*
X3053004Y236519D01*
X3052478Y236099D01*
X3051907Y235740D01*
X3051300Y235448D01*
X3050664Y235225D01*
X3050007Y235075D01*
X3049337Y235000D01*
X3048663Y235000D01*
X3047993Y235075D01*
X3047336Y235225D01*
X3046700Y235448D01*
X3046093Y235740D01*
X3045523Y236099D01*
X3044996Y236519D01*
X3044519Y236996D01*
X3044099Y237523D01*
X3043740Y238093D01*
X3043448Y238700D01*
X3043225Y239336D01*
X3043075Y239993D01*
X3043000Y240663D01*
X3043000Y241337D01*
X126705Y170700D02*
X126120Y170777D01*
X125550Y170930D01*
X125005Y171155D01*
X124495Y171450D01*
X124027Y171809D01*
X123609Y172227D01*
X123250Y172695D01*
X122955Y173205D01*
X122730Y173750D01*
X122577Y174320D01*
X122500Y174905D01*
X122500Y175495D01*
X122577Y176080D01*
X122730Y176650D01*
X122955Y177195D01*
X123250Y177705D01*
X123609Y178173D01*
X124027Y178591D01*
X124495Y178950D01*
X125005Y179245D01*
X125550Y179470D01*
X126120Y179623D01*
X126705Y179700D01*
X127295Y179700D01*
X127880Y179623D01*
X128450Y179470D01*
X128995Y179245D01*
X129505Y178950D01*
X129973Y178591D01*
X130391Y178173D01*
X130750Y177705D01*
X131045Y177195D01*
X131270Y176650D01*
X131423Y176080D01*
X131500Y175495D01*
X131500Y174905D01*
X131423Y174320D01*
X131270Y173750D01*
X131045Y173205D01*
X130750Y172695D01*
X130391Y172227D01*
X129973Y171809D01*
X129505Y171450D01*
X128995Y171155D01*
X128450Y170930D01*
X127880Y170777D01*
X127295Y170700D01*
X126705Y170700D01*
X1722830Y1901960D02*
X1722759Y1900881D01*
X1722618Y1899809D01*
X1722407Y1898749D01*
X1722128Y1897705D01*
X1721780Y1896681D01*
X1721366Y1895683D01*
X1720888Y1894713D01*
X1720348Y1893777D01*
X1719747Y1892878D01*
X1719089Y1892021D01*
X1718377Y1891208D01*
X1717612Y1890444D01*
X1716799Y1889731D01*
X1715942Y1889073D01*
X1715043Y1888472D01*
X1714107Y1887932D01*
X1713137Y1887454D01*
X1712139Y1887040D01*
X1711115Y1886692D01*
X1710071Y1886413D01*
X1709011Y1886202D01*
X1707939Y1886061D01*
X1706860Y1885990D01*
X1705780Y1885990D01*
X1704701Y1886061D01*
X1703629Y1886202D01*
X1702569Y1886413D01*
X1701525Y1886692D01*
X1700501Y1887040D01*
X1699503Y1887454D01*
X1698533Y1887932D01*
X1697597Y1888472D01*
X1696698Y1889073D01*
X1695841Y1889731D01*
X1695028Y1890444D01*
X1694264Y1891208D01*
X1693551Y1892021D01*
X1692893Y1892878D01*
X1692292Y1893777D01*
X1691752Y1894713D01*
X1691274Y1895683D01*
X1690860Y1896681D01*
X1690512Y1897705D01*
X1690233Y1898749D01*
X1690022Y1899809D01*
X1689881Y1900881D01*
X1689810Y1901960D01*
X1689810Y1903040D01*
X1689881Y1904119D01*
X1690022Y1905191D01*
X1690233Y1906251D01*
X1690512Y1907295D01*
X1690860Y1908319D01*
X1691274Y1909317D01*
X1691752Y1910287D01*
X1692292Y1911223D01*
X1692893Y1912122D01*
X1693551Y1912979D01*
X1694264Y1913792D01*
X1695028Y1914557D01*
X1695841Y1915269D01*
X1696698Y1915927D01*
X1697597Y1916528D01*
X1698533Y1917068D01*
X1699503Y1917546D01*
X1700501Y1917960D01*
X1701525Y1918308D01*
X1702569Y1918587D01*
X1703629Y1918798D01*
X1704701Y1918939D01*
X1705780Y1919010D01*
X1706860Y1919010D01*
X1707939Y1918939D01*
X1709011Y1918798D01*
X1710071Y1918587D01*
X1711115Y1918308D01*
X1712139Y1917960D01*
X1713137Y1917546D01*
X1714107Y1917068D01*
X1715043Y1916528D01*
X1715942Y1915927D01*
X1716799Y1915269D01*
X1717612Y1914557D01*
X1718377Y1913792D01*
X1719089Y1912979D01*
X1719747Y1912122D01*
X1720348Y1911223D01*
X1720888Y1910287D01*
X1721366Y1909317D01*
X1721780Y1908319D01*
X1722128Y1907295D01*
X1722407Y1906251D01*
X1722618Y1905191D01*
X1722759Y1904119D01*
X1722830Y1903040D01*
X1722830Y1901960D01*
X1365190Y74460D02*
X1365119Y73381D01*
X1364978Y72309D01*
X1364767Y71249D01*
X1364488Y70205D01*
X1364140Y69181D01*
X1363726Y68183D01*
X1363248Y67213D01*
X1362708Y66277D01*
X1362107Y65378D01*
X1361449Y64521D01*
X1360737Y63708D01*
X1359972Y62944D01*
X1359159Y62231D01*
X1358302Y61573D01*
X1357403Y60972D01*
X1356467Y60432D01*
X1355497Y59954D01*
X1354499Y59540D01*
X1353475Y59192D01*
X1352431Y58913D01*
X1351371Y58702D01*
X1350299Y58561D01*
X1349220Y58490D01*
X1348140Y58490D01*
X1347061Y58561D01*
X1345989Y58702D01*
X1344929Y58913D01*
X1343885Y59192D01*
X1342861Y59540D01*
X1341863Y59954D01*
X1340893Y60432D01*
X1339957Y60972D01*
X1339058Y61573D01*
X1338201Y62231D01*
X1337388Y62944D01*
X1336624Y63708D01*
X1335911Y64521D01*
X1335253Y65378D01*
X1334652Y66277D01*
X1334112Y67213D01*
X1333634Y68183D01*
X1333220Y69181D01*
X1332872Y70205D01*
X1332593Y71249D01*
X1332382Y72309D01*
X1332241Y73381D01*
X1332170Y74460D01*
X1332170Y75540D01*
X1332241Y76619D01*
X1332382Y77691D01*
X1332593Y78751D01*
X1332872Y79795D01*
X1333220Y80819D01*
X1333634Y81817D01*
X1334112Y82787D01*
X1334652Y83723D01*
X1335253Y84622D01*
X1335911Y85479D01*
X1336624Y86292D01*
X1337388Y87057D01*
X1338201Y87769D01*
X1339058Y88427D01*
X1339957Y89028D01*
X1340893Y89568D01*
X1341863Y90046D01*
X1342861Y90460D01*
X1343885Y90808D01*
X1344929Y91087D01*
X1345989Y91298D01*
X1347061Y91439D01*
X1348140Y91510D01*
X1349220Y91510D01*
X1350299Y91439D01*
X1351371Y91298D01*
X1352431Y91087D01*
X1353475Y90808D01*
X1354499Y90460D01*
X1355497Y90046D01*
X1356467Y89568D01*
X1357403Y89028D01*
X1358302Y88427D01*
X1359159Y87769D01*
X1359972Y87057D01*
X1360737Y86292D01*
X1361449Y85479D01*
X1362107Y84622D01*
X1362708Y83723D01*
X1363248Y82787D01*
X1363726Y81817D01*
X1364140Y80819D01*
X1364488Y79795D01*
X1364767Y78751D01*
X1364978Y77691D01*
X1365119Y76619D01*
X1365190Y75540D01*
X1365190Y74460D01*
X2996510Y1901960D02*
X2996439Y1900881D01*
X2996298Y1899809D01*
X2996087Y1898749D01*
X2995808Y1897705D01*
X2995460Y1896681D01*
X2995046Y1895683D01*
X2994568Y1894713D01*
X2994028Y1893777D01*
X2993427Y1892878D01*
X2992769Y1892021D01*
X2992057Y1891208D01*
X2991292Y1890444D01*
X2990479Y1889731D01*
X2989622Y1889073D01*
X2988723Y1888472D01*
X2987787Y1887932D01*
X2986817Y1887454D01*
X2985819Y1887040D01*
X2984795Y1886692D01*
X2983751Y1886413D01*
X2982691Y1886202D01*
X2981619Y1886061D01*
X2980540Y1885990D01*
X2979460Y1885990D01*
X2978381Y1886061D01*
X2977309Y1886202D01*
X2976249Y1886413D01*
X2975205Y1886692D01*
X2974181Y1887040D01*
X2973183Y1887454D01*
X2972213Y1887932D01*
X2971277Y1888472D01*
X2970378Y1889073D01*
X2969521Y1889731D01*
X2968708Y1890444D01*
X2967944Y1891208D01*
X2967231Y1892021D01*
X2966573Y1892878D01*
X2965972Y1893777D01*
X2965432Y1894713D01*
X2964954Y1895683D01*
X2964540Y1896681D01*
X2964192Y1897705D01*
X2963913Y1898749D01*
X2963702Y1899809D01*
X2963561Y1900881D01*
X2963490Y1901960D01*
X2963490Y1903040D01*
X2963561Y1904119D01*
X2963702Y1905191D01*
X2963913Y1906251D01*
X2964192Y1907295D01*
X2964540Y1908319D01*
X2964954Y1909317D01*
X2965432Y1910287D01*
X2965972Y1911223D01*
X2966573Y1912122D01*
X2967231Y1912979D01*
X2967944Y1913792D01*
X2968708Y1914557D01*
X2969521Y1915269D01*
X2970378Y1915927D01*
X2971277Y1916528D01*
X2972213Y1917068D01*
X2973183Y1917546D01*
X2974181Y1917960D01*
X2975205Y1918308D01*
X2976249Y1918587D01*
X2977309Y1918798D01*
X2978381Y1918939D01*
X2979460Y1919010D01*
X2980540Y1919010D01*
X2981619Y1918939D01*
X2982691Y1918798D01*
X2983751Y1918587D01*
X2984795Y1918308D01*
X2985819Y1917960D01*
X2986817Y1917546D01*
X2987787Y1917068D01*
X2988723Y1916528D01*
X2989622Y1915927D01*
X2990479Y1915269D01*
X2991292Y1914557D01*
X2992057Y1913792D01*
X2992769Y1912979D01*
X2993427Y1912122D01*
X2994028Y1911223D01*
X2994568Y1910287D01*
X2995046Y1909317D01*
X2995460Y1908319D01*
X2995808Y1907295D01*
X2996087Y1906251D01*
X2996298Y1905191D01*
X2996439Y1904119D01*
X2996510Y1903040D01*
X2996510Y1901960D01*
X91510Y1901960D02*
X91439Y1900881D01*
X91298Y1899809D01*
X91087Y1898749D01*
X90808Y1897705D01*
X90460Y1896681D01*
X90046Y1895683D01*
X89568Y1894713D01*
X89028Y1893777D01*
X88427Y1892878D01*
X87769Y1892021D01*
X87057Y1891208D01*
X86292Y1890444D01*
X85479Y1889731D01*
X84622Y1889073D01*
X83723Y1888472D01*
X82787Y1887932D01*
X81817Y1887454D01*
X80819Y1887040D01*
X79795Y1886692D01*
X78751Y1886413D01*
X77691Y1886202D01*
X76619Y1886061D01*
X75540Y1885990D01*
X74460Y1885990D01*
X73381Y1886061D01*
X72309Y1886202D01*
X71249Y1886413D01*
X70205Y1886692D01*
X69181Y1887040D01*
X68183Y1887454D01*
X67213Y1887932D01*
X66277Y1888472D01*
X65378Y1889073D01*
X64521Y1889731D01*
X63708Y1890444D01*
X62944Y1891208D01*
X62231Y1892021D01*
X61573Y1892878D01*
X60972Y1893777D01*
X60432Y1894713D01*
X59954Y1895683D01*
X59540Y1896681D01*
X59192Y1897705D01*
X58913Y1898749D01*
X58702Y1899809D01*
X58561Y1900881D01*
X58490Y1901960D01*
X58490Y1903040D01*
X58561Y1904119D01*
X58702Y1905191D01*
X58913Y1906251D01*
X59192Y1907295D01*
X59540Y1908319D01*
X59954Y1909317D01*
X60432Y1910287D01*
X60972Y1911223D01*
X61573Y1912122D01*
X62231Y1912979D01*
X62944Y1913792D01*
X63708Y1914557D01*
X64521Y1915269D01*
X65378Y1915927D01*
X66277Y1916528D01*
X67213Y1917068D01*
X68183Y1917546D01*
X69181Y1917960D01*
X70205Y1918308D01*
X71249Y1918587D01*
X72309Y1918798D01*
X73381Y1918939D01*
X74460Y1919010D01*
X75540Y1919010D01*
X76619Y1918939D01*
X77691Y1918798D01*
X78751Y1918587D01*
X79795Y1918308D01*
X80819Y1917960D01*
X81817Y1917546D01*
X82787Y1917068D01*
X83723Y1916528D01*
X84622Y1915927D01*
X85479Y1915269D01*
X86292Y1914557D01*
X87057Y1913792D01*
X87769Y1912979D01*
X88427Y1912122D01*
X89028Y1911223D01*
X89568Y1910287D01*
X90046Y1909317D01*
X90460Y1908319D01*
X90808Y1907295D01*
X91087Y1906251D01*
X91298Y1905191D01*
X91439Y1904119D01*
X91510Y1903040D01*
X91510Y1901960D01*
M02*
