G04 EAGLE Gerber RS-274X export*
G75*
%MOMM*%
%FSLAX34Y34*%
%LPD*%
%INSolderpaste Top*%
%IPPOS*%
%AMOC8*
5,1,8,0,0,1.08239X$1,22.5*%
G01*
%ADD10R,1.100000X1.000000*%
%ADD11R,0.300000X0.660000*%
%ADD12R,1.000000X1.100000*%
%ADD13R,0.900000X1.000000*%
%ADD14R,0.900000X1.500000*%
%ADD15R,1.500000X0.900000*%
%ADD16R,6.000000X6.000000*%
%ADD17R,0.550000X1.200000*%
%ADD18R,1.016000X0.300000*%
%ADD19R,1.016000X0.600000*%
%ADD20R,1.016000X0.550000*%
%ADD21R,1.200000X2.500000*%
%ADD22C,0.030000*%
%ADD23C,0.700000*%
%ADD24C,0.900000*%
%ADD25R,1.200000X0.550000*%
%ADD26R,1.651000X1.000000*%

G36*
X3105205Y267154D02*
X3105205Y267154D01*
X3105208Y267151D01*
X3106475Y267356D01*
X3106481Y267362D01*
X3106486Y267359D01*
X3107675Y267841D01*
X3107679Y267848D01*
X3107685Y267846D01*
X3108738Y268580D01*
X3108740Y268588D01*
X3108746Y268587D01*
X3109609Y269537D01*
X3109610Y269546D01*
X3109615Y269546D01*
X3110245Y270665D01*
X3110244Y270673D01*
X3110250Y270675D01*
X3110615Y271905D01*
X3110612Y271912D01*
X3110616Y271915D01*
X3110615Y271915D01*
X3110617Y271916D01*
X3110699Y273197D01*
X3110697Y273201D01*
X3110699Y273203D01*
X3110617Y274484D01*
X3110611Y274490D01*
X3110615Y274495D01*
X3110250Y275725D01*
X3110243Y275730D01*
X3110245Y275735D01*
X3109615Y276854D01*
X3109608Y276857D01*
X3109609Y276863D01*
X3108746Y277813D01*
X3108738Y277814D01*
X3108738Y277820D01*
X3107685Y278554D01*
X3107677Y278554D01*
X3107675Y278559D01*
X3106486Y279041D01*
X3106478Y279039D01*
X3106475Y279044D01*
X3105208Y279249D01*
X3105203Y279246D01*
X3105200Y279249D01*
X3093200Y279249D01*
X3093196Y279246D01*
X3093193Y279249D01*
X3092071Y279094D01*
X3092066Y279089D01*
X3092062Y279092D01*
X3090991Y278721D01*
X3090987Y278715D01*
X3090982Y278717D01*
X3090005Y278144D01*
X3090002Y278138D01*
X3089997Y278139D01*
X3089150Y277386D01*
X3089148Y277379D01*
X3089143Y277379D01*
X3088459Y276476D01*
X3088459Y276469D01*
X3088454Y276468D01*
X3087959Y275449D01*
X3087961Y275442D01*
X3087959Y275441D01*
X3087956Y275440D01*
X3087669Y274343D01*
X3087672Y274337D01*
X3087668Y274334D01*
X3087601Y273203D01*
X3087603Y273199D01*
X3087601Y273197D01*
X3087668Y272066D01*
X3087673Y272061D01*
X3087669Y272057D01*
X3087956Y270960D01*
X3087962Y270956D01*
X3087959Y270951D01*
X3088454Y269932D01*
X3088460Y269929D01*
X3088459Y269924D01*
X3089143Y269021D01*
X3089150Y269019D01*
X3089150Y269014D01*
X3089997Y268261D01*
X3090004Y268261D01*
X3090005Y268256D01*
X3090982Y267683D01*
X3090989Y267684D01*
X3090991Y267679D01*
X3092062Y267308D01*
X3092068Y267311D01*
X3092071Y267306D01*
X3093193Y267151D01*
X3093198Y267154D01*
X3093200Y267151D01*
X3105200Y267151D01*
X3105205Y267154D01*
G37*
G36*
X3105205Y180754D02*
X3105205Y180754D01*
X3105208Y180751D01*
X3106475Y180956D01*
X3106481Y180962D01*
X3106486Y180959D01*
X3107675Y181441D01*
X3107679Y181448D01*
X3107685Y181446D01*
X3108738Y182180D01*
X3108740Y182188D01*
X3108746Y182187D01*
X3109609Y183137D01*
X3109610Y183146D01*
X3109615Y183146D01*
X3110245Y184265D01*
X3110244Y184273D01*
X3110250Y184275D01*
X3110615Y185505D01*
X3110612Y185512D01*
X3110616Y185515D01*
X3110615Y185515D01*
X3110617Y185516D01*
X3110699Y186797D01*
X3110697Y186801D01*
X3110699Y186803D01*
X3110617Y188084D01*
X3110611Y188090D01*
X3110615Y188095D01*
X3110250Y189325D01*
X3110243Y189330D01*
X3110245Y189335D01*
X3109615Y190454D01*
X3109608Y190457D01*
X3109609Y190463D01*
X3108746Y191413D01*
X3108738Y191414D01*
X3108738Y191420D01*
X3107685Y192154D01*
X3107677Y192154D01*
X3107675Y192159D01*
X3106486Y192641D01*
X3106478Y192639D01*
X3106475Y192644D01*
X3105208Y192849D01*
X3105203Y192846D01*
X3105200Y192849D01*
X3093200Y192849D01*
X3093196Y192846D01*
X3093193Y192849D01*
X3092071Y192694D01*
X3092066Y192689D01*
X3092062Y192692D01*
X3090991Y192321D01*
X3090987Y192315D01*
X3090982Y192317D01*
X3090005Y191744D01*
X3090002Y191738D01*
X3089997Y191739D01*
X3089150Y190986D01*
X3089148Y190979D01*
X3089143Y190979D01*
X3088459Y190076D01*
X3088459Y190069D01*
X3088454Y190068D01*
X3087959Y189049D01*
X3087961Y189042D01*
X3087959Y189041D01*
X3087956Y189040D01*
X3087669Y187943D01*
X3087672Y187937D01*
X3087668Y187934D01*
X3087601Y186803D01*
X3087603Y186799D01*
X3087601Y186797D01*
X3087668Y185666D01*
X3087673Y185661D01*
X3087669Y185657D01*
X3087956Y184560D01*
X3087962Y184556D01*
X3087959Y184551D01*
X3088454Y183532D01*
X3088460Y183529D01*
X3088459Y183524D01*
X3089143Y182621D01*
X3089150Y182619D01*
X3089150Y182614D01*
X3089997Y181861D01*
X3090004Y181861D01*
X3090005Y181856D01*
X3090982Y181283D01*
X3090989Y181284D01*
X3090991Y181279D01*
X3092062Y180908D01*
X3092068Y180911D01*
X3092071Y180906D01*
X3093193Y180751D01*
X3093198Y180754D01*
X3093200Y180751D01*
X3105200Y180751D01*
X3105205Y180754D01*
G37*
G36*
X3144004Y267153D02*
X3144004Y267153D01*
X3144006Y267151D01*
X3145335Y267306D01*
X3145341Y267312D01*
X3145345Y267309D01*
X3146606Y267756D01*
X3146611Y267763D01*
X3146616Y267761D01*
X3147746Y268478D01*
X3147749Y268485D01*
X3147755Y268484D01*
X3148697Y269435D01*
X3148698Y269443D01*
X3148704Y269443D01*
X3149411Y270579D01*
X3149411Y270584D01*
X3149412Y270585D01*
X3149411Y270587D01*
X3149416Y270589D01*
X3149852Y271854D01*
X3149850Y271862D01*
X3149855Y271865D01*
X3149999Y273195D01*
X3149995Y273201D01*
X3149999Y273205D01*
X3149889Y274371D01*
X3149884Y274376D01*
X3149887Y274380D01*
X3149552Y275503D01*
X3149546Y275507D01*
X3149548Y275511D01*
X3149000Y276547D01*
X3148994Y276550D01*
X3148995Y276555D01*
X3148256Y277463D01*
X3148249Y277465D01*
X3148249Y277470D01*
X3147347Y278217D01*
X3147340Y278217D01*
X3147339Y278223D01*
X3146308Y278779D01*
X3146301Y278778D01*
X3146299Y278783D01*
X3145180Y279127D01*
X3145173Y279125D01*
X3145170Y279129D01*
X3144005Y279249D01*
X3144002Y279247D01*
X3144000Y279249D01*
X3138000Y279249D01*
X3137997Y279247D01*
X3137995Y279249D01*
X3136819Y279138D01*
X3136814Y279133D01*
X3136810Y279136D01*
X3135678Y278798D01*
X3135674Y278792D01*
X3135669Y278794D01*
X3134625Y278242D01*
X3134622Y278235D01*
X3134617Y278237D01*
X3133701Y277491D01*
X3133700Y277484D01*
X3133694Y277484D01*
X3132941Y276575D01*
X3132941Y276567D01*
X3132936Y276567D01*
X3132375Y275527D01*
X3132376Y275520D01*
X3132371Y275518D01*
X3132024Y274389D01*
X3132026Y274383D01*
X3132022Y274380D01*
X3131901Y273205D01*
X3131905Y273198D01*
X3131901Y273194D01*
X3132058Y271854D01*
X3132063Y271848D01*
X3132060Y271843D01*
X3132511Y270572D01*
X3132518Y270567D01*
X3132516Y270562D01*
X3133238Y269423D01*
X3133246Y269420D01*
X3133245Y269414D01*
X3134203Y268464D01*
X3134211Y268463D01*
X3134212Y268457D01*
X3135357Y267744D01*
X3135366Y267745D01*
X3135367Y267739D01*
X3136643Y267299D01*
X3136650Y267301D01*
X3136652Y267299D01*
X3136653Y267297D01*
X3137995Y267151D01*
X3137998Y267153D01*
X3138000Y267151D01*
X3144000Y267151D01*
X3144004Y267153D01*
G37*
G36*
X3144004Y180753D02*
X3144004Y180753D01*
X3144006Y180751D01*
X3145335Y180906D01*
X3145341Y180912D01*
X3145345Y180909D01*
X3146606Y181356D01*
X3146611Y181363D01*
X3146616Y181361D01*
X3147746Y182078D01*
X3147749Y182085D01*
X3147755Y182084D01*
X3148697Y183035D01*
X3148698Y183043D01*
X3148704Y183043D01*
X3149411Y184179D01*
X3149411Y184184D01*
X3149412Y184185D01*
X3149411Y184187D01*
X3149416Y184189D01*
X3149852Y185454D01*
X3149850Y185462D01*
X3149855Y185465D01*
X3149999Y186795D01*
X3149995Y186801D01*
X3149999Y186805D01*
X3149889Y187971D01*
X3149884Y187976D01*
X3149887Y187980D01*
X3149552Y189103D01*
X3149546Y189107D01*
X3149548Y189111D01*
X3149000Y190147D01*
X3148994Y190150D01*
X3148995Y190155D01*
X3148256Y191063D01*
X3148249Y191065D01*
X3148249Y191070D01*
X3147347Y191817D01*
X3147340Y191817D01*
X3147339Y191823D01*
X3146308Y192379D01*
X3146301Y192378D01*
X3146299Y192383D01*
X3145180Y192727D01*
X3145173Y192725D01*
X3145170Y192729D01*
X3144005Y192849D01*
X3144002Y192847D01*
X3144000Y192849D01*
X3138000Y192849D01*
X3137997Y192847D01*
X3137995Y192849D01*
X3136819Y192738D01*
X3136814Y192733D01*
X3136810Y192736D01*
X3135678Y192398D01*
X3135674Y192392D01*
X3135669Y192394D01*
X3134625Y191842D01*
X3134622Y191835D01*
X3134617Y191837D01*
X3133701Y191091D01*
X3133700Y191084D01*
X3133694Y191084D01*
X3132941Y190175D01*
X3132941Y190167D01*
X3132936Y190167D01*
X3132375Y189127D01*
X3132376Y189120D01*
X3132371Y189118D01*
X3132024Y187989D01*
X3132026Y187983D01*
X3132022Y187980D01*
X3131901Y186805D01*
X3131905Y186798D01*
X3131901Y186794D01*
X3132058Y185454D01*
X3132063Y185448D01*
X3132060Y185443D01*
X3132511Y184172D01*
X3132518Y184167D01*
X3132516Y184162D01*
X3133238Y183023D01*
X3133246Y183020D01*
X3133245Y183014D01*
X3134203Y182064D01*
X3134211Y182063D01*
X3134212Y182057D01*
X3135357Y181344D01*
X3135366Y181345D01*
X3135367Y181339D01*
X3136643Y180899D01*
X3136650Y180901D01*
X3136652Y180899D01*
X3136653Y180897D01*
X3137995Y180751D01*
X3137998Y180753D01*
X3138000Y180751D01*
X3144000Y180751D01*
X3144004Y180753D01*
G37*
G36*
X228865Y105377D02*
X228865Y105377D01*
X228931Y105379D01*
X228974Y105397D01*
X229021Y105405D01*
X229078Y105439D01*
X229138Y105464D01*
X229173Y105495D01*
X229214Y105520D01*
X229256Y105571D01*
X229304Y105615D01*
X229326Y105657D01*
X229355Y105694D01*
X229376Y105756D01*
X229407Y105815D01*
X229415Y105869D01*
X229427Y105906D01*
X229426Y105946D01*
X229434Y106000D01*
X229434Y113500D01*
X229423Y113565D01*
X229421Y113631D01*
X229403Y113674D01*
X229395Y113721D01*
X229361Y113778D01*
X229336Y113838D01*
X229305Y113873D01*
X229280Y113914D01*
X229229Y113956D01*
X229185Y114004D01*
X229143Y114026D01*
X229106Y114055D01*
X229044Y114076D01*
X228985Y114107D01*
X228931Y114115D01*
X228894Y114127D01*
X228854Y114126D01*
X228800Y114134D01*
X221300Y114134D01*
X221235Y114123D01*
X221169Y114121D01*
X221126Y114103D01*
X221079Y114095D01*
X221022Y114061D01*
X220962Y114036D01*
X220927Y114005D01*
X220886Y113980D01*
X220845Y113929D01*
X220796Y113885D01*
X220774Y113843D01*
X220745Y113806D01*
X220724Y113744D01*
X220693Y113685D01*
X220685Y113631D01*
X220673Y113594D01*
X220674Y113554D01*
X220666Y113500D01*
X220666Y106000D01*
X220677Y105935D01*
X220679Y105869D01*
X220697Y105826D01*
X220705Y105779D01*
X220739Y105722D01*
X220764Y105662D01*
X220795Y105627D01*
X220820Y105586D01*
X220871Y105545D01*
X220915Y105496D01*
X220957Y105474D01*
X220994Y105445D01*
X221056Y105424D01*
X221115Y105393D01*
X221169Y105385D01*
X221206Y105373D01*
X221246Y105374D01*
X221300Y105366D01*
X228800Y105366D01*
X228865Y105377D01*
G37*
G36*
X241365Y105377D02*
X241365Y105377D01*
X241431Y105379D01*
X241474Y105397D01*
X241521Y105405D01*
X241578Y105439D01*
X241638Y105464D01*
X241673Y105495D01*
X241714Y105520D01*
X241756Y105571D01*
X241804Y105615D01*
X241826Y105657D01*
X241855Y105694D01*
X241876Y105756D01*
X241907Y105815D01*
X241915Y105869D01*
X241927Y105906D01*
X241926Y105946D01*
X241934Y106000D01*
X241934Y113500D01*
X241923Y113565D01*
X241921Y113631D01*
X241903Y113674D01*
X241895Y113721D01*
X241861Y113778D01*
X241836Y113838D01*
X241805Y113873D01*
X241780Y113914D01*
X241729Y113956D01*
X241685Y114004D01*
X241643Y114026D01*
X241606Y114055D01*
X241544Y114076D01*
X241485Y114107D01*
X241431Y114115D01*
X241394Y114127D01*
X241354Y114126D01*
X241300Y114134D01*
X233800Y114134D01*
X233735Y114123D01*
X233669Y114121D01*
X233626Y114103D01*
X233579Y114095D01*
X233522Y114061D01*
X233462Y114036D01*
X233427Y114005D01*
X233386Y113980D01*
X233345Y113929D01*
X233296Y113885D01*
X233274Y113843D01*
X233245Y113806D01*
X233224Y113744D01*
X233193Y113685D01*
X233185Y113631D01*
X233173Y113594D01*
X233174Y113554D01*
X233166Y113500D01*
X233166Y106000D01*
X233177Y105935D01*
X233179Y105869D01*
X233197Y105826D01*
X233205Y105779D01*
X233239Y105722D01*
X233264Y105662D01*
X233295Y105627D01*
X233320Y105586D01*
X233371Y105545D01*
X233415Y105496D01*
X233457Y105474D01*
X233494Y105445D01*
X233556Y105424D01*
X233615Y105393D01*
X233669Y105385D01*
X233706Y105373D01*
X233746Y105374D01*
X233800Y105366D01*
X241300Y105366D01*
X241365Y105377D01*
G37*
G36*
X241365Y92877D02*
X241365Y92877D01*
X241431Y92879D01*
X241474Y92897D01*
X241521Y92905D01*
X241578Y92939D01*
X241638Y92964D01*
X241673Y92995D01*
X241714Y93020D01*
X241756Y93071D01*
X241804Y93115D01*
X241826Y93157D01*
X241855Y93194D01*
X241876Y93256D01*
X241907Y93315D01*
X241915Y93369D01*
X241927Y93406D01*
X241926Y93446D01*
X241934Y93500D01*
X241934Y101000D01*
X241923Y101065D01*
X241921Y101131D01*
X241903Y101174D01*
X241895Y101221D01*
X241861Y101278D01*
X241836Y101338D01*
X241805Y101373D01*
X241780Y101414D01*
X241729Y101456D01*
X241685Y101504D01*
X241643Y101526D01*
X241606Y101555D01*
X241544Y101576D01*
X241485Y101607D01*
X241431Y101615D01*
X241394Y101627D01*
X241354Y101626D01*
X241300Y101634D01*
X233800Y101634D01*
X233735Y101623D01*
X233669Y101621D01*
X233626Y101603D01*
X233579Y101595D01*
X233522Y101561D01*
X233462Y101536D01*
X233427Y101505D01*
X233386Y101480D01*
X233345Y101429D01*
X233296Y101385D01*
X233274Y101343D01*
X233245Y101306D01*
X233224Y101244D01*
X233193Y101185D01*
X233185Y101131D01*
X233173Y101094D01*
X233174Y101054D01*
X233166Y101000D01*
X233166Y93500D01*
X233177Y93435D01*
X233179Y93369D01*
X233197Y93326D01*
X233205Y93279D01*
X233239Y93222D01*
X233264Y93162D01*
X233295Y93127D01*
X233320Y93086D01*
X233371Y93045D01*
X233415Y92996D01*
X233457Y92974D01*
X233494Y92945D01*
X233556Y92924D01*
X233615Y92893D01*
X233669Y92885D01*
X233706Y92873D01*
X233746Y92874D01*
X233800Y92866D01*
X241300Y92866D01*
X241365Y92877D01*
G37*
G36*
X228865Y92877D02*
X228865Y92877D01*
X228931Y92879D01*
X228974Y92897D01*
X229021Y92905D01*
X229078Y92939D01*
X229138Y92964D01*
X229173Y92995D01*
X229214Y93020D01*
X229256Y93071D01*
X229304Y93115D01*
X229326Y93157D01*
X229355Y93194D01*
X229376Y93256D01*
X229407Y93315D01*
X229415Y93369D01*
X229427Y93406D01*
X229426Y93446D01*
X229434Y93500D01*
X229434Y101000D01*
X229423Y101065D01*
X229421Y101131D01*
X229403Y101174D01*
X229395Y101221D01*
X229361Y101278D01*
X229336Y101338D01*
X229305Y101373D01*
X229280Y101414D01*
X229229Y101456D01*
X229185Y101504D01*
X229143Y101526D01*
X229106Y101555D01*
X229044Y101576D01*
X228985Y101607D01*
X228931Y101615D01*
X228894Y101627D01*
X228854Y101626D01*
X228800Y101634D01*
X221300Y101634D01*
X221235Y101623D01*
X221169Y101621D01*
X221126Y101603D01*
X221079Y101595D01*
X221022Y101561D01*
X220962Y101536D01*
X220927Y101505D01*
X220886Y101480D01*
X220845Y101429D01*
X220796Y101385D01*
X220774Y101343D01*
X220745Y101306D01*
X220724Y101244D01*
X220693Y101185D01*
X220685Y101131D01*
X220673Y101094D01*
X220674Y101054D01*
X220666Y101000D01*
X220666Y93500D01*
X220677Y93435D01*
X220679Y93369D01*
X220697Y93326D01*
X220705Y93279D01*
X220739Y93222D01*
X220764Y93162D01*
X220795Y93127D01*
X220820Y93086D01*
X220871Y93045D01*
X220915Y92996D01*
X220957Y92974D01*
X220994Y92945D01*
X221056Y92924D01*
X221115Y92893D01*
X221169Y92885D01*
X221206Y92873D01*
X221246Y92874D01*
X221300Y92866D01*
X228800Y92866D01*
X228865Y92877D01*
G37*
G36*
X240047Y120087D02*
X240047Y120087D01*
X240042Y120094D01*
X240049Y120100D01*
X240049Y127900D01*
X240013Y127947D01*
X240006Y127942D01*
X240000Y127949D01*
X237600Y127949D01*
X237553Y127913D01*
X237558Y127906D01*
X237551Y127900D01*
X237551Y120100D01*
X237587Y120053D01*
X237594Y120058D01*
X237600Y120051D01*
X240000Y120051D01*
X240047Y120087D01*
G37*
G36*
X225047Y120087D02*
X225047Y120087D01*
X225042Y120094D01*
X225049Y120100D01*
X225049Y127900D01*
X225013Y127947D01*
X225006Y127942D01*
X225000Y127949D01*
X222600Y127949D01*
X222553Y127913D01*
X222558Y127906D01*
X222551Y127900D01*
X222551Y120100D01*
X222587Y120053D01*
X222594Y120058D01*
X222600Y120051D01*
X225000Y120051D01*
X225047Y120087D01*
G37*
G36*
X245047Y120087D02*
X245047Y120087D01*
X245042Y120094D01*
X245049Y120100D01*
X245049Y127900D01*
X245013Y127947D01*
X245006Y127942D01*
X245000Y127949D01*
X242600Y127949D01*
X242553Y127913D01*
X242558Y127906D01*
X242551Y127900D01*
X242551Y120100D01*
X242587Y120053D01*
X242594Y120058D01*
X242600Y120051D01*
X245000Y120051D01*
X245047Y120087D01*
G37*
G36*
X235047Y120087D02*
X235047Y120087D01*
X235042Y120094D01*
X235049Y120100D01*
X235049Y127900D01*
X235013Y127947D01*
X235006Y127942D01*
X235000Y127949D01*
X232600Y127949D01*
X232553Y127913D01*
X232558Y127906D01*
X232551Y127900D01*
X232551Y120100D01*
X232587Y120053D01*
X232594Y120058D01*
X232600Y120051D01*
X235000Y120051D01*
X235047Y120087D01*
G37*
G36*
X230047Y120087D02*
X230047Y120087D01*
X230042Y120094D01*
X230049Y120100D01*
X230049Y127900D01*
X230013Y127947D01*
X230006Y127942D01*
X230000Y127949D01*
X227600Y127949D01*
X227553Y127913D01*
X227558Y127906D01*
X227551Y127900D01*
X227551Y120100D01*
X227587Y120053D01*
X227594Y120058D01*
X227600Y120051D01*
X230000Y120051D01*
X230047Y120087D01*
G37*
G36*
X220047Y120087D02*
X220047Y120087D01*
X220042Y120094D01*
X220049Y120100D01*
X220049Y127900D01*
X220013Y127947D01*
X220006Y127942D01*
X220000Y127949D01*
X217600Y127949D01*
X217553Y127913D01*
X217558Y127906D01*
X217551Y127900D01*
X217551Y120100D01*
X217587Y120053D01*
X217594Y120058D01*
X217600Y120051D01*
X220000Y120051D01*
X220047Y120087D01*
G37*
G36*
X255747Y114787D02*
X255747Y114787D01*
X255742Y114794D01*
X255749Y114800D01*
X255749Y117200D01*
X255713Y117247D01*
X255706Y117242D01*
X255700Y117249D01*
X247900Y117249D01*
X247853Y117213D01*
X247858Y117206D01*
X247851Y117200D01*
X247851Y114800D01*
X247887Y114753D01*
X247894Y114758D01*
X247900Y114751D01*
X255700Y114751D01*
X255747Y114787D01*
G37*
G36*
X214747Y114787D02*
X214747Y114787D01*
X214742Y114794D01*
X214749Y114800D01*
X214749Y117200D01*
X214713Y117247D01*
X214706Y117242D01*
X214700Y117249D01*
X206900Y117249D01*
X206853Y117213D01*
X206858Y117206D01*
X206851Y117200D01*
X206851Y114800D01*
X206887Y114753D01*
X206894Y114758D01*
X206900Y114751D01*
X214700Y114751D01*
X214747Y114787D01*
G37*
G36*
X255747Y109787D02*
X255747Y109787D01*
X255742Y109794D01*
X255749Y109800D01*
X255749Y112200D01*
X255713Y112247D01*
X255706Y112242D01*
X255700Y112249D01*
X247900Y112249D01*
X247853Y112213D01*
X247858Y112206D01*
X247851Y112200D01*
X247851Y109800D01*
X247887Y109753D01*
X247894Y109758D01*
X247900Y109751D01*
X255700Y109751D01*
X255747Y109787D01*
G37*
G36*
X214747Y109787D02*
X214747Y109787D01*
X214742Y109794D01*
X214749Y109800D01*
X214749Y112200D01*
X214713Y112247D01*
X214706Y112242D01*
X214700Y112249D01*
X206900Y112249D01*
X206853Y112213D01*
X206858Y112206D01*
X206851Y112200D01*
X206851Y109800D01*
X206887Y109753D01*
X206894Y109758D01*
X206900Y109751D01*
X214700Y109751D01*
X214747Y109787D01*
G37*
G36*
X255747Y104787D02*
X255747Y104787D01*
X255742Y104794D01*
X255749Y104800D01*
X255749Y107200D01*
X255713Y107247D01*
X255706Y107242D01*
X255700Y107249D01*
X247900Y107249D01*
X247853Y107213D01*
X247858Y107206D01*
X247851Y107200D01*
X247851Y104800D01*
X247887Y104753D01*
X247894Y104758D01*
X247900Y104751D01*
X255700Y104751D01*
X255747Y104787D01*
G37*
G36*
X214747Y104787D02*
X214747Y104787D01*
X214742Y104794D01*
X214749Y104800D01*
X214749Y107200D01*
X214713Y107247D01*
X214706Y107242D01*
X214700Y107249D01*
X206900Y107249D01*
X206853Y107213D01*
X206858Y107206D01*
X206851Y107200D01*
X206851Y104800D01*
X206887Y104753D01*
X206894Y104758D01*
X206900Y104751D01*
X214700Y104751D01*
X214747Y104787D01*
G37*
G36*
X214747Y99787D02*
X214747Y99787D01*
X214742Y99794D01*
X214749Y99800D01*
X214749Y102200D01*
X214713Y102247D01*
X214706Y102242D01*
X214700Y102249D01*
X206900Y102249D01*
X206853Y102213D01*
X206858Y102206D01*
X206851Y102200D01*
X206851Y99800D01*
X206887Y99753D01*
X206894Y99758D01*
X206900Y99751D01*
X214700Y99751D01*
X214747Y99787D01*
G37*
G36*
X255747Y99787D02*
X255747Y99787D01*
X255742Y99794D01*
X255749Y99800D01*
X255749Y102200D01*
X255713Y102247D01*
X255706Y102242D01*
X255700Y102249D01*
X247900Y102249D01*
X247853Y102213D01*
X247858Y102206D01*
X247851Y102200D01*
X247851Y99800D01*
X247887Y99753D01*
X247894Y99758D01*
X247900Y99751D01*
X255700Y99751D01*
X255747Y99787D01*
G37*
G36*
X255747Y94787D02*
X255747Y94787D01*
X255742Y94794D01*
X255749Y94800D01*
X255749Y97200D01*
X255713Y97247D01*
X255706Y97242D01*
X255700Y97249D01*
X247900Y97249D01*
X247853Y97213D01*
X247858Y97206D01*
X247851Y97200D01*
X247851Y94800D01*
X247887Y94753D01*
X247894Y94758D01*
X247900Y94751D01*
X255700Y94751D01*
X255747Y94787D01*
G37*
G36*
X214747Y94787D02*
X214747Y94787D01*
X214742Y94794D01*
X214749Y94800D01*
X214749Y97200D01*
X214713Y97247D01*
X214706Y97242D01*
X214700Y97249D01*
X206900Y97249D01*
X206853Y97213D01*
X206858Y97206D01*
X206851Y97200D01*
X206851Y94800D01*
X206887Y94753D01*
X206894Y94758D01*
X206900Y94751D01*
X214700Y94751D01*
X214747Y94787D01*
G37*
G36*
X255747Y89787D02*
X255747Y89787D01*
X255742Y89794D01*
X255749Y89800D01*
X255749Y92200D01*
X255713Y92247D01*
X255706Y92242D01*
X255700Y92249D01*
X247900Y92249D01*
X247853Y92213D01*
X247858Y92206D01*
X247851Y92200D01*
X247851Y89800D01*
X247887Y89753D01*
X247894Y89758D01*
X247900Y89751D01*
X255700Y89751D01*
X255747Y89787D01*
G37*
G36*
X214747Y89787D02*
X214747Y89787D01*
X214742Y89794D01*
X214749Y89800D01*
X214749Y92200D01*
X214713Y92247D01*
X214706Y92242D01*
X214700Y92249D01*
X206900Y92249D01*
X206853Y92213D01*
X206858Y92206D01*
X206851Y92200D01*
X206851Y89800D01*
X206887Y89753D01*
X206894Y89758D01*
X206900Y89751D01*
X214700Y89751D01*
X214747Y89787D01*
G37*
G36*
X230047Y79087D02*
X230047Y79087D01*
X230042Y79094D01*
X230049Y79100D01*
X230049Y86900D01*
X230013Y86947D01*
X230006Y86942D01*
X230000Y86949D01*
X227600Y86949D01*
X227553Y86913D01*
X227558Y86906D01*
X227551Y86900D01*
X227551Y79100D01*
X227587Y79053D01*
X227594Y79058D01*
X227600Y79051D01*
X230000Y79051D01*
X230047Y79087D01*
G37*
G36*
X240047Y79087D02*
X240047Y79087D01*
X240042Y79094D01*
X240049Y79100D01*
X240049Y86900D01*
X240013Y86947D01*
X240006Y86942D01*
X240000Y86949D01*
X237600Y86949D01*
X237553Y86913D01*
X237558Y86906D01*
X237551Y86900D01*
X237551Y79100D01*
X237587Y79053D01*
X237594Y79058D01*
X237600Y79051D01*
X240000Y79051D01*
X240047Y79087D01*
G37*
G36*
X220047Y79087D02*
X220047Y79087D01*
X220042Y79094D01*
X220049Y79100D01*
X220049Y86900D01*
X220013Y86947D01*
X220006Y86942D01*
X220000Y86949D01*
X217600Y86949D01*
X217553Y86913D01*
X217558Y86906D01*
X217551Y86900D01*
X217551Y79100D01*
X217587Y79053D01*
X217594Y79058D01*
X217600Y79051D01*
X220000Y79051D01*
X220047Y79087D01*
G37*
G36*
X235047Y79087D02*
X235047Y79087D01*
X235042Y79094D01*
X235049Y79100D01*
X235049Y86900D01*
X235013Y86947D01*
X235006Y86942D01*
X235000Y86949D01*
X232600Y86949D01*
X232553Y86913D01*
X232558Y86906D01*
X232551Y86900D01*
X232551Y79100D01*
X232587Y79053D01*
X232594Y79058D01*
X232600Y79051D01*
X235000Y79051D01*
X235047Y79087D01*
G37*
G36*
X225047Y79087D02*
X225047Y79087D01*
X225042Y79094D01*
X225049Y79100D01*
X225049Y86900D01*
X225013Y86947D01*
X225006Y86942D01*
X225000Y86949D01*
X222600Y86949D01*
X222553Y86913D01*
X222558Y86906D01*
X222551Y86900D01*
X222551Y79100D01*
X222587Y79053D01*
X222594Y79058D01*
X222600Y79051D01*
X225000Y79051D01*
X225047Y79087D01*
G37*
G36*
X245047Y79087D02*
X245047Y79087D01*
X245042Y79094D01*
X245049Y79100D01*
X245049Y86900D01*
X245013Y86947D01*
X245006Y86942D01*
X245000Y86949D01*
X242600Y86949D01*
X242553Y86913D01*
X242558Y86906D01*
X242551Y86900D01*
X242551Y79100D01*
X242587Y79053D01*
X242594Y79058D01*
X242600Y79051D01*
X245000Y79051D01*
X245047Y79087D01*
G37*
D10*
X81800Y186450D03*
X64800Y186450D03*
D11*
X288300Y75250D03*
X294800Y93650D03*
X301300Y93650D03*
X288300Y93650D03*
X294800Y75250D03*
X301300Y75250D03*
D10*
X206600Y57900D03*
X223600Y57900D03*
X286300Y59050D03*
X303300Y59050D03*
X286300Y109850D03*
X303300Y109850D03*
D12*
X269400Y92950D03*
X269400Y75950D03*
D13*
X325100Y95500D03*
X325100Y111500D03*
X366100Y111500D03*
X366100Y95500D03*
X366100Y73400D03*
X366100Y57400D03*
X325100Y57400D03*
X325100Y73400D03*
D14*
X562300Y223980D03*
X549600Y223980D03*
X536900Y223980D03*
X524200Y223980D03*
X511500Y223980D03*
X498800Y223980D03*
X486100Y223980D03*
X473400Y223980D03*
X460700Y223980D03*
X448000Y223980D03*
X435300Y223980D03*
X422600Y223980D03*
X409900Y223980D03*
X397200Y223980D03*
D15*
X382300Y198750D03*
X382300Y186050D03*
X382300Y173350D03*
X382300Y160650D03*
X382300Y147950D03*
X382300Y135250D03*
X382300Y122550D03*
X382300Y109850D03*
X382300Y97150D03*
X382300Y84450D03*
D14*
X397200Y59220D03*
X409900Y59220D03*
X422600Y59220D03*
X435300Y59220D03*
X448000Y59220D03*
X460700Y59220D03*
X473400Y59220D03*
X486100Y59220D03*
X498800Y59220D03*
X511500Y59220D03*
X524200Y59220D03*
X536900Y59220D03*
X549600Y59220D03*
X562300Y59220D03*
D16*
X485300Y141600D03*
D17*
X82800Y231201D03*
X73300Y231201D03*
X63800Y231201D03*
X63800Y205199D03*
X82800Y205199D03*
D18*
X3088460Y237500D03*
X3088460Y232500D03*
D19*
X3088460Y262250D03*
D20*
X3088460Y254500D03*
D18*
X3088460Y247500D03*
X3088460Y242500D03*
X3088460Y222500D03*
X3088460Y227500D03*
D19*
X3088460Y197750D03*
D20*
X3088460Y205500D03*
D18*
X3088460Y212500D03*
X3088460Y217500D03*
D10*
X3044900Y243400D03*
X3061900Y243400D03*
X3044900Y218000D03*
X3061900Y218000D03*
D21*
X3053000Y377500D03*
X3042000Y442500D03*
X3093000Y377500D03*
X3123000Y377500D03*
D22*
X135047Y177583D02*
X132462Y176803D01*
X132413Y176947D01*
X132360Y177089D01*
X132303Y177230D01*
X132243Y177369D01*
X132179Y177507D01*
X132112Y177643D01*
X132042Y177778D01*
X131968Y177910D01*
X131890Y178041D01*
X131809Y178169D01*
X131725Y178296D01*
X131638Y178420D01*
X131548Y178542D01*
X131454Y178662D01*
X131358Y178779D01*
X131259Y178894D01*
X131156Y179006D01*
X131051Y179115D01*
X130943Y179222D01*
X130833Y179326D01*
X130719Y179427D01*
X130604Y179526D01*
X130485Y179621D01*
X130365Y179713D01*
X130242Y179802D01*
X130117Y179888D01*
X129989Y179971D01*
X129860Y180050D01*
X129729Y180126D01*
X129595Y180199D01*
X129460Y180268D01*
X129323Y180334D01*
X129185Y180397D01*
X129045Y180455D01*
X128904Y180511D01*
X128761Y180562D01*
X128617Y180610D01*
X129370Y183203D01*
X129568Y183139D01*
X129764Y183071D01*
X129958Y182998D01*
X130151Y182920D01*
X130341Y182838D01*
X130530Y182751D01*
X130716Y182659D01*
X130900Y182563D01*
X131082Y182463D01*
X131261Y182358D01*
X131438Y182249D01*
X131612Y182136D01*
X131783Y182019D01*
X131952Y181898D01*
X132117Y181772D01*
X132280Y181643D01*
X132439Y181510D01*
X132595Y181373D01*
X132748Y181232D01*
X132897Y181088D01*
X133043Y180940D01*
X133185Y180789D01*
X133323Y180634D01*
X133458Y180476D01*
X133589Y180315D01*
X133716Y180151D01*
X133839Y179984D01*
X133958Y179814D01*
X134073Y179641D01*
X134184Y179465D01*
X134290Y179287D01*
X134392Y179106D01*
X134490Y178923D01*
X134583Y178738D01*
X134672Y178550D01*
X134757Y178360D01*
X134836Y178169D01*
X134912Y177975D01*
X134982Y177780D01*
X135048Y177583D01*
X134776Y177501D01*
X134712Y177691D01*
X134644Y177880D01*
X134571Y178067D01*
X134494Y178252D01*
X134413Y178435D01*
X134327Y178616D01*
X134237Y178795D01*
X134142Y178972D01*
X134043Y179147D01*
X133940Y179319D01*
X133833Y179488D01*
X133722Y179655D01*
X133607Y179820D01*
X133489Y179981D01*
X133366Y180140D01*
X133239Y180295D01*
X133109Y180448D01*
X132975Y180597D01*
X132838Y180743D01*
X132697Y180886D01*
X132553Y181026D01*
X132405Y181161D01*
X132255Y181294D01*
X132101Y181422D01*
X131944Y181547D01*
X131784Y181668D01*
X131622Y181786D01*
X131456Y181899D01*
X131288Y182008D01*
X131117Y182113D01*
X130944Y182215D01*
X130769Y182312D01*
X130591Y182404D01*
X130411Y182493D01*
X130229Y182577D01*
X130045Y182656D01*
X129859Y182732D01*
X129671Y182802D01*
X129482Y182869D01*
X129291Y182930D01*
X129212Y182658D01*
X129396Y182598D01*
X129578Y182534D01*
X129759Y182466D01*
X129939Y182393D01*
X130116Y182316D01*
X130292Y182235D01*
X130465Y182149D01*
X130637Y182060D01*
X130806Y181966D01*
X130973Y181869D01*
X131138Y181767D01*
X131300Y181662D01*
X131460Y181552D01*
X131617Y181439D01*
X131771Y181322D01*
X131922Y181202D01*
X132071Y181078D01*
X132216Y180950D01*
X132358Y180819D01*
X132497Y180684D01*
X132633Y180547D01*
X132766Y180406D01*
X132895Y180262D01*
X133020Y180114D01*
X133143Y179964D01*
X133261Y179811D01*
X133376Y179656D01*
X133487Y179497D01*
X133594Y179336D01*
X133697Y179172D01*
X133796Y179006D01*
X133892Y178838D01*
X133983Y178667D01*
X134070Y178495D01*
X134153Y178320D01*
X134232Y178143D01*
X134306Y177965D01*
X134377Y177784D01*
X134442Y177602D01*
X134504Y177419D01*
X134232Y177337D01*
X134171Y177518D01*
X134106Y177698D01*
X134036Y177876D01*
X133962Y178052D01*
X133883Y178226D01*
X133801Y178399D01*
X133714Y178569D01*
X133623Y178737D01*
X133528Y178903D01*
X133429Y179067D01*
X133325Y179228D01*
X133218Y179386D01*
X133107Y179542D01*
X132993Y179695D01*
X132874Y179845D01*
X132752Y179992D01*
X132627Y180136D01*
X132498Y180277D01*
X132365Y180415D01*
X132229Y180549D01*
X132090Y180680D01*
X131948Y180808D01*
X131802Y180932D01*
X131654Y181053D01*
X131503Y181170D01*
X131349Y181283D01*
X131192Y181392D01*
X131032Y181498D01*
X130870Y181599D01*
X130706Y181697D01*
X130539Y181790D01*
X130370Y181879D01*
X130199Y181964D01*
X130026Y182045D01*
X129850Y182122D01*
X129673Y182194D01*
X129495Y182262D01*
X129314Y182326D01*
X129133Y182385D01*
X129053Y182112D01*
X129228Y182055D01*
X129402Y181994D01*
X129573Y181928D01*
X129744Y181859D01*
X129912Y181785D01*
X130079Y181707D01*
X130243Y181625D01*
X130406Y181539D01*
X130566Y181449D01*
X130725Y181355D01*
X130881Y181257D01*
X131034Y181156D01*
X131185Y181051D01*
X131333Y180942D01*
X131479Y180829D01*
X131621Y180713D01*
X131761Y180594D01*
X131898Y180471D01*
X132032Y180345D01*
X132163Y180216D01*
X132290Y180083D01*
X132414Y179947D01*
X132535Y179809D01*
X132653Y179667D01*
X132767Y179523D01*
X132877Y179376D01*
X132984Y179226D01*
X133087Y179073D01*
X133186Y178919D01*
X133282Y178761D01*
X133373Y178602D01*
X133461Y178440D01*
X133544Y178276D01*
X133624Y178110D01*
X133700Y177943D01*
X133771Y177773D01*
X133838Y177602D01*
X133901Y177429D01*
X133960Y177255D01*
X133688Y177173D01*
X133632Y177340D01*
X133571Y177506D01*
X133506Y177671D01*
X133437Y177833D01*
X133365Y177995D01*
X133288Y178154D01*
X133208Y178311D01*
X133124Y178466D01*
X133035Y178620D01*
X132944Y178771D01*
X132848Y178919D01*
X132749Y179066D01*
X132647Y179210D01*
X132541Y179351D01*
X132431Y179490D01*
X132318Y179626D01*
X132202Y179759D01*
X132083Y179889D01*
X131960Y180016D01*
X131835Y180141D01*
X131706Y180262D01*
X131575Y180380D01*
X131440Y180495D01*
X131303Y180606D01*
X131163Y180714D01*
X131021Y180819D01*
X130876Y180920D01*
X130729Y181017D01*
X130579Y181111D01*
X130427Y181201D01*
X130273Y181288D01*
X130117Y181371D01*
X129959Y181449D01*
X129799Y181524D01*
X129637Y181595D01*
X129474Y181663D01*
X129309Y181726D01*
X129142Y181785D01*
X128974Y181839D01*
X128895Y181567D01*
X129056Y181514D01*
X129215Y181457D01*
X129374Y181397D01*
X129530Y181332D01*
X129686Y181264D01*
X129839Y181192D01*
X129991Y181116D01*
X130140Y181037D01*
X130288Y180954D01*
X130434Y180867D01*
X130577Y180777D01*
X130718Y180684D01*
X130857Y180587D01*
X130994Y180486D01*
X131128Y180383D01*
X131259Y180276D01*
X131388Y180166D01*
X131514Y180052D01*
X131638Y179936D01*
X131758Y179817D01*
X131875Y179695D01*
X131990Y179570D01*
X132101Y179442D01*
X132210Y179312D01*
X132315Y179179D01*
X132416Y179043D01*
X132515Y178905D01*
X132610Y178765D01*
X132701Y178623D01*
X132789Y178478D01*
X132874Y178331D01*
X132955Y178182D01*
X133032Y178031D01*
X133106Y177879D01*
X133175Y177724D01*
X133241Y177568D01*
X133303Y177410D01*
X133362Y177251D01*
X133416Y177091D01*
X133144Y177009D01*
X133092Y177162D01*
X133036Y177315D01*
X132976Y177465D01*
X132913Y177615D01*
X132846Y177763D01*
X132776Y177909D01*
X132702Y178053D01*
X132624Y178196D01*
X132543Y178336D01*
X132459Y178475D01*
X132371Y178611D01*
X132280Y178745D01*
X132186Y178877D01*
X132089Y179007D01*
X131988Y179134D01*
X131884Y179259D01*
X131778Y179381D01*
X131668Y179501D01*
X131556Y179618D01*
X131440Y179732D01*
X131322Y179843D01*
X131202Y179952D01*
X131078Y180057D01*
X130953Y180159D01*
X130824Y180259D01*
X130694Y180355D01*
X130561Y180448D01*
X130425Y180537D01*
X130288Y180623D01*
X130149Y180706D01*
X130007Y180786D01*
X129864Y180862D01*
X129719Y180935D01*
X129572Y181004D01*
X129424Y181069D01*
X129274Y181131D01*
X129122Y181189D01*
X128970Y181243D01*
X128815Y181294D01*
X128736Y181021D01*
X128887Y180971D01*
X129037Y180918D01*
X129185Y180860D01*
X129332Y180799D01*
X129477Y180735D01*
X129621Y180666D01*
X129763Y180595D01*
X129903Y180519D01*
X130041Y180440D01*
X130177Y180358D01*
X130311Y180273D01*
X130443Y180184D01*
X130573Y180092D01*
X130700Y179996D01*
X130825Y179898D01*
X130947Y179796D01*
X131067Y179691D01*
X131184Y179584D01*
X131299Y179473D01*
X131410Y179360D01*
X131519Y179244D01*
X131625Y179125D01*
X131728Y179004D01*
X131827Y178880D01*
X131924Y178754D01*
X132018Y178625D01*
X132108Y178494D01*
X132195Y178361D01*
X132278Y178226D01*
X132359Y178088D01*
X132435Y177949D01*
X132509Y177808D01*
X132578Y177665D01*
X132644Y177520D01*
X132707Y177374D01*
X132766Y177226D01*
X132821Y177077D01*
X132872Y176927D01*
X132600Y176845D01*
X132551Y176988D01*
X132498Y177130D01*
X132442Y177271D01*
X132383Y177410D01*
X132319Y177548D01*
X132253Y177684D01*
X132183Y177819D01*
X132110Y177952D01*
X132033Y178083D01*
X131953Y178211D01*
X131870Y178338D01*
X131784Y178463D01*
X131695Y178586D01*
X131603Y178706D01*
X131508Y178824D01*
X131410Y178940D01*
X131309Y179053D01*
X131205Y179164D01*
X131099Y179272D01*
X130990Y179377D01*
X130878Y179479D01*
X130764Y179579D01*
X130647Y179676D01*
X130528Y179770D01*
X130407Y179861D01*
X130284Y179949D01*
X130158Y180034D01*
X130030Y180115D01*
X129900Y180194D01*
X129769Y180269D01*
X129635Y180341D01*
X129500Y180409D01*
X129363Y180475D01*
X129225Y180536D01*
X129085Y180595D01*
X128943Y180649D01*
X128801Y180701D01*
X128657Y180748D01*
X129383Y167153D02*
X128603Y169738D01*
X128747Y169787D01*
X128889Y169840D01*
X129030Y169897D01*
X129169Y169957D01*
X129307Y170021D01*
X129443Y170088D01*
X129578Y170158D01*
X129710Y170232D01*
X129841Y170310D01*
X129969Y170391D01*
X130096Y170475D01*
X130220Y170562D01*
X130342Y170652D01*
X130462Y170746D01*
X130579Y170842D01*
X130694Y170941D01*
X130806Y171044D01*
X130915Y171149D01*
X131022Y171257D01*
X131126Y171367D01*
X131227Y171481D01*
X131326Y171596D01*
X131421Y171715D01*
X131513Y171835D01*
X131602Y171958D01*
X131688Y172083D01*
X131771Y172211D01*
X131850Y172340D01*
X131926Y172471D01*
X131999Y172605D01*
X132068Y172740D01*
X132134Y172877D01*
X132197Y173015D01*
X132255Y173155D01*
X132311Y173296D01*
X132362Y173439D01*
X132410Y173583D01*
X135003Y172830D01*
X134939Y172632D01*
X134871Y172436D01*
X134798Y172242D01*
X134720Y172049D01*
X134638Y171859D01*
X134551Y171670D01*
X134459Y171484D01*
X134363Y171300D01*
X134263Y171118D01*
X134158Y170939D01*
X134049Y170762D01*
X133936Y170588D01*
X133819Y170417D01*
X133698Y170248D01*
X133572Y170083D01*
X133443Y169920D01*
X133310Y169761D01*
X133173Y169605D01*
X133032Y169452D01*
X132888Y169303D01*
X132740Y169157D01*
X132589Y169015D01*
X132434Y168877D01*
X132276Y168742D01*
X132115Y168611D01*
X131951Y168484D01*
X131784Y168361D01*
X131614Y168242D01*
X131441Y168127D01*
X131265Y168016D01*
X131087Y167910D01*
X130906Y167808D01*
X130723Y167710D01*
X130538Y167617D01*
X130350Y167528D01*
X130160Y167443D01*
X129969Y167364D01*
X129775Y167288D01*
X129580Y167218D01*
X129383Y167152D01*
X129301Y167424D01*
X129491Y167488D01*
X129680Y167556D01*
X129867Y167629D01*
X130052Y167706D01*
X130235Y167787D01*
X130416Y167873D01*
X130595Y167963D01*
X130772Y168058D01*
X130947Y168157D01*
X131119Y168260D01*
X131288Y168367D01*
X131455Y168478D01*
X131620Y168593D01*
X131781Y168711D01*
X131940Y168834D01*
X132095Y168961D01*
X132248Y169091D01*
X132397Y169225D01*
X132543Y169362D01*
X132686Y169503D01*
X132826Y169647D01*
X132961Y169795D01*
X133094Y169945D01*
X133222Y170099D01*
X133347Y170256D01*
X133468Y170416D01*
X133586Y170578D01*
X133699Y170744D01*
X133808Y170912D01*
X133913Y171083D01*
X134015Y171256D01*
X134112Y171431D01*
X134204Y171609D01*
X134293Y171789D01*
X134377Y171971D01*
X134456Y172155D01*
X134532Y172341D01*
X134602Y172529D01*
X134669Y172718D01*
X134730Y172909D01*
X134458Y172988D01*
X134398Y172804D01*
X134334Y172622D01*
X134266Y172441D01*
X134193Y172261D01*
X134116Y172084D01*
X134035Y171908D01*
X133949Y171735D01*
X133860Y171563D01*
X133766Y171394D01*
X133669Y171227D01*
X133567Y171062D01*
X133462Y170900D01*
X133352Y170740D01*
X133239Y170583D01*
X133122Y170429D01*
X133002Y170278D01*
X132878Y170129D01*
X132750Y169984D01*
X132619Y169842D01*
X132484Y169703D01*
X132347Y169567D01*
X132206Y169434D01*
X132062Y169305D01*
X131914Y169180D01*
X131764Y169057D01*
X131611Y168939D01*
X131456Y168824D01*
X131297Y168713D01*
X131136Y168606D01*
X130972Y168503D01*
X130806Y168404D01*
X130638Y168308D01*
X130467Y168217D01*
X130295Y168130D01*
X130120Y168047D01*
X129943Y167968D01*
X129765Y167894D01*
X129584Y167823D01*
X129402Y167758D01*
X129219Y167696D01*
X129137Y167968D01*
X129318Y168029D01*
X129498Y168094D01*
X129676Y168164D01*
X129852Y168238D01*
X130026Y168317D01*
X130199Y168399D01*
X130369Y168486D01*
X130537Y168577D01*
X130703Y168672D01*
X130867Y168771D01*
X131028Y168875D01*
X131186Y168982D01*
X131342Y169093D01*
X131495Y169207D01*
X131645Y169326D01*
X131792Y169448D01*
X131936Y169573D01*
X132077Y169702D01*
X132215Y169835D01*
X132349Y169971D01*
X132480Y170110D01*
X132608Y170252D01*
X132732Y170398D01*
X132853Y170546D01*
X132970Y170697D01*
X133083Y170851D01*
X133192Y171008D01*
X133298Y171168D01*
X133399Y171330D01*
X133497Y171494D01*
X133590Y171661D01*
X133679Y171830D01*
X133764Y172001D01*
X133845Y172174D01*
X133922Y172350D01*
X133994Y172527D01*
X134062Y172705D01*
X134126Y172886D01*
X134185Y173067D01*
X133912Y173147D01*
X133855Y172972D01*
X133794Y172798D01*
X133728Y172627D01*
X133659Y172456D01*
X133585Y172288D01*
X133507Y172121D01*
X133425Y171957D01*
X133339Y171794D01*
X133249Y171634D01*
X133155Y171475D01*
X133057Y171319D01*
X132956Y171166D01*
X132851Y171015D01*
X132742Y170867D01*
X132629Y170721D01*
X132513Y170579D01*
X132394Y170439D01*
X132271Y170302D01*
X132145Y170168D01*
X132016Y170037D01*
X131883Y169910D01*
X131747Y169786D01*
X131609Y169665D01*
X131467Y169547D01*
X131323Y169433D01*
X131176Y169323D01*
X131026Y169216D01*
X130873Y169113D01*
X130719Y169014D01*
X130561Y168918D01*
X130402Y168827D01*
X130240Y168739D01*
X130076Y168656D01*
X129910Y168576D01*
X129743Y168500D01*
X129573Y168429D01*
X129402Y168362D01*
X129229Y168299D01*
X129055Y168240D01*
X128973Y168512D01*
X129140Y168568D01*
X129306Y168629D01*
X129471Y168694D01*
X129633Y168763D01*
X129795Y168835D01*
X129954Y168912D01*
X130111Y168992D01*
X130266Y169076D01*
X130420Y169165D01*
X130571Y169256D01*
X130719Y169352D01*
X130866Y169451D01*
X131010Y169553D01*
X131151Y169659D01*
X131290Y169769D01*
X131426Y169882D01*
X131559Y169998D01*
X131689Y170117D01*
X131816Y170240D01*
X131941Y170365D01*
X132062Y170494D01*
X132180Y170625D01*
X132295Y170760D01*
X132406Y170897D01*
X132514Y171037D01*
X132619Y171179D01*
X132720Y171324D01*
X132817Y171471D01*
X132911Y171621D01*
X133001Y171773D01*
X133088Y171927D01*
X133171Y172083D01*
X133249Y172241D01*
X133324Y172401D01*
X133395Y172563D01*
X133463Y172726D01*
X133526Y172891D01*
X133585Y173058D01*
X133639Y173226D01*
X133367Y173305D01*
X133314Y173144D01*
X133257Y172985D01*
X133197Y172826D01*
X133132Y172670D01*
X133064Y172514D01*
X132992Y172361D01*
X132916Y172209D01*
X132837Y172060D01*
X132754Y171912D01*
X132667Y171766D01*
X132577Y171623D01*
X132484Y171482D01*
X132387Y171343D01*
X132286Y171206D01*
X132183Y171072D01*
X132076Y170941D01*
X131966Y170812D01*
X131852Y170686D01*
X131736Y170562D01*
X131617Y170442D01*
X131495Y170325D01*
X131370Y170210D01*
X131242Y170099D01*
X131112Y169990D01*
X130979Y169885D01*
X130843Y169784D01*
X130705Y169685D01*
X130565Y169590D01*
X130423Y169499D01*
X130278Y169411D01*
X130131Y169326D01*
X129982Y169245D01*
X129831Y169168D01*
X129679Y169094D01*
X129524Y169025D01*
X129368Y168959D01*
X129210Y168897D01*
X129051Y168838D01*
X128891Y168784D01*
X128809Y169056D01*
X128962Y169108D01*
X129115Y169164D01*
X129265Y169224D01*
X129415Y169287D01*
X129563Y169354D01*
X129709Y169424D01*
X129853Y169498D01*
X129996Y169576D01*
X130136Y169657D01*
X130275Y169741D01*
X130411Y169829D01*
X130545Y169920D01*
X130677Y170014D01*
X130807Y170111D01*
X130934Y170212D01*
X131059Y170316D01*
X131181Y170422D01*
X131301Y170532D01*
X131418Y170644D01*
X131532Y170760D01*
X131643Y170878D01*
X131752Y170998D01*
X131857Y171122D01*
X131959Y171247D01*
X132059Y171376D01*
X132155Y171506D01*
X132248Y171639D01*
X132337Y171775D01*
X132423Y171912D01*
X132506Y172051D01*
X132586Y172193D01*
X132662Y172336D01*
X132735Y172481D01*
X132804Y172628D01*
X132869Y172776D01*
X132931Y172926D01*
X132989Y173078D01*
X133043Y173230D01*
X133094Y173385D01*
X132821Y173464D01*
X132771Y173313D01*
X132718Y173163D01*
X132660Y173015D01*
X132599Y172868D01*
X132535Y172723D01*
X132466Y172579D01*
X132395Y172437D01*
X132319Y172297D01*
X132240Y172159D01*
X132158Y172023D01*
X132073Y171889D01*
X131984Y171757D01*
X131892Y171627D01*
X131796Y171500D01*
X131698Y171375D01*
X131596Y171253D01*
X131491Y171133D01*
X131384Y171016D01*
X131273Y170901D01*
X131160Y170790D01*
X131044Y170681D01*
X130925Y170575D01*
X130804Y170472D01*
X130680Y170373D01*
X130554Y170276D01*
X130425Y170182D01*
X130294Y170092D01*
X130161Y170005D01*
X130026Y169922D01*
X129888Y169841D01*
X129749Y169765D01*
X129608Y169691D01*
X129465Y169622D01*
X129320Y169556D01*
X129174Y169493D01*
X129026Y169434D01*
X128877Y169379D01*
X128727Y169328D01*
X128645Y169600D01*
X128788Y169649D01*
X128930Y169702D01*
X129071Y169758D01*
X129210Y169817D01*
X129348Y169881D01*
X129484Y169947D01*
X129619Y170017D01*
X129752Y170090D01*
X129883Y170167D01*
X130011Y170247D01*
X130138Y170330D01*
X130263Y170416D01*
X130386Y170505D01*
X130506Y170597D01*
X130624Y170692D01*
X130740Y170790D01*
X130853Y170891D01*
X130964Y170995D01*
X131072Y171101D01*
X131177Y171210D01*
X131279Y171322D01*
X131379Y171436D01*
X131476Y171553D01*
X131570Y171672D01*
X131661Y171793D01*
X131749Y171916D01*
X131834Y172042D01*
X131915Y172170D01*
X131994Y172300D01*
X132069Y172431D01*
X132141Y172565D01*
X132209Y172700D01*
X132275Y172837D01*
X132336Y172975D01*
X132395Y173115D01*
X132449Y173257D01*
X132501Y173399D01*
X132548Y173543D01*
X124617Y183247D02*
X125397Y180662D01*
X125253Y180613D01*
X125111Y180560D01*
X124970Y180503D01*
X124831Y180443D01*
X124693Y180379D01*
X124557Y180312D01*
X124422Y180242D01*
X124290Y180168D01*
X124159Y180090D01*
X124031Y180009D01*
X123904Y179925D01*
X123780Y179838D01*
X123658Y179748D01*
X123538Y179654D01*
X123421Y179558D01*
X123306Y179459D01*
X123194Y179356D01*
X123085Y179251D01*
X122978Y179143D01*
X122874Y179033D01*
X122773Y178919D01*
X122674Y178804D01*
X122579Y178685D01*
X122487Y178565D01*
X122398Y178442D01*
X122312Y178317D01*
X122229Y178189D01*
X122150Y178060D01*
X122074Y177929D01*
X122001Y177795D01*
X121932Y177660D01*
X121866Y177523D01*
X121803Y177385D01*
X121745Y177245D01*
X121689Y177104D01*
X121638Y176961D01*
X121590Y176817D01*
X118997Y177570D01*
X119061Y177768D01*
X119129Y177964D01*
X119202Y178158D01*
X119280Y178351D01*
X119362Y178541D01*
X119449Y178730D01*
X119541Y178916D01*
X119637Y179100D01*
X119737Y179282D01*
X119842Y179461D01*
X119951Y179638D01*
X120064Y179812D01*
X120181Y179983D01*
X120302Y180152D01*
X120428Y180317D01*
X120557Y180480D01*
X120690Y180639D01*
X120827Y180795D01*
X120968Y180948D01*
X121112Y181097D01*
X121260Y181243D01*
X121411Y181385D01*
X121566Y181523D01*
X121724Y181658D01*
X121885Y181789D01*
X122049Y181916D01*
X122216Y182039D01*
X122386Y182158D01*
X122559Y182273D01*
X122735Y182384D01*
X122913Y182490D01*
X123094Y182592D01*
X123277Y182690D01*
X123462Y182783D01*
X123650Y182872D01*
X123840Y182957D01*
X124031Y183036D01*
X124225Y183112D01*
X124420Y183182D01*
X124617Y183248D01*
X124699Y182976D01*
X124509Y182912D01*
X124320Y182844D01*
X124133Y182771D01*
X123948Y182694D01*
X123765Y182613D01*
X123584Y182527D01*
X123405Y182437D01*
X123228Y182342D01*
X123053Y182243D01*
X122881Y182140D01*
X122712Y182033D01*
X122545Y181922D01*
X122380Y181807D01*
X122219Y181689D01*
X122060Y181566D01*
X121905Y181439D01*
X121752Y181309D01*
X121603Y181175D01*
X121457Y181038D01*
X121314Y180897D01*
X121174Y180753D01*
X121039Y180605D01*
X120906Y180455D01*
X120778Y180301D01*
X120653Y180144D01*
X120532Y179984D01*
X120414Y179822D01*
X120301Y179656D01*
X120192Y179488D01*
X120087Y179317D01*
X119985Y179144D01*
X119888Y178969D01*
X119796Y178791D01*
X119707Y178611D01*
X119623Y178429D01*
X119544Y178245D01*
X119468Y178059D01*
X119398Y177871D01*
X119331Y177682D01*
X119270Y177491D01*
X119542Y177412D01*
X119602Y177596D01*
X119666Y177778D01*
X119734Y177959D01*
X119807Y178139D01*
X119884Y178316D01*
X119965Y178492D01*
X120051Y178665D01*
X120140Y178837D01*
X120234Y179006D01*
X120331Y179173D01*
X120433Y179338D01*
X120538Y179500D01*
X120648Y179660D01*
X120761Y179817D01*
X120878Y179971D01*
X120998Y180122D01*
X121122Y180271D01*
X121250Y180416D01*
X121381Y180558D01*
X121516Y180697D01*
X121653Y180833D01*
X121794Y180966D01*
X121938Y181095D01*
X122086Y181220D01*
X122236Y181343D01*
X122389Y181461D01*
X122544Y181576D01*
X122703Y181687D01*
X122864Y181794D01*
X123028Y181897D01*
X123194Y181996D01*
X123362Y182092D01*
X123533Y182183D01*
X123705Y182270D01*
X123880Y182353D01*
X124057Y182432D01*
X124235Y182506D01*
X124416Y182577D01*
X124598Y182642D01*
X124781Y182704D01*
X124863Y182432D01*
X124682Y182371D01*
X124502Y182306D01*
X124324Y182236D01*
X124148Y182162D01*
X123974Y182083D01*
X123801Y182001D01*
X123631Y181914D01*
X123463Y181823D01*
X123297Y181728D01*
X123133Y181629D01*
X122972Y181525D01*
X122814Y181418D01*
X122658Y181307D01*
X122505Y181193D01*
X122355Y181074D01*
X122208Y180952D01*
X122064Y180827D01*
X121923Y180698D01*
X121785Y180565D01*
X121651Y180429D01*
X121520Y180290D01*
X121392Y180148D01*
X121268Y180002D01*
X121147Y179854D01*
X121030Y179703D01*
X120917Y179549D01*
X120808Y179392D01*
X120702Y179232D01*
X120601Y179070D01*
X120503Y178906D01*
X120410Y178739D01*
X120321Y178570D01*
X120236Y178399D01*
X120155Y178226D01*
X120078Y178050D01*
X120006Y177873D01*
X119938Y177695D01*
X119874Y177514D01*
X119815Y177333D01*
X120088Y177253D01*
X120145Y177428D01*
X120206Y177602D01*
X120272Y177773D01*
X120341Y177944D01*
X120415Y178112D01*
X120493Y178279D01*
X120575Y178443D01*
X120661Y178606D01*
X120751Y178766D01*
X120845Y178925D01*
X120943Y179081D01*
X121044Y179234D01*
X121149Y179385D01*
X121258Y179533D01*
X121371Y179679D01*
X121487Y179821D01*
X121606Y179961D01*
X121729Y180098D01*
X121855Y180232D01*
X121984Y180363D01*
X122117Y180490D01*
X122253Y180614D01*
X122391Y180735D01*
X122533Y180853D01*
X122677Y180967D01*
X122824Y181077D01*
X122974Y181184D01*
X123127Y181287D01*
X123281Y181386D01*
X123439Y181482D01*
X123598Y181573D01*
X123760Y181661D01*
X123924Y181744D01*
X124090Y181824D01*
X124257Y181900D01*
X124427Y181971D01*
X124598Y182038D01*
X124771Y182101D01*
X124945Y182160D01*
X125027Y181888D01*
X124860Y181832D01*
X124694Y181771D01*
X124529Y181706D01*
X124367Y181637D01*
X124205Y181565D01*
X124046Y181488D01*
X123889Y181408D01*
X123734Y181324D01*
X123580Y181235D01*
X123429Y181144D01*
X123281Y181048D01*
X123134Y180949D01*
X122990Y180847D01*
X122849Y180741D01*
X122710Y180631D01*
X122574Y180518D01*
X122441Y180402D01*
X122311Y180283D01*
X122184Y180160D01*
X122059Y180035D01*
X121938Y179906D01*
X121820Y179775D01*
X121705Y179640D01*
X121594Y179503D01*
X121486Y179363D01*
X121381Y179221D01*
X121280Y179076D01*
X121183Y178929D01*
X121089Y178779D01*
X120999Y178627D01*
X120912Y178473D01*
X120829Y178317D01*
X120751Y178159D01*
X120676Y177999D01*
X120605Y177837D01*
X120537Y177674D01*
X120474Y177509D01*
X120415Y177342D01*
X120361Y177174D01*
X120633Y177095D01*
X120686Y177256D01*
X120743Y177415D01*
X120803Y177574D01*
X120868Y177730D01*
X120936Y177886D01*
X121008Y178039D01*
X121084Y178191D01*
X121163Y178340D01*
X121246Y178488D01*
X121333Y178634D01*
X121423Y178777D01*
X121516Y178918D01*
X121613Y179057D01*
X121714Y179194D01*
X121817Y179328D01*
X121924Y179459D01*
X122034Y179588D01*
X122148Y179714D01*
X122264Y179838D01*
X122383Y179958D01*
X122505Y180075D01*
X122630Y180190D01*
X122758Y180301D01*
X122888Y180410D01*
X123021Y180515D01*
X123157Y180616D01*
X123295Y180715D01*
X123435Y180810D01*
X123577Y180901D01*
X123722Y180989D01*
X123869Y181074D01*
X124018Y181155D01*
X124169Y181232D01*
X124321Y181306D01*
X124476Y181375D01*
X124632Y181441D01*
X124790Y181503D01*
X124949Y181562D01*
X125109Y181616D01*
X125191Y181344D01*
X125038Y181292D01*
X124885Y181236D01*
X124735Y181176D01*
X124585Y181113D01*
X124437Y181046D01*
X124291Y180976D01*
X124147Y180902D01*
X124004Y180824D01*
X123864Y180743D01*
X123725Y180659D01*
X123589Y180571D01*
X123455Y180480D01*
X123323Y180386D01*
X123193Y180289D01*
X123066Y180188D01*
X122941Y180084D01*
X122819Y179978D01*
X122699Y179868D01*
X122582Y179756D01*
X122468Y179640D01*
X122357Y179522D01*
X122248Y179402D01*
X122143Y179278D01*
X122041Y179153D01*
X121941Y179024D01*
X121845Y178894D01*
X121752Y178761D01*
X121663Y178625D01*
X121577Y178488D01*
X121494Y178349D01*
X121414Y178207D01*
X121338Y178064D01*
X121265Y177919D01*
X121196Y177772D01*
X121131Y177624D01*
X121069Y177474D01*
X121011Y177322D01*
X120957Y177170D01*
X120906Y177015D01*
X121179Y176936D01*
X121229Y177087D01*
X121282Y177237D01*
X121340Y177385D01*
X121401Y177532D01*
X121465Y177677D01*
X121534Y177821D01*
X121605Y177963D01*
X121681Y178103D01*
X121760Y178241D01*
X121842Y178377D01*
X121927Y178511D01*
X122016Y178643D01*
X122108Y178773D01*
X122204Y178900D01*
X122302Y179025D01*
X122404Y179147D01*
X122509Y179267D01*
X122616Y179384D01*
X122727Y179499D01*
X122840Y179610D01*
X122956Y179719D01*
X123075Y179825D01*
X123196Y179928D01*
X123320Y180027D01*
X123446Y180124D01*
X123575Y180218D01*
X123706Y180308D01*
X123839Y180395D01*
X123974Y180478D01*
X124112Y180559D01*
X124251Y180635D01*
X124392Y180709D01*
X124535Y180778D01*
X124680Y180844D01*
X124826Y180907D01*
X124974Y180966D01*
X125123Y181021D01*
X125273Y181072D01*
X125355Y180800D01*
X125212Y180751D01*
X125070Y180698D01*
X124929Y180642D01*
X124790Y180583D01*
X124652Y180519D01*
X124516Y180453D01*
X124381Y180383D01*
X124248Y180310D01*
X124117Y180233D01*
X123989Y180153D01*
X123862Y180070D01*
X123737Y179984D01*
X123614Y179895D01*
X123494Y179803D01*
X123376Y179708D01*
X123260Y179610D01*
X123147Y179509D01*
X123036Y179405D01*
X122928Y179299D01*
X122823Y179190D01*
X122721Y179078D01*
X122621Y178964D01*
X122524Y178847D01*
X122430Y178728D01*
X122339Y178607D01*
X122251Y178484D01*
X122166Y178358D01*
X122085Y178230D01*
X122006Y178100D01*
X121931Y177969D01*
X121859Y177835D01*
X121791Y177700D01*
X121725Y177563D01*
X121664Y177425D01*
X121605Y177285D01*
X121551Y177143D01*
X121499Y177001D01*
X121452Y176857D01*
X118953Y172817D02*
X121538Y173597D01*
X121587Y173453D01*
X121640Y173311D01*
X121697Y173170D01*
X121757Y173031D01*
X121821Y172893D01*
X121888Y172757D01*
X121958Y172622D01*
X122032Y172490D01*
X122110Y172359D01*
X122191Y172231D01*
X122275Y172104D01*
X122362Y171980D01*
X122452Y171858D01*
X122546Y171738D01*
X122642Y171621D01*
X122741Y171506D01*
X122844Y171394D01*
X122949Y171285D01*
X123057Y171178D01*
X123167Y171074D01*
X123281Y170973D01*
X123396Y170874D01*
X123515Y170779D01*
X123635Y170687D01*
X123758Y170598D01*
X123883Y170512D01*
X124011Y170429D01*
X124140Y170350D01*
X124271Y170274D01*
X124405Y170201D01*
X124540Y170132D01*
X124677Y170066D01*
X124815Y170003D01*
X124955Y169945D01*
X125096Y169889D01*
X125239Y169838D01*
X125383Y169790D01*
X124630Y167197D01*
X124432Y167261D01*
X124236Y167329D01*
X124042Y167402D01*
X123849Y167480D01*
X123659Y167562D01*
X123470Y167649D01*
X123284Y167741D01*
X123100Y167837D01*
X122918Y167937D01*
X122739Y168042D01*
X122562Y168151D01*
X122388Y168264D01*
X122217Y168381D01*
X122048Y168502D01*
X121883Y168628D01*
X121720Y168757D01*
X121561Y168890D01*
X121405Y169027D01*
X121252Y169168D01*
X121103Y169312D01*
X120957Y169460D01*
X120815Y169611D01*
X120677Y169766D01*
X120542Y169924D01*
X120411Y170085D01*
X120284Y170249D01*
X120161Y170416D01*
X120042Y170586D01*
X119927Y170759D01*
X119816Y170935D01*
X119710Y171113D01*
X119608Y171294D01*
X119510Y171477D01*
X119417Y171662D01*
X119328Y171850D01*
X119243Y172040D01*
X119164Y172231D01*
X119088Y172425D01*
X119018Y172620D01*
X118952Y172817D01*
X119224Y172899D01*
X119288Y172709D01*
X119356Y172520D01*
X119429Y172333D01*
X119506Y172148D01*
X119587Y171965D01*
X119673Y171784D01*
X119763Y171605D01*
X119858Y171428D01*
X119957Y171253D01*
X120060Y171081D01*
X120167Y170912D01*
X120278Y170745D01*
X120393Y170580D01*
X120511Y170419D01*
X120634Y170260D01*
X120761Y170105D01*
X120891Y169952D01*
X121025Y169803D01*
X121162Y169657D01*
X121303Y169514D01*
X121447Y169374D01*
X121595Y169239D01*
X121745Y169106D01*
X121899Y168978D01*
X122056Y168853D01*
X122216Y168732D01*
X122378Y168614D01*
X122544Y168501D01*
X122712Y168392D01*
X122883Y168287D01*
X123056Y168185D01*
X123231Y168088D01*
X123409Y167996D01*
X123589Y167907D01*
X123771Y167823D01*
X123955Y167744D01*
X124141Y167668D01*
X124329Y167598D01*
X124518Y167531D01*
X124709Y167470D01*
X124788Y167742D01*
X124604Y167802D01*
X124422Y167866D01*
X124241Y167934D01*
X124061Y168007D01*
X123884Y168084D01*
X123708Y168165D01*
X123535Y168251D01*
X123363Y168340D01*
X123194Y168434D01*
X123027Y168531D01*
X122862Y168633D01*
X122700Y168738D01*
X122540Y168848D01*
X122383Y168961D01*
X122229Y169078D01*
X122078Y169198D01*
X121929Y169322D01*
X121784Y169450D01*
X121642Y169581D01*
X121503Y169716D01*
X121367Y169853D01*
X121234Y169994D01*
X121105Y170138D01*
X120980Y170286D01*
X120857Y170436D01*
X120739Y170589D01*
X120624Y170744D01*
X120513Y170903D01*
X120406Y171064D01*
X120303Y171228D01*
X120204Y171394D01*
X120108Y171562D01*
X120017Y171733D01*
X119930Y171905D01*
X119847Y172080D01*
X119768Y172257D01*
X119694Y172435D01*
X119623Y172616D01*
X119558Y172798D01*
X119496Y172981D01*
X119768Y173063D01*
X119829Y172882D01*
X119894Y172702D01*
X119964Y172524D01*
X120038Y172348D01*
X120117Y172174D01*
X120199Y172001D01*
X120286Y171831D01*
X120377Y171663D01*
X120472Y171497D01*
X120571Y171333D01*
X120675Y171172D01*
X120782Y171014D01*
X120893Y170858D01*
X121007Y170705D01*
X121126Y170555D01*
X121248Y170408D01*
X121373Y170264D01*
X121502Y170123D01*
X121635Y169985D01*
X121771Y169851D01*
X121910Y169720D01*
X122052Y169592D01*
X122198Y169468D01*
X122346Y169347D01*
X122497Y169230D01*
X122651Y169117D01*
X122808Y169008D01*
X122968Y168902D01*
X123130Y168801D01*
X123294Y168703D01*
X123461Y168610D01*
X123630Y168521D01*
X123801Y168436D01*
X123974Y168355D01*
X124150Y168278D01*
X124327Y168206D01*
X124505Y168138D01*
X124686Y168074D01*
X124867Y168015D01*
X124947Y168288D01*
X124772Y168345D01*
X124598Y168406D01*
X124427Y168472D01*
X124256Y168541D01*
X124088Y168615D01*
X123921Y168693D01*
X123757Y168775D01*
X123594Y168861D01*
X123434Y168951D01*
X123275Y169045D01*
X123119Y169143D01*
X122966Y169244D01*
X122815Y169349D01*
X122667Y169458D01*
X122521Y169571D01*
X122379Y169687D01*
X122239Y169806D01*
X122102Y169929D01*
X121968Y170055D01*
X121837Y170184D01*
X121710Y170317D01*
X121586Y170453D01*
X121465Y170591D01*
X121347Y170733D01*
X121233Y170877D01*
X121123Y171024D01*
X121016Y171174D01*
X120913Y171327D01*
X120814Y171481D01*
X120718Y171639D01*
X120627Y171798D01*
X120539Y171960D01*
X120456Y172124D01*
X120376Y172290D01*
X120300Y172457D01*
X120229Y172627D01*
X120162Y172798D01*
X120099Y172971D01*
X120040Y173145D01*
X120312Y173227D01*
X120368Y173060D01*
X120429Y172894D01*
X120494Y172729D01*
X120563Y172567D01*
X120635Y172405D01*
X120712Y172246D01*
X120792Y172089D01*
X120876Y171934D01*
X120965Y171780D01*
X121056Y171629D01*
X121152Y171481D01*
X121251Y171334D01*
X121353Y171190D01*
X121459Y171049D01*
X121569Y170910D01*
X121682Y170774D01*
X121798Y170641D01*
X121917Y170511D01*
X122040Y170384D01*
X122165Y170259D01*
X122294Y170138D01*
X122425Y170020D01*
X122560Y169905D01*
X122697Y169794D01*
X122837Y169686D01*
X122979Y169581D01*
X123124Y169480D01*
X123271Y169383D01*
X123421Y169289D01*
X123573Y169199D01*
X123727Y169112D01*
X123883Y169029D01*
X124041Y168951D01*
X124201Y168876D01*
X124363Y168805D01*
X124526Y168737D01*
X124691Y168674D01*
X124858Y168615D01*
X125026Y168561D01*
X125105Y168833D01*
X124944Y168886D01*
X124785Y168943D01*
X124626Y169003D01*
X124470Y169068D01*
X124314Y169136D01*
X124161Y169208D01*
X124009Y169284D01*
X123860Y169363D01*
X123712Y169446D01*
X123566Y169533D01*
X123423Y169623D01*
X123282Y169716D01*
X123143Y169813D01*
X123006Y169914D01*
X122872Y170017D01*
X122741Y170124D01*
X122612Y170234D01*
X122486Y170348D01*
X122362Y170464D01*
X122242Y170583D01*
X122125Y170705D01*
X122010Y170830D01*
X121899Y170958D01*
X121790Y171088D01*
X121685Y171221D01*
X121584Y171357D01*
X121485Y171495D01*
X121390Y171635D01*
X121299Y171777D01*
X121211Y171922D01*
X121126Y172069D01*
X121045Y172218D01*
X120968Y172369D01*
X120894Y172521D01*
X120825Y172676D01*
X120759Y172832D01*
X120697Y172990D01*
X120638Y173149D01*
X120584Y173309D01*
X120856Y173391D01*
X120908Y173238D01*
X120964Y173085D01*
X121024Y172935D01*
X121087Y172785D01*
X121154Y172637D01*
X121224Y172491D01*
X121298Y172347D01*
X121376Y172204D01*
X121457Y172064D01*
X121541Y171925D01*
X121629Y171789D01*
X121720Y171655D01*
X121814Y171523D01*
X121911Y171393D01*
X122012Y171266D01*
X122116Y171141D01*
X122222Y171019D01*
X122332Y170899D01*
X122444Y170782D01*
X122560Y170668D01*
X122678Y170557D01*
X122798Y170448D01*
X122922Y170343D01*
X123047Y170241D01*
X123176Y170141D01*
X123306Y170045D01*
X123439Y169952D01*
X123575Y169863D01*
X123712Y169777D01*
X123851Y169694D01*
X123993Y169614D01*
X124136Y169538D01*
X124281Y169465D01*
X124428Y169396D01*
X124576Y169331D01*
X124726Y169269D01*
X124878Y169211D01*
X125030Y169157D01*
X125185Y169106D01*
X125264Y169379D01*
X125113Y169429D01*
X124963Y169482D01*
X124815Y169540D01*
X124668Y169601D01*
X124523Y169665D01*
X124379Y169734D01*
X124237Y169805D01*
X124097Y169881D01*
X123959Y169960D01*
X123823Y170042D01*
X123689Y170127D01*
X123557Y170216D01*
X123427Y170308D01*
X123300Y170404D01*
X123175Y170502D01*
X123053Y170604D01*
X122933Y170709D01*
X122816Y170816D01*
X122701Y170927D01*
X122590Y171040D01*
X122481Y171156D01*
X122375Y171275D01*
X122272Y171396D01*
X122173Y171520D01*
X122076Y171646D01*
X121982Y171775D01*
X121892Y171906D01*
X121805Y172039D01*
X121722Y172174D01*
X121641Y172312D01*
X121565Y172451D01*
X121491Y172592D01*
X121422Y172735D01*
X121356Y172880D01*
X121293Y173026D01*
X121234Y173174D01*
X121179Y173323D01*
X121128Y173473D01*
X121400Y173555D01*
X121449Y173412D01*
X121502Y173270D01*
X121558Y173129D01*
X121617Y172990D01*
X121681Y172852D01*
X121747Y172716D01*
X121817Y172581D01*
X121890Y172448D01*
X121967Y172317D01*
X122047Y172189D01*
X122130Y172062D01*
X122216Y171937D01*
X122305Y171814D01*
X122397Y171694D01*
X122492Y171576D01*
X122590Y171460D01*
X122691Y171347D01*
X122795Y171236D01*
X122901Y171128D01*
X123010Y171023D01*
X123122Y170921D01*
X123236Y170821D01*
X123353Y170724D01*
X123472Y170630D01*
X123593Y170539D01*
X123716Y170451D01*
X123842Y170366D01*
X123970Y170285D01*
X124100Y170206D01*
X124231Y170131D01*
X124365Y170059D01*
X124500Y169991D01*
X124637Y169925D01*
X124775Y169864D01*
X124915Y169805D01*
X125057Y169751D01*
X125199Y169699D01*
X125343Y169652D01*
D23*
X119000Y162200D03*
D24*
X153200Y175200D03*
X153200Y187200D03*
D23*
X119000Y188200D03*
D24*
X153200Y163200D03*
D12*
X175800Y182200D03*
X175800Y165200D03*
D10*
X305500Y206400D03*
X288500Y206400D03*
D25*
X306699Y182800D03*
X306699Y173300D03*
X306699Y163800D03*
X332701Y163800D03*
X332701Y182800D03*
D12*
X282950Y164800D03*
X282950Y181800D03*
X244850Y181800D03*
X244850Y164800D03*
X263900Y164800D03*
X263900Y181800D03*
D10*
X311500Y150000D03*
X328500Y150000D03*
D12*
X351450Y181800D03*
X351450Y164800D03*
D10*
X305500Y225450D03*
X288500Y225450D03*
X3043500Y300000D03*
X3026500Y300000D03*
X3093500Y345000D03*
X3076500Y345000D03*
X3076500Y300000D03*
X3093500Y300000D03*
X3043500Y330000D03*
X3026500Y330000D03*
X3093500Y330000D03*
X3076500Y330000D03*
X3026500Y315000D03*
X3043500Y315000D03*
X3093500Y315000D03*
X3076500Y315000D03*
X3026500Y345000D03*
X3043500Y345000D03*
D26*
X278270Y1759000D03*
X226730Y1759000D03*
X226730Y1791000D03*
X278270Y1791000D03*
X428270Y1759000D03*
X376730Y1759000D03*
X376730Y1791000D03*
X428270Y1791000D03*
X578270Y1759000D03*
X526730Y1759000D03*
X526730Y1791000D03*
X578270Y1791000D03*
X728270Y1759000D03*
X676730Y1759000D03*
X676730Y1791000D03*
X728270Y1791000D03*
X878270Y1759000D03*
X826730Y1759000D03*
X826730Y1791000D03*
X878270Y1791000D03*
X1028270Y1759000D03*
X976730Y1759000D03*
X976730Y1791000D03*
X1028270Y1791000D03*
X1178270Y1759000D03*
X1126730Y1759000D03*
X1126730Y1791000D03*
X1178270Y1791000D03*
X1328270Y1759000D03*
X1276730Y1759000D03*
X1276730Y1791000D03*
X1328270Y1791000D03*
X1928270Y1759000D03*
X1876730Y1759000D03*
X1876730Y1791000D03*
X1928270Y1791000D03*
X2078270Y1759000D03*
X2026730Y1759000D03*
X2026730Y1791000D03*
X2078270Y1791000D03*
X2228270Y1759000D03*
X2176730Y1759000D03*
X2176730Y1791000D03*
X2228270Y1791000D03*
X2378270Y1759000D03*
X2326730Y1759000D03*
X2326730Y1791000D03*
X2378270Y1791000D03*
X2528270Y1759000D03*
X2476730Y1759000D03*
X2476730Y1791000D03*
X2528270Y1791000D03*
X2678270Y1759000D03*
X2626730Y1759000D03*
X2626730Y1791000D03*
X2678270Y1791000D03*
X2828270Y1759000D03*
X2776730Y1759000D03*
X2776730Y1791000D03*
X2828270Y1791000D03*
X128270Y1609000D03*
X76730Y1609000D03*
X76730Y1641000D03*
X128270Y1641000D03*
X278270Y1609000D03*
X226730Y1609000D03*
X226730Y1641000D03*
X278270Y1641000D03*
X428270Y1609000D03*
X376730Y1609000D03*
X376730Y1641000D03*
X428270Y1641000D03*
X578270Y1609000D03*
X526730Y1609000D03*
X526730Y1641000D03*
X578270Y1641000D03*
X728270Y1609000D03*
X676730Y1609000D03*
X676730Y1641000D03*
X728270Y1641000D03*
X878270Y1609000D03*
X826730Y1609000D03*
X826730Y1641000D03*
X878270Y1641000D03*
X1028270Y1609000D03*
X976730Y1609000D03*
X976730Y1641000D03*
X1028270Y1641000D03*
X1178270Y1609000D03*
X1126730Y1609000D03*
X1126730Y1641000D03*
X1178270Y1641000D03*
X1328270Y1609000D03*
X1276730Y1609000D03*
X1276730Y1641000D03*
X1328270Y1641000D03*
X1478270Y1609000D03*
X1426730Y1609000D03*
X1426730Y1641000D03*
X1478270Y1641000D03*
X1628270Y1609000D03*
X1576730Y1609000D03*
X1576730Y1641000D03*
X1628270Y1641000D03*
X1778270Y1609000D03*
X1726730Y1609000D03*
X1726730Y1641000D03*
X1778270Y1641000D03*
X1928270Y1609000D03*
X1876730Y1609000D03*
X1876730Y1641000D03*
X1928270Y1641000D03*
X2078270Y1609000D03*
X2026730Y1609000D03*
X2026730Y1641000D03*
X2078270Y1641000D03*
X2228270Y1609000D03*
X2176730Y1609000D03*
X2176730Y1641000D03*
X2228270Y1641000D03*
X2378270Y1609000D03*
X2326730Y1609000D03*
X2326730Y1641000D03*
X2378270Y1641000D03*
X2528270Y1609000D03*
X2476730Y1609000D03*
X2476730Y1641000D03*
X2528270Y1641000D03*
X2678270Y1609000D03*
X2626730Y1609000D03*
X2626730Y1641000D03*
X2678270Y1641000D03*
X2828270Y1609000D03*
X2776730Y1609000D03*
X2776730Y1641000D03*
X2828270Y1641000D03*
X2978270Y1609000D03*
X2926730Y1609000D03*
X2926730Y1641000D03*
X2978270Y1641000D03*
X128270Y1459000D03*
X76730Y1459000D03*
X76730Y1491000D03*
X128270Y1491000D03*
X278270Y1459000D03*
X226730Y1459000D03*
X226730Y1491000D03*
X278270Y1491000D03*
X428270Y1459000D03*
X376730Y1459000D03*
X376730Y1491000D03*
X428270Y1491000D03*
X578270Y1459000D03*
X526730Y1459000D03*
X526730Y1491000D03*
X578270Y1491000D03*
X728270Y1459000D03*
X676730Y1459000D03*
X676730Y1491000D03*
X728270Y1491000D03*
X878270Y1459000D03*
X826730Y1459000D03*
X826730Y1491000D03*
X878270Y1491000D03*
X1028270Y1459000D03*
X976730Y1459000D03*
X976730Y1491000D03*
X1028270Y1491000D03*
X1178270Y1459000D03*
X1126730Y1459000D03*
X1126730Y1491000D03*
X1178270Y1491000D03*
X1328270Y1459000D03*
X1276730Y1459000D03*
X1276730Y1491000D03*
X1328270Y1491000D03*
X1478270Y1459000D03*
X1426730Y1459000D03*
X1426730Y1491000D03*
X1478270Y1491000D03*
X1628270Y1459000D03*
X1576730Y1459000D03*
X1576730Y1491000D03*
X1628270Y1491000D03*
X1778270Y1459000D03*
X1726730Y1459000D03*
X1726730Y1491000D03*
X1778270Y1491000D03*
X1928270Y1459000D03*
X1876730Y1459000D03*
X1876730Y1491000D03*
X1928270Y1491000D03*
X2078270Y1459000D03*
X2026730Y1459000D03*
X2026730Y1491000D03*
X2078270Y1491000D03*
X2228270Y1459000D03*
X2176730Y1459000D03*
X2176730Y1491000D03*
X2228270Y1491000D03*
X2378270Y1459000D03*
X2326730Y1459000D03*
X2326730Y1491000D03*
X2378270Y1491000D03*
X2528270Y1459000D03*
X2476730Y1459000D03*
X2476730Y1491000D03*
X2528270Y1491000D03*
X2678270Y1459000D03*
X2626730Y1459000D03*
X2626730Y1491000D03*
X2678270Y1491000D03*
X2828270Y1459000D03*
X2776730Y1459000D03*
X2776730Y1491000D03*
X2828270Y1491000D03*
X2978270Y1459000D03*
X2926730Y1459000D03*
X2926730Y1491000D03*
X2978270Y1491000D03*
X128270Y1309000D03*
X76730Y1309000D03*
X76730Y1341000D03*
X128270Y1341000D03*
X278270Y1309000D03*
X226730Y1309000D03*
X226730Y1341000D03*
X278270Y1341000D03*
X428270Y1309000D03*
X376730Y1309000D03*
X376730Y1341000D03*
X428270Y1341000D03*
X578270Y1309000D03*
X526730Y1309000D03*
X526730Y1341000D03*
X578270Y1341000D03*
X728270Y1309000D03*
X676730Y1309000D03*
X676730Y1341000D03*
X728270Y1341000D03*
X878270Y1309000D03*
X826730Y1309000D03*
X826730Y1341000D03*
X878270Y1341000D03*
X1028270Y1309000D03*
X976730Y1309000D03*
X976730Y1341000D03*
X1028270Y1341000D03*
X1178270Y1309000D03*
X1126730Y1309000D03*
X1126730Y1341000D03*
X1178270Y1341000D03*
X1328270Y1309000D03*
X1276730Y1309000D03*
X1276730Y1341000D03*
X1328270Y1341000D03*
X1478270Y1309000D03*
X1426730Y1309000D03*
X1426730Y1341000D03*
X1478270Y1341000D03*
X1628270Y1309000D03*
X1576730Y1309000D03*
X1576730Y1341000D03*
X1628270Y1341000D03*
X1778270Y1309000D03*
X1726730Y1309000D03*
X1726730Y1341000D03*
X1778270Y1341000D03*
X1928270Y1309000D03*
X1876730Y1309000D03*
X1876730Y1341000D03*
X1928270Y1341000D03*
X2078270Y1309000D03*
X2026730Y1309000D03*
X2026730Y1341000D03*
X2078270Y1341000D03*
X2228270Y1309000D03*
X2176730Y1309000D03*
X2176730Y1341000D03*
X2228270Y1341000D03*
X2378270Y1309000D03*
X2326730Y1309000D03*
X2326730Y1341000D03*
X2378270Y1341000D03*
X2528270Y1309000D03*
X2476730Y1309000D03*
X2476730Y1341000D03*
X2528270Y1341000D03*
X2678270Y1309000D03*
X2626730Y1309000D03*
X2626730Y1341000D03*
X2678270Y1341000D03*
X2828270Y1309000D03*
X2776730Y1309000D03*
X2776730Y1341000D03*
X2828270Y1341000D03*
X2978270Y1309000D03*
X2926730Y1309000D03*
X2926730Y1341000D03*
X2978270Y1341000D03*
X128270Y1159000D03*
X76730Y1159000D03*
X76730Y1191000D03*
X128270Y1191000D03*
X278270Y1159000D03*
X226730Y1159000D03*
X226730Y1191000D03*
X278270Y1191000D03*
X428270Y1159000D03*
X376730Y1159000D03*
X376730Y1191000D03*
X428270Y1191000D03*
X578270Y1159000D03*
X526730Y1159000D03*
X526730Y1191000D03*
X578270Y1191000D03*
X728270Y1159000D03*
X676730Y1159000D03*
X676730Y1191000D03*
X728270Y1191000D03*
X878270Y1159000D03*
X826730Y1159000D03*
X826730Y1191000D03*
X878270Y1191000D03*
X1028270Y1159000D03*
X976730Y1159000D03*
X976730Y1191000D03*
X1028270Y1191000D03*
X1178270Y1159000D03*
X1126730Y1159000D03*
X1126730Y1191000D03*
X1178270Y1191000D03*
X1328270Y1159000D03*
X1276730Y1159000D03*
X1276730Y1191000D03*
X1328270Y1191000D03*
X1478270Y1159000D03*
X1426730Y1159000D03*
X1426730Y1191000D03*
X1478270Y1191000D03*
X1628270Y1159000D03*
X1576730Y1159000D03*
X1576730Y1191000D03*
X1628270Y1191000D03*
X1778270Y1159000D03*
X1726730Y1159000D03*
X1726730Y1191000D03*
X1778270Y1191000D03*
X1928270Y1159000D03*
X1876730Y1159000D03*
X1876730Y1191000D03*
X1928270Y1191000D03*
X2078270Y1159000D03*
X2026730Y1159000D03*
X2026730Y1191000D03*
X2078270Y1191000D03*
X2228270Y1159000D03*
X2176730Y1159000D03*
X2176730Y1191000D03*
X2228270Y1191000D03*
X2378270Y1159000D03*
X2326730Y1159000D03*
X2326730Y1191000D03*
X2378270Y1191000D03*
X2528270Y1159000D03*
X2476730Y1159000D03*
X2476730Y1191000D03*
X2528270Y1191000D03*
X2678270Y1159000D03*
X2626730Y1159000D03*
X2626730Y1191000D03*
X2678270Y1191000D03*
X2828270Y1159000D03*
X2776730Y1159000D03*
X2776730Y1191000D03*
X2828270Y1191000D03*
X2978270Y1159000D03*
X2926730Y1159000D03*
X2926730Y1191000D03*
X2978270Y1191000D03*
X128270Y1009000D03*
X76730Y1009000D03*
X76730Y1041000D03*
X128270Y1041000D03*
X278270Y1009000D03*
X226730Y1009000D03*
X226730Y1041000D03*
X278270Y1041000D03*
X428270Y1009000D03*
X376730Y1009000D03*
X376730Y1041000D03*
X428270Y1041000D03*
X578270Y1009000D03*
X526730Y1009000D03*
X526730Y1041000D03*
X578270Y1041000D03*
X728270Y1009000D03*
X676730Y1009000D03*
X676730Y1041000D03*
X728270Y1041000D03*
X878270Y1009000D03*
X826730Y1009000D03*
X826730Y1041000D03*
X878270Y1041000D03*
X1028270Y1009000D03*
X976730Y1009000D03*
X976730Y1041000D03*
X1028270Y1041000D03*
X1178270Y1009000D03*
X1126730Y1009000D03*
X1126730Y1041000D03*
X1178270Y1041000D03*
X1328270Y1009000D03*
X1276730Y1009000D03*
X1276730Y1041000D03*
X1328270Y1041000D03*
X1478270Y1009000D03*
X1426730Y1009000D03*
X1426730Y1041000D03*
X1478270Y1041000D03*
X1628270Y1009000D03*
X1576730Y1009000D03*
X1576730Y1041000D03*
X1628270Y1041000D03*
X1778270Y1009000D03*
X1726730Y1009000D03*
X1726730Y1041000D03*
X1778270Y1041000D03*
X1928270Y1009000D03*
X1876730Y1009000D03*
X1876730Y1041000D03*
X1928270Y1041000D03*
X2078270Y1009000D03*
X2026730Y1009000D03*
X2026730Y1041000D03*
X2078270Y1041000D03*
X2228270Y1009000D03*
X2176730Y1009000D03*
X2176730Y1041000D03*
X2228270Y1041000D03*
X2378270Y1009000D03*
X2326730Y1009000D03*
X2326730Y1041000D03*
X2378270Y1041000D03*
X2528270Y1009000D03*
X2476730Y1009000D03*
X2476730Y1041000D03*
X2528270Y1041000D03*
X2678270Y1009000D03*
X2626730Y1009000D03*
X2626730Y1041000D03*
X2678270Y1041000D03*
X2828270Y1009000D03*
X2776730Y1009000D03*
X2776730Y1041000D03*
X2828270Y1041000D03*
X2978270Y1009000D03*
X2926730Y1009000D03*
X2926730Y1041000D03*
X2978270Y1041000D03*
X128270Y859000D03*
X76730Y859000D03*
X76730Y891000D03*
X128270Y891000D03*
X278270Y859000D03*
X226730Y859000D03*
X226730Y891000D03*
X278270Y891000D03*
X428270Y859000D03*
X376730Y859000D03*
X376730Y891000D03*
X428270Y891000D03*
X578270Y859000D03*
X526730Y859000D03*
X526730Y891000D03*
X578270Y891000D03*
X728270Y859000D03*
X676730Y859000D03*
X676730Y891000D03*
X728270Y891000D03*
X878270Y859000D03*
X826730Y859000D03*
X826730Y891000D03*
X878270Y891000D03*
X1028270Y859000D03*
X976730Y859000D03*
X976730Y891000D03*
X1028270Y891000D03*
X1178270Y859000D03*
X1126730Y859000D03*
X1126730Y891000D03*
X1178270Y891000D03*
X1328270Y859000D03*
X1276730Y859000D03*
X1276730Y891000D03*
X1328270Y891000D03*
X1478270Y859000D03*
X1426730Y859000D03*
X1426730Y891000D03*
X1478270Y891000D03*
X1628270Y859000D03*
X1576730Y859000D03*
X1576730Y891000D03*
X1628270Y891000D03*
X1778270Y859000D03*
X1726730Y859000D03*
X1726730Y891000D03*
X1778270Y891000D03*
X1928270Y859000D03*
X1876730Y859000D03*
X1876730Y891000D03*
X1928270Y891000D03*
X2078270Y859000D03*
X2026730Y859000D03*
X2026730Y891000D03*
X2078270Y891000D03*
X2228270Y859000D03*
X2176730Y859000D03*
X2176730Y891000D03*
X2228270Y891000D03*
X2378270Y859000D03*
X2326730Y859000D03*
X2326730Y891000D03*
X2378270Y891000D03*
X2528270Y859000D03*
X2476730Y859000D03*
X2476730Y891000D03*
X2528270Y891000D03*
X2678270Y859000D03*
X2626730Y859000D03*
X2626730Y891000D03*
X2678270Y891000D03*
X2828270Y859000D03*
X2776730Y859000D03*
X2776730Y891000D03*
X2828270Y891000D03*
X2978270Y859000D03*
X2926730Y859000D03*
X2926730Y891000D03*
X2978270Y891000D03*
X128270Y709000D03*
X76730Y709000D03*
X76730Y741000D03*
X128270Y741000D03*
X278270Y709000D03*
X226730Y709000D03*
X226730Y741000D03*
X278270Y741000D03*
X428270Y709000D03*
X376730Y709000D03*
X376730Y741000D03*
X428270Y741000D03*
X578270Y709000D03*
X526730Y709000D03*
X526730Y741000D03*
X578270Y741000D03*
X728270Y709000D03*
X676730Y709000D03*
X676730Y741000D03*
X728270Y741000D03*
X878270Y709000D03*
X826730Y709000D03*
X826730Y741000D03*
X878270Y741000D03*
X1028270Y709000D03*
X976730Y709000D03*
X976730Y741000D03*
X1028270Y741000D03*
X1178270Y709000D03*
X1126730Y709000D03*
X1126730Y741000D03*
X1178270Y741000D03*
X1328270Y709000D03*
X1276730Y709000D03*
X1276730Y741000D03*
X1328270Y741000D03*
X1478270Y709000D03*
X1426730Y709000D03*
X1426730Y741000D03*
X1478270Y741000D03*
X1628270Y709000D03*
X1576730Y709000D03*
X1576730Y741000D03*
X1628270Y741000D03*
X1778270Y709000D03*
X1726730Y709000D03*
X1726730Y741000D03*
X1778270Y741000D03*
X1928270Y709000D03*
X1876730Y709000D03*
X1876730Y741000D03*
X1928270Y741000D03*
X2078270Y709000D03*
X2026730Y709000D03*
X2026730Y741000D03*
X2078270Y741000D03*
X2228270Y709000D03*
X2176730Y709000D03*
X2176730Y741000D03*
X2228270Y741000D03*
X2378270Y709000D03*
X2326730Y709000D03*
X2326730Y741000D03*
X2378270Y741000D03*
X2528270Y709000D03*
X2476730Y709000D03*
X2476730Y741000D03*
X2528270Y741000D03*
X2678270Y709000D03*
X2626730Y709000D03*
X2626730Y741000D03*
X2678270Y741000D03*
X2828270Y709000D03*
X2776730Y709000D03*
X2776730Y741000D03*
X2828270Y741000D03*
X2978270Y709000D03*
X2926730Y709000D03*
X2926730Y741000D03*
X2978270Y741000D03*
X128270Y559000D03*
X76730Y559000D03*
X76730Y591000D03*
X128270Y591000D03*
X278270Y559000D03*
X226730Y559000D03*
X226730Y591000D03*
X278270Y591000D03*
X428270Y559000D03*
X376730Y559000D03*
X376730Y591000D03*
X428270Y591000D03*
X578270Y559000D03*
X526730Y559000D03*
X526730Y591000D03*
X578270Y591000D03*
X728270Y559000D03*
X676730Y559000D03*
X676730Y591000D03*
X728270Y591000D03*
X878270Y559000D03*
X826730Y559000D03*
X826730Y591000D03*
X878270Y591000D03*
X1028270Y559000D03*
X976730Y559000D03*
X976730Y591000D03*
X1028270Y591000D03*
X1178270Y559000D03*
X1126730Y559000D03*
X1126730Y591000D03*
X1178270Y591000D03*
X1328270Y559000D03*
X1276730Y559000D03*
X1276730Y591000D03*
X1328270Y591000D03*
X1478270Y559000D03*
X1426730Y559000D03*
X1426730Y591000D03*
X1478270Y591000D03*
X1628270Y559000D03*
X1576730Y559000D03*
X1576730Y591000D03*
X1628270Y591000D03*
X1778270Y559000D03*
X1726730Y559000D03*
X1726730Y591000D03*
X1778270Y591000D03*
X1928270Y559000D03*
X1876730Y559000D03*
X1876730Y591000D03*
X1928270Y591000D03*
X2078270Y559000D03*
X2026730Y559000D03*
X2026730Y591000D03*
X2078270Y591000D03*
X2228270Y559000D03*
X2176730Y559000D03*
X2176730Y591000D03*
X2228270Y591000D03*
X2378270Y559000D03*
X2326730Y559000D03*
X2326730Y591000D03*
X2378270Y591000D03*
X2528270Y559000D03*
X2476730Y559000D03*
X2476730Y591000D03*
X2528270Y591000D03*
X2678270Y559000D03*
X2626730Y559000D03*
X2626730Y591000D03*
X2678270Y591000D03*
X2828270Y559000D03*
X2776730Y559000D03*
X2776730Y591000D03*
X2828270Y591000D03*
X2978270Y559000D03*
X2926730Y559000D03*
X2926730Y591000D03*
X2978270Y591000D03*
X278270Y409000D03*
X226730Y409000D03*
X226730Y441000D03*
X278270Y441000D03*
X428270Y409000D03*
X376730Y409000D03*
X376730Y441000D03*
X428270Y441000D03*
X578270Y409000D03*
X526730Y409000D03*
X526730Y441000D03*
X578270Y441000D03*
X728270Y409000D03*
X676730Y409000D03*
X676730Y441000D03*
X728270Y441000D03*
X878270Y409000D03*
X826730Y409000D03*
X826730Y441000D03*
X878270Y441000D03*
X1028270Y409000D03*
X976730Y409000D03*
X976730Y441000D03*
X1028270Y441000D03*
X1178270Y409000D03*
X1126730Y409000D03*
X1126730Y441000D03*
X1178270Y441000D03*
X1328270Y409000D03*
X1276730Y409000D03*
X1276730Y441000D03*
X1328270Y441000D03*
X1478270Y409000D03*
X1426730Y409000D03*
X1426730Y441000D03*
X1478270Y441000D03*
X1628270Y409000D03*
X1576730Y409000D03*
X1576730Y441000D03*
X1628270Y441000D03*
X1778270Y409000D03*
X1726730Y409000D03*
X1726730Y441000D03*
X1778270Y441000D03*
X1928270Y409000D03*
X1876730Y409000D03*
X1876730Y441000D03*
X1928270Y441000D03*
X2078270Y409000D03*
X2026730Y409000D03*
X2026730Y441000D03*
X2078270Y441000D03*
X2228270Y409000D03*
X2176730Y409000D03*
X2176730Y441000D03*
X2228270Y441000D03*
X2378270Y409000D03*
X2326730Y409000D03*
X2326730Y441000D03*
X2378270Y441000D03*
X2528270Y409000D03*
X2476730Y409000D03*
X2476730Y441000D03*
X2528270Y441000D03*
X2678270Y409000D03*
X2626730Y409000D03*
X2626730Y441000D03*
X2678270Y441000D03*
X2828270Y409000D03*
X2776730Y409000D03*
X2776730Y441000D03*
X2828270Y441000D03*
X2978270Y409000D03*
X2926730Y409000D03*
X2926730Y441000D03*
X2978270Y441000D03*
X878270Y259000D03*
X826730Y259000D03*
X826730Y291000D03*
X878270Y291000D03*
X1028270Y259000D03*
X976730Y259000D03*
X976730Y291000D03*
X1028270Y291000D03*
X1178270Y259000D03*
X1126730Y259000D03*
X1126730Y291000D03*
X1178270Y291000D03*
X1328270Y259000D03*
X1276730Y259000D03*
X1276730Y291000D03*
X1328270Y291000D03*
X1478270Y259000D03*
X1426730Y259000D03*
X1426730Y291000D03*
X1478270Y291000D03*
X1628270Y259000D03*
X1576730Y259000D03*
X1576730Y291000D03*
X1628270Y291000D03*
X1778270Y259000D03*
X1726730Y259000D03*
X1726730Y291000D03*
X1778270Y291000D03*
X1928270Y259000D03*
X1876730Y259000D03*
X1876730Y291000D03*
X1928270Y291000D03*
X2078270Y259000D03*
X2026730Y259000D03*
X2026730Y291000D03*
X2078270Y291000D03*
X2228270Y259000D03*
X2176730Y259000D03*
X2176730Y291000D03*
X2228270Y291000D03*
X2378270Y259000D03*
X2326730Y259000D03*
X2326730Y291000D03*
X2378270Y291000D03*
X2528270Y259000D03*
X2476730Y259000D03*
X2476730Y291000D03*
X2528270Y291000D03*
X2678270Y259000D03*
X2626730Y259000D03*
X2626730Y291000D03*
X2678270Y291000D03*
X2828270Y259000D03*
X2776730Y259000D03*
X2776730Y291000D03*
X2828270Y291000D03*
X2978270Y259000D03*
X2926730Y259000D03*
X2926730Y291000D03*
X2978270Y291000D03*
X728270Y109000D03*
X676730Y109000D03*
X676730Y141000D03*
X728270Y141000D03*
X878270Y109000D03*
X826730Y109000D03*
X826730Y141000D03*
X878270Y141000D03*
X1028270Y109000D03*
X976730Y109000D03*
X976730Y141000D03*
X1028270Y141000D03*
X1178270Y109000D03*
X1126730Y109000D03*
X1126730Y141000D03*
X1178270Y141000D03*
X1790770Y109000D03*
X1739230Y109000D03*
X1739230Y141000D03*
X1790770Y141000D03*
X1928270Y109000D03*
X1876730Y109000D03*
X1876730Y141000D03*
X1928270Y141000D03*
X2078270Y109000D03*
X2026730Y109000D03*
X2026730Y141000D03*
X2078270Y141000D03*
X2228270Y109000D03*
X2176730Y109000D03*
X2176730Y141000D03*
X2228270Y141000D03*
X2378270Y109000D03*
X2326730Y109000D03*
X2326730Y141000D03*
X2378270Y141000D03*
X2528270Y109000D03*
X2476730Y109000D03*
X2476730Y141000D03*
X2528270Y141000D03*
X2678270Y109000D03*
X2626730Y109000D03*
X2626730Y141000D03*
X2678270Y141000D03*
X2828270Y109000D03*
X2776730Y109000D03*
X2776730Y141000D03*
X2828270Y141000D03*
D10*
X189290Y80030D03*
X206290Y80030D03*
X81800Y168500D03*
X64800Y168500D03*
D12*
X98000Y227500D03*
X98000Y210500D03*
X51000Y209500D03*
X51000Y226500D03*
D26*
X128270Y409000D03*
X76730Y409000D03*
X76730Y441000D03*
X128270Y441000D03*
X128270Y264000D03*
X76730Y264000D03*
X76730Y296000D03*
X128270Y296000D03*
X278270Y259000D03*
X226730Y259000D03*
X226730Y291000D03*
X278270Y291000D03*
X578270Y259000D03*
X526730Y259000D03*
X526730Y291000D03*
X578270Y291000D03*
X728270Y259000D03*
X676730Y259000D03*
X676730Y291000D03*
X728270Y291000D03*
M02*
