G04 EAGLE Gerber RS-274X export*
G75*
%MOMM*%
%FSLAX34Y34*%
%LPD*%
%INSoldermask Top*%
%IPPOS*%
%AMOC8*
5,1,8,0,0,1.08239X$1,22.5*%
G01*
%ADD10R,1.203200X1.303200*%
%ADD11C,0.838200*%
%ADD12R,0.503200X0.863200*%
%ADD13R,1.303200X1.203200*%
%ADD14R,1.103200X1.203200*%
%ADD15R,1.103200X1.703200*%
%ADD16R,1.703200X1.103200*%
%ADD17R,6.203200X6.203200*%
%ADD18R,1.403200X0.753200*%
%ADD19R,0.503200X1.053200*%
%ADD20R,1.053200X0.503200*%
%ADD21R,2.753200X2.753200*%
%ADD22C,3.505200*%
%ADD23R,1.219200X0.503200*%
%ADD24R,1.219200X0.803200*%
%ADD25R,1.219200X0.753200*%
%ADD26C,0.853200*%
%ADD27R,1.403200X2.703200*%
%ADD28C,1.403200*%
%ADD29C,0.500000*%
%ADD30C,0.903200*%
%ADD31C,1.103200*%
%ADD32R,1.854200X1.203200*%
%ADD33R,0.838200X1.473200*%
%ADD34R,1.473200X0.838200*%

G36*
X3095355Y451584D02*
X3095355Y451584D01*
X3095358Y451581D01*
X3096625Y451786D01*
X3096631Y451792D01*
X3096636Y451789D01*
X3097825Y452271D01*
X3097829Y452278D01*
X3097835Y452276D01*
X3098888Y453010D01*
X3098890Y453018D01*
X3098896Y453017D01*
X3099759Y453967D01*
X3099760Y453976D01*
X3099765Y453976D01*
X3100395Y455095D01*
X3100394Y455103D01*
X3100400Y455105D01*
X3100765Y456335D01*
X3100762Y456342D01*
X3100766Y456345D01*
X3100765Y456345D01*
X3100767Y456346D01*
X3100849Y457627D01*
X3100847Y457631D01*
X3100849Y457633D01*
X3100767Y458914D01*
X3100761Y458920D01*
X3100765Y458925D01*
X3100400Y460155D01*
X3100393Y460160D01*
X3100395Y460165D01*
X3099765Y461284D01*
X3099758Y461287D01*
X3099759Y461293D01*
X3098896Y462243D01*
X3098888Y462244D01*
X3098888Y462250D01*
X3097835Y462984D01*
X3097827Y462984D01*
X3097825Y462989D01*
X3096636Y463471D01*
X3096628Y463469D01*
X3096625Y463474D01*
X3095358Y463679D01*
X3095353Y463676D01*
X3095350Y463679D01*
X3083350Y463679D01*
X3083346Y463676D01*
X3083343Y463679D01*
X3082221Y463524D01*
X3082216Y463519D01*
X3082212Y463522D01*
X3081141Y463151D01*
X3081137Y463145D01*
X3081132Y463147D01*
X3080155Y462574D01*
X3080152Y462568D01*
X3080147Y462569D01*
X3079300Y461816D01*
X3079298Y461809D01*
X3079293Y461809D01*
X3078609Y460906D01*
X3078609Y460899D01*
X3078604Y460898D01*
X3078109Y459879D01*
X3078111Y459872D01*
X3078109Y459871D01*
X3078106Y459870D01*
X3077819Y458773D01*
X3077822Y458767D01*
X3077818Y458764D01*
X3077751Y457633D01*
X3077753Y457629D01*
X3077751Y457627D01*
X3077818Y456496D01*
X3077823Y456491D01*
X3077819Y456487D01*
X3078106Y455390D01*
X3078112Y455386D01*
X3078109Y455381D01*
X3078604Y454362D01*
X3078610Y454359D01*
X3078609Y454354D01*
X3079293Y453451D01*
X3079300Y453449D01*
X3079300Y453444D01*
X3080147Y452691D01*
X3080154Y452691D01*
X3080155Y452686D01*
X3081132Y452113D01*
X3081139Y452114D01*
X3081141Y452109D01*
X3082212Y451738D01*
X3082218Y451741D01*
X3082221Y451736D01*
X3083343Y451581D01*
X3083348Y451584D01*
X3083350Y451581D01*
X3095350Y451581D01*
X3095355Y451584D01*
G37*
G36*
X3095355Y365184D02*
X3095355Y365184D01*
X3095358Y365181D01*
X3096625Y365386D01*
X3096631Y365392D01*
X3096636Y365389D01*
X3097825Y365871D01*
X3097829Y365878D01*
X3097835Y365876D01*
X3098888Y366610D01*
X3098890Y366618D01*
X3098896Y366617D01*
X3099759Y367567D01*
X3099760Y367576D01*
X3099765Y367576D01*
X3100395Y368695D01*
X3100394Y368703D01*
X3100400Y368705D01*
X3100765Y369935D01*
X3100762Y369942D01*
X3100766Y369945D01*
X3100765Y369945D01*
X3100767Y369946D01*
X3100849Y371227D01*
X3100847Y371231D01*
X3100849Y371233D01*
X3100767Y372514D01*
X3100761Y372520D01*
X3100765Y372525D01*
X3100400Y373755D01*
X3100393Y373760D01*
X3100395Y373765D01*
X3099765Y374884D01*
X3099758Y374887D01*
X3099759Y374893D01*
X3098896Y375843D01*
X3098888Y375844D01*
X3098888Y375850D01*
X3097835Y376584D01*
X3097827Y376584D01*
X3097825Y376589D01*
X3096636Y377071D01*
X3096628Y377069D01*
X3096625Y377074D01*
X3095358Y377279D01*
X3095353Y377276D01*
X3095350Y377279D01*
X3083350Y377279D01*
X3083346Y377276D01*
X3083343Y377279D01*
X3082221Y377124D01*
X3082216Y377119D01*
X3082212Y377122D01*
X3081141Y376751D01*
X3081137Y376745D01*
X3081132Y376747D01*
X3080155Y376174D01*
X3080152Y376168D01*
X3080147Y376169D01*
X3079300Y375416D01*
X3079298Y375409D01*
X3079293Y375409D01*
X3078609Y374506D01*
X3078609Y374499D01*
X3078604Y374498D01*
X3078109Y373479D01*
X3078111Y373472D01*
X3078109Y373471D01*
X3078106Y373470D01*
X3077819Y372373D01*
X3077822Y372367D01*
X3077818Y372364D01*
X3077751Y371233D01*
X3077753Y371229D01*
X3077751Y371227D01*
X3077818Y370096D01*
X3077823Y370091D01*
X3077819Y370087D01*
X3078106Y368990D01*
X3078112Y368986D01*
X3078109Y368981D01*
X3078604Y367962D01*
X3078610Y367959D01*
X3078609Y367954D01*
X3079293Y367051D01*
X3079300Y367049D01*
X3079300Y367044D01*
X3080147Y366291D01*
X3080154Y366291D01*
X3080155Y366286D01*
X3081132Y365713D01*
X3081139Y365714D01*
X3081141Y365709D01*
X3082212Y365338D01*
X3082218Y365341D01*
X3082221Y365336D01*
X3083343Y365181D01*
X3083348Y365184D01*
X3083350Y365181D01*
X3095350Y365181D01*
X3095355Y365184D01*
G37*
G36*
X3134154Y365183D02*
X3134154Y365183D01*
X3134156Y365181D01*
X3135485Y365336D01*
X3135491Y365342D01*
X3135495Y365339D01*
X3136756Y365786D01*
X3136761Y365793D01*
X3136766Y365791D01*
X3137896Y366508D01*
X3137899Y366515D01*
X3137905Y366514D01*
X3138847Y367465D01*
X3138848Y367473D01*
X3138854Y367473D01*
X3139561Y368609D01*
X3139561Y368614D01*
X3139562Y368615D01*
X3139561Y368617D01*
X3139566Y368619D01*
X3140002Y369884D01*
X3140000Y369892D01*
X3140005Y369895D01*
X3140149Y371225D01*
X3140145Y371231D01*
X3140149Y371235D01*
X3140039Y372401D01*
X3140034Y372406D01*
X3140037Y372410D01*
X3139702Y373533D01*
X3139696Y373537D01*
X3139698Y373541D01*
X3139150Y374577D01*
X3139144Y374580D01*
X3139145Y374585D01*
X3138406Y375493D01*
X3138399Y375495D01*
X3138399Y375500D01*
X3137497Y376247D01*
X3137490Y376247D01*
X3137489Y376253D01*
X3136458Y376809D01*
X3136451Y376808D01*
X3136449Y376813D01*
X3135330Y377157D01*
X3135323Y377155D01*
X3135320Y377159D01*
X3134155Y377279D01*
X3134152Y377277D01*
X3134150Y377279D01*
X3128150Y377279D01*
X3128147Y377277D01*
X3128145Y377279D01*
X3126969Y377168D01*
X3126964Y377163D01*
X3126960Y377166D01*
X3125828Y376828D01*
X3125824Y376822D01*
X3125819Y376824D01*
X3124775Y376272D01*
X3124772Y376265D01*
X3124767Y376267D01*
X3123851Y375521D01*
X3123850Y375514D01*
X3123844Y375514D01*
X3123091Y374605D01*
X3123091Y374597D01*
X3123086Y374597D01*
X3122525Y373557D01*
X3122526Y373550D01*
X3122521Y373548D01*
X3122174Y372419D01*
X3122176Y372413D01*
X3122172Y372410D01*
X3122051Y371235D01*
X3122055Y371228D01*
X3122051Y371224D01*
X3122208Y369884D01*
X3122213Y369878D01*
X3122210Y369873D01*
X3122661Y368602D01*
X3122668Y368597D01*
X3122666Y368592D01*
X3123388Y367453D01*
X3123396Y367450D01*
X3123395Y367444D01*
X3124353Y366494D01*
X3124361Y366493D01*
X3124362Y366487D01*
X3125507Y365774D01*
X3125516Y365775D01*
X3125517Y365769D01*
X3126793Y365329D01*
X3126800Y365331D01*
X3126802Y365329D01*
X3126803Y365327D01*
X3128145Y365181D01*
X3128148Y365183D01*
X3128150Y365181D01*
X3134150Y365181D01*
X3134154Y365183D01*
G37*
G36*
X3134154Y451583D02*
X3134154Y451583D01*
X3134156Y451581D01*
X3135485Y451736D01*
X3135491Y451742D01*
X3135495Y451739D01*
X3136756Y452186D01*
X3136761Y452193D01*
X3136766Y452191D01*
X3137896Y452908D01*
X3137899Y452915D01*
X3137905Y452914D01*
X3138847Y453865D01*
X3138848Y453873D01*
X3138854Y453873D01*
X3139561Y455009D01*
X3139561Y455014D01*
X3139562Y455015D01*
X3139560Y455017D01*
X3139566Y455019D01*
X3140002Y456284D01*
X3140000Y456292D01*
X3140005Y456295D01*
X3140149Y457625D01*
X3140145Y457631D01*
X3140149Y457635D01*
X3140039Y458801D01*
X3140034Y458806D01*
X3140037Y458810D01*
X3139702Y459933D01*
X3139696Y459937D01*
X3139698Y459941D01*
X3139150Y460977D01*
X3139144Y460980D01*
X3139145Y460985D01*
X3138406Y461893D01*
X3138399Y461895D01*
X3138399Y461900D01*
X3137497Y462647D01*
X3137490Y462647D01*
X3137489Y462653D01*
X3136458Y463209D01*
X3136451Y463208D01*
X3136449Y463213D01*
X3135330Y463557D01*
X3135323Y463555D01*
X3135320Y463559D01*
X3134155Y463679D01*
X3134152Y463677D01*
X3134150Y463679D01*
X3128150Y463679D01*
X3128147Y463677D01*
X3128145Y463679D01*
X3126969Y463568D01*
X3126964Y463563D01*
X3126960Y463566D01*
X3125828Y463228D01*
X3125824Y463222D01*
X3125819Y463224D01*
X3124775Y462672D01*
X3124772Y462665D01*
X3124767Y462667D01*
X3123851Y461921D01*
X3123850Y461914D01*
X3123844Y461914D01*
X3123091Y461005D01*
X3123091Y460997D01*
X3123086Y460997D01*
X3122525Y459957D01*
X3122526Y459950D01*
X3122521Y459948D01*
X3122174Y458819D01*
X3122176Y458813D01*
X3122172Y458810D01*
X3122051Y457635D01*
X3122055Y457628D01*
X3122051Y457624D01*
X3122208Y456284D01*
X3122213Y456278D01*
X3122210Y456273D01*
X3122661Y455002D01*
X3122668Y454997D01*
X3122666Y454992D01*
X3123388Y453853D01*
X3123396Y453850D01*
X3123395Y453844D01*
X3124353Y452894D01*
X3124361Y452893D01*
X3124362Y452887D01*
X3125507Y452174D01*
X3125516Y452175D01*
X3125517Y452169D01*
X3126793Y451729D01*
X3126800Y451731D01*
X3126802Y451729D01*
X3126803Y451727D01*
X3128145Y451581D01*
X3128148Y451583D01*
X3128150Y451581D01*
X3134150Y451581D01*
X3134154Y451583D01*
G37*
D10*
X27450Y171200D03*
X27450Y188200D03*
D11*
X3027500Y1950000D03*
X65000Y425000D03*
X105000Y90000D03*
D12*
X288300Y35250D03*
X294800Y53650D03*
X301300Y53650D03*
X288300Y53650D03*
X294800Y35250D03*
X301300Y35250D03*
D13*
X206600Y17900D03*
X223600Y17900D03*
X286300Y19050D03*
X303300Y19050D03*
X286300Y69850D03*
X303300Y69850D03*
D10*
X269400Y52950D03*
X269400Y35950D03*
D14*
X325100Y55500D03*
X325100Y71500D03*
X366100Y71500D03*
X366100Y55500D03*
X366100Y33400D03*
X366100Y17400D03*
X325100Y17400D03*
X325100Y33400D03*
D15*
X562300Y183980D03*
X549600Y183980D03*
X536900Y183980D03*
X524200Y183980D03*
X511500Y183980D03*
X498800Y183980D03*
X486100Y183980D03*
X473400Y183980D03*
X460700Y183980D03*
X448000Y183980D03*
X435300Y183980D03*
X422600Y183980D03*
X409900Y183980D03*
X397200Y183980D03*
D16*
X382300Y158750D03*
X382300Y146050D03*
X382300Y133350D03*
X382300Y120650D03*
X382300Y107950D03*
X382300Y95250D03*
X382300Y82550D03*
X382300Y69850D03*
X382300Y57150D03*
X382300Y44450D03*
D15*
X397200Y19220D03*
X409900Y19220D03*
X422600Y19220D03*
X435300Y19220D03*
X448000Y19220D03*
X460700Y19220D03*
X473400Y19220D03*
X486100Y19220D03*
X498800Y19220D03*
X511500Y19220D03*
X524200Y19220D03*
X536900Y19220D03*
X549600Y19220D03*
X562300Y19220D03*
D17*
X485300Y101600D03*
D18*
X72201Y170200D03*
X72201Y179700D03*
X72201Y189200D03*
X46199Y189200D03*
X46199Y170200D03*
D19*
X218800Y84000D03*
X223800Y84000D03*
X228800Y84000D03*
X233800Y84000D03*
X238800Y84000D03*
X243800Y84000D03*
D20*
X251800Y76000D03*
X251800Y71000D03*
X251800Y66000D03*
X251800Y61000D03*
X251800Y56000D03*
X251800Y51000D03*
X210800Y51000D03*
X210800Y56000D03*
X210800Y61000D03*
X210800Y66000D03*
X210800Y71000D03*
X210800Y76000D03*
D19*
X243800Y43000D03*
X238800Y43000D03*
X233800Y43000D03*
X228800Y43000D03*
X223800Y43000D03*
X218800Y43000D03*
D21*
X231300Y63500D03*
D22*
X2980000Y75000D03*
X75000Y75000D03*
D23*
X3078610Y421930D03*
X3078610Y416930D03*
D24*
X3078610Y446680D03*
D25*
X3078610Y438930D03*
D23*
X3078610Y431930D03*
X3078610Y426930D03*
X3078610Y406930D03*
X3078610Y411930D03*
D24*
X3078610Y382180D03*
D25*
X3078610Y389930D03*
D23*
X3078610Y396930D03*
X3078610Y401930D03*
D26*
X3094600Y385530D03*
X3094600Y443330D03*
D13*
X3039900Y428400D03*
X3056900Y428400D03*
X3039900Y403000D03*
X3056900Y403000D03*
D27*
X3033000Y208500D03*
X3022000Y273500D03*
X3073000Y208500D03*
X3103000Y208500D03*
D28*
X3119000Y241000D03*
X3049000Y241000D03*
D29*
X120000Y175200D02*
X120002Y175372D01*
X120008Y175543D01*
X120019Y175715D01*
X120034Y175886D01*
X120053Y176057D01*
X120076Y176227D01*
X120103Y176397D01*
X120135Y176566D01*
X120170Y176734D01*
X120210Y176901D01*
X120254Y177067D01*
X120301Y177232D01*
X120353Y177396D01*
X120409Y177558D01*
X120469Y177719D01*
X120533Y177879D01*
X120601Y178037D01*
X120672Y178193D01*
X120747Y178347D01*
X120827Y178500D01*
X120909Y178650D01*
X120996Y178799D01*
X121086Y178945D01*
X121180Y179089D01*
X121277Y179231D01*
X121378Y179370D01*
X121482Y179507D01*
X121589Y179641D01*
X121700Y179772D01*
X121813Y179901D01*
X121930Y180027D01*
X122050Y180150D01*
X122173Y180270D01*
X122299Y180387D01*
X122428Y180500D01*
X122559Y180611D01*
X122693Y180718D01*
X122830Y180822D01*
X122969Y180923D01*
X123111Y181020D01*
X123255Y181114D01*
X123401Y181204D01*
X123550Y181291D01*
X123700Y181373D01*
X123853Y181453D01*
X124007Y181528D01*
X124163Y181599D01*
X124321Y181667D01*
X124481Y181731D01*
X124642Y181791D01*
X124804Y181847D01*
X124968Y181899D01*
X125133Y181946D01*
X125299Y181990D01*
X125466Y182030D01*
X125634Y182065D01*
X125803Y182097D01*
X125973Y182124D01*
X126143Y182147D01*
X126314Y182166D01*
X126485Y182181D01*
X126657Y182192D01*
X126828Y182198D01*
X127000Y182200D01*
X127172Y182198D01*
X127343Y182192D01*
X127515Y182181D01*
X127686Y182166D01*
X127857Y182147D01*
X128027Y182124D01*
X128197Y182097D01*
X128366Y182065D01*
X128534Y182030D01*
X128701Y181990D01*
X128867Y181946D01*
X129032Y181899D01*
X129196Y181847D01*
X129358Y181791D01*
X129519Y181731D01*
X129679Y181667D01*
X129837Y181599D01*
X129993Y181528D01*
X130147Y181453D01*
X130300Y181373D01*
X130450Y181291D01*
X130599Y181204D01*
X130745Y181114D01*
X130889Y181020D01*
X131031Y180923D01*
X131170Y180822D01*
X131307Y180718D01*
X131441Y180611D01*
X131572Y180500D01*
X131701Y180387D01*
X131827Y180270D01*
X131950Y180150D01*
X132070Y180027D01*
X132187Y179901D01*
X132300Y179772D01*
X132411Y179641D01*
X132518Y179507D01*
X132622Y179370D01*
X132723Y179231D01*
X132820Y179089D01*
X132914Y178945D01*
X133004Y178799D01*
X133091Y178650D01*
X133173Y178500D01*
X133253Y178347D01*
X133328Y178193D01*
X133399Y178037D01*
X133467Y177879D01*
X133531Y177719D01*
X133591Y177558D01*
X133647Y177396D01*
X133699Y177232D01*
X133746Y177067D01*
X133790Y176901D01*
X133830Y176734D01*
X133865Y176566D01*
X133897Y176397D01*
X133924Y176227D01*
X133947Y176057D01*
X133966Y175886D01*
X133981Y175715D01*
X133992Y175543D01*
X133998Y175372D01*
X134000Y175200D01*
X133998Y175028D01*
X133992Y174857D01*
X133981Y174685D01*
X133966Y174514D01*
X133947Y174343D01*
X133924Y174173D01*
X133897Y174003D01*
X133865Y173834D01*
X133830Y173666D01*
X133790Y173499D01*
X133746Y173333D01*
X133699Y173168D01*
X133647Y173004D01*
X133591Y172842D01*
X133531Y172681D01*
X133467Y172521D01*
X133399Y172363D01*
X133328Y172207D01*
X133253Y172053D01*
X133173Y171900D01*
X133091Y171750D01*
X133004Y171601D01*
X132914Y171455D01*
X132820Y171311D01*
X132723Y171169D01*
X132622Y171030D01*
X132518Y170893D01*
X132411Y170759D01*
X132300Y170628D01*
X132187Y170499D01*
X132070Y170373D01*
X131950Y170250D01*
X131827Y170130D01*
X131701Y170013D01*
X131572Y169900D01*
X131441Y169789D01*
X131307Y169682D01*
X131170Y169578D01*
X131031Y169477D01*
X130889Y169380D01*
X130745Y169286D01*
X130599Y169196D01*
X130450Y169109D01*
X130300Y169027D01*
X130147Y168947D01*
X129993Y168872D01*
X129837Y168801D01*
X129679Y168733D01*
X129519Y168669D01*
X129358Y168609D01*
X129196Y168553D01*
X129032Y168501D01*
X128867Y168454D01*
X128701Y168410D01*
X128534Y168370D01*
X128366Y168335D01*
X128197Y168303D01*
X128027Y168276D01*
X127857Y168253D01*
X127686Y168234D01*
X127515Y168219D01*
X127343Y168208D01*
X127172Y168202D01*
X127000Y168200D01*
X126828Y168202D01*
X126657Y168208D01*
X126485Y168219D01*
X126314Y168234D01*
X126143Y168253D01*
X125973Y168276D01*
X125803Y168303D01*
X125634Y168335D01*
X125466Y168370D01*
X125299Y168410D01*
X125133Y168454D01*
X124968Y168501D01*
X124804Y168553D01*
X124642Y168609D01*
X124481Y168669D01*
X124321Y168733D01*
X124163Y168801D01*
X124007Y168872D01*
X123853Y168947D01*
X123700Y169027D01*
X123550Y169109D01*
X123401Y169196D01*
X123255Y169286D01*
X123111Y169380D01*
X122969Y169477D01*
X122830Y169578D01*
X122693Y169682D01*
X122559Y169789D01*
X122428Y169900D01*
X122299Y170013D01*
X122173Y170130D01*
X122050Y170250D01*
X121930Y170373D01*
X121813Y170499D01*
X121700Y170628D01*
X121589Y170759D01*
X121482Y170893D01*
X121378Y171030D01*
X121277Y171169D01*
X121180Y171311D01*
X121086Y171455D01*
X120996Y171601D01*
X120909Y171750D01*
X120827Y171900D01*
X120747Y172053D01*
X120672Y172207D01*
X120601Y172363D01*
X120533Y172521D01*
X120469Y172681D01*
X120409Y172842D01*
X120353Y173004D01*
X120301Y173168D01*
X120254Y173333D01*
X120210Y173499D01*
X120170Y173666D01*
X120135Y173834D01*
X120103Y174003D01*
X120076Y174173D01*
X120053Y174343D01*
X120034Y174514D01*
X120019Y174685D01*
X120008Y174857D01*
X120002Y175028D01*
X120000Y175200D01*
D30*
X119000Y162200D03*
D31*
X153200Y175200D03*
X153200Y187200D03*
D30*
X119000Y188200D03*
D31*
X153200Y163200D03*
X127000Y175200D03*
D10*
X175800Y182200D03*
X175800Y165200D03*
D13*
X305500Y166400D03*
X288500Y166400D03*
D18*
X306699Y142800D03*
X306699Y133300D03*
X306699Y123800D03*
X332701Y123800D03*
X332701Y142800D03*
D10*
X282950Y124800D03*
X282950Y141800D03*
X244850Y141800D03*
X244850Y124800D03*
X263900Y124800D03*
X263900Y141800D03*
D13*
X311500Y110000D03*
X328500Y110000D03*
D10*
X351450Y141800D03*
X351450Y124800D03*
D13*
X305500Y185450D03*
X288500Y185450D03*
X2999500Y115000D03*
X3016500Y115000D03*
D10*
X3090000Y311500D03*
X3090000Y328500D03*
X3050000Y328500D03*
X3050000Y311500D03*
D13*
X3033500Y165000D03*
X3016500Y165000D03*
D10*
X3070000Y311500D03*
X3070000Y328500D03*
D13*
X3016500Y150000D03*
X3033500Y150000D03*
X3078500Y295000D03*
X3061500Y295000D03*
X3016500Y185000D03*
X3033500Y185000D03*
D32*
X278270Y1859000D03*
X226730Y1859000D03*
X226730Y1891000D03*
X278270Y1891000D03*
X428270Y1859000D03*
X376730Y1859000D03*
X376730Y1891000D03*
X428270Y1891000D03*
D33*
X248436Y1875000D03*
X256564Y1875000D03*
X398436Y1875000D03*
X406564Y1875000D03*
D32*
X578270Y1859000D03*
X526730Y1859000D03*
X526730Y1891000D03*
X578270Y1891000D03*
X728270Y1859000D03*
X676730Y1859000D03*
X676730Y1891000D03*
X728270Y1891000D03*
D33*
X548436Y1875000D03*
X556564Y1875000D03*
X698436Y1875000D03*
X706564Y1875000D03*
D32*
X878270Y1859000D03*
X826730Y1859000D03*
X826730Y1891000D03*
X878270Y1891000D03*
X1028270Y1859000D03*
X976730Y1859000D03*
X976730Y1891000D03*
X1028270Y1891000D03*
D33*
X848436Y1875000D03*
X856564Y1875000D03*
X998436Y1875000D03*
X1006564Y1875000D03*
D32*
X1178270Y1859000D03*
X1126730Y1859000D03*
X1126730Y1891000D03*
X1178270Y1891000D03*
X1328270Y1859000D03*
X1276730Y1859000D03*
X1276730Y1891000D03*
X1328270Y1891000D03*
D33*
X1148436Y1875000D03*
X1156564Y1875000D03*
X1298436Y1875000D03*
X1306564Y1875000D03*
D32*
X1928270Y1859000D03*
X1876730Y1859000D03*
X1876730Y1891000D03*
X1928270Y1891000D03*
X2078270Y1859000D03*
X2026730Y1859000D03*
X2026730Y1891000D03*
X2078270Y1891000D03*
D33*
X1898436Y1875000D03*
X1906564Y1875000D03*
X2048436Y1875000D03*
X2056564Y1875000D03*
D32*
X2228270Y1859000D03*
X2176730Y1859000D03*
X2176730Y1891000D03*
X2228270Y1891000D03*
X2378270Y1859000D03*
X2326730Y1859000D03*
X2326730Y1891000D03*
X2378270Y1891000D03*
D33*
X2198436Y1875000D03*
X2206564Y1875000D03*
X2348436Y1875000D03*
X2356564Y1875000D03*
D32*
X2528270Y1859000D03*
X2476730Y1859000D03*
X2476730Y1891000D03*
X2528270Y1891000D03*
X2678270Y1859000D03*
X2626730Y1859000D03*
X2626730Y1891000D03*
X2678270Y1891000D03*
D33*
X2498436Y1875000D03*
X2506564Y1875000D03*
X2648436Y1875000D03*
X2656564Y1875000D03*
D32*
X2828270Y1859000D03*
X2776730Y1859000D03*
X2776730Y1891000D03*
X2828270Y1891000D03*
D33*
X2798436Y1875000D03*
X2806564Y1875000D03*
D32*
X128270Y1709000D03*
X76730Y1709000D03*
X76730Y1741000D03*
X128270Y1741000D03*
D33*
X98436Y1725000D03*
X106564Y1725000D03*
D32*
X278270Y1709000D03*
X226730Y1709000D03*
X226730Y1741000D03*
X278270Y1741000D03*
D33*
X248436Y1725000D03*
X256564Y1725000D03*
D32*
X428270Y1709000D03*
X376730Y1709000D03*
X376730Y1741000D03*
X428270Y1741000D03*
X578270Y1709000D03*
X526730Y1709000D03*
X526730Y1741000D03*
X578270Y1741000D03*
D33*
X398436Y1725000D03*
X406564Y1725000D03*
X548436Y1725000D03*
X556564Y1725000D03*
D32*
X728270Y1709000D03*
X676730Y1709000D03*
X676730Y1741000D03*
X728270Y1741000D03*
X878270Y1709000D03*
X826730Y1709000D03*
X826730Y1741000D03*
X878270Y1741000D03*
D33*
X698436Y1725000D03*
X706564Y1725000D03*
X848436Y1725000D03*
X856564Y1725000D03*
D32*
X1028270Y1709000D03*
X976730Y1709000D03*
X976730Y1741000D03*
X1028270Y1741000D03*
X1178270Y1709000D03*
X1126730Y1709000D03*
X1126730Y1741000D03*
X1178270Y1741000D03*
D33*
X998436Y1725000D03*
X1006564Y1725000D03*
X1148436Y1725000D03*
X1156564Y1725000D03*
D32*
X1328270Y1709000D03*
X1276730Y1709000D03*
X1276730Y1741000D03*
X1328270Y1741000D03*
X1478270Y1709000D03*
X1426730Y1709000D03*
X1426730Y1741000D03*
X1478270Y1741000D03*
D33*
X1298436Y1725000D03*
X1306564Y1725000D03*
X1448436Y1725000D03*
X1456564Y1725000D03*
D32*
X1628270Y1709000D03*
X1576730Y1709000D03*
X1576730Y1741000D03*
X1628270Y1741000D03*
X1778270Y1709000D03*
X1726730Y1709000D03*
X1726730Y1741000D03*
X1778270Y1741000D03*
D33*
X1598436Y1725000D03*
X1606564Y1725000D03*
X1748436Y1725000D03*
X1756564Y1725000D03*
D32*
X1928270Y1709000D03*
X1876730Y1709000D03*
X1876730Y1741000D03*
X1928270Y1741000D03*
D33*
X1898436Y1725000D03*
X1906564Y1725000D03*
D32*
X2078270Y1709000D03*
X2026730Y1709000D03*
X2026730Y1741000D03*
X2078270Y1741000D03*
X2228270Y1709000D03*
X2176730Y1709000D03*
X2176730Y1741000D03*
X2228270Y1741000D03*
D33*
X2048436Y1725000D03*
X2056564Y1725000D03*
X2198436Y1725000D03*
X2206564Y1725000D03*
D32*
X2378270Y1709000D03*
X2326730Y1709000D03*
X2326730Y1741000D03*
X2378270Y1741000D03*
X2528270Y1709000D03*
X2476730Y1709000D03*
X2476730Y1741000D03*
X2528270Y1741000D03*
D33*
X2348436Y1725000D03*
X2356564Y1725000D03*
X2498436Y1725000D03*
X2506564Y1725000D03*
D32*
X2678270Y1709000D03*
X2626730Y1709000D03*
X2626730Y1741000D03*
X2678270Y1741000D03*
X2828270Y1709000D03*
X2776730Y1709000D03*
X2776730Y1741000D03*
X2828270Y1741000D03*
D33*
X2648436Y1725000D03*
X2656564Y1725000D03*
X2798436Y1725000D03*
X2806564Y1725000D03*
D32*
X2978270Y1709000D03*
X2926730Y1709000D03*
X2926730Y1741000D03*
X2978270Y1741000D03*
D33*
X2948436Y1725000D03*
X2956564Y1725000D03*
D32*
X128270Y1559000D03*
X76730Y1559000D03*
X76730Y1591000D03*
X128270Y1591000D03*
X278270Y1559000D03*
X226730Y1559000D03*
X226730Y1591000D03*
X278270Y1591000D03*
D33*
X98436Y1575000D03*
X106564Y1575000D03*
X248436Y1575000D03*
X256564Y1575000D03*
D32*
X428270Y1559000D03*
X376730Y1559000D03*
X376730Y1591000D03*
X428270Y1591000D03*
D33*
X398436Y1575000D03*
X406564Y1575000D03*
D32*
X578270Y1559000D03*
X526730Y1559000D03*
X526730Y1591000D03*
X578270Y1591000D03*
X728270Y1559000D03*
X676730Y1559000D03*
X676730Y1591000D03*
X728270Y1591000D03*
D33*
X548436Y1575000D03*
X556564Y1575000D03*
X698436Y1575000D03*
X706564Y1575000D03*
D32*
X878270Y1559000D03*
X826730Y1559000D03*
X826730Y1591000D03*
X878270Y1591000D03*
X1028270Y1559000D03*
X976730Y1559000D03*
X976730Y1591000D03*
X1028270Y1591000D03*
D33*
X848436Y1575000D03*
X856564Y1575000D03*
X998436Y1575000D03*
X1006564Y1575000D03*
D32*
X1178270Y1559000D03*
X1126730Y1559000D03*
X1126730Y1591000D03*
X1178270Y1591000D03*
X1328270Y1559000D03*
X1276730Y1559000D03*
X1276730Y1591000D03*
X1328270Y1591000D03*
D33*
X1148436Y1575000D03*
X1156564Y1575000D03*
X1298436Y1575000D03*
X1306564Y1575000D03*
D32*
X1478270Y1559000D03*
X1426730Y1559000D03*
X1426730Y1591000D03*
X1478270Y1591000D03*
X1628270Y1559000D03*
X1576730Y1559000D03*
X1576730Y1591000D03*
X1628270Y1591000D03*
D33*
X1448436Y1575000D03*
X1456564Y1575000D03*
X1598436Y1575000D03*
X1606564Y1575000D03*
D32*
X1778270Y1559000D03*
X1726730Y1559000D03*
X1726730Y1591000D03*
X1778270Y1591000D03*
X1928270Y1559000D03*
X1876730Y1559000D03*
X1876730Y1591000D03*
X1928270Y1591000D03*
D33*
X1748436Y1575000D03*
X1756564Y1575000D03*
X1898436Y1575000D03*
X1906564Y1575000D03*
D32*
X2078270Y1559000D03*
X2026730Y1559000D03*
X2026730Y1591000D03*
X2078270Y1591000D03*
D33*
X2048436Y1575000D03*
X2056564Y1575000D03*
D32*
X2228270Y1559000D03*
X2176730Y1559000D03*
X2176730Y1591000D03*
X2228270Y1591000D03*
X2378270Y1559000D03*
X2326730Y1559000D03*
X2326730Y1591000D03*
X2378270Y1591000D03*
D33*
X2198436Y1575000D03*
X2206564Y1575000D03*
X2348436Y1575000D03*
X2356564Y1575000D03*
D32*
X2528270Y1559000D03*
X2476730Y1559000D03*
X2476730Y1591000D03*
X2528270Y1591000D03*
X2678270Y1559000D03*
X2626730Y1559000D03*
X2626730Y1591000D03*
X2678270Y1591000D03*
D33*
X2498436Y1575000D03*
X2506564Y1575000D03*
X2648436Y1575000D03*
X2656564Y1575000D03*
D32*
X2828270Y1559000D03*
X2776730Y1559000D03*
X2776730Y1591000D03*
X2828270Y1591000D03*
X2978270Y1559000D03*
X2926730Y1559000D03*
X2926730Y1591000D03*
X2978270Y1591000D03*
D33*
X2798436Y1575000D03*
X2806564Y1575000D03*
X2948436Y1575000D03*
X2956564Y1575000D03*
D32*
X128270Y1409000D03*
X76730Y1409000D03*
X76730Y1441000D03*
X128270Y1441000D03*
D33*
X98436Y1425000D03*
X106564Y1425000D03*
D32*
X278270Y1409000D03*
X226730Y1409000D03*
X226730Y1441000D03*
X278270Y1441000D03*
X428270Y1409000D03*
X376730Y1409000D03*
X376730Y1441000D03*
X428270Y1441000D03*
D33*
X248436Y1425000D03*
X256564Y1425000D03*
X398436Y1425000D03*
X406564Y1425000D03*
D32*
X578270Y1409000D03*
X526730Y1409000D03*
X526730Y1441000D03*
X578270Y1441000D03*
D33*
X548436Y1425000D03*
X556564Y1425000D03*
D32*
X728270Y1409000D03*
X676730Y1409000D03*
X676730Y1441000D03*
X728270Y1441000D03*
X878270Y1409000D03*
X826730Y1409000D03*
X826730Y1441000D03*
X878270Y1441000D03*
D33*
X698436Y1425000D03*
X706564Y1425000D03*
X848436Y1425000D03*
X856564Y1425000D03*
D32*
X1028270Y1409000D03*
X976730Y1409000D03*
X976730Y1441000D03*
X1028270Y1441000D03*
X1178270Y1409000D03*
X1126730Y1409000D03*
X1126730Y1441000D03*
X1178270Y1441000D03*
D33*
X998436Y1425000D03*
X1006564Y1425000D03*
X1148436Y1425000D03*
X1156564Y1425000D03*
D32*
X1328270Y1409000D03*
X1276730Y1409000D03*
X1276730Y1441000D03*
X1328270Y1441000D03*
X1478270Y1409000D03*
X1426730Y1409000D03*
X1426730Y1441000D03*
X1478270Y1441000D03*
D33*
X1298436Y1425000D03*
X1306564Y1425000D03*
X1448436Y1425000D03*
X1456564Y1425000D03*
D32*
X1628270Y1409000D03*
X1576730Y1409000D03*
X1576730Y1441000D03*
X1628270Y1441000D03*
X1778270Y1409000D03*
X1726730Y1409000D03*
X1726730Y1441000D03*
X1778270Y1441000D03*
D33*
X1598436Y1425000D03*
X1606564Y1425000D03*
X1748436Y1425000D03*
X1756564Y1425000D03*
D32*
X1928270Y1409000D03*
X1876730Y1409000D03*
X1876730Y1441000D03*
X1928270Y1441000D03*
X2078270Y1409000D03*
X2026730Y1409000D03*
X2026730Y1441000D03*
X2078270Y1441000D03*
D33*
X1898436Y1425000D03*
X1906564Y1425000D03*
X2048436Y1425000D03*
X2056564Y1425000D03*
D32*
X2228270Y1409000D03*
X2176730Y1409000D03*
X2176730Y1441000D03*
X2228270Y1441000D03*
D33*
X2198436Y1425000D03*
X2206564Y1425000D03*
D32*
X2378270Y1409000D03*
X2326730Y1409000D03*
X2326730Y1441000D03*
X2378270Y1441000D03*
X2528270Y1409000D03*
X2476730Y1409000D03*
X2476730Y1441000D03*
X2528270Y1441000D03*
D33*
X2348436Y1425000D03*
X2356564Y1425000D03*
X2498436Y1425000D03*
X2506564Y1425000D03*
D32*
X2678270Y1409000D03*
X2626730Y1409000D03*
X2626730Y1441000D03*
X2678270Y1441000D03*
X2828270Y1409000D03*
X2776730Y1409000D03*
X2776730Y1441000D03*
X2828270Y1441000D03*
D33*
X2648436Y1425000D03*
X2656564Y1425000D03*
X2798436Y1425000D03*
X2806564Y1425000D03*
D32*
X2978270Y1409000D03*
X2926730Y1409000D03*
X2926730Y1441000D03*
X2978270Y1441000D03*
D33*
X2948436Y1425000D03*
X2956564Y1425000D03*
D32*
X128270Y1259000D03*
X76730Y1259000D03*
X76730Y1291000D03*
X128270Y1291000D03*
X278270Y1259000D03*
X226730Y1259000D03*
X226730Y1291000D03*
X278270Y1291000D03*
D33*
X98436Y1275000D03*
X106564Y1275000D03*
X248436Y1275000D03*
X256564Y1275000D03*
D32*
X428270Y1259000D03*
X376730Y1259000D03*
X376730Y1291000D03*
X428270Y1291000D03*
X578270Y1259000D03*
X526730Y1259000D03*
X526730Y1291000D03*
X578270Y1291000D03*
D33*
X398436Y1275000D03*
X406564Y1275000D03*
X548436Y1275000D03*
X556564Y1275000D03*
D32*
X728270Y1259000D03*
X676730Y1259000D03*
X676730Y1291000D03*
X728270Y1291000D03*
D33*
X698436Y1275000D03*
X706564Y1275000D03*
D32*
X878270Y1259000D03*
X826730Y1259000D03*
X826730Y1291000D03*
X878270Y1291000D03*
X1028270Y1259000D03*
X976730Y1259000D03*
X976730Y1291000D03*
X1028270Y1291000D03*
D33*
X848436Y1275000D03*
X856564Y1275000D03*
X998436Y1275000D03*
X1006564Y1275000D03*
D32*
X1178270Y1259000D03*
X1126730Y1259000D03*
X1126730Y1291000D03*
X1178270Y1291000D03*
X1328270Y1259000D03*
X1276730Y1259000D03*
X1276730Y1291000D03*
X1328270Y1291000D03*
D33*
X1148436Y1275000D03*
X1156564Y1275000D03*
X1298436Y1275000D03*
X1306564Y1275000D03*
D32*
X1478270Y1259000D03*
X1426730Y1259000D03*
X1426730Y1291000D03*
X1478270Y1291000D03*
X1628270Y1259000D03*
X1576730Y1259000D03*
X1576730Y1291000D03*
X1628270Y1291000D03*
D33*
X1448436Y1275000D03*
X1456564Y1275000D03*
X1598436Y1275000D03*
X1606564Y1275000D03*
D32*
X1778270Y1259000D03*
X1726730Y1259000D03*
X1726730Y1291000D03*
X1778270Y1291000D03*
X1928270Y1259000D03*
X1876730Y1259000D03*
X1876730Y1291000D03*
X1928270Y1291000D03*
D33*
X1748436Y1275000D03*
X1756564Y1275000D03*
X1898436Y1275000D03*
X1906564Y1275000D03*
D32*
X2078270Y1259000D03*
X2026730Y1259000D03*
X2026730Y1291000D03*
X2078270Y1291000D03*
X2228270Y1259000D03*
X2176730Y1259000D03*
X2176730Y1291000D03*
X2228270Y1291000D03*
D33*
X2048436Y1275000D03*
X2056564Y1275000D03*
X2198436Y1275000D03*
X2206564Y1275000D03*
D32*
X2378270Y1259000D03*
X2326730Y1259000D03*
X2326730Y1291000D03*
X2378270Y1291000D03*
D33*
X2348436Y1275000D03*
X2356564Y1275000D03*
D32*
X2528270Y1259000D03*
X2476730Y1259000D03*
X2476730Y1291000D03*
X2528270Y1291000D03*
X2678270Y1259000D03*
X2626730Y1259000D03*
X2626730Y1291000D03*
X2678270Y1291000D03*
D33*
X2498436Y1275000D03*
X2506564Y1275000D03*
X2648436Y1275000D03*
X2656564Y1275000D03*
D32*
X2828270Y1259000D03*
X2776730Y1259000D03*
X2776730Y1291000D03*
X2828270Y1291000D03*
X2978270Y1259000D03*
X2926730Y1259000D03*
X2926730Y1291000D03*
X2978270Y1291000D03*
D33*
X2798436Y1275000D03*
X2806564Y1275000D03*
X2948436Y1275000D03*
X2956564Y1275000D03*
D32*
X128270Y1109000D03*
X76730Y1109000D03*
X76730Y1141000D03*
X128270Y1141000D03*
D33*
X98436Y1125000D03*
X106564Y1125000D03*
D32*
X278270Y1109000D03*
X226730Y1109000D03*
X226730Y1141000D03*
X278270Y1141000D03*
X428270Y1109000D03*
X376730Y1109000D03*
X376730Y1141000D03*
X428270Y1141000D03*
D33*
X248436Y1125000D03*
X256564Y1125000D03*
X398436Y1125000D03*
X406564Y1125000D03*
D32*
X578270Y1109000D03*
X526730Y1109000D03*
X526730Y1141000D03*
X578270Y1141000D03*
X728270Y1109000D03*
X676730Y1109000D03*
X676730Y1141000D03*
X728270Y1141000D03*
D33*
X548436Y1125000D03*
X556564Y1125000D03*
X698436Y1125000D03*
X706564Y1125000D03*
D32*
X878270Y1109000D03*
X826730Y1109000D03*
X826730Y1141000D03*
X878270Y1141000D03*
D33*
X848436Y1125000D03*
X856564Y1125000D03*
D32*
X1028270Y1109000D03*
X976730Y1109000D03*
X976730Y1141000D03*
X1028270Y1141000D03*
X1178270Y1109000D03*
X1126730Y1109000D03*
X1126730Y1141000D03*
X1178270Y1141000D03*
D33*
X998436Y1125000D03*
X1006564Y1125000D03*
X1148436Y1125000D03*
X1156564Y1125000D03*
D32*
X1328270Y1109000D03*
X1276730Y1109000D03*
X1276730Y1141000D03*
X1328270Y1141000D03*
X1478270Y1109000D03*
X1426730Y1109000D03*
X1426730Y1141000D03*
X1478270Y1141000D03*
D33*
X1298436Y1125000D03*
X1306564Y1125000D03*
X1448436Y1125000D03*
X1456564Y1125000D03*
D32*
X1628270Y1109000D03*
X1576730Y1109000D03*
X1576730Y1141000D03*
X1628270Y1141000D03*
X1778270Y1109000D03*
X1726730Y1109000D03*
X1726730Y1141000D03*
X1778270Y1141000D03*
D33*
X1598436Y1125000D03*
X1606564Y1125000D03*
X1748436Y1125000D03*
X1756564Y1125000D03*
D32*
X1928270Y1109000D03*
X1876730Y1109000D03*
X1876730Y1141000D03*
X1928270Y1141000D03*
X2078270Y1109000D03*
X2026730Y1109000D03*
X2026730Y1141000D03*
X2078270Y1141000D03*
D33*
X1898436Y1125000D03*
X1906564Y1125000D03*
X2048436Y1125000D03*
X2056564Y1125000D03*
D32*
X2228270Y1109000D03*
X2176730Y1109000D03*
X2176730Y1141000D03*
X2228270Y1141000D03*
X2378270Y1109000D03*
X2326730Y1109000D03*
X2326730Y1141000D03*
X2378270Y1141000D03*
D33*
X2198436Y1125000D03*
X2206564Y1125000D03*
X2348436Y1125000D03*
X2356564Y1125000D03*
D32*
X2528270Y1109000D03*
X2476730Y1109000D03*
X2476730Y1141000D03*
X2528270Y1141000D03*
D33*
X2498436Y1125000D03*
X2506564Y1125000D03*
D32*
X2678270Y1109000D03*
X2626730Y1109000D03*
X2626730Y1141000D03*
X2678270Y1141000D03*
X2828270Y1109000D03*
X2776730Y1109000D03*
X2776730Y1141000D03*
X2828270Y1141000D03*
D33*
X2648436Y1125000D03*
X2656564Y1125000D03*
X2798436Y1125000D03*
X2806564Y1125000D03*
D32*
X2978270Y1109000D03*
X2926730Y1109000D03*
X2926730Y1141000D03*
X2978270Y1141000D03*
D33*
X2948436Y1125000D03*
X2956564Y1125000D03*
D32*
X128270Y959000D03*
X76730Y959000D03*
X76730Y991000D03*
X128270Y991000D03*
X278270Y959000D03*
X226730Y959000D03*
X226730Y991000D03*
X278270Y991000D03*
D33*
X98436Y975000D03*
X106564Y975000D03*
X248436Y975000D03*
X256564Y975000D03*
D32*
X428270Y959000D03*
X376730Y959000D03*
X376730Y991000D03*
X428270Y991000D03*
X578270Y959000D03*
X526730Y959000D03*
X526730Y991000D03*
X578270Y991000D03*
D33*
X398436Y975000D03*
X406564Y975000D03*
X548436Y975000D03*
X556564Y975000D03*
D32*
X728270Y959000D03*
X676730Y959000D03*
X676730Y991000D03*
X728270Y991000D03*
X878270Y959000D03*
X826730Y959000D03*
X826730Y991000D03*
X878270Y991000D03*
D33*
X698436Y975000D03*
X706564Y975000D03*
X848436Y975000D03*
X856564Y975000D03*
D32*
X1028270Y959000D03*
X976730Y959000D03*
X976730Y991000D03*
X1028270Y991000D03*
D33*
X998436Y975000D03*
X1006564Y975000D03*
D32*
X1178270Y959000D03*
X1126730Y959000D03*
X1126730Y991000D03*
X1178270Y991000D03*
X1328270Y959000D03*
X1276730Y959000D03*
X1276730Y991000D03*
X1328270Y991000D03*
D33*
X1148436Y975000D03*
X1156564Y975000D03*
X1298436Y975000D03*
X1306564Y975000D03*
D32*
X1478270Y959000D03*
X1426730Y959000D03*
X1426730Y991000D03*
X1478270Y991000D03*
X1628270Y959000D03*
X1576730Y959000D03*
X1576730Y991000D03*
X1628270Y991000D03*
D33*
X1448436Y975000D03*
X1456564Y975000D03*
X1598436Y975000D03*
X1606564Y975000D03*
D32*
X1778270Y959000D03*
X1726730Y959000D03*
X1726730Y991000D03*
X1778270Y991000D03*
X1928270Y959000D03*
X1876730Y959000D03*
X1876730Y991000D03*
X1928270Y991000D03*
D33*
X1748436Y975000D03*
X1756564Y975000D03*
X1898436Y975000D03*
X1906564Y975000D03*
D32*
X2078270Y959000D03*
X2026730Y959000D03*
X2026730Y991000D03*
X2078270Y991000D03*
X2228270Y959000D03*
X2176730Y959000D03*
X2176730Y991000D03*
X2228270Y991000D03*
D33*
X2048436Y975000D03*
X2056564Y975000D03*
X2198436Y975000D03*
X2206564Y975000D03*
D32*
X2378270Y959000D03*
X2326730Y959000D03*
X2326730Y991000D03*
X2378270Y991000D03*
X2528270Y959000D03*
X2476730Y959000D03*
X2476730Y991000D03*
X2528270Y991000D03*
D33*
X2348436Y975000D03*
X2356564Y975000D03*
X2498436Y975000D03*
X2506564Y975000D03*
D32*
X2678270Y959000D03*
X2626730Y959000D03*
X2626730Y991000D03*
X2678270Y991000D03*
D33*
X2648436Y975000D03*
X2656564Y975000D03*
D32*
X2828270Y959000D03*
X2776730Y959000D03*
X2776730Y991000D03*
X2828270Y991000D03*
X2978270Y959000D03*
X2926730Y959000D03*
X2926730Y991000D03*
X2978270Y991000D03*
D33*
X2798436Y975000D03*
X2806564Y975000D03*
X2948436Y975000D03*
X2956564Y975000D03*
D32*
X128270Y809000D03*
X76730Y809000D03*
X76730Y841000D03*
X128270Y841000D03*
D33*
X98436Y825000D03*
X106564Y825000D03*
D32*
X278270Y809000D03*
X226730Y809000D03*
X226730Y841000D03*
X278270Y841000D03*
X428270Y809000D03*
X376730Y809000D03*
X376730Y841000D03*
X428270Y841000D03*
D33*
X248436Y825000D03*
X256564Y825000D03*
X398436Y825000D03*
X406564Y825000D03*
D32*
X578270Y809000D03*
X526730Y809000D03*
X526730Y841000D03*
X578270Y841000D03*
X728270Y809000D03*
X676730Y809000D03*
X676730Y841000D03*
X728270Y841000D03*
D33*
X548436Y825000D03*
X556564Y825000D03*
X698436Y825000D03*
X706564Y825000D03*
D32*
X878270Y809000D03*
X826730Y809000D03*
X826730Y841000D03*
X878270Y841000D03*
X1028270Y809000D03*
X976730Y809000D03*
X976730Y841000D03*
X1028270Y841000D03*
D33*
X848436Y825000D03*
X856564Y825000D03*
X998436Y825000D03*
X1006564Y825000D03*
D32*
X1178270Y809000D03*
X1126730Y809000D03*
X1126730Y841000D03*
X1178270Y841000D03*
D33*
X1148436Y825000D03*
X1156564Y825000D03*
D32*
X1328270Y809000D03*
X1276730Y809000D03*
X1276730Y841000D03*
X1328270Y841000D03*
X1478270Y809000D03*
X1426730Y809000D03*
X1426730Y841000D03*
X1478270Y841000D03*
D33*
X1298436Y825000D03*
X1306564Y825000D03*
X1448436Y825000D03*
X1456564Y825000D03*
D32*
X1628270Y809000D03*
X1576730Y809000D03*
X1576730Y841000D03*
X1628270Y841000D03*
X1778270Y809000D03*
X1726730Y809000D03*
X1726730Y841000D03*
X1778270Y841000D03*
D33*
X1598436Y825000D03*
X1606564Y825000D03*
X1748436Y825000D03*
X1756564Y825000D03*
D32*
X1928270Y809000D03*
X1876730Y809000D03*
X1876730Y841000D03*
X1928270Y841000D03*
X2078270Y809000D03*
X2026730Y809000D03*
X2026730Y841000D03*
X2078270Y841000D03*
D33*
X1898436Y825000D03*
X1906564Y825000D03*
X2048436Y825000D03*
X2056564Y825000D03*
D32*
X2228270Y809000D03*
X2176730Y809000D03*
X2176730Y841000D03*
X2228270Y841000D03*
X2378270Y809000D03*
X2326730Y809000D03*
X2326730Y841000D03*
X2378270Y841000D03*
D33*
X2198436Y825000D03*
X2206564Y825000D03*
X2348436Y825000D03*
X2356564Y825000D03*
D32*
X2528270Y809000D03*
X2476730Y809000D03*
X2476730Y841000D03*
X2528270Y841000D03*
X2678270Y809000D03*
X2626730Y809000D03*
X2626730Y841000D03*
X2678270Y841000D03*
D33*
X2498436Y825000D03*
X2506564Y825000D03*
X2648436Y825000D03*
X2656564Y825000D03*
D32*
X2828270Y809000D03*
X2776730Y809000D03*
X2776730Y841000D03*
X2828270Y841000D03*
D33*
X2798436Y825000D03*
X2806564Y825000D03*
D32*
X2978270Y809000D03*
X2926730Y809000D03*
X2926730Y841000D03*
X2978270Y841000D03*
D33*
X2948436Y825000D03*
X2956564Y825000D03*
D32*
X128270Y659000D03*
X76730Y659000D03*
X76730Y691000D03*
X128270Y691000D03*
X278270Y659000D03*
X226730Y659000D03*
X226730Y691000D03*
X278270Y691000D03*
D33*
X98436Y675000D03*
X106564Y675000D03*
X248436Y675000D03*
X256564Y675000D03*
D32*
X428270Y659000D03*
X376730Y659000D03*
X376730Y691000D03*
X428270Y691000D03*
X578270Y659000D03*
X526730Y659000D03*
X526730Y691000D03*
X578270Y691000D03*
D33*
X398436Y675000D03*
X406564Y675000D03*
X548436Y675000D03*
X556564Y675000D03*
D32*
X728270Y659000D03*
X676730Y659000D03*
X676730Y691000D03*
X728270Y691000D03*
X878270Y659000D03*
X826730Y659000D03*
X826730Y691000D03*
X878270Y691000D03*
D33*
X698436Y675000D03*
X706564Y675000D03*
X848436Y675000D03*
X856564Y675000D03*
D32*
X1028270Y659000D03*
X976730Y659000D03*
X976730Y691000D03*
X1028270Y691000D03*
X1178270Y659000D03*
X1126730Y659000D03*
X1126730Y691000D03*
X1178270Y691000D03*
D33*
X998436Y675000D03*
X1006564Y675000D03*
X1148436Y675000D03*
X1156564Y675000D03*
D32*
X1328270Y659000D03*
X1276730Y659000D03*
X1276730Y691000D03*
X1328270Y691000D03*
D33*
X1298436Y675000D03*
X1306564Y675000D03*
D32*
X1478270Y659000D03*
X1426730Y659000D03*
X1426730Y691000D03*
X1478270Y691000D03*
X1628270Y659000D03*
X1576730Y659000D03*
X1576730Y691000D03*
X1628270Y691000D03*
D33*
X1448436Y675000D03*
X1456564Y675000D03*
X1598436Y675000D03*
X1606564Y675000D03*
D32*
X1778270Y659000D03*
X1726730Y659000D03*
X1726730Y691000D03*
X1778270Y691000D03*
X1928270Y659000D03*
X1876730Y659000D03*
X1876730Y691000D03*
X1928270Y691000D03*
D33*
X1748436Y675000D03*
X1756564Y675000D03*
X1898436Y675000D03*
X1906564Y675000D03*
D32*
X2078270Y659000D03*
X2026730Y659000D03*
X2026730Y691000D03*
X2078270Y691000D03*
X2228270Y659000D03*
X2176730Y659000D03*
X2176730Y691000D03*
X2228270Y691000D03*
D33*
X2048436Y675000D03*
X2056564Y675000D03*
X2198436Y675000D03*
X2206564Y675000D03*
D32*
X2378270Y659000D03*
X2326730Y659000D03*
X2326730Y691000D03*
X2378270Y691000D03*
X2528270Y659000D03*
X2476730Y659000D03*
X2476730Y691000D03*
X2528270Y691000D03*
D33*
X2348436Y675000D03*
X2356564Y675000D03*
X2498436Y675000D03*
X2506564Y675000D03*
D32*
X2678270Y659000D03*
X2626730Y659000D03*
X2626730Y691000D03*
X2678270Y691000D03*
X2828270Y659000D03*
X2776730Y659000D03*
X2776730Y691000D03*
X2828270Y691000D03*
D33*
X2648436Y675000D03*
X2656564Y675000D03*
X2798436Y675000D03*
X2806564Y675000D03*
D32*
X2978270Y659000D03*
X2926730Y659000D03*
X2926730Y691000D03*
X2978270Y691000D03*
D33*
X2948436Y675000D03*
X2956564Y675000D03*
D32*
X128270Y509000D03*
X76730Y509000D03*
X76730Y541000D03*
X128270Y541000D03*
D33*
X98436Y525000D03*
X106564Y525000D03*
D32*
X278270Y509000D03*
X226730Y509000D03*
X226730Y541000D03*
X278270Y541000D03*
X428270Y509000D03*
X376730Y509000D03*
X376730Y541000D03*
X428270Y541000D03*
D33*
X248436Y525000D03*
X256564Y525000D03*
X398436Y525000D03*
X406564Y525000D03*
D32*
X578270Y509000D03*
X526730Y509000D03*
X526730Y541000D03*
X578270Y541000D03*
X728270Y509000D03*
X676730Y509000D03*
X676730Y541000D03*
X728270Y541000D03*
D33*
X548436Y525000D03*
X556564Y525000D03*
X698436Y525000D03*
X706564Y525000D03*
D32*
X878270Y509000D03*
X826730Y509000D03*
X826730Y541000D03*
X878270Y541000D03*
X1028270Y509000D03*
X976730Y509000D03*
X976730Y541000D03*
X1028270Y541000D03*
D33*
X848436Y525000D03*
X856564Y525000D03*
X998436Y525000D03*
X1006564Y525000D03*
D32*
X1178270Y509000D03*
X1126730Y509000D03*
X1126730Y541000D03*
X1178270Y541000D03*
X1328270Y509000D03*
X1276730Y509000D03*
X1276730Y541000D03*
X1328270Y541000D03*
D33*
X1148436Y525000D03*
X1156564Y525000D03*
X1298436Y525000D03*
X1306564Y525000D03*
D32*
X1478270Y509000D03*
X1426730Y509000D03*
X1426730Y541000D03*
X1478270Y541000D03*
D33*
X1448436Y525000D03*
X1456564Y525000D03*
D32*
X1628270Y509000D03*
X1576730Y509000D03*
X1576730Y541000D03*
X1628270Y541000D03*
X1778270Y509000D03*
X1726730Y509000D03*
X1726730Y541000D03*
X1778270Y541000D03*
D33*
X1598436Y525000D03*
X1606564Y525000D03*
X1748436Y525000D03*
X1756564Y525000D03*
D32*
X1928270Y509000D03*
X1876730Y509000D03*
X1876730Y541000D03*
X1928270Y541000D03*
X2078270Y509000D03*
X2026730Y509000D03*
X2026730Y541000D03*
X2078270Y541000D03*
D33*
X1898436Y525000D03*
X1906564Y525000D03*
X2048436Y525000D03*
X2056564Y525000D03*
D32*
X2228270Y509000D03*
X2176730Y509000D03*
X2176730Y541000D03*
X2228270Y541000D03*
X2378270Y509000D03*
X2326730Y509000D03*
X2326730Y541000D03*
X2378270Y541000D03*
D33*
X2198436Y525000D03*
X2206564Y525000D03*
X2348436Y525000D03*
X2356564Y525000D03*
D32*
X2528270Y509000D03*
X2476730Y509000D03*
X2476730Y541000D03*
X2528270Y541000D03*
X2678270Y509000D03*
X2626730Y509000D03*
X2626730Y541000D03*
X2678270Y541000D03*
D33*
X2498436Y525000D03*
X2506564Y525000D03*
X2648436Y525000D03*
X2656564Y525000D03*
D32*
X2828270Y509000D03*
X2776730Y509000D03*
X2776730Y541000D03*
X2828270Y541000D03*
X2978270Y509000D03*
X2926730Y509000D03*
X2926730Y541000D03*
X2978270Y541000D03*
D33*
X2798436Y525000D03*
X2806564Y525000D03*
X2948436Y525000D03*
X2956564Y525000D03*
D32*
X278270Y359000D03*
X226730Y359000D03*
X226730Y391000D03*
X278270Y391000D03*
D33*
X248436Y375000D03*
X256564Y375000D03*
D32*
X428270Y359000D03*
X376730Y359000D03*
X376730Y391000D03*
X428270Y391000D03*
X578270Y359000D03*
X526730Y359000D03*
X526730Y391000D03*
X578270Y391000D03*
D33*
X398436Y375000D03*
X406564Y375000D03*
X548436Y375000D03*
X556564Y375000D03*
D32*
X728270Y359000D03*
X676730Y359000D03*
X676730Y391000D03*
X728270Y391000D03*
X878270Y359000D03*
X826730Y359000D03*
X826730Y391000D03*
X878270Y391000D03*
D33*
X698436Y375000D03*
X706564Y375000D03*
X848436Y375000D03*
X856564Y375000D03*
D32*
X1028270Y359000D03*
X976730Y359000D03*
X976730Y391000D03*
X1028270Y391000D03*
X1178270Y359000D03*
X1126730Y359000D03*
X1126730Y391000D03*
X1178270Y391000D03*
D33*
X998436Y375000D03*
X1006564Y375000D03*
X1148436Y375000D03*
X1156564Y375000D03*
D32*
X1328270Y359000D03*
X1276730Y359000D03*
X1276730Y391000D03*
X1328270Y391000D03*
X1478270Y359000D03*
X1426730Y359000D03*
X1426730Y391000D03*
X1478270Y391000D03*
D33*
X1298436Y375000D03*
X1306564Y375000D03*
X1448436Y375000D03*
X1456564Y375000D03*
D32*
X1628270Y359000D03*
X1576730Y359000D03*
X1576730Y391000D03*
X1628270Y391000D03*
D33*
X1598436Y375000D03*
X1606564Y375000D03*
D32*
X1778270Y359000D03*
X1726730Y359000D03*
X1726730Y391000D03*
X1778270Y391000D03*
X1928270Y359000D03*
X1876730Y359000D03*
X1876730Y391000D03*
X1928270Y391000D03*
D33*
X1748436Y375000D03*
X1756564Y375000D03*
X1898436Y375000D03*
X1906564Y375000D03*
D32*
X2078270Y359000D03*
X2026730Y359000D03*
X2026730Y391000D03*
X2078270Y391000D03*
X2228270Y359000D03*
X2176730Y359000D03*
X2176730Y391000D03*
X2228270Y391000D03*
D33*
X2048436Y375000D03*
X2056564Y375000D03*
X2198436Y375000D03*
X2206564Y375000D03*
D32*
X2378270Y359000D03*
X2326730Y359000D03*
X2326730Y391000D03*
X2378270Y391000D03*
X2528270Y359000D03*
X2476730Y359000D03*
X2476730Y391000D03*
X2528270Y391000D03*
D33*
X2348436Y375000D03*
X2356564Y375000D03*
X2498436Y375000D03*
X2506564Y375000D03*
D32*
X2678270Y359000D03*
X2626730Y359000D03*
X2626730Y391000D03*
X2678270Y391000D03*
X2828270Y359000D03*
X2776730Y359000D03*
X2776730Y391000D03*
X2828270Y391000D03*
D33*
X2648436Y375000D03*
X2656564Y375000D03*
X2798436Y375000D03*
X2806564Y375000D03*
D32*
X2978270Y359000D03*
X2926730Y359000D03*
X2926730Y391000D03*
X2978270Y391000D03*
D33*
X2948436Y375000D03*
X2956564Y375000D03*
D32*
X878270Y209000D03*
X826730Y209000D03*
X826730Y241000D03*
X878270Y241000D03*
D33*
X848436Y225000D03*
X856564Y225000D03*
D32*
X1028270Y209000D03*
X976730Y209000D03*
X976730Y241000D03*
X1028270Y241000D03*
X1178270Y209000D03*
X1126730Y209000D03*
X1126730Y241000D03*
X1178270Y241000D03*
D33*
X998436Y225000D03*
X1006564Y225000D03*
X1148436Y225000D03*
X1156564Y225000D03*
D32*
X1328270Y209000D03*
X1276730Y209000D03*
X1276730Y241000D03*
X1328270Y241000D03*
X1478270Y209000D03*
X1426730Y209000D03*
X1426730Y241000D03*
X1478270Y241000D03*
D33*
X1298436Y225000D03*
X1306564Y225000D03*
X1448436Y225000D03*
X1456564Y225000D03*
D32*
X1628270Y209000D03*
X1576730Y209000D03*
X1576730Y241000D03*
X1628270Y241000D03*
X1778270Y209000D03*
X1726730Y209000D03*
X1726730Y241000D03*
X1778270Y241000D03*
D33*
X1598436Y225000D03*
X1606564Y225000D03*
X1748436Y225000D03*
X1756564Y225000D03*
D32*
X1928270Y209000D03*
X1876730Y209000D03*
X1876730Y241000D03*
X1928270Y241000D03*
X2078270Y209000D03*
X2026730Y209000D03*
X2026730Y241000D03*
X2078270Y241000D03*
D33*
X1898436Y225000D03*
X1906564Y225000D03*
X2048436Y225000D03*
X2056564Y225000D03*
D32*
X2228270Y209000D03*
X2176730Y209000D03*
X2176730Y241000D03*
X2228270Y241000D03*
X2378270Y209000D03*
X2326730Y209000D03*
X2326730Y241000D03*
X2378270Y241000D03*
D33*
X2198436Y225000D03*
X2206564Y225000D03*
X2348436Y225000D03*
X2356564Y225000D03*
D32*
X2528270Y209000D03*
X2476730Y209000D03*
X2476730Y241000D03*
X2528270Y241000D03*
D33*
X2498436Y225000D03*
X2506564Y225000D03*
D32*
X2678270Y209000D03*
X2626730Y209000D03*
X2626730Y241000D03*
X2678270Y241000D03*
X2828270Y209000D03*
X2776730Y209000D03*
X2776730Y241000D03*
X2828270Y241000D03*
D33*
X2648436Y225000D03*
X2656564Y225000D03*
X2798436Y225000D03*
X2806564Y225000D03*
D32*
X2978270Y209000D03*
X2926730Y209000D03*
X2926730Y241000D03*
X2978270Y241000D03*
D33*
X2948436Y225000D03*
X2956564Y225000D03*
D32*
X728270Y59000D03*
X676730Y59000D03*
X676730Y91000D03*
X728270Y91000D03*
X878270Y59000D03*
X826730Y59000D03*
X826730Y91000D03*
X878270Y91000D03*
D33*
X698436Y75000D03*
X706564Y75000D03*
X848436Y75000D03*
X856564Y75000D03*
D32*
X1028270Y59000D03*
X976730Y59000D03*
X976730Y91000D03*
X1028270Y91000D03*
X1178270Y59000D03*
X1126730Y59000D03*
X1126730Y91000D03*
X1178270Y91000D03*
D33*
X998436Y75000D03*
X1006564Y75000D03*
X1148436Y75000D03*
X1156564Y75000D03*
D32*
X1790770Y59000D03*
X1739230Y59000D03*
X1739230Y91000D03*
X1790770Y91000D03*
X1928270Y59000D03*
X1876730Y59000D03*
X1876730Y91000D03*
X1928270Y91000D03*
D33*
X1760936Y75000D03*
X1769064Y75000D03*
X1898436Y75000D03*
X1906564Y75000D03*
D32*
X2078270Y59000D03*
X2026730Y59000D03*
X2026730Y91000D03*
X2078270Y91000D03*
X2228270Y59000D03*
X2176730Y59000D03*
X2176730Y91000D03*
X2228270Y91000D03*
D33*
X2048436Y75000D03*
X2056564Y75000D03*
X2198436Y75000D03*
X2206564Y75000D03*
D32*
X2378270Y59000D03*
X2326730Y59000D03*
X2326730Y91000D03*
X2378270Y91000D03*
X2528270Y59000D03*
X2476730Y59000D03*
X2476730Y91000D03*
X2528270Y91000D03*
D33*
X2348436Y75000D03*
X2356564Y75000D03*
X2498436Y75000D03*
X2506564Y75000D03*
D32*
X2678270Y59000D03*
X2626730Y59000D03*
X2626730Y91000D03*
X2678270Y91000D03*
X2828270Y59000D03*
X2776730Y59000D03*
X2776730Y91000D03*
X2828270Y91000D03*
D33*
X2648436Y75000D03*
X2656564Y75000D03*
X2798436Y75000D03*
X2806564Y75000D03*
D13*
X189290Y40030D03*
X206290Y40030D03*
D22*
X1706320Y1902500D03*
X1348680Y75000D03*
X2980000Y1902500D03*
X75000Y1902500D03*
D10*
X9500Y171200D03*
X9500Y188200D03*
D13*
X68500Y155000D03*
X51500Y155000D03*
D10*
X97500Y186000D03*
X97500Y169000D03*
D32*
X128270Y359000D03*
X76730Y359000D03*
X76730Y391000D03*
X128270Y391000D03*
D33*
X98436Y375000D03*
X106564Y375000D03*
D32*
X128270Y214000D03*
X76730Y214000D03*
X76730Y246000D03*
X128270Y246000D03*
D33*
X98436Y230000D03*
X106564Y230000D03*
D32*
X278270Y209000D03*
X226730Y209000D03*
X226730Y241000D03*
X278270Y241000D03*
X578270Y209000D03*
X526730Y209000D03*
X526730Y241000D03*
X578270Y241000D03*
D33*
X248436Y225000D03*
X256564Y225000D03*
X548436Y225000D03*
X556564Y225000D03*
D32*
X728270Y209000D03*
X676730Y209000D03*
X676730Y241000D03*
X728270Y241000D03*
D33*
X698436Y225000D03*
X706564Y225000D03*
D34*
X50000Y1804064D03*
X50000Y1795936D03*
X50000Y1654064D03*
X50000Y1645936D03*
X50000Y1504064D03*
X50000Y1495936D03*
X50000Y1354064D03*
X50000Y1345936D03*
X50000Y1204064D03*
X50000Y1195936D03*
X50000Y1054064D03*
X50000Y1045936D03*
X50000Y904064D03*
X50000Y895936D03*
X50000Y754064D03*
X50000Y745936D03*
X50000Y604064D03*
X50000Y595936D03*
X50000Y454064D03*
X50000Y445936D03*
X50000Y304064D03*
X50000Y295936D03*
X700000Y154064D03*
X700000Y145936D03*
M02*
