G04 EAGLE Gerber RS-274X export*
G75*
%MOMM*%
%FSLAX34Y34*%
%LPD*%
%INSilkscreen Top*%
%IPPOS*%
%AMOC8*
5,1,8,0,0,1.08239X$1,22.5*%
G01*
%ADD10C,0.203200*%
%ADD11C,0.152400*%
%ADD12C,0.508000*%
%ADD13C,0.127000*%
%ADD14C,0.254000*%
%ADD15C,0.254000*%
%ADD16R,10.590000X0.040000*%
%ADD17R,11.000000X0.030000*%
%ADD18R,0.480000X0.040000*%
%ADD19R,0.110000X0.040000*%
%ADD20R,0.600000X0.040000*%
%ADD21R,0.370000X0.040000*%
%ADD22R,0.330000X0.040000*%
%ADD23R,0.300000X0.030000*%
%ADD24R,0.220000X0.030000*%
%ADD25R,0.110000X0.030000*%
%ADD26R,0.220000X0.040000*%
%ADD27R,10.820000X0.040000*%
%ADD28R,0.250000X0.040000*%
%ADD29R,11.110000X0.040000*%
%ADD30R,2.340000X0.040000*%
%ADD31R,0.070000X0.040000*%
%ADD32R,0.180000X0.040000*%
%ADD33R,1.780000X0.040000*%
%ADD34R,0.190000X0.030000*%
%ADD35R,0.370000X0.030000*%
%ADD36R,0.410000X0.030000*%
%ADD37R,0.190000X0.040000*%
%ADD38R,0.300000X0.040000*%
%ADD39R,0.260000X0.040000*%
%ADD40R,0.140000X0.030000*%
%ADD41R,0.250000X0.030000*%
%ADD42R,0.150000X0.040000*%
%ADD43R,0.230000X0.040000*%
%ADD44R,0.140000X0.040000*%
%ADD45R,0.230000X0.030000*%
%ADD46R,0.150000X0.030000*%
%ADD47R,0.120000X0.040000*%
%ADD48R,0.180000X0.030000*%
%ADD49R,0.120000X0.030000*%
%ADD50R,0.550000X0.040000*%
%ADD51R,0.670000X0.040000*%
%ADD52R,0.630000X0.040000*%
%ADD53R,0.750000X0.030000*%
%ADD54R,0.670000X0.030000*%
%ADD55R,0.820000X0.040000*%
%ADD56R,0.340000X0.040000*%
%ADD57R,0.330000X0.030000*%
%ADD58R,0.260000X0.030000*%
%ADD59R,0.290000X0.030000*%
%ADD60R,0.290000X0.040000*%
%ADD61R,0.340000X0.030000*%
%ADD62R,0.070000X0.030000*%
%ADD63R,0.080000X0.040000*%
%ADD64R,0.080000X0.030000*%
%ADD65R,1.230000X0.040000*%
%ADD66R,0.700000X0.030000*%
%ADD67R,1.330000X0.030000*%
%ADD68R,0.740000X0.040000*%
%ADD69R,0.520000X0.040000*%
%ADD70R,1.330000X0.040000*%
%ADD71R,0.710000X0.040000*%
%ADD72R,0.040000X0.040000*%
%ADD73R,1.340000X0.040000*%
%ADD74R,1.260000X0.030000*%
%ADD75R,0.450000X0.040000*%
%ADD76R,0.780000X0.040000*%
%ADD77R,0.410000X0.040000*%
%ADD78R,0.510000X0.040000*%
%ADD79R,0.890000X0.040000*%
%ADD80R,1.820000X0.040000*%
%ADD81R,0.400000X0.040000*%
%ADD82R,0.480000X0.030000*%
%ADD83R,1.740000X0.030000*%
%ADD84R,0.440000X0.030000*%
%ADD85R,1.740000X0.040000*%
%ADD86R,0.440000X0.040000*%
%ADD87R,0.590000X0.030000*%
%ADD88R,0.960000X0.030000*%
%ADD89R,0.520000X0.030000*%
%ADD90R,1.410000X0.030000*%
%ADD91R,0.560000X0.030000*%
%ADD92R,1.600000X0.040000*%
%ADD93R,0.490000X0.040000*%
%ADD94R,2.230000X0.040000*%
%ADD95R,1.070000X0.040000*%
%ADD96R,1.960000X0.040000*%
%ADD97R,0.590000X0.040000*%
%ADD98R,0.700000X0.040000*%
%ADD99R,1.850000X0.040000*%
%ADD100R,1.040000X0.030000*%
%ADD101R,1.290000X0.030000*%
%ADD102R,0.550000X0.030000*%
%ADD103R,1.260000X0.040000*%
%ADD104R,1.190000X0.040000*%
%ADD105R,0.040000X0.030000*%
%ADD106R,0.380000X0.040000*%
%ADD107R,11.220000X0.030000*%
%ADD108R,11.030000X0.040000*%
%ADD109R,3.220000X0.040000*%
%ADD110R,3.590000X0.040000*%
%ADD111R,4.960000X0.040000*%
%ADD112R,2.300000X0.040000*%
%ADD113R,3.810000X0.040000*%
%ADD114R,10.850000X0.040000*%
%ADD115R,2.110000X0.030000*%
%ADD116R,1.630000X0.030000*%
%ADD117C,0.406400*%


D10*
X335025Y153996D02*
X338581Y153996D01*
X338676Y153998D01*
X338772Y154004D01*
X338867Y154013D01*
X338961Y154027D01*
X339055Y154044D01*
X339148Y154065D01*
X339241Y154090D01*
X339332Y154118D01*
X339422Y154150D01*
X339510Y154186D01*
X339597Y154225D01*
X339683Y154268D01*
X339767Y154314D01*
X339848Y154363D01*
X339928Y154416D01*
X340005Y154472D01*
X340081Y154530D01*
X340153Y154592D01*
X340223Y154657D01*
X340291Y154725D01*
X340356Y154795D01*
X340418Y154867D01*
X340476Y154943D01*
X340532Y155020D01*
X340585Y155100D01*
X340634Y155182D01*
X340680Y155265D01*
X340723Y155351D01*
X340762Y155438D01*
X340798Y155526D01*
X340830Y155616D01*
X340858Y155707D01*
X340883Y155800D01*
X340904Y155893D01*
X340921Y155987D01*
X340935Y156081D01*
X340944Y156176D01*
X340950Y156272D01*
X340952Y156367D01*
X340951Y156367D02*
X340951Y157552D01*
X340952Y157552D02*
X340950Y157647D01*
X340944Y157743D01*
X340935Y157838D01*
X340921Y157932D01*
X340904Y158026D01*
X340883Y158119D01*
X340858Y158212D01*
X340830Y158303D01*
X340798Y158393D01*
X340762Y158481D01*
X340723Y158568D01*
X340680Y158654D01*
X340634Y158738D01*
X340585Y158819D01*
X340532Y158899D01*
X340476Y158976D01*
X340418Y159052D01*
X340356Y159124D01*
X340291Y159194D01*
X340223Y159262D01*
X340153Y159327D01*
X340081Y159389D01*
X340005Y159447D01*
X339928Y159503D01*
X339848Y159556D01*
X339767Y159605D01*
X339683Y159651D01*
X339597Y159694D01*
X339510Y159733D01*
X339422Y159769D01*
X339332Y159801D01*
X339241Y159829D01*
X339148Y159854D01*
X339055Y159875D01*
X338961Y159892D01*
X338867Y159906D01*
X338772Y159915D01*
X338676Y159921D01*
X338581Y159923D01*
X335025Y159923D01*
X335025Y164664D01*
X340951Y164664D01*
X345862Y164664D02*
X349418Y153996D01*
X352974Y164664D01*
X3141566Y315079D02*
X3143937Y312116D01*
X3141566Y315079D02*
X3152234Y315079D01*
X3152234Y312116D02*
X3152234Y318043D01*
X3152234Y323546D02*
X3152234Y326509D01*
X3152232Y326616D01*
X3152226Y326723D01*
X3152217Y326829D01*
X3152203Y326935D01*
X3152186Y327041D01*
X3152165Y327146D01*
X3152140Y327250D01*
X3152111Y327353D01*
X3152079Y327455D01*
X3152043Y327556D01*
X3152003Y327655D01*
X3151960Y327753D01*
X3151913Y327849D01*
X3151863Y327944D01*
X3151810Y328037D01*
X3151753Y328127D01*
X3151693Y328216D01*
X3151630Y328302D01*
X3151564Y328386D01*
X3151494Y328468D01*
X3151422Y328547D01*
X3151347Y328623D01*
X3151269Y328697D01*
X3151189Y328767D01*
X3151106Y328835D01*
X3151021Y328900D01*
X3150934Y328961D01*
X3150844Y329020D01*
X3150753Y329075D01*
X3150659Y329127D01*
X3150563Y329175D01*
X3150466Y329220D01*
X3150368Y329262D01*
X3150268Y329299D01*
X3150166Y329334D01*
X3150064Y329364D01*
X3149960Y329391D01*
X3149856Y329414D01*
X3149750Y329433D01*
X3149644Y329448D01*
X3149538Y329460D01*
X3149431Y329468D01*
X3149324Y329472D01*
X3149218Y329472D01*
X3149111Y329468D01*
X3149004Y329460D01*
X3148898Y329448D01*
X3148792Y329433D01*
X3148686Y329414D01*
X3148582Y329391D01*
X3148478Y329364D01*
X3148376Y329334D01*
X3148274Y329299D01*
X3148174Y329262D01*
X3148076Y329220D01*
X3147979Y329175D01*
X3147883Y329127D01*
X3147790Y329075D01*
X3147698Y329020D01*
X3147608Y328961D01*
X3147521Y328900D01*
X3147436Y328835D01*
X3147353Y328767D01*
X3147273Y328697D01*
X3147195Y328623D01*
X3147120Y328547D01*
X3147048Y328468D01*
X3146978Y328386D01*
X3146912Y328302D01*
X3146849Y328216D01*
X3146789Y328127D01*
X3146732Y328037D01*
X3146679Y327944D01*
X3146629Y327849D01*
X3146582Y327753D01*
X3146539Y327655D01*
X3146499Y327556D01*
X3146463Y327455D01*
X3146431Y327353D01*
X3146402Y327250D01*
X3146377Y327146D01*
X3146356Y327041D01*
X3146339Y326935D01*
X3146325Y326829D01*
X3146316Y326723D01*
X3146310Y326616D01*
X3146308Y326509D01*
X3141566Y327102D02*
X3141566Y323546D01*
X3141566Y327102D02*
X3141568Y327199D01*
X3141574Y327295D01*
X3141584Y327391D01*
X3141598Y327487D01*
X3141615Y327582D01*
X3141637Y327677D01*
X3141662Y327770D01*
X3141691Y327862D01*
X3141724Y327953D01*
X3141761Y328043D01*
X3141801Y328131D01*
X3141845Y328217D01*
X3141892Y328301D01*
X3141942Y328384D01*
X3141996Y328464D01*
X3142054Y328542D01*
X3142114Y328618D01*
X3142177Y328691D01*
X3142243Y328761D01*
X3142313Y328829D01*
X3142384Y328894D01*
X3142459Y328956D01*
X3142536Y329014D01*
X3142615Y329070D01*
X3142696Y329122D01*
X3142780Y329171D01*
X3142865Y329217D01*
X3142952Y329259D01*
X3143041Y329297D01*
X3143131Y329332D01*
X3143223Y329363D01*
X3143316Y329390D01*
X3143409Y329414D01*
X3143504Y329433D01*
X3143600Y329449D01*
X3143696Y329461D01*
X3143792Y329469D01*
X3143889Y329473D01*
X3143985Y329473D01*
X3144082Y329469D01*
X3144178Y329461D01*
X3144274Y329449D01*
X3144370Y329433D01*
X3144465Y329414D01*
X3144558Y329390D01*
X3144651Y329363D01*
X3144743Y329332D01*
X3144833Y329297D01*
X3144922Y329259D01*
X3145009Y329217D01*
X3145094Y329171D01*
X3145178Y329122D01*
X3145259Y329070D01*
X3145338Y329014D01*
X3145415Y328956D01*
X3145490Y328894D01*
X3145561Y328829D01*
X3145631Y328761D01*
X3145697Y328691D01*
X3145760Y328618D01*
X3145820Y328542D01*
X3145878Y328464D01*
X3145932Y328384D01*
X3145982Y328301D01*
X3146029Y328217D01*
X3146073Y328131D01*
X3146113Y328043D01*
X3146150Y327953D01*
X3146183Y327862D01*
X3146212Y327770D01*
X3146237Y327677D01*
X3146259Y327582D01*
X3146276Y327487D01*
X3146290Y327391D01*
X3146300Y327295D01*
X3146306Y327199D01*
X3146308Y327102D01*
X3146307Y327102D02*
X3146307Y324731D01*
X3141566Y335467D02*
X3152234Y335467D01*
X3141566Y335467D02*
X3141566Y338431D01*
X3141568Y338538D01*
X3141574Y338645D01*
X3141583Y338751D01*
X3141597Y338857D01*
X3141614Y338963D01*
X3141635Y339068D01*
X3141660Y339172D01*
X3141689Y339275D01*
X3141721Y339377D01*
X3141757Y339478D01*
X3141797Y339577D01*
X3141840Y339675D01*
X3141887Y339771D01*
X3141937Y339866D01*
X3141990Y339959D01*
X3142047Y340049D01*
X3142107Y340138D01*
X3142170Y340224D01*
X3142236Y340308D01*
X3142306Y340390D01*
X3142378Y340469D01*
X3142453Y340545D01*
X3142531Y340619D01*
X3142611Y340689D01*
X3142694Y340757D01*
X3142779Y340822D01*
X3142866Y340883D01*
X3142956Y340942D01*
X3143048Y340997D01*
X3143141Y341049D01*
X3143237Y341097D01*
X3143334Y341142D01*
X3143432Y341184D01*
X3143532Y341221D01*
X3143634Y341256D01*
X3143736Y341286D01*
X3143840Y341313D01*
X3143944Y341336D01*
X3144050Y341355D01*
X3144156Y341370D01*
X3144262Y341382D01*
X3144369Y341390D01*
X3144476Y341394D01*
X3144582Y341394D01*
X3144689Y341390D01*
X3144796Y341382D01*
X3144902Y341370D01*
X3145008Y341355D01*
X3145114Y341336D01*
X3145218Y341313D01*
X3145322Y341286D01*
X3145424Y341256D01*
X3145526Y341221D01*
X3145626Y341184D01*
X3145724Y341142D01*
X3145821Y341097D01*
X3145917Y341049D01*
X3146011Y340997D01*
X3146102Y340942D01*
X3146192Y340883D01*
X3146279Y340822D01*
X3146364Y340757D01*
X3146447Y340689D01*
X3146527Y340619D01*
X3146605Y340545D01*
X3146680Y340469D01*
X3146752Y340390D01*
X3146822Y340308D01*
X3146888Y340224D01*
X3146951Y340138D01*
X3147011Y340049D01*
X3147068Y339959D01*
X3147121Y339866D01*
X3147171Y339771D01*
X3147218Y339675D01*
X3147261Y339577D01*
X3147301Y339478D01*
X3147337Y339377D01*
X3147369Y339275D01*
X3147398Y339172D01*
X3147423Y339068D01*
X3147444Y338963D01*
X3147461Y338857D01*
X3147475Y338751D01*
X3147484Y338645D01*
X3147490Y338538D01*
X3147492Y338431D01*
X3147493Y338431D02*
X3147493Y335467D01*
X3147493Y339023D02*
X3152234Y341394D01*
D11*
X334709Y133218D02*
X334709Y124582D01*
X334709Y133218D02*
X337108Y133218D01*
X337205Y133216D01*
X337301Y133210D01*
X337397Y133201D01*
X337493Y133187D01*
X337588Y133170D01*
X337682Y133148D01*
X337775Y133123D01*
X337868Y133095D01*
X337959Y133062D01*
X338048Y133026D01*
X338136Y132986D01*
X338223Y132943D01*
X338308Y132897D01*
X338390Y132847D01*
X338471Y132793D01*
X338549Y132737D01*
X338625Y132677D01*
X338699Y132615D01*
X338770Y132549D01*
X338838Y132481D01*
X338904Y132410D01*
X338966Y132336D01*
X339026Y132260D01*
X339082Y132182D01*
X339136Y132101D01*
X339186Y132018D01*
X339232Y131934D01*
X339275Y131847D01*
X339315Y131759D01*
X339351Y131670D01*
X339384Y131579D01*
X339412Y131486D01*
X339437Y131393D01*
X339459Y131299D01*
X339476Y131204D01*
X339490Y131108D01*
X339499Y131012D01*
X339505Y130916D01*
X339507Y130819D01*
X339505Y130722D01*
X339499Y130626D01*
X339490Y130530D01*
X339476Y130434D01*
X339459Y130339D01*
X339437Y130245D01*
X339412Y130152D01*
X339384Y130059D01*
X339351Y129968D01*
X339315Y129879D01*
X339275Y129791D01*
X339232Y129704D01*
X339186Y129619D01*
X339136Y129537D01*
X339082Y129456D01*
X339026Y129378D01*
X338966Y129302D01*
X338904Y129228D01*
X338838Y129157D01*
X338770Y129089D01*
X338699Y129023D01*
X338625Y128961D01*
X338549Y128901D01*
X338471Y128845D01*
X338390Y128791D01*
X338308Y128741D01*
X338223Y128695D01*
X338136Y128652D01*
X338048Y128612D01*
X337959Y128576D01*
X337868Y128543D01*
X337775Y128515D01*
X337682Y128490D01*
X337588Y128468D01*
X337493Y128451D01*
X337397Y128437D01*
X337301Y128428D01*
X337205Y128422D01*
X337108Y128420D01*
X334709Y128420D01*
X337588Y128420D02*
X339507Y124582D01*
X346342Y124582D02*
X346428Y124584D01*
X346514Y124590D01*
X346600Y124599D01*
X346685Y124613D01*
X346769Y124630D01*
X346853Y124651D01*
X346935Y124676D01*
X347016Y124704D01*
X347096Y124736D01*
X347175Y124772D01*
X347251Y124811D01*
X347326Y124854D01*
X347399Y124899D01*
X347470Y124949D01*
X347538Y125001D01*
X347605Y125056D01*
X347668Y125114D01*
X347729Y125175D01*
X347787Y125238D01*
X347842Y125305D01*
X347895Y125373D01*
X347944Y125444D01*
X347989Y125517D01*
X348032Y125592D01*
X348071Y125668D01*
X348107Y125747D01*
X348139Y125827D01*
X348167Y125908D01*
X348192Y125990D01*
X348213Y126074D01*
X348230Y126158D01*
X348244Y126243D01*
X348253Y126329D01*
X348259Y126415D01*
X348261Y126501D01*
X346342Y124582D02*
X346219Y124584D01*
X346096Y124589D01*
X345973Y124599D01*
X345851Y124612D01*
X345729Y124629D01*
X345607Y124649D01*
X345487Y124673D01*
X345367Y124701D01*
X345248Y124732D01*
X345130Y124767D01*
X345013Y124806D01*
X344897Y124848D01*
X344783Y124894D01*
X344670Y124943D01*
X344559Y124995D01*
X344449Y125051D01*
X344341Y125110D01*
X344235Y125173D01*
X344130Y125238D01*
X344028Y125307D01*
X343928Y125379D01*
X343831Y125454D01*
X343735Y125531D01*
X343642Y125612D01*
X343551Y125695D01*
X343463Y125781D01*
X343704Y131299D02*
X343706Y131385D01*
X343712Y131471D01*
X343721Y131557D01*
X343735Y131642D01*
X343752Y131726D01*
X343773Y131810D01*
X343798Y131892D01*
X343826Y131973D01*
X343858Y132053D01*
X343894Y132132D01*
X343933Y132208D01*
X343976Y132283D01*
X344021Y132356D01*
X344070Y132427D01*
X344123Y132495D01*
X344178Y132562D01*
X344236Y132625D01*
X344297Y132686D01*
X344360Y132744D01*
X344427Y132799D01*
X344495Y132852D01*
X344566Y132901D01*
X344639Y132946D01*
X344714Y132989D01*
X344790Y133028D01*
X344869Y133064D01*
X344949Y133096D01*
X345030Y133124D01*
X345112Y133149D01*
X345196Y133170D01*
X345280Y133187D01*
X345365Y133201D01*
X345451Y133210D01*
X345537Y133216D01*
X345623Y133218D01*
X345739Y133216D01*
X345854Y133211D01*
X345970Y133201D01*
X346085Y133188D01*
X346199Y133172D01*
X346313Y133151D01*
X346427Y133127D01*
X346539Y133099D01*
X346650Y133068D01*
X346761Y133033D01*
X346870Y132995D01*
X346978Y132953D01*
X347084Y132908D01*
X347190Y132859D01*
X347293Y132807D01*
X347395Y132752D01*
X347494Y132693D01*
X347592Y132631D01*
X347688Y132566D01*
X347782Y132498D01*
X344663Y129620D02*
X344589Y129666D01*
X344516Y129716D01*
X344446Y129769D01*
X344378Y129825D01*
X344313Y129884D01*
X344250Y129946D01*
X344191Y130011D01*
X344134Y130078D01*
X344080Y130148D01*
X344030Y130220D01*
X343983Y130294D01*
X343939Y130370D01*
X343899Y130449D01*
X343863Y130529D01*
X343830Y130610D01*
X343801Y130693D01*
X343775Y130778D01*
X343753Y130863D01*
X343736Y130949D01*
X343722Y131036D01*
X343712Y131123D01*
X343706Y131211D01*
X343704Y131299D01*
X347302Y128180D02*
X347376Y128134D01*
X347449Y128084D01*
X347519Y128031D01*
X347587Y127975D01*
X347652Y127916D01*
X347715Y127854D01*
X347774Y127789D01*
X347831Y127722D01*
X347885Y127652D01*
X347935Y127580D01*
X347982Y127506D01*
X348026Y127430D01*
X348066Y127351D01*
X348102Y127271D01*
X348135Y127190D01*
X348164Y127107D01*
X348190Y127022D01*
X348212Y126937D01*
X348229Y126851D01*
X348243Y126764D01*
X348253Y126677D01*
X348259Y126589D01*
X348261Y126501D01*
X347302Y128180D02*
X344663Y129620D01*
X354092Y133218D02*
X354092Y124582D01*
X351693Y133218D02*
X356491Y133218D01*
D12*
X308135Y94610D03*
D10*
X305976Y90673D02*
X305976Y76957D01*
X283624Y76957D02*
X283624Y91943D01*
X304579Y76957D02*
X305976Y76957D01*
X285021Y76957D02*
X283624Y76957D01*
X304579Y91943D02*
X305976Y90673D01*
X285021Y91943D02*
X283624Y91943D01*
D13*
X337550Y103500D02*
X337552Y103698D01*
X337560Y103895D01*
X337572Y104092D01*
X337589Y104289D01*
X337611Y104485D01*
X337637Y104681D01*
X337669Y104876D01*
X337705Y105070D01*
X337746Y105264D01*
X337791Y105456D01*
X337842Y105647D01*
X337897Y105837D01*
X337956Y106025D01*
X338021Y106212D01*
X338089Y106397D01*
X338163Y106581D01*
X338241Y106762D01*
X338323Y106942D01*
X338410Y107119D01*
X338501Y107295D01*
X338596Y107468D01*
X338695Y107639D01*
X338799Y107807D01*
X338907Y107972D01*
X339018Y108135D01*
X339134Y108295D01*
X339254Y108453D01*
X339377Y108607D01*
X339504Y108758D01*
X339635Y108906D01*
X339770Y109051D01*
X339908Y109192D01*
X340049Y109330D01*
X340194Y109465D01*
X340342Y109596D01*
X340493Y109723D01*
X340647Y109846D01*
X340805Y109966D01*
X340965Y110082D01*
X341128Y110193D01*
X341293Y110301D01*
X341461Y110405D01*
X341632Y110504D01*
X341805Y110599D01*
X341981Y110690D01*
X342158Y110777D01*
X342338Y110859D01*
X342519Y110937D01*
X342703Y111011D01*
X342888Y111079D01*
X343075Y111144D01*
X343263Y111203D01*
X343453Y111258D01*
X343644Y111309D01*
X343836Y111354D01*
X344030Y111395D01*
X344224Y111431D01*
X344419Y111463D01*
X344615Y111489D01*
X344811Y111511D01*
X345008Y111528D01*
X345205Y111540D01*
X345402Y111548D01*
X345600Y111550D01*
X345798Y111548D01*
X345995Y111540D01*
X346192Y111528D01*
X346389Y111511D01*
X346585Y111489D01*
X346781Y111463D01*
X346976Y111431D01*
X347170Y111395D01*
X347364Y111354D01*
X347556Y111309D01*
X347747Y111258D01*
X347937Y111203D01*
X348125Y111144D01*
X348312Y111079D01*
X348497Y111011D01*
X348681Y110937D01*
X348862Y110859D01*
X349042Y110777D01*
X349219Y110690D01*
X349395Y110599D01*
X349568Y110504D01*
X349739Y110405D01*
X349907Y110301D01*
X350072Y110193D01*
X350235Y110082D01*
X350395Y109966D01*
X350553Y109846D01*
X350707Y109723D01*
X350858Y109596D01*
X351006Y109465D01*
X351151Y109330D01*
X351292Y109192D01*
X351430Y109051D01*
X351565Y108906D01*
X351696Y108758D01*
X351823Y108607D01*
X351946Y108453D01*
X352066Y108295D01*
X352182Y108135D01*
X352293Y107972D01*
X352401Y107807D01*
X352505Y107639D01*
X352604Y107468D01*
X352699Y107295D01*
X352790Y107119D01*
X352877Y106942D01*
X352959Y106762D01*
X353037Y106581D01*
X353111Y106397D01*
X353179Y106212D01*
X353244Y106025D01*
X353303Y105837D01*
X353358Y105647D01*
X353409Y105456D01*
X353454Y105264D01*
X353495Y105070D01*
X353531Y104876D01*
X353563Y104681D01*
X353589Y104485D01*
X353611Y104289D01*
X353628Y104092D01*
X353640Y103895D01*
X353648Y103698D01*
X353650Y103500D01*
X353648Y103302D01*
X353640Y103105D01*
X353628Y102908D01*
X353611Y102711D01*
X353589Y102515D01*
X353563Y102319D01*
X353531Y102124D01*
X353495Y101930D01*
X353454Y101736D01*
X353409Y101544D01*
X353358Y101353D01*
X353303Y101163D01*
X353244Y100975D01*
X353179Y100788D01*
X353111Y100603D01*
X353037Y100419D01*
X352959Y100238D01*
X352877Y100058D01*
X352790Y99881D01*
X352699Y99705D01*
X352604Y99532D01*
X352505Y99361D01*
X352401Y99193D01*
X352293Y99028D01*
X352182Y98865D01*
X352066Y98705D01*
X351946Y98547D01*
X351823Y98393D01*
X351696Y98242D01*
X351565Y98094D01*
X351430Y97949D01*
X351292Y97808D01*
X351151Y97670D01*
X351006Y97535D01*
X350858Y97404D01*
X350707Y97277D01*
X350553Y97154D01*
X350395Y97034D01*
X350235Y96918D01*
X350072Y96807D01*
X349907Y96699D01*
X349739Y96595D01*
X349568Y96496D01*
X349395Y96401D01*
X349219Y96310D01*
X349042Y96223D01*
X348862Y96141D01*
X348681Y96063D01*
X348497Y95989D01*
X348312Y95921D01*
X348125Y95856D01*
X347937Y95797D01*
X347747Y95742D01*
X347556Y95691D01*
X347364Y95646D01*
X347170Y95605D01*
X346976Y95569D01*
X346781Y95537D01*
X346585Y95511D01*
X346389Y95489D01*
X346192Y95472D01*
X345995Y95460D01*
X345798Y95452D01*
X345600Y95450D01*
X345402Y95452D01*
X345205Y95460D01*
X345008Y95472D01*
X344811Y95489D01*
X344615Y95511D01*
X344419Y95537D01*
X344224Y95569D01*
X344030Y95605D01*
X343836Y95646D01*
X343644Y95691D01*
X343453Y95742D01*
X343263Y95797D01*
X343075Y95856D01*
X342888Y95921D01*
X342703Y95989D01*
X342519Y96063D01*
X342338Y96141D01*
X342158Y96223D01*
X341981Y96310D01*
X341805Y96401D01*
X341632Y96496D01*
X341461Y96595D01*
X341293Y96699D01*
X341128Y96807D01*
X340965Y96918D01*
X340805Y97034D01*
X340647Y97154D01*
X340493Y97277D01*
X340342Y97404D01*
X340194Y97535D01*
X340049Y97670D01*
X339908Y97808D01*
X339770Y97949D01*
X339635Y98094D01*
X339504Y98242D01*
X339377Y98393D01*
X339254Y98547D01*
X339134Y98705D01*
X339018Y98865D01*
X338907Y99028D01*
X338799Y99193D01*
X338695Y99361D01*
X338596Y99532D01*
X338501Y99705D01*
X338410Y99881D01*
X338323Y100058D01*
X338241Y100238D01*
X338163Y100419D01*
X338089Y100603D01*
X338021Y100788D01*
X337956Y100975D01*
X337897Y101163D01*
X337842Y101353D01*
X337791Y101544D01*
X337746Y101736D01*
X337705Y101930D01*
X337669Y102124D01*
X337637Y102319D01*
X337611Y102515D01*
X337589Y102711D01*
X337572Y102908D01*
X337560Y103105D01*
X337552Y103302D01*
X337550Y103500D01*
D10*
X332220Y117500D02*
X358980Y117500D01*
X358980Y89500D02*
X332220Y89500D01*
X366600Y102200D02*
X366600Y104800D01*
X324600Y104800D02*
X324600Y102200D01*
D13*
X337550Y65400D02*
X337552Y65598D01*
X337560Y65795D01*
X337572Y65992D01*
X337589Y66189D01*
X337611Y66385D01*
X337637Y66581D01*
X337669Y66776D01*
X337705Y66970D01*
X337746Y67164D01*
X337791Y67356D01*
X337842Y67547D01*
X337897Y67737D01*
X337956Y67925D01*
X338021Y68112D01*
X338089Y68297D01*
X338163Y68481D01*
X338241Y68662D01*
X338323Y68842D01*
X338410Y69019D01*
X338501Y69195D01*
X338596Y69368D01*
X338695Y69539D01*
X338799Y69707D01*
X338907Y69872D01*
X339018Y70035D01*
X339134Y70195D01*
X339254Y70353D01*
X339377Y70507D01*
X339504Y70658D01*
X339635Y70806D01*
X339770Y70951D01*
X339908Y71092D01*
X340049Y71230D01*
X340194Y71365D01*
X340342Y71496D01*
X340493Y71623D01*
X340647Y71746D01*
X340805Y71866D01*
X340965Y71982D01*
X341128Y72093D01*
X341293Y72201D01*
X341461Y72305D01*
X341632Y72404D01*
X341805Y72499D01*
X341981Y72590D01*
X342158Y72677D01*
X342338Y72759D01*
X342519Y72837D01*
X342703Y72911D01*
X342888Y72979D01*
X343075Y73044D01*
X343263Y73103D01*
X343453Y73158D01*
X343644Y73209D01*
X343836Y73254D01*
X344030Y73295D01*
X344224Y73331D01*
X344419Y73363D01*
X344615Y73389D01*
X344811Y73411D01*
X345008Y73428D01*
X345205Y73440D01*
X345402Y73448D01*
X345600Y73450D01*
X345798Y73448D01*
X345995Y73440D01*
X346192Y73428D01*
X346389Y73411D01*
X346585Y73389D01*
X346781Y73363D01*
X346976Y73331D01*
X347170Y73295D01*
X347364Y73254D01*
X347556Y73209D01*
X347747Y73158D01*
X347937Y73103D01*
X348125Y73044D01*
X348312Y72979D01*
X348497Y72911D01*
X348681Y72837D01*
X348862Y72759D01*
X349042Y72677D01*
X349219Y72590D01*
X349395Y72499D01*
X349568Y72404D01*
X349739Y72305D01*
X349907Y72201D01*
X350072Y72093D01*
X350235Y71982D01*
X350395Y71866D01*
X350553Y71746D01*
X350707Y71623D01*
X350858Y71496D01*
X351006Y71365D01*
X351151Y71230D01*
X351292Y71092D01*
X351430Y70951D01*
X351565Y70806D01*
X351696Y70658D01*
X351823Y70507D01*
X351946Y70353D01*
X352066Y70195D01*
X352182Y70035D01*
X352293Y69872D01*
X352401Y69707D01*
X352505Y69539D01*
X352604Y69368D01*
X352699Y69195D01*
X352790Y69019D01*
X352877Y68842D01*
X352959Y68662D01*
X353037Y68481D01*
X353111Y68297D01*
X353179Y68112D01*
X353244Y67925D01*
X353303Y67737D01*
X353358Y67547D01*
X353409Y67356D01*
X353454Y67164D01*
X353495Y66970D01*
X353531Y66776D01*
X353563Y66581D01*
X353589Y66385D01*
X353611Y66189D01*
X353628Y65992D01*
X353640Y65795D01*
X353648Y65598D01*
X353650Y65400D01*
X353648Y65202D01*
X353640Y65005D01*
X353628Y64808D01*
X353611Y64611D01*
X353589Y64415D01*
X353563Y64219D01*
X353531Y64024D01*
X353495Y63830D01*
X353454Y63636D01*
X353409Y63444D01*
X353358Y63253D01*
X353303Y63063D01*
X353244Y62875D01*
X353179Y62688D01*
X353111Y62503D01*
X353037Y62319D01*
X352959Y62138D01*
X352877Y61958D01*
X352790Y61781D01*
X352699Y61605D01*
X352604Y61432D01*
X352505Y61261D01*
X352401Y61093D01*
X352293Y60928D01*
X352182Y60765D01*
X352066Y60605D01*
X351946Y60447D01*
X351823Y60293D01*
X351696Y60142D01*
X351565Y59994D01*
X351430Y59849D01*
X351292Y59708D01*
X351151Y59570D01*
X351006Y59435D01*
X350858Y59304D01*
X350707Y59177D01*
X350553Y59054D01*
X350395Y58934D01*
X350235Y58818D01*
X350072Y58707D01*
X349907Y58599D01*
X349739Y58495D01*
X349568Y58396D01*
X349395Y58301D01*
X349219Y58210D01*
X349042Y58123D01*
X348862Y58041D01*
X348681Y57963D01*
X348497Y57889D01*
X348312Y57821D01*
X348125Y57756D01*
X347937Y57697D01*
X347747Y57642D01*
X347556Y57591D01*
X347364Y57546D01*
X347170Y57505D01*
X346976Y57469D01*
X346781Y57437D01*
X346585Y57411D01*
X346389Y57389D01*
X346192Y57372D01*
X345995Y57360D01*
X345798Y57352D01*
X345600Y57350D01*
X345402Y57352D01*
X345205Y57360D01*
X345008Y57372D01*
X344811Y57389D01*
X344615Y57411D01*
X344419Y57437D01*
X344224Y57469D01*
X344030Y57505D01*
X343836Y57546D01*
X343644Y57591D01*
X343453Y57642D01*
X343263Y57697D01*
X343075Y57756D01*
X342888Y57821D01*
X342703Y57889D01*
X342519Y57963D01*
X342338Y58041D01*
X342158Y58123D01*
X341981Y58210D01*
X341805Y58301D01*
X341632Y58396D01*
X341461Y58495D01*
X341293Y58599D01*
X341128Y58707D01*
X340965Y58818D01*
X340805Y58934D01*
X340647Y59054D01*
X340493Y59177D01*
X340342Y59304D01*
X340194Y59435D01*
X340049Y59570D01*
X339908Y59708D01*
X339770Y59849D01*
X339635Y59994D01*
X339504Y60142D01*
X339377Y60293D01*
X339254Y60447D01*
X339134Y60605D01*
X339018Y60765D01*
X338907Y60928D01*
X338799Y61093D01*
X338695Y61261D01*
X338596Y61432D01*
X338501Y61605D01*
X338410Y61781D01*
X338323Y61958D01*
X338241Y62138D01*
X338163Y62319D01*
X338089Y62503D01*
X338021Y62688D01*
X337956Y62875D01*
X337897Y63063D01*
X337842Y63253D01*
X337791Y63444D01*
X337746Y63636D01*
X337705Y63830D01*
X337669Y64024D01*
X337637Y64219D01*
X337611Y64415D01*
X337589Y64611D01*
X337572Y64808D01*
X337560Y65005D01*
X337552Y65202D01*
X337550Y65400D01*
D10*
X332220Y51400D02*
X358980Y51400D01*
X358980Y79400D02*
X332220Y79400D01*
X324600Y66700D02*
X324600Y64100D01*
X366600Y64100D02*
X366600Y66700D01*
X381030Y205100D02*
X381030Y232870D01*
X391300Y232870D01*
X381030Y78100D02*
X381030Y50330D01*
X391300Y50330D01*
X568410Y232870D02*
X638570Y232870D01*
X638570Y50330D02*
X568410Y50330D01*
X638570Y50330D02*
X638570Y232870D01*
X60600Y222494D02*
X60600Y213906D01*
X86000Y213906D02*
X86000Y222494D01*
X75984Y211112D02*
X70616Y211112D01*
D14*
X89302Y228360D03*
D13*
X204544Y128500D02*
X204546Y128579D01*
X204552Y128657D01*
X204562Y128736D01*
X204576Y128813D01*
X204594Y128890D01*
X204615Y128966D01*
X204641Y129040D01*
X204670Y129114D01*
X204703Y129185D01*
X204740Y129255D01*
X204780Y129323D01*
X204823Y129389D01*
X204870Y129452D01*
X204919Y129514D01*
X204972Y129572D01*
X205028Y129628D01*
X205086Y129681D01*
X205148Y129730D01*
X205211Y129777D01*
X205277Y129820D01*
X205345Y129860D01*
X205415Y129897D01*
X205486Y129930D01*
X205560Y129959D01*
X205634Y129985D01*
X205710Y130006D01*
X205787Y130024D01*
X205864Y130038D01*
X205943Y130048D01*
X206021Y130054D01*
X206100Y130056D01*
X206179Y130054D01*
X206257Y130048D01*
X206336Y130038D01*
X206413Y130024D01*
X206490Y130006D01*
X206566Y129985D01*
X206640Y129959D01*
X206714Y129930D01*
X206785Y129897D01*
X206855Y129860D01*
X206923Y129820D01*
X206989Y129777D01*
X207052Y129730D01*
X207114Y129681D01*
X207172Y129628D01*
X207228Y129572D01*
X207281Y129514D01*
X207330Y129452D01*
X207377Y129389D01*
X207420Y129323D01*
X207460Y129255D01*
X207497Y129185D01*
X207530Y129114D01*
X207559Y129040D01*
X207585Y128966D01*
X207606Y128890D01*
X207624Y128813D01*
X207638Y128736D01*
X207648Y128657D01*
X207654Y128579D01*
X207656Y128500D01*
X207654Y128421D01*
X207648Y128343D01*
X207638Y128264D01*
X207624Y128187D01*
X207606Y128110D01*
X207585Y128034D01*
X207559Y127960D01*
X207530Y127886D01*
X207497Y127815D01*
X207460Y127745D01*
X207420Y127677D01*
X207377Y127611D01*
X207330Y127548D01*
X207281Y127486D01*
X207228Y127428D01*
X207172Y127372D01*
X207114Y127319D01*
X207052Y127270D01*
X206989Y127223D01*
X206923Y127180D01*
X206855Y127140D01*
X206785Y127103D01*
X206714Y127070D01*
X206640Y127041D01*
X206566Y127015D01*
X206490Y126994D01*
X206413Y126976D01*
X206336Y126962D01*
X206257Y126952D01*
X206179Y126946D01*
X206100Y126944D01*
X206021Y126946D01*
X205943Y126952D01*
X205864Y126962D01*
X205787Y126976D01*
X205710Y126994D01*
X205634Y127015D01*
X205560Y127041D01*
X205486Y127070D01*
X205415Y127103D01*
X205345Y127140D01*
X205277Y127180D01*
X205211Y127223D01*
X205148Y127270D01*
X205086Y127319D01*
X205028Y127372D01*
X204972Y127428D01*
X204919Y127486D01*
X204870Y127548D01*
X204823Y127611D01*
X204780Y127677D01*
X204740Y127745D01*
X204703Y127815D01*
X204670Y127886D01*
X204641Y127960D01*
X204615Y128034D01*
X204594Y128110D01*
X204576Y128187D01*
X204562Y128264D01*
X204552Y128343D01*
X204546Y128421D01*
X204544Y128500D01*
D11*
X3112000Y186800D02*
X3130000Y186800D01*
X3130000Y273200D02*
X3112000Y273200D01*
D15*
X3150000Y443000D02*
X3050000Y443000D01*
X3033000Y443000D02*
X3033000Y377000D01*
X3045000Y377000D01*
X3061000Y377000D02*
X3085000Y377000D01*
X3101000Y377000D02*
X3115000Y377000D01*
X3131000Y377000D02*
X3150000Y377000D01*
X127000Y195200D02*
X112000Y195200D01*
X112000Y186200D01*
X150000Y195200D02*
X161000Y195200D01*
X161000Y155200D01*
X150000Y155200D01*
X112000Y155200D02*
X112000Y164200D01*
X112000Y155200D02*
X127000Y155200D01*
D12*
X164100Y198600D03*
D10*
X315406Y160600D02*
X323994Y160600D01*
X323994Y186000D02*
X315406Y186000D01*
X326788Y175984D02*
X326788Y170616D01*
D14*
X309540Y189302D03*
D16*
X580550Y340900D03*
D17*
X580400Y340550D03*
D18*
X526300Y340200D03*
D19*
X628550Y340200D03*
D20*
X633900Y340200D03*
D21*
X524650Y339800D03*
D22*
X635950Y339800D03*
D23*
X523500Y339450D03*
D24*
X530900Y339450D03*
D25*
X630350Y339450D03*
D23*
X637200Y339450D03*
D26*
X522400Y339100D03*
D27*
X580200Y339100D03*
D28*
X638150Y339100D03*
D26*
X521700Y338700D03*
D29*
X580150Y338700D03*
D26*
X639100Y338700D03*
X520900Y338300D03*
D30*
X535200Y338300D03*
D31*
X611650Y338300D03*
D32*
X616300Y338300D03*
D33*
X628000Y338300D03*
D26*
X639800Y338300D03*
D34*
X520350Y337950D03*
D35*
X524650Y337950D03*
D36*
X635950Y337950D03*
D34*
X640350Y337950D03*
D37*
X519650Y337600D03*
D38*
X523500Y337600D03*
X637200Y337600D03*
D37*
X640750Y337600D03*
X519250Y337200D03*
D39*
X522600Y337200D03*
D26*
X638000Y337200D03*
D32*
X641500Y337200D03*
D40*
X518700Y336850D03*
D41*
X521850Y336850D03*
D24*
X638700Y336850D03*
D34*
X641850Y336850D03*
D42*
X518350Y336500D03*
D26*
X521300Y336500D03*
D43*
X639450Y336500D03*
D44*
X642400Y336500D03*
D19*
X517750Y336100D03*
D37*
X520750Y336100D03*
D39*
X640000Y336100D03*
D42*
X642750Y336100D03*
D25*
X517450Y335750D03*
D24*
X520200Y335750D03*
D45*
X640550Y335750D03*
D46*
X643150Y335750D03*
D19*
X517050Y335400D03*
D37*
X519650Y335400D03*
D32*
X641100Y335400D03*
D42*
X643550Y335400D03*
D37*
X516650Y335000D03*
X519250Y335000D03*
D32*
X641500Y335000D03*
D42*
X643850Y335000D03*
D47*
X516300Y334600D03*
D32*
X518900Y334600D03*
D37*
X641850Y334600D03*
D42*
X644250Y334600D03*
D46*
X516150Y334250D03*
X518350Y334250D03*
D48*
X642200Y334250D03*
D46*
X644650Y334250D03*
D42*
X515750Y333900D03*
X517950Y333900D03*
D32*
X642600Y333900D03*
D44*
X645000Y333900D03*
D42*
X515350Y333500D03*
D44*
X517600Y333500D03*
D37*
X642950Y333500D03*
D42*
X645350Y333500D03*
D25*
X515150Y333150D03*
D46*
X517250Y333150D03*
D34*
X643350Y333150D03*
D25*
X645550Y333150D03*
D19*
X514850Y332800D03*
D37*
X517050Y332800D03*
D32*
X643700Y332800D03*
D19*
X645950Y332800D03*
D42*
X514650Y332400D03*
X516850Y332400D03*
X643850Y332400D03*
X646150Y332400D03*
D25*
X514450Y332050D03*
D46*
X516450Y332050D03*
X644250Y332050D03*
D49*
X646300Y332050D03*
D19*
X514050Y331700D03*
D42*
X516150Y331700D03*
D21*
X543850Y331700D03*
X609450Y331700D03*
D19*
X644450Y331700D03*
X646650Y331700D03*
X514050Y331300D03*
D42*
X516150Y331300D03*
D50*
X543350Y331300D03*
X609250Y331300D03*
D42*
X644650Y331300D03*
D19*
X646650Y331300D03*
D47*
X513700Y330900D03*
D42*
X515750Y330900D03*
D51*
X543150Y330900D03*
D52*
X609250Y330900D03*
D44*
X645000Y330900D03*
D42*
X646850Y330900D03*
D49*
X513700Y330550D03*
D25*
X515550Y330550D03*
D53*
X543150Y330550D03*
D54*
X609050Y330550D03*
D40*
X645000Y330550D03*
D25*
X647050Y330550D03*
D19*
X513350Y330200D03*
D42*
X515350Y330200D03*
D55*
X542800Y330200D03*
D22*
X606650Y330200D03*
D38*
X611300Y330200D03*
D42*
X645350Y330200D03*
D19*
X647450Y330200D03*
X513350Y329800D03*
X515150Y329800D03*
D56*
X540000Y329800D03*
D39*
X545600Y329800D03*
D38*
X606100Y329800D03*
D39*
X611500Y329800D03*
D19*
X645550Y329800D03*
X647450Y329800D03*
D25*
X512950Y329450D03*
D40*
X515000Y329450D03*
D57*
X539250Y329450D03*
D58*
X545600Y329450D03*
D59*
X605750Y329450D03*
D58*
X611500Y329450D03*
D46*
X645750Y329450D03*
D25*
X647750Y329450D03*
D19*
X512950Y329100D03*
X514850Y329100D03*
D38*
X538700Y329100D03*
D39*
X545600Y329100D03*
D38*
X605400Y329100D03*
D39*
X611500Y329100D03*
D19*
X645950Y329100D03*
X647750Y329100D03*
D42*
X512750Y328700D03*
X514650Y328700D03*
D60*
X538350Y328700D03*
D39*
X545600Y328700D03*
X605200Y328700D03*
X611500Y328700D03*
D42*
X646150Y328700D03*
D19*
X647750Y328700D03*
X512550Y328300D03*
X514450Y328300D03*
D39*
X537800Y328300D03*
X545600Y328300D03*
D38*
X605000Y328300D03*
D39*
X611500Y328300D03*
D42*
X646150Y328300D03*
D19*
X648150Y328300D03*
D25*
X512550Y327950D03*
X514450Y327950D03*
D23*
X537200Y327950D03*
D58*
X545200Y327950D03*
D23*
X604600Y327950D03*
D58*
X611100Y327950D03*
D49*
X646300Y327950D03*
D25*
X648150Y327950D03*
D19*
X512550Y327600D03*
D42*
X514250Y327600D03*
D60*
X536850Y327600D03*
D39*
X545200Y327600D03*
D60*
X604250Y327600D03*
D39*
X611100Y327600D03*
D47*
X646300Y327600D03*
D19*
X648150Y327600D03*
X512250Y327200D03*
X514050Y327200D03*
D38*
X536500Y327200D03*
D26*
X545000Y327200D03*
D60*
X604250Y327200D03*
D38*
X610900Y327200D03*
D42*
X646450Y327200D03*
D19*
X648550Y327200D03*
D25*
X512250Y326850D03*
X514050Y326850D03*
D23*
X536100Y326850D03*
D58*
X544800Y326850D03*
D23*
X603900Y326850D03*
D58*
X610700Y326850D03*
D25*
X646650Y326850D03*
X648550Y326850D03*
D19*
X512250Y326500D03*
X514050Y326500D03*
D39*
X535900Y326500D03*
X544400Y326500D03*
D56*
X603700Y326500D03*
D39*
X610400Y326500D03*
D19*
X646650Y326500D03*
X648550Y326500D03*
X512250Y326100D03*
D47*
X513700Y326100D03*
D39*
X535600Y326100D03*
X544400Y326100D03*
D38*
X603500Y326100D03*
X610200Y326100D03*
D19*
X646650Y326100D03*
X648550Y326100D03*
D25*
X511850Y325750D03*
D49*
X513700Y325750D03*
D58*
X535200Y325750D03*
X544100Y325750D03*
D57*
X603350Y325750D03*
D23*
X609800Y325750D03*
D34*
X614450Y325750D03*
D46*
X646850Y325750D03*
D25*
X648850Y325750D03*
D19*
X511850Y325400D03*
D47*
X513700Y325400D03*
D38*
X535000Y325400D03*
D39*
X543700Y325400D03*
D60*
X603150Y325400D03*
D39*
X609600Y325400D03*
X614400Y325400D03*
D19*
X647050Y325400D03*
X648850Y325400D03*
X511850Y325000D03*
D47*
X513700Y325000D03*
D38*
X534600Y325000D03*
D39*
X543300Y325000D03*
D22*
X602950Y325000D03*
D60*
X609450Y325000D03*
X614250Y325000D03*
D19*
X647050Y325000D03*
X648850Y325000D03*
X511850Y324600D03*
D47*
X513700Y324600D03*
D60*
X534250Y324600D03*
X543150Y324600D03*
D38*
X602800Y324600D03*
X609100Y324600D03*
D22*
X614050Y324600D03*
D19*
X647050Y324600D03*
X648850Y324600D03*
D25*
X511850Y324250D03*
D49*
X513700Y324250D03*
D59*
X534250Y324250D03*
D58*
X543000Y324250D03*
D61*
X602600Y324250D03*
D23*
X608700Y324250D03*
D57*
X614050Y324250D03*
D25*
X647050Y324250D03*
X648850Y324250D03*
D19*
X511850Y323900D03*
D47*
X513700Y323900D03*
D38*
X533900Y323900D03*
D39*
X542600Y323900D03*
D32*
X566300Y323900D03*
D38*
X602400Y323900D03*
D60*
X608350Y323900D03*
D21*
X613850Y323900D03*
D42*
X619850Y323900D03*
D47*
X626300Y323900D03*
D19*
X647050Y323900D03*
X648850Y323900D03*
X511850Y323500D03*
D47*
X513700Y323500D03*
D38*
X533900Y323500D03*
D39*
X542200Y323500D03*
D26*
X566100Y323500D03*
D22*
X602250Y323500D03*
D60*
X607950Y323500D03*
D21*
X613850Y323500D03*
D26*
X620200Y323500D03*
X626500Y323500D03*
D19*
X647050Y323500D03*
X648850Y323500D03*
D62*
X511650Y323150D03*
D49*
X513700Y323150D03*
D23*
X533500Y323150D03*
D59*
X541650Y323150D03*
D23*
X566100Y323150D03*
D59*
X602050Y323150D03*
D23*
X607200Y323150D03*
X613900Y323150D03*
D58*
X620000Y323150D03*
X626300Y323150D03*
D46*
X647250Y323150D03*
D25*
X648850Y323150D03*
D31*
X511650Y322800D03*
D63*
X513500Y322800D03*
D38*
X533500Y322800D03*
D39*
X541500Y322800D03*
X565900Y322800D03*
D22*
X601850Y322800D03*
D39*
X607000Y322800D03*
X613700Y322800D03*
X620000Y322800D03*
X626300Y322800D03*
D42*
X647250Y322800D03*
D31*
X649050Y322800D03*
X511650Y322400D03*
D42*
X513550Y322400D03*
D60*
X533150Y322400D03*
D32*
X541100Y322400D03*
D60*
X565750Y322400D03*
D22*
X601850Y322400D03*
D43*
X606850Y322400D03*
D32*
X613700Y322400D03*
D39*
X619600Y322400D03*
X625900Y322400D03*
D42*
X647250Y322400D03*
D31*
X649050Y322400D03*
D62*
X511650Y322050D03*
D46*
X513550Y322050D03*
D59*
X533150Y322050D03*
D64*
X541300Y322050D03*
D59*
X565750Y322050D03*
D57*
X601450Y322050D03*
D59*
X619450Y322050D03*
D58*
X625900Y322050D03*
D25*
X647050Y322050D03*
D62*
X649050Y322050D03*
D19*
X511850Y321700D03*
D47*
X513700Y321700D03*
D22*
X532950Y321700D03*
D38*
X565400Y321700D03*
D22*
X601450Y321700D03*
D39*
X619300Y321700D03*
X625600Y321700D03*
D19*
X647050Y321700D03*
X648850Y321700D03*
X511850Y321300D03*
D47*
X513700Y321300D03*
D38*
X532800Y321300D03*
D31*
X557950Y321300D03*
D38*
X565400Y321300D03*
X601300Y321300D03*
X619100Y321300D03*
X625400Y321300D03*
D19*
X647050Y321300D03*
X648850Y321300D03*
X511850Y320900D03*
D47*
X513700Y320900D03*
D38*
X532800Y320900D03*
D42*
X557950Y320900D03*
D52*
X564850Y320900D03*
D63*
X579800Y320900D03*
D56*
X601100Y320900D03*
D65*
X621850Y320900D03*
D19*
X647050Y320900D03*
X648850Y320900D03*
D25*
X511850Y320550D03*
D49*
X513700Y320550D03*
D61*
X532600Y320550D03*
D45*
X545750Y320550D03*
D24*
X550900Y320550D03*
X557600Y320550D03*
D66*
X564800Y320550D03*
D48*
X571500Y320550D03*
X573700Y320550D03*
D24*
X579800Y320550D03*
D46*
X584250Y320550D03*
X589050Y320550D03*
D23*
X600900Y320550D03*
D48*
X612200Y320550D03*
D67*
X621650Y320550D03*
D25*
X647050Y320550D03*
X648850Y320550D03*
D19*
X511850Y320200D03*
D47*
X513700Y320200D03*
D38*
X532400Y320200D03*
D39*
X545900Y320200D03*
X550700Y320200D03*
D38*
X557600Y320200D03*
D68*
X564600Y320200D03*
D69*
X572400Y320200D03*
D38*
X579800Y320200D03*
D39*
X584100Y320200D03*
X588900Y320200D03*
D22*
X600750Y320200D03*
D26*
X612400Y320200D03*
D70*
X621650Y320200D03*
D19*
X647050Y320200D03*
D63*
X648700Y320200D03*
D19*
X511850Y319800D03*
D47*
X513700Y319800D03*
D38*
X532400Y319800D03*
D60*
X545750Y319800D03*
X550550Y319800D03*
D56*
X557400Y319800D03*
D71*
X564450Y319800D03*
D20*
X572400Y319800D03*
D22*
X579650Y319800D03*
D56*
X583700Y319800D03*
X588900Y319800D03*
D72*
X594800Y319800D03*
D60*
X600550Y319800D03*
D39*
X612200Y319800D03*
D73*
X621300Y319800D03*
D19*
X647050Y319800D03*
D63*
X648700Y319800D03*
D62*
X512050Y319450D03*
D49*
X513700Y319450D03*
D23*
X532400Y319450D03*
D57*
X545550Y319450D03*
D59*
X550550Y319450D03*
D35*
X557250Y319450D03*
D54*
X564250Y319450D03*
X572050Y319450D03*
D57*
X579650Y319450D03*
D35*
X583550Y319450D03*
D36*
X588550Y319450D03*
D25*
X594450Y319450D03*
D57*
X600350Y319450D03*
D59*
X612050Y319450D03*
D74*
X621300Y319450D03*
D64*
X630200Y319450D03*
D46*
X646850Y319450D03*
D25*
X648550Y319450D03*
D31*
X512050Y319100D03*
D63*
X513900Y319100D03*
D22*
X532250Y319100D03*
X545550Y319100D03*
D38*
X550200Y319100D03*
D75*
X556850Y319100D03*
D22*
X564050Y319100D03*
D56*
X570000Y319100D03*
X573700Y319100D03*
D76*
X581500Y319100D03*
D77*
X588150Y319100D03*
D42*
X594250Y319100D03*
D22*
X600350Y319100D03*
D60*
X612050Y319100D03*
X617950Y319100D03*
D22*
X624050Y319100D03*
D42*
X629850Y319100D03*
D19*
X646650Y319100D03*
X648550Y319100D03*
X512250Y318700D03*
X514050Y318700D03*
D22*
X532250Y318700D03*
D56*
X545200Y318700D03*
X550000Y318700D03*
D78*
X556850Y318700D03*
D56*
X563700Y318700D03*
D38*
X569800Y318700D03*
D56*
X573700Y318700D03*
D79*
X580950Y318700D03*
D75*
X587950Y318700D03*
D26*
X593900Y318700D03*
D38*
X600200Y318700D03*
D22*
X611450Y318700D03*
D38*
X617600Y318700D03*
D56*
X623700Y318700D03*
D37*
X629650Y318700D03*
D19*
X646650Y318700D03*
X648550Y318700D03*
X512250Y318300D03*
X514050Y318300D03*
D22*
X532250Y318300D03*
D77*
X544850Y318300D03*
D22*
X549650Y318300D03*
D39*
X555200Y318300D03*
D28*
X558150Y318300D03*
D77*
X563350Y318300D03*
D22*
X569250Y318300D03*
D80*
X581100Y318300D03*
D39*
X593700Y318300D03*
D56*
X600000Y318300D03*
D81*
X611100Y318300D03*
D56*
X617400Y318300D03*
D21*
X623550Y318300D03*
D39*
X629300Y318300D03*
D19*
X646650Y318300D03*
X648550Y318300D03*
D25*
X512250Y317950D03*
X514050Y317950D03*
D57*
X532250Y317950D03*
D36*
X544450Y317950D03*
D57*
X549650Y317950D03*
D23*
X554600Y317950D03*
D41*
X558150Y317950D03*
D82*
X563000Y317950D03*
D61*
X568900Y317950D03*
D83*
X581100Y317950D03*
D59*
X593150Y317950D03*
D23*
X599800Y317950D03*
D84*
X610900Y317950D03*
D36*
X617050Y317950D03*
D35*
X623150Y317950D03*
D58*
X628900Y317950D03*
D46*
X646450Y317950D03*
D62*
X648350Y317950D03*
D63*
X512400Y317600D03*
D42*
X514250Y317600D03*
D21*
X532450Y317600D03*
D18*
X544100Y317600D03*
D21*
X549050Y317600D03*
D38*
X553900Y317600D03*
D28*
X558150Y317600D03*
D18*
X562600Y317600D03*
D77*
X568550Y317600D03*
D85*
X581100Y317600D03*
D38*
X592800Y317600D03*
D22*
X599650Y317600D03*
D18*
X610400Y317600D03*
D86*
X616500Y317600D03*
X622800Y317600D03*
D60*
X628350Y317600D03*
D47*
X646300Y317600D03*
D19*
X648150Y317600D03*
X512550Y317200D03*
X514450Y317200D03*
D56*
X532600Y317200D03*
D69*
X543500Y317200D03*
D81*
X548900Y317200D03*
D38*
X553500Y317200D03*
D28*
X558150Y317200D03*
D18*
X562200Y317200D03*
D75*
X568350Y317200D03*
D85*
X581100Y317200D03*
D60*
X592050Y317200D03*
X599450Y317200D03*
D69*
X610200Y317200D03*
D18*
X616300Y317200D03*
X622600Y317200D03*
D38*
X627600Y317200D03*
D47*
X646300Y317200D03*
D19*
X648150Y317200D03*
D25*
X512550Y316850D03*
X514450Y316850D03*
D35*
X532750Y316850D03*
D87*
X543150Y316850D03*
D84*
X548700Y316850D03*
D57*
X552950Y316850D03*
D88*
X559800Y316850D03*
D89*
X568000Y316850D03*
D90*
X579050Y316850D03*
D59*
X587950Y316850D03*
D57*
X591450Y316850D03*
D35*
X599050Y316850D03*
D87*
X609450Y316850D03*
D91*
X615900Y316850D03*
D89*
X622000Y316850D03*
D58*
X627000Y316850D03*
D46*
X646150Y316850D03*
D25*
X648150Y316850D03*
D19*
X512950Y316500D03*
X514850Y316500D03*
D77*
X532950Y316500D03*
D52*
X542550Y316500D03*
D76*
X550000Y316500D03*
D92*
X562600Y316500D03*
D39*
X573000Y316500D03*
D86*
X578700Y316500D03*
D77*
X583350Y316500D03*
D52*
X589250Y316500D03*
D93*
X598150Y316500D03*
D94*
X616850Y316500D03*
D19*
X645950Y316500D03*
X647750Y316500D03*
X512950Y316100D03*
X514850Y316100D03*
D18*
X533700Y316100D03*
D81*
X540000Y316100D03*
D95*
X547750Y316100D03*
D96*
X564100Y316100D03*
D75*
X578350Y316100D03*
D21*
X583150Y316100D03*
D97*
X589050Y316100D03*
D98*
X598900Y316100D03*
D99*
X612050Y316100D03*
D50*
X624450Y316100D03*
D42*
X645750Y316100D03*
D19*
X647750Y316100D03*
D25*
X512950Y315750D03*
D40*
X515000Y315750D03*
D88*
X536500Y315750D03*
D100*
X547600Y315750D03*
D54*
X557250Y315750D03*
D91*
X564100Y315750D03*
D87*
X570550Y315750D03*
D35*
X577950Y315750D03*
D57*
X582950Y315750D03*
D89*
X588700Y315750D03*
D101*
X601850Y315750D03*
D102*
X611850Y315750D03*
D91*
X617800Y315750D03*
D89*
X624300Y315750D03*
D25*
X645550Y315750D03*
D64*
X647600Y315750D03*
D19*
X513350Y315400D03*
X515150Y315400D03*
D79*
X536150Y315400D03*
D18*
X544800Y315400D03*
D86*
X549800Y315400D03*
D97*
X556850Y315400D03*
D18*
X563700Y315400D03*
D50*
X570350Y315400D03*
D22*
X577750Y315400D03*
D38*
X582800Y315400D03*
D75*
X588350Y315400D03*
D103*
X601300Y315400D03*
D18*
X611500Y315400D03*
D86*
X617600Y315400D03*
X623900Y315400D03*
D19*
X645550Y315400D03*
X647450Y315400D03*
X513350Y315000D03*
D42*
X515350Y315000D03*
D76*
X535900Y315000D03*
D77*
X544450Y315000D03*
D22*
X549250Y315000D03*
D18*
X556700Y315000D03*
D77*
X563350Y315000D03*
D18*
X570400Y315000D03*
D38*
X577600Y315000D03*
D26*
X582400Y315000D03*
D21*
X587950Y315000D03*
D104*
X600950Y315000D03*
D81*
X611100Y315000D03*
D21*
X617250Y315000D03*
X623550Y315000D03*
D42*
X645350Y315000D03*
D19*
X647450Y315000D03*
D47*
X513700Y314600D03*
D19*
X515550Y314600D03*
D97*
X535750Y314600D03*
D60*
X544250Y314600D03*
D39*
X548900Y314600D03*
D21*
X556450Y314600D03*
D60*
X563150Y314600D03*
D21*
X570150Y314600D03*
D26*
X577600Y314600D03*
D32*
X582200Y314600D03*
D38*
X587600Y314600D03*
D21*
X596850Y314600D03*
D51*
X602750Y314600D03*
D39*
X610700Y314600D03*
X616700Y314600D03*
X623000Y314600D03*
D44*
X645000Y314600D03*
D19*
X647050Y314600D03*
D49*
X513700Y314250D03*
D46*
X515750Y314250D03*
D35*
X535750Y314250D03*
D46*
X543850Y314250D03*
D24*
X556100Y314250D03*
D62*
X562750Y314250D03*
D48*
X570000Y314250D03*
D25*
X577450Y314250D03*
D105*
X587400Y314250D03*
D59*
X596850Y314250D03*
D82*
X603000Y314250D03*
D40*
X645000Y314250D03*
D25*
X647050Y314250D03*
D19*
X514050Y313900D03*
D42*
X516150Y313900D03*
D19*
X596650Y313900D03*
D26*
X602800Y313900D03*
D42*
X644650Y313900D03*
D19*
X646650Y313900D03*
X514050Y313500D03*
D47*
X516300Y313500D03*
D42*
X644250Y313500D03*
D63*
X646500Y313500D03*
D25*
X514450Y313150D03*
D46*
X516450Y313150D03*
X644250Y313150D03*
D49*
X646300Y313150D03*
D19*
X514850Y312800D03*
D42*
X516850Y312800D03*
X643850Y312800D03*
D19*
X645950Y312800D03*
D44*
X515000Y312400D03*
D42*
X517250Y312400D03*
X643550Y312400D03*
X645750Y312400D03*
D25*
X515150Y312050D03*
D40*
X517600Y312050D03*
D46*
X643150Y312050D03*
D25*
X645550Y312050D03*
D19*
X515550Y311700D03*
D32*
X517800Y311700D03*
D37*
X642950Y311700D03*
D44*
X645000Y311700D03*
D42*
X515750Y311300D03*
D37*
X518150Y311300D03*
D32*
X642600Y311300D03*
D19*
X644850Y311300D03*
D42*
X516150Y310900D03*
D32*
X518500Y310900D03*
X642200Y310900D03*
D42*
X644650Y310900D03*
D46*
X516450Y310550D03*
D48*
X518900Y310550D03*
D34*
X641850Y310550D03*
D46*
X644250Y310550D03*
D19*
X516650Y310200D03*
D37*
X519250Y310200D03*
D32*
X641500Y310200D03*
D42*
X643850Y310200D03*
X517250Y309800D03*
D37*
X519650Y309800D03*
D26*
X640900Y309800D03*
D42*
X643550Y309800D03*
D40*
X517600Y309450D03*
D24*
X520200Y309450D03*
D34*
X640350Y309450D03*
D46*
X643150Y309450D03*
D42*
X517950Y309100D03*
D26*
X520900Y309100D03*
X639800Y309100D03*
D42*
X642750Y309100D03*
X518350Y308700D03*
D39*
X521500Y308700D03*
X639300Y308700D03*
D32*
X642200Y308700D03*
X518900Y308300D03*
D39*
X522200Y308300D03*
D38*
X638700Y308300D03*
D37*
X641850Y308300D03*
D46*
X519450Y307950D03*
D23*
X522800Y307950D03*
D59*
X637950Y307950D03*
D40*
X641300Y307950D03*
D32*
X520000Y307600D03*
D38*
X523900Y307600D03*
D60*
X636850Y307600D03*
D37*
X640750Y307600D03*
X520350Y307200D03*
D106*
X525000Y307200D03*
D77*
X635550Y307200D03*
D26*
X640200Y307200D03*
D24*
X521300Y306850D03*
D107*
X580400Y306850D03*
D45*
X639450Y306850D03*
D26*
X522000Y306500D03*
D108*
X580550Y306500D03*
D26*
X638700Y306500D03*
X522800Y306100D03*
D109*
X543000Y306100D03*
D93*
X564450Y306100D03*
D22*
X569650Y306100D03*
D19*
X572250Y306100D03*
D72*
X573300Y306100D03*
D77*
X578150Y306100D03*
D31*
X589450Y306100D03*
D63*
X592400Y306100D03*
D47*
X593700Y306100D03*
D37*
X595950Y306100D03*
D110*
X615950Y306100D03*
D39*
X637800Y306100D03*
D23*
X523900Y305750D03*
D59*
X636850Y305750D03*
D77*
X525150Y305400D03*
D75*
X635350Y305400D03*
D111*
X549100Y305000D03*
D112*
X586100Y305000D03*
D113*
X617050Y305000D03*
D114*
X580350Y304600D03*
D115*
X538550Y304250D03*
D105*
X612200Y304250D03*
D48*
X615200Y304250D03*
D116*
X624650Y304250D03*
D10*
X277392Y1748838D02*
X277392Y1751378D01*
X277392Y1748838D02*
X276884Y1748838D01*
X276884Y1748889D01*
X227379Y1748889D01*
X227379Y1751200D01*
X277595Y1798190D02*
X277595Y1800908D01*
X277087Y1800908D01*
X277087Y1800933D01*
X227405Y1800933D01*
X227405Y1798673D01*
X277900Y1783890D02*
X277900Y1766872D01*
X227100Y1766364D02*
X227100Y1775000D01*
X227100Y1783636D01*
X227100Y1775000D02*
X252500Y1800400D01*
D117*
X223925Y1803575D03*
D10*
X427392Y1751378D02*
X427392Y1748838D01*
X426884Y1748838D01*
X426884Y1748889D01*
X377379Y1748889D01*
X377379Y1751200D01*
X427595Y1798190D02*
X427595Y1800908D01*
X427087Y1800908D01*
X427087Y1800933D01*
X377405Y1800933D01*
X377405Y1798673D01*
X427900Y1783890D02*
X427900Y1766872D01*
X377100Y1766364D02*
X377100Y1775000D01*
X377100Y1783636D01*
X377100Y1775000D02*
X402500Y1800400D01*
D117*
X373925Y1803575D03*
D10*
X577392Y1751378D02*
X577392Y1748838D01*
X576884Y1748838D01*
X576884Y1748889D01*
X527379Y1748889D01*
X527379Y1751200D01*
X577595Y1798190D02*
X577595Y1800908D01*
X577087Y1800908D01*
X577087Y1800933D01*
X527405Y1800933D01*
X527405Y1798673D01*
X577900Y1783890D02*
X577900Y1766872D01*
X527100Y1766364D02*
X527100Y1775000D01*
X527100Y1783636D01*
X527100Y1775000D02*
X552500Y1800400D01*
D117*
X523925Y1803575D03*
D10*
X727392Y1751378D02*
X727392Y1748838D01*
X726884Y1748838D01*
X726884Y1748889D01*
X677379Y1748889D01*
X677379Y1751200D01*
X727595Y1798190D02*
X727595Y1800908D01*
X727087Y1800908D01*
X727087Y1800933D01*
X677405Y1800933D01*
X677405Y1798673D01*
X727900Y1783890D02*
X727900Y1766872D01*
X677100Y1766364D02*
X677100Y1775000D01*
X677100Y1783636D01*
X677100Y1775000D02*
X702500Y1800400D01*
D117*
X673925Y1803575D03*
D10*
X877392Y1751378D02*
X877392Y1748838D01*
X876884Y1748838D01*
X876884Y1748889D01*
X827379Y1748889D01*
X827379Y1751200D01*
X877595Y1798190D02*
X877595Y1800908D01*
X877087Y1800908D01*
X877087Y1800933D01*
X827405Y1800933D01*
X827405Y1798673D01*
X877900Y1783890D02*
X877900Y1766872D01*
X827100Y1766364D02*
X827100Y1775000D01*
X827100Y1783636D01*
X827100Y1775000D02*
X852500Y1800400D01*
D117*
X823925Y1803575D03*
D10*
X1027392Y1751378D02*
X1027392Y1748838D01*
X1026884Y1748838D01*
X1026884Y1748889D01*
X977379Y1748889D01*
X977379Y1751200D01*
X1027595Y1798190D02*
X1027595Y1800908D01*
X1027087Y1800908D01*
X1027087Y1800933D01*
X977405Y1800933D01*
X977405Y1798673D01*
X1027900Y1783890D02*
X1027900Y1766872D01*
X977100Y1766364D02*
X977100Y1775000D01*
X977100Y1783636D01*
X977100Y1775000D02*
X1002500Y1800400D01*
D117*
X973925Y1803575D03*
D10*
X1177392Y1751378D02*
X1177392Y1748838D01*
X1176884Y1748838D01*
X1176884Y1748889D01*
X1127379Y1748889D01*
X1127379Y1751200D01*
X1177595Y1798190D02*
X1177595Y1800908D01*
X1177087Y1800908D01*
X1177087Y1800933D01*
X1127405Y1800933D01*
X1127405Y1798673D01*
X1177900Y1783890D02*
X1177900Y1766872D01*
X1127100Y1766364D02*
X1127100Y1775000D01*
X1127100Y1783636D01*
X1127100Y1775000D02*
X1152500Y1800400D01*
D117*
X1123925Y1803575D03*
D10*
X1327392Y1751378D02*
X1327392Y1748838D01*
X1326884Y1748838D01*
X1326884Y1748889D01*
X1277379Y1748889D01*
X1277379Y1751200D01*
X1327595Y1798190D02*
X1327595Y1800908D01*
X1327087Y1800908D01*
X1327087Y1800933D01*
X1277405Y1800933D01*
X1277405Y1798673D01*
X1327900Y1783890D02*
X1327900Y1766872D01*
X1277100Y1766364D02*
X1277100Y1775000D01*
X1277100Y1783636D01*
X1277100Y1775000D02*
X1302500Y1800400D01*
D117*
X1273925Y1803575D03*
D10*
X1927392Y1751378D02*
X1927392Y1748838D01*
X1926884Y1748838D01*
X1926884Y1748889D01*
X1877379Y1748889D01*
X1877379Y1751200D01*
X1927595Y1798190D02*
X1927595Y1800908D01*
X1927087Y1800908D01*
X1927087Y1800933D01*
X1877405Y1800933D01*
X1877405Y1798673D01*
X1927900Y1783890D02*
X1927900Y1766872D01*
X1877100Y1766364D02*
X1877100Y1775000D01*
X1877100Y1783636D01*
X1877100Y1775000D02*
X1902500Y1800400D01*
D117*
X1873925Y1803575D03*
D10*
X2077392Y1751378D02*
X2077392Y1748838D01*
X2076884Y1748838D01*
X2076884Y1748889D01*
X2027379Y1748889D01*
X2027379Y1751200D01*
X2077595Y1798190D02*
X2077595Y1800908D01*
X2077087Y1800908D01*
X2077087Y1800933D01*
X2027405Y1800933D01*
X2027405Y1798673D01*
X2077900Y1783890D02*
X2077900Y1766872D01*
X2027100Y1766364D02*
X2027100Y1775000D01*
X2027100Y1783636D01*
X2027100Y1775000D02*
X2052500Y1800400D01*
D117*
X2023925Y1803575D03*
D10*
X2227392Y1751378D02*
X2227392Y1748838D01*
X2226884Y1748838D01*
X2226884Y1748889D01*
X2177379Y1748889D01*
X2177379Y1751200D01*
X2227595Y1798190D02*
X2227595Y1800908D01*
X2227087Y1800908D01*
X2227087Y1800933D01*
X2177405Y1800933D01*
X2177405Y1798673D01*
X2227900Y1783890D02*
X2227900Y1766872D01*
X2177100Y1766364D02*
X2177100Y1775000D01*
X2177100Y1783636D01*
X2177100Y1775000D02*
X2202500Y1800400D01*
D117*
X2173925Y1803575D03*
D10*
X2377392Y1751378D02*
X2377392Y1748838D01*
X2376884Y1748838D01*
X2376884Y1748889D01*
X2327379Y1748889D01*
X2327379Y1751200D01*
X2377595Y1798190D02*
X2377595Y1800908D01*
X2377087Y1800908D01*
X2377087Y1800933D01*
X2327405Y1800933D01*
X2327405Y1798673D01*
X2377900Y1783890D02*
X2377900Y1766872D01*
X2327100Y1766364D02*
X2327100Y1775000D01*
X2327100Y1783636D01*
X2327100Y1775000D02*
X2352500Y1800400D01*
D117*
X2323925Y1803575D03*
D10*
X2527392Y1751378D02*
X2527392Y1748838D01*
X2526884Y1748838D01*
X2526884Y1748889D01*
X2477379Y1748889D01*
X2477379Y1751200D01*
X2527595Y1798190D02*
X2527595Y1800908D01*
X2527087Y1800908D01*
X2527087Y1800933D01*
X2477405Y1800933D01*
X2477405Y1798673D01*
X2527900Y1783890D02*
X2527900Y1766872D01*
X2477100Y1766364D02*
X2477100Y1775000D01*
X2477100Y1783636D01*
X2477100Y1775000D02*
X2502500Y1800400D01*
D117*
X2473925Y1803575D03*
D10*
X2677392Y1751378D02*
X2677392Y1748838D01*
X2676884Y1748838D01*
X2676884Y1748889D01*
X2627379Y1748889D01*
X2627379Y1751200D01*
X2677595Y1798190D02*
X2677595Y1800908D01*
X2677087Y1800908D01*
X2677087Y1800933D01*
X2627405Y1800933D01*
X2627405Y1798673D01*
X2677900Y1783890D02*
X2677900Y1766872D01*
X2627100Y1766364D02*
X2627100Y1775000D01*
X2627100Y1783636D01*
X2627100Y1775000D02*
X2652500Y1800400D01*
D117*
X2623925Y1803575D03*
D10*
X2827392Y1751378D02*
X2827392Y1748838D01*
X2826884Y1748838D01*
X2826884Y1748889D01*
X2777379Y1748889D01*
X2777379Y1751200D01*
X2827595Y1798190D02*
X2827595Y1800908D01*
X2827087Y1800908D01*
X2827087Y1800933D01*
X2777405Y1800933D01*
X2777405Y1798673D01*
X2827900Y1783890D02*
X2827900Y1766872D01*
X2777100Y1766364D02*
X2777100Y1775000D01*
X2777100Y1783636D01*
X2777100Y1775000D02*
X2802500Y1800400D01*
D117*
X2773925Y1803575D03*
D10*
X127392Y1601378D02*
X127392Y1598838D01*
X126884Y1598838D01*
X126884Y1598889D01*
X77379Y1598889D01*
X77379Y1601200D01*
X127595Y1648190D02*
X127595Y1650908D01*
X127087Y1650908D01*
X127087Y1650933D01*
X77405Y1650933D01*
X77405Y1648673D01*
X127900Y1633890D02*
X127900Y1616872D01*
X77100Y1616364D02*
X77100Y1625000D01*
X77100Y1633636D01*
X77100Y1625000D02*
X102500Y1650400D01*
D117*
X73925Y1653575D03*
D10*
X277392Y1601378D02*
X277392Y1598838D01*
X276884Y1598838D01*
X276884Y1598889D01*
X227379Y1598889D01*
X227379Y1601200D01*
X277595Y1648190D02*
X277595Y1650908D01*
X277087Y1650908D01*
X277087Y1650933D01*
X227405Y1650933D01*
X227405Y1648673D01*
X277900Y1633890D02*
X277900Y1616872D01*
X227100Y1616364D02*
X227100Y1625000D01*
X227100Y1633636D01*
X227100Y1625000D02*
X252500Y1650400D01*
D117*
X223925Y1653575D03*
D10*
X427392Y1601378D02*
X427392Y1598838D01*
X426884Y1598838D01*
X426884Y1598889D01*
X377379Y1598889D01*
X377379Y1601200D01*
X427595Y1648190D02*
X427595Y1650908D01*
X427087Y1650908D01*
X427087Y1650933D01*
X377405Y1650933D01*
X377405Y1648673D01*
X427900Y1633890D02*
X427900Y1616872D01*
X377100Y1616364D02*
X377100Y1625000D01*
X377100Y1633636D01*
X377100Y1625000D02*
X402500Y1650400D01*
D117*
X373925Y1653575D03*
D10*
X577392Y1601378D02*
X577392Y1598838D01*
X576884Y1598838D01*
X576884Y1598889D01*
X527379Y1598889D01*
X527379Y1601200D01*
X577595Y1648190D02*
X577595Y1650908D01*
X577087Y1650908D01*
X577087Y1650933D01*
X527405Y1650933D01*
X527405Y1648673D01*
X577900Y1633890D02*
X577900Y1616872D01*
X527100Y1616364D02*
X527100Y1625000D01*
X527100Y1633636D01*
X527100Y1625000D02*
X552500Y1650400D01*
D117*
X523925Y1653575D03*
D10*
X727392Y1601378D02*
X727392Y1598838D01*
X726884Y1598838D01*
X726884Y1598889D01*
X677379Y1598889D01*
X677379Y1601200D01*
X727595Y1648190D02*
X727595Y1650908D01*
X727087Y1650908D01*
X727087Y1650933D01*
X677405Y1650933D01*
X677405Y1648673D01*
X727900Y1633890D02*
X727900Y1616872D01*
X677100Y1616364D02*
X677100Y1625000D01*
X677100Y1633636D01*
X677100Y1625000D02*
X702500Y1650400D01*
D117*
X673925Y1653575D03*
D10*
X877392Y1601378D02*
X877392Y1598838D01*
X876884Y1598838D01*
X876884Y1598889D01*
X827379Y1598889D01*
X827379Y1601200D01*
X877595Y1648190D02*
X877595Y1650908D01*
X877087Y1650908D01*
X877087Y1650933D01*
X827405Y1650933D01*
X827405Y1648673D01*
X877900Y1633890D02*
X877900Y1616872D01*
X827100Y1616364D02*
X827100Y1625000D01*
X827100Y1633636D01*
X827100Y1625000D02*
X852500Y1650400D01*
D117*
X823925Y1653575D03*
D10*
X1027392Y1601378D02*
X1027392Y1598838D01*
X1026884Y1598838D01*
X1026884Y1598889D01*
X977379Y1598889D01*
X977379Y1601200D01*
X1027595Y1648190D02*
X1027595Y1650908D01*
X1027087Y1650908D01*
X1027087Y1650933D01*
X977405Y1650933D01*
X977405Y1648673D01*
X1027900Y1633890D02*
X1027900Y1616872D01*
X977100Y1616364D02*
X977100Y1625000D01*
X977100Y1633636D01*
X977100Y1625000D02*
X1002500Y1650400D01*
D117*
X973925Y1653575D03*
D10*
X1177392Y1601378D02*
X1177392Y1598838D01*
X1176884Y1598838D01*
X1176884Y1598889D01*
X1127379Y1598889D01*
X1127379Y1601200D01*
X1177595Y1648190D02*
X1177595Y1650908D01*
X1177087Y1650908D01*
X1177087Y1650933D01*
X1127405Y1650933D01*
X1127405Y1648673D01*
X1177900Y1633890D02*
X1177900Y1616872D01*
X1127100Y1616364D02*
X1127100Y1625000D01*
X1127100Y1633636D01*
X1127100Y1625000D02*
X1152500Y1650400D01*
D117*
X1123925Y1653575D03*
D10*
X1327392Y1601378D02*
X1327392Y1598838D01*
X1326884Y1598838D01*
X1326884Y1598889D01*
X1277379Y1598889D01*
X1277379Y1601200D01*
X1327595Y1648190D02*
X1327595Y1650908D01*
X1327087Y1650908D01*
X1327087Y1650933D01*
X1277405Y1650933D01*
X1277405Y1648673D01*
X1327900Y1633890D02*
X1327900Y1616872D01*
X1277100Y1616364D02*
X1277100Y1625000D01*
X1277100Y1633636D01*
X1277100Y1625000D02*
X1302500Y1650400D01*
D117*
X1273925Y1653575D03*
D10*
X1477392Y1601378D02*
X1477392Y1598838D01*
X1476884Y1598838D01*
X1476884Y1598889D01*
X1427379Y1598889D01*
X1427379Y1601200D01*
X1477595Y1648190D02*
X1477595Y1650908D01*
X1477087Y1650908D01*
X1477087Y1650933D01*
X1427405Y1650933D01*
X1427405Y1648673D01*
X1477900Y1633890D02*
X1477900Y1616872D01*
X1427100Y1616364D02*
X1427100Y1625000D01*
X1427100Y1633636D01*
X1427100Y1625000D02*
X1452500Y1650400D01*
D117*
X1423925Y1653575D03*
D10*
X1627392Y1601378D02*
X1627392Y1598838D01*
X1626884Y1598838D01*
X1626884Y1598889D01*
X1577379Y1598889D01*
X1577379Y1601200D01*
X1627595Y1648190D02*
X1627595Y1650908D01*
X1627087Y1650908D01*
X1627087Y1650933D01*
X1577405Y1650933D01*
X1577405Y1648673D01*
X1627900Y1633890D02*
X1627900Y1616872D01*
X1577100Y1616364D02*
X1577100Y1625000D01*
X1577100Y1633636D01*
X1577100Y1625000D02*
X1602500Y1650400D01*
D117*
X1573925Y1653575D03*
D10*
X1777392Y1601378D02*
X1777392Y1598838D01*
X1776884Y1598838D01*
X1776884Y1598889D01*
X1727379Y1598889D01*
X1727379Y1601200D01*
X1777595Y1648190D02*
X1777595Y1650908D01*
X1777087Y1650908D01*
X1777087Y1650933D01*
X1727405Y1650933D01*
X1727405Y1648673D01*
X1777900Y1633890D02*
X1777900Y1616872D01*
X1727100Y1616364D02*
X1727100Y1625000D01*
X1727100Y1633636D01*
X1727100Y1625000D02*
X1752500Y1650400D01*
D117*
X1723925Y1653575D03*
D10*
X1927392Y1601378D02*
X1927392Y1598838D01*
X1926884Y1598838D01*
X1926884Y1598889D01*
X1877379Y1598889D01*
X1877379Y1601200D01*
X1927595Y1648190D02*
X1927595Y1650908D01*
X1927087Y1650908D01*
X1927087Y1650933D01*
X1877405Y1650933D01*
X1877405Y1648673D01*
X1927900Y1633890D02*
X1927900Y1616872D01*
X1877100Y1616364D02*
X1877100Y1625000D01*
X1877100Y1633636D01*
X1877100Y1625000D02*
X1902500Y1650400D01*
D117*
X1873925Y1653575D03*
D10*
X2077392Y1601378D02*
X2077392Y1598838D01*
X2076884Y1598838D01*
X2076884Y1598889D01*
X2027379Y1598889D01*
X2027379Y1601200D01*
X2077595Y1648190D02*
X2077595Y1650908D01*
X2077087Y1650908D01*
X2077087Y1650933D01*
X2027405Y1650933D01*
X2027405Y1648673D01*
X2077900Y1633890D02*
X2077900Y1616872D01*
X2027100Y1616364D02*
X2027100Y1625000D01*
X2027100Y1633636D01*
X2027100Y1625000D02*
X2052500Y1650400D01*
D117*
X2023925Y1653575D03*
D10*
X2227392Y1601378D02*
X2227392Y1598838D01*
X2226884Y1598838D01*
X2226884Y1598889D01*
X2177379Y1598889D01*
X2177379Y1601200D01*
X2227595Y1648190D02*
X2227595Y1650908D01*
X2227087Y1650908D01*
X2227087Y1650933D01*
X2177405Y1650933D01*
X2177405Y1648673D01*
X2227900Y1633890D02*
X2227900Y1616872D01*
X2177100Y1616364D02*
X2177100Y1625000D01*
X2177100Y1633636D01*
X2177100Y1625000D02*
X2202500Y1650400D01*
D117*
X2173925Y1653575D03*
D10*
X2377392Y1601378D02*
X2377392Y1598838D01*
X2376884Y1598838D01*
X2376884Y1598889D01*
X2327379Y1598889D01*
X2327379Y1601200D01*
X2377595Y1648190D02*
X2377595Y1650908D01*
X2377087Y1650908D01*
X2377087Y1650933D01*
X2327405Y1650933D01*
X2327405Y1648673D01*
X2377900Y1633890D02*
X2377900Y1616872D01*
X2327100Y1616364D02*
X2327100Y1625000D01*
X2327100Y1633636D01*
X2327100Y1625000D02*
X2352500Y1650400D01*
D117*
X2323925Y1653575D03*
D10*
X2527392Y1601378D02*
X2527392Y1598838D01*
X2526884Y1598838D01*
X2526884Y1598889D01*
X2477379Y1598889D01*
X2477379Y1601200D01*
X2527595Y1648190D02*
X2527595Y1650908D01*
X2527087Y1650908D01*
X2527087Y1650933D01*
X2477405Y1650933D01*
X2477405Y1648673D01*
X2527900Y1633890D02*
X2527900Y1616872D01*
X2477100Y1616364D02*
X2477100Y1625000D01*
X2477100Y1633636D01*
X2477100Y1625000D02*
X2502500Y1650400D01*
D117*
X2473925Y1653575D03*
D10*
X2677392Y1601378D02*
X2677392Y1598838D01*
X2676884Y1598838D01*
X2676884Y1598889D01*
X2627379Y1598889D01*
X2627379Y1601200D01*
X2677595Y1648190D02*
X2677595Y1650908D01*
X2677087Y1650908D01*
X2677087Y1650933D01*
X2627405Y1650933D01*
X2627405Y1648673D01*
X2677900Y1633890D02*
X2677900Y1616872D01*
X2627100Y1616364D02*
X2627100Y1625000D01*
X2627100Y1633636D01*
X2627100Y1625000D02*
X2652500Y1650400D01*
D117*
X2623925Y1653575D03*
D10*
X2827392Y1601378D02*
X2827392Y1598838D01*
X2826884Y1598838D01*
X2826884Y1598889D01*
X2777379Y1598889D01*
X2777379Y1601200D01*
X2827595Y1648190D02*
X2827595Y1650908D01*
X2827087Y1650908D01*
X2827087Y1650933D01*
X2777405Y1650933D01*
X2777405Y1648673D01*
X2827900Y1633890D02*
X2827900Y1616872D01*
X2777100Y1616364D02*
X2777100Y1625000D01*
X2777100Y1633636D01*
X2777100Y1625000D02*
X2802500Y1650400D01*
D117*
X2773925Y1653575D03*
D10*
X2977392Y1601378D02*
X2977392Y1598838D01*
X2976884Y1598838D01*
X2976884Y1598889D01*
X2927379Y1598889D01*
X2927379Y1601200D01*
X2977595Y1648190D02*
X2977595Y1650908D01*
X2977087Y1650908D01*
X2977087Y1650933D01*
X2927405Y1650933D01*
X2927405Y1648673D01*
X2977900Y1633890D02*
X2977900Y1616872D01*
X2927100Y1616364D02*
X2927100Y1625000D01*
X2927100Y1633636D01*
X2927100Y1625000D02*
X2952500Y1650400D01*
D117*
X2923925Y1653575D03*
D10*
X127392Y1451378D02*
X127392Y1448838D01*
X126884Y1448838D01*
X126884Y1448889D01*
X77379Y1448889D01*
X77379Y1451200D01*
X127595Y1498190D02*
X127595Y1500908D01*
X127087Y1500908D01*
X127087Y1500933D01*
X77405Y1500933D01*
X77405Y1498673D01*
X127900Y1483890D02*
X127900Y1466872D01*
X77100Y1466364D02*
X77100Y1475000D01*
X77100Y1483636D01*
X77100Y1475000D02*
X102500Y1500400D01*
D117*
X73925Y1503575D03*
D10*
X277392Y1451378D02*
X277392Y1448838D01*
X276884Y1448838D01*
X276884Y1448889D01*
X227379Y1448889D01*
X227379Y1451200D01*
X277595Y1498190D02*
X277595Y1500908D01*
X277087Y1500908D01*
X277087Y1500933D01*
X227405Y1500933D01*
X227405Y1498673D01*
X277900Y1483890D02*
X277900Y1466872D01*
X227100Y1466364D02*
X227100Y1475000D01*
X227100Y1483636D01*
X227100Y1475000D02*
X252500Y1500400D01*
D117*
X223925Y1503575D03*
D10*
X427392Y1451378D02*
X427392Y1448838D01*
X426884Y1448838D01*
X426884Y1448889D01*
X377379Y1448889D01*
X377379Y1451200D01*
X427595Y1498190D02*
X427595Y1500908D01*
X427087Y1500908D01*
X427087Y1500933D01*
X377405Y1500933D01*
X377405Y1498673D01*
X427900Y1483890D02*
X427900Y1466872D01*
X377100Y1466364D02*
X377100Y1475000D01*
X377100Y1483636D01*
X377100Y1475000D02*
X402500Y1500400D01*
D117*
X373925Y1503575D03*
D10*
X577392Y1451378D02*
X577392Y1448838D01*
X576884Y1448838D01*
X576884Y1448889D01*
X527379Y1448889D01*
X527379Y1451200D01*
X577595Y1498190D02*
X577595Y1500908D01*
X577087Y1500908D01*
X577087Y1500933D01*
X527405Y1500933D01*
X527405Y1498673D01*
X577900Y1483890D02*
X577900Y1466872D01*
X527100Y1466364D02*
X527100Y1475000D01*
X527100Y1483636D01*
X527100Y1475000D02*
X552500Y1500400D01*
D117*
X523925Y1503575D03*
D10*
X727392Y1451378D02*
X727392Y1448838D01*
X726884Y1448838D01*
X726884Y1448889D01*
X677379Y1448889D01*
X677379Y1451200D01*
X727595Y1498190D02*
X727595Y1500908D01*
X727087Y1500908D01*
X727087Y1500933D01*
X677405Y1500933D01*
X677405Y1498673D01*
X727900Y1483890D02*
X727900Y1466872D01*
X677100Y1466364D02*
X677100Y1475000D01*
X677100Y1483636D01*
X677100Y1475000D02*
X702500Y1500400D01*
D117*
X673925Y1503575D03*
D10*
X877392Y1451378D02*
X877392Y1448838D01*
X876884Y1448838D01*
X876884Y1448889D01*
X827379Y1448889D01*
X827379Y1451200D01*
X877595Y1498190D02*
X877595Y1500908D01*
X877087Y1500908D01*
X877087Y1500933D01*
X827405Y1500933D01*
X827405Y1498673D01*
X877900Y1483890D02*
X877900Y1466872D01*
X827100Y1466364D02*
X827100Y1475000D01*
X827100Y1483636D01*
X827100Y1475000D02*
X852500Y1500400D01*
D117*
X823925Y1503575D03*
D10*
X1027392Y1451378D02*
X1027392Y1448838D01*
X1026884Y1448838D01*
X1026884Y1448889D01*
X977379Y1448889D01*
X977379Y1451200D01*
X1027595Y1498190D02*
X1027595Y1500908D01*
X1027087Y1500908D01*
X1027087Y1500933D01*
X977405Y1500933D01*
X977405Y1498673D01*
X1027900Y1483890D02*
X1027900Y1466872D01*
X977100Y1466364D02*
X977100Y1475000D01*
X977100Y1483636D01*
X977100Y1475000D02*
X1002500Y1500400D01*
D117*
X973925Y1503575D03*
D10*
X1177392Y1451378D02*
X1177392Y1448838D01*
X1176884Y1448838D01*
X1176884Y1448889D01*
X1127379Y1448889D01*
X1127379Y1451200D01*
X1177595Y1498190D02*
X1177595Y1500908D01*
X1177087Y1500908D01*
X1177087Y1500933D01*
X1127405Y1500933D01*
X1127405Y1498673D01*
X1177900Y1483890D02*
X1177900Y1466872D01*
X1127100Y1466364D02*
X1127100Y1475000D01*
X1127100Y1483636D01*
X1127100Y1475000D02*
X1152500Y1500400D01*
D117*
X1123925Y1503575D03*
D10*
X1327392Y1451378D02*
X1327392Y1448838D01*
X1326884Y1448838D01*
X1326884Y1448889D01*
X1277379Y1448889D01*
X1277379Y1451200D01*
X1327595Y1498190D02*
X1327595Y1500908D01*
X1327087Y1500908D01*
X1327087Y1500933D01*
X1277405Y1500933D01*
X1277405Y1498673D01*
X1327900Y1483890D02*
X1327900Y1466872D01*
X1277100Y1466364D02*
X1277100Y1475000D01*
X1277100Y1483636D01*
X1277100Y1475000D02*
X1302500Y1500400D01*
D117*
X1273925Y1503575D03*
D10*
X1477392Y1451378D02*
X1477392Y1448838D01*
X1476884Y1448838D01*
X1476884Y1448889D01*
X1427379Y1448889D01*
X1427379Y1451200D01*
X1477595Y1498190D02*
X1477595Y1500908D01*
X1477087Y1500908D01*
X1477087Y1500933D01*
X1427405Y1500933D01*
X1427405Y1498673D01*
X1477900Y1483890D02*
X1477900Y1466872D01*
X1427100Y1466364D02*
X1427100Y1475000D01*
X1427100Y1483636D01*
X1427100Y1475000D02*
X1452500Y1500400D01*
D117*
X1423925Y1503575D03*
D10*
X1627392Y1451378D02*
X1627392Y1448838D01*
X1626884Y1448838D01*
X1626884Y1448889D01*
X1577379Y1448889D01*
X1577379Y1451200D01*
X1627595Y1498190D02*
X1627595Y1500908D01*
X1627087Y1500908D01*
X1627087Y1500933D01*
X1577405Y1500933D01*
X1577405Y1498673D01*
X1627900Y1483890D02*
X1627900Y1466872D01*
X1577100Y1466364D02*
X1577100Y1475000D01*
X1577100Y1483636D01*
X1577100Y1475000D02*
X1602500Y1500400D01*
D117*
X1573925Y1503575D03*
D10*
X1777392Y1451378D02*
X1777392Y1448838D01*
X1776884Y1448838D01*
X1776884Y1448889D01*
X1727379Y1448889D01*
X1727379Y1451200D01*
X1777595Y1498190D02*
X1777595Y1500908D01*
X1777087Y1500908D01*
X1777087Y1500933D01*
X1727405Y1500933D01*
X1727405Y1498673D01*
X1777900Y1483890D02*
X1777900Y1466872D01*
X1727100Y1466364D02*
X1727100Y1475000D01*
X1727100Y1483636D01*
X1727100Y1475000D02*
X1752500Y1500400D01*
D117*
X1723925Y1503575D03*
D10*
X1927392Y1451378D02*
X1927392Y1448838D01*
X1926884Y1448838D01*
X1926884Y1448889D01*
X1877379Y1448889D01*
X1877379Y1451200D01*
X1927595Y1498190D02*
X1927595Y1500908D01*
X1927087Y1500908D01*
X1927087Y1500933D01*
X1877405Y1500933D01*
X1877405Y1498673D01*
X1927900Y1483890D02*
X1927900Y1466872D01*
X1877100Y1466364D02*
X1877100Y1475000D01*
X1877100Y1483636D01*
X1877100Y1475000D02*
X1902500Y1500400D01*
D117*
X1873925Y1503575D03*
D10*
X2077392Y1451378D02*
X2077392Y1448838D01*
X2076884Y1448838D01*
X2076884Y1448889D01*
X2027379Y1448889D01*
X2027379Y1451200D01*
X2077595Y1498190D02*
X2077595Y1500908D01*
X2077087Y1500908D01*
X2077087Y1500933D01*
X2027405Y1500933D01*
X2027405Y1498673D01*
X2077900Y1483890D02*
X2077900Y1466872D01*
X2027100Y1466364D02*
X2027100Y1475000D01*
X2027100Y1483636D01*
X2027100Y1475000D02*
X2052500Y1500400D01*
D117*
X2023925Y1503575D03*
D10*
X2227392Y1451378D02*
X2227392Y1448838D01*
X2226884Y1448838D01*
X2226884Y1448889D01*
X2177379Y1448889D01*
X2177379Y1451200D01*
X2227595Y1498190D02*
X2227595Y1500908D01*
X2227087Y1500908D01*
X2227087Y1500933D01*
X2177405Y1500933D01*
X2177405Y1498673D01*
X2227900Y1483890D02*
X2227900Y1466872D01*
X2177100Y1466364D02*
X2177100Y1475000D01*
X2177100Y1483636D01*
X2177100Y1475000D02*
X2202500Y1500400D01*
D117*
X2173925Y1503575D03*
D10*
X2377392Y1451378D02*
X2377392Y1448838D01*
X2376884Y1448838D01*
X2376884Y1448889D01*
X2327379Y1448889D01*
X2327379Y1451200D01*
X2377595Y1498190D02*
X2377595Y1500908D01*
X2377087Y1500908D01*
X2377087Y1500933D01*
X2327405Y1500933D01*
X2327405Y1498673D01*
X2377900Y1483890D02*
X2377900Y1466872D01*
X2327100Y1466364D02*
X2327100Y1475000D01*
X2327100Y1483636D01*
X2327100Y1475000D02*
X2352500Y1500400D01*
D117*
X2323925Y1503575D03*
D10*
X2527392Y1451378D02*
X2527392Y1448838D01*
X2526884Y1448838D01*
X2526884Y1448889D01*
X2477379Y1448889D01*
X2477379Y1451200D01*
X2527595Y1498190D02*
X2527595Y1500908D01*
X2527087Y1500908D01*
X2527087Y1500933D01*
X2477405Y1500933D01*
X2477405Y1498673D01*
X2527900Y1483890D02*
X2527900Y1466872D01*
X2477100Y1466364D02*
X2477100Y1475000D01*
X2477100Y1483636D01*
X2477100Y1475000D02*
X2502500Y1500400D01*
D117*
X2473925Y1503575D03*
D10*
X2677392Y1451378D02*
X2677392Y1448838D01*
X2676884Y1448838D01*
X2676884Y1448889D01*
X2627379Y1448889D01*
X2627379Y1451200D01*
X2677595Y1498190D02*
X2677595Y1500908D01*
X2677087Y1500908D01*
X2677087Y1500933D01*
X2627405Y1500933D01*
X2627405Y1498673D01*
X2677900Y1483890D02*
X2677900Y1466872D01*
X2627100Y1466364D02*
X2627100Y1475000D01*
X2627100Y1483636D01*
X2627100Y1475000D02*
X2652500Y1500400D01*
D117*
X2623925Y1503575D03*
D10*
X2827392Y1451378D02*
X2827392Y1448838D01*
X2826884Y1448838D01*
X2826884Y1448889D01*
X2777379Y1448889D01*
X2777379Y1451200D01*
X2827595Y1498190D02*
X2827595Y1500908D01*
X2827087Y1500908D01*
X2827087Y1500933D01*
X2777405Y1500933D01*
X2777405Y1498673D01*
X2827900Y1483890D02*
X2827900Y1466872D01*
X2777100Y1466364D02*
X2777100Y1475000D01*
X2777100Y1483636D01*
X2777100Y1475000D02*
X2802500Y1500400D01*
D117*
X2773925Y1503575D03*
D10*
X2977392Y1451378D02*
X2977392Y1448838D01*
X2976884Y1448838D01*
X2976884Y1448889D01*
X2927379Y1448889D01*
X2927379Y1451200D01*
X2977595Y1498190D02*
X2977595Y1500908D01*
X2977087Y1500908D01*
X2977087Y1500933D01*
X2927405Y1500933D01*
X2927405Y1498673D01*
X2977900Y1483890D02*
X2977900Y1466872D01*
X2927100Y1466364D02*
X2927100Y1475000D01*
X2927100Y1483636D01*
X2927100Y1475000D02*
X2952500Y1500400D01*
D117*
X2923925Y1503575D03*
D10*
X127392Y1301378D02*
X127392Y1298838D01*
X126884Y1298838D01*
X126884Y1298889D01*
X77379Y1298889D01*
X77379Y1301200D01*
X127595Y1348190D02*
X127595Y1350908D01*
X127087Y1350908D01*
X127087Y1350933D01*
X77405Y1350933D01*
X77405Y1348673D01*
X127900Y1333890D02*
X127900Y1316872D01*
X77100Y1316364D02*
X77100Y1325000D01*
X77100Y1333636D01*
X77100Y1325000D02*
X102500Y1350400D01*
D117*
X73925Y1353575D03*
D10*
X277392Y1301378D02*
X277392Y1298838D01*
X276884Y1298838D01*
X276884Y1298889D01*
X227379Y1298889D01*
X227379Y1301200D01*
X277595Y1348190D02*
X277595Y1350908D01*
X277087Y1350908D01*
X277087Y1350933D01*
X227405Y1350933D01*
X227405Y1348673D01*
X277900Y1333890D02*
X277900Y1316872D01*
X227100Y1316364D02*
X227100Y1325000D01*
X227100Y1333636D01*
X227100Y1325000D02*
X252500Y1350400D01*
D117*
X223925Y1353575D03*
D10*
X427392Y1301378D02*
X427392Y1298838D01*
X426884Y1298838D01*
X426884Y1298889D01*
X377379Y1298889D01*
X377379Y1301200D01*
X427595Y1348190D02*
X427595Y1350908D01*
X427087Y1350908D01*
X427087Y1350933D01*
X377405Y1350933D01*
X377405Y1348673D01*
X427900Y1333890D02*
X427900Y1316872D01*
X377100Y1316364D02*
X377100Y1325000D01*
X377100Y1333636D01*
X377100Y1325000D02*
X402500Y1350400D01*
D117*
X373925Y1353575D03*
D10*
X577392Y1301378D02*
X577392Y1298838D01*
X576884Y1298838D01*
X576884Y1298889D01*
X527379Y1298889D01*
X527379Y1301200D01*
X577595Y1348190D02*
X577595Y1350908D01*
X577087Y1350908D01*
X577087Y1350933D01*
X527405Y1350933D01*
X527405Y1348673D01*
X577900Y1333890D02*
X577900Y1316872D01*
X527100Y1316364D02*
X527100Y1325000D01*
X527100Y1333636D01*
X527100Y1325000D02*
X552500Y1350400D01*
D117*
X523925Y1353575D03*
D10*
X727392Y1301378D02*
X727392Y1298838D01*
X726884Y1298838D01*
X726884Y1298889D01*
X677379Y1298889D01*
X677379Y1301200D01*
X727595Y1348190D02*
X727595Y1350908D01*
X727087Y1350908D01*
X727087Y1350933D01*
X677405Y1350933D01*
X677405Y1348673D01*
X727900Y1333890D02*
X727900Y1316872D01*
X677100Y1316364D02*
X677100Y1325000D01*
X677100Y1333636D01*
X677100Y1325000D02*
X702500Y1350400D01*
D117*
X673925Y1353575D03*
D10*
X877392Y1301378D02*
X877392Y1298838D01*
X876884Y1298838D01*
X876884Y1298889D01*
X827379Y1298889D01*
X827379Y1301200D01*
X877595Y1348190D02*
X877595Y1350908D01*
X877087Y1350908D01*
X877087Y1350933D01*
X827405Y1350933D01*
X827405Y1348673D01*
X877900Y1333890D02*
X877900Y1316872D01*
X827100Y1316364D02*
X827100Y1325000D01*
X827100Y1333636D01*
X827100Y1325000D02*
X852500Y1350400D01*
D117*
X823925Y1353575D03*
D10*
X1027392Y1301378D02*
X1027392Y1298838D01*
X1026884Y1298838D01*
X1026884Y1298889D01*
X977379Y1298889D01*
X977379Y1301200D01*
X1027595Y1348190D02*
X1027595Y1350908D01*
X1027087Y1350908D01*
X1027087Y1350933D01*
X977405Y1350933D01*
X977405Y1348673D01*
X1027900Y1333890D02*
X1027900Y1316872D01*
X977100Y1316364D02*
X977100Y1325000D01*
X977100Y1333636D01*
X977100Y1325000D02*
X1002500Y1350400D01*
D117*
X973925Y1353575D03*
D10*
X1177392Y1301378D02*
X1177392Y1298838D01*
X1176884Y1298838D01*
X1176884Y1298889D01*
X1127379Y1298889D01*
X1127379Y1301200D01*
X1177595Y1348190D02*
X1177595Y1350908D01*
X1177087Y1350908D01*
X1177087Y1350933D01*
X1127405Y1350933D01*
X1127405Y1348673D01*
X1177900Y1333890D02*
X1177900Y1316872D01*
X1127100Y1316364D02*
X1127100Y1325000D01*
X1127100Y1333636D01*
X1127100Y1325000D02*
X1152500Y1350400D01*
D117*
X1123925Y1353575D03*
D10*
X1327392Y1301378D02*
X1327392Y1298838D01*
X1326884Y1298838D01*
X1326884Y1298889D01*
X1277379Y1298889D01*
X1277379Y1301200D01*
X1327595Y1348190D02*
X1327595Y1350908D01*
X1327087Y1350908D01*
X1327087Y1350933D01*
X1277405Y1350933D01*
X1277405Y1348673D01*
X1327900Y1333890D02*
X1327900Y1316872D01*
X1277100Y1316364D02*
X1277100Y1325000D01*
X1277100Y1333636D01*
X1277100Y1325000D02*
X1302500Y1350400D01*
D117*
X1273925Y1353575D03*
D10*
X1477392Y1301378D02*
X1477392Y1298838D01*
X1476884Y1298838D01*
X1476884Y1298889D01*
X1427379Y1298889D01*
X1427379Y1301200D01*
X1477595Y1348190D02*
X1477595Y1350908D01*
X1477087Y1350908D01*
X1477087Y1350933D01*
X1427405Y1350933D01*
X1427405Y1348673D01*
X1477900Y1333890D02*
X1477900Y1316872D01*
X1427100Y1316364D02*
X1427100Y1325000D01*
X1427100Y1333636D01*
X1427100Y1325000D02*
X1452500Y1350400D01*
D117*
X1423925Y1353575D03*
D10*
X1627392Y1301378D02*
X1627392Y1298838D01*
X1626884Y1298838D01*
X1626884Y1298889D01*
X1577379Y1298889D01*
X1577379Y1301200D01*
X1627595Y1348190D02*
X1627595Y1350908D01*
X1627087Y1350908D01*
X1627087Y1350933D01*
X1577405Y1350933D01*
X1577405Y1348673D01*
X1627900Y1333890D02*
X1627900Y1316872D01*
X1577100Y1316364D02*
X1577100Y1325000D01*
X1577100Y1333636D01*
X1577100Y1325000D02*
X1602500Y1350400D01*
D117*
X1573925Y1353575D03*
D10*
X1777392Y1301378D02*
X1777392Y1298838D01*
X1776884Y1298838D01*
X1776884Y1298889D01*
X1727379Y1298889D01*
X1727379Y1301200D01*
X1777595Y1348190D02*
X1777595Y1350908D01*
X1777087Y1350908D01*
X1777087Y1350933D01*
X1727405Y1350933D01*
X1727405Y1348673D01*
X1777900Y1333890D02*
X1777900Y1316872D01*
X1727100Y1316364D02*
X1727100Y1325000D01*
X1727100Y1333636D01*
X1727100Y1325000D02*
X1752500Y1350400D01*
D117*
X1723925Y1353575D03*
D10*
X1927392Y1301378D02*
X1927392Y1298838D01*
X1926884Y1298838D01*
X1926884Y1298889D01*
X1877379Y1298889D01*
X1877379Y1301200D01*
X1927595Y1348190D02*
X1927595Y1350908D01*
X1927087Y1350908D01*
X1927087Y1350933D01*
X1877405Y1350933D01*
X1877405Y1348673D01*
X1927900Y1333890D02*
X1927900Y1316872D01*
X1877100Y1316364D02*
X1877100Y1325000D01*
X1877100Y1333636D01*
X1877100Y1325000D02*
X1902500Y1350400D01*
D117*
X1873925Y1353575D03*
D10*
X2077392Y1301378D02*
X2077392Y1298838D01*
X2076884Y1298838D01*
X2076884Y1298889D01*
X2027379Y1298889D01*
X2027379Y1301200D01*
X2077595Y1348190D02*
X2077595Y1350908D01*
X2077087Y1350908D01*
X2077087Y1350933D01*
X2027405Y1350933D01*
X2027405Y1348673D01*
X2077900Y1333890D02*
X2077900Y1316872D01*
X2027100Y1316364D02*
X2027100Y1325000D01*
X2027100Y1333636D01*
X2027100Y1325000D02*
X2052500Y1350400D01*
D117*
X2023925Y1353575D03*
D10*
X2227392Y1301378D02*
X2227392Y1298838D01*
X2226884Y1298838D01*
X2226884Y1298889D01*
X2177379Y1298889D01*
X2177379Y1301200D01*
X2227595Y1348190D02*
X2227595Y1350908D01*
X2227087Y1350908D01*
X2227087Y1350933D01*
X2177405Y1350933D01*
X2177405Y1348673D01*
X2227900Y1333890D02*
X2227900Y1316872D01*
X2177100Y1316364D02*
X2177100Y1325000D01*
X2177100Y1333636D01*
X2177100Y1325000D02*
X2202500Y1350400D01*
D117*
X2173925Y1353575D03*
D10*
X2377392Y1301378D02*
X2377392Y1298838D01*
X2376884Y1298838D01*
X2376884Y1298889D01*
X2327379Y1298889D01*
X2327379Y1301200D01*
X2377595Y1348190D02*
X2377595Y1350908D01*
X2377087Y1350908D01*
X2377087Y1350933D01*
X2327405Y1350933D01*
X2327405Y1348673D01*
X2377900Y1333890D02*
X2377900Y1316872D01*
X2327100Y1316364D02*
X2327100Y1325000D01*
X2327100Y1333636D01*
X2327100Y1325000D02*
X2352500Y1350400D01*
D117*
X2323925Y1353575D03*
D10*
X2527392Y1301378D02*
X2527392Y1298838D01*
X2526884Y1298838D01*
X2526884Y1298889D01*
X2477379Y1298889D01*
X2477379Y1301200D01*
X2527595Y1348190D02*
X2527595Y1350908D01*
X2527087Y1350908D01*
X2527087Y1350933D01*
X2477405Y1350933D01*
X2477405Y1348673D01*
X2527900Y1333890D02*
X2527900Y1316872D01*
X2477100Y1316364D02*
X2477100Y1325000D01*
X2477100Y1333636D01*
X2477100Y1325000D02*
X2502500Y1350400D01*
D117*
X2473925Y1353575D03*
D10*
X2677392Y1301378D02*
X2677392Y1298838D01*
X2676884Y1298838D01*
X2676884Y1298889D01*
X2627379Y1298889D01*
X2627379Y1301200D01*
X2677595Y1348190D02*
X2677595Y1350908D01*
X2677087Y1350908D01*
X2677087Y1350933D01*
X2627405Y1350933D01*
X2627405Y1348673D01*
X2677900Y1333890D02*
X2677900Y1316872D01*
X2627100Y1316364D02*
X2627100Y1325000D01*
X2627100Y1333636D01*
X2627100Y1325000D02*
X2652500Y1350400D01*
D117*
X2623925Y1353575D03*
D10*
X2827392Y1301378D02*
X2827392Y1298838D01*
X2826884Y1298838D01*
X2826884Y1298889D01*
X2777379Y1298889D01*
X2777379Y1301200D01*
X2827595Y1348190D02*
X2827595Y1350908D01*
X2827087Y1350908D01*
X2827087Y1350933D01*
X2777405Y1350933D01*
X2777405Y1348673D01*
X2827900Y1333890D02*
X2827900Y1316872D01*
X2777100Y1316364D02*
X2777100Y1325000D01*
X2777100Y1333636D01*
X2777100Y1325000D02*
X2802500Y1350400D01*
D117*
X2773925Y1353575D03*
D10*
X2977392Y1301378D02*
X2977392Y1298838D01*
X2976884Y1298838D01*
X2976884Y1298889D01*
X2927379Y1298889D01*
X2927379Y1301200D01*
X2977595Y1348190D02*
X2977595Y1350908D01*
X2977087Y1350908D01*
X2977087Y1350933D01*
X2927405Y1350933D01*
X2927405Y1348673D01*
X2977900Y1333890D02*
X2977900Y1316872D01*
X2927100Y1316364D02*
X2927100Y1325000D01*
X2927100Y1333636D01*
X2927100Y1325000D02*
X2952500Y1350400D01*
D117*
X2923925Y1353575D03*
D10*
X127392Y1151378D02*
X127392Y1148838D01*
X126884Y1148838D01*
X126884Y1148889D01*
X77379Y1148889D01*
X77379Y1151200D01*
X127595Y1198190D02*
X127595Y1200908D01*
X127087Y1200908D01*
X127087Y1200933D01*
X77405Y1200933D01*
X77405Y1198673D01*
X127900Y1183890D02*
X127900Y1166872D01*
X77100Y1166364D02*
X77100Y1175000D01*
X77100Y1183636D01*
X77100Y1175000D02*
X102500Y1200400D01*
D117*
X73925Y1203575D03*
D10*
X277392Y1151378D02*
X277392Y1148838D01*
X276884Y1148838D01*
X276884Y1148889D01*
X227379Y1148889D01*
X227379Y1151200D01*
X277595Y1198190D02*
X277595Y1200908D01*
X277087Y1200908D01*
X277087Y1200933D01*
X227405Y1200933D01*
X227405Y1198673D01*
X277900Y1183890D02*
X277900Y1166872D01*
X227100Y1166364D02*
X227100Y1175000D01*
X227100Y1183636D01*
X227100Y1175000D02*
X252500Y1200400D01*
D117*
X223925Y1203575D03*
D10*
X427392Y1151378D02*
X427392Y1148838D01*
X426884Y1148838D01*
X426884Y1148889D01*
X377379Y1148889D01*
X377379Y1151200D01*
X427595Y1198190D02*
X427595Y1200908D01*
X427087Y1200908D01*
X427087Y1200933D01*
X377405Y1200933D01*
X377405Y1198673D01*
X427900Y1183890D02*
X427900Y1166872D01*
X377100Y1166364D02*
X377100Y1175000D01*
X377100Y1183636D01*
X377100Y1175000D02*
X402500Y1200400D01*
D117*
X373925Y1203575D03*
D10*
X577392Y1151378D02*
X577392Y1148838D01*
X576884Y1148838D01*
X576884Y1148889D01*
X527379Y1148889D01*
X527379Y1151200D01*
X577595Y1198190D02*
X577595Y1200908D01*
X577087Y1200908D01*
X577087Y1200933D01*
X527405Y1200933D01*
X527405Y1198673D01*
X577900Y1183890D02*
X577900Y1166872D01*
X527100Y1166364D02*
X527100Y1175000D01*
X527100Y1183636D01*
X527100Y1175000D02*
X552500Y1200400D01*
D117*
X523925Y1203575D03*
D10*
X727392Y1151378D02*
X727392Y1148838D01*
X726884Y1148838D01*
X726884Y1148889D01*
X677379Y1148889D01*
X677379Y1151200D01*
X727595Y1198190D02*
X727595Y1200908D01*
X727087Y1200908D01*
X727087Y1200933D01*
X677405Y1200933D01*
X677405Y1198673D01*
X727900Y1183890D02*
X727900Y1166872D01*
X677100Y1166364D02*
X677100Y1175000D01*
X677100Y1183636D01*
X677100Y1175000D02*
X702500Y1200400D01*
D117*
X673925Y1203575D03*
D10*
X877392Y1151378D02*
X877392Y1148838D01*
X876884Y1148838D01*
X876884Y1148889D01*
X827379Y1148889D01*
X827379Y1151200D01*
X877595Y1198190D02*
X877595Y1200908D01*
X877087Y1200908D01*
X877087Y1200933D01*
X827405Y1200933D01*
X827405Y1198673D01*
X877900Y1183890D02*
X877900Y1166872D01*
X827100Y1166364D02*
X827100Y1175000D01*
X827100Y1183636D01*
X827100Y1175000D02*
X852500Y1200400D01*
D117*
X823925Y1203575D03*
D10*
X1027392Y1151378D02*
X1027392Y1148838D01*
X1026884Y1148838D01*
X1026884Y1148889D01*
X977379Y1148889D01*
X977379Y1151200D01*
X1027595Y1198190D02*
X1027595Y1200908D01*
X1027087Y1200908D01*
X1027087Y1200933D01*
X977405Y1200933D01*
X977405Y1198673D01*
X1027900Y1183890D02*
X1027900Y1166872D01*
X977100Y1166364D02*
X977100Y1175000D01*
X977100Y1183636D01*
X977100Y1175000D02*
X1002500Y1200400D01*
D117*
X973925Y1203575D03*
D10*
X1177392Y1151378D02*
X1177392Y1148838D01*
X1176884Y1148838D01*
X1176884Y1148889D01*
X1127379Y1148889D01*
X1127379Y1151200D01*
X1177595Y1198190D02*
X1177595Y1200908D01*
X1177087Y1200908D01*
X1177087Y1200933D01*
X1127405Y1200933D01*
X1127405Y1198673D01*
X1177900Y1183890D02*
X1177900Y1166872D01*
X1127100Y1166364D02*
X1127100Y1175000D01*
X1127100Y1183636D01*
X1127100Y1175000D02*
X1152500Y1200400D01*
D117*
X1123925Y1203575D03*
D10*
X1327392Y1151378D02*
X1327392Y1148838D01*
X1326884Y1148838D01*
X1326884Y1148889D01*
X1277379Y1148889D01*
X1277379Y1151200D01*
X1327595Y1198190D02*
X1327595Y1200908D01*
X1327087Y1200908D01*
X1327087Y1200933D01*
X1277405Y1200933D01*
X1277405Y1198673D01*
X1327900Y1183890D02*
X1327900Y1166872D01*
X1277100Y1166364D02*
X1277100Y1175000D01*
X1277100Y1183636D01*
X1277100Y1175000D02*
X1302500Y1200400D01*
D117*
X1273925Y1203575D03*
D10*
X1477392Y1151378D02*
X1477392Y1148838D01*
X1476884Y1148838D01*
X1476884Y1148889D01*
X1427379Y1148889D01*
X1427379Y1151200D01*
X1477595Y1198190D02*
X1477595Y1200908D01*
X1477087Y1200908D01*
X1477087Y1200933D01*
X1427405Y1200933D01*
X1427405Y1198673D01*
X1477900Y1183890D02*
X1477900Y1166872D01*
X1427100Y1166364D02*
X1427100Y1175000D01*
X1427100Y1183636D01*
X1427100Y1175000D02*
X1452500Y1200400D01*
D117*
X1423925Y1203575D03*
D10*
X1627392Y1151378D02*
X1627392Y1148838D01*
X1626884Y1148838D01*
X1626884Y1148889D01*
X1577379Y1148889D01*
X1577379Y1151200D01*
X1627595Y1198190D02*
X1627595Y1200908D01*
X1627087Y1200908D01*
X1627087Y1200933D01*
X1577405Y1200933D01*
X1577405Y1198673D01*
X1627900Y1183890D02*
X1627900Y1166872D01*
X1577100Y1166364D02*
X1577100Y1175000D01*
X1577100Y1183636D01*
X1577100Y1175000D02*
X1602500Y1200400D01*
D117*
X1573925Y1203575D03*
D10*
X1777392Y1151378D02*
X1777392Y1148838D01*
X1776884Y1148838D01*
X1776884Y1148889D01*
X1727379Y1148889D01*
X1727379Y1151200D01*
X1777595Y1198190D02*
X1777595Y1200908D01*
X1777087Y1200908D01*
X1777087Y1200933D01*
X1727405Y1200933D01*
X1727405Y1198673D01*
X1777900Y1183890D02*
X1777900Y1166872D01*
X1727100Y1166364D02*
X1727100Y1175000D01*
X1727100Y1183636D01*
X1727100Y1175000D02*
X1752500Y1200400D01*
D117*
X1723925Y1203575D03*
D10*
X1927392Y1151378D02*
X1927392Y1148838D01*
X1926884Y1148838D01*
X1926884Y1148889D01*
X1877379Y1148889D01*
X1877379Y1151200D01*
X1927595Y1198190D02*
X1927595Y1200908D01*
X1927087Y1200908D01*
X1927087Y1200933D01*
X1877405Y1200933D01*
X1877405Y1198673D01*
X1927900Y1183890D02*
X1927900Y1166872D01*
X1877100Y1166364D02*
X1877100Y1175000D01*
X1877100Y1183636D01*
X1877100Y1175000D02*
X1902500Y1200400D01*
D117*
X1873925Y1203575D03*
D10*
X2077392Y1151378D02*
X2077392Y1148838D01*
X2076884Y1148838D01*
X2076884Y1148889D01*
X2027379Y1148889D01*
X2027379Y1151200D01*
X2077595Y1198190D02*
X2077595Y1200908D01*
X2077087Y1200908D01*
X2077087Y1200933D01*
X2027405Y1200933D01*
X2027405Y1198673D01*
X2077900Y1183890D02*
X2077900Y1166872D01*
X2027100Y1166364D02*
X2027100Y1175000D01*
X2027100Y1183636D01*
X2027100Y1175000D02*
X2052500Y1200400D01*
D117*
X2023925Y1203575D03*
D10*
X2227392Y1151378D02*
X2227392Y1148838D01*
X2226884Y1148838D01*
X2226884Y1148889D01*
X2177379Y1148889D01*
X2177379Y1151200D01*
X2227595Y1198190D02*
X2227595Y1200908D01*
X2227087Y1200908D01*
X2227087Y1200933D01*
X2177405Y1200933D01*
X2177405Y1198673D01*
X2227900Y1183890D02*
X2227900Y1166872D01*
X2177100Y1166364D02*
X2177100Y1175000D01*
X2177100Y1183636D01*
X2177100Y1175000D02*
X2202500Y1200400D01*
D117*
X2173925Y1203575D03*
D10*
X2377392Y1151378D02*
X2377392Y1148838D01*
X2376884Y1148838D01*
X2376884Y1148889D01*
X2327379Y1148889D01*
X2327379Y1151200D01*
X2377595Y1198190D02*
X2377595Y1200908D01*
X2377087Y1200908D01*
X2377087Y1200933D01*
X2327405Y1200933D01*
X2327405Y1198673D01*
X2377900Y1183890D02*
X2377900Y1166872D01*
X2327100Y1166364D02*
X2327100Y1175000D01*
X2327100Y1183636D01*
X2327100Y1175000D02*
X2352500Y1200400D01*
D117*
X2323925Y1203575D03*
D10*
X2527392Y1151378D02*
X2527392Y1148838D01*
X2526884Y1148838D01*
X2526884Y1148889D01*
X2477379Y1148889D01*
X2477379Y1151200D01*
X2527595Y1198190D02*
X2527595Y1200908D01*
X2527087Y1200908D01*
X2527087Y1200933D01*
X2477405Y1200933D01*
X2477405Y1198673D01*
X2527900Y1183890D02*
X2527900Y1166872D01*
X2477100Y1166364D02*
X2477100Y1175000D01*
X2477100Y1183636D01*
X2477100Y1175000D02*
X2502500Y1200400D01*
D117*
X2473925Y1203575D03*
D10*
X2677392Y1151378D02*
X2677392Y1148838D01*
X2676884Y1148838D01*
X2676884Y1148889D01*
X2627379Y1148889D01*
X2627379Y1151200D01*
X2677595Y1198190D02*
X2677595Y1200908D01*
X2677087Y1200908D01*
X2677087Y1200933D01*
X2627405Y1200933D01*
X2627405Y1198673D01*
X2677900Y1183890D02*
X2677900Y1166872D01*
X2627100Y1166364D02*
X2627100Y1175000D01*
X2627100Y1183636D01*
X2627100Y1175000D02*
X2652500Y1200400D01*
D117*
X2623925Y1203575D03*
D10*
X2827392Y1151378D02*
X2827392Y1148838D01*
X2826884Y1148838D01*
X2826884Y1148889D01*
X2777379Y1148889D01*
X2777379Y1151200D01*
X2827595Y1198190D02*
X2827595Y1200908D01*
X2827087Y1200908D01*
X2827087Y1200933D01*
X2777405Y1200933D01*
X2777405Y1198673D01*
X2827900Y1183890D02*
X2827900Y1166872D01*
X2777100Y1166364D02*
X2777100Y1175000D01*
X2777100Y1183636D01*
X2777100Y1175000D02*
X2802500Y1200400D01*
D117*
X2773925Y1203575D03*
D10*
X2977392Y1151378D02*
X2977392Y1148838D01*
X2976884Y1148838D01*
X2976884Y1148889D01*
X2927379Y1148889D01*
X2927379Y1151200D01*
X2977595Y1198190D02*
X2977595Y1200908D01*
X2977087Y1200908D01*
X2977087Y1200933D01*
X2927405Y1200933D01*
X2927405Y1198673D01*
X2977900Y1183890D02*
X2977900Y1166872D01*
X2927100Y1166364D02*
X2927100Y1175000D01*
X2927100Y1183636D01*
X2927100Y1175000D02*
X2952500Y1200400D01*
D117*
X2923925Y1203575D03*
D10*
X127392Y1001378D02*
X127392Y998838D01*
X126884Y998838D01*
X126884Y998889D01*
X77379Y998889D01*
X77379Y1001200D01*
X127595Y1048190D02*
X127595Y1050908D01*
X127087Y1050908D01*
X127087Y1050933D01*
X77405Y1050933D01*
X77405Y1048673D01*
X127900Y1033890D02*
X127900Y1016872D01*
X77100Y1016364D02*
X77100Y1025000D01*
X77100Y1033636D01*
X77100Y1025000D02*
X102500Y1050400D01*
D117*
X73925Y1053575D03*
D10*
X277392Y1001378D02*
X277392Y998838D01*
X276884Y998838D01*
X276884Y998889D01*
X227379Y998889D01*
X227379Y1001200D01*
X277595Y1048190D02*
X277595Y1050908D01*
X277087Y1050908D01*
X277087Y1050933D01*
X227405Y1050933D01*
X227405Y1048673D01*
X277900Y1033890D02*
X277900Y1016872D01*
X227100Y1016364D02*
X227100Y1025000D01*
X227100Y1033636D01*
X227100Y1025000D02*
X252500Y1050400D01*
D117*
X223925Y1053575D03*
D10*
X427392Y1001378D02*
X427392Y998838D01*
X426884Y998838D01*
X426884Y998889D01*
X377379Y998889D01*
X377379Y1001200D01*
X427595Y1048190D02*
X427595Y1050908D01*
X427087Y1050908D01*
X427087Y1050933D01*
X377405Y1050933D01*
X377405Y1048673D01*
X427900Y1033890D02*
X427900Y1016872D01*
X377100Y1016364D02*
X377100Y1025000D01*
X377100Y1033636D01*
X377100Y1025000D02*
X402500Y1050400D01*
D117*
X373925Y1053575D03*
D10*
X577392Y1001378D02*
X577392Y998838D01*
X576884Y998838D01*
X576884Y998889D01*
X527379Y998889D01*
X527379Y1001200D01*
X577595Y1048190D02*
X577595Y1050908D01*
X577087Y1050908D01*
X577087Y1050933D01*
X527405Y1050933D01*
X527405Y1048673D01*
X577900Y1033890D02*
X577900Y1016872D01*
X527100Y1016364D02*
X527100Y1025000D01*
X527100Y1033636D01*
X527100Y1025000D02*
X552500Y1050400D01*
D117*
X523925Y1053575D03*
D10*
X727392Y1001378D02*
X727392Y998838D01*
X726884Y998838D01*
X726884Y998889D01*
X677379Y998889D01*
X677379Y1001200D01*
X727595Y1048190D02*
X727595Y1050908D01*
X727087Y1050908D01*
X727087Y1050933D01*
X677405Y1050933D01*
X677405Y1048673D01*
X727900Y1033890D02*
X727900Y1016872D01*
X677100Y1016364D02*
X677100Y1025000D01*
X677100Y1033636D01*
X677100Y1025000D02*
X702500Y1050400D01*
D117*
X673925Y1053575D03*
D10*
X877392Y1001378D02*
X877392Y998838D01*
X876884Y998838D01*
X876884Y998889D01*
X827379Y998889D01*
X827379Y1001200D01*
X877595Y1048190D02*
X877595Y1050908D01*
X877087Y1050908D01*
X877087Y1050933D01*
X827405Y1050933D01*
X827405Y1048673D01*
X877900Y1033890D02*
X877900Y1016872D01*
X827100Y1016364D02*
X827100Y1025000D01*
X827100Y1033636D01*
X827100Y1025000D02*
X852500Y1050400D01*
D117*
X823925Y1053575D03*
D10*
X1027392Y1001378D02*
X1027392Y998838D01*
X1026884Y998838D01*
X1026884Y998889D01*
X977379Y998889D01*
X977379Y1001200D01*
X1027595Y1048190D02*
X1027595Y1050908D01*
X1027087Y1050908D01*
X1027087Y1050933D01*
X977405Y1050933D01*
X977405Y1048673D01*
X1027900Y1033890D02*
X1027900Y1016872D01*
X977100Y1016364D02*
X977100Y1025000D01*
X977100Y1033636D01*
X977100Y1025000D02*
X1002500Y1050400D01*
D117*
X973925Y1053575D03*
D10*
X1177392Y1001378D02*
X1177392Y998838D01*
X1176884Y998838D01*
X1176884Y998889D01*
X1127379Y998889D01*
X1127379Y1001200D01*
X1177595Y1048190D02*
X1177595Y1050908D01*
X1177087Y1050908D01*
X1177087Y1050933D01*
X1127405Y1050933D01*
X1127405Y1048673D01*
X1177900Y1033890D02*
X1177900Y1016872D01*
X1127100Y1016364D02*
X1127100Y1025000D01*
X1127100Y1033636D01*
X1127100Y1025000D02*
X1152500Y1050400D01*
D117*
X1123925Y1053575D03*
D10*
X1327392Y1001378D02*
X1327392Y998838D01*
X1326884Y998838D01*
X1326884Y998889D01*
X1277379Y998889D01*
X1277379Y1001200D01*
X1327595Y1048190D02*
X1327595Y1050908D01*
X1327087Y1050908D01*
X1327087Y1050933D01*
X1277405Y1050933D01*
X1277405Y1048673D01*
X1327900Y1033890D02*
X1327900Y1016872D01*
X1277100Y1016364D02*
X1277100Y1025000D01*
X1277100Y1033636D01*
X1277100Y1025000D02*
X1302500Y1050400D01*
D117*
X1273925Y1053575D03*
D10*
X1477392Y1001378D02*
X1477392Y998838D01*
X1476884Y998838D01*
X1476884Y998889D01*
X1427379Y998889D01*
X1427379Y1001200D01*
X1477595Y1048190D02*
X1477595Y1050908D01*
X1477087Y1050908D01*
X1477087Y1050933D01*
X1427405Y1050933D01*
X1427405Y1048673D01*
X1477900Y1033890D02*
X1477900Y1016872D01*
X1427100Y1016364D02*
X1427100Y1025000D01*
X1427100Y1033636D01*
X1427100Y1025000D02*
X1452500Y1050400D01*
D117*
X1423925Y1053575D03*
D10*
X1627392Y1001378D02*
X1627392Y998838D01*
X1626884Y998838D01*
X1626884Y998889D01*
X1577379Y998889D01*
X1577379Y1001200D01*
X1627595Y1048190D02*
X1627595Y1050908D01*
X1627087Y1050908D01*
X1627087Y1050933D01*
X1577405Y1050933D01*
X1577405Y1048673D01*
X1627900Y1033890D02*
X1627900Y1016872D01*
X1577100Y1016364D02*
X1577100Y1025000D01*
X1577100Y1033636D01*
X1577100Y1025000D02*
X1602500Y1050400D01*
D117*
X1573925Y1053575D03*
D10*
X1777392Y1001378D02*
X1777392Y998838D01*
X1776884Y998838D01*
X1776884Y998889D01*
X1727379Y998889D01*
X1727379Y1001200D01*
X1777595Y1048190D02*
X1777595Y1050908D01*
X1777087Y1050908D01*
X1777087Y1050933D01*
X1727405Y1050933D01*
X1727405Y1048673D01*
X1777900Y1033890D02*
X1777900Y1016872D01*
X1727100Y1016364D02*
X1727100Y1025000D01*
X1727100Y1033636D01*
X1727100Y1025000D02*
X1752500Y1050400D01*
D117*
X1723925Y1053575D03*
D10*
X1927392Y1001378D02*
X1927392Y998838D01*
X1926884Y998838D01*
X1926884Y998889D01*
X1877379Y998889D01*
X1877379Y1001200D01*
X1927595Y1048190D02*
X1927595Y1050908D01*
X1927087Y1050908D01*
X1927087Y1050933D01*
X1877405Y1050933D01*
X1877405Y1048673D01*
X1927900Y1033890D02*
X1927900Y1016872D01*
X1877100Y1016364D02*
X1877100Y1025000D01*
X1877100Y1033636D01*
X1877100Y1025000D02*
X1902500Y1050400D01*
D117*
X1873925Y1053575D03*
D10*
X2077392Y1001378D02*
X2077392Y998838D01*
X2076884Y998838D01*
X2076884Y998889D01*
X2027379Y998889D01*
X2027379Y1001200D01*
X2077595Y1048190D02*
X2077595Y1050908D01*
X2077087Y1050908D01*
X2077087Y1050933D01*
X2027405Y1050933D01*
X2027405Y1048673D01*
X2077900Y1033890D02*
X2077900Y1016872D01*
X2027100Y1016364D02*
X2027100Y1025000D01*
X2027100Y1033636D01*
X2027100Y1025000D02*
X2052500Y1050400D01*
D117*
X2023925Y1053575D03*
D10*
X2227392Y1001378D02*
X2227392Y998838D01*
X2226884Y998838D01*
X2226884Y998889D01*
X2177379Y998889D01*
X2177379Y1001200D01*
X2227595Y1048190D02*
X2227595Y1050908D01*
X2227087Y1050908D01*
X2227087Y1050933D01*
X2177405Y1050933D01*
X2177405Y1048673D01*
X2227900Y1033890D02*
X2227900Y1016872D01*
X2177100Y1016364D02*
X2177100Y1025000D01*
X2177100Y1033636D01*
X2177100Y1025000D02*
X2202500Y1050400D01*
D117*
X2173925Y1053575D03*
D10*
X2377392Y1001378D02*
X2377392Y998838D01*
X2376884Y998838D01*
X2376884Y998889D01*
X2327379Y998889D01*
X2327379Y1001200D01*
X2377595Y1048190D02*
X2377595Y1050908D01*
X2377087Y1050908D01*
X2377087Y1050933D01*
X2327405Y1050933D01*
X2327405Y1048673D01*
X2377900Y1033890D02*
X2377900Y1016872D01*
X2327100Y1016364D02*
X2327100Y1025000D01*
X2327100Y1033636D01*
X2327100Y1025000D02*
X2352500Y1050400D01*
D117*
X2323925Y1053575D03*
D10*
X2527392Y1001378D02*
X2527392Y998838D01*
X2526884Y998838D01*
X2526884Y998889D01*
X2477379Y998889D01*
X2477379Y1001200D01*
X2527595Y1048190D02*
X2527595Y1050908D01*
X2527087Y1050908D01*
X2527087Y1050933D01*
X2477405Y1050933D01*
X2477405Y1048673D01*
X2527900Y1033890D02*
X2527900Y1016872D01*
X2477100Y1016364D02*
X2477100Y1025000D01*
X2477100Y1033636D01*
X2477100Y1025000D02*
X2502500Y1050400D01*
D117*
X2473925Y1053575D03*
D10*
X2677392Y1001378D02*
X2677392Y998838D01*
X2676884Y998838D01*
X2676884Y998889D01*
X2627379Y998889D01*
X2627379Y1001200D01*
X2677595Y1048190D02*
X2677595Y1050908D01*
X2677087Y1050908D01*
X2677087Y1050933D01*
X2627405Y1050933D01*
X2627405Y1048673D01*
X2677900Y1033890D02*
X2677900Y1016872D01*
X2627100Y1016364D02*
X2627100Y1025000D01*
X2627100Y1033636D01*
X2627100Y1025000D02*
X2652500Y1050400D01*
D117*
X2623925Y1053575D03*
D10*
X2827392Y1001378D02*
X2827392Y998838D01*
X2826884Y998838D01*
X2826884Y998889D01*
X2777379Y998889D01*
X2777379Y1001200D01*
X2827595Y1048190D02*
X2827595Y1050908D01*
X2827087Y1050908D01*
X2827087Y1050933D01*
X2777405Y1050933D01*
X2777405Y1048673D01*
X2827900Y1033890D02*
X2827900Y1016872D01*
X2777100Y1016364D02*
X2777100Y1025000D01*
X2777100Y1033636D01*
X2777100Y1025000D02*
X2802500Y1050400D01*
D117*
X2773925Y1053575D03*
D10*
X2977392Y1001378D02*
X2977392Y998838D01*
X2976884Y998838D01*
X2976884Y998889D01*
X2927379Y998889D01*
X2927379Y1001200D01*
X2977595Y1048190D02*
X2977595Y1050908D01*
X2977087Y1050908D01*
X2977087Y1050933D01*
X2927405Y1050933D01*
X2927405Y1048673D01*
X2977900Y1033890D02*
X2977900Y1016872D01*
X2927100Y1016364D02*
X2927100Y1025000D01*
X2927100Y1033636D01*
X2927100Y1025000D02*
X2952500Y1050400D01*
D117*
X2923925Y1053575D03*
D10*
X127392Y851378D02*
X127392Y848838D01*
X126884Y848838D01*
X126884Y848889D01*
X77379Y848889D01*
X77379Y851200D01*
X127595Y898190D02*
X127595Y900908D01*
X127087Y900908D01*
X127087Y900933D01*
X77405Y900933D01*
X77405Y898673D01*
X127900Y883890D02*
X127900Y866872D01*
X77100Y866364D02*
X77100Y875000D01*
X77100Y883636D01*
X77100Y875000D02*
X102500Y900400D01*
D117*
X73925Y903575D03*
D10*
X277392Y851378D02*
X277392Y848838D01*
X276884Y848838D01*
X276884Y848889D01*
X227379Y848889D01*
X227379Y851200D01*
X277595Y898190D02*
X277595Y900908D01*
X277087Y900908D01*
X277087Y900933D01*
X227405Y900933D01*
X227405Y898673D01*
X277900Y883890D02*
X277900Y866872D01*
X227100Y866364D02*
X227100Y875000D01*
X227100Y883636D01*
X227100Y875000D02*
X252500Y900400D01*
D117*
X223925Y903575D03*
D10*
X427392Y851378D02*
X427392Y848838D01*
X426884Y848838D01*
X426884Y848889D01*
X377379Y848889D01*
X377379Y851200D01*
X427595Y898190D02*
X427595Y900908D01*
X427087Y900908D01*
X427087Y900933D01*
X377405Y900933D01*
X377405Y898673D01*
X427900Y883890D02*
X427900Y866872D01*
X377100Y866364D02*
X377100Y875000D01*
X377100Y883636D01*
X377100Y875000D02*
X402500Y900400D01*
D117*
X373925Y903575D03*
D10*
X577392Y851378D02*
X577392Y848838D01*
X576884Y848838D01*
X576884Y848889D01*
X527379Y848889D01*
X527379Y851200D01*
X577595Y898190D02*
X577595Y900908D01*
X577087Y900908D01*
X577087Y900933D01*
X527405Y900933D01*
X527405Y898673D01*
X577900Y883890D02*
X577900Y866872D01*
X527100Y866364D02*
X527100Y875000D01*
X527100Y883636D01*
X527100Y875000D02*
X552500Y900400D01*
D117*
X523925Y903575D03*
D10*
X727392Y851378D02*
X727392Y848838D01*
X726884Y848838D01*
X726884Y848889D01*
X677379Y848889D01*
X677379Y851200D01*
X727595Y898190D02*
X727595Y900908D01*
X727087Y900908D01*
X727087Y900933D01*
X677405Y900933D01*
X677405Y898673D01*
X727900Y883890D02*
X727900Y866872D01*
X677100Y866364D02*
X677100Y875000D01*
X677100Y883636D01*
X677100Y875000D02*
X702500Y900400D01*
D117*
X673925Y903575D03*
D10*
X877392Y851378D02*
X877392Y848838D01*
X876884Y848838D01*
X876884Y848889D01*
X827379Y848889D01*
X827379Y851200D01*
X877595Y898190D02*
X877595Y900908D01*
X877087Y900908D01*
X877087Y900933D01*
X827405Y900933D01*
X827405Y898673D01*
X877900Y883890D02*
X877900Y866872D01*
X827100Y866364D02*
X827100Y875000D01*
X827100Y883636D01*
X827100Y875000D02*
X852500Y900400D01*
D117*
X823925Y903575D03*
D10*
X1027392Y851378D02*
X1027392Y848838D01*
X1026884Y848838D01*
X1026884Y848889D01*
X977379Y848889D01*
X977379Y851200D01*
X1027595Y898190D02*
X1027595Y900908D01*
X1027087Y900908D01*
X1027087Y900933D01*
X977405Y900933D01*
X977405Y898673D01*
X1027900Y883890D02*
X1027900Y866872D01*
X977100Y866364D02*
X977100Y875000D01*
X977100Y883636D01*
X977100Y875000D02*
X1002500Y900400D01*
D117*
X973925Y903575D03*
D10*
X1177392Y851378D02*
X1177392Y848838D01*
X1176884Y848838D01*
X1176884Y848889D01*
X1127379Y848889D01*
X1127379Y851200D01*
X1177595Y898190D02*
X1177595Y900908D01*
X1177087Y900908D01*
X1177087Y900933D01*
X1127405Y900933D01*
X1127405Y898673D01*
X1177900Y883890D02*
X1177900Y866872D01*
X1127100Y866364D02*
X1127100Y875000D01*
X1127100Y883636D01*
X1127100Y875000D02*
X1152500Y900400D01*
D117*
X1123925Y903575D03*
D10*
X1327392Y851378D02*
X1327392Y848838D01*
X1326884Y848838D01*
X1326884Y848889D01*
X1277379Y848889D01*
X1277379Y851200D01*
X1327595Y898190D02*
X1327595Y900908D01*
X1327087Y900908D01*
X1327087Y900933D01*
X1277405Y900933D01*
X1277405Y898673D01*
X1327900Y883890D02*
X1327900Y866872D01*
X1277100Y866364D02*
X1277100Y875000D01*
X1277100Y883636D01*
X1277100Y875000D02*
X1302500Y900400D01*
D117*
X1273925Y903575D03*
D10*
X1477392Y851378D02*
X1477392Y848838D01*
X1476884Y848838D01*
X1476884Y848889D01*
X1427379Y848889D01*
X1427379Y851200D01*
X1477595Y898190D02*
X1477595Y900908D01*
X1477087Y900908D01*
X1477087Y900933D01*
X1427405Y900933D01*
X1427405Y898673D01*
X1477900Y883890D02*
X1477900Y866872D01*
X1427100Y866364D02*
X1427100Y875000D01*
X1427100Y883636D01*
X1427100Y875000D02*
X1452500Y900400D01*
D117*
X1423925Y903575D03*
D10*
X1627392Y851378D02*
X1627392Y848838D01*
X1626884Y848838D01*
X1626884Y848889D01*
X1577379Y848889D01*
X1577379Y851200D01*
X1627595Y898190D02*
X1627595Y900908D01*
X1627087Y900908D01*
X1627087Y900933D01*
X1577405Y900933D01*
X1577405Y898673D01*
X1627900Y883890D02*
X1627900Y866872D01*
X1577100Y866364D02*
X1577100Y875000D01*
X1577100Y883636D01*
X1577100Y875000D02*
X1602500Y900400D01*
D117*
X1573925Y903575D03*
D10*
X1777392Y851378D02*
X1777392Y848838D01*
X1776884Y848838D01*
X1776884Y848889D01*
X1727379Y848889D01*
X1727379Y851200D01*
X1777595Y898190D02*
X1777595Y900908D01*
X1777087Y900908D01*
X1777087Y900933D01*
X1727405Y900933D01*
X1727405Y898673D01*
X1777900Y883890D02*
X1777900Y866872D01*
X1727100Y866364D02*
X1727100Y875000D01*
X1727100Y883636D01*
X1727100Y875000D02*
X1752500Y900400D01*
D117*
X1723925Y903575D03*
D10*
X1927392Y851378D02*
X1927392Y848838D01*
X1926884Y848838D01*
X1926884Y848889D01*
X1877379Y848889D01*
X1877379Y851200D01*
X1927595Y898190D02*
X1927595Y900908D01*
X1927087Y900908D01*
X1927087Y900933D01*
X1877405Y900933D01*
X1877405Y898673D01*
X1927900Y883890D02*
X1927900Y866872D01*
X1877100Y866364D02*
X1877100Y875000D01*
X1877100Y883636D01*
X1877100Y875000D02*
X1902500Y900400D01*
D117*
X1873925Y903575D03*
D10*
X2077392Y851378D02*
X2077392Y848838D01*
X2076884Y848838D01*
X2076884Y848889D01*
X2027379Y848889D01*
X2027379Y851200D01*
X2077595Y898190D02*
X2077595Y900908D01*
X2077087Y900908D01*
X2077087Y900933D01*
X2027405Y900933D01*
X2027405Y898673D01*
X2077900Y883890D02*
X2077900Y866872D01*
X2027100Y866364D02*
X2027100Y875000D01*
X2027100Y883636D01*
X2027100Y875000D02*
X2052500Y900400D01*
D117*
X2023925Y903575D03*
D10*
X2227392Y851378D02*
X2227392Y848838D01*
X2226884Y848838D01*
X2226884Y848889D01*
X2177379Y848889D01*
X2177379Y851200D01*
X2227595Y898190D02*
X2227595Y900908D01*
X2227087Y900908D01*
X2227087Y900933D01*
X2177405Y900933D01*
X2177405Y898673D01*
X2227900Y883890D02*
X2227900Y866872D01*
X2177100Y866364D02*
X2177100Y875000D01*
X2177100Y883636D01*
X2177100Y875000D02*
X2202500Y900400D01*
D117*
X2173925Y903575D03*
D10*
X2377392Y851378D02*
X2377392Y848838D01*
X2376884Y848838D01*
X2376884Y848889D01*
X2327379Y848889D01*
X2327379Y851200D01*
X2377595Y898190D02*
X2377595Y900908D01*
X2377087Y900908D01*
X2377087Y900933D01*
X2327405Y900933D01*
X2327405Y898673D01*
X2377900Y883890D02*
X2377900Y866872D01*
X2327100Y866364D02*
X2327100Y875000D01*
X2327100Y883636D01*
X2327100Y875000D02*
X2352500Y900400D01*
D117*
X2323925Y903575D03*
D10*
X2527392Y851378D02*
X2527392Y848838D01*
X2526884Y848838D01*
X2526884Y848889D01*
X2477379Y848889D01*
X2477379Y851200D01*
X2527595Y898190D02*
X2527595Y900908D01*
X2527087Y900908D01*
X2527087Y900933D01*
X2477405Y900933D01*
X2477405Y898673D01*
X2527900Y883890D02*
X2527900Y866872D01*
X2477100Y866364D02*
X2477100Y875000D01*
X2477100Y883636D01*
X2477100Y875000D02*
X2502500Y900400D01*
D117*
X2473925Y903575D03*
D10*
X2677392Y851378D02*
X2677392Y848838D01*
X2676884Y848838D01*
X2676884Y848889D01*
X2627379Y848889D01*
X2627379Y851200D01*
X2677595Y898190D02*
X2677595Y900908D01*
X2677087Y900908D01*
X2677087Y900933D01*
X2627405Y900933D01*
X2627405Y898673D01*
X2677900Y883890D02*
X2677900Y866872D01*
X2627100Y866364D02*
X2627100Y875000D01*
X2627100Y883636D01*
X2627100Y875000D02*
X2652500Y900400D01*
D117*
X2623925Y903575D03*
D10*
X2827392Y851378D02*
X2827392Y848838D01*
X2826884Y848838D01*
X2826884Y848889D01*
X2777379Y848889D01*
X2777379Y851200D01*
X2827595Y898190D02*
X2827595Y900908D01*
X2827087Y900908D01*
X2827087Y900933D01*
X2777405Y900933D01*
X2777405Y898673D01*
X2827900Y883890D02*
X2827900Y866872D01*
X2777100Y866364D02*
X2777100Y875000D01*
X2777100Y883636D01*
X2777100Y875000D02*
X2802500Y900400D01*
D117*
X2773925Y903575D03*
D10*
X2977392Y851378D02*
X2977392Y848838D01*
X2976884Y848838D01*
X2976884Y848889D01*
X2927379Y848889D01*
X2927379Y851200D01*
X2977595Y898190D02*
X2977595Y900908D01*
X2977087Y900908D01*
X2977087Y900933D01*
X2927405Y900933D01*
X2927405Y898673D01*
X2977900Y883890D02*
X2977900Y866872D01*
X2927100Y866364D02*
X2927100Y875000D01*
X2927100Y883636D01*
X2927100Y875000D02*
X2952500Y900400D01*
D117*
X2923925Y903575D03*
D10*
X127392Y701378D02*
X127392Y698838D01*
X126884Y698838D01*
X126884Y698889D01*
X77379Y698889D01*
X77379Y701200D01*
X127595Y748190D02*
X127595Y750908D01*
X127087Y750908D01*
X127087Y750933D01*
X77405Y750933D01*
X77405Y748673D01*
X127900Y733890D02*
X127900Y716872D01*
X77100Y716364D02*
X77100Y725000D01*
X77100Y733636D01*
X77100Y725000D02*
X102500Y750400D01*
D117*
X73925Y753575D03*
D10*
X277392Y701378D02*
X277392Y698838D01*
X276884Y698838D01*
X276884Y698889D01*
X227379Y698889D01*
X227379Y701200D01*
X277595Y748190D02*
X277595Y750908D01*
X277087Y750908D01*
X277087Y750933D01*
X227405Y750933D01*
X227405Y748673D01*
X277900Y733890D02*
X277900Y716872D01*
X227100Y716364D02*
X227100Y725000D01*
X227100Y733636D01*
X227100Y725000D02*
X252500Y750400D01*
D117*
X223925Y753575D03*
D10*
X427392Y701378D02*
X427392Y698838D01*
X426884Y698838D01*
X426884Y698889D01*
X377379Y698889D01*
X377379Y701200D01*
X427595Y748190D02*
X427595Y750908D01*
X427087Y750908D01*
X427087Y750933D01*
X377405Y750933D01*
X377405Y748673D01*
X427900Y733890D02*
X427900Y716872D01*
X377100Y716364D02*
X377100Y725000D01*
X377100Y733636D01*
X377100Y725000D02*
X402500Y750400D01*
D117*
X373925Y753575D03*
D10*
X577392Y701378D02*
X577392Y698838D01*
X576884Y698838D01*
X576884Y698889D01*
X527379Y698889D01*
X527379Y701200D01*
X577595Y748190D02*
X577595Y750908D01*
X577087Y750908D01*
X577087Y750933D01*
X527405Y750933D01*
X527405Y748673D01*
X577900Y733890D02*
X577900Y716872D01*
X527100Y716364D02*
X527100Y725000D01*
X527100Y733636D01*
X527100Y725000D02*
X552500Y750400D01*
D117*
X523925Y753575D03*
D10*
X727392Y701378D02*
X727392Y698838D01*
X726884Y698838D01*
X726884Y698889D01*
X677379Y698889D01*
X677379Y701200D01*
X727595Y748190D02*
X727595Y750908D01*
X727087Y750908D01*
X727087Y750933D01*
X677405Y750933D01*
X677405Y748673D01*
X727900Y733890D02*
X727900Y716872D01*
X677100Y716364D02*
X677100Y725000D01*
X677100Y733636D01*
X677100Y725000D02*
X702500Y750400D01*
D117*
X673925Y753575D03*
D10*
X877392Y701378D02*
X877392Y698838D01*
X876884Y698838D01*
X876884Y698889D01*
X827379Y698889D01*
X827379Y701200D01*
X877595Y748190D02*
X877595Y750908D01*
X877087Y750908D01*
X877087Y750933D01*
X827405Y750933D01*
X827405Y748673D01*
X877900Y733890D02*
X877900Y716872D01*
X827100Y716364D02*
X827100Y725000D01*
X827100Y733636D01*
X827100Y725000D02*
X852500Y750400D01*
D117*
X823925Y753575D03*
D10*
X1027392Y701378D02*
X1027392Y698838D01*
X1026884Y698838D01*
X1026884Y698889D01*
X977379Y698889D01*
X977379Y701200D01*
X1027595Y748190D02*
X1027595Y750908D01*
X1027087Y750908D01*
X1027087Y750933D01*
X977405Y750933D01*
X977405Y748673D01*
X1027900Y733890D02*
X1027900Y716872D01*
X977100Y716364D02*
X977100Y725000D01*
X977100Y733636D01*
X977100Y725000D02*
X1002500Y750400D01*
D117*
X973925Y753575D03*
D10*
X1177392Y701378D02*
X1177392Y698838D01*
X1176884Y698838D01*
X1176884Y698889D01*
X1127379Y698889D01*
X1127379Y701200D01*
X1177595Y748190D02*
X1177595Y750908D01*
X1177087Y750908D01*
X1177087Y750933D01*
X1127405Y750933D01*
X1127405Y748673D01*
X1177900Y733890D02*
X1177900Y716872D01*
X1127100Y716364D02*
X1127100Y725000D01*
X1127100Y733636D01*
X1127100Y725000D02*
X1152500Y750400D01*
D117*
X1123925Y753575D03*
D10*
X1327392Y701378D02*
X1327392Y698838D01*
X1326884Y698838D01*
X1326884Y698889D01*
X1277379Y698889D01*
X1277379Y701200D01*
X1327595Y748190D02*
X1327595Y750908D01*
X1327087Y750908D01*
X1327087Y750933D01*
X1277405Y750933D01*
X1277405Y748673D01*
X1327900Y733890D02*
X1327900Y716872D01*
X1277100Y716364D02*
X1277100Y725000D01*
X1277100Y733636D01*
X1277100Y725000D02*
X1302500Y750400D01*
D117*
X1273925Y753575D03*
D10*
X1477392Y701378D02*
X1477392Y698838D01*
X1476884Y698838D01*
X1476884Y698889D01*
X1427379Y698889D01*
X1427379Y701200D01*
X1477595Y748190D02*
X1477595Y750908D01*
X1477087Y750908D01*
X1477087Y750933D01*
X1427405Y750933D01*
X1427405Y748673D01*
X1477900Y733890D02*
X1477900Y716872D01*
X1427100Y716364D02*
X1427100Y725000D01*
X1427100Y733636D01*
X1427100Y725000D02*
X1452500Y750400D01*
D117*
X1423925Y753575D03*
D10*
X1627392Y701378D02*
X1627392Y698838D01*
X1626884Y698838D01*
X1626884Y698889D01*
X1577379Y698889D01*
X1577379Y701200D01*
X1627595Y748190D02*
X1627595Y750908D01*
X1627087Y750908D01*
X1627087Y750933D01*
X1577405Y750933D01*
X1577405Y748673D01*
X1627900Y733890D02*
X1627900Y716872D01*
X1577100Y716364D02*
X1577100Y725000D01*
X1577100Y733636D01*
X1577100Y725000D02*
X1602500Y750400D01*
D117*
X1573925Y753575D03*
D10*
X1777392Y701378D02*
X1777392Y698838D01*
X1776884Y698838D01*
X1776884Y698889D01*
X1727379Y698889D01*
X1727379Y701200D01*
X1777595Y748190D02*
X1777595Y750908D01*
X1777087Y750908D01*
X1777087Y750933D01*
X1727405Y750933D01*
X1727405Y748673D01*
X1777900Y733890D02*
X1777900Y716872D01*
X1727100Y716364D02*
X1727100Y725000D01*
X1727100Y733636D01*
X1727100Y725000D02*
X1752500Y750400D01*
D117*
X1723925Y753575D03*
D10*
X1927392Y701378D02*
X1927392Y698838D01*
X1926884Y698838D01*
X1926884Y698889D01*
X1877379Y698889D01*
X1877379Y701200D01*
X1927595Y748190D02*
X1927595Y750908D01*
X1927087Y750908D01*
X1927087Y750933D01*
X1877405Y750933D01*
X1877405Y748673D01*
X1927900Y733890D02*
X1927900Y716872D01*
X1877100Y716364D02*
X1877100Y725000D01*
X1877100Y733636D01*
X1877100Y725000D02*
X1902500Y750400D01*
D117*
X1873925Y753575D03*
D10*
X2077392Y701378D02*
X2077392Y698838D01*
X2076884Y698838D01*
X2076884Y698889D01*
X2027379Y698889D01*
X2027379Y701200D01*
X2077595Y748190D02*
X2077595Y750908D01*
X2077087Y750908D01*
X2077087Y750933D01*
X2027405Y750933D01*
X2027405Y748673D01*
X2077900Y733890D02*
X2077900Y716872D01*
X2027100Y716364D02*
X2027100Y725000D01*
X2027100Y733636D01*
X2027100Y725000D02*
X2052500Y750400D01*
D117*
X2023925Y753575D03*
D10*
X2227392Y701378D02*
X2227392Y698838D01*
X2226884Y698838D01*
X2226884Y698889D01*
X2177379Y698889D01*
X2177379Y701200D01*
X2227595Y748190D02*
X2227595Y750908D01*
X2227087Y750908D01*
X2227087Y750933D01*
X2177405Y750933D01*
X2177405Y748673D01*
X2227900Y733890D02*
X2227900Y716872D01*
X2177100Y716364D02*
X2177100Y725000D01*
X2177100Y733636D01*
X2177100Y725000D02*
X2202500Y750400D01*
D117*
X2173925Y753575D03*
D10*
X2377392Y701378D02*
X2377392Y698838D01*
X2376884Y698838D01*
X2376884Y698889D01*
X2327379Y698889D01*
X2327379Y701200D01*
X2377595Y748190D02*
X2377595Y750908D01*
X2377087Y750908D01*
X2377087Y750933D01*
X2327405Y750933D01*
X2327405Y748673D01*
X2377900Y733890D02*
X2377900Y716872D01*
X2327100Y716364D02*
X2327100Y725000D01*
X2327100Y733636D01*
X2327100Y725000D02*
X2352500Y750400D01*
D117*
X2323925Y753575D03*
D10*
X2527392Y701378D02*
X2527392Y698838D01*
X2526884Y698838D01*
X2526884Y698889D01*
X2477379Y698889D01*
X2477379Y701200D01*
X2527595Y748190D02*
X2527595Y750908D01*
X2527087Y750908D01*
X2527087Y750933D01*
X2477405Y750933D01*
X2477405Y748673D01*
X2527900Y733890D02*
X2527900Y716872D01*
X2477100Y716364D02*
X2477100Y725000D01*
X2477100Y733636D01*
X2477100Y725000D02*
X2502500Y750400D01*
D117*
X2473925Y753575D03*
D10*
X2677392Y701378D02*
X2677392Y698838D01*
X2676884Y698838D01*
X2676884Y698889D01*
X2627379Y698889D01*
X2627379Y701200D01*
X2677595Y748190D02*
X2677595Y750908D01*
X2677087Y750908D01*
X2677087Y750933D01*
X2627405Y750933D01*
X2627405Y748673D01*
X2677900Y733890D02*
X2677900Y716872D01*
X2627100Y716364D02*
X2627100Y725000D01*
X2627100Y733636D01*
X2627100Y725000D02*
X2652500Y750400D01*
D117*
X2623925Y753575D03*
D10*
X2827392Y701378D02*
X2827392Y698838D01*
X2826884Y698838D01*
X2826884Y698889D01*
X2777379Y698889D01*
X2777379Y701200D01*
X2827595Y748190D02*
X2827595Y750908D01*
X2827087Y750908D01*
X2827087Y750933D01*
X2777405Y750933D01*
X2777405Y748673D01*
X2827900Y733890D02*
X2827900Y716872D01*
X2777100Y716364D02*
X2777100Y725000D01*
X2777100Y733636D01*
X2777100Y725000D02*
X2802500Y750400D01*
D117*
X2773925Y753575D03*
D10*
X2977392Y701378D02*
X2977392Y698838D01*
X2976884Y698838D01*
X2976884Y698889D01*
X2927379Y698889D01*
X2927379Y701200D01*
X2977595Y748190D02*
X2977595Y750908D01*
X2977087Y750908D01*
X2977087Y750933D01*
X2927405Y750933D01*
X2927405Y748673D01*
X2977900Y733890D02*
X2977900Y716872D01*
X2927100Y716364D02*
X2927100Y725000D01*
X2927100Y733636D01*
X2927100Y725000D02*
X2952500Y750400D01*
D117*
X2923925Y753575D03*
D10*
X127392Y551378D02*
X127392Y548838D01*
X126884Y548838D01*
X126884Y548889D01*
X77379Y548889D01*
X77379Y551200D01*
X127595Y598190D02*
X127595Y600908D01*
X127087Y600908D01*
X127087Y600933D01*
X77405Y600933D01*
X77405Y598673D01*
X127900Y583890D02*
X127900Y566872D01*
X77100Y566364D02*
X77100Y575000D01*
X77100Y583636D01*
X77100Y575000D02*
X102500Y600400D01*
D117*
X73925Y603575D03*
D10*
X277392Y551378D02*
X277392Y548838D01*
X276884Y548838D01*
X276884Y548889D01*
X227379Y548889D01*
X227379Y551200D01*
X277595Y598190D02*
X277595Y600908D01*
X277087Y600908D01*
X277087Y600933D01*
X227405Y600933D01*
X227405Y598673D01*
X277900Y583890D02*
X277900Y566872D01*
X227100Y566364D02*
X227100Y575000D01*
X227100Y583636D01*
X227100Y575000D02*
X252500Y600400D01*
D117*
X223925Y603575D03*
D10*
X427392Y551378D02*
X427392Y548838D01*
X426884Y548838D01*
X426884Y548889D01*
X377379Y548889D01*
X377379Y551200D01*
X427595Y598190D02*
X427595Y600908D01*
X427087Y600908D01*
X427087Y600933D01*
X377405Y600933D01*
X377405Y598673D01*
X427900Y583890D02*
X427900Y566872D01*
X377100Y566364D02*
X377100Y575000D01*
X377100Y583636D01*
X377100Y575000D02*
X402500Y600400D01*
D117*
X373925Y603575D03*
D10*
X577392Y551378D02*
X577392Y548838D01*
X576884Y548838D01*
X576884Y548889D01*
X527379Y548889D01*
X527379Y551200D01*
X577595Y598190D02*
X577595Y600908D01*
X577087Y600908D01*
X577087Y600933D01*
X527405Y600933D01*
X527405Y598673D01*
X577900Y583890D02*
X577900Y566872D01*
X527100Y566364D02*
X527100Y575000D01*
X527100Y583636D01*
X527100Y575000D02*
X552500Y600400D01*
D117*
X523925Y603575D03*
D10*
X727392Y551378D02*
X727392Y548838D01*
X726884Y548838D01*
X726884Y548889D01*
X677379Y548889D01*
X677379Y551200D01*
X727595Y598190D02*
X727595Y600908D01*
X727087Y600908D01*
X727087Y600933D01*
X677405Y600933D01*
X677405Y598673D01*
X727900Y583890D02*
X727900Y566872D01*
X677100Y566364D02*
X677100Y575000D01*
X677100Y583636D01*
X677100Y575000D02*
X702500Y600400D01*
D117*
X673925Y603575D03*
D10*
X877392Y551378D02*
X877392Y548838D01*
X876884Y548838D01*
X876884Y548889D01*
X827379Y548889D01*
X827379Y551200D01*
X877595Y598190D02*
X877595Y600908D01*
X877087Y600908D01*
X877087Y600933D01*
X827405Y600933D01*
X827405Y598673D01*
X877900Y583890D02*
X877900Y566872D01*
X827100Y566364D02*
X827100Y575000D01*
X827100Y583636D01*
X827100Y575000D02*
X852500Y600400D01*
D117*
X823925Y603575D03*
D10*
X1027392Y551378D02*
X1027392Y548838D01*
X1026884Y548838D01*
X1026884Y548889D01*
X977379Y548889D01*
X977379Y551200D01*
X1027595Y598190D02*
X1027595Y600908D01*
X1027087Y600908D01*
X1027087Y600933D01*
X977405Y600933D01*
X977405Y598673D01*
X1027900Y583890D02*
X1027900Y566872D01*
X977100Y566364D02*
X977100Y575000D01*
X977100Y583636D01*
X977100Y575000D02*
X1002500Y600400D01*
D117*
X973925Y603575D03*
D10*
X1177392Y551378D02*
X1177392Y548838D01*
X1176884Y548838D01*
X1176884Y548889D01*
X1127379Y548889D01*
X1127379Y551200D01*
X1177595Y598190D02*
X1177595Y600908D01*
X1177087Y600908D01*
X1177087Y600933D01*
X1127405Y600933D01*
X1127405Y598673D01*
X1177900Y583890D02*
X1177900Y566872D01*
X1127100Y566364D02*
X1127100Y575000D01*
X1127100Y583636D01*
X1127100Y575000D02*
X1152500Y600400D01*
D117*
X1123925Y603575D03*
D10*
X1327392Y551378D02*
X1327392Y548838D01*
X1326884Y548838D01*
X1326884Y548889D01*
X1277379Y548889D01*
X1277379Y551200D01*
X1327595Y598190D02*
X1327595Y600908D01*
X1327087Y600908D01*
X1327087Y600933D01*
X1277405Y600933D01*
X1277405Y598673D01*
X1327900Y583890D02*
X1327900Y566872D01*
X1277100Y566364D02*
X1277100Y575000D01*
X1277100Y583636D01*
X1277100Y575000D02*
X1302500Y600400D01*
D117*
X1273925Y603575D03*
D10*
X1477392Y551378D02*
X1477392Y548838D01*
X1476884Y548838D01*
X1476884Y548889D01*
X1427379Y548889D01*
X1427379Y551200D01*
X1477595Y598190D02*
X1477595Y600908D01*
X1477087Y600908D01*
X1477087Y600933D01*
X1427405Y600933D01*
X1427405Y598673D01*
X1477900Y583890D02*
X1477900Y566872D01*
X1427100Y566364D02*
X1427100Y575000D01*
X1427100Y583636D01*
X1427100Y575000D02*
X1452500Y600400D01*
D117*
X1423925Y603575D03*
D10*
X1627392Y551378D02*
X1627392Y548838D01*
X1626884Y548838D01*
X1626884Y548889D01*
X1577379Y548889D01*
X1577379Y551200D01*
X1627595Y598190D02*
X1627595Y600908D01*
X1627087Y600908D01*
X1627087Y600933D01*
X1577405Y600933D01*
X1577405Y598673D01*
X1627900Y583890D02*
X1627900Y566872D01*
X1577100Y566364D02*
X1577100Y575000D01*
X1577100Y583636D01*
X1577100Y575000D02*
X1602500Y600400D01*
D117*
X1573925Y603575D03*
D10*
X1777392Y551378D02*
X1777392Y548838D01*
X1776884Y548838D01*
X1776884Y548889D01*
X1727379Y548889D01*
X1727379Y551200D01*
X1777595Y598190D02*
X1777595Y600908D01*
X1777087Y600908D01*
X1777087Y600933D01*
X1727405Y600933D01*
X1727405Y598673D01*
X1777900Y583890D02*
X1777900Y566872D01*
X1727100Y566364D02*
X1727100Y575000D01*
X1727100Y583636D01*
X1727100Y575000D02*
X1752500Y600400D01*
D117*
X1723925Y603575D03*
D10*
X1927392Y551378D02*
X1927392Y548838D01*
X1926884Y548838D01*
X1926884Y548889D01*
X1877379Y548889D01*
X1877379Y551200D01*
X1927595Y598190D02*
X1927595Y600908D01*
X1927087Y600908D01*
X1927087Y600933D01*
X1877405Y600933D01*
X1877405Y598673D01*
X1927900Y583890D02*
X1927900Y566872D01*
X1877100Y566364D02*
X1877100Y575000D01*
X1877100Y583636D01*
X1877100Y575000D02*
X1902500Y600400D01*
D117*
X1873925Y603575D03*
D10*
X2077392Y551378D02*
X2077392Y548838D01*
X2076884Y548838D01*
X2076884Y548889D01*
X2027379Y548889D01*
X2027379Y551200D01*
X2077595Y598190D02*
X2077595Y600908D01*
X2077087Y600908D01*
X2077087Y600933D01*
X2027405Y600933D01*
X2027405Y598673D01*
X2077900Y583890D02*
X2077900Y566872D01*
X2027100Y566364D02*
X2027100Y575000D01*
X2027100Y583636D01*
X2027100Y575000D02*
X2052500Y600400D01*
D117*
X2023925Y603575D03*
D10*
X2227392Y551378D02*
X2227392Y548838D01*
X2226884Y548838D01*
X2226884Y548889D01*
X2177379Y548889D01*
X2177379Y551200D01*
X2227595Y598190D02*
X2227595Y600908D01*
X2227087Y600908D01*
X2227087Y600933D01*
X2177405Y600933D01*
X2177405Y598673D01*
X2227900Y583890D02*
X2227900Y566872D01*
X2177100Y566364D02*
X2177100Y575000D01*
X2177100Y583636D01*
X2177100Y575000D02*
X2202500Y600400D01*
D117*
X2173925Y603575D03*
D10*
X2377392Y551378D02*
X2377392Y548838D01*
X2376884Y548838D01*
X2376884Y548889D01*
X2327379Y548889D01*
X2327379Y551200D01*
X2377595Y598190D02*
X2377595Y600908D01*
X2377087Y600908D01*
X2377087Y600933D01*
X2327405Y600933D01*
X2327405Y598673D01*
X2377900Y583890D02*
X2377900Y566872D01*
X2327100Y566364D02*
X2327100Y575000D01*
X2327100Y583636D01*
X2327100Y575000D02*
X2352500Y600400D01*
D117*
X2323925Y603575D03*
D10*
X2527392Y551378D02*
X2527392Y548838D01*
X2526884Y548838D01*
X2526884Y548889D01*
X2477379Y548889D01*
X2477379Y551200D01*
X2527595Y598190D02*
X2527595Y600908D01*
X2527087Y600908D01*
X2527087Y600933D01*
X2477405Y600933D01*
X2477405Y598673D01*
X2527900Y583890D02*
X2527900Y566872D01*
X2477100Y566364D02*
X2477100Y575000D01*
X2477100Y583636D01*
X2477100Y575000D02*
X2502500Y600400D01*
D117*
X2473925Y603575D03*
D10*
X2677392Y551378D02*
X2677392Y548838D01*
X2676884Y548838D01*
X2676884Y548889D01*
X2627379Y548889D01*
X2627379Y551200D01*
X2677595Y598190D02*
X2677595Y600908D01*
X2677087Y600908D01*
X2677087Y600933D01*
X2627405Y600933D01*
X2627405Y598673D01*
X2677900Y583890D02*
X2677900Y566872D01*
X2627100Y566364D02*
X2627100Y575000D01*
X2627100Y583636D01*
X2627100Y575000D02*
X2652500Y600400D01*
D117*
X2623925Y603575D03*
D10*
X2827392Y551378D02*
X2827392Y548838D01*
X2826884Y548838D01*
X2826884Y548889D01*
X2777379Y548889D01*
X2777379Y551200D01*
X2827595Y598190D02*
X2827595Y600908D01*
X2827087Y600908D01*
X2827087Y600933D01*
X2777405Y600933D01*
X2777405Y598673D01*
X2827900Y583890D02*
X2827900Y566872D01*
X2777100Y566364D02*
X2777100Y575000D01*
X2777100Y583636D01*
X2777100Y575000D02*
X2802500Y600400D01*
D117*
X2773925Y603575D03*
D10*
X2977392Y551378D02*
X2977392Y548838D01*
X2976884Y548838D01*
X2976884Y548889D01*
X2927379Y548889D01*
X2927379Y551200D01*
X2977595Y598190D02*
X2977595Y600908D01*
X2977087Y600908D01*
X2977087Y600933D01*
X2927405Y600933D01*
X2927405Y598673D01*
X2977900Y583890D02*
X2977900Y566872D01*
X2927100Y566364D02*
X2927100Y575000D01*
X2927100Y583636D01*
X2927100Y575000D02*
X2952500Y600400D01*
D117*
X2923925Y603575D03*
D10*
X277392Y401378D02*
X277392Y398838D01*
X276884Y398838D01*
X276884Y398889D01*
X227379Y398889D01*
X227379Y401200D01*
X277595Y448190D02*
X277595Y450908D01*
X277087Y450908D01*
X277087Y450933D01*
X227405Y450933D01*
X227405Y448673D01*
X277900Y433890D02*
X277900Y416872D01*
X227100Y416364D02*
X227100Y425000D01*
X227100Y433636D01*
X227100Y425000D02*
X252500Y450400D01*
D117*
X223925Y453575D03*
D10*
X427392Y401378D02*
X427392Y398838D01*
X426884Y398838D01*
X426884Y398889D01*
X377379Y398889D01*
X377379Y401200D01*
X427595Y448190D02*
X427595Y450908D01*
X427087Y450908D01*
X427087Y450933D01*
X377405Y450933D01*
X377405Y448673D01*
X427900Y433890D02*
X427900Y416872D01*
X377100Y416364D02*
X377100Y425000D01*
X377100Y433636D01*
X377100Y425000D02*
X402500Y450400D01*
D117*
X373925Y453575D03*
D10*
X577392Y401378D02*
X577392Y398838D01*
X576884Y398838D01*
X576884Y398889D01*
X527379Y398889D01*
X527379Y401200D01*
X577595Y448190D02*
X577595Y450908D01*
X577087Y450908D01*
X577087Y450933D01*
X527405Y450933D01*
X527405Y448673D01*
X577900Y433890D02*
X577900Y416872D01*
X527100Y416364D02*
X527100Y425000D01*
X527100Y433636D01*
X527100Y425000D02*
X552500Y450400D01*
D117*
X523925Y453575D03*
D10*
X727392Y401378D02*
X727392Y398838D01*
X726884Y398838D01*
X726884Y398889D01*
X677379Y398889D01*
X677379Y401200D01*
X727595Y448190D02*
X727595Y450908D01*
X727087Y450908D01*
X727087Y450933D01*
X677405Y450933D01*
X677405Y448673D01*
X727900Y433890D02*
X727900Y416872D01*
X677100Y416364D02*
X677100Y425000D01*
X677100Y433636D01*
X677100Y425000D02*
X702500Y450400D01*
D117*
X673925Y453575D03*
D10*
X877392Y401378D02*
X877392Y398838D01*
X876884Y398838D01*
X876884Y398889D01*
X827379Y398889D01*
X827379Y401200D01*
X877595Y448190D02*
X877595Y450908D01*
X877087Y450908D01*
X877087Y450933D01*
X827405Y450933D01*
X827405Y448673D01*
X877900Y433890D02*
X877900Y416872D01*
X827100Y416364D02*
X827100Y425000D01*
X827100Y433636D01*
X827100Y425000D02*
X852500Y450400D01*
D117*
X823925Y453575D03*
D10*
X1027392Y401378D02*
X1027392Y398838D01*
X1026884Y398838D01*
X1026884Y398889D01*
X977379Y398889D01*
X977379Y401200D01*
X1027595Y448190D02*
X1027595Y450908D01*
X1027087Y450908D01*
X1027087Y450933D01*
X977405Y450933D01*
X977405Y448673D01*
X1027900Y433890D02*
X1027900Y416872D01*
X977100Y416364D02*
X977100Y425000D01*
X977100Y433636D01*
X977100Y425000D02*
X1002500Y450400D01*
D117*
X973925Y453575D03*
D10*
X1177392Y401378D02*
X1177392Y398838D01*
X1176884Y398838D01*
X1176884Y398889D01*
X1127379Y398889D01*
X1127379Y401200D01*
X1177595Y448190D02*
X1177595Y450908D01*
X1177087Y450908D01*
X1177087Y450933D01*
X1127405Y450933D01*
X1127405Y448673D01*
X1177900Y433890D02*
X1177900Y416872D01*
X1127100Y416364D02*
X1127100Y425000D01*
X1127100Y433636D01*
X1127100Y425000D02*
X1152500Y450400D01*
D117*
X1123925Y453575D03*
D10*
X1327392Y401378D02*
X1327392Y398838D01*
X1326884Y398838D01*
X1326884Y398889D01*
X1277379Y398889D01*
X1277379Y401200D01*
X1327595Y448190D02*
X1327595Y450908D01*
X1327087Y450908D01*
X1327087Y450933D01*
X1277405Y450933D01*
X1277405Y448673D01*
X1327900Y433890D02*
X1327900Y416872D01*
X1277100Y416364D02*
X1277100Y425000D01*
X1277100Y433636D01*
X1277100Y425000D02*
X1302500Y450400D01*
D117*
X1273925Y453575D03*
D10*
X1477392Y401378D02*
X1477392Y398838D01*
X1476884Y398838D01*
X1476884Y398889D01*
X1427379Y398889D01*
X1427379Y401200D01*
X1477595Y448190D02*
X1477595Y450908D01*
X1477087Y450908D01*
X1477087Y450933D01*
X1427405Y450933D01*
X1427405Y448673D01*
X1477900Y433890D02*
X1477900Y416872D01*
X1427100Y416364D02*
X1427100Y425000D01*
X1427100Y433636D01*
X1427100Y425000D02*
X1452500Y450400D01*
D117*
X1423925Y453575D03*
D10*
X1627392Y401378D02*
X1627392Y398838D01*
X1626884Y398838D01*
X1626884Y398889D01*
X1577379Y398889D01*
X1577379Y401200D01*
X1627595Y448190D02*
X1627595Y450908D01*
X1627087Y450908D01*
X1627087Y450933D01*
X1577405Y450933D01*
X1577405Y448673D01*
X1627900Y433890D02*
X1627900Y416872D01*
X1577100Y416364D02*
X1577100Y425000D01*
X1577100Y433636D01*
X1577100Y425000D02*
X1602500Y450400D01*
D117*
X1573925Y453575D03*
D10*
X1777392Y401378D02*
X1777392Y398838D01*
X1776884Y398838D01*
X1776884Y398889D01*
X1727379Y398889D01*
X1727379Y401200D01*
X1777595Y448190D02*
X1777595Y450908D01*
X1777087Y450908D01*
X1777087Y450933D01*
X1727405Y450933D01*
X1727405Y448673D01*
X1777900Y433890D02*
X1777900Y416872D01*
X1727100Y416364D02*
X1727100Y425000D01*
X1727100Y433636D01*
X1727100Y425000D02*
X1752500Y450400D01*
D117*
X1723925Y453575D03*
D10*
X1927392Y401378D02*
X1927392Y398838D01*
X1926884Y398838D01*
X1926884Y398889D01*
X1877379Y398889D01*
X1877379Y401200D01*
X1927595Y448190D02*
X1927595Y450908D01*
X1927087Y450908D01*
X1927087Y450933D01*
X1877405Y450933D01*
X1877405Y448673D01*
X1927900Y433890D02*
X1927900Y416872D01*
X1877100Y416364D02*
X1877100Y425000D01*
X1877100Y433636D01*
X1877100Y425000D02*
X1902500Y450400D01*
D117*
X1873925Y453575D03*
D10*
X2077392Y401378D02*
X2077392Y398838D01*
X2076884Y398838D01*
X2076884Y398889D01*
X2027379Y398889D01*
X2027379Y401200D01*
X2077595Y448190D02*
X2077595Y450908D01*
X2077087Y450908D01*
X2077087Y450933D01*
X2027405Y450933D01*
X2027405Y448673D01*
X2077900Y433890D02*
X2077900Y416872D01*
X2027100Y416364D02*
X2027100Y425000D01*
X2027100Y433636D01*
X2027100Y425000D02*
X2052500Y450400D01*
D117*
X2023925Y453575D03*
D10*
X2227392Y401378D02*
X2227392Y398838D01*
X2226884Y398838D01*
X2226884Y398889D01*
X2177379Y398889D01*
X2177379Y401200D01*
X2227595Y448190D02*
X2227595Y450908D01*
X2227087Y450908D01*
X2227087Y450933D01*
X2177405Y450933D01*
X2177405Y448673D01*
X2227900Y433890D02*
X2227900Y416872D01*
X2177100Y416364D02*
X2177100Y425000D01*
X2177100Y433636D01*
X2177100Y425000D02*
X2202500Y450400D01*
D117*
X2173925Y453575D03*
D10*
X2377392Y401378D02*
X2377392Y398838D01*
X2376884Y398838D01*
X2376884Y398889D01*
X2327379Y398889D01*
X2327379Y401200D01*
X2377595Y448190D02*
X2377595Y450908D01*
X2377087Y450908D01*
X2377087Y450933D01*
X2327405Y450933D01*
X2327405Y448673D01*
X2377900Y433890D02*
X2377900Y416872D01*
X2327100Y416364D02*
X2327100Y425000D01*
X2327100Y433636D01*
X2327100Y425000D02*
X2352500Y450400D01*
D117*
X2323925Y453575D03*
D10*
X2527392Y401378D02*
X2527392Y398838D01*
X2526884Y398838D01*
X2526884Y398889D01*
X2477379Y398889D01*
X2477379Y401200D01*
X2527595Y448190D02*
X2527595Y450908D01*
X2527087Y450908D01*
X2527087Y450933D01*
X2477405Y450933D01*
X2477405Y448673D01*
X2527900Y433890D02*
X2527900Y416872D01*
X2477100Y416364D02*
X2477100Y425000D01*
X2477100Y433636D01*
X2477100Y425000D02*
X2502500Y450400D01*
D117*
X2473925Y453575D03*
D10*
X2677392Y401378D02*
X2677392Y398838D01*
X2676884Y398838D01*
X2676884Y398889D01*
X2627379Y398889D01*
X2627379Y401200D01*
X2677595Y448190D02*
X2677595Y450908D01*
X2677087Y450908D01*
X2677087Y450933D01*
X2627405Y450933D01*
X2627405Y448673D01*
X2677900Y433890D02*
X2677900Y416872D01*
X2627100Y416364D02*
X2627100Y425000D01*
X2627100Y433636D01*
X2627100Y425000D02*
X2652500Y450400D01*
D117*
X2623925Y453575D03*
D10*
X2827392Y401378D02*
X2827392Y398838D01*
X2826884Y398838D01*
X2826884Y398889D01*
X2777379Y398889D01*
X2777379Y401200D01*
X2827595Y448190D02*
X2827595Y450908D01*
X2827087Y450908D01*
X2827087Y450933D01*
X2777405Y450933D01*
X2777405Y448673D01*
X2827900Y433890D02*
X2827900Y416872D01*
X2777100Y416364D02*
X2777100Y425000D01*
X2777100Y433636D01*
X2777100Y425000D02*
X2802500Y450400D01*
D117*
X2773925Y453575D03*
D10*
X2977392Y401378D02*
X2977392Y398838D01*
X2976884Y398838D01*
X2976884Y398889D01*
X2927379Y398889D01*
X2927379Y401200D01*
X2977595Y448190D02*
X2977595Y450908D01*
X2977087Y450908D01*
X2977087Y450933D01*
X2927405Y450933D01*
X2927405Y448673D01*
X2977900Y433890D02*
X2977900Y416872D01*
X2927100Y416364D02*
X2927100Y425000D01*
X2927100Y433636D01*
X2927100Y425000D02*
X2952500Y450400D01*
D117*
X2923925Y453575D03*
D10*
X877392Y251378D02*
X877392Y248838D01*
X876884Y248838D01*
X876884Y248889D01*
X827379Y248889D01*
X827379Y251200D01*
X877595Y298190D02*
X877595Y300908D01*
X877087Y300908D01*
X877087Y300933D01*
X827405Y300933D01*
X827405Y298673D01*
X877900Y283890D02*
X877900Y266872D01*
X827100Y266364D02*
X827100Y275000D01*
X827100Y283636D01*
X827100Y275000D02*
X852500Y300400D01*
D117*
X823925Y303575D03*
D10*
X1027392Y251378D02*
X1027392Y248838D01*
X1026884Y248838D01*
X1026884Y248889D01*
X977379Y248889D01*
X977379Y251200D01*
X1027595Y298190D02*
X1027595Y300908D01*
X1027087Y300908D01*
X1027087Y300933D01*
X977405Y300933D01*
X977405Y298673D01*
X1027900Y283890D02*
X1027900Y266872D01*
X977100Y266364D02*
X977100Y275000D01*
X977100Y283636D01*
X977100Y275000D02*
X1002500Y300400D01*
D117*
X973925Y303575D03*
D10*
X1177392Y251378D02*
X1177392Y248838D01*
X1176884Y248838D01*
X1176884Y248889D01*
X1127379Y248889D01*
X1127379Y251200D01*
X1177595Y298190D02*
X1177595Y300908D01*
X1177087Y300908D01*
X1177087Y300933D01*
X1127405Y300933D01*
X1127405Y298673D01*
X1177900Y283890D02*
X1177900Y266872D01*
X1127100Y266364D02*
X1127100Y275000D01*
X1127100Y283636D01*
X1127100Y275000D02*
X1152500Y300400D01*
D117*
X1123925Y303575D03*
D10*
X1327392Y251378D02*
X1327392Y248838D01*
X1326884Y248838D01*
X1326884Y248889D01*
X1277379Y248889D01*
X1277379Y251200D01*
X1327595Y298190D02*
X1327595Y300908D01*
X1327087Y300908D01*
X1327087Y300933D01*
X1277405Y300933D01*
X1277405Y298673D01*
X1327900Y283890D02*
X1327900Y266872D01*
X1277100Y266364D02*
X1277100Y275000D01*
X1277100Y283636D01*
X1277100Y275000D02*
X1302500Y300400D01*
D117*
X1273925Y303575D03*
D10*
X1477392Y251378D02*
X1477392Y248838D01*
X1476884Y248838D01*
X1476884Y248889D01*
X1427379Y248889D01*
X1427379Y251200D01*
X1477595Y298190D02*
X1477595Y300908D01*
X1477087Y300908D01*
X1477087Y300933D01*
X1427405Y300933D01*
X1427405Y298673D01*
X1477900Y283890D02*
X1477900Y266872D01*
X1427100Y266364D02*
X1427100Y275000D01*
X1427100Y283636D01*
X1427100Y275000D02*
X1452500Y300400D01*
D117*
X1423925Y303575D03*
D10*
X1627392Y251378D02*
X1627392Y248838D01*
X1626884Y248838D01*
X1626884Y248889D01*
X1577379Y248889D01*
X1577379Y251200D01*
X1627595Y298190D02*
X1627595Y300908D01*
X1627087Y300908D01*
X1627087Y300933D01*
X1577405Y300933D01*
X1577405Y298673D01*
X1627900Y283890D02*
X1627900Y266872D01*
X1577100Y266364D02*
X1577100Y275000D01*
X1577100Y283636D01*
X1577100Y275000D02*
X1602500Y300400D01*
D117*
X1573925Y303575D03*
D10*
X1777392Y251378D02*
X1777392Y248838D01*
X1776884Y248838D01*
X1776884Y248889D01*
X1727379Y248889D01*
X1727379Y251200D01*
X1777595Y298190D02*
X1777595Y300908D01*
X1777087Y300908D01*
X1777087Y300933D01*
X1727405Y300933D01*
X1727405Y298673D01*
X1777900Y283890D02*
X1777900Y266872D01*
X1727100Y266364D02*
X1727100Y275000D01*
X1727100Y283636D01*
X1727100Y275000D02*
X1752500Y300400D01*
D117*
X1723925Y303575D03*
D10*
X1927392Y251378D02*
X1927392Y248838D01*
X1926884Y248838D01*
X1926884Y248889D01*
X1877379Y248889D01*
X1877379Y251200D01*
X1927595Y298190D02*
X1927595Y300908D01*
X1927087Y300908D01*
X1927087Y300933D01*
X1877405Y300933D01*
X1877405Y298673D01*
X1927900Y283890D02*
X1927900Y266872D01*
X1877100Y266364D02*
X1877100Y275000D01*
X1877100Y283636D01*
X1877100Y275000D02*
X1902500Y300400D01*
D117*
X1873925Y303575D03*
D10*
X2077392Y251378D02*
X2077392Y248838D01*
X2076884Y248838D01*
X2076884Y248889D01*
X2027379Y248889D01*
X2027379Y251200D01*
X2077595Y298190D02*
X2077595Y300908D01*
X2077087Y300908D01*
X2077087Y300933D01*
X2027405Y300933D01*
X2027405Y298673D01*
X2077900Y283890D02*
X2077900Y266872D01*
X2027100Y266364D02*
X2027100Y275000D01*
X2027100Y283636D01*
X2027100Y275000D02*
X2052500Y300400D01*
D117*
X2023925Y303575D03*
D10*
X2227392Y251378D02*
X2227392Y248838D01*
X2226884Y248838D01*
X2226884Y248889D01*
X2177379Y248889D01*
X2177379Y251200D01*
X2227595Y298190D02*
X2227595Y300908D01*
X2227087Y300908D01*
X2227087Y300933D01*
X2177405Y300933D01*
X2177405Y298673D01*
X2227900Y283890D02*
X2227900Y266872D01*
X2177100Y266364D02*
X2177100Y275000D01*
X2177100Y283636D01*
X2177100Y275000D02*
X2202500Y300400D01*
D117*
X2173925Y303575D03*
D10*
X2377392Y251378D02*
X2377392Y248838D01*
X2376884Y248838D01*
X2376884Y248889D01*
X2327379Y248889D01*
X2327379Y251200D01*
X2377595Y298190D02*
X2377595Y300908D01*
X2377087Y300908D01*
X2377087Y300933D01*
X2327405Y300933D01*
X2327405Y298673D01*
X2377900Y283890D02*
X2377900Y266872D01*
X2327100Y266364D02*
X2327100Y275000D01*
X2327100Y283636D01*
X2327100Y275000D02*
X2352500Y300400D01*
D117*
X2323925Y303575D03*
D10*
X2527392Y251378D02*
X2527392Y248838D01*
X2526884Y248838D01*
X2526884Y248889D01*
X2477379Y248889D01*
X2477379Y251200D01*
X2527595Y298190D02*
X2527595Y300908D01*
X2527087Y300908D01*
X2527087Y300933D01*
X2477405Y300933D01*
X2477405Y298673D01*
X2527900Y283890D02*
X2527900Y266872D01*
X2477100Y266364D02*
X2477100Y275000D01*
X2477100Y283636D01*
X2477100Y275000D02*
X2502500Y300400D01*
D117*
X2473925Y303575D03*
D10*
X2677392Y251378D02*
X2677392Y248838D01*
X2676884Y248838D01*
X2676884Y248889D01*
X2627379Y248889D01*
X2627379Y251200D01*
X2677595Y298190D02*
X2677595Y300908D01*
X2677087Y300908D01*
X2677087Y300933D01*
X2627405Y300933D01*
X2627405Y298673D01*
X2677900Y283890D02*
X2677900Y266872D01*
X2627100Y266364D02*
X2627100Y275000D01*
X2627100Y283636D01*
X2627100Y275000D02*
X2652500Y300400D01*
D117*
X2623925Y303575D03*
D10*
X2827392Y251378D02*
X2827392Y248838D01*
X2826884Y248838D01*
X2826884Y248889D01*
X2777379Y248889D01*
X2777379Y251200D01*
X2827595Y298190D02*
X2827595Y300908D01*
X2827087Y300908D01*
X2827087Y300933D01*
X2777405Y300933D01*
X2777405Y298673D01*
X2827900Y283890D02*
X2827900Y266872D01*
X2777100Y266364D02*
X2777100Y275000D01*
X2777100Y283636D01*
X2777100Y275000D02*
X2802500Y300400D01*
D117*
X2773925Y303575D03*
D10*
X2977392Y251378D02*
X2977392Y248838D01*
X2976884Y248838D01*
X2976884Y248889D01*
X2927379Y248889D01*
X2927379Y251200D01*
X2977595Y298190D02*
X2977595Y300908D01*
X2977087Y300908D01*
X2977087Y300933D01*
X2927405Y300933D01*
X2927405Y298673D01*
X2977900Y283890D02*
X2977900Y266872D01*
X2927100Y266364D02*
X2927100Y275000D01*
X2927100Y283636D01*
X2927100Y275000D02*
X2952500Y300400D01*
D117*
X2923925Y303575D03*
D10*
X727392Y101378D02*
X727392Y98838D01*
X726884Y98838D01*
X726884Y98889D01*
X677379Y98889D01*
X677379Y101200D01*
X727595Y148190D02*
X727595Y150908D01*
X727087Y150908D01*
X727087Y150933D01*
X677405Y150933D01*
X677405Y148673D01*
X727900Y133890D02*
X727900Y116872D01*
X677100Y116364D02*
X677100Y125000D01*
X677100Y133636D01*
X677100Y125000D02*
X702500Y150400D01*
D117*
X673925Y153575D03*
D10*
X877392Y101378D02*
X877392Y98838D01*
X876884Y98838D01*
X876884Y98889D01*
X827379Y98889D01*
X827379Y101200D01*
X877595Y148190D02*
X877595Y150908D01*
X877087Y150908D01*
X877087Y150933D01*
X827405Y150933D01*
X827405Y148673D01*
X877900Y133890D02*
X877900Y116872D01*
X827100Y116364D02*
X827100Y125000D01*
X827100Y133636D01*
X827100Y125000D02*
X852500Y150400D01*
D117*
X823925Y153575D03*
D10*
X1027392Y101378D02*
X1027392Y98838D01*
X1026884Y98838D01*
X1026884Y98889D01*
X977379Y98889D01*
X977379Y101200D01*
X1027595Y148190D02*
X1027595Y150908D01*
X1027087Y150908D01*
X1027087Y150933D01*
X977405Y150933D01*
X977405Y148673D01*
X1027900Y133890D02*
X1027900Y116872D01*
X977100Y116364D02*
X977100Y125000D01*
X977100Y133636D01*
X977100Y125000D02*
X1002500Y150400D01*
D117*
X973925Y153575D03*
D10*
X1177392Y101378D02*
X1177392Y98838D01*
X1176884Y98838D01*
X1176884Y98889D01*
X1127379Y98889D01*
X1127379Y101200D01*
X1177595Y148190D02*
X1177595Y150908D01*
X1177087Y150908D01*
X1177087Y150933D01*
X1127405Y150933D01*
X1127405Y148673D01*
X1177900Y133890D02*
X1177900Y116872D01*
X1127100Y116364D02*
X1127100Y125000D01*
X1127100Y133636D01*
X1127100Y125000D02*
X1152500Y150400D01*
D117*
X1123925Y153575D03*
D10*
X1789892Y101378D02*
X1789892Y98838D01*
X1789384Y98838D01*
X1789384Y98889D01*
X1739879Y98889D01*
X1739879Y101200D01*
X1790095Y148190D02*
X1790095Y150908D01*
X1789587Y150908D01*
X1789587Y150933D01*
X1739905Y150933D01*
X1739905Y148673D01*
X1790400Y133890D02*
X1790400Y116872D01*
X1739600Y116364D02*
X1739600Y125000D01*
X1739600Y133636D01*
X1739600Y125000D02*
X1765000Y150400D01*
D117*
X1736425Y153575D03*
D10*
X1927392Y101378D02*
X1927392Y98838D01*
X1926884Y98838D01*
X1926884Y98889D01*
X1877379Y98889D01*
X1877379Y101200D01*
X1927595Y148190D02*
X1927595Y150908D01*
X1927087Y150908D01*
X1927087Y150933D01*
X1877405Y150933D01*
X1877405Y148673D01*
X1927900Y133890D02*
X1927900Y116872D01*
X1877100Y116364D02*
X1877100Y125000D01*
X1877100Y133636D01*
X1877100Y125000D02*
X1902500Y150400D01*
D117*
X1873925Y153575D03*
D10*
X2077392Y101378D02*
X2077392Y98838D01*
X2076884Y98838D01*
X2076884Y98889D01*
X2027379Y98889D01*
X2027379Y101200D01*
X2077595Y148190D02*
X2077595Y150908D01*
X2077087Y150908D01*
X2077087Y150933D01*
X2027405Y150933D01*
X2027405Y148673D01*
X2077900Y133890D02*
X2077900Y116872D01*
X2027100Y116364D02*
X2027100Y125000D01*
X2027100Y133636D01*
X2027100Y125000D02*
X2052500Y150400D01*
D117*
X2023925Y153575D03*
D10*
X2227392Y101378D02*
X2227392Y98838D01*
X2226884Y98838D01*
X2226884Y98889D01*
X2177379Y98889D01*
X2177379Y101200D01*
X2227595Y148190D02*
X2227595Y150908D01*
X2227087Y150908D01*
X2227087Y150933D01*
X2177405Y150933D01*
X2177405Y148673D01*
X2227900Y133890D02*
X2227900Y116872D01*
X2177100Y116364D02*
X2177100Y125000D01*
X2177100Y133636D01*
X2177100Y125000D02*
X2202500Y150400D01*
D117*
X2173925Y153575D03*
D10*
X2377392Y101378D02*
X2377392Y98838D01*
X2376884Y98838D01*
X2376884Y98889D01*
X2327379Y98889D01*
X2327379Y101200D01*
X2377595Y148190D02*
X2377595Y150908D01*
X2377087Y150908D01*
X2377087Y150933D01*
X2327405Y150933D01*
X2327405Y148673D01*
X2377900Y133890D02*
X2377900Y116872D01*
X2327100Y116364D02*
X2327100Y125000D01*
X2327100Y133636D01*
X2327100Y125000D02*
X2352500Y150400D01*
D117*
X2323925Y153575D03*
D10*
X2527392Y101378D02*
X2527392Y98838D01*
X2526884Y98838D01*
X2526884Y98889D01*
X2477379Y98889D01*
X2477379Y101200D01*
X2527595Y148190D02*
X2527595Y150908D01*
X2527087Y150908D01*
X2527087Y150933D01*
X2477405Y150933D01*
X2477405Y148673D01*
X2527900Y133890D02*
X2527900Y116872D01*
X2477100Y116364D02*
X2477100Y125000D01*
X2477100Y133636D01*
X2477100Y125000D02*
X2502500Y150400D01*
D117*
X2473925Y153575D03*
D10*
X2677392Y101378D02*
X2677392Y98838D01*
X2676884Y98838D01*
X2676884Y98889D01*
X2627379Y98889D01*
X2627379Y101200D01*
X2677595Y148190D02*
X2677595Y150908D01*
X2677087Y150908D01*
X2677087Y150933D01*
X2627405Y150933D01*
X2627405Y148673D01*
X2677900Y133890D02*
X2677900Y116872D01*
X2627100Y116364D02*
X2627100Y125000D01*
X2627100Y133636D01*
X2627100Y125000D02*
X2652500Y150400D01*
D117*
X2623925Y153575D03*
D10*
X2827392Y101378D02*
X2827392Y98838D01*
X2826884Y98838D01*
X2826884Y98889D01*
X2777379Y98889D01*
X2777379Y101200D01*
X2827595Y148190D02*
X2827595Y150908D01*
X2827087Y150908D01*
X2827087Y150933D01*
X2777405Y150933D01*
X2777405Y148673D01*
X2827900Y133890D02*
X2827900Y116872D01*
X2777100Y116364D02*
X2777100Y125000D01*
X2777100Y133636D01*
X2777100Y125000D02*
X2802500Y150400D01*
D117*
X2773925Y153575D03*
D10*
X127392Y398838D02*
X127392Y401378D01*
X127392Y398838D02*
X126884Y398838D01*
X126884Y398889D01*
X77379Y398889D01*
X77379Y401200D01*
X127595Y448190D02*
X127595Y450908D01*
X127087Y450908D01*
X127087Y450933D01*
X77405Y450933D01*
X77405Y448673D01*
X127900Y433890D02*
X127900Y416872D01*
X77100Y416364D02*
X77100Y425000D01*
X77100Y433636D01*
X77100Y425000D02*
X102500Y450400D01*
D117*
X73925Y453575D03*
D10*
X127392Y256378D02*
X127392Y253838D01*
X126884Y253838D01*
X126884Y253889D01*
X77379Y253889D01*
X77379Y256200D01*
X127595Y303190D02*
X127595Y305908D01*
X127087Y305908D01*
X127087Y305933D01*
X77405Y305933D01*
X77405Y303673D01*
X127900Y288890D02*
X127900Y271872D01*
X77100Y271364D02*
X77100Y280000D01*
X77100Y288636D01*
X77100Y280000D02*
X102500Y305400D01*
D117*
X73925Y308575D03*
D10*
X277392Y251378D02*
X277392Y248838D01*
X276884Y248838D01*
X276884Y248889D01*
X227379Y248889D01*
X227379Y251200D01*
X277595Y298190D02*
X277595Y300908D01*
X277087Y300908D01*
X277087Y300933D01*
X227405Y300933D01*
X227405Y298673D01*
X277900Y283890D02*
X277900Y266872D01*
X227100Y266364D02*
X227100Y275000D01*
X227100Y283636D01*
X227100Y275000D02*
X252500Y300400D01*
D117*
X223925Y303575D03*
D10*
X577392Y251378D02*
X577392Y248838D01*
X576884Y248838D01*
X576884Y248889D01*
X527379Y248889D01*
X527379Y251200D01*
X577595Y298190D02*
X577595Y300908D01*
X577087Y300908D01*
X577087Y300933D01*
X527405Y300933D01*
X527405Y298673D01*
X577900Y283890D02*
X577900Y266872D01*
X527100Y266364D02*
X527100Y275000D01*
X527100Y283636D01*
X527100Y275000D02*
X552500Y300400D01*
D117*
X523925Y303575D03*
D10*
X727392Y251378D02*
X727392Y248838D01*
X726884Y248838D01*
X726884Y248889D01*
X677379Y248889D01*
X677379Y251200D01*
X727595Y298190D02*
X727595Y300908D01*
X727087Y300908D01*
X727087Y300933D01*
X677405Y300933D01*
X677405Y298673D01*
X727900Y283890D02*
X727900Y266872D01*
X677100Y266364D02*
X677100Y275000D01*
X677100Y283636D01*
X677100Y275000D02*
X702500Y300400D01*
D117*
X673925Y303575D03*
M02*
