G04 EAGLE Gerber RS-274X export*
G75*
%MOMM*%
%FSLAX34Y34*%
%LPD*%
%IN*%
%IPPOS*%
%AMOC8*
5,1,8,0,0,1.08239X$1,22.5*%
G01*
%ADD10C,0.203200*%
%ADD11C,0.000000*%
%ADD12C,0.010000*%
%ADD13C,0.254000*%


D10*
X3055000Y0D02*
X3055000Y170000D01*
X3155000Y170000D01*
X3155000Y470000D01*
X3055000Y470000D01*
X3055000Y1900000D01*
X0Y1900000D01*
X0Y0D01*
X585630Y0D01*
X585630Y233200D01*
X645320Y233200D01*
X645320Y0D01*
X3055000Y0D01*
D11*
X2963490Y75000D02*
X2963495Y75405D01*
X2963510Y75810D01*
X2963535Y76215D01*
X2963570Y76618D01*
X2963614Y77021D01*
X2963669Y77423D01*
X2963733Y77823D01*
X2963807Y78221D01*
X2963891Y78617D01*
X2963985Y79012D01*
X2964088Y79403D01*
X2964201Y79793D01*
X2964323Y80179D01*
X2964455Y80562D01*
X2964596Y80942D01*
X2964747Y81318D01*
X2964906Y81691D01*
X2965075Y82059D01*
X2965253Y82423D01*
X2965439Y82783D01*
X2965635Y83138D01*
X2965839Y83488D01*
X2966051Y83833D01*
X2966272Y84172D01*
X2966502Y84507D01*
X2966739Y84835D01*
X2966984Y85157D01*
X2967238Y85474D01*
X2967498Y85784D01*
X2967767Y86087D01*
X2968043Y86384D01*
X2968326Y86674D01*
X2968616Y86957D01*
X2968913Y87233D01*
X2969216Y87502D01*
X2969526Y87762D01*
X2969843Y88016D01*
X2970165Y88261D01*
X2970493Y88498D01*
X2970828Y88728D01*
X2971167Y88949D01*
X2971512Y89161D01*
X2971862Y89365D01*
X2972217Y89561D01*
X2972577Y89747D01*
X2972941Y89925D01*
X2973309Y90094D01*
X2973682Y90253D01*
X2974058Y90404D01*
X2974438Y90545D01*
X2974821Y90677D01*
X2975207Y90799D01*
X2975597Y90912D01*
X2975988Y91015D01*
X2976383Y91109D01*
X2976779Y91193D01*
X2977177Y91267D01*
X2977577Y91331D01*
X2977979Y91386D01*
X2978382Y91430D01*
X2978785Y91465D01*
X2979190Y91490D01*
X2979595Y91505D01*
X2980000Y91510D01*
X2980405Y91505D01*
X2980810Y91490D01*
X2981215Y91465D01*
X2981618Y91430D01*
X2982021Y91386D01*
X2982423Y91331D01*
X2982823Y91267D01*
X2983221Y91193D01*
X2983617Y91109D01*
X2984012Y91015D01*
X2984403Y90912D01*
X2984793Y90799D01*
X2985179Y90677D01*
X2985562Y90545D01*
X2985942Y90404D01*
X2986318Y90253D01*
X2986691Y90094D01*
X2987059Y89925D01*
X2987423Y89747D01*
X2987783Y89561D01*
X2988138Y89365D01*
X2988488Y89161D01*
X2988833Y88949D01*
X2989172Y88728D01*
X2989507Y88498D01*
X2989835Y88261D01*
X2990157Y88016D01*
X2990474Y87762D01*
X2990784Y87502D01*
X2991087Y87233D01*
X2991384Y86957D01*
X2991674Y86674D01*
X2991957Y86384D01*
X2992233Y86087D01*
X2992502Y85784D01*
X2992762Y85474D01*
X2993016Y85157D01*
X2993261Y84835D01*
X2993498Y84507D01*
X2993728Y84172D01*
X2993949Y83833D01*
X2994161Y83488D01*
X2994365Y83138D01*
X2994561Y82783D01*
X2994747Y82423D01*
X2994925Y82059D01*
X2995094Y81691D01*
X2995253Y81318D01*
X2995404Y80942D01*
X2995545Y80562D01*
X2995677Y80179D01*
X2995799Y79793D01*
X2995912Y79403D01*
X2996015Y79012D01*
X2996109Y78617D01*
X2996193Y78221D01*
X2996267Y77823D01*
X2996331Y77423D01*
X2996386Y77021D01*
X2996430Y76618D01*
X2996465Y76215D01*
X2996490Y75810D01*
X2996505Y75405D01*
X2996510Y75000D01*
X2996505Y74595D01*
X2996490Y74190D01*
X2996465Y73785D01*
X2996430Y73382D01*
X2996386Y72979D01*
X2996331Y72577D01*
X2996267Y72177D01*
X2996193Y71779D01*
X2996109Y71383D01*
X2996015Y70988D01*
X2995912Y70597D01*
X2995799Y70207D01*
X2995677Y69821D01*
X2995545Y69438D01*
X2995404Y69058D01*
X2995253Y68682D01*
X2995094Y68309D01*
X2994925Y67941D01*
X2994747Y67577D01*
X2994561Y67217D01*
X2994365Y66862D01*
X2994161Y66512D01*
X2993949Y66167D01*
X2993728Y65828D01*
X2993498Y65493D01*
X2993261Y65165D01*
X2993016Y64843D01*
X2992762Y64526D01*
X2992502Y64216D01*
X2992233Y63913D01*
X2991957Y63616D01*
X2991674Y63326D01*
X2991384Y63043D01*
X2991087Y62767D01*
X2990784Y62498D01*
X2990474Y62238D01*
X2990157Y61984D01*
X2989835Y61739D01*
X2989507Y61502D01*
X2989172Y61272D01*
X2988833Y61051D01*
X2988488Y60839D01*
X2988138Y60635D01*
X2987783Y60439D01*
X2987423Y60253D01*
X2987059Y60075D01*
X2986691Y59906D01*
X2986318Y59747D01*
X2985942Y59596D01*
X2985562Y59455D01*
X2985179Y59323D01*
X2984793Y59201D01*
X2984403Y59088D01*
X2984012Y58985D01*
X2983617Y58891D01*
X2983221Y58807D01*
X2982823Y58733D01*
X2982423Y58669D01*
X2982021Y58614D01*
X2981618Y58570D01*
X2981215Y58535D01*
X2980810Y58510D01*
X2980405Y58495D01*
X2980000Y58490D01*
X2979595Y58495D01*
X2979190Y58510D01*
X2978785Y58535D01*
X2978382Y58570D01*
X2977979Y58614D01*
X2977577Y58669D01*
X2977177Y58733D01*
X2976779Y58807D01*
X2976383Y58891D01*
X2975988Y58985D01*
X2975597Y59088D01*
X2975207Y59201D01*
X2974821Y59323D01*
X2974438Y59455D01*
X2974058Y59596D01*
X2973682Y59747D01*
X2973309Y59906D01*
X2972941Y60075D01*
X2972577Y60253D01*
X2972217Y60439D01*
X2971862Y60635D01*
X2971512Y60839D01*
X2971167Y61051D01*
X2970828Y61272D01*
X2970493Y61502D01*
X2970165Y61739D01*
X2969843Y61984D01*
X2969526Y62238D01*
X2969216Y62498D01*
X2968913Y62767D01*
X2968616Y63043D01*
X2968326Y63326D01*
X2968043Y63616D01*
X2967767Y63913D01*
X2967498Y64216D01*
X2967238Y64526D01*
X2966984Y64843D01*
X2966739Y65165D01*
X2966502Y65493D01*
X2966272Y65828D01*
X2966051Y66167D01*
X2965839Y66512D01*
X2965635Y66862D01*
X2965439Y67217D01*
X2965253Y67577D01*
X2965075Y67941D01*
X2964906Y68309D01*
X2964747Y68682D01*
X2964596Y69058D01*
X2964455Y69438D01*
X2964323Y69821D01*
X2964201Y70207D01*
X2964088Y70597D01*
X2963985Y70988D01*
X2963891Y71383D01*
X2963807Y71779D01*
X2963733Y72177D01*
X2963669Y72577D01*
X2963614Y72979D01*
X2963570Y73382D01*
X2963535Y73785D01*
X2963510Y74190D01*
X2963495Y74595D01*
X2963490Y75000D01*
X58490Y75000D02*
X58495Y75405D01*
X58510Y75810D01*
X58535Y76215D01*
X58570Y76618D01*
X58614Y77021D01*
X58669Y77423D01*
X58733Y77823D01*
X58807Y78221D01*
X58891Y78617D01*
X58985Y79012D01*
X59088Y79403D01*
X59201Y79793D01*
X59323Y80179D01*
X59455Y80562D01*
X59596Y80942D01*
X59747Y81318D01*
X59906Y81691D01*
X60075Y82059D01*
X60253Y82423D01*
X60439Y82783D01*
X60635Y83138D01*
X60839Y83488D01*
X61051Y83833D01*
X61272Y84172D01*
X61502Y84507D01*
X61739Y84835D01*
X61984Y85157D01*
X62238Y85474D01*
X62498Y85784D01*
X62767Y86087D01*
X63043Y86384D01*
X63326Y86674D01*
X63616Y86957D01*
X63913Y87233D01*
X64216Y87502D01*
X64526Y87762D01*
X64843Y88016D01*
X65165Y88261D01*
X65493Y88498D01*
X65828Y88728D01*
X66167Y88949D01*
X66512Y89161D01*
X66862Y89365D01*
X67217Y89561D01*
X67577Y89747D01*
X67941Y89925D01*
X68309Y90094D01*
X68682Y90253D01*
X69058Y90404D01*
X69438Y90545D01*
X69821Y90677D01*
X70207Y90799D01*
X70597Y90912D01*
X70988Y91015D01*
X71383Y91109D01*
X71779Y91193D01*
X72177Y91267D01*
X72577Y91331D01*
X72979Y91386D01*
X73382Y91430D01*
X73785Y91465D01*
X74190Y91490D01*
X74595Y91505D01*
X75000Y91510D01*
X75405Y91505D01*
X75810Y91490D01*
X76215Y91465D01*
X76618Y91430D01*
X77021Y91386D01*
X77423Y91331D01*
X77823Y91267D01*
X78221Y91193D01*
X78617Y91109D01*
X79012Y91015D01*
X79403Y90912D01*
X79793Y90799D01*
X80179Y90677D01*
X80562Y90545D01*
X80942Y90404D01*
X81318Y90253D01*
X81691Y90094D01*
X82059Y89925D01*
X82423Y89747D01*
X82783Y89561D01*
X83138Y89365D01*
X83488Y89161D01*
X83833Y88949D01*
X84172Y88728D01*
X84507Y88498D01*
X84835Y88261D01*
X85157Y88016D01*
X85474Y87762D01*
X85784Y87502D01*
X86087Y87233D01*
X86384Y86957D01*
X86674Y86674D01*
X86957Y86384D01*
X87233Y86087D01*
X87502Y85784D01*
X87762Y85474D01*
X88016Y85157D01*
X88261Y84835D01*
X88498Y84507D01*
X88728Y84172D01*
X88949Y83833D01*
X89161Y83488D01*
X89365Y83138D01*
X89561Y82783D01*
X89747Y82423D01*
X89925Y82059D01*
X90094Y81691D01*
X90253Y81318D01*
X90404Y80942D01*
X90545Y80562D01*
X90677Y80179D01*
X90799Y79793D01*
X90912Y79403D01*
X91015Y79012D01*
X91109Y78617D01*
X91193Y78221D01*
X91267Y77823D01*
X91331Y77423D01*
X91386Y77021D01*
X91430Y76618D01*
X91465Y76215D01*
X91490Y75810D01*
X91505Y75405D01*
X91510Y75000D01*
X91505Y74595D01*
X91490Y74190D01*
X91465Y73785D01*
X91430Y73382D01*
X91386Y72979D01*
X91331Y72577D01*
X91267Y72177D01*
X91193Y71779D01*
X91109Y71383D01*
X91015Y70988D01*
X90912Y70597D01*
X90799Y70207D01*
X90677Y69821D01*
X90545Y69438D01*
X90404Y69058D01*
X90253Y68682D01*
X90094Y68309D01*
X89925Y67941D01*
X89747Y67577D01*
X89561Y67217D01*
X89365Y66862D01*
X89161Y66512D01*
X88949Y66167D01*
X88728Y65828D01*
X88498Y65493D01*
X88261Y65165D01*
X88016Y64843D01*
X87762Y64526D01*
X87502Y64216D01*
X87233Y63913D01*
X86957Y63616D01*
X86674Y63326D01*
X86384Y63043D01*
X86087Y62767D01*
X85784Y62498D01*
X85474Y62238D01*
X85157Y61984D01*
X84835Y61739D01*
X84507Y61502D01*
X84172Y61272D01*
X83833Y61051D01*
X83488Y60839D01*
X83138Y60635D01*
X82783Y60439D01*
X82423Y60253D01*
X82059Y60075D01*
X81691Y59906D01*
X81318Y59747D01*
X80942Y59596D01*
X80562Y59455D01*
X80179Y59323D01*
X79793Y59201D01*
X79403Y59088D01*
X79012Y58985D01*
X78617Y58891D01*
X78221Y58807D01*
X77823Y58733D01*
X77423Y58669D01*
X77021Y58614D01*
X76618Y58570D01*
X76215Y58535D01*
X75810Y58510D01*
X75405Y58495D01*
X75000Y58490D01*
X74595Y58495D01*
X74190Y58510D01*
X73785Y58535D01*
X73382Y58570D01*
X72979Y58614D01*
X72577Y58669D01*
X72177Y58733D01*
X71779Y58807D01*
X71383Y58891D01*
X70988Y58985D01*
X70597Y59088D01*
X70207Y59201D01*
X69821Y59323D01*
X69438Y59455D01*
X69058Y59596D01*
X68682Y59747D01*
X68309Y59906D01*
X67941Y60075D01*
X67577Y60253D01*
X67217Y60439D01*
X66862Y60635D01*
X66512Y60839D01*
X66167Y61051D01*
X65828Y61272D01*
X65493Y61502D01*
X65165Y61739D01*
X64843Y61984D01*
X64526Y62238D01*
X64216Y62498D01*
X63913Y62767D01*
X63616Y63043D01*
X63326Y63326D01*
X63043Y63616D01*
X62767Y63913D01*
X62498Y64216D01*
X62238Y64526D01*
X61984Y64843D01*
X61739Y65165D01*
X61502Y65493D01*
X61272Y65828D01*
X61051Y66167D01*
X60839Y66512D01*
X60635Y66862D01*
X60439Y67217D01*
X60253Y67577D01*
X60075Y67941D01*
X59906Y68309D01*
X59747Y68682D01*
X59596Y69058D01*
X59455Y69438D01*
X59323Y69821D01*
X59201Y70207D01*
X59088Y70597D01*
X58985Y70988D01*
X58891Y71383D01*
X58807Y71779D01*
X58733Y72177D01*
X58669Y72577D01*
X58614Y72979D01*
X58570Y73382D01*
X58535Y73785D01*
X58510Y74190D01*
X58495Y74595D01*
X58490Y75000D01*
X3101200Y201100D02*
X3101202Y201213D01*
X3101208Y201327D01*
X3101218Y201440D01*
X3101232Y201552D01*
X3101249Y201664D01*
X3101271Y201776D01*
X3101297Y201886D01*
X3101326Y201996D01*
X3101359Y202104D01*
X3101396Y202212D01*
X3101437Y202317D01*
X3101481Y202422D01*
X3101529Y202525D01*
X3101580Y202626D01*
X3101635Y202725D01*
X3101694Y202822D01*
X3101756Y202917D01*
X3101821Y203010D01*
X3101889Y203101D01*
X3101960Y203189D01*
X3102035Y203275D01*
X3102112Y203358D01*
X3102192Y203438D01*
X3102275Y203515D01*
X3102361Y203590D01*
X3102449Y203661D01*
X3102540Y203729D01*
X3102633Y203794D01*
X3102728Y203856D01*
X3102825Y203915D01*
X3102924Y203970D01*
X3103025Y204021D01*
X3103128Y204069D01*
X3103233Y204113D01*
X3103338Y204154D01*
X3103446Y204191D01*
X3103554Y204224D01*
X3103664Y204253D01*
X3103774Y204279D01*
X3103886Y204301D01*
X3103998Y204318D01*
X3104110Y204332D01*
X3104223Y204342D01*
X3104337Y204348D01*
X3104450Y204350D01*
X3104563Y204348D01*
X3104677Y204342D01*
X3104790Y204332D01*
X3104902Y204318D01*
X3105014Y204301D01*
X3105126Y204279D01*
X3105236Y204253D01*
X3105346Y204224D01*
X3105454Y204191D01*
X3105562Y204154D01*
X3105667Y204113D01*
X3105772Y204069D01*
X3105875Y204021D01*
X3105976Y203970D01*
X3106075Y203915D01*
X3106172Y203856D01*
X3106267Y203794D01*
X3106360Y203729D01*
X3106451Y203661D01*
X3106539Y203590D01*
X3106625Y203515D01*
X3106708Y203438D01*
X3106788Y203358D01*
X3106865Y203275D01*
X3106940Y203189D01*
X3107011Y203101D01*
X3107079Y203010D01*
X3107144Y202917D01*
X3107206Y202822D01*
X3107265Y202725D01*
X3107320Y202626D01*
X3107371Y202525D01*
X3107419Y202422D01*
X3107463Y202317D01*
X3107504Y202212D01*
X3107541Y202104D01*
X3107574Y201996D01*
X3107603Y201886D01*
X3107629Y201776D01*
X3107651Y201664D01*
X3107668Y201552D01*
X3107682Y201440D01*
X3107692Y201327D01*
X3107698Y201213D01*
X3107700Y201100D01*
X3107698Y200987D01*
X3107692Y200873D01*
X3107682Y200760D01*
X3107668Y200648D01*
X3107651Y200536D01*
X3107629Y200424D01*
X3107603Y200314D01*
X3107574Y200204D01*
X3107541Y200096D01*
X3107504Y199988D01*
X3107463Y199883D01*
X3107419Y199778D01*
X3107371Y199675D01*
X3107320Y199574D01*
X3107265Y199475D01*
X3107206Y199378D01*
X3107144Y199283D01*
X3107079Y199190D01*
X3107011Y199099D01*
X3106940Y199011D01*
X3106865Y198925D01*
X3106788Y198842D01*
X3106708Y198762D01*
X3106625Y198685D01*
X3106539Y198610D01*
X3106451Y198539D01*
X3106360Y198471D01*
X3106267Y198406D01*
X3106172Y198344D01*
X3106075Y198285D01*
X3105976Y198230D01*
X3105875Y198179D01*
X3105772Y198131D01*
X3105667Y198087D01*
X3105562Y198046D01*
X3105454Y198009D01*
X3105346Y197976D01*
X3105236Y197947D01*
X3105126Y197921D01*
X3105014Y197899D01*
X3104902Y197882D01*
X3104790Y197868D01*
X3104677Y197858D01*
X3104563Y197852D01*
X3104450Y197850D01*
X3104337Y197852D01*
X3104223Y197858D01*
X3104110Y197868D01*
X3103998Y197882D01*
X3103886Y197899D01*
X3103774Y197921D01*
X3103664Y197947D01*
X3103554Y197976D01*
X3103446Y198009D01*
X3103338Y198046D01*
X3103233Y198087D01*
X3103128Y198131D01*
X3103025Y198179D01*
X3102924Y198230D01*
X3102825Y198285D01*
X3102728Y198344D01*
X3102633Y198406D01*
X3102540Y198471D01*
X3102449Y198539D01*
X3102361Y198610D01*
X3102275Y198685D01*
X3102192Y198762D01*
X3102112Y198842D01*
X3102035Y198925D01*
X3101960Y199011D01*
X3101889Y199099D01*
X3101821Y199190D01*
X3101756Y199283D01*
X3101694Y199378D01*
X3101635Y199475D01*
X3101580Y199574D01*
X3101529Y199675D01*
X3101481Y199778D01*
X3101437Y199883D01*
X3101396Y199988D01*
X3101359Y200096D01*
X3101326Y200204D01*
X3101297Y200314D01*
X3101271Y200424D01*
X3101249Y200536D01*
X3101232Y200648D01*
X3101218Y200760D01*
X3101208Y200873D01*
X3101202Y200987D01*
X3101200Y201100D01*
X3101200Y258900D02*
X3101202Y259013D01*
X3101208Y259127D01*
X3101218Y259240D01*
X3101232Y259352D01*
X3101249Y259464D01*
X3101271Y259576D01*
X3101297Y259686D01*
X3101326Y259796D01*
X3101359Y259904D01*
X3101396Y260012D01*
X3101437Y260117D01*
X3101481Y260222D01*
X3101529Y260325D01*
X3101580Y260426D01*
X3101635Y260525D01*
X3101694Y260622D01*
X3101756Y260717D01*
X3101821Y260810D01*
X3101889Y260901D01*
X3101960Y260989D01*
X3102035Y261075D01*
X3102112Y261158D01*
X3102192Y261238D01*
X3102275Y261315D01*
X3102361Y261390D01*
X3102449Y261461D01*
X3102540Y261529D01*
X3102633Y261594D01*
X3102728Y261656D01*
X3102825Y261715D01*
X3102924Y261770D01*
X3103025Y261821D01*
X3103128Y261869D01*
X3103233Y261913D01*
X3103338Y261954D01*
X3103446Y261991D01*
X3103554Y262024D01*
X3103664Y262053D01*
X3103774Y262079D01*
X3103886Y262101D01*
X3103998Y262118D01*
X3104110Y262132D01*
X3104223Y262142D01*
X3104337Y262148D01*
X3104450Y262150D01*
X3104563Y262148D01*
X3104677Y262142D01*
X3104790Y262132D01*
X3104902Y262118D01*
X3105014Y262101D01*
X3105126Y262079D01*
X3105236Y262053D01*
X3105346Y262024D01*
X3105454Y261991D01*
X3105562Y261954D01*
X3105667Y261913D01*
X3105772Y261869D01*
X3105875Y261821D01*
X3105976Y261770D01*
X3106075Y261715D01*
X3106172Y261656D01*
X3106267Y261594D01*
X3106360Y261529D01*
X3106451Y261461D01*
X3106539Y261390D01*
X3106625Y261315D01*
X3106708Y261238D01*
X3106788Y261158D01*
X3106865Y261075D01*
X3106940Y260989D01*
X3107011Y260901D01*
X3107079Y260810D01*
X3107144Y260717D01*
X3107206Y260622D01*
X3107265Y260525D01*
X3107320Y260426D01*
X3107371Y260325D01*
X3107419Y260222D01*
X3107463Y260117D01*
X3107504Y260012D01*
X3107541Y259904D01*
X3107574Y259796D01*
X3107603Y259686D01*
X3107629Y259576D01*
X3107651Y259464D01*
X3107668Y259352D01*
X3107682Y259240D01*
X3107692Y259127D01*
X3107698Y259013D01*
X3107700Y258900D01*
X3107698Y258787D01*
X3107692Y258673D01*
X3107682Y258560D01*
X3107668Y258448D01*
X3107651Y258336D01*
X3107629Y258224D01*
X3107603Y258114D01*
X3107574Y258004D01*
X3107541Y257896D01*
X3107504Y257788D01*
X3107463Y257683D01*
X3107419Y257578D01*
X3107371Y257475D01*
X3107320Y257374D01*
X3107265Y257275D01*
X3107206Y257178D01*
X3107144Y257083D01*
X3107079Y256990D01*
X3107011Y256899D01*
X3106940Y256811D01*
X3106865Y256725D01*
X3106788Y256642D01*
X3106708Y256562D01*
X3106625Y256485D01*
X3106539Y256410D01*
X3106451Y256339D01*
X3106360Y256271D01*
X3106267Y256206D01*
X3106172Y256144D01*
X3106075Y256085D01*
X3105976Y256030D01*
X3105875Y255979D01*
X3105772Y255931D01*
X3105667Y255887D01*
X3105562Y255846D01*
X3105454Y255809D01*
X3105346Y255776D01*
X3105236Y255747D01*
X3105126Y255721D01*
X3105014Y255699D01*
X3104902Y255682D01*
X3104790Y255668D01*
X3104677Y255658D01*
X3104563Y255652D01*
X3104450Y255650D01*
X3104337Y255652D01*
X3104223Y255658D01*
X3104110Y255668D01*
X3103998Y255682D01*
X3103886Y255699D01*
X3103774Y255721D01*
X3103664Y255747D01*
X3103554Y255776D01*
X3103446Y255809D01*
X3103338Y255846D01*
X3103233Y255887D01*
X3103128Y255931D01*
X3103025Y255979D01*
X3102924Y256030D01*
X3102825Y256085D01*
X3102728Y256144D01*
X3102633Y256206D01*
X3102540Y256271D01*
X3102449Y256339D01*
X3102361Y256410D01*
X3102275Y256485D01*
X3102192Y256562D01*
X3102112Y256642D01*
X3102035Y256725D01*
X3101960Y256811D01*
X3101889Y256899D01*
X3101821Y256990D01*
X3101756Y257083D01*
X3101694Y257178D01*
X3101635Y257275D01*
X3101580Y257374D01*
X3101529Y257475D01*
X3101481Y257578D01*
X3101437Y257683D01*
X3101396Y257788D01*
X3101359Y257896D01*
X3101326Y258004D01*
X3101297Y258114D01*
X3101271Y258224D01*
X3101249Y258336D01*
X3101232Y258448D01*
X3101218Y258560D01*
X3101208Y258673D01*
X3101202Y258787D01*
X3101200Y258900D01*
D12*
X3137800Y183800D02*
X3144000Y183800D01*
X3144000Y189800D02*
X3137800Y189800D01*
X3137692Y189798D01*
X3137584Y189792D01*
X3137476Y189782D01*
X3137368Y189769D01*
X3137261Y189751D01*
X3137155Y189730D01*
X3137050Y189705D01*
X3136945Y189676D01*
X3136842Y189643D01*
X3136740Y189607D01*
X3136639Y189566D01*
X3136540Y189523D01*
X3136443Y189475D01*
X3136347Y189425D01*
X3136253Y189371D01*
X3136162Y189313D01*
X3136072Y189252D01*
X3135984Y189188D01*
X3135899Y189121D01*
X3135817Y189051D01*
X3135737Y188978D01*
X3135660Y188902D01*
X3135585Y188823D01*
X3135514Y188742D01*
X3135445Y188658D01*
X3135379Y188572D01*
X3135317Y188484D01*
X3135258Y188393D01*
X3135202Y188300D01*
X3135149Y188205D01*
X3135100Y188109D01*
X3135055Y188010D01*
X3135013Y187910D01*
X3134975Y187809D01*
X3134940Y187706D01*
X3134909Y187603D01*
X3134882Y187498D01*
X3134859Y187392D01*
X3134840Y187285D01*
X3134824Y187178D01*
X3134812Y187070D01*
X3134804Y186962D01*
X3134800Y186854D01*
X3134800Y186746D01*
X3134804Y186638D01*
X3134812Y186530D01*
X3134824Y186422D01*
X3134840Y186315D01*
X3134859Y186208D01*
X3134882Y186102D01*
X3134909Y185997D01*
X3134940Y185894D01*
X3134975Y185791D01*
X3135013Y185690D01*
X3135055Y185590D01*
X3135100Y185491D01*
X3135149Y185395D01*
X3135202Y185300D01*
X3135258Y185207D01*
X3135317Y185116D01*
X3135379Y185028D01*
X3135445Y184942D01*
X3135514Y184858D01*
X3135585Y184777D01*
X3135660Y184698D01*
X3135737Y184622D01*
X3135817Y184549D01*
X3135899Y184479D01*
X3135984Y184412D01*
X3136072Y184348D01*
X3136162Y184287D01*
X3136253Y184229D01*
X3136347Y184175D01*
X3136443Y184125D01*
X3136540Y184077D01*
X3136639Y184034D01*
X3136740Y183993D01*
X3136842Y183957D01*
X3136945Y183924D01*
X3137050Y183895D01*
X3137155Y183870D01*
X3137261Y183849D01*
X3137368Y183831D01*
X3137476Y183818D01*
X3137584Y183808D01*
X3137692Y183802D01*
X3137800Y183800D01*
X3144000Y183800D02*
X3144108Y183802D01*
X3144216Y183808D01*
X3144324Y183818D01*
X3144432Y183831D01*
X3144539Y183849D01*
X3144645Y183870D01*
X3144750Y183895D01*
X3144855Y183924D01*
X3144958Y183957D01*
X3145060Y183993D01*
X3145161Y184034D01*
X3145260Y184077D01*
X3145357Y184125D01*
X3145453Y184175D01*
X3145547Y184229D01*
X3145638Y184287D01*
X3145728Y184348D01*
X3145816Y184412D01*
X3145901Y184479D01*
X3145983Y184549D01*
X3146063Y184622D01*
X3146140Y184698D01*
X3146215Y184777D01*
X3146286Y184858D01*
X3146355Y184942D01*
X3146421Y185028D01*
X3146483Y185116D01*
X3146542Y185207D01*
X3146598Y185300D01*
X3146651Y185395D01*
X3146700Y185491D01*
X3146745Y185590D01*
X3146787Y185690D01*
X3146825Y185791D01*
X3146860Y185894D01*
X3146891Y185997D01*
X3146918Y186102D01*
X3146941Y186208D01*
X3146960Y186315D01*
X3146976Y186422D01*
X3146988Y186530D01*
X3146996Y186638D01*
X3147000Y186746D01*
X3147000Y186854D01*
X3146996Y186962D01*
X3146988Y187070D01*
X3146976Y187178D01*
X3146960Y187285D01*
X3146941Y187392D01*
X3146918Y187498D01*
X3146891Y187603D01*
X3146860Y187706D01*
X3146825Y187809D01*
X3146787Y187910D01*
X3146745Y188010D01*
X3146700Y188109D01*
X3146651Y188205D01*
X3146598Y188300D01*
X3146542Y188393D01*
X3146483Y188484D01*
X3146421Y188572D01*
X3146355Y188658D01*
X3146286Y188742D01*
X3146215Y188823D01*
X3146140Y188902D01*
X3146063Y188978D01*
X3145983Y189051D01*
X3145901Y189121D01*
X3145816Y189188D01*
X3145728Y189252D01*
X3145638Y189313D01*
X3145547Y189371D01*
X3145453Y189425D01*
X3145357Y189475D01*
X3145260Y189523D01*
X3145161Y189566D01*
X3145060Y189607D01*
X3144958Y189643D01*
X3144855Y189676D01*
X3144750Y189705D01*
X3144645Y189730D01*
X3144539Y189751D01*
X3144432Y189769D01*
X3144324Y189782D01*
X3144216Y189792D01*
X3144108Y189798D01*
X3144000Y189800D01*
X3104650Y183800D02*
X3093650Y183800D01*
X3093650Y189800D02*
X3104650Y189800D01*
X3104758Y189798D01*
X3104866Y189792D01*
X3104974Y189782D01*
X3105082Y189769D01*
X3105189Y189751D01*
X3105295Y189730D01*
X3105400Y189705D01*
X3105505Y189676D01*
X3105608Y189643D01*
X3105710Y189607D01*
X3105811Y189566D01*
X3105910Y189523D01*
X3106007Y189475D01*
X3106103Y189425D01*
X3106197Y189371D01*
X3106288Y189313D01*
X3106378Y189252D01*
X3106466Y189188D01*
X3106551Y189121D01*
X3106633Y189051D01*
X3106713Y188978D01*
X3106790Y188902D01*
X3106865Y188823D01*
X3106936Y188742D01*
X3107005Y188658D01*
X3107071Y188572D01*
X3107133Y188484D01*
X3107192Y188393D01*
X3107248Y188300D01*
X3107301Y188205D01*
X3107350Y188109D01*
X3107395Y188010D01*
X3107437Y187910D01*
X3107475Y187809D01*
X3107510Y187706D01*
X3107541Y187603D01*
X3107568Y187498D01*
X3107591Y187392D01*
X3107610Y187285D01*
X3107626Y187178D01*
X3107638Y187070D01*
X3107646Y186962D01*
X3107650Y186854D01*
X3107650Y186746D01*
X3107646Y186638D01*
X3107638Y186530D01*
X3107626Y186422D01*
X3107610Y186315D01*
X3107591Y186208D01*
X3107568Y186102D01*
X3107541Y185997D01*
X3107510Y185894D01*
X3107475Y185791D01*
X3107437Y185690D01*
X3107395Y185590D01*
X3107350Y185491D01*
X3107301Y185395D01*
X3107248Y185300D01*
X3107192Y185207D01*
X3107133Y185116D01*
X3107071Y185028D01*
X3107005Y184942D01*
X3106936Y184858D01*
X3106865Y184777D01*
X3106790Y184698D01*
X3106713Y184622D01*
X3106633Y184549D01*
X3106551Y184479D01*
X3106466Y184412D01*
X3106378Y184348D01*
X3106288Y184287D01*
X3106197Y184229D01*
X3106103Y184175D01*
X3106007Y184125D01*
X3105910Y184077D01*
X3105811Y184034D01*
X3105710Y183993D01*
X3105608Y183957D01*
X3105505Y183924D01*
X3105400Y183895D01*
X3105295Y183870D01*
X3105189Y183849D01*
X3105082Y183831D01*
X3104974Y183818D01*
X3104866Y183808D01*
X3104758Y183802D01*
X3104650Y183800D01*
X3093650Y183800D02*
X3093542Y183802D01*
X3093434Y183808D01*
X3093326Y183818D01*
X3093218Y183831D01*
X3093111Y183849D01*
X3093005Y183870D01*
X3092900Y183895D01*
X3092795Y183924D01*
X3092692Y183957D01*
X3092590Y183993D01*
X3092489Y184034D01*
X3092390Y184077D01*
X3092293Y184125D01*
X3092197Y184175D01*
X3092103Y184229D01*
X3092012Y184287D01*
X3091922Y184348D01*
X3091834Y184412D01*
X3091749Y184479D01*
X3091667Y184549D01*
X3091587Y184622D01*
X3091510Y184698D01*
X3091435Y184777D01*
X3091364Y184858D01*
X3091295Y184942D01*
X3091229Y185028D01*
X3091167Y185116D01*
X3091108Y185207D01*
X3091052Y185300D01*
X3090999Y185395D01*
X3090950Y185491D01*
X3090905Y185590D01*
X3090863Y185690D01*
X3090825Y185791D01*
X3090790Y185894D01*
X3090759Y185997D01*
X3090732Y186102D01*
X3090709Y186208D01*
X3090690Y186315D01*
X3090674Y186422D01*
X3090662Y186530D01*
X3090654Y186638D01*
X3090650Y186746D01*
X3090650Y186854D01*
X3090654Y186962D01*
X3090662Y187070D01*
X3090674Y187178D01*
X3090690Y187285D01*
X3090709Y187392D01*
X3090732Y187498D01*
X3090759Y187603D01*
X3090790Y187706D01*
X3090825Y187809D01*
X3090863Y187910D01*
X3090905Y188010D01*
X3090950Y188109D01*
X3090999Y188205D01*
X3091052Y188300D01*
X3091108Y188393D01*
X3091167Y188484D01*
X3091229Y188572D01*
X3091295Y188658D01*
X3091364Y188742D01*
X3091435Y188823D01*
X3091510Y188902D01*
X3091587Y188978D01*
X3091667Y189051D01*
X3091749Y189121D01*
X3091834Y189188D01*
X3091922Y189252D01*
X3092012Y189313D01*
X3092103Y189371D01*
X3092197Y189425D01*
X3092293Y189475D01*
X3092390Y189523D01*
X3092489Y189566D01*
X3092590Y189607D01*
X3092692Y189643D01*
X3092795Y189676D01*
X3092900Y189705D01*
X3093005Y189730D01*
X3093111Y189751D01*
X3093218Y189769D01*
X3093326Y189782D01*
X3093434Y189792D01*
X3093542Y189798D01*
X3093650Y189800D01*
X3137800Y270200D02*
X3144000Y270200D01*
X3144000Y276200D02*
X3137800Y276200D01*
X3137692Y276198D01*
X3137584Y276192D01*
X3137476Y276182D01*
X3137368Y276169D01*
X3137261Y276151D01*
X3137155Y276130D01*
X3137050Y276105D01*
X3136945Y276076D01*
X3136842Y276043D01*
X3136740Y276007D01*
X3136639Y275966D01*
X3136540Y275923D01*
X3136443Y275875D01*
X3136347Y275825D01*
X3136253Y275771D01*
X3136162Y275713D01*
X3136072Y275652D01*
X3135984Y275588D01*
X3135899Y275521D01*
X3135817Y275451D01*
X3135737Y275378D01*
X3135660Y275302D01*
X3135585Y275223D01*
X3135514Y275142D01*
X3135445Y275058D01*
X3135379Y274972D01*
X3135317Y274884D01*
X3135258Y274793D01*
X3135202Y274700D01*
X3135149Y274605D01*
X3135100Y274509D01*
X3135055Y274410D01*
X3135013Y274310D01*
X3134975Y274209D01*
X3134940Y274106D01*
X3134909Y274003D01*
X3134882Y273898D01*
X3134859Y273792D01*
X3134840Y273685D01*
X3134824Y273578D01*
X3134812Y273470D01*
X3134804Y273362D01*
X3134800Y273254D01*
X3134800Y273146D01*
X3134804Y273038D01*
X3134812Y272930D01*
X3134824Y272822D01*
X3134840Y272715D01*
X3134859Y272608D01*
X3134882Y272502D01*
X3134909Y272397D01*
X3134940Y272294D01*
X3134975Y272191D01*
X3135013Y272090D01*
X3135055Y271990D01*
X3135100Y271891D01*
X3135149Y271795D01*
X3135202Y271700D01*
X3135258Y271607D01*
X3135317Y271516D01*
X3135379Y271428D01*
X3135445Y271342D01*
X3135514Y271258D01*
X3135585Y271177D01*
X3135660Y271098D01*
X3135737Y271022D01*
X3135817Y270949D01*
X3135899Y270879D01*
X3135984Y270812D01*
X3136072Y270748D01*
X3136162Y270687D01*
X3136253Y270629D01*
X3136347Y270575D01*
X3136443Y270525D01*
X3136540Y270477D01*
X3136639Y270434D01*
X3136740Y270393D01*
X3136842Y270357D01*
X3136945Y270324D01*
X3137050Y270295D01*
X3137155Y270270D01*
X3137261Y270249D01*
X3137368Y270231D01*
X3137476Y270218D01*
X3137584Y270208D01*
X3137692Y270202D01*
X3137800Y270200D01*
X3144000Y270200D02*
X3144108Y270202D01*
X3144216Y270208D01*
X3144324Y270218D01*
X3144432Y270231D01*
X3144539Y270249D01*
X3144645Y270270D01*
X3144750Y270295D01*
X3144855Y270324D01*
X3144958Y270357D01*
X3145060Y270393D01*
X3145161Y270434D01*
X3145260Y270477D01*
X3145357Y270525D01*
X3145453Y270575D01*
X3145547Y270629D01*
X3145638Y270687D01*
X3145728Y270748D01*
X3145816Y270812D01*
X3145901Y270879D01*
X3145983Y270949D01*
X3146063Y271022D01*
X3146140Y271098D01*
X3146215Y271177D01*
X3146286Y271258D01*
X3146355Y271342D01*
X3146421Y271428D01*
X3146483Y271516D01*
X3146542Y271607D01*
X3146598Y271700D01*
X3146651Y271795D01*
X3146700Y271891D01*
X3146745Y271990D01*
X3146787Y272090D01*
X3146825Y272191D01*
X3146860Y272294D01*
X3146891Y272397D01*
X3146918Y272502D01*
X3146941Y272608D01*
X3146960Y272715D01*
X3146976Y272822D01*
X3146988Y272930D01*
X3146996Y273038D01*
X3147000Y273146D01*
X3147000Y273254D01*
X3146996Y273362D01*
X3146988Y273470D01*
X3146976Y273578D01*
X3146960Y273685D01*
X3146941Y273792D01*
X3146918Y273898D01*
X3146891Y274003D01*
X3146860Y274106D01*
X3146825Y274209D01*
X3146787Y274310D01*
X3146745Y274410D01*
X3146700Y274509D01*
X3146651Y274605D01*
X3146598Y274700D01*
X3146542Y274793D01*
X3146483Y274884D01*
X3146421Y274972D01*
X3146355Y275058D01*
X3146286Y275142D01*
X3146215Y275223D01*
X3146140Y275302D01*
X3146063Y275378D01*
X3145983Y275451D01*
X3145901Y275521D01*
X3145816Y275588D01*
X3145728Y275652D01*
X3145638Y275713D01*
X3145547Y275771D01*
X3145453Y275825D01*
X3145357Y275875D01*
X3145260Y275923D01*
X3145161Y275966D01*
X3145060Y276007D01*
X3144958Y276043D01*
X3144855Y276076D01*
X3144750Y276105D01*
X3144645Y276130D01*
X3144539Y276151D01*
X3144432Y276169D01*
X3144324Y276182D01*
X3144216Y276192D01*
X3144108Y276198D01*
X3144000Y276200D01*
X3104650Y270200D02*
X3093650Y270200D01*
X3093650Y276200D02*
X3104650Y276200D01*
X3104758Y276198D01*
X3104866Y276192D01*
X3104974Y276182D01*
X3105082Y276169D01*
X3105189Y276151D01*
X3105295Y276130D01*
X3105400Y276105D01*
X3105505Y276076D01*
X3105608Y276043D01*
X3105710Y276007D01*
X3105811Y275966D01*
X3105910Y275923D01*
X3106007Y275875D01*
X3106103Y275825D01*
X3106197Y275771D01*
X3106288Y275713D01*
X3106378Y275652D01*
X3106466Y275588D01*
X3106551Y275521D01*
X3106633Y275451D01*
X3106713Y275378D01*
X3106790Y275302D01*
X3106865Y275223D01*
X3106936Y275142D01*
X3107005Y275058D01*
X3107071Y274972D01*
X3107133Y274884D01*
X3107192Y274793D01*
X3107248Y274700D01*
X3107301Y274605D01*
X3107350Y274509D01*
X3107395Y274410D01*
X3107437Y274310D01*
X3107475Y274209D01*
X3107510Y274106D01*
X3107541Y274003D01*
X3107568Y273898D01*
X3107591Y273792D01*
X3107610Y273685D01*
X3107626Y273578D01*
X3107638Y273470D01*
X3107646Y273362D01*
X3107650Y273254D01*
X3107650Y273146D01*
X3107646Y273038D01*
X3107638Y272930D01*
X3107626Y272822D01*
X3107610Y272715D01*
X3107591Y272608D01*
X3107568Y272502D01*
X3107541Y272397D01*
X3107510Y272294D01*
X3107475Y272191D01*
X3107437Y272090D01*
X3107395Y271990D01*
X3107350Y271891D01*
X3107301Y271795D01*
X3107248Y271700D01*
X3107192Y271607D01*
X3107133Y271516D01*
X3107071Y271428D01*
X3107005Y271342D01*
X3106936Y271258D01*
X3106865Y271177D01*
X3106790Y271098D01*
X3106713Y271022D01*
X3106633Y270949D01*
X3106551Y270879D01*
X3106466Y270812D01*
X3106378Y270748D01*
X3106288Y270687D01*
X3106197Y270629D01*
X3106103Y270575D01*
X3106007Y270525D01*
X3105910Y270477D01*
X3105811Y270434D01*
X3105710Y270393D01*
X3105608Y270357D01*
X3105505Y270324D01*
X3105400Y270295D01*
X3105295Y270270D01*
X3105189Y270249D01*
X3105082Y270231D01*
X3104974Y270218D01*
X3104866Y270208D01*
X3104758Y270202D01*
X3104650Y270200D01*
X3093650Y270200D02*
X3093542Y270202D01*
X3093434Y270208D01*
X3093326Y270218D01*
X3093218Y270231D01*
X3093111Y270249D01*
X3093005Y270270D01*
X3092900Y270295D01*
X3092795Y270324D01*
X3092692Y270357D01*
X3092590Y270393D01*
X3092489Y270434D01*
X3092390Y270477D01*
X3092293Y270525D01*
X3092197Y270575D01*
X3092103Y270629D01*
X3092012Y270687D01*
X3091922Y270748D01*
X3091834Y270812D01*
X3091749Y270879D01*
X3091667Y270949D01*
X3091587Y271022D01*
X3091510Y271098D01*
X3091435Y271177D01*
X3091364Y271258D01*
X3091295Y271342D01*
X3091229Y271428D01*
X3091167Y271516D01*
X3091108Y271607D01*
X3091052Y271700D01*
X3090999Y271795D01*
X3090950Y271891D01*
X3090905Y271990D01*
X3090863Y272090D01*
X3090825Y272191D01*
X3090790Y272294D01*
X3090759Y272397D01*
X3090732Y272502D01*
X3090709Y272608D01*
X3090690Y272715D01*
X3090674Y272822D01*
X3090662Y272930D01*
X3090654Y273038D01*
X3090650Y273146D01*
X3090650Y273254D01*
X3090654Y273362D01*
X3090662Y273470D01*
X3090674Y273578D01*
X3090690Y273685D01*
X3090709Y273792D01*
X3090732Y273898D01*
X3090759Y274003D01*
X3090790Y274106D01*
X3090825Y274209D01*
X3090863Y274310D01*
X3090905Y274410D01*
X3090950Y274509D01*
X3090999Y274605D01*
X3091052Y274700D01*
X3091108Y274793D01*
X3091167Y274884D01*
X3091229Y274972D01*
X3091295Y275058D01*
X3091364Y275142D01*
X3091435Y275223D01*
X3091510Y275302D01*
X3091587Y275378D01*
X3091667Y275451D01*
X3091749Y275521D01*
X3091834Y275588D01*
X3091922Y275652D01*
X3092012Y275713D01*
X3092103Y275771D01*
X3092197Y275825D01*
X3092293Y275875D01*
X3092390Y275923D01*
X3092489Y275966D01*
X3092590Y276007D01*
X3092692Y276043D01*
X3092795Y276076D01*
X3092900Y276105D01*
X3093005Y276130D01*
X3093111Y276151D01*
X3093218Y276169D01*
X3093326Y276182D01*
X3093434Y276192D01*
X3093542Y276198D01*
X3093650Y276200D01*
D11*
X3133000Y410000D02*
X3133002Y410154D01*
X3133008Y410309D01*
X3133018Y410463D01*
X3133032Y410617D01*
X3133050Y410770D01*
X3133071Y410923D01*
X3133097Y411076D01*
X3133127Y411227D01*
X3133160Y411378D01*
X3133198Y411528D01*
X3133239Y411677D01*
X3133284Y411825D01*
X3133333Y411971D01*
X3133386Y412117D01*
X3133442Y412260D01*
X3133502Y412403D01*
X3133566Y412543D01*
X3133633Y412683D01*
X3133704Y412820D01*
X3133778Y412955D01*
X3133856Y413089D01*
X3133937Y413220D01*
X3134022Y413349D01*
X3134110Y413477D01*
X3134201Y413601D01*
X3134295Y413724D01*
X3134393Y413844D01*
X3134493Y413961D01*
X3134597Y414076D01*
X3134703Y414188D01*
X3134812Y414297D01*
X3134924Y414403D01*
X3135039Y414507D01*
X3135156Y414607D01*
X3135276Y414705D01*
X3135399Y414799D01*
X3135523Y414890D01*
X3135651Y414978D01*
X3135780Y415063D01*
X3135911Y415144D01*
X3136045Y415222D01*
X3136180Y415296D01*
X3136317Y415367D01*
X3136457Y415434D01*
X3136597Y415498D01*
X3136740Y415558D01*
X3136883Y415614D01*
X3137029Y415667D01*
X3137175Y415716D01*
X3137323Y415761D01*
X3137472Y415802D01*
X3137622Y415840D01*
X3137773Y415873D01*
X3137924Y415903D01*
X3138077Y415929D01*
X3138230Y415950D01*
X3138383Y415968D01*
X3138537Y415982D01*
X3138691Y415992D01*
X3138846Y415998D01*
X3139000Y416000D01*
X3139154Y415998D01*
X3139309Y415992D01*
X3139463Y415982D01*
X3139617Y415968D01*
X3139770Y415950D01*
X3139923Y415929D01*
X3140076Y415903D01*
X3140227Y415873D01*
X3140378Y415840D01*
X3140528Y415802D01*
X3140677Y415761D01*
X3140825Y415716D01*
X3140971Y415667D01*
X3141117Y415614D01*
X3141260Y415558D01*
X3141403Y415498D01*
X3141543Y415434D01*
X3141683Y415367D01*
X3141820Y415296D01*
X3141955Y415222D01*
X3142089Y415144D01*
X3142220Y415063D01*
X3142349Y414978D01*
X3142477Y414890D01*
X3142601Y414799D01*
X3142724Y414705D01*
X3142844Y414607D01*
X3142961Y414507D01*
X3143076Y414403D01*
X3143188Y414297D01*
X3143297Y414188D01*
X3143403Y414076D01*
X3143507Y413961D01*
X3143607Y413844D01*
X3143705Y413724D01*
X3143799Y413601D01*
X3143890Y413477D01*
X3143978Y413349D01*
X3144063Y413220D01*
X3144144Y413089D01*
X3144222Y412955D01*
X3144296Y412820D01*
X3144367Y412683D01*
X3144434Y412543D01*
X3144498Y412403D01*
X3144558Y412260D01*
X3144614Y412117D01*
X3144667Y411971D01*
X3144716Y411825D01*
X3144761Y411677D01*
X3144802Y411528D01*
X3144840Y411378D01*
X3144873Y411227D01*
X3144903Y411076D01*
X3144929Y410923D01*
X3144950Y410770D01*
X3144968Y410617D01*
X3144982Y410463D01*
X3144992Y410309D01*
X3144998Y410154D01*
X3145000Y410000D01*
X3144998Y409846D01*
X3144992Y409691D01*
X3144982Y409537D01*
X3144968Y409383D01*
X3144950Y409230D01*
X3144929Y409077D01*
X3144903Y408924D01*
X3144873Y408773D01*
X3144840Y408622D01*
X3144802Y408472D01*
X3144761Y408323D01*
X3144716Y408175D01*
X3144667Y408029D01*
X3144614Y407883D01*
X3144558Y407740D01*
X3144498Y407597D01*
X3144434Y407457D01*
X3144367Y407317D01*
X3144296Y407180D01*
X3144222Y407045D01*
X3144144Y406911D01*
X3144063Y406780D01*
X3143978Y406651D01*
X3143890Y406523D01*
X3143799Y406399D01*
X3143705Y406276D01*
X3143607Y406156D01*
X3143507Y406039D01*
X3143403Y405924D01*
X3143297Y405812D01*
X3143188Y405703D01*
X3143076Y405597D01*
X3142961Y405493D01*
X3142844Y405393D01*
X3142724Y405295D01*
X3142601Y405201D01*
X3142477Y405110D01*
X3142349Y405022D01*
X3142220Y404937D01*
X3142089Y404856D01*
X3141955Y404778D01*
X3141820Y404704D01*
X3141683Y404633D01*
X3141543Y404566D01*
X3141403Y404502D01*
X3141260Y404442D01*
X3141117Y404386D01*
X3140971Y404333D01*
X3140825Y404284D01*
X3140677Y404239D01*
X3140528Y404198D01*
X3140378Y404160D01*
X3140227Y404127D01*
X3140076Y404097D01*
X3139923Y404071D01*
X3139770Y404050D01*
X3139617Y404032D01*
X3139463Y404018D01*
X3139309Y404008D01*
X3139154Y404002D01*
X3139000Y404000D01*
X3138846Y404002D01*
X3138691Y404008D01*
X3138537Y404018D01*
X3138383Y404032D01*
X3138230Y404050D01*
X3138077Y404071D01*
X3137924Y404097D01*
X3137773Y404127D01*
X3137622Y404160D01*
X3137472Y404198D01*
X3137323Y404239D01*
X3137175Y404284D01*
X3137029Y404333D01*
X3136883Y404386D01*
X3136740Y404442D01*
X3136597Y404502D01*
X3136457Y404566D01*
X3136317Y404633D01*
X3136180Y404704D01*
X3136045Y404778D01*
X3135911Y404856D01*
X3135780Y404937D01*
X3135651Y405022D01*
X3135523Y405110D01*
X3135399Y405201D01*
X3135276Y405295D01*
X3135156Y405393D01*
X3135039Y405493D01*
X3134924Y405597D01*
X3134812Y405703D01*
X3134703Y405812D01*
X3134597Y405924D01*
X3134493Y406039D01*
X3134393Y406156D01*
X3134295Y406276D01*
X3134201Y406399D01*
X3134110Y406523D01*
X3134022Y406651D01*
X3133937Y406780D01*
X3133856Y406911D01*
X3133778Y407045D01*
X3133704Y407180D01*
X3133633Y407317D01*
X3133566Y407457D01*
X3133502Y407597D01*
X3133442Y407740D01*
X3133386Y407883D01*
X3133333Y408029D01*
X3133284Y408175D01*
X3133239Y408323D01*
X3133198Y408472D01*
X3133160Y408622D01*
X3133127Y408773D01*
X3133097Y408924D01*
X3133071Y409077D01*
X3133050Y409230D01*
X3133032Y409383D01*
X3133018Y409537D01*
X3133008Y409691D01*
X3133002Y409846D01*
X3133000Y410000D01*
X3063000Y410000D02*
X3063002Y410154D01*
X3063008Y410309D01*
X3063018Y410463D01*
X3063032Y410617D01*
X3063050Y410770D01*
X3063071Y410923D01*
X3063097Y411076D01*
X3063127Y411227D01*
X3063160Y411378D01*
X3063198Y411528D01*
X3063239Y411677D01*
X3063284Y411825D01*
X3063333Y411971D01*
X3063386Y412117D01*
X3063442Y412260D01*
X3063502Y412403D01*
X3063566Y412543D01*
X3063633Y412683D01*
X3063704Y412820D01*
X3063778Y412955D01*
X3063856Y413089D01*
X3063937Y413220D01*
X3064022Y413349D01*
X3064110Y413477D01*
X3064201Y413601D01*
X3064295Y413724D01*
X3064393Y413844D01*
X3064493Y413961D01*
X3064597Y414076D01*
X3064703Y414188D01*
X3064812Y414297D01*
X3064924Y414403D01*
X3065039Y414507D01*
X3065156Y414607D01*
X3065276Y414705D01*
X3065399Y414799D01*
X3065523Y414890D01*
X3065651Y414978D01*
X3065780Y415063D01*
X3065911Y415144D01*
X3066045Y415222D01*
X3066180Y415296D01*
X3066317Y415367D01*
X3066457Y415434D01*
X3066597Y415498D01*
X3066740Y415558D01*
X3066883Y415614D01*
X3067029Y415667D01*
X3067175Y415716D01*
X3067323Y415761D01*
X3067472Y415802D01*
X3067622Y415840D01*
X3067773Y415873D01*
X3067924Y415903D01*
X3068077Y415929D01*
X3068230Y415950D01*
X3068383Y415968D01*
X3068537Y415982D01*
X3068691Y415992D01*
X3068846Y415998D01*
X3069000Y416000D01*
X3069154Y415998D01*
X3069309Y415992D01*
X3069463Y415982D01*
X3069617Y415968D01*
X3069770Y415950D01*
X3069923Y415929D01*
X3070076Y415903D01*
X3070227Y415873D01*
X3070378Y415840D01*
X3070528Y415802D01*
X3070677Y415761D01*
X3070825Y415716D01*
X3070971Y415667D01*
X3071117Y415614D01*
X3071260Y415558D01*
X3071403Y415498D01*
X3071543Y415434D01*
X3071683Y415367D01*
X3071820Y415296D01*
X3071955Y415222D01*
X3072089Y415144D01*
X3072220Y415063D01*
X3072349Y414978D01*
X3072477Y414890D01*
X3072601Y414799D01*
X3072724Y414705D01*
X3072844Y414607D01*
X3072961Y414507D01*
X3073076Y414403D01*
X3073188Y414297D01*
X3073297Y414188D01*
X3073403Y414076D01*
X3073507Y413961D01*
X3073607Y413844D01*
X3073705Y413724D01*
X3073799Y413601D01*
X3073890Y413477D01*
X3073978Y413349D01*
X3074063Y413220D01*
X3074144Y413089D01*
X3074222Y412955D01*
X3074296Y412820D01*
X3074367Y412683D01*
X3074434Y412543D01*
X3074498Y412403D01*
X3074558Y412260D01*
X3074614Y412117D01*
X3074667Y411971D01*
X3074716Y411825D01*
X3074761Y411677D01*
X3074802Y411528D01*
X3074840Y411378D01*
X3074873Y411227D01*
X3074903Y411076D01*
X3074929Y410923D01*
X3074950Y410770D01*
X3074968Y410617D01*
X3074982Y410463D01*
X3074992Y410309D01*
X3074998Y410154D01*
X3075000Y410000D01*
X3074998Y409846D01*
X3074992Y409691D01*
X3074982Y409537D01*
X3074968Y409383D01*
X3074950Y409230D01*
X3074929Y409077D01*
X3074903Y408924D01*
X3074873Y408773D01*
X3074840Y408622D01*
X3074802Y408472D01*
X3074761Y408323D01*
X3074716Y408175D01*
X3074667Y408029D01*
X3074614Y407883D01*
X3074558Y407740D01*
X3074498Y407597D01*
X3074434Y407457D01*
X3074367Y407317D01*
X3074296Y407180D01*
X3074222Y407045D01*
X3074144Y406911D01*
X3074063Y406780D01*
X3073978Y406651D01*
X3073890Y406523D01*
X3073799Y406399D01*
X3073705Y406276D01*
X3073607Y406156D01*
X3073507Y406039D01*
X3073403Y405924D01*
X3073297Y405812D01*
X3073188Y405703D01*
X3073076Y405597D01*
X3072961Y405493D01*
X3072844Y405393D01*
X3072724Y405295D01*
X3072601Y405201D01*
X3072477Y405110D01*
X3072349Y405022D01*
X3072220Y404937D01*
X3072089Y404856D01*
X3071955Y404778D01*
X3071820Y404704D01*
X3071683Y404633D01*
X3071543Y404566D01*
X3071403Y404502D01*
X3071260Y404442D01*
X3071117Y404386D01*
X3070971Y404333D01*
X3070825Y404284D01*
X3070677Y404239D01*
X3070528Y404198D01*
X3070378Y404160D01*
X3070227Y404127D01*
X3070076Y404097D01*
X3069923Y404071D01*
X3069770Y404050D01*
X3069617Y404032D01*
X3069463Y404018D01*
X3069309Y404008D01*
X3069154Y404002D01*
X3069000Y404000D01*
X3068846Y404002D01*
X3068691Y404008D01*
X3068537Y404018D01*
X3068383Y404032D01*
X3068230Y404050D01*
X3068077Y404071D01*
X3067924Y404097D01*
X3067773Y404127D01*
X3067622Y404160D01*
X3067472Y404198D01*
X3067323Y404239D01*
X3067175Y404284D01*
X3067029Y404333D01*
X3066883Y404386D01*
X3066740Y404442D01*
X3066597Y404502D01*
X3066457Y404566D01*
X3066317Y404633D01*
X3066180Y404704D01*
X3066045Y404778D01*
X3065911Y404856D01*
X3065780Y404937D01*
X3065651Y405022D01*
X3065523Y405110D01*
X3065399Y405201D01*
X3065276Y405295D01*
X3065156Y405393D01*
X3065039Y405493D01*
X3064924Y405597D01*
X3064812Y405703D01*
X3064703Y405812D01*
X3064597Y405924D01*
X3064493Y406039D01*
X3064393Y406156D01*
X3064295Y406276D01*
X3064201Y406399D01*
X3064110Y406523D01*
X3064022Y406651D01*
X3063937Y406780D01*
X3063856Y406911D01*
X3063778Y407045D01*
X3063704Y407180D01*
X3063633Y407317D01*
X3063566Y407457D01*
X3063502Y407597D01*
X3063442Y407740D01*
X3063386Y407883D01*
X3063333Y408029D01*
X3063284Y408175D01*
X3063239Y408323D01*
X3063198Y408472D01*
X3063160Y408622D01*
X3063127Y408773D01*
X3063097Y408924D01*
X3063071Y409077D01*
X3063050Y409230D01*
X3063032Y409383D01*
X3063018Y409537D01*
X3063008Y409691D01*
X3063002Y409846D01*
X3063000Y410000D01*
X122500Y175200D02*
X122502Y175334D01*
X122508Y175468D01*
X122518Y175601D01*
X122532Y175735D01*
X122550Y175868D01*
X122572Y176000D01*
X122597Y176131D01*
X122627Y176262D01*
X122661Y176392D01*
X122698Y176520D01*
X122739Y176648D01*
X122784Y176774D01*
X122833Y176899D01*
X122885Y177022D01*
X122941Y177144D01*
X123001Y177264D01*
X123064Y177382D01*
X123131Y177498D01*
X123201Y177612D01*
X123275Y177724D01*
X123352Y177834D01*
X123432Y177942D01*
X123515Y178047D01*
X123601Y178149D01*
X123690Y178249D01*
X123783Y178346D01*
X123878Y178441D01*
X123976Y178532D01*
X124076Y178621D01*
X124179Y178706D01*
X124285Y178789D01*
X124393Y178868D01*
X124503Y178944D01*
X124616Y179017D01*
X124731Y179086D01*
X124847Y179152D01*
X124966Y179214D01*
X125086Y179273D01*
X125209Y179328D01*
X125332Y179380D01*
X125457Y179427D01*
X125584Y179471D01*
X125712Y179512D01*
X125841Y179548D01*
X125971Y179581D01*
X126102Y179609D01*
X126233Y179634D01*
X126366Y179655D01*
X126499Y179672D01*
X126632Y179685D01*
X126766Y179694D01*
X126900Y179699D01*
X127034Y179700D01*
X127167Y179697D01*
X127301Y179690D01*
X127435Y179679D01*
X127568Y179664D01*
X127701Y179645D01*
X127833Y179622D01*
X127964Y179596D01*
X128094Y179565D01*
X128224Y179530D01*
X128352Y179492D01*
X128479Y179450D01*
X128605Y179404D01*
X128730Y179354D01*
X128853Y179301D01*
X128974Y179244D01*
X129094Y179183D01*
X129211Y179119D01*
X129327Y179052D01*
X129441Y178981D01*
X129552Y178906D01*
X129661Y178829D01*
X129768Y178748D01*
X129873Y178664D01*
X129974Y178577D01*
X130074Y178487D01*
X130170Y178394D01*
X130264Y178298D01*
X130355Y178199D01*
X130442Y178098D01*
X130527Y177994D01*
X130609Y177888D01*
X130687Y177780D01*
X130762Y177669D01*
X130834Y177556D01*
X130903Y177440D01*
X130968Y177323D01*
X131029Y177204D01*
X131087Y177083D01*
X131141Y176961D01*
X131192Y176837D01*
X131239Y176711D01*
X131282Y176584D01*
X131321Y176456D01*
X131357Y176327D01*
X131388Y176197D01*
X131416Y176066D01*
X131440Y175934D01*
X131460Y175801D01*
X131476Y175668D01*
X131488Y175535D01*
X131496Y175401D01*
X131500Y175267D01*
X131500Y175133D01*
X131496Y174999D01*
X131488Y174865D01*
X131476Y174732D01*
X131460Y174599D01*
X131440Y174466D01*
X131416Y174334D01*
X131388Y174203D01*
X131357Y174073D01*
X131321Y173944D01*
X131282Y173816D01*
X131239Y173689D01*
X131192Y173563D01*
X131141Y173439D01*
X131087Y173317D01*
X131029Y173196D01*
X130968Y173077D01*
X130903Y172960D01*
X130834Y172844D01*
X130762Y172731D01*
X130687Y172620D01*
X130609Y172512D01*
X130527Y172406D01*
X130442Y172302D01*
X130355Y172201D01*
X130264Y172102D01*
X130170Y172006D01*
X130074Y171913D01*
X129974Y171823D01*
X129873Y171736D01*
X129768Y171652D01*
X129661Y171571D01*
X129552Y171494D01*
X129441Y171419D01*
X129327Y171348D01*
X129211Y171281D01*
X129094Y171217D01*
X128974Y171156D01*
X128853Y171099D01*
X128730Y171046D01*
X128605Y170996D01*
X128479Y170950D01*
X128352Y170908D01*
X128224Y170870D01*
X128094Y170835D01*
X127964Y170804D01*
X127833Y170778D01*
X127701Y170755D01*
X127568Y170736D01*
X127435Y170721D01*
X127301Y170710D01*
X127167Y170703D01*
X127034Y170700D01*
X126900Y170701D01*
X126766Y170706D01*
X126632Y170715D01*
X126499Y170728D01*
X126366Y170745D01*
X126233Y170766D01*
X126102Y170791D01*
X125971Y170819D01*
X125841Y170852D01*
X125712Y170888D01*
X125584Y170929D01*
X125457Y170973D01*
X125332Y171020D01*
X125209Y171072D01*
X125086Y171127D01*
X124966Y171186D01*
X124847Y171248D01*
X124731Y171314D01*
X124616Y171383D01*
X124503Y171456D01*
X124393Y171532D01*
X124285Y171611D01*
X124179Y171694D01*
X124076Y171779D01*
X123976Y171868D01*
X123878Y171959D01*
X123783Y172054D01*
X123690Y172151D01*
X123601Y172251D01*
X123515Y172353D01*
X123432Y172458D01*
X123352Y172566D01*
X123275Y172676D01*
X123201Y172788D01*
X123131Y172902D01*
X123064Y173018D01*
X123001Y173136D01*
X122941Y173256D01*
X122885Y173378D01*
X122833Y173501D01*
X122784Y173626D01*
X122739Y173752D01*
X122698Y173880D01*
X122661Y174008D01*
X122627Y174138D01*
X122597Y174269D01*
X122572Y174400D01*
X122550Y174532D01*
X122532Y174665D01*
X122518Y174799D01*
X122508Y174932D01*
X122502Y175066D01*
X122500Y175200D01*
X1689810Y1831250D02*
X1689815Y1831655D01*
X1689830Y1832060D01*
X1689855Y1832465D01*
X1689890Y1832868D01*
X1689934Y1833271D01*
X1689989Y1833673D01*
X1690053Y1834073D01*
X1690127Y1834471D01*
X1690211Y1834867D01*
X1690305Y1835262D01*
X1690408Y1835653D01*
X1690521Y1836043D01*
X1690643Y1836429D01*
X1690775Y1836812D01*
X1690916Y1837192D01*
X1691067Y1837568D01*
X1691226Y1837941D01*
X1691395Y1838309D01*
X1691573Y1838673D01*
X1691759Y1839033D01*
X1691955Y1839388D01*
X1692159Y1839738D01*
X1692371Y1840083D01*
X1692592Y1840422D01*
X1692822Y1840757D01*
X1693059Y1841085D01*
X1693304Y1841407D01*
X1693558Y1841724D01*
X1693818Y1842034D01*
X1694087Y1842337D01*
X1694363Y1842634D01*
X1694646Y1842924D01*
X1694936Y1843207D01*
X1695233Y1843483D01*
X1695536Y1843752D01*
X1695846Y1844012D01*
X1696163Y1844266D01*
X1696485Y1844511D01*
X1696813Y1844748D01*
X1697148Y1844978D01*
X1697487Y1845199D01*
X1697832Y1845411D01*
X1698182Y1845615D01*
X1698537Y1845811D01*
X1698897Y1845997D01*
X1699261Y1846175D01*
X1699629Y1846344D01*
X1700002Y1846503D01*
X1700378Y1846654D01*
X1700758Y1846795D01*
X1701141Y1846927D01*
X1701527Y1847049D01*
X1701917Y1847162D01*
X1702308Y1847265D01*
X1702703Y1847359D01*
X1703099Y1847443D01*
X1703497Y1847517D01*
X1703897Y1847581D01*
X1704299Y1847636D01*
X1704702Y1847680D01*
X1705105Y1847715D01*
X1705510Y1847740D01*
X1705915Y1847755D01*
X1706320Y1847760D01*
X1706725Y1847755D01*
X1707130Y1847740D01*
X1707535Y1847715D01*
X1707938Y1847680D01*
X1708341Y1847636D01*
X1708743Y1847581D01*
X1709143Y1847517D01*
X1709541Y1847443D01*
X1709937Y1847359D01*
X1710332Y1847265D01*
X1710723Y1847162D01*
X1711113Y1847049D01*
X1711499Y1846927D01*
X1711882Y1846795D01*
X1712262Y1846654D01*
X1712638Y1846503D01*
X1713011Y1846344D01*
X1713379Y1846175D01*
X1713743Y1845997D01*
X1714103Y1845811D01*
X1714458Y1845615D01*
X1714808Y1845411D01*
X1715153Y1845199D01*
X1715492Y1844978D01*
X1715827Y1844748D01*
X1716155Y1844511D01*
X1716477Y1844266D01*
X1716794Y1844012D01*
X1717104Y1843752D01*
X1717407Y1843483D01*
X1717704Y1843207D01*
X1717994Y1842924D01*
X1718277Y1842634D01*
X1718553Y1842337D01*
X1718822Y1842034D01*
X1719082Y1841724D01*
X1719336Y1841407D01*
X1719581Y1841085D01*
X1719818Y1840757D01*
X1720048Y1840422D01*
X1720269Y1840083D01*
X1720481Y1839738D01*
X1720685Y1839388D01*
X1720881Y1839033D01*
X1721067Y1838673D01*
X1721245Y1838309D01*
X1721414Y1837941D01*
X1721573Y1837568D01*
X1721724Y1837192D01*
X1721865Y1836812D01*
X1721997Y1836429D01*
X1722119Y1836043D01*
X1722232Y1835653D01*
X1722335Y1835262D01*
X1722429Y1834867D01*
X1722513Y1834471D01*
X1722587Y1834073D01*
X1722651Y1833673D01*
X1722706Y1833271D01*
X1722750Y1832868D01*
X1722785Y1832465D01*
X1722810Y1832060D01*
X1722825Y1831655D01*
X1722830Y1831250D01*
X1722825Y1830845D01*
X1722810Y1830440D01*
X1722785Y1830035D01*
X1722750Y1829632D01*
X1722706Y1829229D01*
X1722651Y1828827D01*
X1722587Y1828427D01*
X1722513Y1828029D01*
X1722429Y1827633D01*
X1722335Y1827238D01*
X1722232Y1826847D01*
X1722119Y1826457D01*
X1721997Y1826071D01*
X1721865Y1825688D01*
X1721724Y1825308D01*
X1721573Y1824932D01*
X1721414Y1824559D01*
X1721245Y1824191D01*
X1721067Y1823827D01*
X1720881Y1823467D01*
X1720685Y1823112D01*
X1720481Y1822762D01*
X1720269Y1822417D01*
X1720048Y1822078D01*
X1719818Y1821743D01*
X1719581Y1821415D01*
X1719336Y1821093D01*
X1719082Y1820776D01*
X1718822Y1820466D01*
X1718553Y1820163D01*
X1718277Y1819866D01*
X1717994Y1819576D01*
X1717704Y1819293D01*
X1717407Y1819017D01*
X1717104Y1818748D01*
X1716794Y1818488D01*
X1716477Y1818234D01*
X1716155Y1817989D01*
X1715827Y1817752D01*
X1715492Y1817522D01*
X1715153Y1817301D01*
X1714808Y1817089D01*
X1714458Y1816885D01*
X1714103Y1816689D01*
X1713743Y1816503D01*
X1713379Y1816325D01*
X1713011Y1816156D01*
X1712638Y1815997D01*
X1712262Y1815846D01*
X1711882Y1815705D01*
X1711499Y1815573D01*
X1711113Y1815451D01*
X1710723Y1815338D01*
X1710332Y1815235D01*
X1709937Y1815141D01*
X1709541Y1815057D01*
X1709143Y1814983D01*
X1708743Y1814919D01*
X1708341Y1814864D01*
X1707938Y1814820D01*
X1707535Y1814785D01*
X1707130Y1814760D01*
X1706725Y1814745D01*
X1706320Y1814740D01*
X1705915Y1814745D01*
X1705510Y1814760D01*
X1705105Y1814785D01*
X1704702Y1814820D01*
X1704299Y1814864D01*
X1703897Y1814919D01*
X1703497Y1814983D01*
X1703099Y1815057D01*
X1702703Y1815141D01*
X1702308Y1815235D01*
X1701917Y1815338D01*
X1701527Y1815451D01*
X1701141Y1815573D01*
X1700758Y1815705D01*
X1700378Y1815846D01*
X1700002Y1815997D01*
X1699629Y1816156D01*
X1699261Y1816325D01*
X1698897Y1816503D01*
X1698537Y1816689D01*
X1698182Y1816885D01*
X1697832Y1817089D01*
X1697487Y1817301D01*
X1697148Y1817522D01*
X1696813Y1817752D01*
X1696485Y1817989D01*
X1696163Y1818234D01*
X1695846Y1818488D01*
X1695536Y1818748D01*
X1695233Y1819017D01*
X1694936Y1819293D01*
X1694646Y1819576D01*
X1694363Y1819866D01*
X1694087Y1820163D01*
X1693818Y1820466D01*
X1693558Y1820776D01*
X1693304Y1821093D01*
X1693059Y1821415D01*
X1692822Y1821743D01*
X1692592Y1822078D01*
X1692371Y1822417D01*
X1692159Y1822762D01*
X1691955Y1823112D01*
X1691759Y1823467D01*
X1691573Y1823827D01*
X1691395Y1824191D01*
X1691226Y1824559D01*
X1691067Y1824932D01*
X1690916Y1825308D01*
X1690775Y1825688D01*
X1690643Y1826071D01*
X1690521Y1826457D01*
X1690408Y1826847D01*
X1690305Y1827238D01*
X1690211Y1827633D01*
X1690127Y1828029D01*
X1690053Y1828427D01*
X1689989Y1828827D01*
X1689934Y1829229D01*
X1689890Y1829632D01*
X1689855Y1830035D01*
X1689830Y1830440D01*
X1689815Y1830845D01*
X1689810Y1831250D01*
X1332170Y75000D02*
X1332175Y75405D01*
X1332190Y75810D01*
X1332215Y76215D01*
X1332250Y76618D01*
X1332294Y77021D01*
X1332349Y77423D01*
X1332413Y77823D01*
X1332487Y78221D01*
X1332571Y78617D01*
X1332665Y79012D01*
X1332768Y79403D01*
X1332881Y79793D01*
X1333003Y80179D01*
X1333135Y80562D01*
X1333276Y80942D01*
X1333427Y81318D01*
X1333586Y81691D01*
X1333755Y82059D01*
X1333933Y82423D01*
X1334119Y82783D01*
X1334315Y83138D01*
X1334519Y83488D01*
X1334731Y83833D01*
X1334952Y84172D01*
X1335182Y84507D01*
X1335419Y84835D01*
X1335664Y85157D01*
X1335918Y85474D01*
X1336178Y85784D01*
X1336447Y86087D01*
X1336723Y86384D01*
X1337006Y86674D01*
X1337296Y86957D01*
X1337593Y87233D01*
X1337896Y87502D01*
X1338206Y87762D01*
X1338523Y88016D01*
X1338845Y88261D01*
X1339173Y88498D01*
X1339508Y88728D01*
X1339847Y88949D01*
X1340192Y89161D01*
X1340542Y89365D01*
X1340897Y89561D01*
X1341257Y89747D01*
X1341621Y89925D01*
X1341989Y90094D01*
X1342362Y90253D01*
X1342738Y90404D01*
X1343118Y90545D01*
X1343501Y90677D01*
X1343887Y90799D01*
X1344277Y90912D01*
X1344668Y91015D01*
X1345063Y91109D01*
X1345459Y91193D01*
X1345857Y91267D01*
X1346257Y91331D01*
X1346659Y91386D01*
X1347062Y91430D01*
X1347465Y91465D01*
X1347870Y91490D01*
X1348275Y91505D01*
X1348680Y91510D01*
X1349085Y91505D01*
X1349490Y91490D01*
X1349895Y91465D01*
X1350298Y91430D01*
X1350701Y91386D01*
X1351103Y91331D01*
X1351503Y91267D01*
X1351901Y91193D01*
X1352297Y91109D01*
X1352692Y91015D01*
X1353083Y90912D01*
X1353473Y90799D01*
X1353859Y90677D01*
X1354242Y90545D01*
X1354622Y90404D01*
X1354998Y90253D01*
X1355371Y90094D01*
X1355739Y89925D01*
X1356103Y89747D01*
X1356463Y89561D01*
X1356818Y89365D01*
X1357168Y89161D01*
X1357513Y88949D01*
X1357852Y88728D01*
X1358187Y88498D01*
X1358515Y88261D01*
X1358837Y88016D01*
X1359154Y87762D01*
X1359464Y87502D01*
X1359767Y87233D01*
X1360064Y86957D01*
X1360354Y86674D01*
X1360637Y86384D01*
X1360913Y86087D01*
X1361182Y85784D01*
X1361442Y85474D01*
X1361696Y85157D01*
X1361941Y84835D01*
X1362178Y84507D01*
X1362408Y84172D01*
X1362629Y83833D01*
X1362841Y83488D01*
X1363045Y83138D01*
X1363241Y82783D01*
X1363427Y82423D01*
X1363605Y82059D01*
X1363774Y81691D01*
X1363933Y81318D01*
X1364084Y80942D01*
X1364225Y80562D01*
X1364357Y80179D01*
X1364479Y79793D01*
X1364592Y79403D01*
X1364695Y79012D01*
X1364789Y78617D01*
X1364873Y78221D01*
X1364947Y77823D01*
X1365011Y77423D01*
X1365066Y77021D01*
X1365110Y76618D01*
X1365145Y76215D01*
X1365170Y75810D01*
X1365185Y75405D01*
X1365190Y75000D01*
X1365185Y74595D01*
X1365170Y74190D01*
X1365145Y73785D01*
X1365110Y73382D01*
X1365066Y72979D01*
X1365011Y72577D01*
X1364947Y72177D01*
X1364873Y71779D01*
X1364789Y71383D01*
X1364695Y70988D01*
X1364592Y70597D01*
X1364479Y70207D01*
X1364357Y69821D01*
X1364225Y69438D01*
X1364084Y69058D01*
X1363933Y68682D01*
X1363774Y68309D01*
X1363605Y67941D01*
X1363427Y67577D01*
X1363241Y67217D01*
X1363045Y66862D01*
X1362841Y66512D01*
X1362629Y66167D01*
X1362408Y65828D01*
X1362178Y65493D01*
X1361941Y65165D01*
X1361696Y64843D01*
X1361442Y64526D01*
X1361182Y64216D01*
X1360913Y63913D01*
X1360637Y63616D01*
X1360354Y63326D01*
X1360064Y63043D01*
X1359767Y62767D01*
X1359464Y62498D01*
X1359154Y62238D01*
X1358837Y61984D01*
X1358515Y61739D01*
X1358187Y61502D01*
X1357852Y61272D01*
X1357513Y61051D01*
X1357168Y60839D01*
X1356818Y60635D01*
X1356463Y60439D01*
X1356103Y60253D01*
X1355739Y60075D01*
X1355371Y59906D01*
X1354998Y59747D01*
X1354622Y59596D01*
X1354242Y59455D01*
X1353859Y59323D01*
X1353473Y59201D01*
X1353083Y59088D01*
X1352692Y58985D01*
X1352297Y58891D01*
X1351901Y58807D01*
X1351503Y58733D01*
X1351103Y58669D01*
X1350701Y58614D01*
X1350298Y58570D01*
X1349895Y58535D01*
X1349490Y58510D01*
X1349085Y58495D01*
X1348680Y58490D01*
X1348275Y58495D01*
X1347870Y58510D01*
X1347465Y58535D01*
X1347062Y58570D01*
X1346659Y58614D01*
X1346257Y58669D01*
X1345857Y58733D01*
X1345459Y58807D01*
X1345063Y58891D01*
X1344668Y58985D01*
X1344277Y59088D01*
X1343887Y59201D01*
X1343501Y59323D01*
X1343118Y59455D01*
X1342738Y59596D01*
X1342362Y59747D01*
X1341989Y59906D01*
X1341621Y60075D01*
X1341257Y60253D01*
X1340897Y60439D01*
X1340542Y60635D01*
X1340192Y60839D01*
X1339847Y61051D01*
X1339508Y61272D01*
X1339173Y61502D01*
X1338845Y61739D01*
X1338523Y61984D01*
X1338206Y62238D01*
X1337896Y62498D01*
X1337593Y62767D01*
X1337296Y63043D01*
X1337006Y63326D01*
X1336723Y63616D01*
X1336447Y63913D01*
X1336178Y64216D01*
X1335918Y64526D01*
X1335664Y64843D01*
X1335419Y65165D01*
X1335182Y65493D01*
X1334952Y65828D01*
X1334731Y66167D01*
X1334519Y66512D01*
X1334315Y66862D01*
X1334119Y67217D01*
X1333933Y67577D01*
X1333755Y67941D01*
X1333586Y68309D01*
X1333427Y68682D01*
X1333276Y69058D01*
X1333135Y69438D01*
X1333003Y69821D01*
X1332881Y70207D01*
X1332768Y70597D01*
X1332665Y70988D01*
X1332571Y71383D01*
X1332487Y71779D01*
X1332413Y72177D01*
X1332349Y72577D01*
X1332294Y72979D01*
X1332250Y73382D01*
X1332215Y73785D01*
X1332190Y74190D01*
X1332175Y74595D01*
X1332170Y75000D01*
X2963490Y1831250D02*
X2963495Y1831655D01*
X2963510Y1832060D01*
X2963535Y1832465D01*
X2963570Y1832868D01*
X2963614Y1833271D01*
X2963669Y1833673D01*
X2963733Y1834073D01*
X2963807Y1834471D01*
X2963891Y1834867D01*
X2963985Y1835262D01*
X2964088Y1835653D01*
X2964201Y1836043D01*
X2964323Y1836429D01*
X2964455Y1836812D01*
X2964596Y1837192D01*
X2964747Y1837568D01*
X2964906Y1837941D01*
X2965075Y1838309D01*
X2965253Y1838673D01*
X2965439Y1839033D01*
X2965635Y1839388D01*
X2965839Y1839738D01*
X2966051Y1840083D01*
X2966272Y1840422D01*
X2966502Y1840757D01*
X2966739Y1841085D01*
X2966984Y1841407D01*
X2967238Y1841724D01*
X2967498Y1842034D01*
X2967767Y1842337D01*
X2968043Y1842634D01*
X2968326Y1842924D01*
X2968616Y1843207D01*
X2968913Y1843483D01*
X2969216Y1843752D01*
X2969526Y1844012D01*
X2969843Y1844266D01*
X2970165Y1844511D01*
X2970493Y1844748D01*
X2970828Y1844978D01*
X2971167Y1845199D01*
X2971512Y1845411D01*
X2971862Y1845615D01*
X2972217Y1845811D01*
X2972577Y1845997D01*
X2972941Y1846175D01*
X2973309Y1846344D01*
X2973682Y1846503D01*
X2974058Y1846654D01*
X2974438Y1846795D01*
X2974821Y1846927D01*
X2975207Y1847049D01*
X2975597Y1847162D01*
X2975988Y1847265D01*
X2976383Y1847359D01*
X2976779Y1847443D01*
X2977177Y1847517D01*
X2977577Y1847581D01*
X2977979Y1847636D01*
X2978382Y1847680D01*
X2978785Y1847715D01*
X2979190Y1847740D01*
X2979595Y1847755D01*
X2980000Y1847760D01*
X2980405Y1847755D01*
X2980810Y1847740D01*
X2981215Y1847715D01*
X2981618Y1847680D01*
X2982021Y1847636D01*
X2982423Y1847581D01*
X2982823Y1847517D01*
X2983221Y1847443D01*
X2983617Y1847359D01*
X2984012Y1847265D01*
X2984403Y1847162D01*
X2984793Y1847049D01*
X2985179Y1846927D01*
X2985562Y1846795D01*
X2985942Y1846654D01*
X2986318Y1846503D01*
X2986691Y1846344D01*
X2987059Y1846175D01*
X2987423Y1845997D01*
X2987783Y1845811D01*
X2988138Y1845615D01*
X2988488Y1845411D01*
X2988833Y1845199D01*
X2989172Y1844978D01*
X2989507Y1844748D01*
X2989835Y1844511D01*
X2990157Y1844266D01*
X2990474Y1844012D01*
X2990784Y1843752D01*
X2991087Y1843483D01*
X2991384Y1843207D01*
X2991674Y1842924D01*
X2991957Y1842634D01*
X2992233Y1842337D01*
X2992502Y1842034D01*
X2992762Y1841724D01*
X2993016Y1841407D01*
X2993261Y1841085D01*
X2993498Y1840757D01*
X2993728Y1840422D01*
X2993949Y1840083D01*
X2994161Y1839738D01*
X2994365Y1839388D01*
X2994561Y1839033D01*
X2994747Y1838673D01*
X2994925Y1838309D01*
X2995094Y1837941D01*
X2995253Y1837568D01*
X2995404Y1837192D01*
X2995545Y1836812D01*
X2995677Y1836429D01*
X2995799Y1836043D01*
X2995912Y1835653D01*
X2996015Y1835262D01*
X2996109Y1834867D01*
X2996193Y1834471D01*
X2996267Y1834073D01*
X2996331Y1833673D01*
X2996386Y1833271D01*
X2996430Y1832868D01*
X2996465Y1832465D01*
X2996490Y1832060D01*
X2996505Y1831655D01*
X2996510Y1831250D01*
X2996505Y1830845D01*
X2996490Y1830440D01*
X2996465Y1830035D01*
X2996430Y1829632D01*
X2996386Y1829229D01*
X2996331Y1828827D01*
X2996267Y1828427D01*
X2996193Y1828029D01*
X2996109Y1827633D01*
X2996015Y1827238D01*
X2995912Y1826847D01*
X2995799Y1826457D01*
X2995677Y1826071D01*
X2995545Y1825688D01*
X2995404Y1825308D01*
X2995253Y1824932D01*
X2995094Y1824559D01*
X2994925Y1824191D01*
X2994747Y1823827D01*
X2994561Y1823467D01*
X2994365Y1823112D01*
X2994161Y1822762D01*
X2993949Y1822417D01*
X2993728Y1822078D01*
X2993498Y1821743D01*
X2993261Y1821415D01*
X2993016Y1821093D01*
X2992762Y1820776D01*
X2992502Y1820466D01*
X2992233Y1820163D01*
X2991957Y1819866D01*
X2991674Y1819576D01*
X2991384Y1819293D01*
X2991087Y1819017D01*
X2990784Y1818748D01*
X2990474Y1818488D01*
X2990157Y1818234D01*
X2989835Y1817989D01*
X2989507Y1817752D01*
X2989172Y1817522D01*
X2988833Y1817301D01*
X2988488Y1817089D01*
X2988138Y1816885D01*
X2987783Y1816689D01*
X2987423Y1816503D01*
X2987059Y1816325D01*
X2986691Y1816156D01*
X2986318Y1815997D01*
X2985942Y1815846D01*
X2985562Y1815705D01*
X2985179Y1815573D01*
X2984793Y1815451D01*
X2984403Y1815338D01*
X2984012Y1815235D01*
X2983617Y1815141D01*
X2983221Y1815057D01*
X2982823Y1814983D01*
X2982423Y1814919D01*
X2982021Y1814864D01*
X2981618Y1814820D01*
X2981215Y1814785D01*
X2980810Y1814760D01*
X2980405Y1814745D01*
X2980000Y1814740D01*
X2979595Y1814745D01*
X2979190Y1814760D01*
X2978785Y1814785D01*
X2978382Y1814820D01*
X2977979Y1814864D01*
X2977577Y1814919D01*
X2977177Y1814983D01*
X2976779Y1815057D01*
X2976383Y1815141D01*
X2975988Y1815235D01*
X2975597Y1815338D01*
X2975207Y1815451D01*
X2974821Y1815573D01*
X2974438Y1815705D01*
X2974058Y1815846D01*
X2973682Y1815997D01*
X2973309Y1816156D01*
X2972941Y1816325D01*
X2972577Y1816503D01*
X2972217Y1816689D01*
X2971862Y1816885D01*
X2971512Y1817089D01*
X2971167Y1817301D01*
X2970828Y1817522D01*
X2970493Y1817752D01*
X2970165Y1817989D01*
X2969843Y1818234D01*
X2969526Y1818488D01*
X2969216Y1818748D01*
X2968913Y1819017D01*
X2968616Y1819293D01*
X2968326Y1819576D01*
X2968043Y1819866D01*
X2967767Y1820163D01*
X2967498Y1820466D01*
X2967238Y1820776D01*
X2966984Y1821093D01*
X2966739Y1821415D01*
X2966502Y1821743D01*
X2966272Y1822078D01*
X2966051Y1822417D01*
X2965839Y1822762D01*
X2965635Y1823112D01*
X2965439Y1823467D01*
X2965253Y1823827D01*
X2965075Y1824191D01*
X2964906Y1824559D01*
X2964747Y1824932D01*
X2964596Y1825308D01*
X2964455Y1825688D01*
X2964323Y1826071D01*
X2964201Y1826457D01*
X2964088Y1826847D01*
X2963985Y1827238D01*
X2963891Y1827633D01*
X2963807Y1828029D01*
X2963733Y1828427D01*
X2963669Y1828827D01*
X2963614Y1829229D01*
X2963570Y1829632D01*
X2963535Y1830035D01*
X2963510Y1830440D01*
X2963495Y1830845D01*
X2963490Y1831250D01*
X58490Y1831250D02*
X58495Y1831655D01*
X58510Y1832060D01*
X58535Y1832465D01*
X58570Y1832868D01*
X58614Y1833271D01*
X58669Y1833673D01*
X58733Y1834073D01*
X58807Y1834471D01*
X58891Y1834867D01*
X58985Y1835262D01*
X59088Y1835653D01*
X59201Y1836043D01*
X59323Y1836429D01*
X59455Y1836812D01*
X59596Y1837192D01*
X59747Y1837568D01*
X59906Y1837941D01*
X60075Y1838309D01*
X60253Y1838673D01*
X60439Y1839033D01*
X60635Y1839388D01*
X60839Y1839738D01*
X61051Y1840083D01*
X61272Y1840422D01*
X61502Y1840757D01*
X61739Y1841085D01*
X61984Y1841407D01*
X62238Y1841724D01*
X62498Y1842034D01*
X62767Y1842337D01*
X63043Y1842634D01*
X63326Y1842924D01*
X63616Y1843207D01*
X63913Y1843483D01*
X64216Y1843752D01*
X64526Y1844012D01*
X64843Y1844266D01*
X65165Y1844511D01*
X65493Y1844748D01*
X65828Y1844978D01*
X66167Y1845199D01*
X66512Y1845411D01*
X66862Y1845615D01*
X67217Y1845811D01*
X67577Y1845997D01*
X67941Y1846175D01*
X68309Y1846344D01*
X68682Y1846503D01*
X69058Y1846654D01*
X69438Y1846795D01*
X69821Y1846927D01*
X70207Y1847049D01*
X70597Y1847162D01*
X70988Y1847265D01*
X71383Y1847359D01*
X71779Y1847443D01*
X72177Y1847517D01*
X72577Y1847581D01*
X72979Y1847636D01*
X73382Y1847680D01*
X73785Y1847715D01*
X74190Y1847740D01*
X74595Y1847755D01*
X75000Y1847760D01*
X75405Y1847755D01*
X75810Y1847740D01*
X76215Y1847715D01*
X76618Y1847680D01*
X77021Y1847636D01*
X77423Y1847581D01*
X77823Y1847517D01*
X78221Y1847443D01*
X78617Y1847359D01*
X79012Y1847265D01*
X79403Y1847162D01*
X79793Y1847049D01*
X80179Y1846927D01*
X80562Y1846795D01*
X80942Y1846654D01*
X81318Y1846503D01*
X81691Y1846344D01*
X82059Y1846175D01*
X82423Y1845997D01*
X82783Y1845811D01*
X83138Y1845615D01*
X83488Y1845411D01*
X83833Y1845199D01*
X84172Y1844978D01*
X84507Y1844748D01*
X84835Y1844511D01*
X85157Y1844266D01*
X85474Y1844012D01*
X85784Y1843752D01*
X86087Y1843483D01*
X86384Y1843207D01*
X86674Y1842924D01*
X86957Y1842634D01*
X87233Y1842337D01*
X87502Y1842034D01*
X87762Y1841724D01*
X88016Y1841407D01*
X88261Y1841085D01*
X88498Y1840757D01*
X88728Y1840422D01*
X88949Y1840083D01*
X89161Y1839738D01*
X89365Y1839388D01*
X89561Y1839033D01*
X89747Y1838673D01*
X89925Y1838309D01*
X90094Y1837941D01*
X90253Y1837568D01*
X90404Y1837192D01*
X90545Y1836812D01*
X90677Y1836429D01*
X90799Y1836043D01*
X90912Y1835653D01*
X91015Y1835262D01*
X91109Y1834867D01*
X91193Y1834471D01*
X91267Y1834073D01*
X91331Y1833673D01*
X91386Y1833271D01*
X91430Y1832868D01*
X91465Y1832465D01*
X91490Y1832060D01*
X91505Y1831655D01*
X91510Y1831250D01*
X91505Y1830845D01*
X91490Y1830440D01*
X91465Y1830035D01*
X91430Y1829632D01*
X91386Y1829229D01*
X91331Y1828827D01*
X91267Y1828427D01*
X91193Y1828029D01*
X91109Y1827633D01*
X91015Y1827238D01*
X90912Y1826847D01*
X90799Y1826457D01*
X90677Y1826071D01*
X90545Y1825688D01*
X90404Y1825308D01*
X90253Y1824932D01*
X90094Y1824559D01*
X89925Y1824191D01*
X89747Y1823827D01*
X89561Y1823467D01*
X89365Y1823112D01*
X89161Y1822762D01*
X88949Y1822417D01*
X88728Y1822078D01*
X88498Y1821743D01*
X88261Y1821415D01*
X88016Y1821093D01*
X87762Y1820776D01*
X87502Y1820466D01*
X87233Y1820163D01*
X86957Y1819866D01*
X86674Y1819576D01*
X86384Y1819293D01*
X86087Y1819017D01*
X85784Y1818748D01*
X85474Y1818488D01*
X85157Y1818234D01*
X84835Y1817989D01*
X84507Y1817752D01*
X84172Y1817522D01*
X83833Y1817301D01*
X83488Y1817089D01*
X83138Y1816885D01*
X82783Y1816689D01*
X82423Y1816503D01*
X82059Y1816325D01*
X81691Y1816156D01*
X81318Y1815997D01*
X80942Y1815846D01*
X80562Y1815705D01*
X80179Y1815573D01*
X79793Y1815451D01*
X79403Y1815338D01*
X79012Y1815235D01*
X78617Y1815141D01*
X78221Y1815057D01*
X77823Y1814983D01*
X77423Y1814919D01*
X77021Y1814864D01*
X76618Y1814820D01*
X76215Y1814785D01*
X75810Y1814760D01*
X75405Y1814745D01*
X75000Y1814740D01*
X74595Y1814745D01*
X74190Y1814760D01*
X73785Y1814785D01*
X73382Y1814820D01*
X72979Y1814864D01*
X72577Y1814919D01*
X72177Y1814983D01*
X71779Y1815057D01*
X71383Y1815141D01*
X70988Y1815235D01*
X70597Y1815338D01*
X70207Y1815451D01*
X69821Y1815573D01*
X69438Y1815705D01*
X69058Y1815846D01*
X68682Y1815997D01*
X68309Y1816156D01*
X67941Y1816325D01*
X67577Y1816503D01*
X67217Y1816689D01*
X66862Y1816885D01*
X66512Y1817089D01*
X66167Y1817301D01*
X65828Y1817522D01*
X65493Y1817752D01*
X65165Y1817989D01*
X64843Y1818234D01*
X64526Y1818488D01*
X64216Y1818748D01*
X63913Y1819017D01*
X63616Y1819293D01*
X63326Y1819576D01*
X63043Y1819866D01*
X62767Y1820163D01*
X62498Y1820466D01*
X62238Y1820776D01*
X61984Y1821093D01*
X61739Y1821415D01*
X61502Y1821743D01*
X61272Y1822078D01*
X61051Y1822417D01*
X60839Y1822762D01*
X60635Y1823112D01*
X60439Y1823467D01*
X60253Y1823827D01*
X60075Y1824191D01*
X59906Y1824559D01*
X59747Y1824932D01*
X59596Y1825308D01*
X59455Y1825688D01*
X59323Y1826071D01*
X59201Y1826457D01*
X59088Y1826847D01*
X58985Y1827238D01*
X58891Y1827633D01*
X58807Y1828029D01*
X58733Y1828427D01*
X58669Y1828827D01*
X58614Y1829229D01*
X58570Y1829632D01*
X58535Y1830035D01*
X58510Y1830440D01*
X58495Y1830845D01*
X58490Y1831250D01*
D13*
X0Y0D02*
X585630Y0D01*
X585630Y233200D01*
X645320Y233200D01*
X645320Y0D01*
X3055000Y0D01*
X3055000Y170000D01*
X3155000Y170000D01*
X3155000Y470000D01*
X3055000Y470000D01*
X3055000Y1900000D01*
X0Y1900000D01*
X0Y0D01*
X3093650Y270200D02*
X3104650Y270200D01*
X3104911Y270211D01*
X3105171Y270246D01*
X3105426Y270302D01*
X3105676Y270381D01*
X3105918Y270481D01*
X3106150Y270602D01*
X3106371Y270743D01*
X3106578Y270902D01*
X3106771Y271079D01*
X3106948Y271272D01*
X3107107Y271479D01*
X3107248Y271700D01*
X3107369Y271932D01*
X3107469Y272174D01*
X3107548Y272424D01*
X3107604Y272679D01*
X3107639Y272939D01*
X3107650Y273200D01*
X3107639Y273461D01*
X3107604Y273721D01*
X3107548Y273976D01*
X3107469Y274226D01*
X3107369Y274468D01*
X3107248Y274700D01*
X3107107Y274921D01*
X3106948Y275128D01*
X3106771Y275321D01*
X3106578Y275498D01*
X3106371Y275657D01*
X3106150Y275798D01*
X3105918Y275919D01*
X3105676Y276019D01*
X3105426Y276098D01*
X3105171Y276154D01*
X3104911Y276189D01*
X3104650Y276200D01*
X3093650Y276200D01*
X3093389Y276189D01*
X3093129Y276154D01*
X3092874Y276098D01*
X3092624Y276019D01*
X3092382Y275919D01*
X3092150Y275798D01*
X3091929Y275657D01*
X3091722Y275498D01*
X3091529Y275321D01*
X3091352Y275128D01*
X3091193Y274921D01*
X3091052Y274700D01*
X3090931Y274468D01*
X3090831Y274226D01*
X3090752Y273976D01*
X3090696Y273721D01*
X3090661Y273461D01*
X3090650Y273200D01*
X3090661Y272939D01*
X3090696Y272679D01*
X3090752Y272424D01*
X3090831Y272174D01*
X3090931Y271932D01*
X3091052Y271700D01*
X3091193Y271479D01*
X3091352Y271272D01*
X3091529Y271079D01*
X3091722Y270902D01*
X3091929Y270743D01*
X3092150Y270602D01*
X3092382Y270481D01*
X3092624Y270381D01*
X3092874Y270302D01*
X3093129Y270246D01*
X3093389Y270211D01*
X3093650Y270200D01*
X3137800Y270200D02*
X3144000Y270200D01*
X3144261Y270211D01*
X3144521Y270246D01*
X3144776Y270302D01*
X3145026Y270381D01*
X3145268Y270481D01*
X3145500Y270602D01*
X3145721Y270743D01*
X3145928Y270902D01*
X3146121Y271079D01*
X3146298Y271272D01*
X3146457Y271479D01*
X3146598Y271700D01*
X3146719Y271932D01*
X3146819Y272174D01*
X3146898Y272424D01*
X3146954Y272679D01*
X3146989Y272939D01*
X3147000Y273200D01*
X3146989Y273461D01*
X3146954Y273721D01*
X3146898Y273976D01*
X3146819Y274226D01*
X3146719Y274468D01*
X3146598Y274700D01*
X3146457Y274921D01*
X3146298Y275128D01*
X3146121Y275321D01*
X3145928Y275498D01*
X3145721Y275657D01*
X3145500Y275798D01*
X3145268Y275919D01*
X3145026Y276019D01*
X3144776Y276098D01*
X3144521Y276154D01*
X3144261Y276189D01*
X3144000Y276200D01*
X3137800Y276200D01*
X3137539Y276189D01*
X3137279Y276154D01*
X3137024Y276098D01*
X3136774Y276019D01*
X3136532Y275919D01*
X3136300Y275798D01*
X3136079Y275657D01*
X3135872Y275498D01*
X3135679Y275321D01*
X3135502Y275128D01*
X3135343Y274921D01*
X3135202Y274700D01*
X3135081Y274468D01*
X3134981Y274226D01*
X3134902Y273976D01*
X3134846Y273721D01*
X3134811Y273461D01*
X3134800Y273200D01*
X3134811Y272939D01*
X3134846Y272679D01*
X3134902Y272424D01*
X3134981Y272174D01*
X3135081Y271932D01*
X3135202Y271700D01*
X3135343Y271479D01*
X3135502Y271272D01*
X3135679Y271079D01*
X3135872Y270902D01*
X3136079Y270743D01*
X3136300Y270602D01*
X3136532Y270481D01*
X3136774Y270381D01*
X3137024Y270302D01*
X3137279Y270246D01*
X3137539Y270211D01*
X3137800Y270200D01*
X3137800Y183800D02*
X3144000Y183800D01*
X3144261Y183811D01*
X3144521Y183846D01*
X3144776Y183902D01*
X3145026Y183981D01*
X3145268Y184081D01*
X3145500Y184202D01*
X3145721Y184343D01*
X3145928Y184502D01*
X3146121Y184679D01*
X3146298Y184872D01*
X3146457Y185079D01*
X3146598Y185300D01*
X3146719Y185532D01*
X3146819Y185774D01*
X3146898Y186024D01*
X3146954Y186279D01*
X3146989Y186539D01*
X3147000Y186800D01*
X3146989Y187061D01*
X3146954Y187321D01*
X3146898Y187576D01*
X3146819Y187826D01*
X3146719Y188068D01*
X3146598Y188300D01*
X3146457Y188521D01*
X3146298Y188728D01*
X3146121Y188921D01*
X3145928Y189098D01*
X3145721Y189257D01*
X3145500Y189398D01*
X3145268Y189519D01*
X3145026Y189619D01*
X3144776Y189698D01*
X3144521Y189754D01*
X3144261Y189789D01*
X3144000Y189800D01*
X3137800Y189800D01*
X3137539Y189789D01*
X3137279Y189754D01*
X3137024Y189698D01*
X3136774Y189619D01*
X3136532Y189519D01*
X3136300Y189398D01*
X3136079Y189257D01*
X3135872Y189098D01*
X3135679Y188921D01*
X3135502Y188728D01*
X3135343Y188521D01*
X3135202Y188300D01*
X3135081Y188068D01*
X3134981Y187826D01*
X3134902Y187576D01*
X3134846Y187321D01*
X3134811Y187061D01*
X3134800Y186800D01*
X3134811Y186539D01*
X3134846Y186279D01*
X3134902Y186024D01*
X3134981Y185774D01*
X3135081Y185532D01*
X3135202Y185300D01*
X3135343Y185079D01*
X3135502Y184872D01*
X3135679Y184679D01*
X3135872Y184502D01*
X3136079Y184343D01*
X3136300Y184202D01*
X3136532Y184081D01*
X3136774Y183981D01*
X3137024Y183902D01*
X3137279Y183846D01*
X3137539Y183811D01*
X3137800Y183800D01*
X3093650Y183800D02*
X3104650Y183800D01*
X3104911Y183811D01*
X3105171Y183846D01*
X3105426Y183902D01*
X3105676Y183981D01*
X3105918Y184081D01*
X3106150Y184202D01*
X3106371Y184343D01*
X3106578Y184502D01*
X3106771Y184679D01*
X3106948Y184872D01*
X3107107Y185079D01*
X3107248Y185300D01*
X3107369Y185532D01*
X3107469Y185774D01*
X3107548Y186024D01*
X3107604Y186279D01*
X3107639Y186539D01*
X3107650Y186800D01*
X3107639Y187061D01*
X3107604Y187321D01*
X3107548Y187576D01*
X3107469Y187826D01*
X3107369Y188068D01*
X3107248Y188300D01*
X3107107Y188521D01*
X3106948Y188728D01*
X3106771Y188921D01*
X3106578Y189098D01*
X3106371Y189257D01*
X3106150Y189398D01*
X3105918Y189519D01*
X3105676Y189619D01*
X3105426Y189698D01*
X3105171Y189754D01*
X3104911Y189789D01*
X3104650Y189800D01*
X3093650Y189800D01*
X3093389Y189789D01*
X3093129Y189754D01*
X3092874Y189698D01*
X3092624Y189619D01*
X3092382Y189519D01*
X3092150Y189398D01*
X3091929Y189257D01*
X3091722Y189098D01*
X3091529Y188921D01*
X3091352Y188728D01*
X3091193Y188521D01*
X3091052Y188300D01*
X3090931Y188068D01*
X3090831Y187826D01*
X3090752Y187576D01*
X3090696Y187321D01*
X3090661Y187061D01*
X3090650Y186800D01*
X3090661Y186539D01*
X3090696Y186279D01*
X3090752Y186024D01*
X3090831Y185774D01*
X3090931Y185532D01*
X3091052Y185300D01*
X3091193Y185079D01*
X3091352Y184872D01*
X3091529Y184679D01*
X3091722Y184502D01*
X3091929Y184343D01*
X3092150Y184202D01*
X3092382Y184081D01*
X3092624Y183981D01*
X3092874Y183902D01*
X3093129Y183846D01*
X3093389Y183811D01*
X3093650Y183800D01*
X2996510Y74460D02*
X2996439Y73381D01*
X2996298Y72309D01*
X2996087Y71249D01*
X2995808Y70205D01*
X2995460Y69181D01*
X2995046Y68183D01*
X2994568Y67213D01*
X2994028Y66277D01*
X2993427Y65378D01*
X2992769Y64521D01*
X2992057Y63708D01*
X2991292Y62944D01*
X2990479Y62231D01*
X2989622Y61573D01*
X2988723Y60972D01*
X2987787Y60432D01*
X2986817Y59954D01*
X2985819Y59540D01*
X2984795Y59192D01*
X2983751Y58913D01*
X2982691Y58702D01*
X2981619Y58561D01*
X2980540Y58490D01*
X2979460Y58490D01*
X2978381Y58561D01*
X2977309Y58702D01*
X2976249Y58913D01*
X2975205Y59192D01*
X2974181Y59540D01*
X2973183Y59954D01*
X2972213Y60432D01*
X2971277Y60972D01*
X2970378Y61573D01*
X2969521Y62231D01*
X2968708Y62944D01*
X2967944Y63708D01*
X2967231Y64521D01*
X2966573Y65378D01*
X2965972Y66277D01*
X2965432Y67213D01*
X2964954Y68183D01*
X2964540Y69181D01*
X2964192Y70205D01*
X2963913Y71249D01*
X2963702Y72309D01*
X2963561Y73381D01*
X2963490Y74460D01*
X2963490Y75540D01*
X2963561Y76619D01*
X2963702Y77691D01*
X2963913Y78751D01*
X2964192Y79795D01*
X2964540Y80819D01*
X2964954Y81817D01*
X2965432Y82787D01*
X2965972Y83723D01*
X2966573Y84622D01*
X2967231Y85479D01*
X2967944Y86292D01*
X2968708Y87057D01*
X2969521Y87769D01*
X2970378Y88427D01*
X2971277Y89028D01*
X2972213Y89568D01*
X2973183Y90046D01*
X2974181Y90460D01*
X2975205Y90808D01*
X2976249Y91087D01*
X2977309Y91298D01*
X2978381Y91439D01*
X2979460Y91510D01*
X2980540Y91510D01*
X2981619Y91439D01*
X2982691Y91298D01*
X2983751Y91087D01*
X2984795Y90808D01*
X2985819Y90460D01*
X2986817Y90046D01*
X2987787Y89568D01*
X2988723Y89028D01*
X2989622Y88427D01*
X2990479Y87769D01*
X2991292Y87057D01*
X2992057Y86292D01*
X2992769Y85479D01*
X2993427Y84622D01*
X2994028Y83723D01*
X2994568Y82787D01*
X2995046Y81817D01*
X2995460Y80819D01*
X2995808Y79795D01*
X2996087Y78751D01*
X2996298Y77691D01*
X2996439Y76619D01*
X2996510Y75540D01*
X2996510Y74460D01*
X91510Y74460D02*
X91439Y73381D01*
X91298Y72309D01*
X91087Y71249D01*
X90808Y70205D01*
X90460Y69181D01*
X90046Y68183D01*
X89568Y67213D01*
X89028Y66277D01*
X88427Y65378D01*
X87769Y64521D01*
X87057Y63708D01*
X86292Y62944D01*
X85479Y62231D01*
X84622Y61573D01*
X83723Y60972D01*
X82787Y60432D01*
X81817Y59954D01*
X80819Y59540D01*
X79795Y59192D01*
X78751Y58913D01*
X77691Y58702D01*
X76619Y58561D01*
X75540Y58490D01*
X74460Y58490D01*
X73381Y58561D01*
X72309Y58702D01*
X71249Y58913D01*
X70205Y59192D01*
X69181Y59540D01*
X68183Y59954D01*
X67213Y60432D01*
X66277Y60972D01*
X65378Y61573D01*
X64521Y62231D01*
X63708Y62944D01*
X62944Y63708D01*
X62231Y64521D01*
X61573Y65378D01*
X60972Y66277D01*
X60432Y67213D01*
X59954Y68183D01*
X59540Y69181D01*
X59192Y70205D01*
X58913Y71249D01*
X58702Y72309D01*
X58561Y73381D01*
X58490Y74460D01*
X58490Y75540D01*
X58561Y76619D01*
X58702Y77691D01*
X58913Y78751D01*
X59192Y79795D01*
X59540Y80819D01*
X59954Y81817D01*
X60432Y82787D01*
X60972Y83723D01*
X61573Y84622D01*
X62231Y85479D01*
X62944Y86292D01*
X63708Y87057D01*
X64521Y87769D01*
X65378Y88427D01*
X66277Y89028D01*
X67213Y89568D01*
X68183Y90046D01*
X69181Y90460D01*
X70205Y90808D01*
X71249Y91087D01*
X72309Y91298D01*
X73381Y91439D01*
X74460Y91510D01*
X75540Y91510D01*
X76619Y91439D01*
X77691Y91298D01*
X78751Y91087D01*
X79795Y90808D01*
X80819Y90460D01*
X81817Y90046D01*
X82787Y89568D01*
X83723Y89028D01*
X84622Y88427D01*
X85479Y87769D01*
X86292Y87057D01*
X87057Y86292D01*
X87769Y85479D01*
X88427Y84622D01*
X89028Y83723D01*
X89568Y82787D01*
X90046Y81817D01*
X90460Y80819D01*
X90808Y79795D01*
X91087Y78751D01*
X91298Y77691D01*
X91439Y76619D01*
X91510Y75540D01*
X91510Y74460D01*
X3104663Y204350D02*
X3105085Y204294D01*
X3105497Y204184D01*
X3105891Y204021D01*
X3106259Y203808D01*
X3106597Y203549D01*
X3106899Y203247D01*
X3107158Y202909D01*
X3107371Y202541D01*
X3107534Y202147D01*
X3107644Y201735D01*
X3107700Y201313D01*
X3107700Y200887D01*
X3107644Y200465D01*
X3107534Y200053D01*
X3107371Y199659D01*
X3107158Y199291D01*
X3106899Y198953D01*
X3106597Y198651D01*
X3106259Y198392D01*
X3105891Y198179D01*
X3105497Y198016D01*
X3105085Y197906D01*
X3104663Y197850D01*
X3104237Y197850D01*
X3103815Y197906D01*
X3103403Y198016D01*
X3103009Y198179D01*
X3102641Y198392D01*
X3102303Y198651D01*
X3102001Y198953D01*
X3101742Y199291D01*
X3101529Y199659D01*
X3101366Y200053D01*
X3101256Y200465D01*
X3101200Y200887D01*
X3101200Y201313D01*
X3101256Y201735D01*
X3101366Y202147D01*
X3101529Y202541D01*
X3101742Y202909D01*
X3102001Y203247D01*
X3102303Y203549D01*
X3102641Y203808D01*
X3103009Y204021D01*
X3103403Y204184D01*
X3103815Y204294D01*
X3104237Y204350D01*
X3104663Y204350D01*
X3104663Y262150D02*
X3105085Y262094D01*
X3105497Y261984D01*
X3105891Y261821D01*
X3106259Y261608D01*
X3106597Y261349D01*
X3106899Y261047D01*
X3107158Y260709D01*
X3107371Y260341D01*
X3107534Y259947D01*
X3107644Y259535D01*
X3107700Y259113D01*
X3107700Y258687D01*
X3107644Y258265D01*
X3107534Y257853D01*
X3107371Y257459D01*
X3107158Y257091D01*
X3106899Y256753D01*
X3106597Y256451D01*
X3106259Y256192D01*
X3105891Y255979D01*
X3105497Y255816D01*
X3105085Y255706D01*
X3104663Y255650D01*
X3104237Y255650D01*
X3103815Y255706D01*
X3103403Y255816D01*
X3103009Y255979D01*
X3102641Y256192D01*
X3102303Y256451D01*
X3102001Y256753D01*
X3101742Y257091D01*
X3101529Y257459D01*
X3101366Y257853D01*
X3101256Y258265D01*
X3101200Y258687D01*
X3101200Y259113D01*
X3101256Y259535D01*
X3101366Y259947D01*
X3101529Y260341D01*
X3101742Y260709D01*
X3102001Y261047D01*
X3102303Y261349D01*
X3102641Y261608D01*
X3103009Y261821D01*
X3103403Y261984D01*
X3103815Y262094D01*
X3104237Y262150D01*
X3104663Y262150D01*
X3133000Y410337D02*
X3133075Y411007D01*
X3133225Y411664D01*
X3133448Y412300D01*
X3133740Y412907D01*
X3134099Y413478D01*
X3134519Y414004D01*
X3134996Y414481D01*
X3135523Y414901D01*
X3136093Y415260D01*
X3136700Y415552D01*
X3137336Y415775D01*
X3137993Y415925D01*
X3138663Y416000D01*
X3139337Y416000D01*
X3140007Y415925D01*
X3140664Y415775D01*
X3141300Y415552D01*
X3141907Y415260D01*
X3142478Y414901D01*
X3143004Y414481D01*
X3143481Y414004D01*
X3143901Y413478D01*
X3144260Y412907D01*
X3144552Y412300D01*
X3144775Y411664D01*
X3144925Y411007D01*
X3145000Y410337D01*
X3145000Y409663D01*
X3144925Y408993D01*
X3144775Y408336D01*
X3144552Y407700D01*
X3144260Y407093D01*
X3143901Y406523D01*
X3143481Y405996D01*
X3143004Y405519D01*
X3142478Y405099D01*
X3141907Y404740D01*
X3141300Y404448D01*
X3140664Y404225D01*
X3140007Y404075D01*
X3139337Y404000D01*
X3138663Y404000D01*
X3137993Y404075D01*
X3137336Y404225D01*
X3136700Y404448D01*
X3136093Y404740D01*
X3135523Y405099D01*
X3134996Y405519D01*
X3134519Y405996D01*
X3134099Y406523D01*
X3133740Y407093D01*
X3133448Y407700D01*
X3133225Y408336D01*
X3133075Y408993D01*
X3133000Y409663D01*
X3133000Y410337D01*
X3063000Y410337D02*
X3063075Y411007D01*
X3063225Y411664D01*
X3063448Y412300D01*
X3063740Y412907D01*
X3064099Y413478D01*
X3064519Y414004D01*
X3064996Y414481D01*
X3065523Y414901D01*
X3066093Y415260D01*
X3066700Y415552D01*
X3067336Y415775D01*
X3067993Y415925D01*
X3068663Y416000D01*
X3069337Y416000D01*
X3070007Y415925D01*
X3070664Y415775D01*
X3071300Y415552D01*
X3071907Y415260D01*
X3072478Y414901D01*
X3073004Y414481D01*
X3073481Y414004D01*
X3073901Y413478D01*
X3074260Y412907D01*
X3074552Y412300D01*
X3074775Y411664D01*
X3074925Y411007D01*
X3075000Y410337D01*
X3075000Y409663D01*
X3074925Y408993D01*
X3074775Y408336D01*
X3074552Y407700D01*
X3074260Y407093D01*
X3073901Y406523D01*
X3073481Y405996D01*
X3073004Y405519D01*
X3072478Y405099D01*
X3071907Y404740D01*
X3071300Y404448D01*
X3070664Y404225D01*
X3070007Y404075D01*
X3069337Y404000D01*
X3068663Y404000D01*
X3067993Y404075D01*
X3067336Y404225D01*
X3066700Y404448D01*
X3066093Y404740D01*
X3065523Y405099D01*
X3064996Y405519D01*
X3064519Y405996D01*
X3064099Y406523D01*
X3063740Y407093D01*
X3063448Y407700D01*
X3063225Y408336D01*
X3063075Y408993D01*
X3063000Y409663D01*
X3063000Y410337D01*
X126705Y170700D02*
X126120Y170777D01*
X125550Y170930D01*
X125005Y171155D01*
X124495Y171450D01*
X124027Y171809D01*
X123609Y172227D01*
X123250Y172695D01*
X122955Y173205D01*
X122730Y173750D01*
X122577Y174320D01*
X122500Y174905D01*
X122500Y175495D01*
X122577Y176080D01*
X122730Y176650D01*
X122955Y177195D01*
X123250Y177705D01*
X123609Y178173D01*
X124027Y178591D01*
X124495Y178950D01*
X125005Y179245D01*
X125550Y179470D01*
X126120Y179623D01*
X126705Y179700D01*
X127295Y179700D01*
X127880Y179623D01*
X128450Y179470D01*
X128995Y179245D01*
X129505Y178950D01*
X129973Y178591D01*
X130391Y178173D01*
X130750Y177705D01*
X131045Y177195D01*
X131270Y176650D01*
X131423Y176080D01*
X131500Y175495D01*
X131500Y174905D01*
X131423Y174320D01*
X131270Y173750D01*
X131045Y173205D01*
X130750Y172695D01*
X130391Y172227D01*
X129973Y171809D01*
X129505Y171450D01*
X128995Y171155D01*
X128450Y170930D01*
X127880Y170777D01*
X127295Y170700D01*
X126705Y170700D01*
X1722830Y1830710D02*
X1722759Y1829631D01*
X1722618Y1828559D01*
X1722407Y1827499D01*
X1722128Y1826455D01*
X1721780Y1825431D01*
X1721366Y1824433D01*
X1720888Y1823463D01*
X1720348Y1822527D01*
X1719747Y1821628D01*
X1719089Y1820771D01*
X1718377Y1819958D01*
X1717612Y1819194D01*
X1716799Y1818481D01*
X1715942Y1817823D01*
X1715043Y1817222D01*
X1714107Y1816682D01*
X1713137Y1816204D01*
X1712139Y1815790D01*
X1711115Y1815442D01*
X1710071Y1815163D01*
X1709011Y1814952D01*
X1707939Y1814811D01*
X1706860Y1814740D01*
X1705780Y1814740D01*
X1704701Y1814811D01*
X1703629Y1814952D01*
X1702569Y1815163D01*
X1701525Y1815442D01*
X1700501Y1815790D01*
X1699503Y1816204D01*
X1698533Y1816682D01*
X1697597Y1817222D01*
X1696698Y1817823D01*
X1695841Y1818481D01*
X1695028Y1819194D01*
X1694264Y1819958D01*
X1693551Y1820771D01*
X1692893Y1821628D01*
X1692292Y1822527D01*
X1691752Y1823463D01*
X1691274Y1824433D01*
X1690860Y1825431D01*
X1690512Y1826455D01*
X1690233Y1827499D01*
X1690022Y1828559D01*
X1689881Y1829631D01*
X1689810Y1830710D01*
X1689810Y1831790D01*
X1689881Y1832869D01*
X1690022Y1833941D01*
X1690233Y1835001D01*
X1690512Y1836045D01*
X1690860Y1837069D01*
X1691274Y1838067D01*
X1691752Y1839037D01*
X1692292Y1839973D01*
X1692893Y1840872D01*
X1693551Y1841729D01*
X1694264Y1842542D01*
X1695028Y1843307D01*
X1695841Y1844019D01*
X1696698Y1844677D01*
X1697597Y1845278D01*
X1698533Y1845818D01*
X1699503Y1846296D01*
X1700501Y1846710D01*
X1701525Y1847058D01*
X1702569Y1847337D01*
X1703629Y1847548D01*
X1704701Y1847689D01*
X1705780Y1847760D01*
X1706860Y1847760D01*
X1707939Y1847689D01*
X1709011Y1847548D01*
X1710071Y1847337D01*
X1711115Y1847058D01*
X1712139Y1846710D01*
X1713137Y1846296D01*
X1714107Y1845818D01*
X1715043Y1845278D01*
X1715942Y1844677D01*
X1716799Y1844019D01*
X1717612Y1843307D01*
X1718377Y1842542D01*
X1719089Y1841729D01*
X1719747Y1840872D01*
X1720348Y1839973D01*
X1720888Y1839037D01*
X1721366Y1838067D01*
X1721780Y1837069D01*
X1722128Y1836045D01*
X1722407Y1835001D01*
X1722618Y1833941D01*
X1722759Y1832869D01*
X1722830Y1831790D01*
X1722830Y1830710D01*
X1365190Y74460D02*
X1365119Y73381D01*
X1364978Y72309D01*
X1364767Y71249D01*
X1364488Y70205D01*
X1364140Y69181D01*
X1363726Y68183D01*
X1363248Y67213D01*
X1362708Y66277D01*
X1362107Y65378D01*
X1361449Y64521D01*
X1360737Y63708D01*
X1359972Y62944D01*
X1359159Y62231D01*
X1358302Y61573D01*
X1357403Y60972D01*
X1356467Y60432D01*
X1355497Y59954D01*
X1354499Y59540D01*
X1353475Y59192D01*
X1352431Y58913D01*
X1351371Y58702D01*
X1350299Y58561D01*
X1349220Y58490D01*
X1348140Y58490D01*
X1347061Y58561D01*
X1345989Y58702D01*
X1344929Y58913D01*
X1343885Y59192D01*
X1342861Y59540D01*
X1341863Y59954D01*
X1340893Y60432D01*
X1339957Y60972D01*
X1339058Y61573D01*
X1338201Y62231D01*
X1337388Y62944D01*
X1336624Y63708D01*
X1335911Y64521D01*
X1335253Y65378D01*
X1334652Y66277D01*
X1334112Y67213D01*
X1333634Y68183D01*
X1333220Y69181D01*
X1332872Y70205D01*
X1332593Y71249D01*
X1332382Y72309D01*
X1332241Y73381D01*
X1332170Y74460D01*
X1332170Y75540D01*
X1332241Y76619D01*
X1332382Y77691D01*
X1332593Y78751D01*
X1332872Y79795D01*
X1333220Y80819D01*
X1333634Y81817D01*
X1334112Y82787D01*
X1334652Y83723D01*
X1335253Y84622D01*
X1335911Y85479D01*
X1336624Y86292D01*
X1337388Y87057D01*
X1338201Y87769D01*
X1339058Y88427D01*
X1339957Y89028D01*
X1340893Y89568D01*
X1341863Y90046D01*
X1342861Y90460D01*
X1343885Y90808D01*
X1344929Y91087D01*
X1345989Y91298D01*
X1347061Y91439D01*
X1348140Y91510D01*
X1349220Y91510D01*
X1350299Y91439D01*
X1351371Y91298D01*
X1352431Y91087D01*
X1353475Y90808D01*
X1354499Y90460D01*
X1355497Y90046D01*
X1356467Y89568D01*
X1357403Y89028D01*
X1358302Y88427D01*
X1359159Y87769D01*
X1359972Y87057D01*
X1360737Y86292D01*
X1361449Y85479D01*
X1362107Y84622D01*
X1362708Y83723D01*
X1363248Y82787D01*
X1363726Y81817D01*
X1364140Y80819D01*
X1364488Y79795D01*
X1364767Y78751D01*
X1364978Y77691D01*
X1365119Y76619D01*
X1365190Y75540D01*
X1365190Y74460D01*
X2996510Y1830710D02*
X2996439Y1829631D01*
X2996298Y1828559D01*
X2996087Y1827499D01*
X2995808Y1826455D01*
X2995460Y1825431D01*
X2995046Y1824433D01*
X2994568Y1823463D01*
X2994028Y1822527D01*
X2993427Y1821628D01*
X2992769Y1820771D01*
X2992057Y1819958D01*
X2991292Y1819194D01*
X2990479Y1818481D01*
X2989622Y1817823D01*
X2988723Y1817222D01*
X2987787Y1816682D01*
X2986817Y1816204D01*
X2985819Y1815790D01*
X2984795Y1815442D01*
X2983751Y1815163D01*
X2982691Y1814952D01*
X2981619Y1814811D01*
X2980540Y1814740D01*
X2979460Y1814740D01*
X2978381Y1814811D01*
X2977309Y1814952D01*
X2976249Y1815163D01*
X2975205Y1815442D01*
X2974181Y1815790D01*
X2973183Y1816204D01*
X2972213Y1816682D01*
X2971277Y1817222D01*
X2970378Y1817823D01*
X2969521Y1818481D01*
X2968708Y1819194D01*
X2967944Y1819958D01*
X2967231Y1820771D01*
X2966573Y1821628D01*
X2965972Y1822527D01*
X2965432Y1823463D01*
X2964954Y1824433D01*
X2964540Y1825431D01*
X2964192Y1826455D01*
X2963913Y1827499D01*
X2963702Y1828559D01*
X2963561Y1829631D01*
X2963490Y1830710D01*
X2963490Y1831790D01*
X2963561Y1832869D01*
X2963702Y1833941D01*
X2963913Y1835001D01*
X2964192Y1836045D01*
X2964540Y1837069D01*
X2964954Y1838067D01*
X2965432Y1839037D01*
X2965972Y1839973D01*
X2966573Y1840872D01*
X2967231Y1841729D01*
X2967944Y1842542D01*
X2968708Y1843307D01*
X2969521Y1844019D01*
X2970378Y1844677D01*
X2971277Y1845278D01*
X2972213Y1845818D01*
X2973183Y1846296D01*
X2974181Y1846710D01*
X2975205Y1847058D01*
X2976249Y1847337D01*
X2977309Y1847548D01*
X2978381Y1847689D01*
X2979460Y1847760D01*
X2980540Y1847760D01*
X2981619Y1847689D01*
X2982691Y1847548D01*
X2983751Y1847337D01*
X2984795Y1847058D01*
X2985819Y1846710D01*
X2986817Y1846296D01*
X2987787Y1845818D01*
X2988723Y1845278D01*
X2989622Y1844677D01*
X2990479Y1844019D01*
X2991292Y1843307D01*
X2992057Y1842542D01*
X2992769Y1841729D01*
X2993427Y1840872D01*
X2994028Y1839973D01*
X2994568Y1839037D01*
X2995046Y1838067D01*
X2995460Y1837069D01*
X2995808Y1836045D01*
X2996087Y1835001D01*
X2996298Y1833941D01*
X2996439Y1832869D01*
X2996510Y1831790D01*
X2996510Y1830710D01*
X91510Y1830710D02*
X91439Y1829631D01*
X91298Y1828559D01*
X91087Y1827499D01*
X90808Y1826455D01*
X90460Y1825431D01*
X90046Y1824433D01*
X89568Y1823463D01*
X89028Y1822527D01*
X88427Y1821628D01*
X87769Y1820771D01*
X87057Y1819958D01*
X86292Y1819194D01*
X85479Y1818481D01*
X84622Y1817823D01*
X83723Y1817222D01*
X82787Y1816682D01*
X81817Y1816204D01*
X80819Y1815790D01*
X79795Y1815442D01*
X78751Y1815163D01*
X77691Y1814952D01*
X76619Y1814811D01*
X75540Y1814740D01*
X74460Y1814740D01*
X73381Y1814811D01*
X72309Y1814952D01*
X71249Y1815163D01*
X70205Y1815442D01*
X69181Y1815790D01*
X68183Y1816204D01*
X67213Y1816682D01*
X66277Y1817222D01*
X65378Y1817823D01*
X64521Y1818481D01*
X63708Y1819194D01*
X62944Y1819958D01*
X62231Y1820771D01*
X61573Y1821628D01*
X60972Y1822527D01*
X60432Y1823463D01*
X59954Y1824433D01*
X59540Y1825431D01*
X59192Y1826455D01*
X58913Y1827499D01*
X58702Y1828559D01*
X58561Y1829631D01*
X58490Y1830710D01*
X58490Y1831790D01*
X58561Y1832869D01*
X58702Y1833941D01*
X58913Y1835001D01*
X59192Y1836045D01*
X59540Y1837069D01*
X59954Y1838067D01*
X60432Y1839037D01*
X60972Y1839973D01*
X61573Y1840872D01*
X62231Y1841729D01*
X62944Y1842542D01*
X63708Y1843307D01*
X64521Y1844019D01*
X65378Y1844677D01*
X66277Y1845278D01*
X67213Y1845818D01*
X68183Y1846296D01*
X69181Y1846710D01*
X70205Y1847058D01*
X71249Y1847337D01*
X72309Y1847548D01*
X73381Y1847689D01*
X74460Y1847760D01*
X75540Y1847760D01*
X76619Y1847689D01*
X77691Y1847548D01*
X78751Y1847337D01*
X79795Y1847058D01*
X80819Y1846710D01*
X81817Y1846296D01*
X82787Y1845818D01*
X83723Y1845278D01*
X84622Y1844677D01*
X85479Y1844019D01*
X86292Y1843307D01*
X87057Y1842542D01*
X87769Y1841729D01*
X88427Y1840872D01*
X89028Y1839973D01*
X89568Y1839037D01*
X90046Y1838067D01*
X90460Y1837069D01*
X90808Y1836045D01*
X91087Y1835001D01*
X91298Y1833941D01*
X91439Y1832869D01*
X91510Y1831790D01*
X91510Y1830710D01*
M02*
