M48
;GenerationSoftware,Autodesk,EAGLE,9.5.2*%
;CreationDate,2020-03-16T22:27:24Z*%
FMAT,2
ICI,OFF
METRIC,TZ,000.000
T5C0.381
T4C0.650
T3C0.900
T2C1.200
T1C3.302
%
G90
M71
T1
X7500Y190250
X298000Y7500
X7500Y7500
X170632Y190250
X134868Y7500
X298000Y190250
T2
X311900Y24100
X304900Y24100
T3
X12700Y17520
T4
X309460Y38553
X309460Y44333
T5
X35322Y6985
X33798Y7112
X43704Y11557
X43450Y15002
X33086Y15252
X16238Y12927
X25396Y15277
X9681Y11049
X18588Y19426
X13270Y20060
X12770Y15600
X25120Y17870
X29011Y15258
X32240Y18370
X35780Y15870
X302350Y42800
X302350Y40300
X56400Y16802
X55204Y10557
X55550Y14402
X27448Y1905
X31032Y5306
X22368Y9525
X12780Y4445
X27750Y184500
X42750Y184500
X57750Y184500
X72750Y184500
X87750Y184500
X102750Y184500
X117750Y184500
X132750Y184500
X192750Y184500
X207750Y184500
X222750Y184500
X237750Y184500
X252750Y184500
X267750Y184500
X297750Y169500
X282750Y169500
X267750Y169500
X252750Y169500
X237750Y169500
X222750Y169500
X207750Y169500
X192750Y169500
X177750Y169500
X162750Y169500
X147750Y169500
X132750Y169500
X117750Y169500
X102750Y169500
X87750Y169500
X72750Y169500
X57750Y169500
X42750Y169500
X27750Y169500
X12750Y167000
X282750Y184500
X12750Y152000
X27750Y154500
X42750Y154500
X57750Y154500
X72750Y154500
X87750Y154500
X102750Y154500
X117750Y154500
X132750Y154500
X147750Y154500
X162750Y154500
X177750Y154500
X192750Y154500
X207750Y154500
X222750Y154500
X237750Y154500
X252750Y154500
X267750Y154500
X282750Y154500
X297750Y154500
X297750Y139500
X282750Y139500
X267750Y139500
X252750Y139500
X237750Y139500
X222750Y139500
X207750Y139500
X192750Y139500
X177750Y139500
X162750Y139500
X147750Y139500
X132750Y139500
X117750Y139500
X102750Y139500
X87750Y139500
X72750Y139500
X57750Y139500
X42750Y139500
X27750Y139500
X12750Y138750
X12750Y124000
X27750Y124000
X42750Y124500
X57750Y124500
X72750Y124500
X87750Y124500
X102750Y124500
X117750Y124500
X132750Y124500
X147750Y124500
X162750Y124500
X177750Y124500
X192750Y124500
X207750Y124500
X222750Y124500
X237750Y124500
X252750Y124500
X267750Y124500
X282750Y124500
X297750Y124500
X297750Y109500
X282750Y109500
X267750Y109500
X252750Y109500
X237750Y109500
X222750Y109500
X207750Y109500
X192750Y109500
X177750Y109500
X162750Y109500
X147750Y109500
X132750Y109500
X117750Y109500
X102750Y109500
X87750Y109500
X72750Y109500
X57750Y109500
X42750Y109500
X27750Y109500
X12750Y109500
X12750Y94500
X27750Y94500
X42750Y94500
X57750Y94500
X72750Y94500
X87750Y94500
X102750Y94500
X117750Y94500
X132750Y94500
X147750Y94500
X162750Y94500
X177750Y94500
X192750Y94500
X207750Y94500
X222750Y94500
X237750Y94500
X252750Y94500
X267750Y94500
X282750Y94500
X297750Y94500
X12750Y79500
X27750Y79500
X42750Y79500
X57750Y79500
X72750Y79500
X87750Y79500
X102750Y79500
X117750Y79500
X132750Y79500
X147750Y79500
X162750Y79500
X177750Y79500
X192750Y79500
X207750Y79500
X222750Y79500
X237750Y79500
X252750Y79500
X267750Y79500
X282750Y79500
X297750Y79500
X12750Y64500
X27750Y64500
X42750Y64500
X57750Y64500
X72750Y64500
X87750Y64500
X102750Y64500
X117750Y64500
X132750Y64500
X147750Y64500
X162750Y64500
X177750Y64500
X192750Y64500
X207750Y64500
X222750Y64500
X237750Y64500
X252750Y64500
X267750Y64500
X282750Y64500
X297750Y64500
X297750Y49500
X282750Y49500
X267750Y49500
X252750Y49500
X237750Y49500
X222750Y49500
X207750Y49500
X192750Y49500
X177750Y49500
X162750Y49500
X147750Y49500
X132750Y49500
X117750Y49500
X102750Y49500
X87750Y49500
X72750Y49500
X57750Y49500
X42750Y49500
X27750Y49500
X12750Y49500
X27750Y34500
X42750Y34500
X57750Y34500
X72750Y34500
X87750Y34500
X102750Y34500
X117750Y34500
X132750Y34500
X147750Y34500
X162750Y34500
X177750Y34500
X192750Y34500
X207750Y34500
X222750Y34500
X237750Y34500
X252750Y34500
X267750Y34500
X282750Y34500
X297750Y34500
X297750Y19500
X282750Y19500
X267750Y19500
X252750Y19500
X237750Y19500
X222750Y19500
X207750Y19500
X192750Y19500
X177750Y19500
X3900Y17970
X147750Y19500
X132750Y19500
X117750Y19500
X102750Y19500
X87750Y19500
X117750Y4500
X102750Y4500
X87750Y4500
X72750Y4500
X179000Y4500
X192750Y4500
X207750Y4500
X222750Y4500
X237750Y4500
X252750Y4500
X267750Y4500
X280000Y4500
X295500Y44000
X12750Y34500
X72750Y19500
X57750Y22000
X11250Y21500
X28250Y22000
X296500Y44000
X297500Y44000
X298500Y44000
X294500Y32000
X293500Y32000
X295500Y32000
X296500Y32000
X297500Y32000
X28083Y3810
X27321Y6985
X32560Y9144
X42180Y5715
X39640Y7620
X35060Y10160
X306807Y42545
X306807Y41045
X18680Y16520
X21950Y16550
X25250Y25000
X162750Y19500
X31150Y39100
X34350Y35900
X20600Y20950
X15133Y21117
X45750Y22000
X31250Y23500
X295500Y55000
X9750Y35500
X6250Y22000
X295500Y39500
X70000Y17150
X12750Y28500
X10250Y170000
X280500Y189500
X295500Y25000
X70250Y5000
X295500Y175000
X10250Y155000
X10250Y140000
X295500Y160000
X295500Y145000
X10250Y125000
X10250Y110000
X295500Y130000
X10250Y95000
X295500Y115000
X10250Y80000
X295500Y100000
X295500Y85000
X10250Y65000
X10250Y50000
X295500Y70000
X26305Y8382
X15290Y14830
X58050Y19844
X26305Y16150
X33500Y16500
X305000Y27500
X299950Y12800
X36330Y12457
X53737Y17031
X8587Y17716
X15750Y26800
M30