G04 EAGLE Gerber RS-274X export*
G75*
%MOMM*%
%FSLAX34Y34*%
%LPD*%
%INSoldermask Top*%
%IPPOS*%
%AMOC8*
5,1,8,0,0,1.08239X$1,22.5*%
G01*
%ADD10R,1.303200X1.203200*%
%ADD11C,0.838200*%
%ADD12R,0.503200X0.863200*%
%ADD13R,1.203200X1.303200*%
%ADD14R,1.103200X1.203200*%
%ADD15R,1.103200X1.703200*%
%ADD16R,1.703200X1.103200*%
%ADD17R,6.203200X6.203200*%
%ADD18R,0.753200X1.403200*%
%ADD19R,0.503200X1.053200*%
%ADD20R,1.053200X0.503200*%
%ADD21R,2.753200X2.753200*%
%ADD22C,3.505200*%
%ADD23R,1.219200X0.503200*%
%ADD24R,1.219200X0.803200*%
%ADD25R,1.219200X0.753200*%
%ADD26C,0.853200*%
%ADD27R,1.403200X2.703200*%
%ADD28C,1.403200*%
%ADD29C,0.500000*%
%ADD30C,0.903200*%
%ADD31C,1.103200*%
%ADD32R,1.403200X0.753200*%
%ADD33R,1.854200X1.203200*%
%ADD34R,0.838200X1.473200*%
%ADD35R,1.473200X0.838200*%

G36*
X3105205Y267154D02*
X3105205Y267154D01*
X3105208Y267151D01*
X3106475Y267356D01*
X3106481Y267362D01*
X3106486Y267359D01*
X3107675Y267841D01*
X3107679Y267848D01*
X3107685Y267846D01*
X3108738Y268580D01*
X3108740Y268588D01*
X3108746Y268587D01*
X3109609Y269537D01*
X3109610Y269546D01*
X3109615Y269546D01*
X3110245Y270665D01*
X3110244Y270673D01*
X3110250Y270675D01*
X3110615Y271905D01*
X3110612Y271912D01*
X3110616Y271915D01*
X3110615Y271915D01*
X3110617Y271916D01*
X3110699Y273197D01*
X3110697Y273201D01*
X3110699Y273203D01*
X3110617Y274484D01*
X3110611Y274490D01*
X3110615Y274495D01*
X3110250Y275725D01*
X3110243Y275730D01*
X3110245Y275735D01*
X3109615Y276854D01*
X3109608Y276857D01*
X3109609Y276863D01*
X3108746Y277813D01*
X3108738Y277814D01*
X3108738Y277820D01*
X3107685Y278554D01*
X3107677Y278554D01*
X3107675Y278559D01*
X3106486Y279041D01*
X3106478Y279039D01*
X3106475Y279044D01*
X3105208Y279249D01*
X3105203Y279246D01*
X3105200Y279249D01*
X3093200Y279249D01*
X3093196Y279246D01*
X3093193Y279249D01*
X3092071Y279094D01*
X3092066Y279089D01*
X3092062Y279092D01*
X3090991Y278721D01*
X3090987Y278715D01*
X3090982Y278717D01*
X3090005Y278144D01*
X3090002Y278138D01*
X3089997Y278139D01*
X3089150Y277386D01*
X3089148Y277379D01*
X3089143Y277379D01*
X3088459Y276476D01*
X3088459Y276469D01*
X3088454Y276468D01*
X3087959Y275449D01*
X3087961Y275442D01*
X3087959Y275441D01*
X3087956Y275440D01*
X3087669Y274343D01*
X3087672Y274337D01*
X3087668Y274334D01*
X3087601Y273203D01*
X3087603Y273199D01*
X3087601Y273197D01*
X3087668Y272066D01*
X3087673Y272061D01*
X3087669Y272057D01*
X3087956Y270960D01*
X3087962Y270956D01*
X3087959Y270951D01*
X3088454Y269932D01*
X3088460Y269929D01*
X3088459Y269924D01*
X3089143Y269021D01*
X3089150Y269019D01*
X3089150Y269014D01*
X3089997Y268261D01*
X3090004Y268261D01*
X3090005Y268256D01*
X3090982Y267683D01*
X3090989Y267684D01*
X3090991Y267679D01*
X3092062Y267308D01*
X3092068Y267311D01*
X3092071Y267306D01*
X3093193Y267151D01*
X3093198Y267154D01*
X3093200Y267151D01*
X3105200Y267151D01*
X3105205Y267154D01*
G37*
G36*
X3105205Y180754D02*
X3105205Y180754D01*
X3105208Y180751D01*
X3106475Y180956D01*
X3106481Y180962D01*
X3106486Y180959D01*
X3107675Y181441D01*
X3107679Y181448D01*
X3107685Y181446D01*
X3108738Y182180D01*
X3108740Y182188D01*
X3108746Y182187D01*
X3109609Y183137D01*
X3109610Y183146D01*
X3109615Y183146D01*
X3110245Y184265D01*
X3110244Y184273D01*
X3110250Y184275D01*
X3110615Y185505D01*
X3110612Y185512D01*
X3110616Y185515D01*
X3110615Y185515D01*
X3110617Y185516D01*
X3110699Y186797D01*
X3110697Y186801D01*
X3110699Y186803D01*
X3110617Y188084D01*
X3110611Y188090D01*
X3110615Y188095D01*
X3110250Y189325D01*
X3110243Y189330D01*
X3110245Y189335D01*
X3109615Y190454D01*
X3109608Y190457D01*
X3109609Y190463D01*
X3108746Y191413D01*
X3108738Y191414D01*
X3108738Y191420D01*
X3107685Y192154D01*
X3107677Y192154D01*
X3107675Y192159D01*
X3106486Y192641D01*
X3106478Y192639D01*
X3106475Y192644D01*
X3105208Y192849D01*
X3105203Y192846D01*
X3105200Y192849D01*
X3093200Y192849D01*
X3093196Y192846D01*
X3093193Y192849D01*
X3092071Y192694D01*
X3092066Y192689D01*
X3092062Y192692D01*
X3090991Y192321D01*
X3090987Y192315D01*
X3090982Y192317D01*
X3090005Y191744D01*
X3090002Y191738D01*
X3089997Y191739D01*
X3089150Y190986D01*
X3089148Y190979D01*
X3089143Y190979D01*
X3088459Y190076D01*
X3088459Y190069D01*
X3088454Y190068D01*
X3087959Y189049D01*
X3087961Y189042D01*
X3087959Y189041D01*
X3087956Y189040D01*
X3087669Y187943D01*
X3087672Y187937D01*
X3087668Y187934D01*
X3087601Y186803D01*
X3087603Y186799D01*
X3087601Y186797D01*
X3087668Y185666D01*
X3087673Y185661D01*
X3087669Y185657D01*
X3087956Y184560D01*
X3087962Y184556D01*
X3087959Y184551D01*
X3088454Y183532D01*
X3088460Y183529D01*
X3088459Y183524D01*
X3089143Y182621D01*
X3089150Y182619D01*
X3089150Y182614D01*
X3089997Y181861D01*
X3090004Y181861D01*
X3090005Y181856D01*
X3090982Y181283D01*
X3090989Y181284D01*
X3090991Y181279D01*
X3092062Y180908D01*
X3092068Y180911D01*
X3092071Y180906D01*
X3093193Y180751D01*
X3093198Y180754D01*
X3093200Y180751D01*
X3105200Y180751D01*
X3105205Y180754D01*
G37*
G36*
X3144004Y267153D02*
X3144004Y267153D01*
X3144006Y267151D01*
X3145335Y267306D01*
X3145341Y267312D01*
X3145345Y267309D01*
X3146606Y267756D01*
X3146611Y267763D01*
X3146616Y267761D01*
X3147746Y268478D01*
X3147749Y268485D01*
X3147755Y268484D01*
X3148697Y269435D01*
X3148698Y269443D01*
X3148704Y269443D01*
X3149411Y270579D01*
X3149411Y270584D01*
X3149412Y270585D01*
X3149411Y270587D01*
X3149416Y270589D01*
X3149852Y271854D01*
X3149850Y271862D01*
X3149855Y271865D01*
X3149999Y273195D01*
X3149995Y273201D01*
X3149999Y273205D01*
X3149889Y274371D01*
X3149884Y274376D01*
X3149887Y274380D01*
X3149552Y275503D01*
X3149546Y275507D01*
X3149548Y275511D01*
X3149000Y276547D01*
X3148994Y276550D01*
X3148995Y276555D01*
X3148256Y277463D01*
X3148249Y277465D01*
X3148249Y277470D01*
X3147347Y278217D01*
X3147340Y278217D01*
X3147339Y278223D01*
X3146308Y278779D01*
X3146301Y278778D01*
X3146299Y278783D01*
X3145180Y279127D01*
X3145173Y279125D01*
X3145170Y279129D01*
X3144005Y279249D01*
X3144002Y279247D01*
X3144000Y279249D01*
X3138000Y279249D01*
X3137997Y279247D01*
X3137995Y279249D01*
X3136819Y279138D01*
X3136814Y279133D01*
X3136810Y279136D01*
X3135678Y278798D01*
X3135674Y278792D01*
X3135669Y278794D01*
X3134625Y278242D01*
X3134622Y278235D01*
X3134617Y278237D01*
X3133701Y277491D01*
X3133700Y277484D01*
X3133694Y277484D01*
X3132941Y276575D01*
X3132941Y276567D01*
X3132936Y276567D01*
X3132375Y275527D01*
X3132376Y275520D01*
X3132371Y275518D01*
X3132024Y274389D01*
X3132026Y274383D01*
X3132022Y274380D01*
X3131901Y273205D01*
X3131905Y273198D01*
X3131901Y273194D01*
X3132058Y271854D01*
X3132063Y271848D01*
X3132060Y271843D01*
X3132511Y270572D01*
X3132518Y270567D01*
X3132516Y270562D01*
X3133238Y269423D01*
X3133246Y269420D01*
X3133245Y269414D01*
X3134203Y268464D01*
X3134211Y268463D01*
X3134212Y268457D01*
X3135357Y267744D01*
X3135366Y267745D01*
X3135367Y267739D01*
X3136643Y267299D01*
X3136650Y267301D01*
X3136652Y267299D01*
X3136653Y267297D01*
X3137995Y267151D01*
X3137998Y267153D01*
X3138000Y267151D01*
X3144000Y267151D01*
X3144004Y267153D01*
G37*
G36*
X3144004Y180753D02*
X3144004Y180753D01*
X3144006Y180751D01*
X3145335Y180906D01*
X3145341Y180912D01*
X3145345Y180909D01*
X3146606Y181356D01*
X3146611Y181363D01*
X3146616Y181361D01*
X3147746Y182078D01*
X3147749Y182085D01*
X3147755Y182084D01*
X3148697Y183035D01*
X3148698Y183043D01*
X3148704Y183043D01*
X3149411Y184179D01*
X3149411Y184184D01*
X3149412Y184185D01*
X3149411Y184187D01*
X3149416Y184189D01*
X3149852Y185454D01*
X3149850Y185462D01*
X3149855Y185465D01*
X3149999Y186795D01*
X3149995Y186801D01*
X3149999Y186805D01*
X3149889Y187971D01*
X3149884Y187976D01*
X3149887Y187980D01*
X3149552Y189103D01*
X3149546Y189107D01*
X3149548Y189111D01*
X3149000Y190147D01*
X3148994Y190150D01*
X3148995Y190155D01*
X3148256Y191063D01*
X3148249Y191065D01*
X3148249Y191070D01*
X3147347Y191817D01*
X3147340Y191817D01*
X3147339Y191823D01*
X3146308Y192379D01*
X3146301Y192378D01*
X3146299Y192383D01*
X3145180Y192727D01*
X3145173Y192725D01*
X3145170Y192729D01*
X3144005Y192849D01*
X3144002Y192847D01*
X3144000Y192849D01*
X3138000Y192849D01*
X3137997Y192847D01*
X3137995Y192849D01*
X3136819Y192738D01*
X3136814Y192733D01*
X3136810Y192736D01*
X3135678Y192398D01*
X3135674Y192392D01*
X3135669Y192394D01*
X3134625Y191842D01*
X3134622Y191835D01*
X3134617Y191837D01*
X3133701Y191091D01*
X3133700Y191084D01*
X3133694Y191084D01*
X3132941Y190175D01*
X3132941Y190167D01*
X3132936Y190167D01*
X3132375Y189127D01*
X3132376Y189120D01*
X3132371Y189118D01*
X3132024Y187989D01*
X3132026Y187983D01*
X3132022Y187980D01*
X3131901Y186805D01*
X3131905Y186798D01*
X3131901Y186794D01*
X3132058Y185454D01*
X3132063Y185448D01*
X3132060Y185443D01*
X3132511Y184172D01*
X3132518Y184167D01*
X3132516Y184162D01*
X3133238Y183023D01*
X3133246Y183020D01*
X3133245Y183014D01*
X3134203Y182064D01*
X3134211Y182063D01*
X3134212Y182057D01*
X3135357Y181344D01*
X3135366Y181345D01*
X3135367Y181339D01*
X3136643Y180899D01*
X3136650Y180901D01*
X3136652Y180899D01*
X3136653Y180897D01*
X3137995Y180751D01*
X3137998Y180753D01*
X3138000Y180751D01*
X3144000Y180751D01*
X3144004Y180753D01*
G37*
D10*
X81800Y186450D03*
X64800Y186450D03*
D11*
X3027500Y1878750D03*
X65000Y475000D03*
X105000Y90000D03*
D12*
X288300Y75250D03*
X294800Y93650D03*
X301300Y93650D03*
X288300Y93650D03*
X294800Y75250D03*
X301300Y75250D03*
D10*
X206600Y57900D03*
X223600Y57900D03*
X286300Y59050D03*
X303300Y59050D03*
X286300Y109850D03*
X303300Y109850D03*
D13*
X269400Y92950D03*
X269400Y75950D03*
D14*
X325100Y95500D03*
X325100Y111500D03*
X366100Y111500D03*
X366100Y95500D03*
X366100Y73400D03*
X366100Y57400D03*
X325100Y57400D03*
X325100Y73400D03*
D15*
X562300Y223980D03*
X549600Y223980D03*
X536900Y223980D03*
X524200Y223980D03*
X511500Y223980D03*
X498800Y223980D03*
X486100Y223980D03*
X473400Y223980D03*
X460700Y223980D03*
X448000Y223980D03*
X435300Y223980D03*
X422600Y223980D03*
X409900Y223980D03*
X397200Y223980D03*
D16*
X382300Y198750D03*
X382300Y186050D03*
X382300Y173350D03*
X382300Y160650D03*
X382300Y147950D03*
X382300Y135250D03*
X382300Y122550D03*
X382300Y109850D03*
X382300Y97150D03*
X382300Y84450D03*
D15*
X397200Y59220D03*
X409900Y59220D03*
X422600Y59220D03*
X435300Y59220D03*
X448000Y59220D03*
X460700Y59220D03*
X473400Y59220D03*
X486100Y59220D03*
X498800Y59220D03*
X511500Y59220D03*
X524200Y59220D03*
X536900Y59220D03*
X549600Y59220D03*
X562300Y59220D03*
D17*
X485300Y141600D03*
D18*
X82800Y231201D03*
X73300Y231201D03*
X63800Y231201D03*
X63800Y205199D03*
X82800Y205199D03*
D19*
X218800Y124000D03*
X223800Y124000D03*
X228800Y124000D03*
X233800Y124000D03*
X238800Y124000D03*
X243800Y124000D03*
D20*
X251800Y116000D03*
X251800Y111000D03*
X251800Y106000D03*
X251800Y101000D03*
X251800Y96000D03*
X251800Y91000D03*
X210800Y91000D03*
X210800Y96000D03*
X210800Y101000D03*
X210800Y106000D03*
X210800Y111000D03*
X210800Y116000D03*
D19*
X243800Y83000D03*
X238800Y83000D03*
X233800Y83000D03*
X228800Y83000D03*
X223800Y83000D03*
X218800Y83000D03*
D21*
X231300Y103500D03*
D22*
X2980000Y75000D03*
X75000Y75000D03*
D23*
X3088460Y237500D03*
X3088460Y232500D03*
D24*
X3088460Y262250D03*
D25*
X3088460Y254500D03*
D23*
X3088460Y247500D03*
X3088460Y242500D03*
X3088460Y222500D03*
X3088460Y227500D03*
D24*
X3088460Y197750D03*
D25*
X3088460Y205500D03*
D23*
X3088460Y212500D03*
X3088460Y217500D03*
D26*
X3104450Y201100D03*
X3104450Y258900D03*
D10*
X3044900Y243400D03*
X3061900Y243400D03*
X3044900Y218000D03*
X3061900Y218000D03*
D27*
X3053000Y377500D03*
X3042000Y442500D03*
X3093000Y377500D03*
X3123000Y377500D03*
D28*
X3139000Y410000D03*
X3069000Y410000D03*
D29*
X120000Y175200D02*
X120002Y175372D01*
X120008Y175543D01*
X120019Y175715D01*
X120034Y175886D01*
X120053Y176057D01*
X120076Y176227D01*
X120103Y176397D01*
X120135Y176566D01*
X120170Y176734D01*
X120210Y176901D01*
X120254Y177067D01*
X120301Y177232D01*
X120353Y177396D01*
X120409Y177558D01*
X120469Y177719D01*
X120533Y177879D01*
X120601Y178037D01*
X120672Y178193D01*
X120747Y178347D01*
X120827Y178500D01*
X120909Y178650D01*
X120996Y178799D01*
X121086Y178945D01*
X121180Y179089D01*
X121277Y179231D01*
X121378Y179370D01*
X121482Y179507D01*
X121589Y179641D01*
X121700Y179772D01*
X121813Y179901D01*
X121930Y180027D01*
X122050Y180150D01*
X122173Y180270D01*
X122299Y180387D01*
X122428Y180500D01*
X122559Y180611D01*
X122693Y180718D01*
X122830Y180822D01*
X122969Y180923D01*
X123111Y181020D01*
X123255Y181114D01*
X123401Y181204D01*
X123550Y181291D01*
X123700Y181373D01*
X123853Y181453D01*
X124007Y181528D01*
X124163Y181599D01*
X124321Y181667D01*
X124481Y181731D01*
X124642Y181791D01*
X124804Y181847D01*
X124968Y181899D01*
X125133Y181946D01*
X125299Y181990D01*
X125466Y182030D01*
X125634Y182065D01*
X125803Y182097D01*
X125973Y182124D01*
X126143Y182147D01*
X126314Y182166D01*
X126485Y182181D01*
X126657Y182192D01*
X126828Y182198D01*
X127000Y182200D01*
X127172Y182198D01*
X127343Y182192D01*
X127515Y182181D01*
X127686Y182166D01*
X127857Y182147D01*
X128027Y182124D01*
X128197Y182097D01*
X128366Y182065D01*
X128534Y182030D01*
X128701Y181990D01*
X128867Y181946D01*
X129032Y181899D01*
X129196Y181847D01*
X129358Y181791D01*
X129519Y181731D01*
X129679Y181667D01*
X129837Y181599D01*
X129993Y181528D01*
X130147Y181453D01*
X130300Y181373D01*
X130450Y181291D01*
X130599Y181204D01*
X130745Y181114D01*
X130889Y181020D01*
X131031Y180923D01*
X131170Y180822D01*
X131307Y180718D01*
X131441Y180611D01*
X131572Y180500D01*
X131701Y180387D01*
X131827Y180270D01*
X131950Y180150D01*
X132070Y180027D01*
X132187Y179901D01*
X132300Y179772D01*
X132411Y179641D01*
X132518Y179507D01*
X132622Y179370D01*
X132723Y179231D01*
X132820Y179089D01*
X132914Y178945D01*
X133004Y178799D01*
X133091Y178650D01*
X133173Y178500D01*
X133253Y178347D01*
X133328Y178193D01*
X133399Y178037D01*
X133467Y177879D01*
X133531Y177719D01*
X133591Y177558D01*
X133647Y177396D01*
X133699Y177232D01*
X133746Y177067D01*
X133790Y176901D01*
X133830Y176734D01*
X133865Y176566D01*
X133897Y176397D01*
X133924Y176227D01*
X133947Y176057D01*
X133966Y175886D01*
X133981Y175715D01*
X133992Y175543D01*
X133998Y175372D01*
X134000Y175200D01*
X133998Y175028D01*
X133992Y174857D01*
X133981Y174685D01*
X133966Y174514D01*
X133947Y174343D01*
X133924Y174173D01*
X133897Y174003D01*
X133865Y173834D01*
X133830Y173666D01*
X133790Y173499D01*
X133746Y173333D01*
X133699Y173168D01*
X133647Y173004D01*
X133591Y172842D01*
X133531Y172681D01*
X133467Y172521D01*
X133399Y172363D01*
X133328Y172207D01*
X133253Y172053D01*
X133173Y171900D01*
X133091Y171750D01*
X133004Y171601D01*
X132914Y171455D01*
X132820Y171311D01*
X132723Y171169D01*
X132622Y171030D01*
X132518Y170893D01*
X132411Y170759D01*
X132300Y170628D01*
X132187Y170499D01*
X132070Y170373D01*
X131950Y170250D01*
X131827Y170130D01*
X131701Y170013D01*
X131572Y169900D01*
X131441Y169789D01*
X131307Y169682D01*
X131170Y169578D01*
X131031Y169477D01*
X130889Y169380D01*
X130745Y169286D01*
X130599Y169196D01*
X130450Y169109D01*
X130300Y169027D01*
X130147Y168947D01*
X129993Y168872D01*
X129837Y168801D01*
X129679Y168733D01*
X129519Y168669D01*
X129358Y168609D01*
X129196Y168553D01*
X129032Y168501D01*
X128867Y168454D01*
X128701Y168410D01*
X128534Y168370D01*
X128366Y168335D01*
X128197Y168303D01*
X128027Y168276D01*
X127857Y168253D01*
X127686Y168234D01*
X127515Y168219D01*
X127343Y168208D01*
X127172Y168202D01*
X127000Y168200D01*
X126828Y168202D01*
X126657Y168208D01*
X126485Y168219D01*
X126314Y168234D01*
X126143Y168253D01*
X125973Y168276D01*
X125803Y168303D01*
X125634Y168335D01*
X125466Y168370D01*
X125299Y168410D01*
X125133Y168454D01*
X124968Y168501D01*
X124804Y168553D01*
X124642Y168609D01*
X124481Y168669D01*
X124321Y168733D01*
X124163Y168801D01*
X124007Y168872D01*
X123853Y168947D01*
X123700Y169027D01*
X123550Y169109D01*
X123401Y169196D01*
X123255Y169286D01*
X123111Y169380D01*
X122969Y169477D01*
X122830Y169578D01*
X122693Y169682D01*
X122559Y169789D01*
X122428Y169900D01*
X122299Y170013D01*
X122173Y170130D01*
X122050Y170250D01*
X121930Y170373D01*
X121813Y170499D01*
X121700Y170628D01*
X121589Y170759D01*
X121482Y170893D01*
X121378Y171030D01*
X121277Y171169D01*
X121180Y171311D01*
X121086Y171455D01*
X120996Y171601D01*
X120909Y171750D01*
X120827Y171900D01*
X120747Y172053D01*
X120672Y172207D01*
X120601Y172363D01*
X120533Y172521D01*
X120469Y172681D01*
X120409Y172842D01*
X120353Y173004D01*
X120301Y173168D01*
X120254Y173333D01*
X120210Y173499D01*
X120170Y173666D01*
X120135Y173834D01*
X120103Y174003D01*
X120076Y174173D01*
X120053Y174343D01*
X120034Y174514D01*
X120019Y174685D01*
X120008Y174857D01*
X120002Y175028D01*
X120000Y175200D01*
D30*
X119000Y162200D03*
D31*
X153200Y175200D03*
X153200Y187200D03*
D30*
X119000Y188200D03*
D31*
X153200Y163200D03*
X127000Y175200D03*
D13*
X175800Y182200D03*
X175800Y165200D03*
D10*
X305500Y206400D03*
X288500Y206400D03*
D32*
X306699Y182800D03*
X306699Y173300D03*
X306699Y163800D03*
X332701Y163800D03*
X332701Y182800D03*
D13*
X282950Y164800D03*
X282950Y181800D03*
X244850Y181800D03*
X244850Y164800D03*
X263900Y164800D03*
X263900Y181800D03*
D10*
X311500Y150000D03*
X328500Y150000D03*
D13*
X351450Y181800D03*
X351450Y164800D03*
D10*
X305500Y225450D03*
X288500Y225450D03*
X3043500Y300000D03*
X3026500Y300000D03*
X3093500Y345000D03*
X3076500Y345000D03*
X3076500Y300000D03*
X3093500Y300000D03*
X3043500Y330000D03*
X3026500Y330000D03*
X3093500Y330000D03*
X3076500Y330000D03*
X3026500Y315000D03*
X3043500Y315000D03*
X3093500Y315000D03*
X3076500Y315000D03*
X3026500Y345000D03*
X3043500Y345000D03*
D33*
X278270Y1759000D03*
X226730Y1759000D03*
X226730Y1791000D03*
X278270Y1791000D03*
D34*
X248436Y1775000D03*
X256564Y1775000D03*
D33*
X428270Y1759000D03*
X376730Y1759000D03*
X376730Y1791000D03*
X428270Y1791000D03*
X578270Y1759000D03*
X526730Y1759000D03*
X526730Y1791000D03*
X578270Y1791000D03*
D34*
X398436Y1775000D03*
X406564Y1775000D03*
X548436Y1775000D03*
X556564Y1775000D03*
D33*
X728270Y1759000D03*
X676730Y1759000D03*
X676730Y1791000D03*
X728270Y1791000D03*
X878270Y1759000D03*
X826730Y1759000D03*
X826730Y1791000D03*
X878270Y1791000D03*
D34*
X698436Y1775000D03*
X706564Y1775000D03*
X848436Y1775000D03*
X856564Y1775000D03*
D33*
X1028270Y1759000D03*
X976730Y1759000D03*
X976730Y1791000D03*
X1028270Y1791000D03*
X1178270Y1759000D03*
X1126730Y1759000D03*
X1126730Y1791000D03*
X1178270Y1791000D03*
D34*
X998436Y1775000D03*
X1006564Y1775000D03*
X1148436Y1775000D03*
X1156564Y1775000D03*
D33*
X1328270Y1759000D03*
X1276730Y1759000D03*
X1276730Y1791000D03*
X1328270Y1791000D03*
D34*
X1298436Y1775000D03*
X1306564Y1775000D03*
D33*
X1928270Y1759000D03*
X1876730Y1759000D03*
X1876730Y1791000D03*
X1928270Y1791000D03*
D34*
X1898436Y1775000D03*
X1906564Y1775000D03*
D33*
X2078270Y1759000D03*
X2026730Y1759000D03*
X2026730Y1791000D03*
X2078270Y1791000D03*
X2228270Y1759000D03*
X2176730Y1759000D03*
X2176730Y1791000D03*
X2228270Y1791000D03*
D34*
X2048436Y1775000D03*
X2056564Y1775000D03*
X2198436Y1775000D03*
X2206564Y1775000D03*
D33*
X2378270Y1759000D03*
X2326730Y1759000D03*
X2326730Y1791000D03*
X2378270Y1791000D03*
X2528270Y1759000D03*
X2476730Y1759000D03*
X2476730Y1791000D03*
X2528270Y1791000D03*
D34*
X2348436Y1775000D03*
X2356564Y1775000D03*
X2498436Y1775000D03*
X2506564Y1775000D03*
D33*
X2678270Y1759000D03*
X2626730Y1759000D03*
X2626730Y1791000D03*
X2678270Y1791000D03*
X2828270Y1759000D03*
X2776730Y1759000D03*
X2776730Y1791000D03*
X2828270Y1791000D03*
D34*
X2648436Y1775000D03*
X2656564Y1775000D03*
X2798436Y1775000D03*
X2806564Y1775000D03*
D33*
X128270Y1609000D03*
X76730Y1609000D03*
X76730Y1641000D03*
X128270Y1641000D03*
X278270Y1609000D03*
X226730Y1609000D03*
X226730Y1641000D03*
X278270Y1641000D03*
D34*
X98436Y1625000D03*
X106564Y1625000D03*
X248436Y1625000D03*
X256564Y1625000D03*
D33*
X428270Y1609000D03*
X376730Y1609000D03*
X376730Y1641000D03*
X428270Y1641000D03*
D34*
X398436Y1625000D03*
X406564Y1625000D03*
D33*
X578270Y1609000D03*
X526730Y1609000D03*
X526730Y1641000D03*
X578270Y1641000D03*
X728270Y1609000D03*
X676730Y1609000D03*
X676730Y1641000D03*
X728270Y1641000D03*
D34*
X548436Y1625000D03*
X556564Y1625000D03*
X698436Y1625000D03*
X706564Y1625000D03*
D33*
X878270Y1609000D03*
X826730Y1609000D03*
X826730Y1641000D03*
X878270Y1641000D03*
X1028270Y1609000D03*
X976730Y1609000D03*
X976730Y1641000D03*
X1028270Y1641000D03*
D34*
X848436Y1625000D03*
X856564Y1625000D03*
X998436Y1625000D03*
X1006564Y1625000D03*
D33*
X1178270Y1609000D03*
X1126730Y1609000D03*
X1126730Y1641000D03*
X1178270Y1641000D03*
X1328270Y1609000D03*
X1276730Y1609000D03*
X1276730Y1641000D03*
X1328270Y1641000D03*
D34*
X1148436Y1625000D03*
X1156564Y1625000D03*
X1298436Y1625000D03*
X1306564Y1625000D03*
D33*
X1478270Y1609000D03*
X1426730Y1609000D03*
X1426730Y1641000D03*
X1478270Y1641000D03*
X1628270Y1609000D03*
X1576730Y1609000D03*
X1576730Y1641000D03*
X1628270Y1641000D03*
D34*
X1448436Y1625000D03*
X1456564Y1625000D03*
X1598436Y1625000D03*
X1606564Y1625000D03*
D33*
X1778270Y1609000D03*
X1726730Y1609000D03*
X1726730Y1641000D03*
X1778270Y1641000D03*
X1928270Y1609000D03*
X1876730Y1609000D03*
X1876730Y1641000D03*
X1928270Y1641000D03*
D34*
X1748436Y1625000D03*
X1756564Y1625000D03*
X1898436Y1625000D03*
X1906564Y1625000D03*
D33*
X2078270Y1609000D03*
X2026730Y1609000D03*
X2026730Y1641000D03*
X2078270Y1641000D03*
D34*
X2048436Y1625000D03*
X2056564Y1625000D03*
D33*
X2228270Y1609000D03*
X2176730Y1609000D03*
X2176730Y1641000D03*
X2228270Y1641000D03*
X2378270Y1609000D03*
X2326730Y1609000D03*
X2326730Y1641000D03*
X2378270Y1641000D03*
D34*
X2198436Y1625000D03*
X2206564Y1625000D03*
X2348436Y1625000D03*
X2356564Y1625000D03*
D33*
X2528270Y1609000D03*
X2476730Y1609000D03*
X2476730Y1641000D03*
X2528270Y1641000D03*
X2678270Y1609000D03*
X2626730Y1609000D03*
X2626730Y1641000D03*
X2678270Y1641000D03*
D34*
X2498436Y1625000D03*
X2506564Y1625000D03*
X2648436Y1625000D03*
X2656564Y1625000D03*
D33*
X2828270Y1609000D03*
X2776730Y1609000D03*
X2776730Y1641000D03*
X2828270Y1641000D03*
X2978270Y1609000D03*
X2926730Y1609000D03*
X2926730Y1641000D03*
X2978270Y1641000D03*
D34*
X2798436Y1625000D03*
X2806564Y1625000D03*
X2948436Y1625000D03*
X2956564Y1625000D03*
D33*
X128270Y1459000D03*
X76730Y1459000D03*
X76730Y1491000D03*
X128270Y1491000D03*
D34*
X98436Y1475000D03*
X106564Y1475000D03*
D33*
X278270Y1459000D03*
X226730Y1459000D03*
X226730Y1491000D03*
X278270Y1491000D03*
X428270Y1459000D03*
X376730Y1459000D03*
X376730Y1491000D03*
X428270Y1491000D03*
D34*
X248436Y1475000D03*
X256564Y1475000D03*
X398436Y1475000D03*
X406564Y1475000D03*
D33*
X578270Y1459000D03*
X526730Y1459000D03*
X526730Y1491000D03*
X578270Y1491000D03*
D34*
X548436Y1475000D03*
X556564Y1475000D03*
D33*
X728270Y1459000D03*
X676730Y1459000D03*
X676730Y1491000D03*
X728270Y1491000D03*
X878270Y1459000D03*
X826730Y1459000D03*
X826730Y1491000D03*
X878270Y1491000D03*
D34*
X698436Y1475000D03*
X706564Y1475000D03*
X848436Y1475000D03*
X856564Y1475000D03*
D33*
X1028270Y1459000D03*
X976730Y1459000D03*
X976730Y1491000D03*
X1028270Y1491000D03*
X1178270Y1459000D03*
X1126730Y1459000D03*
X1126730Y1491000D03*
X1178270Y1491000D03*
D34*
X998436Y1475000D03*
X1006564Y1475000D03*
X1148436Y1475000D03*
X1156564Y1475000D03*
D33*
X1328270Y1459000D03*
X1276730Y1459000D03*
X1276730Y1491000D03*
X1328270Y1491000D03*
X1478270Y1459000D03*
X1426730Y1459000D03*
X1426730Y1491000D03*
X1478270Y1491000D03*
D34*
X1298436Y1475000D03*
X1306564Y1475000D03*
X1448436Y1475000D03*
X1456564Y1475000D03*
D33*
X1628270Y1459000D03*
X1576730Y1459000D03*
X1576730Y1491000D03*
X1628270Y1491000D03*
X1778270Y1459000D03*
X1726730Y1459000D03*
X1726730Y1491000D03*
X1778270Y1491000D03*
D34*
X1598436Y1475000D03*
X1606564Y1475000D03*
X1748436Y1475000D03*
X1756564Y1475000D03*
D33*
X1928270Y1459000D03*
X1876730Y1459000D03*
X1876730Y1491000D03*
X1928270Y1491000D03*
X2078270Y1459000D03*
X2026730Y1459000D03*
X2026730Y1491000D03*
X2078270Y1491000D03*
D34*
X1898436Y1475000D03*
X1906564Y1475000D03*
X2048436Y1475000D03*
X2056564Y1475000D03*
D33*
X2228270Y1459000D03*
X2176730Y1459000D03*
X2176730Y1491000D03*
X2228270Y1491000D03*
D34*
X2198436Y1475000D03*
X2206564Y1475000D03*
D33*
X2378270Y1459000D03*
X2326730Y1459000D03*
X2326730Y1491000D03*
X2378270Y1491000D03*
X2528270Y1459000D03*
X2476730Y1459000D03*
X2476730Y1491000D03*
X2528270Y1491000D03*
D34*
X2348436Y1475000D03*
X2356564Y1475000D03*
X2498436Y1475000D03*
X2506564Y1475000D03*
D33*
X2678270Y1459000D03*
X2626730Y1459000D03*
X2626730Y1491000D03*
X2678270Y1491000D03*
X2828270Y1459000D03*
X2776730Y1459000D03*
X2776730Y1491000D03*
X2828270Y1491000D03*
D34*
X2648436Y1475000D03*
X2656564Y1475000D03*
X2798436Y1475000D03*
X2806564Y1475000D03*
D33*
X2978270Y1459000D03*
X2926730Y1459000D03*
X2926730Y1491000D03*
X2978270Y1491000D03*
D34*
X2948436Y1475000D03*
X2956564Y1475000D03*
D33*
X128270Y1309000D03*
X76730Y1309000D03*
X76730Y1341000D03*
X128270Y1341000D03*
X278270Y1309000D03*
X226730Y1309000D03*
X226730Y1341000D03*
X278270Y1341000D03*
D34*
X98436Y1325000D03*
X106564Y1325000D03*
X248436Y1325000D03*
X256564Y1325000D03*
D33*
X428270Y1309000D03*
X376730Y1309000D03*
X376730Y1341000D03*
X428270Y1341000D03*
X578270Y1309000D03*
X526730Y1309000D03*
X526730Y1341000D03*
X578270Y1341000D03*
D34*
X398436Y1325000D03*
X406564Y1325000D03*
X548436Y1325000D03*
X556564Y1325000D03*
D33*
X728270Y1309000D03*
X676730Y1309000D03*
X676730Y1341000D03*
X728270Y1341000D03*
D34*
X698436Y1325000D03*
X706564Y1325000D03*
D33*
X878270Y1309000D03*
X826730Y1309000D03*
X826730Y1341000D03*
X878270Y1341000D03*
X1028270Y1309000D03*
X976730Y1309000D03*
X976730Y1341000D03*
X1028270Y1341000D03*
D34*
X848436Y1325000D03*
X856564Y1325000D03*
X998436Y1325000D03*
X1006564Y1325000D03*
D33*
X1178270Y1309000D03*
X1126730Y1309000D03*
X1126730Y1341000D03*
X1178270Y1341000D03*
X1328270Y1309000D03*
X1276730Y1309000D03*
X1276730Y1341000D03*
X1328270Y1341000D03*
D34*
X1148436Y1325000D03*
X1156564Y1325000D03*
X1298436Y1325000D03*
X1306564Y1325000D03*
D33*
X1478270Y1309000D03*
X1426730Y1309000D03*
X1426730Y1341000D03*
X1478270Y1341000D03*
X1628270Y1309000D03*
X1576730Y1309000D03*
X1576730Y1341000D03*
X1628270Y1341000D03*
D34*
X1448436Y1325000D03*
X1456564Y1325000D03*
X1598436Y1325000D03*
X1606564Y1325000D03*
D33*
X1778270Y1309000D03*
X1726730Y1309000D03*
X1726730Y1341000D03*
X1778270Y1341000D03*
X1928270Y1309000D03*
X1876730Y1309000D03*
X1876730Y1341000D03*
X1928270Y1341000D03*
D34*
X1748436Y1325000D03*
X1756564Y1325000D03*
X1898436Y1325000D03*
X1906564Y1325000D03*
D33*
X2078270Y1309000D03*
X2026730Y1309000D03*
X2026730Y1341000D03*
X2078270Y1341000D03*
X2228270Y1309000D03*
X2176730Y1309000D03*
X2176730Y1341000D03*
X2228270Y1341000D03*
D34*
X2048436Y1325000D03*
X2056564Y1325000D03*
X2198436Y1325000D03*
X2206564Y1325000D03*
D33*
X2378270Y1309000D03*
X2326730Y1309000D03*
X2326730Y1341000D03*
X2378270Y1341000D03*
D34*
X2348436Y1325000D03*
X2356564Y1325000D03*
D33*
X2528270Y1309000D03*
X2476730Y1309000D03*
X2476730Y1341000D03*
X2528270Y1341000D03*
X2678270Y1309000D03*
X2626730Y1309000D03*
X2626730Y1341000D03*
X2678270Y1341000D03*
D34*
X2498436Y1325000D03*
X2506564Y1325000D03*
X2648436Y1325000D03*
X2656564Y1325000D03*
D33*
X2828270Y1309000D03*
X2776730Y1309000D03*
X2776730Y1341000D03*
X2828270Y1341000D03*
X2978270Y1309000D03*
X2926730Y1309000D03*
X2926730Y1341000D03*
X2978270Y1341000D03*
D34*
X2798436Y1325000D03*
X2806564Y1325000D03*
X2948436Y1325000D03*
X2956564Y1325000D03*
D33*
X128270Y1159000D03*
X76730Y1159000D03*
X76730Y1191000D03*
X128270Y1191000D03*
D34*
X98436Y1175000D03*
X106564Y1175000D03*
D33*
X278270Y1159000D03*
X226730Y1159000D03*
X226730Y1191000D03*
X278270Y1191000D03*
X428270Y1159000D03*
X376730Y1159000D03*
X376730Y1191000D03*
X428270Y1191000D03*
D34*
X248436Y1175000D03*
X256564Y1175000D03*
X398436Y1175000D03*
X406564Y1175000D03*
D33*
X578270Y1159000D03*
X526730Y1159000D03*
X526730Y1191000D03*
X578270Y1191000D03*
X728270Y1159000D03*
X676730Y1159000D03*
X676730Y1191000D03*
X728270Y1191000D03*
D34*
X548436Y1175000D03*
X556564Y1175000D03*
X698436Y1175000D03*
X706564Y1175000D03*
D33*
X878270Y1159000D03*
X826730Y1159000D03*
X826730Y1191000D03*
X878270Y1191000D03*
D34*
X848436Y1175000D03*
X856564Y1175000D03*
D33*
X1028270Y1159000D03*
X976730Y1159000D03*
X976730Y1191000D03*
X1028270Y1191000D03*
X1178270Y1159000D03*
X1126730Y1159000D03*
X1126730Y1191000D03*
X1178270Y1191000D03*
D34*
X998436Y1175000D03*
X1006564Y1175000D03*
X1148436Y1175000D03*
X1156564Y1175000D03*
D33*
X1328270Y1159000D03*
X1276730Y1159000D03*
X1276730Y1191000D03*
X1328270Y1191000D03*
X1478270Y1159000D03*
X1426730Y1159000D03*
X1426730Y1191000D03*
X1478270Y1191000D03*
D34*
X1298436Y1175000D03*
X1306564Y1175000D03*
X1448436Y1175000D03*
X1456564Y1175000D03*
D33*
X1628270Y1159000D03*
X1576730Y1159000D03*
X1576730Y1191000D03*
X1628270Y1191000D03*
X1778270Y1159000D03*
X1726730Y1159000D03*
X1726730Y1191000D03*
X1778270Y1191000D03*
D34*
X1598436Y1175000D03*
X1606564Y1175000D03*
X1748436Y1175000D03*
X1756564Y1175000D03*
D33*
X1928270Y1159000D03*
X1876730Y1159000D03*
X1876730Y1191000D03*
X1928270Y1191000D03*
X2078270Y1159000D03*
X2026730Y1159000D03*
X2026730Y1191000D03*
X2078270Y1191000D03*
D34*
X1898436Y1175000D03*
X1906564Y1175000D03*
X2048436Y1175000D03*
X2056564Y1175000D03*
D33*
X2228270Y1159000D03*
X2176730Y1159000D03*
X2176730Y1191000D03*
X2228270Y1191000D03*
X2378270Y1159000D03*
X2326730Y1159000D03*
X2326730Y1191000D03*
X2378270Y1191000D03*
D34*
X2198436Y1175000D03*
X2206564Y1175000D03*
X2348436Y1175000D03*
X2356564Y1175000D03*
D33*
X2528270Y1159000D03*
X2476730Y1159000D03*
X2476730Y1191000D03*
X2528270Y1191000D03*
D34*
X2498436Y1175000D03*
X2506564Y1175000D03*
D33*
X2678270Y1159000D03*
X2626730Y1159000D03*
X2626730Y1191000D03*
X2678270Y1191000D03*
X2828270Y1159000D03*
X2776730Y1159000D03*
X2776730Y1191000D03*
X2828270Y1191000D03*
D34*
X2648436Y1175000D03*
X2656564Y1175000D03*
X2798436Y1175000D03*
X2806564Y1175000D03*
D33*
X2978270Y1159000D03*
X2926730Y1159000D03*
X2926730Y1191000D03*
X2978270Y1191000D03*
D34*
X2948436Y1175000D03*
X2956564Y1175000D03*
D33*
X128270Y1009000D03*
X76730Y1009000D03*
X76730Y1041000D03*
X128270Y1041000D03*
X278270Y1009000D03*
X226730Y1009000D03*
X226730Y1041000D03*
X278270Y1041000D03*
D34*
X98436Y1025000D03*
X106564Y1025000D03*
X248436Y1025000D03*
X256564Y1025000D03*
D33*
X428270Y1009000D03*
X376730Y1009000D03*
X376730Y1041000D03*
X428270Y1041000D03*
X578270Y1009000D03*
X526730Y1009000D03*
X526730Y1041000D03*
X578270Y1041000D03*
D34*
X398436Y1025000D03*
X406564Y1025000D03*
X548436Y1025000D03*
X556564Y1025000D03*
D33*
X728270Y1009000D03*
X676730Y1009000D03*
X676730Y1041000D03*
X728270Y1041000D03*
X878270Y1009000D03*
X826730Y1009000D03*
X826730Y1041000D03*
X878270Y1041000D03*
D34*
X698436Y1025000D03*
X706564Y1025000D03*
X848436Y1025000D03*
X856564Y1025000D03*
D33*
X1028270Y1009000D03*
X976730Y1009000D03*
X976730Y1041000D03*
X1028270Y1041000D03*
D34*
X998436Y1025000D03*
X1006564Y1025000D03*
D33*
X1178270Y1009000D03*
X1126730Y1009000D03*
X1126730Y1041000D03*
X1178270Y1041000D03*
X1328270Y1009000D03*
X1276730Y1009000D03*
X1276730Y1041000D03*
X1328270Y1041000D03*
D34*
X1148436Y1025000D03*
X1156564Y1025000D03*
X1298436Y1025000D03*
X1306564Y1025000D03*
D33*
X1478270Y1009000D03*
X1426730Y1009000D03*
X1426730Y1041000D03*
X1478270Y1041000D03*
X1628270Y1009000D03*
X1576730Y1009000D03*
X1576730Y1041000D03*
X1628270Y1041000D03*
D34*
X1448436Y1025000D03*
X1456564Y1025000D03*
X1598436Y1025000D03*
X1606564Y1025000D03*
D33*
X1778270Y1009000D03*
X1726730Y1009000D03*
X1726730Y1041000D03*
X1778270Y1041000D03*
X1928270Y1009000D03*
X1876730Y1009000D03*
X1876730Y1041000D03*
X1928270Y1041000D03*
D34*
X1748436Y1025000D03*
X1756564Y1025000D03*
X1898436Y1025000D03*
X1906564Y1025000D03*
D33*
X2078270Y1009000D03*
X2026730Y1009000D03*
X2026730Y1041000D03*
X2078270Y1041000D03*
X2228270Y1009000D03*
X2176730Y1009000D03*
X2176730Y1041000D03*
X2228270Y1041000D03*
D34*
X2048436Y1025000D03*
X2056564Y1025000D03*
X2198436Y1025000D03*
X2206564Y1025000D03*
D33*
X2378270Y1009000D03*
X2326730Y1009000D03*
X2326730Y1041000D03*
X2378270Y1041000D03*
X2528270Y1009000D03*
X2476730Y1009000D03*
X2476730Y1041000D03*
X2528270Y1041000D03*
D34*
X2348436Y1025000D03*
X2356564Y1025000D03*
X2498436Y1025000D03*
X2506564Y1025000D03*
D33*
X2678270Y1009000D03*
X2626730Y1009000D03*
X2626730Y1041000D03*
X2678270Y1041000D03*
D34*
X2648436Y1025000D03*
X2656564Y1025000D03*
D33*
X2828270Y1009000D03*
X2776730Y1009000D03*
X2776730Y1041000D03*
X2828270Y1041000D03*
X2978270Y1009000D03*
X2926730Y1009000D03*
X2926730Y1041000D03*
X2978270Y1041000D03*
D34*
X2798436Y1025000D03*
X2806564Y1025000D03*
X2948436Y1025000D03*
X2956564Y1025000D03*
D33*
X128270Y859000D03*
X76730Y859000D03*
X76730Y891000D03*
X128270Y891000D03*
D34*
X98436Y875000D03*
X106564Y875000D03*
D33*
X278270Y859000D03*
X226730Y859000D03*
X226730Y891000D03*
X278270Y891000D03*
X428270Y859000D03*
X376730Y859000D03*
X376730Y891000D03*
X428270Y891000D03*
D34*
X248436Y875000D03*
X256564Y875000D03*
X398436Y875000D03*
X406564Y875000D03*
D33*
X578270Y859000D03*
X526730Y859000D03*
X526730Y891000D03*
X578270Y891000D03*
X728270Y859000D03*
X676730Y859000D03*
X676730Y891000D03*
X728270Y891000D03*
D34*
X548436Y875000D03*
X556564Y875000D03*
X698436Y875000D03*
X706564Y875000D03*
D33*
X878270Y859000D03*
X826730Y859000D03*
X826730Y891000D03*
X878270Y891000D03*
X1028270Y859000D03*
X976730Y859000D03*
X976730Y891000D03*
X1028270Y891000D03*
D34*
X848436Y875000D03*
X856564Y875000D03*
X998436Y875000D03*
X1006564Y875000D03*
D33*
X1178270Y859000D03*
X1126730Y859000D03*
X1126730Y891000D03*
X1178270Y891000D03*
D34*
X1148436Y875000D03*
X1156564Y875000D03*
D33*
X1328270Y859000D03*
X1276730Y859000D03*
X1276730Y891000D03*
X1328270Y891000D03*
X1478270Y859000D03*
X1426730Y859000D03*
X1426730Y891000D03*
X1478270Y891000D03*
D34*
X1298436Y875000D03*
X1306564Y875000D03*
X1448436Y875000D03*
X1456564Y875000D03*
D33*
X1628270Y859000D03*
X1576730Y859000D03*
X1576730Y891000D03*
X1628270Y891000D03*
X1778270Y859000D03*
X1726730Y859000D03*
X1726730Y891000D03*
X1778270Y891000D03*
D34*
X1598436Y875000D03*
X1606564Y875000D03*
X1748436Y875000D03*
X1756564Y875000D03*
D33*
X1928270Y859000D03*
X1876730Y859000D03*
X1876730Y891000D03*
X1928270Y891000D03*
X2078270Y859000D03*
X2026730Y859000D03*
X2026730Y891000D03*
X2078270Y891000D03*
D34*
X1898436Y875000D03*
X1906564Y875000D03*
X2048436Y875000D03*
X2056564Y875000D03*
D33*
X2228270Y859000D03*
X2176730Y859000D03*
X2176730Y891000D03*
X2228270Y891000D03*
X2378270Y859000D03*
X2326730Y859000D03*
X2326730Y891000D03*
X2378270Y891000D03*
D34*
X2198436Y875000D03*
X2206564Y875000D03*
X2348436Y875000D03*
X2356564Y875000D03*
D33*
X2528270Y859000D03*
X2476730Y859000D03*
X2476730Y891000D03*
X2528270Y891000D03*
X2678270Y859000D03*
X2626730Y859000D03*
X2626730Y891000D03*
X2678270Y891000D03*
D34*
X2498436Y875000D03*
X2506564Y875000D03*
X2648436Y875000D03*
X2656564Y875000D03*
D33*
X2828270Y859000D03*
X2776730Y859000D03*
X2776730Y891000D03*
X2828270Y891000D03*
D34*
X2798436Y875000D03*
X2806564Y875000D03*
D33*
X2978270Y859000D03*
X2926730Y859000D03*
X2926730Y891000D03*
X2978270Y891000D03*
D34*
X2948436Y875000D03*
X2956564Y875000D03*
D33*
X128270Y709000D03*
X76730Y709000D03*
X76730Y741000D03*
X128270Y741000D03*
X278270Y709000D03*
X226730Y709000D03*
X226730Y741000D03*
X278270Y741000D03*
D34*
X98436Y725000D03*
X106564Y725000D03*
X248436Y725000D03*
X256564Y725000D03*
D33*
X428270Y709000D03*
X376730Y709000D03*
X376730Y741000D03*
X428270Y741000D03*
X578270Y709000D03*
X526730Y709000D03*
X526730Y741000D03*
X578270Y741000D03*
D34*
X398436Y725000D03*
X406564Y725000D03*
X548436Y725000D03*
X556564Y725000D03*
D33*
X728270Y709000D03*
X676730Y709000D03*
X676730Y741000D03*
X728270Y741000D03*
X878270Y709000D03*
X826730Y709000D03*
X826730Y741000D03*
X878270Y741000D03*
D34*
X698436Y725000D03*
X706564Y725000D03*
X848436Y725000D03*
X856564Y725000D03*
D33*
X1028270Y709000D03*
X976730Y709000D03*
X976730Y741000D03*
X1028270Y741000D03*
X1178270Y709000D03*
X1126730Y709000D03*
X1126730Y741000D03*
X1178270Y741000D03*
D34*
X998436Y725000D03*
X1006564Y725000D03*
X1148436Y725000D03*
X1156564Y725000D03*
D33*
X1328270Y709000D03*
X1276730Y709000D03*
X1276730Y741000D03*
X1328270Y741000D03*
D34*
X1298436Y725000D03*
X1306564Y725000D03*
D33*
X1478270Y709000D03*
X1426730Y709000D03*
X1426730Y741000D03*
X1478270Y741000D03*
X1628270Y709000D03*
X1576730Y709000D03*
X1576730Y741000D03*
X1628270Y741000D03*
D34*
X1448436Y725000D03*
X1456564Y725000D03*
X1598436Y725000D03*
X1606564Y725000D03*
D33*
X1778270Y709000D03*
X1726730Y709000D03*
X1726730Y741000D03*
X1778270Y741000D03*
X1928270Y709000D03*
X1876730Y709000D03*
X1876730Y741000D03*
X1928270Y741000D03*
D34*
X1748436Y725000D03*
X1756564Y725000D03*
X1898436Y725000D03*
X1906564Y725000D03*
D33*
X2078270Y709000D03*
X2026730Y709000D03*
X2026730Y741000D03*
X2078270Y741000D03*
X2228270Y709000D03*
X2176730Y709000D03*
X2176730Y741000D03*
X2228270Y741000D03*
D34*
X2048436Y725000D03*
X2056564Y725000D03*
X2198436Y725000D03*
X2206564Y725000D03*
D33*
X2378270Y709000D03*
X2326730Y709000D03*
X2326730Y741000D03*
X2378270Y741000D03*
X2528270Y709000D03*
X2476730Y709000D03*
X2476730Y741000D03*
X2528270Y741000D03*
D34*
X2348436Y725000D03*
X2356564Y725000D03*
X2498436Y725000D03*
X2506564Y725000D03*
D33*
X2678270Y709000D03*
X2626730Y709000D03*
X2626730Y741000D03*
X2678270Y741000D03*
X2828270Y709000D03*
X2776730Y709000D03*
X2776730Y741000D03*
X2828270Y741000D03*
D34*
X2648436Y725000D03*
X2656564Y725000D03*
X2798436Y725000D03*
X2806564Y725000D03*
D33*
X2978270Y709000D03*
X2926730Y709000D03*
X2926730Y741000D03*
X2978270Y741000D03*
D34*
X2948436Y725000D03*
X2956564Y725000D03*
D33*
X128270Y559000D03*
X76730Y559000D03*
X76730Y591000D03*
X128270Y591000D03*
D34*
X98436Y575000D03*
X106564Y575000D03*
D33*
X278270Y559000D03*
X226730Y559000D03*
X226730Y591000D03*
X278270Y591000D03*
X428270Y559000D03*
X376730Y559000D03*
X376730Y591000D03*
X428270Y591000D03*
D34*
X248436Y575000D03*
X256564Y575000D03*
X398436Y575000D03*
X406564Y575000D03*
D33*
X578270Y559000D03*
X526730Y559000D03*
X526730Y591000D03*
X578270Y591000D03*
X728270Y559000D03*
X676730Y559000D03*
X676730Y591000D03*
X728270Y591000D03*
D34*
X548436Y575000D03*
X556564Y575000D03*
X698436Y575000D03*
X706564Y575000D03*
D33*
X878270Y559000D03*
X826730Y559000D03*
X826730Y591000D03*
X878270Y591000D03*
X1028270Y559000D03*
X976730Y559000D03*
X976730Y591000D03*
X1028270Y591000D03*
D34*
X848436Y575000D03*
X856564Y575000D03*
X998436Y575000D03*
X1006564Y575000D03*
D33*
X1178270Y559000D03*
X1126730Y559000D03*
X1126730Y591000D03*
X1178270Y591000D03*
X1328270Y559000D03*
X1276730Y559000D03*
X1276730Y591000D03*
X1328270Y591000D03*
D34*
X1148436Y575000D03*
X1156564Y575000D03*
X1298436Y575000D03*
X1306564Y575000D03*
D33*
X1478270Y559000D03*
X1426730Y559000D03*
X1426730Y591000D03*
X1478270Y591000D03*
D34*
X1448436Y575000D03*
X1456564Y575000D03*
D33*
X1628270Y559000D03*
X1576730Y559000D03*
X1576730Y591000D03*
X1628270Y591000D03*
X1778270Y559000D03*
X1726730Y559000D03*
X1726730Y591000D03*
X1778270Y591000D03*
D34*
X1598436Y575000D03*
X1606564Y575000D03*
X1748436Y575000D03*
X1756564Y575000D03*
D33*
X1928270Y559000D03*
X1876730Y559000D03*
X1876730Y591000D03*
X1928270Y591000D03*
X2078270Y559000D03*
X2026730Y559000D03*
X2026730Y591000D03*
X2078270Y591000D03*
D34*
X1898436Y575000D03*
X1906564Y575000D03*
X2048436Y575000D03*
X2056564Y575000D03*
D33*
X2228270Y559000D03*
X2176730Y559000D03*
X2176730Y591000D03*
X2228270Y591000D03*
X2378270Y559000D03*
X2326730Y559000D03*
X2326730Y591000D03*
X2378270Y591000D03*
D34*
X2198436Y575000D03*
X2206564Y575000D03*
X2348436Y575000D03*
X2356564Y575000D03*
D33*
X2528270Y559000D03*
X2476730Y559000D03*
X2476730Y591000D03*
X2528270Y591000D03*
X2678270Y559000D03*
X2626730Y559000D03*
X2626730Y591000D03*
X2678270Y591000D03*
D34*
X2498436Y575000D03*
X2506564Y575000D03*
X2648436Y575000D03*
X2656564Y575000D03*
D33*
X2828270Y559000D03*
X2776730Y559000D03*
X2776730Y591000D03*
X2828270Y591000D03*
X2978270Y559000D03*
X2926730Y559000D03*
X2926730Y591000D03*
X2978270Y591000D03*
D34*
X2798436Y575000D03*
X2806564Y575000D03*
X2948436Y575000D03*
X2956564Y575000D03*
D33*
X278270Y409000D03*
X226730Y409000D03*
X226730Y441000D03*
X278270Y441000D03*
D34*
X248436Y425000D03*
X256564Y425000D03*
D33*
X428270Y409000D03*
X376730Y409000D03*
X376730Y441000D03*
X428270Y441000D03*
X578270Y409000D03*
X526730Y409000D03*
X526730Y441000D03*
X578270Y441000D03*
D34*
X398436Y425000D03*
X406564Y425000D03*
X548436Y425000D03*
X556564Y425000D03*
D33*
X728270Y409000D03*
X676730Y409000D03*
X676730Y441000D03*
X728270Y441000D03*
X878270Y409000D03*
X826730Y409000D03*
X826730Y441000D03*
X878270Y441000D03*
D34*
X698436Y425000D03*
X706564Y425000D03*
X848436Y425000D03*
X856564Y425000D03*
D33*
X1028270Y409000D03*
X976730Y409000D03*
X976730Y441000D03*
X1028270Y441000D03*
X1178270Y409000D03*
X1126730Y409000D03*
X1126730Y441000D03*
X1178270Y441000D03*
D34*
X998436Y425000D03*
X1006564Y425000D03*
X1148436Y425000D03*
X1156564Y425000D03*
D33*
X1328270Y409000D03*
X1276730Y409000D03*
X1276730Y441000D03*
X1328270Y441000D03*
X1478270Y409000D03*
X1426730Y409000D03*
X1426730Y441000D03*
X1478270Y441000D03*
D34*
X1298436Y425000D03*
X1306564Y425000D03*
X1448436Y425000D03*
X1456564Y425000D03*
D33*
X1628270Y409000D03*
X1576730Y409000D03*
X1576730Y441000D03*
X1628270Y441000D03*
D34*
X1598436Y425000D03*
X1606564Y425000D03*
D33*
X1778270Y409000D03*
X1726730Y409000D03*
X1726730Y441000D03*
X1778270Y441000D03*
X1928270Y409000D03*
X1876730Y409000D03*
X1876730Y441000D03*
X1928270Y441000D03*
D34*
X1748436Y425000D03*
X1756564Y425000D03*
X1898436Y425000D03*
X1906564Y425000D03*
D33*
X2078270Y409000D03*
X2026730Y409000D03*
X2026730Y441000D03*
X2078270Y441000D03*
X2228270Y409000D03*
X2176730Y409000D03*
X2176730Y441000D03*
X2228270Y441000D03*
D34*
X2048436Y425000D03*
X2056564Y425000D03*
X2198436Y425000D03*
X2206564Y425000D03*
D33*
X2378270Y409000D03*
X2326730Y409000D03*
X2326730Y441000D03*
X2378270Y441000D03*
X2528270Y409000D03*
X2476730Y409000D03*
X2476730Y441000D03*
X2528270Y441000D03*
D34*
X2348436Y425000D03*
X2356564Y425000D03*
X2498436Y425000D03*
X2506564Y425000D03*
D33*
X2678270Y409000D03*
X2626730Y409000D03*
X2626730Y441000D03*
X2678270Y441000D03*
X2828270Y409000D03*
X2776730Y409000D03*
X2776730Y441000D03*
X2828270Y441000D03*
D34*
X2648436Y425000D03*
X2656564Y425000D03*
X2798436Y425000D03*
X2806564Y425000D03*
D33*
X2978270Y409000D03*
X2926730Y409000D03*
X2926730Y441000D03*
X2978270Y441000D03*
D34*
X2948436Y425000D03*
X2956564Y425000D03*
D33*
X878270Y259000D03*
X826730Y259000D03*
X826730Y291000D03*
X878270Y291000D03*
D34*
X848436Y275000D03*
X856564Y275000D03*
D33*
X1028270Y259000D03*
X976730Y259000D03*
X976730Y291000D03*
X1028270Y291000D03*
X1178270Y259000D03*
X1126730Y259000D03*
X1126730Y291000D03*
X1178270Y291000D03*
D34*
X998436Y275000D03*
X1006564Y275000D03*
X1148436Y275000D03*
X1156564Y275000D03*
D33*
X1328270Y259000D03*
X1276730Y259000D03*
X1276730Y291000D03*
X1328270Y291000D03*
X1478270Y259000D03*
X1426730Y259000D03*
X1426730Y291000D03*
X1478270Y291000D03*
D34*
X1298436Y275000D03*
X1306564Y275000D03*
X1448436Y275000D03*
X1456564Y275000D03*
D33*
X1628270Y259000D03*
X1576730Y259000D03*
X1576730Y291000D03*
X1628270Y291000D03*
X1778270Y259000D03*
X1726730Y259000D03*
X1726730Y291000D03*
X1778270Y291000D03*
D34*
X1598436Y275000D03*
X1606564Y275000D03*
X1748436Y275000D03*
X1756564Y275000D03*
D33*
X1928270Y259000D03*
X1876730Y259000D03*
X1876730Y291000D03*
X1928270Y291000D03*
X2078270Y259000D03*
X2026730Y259000D03*
X2026730Y291000D03*
X2078270Y291000D03*
D34*
X1898436Y275000D03*
X1906564Y275000D03*
X2048436Y275000D03*
X2056564Y275000D03*
D33*
X2228270Y259000D03*
X2176730Y259000D03*
X2176730Y291000D03*
X2228270Y291000D03*
X2378270Y259000D03*
X2326730Y259000D03*
X2326730Y291000D03*
X2378270Y291000D03*
D34*
X2198436Y275000D03*
X2206564Y275000D03*
X2348436Y275000D03*
X2356564Y275000D03*
D33*
X2528270Y259000D03*
X2476730Y259000D03*
X2476730Y291000D03*
X2528270Y291000D03*
D34*
X2498436Y275000D03*
X2506564Y275000D03*
D33*
X2678270Y259000D03*
X2626730Y259000D03*
X2626730Y291000D03*
X2678270Y291000D03*
X2828270Y259000D03*
X2776730Y259000D03*
X2776730Y291000D03*
X2828270Y291000D03*
D34*
X2648436Y275000D03*
X2656564Y275000D03*
X2798436Y275000D03*
X2806564Y275000D03*
D33*
X2978270Y259000D03*
X2926730Y259000D03*
X2926730Y291000D03*
X2978270Y291000D03*
D34*
X2948436Y275000D03*
X2956564Y275000D03*
D33*
X728270Y109000D03*
X676730Y109000D03*
X676730Y141000D03*
X728270Y141000D03*
X878270Y109000D03*
X826730Y109000D03*
X826730Y141000D03*
X878270Y141000D03*
D34*
X698436Y125000D03*
X706564Y125000D03*
X848436Y125000D03*
X856564Y125000D03*
D33*
X1028270Y109000D03*
X976730Y109000D03*
X976730Y141000D03*
X1028270Y141000D03*
X1178270Y109000D03*
X1126730Y109000D03*
X1126730Y141000D03*
X1178270Y141000D03*
D34*
X998436Y125000D03*
X1006564Y125000D03*
X1148436Y125000D03*
X1156564Y125000D03*
D33*
X1790770Y109000D03*
X1739230Y109000D03*
X1739230Y141000D03*
X1790770Y141000D03*
X1928270Y109000D03*
X1876730Y109000D03*
X1876730Y141000D03*
X1928270Y141000D03*
D34*
X1760936Y125000D03*
X1769064Y125000D03*
X1898436Y125000D03*
X1906564Y125000D03*
D33*
X2078270Y109000D03*
X2026730Y109000D03*
X2026730Y141000D03*
X2078270Y141000D03*
X2228270Y109000D03*
X2176730Y109000D03*
X2176730Y141000D03*
X2228270Y141000D03*
D34*
X2048436Y125000D03*
X2056564Y125000D03*
X2198436Y125000D03*
X2206564Y125000D03*
D33*
X2378270Y109000D03*
X2326730Y109000D03*
X2326730Y141000D03*
X2378270Y141000D03*
X2528270Y109000D03*
X2476730Y109000D03*
X2476730Y141000D03*
X2528270Y141000D03*
D34*
X2348436Y125000D03*
X2356564Y125000D03*
X2498436Y125000D03*
X2506564Y125000D03*
D33*
X2678270Y109000D03*
X2626730Y109000D03*
X2626730Y141000D03*
X2678270Y141000D03*
X2828270Y109000D03*
X2776730Y109000D03*
X2776730Y141000D03*
X2828270Y141000D03*
D34*
X2648436Y125000D03*
X2656564Y125000D03*
X2798436Y125000D03*
X2806564Y125000D03*
D10*
X189290Y80030D03*
X206290Y80030D03*
D22*
X1706320Y1831250D03*
X1348680Y75000D03*
X2980000Y1831250D03*
X75000Y1831250D03*
D10*
X81800Y168500D03*
X64800Y168500D03*
D13*
X98000Y227500D03*
X98000Y210500D03*
X51000Y209500D03*
X51000Y226500D03*
D33*
X128270Y409000D03*
X76730Y409000D03*
X76730Y441000D03*
X128270Y441000D03*
D34*
X98436Y425000D03*
X106564Y425000D03*
D33*
X128270Y264000D03*
X76730Y264000D03*
X76730Y296000D03*
X128270Y296000D03*
D34*
X98436Y280000D03*
X106564Y280000D03*
D33*
X278270Y259000D03*
X226730Y259000D03*
X226730Y291000D03*
X278270Y291000D03*
X578270Y259000D03*
X526730Y259000D03*
X526730Y291000D03*
X578270Y291000D03*
D34*
X248436Y275000D03*
X256564Y275000D03*
X548436Y275000D03*
X556564Y275000D03*
D33*
X728270Y259000D03*
X676730Y259000D03*
X676730Y291000D03*
X728270Y291000D03*
D34*
X698436Y275000D03*
X706564Y275000D03*
D35*
X50000Y1704064D03*
X50000Y1695936D03*
X50000Y1554064D03*
X50000Y1545936D03*
X50000Y1404064D03*
X50000Y1395936D03*
X50000Y1254064D03*
X50000Y1245936D03*
X50000Y1104064D03*
X50000Y1095936D03*
X50000Y954064D03*
X50000Y945936D03*
X50000Y804064D03*
X50000Y795936D03*
X50000Y654064D03*
X50000Y645936D03*
X50000Y504064D03*
X50000Y495936D03*
X50000Y354064D03*
X50000Y345936D03*
X700000Y204064D03*
X700000Y195936D03*
M02*
