%
M48
M72
T01C0.0150
T02C0.0256
T03C0.0354
T04C0.0472
T05C0.1300
%
T01
X5812Y7356
X5912Y9201
X7173Y11516
X7554Y13256
X7794Y14772
X7302Y14772
X6810Y14772
X6318Y14772
X5825Y14772
X5333Y14772
X5114Y13081
X5114Y12490
X9504Y10813
X11507Y10756
X10365Y8156
X13238Y7507
X15833Y7906
X16783Y7906
X16533Y7156
X17944Y8494
X19033Y9206
X19633Y9156
X19333Y10006
X19333Y10406
X17533Y11456
X16083Y10706
X16083Y9706
X16483Y9156
X14533Y10156
X15233Y11456
X18733Y12706
X19833Y11901
X22833Y12706
X22333Y14406
X21333Y14406
X17735Y14476
X15176Y14772
X14192Y14772
X15176Y19988
X14192Y20185
X21081Y19988
X26987Y19988
X32892Y19988
X38798Y19988
X44703Y19988
X50609Y19988
X56514Y19988
X62420Y19988
X68325Y19988
X74231Y19988
X80136Y19988
X86042Y19988
X91948Y19988
X97853Y19988
X103759Y19988
X109664Y19988
X115570Y19988
X121475Y19988
X126396Y22154
X127381Y19988
X126396Y16248
X127381Y14083
X121475Y14083
X115570Y14083
X109664Y14083
X103759Y14083
X97853Y14083
X91948Y14083
X86042Y14083
X80136Y14083
X74231Y14083
X68325Y14083
X62420Y14083
X56514Y14083
X50609Y14083
X44703Y14083
X38798Y14083
X37814Y14280
X33140Y13783
X32240Y14183
X33140Y14783
X33440Y12433
X33140Y10783
X32240Y10883
X31740Y9983
X32140Y8283
X33640Y8283
X34140Y8783
X37814Y8374
X38798Y8177
X44703Y8177
X50609Y8177
X56514Y8177
X62420Y7980
X68325Y8177
X74231Y8177
X80629Y8177
X86042Y8177
X91948Y8177
X97853Y8177
X103759Y8177
X109664Y8177
X115570Y8177
X121475Y8177
X121475Y25894
X126396Y28059
X127381Y25894
X127381Y31799
X126396Y33965
X127381Y37705
X126396Y39870
X127381Y43610
X126396Y45776
X127381Y49516
X126396Y51681
X127381Y55421
X126396Y57587
X127381Y61327
X126396Y63492
X127381Y67232
X126396Y69398
X127381Y73138
X126396Y75303
X121475Y73138
X115570Y73138
X109664Y73138
X103759Y73138
X97853Y73138
X91948Y73138
X86042Y73138
X80136Y73138
X74231Y73138
X68325Y73138
X62420Y73138
X56514Y73138
X50609Y73138
X44703Y73138
X38798Y73138
X32892Y73138
X26987Y73138
X21081Y73138
X15176Y73138
X9270Y72154
X8286Y73335
X8286Y67429
X9270Y66248
X15176Y67232
X21081Y67232
X26987Y67232
X32892Y67232
X38798Y67232
X44703Y67232
X50609Y67232
X56514Y67232
X62420Y67232
X68325Y67232
X74231Y67232
X80136Y67232
X86042Y67232
X91948Y67232
X97853Y67232
X103759Y67232
X109664Y67232
X115570Y67232
X121475Y67232
X121475Y61327
X115570Y61327
X109664Y61327
X103759Y61327
X97853Y61327
X91948Y61327
X86042Y61327
X80136Y61327
X74231Y61327
X68325Y61327
X62420Y61327
X56514Y61327
X50609Y61327
X44703Y61327
X38798Y61327
X32892Y61327
X26987Y61327
X21081Y61327
X15176Y61327
X9270Y61031
X8286Y61524
X8286Y55618
X9270Y55224
X15176Y55224
X21081Y55421
X26987Y55421
X32892Y55421
X38798Y55421
X44703Y55421
X50609Y55421
X56514Y55421
X62420Y55421
X68325Y55421
X74231Y55421
X80136Y55421
X86042Y55421
X91948Y55421
X97853Y55421
X103759Y55421
X109664Y55421
X115570Y55421
X121475Y55421
X121475Y49516
X115570Y49516
X109664Y49516
X103759Y49516
X97853Y49516
X91948Y49516
X86042Y49516
X80136Y49516
X74231Y49516
X68325Y49516
X62420Y49516
X56514Y49516
X50609Y49516
X44703Y49516
X38798Y49516
X32892Y49516
X26987Y49516
X21081Y49516
X15176Y49516
X9270Y49516
X8286Y49713
X8286Y43807
X9270Y43610
X15176Y43610
X21081Y43610
X26987Y43610
X32892Y43610
X38798Y43610
X44703Y43610
X50609Y43610
X56514Y43610
X62420Y43610
X68325Y43610
X74231Y43610
X80136Y43610
X86042Y43610
X91948Y43610
X97853Y43610
X103759Y43610
X109664Y43610
X115570Y43610
X121475Y43610
X121475Y37705
X115570Y37705
X109664Y37705
X103759Y37705
X97853Y37705
X91948Y37705
X86042Y37705
X80136Y37705
X74231Y37705
X68325Y37705
X62420Y37705
X56514Y37705
X50609Y37705
X44703Y37705
X38798Y37705
X32892Y37705
X26987Y37705
X21081Y37705
X15176Y37705
X9270Y37705
X8286Y37902
X8286Y31996
X9270Y31799
X15176Y31799
X21081Y31799
X26987Y31799
X32892Y31799
X38798Y31799
X44703Y31799
X50609Y31799
X56514Y31799
X62420Y31799
X68325Y31799
X74231Y31799
X80136Y31799
X86042Y31799
X91948Y31799
X97853Y31799
X103759Y31799
X109664Y31799
X115570Y31799
X121475Y31799
X115570Y25894
X109664Y25894
X103759Y25894
X97853Y25894
X91948Y25894
X86042Y25894
X80136Y25894
X74231Y25894
X68325Y25894
X62420Y25894
X56514Y25894
X50609Y25894
X44703Y25894
X38798Y25894
X32892Y25894
X26987Y25894
X21081Y25894
X15176Y25894
X9270Y25894
X8286Y26091
X5629Y22154
X22933Y10956
X21333Y9406
X22333Y8656
X26883Y13111
X27381Y15006
X26987Y79043
X21081Y79043
X15176Y79043
X32892Y79043
X38798Y79043
X44703Y79043
X50609Y79043
X56514Y79043
X62420Y79043
X68325Y79043
X74231Y79043
X80136Y79043
X86042Y79043
X91948Y79043
X97853Y79043
X103759Y79043
X109664Y79043
X115570Y79043
X121475Y79043
X122459Y81209
T02
X4070Y14062
X4070Y11786
T03
X33140Y7783
X35444Y10283
X35444Y13283
T04
X5274Y19358
X2518Y19358
T05
X8286Y9358
X76842Y9358
X126987Y9358
X126987Y81307
X58431Y81307
X8286Y81307
M30
