G04 EAGLE Gerber RS-274X export*
G75*
%MOMM*%
%FSLAX34Y34*%
%LPD*%
%INSoldermask Top*%
%IPPOS*%
%AMOC8*
5,1,8,0,0,1.08239X$1,22.5*%
G01*
%ADD10R,1.203200X1.303200*%
%ADD11C,0.838200*%
%ADD12R,0.503200X0.863200*%
%ADD13R,1.303200X1.203200*%
%ADD14R,1.103200X1.203200*%
%ADD15R,1.103200X1.703200*%
%ADD16R,1.703200X1.103200*%
%ADD17R,6.203200X6.203200*%
%ADD18R,0.753200X1.403200*%
%ADD19R,0.503200X1.053200*%
%ADD20R,1.053200X0.503200*%
%ADD21R,2.753200X2.753200*%
%ADD22C,3.505200*%
%ADD23R,1.219200X0.503200*%
%ADD24R,1.219200X0.803200*%
%ADD25R,1.219200X0.753200*%
%ADD26C,0.853200*%
%ADD27R,1.403200X2.703200*%
%ADD28C,1.403200*%
%ADD29C,0.500000*%
%ADD30C,0.903200*%
%ADD31C,1.103200*%
%ADD32R,1.403200X0.753200*%
%ADD33R,1.854200X1.203200*%
%ADD34R,0.838200X1.473200*%
%ADD35R,1.473200X0.838200*%

G36*
X3466305Y327154D02*
X3466305Y327154D01*
X3466308Y327151D01*
X3467575Y327356D01*
X3467581Y327362D01*
X3467586Y327359D01*
X3468775Y327841D01*
X3468779Y327848D01*
X3468785Y327846D01*
X3469838Y328580D01*
X3469840Y328588D01*
X3469846Y328587D01*
X3470709Y329537D01*
X3470710Y329546D01*
X3470715Y329546D01*
X3471345Y330665D01*
X3471344Y330673D01*
X3471350Y330675D01*
X3471715Y331905D01*
X3471712Y331912D01*
X3471716Y331915D01*
X3471715Y331915D01*
X3471717Y331916D01*
X3471799Y333197D01*
X3471797Y333201D01*
X3471799Y333203D01*
X3471717Y334484D01*
X3471711Y334490D01*
X3471715Y334495D01*
X3471350Y335725D01*
X3471343Y335730D01*
X3471345Y335735D01*
X3470715Y336854D01*
X3470708Y336857D01*
X3470709Y336863D01*
X3469846Y337813D01*
X3469838Y337814D01*
X3469838Y337820D01*
X3468785Y338554D01*
X3468777Y338554D01*
X3468775Y338559D01*
X3467586Y339041D01*
X3467578Y339039D01*
X3467575Y339044D01*
X3466308Y339249D01*
X3466303Y339246D01*
X3466300Y339249D01*
X3454300Y339249D01*
X3454296Y339246D01*
X3454293Y339249D01*
X3453171Y339094D01*
X3453166Y339089D01*
X3453162Y339092D01*
X3452091Y338721D01*
X3452087Y338715D01*
X3452082Y338717D01*
X3451105Y338144D01*
X3451102Y338138D01*
X3451097Y338139D01*
X3450250Y337386D01*
X3450248Y337379D01*
X3450243Y337379D01*
X3449559Y336476D01*
X3449559Y336469D01*
X3449554Y336468D01*
X3449059Y335449D01*
X3449061Y335442D01*
X3449059Y335441D01*
X3449056Y335440D01*
X3448769Y334343D01*
X3448772Y334337D01*
X3448768Y334334D01*
X3448701Y333203D01*
X3448703Y333199D01*
X3448701Y333197D01*
X3448768Y332066D01*
X3448773Y332061D01*
X3448769Y332057D01*
X3449056Y330960D01*
X3449062Y330956D01*
X3449059Y330951D01*
X3449554Y329932D01*
X3449560Y329929D01*
X3449559Y329924D01*
X3450243Y329021D01*
X3450250Y329019D01*
X3450250Y329014D01*
X3451097Y328261D01*
X3451104Y328261D01*
X3451105Y328256D01*
X3452082Y327683D01*
X3452089Y327684D01*
X3452091Y327679D01*
X3453162Y327308D01*
X3453168Y327311D01*
X3453171Y327306D01*
X3454293Y327151D01*
X3454298Y327154D01*
X3454300Y327151D01*
X3466300Y327151D01*
X3466305Y327154D01*
G37*
G36*
X3466305Y240754D02*
X3466305Y240754D01*
X3466308Y240751D01*
X3467575Y240956D01*
X3467581Y240962D01*
X3467586Y240959D01*
X3468775Y241441D01*
X3468779Y241448D01*
X3468785Y241446D01*
X3469838Y242180D01*
X3469840Y242188D01*
X3469846Y242187D01*
X3470709Y243137D01*
X3470710Y243146D01*
X3470715Y243146D01*
X3471345Y244265D01*
X3471344Y244273D01*
X3471350Y244275D01*
X3471715Y245505D01*
X3471712Y245512D01*
X3471716Y245515D01*
X3471715Y245515D01*
X3471717Y245516D01*
X3471799Y246797D01*
X3471797Y246801D01*
X3471799Y246803D01*
X3471717Y248084D01*
X3471711Y248090D01*
X3471715Y248095D01*
X3471350Y249325D01*
X3471343Y249330D01*
X3471345Y249335D01*
X3470715Y250454D01*
X3470708Y250457D01*
X3470709Y250463D01*
X3469846Y251413D01*
X3469838Y251414D01*
X3469838Y251420D01*
X3468785Y252154D01*
X3468777Y252154D01*
X3468775Y252159D01*
X3467586Y252641D01*
X3467578Y252639D01*
X3467575Y252644D01*
X3466308Y252849D01*
X3466303Y252846D01*
X3466300Y252849D01*
X3454300Y252849D01*
X3454296Y252846D01*
X3454293Y252849D01*
X3453171Y252694D01*
X3453166Y252689D01*
X3453162Y252692D01*
X3452091Y252321D01*
X3452087Y252315D01*
X3452082Y252317D01*
X3451105Y251744D01*
X3451102Y251738D01*
X3451097Y251739D01*
X3450250Y250986D01*
X3450248Y250979D01*
X3450243Y250979D01*
X3449559Y250076D01*
X3449559Y250069D01*
X3449554Y250068D01*
X3449059Y249049D01*
X3449061Y249042D01*
X3449059Y249041D01*
X3449056Y249040D01*
X3448769Y247943D01*
X3448772Y247937D01*
X3448768Y247934D01*
X3448701Y246803D01*
X3448703Y246799D01*
X3448701Y246797D01*
X3448768Y245666D01*
X3448773Y245661D01*
X3448769Y245657D01*
X3449056Y244560D01*
X3449062Y244556D01*
X3449059Y244551D01*
X3449554Y243532D01*
X3449560Y243529D01*
X3449559Y243524D01*
X3450243Y242621D01*
X3450250Y242619D01*
X3450250Y242614D01*
X3451097Y241861D01*
X3451104Y241861D01*
X3451105Y241856D01*
X3452082Y241283D01*
X3452089Y241284D01*
X3452091Y241279D01*
X3453162Y240908D01*
X3453168Y240911D01*
X3453171Y240906D01*
X3454293Y240751D01*
X3454298Y240754D01*
X3454300Y240751D01*
X3466300Y240751D01*
X3466305Y240754D01*
G37*
G36*
X3505104Y327153D02*
X3505104Y327153D01*
X3505106Y327151D01*
X3506435Y327306D01*
X3506441Y327312D01*
X3506445Y327309D01*
X3507706Y327756D01*
X3507711Y327763D01*
X3507716Y327761D01*
X3508846Y328478D01*
X3508849Y328485D01*
X3508855Y328484D01*
X3509797Y329435D01*
X3509798Y329443D01*
X3509804Y329443D01*
X3510511Y330579D01*
X3510511Y330584D01*
X3510512Y330585D01*
X3510511Y330587D01*
X3510516Y330589D01*
X3510952Y331854D01*
X3510950Y331862D01*
X3510955Y331865D01*
X3511099Y333195D01*
X3511095Y333201D01*
X3511099Y333205D01*
X3510989Y334371D01*
X3510984Y334376D01*
X3510987Y334380D01*
X3510652Y335503D01*
X3510646Y335507D01*
X3510648Y335511D01*
X3510100Y336547D01*
X3510094Y336550D01*
X3510095Y336555D01*
X3509356Y337463D01*
X3509349Y337465D01*
X3509349Y337470D01*
X3508447Y338217D01*
X3508440Y338217D01*
X3508439Y338223D01*
X3507408Y338779D01*
X3507401Y338778D01*
X3507399Y338783D01*
X3506280Y339127D01*
X3506273Y339125D01*
X3506270Y339129D01*
X3505105Y339249D01*
X3505102Y339247D01*
X3505100Y339249D01*
X3499100Y339249D01*
X3499097Y339247D01*
X3499095Y339249D01*
X3497919Y339138D01*
X3497914Y339133D01*
X3497910Y339136D01*
X3496778Y338798D01*
X3496774Y338792D01*
X3496769Y338794D01*
X3495725Y338242D01*
X3495722Y338235D01*
X3495717Y338237D01*
X3494801Y337491D01*
X3494800Y337484D01*
X3494794Y337484D01*
X3494041Y336575D01*
X3494041Y336567D01*
X3494036Y336567D01*
X3493475Y335527D01*
X3493476Y335520D01*
X3493471Y335518D01*
X3493124Y334389D01*
X3493126Y334383D01*
X3493122Y334380D01*
X3493001Y333205D01*
X3493005Y333198D01*
X3493001Y333194D01*
X3493158Y331854D01*
X3493163Y331848D01*
X3493160Y331843D01*
X3493611Y330572D01*
X3493618Y330567D01*
X3493616Y330562D01*
X3494338Y329423D01*
X3494346Y329420D01*
X3494345Y329414D01*
X3495303Y328464D01*
X3495311Y328463D01*
X3495312Y328457D01*
X3496457Y327744D01*
X3496466Y327745D01*
X3496467Y327739D01*
X3497743Y327299D01*
X3497750Y327301D01*
X3497752Y327299D01*
X3497753Y327297D01*
X3499095Y327151D01*
X3499098Y327153D01*
X3499100Y327151D01*
X3505100Y327151D01*
X3505104Y327153D01*
G37*
G36*
X3505104Y240753D02*
X3505104Y240753D01*
X3505106Y240751D01*
X3506435Y240906D01*
X3506441Y240912D01*
X3506445Y240909D01*
X3507706Y241356D01*
X3507711Y241363D01*
X3507716Y241361D01*
X3508846Y242078D01*
X3508849Y242085D01*
X3508855Y242084D01*
X3509797Y243035D01*
X3509798Y243043D01*
X3509804Y243043D01*
X3510511Y244179D01*
X3510511Y244184D01*
X3510512Y244185D01*
X3510511Y244187D01*
X3510516Y244189D01*
X3510952Y245454D01*
X3510950Y245462D01*
X3510955Y245465D01*
X3511099Y246795D01*
X3511095Y246801D01*
X3511099Y246805D01*
X3510989Y247971D01*
X3510984Y247976D01*
X3510987Y247980D01*
X3510652Y249103D01*
X3510646Y249107D01*
X3510648Y249111D01*
X3510100Y250147D01*
X3510094Y250150D01*
X3510095Y250155D01*
X3509356Y251063D01*
X3509349Y251065D01*
X3509349Y251070D01*
X3508447Y251817D01*
X3508440Y251817D01*
X3508439Y251823D01*
X3507408Y252379D01*
X3507401Y252378D01*
X3507399Y252383D01*
X3506280Y252727D01*
X3506273Y252725D01*
X3506270Y252729D01*
X3505105Y252849D01*
X3505102Y252847D01*
X3505100Y252849D01*
X3499100Y252849D01*
X3499097Y252847D01*
X3499095Y252849D01*
X3497919Y252738D01*
X3497914Y252733D01*
X3497910Y252736D01*
X3496778Y252398D01*
X3496774Y252392D01*
X3496769Y252394D01*
X3495725Y251842D01*
X3495722Y251835D01*
X3495717Y251837D01*
X3494801Y251091D01*
X3494800Y251084D01*
X3494794Y251084D01*
X3494041Y250175D01*
X3494041Y250167D01*
X3494036Y250167D01*
X3493475Y249127D01*
X3493476Y249120D01*
X3493471Y249118D01*
X3493124Y247989D01*
X3493126Y247983D01*
X3493122Y247980D01*
X3493001Y246805D01*
X3493005Y246798D01*
X3493001Y246794D01*
X3493158Y245454D01*
X3493163Y245448D01*
X3493160Y245443D01*
X3493611Y244172D01*
X3493618Y244167D01*
X3493616Y244162D01*
X3494338Y243023D01*
X3494346Y243020D01*
X3494345Y243014D01*
X3495303Y242064D01*
X3495311Y242063D01*
X3495312Y242057D01*
X3496457Y241344D01*
X3496466Y241345D01*
X3496467Y241339D01*
X3497743Y240899D01*
X3497750Y240901D01*
X3497752Y240899D01*
X3497753Y240897D01*
X3499095Y240751D01*
X3499098Y240753D01*
X3499100Y240751D01*
X3505100Y240751D01*
X3505104Y240753D01*
G37*
D10*
X140000Y173500D03*
X140000Y156500D03*
D11*
X3137500Y2100000D03*
X95550Y425000D03*
X10000Y20000D03*
D12*
X288300Y75250D03*
X294800Y93650D03*
X301300Y93650D03*
X288300Y93650D03*
X294800Y75250D03*
X301300Y75250D03*
D13*
X206600Y57900D03*
X223600Y57900D03*
X286300Y59050D03*
X303300Y59050D03*
X286300Y109850D03*
X303300Y109850D03*
D10*
X269400Y92950D03*
X269400Y75950D03*
D14*
X325100Y95500D03*
X325100Y111500D03*
X366100Y111500D03*
X366100Y95500D03*
X366100Y73400D03*
X366100Y57400D03*
X325100Y57400D03*
X325100Y73400D03*
D15*
X562300Y223980D03*
X549600Y223980D03*
X536900Y223980D03*
X524200Y223980D03*
X511500Y223980D03*
X498800Y223980D03*
X486100Y223980D03*
X473400Y223980D03*
X460700Y223980D03*
X448000Y223980D03*
X435300Y223980D03*
X422600Y223980D03*
X409900Y223980D03*
X397200Y223980D03*
D16*
X382300Y198750D03*
X382300Y186050D03*
X382300Y173350D03*
X382300Y160650D03*
X382300Y147950D03*
X382300Y135250D03*
X382300Y122550D03*
X382300Y109850D03*
X382300Y97150D03*
X382300Y84450D03*
D15*
X397200Y59220D03*
X409900Y59220D03*
X422600Y59220D03*
X435300Y59220D03*
X448000Y59220D03*
X460700Y59220D03*
X473400Y59220D03*
X486100Y59220D03*
X498800Y59220D03*
X511500Y59220D03*
X524200Y59220D03*
X536900Y59220D03*
X549600Y59220D03*
X562300Y59220D03*
D17*
X485300Y141600D03*
D18*
X155200Y152799D03*
X164700Y152799D03*
X174200Y152799D03*
X174200Y178801D03*
X155200Y178801D03*
D19*
X218800Y124000D03*
X223800Y124000D03*
X228800Y124000D03*
X233800Y124000D03*
X238800Y124000D03*
X243800Y124000D03*
D20*
X251800Y116000D03*
X251800Y111000D03*
X251800Y106000D03*
X251800Y101000D03*
X251800Y96000D03*
X251800Y91000D03*
X210800Y91000D03*
X210800Y96000D03*
X210800Y101000D03*
X210800Y106000D03*
X210800Y111000D03*
X210800Y116000D03*
D19*
X243800Y83000D03*
X238800Y83000D03*
X233800Y83000D03*
X228800Y83000D03*
X223800Y83000D03*
X218800Y83000D03*
D21*
X231300Y103500D03*
D22*
X3338600Y75000D03*
X77500Y77500D03*
D23*
X3449560Y297500D03*
X3449560Y292500D03*
D24*
X3449560Y322250D03*
D25*
X3449560Y314500D03*
D23*
X3449560Y307500D03*
X3449560Y302500D03*
X3449560Y282500D03*
X3449560Y287500D03*
D24*
X3449560Y257750D03*
D25*
X3449560Y265500D03*
D23*
X3449560Y272500D03*
X3449560Y277500D03*
D26*
X3465550Y261100D03*
X3465550Y318900D03*
D13*
X3402400Y303400D03*
X3419400Y303400D03*
X3402400Y278000D03*
X3419400Y278000D03*
D27*
X3414100Y437500D03*
X3403100Y502500D03*
X3454100Y437500D03*
X3484100Y437500D03*
D28*
X3500100Y470000D03*
X3430100Y470000D03*
D29*
X289300Y140000D02*
X289302Y140172D01*
X289308Y140343D01*
X289319Y140515D01*
X289334Y140686D01*
X289353Y140857D01*
X289376Y141027D01*
X289403Y141197D01*
X289435Y141366D01*
X289470Y141534D01*
X289510Y141701D01*
X289554Y141867D01*
X289601Y142032D01*
X289653Y142196D01*
X289709Y142358D01*
X289769Y142519D01*
X289833Y142679D01*
X289901Y142837D01*
X289972Y142993D01*
X290047Y143147D01*
X290127Y143300D01*
X290209Y143450D01*
X290296Y143599D01*
X290386Y143745D01*
X290480Y143889D01*
X290577Y144031D01*
X290678Y144170D01*
X290782Y144307D01*
X290889Y144441D01*
X291000Y144572D01*
X291113Y144701D01*
X291230Y144827D01*
X291350Y144950D01*
X291473Y145070D01*
X291599Y145187D01*
X291728Y145300D01*
X291859Y145411D01*
X291993Y145518D01*
X292130Y145622D01*
X292269Y145723D01*
X292411Y145820D01*
X292555Y145914D01*
X292701Y146004D01*
X292850Y146091D01*
X293000Y146173D01*
X293153Y146253D01*
X293307Y146328D01*
X293463Y146399D01*
X293621Y146467D01*
X293781Y146531D01*
X293942Y146591D01*
X294104Y146647D01*
X294268Y146699D01*
X294433Y146746D01*
X294599Y146790D01*
X294766Y146830D01*
X294934Y146865D01*
X295103Y146897D01*
X295273Y146924D01*
X295443Y146947D01*
X295614Y146966D01*
X295785Y146981D01*
X295957Y146992D01*
X296128Y146998D01*
X296300Y147000D01*
X296472Y146998D01*
X296643Y146992D01*
X296815Y146981D01*
X296986Y146966D01*
X297157Y146947D01*
X297327Y146924D01*
X297497Y146897D01*
X297666Y146865D01*
X297834Y146830D01*
X298001Y146790D01*
X298167Y146746D01*
X298332Y146699D01*
X298496Y146647D01*
X298658Y146591D01*
X298819Y146531D01*
X298979Y146467D01*
X299137Y146399D01*
X299293Y146328D01*
X299447Y146253D01*
X299600Y146173D01*
X299750Y146091D01*
X299899Y146004D01*
X300045Y145914D01*
X300189Y145820D01*
X300331Y145723D01*
X300470Y145622D01*
X300607Y145518D01*
X300741Y145411D01*
X300872Y145300D01*
X301001Y145187D01*
X301127Y145070D01*
X301250Y144950D01*
X301370Y144827D01*
X301487Y144701D01*
X301600Y144572D01*
X301711Y144441D01*
X301818Y144307D01*
X301922Y144170D01*
X302023Y144031D01*
X302120Y143889D01*
X302214Y143745D01*
X302304Y143599D01*
X302391Y143450D01*
X302473Y143300D01*
X302553Y143147D01*
X302628Y142993D01*
X302699Y142837D01*
X302767Y142679D01*
X302831Y142519D01*
X302891Y142358D01*
X302947Y142196D01*
X302999Y142032D01*
X303046Y141867D01*
X303090Y141701D01*
X303130Y141534D01*
X303165Y141366D01*
X303197Y141197D01*
X303224Y141027D01*
X303247Y140857D01*
X303266Y140686D01*
X303281Y140515D01*
X303292Y140343D01*
X303298Y140172D01*
X303300Y140000D01*
X303298Y139828D01*
X303292Y139657D01*
X303281Y139485D01*
X303266Y139314D01*
X303247Y139143D01*
X303224Y138973D01*
X303197Y138803D01*
X303165Y138634D01*
X303130Y138466D01*
X303090Y138299D01*
X303046Y138133D01*
X302999Y137968D01*
X302947Y137804D01*
X302891Y137642D01*
X302831Y137481D01*
X302767Y137321D01*
X302699Y137163D01*
X302628Y137007D01*
X302553Y136853D01*
X302473Y136700D01*
X302391Y136550D01*
X302304Y136401D01*
X302214Y136255D01*
X302120Y136111D01*
X302023Y135969D01*
X301922Y135830D01*
X301818Y135693D01*
X301711Y135559D01*
X301600Y135428D01*
X301487Y135299D01*
X301370Y135173D01*
X301250Y135050D01*
X301127Y134930D01*
X301001Y134813D01*
X300872Y134700D01*
X300741Y134589D01*
X300607Y134482D01*
X300470Y134378D01*
X300331Y134277D01*
X300189Y134180D01*
X300045Y134086D01*
X299899Y133996D01*
X299750Y133909D01*
X299600Y133827D01*
X299447Y133747D01*
X299293Y133672D01*
X299137Y133601D01*
X298979Y133533D01*
X298819Y133469D01*
X298658Y133409D01*
X298496Y133353D01*
X298332Y133301D01*
X298167Y133254D01*
X298001Y133210D01*
X297834Y133170D01*
X297666Y133135D01*
X297497Y133103D01*
X297327Y133076D01*
X297157Y133053D01*
X296986Y133034D01*
X296815Y133019D01*
X296643Y133008D01*
X296472Y133002D01*
X296300Y133000D01*
X296128Y133002D01*
X295957Y133008D01*
X295785Y133019D01*
X295614Y133034D01*
X295443Y133053D01*
X295273Y133076D01*
X295103Y133103D01*
X294934Y133135D01*
X294766Y133170D01*
X294599Y133210D01*
X294433Y133254D01*
X294268Y133301D01*
X294104Y133353D01*
X293942Y133409D01*
X293781Y133469D01*
X293621Y133533D01*
X293463Y133601D01*
X293307Y133672D01*
X293153Y133747D01*
X293000Y133827D01*
X292850Y133909D01*
X292701Y133996D01*
X292555Y134086D01*
X292411Y134180D01*
X292269Y134277D01*
X292130Y134378D01*
X291993Y134482D01*
X291859Y134589D01*
X291728Y134700D01*
X291599Y134813D01*
X291473Y134930D01*
X291350Y135050D01*
X291230Y135173D01*
X291113Y135299D01*
X291000Y135428D01*
X290889Y135559D01*
X290782Y135693D01*
X290678Y135830D01*
X290577Y135969D01*
X290480Y136111D01*
X290386Y136255D01*
X290296Y136401D01*
X290209Y136550D01*
X290127Y136700D01*
X290047Y136853D01*
X289972Y137007D01*
X289901Y137163D01*
X289833Y137321D01*
X289769Y137481D01*
X289709Y137642D01*
X289653Y137804D01*
X289601Y137968D01*
X289554Y138133D01*
X289510Y138299D01*
X289470Y138466D01*
X289435Y138634D01*
X289403Y138803D01*
X289376Y138973D01*
X289353Y139143D01*
X289334Y139314D01*
X289319Y139485D01*
X289308Y139657D01*
X289302Y139828D01*
X289300Y140000D01*
D30*
X309300Y132000D03*
D31*
X296300Y166200D03*
X284300Y166200D03*
D30*
X283300Y132000D03*
D31*
X308300Y166200D03*
X296300Y140000D03*
D13*
X293500Y190000D03*
X276500Y190000D03*
X241500Y190000D03*
X258500Y190000D03*
D32*
X263301Y207200D03*
X263301Y216700D03*
X263301Y226200D03*
X237299Y226200D03*
X237299Y207200D03*
D10*
X335000Y225500D03*
X335000Y208500D03*
X305150Y208200D03*
X305150Y225200D03*
X286100Y225200D03*
X286100Y208200D03*
D13*
X258500Y160000D03*
X241500Y160000D03*
D10*
X218550Y208200D03*
X218550Y225200D03*
D13*
X241500Y175000D03*
X258500Y175000D03*
X3360900Y464650D03*
X3343900Y464650D03*
X3360900Y521800D03*
X3343900Y521800D03*
X3343900Y483700D03*
X3360900Y483700D03*
X3360900Y426550D03*
X3343900Y426550D03*
X3360900Y502750D03*
X3343900Y502750D03*
X3343900Y445600D03*
X3360900Y445600D03*
D10*
X3377800Y511250D03*
X3377800Y494250D03*
X3377800Y454100D03*
X3377800Y437100D03*
D33*
X308820Y2009000D03*
X257280Y2009000D03*
X257280Y2041000D03*
X308820Y2041000D03*
X458820Y2009000D03*
X407280Y2009000D03*
X407280Y2041000D03*
X458820Y2041000D03*
D34*
X278986Y2025000D03*
X287114Y2025000D03*
X428986Y2025000D03*
X437114Y2025000D03*
D33*
X608820Y2009000D03*
X557280Y2009000D03*
X557280Y2041000D03*
X608820Y2041000D03*
X758820Y2009000D03*
X707280Y2009000D03*
X707280Y2041000D03*
X758820Y2041000D03*
D34*
X578986Y2025000D03*
X587114Y2025000D03*
X728986Y2025000D03*
X737114Y2025000D03*
D33*
X908820Y2009000D03*
X857280Y2009000D03*
X857280Y2041000D03*
X908820Y2041000D03*
X1058820Y2009000D03*
X1007280Y2009000D03*
X1007280Y2041000D03*
X1058820Y2041000D03*
D34*
X878986Y2025000D03*
X887114Y2025000D03*
X1028986Y2025000D03*
X1037114Y2025000D03*
D33*
X1208820Y2009000D03*
X1157280Y2009000D03*
X1157280Y2041000D03*
X1208820Y2041000D03*
X1358820Y2009000D03*
X1307280Y2009000D03*
X1307280Y2041000D03*
X1358820Y2041000D03*
D34*
X1178986Y2025000D03*
X1187114Y2025000D03*
X1328986Y2025000D03*
X1337114Y2025000D03*
D33*
X1508820Y2009000D03*
X1457280Y2009000D03*
X1457280Y2041000D03*
X1508820Y2041000D03*
D34*
X1478986Y2025000D03*
X1487114Y2025000D03*
D33*
X2108820Y2009000D03*
X2057280Y2009000D03*
X2057280Y2041000D03*
X2108820Y2041000D03*
D34*
X2078986Y2025000D03*
X2087114Y2025000D03*
D33*
X2258820Y2009000D03*
X2207280Y2009000D03*
X2207280Y2041000D03*
X2258820Y2041000D03*
X2408820Y2009000D03*
X2357280Y2009000D03*
X2357280Y2041000D03*
X2408820Y2041000D03*
D34*
X2228986Y2025000D03*
X2237114Y2025000D03*
X2378986Y2025000D03*
X2387114Y2025000D03*
D33*
X2558820Y2009000D03*
X2507280Y2009000D03*
X2507280Y2041000D03*
X2558820Y2041000D03*
X2708820Y2009000D03*
X2657280Y2009000D03*
X2657280Y2041000D03*
X2708820Y2041000D03*
D34*
X2528986Y2025000D03*
X2537114Y2025000D03*
X2678986Y2025000D03*
X2687114Y2025000D03*
D33*
X2858820Y2009000D03*
X2807280Y2009000D03*
X2807280Y2041000D03*
X2858820Y2041000D03*
X3008820Y2009000D03*
X2957280Y2009000D03*
X2957280Y2041000D03*
X3008820Y2041000D03*
D34*
X2828986Y2025000D03*
X2837114Y2025000D03*
X2978986Y2025000D03*
X2987114Y2025000D03*
D33*
X158820Y1859000D03*
X107280Y1859000D03*
X107280Y1891000D03*
X158820Y1891000D03*
D34*
X128986Y1875000D03*
X137114Y1875000D03*
D33*
X308820Y1859000D03*
X257280Y1859000D03*
X257280Y1891000D03*
X308820Y1891000D03*
D34*
X278986Y1875000D03*
X287114Y1875000D03*
D33*
X458820Y1859000D03*
X407280Y1859000D03*
X407280Y1891000D03*
X458820Y1891000D03*
X608820Y1859000D03*
X557280Y1859000D03*
X557280Y1891000D03*
X608820Y1891000D03*
D34*
X428986Y1875000D03*
X437114Y1875000D03*
X578986Y1875000D03*
X587114Y1875000D03*
D33*
X758820Y1859000D03*
X707280Y1859000D03*
X707280Y1891000D03*
X758820Y1891000D03*
X908820Y1859000D03*
X857280Y1859000D03*
X857280Y1891000D03*
X908820Y1891000D03*
D34*
X728986Y1875000D03*
X737114Y1875000D03*
X878986Y1875000D03*
X887114Y1875000D03*
D33*
X1058820Y1859000D03*
X1007280Y1859000D03*
X1007280Y1891000D03*
X1058820Y1891000D03*
X1208820Y1859000D03*
X1157280Y1859000D03*
X1157280Y1891000D03*
X1208820Y1891000D03*
D34*
X1028986Y1875000D03*
X1037114Y1875000D03*
X1178986Y1875000D03*
X1187114Y1875000D03*
D33*
X1358820Y1859000D03*
X1307280Y1859000D03*
X1307280Y1891000D03*
X1358820Y1891000D03*
X1508820Y1859000D03*
X1457280Y1859000D03*
X1457280Y1891000D03*
X1508820Y1891000D03*
D34*
X1328986Y1875000D03*
X1337114Y1875000D03*
X1478986Y1875000D03*
X1487114Y1875000D03*
D33*
X1658820Y1859000D03*
X1607280Y1859000D03*
X1607280Y1891000D03*
X1658820Y1891000D03*
X1808820Y1859000D03*
X1757280Y1859000D03*
X1757280Y1891000D03*
X1808820Y1891000D03*
D34*
X1628986Y1875000D03*
X1637114Y1875000D03*
X1778986Y1875000D03*
X1787114Y1875000D03*
D33*
X1958820Y1859000D03*
X1907280Y1859000D03*
X1907280Y1891000D03*
X1958820Y1891000D03*
D34*
X1928986Y1875000D03*
X1937114Y1875000D03*
D33*
X2108820Y1859000D03*
X2057280Y1859000D03*
X2057280Y1891000D03*
X2108820Y1891000D03*
X2258820Y1859000D03*
X2207280Y1859000D03*
X2207280Y1891000D03*
X2258820Y1891000D03*
D34*
X2078986Y1875000D03*
X2087114Y1875000D03*
X2228986Y1875000D03*
X2237114Y1875000D03*
D33*
X2408820Y1859000D03*
X2357280Y1859000D03*
X2357280Y1891000D03*
X2408820Y1891000D03*
X2558820Y1859000D03*
X2507280Y1859000D03*
X2507280Y1891000D03*
X2558820Y1891000D03*
D34*
X2378986Y1875000D03*
X2387114Y1875000D03*
X2528986Y1875000D03*
X2537114Y1875000D03*
D33*
X2708820Y1859000D03*
X2657280Y1859000D03*
X2657280Y1891000D03*
X2708820Y1891000D03*
X2858820Y1859000D03*
X2807280Y1859000D03*
X2807280Y1891000D03*
X2858820Y1891000D03*
D34*
X2678986Y1875000D03*
X2687114Y1875000D03*
X2828986Y1875000D03*
X2837114Y1875000D03*
D33*
X3008820Y1859000D03*
X2957280Y1859000D03*
X2957280Y1891000D03*
X3008820Y1891000D03*
X3158820Y1859000D03*
X3107280Y1859000D03*
X3107280Y1891000D03*
X3158820Y1891000D03*
D34*
X2978986Y1875000D03*
X2987114Y1875000D03*
X3128986Y1875000D03*
X3137114Y1875000D03*
D33*
X158820Y1709000D03*
X107280Y1709000D03*
X107280Y1741000D03*
X158820Y1741000D03*
X308820Y1709000D03*
X257280Y1709000D03*
X257280Y1741000D03*
X308820Y1741000D03*
D34*
X128986Y1725000D03*
X137114Y1725000D03*
X278986Y1725000D03*
X287114Y1725000D03*
D33*
X458820Y1709000D03*
X407280Y1709000D03*
X407280Y1741000D03*
X458820Y1741000D03*
D34*
X428986Y1725000D03*
X437114Y1725000D03*
D33*
X608820Y1709000D03*
X557280Y1709000D03*
X557280Y1741000D03*
X608820Y1741000D03*
X758820Y1709000D03*
X707280Y1709000D03*
X707280Y1741000D03*
X758820Y1741000D03*
D34*
X578986Y1725000D03*
X587114Y1725000D03*
X728986Y1725000D03*
X737114Y1725000D03*
D33*
X908820Y1709000D03*
X857280Y1709000D03*
X857280Y1741000D03*
X908820Y1741000D03*
X1058820Y1709000D03*
X1007280Y1709000D03*
X1007280Y1741000D03*
X1058820Y1741000D03*
D34*
X878986Y1725000D03*
X887114Y1725000D03*
X1028986Y1725000D03*
X1037114Y1725000D03*
D33*
X1208820Y1709000D03*
X1157280Y1709000D03*
X1157280Y1741000D03*
X1208820Y1741000D03*
X1358820Y1709000D03*
X1307280Y1709000D03*
X1307280Y1741000D03*
X1358820Y1741000D03*
D34*
X1178986Y1725000D03*
X1187114Y1725000D03*
X1328986Y1725000D03*
X1337114Y1725000D03*
D33*
X1508820Y1709000D03*
X1457280Y1709000D03*
X1457280Y1741000D03*
X1508820Y1741000D03*
X1658820Y1709000D03*
X1607280Y1709000D03*
X1607280Y1741000D03*
X1658820Y1741000D03*
D34*
X1478986Y1725000D03*
X1487114Y1725000D03*
X1628986Y1725000D03*
X1637114Y1725000D03*
D33*
X1808820Y1709000D03*
X1757280Y1709000D03*
X1757280Y1741000D03*
X1808820Y1741000D03*
X1958820Y1709000D03*
X1907280Y1709000D03*
X1907280Y1741000D03*
X1958820Y1741000D03*
D34*
X1778986Y1725000D03*
X1787114Y1725000D03*
X1928986Y1725000D03*
X1937114Y1725000D03*
D33*
X2108820Y1709000D03*
X2057280Y1709000D03*
X2057280Y1741000D03*
X2108820Y1741000D03*
D34*
X2078986Y1725000D03*
X2087114Y1725000D03*
D33*
X2258820Y1709000D03*
X2207280Y1709000D03*
X2207280Y1741000D03*
X2258820Y1741000D03*
X2408820Y1709000D03*
X2357280Y1709000D03*
X2357280Y1741000D03*
X2408820Y1741000D03*
D34*
X2228986Y1725000D03*
X2237114Y1725000D03*
X2378986Y1725000D03*
X2387114Y1725000D03*
D33*
X2558820Y1709000D03*
X2507280Y1709000D03*
X2507280Y1741000D03*
X2558820Y1741000D03*
X2708820Y1709000D03*
X2657280Y1709000D03*
X2657280Y1741000D03*
X2708820Y1741000D03*
D34*
X2528986Y1725000D03*
X2537114Y1725000D03*
X2678986Y1725000D03*
X2687114Y1725000D03*
D33*
X2858820Y1709000D03*
X2807280Y1709000D03*
X2807280Y1741000D03*
X2858820Y1741000D03*
X3008820Y1709000D03*
X2957280Y1709000D03*
X2957280Y1741000D03*
X3008820Y1741000D03*
D34*
X2828986Y1725000D03*
X2837114Y1725000D03*
X2978986Y1725000D03*
X2987114Y1725000D03*
D33*
X3158820Y1709000D03*
X3107280Y1709000D03*
X3107280Y1741000D03*
X3158820Y1741000D03*
X158820Y1559000D03*
X107280Y1559000D03*
X107280Y1591000D03*
X158820Y1591000D03*
D34*
X3128986Y1725000D03*
X3137114Y1725000D03*
X128986Y1575000D03*
X137114Y1575000D03*
D33*
X308820Y1559000D03*
X257280Y1559000D03*
X257280Y1591000D03*
X308820Y1591000D03*
X458820Y1559000D03*
X407280Y1559000D03*
X407280Y1591000D03*
X458820Y1591000D03*
D34*
X278986Y1575000D03*
X287114Y1575000D03*
X428986Y1575000D03*
X437114Y1575000D03*
D33*
X608820Y1559000D03*
X557280Y1559000D03*
X557280Y1591000D03*
X608820Y1591000D03*
D34*
X578986Y1575000D03*
X587114Y1575000D03*
D33*
X758820Y1559000D03*
X707280Y1559000D03*
X707280Y1591000D03*
X758820Y1591000D03*
X908820Y1559000D03*
X857280Y1559000D03*
X857280Y1591000D03*
X908820Y1591000D03*
D34*
X728986Y1575000D03*
X737114Y1575000D03*
X878986Y1575000D03*
X887114Y1575000D03*
D33*
X1058820Y1559000D03*
X1007280Y1559000D03*
X1007280Y1591000D03*
X1058820Y1591000D03*
X1208820Y1559000D03*
X1157280Y1559000D03*
X1157280Y1591000D03*
X1208820Y1591000D03*
D34*
X1028986Y1575000D03*
X1037114Y1575000D03*
X1178986Y1575000D03*
X1187114Y1575000D03*
D33*
X1358820Y1559000D03*
X1307280Y1559000D03*
X1307280Y1591000D03*
X1358820Y1591000D03*
X1508820Y1559000D03*
X1457280Y1559000D03*
X1457280Y1591000D03*
X1508820Y1591000D03*
D34*
X1328986Y1575000D03*
X1337114Y1575000D03*
X1478986Y1575000D03*
X1487114Y1575000D03*
D33*
X1658820Y1559000D03*
X1607280Y1559000D03*
X1607280Y1591000D03*
X1658820Y1591000D03*
X1808820Y1559000D03*
X1757280Y1559000D03*
X1757280Y1591000D03*
X1808820Y1591000D03*
D34*
X1628986Y1575000D03*
X1637114Y1575000D03*
X1778986Y1575000D03*
X1787114Y1575000D03*
D33*
X1958820Y1559000D03*
X1907280Y1559000D03*
X1907280Y1591000D03*
X1958820Y1591000D03*
X2108820Y1559000D03*
X2057280Y1559000D03*
X2057280Y1591000D03*
X2108820Y1591000D03*
D34*
X1928986Y1575000D03*
X1937114Y1575000D03*
X2078986Y1575000D03*
X2087114Y1575000D03*
D33*
X2258820Y1559000D03*
X2207280Y1559000D03*
X2207280Y1591000D03*
X2258820Y1591000D03*
D34*
X2228986Y1575000D03*
X2237114Y1575000D03*
D33*
X2408820Y1559000D03*
X2357280Y1559000D03*
X2357280Y1591000D03*
X2408820Y1591000D03*
X2558820Y1559000D03*
X2507280Y1559000D03*
X2507280Y1591000D03*
X2558820Y1591000D03*
D34*
X2378986Y1575000D03*
X2387114Y1575000D03*
X2528986Y1575000D03*
X2537114Y1575000D03*
D33*
X2708820Y1559000D03*
X2657280Y1559000D03*
X2657280Y1591000D03*
X2708820Y1591000D03*
X2858820Y1559000D03*
X2807280Y1559000D03*
X2807280Y1591000D03*
X2858820Y1591000D03*
D34*
X2678986Y1575000D03*
X2687114Y1575000D03*
X2828986Y1575000D03*
X2837114Y1575000D03*
D33*
X3008820Y1559000D03*
X2957280Y1559000D03*
X2957280Y1591000D03*
X3008820Y1591000D03*
D34*
X2978986Y1575000D03*
X2987114Y1575000D03*
D33*
X158820Y1409000D03*
X107280Y1409000D03*
X107280Y1441000D03*
X158820Y1441000D03*
X308820Y1409000D03*
X257280Y1409000D03*
X257280Y1441000D03*
X308820Y1441000D03*
D34*
X128986Y1425000D03*
X137114Y1425000D03*
X278986Y1425000D03*
X287114Y1425000D03*
D33*
X458820Y1409000D03*
X407280Y1409000D03*
X407280Y1441000D03*
X458820Y1441000D03*
X608820Y1409000D03*
X557280Y1409000D03*
X557280Y1441000D03*
X608820Y1441000D03*
D34*
X428986Y1425000D03*
X437114Y1425000D03*
X578986Y1425000D03*
X587114Y1425000D03*
D33*
X758820Y1409000D03*
X707280Y1409000D03*
X707280Y1441000D03*
X758820Y1441000D03*
D34*
X728986Y1425000D03*
X737114Y1425000D03*
D33*
X908820Y1409000D03*
X857280Y1409000D03*
X857280Y1441000D03*
X908820Y1441000D03*
X1058820Y1409000D03*
X1007280Y1409000D03*
X1007280Y1441000D03*
X1058820Y1441000D03*
D34*
X878986Y1425000D03*
X887114Y1425000D03*
X1028986Y1425000D03*
X1037114Y1425000D03*
D33*
X1208820Y1409000D03*
X1157280Y1409000D03*
X1157280Y1441000D03*
X1208820Y1441000D03*
X1358820Y1409000D03*
X1307280Y1409000D03*
X1307280Y1441000D03*
X1358820Y1441000D03*
D34*
X1178986Y1425000D03*
X1187114Y1425000D03*
X1328986Y1425000D03*
X1337114Y1425000D03*
D33*
X1508820Y1409000D03*
X1457280Y1409000D03*
X1457280Y1441000D03*
X1508820Y1441000D03*
X1658820Y1409000D03*
X1607280Y1409000D03*
X1607280Y1441000D03*
X1658820Y1441000D03*
D34*
X1478986Y1425000D03*
X1487114Y1425000D03*
X1628986Y1425000D03*
X1637114Y1425000D03*
D33*
X1808820Y1409000D03*
X1757280Y1409000D03*
X1757280Y1441000D03*
X1808820Y1441000D03*
X1958820Y1409000D03*
X1907280Y1409000D03*
X1907280Y1441000D03*
X1958820Y1441000D03*
D34*
X1778986Y1425000D03*
X1787114Y1425000D03*
X1928986Y1425000D03*
X1937114Y1425000D03*
D33*
X2108820Y1409000D03*
X2057280Y1409000D03*
X2057280Y1441000D03*
X2108820Y1441000D03*
X2258820Y1409000D03*
X2207280Y1409000D03*
X2207280Y1441000D03*
X2258820Y1441000D03*
D34*
X2078986Y1425000D03*
X2087114Y1425000D03*
X2228986Y1425000D03*
X2237114Y1425000D03*
D33*
X2408820Y1409000D03*
X2357280Y1409000D03*
X2357280Y1441000D03*
X2408820Y1441000D03*
D34*
X2378986Y1425000D03*
X2387114Y1425000D03*
D33*
X2558820Y1409000D03*
X2507280Y1409000D03*
X2507280Y1441000D03*
X2558820Y1441000D03*
X2708820Y1409000D03*
X2657280Y1409000D03*
X2657280Y1441000D03*
X2708820Y1441000D03*
D34*
X2528986Y1425000D03*
X2537114Y1425000D03*
X2678986Y1425000D03*
X2687114Y1425000D03*
D33*
X2858820Y1409000D03*
X2807280Y1409000D03*
X2807280Y1441000D03*
X2858820Y1441000D03*
X3008820Y1409000D03*
X2957280Y1409000D03*
X2957280Y1441000D03*
X3008820Y1441000D03*
D34*
X2828986Y1425000D03*
X2837114Y1425000D03*
X2978986Y1425000D03*
X2987114Y1425000D03*
D33*
X3158820Y1409000D03*
X3107280Y1409000D03*
X3107280Y1441000D03*
X3158820Y1441000D03*
X158820Y1259000D03*
X107280Y1259000D03*
X107280Y1291000D03*
X158820Y1291000D03*
D34*
X3128986Y1425000D03*
X3137114Y1425000D03*
X128986Y1275000D03*
X137114Y1275000D03*
D33*
X308820Y1259000D03*
X257280Y1259000D03*
X257280Y1291000D03*
X308820Y1291000D03*
X458820Y1259000D03*
X407280Y1259000D03*
X407280Y1291000D03*
X458820Y1291000D03*
D34*
X278986Y1275000D03*
X287114Y1275000D03*
X428986Y1275000D03*
X437114Y1275000D03*
D33*
X608820Y1259000D03*
X557280Y1259000D03*
X557280Y1291000D03*
X608820Y1291000D03*
X758820Y1259000D03*
X707280Y1259000D03*
X707280Y1291000D03*
X758820Y1291000D03*
D34*
X578986Y1275000D03*
X587114Y1275000D03*
X728986Y1275000D03*
X737114Y1275000D03*
D33*
X908820Y1259000D03*
X857280Y1259000D03*
X857280Y1291000D03*
X908820Y1291000D03*
D34*
X878986Y1275000D03*
X887114Y1275000D03*
D33*
X1058820Y1259000D03*
X1007280Y1259000D03*
X1007280Y1291000D03*
X1058820Y1291000D03*
X1208820Y1259000D03*
X1157280Y1259000D03*
X1157280Y1291000D03*
X1208820Y1291000D03*
D34*
X1028986Y1275000D03*
X1037114Y1275000D03*
X1178986Y1275000D03*
X1187114Y1275000D03*
D33*
X1358820Y1259000D03*
X1307280Y1259000D03*
X1307280Y1291000D03*
X1358820Y1291000D03*
X1508820Y1259000D03*
X1457280Y1259000D03*
X1457280Y1291000D03*
X1508820Y1291000D03*
D34*
X1328986Y1275000D03*
X1337114Y1275000D03*
X1478986Y1275000D03*
X1487114Y1275000D03*
D33*
X1658820Y1259000D03*
X1607280Y1259000D03*
X1607280Y1291000D03*
X1658820Y1291000D03*
X1808820Y1259000D03*
X1757280Y1259000D03*
X1757280Y1291000D03*
X1808820Y1291000D03*
D34*
X1628986Y1275000D03*
X1637114Y1275000D03*
X1778986Y1275000D03*
X1787114Y1275000D03*
D33*
X1958820Y1259000D03*
X1907280Y1259000D03*
X1907280Y1291000D03*
X1958820Y1291000D03*
X2108820Y1259000D03*
X2057280Y1259000D03*
X2057280Y1291000D03*
X2108820Y1291000D03*
D34*
X1928986Y1275000D03*
X1937114Y1275000D03*
X2078986Y1275000D03*
X2087114Y1275000D03*
D33*
X2258820Y1259000D03*
X2207280Y1259000D03*
X2207280Y1291000D03*
X2258820Y1291000D03*
X2408820Y1259000D03*
X2357280Y1259000D03*
X2357280Y1291000D03*
X2408820Y1291000D03*
D34*
X2228986Y1275000D03*
X2237114Y1275000D03*
X2378986Y1275000D03*
X2387114Y1275000D03*
D33*
X2558820Y1259000D03*
X2507280Y1259000D03*
X2507280Y1291000D03*
X2558820Y1291000D03*
D34*
X2528986Y1275000D03*
X2537114Y1275000D03*
D33*
X2708820Y1259000D03*
X2657280Y1259000D03*
X2657280Y1291000D03*
X2708820Y1291000D03*
X2858820Y1259000D03*
X2807280Y1259000D03*
X2807280Y1291000D03*
X2858820Y1291000D03*
D34*
X2678986Y1275000D03*
X2687114Y1275000D03*
X2828986Y1275000D03*
X2837114Y1275000D03*
D33*
X3008820Y1259000D03*
X2957280Y1259000D03*
X2957280Y1291000D03*
X3008820Y1291000D03*
X3158820Y1259000D03*
X3107280Y1259000D03*
X3107280Y1291000D03*
X3158820Y1291000D03*
D34*
X2978986Y1275000D03*
X2987114Y1275000D03*
X3128986Y1275000D03*
X3137114Y1275000D03*
D33*
X158820Y1109000D03*
X107280Y1109000D03*
X107280Y1141000D03*
X158820Y1141000D03*
X308820Y1109000D03*
X257280Y1109000D03*
X257280Y1141000D03*
X308820Y1141000D03*
D34*
X128986Y1125000D03*
X137114Y1125000D03*
X278986Y1125000D03*
X287114Y1125000D03*
D33*
X458820Y1109000D03*
X407280Y1109000D03*
X407280Y1141000D03*
X458820Y1141000D03*
X608820Y1109000D03*
X557280Y1109000D03*
X557280Y1141000D03*
X608820Y1141000D03*
D34*
X428986Y1125000D03*
X437114Y1125000D03*
X578986Y1125000D03*
X587114Y1125000D03*
D33*
X758820Y1109000D03*
X707280Y1109000D03*
X707280Y1141000D03*
X758820Y1141000D03*
X908820Y1109000D03*
X857280Y1109000D03*
X857280Y1141000D03*
X908820Y1141000D03*
D34*
X728986Y1125000D03*
X737114Y1125000D03*
X878986Y1125000D03*
X887114Y1125000D03*
D33*
X1058820Y1109000D03*
X1007280Y1109000D03*
X1007280Y1141000D03*
X1058820Y1141000D03*
D34*
X1028986Y1125000D03*
X1037114Y1125000D03*
D33*
X1208820Y1109000D03*
X1157280Y1109000D03*
X1157280Y1141000D03*
X1208820Y1141000D03*
X1358820Y1109000D03*
X1307280Y1109000D03*
X1307280Y1141000D03*
X1358820Y1141000D03*
D34*
X1178986Y1125000D03*
X1187114Y1125000D03*
X1328986Y1125000D03*
X1337114Y1125000D03*
D33*
X1508820Y1109000D03*
X1457280Y1109000D03*
X1457280Y1141000D03*
X1508820Y1141000D03*
X1658820Y1109000D03*
X1607280Y1109000D03*
X1607280Y1141000D03*
X1658820Y1141000D03*
D34*
X1478986Y1125000D03*
X1487114Y1125000D03*
X1628986Y1125000D03*
X1637114Y1125000D03*
D33*
X1808820Y1109000D03*
X1757280Y1109000D03*
X1757280Y1141000D03*
X1808820Y1141000D03*
X1958820Y1109000D03*
X1907280Y1109000D03*
X1907280Y1141000D03*
X1958820Y1141000D03*
D34*
X1778986Y1125000D03*
X1787114Y1125000D03*
X1928986Y1125000D03*
X1937114Y1125000D03*
D33*
X2108820Y1109000D03*
X2057280Y1109000D03*
X2057280Y1141000D03*
X2108820Y1141000D03*
X2258820Y1109000D03*
X2207280Y1109000D03*
X2207280Y1141000D03*
X2258820Y1141000D03*
D34*
X2078986Y1125000D03*
X2087114Y1125000D03*
X2228986Y1125000D03*
X2237114Y1125000D03*
D33*
X2408820Y1109000D03*
X2357280Y1109000D03*
X2357280Y1141000D03*
X2408820Y1141000D03*
X2558820Y1109000D03*
X2507280Y1109000D03*
X2507280Y1141000D03*
X2558820Y1141000D03*
D34*
X2378986Y1125000D03*
X2387114Y1125000D03*
X2528986Y1125000D03*
X2537114Y1125000D03*
D33*
X2708820Y1109000D03*
X2657280Y1109000D03*
X2657280Y1141000D03*
X2708820Y1141000D03*
D34*
X2678986Y1125000D03*
X2687114Y1125000D03*
D33*
X2858820Y1109000D03*
X2807280Y1109000D03*
X2807280Y1141000D03*
X2858820Y1141000D03*
X3008820Y1109000D03*
X2957280Y1109000D03*
X2957280Y1141000D03*
X3008820Y1141000D03*
D34*
X2828986Y1125000D03*
X2837114Y1125000D03*
X2978986Y1125000D03*
X2987114Y1125000D03*
D33*
X3158820Y1109000D03*
X3107280Y1109000D03*
X3107280Y1141000D03*
X3158820Y1141000D03*
X158820Y959000D03*
X107280Y959000D03*
X107280Y991000D03*
X158820Y991000D03*
D34*
X3128986Y1125000D03*
X3137114Y1125000D03*
X128986Y975000D03*
X137114Y975000D03*
D33*
X308820Y959000D03*
X257280Y959000D03*
X257280Y991000D03*
X308820Y991000D03*
X458820Y959000D03*
X407280Y959000D03*
X407280Y991000D03*
X458820Y991000D03*
D34*
X278986Y975000D03*
X287114Y975000D03*
X428986Y975000D03*
X437114Y975000D03*
D33*
X608820Y959000D03*
X557280Y959000D03*
X557280Y991000D03*
X608820Y991000D03*
X758820Y959000D03*
X707280Y959000D03*
X707280Y991000D03*
X758820Y991000D03*
D34*
X578986Y975000D03*
X587114Y975000D03*
X728986Y975000D03*
X737114Y975000D03*
D33*
X908820Y959000D03*
X857280Y959000D03*
X857280Y991000D03*
X908820Y991000D03*
X1058820Y959000D03*
X1007280Y959000D03*
X1007280Y991000D03*
X1058820Y991000D03*
D34*
X878986Y975000D03*
X887114Y975000D03*
X1028986Y975000D03*
X1037114Y975000D03*
D33*
X1208820Y959000D03*
X1157280Y959000D03*
X1157280Y991000D03*
X1208820Y991000D03*
D34*
X1178986Y975000D03*
X1187114Y975000D03*
D33*
X1358820Y959000D03*
X1307280Y959000D03*
X1307280Y991000D03*
X1358820Y991000D03*
X1508820Y959000D03*
X1457280Y959000D03*
X1457280Y991000D03*
X1508820Y991000D03*
D34*
X1328986Y975000D03*
X1337114Y975000D03*
X1478986Y975000D03*
X1487114Y975000D03*
D33*
X1658820Y959000D03*
X1607280Y959000D03*
X1607280Y991000D03*
X1658820Y991000D03*
X1808820Y959000D03*
X1757280Y959000D03*
X1757280Y991000D03*
X1808820Y991000D03*
D34*
X1628986Y975000D03*
X1637114Y975000D03*
X1778986Y975000D03*
X1787114Y975000D03*
D33*
X1958820Y959000D03*
X1907280Y959000D03*
X1907280Y991000D03*
X1958820Y991000D03*
X2408820Y959000D03*
X2357280Y959000D03*
X2357280Y991000D03*
X2408820Y991000D03*
D34*
X1928986Y975000D03*
X1937114Y975000D03*
X2378986Y975000D03*
X2387114Y975000D03*
D33*
X2558820Y959000D03*
X2507280Y959000D03*
X2507280Y991000D03*
X2558820Y991000D03*
X2708820Y959000D03*
X2657280Y959000D03*
X2657280Y991000D03*
X2708820Y991000D03*
D34*
X2528986Y975000D03*
X2537114Y975000D03*
X2678986Y975000D03*
X2687114Y975000D03*
D33*
X2858820Y959000D03*
X2807280Y959000D03*
X2807280Y991000D03*
X2858820Y991000D03*
X3008820Y959000D03*
X2957280Y959000D03*
X2957280Y991000D03*
X3008820Y991000D03*
D34*
X2828986Y975000D03*
X2837114Y975000D03*
X2978986Y975000D03*
X2987114Y975000D03*
D33*
X3158820Y959000D03*
X3107280Y959000D03*
X3107280Y991000D03*
X3158820Y991000D03*
D34*
X3128986Y975000D03*
X3137114Y975000D03*
D33*
X3308820Y959000D03*
X3257280Y959000D03*
X3257280Y991000D03*
X3308820Y991000D03*
D34*
X3278986Y975000D03*
X3287114Y975000D03*
D33*
X158820Y809000D03*
X107280Y809000D03*
X107280Y841000D03*
X158820Y841000D03*
X308820Y809000D03*
X257280Y809000D03*
X257280Y841000D03*
X308820Y841000D03*
D34*
X128986Y825000D03*
X137114Y825000D03*
X278986Y825000D03*
X287114Y825000D03*
D33*
X458820Y809000D03*
X407280Y809000D03*
X407280Y841000D03*
X458820Y841000D03*
X608820Y809000D03*
X557280Y809000D03*
X557280Y841000D03*
X608820Y841000D03*
D34*
X428986Y825000D03*
X437114Y825000D03*
X578986Y825000D03*
X587114Y825000D03*
D33*
X758820Y809000D03*
X707280Y809000D03*
X707280Y841000D03*
X758820Y841000D03*
X908820Y809000D03*
X857280Y809000D03*
X857280Y841000D03*
X908820Y841000D03*
D34*
X728986Y825000D03*
X737114Y825000D03*
X878986Y825000D03*
X887114Y825000D03*
D33*
X1058820Y809000D03*
X1007280Y809000D03*
X1007280Y841000D03*
X1058820Y841000D03*
X1208820Y809000D03*
X1157280Y809000D03*
X1157280Y841000D03*
X1208820Y841000D03*
D34*
X1028986Y825000D03*
X1037114Y825000D03*
X1178986Y825000D03*
X1187114Y825000D03*
D33*
X1358820Y809000D03*
X1307280Y809000D03*
X1307280Y841000D03*
X1358820Y841000D03*
D34*
X1328986Y825000D03*
X1337114Y825000D03*
D33*
X1508820Y809000D03*
X1457280Y809000D03*
X1457280Y841000D03*
X1508820Y841000D03*
X1658820Y809000D03*
X1607280Y809000D03*
X1607280Y841000D03*
X1658820Y841000D03*
D34*
X1478986Y825000D03*
X1487114Y825000D03*
X1628986Y825000D03*
X1637114Y825000D03*
D33*
X1808820Y809000D03*
X1757280Y809000D03*
X1757280Y841000D03*
X1808820Y841000D03*
X1958820Y809000D03*
X1907280Y809000D03*
X1907280Y841000D03*
X1958820Y841000D03*
D34*
X1778986Y825000D03*
X1787114Y825000D03*
X1928986Y825000D03*
X1937114Y825000D03*
D33*
X2108820Y809000D03*
X2057280Y809000D03*
X2057280Y841000D03*
X2108820Y841000D03*
X2258820Y809000D03*
X2207280Y809000D03*
X2207280Y841000D03*
X2258820Y841000D03*
D34*
X2078986Y825000D03*
X2087114Y825000D03*
X2228986Y825000D03*
X2237114Y825000D03*
D33*
X2408820Y809000D03*
X2357280Y809000D03*
X2357280Y841000D03*
X2408820Y841000D03*
X2558820Y809000D03*
X2507280Y809000D03*
X2507280Y841000D03*
X2558820Y841000D03*
D34*
X2378986Y825000D03*
X2387114Y825000D03*
X2528986Y825000D03*
X2537114Y825000D03*
D33*
X2708820Y809000D03*
X2657280Y809000D03*
X2657280Y841000D03*
X2708820Y841000D03*
X3158820Y809000D03*
X3107280Y809000D03*
X3107280Y841000D03*
X3158820Y841000D03*
D34*
X2678986Y825000D03*
X2687114Y825000D03*
X3128986Y825000D03*
X3137114Y825000D03*
D33*
X3308820Y809000D03*
X3257280Y809000D03*
X3257280Y841000D03*
X3308820Y841000D03*
D34*
X3278986Y825000D03*
X3287114Y825000D03*
D33*
X158820Y659000D03*
X107280Y659000D03*
X107280Y691000D03*
X158820Y691000D03*
D34*
X128986Y675000D03*
X137114Y675000D03*
D33*
X308820Y659000D03*
X257280Y659000D03*
X257280Y691000D03*
X308820Y691000D03*
X458820Y659000D03*
X407280Y659000D03*
X407280Y691000D03*
X458820Y691000D03*
D34*
X278986Y675000D03*
X287114Y675000D03*
X428986Y675000D03*
X437114Y675000D03*
D33*
X608820Y659000D03*
X557280Y659000D03*
X557280Y691000D03*
X608820Y691000D03*
X758820Y659000D03*
X707280Y659000D03*
X707280Y691000D03*
X758820Y691000D03*
D34*
X578986Y675000D03*
X587114Y675000D03*
X728986Y675000D03*
X737114Y675000D03*
D33*
X908820Y659000D03*
X857280Y659000D03*
X857280Y691000D03*
X908820Y691000D03*
X1058820Y659000D03*
X1007280Y659000D03*
X1007280Y691000D03*
X1058820Y691000D03*
D34*
X878986Y675000D03*
X887114Y675000D03*
X1028986Y675000D03*
X1037114Y675000D03*
D33*
X1208820Y659000D03*
X1157280Y659000D03*
X1157280Y691000D03*
X1208820Y691000D03*
X1358820Y659000D03*
X1307280Y659000D03*
X1307280Y691000D03*
X1358820Y691000D03*
D34*
X1178986Y675000D03*
X1187114Y675000D03*
X1328986Y675000D03*
X1337114Y675000D03*
D33*
X1508820Y659000D03*
X1457280Y659000D03*
X1457280Y691000D03*
X1508820Y691000D03*
D34*
X1478986Y675000D03*
X1487114Y675000D03*
D33*
X1658820Y659000D03*
X1607280Y659000D03*
X1607280Y691000D03*
X1658820Y691000D03*
X1808820Y659000D03*
X1757280Y659000D03*
X1757280Y691000D03*
X1808820Y691000D03*
D34*
X1628986Y675000D03*
X1637114Y675000D03*
X1778986Y675000D03*
X1787114Y675000D03*
D33*
X1958820Y659000D03*
X1907280Y659000D03*
X1907280Y691000D03*
X1958820Y691000D03*
X2108820Y659000D03*
X2057280Y659000D03*
X2057280Y691000D03*
X2108820Y691000D03*
D34*
X1928986Y675000D03*
X1937114Y675000D03*
X2078986Y675000D03*
X2087114Y675000D03*
D33*
X2258820Y659000D03*
X2207280Y659000D03*
X2207280Y691000D03*
X2258820Y691000D03*
X2408820Y659000D03*
X2357280Y659000D03*
X2357280Y691000D03*
X2408820Y691000D03*
D34*
X2228986Y675000D03*
X2237114Y675000D03*
X2378986Y675000D03*
X2387114Y675000D03*
D33*
X2558820Y659000D03*
X2507280Y659000D03*
X2507280Y691000D03*
X2558820Y691000D03*
X3008820Y659000D03*
X2957280Y659000D03*
X2957280Y691000D03*
X3008820Y691000D03*
D34*
X2528986Y675000D03*
X2537114Y675000D03*
X2978986Y675000D03*
X2987114Y675000D03*
D33*
X3158820Y659000D03*
X3107280Y659000D03*
X3107280Y691000D03*
X3158820Y691000D03*
X3308820Y659000D03*
X3257280Y659000D03*
X3257280Y691000D03*
X3308820Y691000D03*
D34*
X3128986Y675000D03*
X3137114Y675000D03*
X3278986Y675000D03*
X3287114Y675000D03*
D33*
X308820Y359000D03*
X257280Y359000D03*
X257280Y391000D03*
X308820Y391000D03*
D34*
X278986Y375000D03*
X287114Y375000D03*
D33*
X458820Y359000D03*
X407280Y359000D03*
X407280Y391000D03*
X458820Y391000D03*
X608820Y359000D03*
X557280Y359000D03*
X557280Y391000D03*
X608820Y391000D03*
D34*
X428986Y375000D03*
X437114Y375000D03*
X578986Y375000D03*
X587114Y375000D03*
D33*
X758820Y359000D03*
X707280Y359000D03*
X707280Y391000D03*
X758820Y391000D03*
X908820Y359000D03*
X857280Y359000D03*
X857280Y391000D03*
X908820Y391000D03*
D34*
X728986Y375000D03*
X737114Y375000D03*
X878986Y375000D03*
X887114Y375000D03*
D33*
X1058820Y359000D03*
X1007280Y359000D03*
X1007280Y391000D03*
X1058820Y391000D03*
X1208820Y359000D03*
X1157280Y359000D03*
X1157280Y391000D03*
X1208820Y391000D03*
D34*
X1028986Y375000D03*
X1037114Y375000D03*
X1178986Y375000D03*
X1187114Y375000D03*
D33*
X1358820Y359000D03*
X1307280Y359000D03*
X1307280Y391000D03*
X1358820Y391000D03*
X1508820Y359000D03*
X1457280Y359000D03*
X1457280Y391000D03*
X1508820Y391000D03*
D34*
X1328986Y375000D03*
X1337114Y375000D03*
X1478986Y375000D03*
X1487114Y375000D03*
D33*
X1658820Y359000D03*
X1607280Y359000D03*
X1607280Y391000D03*
X1658820Y391000D03*
D34*
X1628986Y375000D03*
X1637114Y375000D03*
D33*
X1808820Y359000D03*
X1757280Y359000D03*
X1757280Y391000D03*
X1808820Y391000D03*
X1958820Y359000D03*
X1907280Y359000D03*
X1907280Y391000D03*
X1958820Y391000D03*
D34*
X1778986Y375000D03*
X1787114Y375000D03*
X1928986Y375000D03*
X1937114Y375000D03*
D33*
X2108820Y359000D03*
X2057280Y359000D03*
X2057280Y391000D03*
X2108820Y391000D03*
X2258820Y359000D03*
X2207280Y359000D03*
X2207280Y391000D03*
X2258820Y391000D03*
D34*
X2078986Y375000D03*
X2087114Y375000D03*
X2228986Y375000D03*
X2237114Y375000D03*
D33*
X2408820Y359000D03*
X2357280Y359000D03*
X2357280Y391000D03*
X2408820Y391000D03*
X2558820Y359000D03*
X2507280Y359000D03*
X2507280Y391000D03*
X2558820Y391000D03*
D34*
X2378986Y375000D03*
X2387114Y375000D03*
X2528986Y375000D03*
X2537114Y375000D03*
D33*
X2708820Y359000D03*
X2657280Y359000D03*
X2657280Y391000D03*
X2708820Y391000D03*
X2858820Y359000D03*
X2807280Y359000D03*
X2807280Y391000D03*
X2858820Y391000D03*
D34*
X2678986Y375000D03*
X2687114Y375000D03*
X2828986Y375000D03*
X2837114Y375000D03*
D33*
X3308820Y359000D03*
X3257280Y359000D03*
X3257280Y391000D03*
X3308820Y391000D03*
D34*
X3278986Y375000D03*
X3287114Y375000D03*
D33*
X908820Y209000D03*
X857280Y209000D03*
X857280Y241000D03*
X908820Y241000D03*
D34*
X878986Y225000D03*
X887114Y225000D03*
D33*
X1058820Y209000D03*
X1007280Y209000D03*
X1007280Y241000D03*
X1058820Y241000D03*
X1208820Y209000D03*
X1157280Y209000D03*
X1157280Y241000D03*
X1208820Y241000D03*
D34*
X1028986Y225000D03*
X1037114Y225000D03*
X1178986Y225000D03*
X1187114Y225000D03*
D33*
X1358820Y209000D03*
X1307280Y209000D03*
X1307280Y241000D03*
X1358820Y241000D03*
X1508820Y209000D03*
X1457280Y209000D03*
X1457280Y241000D03*
X1508820Y241000D03*
D34*
X1328986Y225000D03*
X1337114Y225000D03*
X1478986Y225000D03*
X1487114Y225000D03*
D33*
X1658820Y209000D03*
X1607280Y209000D03*
X1607280Y241000D03*
X1658820Y241000D03*
X1808820Y209000D03*
X1757280Y209000D03*
X1757280Y241000D03*
X1808820Y241000D03*
D34*
X1628986Y225000D03*
X1637114Y225000D03*
X1778986Y225000D03*
X1787114Y225000D03*
D33*
X1958820Y209000D03*
X1907280Y209000D03*
X1907280Y241000D03*
X1958820Y241000D03*
X2108820Y209000D03*
X2057280Y209000D03*
X2057280Y241000D03*
X2108820Y241000D03*
D34*
X1928986Y225000D03*
X1937114Y225000D03*
X2078986Y225000D03*
X2087114Y225000D03*
D33*
X2258820Y209000D03*
X2207280Y209000D03*
X2207280Y241000D03*
X2258820Y241000D03*
X2408820Y209000D03*
X2357280Y209000D03*
X2357280Y241000D03*
X2408820Y241000D03*
D34*
X2228986Y225000D03*
X2237114Y225000D03*
X2378986Y225000D03*
X2387114Y225000D03*
D33*
X2558820Y209000D03*
X2507280Y209000D03*
X2507280Y241000D03*
X2558820Y241000D03*
D34*
X2528986Y225000D03*
X2537114Y225000D03*
D33*
X2708820Y209000D03*
X2657280Y209000D03*
X2657280Y241000D03*
X2708820Y241000D03*
X3158820Y209000D03*
X3107280Y209000D03*
X3107280Y241000D03*
X3158820Y241000D03*
D34*
X2678986Y225000D03*
X2687114Y225000D03*
X3128986Y225000D03*
X3137114Y225000D03*
D33*
X3308820Y209000D03*
X3257280Y209000D03*
X3257280Y241000D03*
X3308820Y241000D03*
D34*
X3278986Y225000D03*
X3287114Y225000D03*
D33*
X758820Y59000D03*
X707280Y59000D03*
X707280Y91000D03*
X758820Y91000D03*
X908820Y59000D03*
X857280Y59000D03*
X857280Y91000D03*
X908820Y91000D03*
D34*
X728986Y75000D03*
X737114Y75000D03*
X878986Y75000D03*
X887114Y75000D03*
D33*
X1058820Y59000D03*
X1007280Y59000D03*
X1007280Y91000D03*
X1058820Y91000D03*
X1208820Y59000D03*
X1157280Y59000D03*
X1157280Y91000D03*
X1208820Y91000D03*
D34*
X1028986Y75000D03*
X1037114Y75000D03*
X1178986Y75000D03*
X1187114Y75000D03*
D33*
X1358820Y59000D03*
X1307280Y59000D03*
X1307280Y91000D03*
X1358820Y91000D03*
D34*
X1328986Y75000D03*
X1337114Y75000D03*
D33*
X1958820Y59000D03*
X1907280Y59000D03*
X1907280Y91000D03*
X1958820Y91000D03*
X2108820Y59000D03*
X2057280Y59000D03*
X2057280Y91000D03*
X2108820Y91000D03*
D34*
X1928986Y75000D03*
X1937114Y75000D03*
X2078986Y75000D03*
X2087114Y75000D03*
D33*
X2258820Y59000D03*
X2207280Y59000D03*
X2207280Y91000D03*
X2258820Y91000D03*
X2408820Y59000D03*
X2357280Y59000D03*
X2357280Y91000D03*
X2408820Y91000D03*
D34*
X2228986Y75000D03*
X2237114Y75000D03*
X2378986Y75000D03*
X2387114Y75000D03*
D33*
X2558820Y59000D03*
X2507280Y59000D03*
X2507280Y91000D03*
X2558820Y91000D03*
X3158820Y59000D03*
X3107280Y59000D03*
X3107280Y91000D03*
X3158820Y91000D03*
D34*
X2528986Y75000D03*
X2537114Y75000D03*
X3128986Y75000D03*
X3137114Y75000D03*
D13*
X189290Y80030D03*
X206290Y80030D03*
D22*
X1888000Y2041500D03*
X1528100Y77500D03*
X3338600Y2041500D03*
X77500Y2041500D03*
D10*
X122500Y173500D03*
X122500Y156500D03*
X105000Y156500D03*
X105000Y173500D03*
D13*
X171000Y127500D03*
X154000Y127500D03*
D33*
X3158820Y2009000D03*
X3107280Y2009000D03*
X3107280Y2041000D03*
X3158820Y2041000D03*
D34*
X3128986Y2025000D03*
X3137114Y2025000D03*
D33*
X3308820Y1859000D03*
X3257280Y1859000D03*
X3257280Y1891000D03*
X3308820Y1891000D03*
D34*
X3278986Y1875000D03*
X3287114Y1875000D03*
D33*
X3308820Y1709000D03*
X3257280Y1709000D03*
X3257280Y1741000D03*
X3308820Y1741000D03*
D34*
X3278986Y1725000D03*
X3287114Y1725000D03*
D33*
X3158820Y1559000D03*
X3107280Y1559000D03*
X3107280Y1591000D03*
X3158820Y1591000D03*
X3308820Y1559000D03*
X3257280Y1559000D03*
X3257280Y1591000D03*
X3308820Y1591000D03*
D34*
X3128986Y1575000D03*
X3137114Y1575000D03*
X3278986Y1575000D03*
X3287114Y1575000D03*
D33*
X3308820Y1409000D03*
X3257280Y1409000D03*
X3257280Y1441000D03*
X3308820Y1441000D03*
D34*
X3278986Y1425000D03*
X3287114Y1425000D03*
D33*
X3308820Y1259000D03*
X3257280Y1259000D03*
X3257280Y1291000D03*
X3308820Y1291000D03*
D34*
X3278986Y1275000D03*
X3287114Y1275000D03*
D33*
X3308820Y1109000D03*
X3257280Y1109000D03*
X3257280Y1141000D03*
X3308820Y1141000D03*
D34*
X3278986Y1125000D03*
X3287114Y1125000D03*
D33*
X2108820Y959000D03*
X2057280Y959000D03*
X2057280Y991000D03*
X2108820Y991000D03*
X2258820Y959000D03*
X2207280Y959000D03*
X2207280Y991000D03*
X2258820Y991000D03*
D34*
X2078986Y975000D03*
X2087114Y975000D03*
X2228986Y975000D03*
X2237114Y975000D03*
D33*
X2858820Y809000D03*
X2807280Y809000D03*
X2807280Y841000D03*
X2858820Y841000D03*
X3008820Y809000D03*
X2957280Y809000D03*
X2957280Y841000D03*
X3008820Y841000D03*
D34*
X2828986Y825000D03*
X2837114Y825000D03*
X2978986Y825000D03*
X2987114Y825000D03*
D33*
X2708820Y659000D03*
X2657280Y659000D03*
X2657280Y691000D03*
X2708820Y691000D03*
X2858820Y659000D03*
X2807280Y659000D03*
X2807280Y691000D03*
X2858820Y691000D03*
D34*
X2678986Y675000D03*
X2687114Y675000D03*
X2828986Y675000D03*
X2837114Y675000D03*
D33*
X3008820Y359000D03*
X2957280Y359000D03*
X2957280Y391000D03*
X3008820Y391000D03*
X3158820Y359000D03*
X3107280Y359000D03*
X3107280Y391000D03*
X3158820Y391000D03*
D34*
X2978986Y375000D03*
X2987114Y375000D03*
X3128986Y375000D03*
X3137114Y375000D03*
D33*
X2858820Y209000D03*
X2807280Y209000D03*
X2807280Y241000D03*
X2858820Y241000D03*
X3008820Y209000D03*
X2957280Y209000D03*
X2957280Y241000D03*
X3008820Y241000D03*
D34*
X2828986Y225000D03*
X2837114Y225000D03*
X2978986Y225000D03*
X2987114Y225000D03*
D33*
X2708820Y59000D03*
X2657280Y59000D03*
X2657280Y91000D03*
X2708820Y91000D03*
X2858820Y59000D03*
X2807280Y59000D03*
X2807280Y91000D03*
X2858820Y91000D03*
D34*
X2678986Y75000D03*
X2687114Y75000D03*
X2828986Y75000D03*
X2837114Y75000D03*
D33*
X3008820Y59000D03*
X2957280Y59000D03*
X2957280Y91000D03*
X3008820Y91000D03*
D34*
X2978986Y75000D03*
X2987114Y75000D03*
D33*
X158820Y509000D03*
X107280Y509000D03*
X107280Y541000D03*
X158820Y541000D03*
D34*
X128986Y525000D03*
X137114Y525000D03*
D33*
X308820Y509000D03*
X257280Y509000D03*
X257280Y541000D03*
X308820Y541000D03*
X458820Y509000D03*
X407280Y509000D03*
X407280Y541000D03*
X458820Y541000D03*
D34*
X278986Y525000D03*
X287114Y525000D03*
X428986Y525000D03*
X437114Y525000D03*
D33*
X608820Y509000D03*
X557280Y509000D03*
X557280Y541000D03*
X608820Y541000D03*
X758820Y509000D03*
X707280Y509000D03*
X707280Y541000D03*
X758820Y541000D03*
D34*
X578986Y525000D03*
X587114Y525000D03*
X728986Y525000D03*
X737114Y525000D03*
D33*
X908820Y509000D03*
X857280Y509000D03*
X857280Y541000D03*
X908820Y541000D03*
X1058820Y509000D03*
X1007280Y509000D03*
X1007280Y541000D03*
X1058820Y541000D03*
D34*
X878986Y525000D03*
X887114Y525000D03*
X1028986Y525000D03*
X1037114Y525000D03*
D33*
X1208820Y509000D03*
X1157280Y509000D03*
X1157280Y541000D03*
X1208820Y541000D03*
X1358820Y509000D03*
X1307280Y509000D03*
X1307280Y541000D03*
X1358820Y541000D03*
D34*
X1178986Y525000D03*
X1187114Y525000D03*
X1328986Y525000D03*
X1337114Y525000D03*
D33*
X1658820Y509000D03*
X1607280Y509000D03*
X1607280Y541000D03*
X1658820Y541000D03*
D34*
X1628986Y525000D03*
X1637114Y525000D03*
D33*
X1808820Y509000D03*
X1757280Y509000D03*
X1757280Y541000D03*
X1808820Y541000D03*
X1958820Y509000D03*
X1907280Y509000D03*
X1907280Y541000D03*
X1958820Y541000D03*
D34*
X1778986Y525000D03*
X1787114Y525000D03*
X1928986Y525000D03*
X1937114Y525000D03*
D33*
X2108820Y509000D03*
X2057280Y509000D03*
X2057280Y541000D03*
X2108820Y541000D03*
D34*
X2078986Y525000D03*
X2087114Y525000D03*
D33*
X1506420Y509000D03*
X1454880Y509000D03*
X1454880Y541000D03*
X1506420Y541000D03*
D34*
X1476586Y525000D03*
X1484714Y525000D03*
D33*
X2258820Y509000D03*
X2207280Y509000D03*
X2207280Y541000D03*
X2258820Y541000D03*
D34*
X2228986Y525000D03*
X2237114Y525000D03*
D33*
X2408820Y509000D03*
X2357280Y509000D03*
X2357280Y541000D03*
X2408820Y541000D03*
X2558820Y509000D03*
X2507280Y509000D03*
X2507280Y541000D03*
X2558820Y541000D03*
D34*
X2378986Y525000D03*
X2387114Y525000D03*
X2528986Y525000D03*
X2537114Y525000D03*
D33*
X2708820Y509000D03*
X2657280Y509000D03*
X2657280Y541000D03*
X2708820Y541000D03*
X2858820Y509000D03*
X2807280Y509000D03*
X2807280Y541000D03*
X2858820Y541000D03*
D34*
X2678986Y525000D03*
X2687114Y525000D03*
X2828986Y525000D03*
X2837114Y525000D03*
D33*
X3008820Y509000D03*
X2957280Y509000D03*
X2957280Y541000D03*
X3008820Y541000D03*
X3158820Y509000D03*
X3107280Y509000D03*
X3107280Y541000D03*
X3158820Y541000D03*
D34*
X2978986Y525000D03*
X2987114Y525000D03*
X3128986Y525000D03*
X3137114Y525000D03*
D33*
X3308820Y509000D03*
X3257280Y509000D03*
X3257280Y541000D03*
X3308820Y541000D03*
D34*
X3278986Y525000D03*
X3287114Y525000D03*
D33*
X158820Y359000D03*
X107280Y359000D03*
X107280Y391000D03*
X158820Y391000D03*
D34*
X128986Y375000D03*
X137114Y375000D03*
D33*
X758820Y209000D03*
X707280Y209000D03*
X707280Y241000D03*
X758820Y241000D03*
D34*
X728986Y225000D03*
X737114Y225000D03*
D35*
X50000Y1954064D03*
X50000Y1945936D03*
X50000Y1804064D03*
X50000Y1795936D03*
X50000Y1654064D03*
X50000Y1645936D03*
X50000Y1504064D03*
X50000Y1495936D03*
X50000Y1354064D03*
X50000Y1345936D03*
X50000Y1204064D03*
X50000Y1195936D03*
X50000Y1054064D03*
X50000Y1045936D03*
X50000Y904064D03*
X50000Y895936D03*
X50000Y754064D03*
X50000Y745936D03*
X50000Y604064D03*
X50000Y595936D03*
X50000Y454064D03*
X50000Y445936D03*
X50000Y304064D03*
X50000Y295936D03*
X680000Y149064D03*
X680000Y140936D03*
M02*
