G04 EAGLE Gerber RS-274X export*
G75*
%MOMM*%
%FSLAX34Y34*%
%LPD*%
%IN*%
%IPPOS*%
%AMOC8*
5,1,8,0,0,1.08239X$1,22.5*%
G01*
%ADD10C,0.203200*%
%ADD11C,0.000000*%
%ADD12C,0.010000*%
%ADD13C,0.254000*%


D10*
X3416100Y0D02*
X3416100Y230000D01*
X3516100Y230000D01*
X3516100Y530000D01*
X3416100Y530000D01*
X3416100Y2119100D01*
X0Y2119100D01*
X0Y0D01*
X585630Y0D01*
X585630Y233200D01*
X645320Y233200D01*
X645320Y0D01*
X3416100Y0D01*
D11*
X3322090Y75000D02*
X3322095Y75405D01*
X3322110Y75810D01*
X3322135Y76215D01*
X3322170Y76618D01*
X3322214Y77021D01*
X3322269Y77423D01*
X3322333Y77823D01*
X3322407Y78221D01*
X3322491Y78617D01*
X3322585Y79012D01*
X3322688Y79403D01*
X3322801Y79793D01*
X3322923Y80179D01*
X3323055Y80562D01*
X3323196Y80942D01*
X3323347Y81318D01*
X3323506Y81691D01*
X3323675Y82059D01*
X3323853Y82423D01*
X3324039Y82783D01*
X3324235Y83138D01*
X3324439Y83488D01*
X3324651Y83833D01*
X3324872Y84172D01*
X3325102Y84507D01*
X3325339Y84835D01*
X3325584Y85157D01*
X3325838Y85474D01*
X3326098Y85784D01*
X3326367Y86087D01*
X3326643Y86384D01*
X3326926Y86674D01*
X3327216Y86957D01*
X3327513Y87233D01*
X3327816Y87502D01*
X3328126Y87762D01*
X3328443Y88016D01*
X3328765Y88261D01*
X3329093Y88498D01*
X3329428Y88728D01*
X3329767Y88949D01*
X3330112Y89161D01*
X3330462Y89365D01*
X3330817Y89561D01*
X3331177Y89747D01*
X3331541Y89925D01*
X3331909Y90094D01*
X3332282Y90253D01*
X3332658Y90404D01*
X3333038Y90545D01*
X3333421Y90677D01*
X3333807Y90799D01*
X3334197Y90912D01*
X3334588Y91015D01*
X3334983Y91109D01*
X3335379Y91193D01*
X3335777Y91267D01*
X3336177Y91331D01*
X3336579Y91386D01*
X3336982Y91430D01*
X3337385Y91465D01*
X3337790Y91490D01*
X3338195Y91505D01*
X3338600Y91510D01*
X3339005Y91505D01*
X3339410Y91490D01*
X3339815Y91465D01*
X3340218Y91430D01*
X3340621Y91386D01*
X3341023Y91331D01*
X3341423Y91267D01*
X3341821Y91193D01*
X3342217Y91109D01*
X3342612Y91015D01*
X3343003Y90912D01*
X3343393Y90799D01*
X3343779Y90677D01*
X3344162Y90545D01*
X3344542Y90404D01*
X3344918Y90253D01*
X3345291Y90094D01*
X3345659Y89925D01*
X3346023Y89747D01*
X3346383Y89561D01*
X3346738Y89365D01*
X3347088Y89161D01*
X3347433Y88949D01*
X3347772Y88728D01*
X3348107Y88498D01*
X3348435Y88261D01*
X3348757Y88016D01*
X3349074Y87762D01*
X3349384Y87502D01*
X3349687Y87233D01*
X3349984Y86957D01*
X3350274Y86674D01*
X3350557Y86384D01*
X3350833Y86087D01*
X3351102Y85784D01*
X3351362Y85474D01*
X3351616Y85157D01*
X3351861Y84835D01*
X3352098Y84507D01*
X3352328Y84172D01*
X3352549Y83833D01*
X3352761Y83488D01*
X3352965Y83138D01*
X3353161Y82783D01*
X3353347Y82423D01*
X3353525Y82059D01*
X3353694Y81691D01*
X3353853Y81318D01*
X3354004Y80942D01*
X3354145Y80562D01*
X3354277Y80179D01*
X3354399Y79793D01*
X3354512Y79403D01*
X3354615Y79012D01*
X3354709Y78617D01*
X3354793Y78221D01*
X3354867Y77823D01*
X3354931Y77423D01*
X3354986Y77021D01*
X3355030Y76618D01*
X3355065Y76215D01*
X3355090Y75810D01*
X3355105Y75405D01*
X3355110Y75000D01*
X3355105Y74595D01*
X3355090Y74190D01*
X3355065Y73785D01*
X3355030Y73382D01*
X3354986Y72979D01*
X3354931Y72577D01*
X3354867Y72177D01*
X3354793Y71779D01*
X3354709Y71383D01*
X3354615Y70988D01*
X3354512Y70597D01*
X3354399Y70207D01*
X3354277Y69821D01*
X3354145Y69438D01*
X3354004Y69058D01*
X3353853Y68682D01*
X3353694Y68309D01*
X3353525Y67941D01*
X3353347Y67577D01*
X3353161Y67217D01*
X3352965Y66862D01*
X3352761Y66512D01*
X3352549Y66167D01*
X3352328Y65828D01*
X3352098Y65493D01*
X3351861Y65165D01*
X3351616Y64843D01*
X3351362Y64526D01*
X3351102Y64216D01*
X3350833Y63913D01*
X3350557Y63616D01*
X3350274Y63326D01*
X3349984Y63043D01*
X3349687Y62767D01*
X3349384Y62498D01*
X3349074Y62238D01*
X3348757Y61984D01*
X3348435Y61739D01*
X3348107Y61502D01*
X3347772Y61272D01*
X3347433Y61051D01*
X3347088Y60839D01*
X3346738Y60635D01*
X3346383Y60439D01*
X3346023Y60253D01*
X3345659Y60075D01*
X3345291Y59906D01*
X3344918Y59747D01*
X3344542Y59596D01*
X3344162Y59455D01*
X3343779Y59323D01*
X3343393Y59201D01*
X3343003Y59088D01*
X3342612Y58985D01*
X3342217Y58891D01*
X3341821Y58807D01*
X3341423Y58733D01*
X3341023Y58669D01*
X3340621Y58614D01*
X3340218Y58570D01*
X3339815Y58535D01*
X3339410Y58510D01*
X3339005Y58495D01*
X3338600Y58490D01*
X3338195Y58495D01*
X3337790Y58510D01*
X3337385Y58535D01*
X3336982Y58570D01*
X3336579Y58614D01*
X3336177Y58669D01*
X3335777Y58733D01*
X3335379Y58807D01*
X3334983Y58891D01*
X3334588Y58985D01*
X3334197Y59088D01*
X3333807Y59201D01*
X3333421Y59323D01*
X3333038Y59455D01*
X3332658Y59596D01*
X3332282Y59747D01*
X3331909Y59906D01*
X3331541Y60075D01*
X3331177Y60253D01*
X3330817Y60439D01*
X3330462Y60635D01*
X3330112Y60839D01*
X3329767Y61051D01*
X3329428Y61272D01*
X3329093Y61502D01*
X3328765Y61739D01*
X3328443Y61984D01*
X3328126Y62238D01*
X3327816Y62498D01*
X3327513Y62767D01*
X3327216Y63043D01*
X3326926Y63326D01*
X3326643Y63616D01*
X3326367Y63913D01*
X3326098Y64216D01*
X3325838Y64526D01*
X3325584Y64843D01*
X3325339Y65165D01*
X3325102Y65493D01*
X3324872Y65828D01*
X3324651Y66167D01*
X3324439Y66512D01*
X3324235Y66862D01*
X3324039Y67217D01*
X3323853Y67577D01*
X3323675Y67941D01*
X3323506Y68309D01*
X3323347Y68682D01*
X3323196Y69058D01*
X3323055Y69438D01*
X3322923Y69821D01*
X3322801Y70207D01*
X3322688Y70597D01*
X3322585Y70988D01*
X3322491Y71383D01*
X3322407Y71779D01*
X3322333Y72177D01*
X3322269Y72577D01*
X3322214Y72979D01*
X3322170Y73382D01*
X3322135Y73785D01*
X3322110Y74190D01*
X3322095Y74595D01*
X3322090Y75000D01*
X60990Y77500D02*
X60995Y77905D01*
X61010Y78310D01*
X61035Y78715D01*
X61070Y79118D01*
X61114Y79521D01*
X61169Y79923D01*
X61233Y80323D01*
X61307Y80721D01*
X61391Y81117D01*
X61485Y81512D01*
X61588Y81903D01*
X61701Y82293D01*
X61823Y82679D01*
X61955Y83062D01*
X62096Y83442D01*
X62247Y83818D01*
X62406Y84191D01*
X62575Y84559D01*
X62753Y84923D01*
X62939Y85283D01*
X63135Y85638D01*
X63339Y85988D01*
X63551Y86333D01*
X63772Y86672D01*
X64002Y87007D01*
X64239Y87335D01*
X64484Y87657D01*
X64738Y87974D01*
X64998Y88284D01*
X65267Y88587D01*
X65543Y88884D01*
X65826Y89174D01*
X66116Y89457D01*
X66413Y89733D01*
X66716Y90002D01*
X67026Y90262D01*
X67343Y90516D01*
X67665Y90761D01*
X67993Y90998D01*
X68328Y91228D01*
X68667Y91449D01*
X69012Y91661D01*
X69362Y91865D01*
X69717Y92061D01*
X70077Y92247D01*
X70441Y92425D01*
X70809Y92594D01*
X71182Y92753D01*
X71558Y92904D01*
X71938Y93045D01*
X72321Y93177D01*
X72707Y93299D01*
X73097Y93412D01*
X73488Y93515D01*
X73883Y93609D01*
X74279Y93693D01*
X74677Y93767D01*
X75077Y93831D01*
X75479Y93886D01*
X75882Y93930D01*
X76285Y93965D01*
X76690Y93990D01*
X77095Y94005D01*
X77500Y94010D01*
X77905Y94005D01*
X78310Y93990D01*
X78715Y93965D01*
X79118Y93930D01*
X79521Y93886D01*
X79923Y93831D01*
X80323Y93767D01*
X80721Y93693D01*
X81117Y93609D01*
X81512Y93515D01*
X81903Y93412D01*
X82293Y93299D01*
X82679Y93177D01*
X83062Y93045D01*
X83442Y92904D01*
X83818Y92753D01*
X84191Y92594D01*
X84559Y92425D01*
X84923Y92247D01*
X85283Y92061D01*
X85638Y91865D01*
X85988Y91661D01*
X86333Y91449D01*
X86672Y91228D01*
X87007Y90998D01*
X87335Y90761D01*
X87657Y90516D01*
X87974Y90262D01*
X88284Y90002D01*
X88587Y89733D01*
X88884Y89457D01*
X89174Y89174D01*
X89457Y88884D01*
X89733Y88587D01*
X90002Y88284D01*
X90262Y87974D01*
X90516Y87657D01*
X90761Y87335D01*
X90998Y87007D01*
X91228Y86672D01*
X91449Y86333D01*
X91661Y85988D01*
X91865Y85638D01*
X92061Y85283D01*
X92247Y84923D01*
X92425Y84559D01*
X92594Y84191D01*
X92753Y83818D01*
X92904Y83442D01*
X93045Y83062D01*
X93177Y82679D01*
X93299Y82293D01*
X93412Y81903D01*
X93515Y81512D01*
X93609Y81117D01*
X93693Y80721D01*
X93767Y80323D01*
X93831Y79923D01*
X93886Y79521D01*
X93930Y79118D01*
X93965Y78715D01*
X93990Y78310D01*
X94005Y77905D01*
X94010Y77500D01*
X94005Y77095D01*
X93990Y76690D01*
X93965Y76285D01*
X93930Y75882D01*
X93886Y75479D01*
X93831Y75077D01*
X93767Y74677D01*
X93693Y74279D01*
X93609Y73883D01*
X93515Y73488D01*
X93412Y73097D01*
X93299Y72707D01*
X93177Y72321D01*
X93045Y71938D01*
X92904Y71558D01*
X92753Y71182D01*
X92594Y70809D01*
X92425Y70441D01*
X92247Y70077D01*
X92061Y69717D01*
X91865Y69362D01*
X91661Y69012D01*
X91449Y68667D01*
X91228Y68328D01*
X90998Y67993D01*
X90761Y67665D01*
X90516Y67343D01*
X90262Y67026D01*
X90002Y66716D01*
X89733Y66413D01*
X89457Y66116D01*
X89174Y65826D01*
X88884Y65543D01*
X88587Y65267D01*
X88284Y64998D01*
X87974Y64738D01*
X87657Y64484D01*
X87335Y64239D01*
X87007Y64002D01*
X86672Y63772D01*
X86333Y63551D01*
X85988Y63339D01*
X85638Y63135D01*
X85283Y62939D01*
X84923Y62753D01*
X84559Y62575D01*
X84191Y62406D01*
X83818Y62247D01*
X83442Y62096D01*
X83062Y61955D01*
X82679Y61823D01*
X82293Y61701D01*
X81903Y61588D01*
X81512Y61485D01*
X81117Y61391D01*
X80721Y61307D01*
X80323Y61233D01*
X79923Y61169D01*
X79521Y61114D01*
X79118Y61070D01*
X78715Y61035D01*
X78310Y61010D01*
X77905Y60995D01*
X77500Y60990D01*
X77095Y60995D01*
X76690Y61010D01*
X76285Y61035D01*
X75882Y61070D01*
X75479Y61114D01*
X75077Y61169D01*
X74677Y61233D01*
X74279Y61307D01*
X73883Y61391D01*
X73488Y61485D01*
X73097Y61588D01*
X72707Y61701D01*
X72321Y61823D01*
X71938Y61955D01*
X71558Y62096D01*
X71182Y62247D01*
X70809Y62406D01*
X70441Y62575D01*
X70077Y62753D01*
X69717Y62939D01*
X69362Y63135D01*
X69012Y63339D01*
X68667Y63551D01*
X68328Y63772D01*
X67993Y64002D01*
X67665Y64239D01*
X67343Y64484D01*
X67026Y64738D01*
X66716Y64998D01*
X66413Y65267D01*
X66116Y65543D01*
X65826Y65826D01*
X65543Y66116D01*
X65267Y66413D01*
X64998Y66716D01*
X64738Y67026D01*
X64484Y67343D01*
X64239Y67665D01*
X64002Y67993D01*
X63772Y68328D01*
X63551Y68667D01*
X63339Y69012D01*
X63135Y69362D01*
X62939Y69717D01*
X62753Y70077D01*
X62575Y70441D01*
X62406Y70809D01*
X62247Y71182D01*
X62096Y71558D01*
X61955Y71938D01*
X61823Y72321D01*
X61701Y72707D01*
X61588Y73097D01*
X61485Y73488D01*
X61391Y73883D01*
X61307Y74279D01*
X61233Y74677D01*
X61169Y75077D01*
X61114Y75479D01*
X61070Y75882D01*
X61035Y76285D01*
X61010Y76690D01*
X60995Y77095D01*
X60990Y77500D01*
X3462300Y261100D02*
X3462302Y261213D01*
X3462308Y261327D01*
X3462318Y261440D01*
X3462332Y261552D01*
X3462349Y261664D01*
X3462371Y261776D01*
X3462397Y261886D01*
X3462426Y261996D01*
X3462459Y262104D01*
X3462496Y262212D01*
X3462537Y262317D01*
X3462581Y262422D01*
X3462629Y262525D01*
X3462680Y262626D01*
X3462735Y262725D01*
X3462794Y262822D01*
X3462856Y262917D01*
X3462921Y263010D01*
X3462989Y263101D01*
X3463060Y263189D01*
X3463135Y263275D01*
X3463212Y263358D01*
X3463292Y263438D01*
X3463375Y263515D01*
X3463461Y263590D01*
X3463549Y263661D01*
X3463640Y263729D01*
X3463733Y263794D01*
X3463828Y263856D01*
X3463925Y263915D01*
X3464024Y263970D01*
X3464125Y264021D01*
X3464228Y264069D01*
X3464333Y264113D01*
X3464438Y264154D01*
X3464546Y264191D01*
X3464654Y264224D01*
X3464764Y264253D01*
X3464874Y264279D01*
X3464986Y264301D01*
X3465098Y264318D01*
X3465210Y264332D01*
X3465323Y264342D01*
X3465437Y264348D01*
X3465550Y264350D01*
X3465663Y264348D01*
X3465777Y264342D01*
X3465890Y264332D01*
X3466002Y264318D01*
X3466114Y264301D01*
X3466226Y264279D01*
X3466336Y264253D01*
X3466446Y264224D01*
X3466554Y264191D01*
X3466662Y264154D01*
X3466767Y264113D01*
X3466872Y264069D01*
X3466975Y264021D01*
X3467076Y263970D01*
X3467175Y263915D01*
X3467272Y263856D01*
X3467367Y263794D01*
X3467460Y263729D01*
X3467551Y263661D01*
X3467639Y263590D01*
X3467725Y263515D01*
X3467808Y263438D01*
X3467888Y263358D01*
X3467965Y263275D01*
X3468040Y263189D01*
X3468111Y263101D01*
X3468179Y263010D01*
X3468244Y262917D01*
X3468306Y262822D01*
X3468365Y262725D01*
X3468420Y262626D01*
X3468471Y262525D01*
X3468519Y262422D01*
X3468563Y262317D01*
X3468604Y262212D01*
X3468641Y262104D01*
X3468674Y261996D01*
X3468703Y261886D01*
X3468729Y261776D01*
X3468751Y261664D01*
X3468768Y261552D01*
X3468782Y261440D01*
X3468792Y261327D01*
X3468798Y261213D01*
X3468800Y261100D01*
X3468798Y260987D01*
X3468792Y260873D01*
X3468782Y260760D01*
X3468768Y260648D01*
X3468751Y260536D01*
X3468729Y260424D01*
X3468703Y260314D01*
X3468674Y260204D01*
X3468641Y260096D01*
X3468604Y259988D01*
X3468563Y259883D01*
X3468519Y259778D01*
X3468471Y259675D01*
X3468420Y259574D01*
X3468365Y259475D01*
X3468306Y259378D01*
X3468244Y259283D01*
X3468179Y259190D01*
X3468111Y259099D01*
X3468040Y259011D01*
X3467965Y258925D01*
X3467888Y258842D01*
X3467808Y258762D01*
X3467725Y258685D01*
X3467639Y258610D01*
X3467551Y258539D01*
X3467460Y258471D01*
X3467367Y258406D01*
X3467272Y258344D01*
X3467175Y258285D01*
X3467076Y258230D01*
X3466975Y258179D01*
X3466872Y258131D01*
X3466767Y258087D01*
X3466662Y258046D01*
X3466554Y258009D01*
X3466446Y257976D01*
X3466336Y257947D01*
X3466226Y257921D01*
X3466114Y257899D01*
X3466002Y257882D01*
X3465890Y257868D01*
X3465777Y257858D01*
X3465663Y257852D01*
X3465550Y257850D01*
X3465437Y257852D01*
X3465323Y257858D01*
X3465210Y257868D01*
X3465098Y257882D01*
X3464986Y257899D01*
X3464874Y257921D01*
X3464764Y257947D01*
X3464654Y257976D01*
X3464546Y258009D01*
X3464438Y258046D01*
X3464333Y258087D01*
X3464228Y258131D01*
X3464125Y258179D01*
X3464024Y258230D01*
X3463925Y258285D01*
X3463828Y258344D01*
X3463733Y258406D01*
X3463640Y258471D01*
X3463549Y258539D01*
X3463461Y258610D01*
X3463375Y258685D01*
X3463292Y258762D01*
X3463212Y258842D01*
X3463135Y258925D01*
X3463060Y259011D01*
X3462989Y259099D01*
X3462921Y259190D01*
X3462856Y259283D01*
X3462794Y259378D01*
X3462735Y259475D01*
X3462680Y259574D01*
X3462629Y259675D01*
X3462581Y259778D01*
X3462537Y259883D01*
X3462496Y259988D01*
X3462459Y260096D01*
X3462426Y260204D01*
X3462397Y260314D01*
X3462371Y260424D01*
X3462349Y260536D01*
X3462332Y260648D01*
X3462318Y260760D01*
X3462308Y260873D01*
X3462302Y260987D01*
X3462300Y261100D01*
X3462300Y318900D02*
X3462302Y319013D01*
X3462308Y319127D01*
X3462318Y319240D01*
X3462332Y319352D01*
X3462349Y319464D01*
X3462371Y319576D01*
X3462397Y319686D01*
X3462426Y319796D01*
X3462459Y319904D01*
X3462496Y320012D01*
X3462537Y320117D01*
X3462581Y320222D01*
X3462629Y320325D01*
X3462680Y320426D01*
X3462735Y320525D01*
X3462794Y320622D01*
X3462856Y320717D01*
X3462921Y320810D01*
X3462989Y320901D01*
X3463060Y320989D01*
X3463135Y321075D01*
X3463212Y321158D01*
X3463292Y321238D01*
X3463375Y321315D01*
X3463461Y321390D01*
X3463549Y321461D01*
X3463640Y321529D01*
X3463733Y321594D01*
X3463828Y321656D01*
X3463925Y321715D01*
X3464024Y321770D01*
X3464125Y321821D01*
X3464228Y321869D01*
X3464333Y321913D01*
X3464438Y321954D01*
X3464546Y321991D01*
X3464654Y322024D01*
X3464764Y322053D01*
X3464874Y322079D01*
X3464986Y322101D01*
X3465098Y322118D01*
X3465210Y322132D01*
X3465323Y322142D01*
X3465437Y322148D01*
X3465550Y322150D01*
X3465663Y322148D01*
X3465777Y322142D01*
X3465890Y322132D01*
X3466002Y322118D01*
X3466114Y322101D01*
X3466226Y322079D01*
X3466336Y322053D01*
X3466446Y322024D01*
X3466554Y321991D01*
X3466662Y321954D01*
X3466767Y321913D01*
X3466872Y321869D01*
X3466975Y321821D01*
X3467076Y321770D01*
X3467175Y321715D01*
X3467272Y321656D01*
X3467367Y321594D01*
X3467460Y321529D01*
X3467551Y321461D01*
X3467639Y321390D01*
X3467725Y321315D01*
X3467808Y321238D01*
X3467888Y321158D01*
X3467965Y321075D01*
X3468040Y320989D01*
X3468111Y320901D01*
X3468179Y320810D01*
X3468244Y320717D01*
X3468306Y320622D01*
X3468365Y320525D01*
X3468420Y320426D01*
X3468471Y320325D01*
X3468519Y320222D01*
X3468563Y320117D01*
X3468604Y320012D01*
X3468641Y319904D01*
X3468674Y319796D01*
X3468703Y319686D01*
X3468729Y319576D01*
X3468751Y319464D01*
X3468768Y319352D01*
X3468782Y319240D01*
X3468792Y319127D01*
X3468798Y319013D01*
X3468800Y318900D01*
X3468798Y318787D01*
X3468792Y318673D01*
X3468782Y318560D01*
X3468768Y318448D01*
X3468751Y318336D01*
X3468729Y318224D01*
X3468703Y318114D01*
X3468674Y318004D01*
X3468641Y317896D01*
X3468604Y317788D01*
X3468563Y317683D01*
X3468519Y317578D01*
X3468471Y317475D01*
X3468420Y317374D01*
X3468365Y317275D01*
X3468306Y317178D01*
X3468244Y317083D01*
X3468179Y316990D01*
X3468111Y316899D01*
X3468040Y316811D01*
X3467965Y316725D01*
X3467888Y316642D01*
X3467808Y316562D01*
X3467725Y316485D01*
X3467639Y316410D01*
X3467551Y316339D01*
X3467460Y316271D01*
X3467367Y316206D01*
X3467272Y316144D01*
X3467175Y316085D01*
X3467076Y316030D01*
X3466975Y315979D01*
X3466872Y315931D01*
X3466767Y315887D01*
X3466662Y315846D01*
X3466554Y315809D01*
X3466446Y315776D01*
X3466336Y315747D01*
X3466226Y315721D01*
X3466114Y315699D01*
X3466002Y315682D01*
X3465890Y315668D01*
X3465777Y315658D01*
X3465663Y315652D01*
X3465550Y315650D01*
X3465437Y315652D01*
X3465323Y315658D01*
X3465210Y315668D01*
X3465098Y315682D01*
X3464986Y315699D01*
X3464874Y315721D01*
X3464764Y315747D01*
X3464654Y315776D01*
X3464546Y315809D01*
X3464438Y315846D01*
X3464333Y315887D01*
X3464228Y315931D01*
X3464125Y315979D01*
X3464024Y316030D01*
X3463925Y316085D01*
X3463828Y316144D01*
X3463733Y316206D01*
X3463640Y316271D01*
X3463549Y316339D01*
X3463461Y316410D01*
X3463375Y316485D01*
X3463292Y316562D01*
X3463212Y316642D01*
X3463135Y316725D01*
X3463060Y316811D01*
X3462989Y316899D01*
X3462921Y316990D01*
X3462856Y317083D01*
X3462794Y317178D01*
X3462735Y317275D01*
X3462680Y317374D01*
X3462629Y317475D01*
X3462581Y317578D01*
X3462537Y317683D01*
X3462496Y317788D01*
X3462459Y317896D01*
X3462426Y318004D01*
X3462397Y318114D01*
X3462371Y318224D01*
X3462349Y318336D01*
X3462332Y318448D01*
X3462318Y318560D01*
X3462308Y318673D01*
X3462302Y318787D01*
X3462300Y318900D01*
D12*
X3498900Y243800D02*
X3505100Y243800D01*
X3505100Y249800D02*
X3498900Y249800D01*
X3498792Y249798D01*
X3498684Y249792D01*
X3498576Y249782D01*
X3498468Y249769D01*
X3498361Y249751D01*
X3498255Y249730D01*
X3498150Y249705D01*
X3498045Y249676D01*
X3497942Y249643D01*
X3497840Y249607D01*
X3497739Y249566D01*
X3497640Y249523D01*
X3497543Y249475D01*
X3497447Y249425D01*
X3497353Y249371D01*
X3497262Y249313D01*
X3497172Y249252D01*
X3497084Y249188D01*
X3496999Y249121D01*
X3496917Y249051D01*
X3496837Y248978D01*
X3496760Y248902D01*
X3496685Y248823D01*
X3496614Y248742D01*
X3496545Y248658D01*
X3496479Y248572D01*
X3496417Y248484D01*
X3496358Y248393D01*
X3496302Y248300D01*
X3496249Y248205D01*
X3496200Y248109D01*
X3496155Y248010D01*
X3496113Y247910D01*
X3496075Y247809D01*
X3496040Y247706D01*
X3496009Y247603D01*
X3495982Y247498D01*
X3495959Y247392D01*
X3495940Y247285D01*
X3495924Y247178D01*
X3495912Y247070D01*
X3495904Y246962D01*
X3495900Y246854D01*
X3495900Y246746D01*
X3495904Y246638D01*
X3495912Y246530D01*
X3495924Y246422D01*
X3495940Y246315D01*
X3495959Y246208D01*
X3495982Y246102D01*
X3496009Y245997D01*
X3496040Y245894D01*
X3496075Y245791D01*
X3496113Y245690D01*
X3496155Y245590D01*
X3496200Y245491D01*
X3496249Y245395D01*
X3496302Y245300D01*
X3496358Y245207D01*
X3496417Y245116D01*
X3496479Y245028D01*
X3496545Y244942D01*
X3496614Y244858D01*
X3496685Y244777D01*
X3496760Y244698D01*
X3496837Y244622D01*
X3496917Y244549D01*
X3496999Y244479D01*
X3497084Y244412D01*
X3497172Y244348D01*
X3497262Y244287D01*
X3497353Y244229D01*
X3497447Y244175D01*
X3497543Y244125D01*
X3497640Y244077D01*
X3497739Y244034D01*
X3497840Y243993D01*
X3497942Y243957D01*
X3498045Y243924D01*
X3498150Y243895D01*
X3498255Y243870D01*
X3498361Y243849D01*
X3498468Y243831D01*
X3498576Y243818D01*
X3498684Y243808D01*
X3498792Y243802D01*
X3498900Y243800D01*
X3505100Y243800D02*
X3505208Y243802D01*
X3505316Y243808D01*
X3505424Y243818D01*
X3505532Y243831D01*
X3505639Y243849D01*
X3505745Y243870D01*
X3505850Y243895D01*
X3505955Y243924D01*
X3506058Y243957D01*
X3506160Y243993D01*
X3506261Y244034D01*
X3506360Y244077D01*
X3506457Y244125D01*
X3506553Y244175D01*
X3506647Y244229D01*
X3506738Y244287D01*
X3506828Y244348D01*
X3506916Y244412D01*
X3507001Y244479D01*
X3507083Y244549D01*
X3507163Y244622D01*
X3507240Y244698D01*
X3507315Y244777D01*
X3507386Y244858D01*
X3507455Y244942D01*
X3507521Y245028D01*
X3507583Y245116D01*
X3507642Y245207D01*
X3507698Y245300D01*
X3507751Y245395D01*
X3507800Y245491D01*
X3507845Y245590D01*
X3507887Y245690D01*
X3507925Y245791D01*
X3507960Y245894D01*
X3507991Y245997D01*
X3508018Y246102D01*
X3508041Y246208D01*
X3508060Y246315D01*
X3508076Y246422D01*
X3508088Y246530D01*
X3508096Y246638D01*
X3508100Y246746D01*
X3508100Y246854D01*
X3508096Y246962D01*
X3508088Y247070D01*
X3508076Y247178D01*
X3508060Y247285D01*
X3508041Y247392D01*
X3508018Y247498D01*
X3507991Y247603D01*
X3507960Y247706D01*
X3507925Y247809D01*
X3507887Y247910D01*
X3507845Y248010D01*
X3507800Y248109D01*
X3507751Y248205D01*
X3507698Y248300D01*
X3507642Y248393D01*
X3507583Y248484D01*
X3507521Y248572D01*
X3507455Y248658D01*
X3507386Y248742D01*
X3507315Y248823D01*
X3507240Y248902D01*
X3507163Y248978D01*
X3507083Y249051D01*
X3507001Y249121D01*
X3506916Y249188D01*
X3506828Y249252D01*
X3506738Y249313D01*
X3506647Y249371D01*
X3506553Y249425D01*
X3506457Y249475D01*
X3506360Y249523D01*
X3506261Y249566D01*
X3506160Y249607D01*
X3506058Y249643D01*
X3505955Y249676D01*
X3505850Y249705D01*
X3505745Y249730D01*
X3505639Y249751D01*
X3505532Y249769D01*
X3505424Y249782D01*
X3505316Y249792D01*
X3505208Y249798D01*
X3505100Y249800D01*
X3465750Y243800D02*
X3454750Y243800D01*
X3454750Y249800D02*
X3465750Y249800D01*
X3465858Y249798D01*
X3465966Y249792D01*
X3466074Y249782D01*
X3466182Y249769D01*
X3466289Y249751D01*
X3466395Y249730D01*
X3466500Y249705D01*
X3466605Y249676D01*
X3466708Y249643D01*
X3466810Y249607D01*
X3466911Y249566D01*
X3467010Y249523D01*
X3467107Y249475D01*
X3467203Y249425D01*
X3467297Y249371D01*
X3467388Y249313D01*
X3467478Y249252D01*
X3467566Y249188D01*
X3467651Y249121D01*
X3467733Y249051D01*
X3467813Y248978D01*
X3467890Y248902D01*
X3467965Y248823D01*
X3468036Y248742D01*
X3468105Y248658D01*
X3468171Y248572D01*
X3468233Y248484D01*
X3468292Y248393D01*
X3468348Y248300D01*
X3468401Y248205D01*
X3468450Y248109D01*
X3468495Y248010D01*
X3468537Y247910D01*
X3468575Y247809D01*
X3468610Y247706D01*
X3468641Y247603D01*
X3468668Y247498D01*
X3468691Y247392D01*
X3468710Y247285D01*
X3468726Y247178D01*
X3468738Y247070D01*
X3468746Y246962D01*
X3468750Y246854D01*
X3468750Y246746D01*
X3468746Y246638D01*
X3468738Y246530D01*
X3468726Y246422D01*
X3468710Y246315D01*
X3468691Y246208D01*
X3468668Y246102D01*
X3468641Y245997D01*
X3468610Y245894D01*
X3468575Y245791D01*
X3468537Y245690D01*
X3468495Y245590D01*
X3468450Y245491D01*
X3468401Y245395D01*
X3468348Y245300D01*
X3468292Y245207D01*
X3468233Y245116D01*
X3468171Y245028D01*
X3468105Y244942D01*
X3468036Y244858D01*
X3467965Y244777D01*
X3467890Y244698D01*
X3467813Y244622D01*
X3467733Y244549D01*
X3467651Y244479D01*
X3467566Y244412D01*
X3467478Y244348D01*
X3467388Y244287D01*
X3467297Y244229D01*
X3467203Y244175D01*
X3467107Y244125D01*
X3467010Y244077D01*
X3466911Y244034D01*
X3466810Y243993D01*
X3466708Y243957D01*
X3466605Y243924D01*
X3466500Y243895D01*
X3466395Y243870D01*
X3466289Y243849D01*
X3466182Y243831D01*
X3466074Y243818D01*
X3465966Y243808D01*
X3465858Y243802D01*
X3465750Y243800D01*
X3454750Y243800D02*
X3454642Y243802D01*
X3454534Y243808D01*
X3454426Y243818D01*
X3454318Y243831D01*
X3454211Y243849D01*
X3454105Y243870D01*
X3454000Y243895D01*
X3453895Y243924D01*
X3453792Y243957D01*
X3453690Y243993D01*
X3453589Y244034D01*
X3453490Y244077D01*
X3453393Y244125D01*
X3453297Y244175D01*
X3453203Y244229D01*
X3453112Y244287D01*
X3453022Y244348D01*
X3452934Y244412D01*
X3452849Y244479D01*
X3452767Y244549D01*
X3452687Y244622D01*
X3452610Y244698D01*
X3452535Y244777D01*
X3452464Y244858D01*
X3452395Y244942D01*
X3452329Y245028D01*
X3452267Y245116D01*
X3452208Y245207D01*
X3452152Y245300D01*
X3452099Y245395D01*
X3452050Y245491D01*
X3452005Y245590D01*
X3451963Y245690D01*
X3451925Y245791D01*
X3451890Y245894D01*
X3451859Y245997D01*
X3451832Y246102D01*
X3451809Y246208D01*
X3451790Y246315D01*
X3451774Y246422D01*
X3451762Y246530D01*
X3451754Y246638D01*
X3451750Y246746D01*
X3451750Y246854D01*
X3451754Y246962D01*
X3451762Y247070D01*
X3451774Y247178D01*
X3451790Y247285D01*
X3451809Y247392D01*
X3451832Y247498D01*
X3451859Y247603D01*
X3451890Y247706D01*
X3451925Y247809D01*
X3451963Y247910D01*
X3452005Y248010D01*
X3452050Y248109D01*
X3452099Y248205D01*
X3452152Y248300D01*
X3452208Y248393D01*
X3452267Y248484D01*
X3452329Y248572D01*
X3452395Y248658D01*
X3452464Y248742D01*
X3452535Y248823D01*
X3452610Y248902D01*
X3452687Y248978D01*
X3452767Y249051D01*
X3452849Y249121D01*
X3452934Y249188D01*
X3453022Y249252D01*
X3453112Y249313D01*
X3453203Y249371D01*
X3453297Y249425D01*
X3453393Y249475D01*
X3453490Y249523D01*
X3453589Y249566D01*
X3453690Y249607D01*
X3453792Y249643D01*
X3453895Y249676D01*
X3454000Y249705D01*
X3454105Y249730D01*
X3454211Y249751D01*
X3454318Y249769D01*
X3454426Y249782D01*
X3454534Y249792D01*
X3454642Y249798D01*
X3454750Y249800D01*
X3498900Y330200D02*
X3505100Y330200D01*
X3505100Y336200D02*
X3498900Y336200D01*
X3498792Y336198D01*
X3498684Y336192D01*
X3498576Y336182D01*
X3498468Y336169D01*
X3498361Y336151D01*
X3498255Y336130D01*
X3498150Y336105D01*
X3498045Y336076D01*
X3497942Y336043D01*
X3497840Y336007D01*
X3497739Y335966D01*
X3497640Y335923D01*
X3497543Y335875D01*
X3497447Y335825D01*
X3497353Y335771D01*
X3497262Y335713D01*
X3497172Y335652D01*
X3497084Y335588D01*
X3496999Y335521D01*
X3496917Y335451D01*
X3496837Y335378D01*
X3496760Y335302D01*
X3496685Y335223D01*
X3496614Y335142D01*
X3496545Y335058D01*
X3496479Y334972D01*
X3496417Y334884D01*
X3496358Y334793D01*
X3496302Y334700D01*
X3496249Y334605D01*
X3496200Y334509D01*
X3496155Y334410D01*
X3496113Y334310D01*
X3496075Y334209D01*
X3496040Y334106D01*
X3496009Y334003D01*
X3495982Y333898D01*
X3495959Y333792D01*
X3495940Y333685D01*
X3495924Y333578D01*
X3495912Y333470D01*
X3495904Y333362D01*
X3495900Y333254D01*
X3495900Y333146D01*
X3495904Y333038D01*
X3495912Y332930D01*
X3495924Y332822D01*
X3495940Y332715D01*
X3495959Y332608D01*
X3495982Y332502D01*
X3496009Y332397D01*
X3496040Y332294D01*
X3496075Y332191D01*
X3496113Y332090D01*
X3496155Y331990D01*
X3496200Y331891D01*
X3496249Y331795D01*
X3496302Y331700D01*
X3496358Y331607D01*
X3496417Y331516D01*
X3496479Y331428D01*
X3496545Y331342D01*
X3496614Y331258D01*
X3496685Y331177D01*
X3496760Y331098D01*
X3496837Y331022D01*
X3496917Y330949D01*
X3496999Y330879D01*
X3497084Y330812D01*
X3497172Y330748D01*
X3497262Y330687D01*
X3497353Y330629D01*
X3497447Y330575D01*
X3497543Y330525D01*
X3497640Y330477D01*
X3497739Y330434D01*
X3497840Y330393D01*
X3497942Y330357D01*
X3498045Y330324D01*
X3498150Y330295D01*
X3498255Y330270D01*
X3498361Y330249D01*
X3498468Y330231D01*
X3498576Y330218D01*
X3498684Y330208D01*
X3498792Y330202D01*
X3498900Y330200D01*
X3505100Y330200D02*
X3505208Y330202D01*
X3505316Y330208D01*
X3505424Y330218D01*
X3505532Y330231D01*
X3505639Y330249D01*
X3505745Y330270D01*
X3505850Y330295D01*
X3505955Y330324D01*
X3506058Y330357D01*
X3506160Y330393D01*
X3506261Y330434D01*
X3506360Y330477D01*
X3506457Y330525D01*
X3506553Y330575D01*
X3506647Y330629D01*
X3506738Y330687D01*
X3506828Y330748D01*
X3506916Y330812D01*
X3507001Y330879D01*
X3507083Y330949D01*
X3507163Y331022D01*
X3507240Y331098D01*
X3507315Y331177D01*
X3507386Y331258D01*
X3507455Y331342D01*
X3507521Y331428D01*
X3507583Y331516D01*
X3507642Y331607D01*
X3507698Y331700D01*
X3507751Y331795D01*
X3507800Y331891D01*
X3507845Y331990D01*
X3507887Y332090D01*
X3507925Y332191D01*
X3507960Y332294D01*
X3507991Y332397D01*
X3508018Y332502D01*
X3508041Y332608D01*
X3508060Y332715D01*
X3508076Y332822D01*
X3508088Y332930D01*
X3508096Y333038D01*
X3508100Y333146D01*
X3508100Y333254D01*
X3508096Y333362D01*
X3508088Y333470D01*
X3508076Y333578D01*
X3508060Y333685D01*
X3508041Y333792D01*
X3508018Y333898D01*
X3507991Y334003D01*
X3507960Y334106D01*
X3507925Y334209D01*
X3507887Y334310D01*
X3507845Y334410D01*
X3507800Y334509D01*
X3507751Y334605D01*
X3507698Y334700D01*
X3507642Y334793D01*
X3507583Y334884D01*
X3507521Y334972D01*
X3507455Y335058D01*
X3507386Y335142D01*
X3507315Y335223D01*
X3507240Y335302D01*
X3507163Y335378D01*
X3507083Y335451D01*
X3507001Y335521D01*
X3506916Y335588D01*
X3506828Y335652D01*
X3506738Y335713D01*
X3506647Y335771D01*
X3506553Y335825D01*
X3506457Y335875D01*
X3506360Y335923D01*
X3506261Y335966D01*
X3506160Y336007D01*
X3506058Y336043D01*
X3505955Y336076D01*
X3505850Y336105D01*
X3505745Y336130D01*
X3505639Y336151D01*
X3505532Y336169D01*
X3505424Y336182D01*
X3505316Y336192D01*
X3505208Y336198D01*
X3505100Y336200D01*
X3465750Y330200D02*
X3454750Y330200D01*
X3454750Y336200D02*
X3465750Y336200D01*
X3465858Y336198D01*
X3465966Y336192D01*
X3466074Y336182D01*
X3466182Y336169D01*
X3466289Y336151D01*
X3466395Y336130D01*
X3466500Y336105D01*
X3466605Y336076D01*
X3466708Y336043D01*
X3466810Y336007D01*
X3466911Y335966D01*
X3467010Y335923D01*
X3467107Y335875D01*
X3467203Y335825D01*
X3467297Y335771D01*
X3467388Y335713D01*
X3467478Y335652D01*
X3467566Y335588D01*
X3467651Y335521D01*
X3467733Y335451D01*
X3467813Y335378D01*
X3467890Y335302D01*
X3467965Y335223D01*
X3468036Y335142D01*
X3468105Y335058D01*
X3468171Y334972D01*
X3468233Y334884D01*
X3468292Y334793D01*
X3468348Y334700D01*
X3468401Y334605D01*
X3468450Y334509D01*
X3468495Y334410D01*
X3468537Y334310D01*
X3468575Y334209D01*
X3468610Y334106D01*
X3468641Y334003D01*
X3468668Y333898D01*
X3468691Y333792D01*
X3468710Y333685D01*
X3468726Y333578D01*
X3468738Y333470D01*
X3468746Y333362D01*
X3468750Y333254D01*
X3468750Y333146D01*
X3468746Y333038D01*
X3468738Y332930D01*
X3468726Y332822D01*
X3468710Y332715D01*
X3468691Y332608D01*
X3468668Y332502D01*
X3468641Y332397D01*
X3468610Y332294D01*
X3468575Y332191D01*
X3468537Y332090D01*
X3468495Y331990D01*
X3468450Y331891D01*
X3468401Y331795D01*
X3468348Y331700D01*
X3468292Y331607D01*
X3468233Y331516D01*
X3468171Y331428D01*
X3468105Y331342D01*
X3468036Y331258D01*
X3467965Y331177D01*
X3467890Y331098D01*
X3467813Y331022D01*
X3467733Y330949D01*
X3467651Y330879D01*
X3467566Y330812D01*
X3467478Y330748D01*
X3467388Y330687D01*
X3467297Y330629D01*
X3467203Y330575D01*
X3467107Y330525D01*
X3467010Y330477D01*
X3466911Y330434D01*
X3466810Y330393D01*
X3466708Y330357D01*
X3466605Y330324D01*
X3466500Y330295D01*
X3466395Y330270D01*
X3466289Y330249D01*
X3466182Y330231D01*
X3466074Y330218D01*
X3465966Y330208D01*
X3465858Y330202D01*
X3465750Y330200D01*
X3454750Y330200D02*
X3454642Y330202D01*
X3454534Y330208D01*
X3454426Y330218D01*
X3454318Y330231D01*
X3454211Y330249D01*
X3454105Y330270D01*
X3454000Y330295D01*
X3453895Y330324D01*
X3453792Y330357D01*
X3453690Y330393D01*
X3453589Y330434D01*
X3453490Y330477D01*
X3453393Y330525D01*
X3453297Y330575D01*
X3453203Y330629D01*
X3453112Y330687D01*
X3453022Y330748D01*
X3452934Y330812D01*
X3452849Y330879D01*
X3452767Y330949D01*
X3452687Y331022D01*
X3452610Y331098D01*
X3452535Y331177D01*
X3452464Y331258D01*
X3452395Y331342D01*
X3452329Y331428D01*
X3452267Y331516D01*
X3452208Y331607D01*
X3452152Y331700D01*
X3452099Y331795D01*
X3452050Y331891D01*
X3452005Y331990D01*
X3451963Y332090D01*
X3451925Y332191D01*
X3451890Y332294D01*
X3451859Y332397D01*
X3451832Y332502D01*
X3451809Y332608D01*
X3451790Y332715D01*
X3451774Y332822D01*
X3451762Y332930D01*
X3451754Y333038D01*
X3451750Y333146D01*
X3451750Y333254D01*
X3451754Y333362D01*
X3451762Y333470D01*
X3451774Y333578D01*
X3451790Y333685D01*
X3451809Y333792D01*
X3451832Y333898D01*
X3451859Y334003D01*
X3451890Y334106D01*
X3451925Y334209D01*
X3451963Y334310D01*
X3452005Y334410D01*
X3452050Y334509D01*
X3452099Y334605D01*
X3452152Y334700D01*
X3452208Y334793D01*
X3452267Y334884D01*
X3452329Y334972D01*
X3452395Y335058D01*
X3452464Y335142D01*
X3452535Y335223D01*
X3452610Y335302D01*
X3452687Y335378D01*
X3452767Y335451D01*
X3452849Y335521D01*
X3452934Y335588D01*
X3453022Y335652D01*
X3453112Y335713D01*
X3453203Y335771D01*
X3453297Y335825D01*
X3453393Y335875D01*
X3453490Y335923D01*
X3453589Y335966D01*
X3453690Y336007D01*
X3453792Y336043D01*
X3453895Y336076D01*
X3454000Y336105D01*
X3454105Y336130D01*
X3454211Y336151D01*
X3454318Y336169D01*
X3454426Y336182D01*
X3454534Y336192D01*
X3454642Y336198D01*
X3454750Y336200D01*
D11*
X3494100Y470000D02*
X3494102Y470154D01*
X3494108Y470309D01*
X3494118Y470463D01*
X3494132Y470617D01*
X3494150Y470770D01*
X3494171Y470923D01*
X3494197Y471076D01*
X3494227Y471227D01*
X3494260Y471378D01*
X3494298Y471528D01*
X3494339Y471677D01*
X3494384Y471825D01*
X3494433Y471971D01*
X3494486Y472117D01*
X3494542Y472260D01*
X3494602Y472403D01*
X3494666Y472543D01*
X3494733Y472683D01*
X3494804Y472820D01*
X3494878Y472955D01*
X3494956Y473089D01*
X3495037Y473220D01*
X3495122Y473349D01*
X3495210Y473477D01*
X3495301Y473601D01*
X3495395Y473724D01*
X3495493Y473844D01*
X3495593Y473961D01*
X3495697Y474076D01*
X3495803Y474188D01*
X3495912Y474297D01*
X3496024Y474403D01*
X3496139Y474507D01*
X3496256Y474607D01*
X3496376Y474705D01*
X3496499Y474799D01*
X3496623Y474890D01*
X3496751Y474978D01*
X3496880Y475063D01*
X3497011Y475144D01*
X3497145Y475222D01*
X3497280Y475296D01*
X3497417Y475367D01*
X3497557Y475434D01*
X3497697Y475498D01*
X3497840Y475558D01*
X3497983Y475614D01*
X3498129Y475667D01*
X3498275Y475716D01*
X3498423Y475761D01*
X3498572Y475802D01*
X3498722Y475840D01*
X3498873Y475873D01*
X3499024Y475903D01*
X3499177Y475929D01*
X3499330Y475950D01*
X3499483Y475968D01*
X3499637Y475982D01*
X3499791Y475992D01*
X3499946Y475998D01*
X3500100Y476000D01*
X3500254Y475998D01*
X3500409Y475992D01*
X3500563Y475982D01*
X3500717Y475968D01*
X3500870Y475950D01*
X3501023Y475929D01*
X3501176Y475903D01*
X3501327Y475873D01*
X3501478Y475840D01*
X3501628Y475802D01*
X3501777Y475761D01*
X3501925Y475716D01*
X3502071Y475667D01*
X3502217Y475614D01*
X3502360Y475558D01*
X3502503Y475498D01*
X3502643Y475434D01*
X3502783Y475367D01*
X3502920Y475296D01*
X3503055Y475222D01*
X3503189Y475144D01*
X3503320Y475063D01*
X3503449Y474978D01*
X3503577Y474890D01*
X3503701Y474799D01*
X3503824Y474705D01*
X3503944Y474607D01*
X3504061Y474507D01*
X3504176Y474403D01*
X3504288Y474297D01*
X3504397Y474188D01*
X3504503Y474076D01*
X3504607Y473961D01*
X3504707Y473844D01*
X3504805Y473724D01*
X3504899Y473601D01*
X3504990Y473477D01*
X3505078Y473349D01*
X3505163Y473220D01*
X3505244Y473089D01*
X3505322Y472955D01*
X3505396Y472820D01*
X3505467Y472683D01*
X3505534Y472543D01*
X3505598Y472403D01*
X3505658Y472260D01*
X3505714Y472117D01*
X3505767Y471971D01*
X3505816Y471825D01*
X3505861Y471677D01*
X3505902Y471528D01*
X3505940Y471378D01*
X3505973Y471227D01*
X3506003Y471076D01*
X3506029Y470923D01*
X3506050Y470770D01*
X3506068Y470617D01*
X3506082Y470463D01*
X3506092Y470309D01*
X3506098Y470154D01*
X3506100Y470000D01*
X3506098Y469846D01*
X3506092Y469691D01*
X3506082Y469537D01*
X3506068Y469383D01*
X3506050Y469230D01*
X3506029Y469077D01*
X3506003Y468924D01*
X3505973Y468773D01*
X3505940Y468622D01*
X3505902Y468472D01*
X3505861Y468323D01*
X3505816Y468175D01*
X3505767Y468029D01*
X3505714Y467883D01*
X3505658Y467740D01*
X3505598Y467597D01*
X3505534Y467457D01*
X3505467Y467317D01*
X3505396Y467180D01*
X3505322Y467045D01*
X3505244Y466911D01*
X3505163Y466780D01*
X3505078Y466651D01*
X3504990Y466523D01*
X3504899Y466399D01*
X3504805Y466276D01*
X3504707Y466156D01*
X3504607Y466039D01*
X3504503Y465924D01*
X3504397Y465812D01*
X3504288Y465703D01*
X3504176Y465597D01*
X3504061Y465493D01*
X3503944Y465393D01*
X3503824Y465295D01*
X3503701Y465201D01*
X3503577Y465110D01*
X3503449Y465022D01*
X3503320Y464937D01*
X3503189Y464856D01*
X3503055Y464778D01*
X3502920Y464704D01*
X3502783Y464633D01*
X3502643Y464566D01*
X3502503Y464502D01*
X3502360Y464442D01*
X3502217Y464386D01*
X3502071Y464333D01*
X3501925Y464284D01*
X3501777Y464239D01*
X3501628Y464198D01*
X3501478Y464160D01*
X3501327Y464127D01*
X3501176Y464097D01*
X3501023Y464071D01*
X3500870Y464050D01*
X3500717Y464032D01*
X3500563Y464018D01*
X3500409Y464008D01*
X3500254Y464002D01*
X3500100Y464000D01*
X3499946Y464002D01*
X3499791Y464008D01*
X3499637Y464018D01*
X3499483Y464032D01*
X3499330Y464050D01*
X3499177Y464071D01*
X3499024Y464097D01*
X3498873Y464127D01*
X3498722Y464160D01*
X3498572Y464198D01*
X3498423Y464239D01*
X3498275Y464284D01*
X3498129Y464333D01*
X3497983Y464386D01*
X3497840Y464442D01*
X3497697Y464502D01*
X3497557Y464566D01*
X3497417Y464633D01*
X3497280Y464704D01*
X3497145Y464778D01*
X3497011Y464856D01*
X3496880Y464937D01*
X3496751Y465022D01*
X3496623Y465110D01*
X3496499Y465201D01*
X3496376Y465295D01*
X3496256Y465393D01*
X3496139Y465493D01*
X3496024Y465597D01*
X3495912Y465703D01*
X3495803Y465812D01*
X3495697Y465924D01*
X3495593Y466039D01*
X3495493Y466156D01*
X3495395Y466276D01*
X3495301Y466399D01*
X3495210Y466523D01*
X3495122Y466651D01*
X3495037Y466780D01*
X3494956Y466911D01*
X3494878Y467045D01*
X3494804Y467180D01*
X3494733Y467317D01*
X3494666Y467457D01*
X3494602Y467597D01*
X3494542Y467740D01*
X3494486Y467883D01*
X3494433Y468029D01*
X3494384Y468175D01*
X3494339Y468323D01*
X3494298Y468472D01*
X3494260Y468622D01*
X3494227Y468773D01*
X3494197Y468924D01*
X3494171Y469077D01*
X3494150Y469230D01*
X3494132Y469383D01*
X3494118Y469537D01*
X3494108Y469691D01*
X3494102Y469846D01*
X3494100Y470000D01*
X3424100Y470000D02*
X3424102Y470154D01*
X3424108Y470309D01*
X3424118Y470463D01*
X3424132Y470617D01*
X3424150Y470770D01*
X3424171Y470923D01*
X3424197Y471076D01*
X3424227Y471227D01*
X3424260Y471378D01*
X3424298Y471528D01*
X3424339Y471677D01*
X3424384Y471825D01*
X3424433Y471971D01*
X3424486Y472117D01*
X3424542Y472260D01*
X3424602Y472403D01*
X3424666Y472543D01*
X3424733Y472683D01*
X3424804Y472820D01*
X3424878Y472955D01*
X3424956Y473089D01*
X3425037Y473220D01*
X3425122Y473349D01*
X3425210Y473477D01*
X3425301Y473601D01*
X3425395Y473724D01*
X3425493Y473844D01*
X3425593Y473961D01*
X3425697Y474076D01*
X3425803Y474188D01*
X3425912Y474297D01*
X3426024Y474403D01*
X3426139Y474507D01*
X3426256Y474607D01*
X3426376Y474705D01*
X3426499Y474799D01*
X3426623Y474890D01*
X3426751Y474978D01*
X3426880Y475063D01*
X3427011Y475144D01*
X3427145Y475222D01*
X3427280Y475296D01*
X3427417Y475367D01*
X3427557Y475434D01*
X3427697Y475498D01*
X3427840Y475558D01*
X3427983Y475614D01*
X3428129Y475667D01*
X3428275Y475716D01*
X3428423Y475761D01*
X3428572Y475802D01*
X3428722Y475840D01*
X3428873Y475873D01*
X3429024Y475903D01*
X3429177Y475929D01*
X3429330Y475950D01*
X3429483Y475968D01*
X3429637Y475982D01*
X3429791Y475992D01*
X3429946Y475998D01*
X3430100Y476000D01*
X3430254Y475998D01*
X3430409Y475992D01*
X3430563Y475982D01*
X3430717Y475968D01*
X3430870Y475950D01*
X3431023Y475929D01*
X3431176Y475903D01*
X3431327Y475873D01*
X3431478Y475840D01*
X3431628Y475802D01*
X3431777Y475761D01*
X3431925Y475716D01*
X3432071Y475667D01*
X3432217Y475614D01*
X3432360Y475558D01*
X3432503Y475498D01*
X3432643Y475434D01*
X3432783Y475367D01*
X3432920Y475296D01*
X3433055Y475222D01*
X3433189Y475144D01*
X3433320Y475063D01*
X3433449Y474978D01*
X3433577Y474890D01*
X3433701Y474799D01*
X3433824Y474705D01*
X3433944Y474607D01*
X3434061Y474507D01*
X3434176Y474403D01*
X3434288Y474297D01*
X3434397Y474188D01*
X3434503Y474076D01*
X3434607Y473961D01*
X3434707Y473844D01*
X3434805Y473724D01*
X3434899Y473601D01*
X3434990Y473477D01*
X3435078Y473349D01*
X3435163Y473220D01*
X3435244Y473089D01*
X3435322Y472955D01*
X3435396Y472820D01*
X3435467Y472683D01*
X3435534Y472543D01*
X3435598Y472403D01*
X3435658Y472260D01*
X3435714Y472117D01*
X3435767Y471971D01*
X3435816Y471825D01*
X3435861Y471677D01*
X3435902Y471528D01*
X3435940Y471378D01*
X3435973Y471227D01*
X3436003Y471076D01*
X3436029Y470923D01*
X3436050Y470770D01*
X3436068Y470617D01*
X3436082Y470463D01*
X3436092Y470309D01*
X3436098Y470154D01*
X3436100Y470000D01*
X3436098Y469846D01*
X3436092Y469691D01*
X3436082Y469537D01*
X3436068Y469383D01*
X3436050Y469230D01*
X3436029Y469077D01*
X3436003Y468924D01*
X3435973Y468773D01*
X3435940Y468622D01*
X3435902Y468472D01*
X3435861Y468323D01*
X3435816Y468175D01*
X3435767Y468029D01*
X3435714Y467883D01*
X3435658Y467740D01*
X3435598Y467597D01*
X3435534Y467457D01*
X3435467Y467317D01*
X3435396Y467180D01*
X3435322Y467045D01*
X3435244Y466911D01*
X3435163Y466780D01*
X3435078Y466651D01*
X3434990Y466523D01*
X3434899Y466399D01*
X3434805Y466276D01*
X3434707Y466156D01*
X3434607Y466039D01*
X3434503Y465924D01*
X3434397Y465812D01*
X3434288Y465703D01*
X3434176Y465597D01*
X3434061Y465493D01*
X3433944Y465393D01*
X3433824Y465295D01*
X3433701Y465201D01*
X3433577Y465110D01*
X3433449Y465022D01*
X3433320Y464937D01*
X3433189Y464856D01*
X3433055Y464778D01*
X3432920Y464704D01*
X3432783Y464633D01*
X3432643Y464566D01*
X3432503Y464502D01*
X3432360Y464442D01*
X3432217Y464386D01*
X3432071Y464333D01*
X3431925Y464284D01*
X3431777Y464239D01*
X3431628Y464198D01*
X3431478Y464160D01*
X3431327Y464127D01*
X3431176Y464097D01*
X3431023Y464071D01*
X3430870Y464050D01*
X3430717Y464032D01*
X3430563Y464018D01*
X3430409Y464008D01*
X3430254Y464002D01*
X3430100Y464000D01*
X3429946Y464002D01*
X3429791Y464008D01*
X3429637Y464018D01*
X3429483Y464032D01*
X3429330Y464050D01*
X3429177Y464071D01*
X3429024Y464097D01*
X3428873Y464127D01*
X3428722Y464160D01*
X3428572Y464198D01*
X3428423Y464239D01*
X3428275Y464284D01*
X3428129Y464333D01*
X3427983Y464386D01*
X3427840Y464442D01*
X3427697Y464502D01*
X3427557Y464566D01*
X3427417Y464633D01*
X3427280Y464704D01*
X3427145Y464778D01*
X3427011Y464856D01*
X3426880Y464937D01*
X3426751Y465022D01*
X3426623Y465110D01*
X3426499Y465201D01*
X3426376Y465295D01*
X3426256Y465393D01*
X3426139Y465493D01*
X3426024Y465597D01*
X3425912Y465703D01*
X3425803Y465812D01*
X3425697Y465924D01*
X3425593Y466039D01*
X3425493Y466156D01*
X3425395Y466276D01*
X3425301Y466399D01*
X3425210Y466523D01*
X3425122Y466651D01*
X3425037Y466780D01*
X3424956Y466911D01*
X3424878Y467045D01*
X3424804Y467180D01*
X3424733Y467317D01*
X3424666Y467457D01*
X3424602Y467597D01*
X3424542Y467740D01*
X3424486Y467883D01*
X3424433Y468029D01*
X3424384Y468175D01*
X3424339Y468323D01*
X3424298Y468472D01*
X3424260Y468622D01*
X3424227Y468773D01*
X3424197Y468924D01*
X3424171Y469077D01*
X3424150Y469230D01*
X3424132Y469383D01*
X3424118Y469537D01*
X3424108Y469691D01*
X3424102Y469846D01*
X3424100Y470000D01*
X291800Y140000D02*
X291802Y140134D01*
X291808Y140268D01*
X291818Y140401D01*
X291832Y140535D01*
X291850Y140668D01*
X291872Y140800D01*
X291897Y140931D01*
X291927Y141062D01*
X291961Y141192D01*
X291998Y141320D01*
X292039Y141448D01*
X292084Y141574D01*
X292133Y141699D01*
X292185Y141822D01*
X292241Y141944D01*
X292301Y142064D01*
X292364Y142182D01*
X292431Y142298D01*
X292501Y142412D01*
X292575Y142524D01*
X292652Y142634D01*
X292732Y142742D01*
X292815Y142847D01*
X292901Y142949D01*
X292990Y143049D01*
X293083Y143146D01*
X293178Y143241D01*
X293276Y143332D01*
X293376Y143421D01*
X293479Y143506D01*
X293585Y143589D01*
X293693Y143668D01*
X293803Y143744D01*
X293916Y143817D01*
X294031Y143886D01*
X294147Y143952D01*
X294266Y144014D01*
X294386Y144073D01*
X294509Y144128D01*
X294632Y144180D01*
X294757Y144227D01*
X294884Y144271D01*
X295012Y144312D01*
X295141Y144348D01*
X295271Y144381D01*
X295402Y144409D01*
X295533Y144434D01*
X295666Y144455D01*
X295799Y144472D01*
X295932Y144485D01*
X296066Y144494D01*
X296200Y144499D01*
X296334Y144500D01*
X296467Y144497D01*
X296601Y144490D01*
X296735Y144479D01*
X296868Y144464D01*
X297001Y144445D01*
X297133Y144422D01*
X297264Y144396D01*
X297394Y144365D01*
X297524Y144330D01*
X297652Y144292D01*
X297779Y144250D01*
X297905Y144204D01*
X298030Y144154D01*
X298153Y144101D01*
X298274Y144044D01*
X298394Y143983D01*
X298511Y143919D01*
X298627Y143852D01*
X298741Y143781D01*
X298852Y143706D01*
X298961Y143629D01*
X299068Y143548D01*
X299173Y143464D01*
X299274Y143377D01*
X299374Y143287D01*
X299470Y143194D01*
X299564Y143098D01*
X299655Y142999D01*
X299742Y142898D01*
X299827Y142794D01*
X299909Y142688D01*
X299987Y142580D01*
X300062Y142469D01*
X300134Y142356D01*
X300203Y142240D01*
X300268Y142123D01*
X300329Y142004D01*
X300387Y141883D01*
X300441Y141761D01*
X300492Y141637D01*
X300539Y141511D01*
X300582Y141384D01*
X300621Y141256D01*
X300657Y141127D01*
X300688Y140997D01*
X300716Y140866D01*
X300740Y140734D01*
X300760Y140601D01*
X300776Y140468D01*
X300788Y140335D01*
X300796Y140201D01*
X300800Y140067D01*
X300800Y139933D01*
X300796Y139799D01*
X300788Y139665D01*
X300776Y139532D01*
X300760Y139399D01*
X300740Y139266D01*
X300716Y139134D01*
X300688Y139003D01*
X300657Y138873D01*
X300621Y138744D01*
X300582Y138616D01*
X300539Y138489D01*
X300492Y138363D01*
X300441Y138239D01*
X300387Y138117D01*
X300329Y137996D01*
X300268Y137877D01*
X300203Y137760D01*
X300134Y137644D01*
X300062Y137531D01*
X299987Y137420D01*
X299909Y137312D01*
X299827Y137206D01*
X299742Y137102D01*
X299655Y137001D01*
X299564Y136902D01*
X299470Y136806D01*
X299374Y136713D01*
X299274Y136623D01*
X299173Y136536D01*
X299068Y136452D01*
X298961Y136371D01*
X298852Y136294D01*
X298741Y136219D01*
X298627Y136148D01*
X298511Y136081D01*
X298394Y136017D01*
X298274Y135956D01*
X298153Y135899D01*
X298030Y135846D01*
X297905Y135796D01*
X297779Y135750D01*
X297652Y135708D01*
X297524Y135670D01*
X297394Y135635D01*
X297264Y135604D01*
X297133Y135578D01*
X297001Y135555D01*
X296868Y135536D01*
X296735Y135521D01*
X296601Y135510D01*
X296467Y135503D01*
X296334Y135500D01*
X296200Y135501D01*
X296066Y135506D01*
X295932Y135515D01*
X295799Y135528D01*
X295666Y135545D01*
X295533Y135566D01*
X295402Y135591D01*
X295271Y135619D01*
X295141Y135652D01*
X295012Y135688D01*
X294884Y135729D01*
X294757Y135773D01*
X294632Y135820D01*
X294509Y135872D01*
X294386Y135927D01*
X294266Y135986D01*
X294147Y136048D01*
X294031Y136114D01*
X293916Y136183D01*
X293803Y136256D01*
X293693Y136332D01*
X293585Y136411D01*
X293479Y136494D01*
X293376Y136579D01*
X293276Y136668D01*
X293178Y136759D01*
X293083Y136854D01*
X292990Y136951D01*
X292901Y137051D01*
X292815Y137153D01*
X292732Y137258D01*
X292652Y137366D01*
X292575Y137476D01*
X292501Y137588D01*
X292431Y137702D01*
X292364Y137818D01*
X292301Y137936D01*
X292241Y138056D01*
X292185Y138178D01*
X292133Y138301D01*
X292084Y138426D01*
X292039Y138552D01*
X291998Y138680D01*
X291961Y138808D01*
X291927Y138938D01*
X291897Y139069D01*
X291872Y139200D01*
X291850Y139332D01*
X291832Y139465D01*
X291818Y139599D01*
X291808Y139732D01*
X291802Y139866D01*
X291800Y140000D01*
X1871490Y2041500D02*
X1871495Y2041905D01*
X1871510Y2042310D01*
X1871535Y2042715D01*
X1871570Y2043118D01*
X1871614Y2043521D01*
X1871669Y2043923D01*
X1871733Y2044323D01*
X1871807Y2044721D01*
X1871891Y2045117D01*
X1871985Y2045512D01*
X1872088Y2045903D01*
X1872201Y2046293D01*
X1872323Y2046679D01*
X1872455Y2047062D01*
X1872596Y2047442D01*
X1872747Y2047818D01*
X1872906Y2048191D01*
X1873075Y2048559D01*
X1873253Y2048923D01*
X1873439Y2049283D01*
X1873635Y2049638D01*
X1873839Y2049988D01*
X1874051Y2050333D01*
X1874272Y2050672D01*
X1874502Y2051007D01*
X1874739Y2051335D01*
X1874984Y2051657D01*
X1875238Y2051974D01*
X1875498Y2052284D01*
X1875767Y2052587D01*
X1876043Y2052884D01*
X1876326Y2053174D01*
X1876616Y2053457D01*
X1876913Y2053733D01*
X1877216Y2054002D01*
X1877526Y2054262D01*
X1877843Y2054516D01*
X1878165Y2054761D01*
X1878493Y2054998D01*
X1878828Y2055228D01*
X1879167Y2055449D01*
X1879512Y2055661D01*
X1879862Y2055865D01*
X1880217Y2056061D01*
X1880577Y2056247D01*
X1880941Y2056425D01*
X1881309Y2056594D01*
X1881682Y2056753D01*
X1882058Y2056904D01*
X1882438Y2057045D01*
X1882821Y2057177D01*
X1883207Y2057299D01*
X1883597Y2057412D01*
X1883988Y2057515D01*
X1884383Y2057609D01*
X1884779Y2057693D01*
X1885177Y2057767D01*
X1885577Y2057831D01*
X1885979Y2057886D01*
X1886382Y2057930D01*
X1886785Y2057965D01*
X1887190Y2057990D01*
X1887595Y2058005D01*
X1888000Y2058010D01*
X1888405Y2058005D01*
X1888810Y2057990D01*
X1889215Y2057965D01*
X1889618Y2057930D01*
X1890021Y2057886D01*
X1890423Y2057831D01*
X1890823Y2057767D01*
X1891221Y2057693D01*
X1891617Y2057609D01*
X1892012Y2057515D01*
X1892403Y2057412D01*
X1892793Y2057299D01*
X1893179Y2057177D01*
X1893562Y2057045D01*
X1893942Y2056904D01*
X1894318Y2056753D01*
X1894691Y2056594D01*
X1895059Y2056425D01*
X1895423Y2056247D01*
X1895783Y2056061D01*
X1896138Y2055865D01*
X1896488Y2055661D01*
X1896833Y2055449D01*
X1897172Y2055228D01*
X1897507Y2054998D01*
X1897835Y2054761D01*
X1898157Y2054516D01*
X1898474Y2054262D01*
X1898784Y2054002D01*
X1899087Y2053733D01*
X1899384Y2053457D01*
X1899674Y2053174D01*
X1899957Y2052884D01*
X1900233Y2052587D01*
X1900502Y2052284D01*
X1900762Y2051974D01*
X1901016Y2051657D01*
X1901261Y2051335D01*
X1901498Y2051007D01*
X1901728Y2050672D01*
X1901949Y2050333D01*
X1902161Y2049988D01*
X1902365Y2049638D01*
X1902561Y2049283D01*
X1902747Y2048923D01*
X1902925Y2048559D01*
X1903094Y2048191D01*
X1903253Y2047818D01*
X1903404Y2047442D01*
X1903545Y2047062D01*
X1903677Y2046679D01*
X1903799Y2046293D01*
X1903912Y2045903D01*
X1904015Y2045512D01*
X1904109Y2045117D01*
X1904193Y2044721D01*
X1904267Y2044323D01*
X1904331Y2043923D01*
X1904386Y2043521D01*
X1904430Y2043118D01*
X1904465Y2042715D01*
X1904490Y2042310D01*
X1904505Y2041905D01*
X1904510Y2041500D01*
X1904505Y2041095D01*
X1904490Y2040690D01*
X1904465Y2040285D01*
X1904430Y2039882D01*
X1904386Y2039479D01*
X1904331Y2039077D01*
X1904267Y2038677D01*
X1904193Y2038279D01*
X1904109Y2037883D01*
X1904015Y2037488D01*
X1903912Y2037097D01*
X1903799Y2036707D01*
X1903677Y2036321D01*
X1903545Y2035938D01*
X1903404Y2035558D01*
X1903253Y2035182D01*
X1903094Y2034809D01*
X1902925Y2034441D01*
X1902747Y2034077D01*
X1902561Y2033717D01*
X1902365Y2033362D01*
X1902161Y2033012D01*
X1901949Y2032667D01*
X1901728Y2032328D01*
X1901498Y2031993D01*
X1901261Y2031665D01*
X1901016Y2031343D01*
X1900762Y2031026D01*
X1900502Y2030716D01*
X1900233Y2030413D01*
X1899957Y2030116D01*
X1899674Y2029826D01*
X1899384Y2029543D01*
X1899087Y2029267D01*
X1898784Y2028998D01*
X1898474Y2028738D01*
X1898157Y2028484D01*
X1897835Y2028239D01*
X1897507Y2028002D01*
X1897172Y2027772D01*
X1896833Y2027551D01*
X1896488Y2027339D01*
X1896138Y2027135D01*
X1895783Y2026939D01*
X1895423Y2026753D01*
X1895059Y2026575D01*
X1894691Y2026406D01*
X1894318Y2026247D01*
X1893942Y2026096D01*
X1893562Y2025955D01*
X1893179Y2025823D01*
X1892793Y2025701D01*
X1892403Y2025588D01*
X1892012Y2025485D01*
X1891617Y2025391D01*
X1891221Y2025307D01*
X1890823Y2025233D01*
X1890423Y2025169D01*
X1890021Y2025114D01*
X1889618Y2025070D01*
X1889215Y2025035D01*
X1888810Y2025010D01*
X1888405Y2024995D01*
X1888000Y2024990D01*
X1887595Y2024995D01*
X1887190Y2025010D01*
X1886785Y2025035D01*
X1886382Y2025070D01*
X1885979Y2025114D01*
X1885577Y2025169D01*
X1885177Y2025233D01*
X1884779Y2025307D01*
X1884383Y2025391D01*
X1883988Y2025485D01*
X1883597Y2025588D01*
X1883207Y2025701D01*
X1882821Y2025823D01*
X1882438Y2025955D01*
X1882058Y2026096D01*
X1881682Y2026247D01*
X1881309Y2026406D01*
X1880941Y2026575D01*
X1880577Y2026753D01*
X1880217Y2026939D01*
X1879862Y2027135D01*
X1879512Y2027339D01*
X1879167Y2027551D01*
X1878828Y2027772D01*
X1878493Y2028002D01*
X1878165Y2028239D01*
X1877843Y2028484D01*
X1877526Y2028738D01*
X1877216Y2028998D01*
X1876913Y2029267D01*
X1876616Y2029543D01*
X1876326Y2029826D01*
X1876043Y2030116D01*
X1875767Y2030413D01*
X1875498Y2030716D01*
X1875238Y2031026D01*
X1874984Y2031343D01*
X1874739Y2031665D01*
X1874502Y2031993D01*
X1874272Y2032328D01*
X1874051Y2032667D01*
X1873839Y2033012D01*
X1873635Y2033362D01*
X1873439Y2033717D01*
X1873253Y2034077D01*
X1873075Y2034441D01*
X1872906Y2034809D01*
X1872747Y2035182D01*
X1872596Y2035558D01*
X1872455Y2035938D01*
X1872323Y2036321D01*
X1872201Y2036707D01*
X1872088Y2037097D01*
X1871985Y2037488D01*
X1871891Y2037883D01*
X1871807Y2038279D01*
X1871733Y2038677D01*
X1871669Y2039077D01*
X1871614Y2039479D01*
X1871570Y2039882D01*
X1871535Y2040285D01*
X1871510Y2040690D01*
X1871495Y2041095D01*
X1871490Y2041500D01*
X1511590Y77500D02*
X1511595Y77905D01*
X1511610Y78310D01*
X1511635Y78715D01*
X1511670Y79118D01*
X1511714Y79521D01*
X1511769Y79923D01*
X1511833Y80323D01*
X1511907Y80721D01*
X1511991Y81117D01*
X1512085Y81512D01*
X1512188Y81903D01*
X1512301Y82293D01*
X1512423Y82679D01*
X1512555Y83062D01*
X1512696Y83442D01*
X1512847Y83818D01*
X1513006Y84191D01*
X1513175Y84559D01*
X1513353Y84923D01*
X1513539Y85283D01*
X1513735Y85638D01*
X1513939Y85988D01*
X1514151Y86333D01*
X1514372Y86672D01*
X1514602Y87007D01*
X1514839Y87335D01*
X1515084Y87657D01*
X1515338Y87974D01*
X1515598Y88284D01*
X1515867Y88587D01*
X1516143Y88884D01*
X1516426Y89174D01*
X1516716Y89457D01*
X1517013Y89733D01*
X1517316Y90002D01*
X1517626Y90262D01*
X1517943Y90516D01*
X1518265Y90761D01*
X1518593Y90998D01*
X1518928Y91228D01*
X1519267Y91449D01*
X1519612Y91661D01*
X1519962Y91865D01*
X1520317Y92061D01*
X1520677Y92247D01*
X1521041Y92425D01*
X1521409Y92594D01*
X1521782Y92753D01*
X1522158Y92904D01*
X1522538Y93045D01*
X1522921Y93177D01*
X1523307Y93299D01*
X1523697Y93412D01*
X1524088Y93515D01*
X1524483Y93609D01*
X1524879Y93693D01*
X1525277Y93767D01*
X1525677Y93831D01*
X1526079Y93886D01*
X1526482Y93930D01*
X1526885Y93965D01*
X1527290Y93990D01*
X1527695Y94005D01*
X1528100Y94010D01*
X1528505Y94005D01*
X1528910Y93990D01*
X1529315Y93965D01*
X1529718Y93930D01*
X1530121Y93886D01*
X1530523Y93831D01*
X1530923Y93767D01*
X1531321Y93693D01*
X1531717Y93609D01*
X1532112Y93515D01*
X1532503Y93412D01*
X1532893Y93299D01*
X1533279Y93177D01*
X1533662Y93045D01*
X1534042Y92904D01*
X1534418Y92753D01*
X1534791Y92594D01*
X1535159Y92425D01*
X1535523Y92247D01*
X1535883Y92061D01*
X1536238Y91865D01*
X1536588Y91661D01*
X1536933Y91449D01*
X1537272Y91228D01*
X1537607Y90998D01*
X1537935Y90761D01*
X1538257Y90516D01*
X1538574Y90262D01*
X1538884Y90002D01*
X1539187Y89733D01*
X1539484Y89457D01*
X1539774Y89174D01*
X1540057Y88884D01*
X1540333Y88587D01*
X1540602Y88284D01*
X1540862Y87974D01*
X1541116Y87657D01*
X1541361Y87335D01*
X1541598Y87007D01*
X1541828Y86672D01*
X1542049Y86333D01*
X1542261Y85988D01*
X1542465Y85638D01*
X1542661Y85283D01*
X1542847Y84923D01*
X1543025Y84559D01*
X1543194Y84191D01*
X1543353Y83818D01*
X1543504Y83442D01*
X1543645Y83062D01*
X1543777Y82679D01*
X1543899Y82293D01*
X1544012Y81903D01*
X1544115Y81512D01*
X1544209Y81117D01*
X1544293Y80721D01*
X1544367Y80323D01*
X1544431Y79923D01*
X1544486Y79521D01*
X1544530Y79118D01*
X1544565Y78715D01*
X1544590Y78310D01*
X1544605Y77905D01*
X1544610Y77500D01*
X1544605Y77095D01*
X1544590Y76690D01*
X1544565Y76285D01*
X1544530Y75882D01*
X1544486Y75479D01*
X1544431Y75077D01*
X1544367Y74677D01*
X1544293Y74279D01*
X1544209Y73883D01*
X1544115Y73488D01*
X1544012Y73097D01*
X1543899Y72707D01*
X1543777Y72321D01*
X1543645Y71938D01*
X1543504Y71558D01*
X1543353Y71182D01*
X1543194Y70809D01*
X1543025Y70441D01*
X1542847Y70077D01*
X1542661Y69717D01*
X1542465Y69362D01*
X1542261Y69012D01*
X1542049Y68667D01*
X1541828Y68328D01*
X1541598Y67993D01*
X1541361Y67665D01*
X1541116Y67343D01*
X1540862Y67026D01*
X1540602Y66716D01*
X1540333Y66413D01*
X1540057Y66116D01*
X1539774Y65826D01*
X1539484Y65543D01*
X1539187Y65267D01*
X1538884Y64998D01*
X1538574Y64738D01*
X1538257Y64484D01*
X1537935Y64239D01*
X1537607Y64002D01*
X1537272Y63772D01*
X1536933Y63551D01*
X1536588Y63339D01*
X1536238Y63135D01*
X1535883Y62939D01*
X1535523Y62753D01*
X1535159Y62575D01*
X1534791Y62406D01*
X1534418Y62247D01*
X1534042Y62096D01*
X1533662Y61955D01*
X1533279Y61823D01*
X1532893Y61701D01*
X1532503Y61588D01*
X1532112Y61485D01*
X1531717Y61391D01*
X1531321Y61307D01*
X1530923Y61233D01*
X1530523Y61169D01*
X1530121Y61114D01*
X1529718Y61070D01*
X1529315Y61035D01*
X1528910Y61010D01*
X1528505Y60995D01*
X1528100Y60990D01*
X1527695Y60995D01*
X1527290Y61010D01*
X1526885Y61035D01*
X1526482Y61070D01*
X1526079Y61114D01*
X1525677Y61169D01*
X1525277Y61233D01*
X1524879Y61307D01*
X1524483Y61391D01*
X1524088Y61485D01*
X1523697Y61588D01*
X1523307Y61701D01*
X1522921Y61823D01*
X1522538Y61955D01*
X1522158Y62096D01*
X1521782Y62247D01*
X1521409Y62406D01*
X1521041Y62575D01*
X1520677Y62753D01*
X1520317Y62939D01*
X1519962Y63135D01*
X1519612Y63339D01*
X1519267Y63551D01*
X1518928Y63772D01*
X1518593Y64002D01*
X1518265Y64239D01*
X1517943Y64484D01*
X1517626Y64738D01*
X1517316Y64998D01*
X1517013Y65267D01*
X1516716Y65543D01*
X1516426Y65826D01*
X1516143Y66116D01*
X1515867Y66413D01*
X1515598Y66716D01*
X1515338Y67026D01*
X1515084Y67343D01*
X1514839Y67665D01*
X1514602Y67993D01*
X1514372Y68328D01*
X1514151Y68667D01*
X1513939Y69012D01*
X1513735Y69362D01*
X1513539Y69717D01*
X1513353Y70077D01*
X1513175Y70441D01*
X1513006Y70809D01*
X1512847Y71182D01*
X1512696Y71558D01*
X1512555Y71938D01*
X1512423Y72321D01*
X1512301Y72707D01*
X1512188Y73097D01*
X1512085Y73488D01*
X1511991Y73883D01*
X1511907Y74279D01*
X1511833Y74677D01*
X1511769Y75077D01*
X1511714Y75479D01*
X1511670Y75882D01*
X1511635Y76285D01*
X1511610Y76690D01*
X1511595Y77095D01*
X1511590Y77500D01*
X3322090Y2041500D02*
X3322095Y2041905D01*
X3322110Y2042310D01*
X3322135Y2042715D01*
X3322170Y2043118D01*
X3322214Y2043521D01*
X3322269Y2043923D01*
X3322333Y2044323D01*
X3322407Y2044721D01*
X3322491Y2045117D01*
X3322585Y2045512D01*
X3322688Y2045903D01*
X3322801Y2046293D01*
X3322923Y2046679D01*
X3323055Y2047062D01*
X3323196Y2047442D01*
X3323347Y2047818D01*
X3323506Y2048191D01*
X3323675Y2048559D01*
X3323853Y2048923D01*
X3324039Y2049283D01*
X3324235Y2049638D01*
X3324439Y2049988D01*
X3324651Y2050333D01*
X3324872Y2050672D01*
X3325102Y2051007D01*
X3325339Y2051335D01*
X3325584Y2051657D01*
X3325838Y2051974D01*
X3326098Y2052284D01*
X3326367Y2052587D01*
X3326643Y2052884D01*
X3326926Y2053174D01*
X3327216Y2053457D01*
X3327513Y2053733D01*
X3327816Y2054002D01*
X3328126Y2054262D01*
X3328443Y2054516D01*
X3328765Y2054761D01*
X3329093Y2054998D01*
X3329428Y2055228D01*
X3329767Y2055449D01*
X3330112Y2055661D01*
X3330462Y2055865D01*
X3330817Y2056061D01*
X3331177Y2056247D01*
X3331541Y2056425D01*
X3331909Y2056594D01*
X3332282Y2056753D01*
X3332658Y2056904D01*
X3333038Y2057045D01*
X3333421Y2057177D01*
X3333807Y2057299D01*
X3334197Y2057412D01*
X3334588Y2057515D01*
X3334983Y2057609D01*
X3335379Y2057693D01*
X3335777Y2057767D01*
X3336177Y2057831D01*
X3336579Y2057886D01*
X3336982Y2057930D01*
X3337385Y2057965D01*
X3337790Y2057990D01*
X3338195Y2058005D01*
X3338600Y2058010D01*
X3339005Y2058005D01*
X3339410Y2057990D01*
X3339815Y2057965D01*
X3340218Y2057930D01*
X3340621Y2057886D01*
X3341023Y2057831D01*
X3341423Y2057767D01*
X3341821Y2057693D01*
X3342217Y2057609D01*
X3342612Y2057515D01*
X3343003Y2057412D01*
X3343393Y2057299D01*
X3343779Y2057177D01*
X3344162Y2057045D01*
X3344542Y2056904D01*
X3344918Y2056753D01*
X3345291Y2056594D01*
X3345659Y2056425D01*
X3346023Y2056247D01*
X3346383Y2056061D01*
X3346738Y2055865D01*
X3347088Y2055661D01*
X3347433Y2055449D01*
X3347772Y2055228D01*
X3348107Y2054998D01*
X3348435Y2054761D01*
X3348757Y2054516D01*
X3349074Y2054262D01*
X3349384Y2054002D01*
X3349687Y2053733D01*
X3349984Y2053457D01*
X3350274Y2053174D01*
X3350557Y2052884D01*
X3350833Y2052587D01*
X3351102Y2052284D01*
X3351362Y2051974D01*
X3351616Y2051657D01*
X3351861Y2051335D01*
X3352098Y2051007D01*
X3352328Y2050672D01*
X3352549Y2050333D01*
X3352761Y2049988D01*
X3352965Y2049638D01*
X3353161Y2049283D01*
X3353347Y2048923D01*
X3353525Y2048559D01*
X3353694Y2048191D01*
X3353853Y2047818D01*
X3354004Y2047442D01*
X3354145Y2047062D01*
X3354277Y2046679D01*
X3354399Y2046293D01*
X3354512Y2045903D01*
X3354615Y2045512D01*
X3354709Y2045117D01*
X3354793Y2044721D01*
X3354867Y2044323D01*
X3354931Y2043923D01*
X3354986Y2043521D01*
X3355030Y2043118D01*
X3355065Y2042715D01*
X3355090Y2042310D01*
X3355105Y2041905D01*
X3355110Y2041500D01*
X3355105Y2041095D01*
X3355090Y2040690D01*
X3355065Y2040285D01*
X3355030Y2039882D01*
X3354986Y2039479D01*
X3354931Y2039077D01*
X3354867Y2038677D01*
X3354793Y2038279D01*
X3354709Y2037883D01*
X3354615Y2037488D01*
X3354512Y2037097D01*
X3354399Y2036707D01*
X3354277Y2036321D01*
X3354145Y2035938D01*
X3354004Y2035558D01*
X3353853Y2035182D01*
X3353694Y2034809D01*
X3353525Y2034441D01*
X3353347Y2034077D01*
X3353161Y2033717D01*
X3352965Y2033362D01*
X3352761Y2033012D01*
X3352549Y2032667D01*
X3352328Y2032328D01*
X3352098Y2031993D01*
X3351861Y2031665D01*
X3351616Y2031343D01*
X3351362Y2031026D01*
X3351102Y2030716D01*
X3350833Y2030413D01*
X3350557Y2030116D01*
X3350274Y2029826D01*
X3349984Y2029543D01*
X3349687Y2029267D01*
X3349384Y2028998D01*
X3349074Y2028738D01*
X3348757Y2028484D01*
X3348435Y2028239D01*
X3348107Y2028002D01*
X3347772Y2027772D01*
X3347433Y2027551D01*
X3347088Y2027339D01*
X3346738Y2027135D01*
X3346383Y2026939D01*
X3346023Y2026753D01*
X3345659Y2026575D01*
X3345291Y2026406D01*
X3344918Y2026247D01*
X3344542Y2026096D01*
X3344162Y2025955D01*
X3343779Y2025823D01*
X3343393Y2025701D01*
X3343003Y2025588D01*
X3342612Y2025485D01*
X3342217Y2025391D01*
X3341821Y2025307D01*
X3341423Y2025233D01*
X3341023Y2025169D01*
X3340621Y2025114D01*
X3340218Y2025070D01*
X3339815Y2025035D01*
X3339410Y2025010D01*
X3339005Y2024995D01*
X3338600Y2024990D01*
X3338195Y2024995D01*
X3337790Y2025010D01*
X3337385Y2025035D01*
X3336982Y2025070D01*
X3336579Y2025114D01*
X3336177Y2025169D01*
X3335777Y2025233D01*
X3335379Y2025307D01*
X3334983Y2025391D01*
X3334588Y2025485D01*
X3334197Y2025588D01*
X3333807Y2025701D01*
X3333421Y2025823D01*
X3333038Y2025955D01*
X3332658Y2026096D01*
X3332282Y2026247D01*
X3331909Y2026406D01*
X3331541Y2026575D01*
X3331177Y2026753D01*
X3330817Y2026939D01*
X3330462Y2027135D01*
X3330112Y2027339D01*
X3329767Y2027551D01*
X3329428Y2027772D01*
X3329093Y2028002D01*
X3328765Y2028239D01*
X3328443Y2028484D01*
X3328126Y2028738D01*
X3327816Y2028998D01*
X3327513Y2029267D01*
X3327216Y2029543D01*
X3326926Y2029826D01*
X3326643Y2030116D01*
X3326367Y2030413D01*
X3326098Y2030716D01*
X3325838Y2031026D01*
X3325584Y2031343D01*
X3325339Y2031665D01*
X3325102Y2031993D01*
X3324872Y2032328D01*
X3324651Y2032667D01*
X3324439Y2033012D01*
X3324235Y2033362D01*
X3324039Y2033717D01*
X3323853Y2034077D01*
X3323675Y2034441D01*
X3323506Y2034809D01*
X3323347Y2035182D01*
X3323196Y2035558D01*
X3323055Y2035938D01*
X3322923Y2036321D01*
X3322801Y2036707D01*
X3322688Y2037097D01*
X3322585Y2037488D01*
X3322491Y2037883D01*
X3322407Y2038279D01*
X3322333Y2038677D01*
X3322269Y2039077D01*
X3322214Y2039479D01*
X3322170Y2039882D01*
X3322135Y2040285D01*
X3322110Y2040690D01*
X3322095Y2041095D01*
X3322090Y2041500D01*
X60990Y2041500D02*
X60995Y2041905D01*
X61010Y2042310D01*
X61035Y2042715D01*
X61070Y2043118D01*
X61114Y2043521D01*
X61169Y2043923D01*
X61233Y2044323D01*
X61307Y2044721D01*
X61391Y2045117D01*
X61485Y2045512D01*
X61588Y2045903D01*
X61701Y2046293D01*
X61823Y2046679D01*
X61955Y2047062D01*
X62096Y2047442D01*
X62247Y2047818D01*
X62406Y2048191D01*
X62575Y2048559D01*
X62753Y2048923D01*
X62939Y2049283D01*
X63135Y2049638D01*
X63339Y2049988D01*
X63551Y2050333D01*
X63772Y2050672D01*
X64002Y2051007D01*
X64239Y2051335D01*
X64484Y2051657D01*
X64738Y2051974D01*
X64998Y2052284D01*
X65267Y2052587D01*
X65543Y2052884D01*
X65826Y2053174D01*
X66116Y2053457D01*
X66413Y2053733D01*
X66716Y2054002D01*
X67026Y2054262D01*
X67343Y2054516D01*
X67665Y2054761D01*
X67993Y2054998D01*
X68328Y2055228D01*
X68667Y2055449D01*
X69012Y2055661D01*
X69362Y2055865D01*
X69717Y2056061D01*
X70077Y2056247D01*
X70441Y2056425D01*
X70809Y2056594D01*
X71182Y2056753D01*
X71558Y2056904D01*
X71938Y2057045D01*
X72321Y2057177D01*
X72707Y2057299D01*
X73097Y2057412D01*
X73488Y2057515D01*
X73883Y2057609D01*
X74279Y2057693D01*
X74677Y2057767D01*
X75077Y2057831D01*
X75479Y2057886D01*
X75882Y2057930D01*
X76285Y2057965D01*
X76690Y2057990D01*
X77095Y2058005D01*
X77500Y2058010D01*
X77905Y2058005D01*
X78310Y2057990D01*
X78715Y2057965D01*
X79118Y2057930D01*
X79521Y2057886D01*
X79923Y2057831D01*
X80323Y2057767D01*
X80721Y2057693D01*
X81117Y2057609D01*
X81512Y2057515D01*
X81903Y2057412D01*
X82293Y2057299D01*
X82679Y2057177D01*
X83062Y2057045D01*
X83442Y2056904D01*
X83818Y2056753D01*
X84191Y2056594D01*
X84559Y2056425D01*
X84923Y2056247D01*
X85283Y2056061D01*
X85638Y2055865D01*
X85988Y2055661D01*
X86333Y2055449D01*
X86672Y2055228D01*
X87007Y2054998D01*
X87335Y2054761D01*
X87657Y2054516D01*
X87974Y2054262D01*
X88284Y2054002D01*
X88587Y2053733D01*
X88884Y2053457D01*
X89174Y2053174D01*
X89457Y2052884D01*
X89733Y2052587D01*
X90002Y2052284D01*
X90262Y2051974D01*
X90516Y2051657D01*
X90761Y2051335D01*
X90998Y2051007D01*
X91228Y2050672D01*
X91449Y2050333D01*
X91661Y2049988D01*
X91865Y2049638D01*
X92061Y2049283D01*
X92247Y2048923D01*
X92425Y2048559D01*
X92594Y2048191D01*
X92753Y2047818D01*
X92904Y2047442D01*
X93045Y2047062D01*
X93177Y2046679D01*
X93299Y2046293D01*
X93412Y2045903D01*
X93515Y2045512D01*
X93609Y2045117D01*
X93693Y2044721D01*
X93767Y2044323D01*
X93831Y2043923D01*
X93886Y2043521D01*
X93930Y2043118D01*
X93965Y2042715D01*
X93990Y2042310D01*
X94005Y2041905D01*
X94010Y2041500D01*
X94005Y2041095D01*
X93990Y2040690D01*
X93965Y2040285D01*
X93930Y2039882D01*
X93886Y2039479D01*
X93831Y2039077D01*
X93767Y2038677D01*
X93693Y2038279D01*
X93609Y2037883D01*
X93515Y2037488D01*
X93412Y2037097D01*
X93299Y2036707D01*
X93177Y2036321D01*
X93045Y2035938D01*
X92904Y2035558D01*
X92753Y2035182D01*
X92594Y2034809D01*
X92425Y2034441D01*
X92247Y2034077D01*
X92061Y2033717D01*
X91865Y2033362D01*
X91661Y2033012D01*
X91449Y2032667D01*
X91228Y2032328D01*
X90998Y2031993D01*
X90761Y2031665D01*
X90516Y2031343D01*
X90262Y2031026D01*
X90002Y2030716D01*
X89733Y2030413D01*
X89457Y2030116D01*
X89174Y2029826D01*
X88884Y2029543D01*
X88587Y2029267D01*
X88284Y2028998D01*
X87974Y2028738D01*
X87657Y2028484D01*
X87335Y2028239D01*
X87007Y2028002D01*
X86672Y2027772D01*
X86333Y2027551D01*
X85988Y2027339D01*
X85638Y2027135D01*
X85283Y2026939D01*
X84923Y2026753D01*
X84559Y2026575D01*
X84191Y2026406D01*
X83818Y2026247D01*
X83442Y2026096D01*
X83062Y2025955D01*
X82679Y2025823D01*
X82293Y2025701D01*
X81903Y2025588D01*
X81512Y2025485D01*
X81117Y2025391D01*
X80721Y2025307D01*
X80323Y2025233D01*
X79923Y2025169D01*
X79521Y2025114D01*
X79118Y2025070D01*
X78715Y2025035D01*
X78310Y2025010D01*
X77905Y2024995D01*
X77500Y2024990D01*
X77095Y2024995D01*
X76690Y2025010D01*
X76285Y2025035D01*
X75882Y2025070D01*
X75479Y2025114D01*
X75077Y2025169D01*
X74677Y2025233D01*
X74279Y2025307D01*
X73883Y2025391D01*
X73488Y2025485D01*
X73097Y2025588D01*
X72707Y2025701D01*
X72321Y2025823D01*
X71938Y2025955D01*
X71558Y2026096D01*
X71182Y2026247D01*
X70809Y2026406D01*
X70441Y2026575D01*
X70077Y2026753D01*
X69717Y2026939D01*
X69362Y2027135D01*
X69012Y2027339D01*
X68667Y2027551D01*
X68328Y2027772D01*
X67993Y2028002D01*
X67665Y2028239D01*
X67343Y2028484D01*
X67026Y2028738D01*
X66716Y2028998D01*
X66413Y2029267D01*
X66116Y2029543D01*
X65826Y2029826D01*
X65543Y2030116D01*
X65267Y2030413D01*
X64998Y2030716D01*
X64738Y2031026D01*
X64484Y2031343D01*
X64239Y2031665D01*
X64002Y2031993D01*
X63772Y2032328D01*
X63551Y2032667D01*
X63339Y2033012D01*
X63135Y2033362D01*
X62939Y2033717D01*
X62753Y2034077D01*
X62575Y2034441D01*
X62406Y2034809D01*
X62247Y2035182D01*
X62096Y2035558D01*
X61955Y2035938D01*
X61823Y2036321D01*
X61701Y2036707D01*
X61588Y2037097D01*
X61485Y2037488D01*
X61391Y2037883D01*
X61307Y2038279D01*
X61233Y2038677D01*
X61169Y2039077D01*
X61114Y2039479D01*
X61070Y2039882D01*
X61035Y2040285D01*
X61010Y2040690D01*
X60995Y2041095D01*
X60990Y2041500D01*
D13*
X0Y0D02*
X585630Y0D01*
X585630Y233200D01*
X645320Y233200D01*
X645320Y0D01*
X3416100Y0D01*
X3416100Y230000D01*
X3516100Y230000D01*
X3516100Y530000D01*
X3416100Y530000D01*
X3416100Y2119100D01*
X0Y2119100D01*
X0Y0D01*
X3454750Y330200D02*
X3465750Y330200D01*
X3466011Y330211D01*
X3466271Y330246D01*
X3466526Y330302D01*
X3466776Y330381D01*
X3467018Y330481D01*
X3467250Y330602D01*
X3467471Y330743D01*
X3467678Y330902D01*
X3467871Y331079D01*
X3468048Y331272D01*
X3468207Y331479D01*
X3468348Y331700D01*
X3468469Y331932D01*
X3468569Y332174D01*
X3468648Y332424D01*
X3468704Y332679D01*
X3468739Y332939D01*
X3468750Y333200D01*
X3468739Y333461D01*
X3468704Y333721D01*
X3468648Y333976D01*
X3468569Y334226D01*
X3468469Y334468D01*
X3468348Y334700D01*
X3468207Y334921D01*
X3468048Y335128D01*
X3467871Y335321D01*
X3467678Y335498D01*
X3467471Y335657D01*
X3467250Y335798D01*
X3467018Y335919D01*
X3466776Y336019D01*
X3466526Y336098D01*
X3466271Y336154D01*
X3466011Y336189D01*
X3465750Y336200D01*
X3454750Y336200D01*
X3454489Y336189D01*
X3454229Y336154D01*
X3453974Y336098D01*
X3453724Y336019D01*
X3453482Y335919D01*
X3453250Y335798D01*
X3453029Y335657D01*
X3452822Y335498D01*
X3452629Y335321D01*
X3452452Y335128D01*
X3452293Y334921D01*
X3452152Y334700D01*
X3452031Y334468D01*
X3451931Y334226D01*
X3451852Y333976D01*
X3451796Y333721D01*
X3451761Y333461D01*
X3451750Y333200D01*
X3451761Y332939D01*
X3451796Y332679D01*
X3451852Y332424D01*
X3451931Y332174D01*
X3452031Y331932D01*
X3452152Y331700D01*
X3452293Y331479D01*
X3452452Y331272D01*
X3452629Y331079D01*
X3452822Y330902D01*
X3453029Y330743D01*
X3453250Y330602D01*
X3453482Y330481D01*
X3453724Y330381D01*
X3453974Y330302D01*
X3454229Y330246D01*
X3454489Y330211D01*
X3454750Y330200D01*
X3498900Y330200D02*
X3505100Y330200D01*
X3505361Y330211D01*
X3505621Y330246D01*
X3505876Y330302D01*
X3506126Y330381D01*
X3506368Y330481D01*
X3506600Y330602D01*
X3506821Y330743D01*
X3507028Y330902D01*
X3507221Y331079D01*
X3507398Y331272D01*
X3507557Y331479D01*
X3507698Y331700D01*
X3507819Y331932D01*
X3507919Y332174D01*
X3507998Y332424D01*
X3508054Y332679D01*
X3508089Y332939D01*
X3508100Y333200D01*
X3508089Y333461D01*
X3508054Y333721D01*
X3507998Y333976D01*
X3507919Y334226D01*
X3507819Y334468D01*
X3507698Y334700D01*
X3507557Y334921D01*
X3507398Y335128D01*
X3507221Y335321D01*
X3507028Y335498D01*
X3506821Y335657D01*
X3506600Y335798D01*
X3506368Y335919D01*
X3506126Y336019D01*
X3505876Y336098D01*
X3505621Y336154D01*
X3505361Y336189D01*
X3505100Y336200D01*
X3498900Y336200D01*
X3498639Y336189D01*
X3498379Y336154D01*
X3498124Y336098D01*
X3497874Y336019D01*
X3497632Y335919D01*
X3497400Y335798D01*
X3497179Y335657D01*
X3496972Y335498D01*
X3496779Y335321D01*
X3496602Y335128D01*
X3496443Y334921D01*
X3496302Y334700D01*
X3496181Y334468D01*
X3496081Y334226D01*
X3496002Y333976D01*
X3495946Y333721D01*
X3495911Y333461D01*
X3495900Y333200D01*
X3495911Y332939D01*
X3495946Y332679D01*
X3496002Y332424D01*
X3496081Y332174D01*
X3496181Y331932D01*
X3496302Y331700D01*
X3496443Y331479D01*
X3496602Y331272D01*
X3496779Y331079D01*
X3496972Y330902D01*
X3497179Y330743D01*
X3497400Y330602D01*
X3497632Y330481D01*
X3497874Y330381D01*
X3498124Y330302D01*
X3498379Y330246D01*
X3498639Y330211D01*
X3498900Y330200D01*
X3498900Y243800D02*
X3505100Y243800D01*
X3505361Y243811D01*
X3505621Y243846D01*
X3505876Y243902D01*
X3506126Y243981D01*
X3506368Y244081D01*
X3506600Y244202D01*
X3506821Y244343D01*
X3507028Y244502D01*
X3507221Y244679D01*
X3507398Y244872D01*
X3507557Y245079D01*
X3507698Y245300D01*
X3507819Y245532D01*
X3507919Y245774D01*
X3507998Y246024D01*
X3508054Y246279D01*
X3508089Y246539D01*
X3508100Y246800D01*
X3508089Y247061D01*
X3508054Y247321D01*
X3507998Y247576D01*
X3507919Y247826D01*
X3507819Y248068D01*
X3507698Y248300D01*
X3507557Y248521D01*
X3507398Y248728D01*
X3507221Y248921D01*
X3507028Y249098D01*
X3506821Y249257D01*
X3506600Y249398D01*
X3506368Y249519D01*
X3506126Y249619D01*
X3505876Y249698D01*
X3505621Y249754D01*
X3505361Y249789D01*
X3505100Y249800D01*
X3498900Y249800D01*
X3498639Y249789D01*
X3498379Y249754D01*
X3498124Y249698D01*
X3497874Y249619D01*
X3497632Y249519D01*
X3497400Y249398D01*
X3497179Y249257D01*
X3496972Y249098D01*
X3496779Y248921D01*
X3496602Y248728D01*
X3496443Y248521D01*
X3496302Y248300D01*
X3496181Y248068D01*
X3496081Y247826D01*
X3496002Y247576D01*
X3495946Y247321D01*
X3495911Y247061D01*
X3495900Y246800D01*
X3495911Y246539D01*
X3495946Y246279D01*
X3496002Y246024D01*
X3496081Y245774D01*
X3496181Y245532D01*
X3496302Y245300D01*
X3496443Y245079D01*
X3496602Y244872D01*
X3496779Y244679D01*
X3496972Y244502D01*
X3497179Y244343D01*
X3497400Y244202D01*
X3497632Y244081D01*
X3497874Y243981D01*
X3498124Y243902D01*
X3498379Y243846D01*
X3498639Y243811D01*
X3498900Y243800D01*
X3454750Y243800D02*
X3465750Y243800D01*
X3466011Y243811D01*
X3466271Y243846D01*
X3466526Y243902D01*
X3466776Y243981D01*
X3467018Y244081D01*
X3467250Y244202D01*
X3467471Y244343D01*
X3467678Y244502D01*
X3467871Y244679D01*
X3468048Y244872D01*
X3468207Y245079D01*
X3468348Y245300D01*
X3468469Y245532D01*
X3468569Y245774D01*
X3468648Y246024D01*
X3468704Y246279D01*
X3468739Y246539D01*
X3468750Y246800D01*
X3468739Y247061D01*
X3468704Y247321D01*
X3468648Y247576D01*
X3468569Y247826D01*
X3468469Y248068D01*
X3468348Y248300D01*
X3468207Y248521D01*
X3468048Y248728D01*
X3467871Y248921D01*
X3467678Y249098D01*
X3467471Y249257D01*
X3467250Y249398D01*
X3467018Y249519D01*
X3466776Y249619D01*
X3466526Y249698D01*
X3466271Y249754D01*
X3466011Y249789D01*
X3465750Y249800D01*
X3454750Y249800D01*
X3454489Y249789D01*
X3454229Y249754D01*
X3453974Y249698D01*
X3453724Y249619D01*
X3453482Y249519D01*
X3453250Y249398D01*
X3453029Y249257D01*
X3452822Y249098D01*
X3452629Y248921D01*
X3452452Y248728D01*
X3452293Y248521D01*
X3452152Y248300D01*
X3452031Y248068D01*
X3451931Y247826D01*
X3451852Y247576D01*
X3451796Y247321D01*
X3451761Y247061D01*
X3451750Y246800D01*
X3451761Y246539D01*
X3451796Y246279D01*
X3451852Y246024D01*
X3451931Y245774D01*
X3452031Y245532D01*
X3452152Y245300D01*
X3452293Y245079D01*
X3452452Y244872D01*
X3452629Y244679D01*
X3452822Y244502D01*
X3453029Y244343D01*
X3453250Y244202D01*
X3453482Y244081D01*
X3453724Y243981D01*
X3453974Y243902D01*
X3454229Y243846D01*
X3454489Y243811D01*
X3454750Y243800D01*
X3355110Y74460D02*
X3355039Y73381D01*
X3354898Y72309D01*
X3354687Y71249D01*
X3354408Y70205D01*
X3354060Y69181D01*
X3353646Y68183D01*
X3353168Y67213D01*
X3352628Y66277D01*
X3352027Y65378D01*
X3351369Y64521D01*
X3350657Y63708D01*
X3349892Y62944D01*
X3349079Y62231D01*
X3348222Y61573D01*
X3347323Y60972D01*
X3346387Y60432D01*
X3345417Y59954D01*
X3344419Y59540D01*
X3343395Y59192D01*
X3342351Y58913D01*
X3341291Y58702D01*
X3340219Y58561D01*
X3339140Y58490D01*
X3338060Y58490D01*
X3336981Y58561D01*
X3335909Y58702D01*
X3334849Y58913D01*
X3333805Y59192D01*
X3332781Y59540D01*
X3331783Y59954D01*
X3330813Y60432D01*
X3329877Y60972D01*
X3328978Y61573D01*
X3328121Y62231D01*
X3327308Y62944D01*
X3326544Y63708D01*
X3325831Y64521D01*
X3325173Y65378D01*
X3324572Y66277D01*
X3324032Y67213D01*
X3323554Y68183D01*
X3323140Y69181D01*
X3322792Y70205D01*
X3322513Y71249D01*
X3322302Y72309D01*
X3322161Y73381D01*
X3322090Y74460D01*
X3322090Y75540D01*
X3322161Y76619D01*
X3322302Y77691D01*
X3322513Y78751D01*
X3322792Y79795D01*
X3323140Y80819D01*
X3323554Y81817D01*
X3324032Y82787D01*
X3324572Y83723D01*
X3325173Y84622D01*
X3325831Y85479D01*
X3326544Y86292D01*
X3327308Y87057D01*
X3328121Y87769D01*
X3328978Y88427D01*
X3329877Y89028D01*
X3330813Y89568D01*
X3331783Y90046D01*
X3332781Y90460D01*
X3333805Y90808D01*
X3334849Y91087D01*
X3335909Y91298D01*
X3336981Y91439D01*
X3338060Y91510D01*
X3339140Y91510D01*
X3340219Y91439D01*
X3341291Y91298D01*
X3342351Y91087D01*
X3343395Y90808D01*
X3344419Y90460D01*
X3345417Y90046D01*
X3346387Y89568D01*
X3347323Y89028D01*
X3348222Y88427D01*
X3349079Y87769D01*
X3349892Y87057D01*
X3350657Y86292D01*
X3351369Y85479D01*
X3352027Y84622D01*
X3352628Y83723D01*
X3353168Y82787D01*
X3353646Y81817D01*
X3354060Y80819D01*
X3354408Y79795D01*
X3354687Y78751D01*
X3354898Y77691D01*
X3355039Y76619D01*
X3355110Y75540D01*
X3355110Y74460D01*
X94010Y76960D02*
X93939Y75881D01*
X93798Y74809D01*
X93587Y73749D01*
X93308Y72705D01*
X92960Y71681D01*
X92546Y70683D01*
X92068Y69713D01*
X91528Y68777D01*
X90927Y67878D01*
X90269Y67021D01*
X89557Y66208D01*
X88792Y65444D01*
X87979Y64731D01*
X87122Y64073D01*
X86223Y63472D01*
X85287Y62932D01*
X84317Y62454D01*
X83319Y62040D01*
X82295Y61692D01*
X81251Y61413D01*
X80191Y61202D01*
X79119Y61061D01*
X78040Y60990D01*
X76960Y60990D01*
X75881Y61061D01*
X74809Y61202D01*
X73749Y61413D01*
X72705Y61692D01*
X71681Y62040D01*
X70683Y62454D01*
X69713Y62932D01*
X68777Y63472D01*
X67878Y64073D01*
X67021Y64731D01*
X66208Y65444D01*
X65444Y66208D01*
X64731Y67021D01*
X64073Y67878D01*
X63472Y68777D01*
X62932Y69713D01*
X62454Y70683D01*
X62040Y71681D01*
X61692Y72705D01*
X61413Y73749D01*
X61202Y74809D01*
X61061Y75881D01*
X60990Y76960D01*
X60990Y78040D01*
X61061Y79119D01*
X61202Y80191D01*
X61413Y81251D01*
X61692Y82295D01*
X62040Y83319D01*
X62454Y84317D01*
X62932Y85287D01*
X63472Y86223D01*
X64073Y87122D01*
X64731Y87979D01*
X65444Y88792D01*
X66208Y89557D01*
X67021Y90269D01*
X67878Y90927D01*
X68777Y91528D01*
X69713Y92068D01*
X70683Y92546D01*
X71681Y92960D01*
X72705Y93308D01*
X73749Y93587D01*
X74809Y93798D01*
X75881Y93939D01*
X76960Y94010D01*
X78040Y94010D01*
X79119Y93939D01*
X80191Y93798D01*
X81251Y93587D01*
X82295Y93308D01*
X83319Y92960D01*
X84317Y92546D01*
X85287Y92068D01*
X86223Y91528D01*
X87122Y90927D01*
X87979Y90269D01*
X88792Y89557D01*
X89557Y88792D01*
X90269Y87979D01*
X90927Y87122D01*
X91528Y86223D01*
X92068Y85287D01*
X92546Y84317D01*
X92960Y83319D01*
X93308Y82295D01*
X93587Y81251D01*
X93798Y80191D01*
X93939Y79119D01*
X94010Y78040D01*
X94010Y76960D01*
X3465763Y264350D02*
X3466185Y264294D01*
X3466597Y264184D01*
X3466991Y264021D01*
X3467359Y263808D01*
X3467697Y263549D01*
X3467999Y263247D01*
X3468258Y262909D01*
X3468471Y262541D01*
X3468634Y262147D01*
X3468744Y261735D01*
X3468800Y261313D01*
X3468800Y260887D01*
X3468744Y260465D01*
X3468634Y260053D01*
X3468471Y259659D01*
X3468258Y259291D01*
X3467999Y258953D01*
X3467697Y258651D01*
X3467359Y258392D01*
X3466991Y258179D01*
X3466597Y258016D01*
X3466185Y257906D01*
X3465763Y257850D01*
X3465337Y257850D01*
X3464915Y257906D01*
X3464503Y258016D01*
X3464109Y258179D01*
X3463741Y258392D01*
X3463403Y258651D01*
X3463101Y258953D01*
X3462842Y259291D01*
X3462629Y259659D01*
X3462466Y260053D01*
X3462356Y260465D01*
X3462300Y260887D01*
X3462300Y261313D01*
X3462356Y261735D01*
X3462466Y262147D01*
X3462629Y262541D01*
X3462842Y262909D01*
X3463101Y263247D01*
X3463403Y263549D01*
X3463741Y263808D01*
X3464109Y264021D01*
X3464503Y264184D01*
X3464915Y264294D01*
X3465337Y264350D01*
X3465763Y264350D01*
X3465763Y322150D02*
X3466185Y322094D01*
X3466597Y321984D01*
X3466991Y321821D01*
X3467359Y321608D01*
X3467697Y321349D01*
X3467999Y321047D01*
X3468258Y320709D01*
X3468471Y320341D01*
X3468634Y319947D01*
X3468744Y319535D01*
X3468800Y319113D01*
X3468800Y318687D01*
X3468744Y318265D01*
X3468634Y317853D01*
X3468471Y317459D01*
X3468258Y317091D01*
X3467999Y316753D01*
X3467697Y316451D01*
X3467359Y316192D01*
X3466991Y315979D01*
X3466597Y315816D01*
X3466185Y315706D01*
X3465763Y315650D01*
X3465337Y315650D01*
X3464915Y315706D01*
X3464503Y315816D01*
X3464109Y315979D01*
X3463741Y316192D01*
X3463403Y316451D01*
X3463101Y316753D01*
X3462842Y317091D01*
X3462629Y317459D01*
X3462466Y317853D01*
X3462356Y318265D01*
X3462300Y318687D01*
X3462300Y319113D01*
X3462356Y319535D01*
X3462466Y319947D01*
X3462629Y320341D01*
X3462842Y320709D01*
X3463101Y321047D01*
X3463403Y321349D01*
X3463741Y321608D01*
X3464109Y321821D01*
X3464503Y321984D01*
X3464915Y322094D01*
X3465337Y322150D01*
X3465763Y322150D01*
X3494100Y470337D02*
X3494175Y471007D01*
X3494325Y471664D01*
X3494548Y472300D01*
X3494840Y472907D01*
X3495199Y473478D01*
X3495619Y474004D01*
X3496096Y474481D01*
X3496623Y474901D01*
X3497193Y475260D01*
X3497800Y475552D01*
X3498436Y475775D01*
X3499093Y475925D01*
X3499763Y476000D01*
X3500437Y476000D01*
X3501107Y475925D01*
X3501764Y475775D01*
X3502400Y475552D01*
X3503007Y475260D01*
X3503578Y474901D01*
X3504104Y474481D01*
X3504581Y474004D01*
X3505001Y473478D01*
X3505360Y472907D01*
X3505652Y472300D01*
X3505875Y471664D01*
X3506025Y471007D01*
X3506100Y470337D01*
X3506100Y469663D01*
X3506025Y468993D01*
X3505875Y468336D01*
X3505652Y467700D01*
X3505360Y467093D01*
X3505001Y466523D01*
X3504581Y465996D01*
X3504104Y465519D01*
X3503578Y465099D01*
X3503007Y464740D01*
X3502400Y464448D01*
X3501764Y464225D01*
X3501107Y464075D01*
X3500437Y464000D01*
X3499763Y464000D01*
X3499093Y464075D01*
X3498436Y464225D01*
X3497800Y464448D01*
X3497193Y464740D01*
X3496623Y465099D01*
X3496096Y465519D01*
X3495619Y465996D01*
X3495199Y466523D01*
X3494840Y467093D01*
X3494548Y467700D01*
X3494325Y468336D01*
X3494175Y468993D01*
X3494100Y469663D01*
X3494100Y470337D01*
X3424100Y470337D02*
X3424175Y471007D01*
X3424325Y471664D01*
X3424548Y472300D01*
X3424840Y472907D01*
X3425199Y473478D01*
X3425619Y474004D01*
X3426096Y474481D01*
X3426623Y474901D01*
X3427193Y475260D01*
X3427800Y475552D01*
X3428436Y475775D01*
X3429093Y475925D01*
X3429763Y476000D01*
X3430437Y476000D01*
X3431107Y475925D01*
X3431764Y475775D01*
X3432400Y475552D01*
X3433007Y475260D01*
X3433578Y474901D01*
X3434104Y474481D01*
X3434581Y474004D01*
X3435001Y473478D01*
X3435360Y472907D01*
X3435652Y472300D01*
X3435875Y471664D01*
X3436025Y471007D01*
X3436100Y470337D01*
X3436100Y469663D01*
X3436025Y468993D01*
X3435875Y468336D01*
X3435652Y467700D01*
X3435360Y467093D01*
X3435001Y466523D01*
X3434581Y465996D01*
X3434104Y465519D01*
X3433578Y465099D01*
X3433007Y464740D01*
X3432400Y464448D01*
X3431764Y464225D01*
X3431107Y464075D01*
X3430437Y464000D01*
X3429763Y464000D01*
X3429093Y464075D01*
X3428436Y464225D01*
X3427800Y464448D01*
X3427193Y464740D01*
X3426623Y465099D01*
X3426096Y465519D01*
X3425619Y465996D01*
X3425199Y466523D01*
X3424840Y467093D01*
X3424548Y467700D01*
X3424325Y468336D01*
X3424175Y468993D01*
X3424100Y469663D01*
X3424100Y470337D01*
X300800Y139705D02*
X300723Y139120D01*
X300570Y138550D01*
X300345Y138005D01*
X300050Y137495D01*
X299691Y137027D01*
X299273Y136609D01*
X298805Y136250D01*
X298295Y135955D01*
X297750Y135730D01*
X297180Y135577D01*
X296595Y135500D01*
X296005Y135500D01*
X295420Y135577D01*
X294850Y135730D01*
X294305Y135955D01*
X293795Y136250D01*
X293327Y136609D01*
X292909Y137027D01*
X292550Y137495D01*
X292255Y138005D01*
X292030Y138550D01*
X291877Y139120D01*
X291800Y139705D01*
X291800Y140295D01*
X291877Y140880D01*
X292030Y141450D01*
X292255Y141995D01*
X292550Y142505D01*
X292909Y142973D01*
X293327Y143391D01*
X293795Y143750D01*
X294305Y144045D01*
X294850Y144270D01*
X295420Y144423D01*
X296005Y144500D01*
X296595Y144500D01*
X297180Y144423D01*
X297750Y144270D01*
X298295Y144045D01*
X298805Y143750D01*
X299273Y143391D01*
X299691Y142973D01*
X300050Y142505D01*
X300345Y141995D01*
X300570Y141450D01*
X300723Y140880D01*
X300800Y140295D01*
X300800Y139705D01*
X1904510Y2040960D02*
X1904439Y2039881D01*
X1904298Y2038809D01*
X1904087Y2037749D01*
X1903808Y2036705D01*
X1903460Y2035681D01*
X1903046Y2034683D01*
X1902568Y2033713D01*
X1902028Y2032777D01*
X1901427Y2031878D01*
X1900769Y2031021D01*
X1900057Y2030208D01*
X1899292Y2029444D01*
X1898479Y2028731D01*
X1897622Y2028073D01*
X1896723Y2027472D01*
X1895787Y2026932D01*
X1894817Y2026454D01*
X1893819Y2026040D01*
X1892795Y2025692D01*
X1891751Y2025413D01*
X1890691Y2025202D01*
X1889619Y2025061D01*
X1888540Y2024990D01*
X1887460Y2024990D01*
X1886381Y2025061D01*
X1885309Y2025202D01*
X1884249Y2025413D01*
X1883205Y2025692D01*
X1882181Y2026040D01*
X1881183Y2026454D01*
X1880213Y2026932D01*
X1879277Y2027472D01*
X1878378Y2028073D01*
X1877521Y2028731D01*
X1876708Y2029444D01*
X1875944Y2030208D01*
X1875231Y2031021D01*
X1874573Y2031878D01*
X1873972Y2032777D01*
X1873432Y2033713D01*
X1872954Y2034683D01*
X1872540Y2035681D01*
X1872192Y2036705D01*
X1871913Y2037749D01*
X1871702Y2038809D01*
X1871561Y2039881D01*
X1871490Y2040960D01*
X1871490Y2042040D01*
X1871561Y2043119D01*
X1871702Y2044191D01*
X1871913Y2045251D01*
X1872192Y2046295D01*
X1872540Y2047319D01*
X1872954Y2048317D01*
X1873432Y2049287D01*
X1873972Y2050223D01*
X1874573Y2051122D01*
X1875231Y2051979D01*
X1875944Y2052792D01*
X1876708Y2053557D01*
X1877521Y2054269D01*
X1878378Y2054927D01*
X1879277Y2055528D01*
X1880213Y2056068D01*
X1881183Y2056546D01*
X1882181Y2056960D01*
X1883205Y2057308D01*
X1884249Y2057587D01*
X1885309Y2057798D01*
X1886381Y2057939D01*
X1887460Y2058010D01*
X1888540Y2058010D01*
X1889619Y2057939D01*
X1890691Y2057798D01*
X1891751Y2057587D01*
X1892795Y2057308D01*
X1893819Y2056960D01*
X1894817Y2056546D01*
X1895787Y2056068D01*
X1896723Y2055528D01*
X1897622Y2054927D01*
X1898479Y2054269D01*
X1899292Y2053557D01*
X1900057Y2052792D01*
X1900769Y2051979D01*
X1901427Y2051122D01*
X1902028Y2050223D01*
X1902568Y2049287D01*
X1903046Y2048317D01*
X1903460Y2047319D01*
X1903808Y2046295D01*
X1904087Y2045251D01*
X1904298Y2044191D01*
X1904439Y2043119D01*
X1904510Y2042040D01*
X1904510Y2040960D01*
X1544610Y76960D02*
X1544539Y75881D01*
X1544398Y74809D01*
X1544187Y73749D01*
X1543908Y72705D01*
X1543560Y71681D01*
X1543146Y70683D01*
X1542668Y69713D01*
X1542128Y68777D01*
X1541527Y67878D01*
X1540869Y67021D01*
X1540157Y66208D01*
X1539392Y65444D01*
X1538579Y64731D01*
X1537722Y64073D01*
X1536823Y63472D01*
X1535887Y62932D01*
X1534917Y62454D01*
X1533919Y62040D01*
X1532895Y61692D01*
X1531851Y61413D01*
X1530791Y61202D01*
X1529719Y61061D01*
X1528640Y60990D01*
X1527560Y60990D01*
X1526481Y61061D01*
X1525409Y61202D01*
X1524349Y61413D01*
X1523305Y61692D01*
X1522281Y62040D01*
X1521283Y62454D01*
X1520313Y62932D01*
X1519377Y63472D01*
X1518478Y64073D01*
X1517621Y64731D01*
X1516808Y65444D01*
X1516044Y66208D01*
X1515331Y67021D01*
X1514673Y67878D01*
X1514072Y68777D01*
X1513532Y69713D01*
X1513054Y70683D01*
X1512640Y71681D01*
X1512292Y72705D01*
X1512013Y73749D01*
X1511802Y74809D01*
X1511661Y75881D01*
X1511590Y76960D01*
X1511590Y78040D01*
X1511661Y79119D01*
X1511802Y80191D01*
X1512013Y81251D01*
X1512292Y82295D01*
X1512640Y83319D01*
X1513054Y84317D01*
X1513532Y85287D01*
X1514072Y86223D01*
X1514673Y87122D01*
X1515331Y87979D01*
X1516044Y88792D01*
X1516808Y89557D01*
X1517621Y90269D01*
X1518478Y90927D01*
X1519377Y91528D01*
X1520313Y92068D01*
X1521283Y92546D01*
X1522281Y92960D01*
X1523305Y93308D01*
X1524349Y93587D01*
X1525409Y93798D01*
X1526481Y93939D01*
X1527560Y94010D01*
X1528640Y94010D01*
X1529719Y93939D01*
X1530791Y93798D01*
X1531851Y93587D01*
X1532895Y93308D01*
X1533919Y92960D01*
X1534917Y92546D01*
X1535887Y92068D01*
X1536823Y91528D01*
X1537722Y90927D01*
X1538579Y90269D01*
X1539392Y89557D01*
X1540157Y88792D01*
X1540869Y87979D01*
X1541527Y87122D01*
X1542128Y86223D01*
X1542668Y85287D01*
X1543146Y84317D01*
X1543560Y83319D01*
X1543908Y82295D01*
X1544187Y81251D01*
X1544398Y80191D01*
X1544539Y79119D01*
X1544610Y78040D01*
X1544610Y76960D01*
X3355110Y2040960D02*
X3355039Y2039881D01*
X3354898Y2038809D01*
X3354687Y2037749D01*
X3354408Y2036705D01*
X3354060Y2035681D01*
X3353646Y2034683D01*
X3353168Y2033713D01*
X3352628Y2032777D01*
X3352027Y2031878D01*
X3351369Y2031021D01*
X3350657Y2030208D01*
X3349892Y2029444D01*
X3349079Y2028731D01*
X3348222Y2028073D01*
X3347323Y2027472D01*
X3346387Y2026932D01*
X3345417Y2026454D01*
X3344419Y2026040D01*
X3343395Y2025692D01*
X3342351Y2025413D01*
X3341291Y2025202D01*
X3340219Y2025061D01*
X3339140Y2024990D01*
X3338060Y2024990D01*
X3336981Y2025061D01*
X3335909Y2025202D01*
X3334849Y2025413D01*
X3333805Y2025692D01*
X3332781Y2026040D01*
X3331783Y2026454D01*
X3330813Y2026932D01*
X3329877Y2027472D01*
X3328978Y2028073D01*
X3328121Y2028731D01*
X3327308Y2029444D01*
X3326544Y2030208D01*
X3325831Y2031021D01*
X3325173Y2031878D01*
X3324572Y2032777D01*
X3324032Y2033713D01*
X3323554Y2034683D01*
X3323140Y2035681D01*
X3322792Y2036705D01*
X3322513Y2037749D01*
X3322302Y2038809D01*
X3322161Y2039881D01*
X3322090Y2040960D01*
X3322090Y2042040D01*
X3322161Y2043119D01*
X3322302Y2044191D01*
X3322513Y2045251D01*
X3322792Y2046295D01*
X3323140Y2047319D01*
X3323554Y2048317D01*
X3324032Y2049287D01*
X3324572Y2050223D01*
X3325173Y2051122D01*
X3325831Y2051979D01*
X3326544Y2052792D01*
X3327308Y2053557D01*
X3328121Y2054269D01*
X3328978Y2054927D01*
X3329877Y2055528D01*
X3330813Y2056068D01*
X3331783Y2056546D01*
X3332781Y2056960D01*
X3333805Y2057308D01*
X3334849Y2057587D01*
X3335909Y2057798D01*
X3336981Y2057939D01*
X3338060Y2058010D01*
X3339140Y2058010D01*
X3340219Y2057939D01*
X3341291Y2057798D01*
X3342351Y2057587D01*
X3343395Y2057308D01*
X3344419Y2056960D01*
X3345417Y2056546D01*
X3346387Y2056068D01*
X3347323Y2055528D01*
X3348222Y2054927D01*
X3349079Y2054269D01*
X3349892Y2053557D01*
X3350657Y2052792D01*
X3351369Y2051979D01*
X3352027Y2051122D01*
X3352628Y2050223D01*
X3353168Y2049287D01*
X3353646Y2048317D01*
X3354060Y2047319D01*
X3354408Y2046295D01*
X3354687Y2045251D01*
X3354898Y2044191D01*
X3355039Y2043119D01*
X3355110Y2042040D01*
X3355110Y2040960D01*
X94010Y2040960D02*
X93939Y2039881D01*
X93798Y2038809D01*
X93587Y2037749D01*
X93308Y2036705D01*
X92960Y2035681D01*
X92546Y2034683D01*
X92068Y2033713D01*
X91528Y2032777D01*
X90927Y2031878D01*
X90269Y2031021D01*
X89557Y2030208D01*
X88792Y2029444D01*
X87979Y2028731D01*
X87122Y2028073D01*
X86223Y2027472D01*
X85287Y2026932D01*
X84317Y2026454D01*
X83319Y2026040D01*
X82295Y2025692D01*
X81251Y2025413D01*
X80191Y2025202D01*
X79119Y2025061D01*
X78040Y2024990D01*
X76960Y2024990D01*
X75881Y2025061D01*
X74809Y2025202D01*
X73749Y2025413D01*
X72705Y2025692D01*
X71681Y2026040D01*
X70683Y2026454D01*
X69713Y2026932D01*
X68777Y2027472D01*
X67878Y2028073D01*
X67021Y2028731D01*
X66208Y2029444D01*
X65444Y2030208D01*
X64731Y2031021D01*
X64073Y2031878D01*
X63472Y2032777D01*
X62932Y2033713D01*
X62454Y2034683D01*
X62040Y2035681D01*
X61692Y2036705D01*
X61413Y2037749D01*
X61202Y2038809D01*
X61061Y2039881D01*
X60990Y2040960D01*
X60990Y2042040D01*
X61061Y2043119D01*
X61202Y2044191D01*
X61413Y2045251D01*
X61692Y2046295D01*
X62040Y2047319D01*
X62454Y2048317D01*
X62932Y2049287D01*
X63472Y2050223D01*
X64073Y2051122D01*
X64731Y2051979D01*
X65444Y2052792D01*
X66208Y2053557D01*
X67021Y2054269D01*
X67878Y2054927D01*
X68777Y2055528D01*
X69713Y2056068D01*
X70683Y2056546D01*
X71681Y2056960D01*
X72705Y2057308D01*
X73749Y2057587D01*
X74809Y2057798D01*
X75881Y2057939D01*
X76960Y2058010D01*
X78040Y2058010D01*
X79119Y2057939D01*
X80191Y2057798D01*
X81251Y2057587D01*
X82295Y2057308D01*
X83319Y2056960D01*
X84317Y2056546D01*
X85287Y2056068D01*
X86223Y2055528D01*
X87122Y2054927D01*
X87979Y2054269D01*
X88792Y2053557D01*
X89557Y2052792D01*
X90269Y2051979D01*
X90927Y2051122D01*
X91528Y2050223D01*
X92068Y2049287D01*
X92546Y2048317D01*
X92960Y2047319D01*
X93308Y2046295D01*
X93587Y2045251D01*
X93798Y2044191D01*
X93939Y2043119D01*
X94010Y2042040D01*
X94010Y2040960D01*
M02*
