M48
;GenerationSoftware,Autodesk,EAGLE,9.6.0*%
;CreationDate,2020-09-24T02:35:21Z*%
FMAT,2
ICI,OFF
METRIC,TZ,000.000
T5C0.381
T4C0.650
T3C0.900
T2C1.200
T1C3.302
%
G90
M71
T1
X7750Y204150
X333860Y7500
X7750Y7750
X188800Y204150
X152810Y7750
X333860Y204150
T2
X350010Y47000
X343010Y47000
T3
X29630Y14000
T4
X346555Y26110
X346555Y31890
T5
X7731Y16778
X35322Y11135
X33798Y11112
X43704Y15557
X49650Y19002
X34998Y22536
X16181Y16549
X334859Y25601
X30900Y15270
X28380Y15130
X24989Y22192
X22760Y18330
X43204Y10557
X43204Y8557
X22380Y11130
X23880Y11130
X23880Y9630
X22380Y9630
X338859Y30601
X338859Y27601
X342859Y32101
X342859Y24601
X338859Y53101
X339359Y45101
X347859Y47101
X332359Y50101
X332359Y45101
X332859Y23601
X333859Y33601
X339359Y33101
X31910Y19480
X31610Y21630
X36110Y20030
X42210Y18930
X27448Y5905
X31032Y9306
X22368Y13525
X30805Y199500
X45805Y199500
X60805Y199500
X75805Y199500
X90805Y199500
X105805Y199500
X120805Y199500
X135805Y199500
X150805Y199500
X210805Y199500
X225805Y199500
X240805Y199500
X255805Y199500
X270805Y199500
X315805Y184500
X300805Y184500
X285805Y184500
X270805Y184500
X255805Y184500
X240805Y184500
X225805Y184500
X210805Y184500
X195805Y184500
X180805Y184500
X165805Y184500
X150805Y184500
X135805Y184500
X120805Y184500
X105805Y184500
X90805Y184500
X75805Y184500
X60805Y184500
X45805Y184500
X30805Y184500
X15805Y182000
X285805Y199500
X300805Y199500
X15805Y167000
X30805Y169500
X45805Y169500
X60805Y169500
X75805Y169500
X90805Y169500
X105805Y169500
X120805Y169500
X135805Y169500
X150805Y169500
X165805Y169500
X180805Y169500
X195805Y169500
X210805Y169500
X225805Y169500
X240805Y169500
X255805Y169500
X270805Y169500
X285805Y169500
X300805Y169500
X315805Y169500
X300805Y154500
X285805Y154500
X270805Y154500
X255805Y154500
X240805Y154500
X225805Y154500
X210805Y154500
X195805Y154500
X180805Y154500
X165805Y154500
X150805Y154500
X135805Y154500
X120805Y154500
X105805Y154500
X90805Y154500
X75805Y154500
X60805Y154500
X45805Y154500
X30805Y154500
X15805Y153750
X15805Y139000
X30805Y139000
X45805Y139500
X60805Y139500
X75805Y139500
X90805Y139500
X105805Y139500
X120805Y139500
X135805Y139500
X150805Y139500
X165805Y139500
X180805Y139500
X195805Y139500
X210805Y139500
X225805Y139500
X240805Y139500
X255805Y139500
X270805Y139500
X285805Y139500
X300805Y139500
X315805Y139500
X315805Y124500
X300805Y124500
X285805Y124500
X270805Y124500
X255805Y124500
X240805Y124500
X225805Y124500
X210805Y124500
X195805Y124500
X180805Y124500
X165805Y124500
X150805Y124500
X135805Y124500
X120805Y124500
X105805Y124500
X90805Y124500
X75805Y124500
X60805Y124500
X45805Y124500
X30805Y124500
X15805Y124500
X15805Y109500
X30805Y109500
X45805Y109500
X60805Y109500
X75805Y109500
X90805Y109500
X105805Y109500
X120805Y109500
X135805Y109500
X150805Y109500
X165805Y109500
X180805Y109500
X195805Y109500
X210805Y109500
X225805Y109500
X240805Y109500
X255805Y109500
X270805Y109500
X285805Y109500
X300805Y109500
X315805Y109500
X15805Y94500
X30805Y94500
X45805Y94500
X60805Y94500
X75805Y94500
X90805Y94500
X105805Y94500
X120805Y94500
X135805Y94500
X150805Y94500
X165805Y94500
X180805Y94500
X195805Y94500
X240805Y94500
X255805Y94500
X270805Y94500
X285805Y94500
X300805Y94500
X315805Y94500
X330805Y94500
X15805Y79500
X30805Y79500
X45805Y79500
X60805Y79500
X75805Y79500
X90805Y79500
X105805Y79500
X120805Y79500
X135805Y79500
X150805Y79500
X165805Y79500
X180805Y79500
X195805Y79500
X210805Y79500
X225805Y79500
X240805Y79500
X255805Y79500
X270805Y79500
X315805Y79500
X330805Y79500
X330805Y64500
X315805Y64500
X300805Y64500
X255805Y64500
X240805Y64500
X225805Y64500
X210805Y64500
X195805Y64500
X180805Y64500
X165805Y64500
X150805Y64500
X135805Y64500
X120805Y64500
X105805Y64500
X90805Y64500
X75805Y64500
X60805Y64500
X45805Y64500
X30805Y64500
X15805Y64500
X30805Y34500
X45805Y34500
X60805Y34500
X75805Y34500
X90805Y34500
X105805Y34500
X120805Y34500
X135805Y34500
X150805Y34500
X165805Y34500
X180805Y34500
X195805Y34500
X210805Y34500
X225805Y34500
X240805Y34500
X255805Y34500
X270805Y34500
X285805Y34500
X328255Y34450
X330805Y19500
X315805Y19500
X270805Y19500
X255805Y19500
X240805Y19500
X225805Y19500
X210805Y19500
X195805Y19500
X180805Y19500
X165805Y19500
X150805Y19500
X135805Y19500
X120805Y19500
X105805Y19500
X90805Y19500
X105805Y4000
X90805Y4500
X75805Y4500
X120805Y4500
X135805Y4500
X196055Y4500
X210805Y4500
X225805Y4500
X240805Y4500
X255805Y4500
X315805Y4500
X325250Y27250
X324000Y27250
X326500Y27250
X322750Y27250
X321500Y27250
X25670Y7810
X300805Y19500
X17805Y51000
X32805Y51000
X48305Y50500
X62805Y50500
X78305Y50500
X90805Y49500
X105805Y49500
X120805Y49500
X135805Y49500
X150805Y49500
X165805Y49500
X180805Y49500
X195805Y49500
X210805Y49500
X225805Y49500
X240805Y49500
X255805Y49500
X270805Y49500
X285805Y49500
X300805Y49500
X315805Y49500
X328305Y49300
X315805Y34500
X300805Y34500
X285805Y19500
X285805Y4500
X300805Y4500
X270805Y4500
X285805Y79500
X225805Y94500
X210805Y94500
X285805Y64500
X270805Y64500
X330805Y169500
X330805Y109500
X315805Y199500
X330805Y139500
X330805Y124500
X300805Y79500
X330805Y154500
X315805Y154000
X330805Y184500
X17250Y29700
X15805Y34650
X75855Y19700
X28083Y7810
X26771Y10985
X42180Y9715
X320250Y27250
X41440Y10420
X25645Y14148
X343657Y30045
X343657Y28545
X48000Y40500
X46500Y25000
X51250Y39450
X47500Y26500
X750Y40000
X41000Y25000
X20855Y39100
X23105Y37550
X328500Y25000
X68916Y5900
X328000Y70000
X13305Y48750
X12805Y36000
X327500Y55500
X13305Y185000
X324500Y208000
X11405Y29350
X328000Y40000
X68000Y16000
X329000Y189500
X10805Y169500
X10805Y154500
X329000Y174500
X328000Y160000
X13305Y140000
X328500Y144500
X12805Y125000
X12805Y110500
X328500Y129500
X12790Y95250
X328820Y114300
X328000Y100000
X13305Y80000
X13305Y65000
X328000Y85000
X19078Y6798
X16500Y18500
X22754Y19596
X32500Y18500
X55000Y19000
X336750Y35500
X325500Y1000
X36830Y17957
X53737Y21031
X16216Y13913
X25000Y13500
M30