G04 EAGLE Gerber RS-274X export*
G75*
%MOMM*%
%FSLAX34Y34*%
%LPD*%
%INSilkscreen Bottom*%
%IPPOS*%
%AMOC8*
5,1,8,0,0,1.08239X$1,22.5*%
G01*
%ADD10R,91.730000X0.370000*%
%ADD11R,94.730000X0.380000*%
%ADD12R,4.130000X0.370000*%
%ADD13R,2.630000X0.380000*%
%ADD14R,90.230000X0.380000*%
%ADD15R,2.630000X0.370000*%
%ADD16R,93.990000X0.370000*%
%ADD17R,2.250000X0.370000*%
%ADD18R,1.880000X0.380000*%
%ADD19R,96.240000X0.380000*%
%ADD20R,1.880000X0.370000*%
%ADD21R,2.640000X0.370000*%
%ADD22R,1.510000X0.380000*%
%ADD23R,2.260000X0.380000*%
%ADD24R,1.500000X0.380000*%
%ADD25R,2.250000X0.380000*%
%ADD26R,1.510000X0.370000*%
%ADD27R,1.500000X0.370000*%
%ADD28R,1.130000X0.380000*%
%ADD29R,1.120000X0.380000*%
%ADD30R,1.130000X0.370000*%
%ADD31R,1.120000X0.370000*%
%ADD32R,3.760000X0.380000*%
%ADD33R,4.890000X0.370000*%
%ADD34R,6.010000X0.380000*%
%ADD35R,5.640000X0.380000*%
%ADD36R,0.750000X0.380000*%
%ADD37R,6.760000X0.380000*%
%ADD38R,3.000000X0.380000*%
%ADD39R,0.750000X0.370000*%
%ADD40R,3.760000X0.370000*%
%ADD41R,3.010000X0.380000*%
%ADD42R,2.640000X0.380000*%
%ADD43R,3.010000X0.370000*%
%ADD44R,2.260000X0.370000*%
%ADD45R,0.760000X0.370000*%
%ADD46R,0.760000X0.380000*%
%ADD47R,3.390000X0.380000*%
%ADD48R,3.000000X0.370000*%
%ADD49R,5.270000X0.380000*%
%ADD50R,4.510000X0.380000*%
%ADD51R,11.280000X0.380000*%
%ADD52R,6.390000X0.370000*%
%ADD53R,4.510000X0.370000*%
%ADD54R,11.650000X0.370000*%
%ADD55R,6.020000X0.380000*%
%ADD56R,4.880000X0.380000*%
%ADD57R,0.380000X0.380000*%
%ADD58R,5.260000X0.370000*%
%ADD59R,5.640000X0.370000*%
%ADD60R,3.390000X0.370000*%
%ADD61R,3.380000X0.370000*%
%ADD62R,4.520000X0.380000*%
%ADD63R,7.150000X0.380000*%
%ADD64R,3.380000X0.380000*%
%ADD65R,4.890000X0.380000*%
%ADD66R,12.030000X0.380000*%
%ADD67R,15.030000X0.370000*%
%ADD68R,4.140000X0.380000*%
%ADD69R,14.660000X0.380000*%
%ADD70R,4.130000X0.380000*%
%ADD71R,6.770000X0.370000*%
%ADD72R,26.690000X0.380000*%
%ADD73R,7.900000X0.380000*%
%ADD74R,19.550000X0.380000*%
%ADD75R,13.160000X0.380000*%
%ADD76R,16.920000X0.380000*%
%ADD77R,5.260000X0.380000*%
%ADD78R,14.670000X0.380000*%
%ADD79R,9.030000X0.370000*%
%ADD80R,6.010000X0.370000*%
%ADD81R,5.270000X0.370000*%
%ADD82R,11.270000X0.370000*%
%ADD83R,4.880000X0.370000*%
%ADD84R,7.520000X0.380000*%
%ADD85R,10.900000X0.380000*%
%ADD86R,4.140000X0.370000*%
%ADD87R,10.150000X0.370000*%
%ADD88R,0.380000X0.370000*%
%ADD89R,93.230000X0.380000*%
%ADD90R,89.470000X0.370000*%
%ADD91R,96.990000X0.370000*%
%ADD92R,90.600000X0.380000*%


D10*
X1718150Y1221650D03*
D11*
X1718150Y1217900D03*
D12*
X2182450Y1214150D03*
X1253850Y1214150D03*
D13*
X2197450Y1210400D03*
X1238850Y1210400D03*
X2208750Y1206600D03*
D14*
X1718150Y1206600D03*
D13*
X1227550Y1206600D03*
D15*
X2216250Y1202850D03*
D16*
X1718150Y1202850D03*
D17*
X1218150Y1202850D03*
D18*
X2223800Y1199100D03*
D19*
X1718200Y1199100D03*
D18*
X1212500Y1199100D03*
D20*
X2231300Y1195350D03*
D15*
X2193750Y1195350D03*
D21*
X1242600Y1195350D03*
D20*
X1205000Y1195350D03*
D22*
X2236950Y1191600D03*
D23*
X2203100Y1191600D03*
X1233200Y1191600D03*
D22*
X1199350Y1191600D03*
D24*
X2240700Y1187800D03*
D25*
X2210650Y1187800D03*
D23*
X1225700Y1187800D03*
D24*
X1195600Y1187800D03*
D20*
X2246400Y1184050D03*
D17*
X2218150Y1184050D03*
X1218150Y1184050D03*
D20*
X1190000Y1184050D03*
D24*
X2252000Y1180300D03*
D18*
X2223800Y1180300D03*
X1212500Y1180300D03*
D24*
X1184300Y1180300D03*
D26*
X2255750Y1176550D03*
X2229450Y1176550D03*
D27*
X1206900Y1176550D03*
D26*
X1180550Y1176550D03*
D28*
X2257650Y1172800D03*
X2235050Y1172800D03*
X1201250Y1172800D03*
D24*
X1176800Y1172800D03*
D29*
X2261400Y1169000D03*
D24*
X2240700Y1169000D03*
X1195600Y1169000D03*
D22*
X1173050Y1169000D03*
D30*
X2265150Y1165250D03*
D27*
X2244500Y1165250D03*
D26*
X1191850Y1165250D03*
D30*
X1171150Y1165250D03*
D29*
X2268900Y1161500D03*
D22*
X2248250Y1161500D03*
D24*
X1188100Y1161500D03*
D29*
X1167400Y1161500D03*
D30*
X2272650Y1157750D03*
X2250150Y1157750D03*
D31*
X1186200Y1157750D03*
D27*
X1165500Y1157750D03*
D22*
X2274550Y1154000D03*
D28*
X2253850Y1154000D03*
X1182450Y1154000D03*
X1163650Y1154000D03*
X2276450Y1150200D03*
X2257650Y1150200D03*
X1178650Y1150200D03*
X1159850Y1150200D03*
D30*
X2280150Y1146450D03*
D31*
X2261400Y1146450D03*
X2028300Y1146450D03*
D26*
X1470050Y1146450D03*
D30*
X1174950Y1146450D03*
X1156150Y1146450D03*
D28*
X2280150Y1142700D03*
D29*
X2261400Y1142700D03*
D32*
X2030200Y1142700D03*
X1470000Y1142700D03*
D28*
X1174950Y1142700D03*
X1156150Y1142700D03*
D30*
X2283950Y1138950D03*
X2265150Y1138950D03*
D33*
X2032050Y1138950D03*
X1471950Y1138950D03*
D30*
X1171150Y1138950D03*
X1152350Y1138950D03*
D28*
X2283950Y1135200D03*
D29*
X2268900Y1135200D03*
D34*
X2033950Y1135200D03*
D35*
X1471900Y1135200D03*
D29*
X1167400Y1135200D03*
D36*
X1150450Y1135200D03*
D29*
X2287700Y1131400D03*
X2268900Y1131400D03*
D37*
X2037700Y1131400D03*
D38*
X1492600Y1131400D03*
D23*
X1455000Y1131400D03*
D29*
X1167400Y1131400D03*
X1148600Y1131400D03*
D39*
X2289550Y1127650D03*
D30*
X2272650Y1127650D03*
D40*
X2060300Y1127650D03*
D17*
X2015150Y1127650D03*
D15*
X1498250Y1127650D03*
D20*
X1453100Y1127650D03*
D30*
X1163650Y1127650D03*
D31*
X1148600Y1127650D03*
D28*
X2291450Y1123900D03*
X2272650Y1123900D03*
D41*
X2067750Y1123900D03*
D18*
X2013300Y1123900D03*
D42*
X1502000Y1123900D03*
D18*
X1453100Y1123900D03*
D28*
X1163650Y1123900D03*
X1144850Y1123900D03*
D30*
X2291450Y1120150D03*
X2276450Y1120150D03*
D43*
X2071550Y1120150D03*
D20*
X2013300Y1120150D03*
D44*
X1503900Y1120150D03*
D20*
X1453100Y1120150D03*
D30*
X1159850Y1120150D03*
X1144850Y1120150D03*
D36*
X2293350Y1116400D03*
D28*
X2276450Y1116400D03*
D13*
X2077150Y1116400D03*
D25*
X2015150Y1116400D03*
X1507650Y1116400D03*
D18*
X1453100Y1116400D03*
D28*
X1159850Y1116400D03*
D36*
X1142950Y1116400D03*
D30*
X2295250Y1112650D03*
D45*
X2278300Y1112650D03*
D43*
X2082850Y1112650D03*
D17*
X2015150Y1112650D03*
D44*
X1511400Y1112650D03*
X1455000Y1112650D03*
D45*
X1158000Y1112650D03*
D31*
X1141100Y1112650D03*
D28*
X2295250Y1108900D03*
D46*
X2278300Y1108900D03*
D13*
X2088450Y1108900D03*
X2017050Y1108900D03*
X1513250Y1108900D03*
D23*
X1455000Y1108900D03*
D28*
X1156150Y1108900D03*
D29*
X1141100Y1108900D03*
D46*
X2297100Y1105100D03*
D28*
X2280150Y1105100D03*
D13*
X2092250Y1105100D03*
D23*
X2018900Y1105100D03*
D13*
X1517050Y1105100D03*
X1456850Y1105100D03*
D28*
X1156150Y1105100D03*
D36*
X1139250Y1105100D03*
D45*
X2297100Y1101350D03*
D30*
X2280150Y1101350D03*
D15*
X2095950Y1101350D03*
X2020750Y1101350D03*
X1517050Y1101350D03*
X1460650Y1101350D03*
D39*
X1154250Y1101350D03*
D30*
X1137350Y1101350D03*
D28*
X2298950Y1097600D03*
D36*
X2282050Y1097600D03*
D13*
X2095950Y1097600D03*
D25*
X2022650Y1097600D03*
D13*
X1520750Y1097600D03*
D23*
X1462500Y1097600D03*
D36*
X1154250Y1097600D03*
D28*
X1137350Y1097600D03*
D30*
X2298950Y1093850D03*
X2283950Y1093850D03*
D15*
X2099750Y1093850D03*
D17*
X2026450Y1093850D03*
D15*
X1520750Y1093850D03*
D21*
X1464400Y1093850D03*
D31*
X1426800Y1093850D03*
D30*
X1152350Y1093850D03*
X1137350Y1093850D03*
D28*
X2298950Y1090100D03*
X2283950Y1090100D03*
D42*
X2103500Y1090100D03*
D13*
X2028350Y1090100D03*
X1524550Y1090100D03*
X1468150Y1090100D03*
D23*
X1428700Y1090100D03*
D28*
X1152350Y1090100D03*
D36*
X1135450Y1090100D03*
X2300850Y1086300D03*
D28*
X2283950Y1086300D03*
D13*
X2107250Y1086300D03*
D23*
X2030200Y1086300D03*
D13*
X1524550Y1086300D03*
X1471950Y1086300D03*
D42*
X1426800Y1086300D03*
D28*
X1152350Y1086300D03*
D36*
X1135450Y1086300D03*
D39*
X2300850Y1082550D03*
X2285850Y1082550D03*
D15*
X2107250Y1082550D03*
D17*
X2033950Y1082550D03*
D15*
X1528350Y1082550D03*
X1475650Y1082550D03*
D43*
X1428650Y1082550D03*
D39*
X1150450Y1082550D03*
D30*
X1133550Y1082550D03*
D36*
X2300850Y1078800D03*
X2285850Y1078800D03*
D13*
X2111050Y1078800D03*
D23*
X2037700Y1078800D03*
D13*
X1528350Y1078800D03*
X1479450Y1078800D03*
D47*
X1430550Y1078800D03*
D36*
X1150450Y1078800D03*
D28*
X1133550Y1078800D03*
D39*
X2300850Y1075050D03*
X2285850Y1075050D03*
D15*
X2114750Y1075050D03*
X2043350Y1075050D03*
D17*
X1838450Y1075050D03*
D15*
X1532050Y1075050D03*
D21*
X1483200Y1075050D03*
D43*
X1432450Y1075050D03*
D44*
X1379800Y1075050D03*
D20*
X1325300Y1075050D03*
D39*
X1150450Y1075050D03*
D30*
X1133550Y1075050D03*
D28*
X2302750Y1071300D03*
D36*
X2285850Y1071300D03*
D41*
X2116650Y1071300D03*
X2045250Y1071300D03*
D25*
X1838450Y1071300D03*
D41*
X1533950Y1071300D03*
D13*
X1486950Y1071300D03*
D41*
X1432450Y1071300D03*
D23*
X1379800Y1071300D03*
X1327200Y1071300D03*
D36*
X1150450Y1071300D03*
D28*
X1133550Y1071300D03*
X2302750Y1067500D03*
D36*
X2285850Y1067500D03*
D41*
X2116650Y1067500D03*
D23*
X2049000Y1067500D03*
D13*
X1840350Y1067500D03*
D41*
X1533950Y1067500D03*
D13*
X1490750Y1067500D03*
X1434350Y1067500D03*
X1381650Y1067500D03*
X1329050Y1067500D03*
D36*
X1150450Y1067500D03*
D28*
X1133550Y1067500D03*
D30*
X2302750Y1063750D03*
D39*
X2285850Y1063750D03*
D15*
X2118550Y1063750D03*
D20*
X2050900Y1063750D03*
D15*
X1840350Y1063750D03*
D48*
X1537700Y1063750D03*
D20*
X1490700Y1063750D03*
X1434300Y1063750D03*
D15*
X1381650Y1063750D03*
X1329050Y1063750D03*
D39*
X1150450Y1063750D03*
D30*
X1133550Y1063750D03*
D28*
X2302750Y1060000D03*
D36*
X2285850Y1060000D03*
D41*
X2120450Y1060000D03*
D42*
X1844100Y1060000D03*
D38*
X1537700Y1060000D03*
D13*
X1385450Y1060000D03*
X1332850Y1060000D03*
D36*
X1150450Y1060000D03*
D28*
X1133550Y1060000D03*
D39*
X2300850Y1056250D03*
X2285850Y1056250D03*
D21*
X2122300Y1056250D03*
D31*
X1908000Y1056250D03*
D44*
X1846000Y1056250D03*
D15*
X1539550Y1056250D03*
X1385450Y1056250D03*
X1332850Y1056250D03*
D39*
X1150450Y1056250D03*
D30*
X1133550Y1056250D03*
D36*
X2300850Y1052500D03*
X2285850Y1052500D03*
D42*
X2122300Y1052500D03*
D24*
X1909900Y1052500D03*
D49*
X1849750Y1052500D03*
D13*
X1539550Y1052500D03*
D50*
X1391050Y1052500D03*
D32*
X1330900Y1052500D03*
D36*
X1150450Y1052500D03*
D28*
X1133550Y1052500D03*
D36*
X2300850Y1048700D03*
X2285850Y1048700D03*
D41*
X2124150Y1048700D03*
D24*
X2011400Y1048700D03*
D25*
X1970050Y1048700D03*
D23*
X1909900Y1048700D03*
D34*
X1849750Y1048700D03*
D22*
X1793350Y1048700D03*
X1774550Y1048700D03*
D18*
X1723800Y1048700D03*
D24*
X1684300Y1048700D03*
X1643000Y1048700D03*
D13*
X1543350Y1048700D03*
D24*
X1447500Y1048700D03*
D51*
X1364800Y1048700D03*
D36*
X1150450Y1048700D03*
X1135450Y1048700D03*
D39*
X2300850Y1044950D03*
D30*
X2283950Y1044950D03*
D15*
X2126050Y1044950D03*
D44*
X2011400Y1044950D03*
D17*
X1970050Y1044950D03*
D15*
X1911750Y1044950D03*
D52*
X1851650Y1044950D03*
D53*
X1785850Y1044950D03*
D21*
X1723800Y1044950D03*
X1686200Y1044950D03*
D17*
X1642950Y1044950D03*
D15*
X1543350Y1044950D03*
D44*
X1447500Y1044950D03*
D54*
X1366650Y1044950D03*
D30*
X1152350Y1044950D03*
D39*
X1135450Y1044950D03*
D28*
X2298950Y1041200D03*
X2283950Y1041200D03*
D13*
X2126050Y1041200D03*
X2013250Y1041200D03*
X1971950Y1041200D03*
D41*
X1913650Y1041200D03*
D55*
X1853500Y1041200D03*
D56*
X1787700Y1041200D03*
D42*
X1723800Y1041200D03*
D41*
X1688050Y1041200D03*
X1646750Y1041200D03*
D57*
X1596000Y1041200D03*
D42*
X1547100Y1041200D03*
X1445600Y1041200D03*
D51*
X1368500Y1041200D03*
D28*
X1152350Y1041200D03*
D36*
X1135450Y1041200D03*
D30*
X2298950Y1037450D03*
X2283950Y1037450D03*
D15*
X2126050Y1037450D03*
X2013250Y1037450D03*
X1971950Y1037450D03*
D40*
X1917400Y1037450D03*
D58*
X1853500Y1037450D03*
D59*
X1787700Y1037450D03*
D43*
X1725650Y1037450D03*
D60*
X1689950Y1037450D03*
D61*
X1648600Y1037450D03*
D26*
X1597850Y1037450D03*
D21*
X1547100Y1037450D03*
D44*
X1447500Y1037450D03*
D53*
X1394850Y1037450D03*
D12*
X1347850Y1037450D03*
D30*
X1295250Y1037450D03*
X1152350Y1037450D03*
X1137350Y1037450D03*
D28*
X2298950Y1033700D03*
D36*
X2282050Y1033700D03*
D41*
X2127950Y1033700D03*
D13*
X2017050Y1033700D03*
X1975650Y1033700D03*
D62*
X1917400Y1033700D03*
D41*
X1857250Y1033700D03*
D42*
X1806500Y1033700D03*
D41*
X1774550Y1033700D03*
D63*
X1708750Y1033700D03*
D32*
X1650500Y1033700D03*
D18*
X1599700Y1033700D03*
D13*
X1550850Y1033700D03*
D41*
X1451250Y1033700D03*
D13*
X1400450Y1033700D03*
D41*
X1345950Y1033700D03*
D18*
X1299000Y1033700D03*
D36*
X1154250Y1033700D03*
D28*
X1137350Y1033700D03*
D46*
X2297100Y1029900D03*
D28*
X2280150Y1029900D03*
D41*
X2127950Y1029900D03*
D64*
X2020800Y1029900D03*
D41*
X1977550Y1029900D03*
D65*
X1919250Y1029900D03*
D41*
X1861050Y1029900D03*
D13*
X1810250Y1029900D03*
X1772650Y1029900D03*
D66*
X1691850Y1029900D03*
D42*
X1603500Y1029900D03*
D13*
X1550850Y1029900D03*
D38*
X1455000Y1029900D03*
D41*
X1402350Y1029900D03*
X1349750Y1029900D03*
D25*
X1300850Y1029900D03*
D36*
X1154250Y1029900D03*
D28*
X1137350Y1029900D03*
D45*
X2297100Y1026150D03*
D30*
X2280150Y1026150D03*
D43*
X2127950Y1026150D03*
D60*
X2024550Y1026150D03*
D43*
X1981350Y1026150D03*
D15*
X1934350Y1026150D03*
D44*
X1906100Y1026150D03*
D40*
X1864800Y1026150D03*
D48*
X1815900Y1026150D03*
D67*
X1710650Y1026150D03*
D15*
X1607250Y1026150D03*
D43*
X1552750Y1026150D03*
D40*
X1458800Y1026150D03*
D60*
X1404250Y1026150D03*
D61*
X1351600Y1026150D03*
D44*
X1304600Y1026150D03*
D30*
X1156150Y1026150D03*
D39*
X1139250Y1026150D03*
D28*
X2295250Y1022400D03*
D46*
X2278300Y1022400D03*
D41*
X2124150Y1022400D03*
D68*
X2028300Y1022400D03*
D64*
X1983200Y1022400D03*
D13*
X1941850Y1022400D03*
D23*
X1906100Y1022400D03*
D32*
X1868500Y1022400D03*
D64*
X1817800Y1022400D03*
D69*
X1708800Y1022400D03*
D13*
X1611050Y1022400D03*
X1554650Y1022400D03*
D70*
X1460650Y1022400D03*
D32*
X1409900Y1022400D03*
X1357300Y1022400D03*
D13*
X1310250Y1022400D03*
D28*
X1156150Y1022400D03*
D29*
X1141100Y1022400D03*
D30*
X2295250Y1018650D03*
X2276450Y1018650D03*
D43*
X2124150Y1018650D03*
D33*
X2032050Y1018650D03*
D60*
X1986950Y1018650D03*
D15*
X1949350Y1018650D03*
D71*
X1883550Y1018650D03*
D40*
X1823400Y1018650D03*
D54*
X1727550Y1018650D03*
D15*
X1652350Y1018650D03*
D43*
X1620450Y1018650D03*
D48*
X1556500Y1018650D03*
D33*
X1468150Y1018650D03*
D53*
X1413650Y1018650D03*
X1361050Y1018650D03*
D15*
X1314050Y1018650D03*
D45*
X1158000Y1018650D03*
D31*
X1141100Y1018650D03*
D36*
X2293350Y1014900D03*
D28*
X2276450Y1014900D03*
D32*
X2120400Y1014900D03*
D72*
X1934350Y1014900D03*
D73*
X1750100Y1014900D03*
D32*
X1688100Y1014900D03*
D35*
X1637300Y1014900D03*
D68*
X1565900Y1014900D03*
D74*
X1406150Y1014900D03*
D28*
X1159850Y1014900D03*
D36*
X1142950Y1014900D03*
D28*
X2291450Y1011100D03*
X2276450Y1011100D03*
D68*
X2114800Y1011100D03*
D75*
X2013300Y1011100D03*
D76*
X1855400Y1011100D03*
D32*
X1733200Y1011100D03*
X1691800Y1011100D03*
D77*
X1643000Y1011100D03*
D56*
X1565900Y1011100D03*
D78*
X1441850Y1011100D03*
D49*
X1338450Y1011100D03*
D36*
X1161750Y1011100D03*
D28*
X1144850Y1011100D03*
D30*
X2291450Y1007350D03*
X2272650Y1007350D03*
D79*
X2090350Y1007350D03*
X1996350Y1007350D03*
D80*
X1913650Y1007350D03*
D33*
X1855350Y1007350D03*
D81*
X1800850Y1007350D03*
D60*
X1738850Y1007350D03*
D48*
X1695600Y1007350D03*
D33*
X1644850Y1007350D03*
D82*
X1533950Y1007350D03*
D33*
X1449350Y1007350D03*
X1396750Y1007350D03*
D83*
X1344100Y1007350D03*
D30*
X1163650Y1007350D03*
X1144850Y1007350D03*
D36*
X2289550Y1003600D03*
D28*
X2272650Y1003600D03*
D84*
X2094100Y1003600D03*
D68*
X2020800Y1003600D03*
D32*
X1977600Y1003600D03*
D77*
X1917400Y1003600D03*
D70*
X1859150Y1003600D03*
D65*
X1802750Y1003600D03*
D41*
X1740750Y1003600D03*
D13*
X1697450Y1003600D03*
D68*
X1648600Y1003600D03*
D85*
X1539600Y1003600D03*
D68*
X1453100Y1003600D03*
D32*
X1402400Y1003600D03*
D70*
X1347850Y1003600D03*
D36*
X1165550Y1003600D03*
D29*
X1148600Y1003600D03*
D31*
X2287700Y999850D03*
X2268900Y999850D03*
D52*
X2095950Y999850D03*
D60*
X2024550Y999850D03*
D43*
X1985050Y999850D03*
D86*
X1919300Y999850D03*
D61*
X1862900Y999850D03*
D12*
X1802750Y999850D03*
D21*
X1742600Y999850D03*
D17*
X1699350Y999850D03*
D43*
X1654250Y999850D03*
D87*
X1543350Y999850D03*
D43*
X1458750Y999850D03*
X1406150Y999850D03*
X1349750Y999850D03*
D31*
X1167400Y999850D03*
X1148600Y999850D03*
D36*
X2285850Y996100D03*
D29*
X2268900Y996100D03*
D65*
X2095950Y996100D03*
D13*
X2024550Y996100D03*
D18*
X1987000Y996100D03*
D47*
X1923050Y996100D03*
D18*
X1866700Y996100D03*
D41*
X1804650Y996100D03*
D18*
X1742600Y996100D03*
D28*
X1701250Y996100D03*
D18*
X1656100Y996100D03*
D38*
X1575300Y996100D03*
D77*
X1526400Y996100D03*
D18*
X1460600Y996100D03*
D23*
X1409900Y996100D03*
D18*
X1355400Y996100D03*
D29*
X1167400Y996100D03*
D36*
X1150450Y996100D03*
D30*
X2283950Y992350D03*
X2265150Y992350D03*
D43*
X2097850Y992350D03*
D39*
X2030150Y992350D03*
D27*
X1924900Y992350D03*
D31*
X1806500Y992350D03*
D88*
X1742600Y992350D03*
D17*
X1579050Y992350D03*
D40*
X1526400Y992350D03*
D30*
X1171150Y992350D03*
X1152350Y992350D03*
D28*
X2280150Y988600D03*
D29*
X2261400Y988600D03*
D36*
X1579050Y988600D03*
D29*
X1528300Y988600D03*
D28*
X1174950Y988600D03*
X1156150Y988600D03*
D46*
X2278300Y984800D03*
D29*
X2261400Y984800D03*
D28*
X1174950Y984800D03*
X1156150Y984800D03*
D30*
X2276450Y981050D03*
X2257650Y981050D03*
X1178650Y981050D03*
X1159850Y981050D03*
D28*
X2272650Y977300D03*
X2253850Y977300D03*
X1182450Y977300D03*
X1163650Y977300D03*
D30*
X2272650Y973550D03*
X2250150Y973550D03*
D31*
X1186200Y973550D03*
X1167400Y973550D03*
D29*
X2268900Y969800D03*
D22*
X2248250Y969800D03*
D24*
X1188100Y969800D03*
D29*
X1167400Y969800D03*
D28*
X2265150Y966000D03*
D29*
X2242600Y966000D03*
D28*
X1193750Y966000D03*
X1171150Y966000D03*
D31*
X2261400Y962250D03*
D30*
X2238850Y962250D03*
D27*
X1195600Y962250D03*
D30*
X1174950Y962250D03*
D28*
X2257650Y958500D03*
D24*
X2233200Y958500D03*
X1203100Y958500D03*
D28*
X1178650Y958500D03*
D30*
X2253850Y954750D03*
D26*
X2229450Y954750D03*
D27*
X1206900Y954750D03*
D30*
X1182450Y954750D03*
D28*
X2250150Y951000D03*
D18*
X2223800Y951000D03*
X1212500Y951000D03*
D29*
X1186200Y951000D03*
D24*
X2244500Y947200D03*
D22*
X2218150Y947200D03*
X1218150Y947200D03*
X1191850Y947200D03*
D27*
X2240700Y943450D03*
D20*
X2212500Y943450D03*
X1223800Y943450D03*
D27*
X1195600Y943450D03*
D18*
X2235100Y939700D03*
D13*
X2201250Y939700D03*
X1235050Y939700D03*
D18*
X1201200Y939700D03*
D20*
X2231300Y935950D03*
D60*
X2189950Y935950D03*
X1246350Y935950D03*
D20*
X1205000Y935950D03*
D18*
X2223800Y932200D03*
D19*
X1718200Y932200D03*
D18*
X1212500Y932200D03*
X2216300Y928400D03*
D89*
X1718150Y928400D03*
D18*
X1220000Y928400D03*
D44*
X2206900Y924650D03*
D90*
X1718150Y924650D03*
D17*
X1229450Y924650D03*
D64*
X2197500Y920900D03*
D47*
X1238850Y920900D03*
D91*
X1718150Y917150D03*
D11*
X1718150Y913400D03*
D92*
X1716300Y909600D03*
M02*
