G04 EAGLE Gerber RS-274X export*
G75*
%MOMM*%
%FSLAX34Y34*%
%LPD*%
%INSoldermask Top*%
%IPPOS*%
%AMOC8*
5,1,8,0,0,1.08239X$1,22.5*%
G01*
%ADD10R,1.203200X1.303200*%
%ADD11C,0.838200*%
%ADD12R,0.503200X0.863200*%
%ADD13R,1.303200X1.203200*%
%ADD14R,1.103200X1.203200*%
%ADD15R,1.103200X1.703200*%
%ADD16R,1.703200X1.103200*%
%ADD17R,6.203200X6.203200*%
%ADD18R,0.753200X1.403200*%
%ADD19R,0.503200X1.053200*%
%ADD20R,1.053200X0.503200*%
%ADD21R,2.753200X2.753200*%
%ADD22C,3.505200*%
%ADD23R,1.219200X0.503200*%
%ADD24R,1.219200X0.803200*%
%ADD25R,1.219200X0.753200*%
%ADD26C,0.853200*%
%ADD27R,1.403200X2.703200*%
%ADD28C,1.403200*%
%ADD29C,0.500000*%
%ADD30C,0.903200*%
%ADD31C,1.103200*%
%ADD32R,1.403200X0.753200*%
%ADD33R,1.854200X1.203200*%
%ADD34R,0.838200X1.473200*%
%ADD35R,1.473200X0.838200*%

G36*
X3457855Y511584D02*
X3457855Y511584D01*
X3457858Y511581D01*
X3459125Y511786D01*
X3459131Y511792D01*
X3459136Y511789D01*
X3460325Y512271D01*
X3460329Y512278D01*
X3460335Y512276D01*
X3461388Y513010D01*
X3461390Y513018D01*
X3461396Y513017D01*
X3462259Y513967D01*
X3462260Y513976D01*
X3462265Y513976D01*
X3462895Y515095D01*
X3462894Y515103D01*
X3462900Y515105D01*
X3463265Y516335D01*
X3463262Y516342D01*
X3463266Y516345D01*
X3463265Y516345D01*
X3463267Y516346D01*
X3463349Y517627D01*
X3463347Y517631D01*
X3463349Y517633D01*
X3463267Y518914D01*
X3463261Y518920D01*
X3463265Y518925D01*
X3462900Y520155D01*
X3462893Y520160D01*
X3462895Y520165D01*
X3462265Y521284D01*
X3462258Y521287D01*
X3462259Y521293D01*
X3461396Y522243D01*
X3461388Y522244D01*
X3461388Y522250D01*
X3460335Y522984D01*
X3460327Y522984D01*
X3460325Y522989D01*
X3459136Y523471D01*
X3459128Y523469D01*
X3459125Y523474D01*
X3457858Y523679D01*
X3457853Y523676D01*
X3457850Y523679D01*
X3445850Y523679D01*
X3445846Y523676D01*
X3445843Y523679D01*
X3444721Y523524D01*
X3444716Y523519D01*
X3444712Y523522D01*
X3443641Y523151D01*
X3443637Y523145D01*
X3443632Y523147D01*
X3442655Y522574D01*
X3442652Y522568D01*
X3442647Y522569D01*
X3441800Y521816D01*
X3441798Y521809D01*
X3441793Y521809D01*
X3441109Y520906D01*
X3441109Y520899D01*
X3441104Y520898D01*
X3440609Y519879D01*
X3440611Y519872D01*
X3440609Y519871D01*
X3440606Y519870D01*
X3440319Y518773D01*
X3440322Y518767D01*
X3440318Y518764D01*
X3440251Y517633D01*
X3440253Y517629D01*
X3440251Y517627D01*
X3440318Y516496D01*
X3440323Y516491D01*
X3440319Y516487D01*
X3440606Y515390D01*
X3440612Y515386D01*
X3440609Y515381D01*
X3441104Y514362D01*
X3441110Y514359D01*
X3441109Y514354D01*
X3441793Y513451D01*
X3441800Y513449D01*
X3441800Y513444D01*
X3442647Y512691D01*
X3442654Y512691D01*
X3442655Y512686D01*
X3443632Y512113D01*
X3443639Y512114D01*
X3443641Y512109D01*
X3444712Y511738D01*
X3444718Y511741D01*
X3444721Y511736D01*
X3445843Y511581D01*
X3445848Y511584D01*
X3445850Y511581D01*
X3457850Y511581D01*
X3457855Y511584D01*
G37*
G36*
X3457855Y425184D02*
X3457855Y425184D01*
X3457858Y425181D01*
X3459125Y425386D01*
X3459131Y425392D01*
X3459136Y425389D01*
X3460325Y425871D01*
X3460329Y425878D01*
X3460335Y425876D01*
X3461388Y426610D01*
X3461390Y426618D01*
X3461396Y426617D01*
X3462259Y427567D01*
X3462260Y427576D01*
X3462265Y427576D01*
X3462895Y428695D01*
X3462894Y428703D01*
X3462900Y428705D01*
X3463265Y429935D01*
X3463262Y429942D01*
X3463266Y429945D01*
X3463265Y429945D01*
X3463267Y429946D01*
X3463349Y431227D01*
X3463347Y431231D01*
X3463349Y431233D01*
X3463267Y432514D01*
X3463261Y432520D01*
X3463265Y432525D01*
X3462900Y433755D01*
X3462893Y433760D01*
X3462895Y433765D01*
X3462265Y434884D01*
X3462258Y434887D01*
X3462259Y434893D01*
X3461396Y435843D01*
X3461388Y435844D01*
X3461388Y435850D01*
X3460335Y436584D01*
X3460327Y436584D01*
X3460325Y436589D01*
X3459136Y437071D01*
X3459128Y437069D01*
X3459125Y437074D01*
X3457858Y437279D01*
X3457853Y437276D01*
X3457850Y437279D01*
X3445850Y437279D01*
X3445846Y437276D01*
X3445843Y437279D01*
X3444721Y437124D01*
X3444716Y437119D01*
X3444712Y437122D01*
X3443641Y436751D01*
X3443637Y436745D01*
X3443632Y436747D01*
X3442655Y436174D01*
X3442652Y436168D01*
X3442647Y436169D01*
X3441800Y435416D01*
X3441798Y435409D01*
X3441793Y435409D01*
X3441109Y434506D01*
X3441109Y434499D01*
X3441104Y434498D01*
X3440609Y433479D01*
X3440611Y433472D01*
X3440609Y433471D01*
X3440606Y433470D01*
X3440319Y432373D01*
X3440322Y432367D01*
X3440318Y432364D01*
X3440251Y431233D01*
X3440253Y431229D01*
X3440251Y431227D01*
X3440318Y430096D01*
X3440323Y430091D01*
X3440319Y430087D01*
X3440606Y428990D01*
X3440612Y428986D01*
X3440609Y428981D01*
X3441104Y427962D01*
X3441110Y427959D01*
X3441109Y427954D01*
X3441793Y427051D01*
X3441800Y427049D01*
X3441800Y427044D01*
X3442647Y426291D01*
X3442654Y426291D01*
X3442655Y426286D01*
X3443632Y425713D01*
X3443639Y425714D01*
X3443641Y425709D01*
X3444712Y425338D01*
X3444718Y425341D01*
X3444721Y425336D01*
X3445843Y425181D01*
X3445848Y425184D01*
X3445850Y425181D01*
X3457850Y425181D01*
X3457855Y425184D01*
G37*
G36*
X3496654Y511583D02*
X3496654Y511583D01*
X3496656Y511581D01*
X3497985Y511736D01*
X3497991Y511742D01*
X3497995Y511739D01*
X3499256Y512186D01*
X3499261Y512193D01*
X3499266Y512191D01*
X3500396Y512908D01*
X3500399Y512915D01*
X3500405Y512914D01*
X3501347Y513865D01*
X3501348Y513873D01*
X3501354Y513873D01*
X3502061Y515009D01*
X3502061Y515014D01*
X3502062Y515015D01*
X3502061Y515017D01*
X3502066Y515019D01*
X3502502Y516284D01*
X3502500Y516292D01*
X3502505Y516295D01*
X3502649Y517625D01*
X3502645Y517631D01*
X3502649Y517635D01*
X3502539Y518801D01*
X3502534Y518806D01*
X3502537Y518810D01*
X3502202Y519933D01*
X3502196Y519937D01*
X3502198Y519941D01*
X3501650Y520977D01*
X3501644Y520980D01*
X3501645Y520985D01*
X3500906Y521893D01*
X3500899Y521895D01*
X3500899Y521900D01*
X3499997Y522647D01*
X3499990Y522647D01*
X3499989Y522653D01*
X3498958Y523209D01*
X3498951Y523208D01*
X3498949Y523213D01*
X3497830Y523557D01*
X3497823Y523555D01*
X3497820Y523559D01*
X3496655Y523679D01*
X3496652Y523677D01*
X3496650Y523679D01*
X3490650Y523679D01*
X3490647Y523677D01*
X3490645Y523679D01*
X3489469Y523568D01*
X3489464Y523563D01*
X3489460Y523566D01*
X3488328Y523228D01*
X3488324Y523222D01*
X3488319Y523224D01*
X3487275Y522672D01*
X3487272Y522665D01*
X3487267Y522667D01*
X3486351Y521921D01*
X3486350Y521914D01*
X3486344Y521914D01*
X3485591Y521005D01*
X3485591Y520997D01*
X3485586Y520997D01*
X3485025Y519957D01*
X3485026Y519950D01*
X3485021Y519948D01*
X3484674Y518819D01*
X3484676Y518813D01*
X3484672Y518810D01*
X3484551Y517635D01*
X3484555Y517628D01*
X3484551Y517624D01*
X3484708Y516284D01*
X3484713Y516278D01*
X3484710Y516273D01*
X3485161Y515002D01*
X3485168Y514997D01*
X3485166Y514992D01*
X3485888Y513853D01*
X3485896Y513850D01*
X3485895Y513844D01*
X3486853Y512894D01*
X3486861Y512893D01*
X3486862Y512887D01*
X3488007Y512174D01*
X3488016Y512175D01*
X3488017Y512169D01*
X3489293Y511729D01*
X3489300Y511731D01*
X3489302Y511729D01*
X3489303Y511727D01*
X3490645Y511581D01*
X3490648Y511583D01*
X3490650Y511581D01*
X3496650Y511581D01*
X3496654Y511583D01*
G37*
G36*
X3496654Y425183D02*
X3496654Y425183D01*
X3496656Y425181D01*
X3497985Y425336D01*
X3497991Y425342D01*
X3497995Y425339D01*
X3499256Y425786D01*
X3499261Y425793D01*
X3499266Y425791D01*
X3500396Y426508D01*
X3500399Y426515D01*
X3500405Y426514D01*
X3501347Y427465D01*
X3501348Y427473D01*
X3501354Y427473D01*
X3502061Y428609D01*
X3502061Y428614D01*
X3502062Y428615D01*
X3502061Y428617D01*
X3502066Y428619D01*
X3502502Y429884D01*
X3502500Y429892D01*
X3502505Y429895D01*
X3502649Y431225D01*
X3502645Y431231D01*
X3502649Y431235D01*
X3502539Y432401D01*
X3502534Y432406D01*
X3502537Y432410D01*
X3502202Y433533D01*
X3502196Y433537D01*
X3502198Y433541D01*
X3501650Y434577D01*
X3501644Y434580D01*
X3501645Y434585D01*
X3500906Y435493D01*
X3500899Y435495D01*
X3500899Y435500D01*
X3499997Y436247D01*
X3499990Y436247D01*
X3499989Y436253D01*
X3498958Y436809D01*
X3498951Y436808D01*
X3498949Y436813D01*
X3497830Y437157D01*
X3497823Y437155D01*
X3497820Y437159D01*
X3496655Y437279D01*
X3496652Y437277D01*
X3496650Y437279D01*
X3490650Y437279D01*
X3490647Y437277D01*
X3490645Y437279D01*
X3489469Y437168D01*
X3489464Y437163D01*
X3489460Y437166D01*
X3488328Y436828D01*
X3488324Y436822D01*
X3488319Y436824D01*
X3487275Y436272D01*
X3487272Y436265D01*
X3487267Y436267D01*
X3486351Y435521D01*
X3486350Y435514D01*
X3486344Y435514D01*
X3485591Y434605D01*
X3485591Y434597D01*
X3485586Y434597D01*
X3485025Y433557D01*
X3485026Y433550D01*
X3485021Y433548D01*
X3484674Y432419D01*
X3484676Y432413D01*
X3484672Y432410D01*
X3484551Y431235D01*
X3484555Y431228D01*
X3484551Y431224D01*
X3484708Y429884D01*
X3484713Y429878D01*
X3484710Y429873D01*
X3485161Y428602D01*
X3485168Y428597D01*
X3485166Y428592D01*
X3485888Y427453D01*
X3485896Y427450D01*
X3485895Y427444D01*
X3486853Y426494D01*
X3486861Y426493D01*
X3486862Y426487D01*
X3488007Y425774D01*
X3488016Y425775D01*
X3488017Y425769D01*
X3489293Y425329D01*
X3489300Y425331D01*
X3489302Y425329D01*
X3489303Y425327D01*
X3490645Y425181D01*
X3490648Y425183D01*
X3490650Y425181D01*
X3496650Y425181D01*
X3496654Y425183D01*
G37*
D10*
X140000Y173500D03*
X140000Y156500D03*
D11*
X3137500Y2100000D03*
X95550Y425000D03*
X10000Y20000D03*
D12*
X288300Y35250D03*
X294800Y53650D03*
X301300Y53650D03*
X288300Y53650D03*
X294800Y35250D03*
X301300Y35250D03*
D13*
X206600Y17900D03*
X223600Y17900D03*
X286300Y19050D03*
X303300Y19050D03*
X286300Y69850D03*
X303300Y69850D03*
D10*
X269400Y52950D03*
X269400Y35950D03*
D14*
X325100Y55500D03*
X325100Y71500D03*
X366100Y71500D03*
X366100Y55500D03*
X366100Y33400D03*
X366100Y17400D03*
X325100Y17400D03*
X325100Y33400D03*
D15*
X562300Y183980D03*
X549600Y183980D03*
X536900Y183980D03*
X524200Y183980D03*
X511500Y183980D03*
X498800Y183980D03*
X486100Y183980D03*
X473400Y183980D03*
X460700Y183980D03*
X448000Y183980D03*
X435300Y183980D03*
X422600Y183980D03*
X409900Y183980D03*
X397200Y183980D03*
D16*
X382300Y158750D03*
X382300Y146050D03*
X382300Y133350D03*
X382300Y120650D03*
X382300Y107950D03*
X382300Y95250D03*
X382300Y82550D03*
X382300Y69850D03*
X382300Y57150D03*
X382300Y44450D03*
D15*
X397200Y19220D03*
X409900Y19220D03*
X422600Y19220D03*
X435300Y19220D03*
X448000Y19220D03*
X460700Y19220D03*
X473400Y19220D03*
X486100Y19220D03*
X498800Y19220D03*
X511500Y19220D03*
X524200Y19220D03*
X536900Y19220D03*
X549600Y19220D03*
X562300Y19220D03*
D17*
X485300Y101600D03*
D18*
X155200Y152799D03*
X164700Y152799D03*
X174200Y152799D03*
X174200Y178801D03*
X155200Y178801D03*
D19*
X218800Y84000D03*
X223800Y84000D03*
X228800Y84000D03*
X233800Y84000D03*
X238800Y84000D03*
X243800Y84000D03*
D20*
X251800Y76000D03*
X251800Y71000D03*
X251800Y66000D03*
X251800Y61000D03*
X251800Y56000D03*
X251800Y51000D03*
X210800Y51000D03*
X210800Y56000D03*
X210800Y61000D03*
X210800Y66000D03*
X210800Y71000D03*
X210800Y76000D03*
D19*
X243800Y43000D03*
X238800Y43000D03*
X233800Y43000D03*
X228800Y43000D03*
X223800Y43000D03*
X218800Y43000D03*
D21*
X231300Y63500D03*
D22*
X3338600Y75000D03*
X77500Y77500D03*
D23*
X3441110Y481930D03*
X3441110Y476930D03*
D24*
X3441110Y506680D03*
D25*
X3441110Y498930D03*
D23*
X3441110Y491930D03*
X3441110Y486930D03*
X3441110Y466930D03*
X3441110Y471930D03*
D24*
X3441110Y442180D03*
D25*
X3441110Y449930D03*
D23*
X3441110Y456930D03*
X3441110Y461930D03*
D26*
X3457100Y445530D03*
X3457100Y503330D03*
D13*
X3402400Y488400D03*
X3419400Y488400D03*
X3402400Y463000D03*
X3419400Y463000D03*
D27*
X3410500Y253500D03*
X3399500Y318500D03*
X3450500Y253500D03*
X3480500Y253500D03*
D28*
X3496500Y286000D03*
X3426500Y286000D03*
D29*
X289300Y100000D02*
X289302Y100172D01*
X289308Y100343D01*
X289319Y100515D01*
X289334Y100686D01*
X289353Y100857D01*
X289376Y101027D01*
X289403Y101197D01*
X289435Y101366D01*
X289470Y101534D01*
X289510Y101701D01*
X289554Y101867D01*
X289601Y102032D01*
X289653Y102196D01*
X289709Y102358D01*
X289769Y102519D01*
X289833Y102679D01*
X289901Y102837D01*
X289972Y102993D01*
X290047Y103147D01*
X290127Y103300D01*
X290209Y103450D01*
X290296Y103599D01*
X290386Y103745D01*
X290480Y103889D01*
X290577Y104031D01*
X290678Y104170D01*
X290782Y104307D01*
X290889Y104441D01*
X291000Y104572D01*
X291113Y104701D01*
X291230Y104827D01*
X291350Y104950D01*
X291473Y105070D01*
X291599Y105187D01*
X291728Y105300D01*
X291859Y105411D01*
X291993Y105518D01*
X292130Y105622D01*
X292269Y105723D01*
X292411Y105820D01*
X292555Y105914D01*
X292701Y106004D01*
X292850Y106091D01*
X293000Y106173D01*
X293153Y106253D01*
X293307Y106328D01*
X293463Y106399D01*
X293621Y106467D01*
X293781Y106531D01*
X293942Y106591D01*
X294104Y106647D01*
X294268Y106699D01*
X294433Y106746D01*
X294599Y106790D01*
X294766Y106830D01*
X294934Y106865D01*
X295103Y106897D01*
X295273Y106924D01*
X295443Y106947D01*
X295614Y106966D01*
X295785Y106981D01*
X295957Y106992D01*
X296128Y106998D01*
X296300Y107000D01*
X296472Y106998D01*
X296643Y106992D01*
X296815Y106981D01*
X296986Y106966D01*
X297157Y106947D01*
X297327Y106924D01*
X297497Y106897D01*
X297666Y106865D01*
X297834Y106830D01*
X298001Y106790D01*
X298167Y106746D01*
X298332Y106699D01*
X298496Y106647D01*
X298658Y106591D01*
X298819Y106531D01*
X298979Y106467D01*
X299137Y106399D01*
X299293Y106328D01*
X299447Y106253D01*
X299600Y106173D01*
X299750Y106091D01*
X299899Y106004D01*
X300045Y105914D01*
X300189Y105820D01*
X300331Y105723D01*
X300470Y105622D01*
X300607Y105518D01*
X300741Y105411D01*
X300872Y105300D01*
X301001Y105187D01*
X301127Y105070D01*
X301250Y104950D01*
X301370Y104827D01*
X301487Y104701D01*
X301600Y104572D01*
X301711Y104441D01*
X301818Y104307D01*
X301922Y104170D01*
X302023Y104031D01*
X302120Y103889D01*
X302214Y103745D01*
X302304Y103599D01*
X302391Y103450D01*
X302473Y103300D01*
X302553Y103147D01*
X302628Y102993D01*
X302699Y102837D01*
X302767Y102679D01*
X302831Y102519D01*
X302891Y102358D01*
X302947Y102196D01*
X302999Y102032D01*
X303046Y101867D01*
X303090Y101701D01*
X303130Y101534D01*
X303165Y101366D01*
X303197Y101197D01*
X303224Y101027D01*
X303247Y100857D01*
X303266Y100686D01*
X303281Y100515D01*
X303292Y100343D01*
X303298Y100172D01*
X303300Y100000D01*
X303298Y99828D01*
X303292Y99657D01*
X303281Y99485D01*
X303266Y99314D01*
X303247Y99143D01*
X303224Y98973D01*
X303197Y98803D01*
X303165Y98634D01*
X303130Y98466D01*
X303090Y98299D01*
X303046Y98133D01*
X302999Y97968D01*
X302947Y97804D01*
X302891Y97642D01*
X302831Y97481D01*
X302767Y97321D01*
X302699Y97163D01*
X302628Y97007D01*
X302553Y96853D01*
X302473Y96700D01*
X302391Y96550D01*
X302304Y96401D01*
X302214Y96255D01*
X302120Y96111D01*
X302023Y95969D01*
X301922Y95830D01*
X301818Y95693D01*
X301711Y95559D01*
X301600Y95428D01*
X301487Y95299D01*
X301370Y95173D01*
X301250Y95050D01*
X301127Y94930D01*
X301001Y94813D01*
X300872Y94700D01*
X300741Y94589D01*
X300607Y94482D01*
X300470Y94378D01*
X300331Y94277D01*
X300189Y94180D01*
X300045Y94086D01*
X299899Y93996D01*
X299750Y93909D01*
X299600Y93827D01*
X299447Y93747D01*
X299293Y93672D01*
X299137Y93601D01*
X298979Y93533D01*
X298819Y93469D01*
X298658Y93409D01*
X298496Y93353D01*
X298332Y93301D01*
X298167Y93254D01*
X298001Y93210D01*
X297834Y93170D01*
X297666Y93135D01*
X297497Y93103D01*
X297327Y93076D01*
X297157Y93053D01*
X296986Y93034D01*
X296815Y93019D01*
X296643Y93008D01*
X296472Y93002D01*
X296300Y93000D01*
X296128Y93002D01*
X295957Y93008D01*
X295785Y93019D01*
X295614Y93034D01*
X295443Y93053D01*
X295273Y93076D01*
X295103Y93103D01*
X294934Y93135D01*
X294766Y93170D01*
X294599Y93210D01*
X294433Y93254D01*
X294268Y93301D01*
X294104Y93353D01*
X293942Y93409D01*
X293781Y93469D01*
X293621Y93533D01*
X293463Y93601D01*
X293307Y93672D01*
X293153Y93747D01*
X293000Y93827D01*
X292850Y93909D01*
X292701Y93996D01*
X292555Y94086D01*
X292411Y94180D01*
X292269Y94277D01*
X292130Y94378D01*
X291993Y94482D01*
X291859Y94589D01*
X291728Y94700D01*
X291599Y94813D01*
X291473Y94930D01*
X291350Y95050D01*
X291230Y95173D01*
X291113Y95299D01*
X291000Y95428D01*
X290889Y95559D01*
X290782Y95693D01*
X290678Y95830D01*
X290577Y95969D01*
X290480Y96111D01*
X290386Y96255D01*
X290296Y96401D01*
X290209Y96550D01*
X290127Y96700D01*
X290047Y96853D01*
X289972Y97007D01*
X289901Y97163D01*
X289833Y97321D01*
X289769Y97481D01*
X289709Y97642D01*
X289653Y97804D01*
X289601Y97968D01*
X289554Y98133D01*
X289510Y98299D01*
X289470Y98466D01*
X289435Y98634D01*
X289403Y98803D01*
X289376Y98973D01*
X289353Y99143D01*
X289334Y99314D01*
X289319Y99485D01*
X289308Y99657D01*
X289302Y99828D01*
X289300Y100000D01*
D30*
X309300Y92000D03*
D31*
X296300Y126200D03*
X284300Y126200D03*
D30*
X283300Y92000D03*
D31*
X308300Y126200D03*
X296300Y100000D03*
D13*
X293500Y150000D03*
X276500Y150000D03*
X241500Y150000D03*
X258500Y150000D03*
D32*
X263301Y167200D03*
X263301Y176700D03*
X263301Y186200D03*
X237299Y186200D03*
X237299Y167200D03*
D10*
X335000Y185500D03*
X335000Y168500D03*
X305150Y168200D03*
X305150Y185200D03*
X286100Y185200D03*
X286100Y168200D03*
D13*
X258500Y120000D03*
X241500Y120000D03*
D10*
X218550Y168200D03*
X218550Y185200D03*
D13*
X241500Y135000D03*
X258500Y135000D03*
X3355900Y279650D03*
X3338900Y279650D03*
X3355900Y336800D03*
X3338900Y336800D03*
X3338900Y298700D03*
X3355900Y298700D03*
X3355900Y241550D03*
X3338900Y241550D03*
X3355900Y317750D03*
X3338900Y317750D03*
X3338900Y260600D03*
X3355900Y260600D03*
D10*
X3372800Y326250D03*
X3372800Y309250D03*
X3372800Y269100D03*
X3372800Y252100D03*
D33*
X308820Y2009000D03*
X257280Y2009000D03*
X257280Y2041000D03*
X308820Y2041000D03*
X458820Y2009000D03*
X407280Y2009000D03*
X407280Y2041000D03*
X458820Y2041000D03*
D34*
X278986Y2025000D03*
X287114Y2025000D03*
X428986Y2025000D03*
X437114Y2025000D03*
D33*
X608820Y2009000D03*
X557280Y2009000D03*
X557280Y2041000D03*
X608820Y2041000D03*
X758820Y2009000D03*
X707280Y2009000D03*
X707280Y2041000D03*
X758820Y2041000D03*
D34*
X578986Y2025000D03*
X587114Y2025000D03*
X728986Y2025000D03*
X737114Y2025000D03*
D33*
X908820Y2009000D03*
X857280Y2009000D03*
X857280Y2041000D03*
X908820Y2041000D03*
X1058820Y2009000D03*
X1007280Y2009000D03*
X1007280Y2041000D03*
X1058820Y2041000D03*
D34*
X878986Y2025000D03*
X887114Y2025000D03*
X1028986Y2025000D03*
X1037114Y2025000D03*
D33*
X1208820Y2009000D03*
X1157280Y2009000D03*
X1157280Y2041000D03*
X1208820Y2041000D03*
X1358820Y2009000D03*
X1307280Y2009000D03*
X1307280Y2041000D03*
X1358820Y2041000D03*
D34*
X1178986Y2025000D03*
X1187114Y2025000D03*
X1328986Y2025000D03*
X1337114Y2025000D03*
D33*
X1508820Y2009000D03*
X1457280Y2009000D03*
X1457280Y2041000D03*
X1508820Y2041000D03*
D34*
X1478986Y2025000D03*
X1487114Y2025000D03*
D33*
X2108820Y2009000D03*
X2057280Y2009000D03*
X2057280Y2041000D03*
X2108820Y2041000D03*
D34*
X2078986Y2025000D03*
X2087114Y2025000D03*
D33*
X2258820Y2009000D03*
X2207280Y2009000D03*
X2207280Y2041000D03*
X2258820Y2041000D03*
X2408820Y2009000D03*
X2357280Y2009000D03*
X2357280Y2041000D03*
X2408820Y2041000D03*
D34*
X2228986Y2025000D03*
X2237114Y2025000D03*
X2378986Y2025000D03*
X2387114Y2025000D03*
D33*
X2558820Y2009000D03*
X2507280Y2009000D03*
X2507280Y2041000D03*
X2558820Y2041000D03*
X2708820Y2009000D03*
X2657280Y2009000D03*
X2657280Y2041000D03*
X2708820Y2041000D03*
D34*
X2528986Y2025000D03*
X2537114Y2025000D03*
X2678986Y2025000D03*
X2687114Y2025000D03*
D33*
X2858820Y2009000D03*
X2807280Y2009000D03*
X2807280Y2041000D03*
X2858820Y2041000D03*
X3008820Y2009000D03*
X2957280Y2009000D03*
X2957280Y2041000D03*
X3008820Y2041000D03*
D34*
X2828986Y2025000D03*
X2837114Y2025000D03*
X2978986Y2025000D03*
X2987114Y2025000D03*
D33*
X158820Y1859000D03*
X107280Y1859000D03*
X107280Y1891000D03*
X158820Y1891000D03*
D34*
X128986Y1875000D03*
X137114Y1875000D03*
D33*
X308820Y1859000D03*
X257280Y1859000D03*
X257280Y1891000D03*
X308820Y1891000D03*
D34*
X278986Y1875000D03*
X287114Y1875000D03*
D33*
X458820Y1859000D03*
X407280Y1859000D03*
X407280Y1891000D03*
X458820Y1891000D03*
X608820Y1859000D03*
X557280Y1859000D03*
X557280Y1891000D03*
X608820Y1891000D03*
D34*
X428986Y1875000D03*
X437114Y1875000D03*
X578986Y1875000D03*
X587114Y1875000D03*
D33*
X758820Y1859000D03*
X707280Y1859000D03*
X707280Y1891000D03*
X758820Y1891000D03*
X908820Y1859000D03*
X857280Y1859000D03*
X857280Y1891000D03*
X908820Y1891000D03*
D34*
X728986Y1875000D03*
X737114Y1875000D03*
X878986Y1875000D03*
X887114Y1875000D03*
D33*
X1058820Y1859000D03*
X1007280Y1859000D03*
X1007280Y1891000D03*
X1058820Y1891000D03*
X1208820Y1859000D03*
X1157280Y1859000D03*
X1157280Y1891000D03*
X1208820Y1891000D03*
D34*
X1028986Y1875000D03*
X1037114Y1875000D03*
X1178986Y1875000D03*
X1187114Y1875000D03*
D33*
X1358820Y1859000D03*
X1307280Y1859000D03*
X1307280Y1891000D03*
X1358820Y1891000D03*
X1508820Y1859000D03*
X1457280Y1859000D03*
X1457280Y1891000D03*
X1508820Y1891000D03*
D34*
X1328986Y1875000D03*
X1337114Y1875000D03*
X1478986Y1875000D03*
X1487114Y1875000D03*
D33*
X1658820Y1859000D03*
X1607280Y1859000D03*
X1607280Y1891000D03*
X1658820Y1891000D03*
X1808820Y1859000D03*
X1757280Y1859000D03*
X1757280Y1891000D03*
X1808820Y1891000D03*
D34*
X1628986Y1875000D03*
X1637114Y1875000D03*
X1778986Y1875000D03*
X1787114Y1875000D03*
D33*
X1958820Y1859000D03*
X1907280Y1859000D03*
X1907280Y1891000D03*
X1958820Y1891000D03*
D34*
X1928986Y1875000D03*
X1937114Y1875000D03*
D33*
X2108820Y1859000D03*
X2057280Y1859000D03*
X2057280Y1891000D03*
X2108820Y1891000D03*
X2258820Y1859000D03*
X2207280Y1859000D03*
X2207280Y1891000D03*
X2258820Y1891000D03*
D34*
X2078986Y1875000D03*
X2087114Y1875000D03*
X2228986Y1875000D03*
X2237114Y1875000D03*
D33*
X2408820Y1859000D03*
X2357280Y1859000D03*
X2357280Y1891000D03*
X2408820Y1891000D03*
X2558820Y1859000D03*
X2507280Y1859000D03*
X2507280Y1891000D03*
X2558820Y1891000D03*
D34*
X2378986Y1875000D03*
X2387114Y1875000D03*
X2528986Y1875000D03*
X2537114Y1875000D03*
D33*
X2708820Y1859000D03*
X2657280Y1859000D03*
X2657280Y1891000D03*
X2708820Y1891000D03*
X2858820Y1859000D03*
X2807280Y1859000D03*
X2807280Y1891000D03*
X2858820Y1891000D03*
D34*
X2678986Y1875000D03*
X2687114Y1875000D03*
X2828986Y1875000D03*
X2837114Y1875000D03*
D33*
X3008820Y1859000D03*
X2957280Y1859000D03*
X2957280Y1891000D03*
X3008820Y1891000D03*
X3158820Y1859000D03*
X3107280Y1859000D03*
X3107280Y1891000D03*
X3158820Y1891000D03*
D34*
X2978986Y1875000D03*
X2987114Y1875000D03*
X3128986Y1875000D03*
X3137114Y1875000D03*
D33*
X158820Y1709000D03*
X107280Y1709000D03*
X107280Y1741000D03*
X158820Y1741000D03*
X308820Y1709000D03*
X257280Y1709000D03*
X257280Y1741000D03*
X308820Y1741000D03*
D34*
X128986Y1725000D03*
X137114Y1725000D03*
X278986Y1725000D03*
X287114Y1725000D03*
D33*
X458820Y1709000D03*
X407280Y1709000D03*
X407280Y1741000D03*
X458820Y1741000D03*
D34*
X428986Y1725000D03*
X437114Y1725000D03*
D33*
X608820Y1709000D03*
X557280Y1709000D03*
X557280Y1741000D03*
X608820Y1741000D03*
X758820Y1709000D03*
X707280Y1709000D03*
X707280Y1741000D03*
X758820Y1741000D03*
D34*
X578986Y1725000D03*
X587114Y1725000D03*
X728986Y1725000D03*
X737114Y1725000D03*
D33*
X908820Y1709000D03*
X857280Y1709000D03*
X857280Y1741000D03*
X908820Y1741000D03*
X1058820Y1709000D03*
X1007280Y1709000D03*
X1007280Y1741000D03*
X1058820Y1741000D03*
D34*
X878986Y1725000D03*
X887114Y1725000D03*
X1028986Y1725000D03*
X1037114Y1725000D03*
D33*
X1208820Y1709000D03*
X1157280Y1709000D03*
X1157280Y1741000D03*
X1208820Y1741000D03*
X1358820Y1709000D03*
X1307280Y1709000D03*
X1307280Y1741000D03*
X1358820Y1741000D03*
D34*
X1178986Y1725000D03*
X1187114Y1725000D03*
X1328986Y1725000D03*
X1337114Y1725000D03*
D33*
X1508820Y1709000D03*
X1457280Y1709000D03*
X1457280Y1741000D03*
X1508820Y1741000D03*
X1658820Y1709000D03*
X1607280Y1709000D03*
X1607280Y1741000D03*
X1658820Y1741000D03*
D34*
X1478986Y1725000D03*
X1487114Y1725000D03*
X1628986Y1725000D03*
X1637114Y1725000D03*
D33*
X1808820Y1709000D03*
X1757280Y1709000D03*
X1757280Y1741000D03*
X1808820Y1741000D03*
X1958820Y1709000D03*
X1907280Y1709000D03*
X1907280Y1741000D03*
X1958820Y1741000D03*
D34*
X1778986Y1725000D03*
X1787114Y1725000D03*
X1928986Y1725000D03*
X1937114Y1725000D03*
D33*
X2108820Y1709000D03*
X2057280Y1709000D03*
X2057280Y1741000D03*
X2108820Y1741000D03*
D34*
X2078986Y1725000D03*
X2087114Y1725000D03*
D33*
X2258820Y1709000D03*
X2207280Y1709000D03*
X2207280Y1741000D03*
X2258820Y1741000D03*
X2408820Y1709000D03*
X2357280Y1709000D03*
X2357280Y1741000D03*
X2408820Y1741000D03*
D34*
X2228986Y1725000D03*
X2237114Y1725000D03*
X2378986Y1725000D03*
X2387114Y1725000D03*
D33*
X2558820Y1709000D03*
X2507280Y1709000D03*
X2507280Y1741000D03*
X2558820Y1741000D03*
X2708820Y1709000D03*
X2657280Y1709000D03*
X2657280Y1741000D03*
X2708820Y1741000D03*
D34*
X2528986Y1725000D03*
X2537114Y1725000D03*
X2678986Y1725000D03*
X2687114Y1725000D03*
D33*
X2858820Y1709000D03*
X2807280Y1709000D03*
X2807280Y1741000D03*
X2858820Y1741000D03*
X3008820Y1709000D03*
X2957280Y1709000D03*
X2957280Y1741000D03*
X3008820Y1741000D03*
D34*
X2828986Y1725000D03*
X2837114Y1725000D03*
X2978986Y1725000D03*
X2987114Y1725000D03*
D33*
X3158820Y1709000D03*
X3107280Y1709000D03*
X3107280Y1741000D03*
X3158820Y1741000D03*
X158820Y1559000D03*
X107280Y1559000D03*
X107280Y1591000D03*
X158820Y1591000D03*
D34*
X3128986Y1725000D03*
X3137114Y1725000D03*
X128986Y1575000D03*
X137114Y1575000D03*
D33*
X308820Y1559000D03*
X257280Y1559000D03*
X257280Y1591000D03*
X308820Y1591000D03*
X458820Y1559000D03*
X407280Y1559000D03*
X407280Y1591000D03*
X458820Y1591000D03*
D34*
X278986Y1575000D03*
X287114Y1575000D03*
X428986Y1575000D03*
X437114Y1575000D03*
D33*
X608820Y1559000D03*
X557280Y1559000D03*
X557280Y1591000D03*
X608820Y1591000D03*
D34*
X578986Y1575000D03*
X587114Y1575000D03*
D33*
X758820Y1559000D03*
X707280Y1559000D03*
X707280Y1591000D03*
X758820Y1591000D03*
X908820Y1559000D03*
X857280Y1559000D03*
X857280Y1591000D03*
X908820Y1591000D03*
D34*
X728986Y1575000D03*
X737114Y1575000D03*
X878986Y1575000D03*
X887114Y1575000D03*
D33*
X1058820Y1559000D03*
X1007280Y1559000D03*
X1007280Y1591000D03*
X1058820Y1591000D03*
X1208820Y1559000D03*
X1157280Y1559000D03*
X1157280Y1591000D03*
X1208820Y1591000D03*
D34*
X1028986Y1575000D03*
X1037114Y1575000D03*
X1178986Y1575000D03*
X1187114Y1575000D03*
D33*
X1358820Y1559000D03*
X1307280Y1559000D03*
X1307280Y1591000D03*
X1358820Y1591000D03*
X1508820Y1559000D03*
X1457280Y1559000D03*
X1457280Y1591000D03*
X1508820Y1591000D03*
D34*
X1328986Y1575000D03*
X1337114Y1575000D03*
X1478986Y1575000D03*
X1487114Y1575000D03*
D33*
X1658820Y1559000D03*
X1607280Y1559000D03*
X1607280Y1591000D03*
X1658820Y1591000D03*
X1808820Y1559000D03*
X1757280Y1559000D03*
X1757280Y1591000D03*
X1808820Y1591000D03*
D34*
X1628986Y1575000D03*
X1637114Y1575000D03*
X1778986Y1575000D03*
X1787114Y1575000D03*
D33*
X1958820Y1559000D03*
X1907280Y1559000D03*
X1907280Y1591000D03*
X1958820Y1591000D03*
X2108820Y1559000D03*
X2057280Y1559000D03*
X2057280Y1591000D03*
X2108820Y1591000D03*
D34*
X1928986Y1575000D03*
X1937114Y1575000D03*
X2078986Y1575000D03*
X2087114Y1575000D03*
D33*
X2258820Y1559000D03*
X2207280Y1559000D03*
X2207280Y1591000D03*
X2258820Y1591000D03*
D34*
X2228986Y1575000D03*
X2237114Y1575000D03*
D33*
X2408820Y1559000D03*
X2357280Y1559000D03*
X2357280Y1591000D03*
X2408820Y1591000D03*
X2558820Y1559000D03*
X2507280Y1559000D03*
X2507280Y1591000D03*
X2558820Y1591000D03*
D34*
X2378986Y1575000D03*
X2387114Y1575000D03*
X2528986Y1575000D03*
X2537114Y1575000D03*
D33*
X2708820Y1559000D03*
X2657280Y1559000D03*
X2657280Y1591000D03*
X2708820Y1591000D03*
X2858820Y1559000D03*
X2807280Y1559000D03*
X2807280Y1591000D03*
X2858820Y1591000D03*
D34*
X2678986Y1575000D03*
X2687114Y1575000D03*
X2828986Y1575000D03*
X2837114Y1575000D03*
D33*
X3008820Y1559000D03*
X2957280Y1559000D03*
X2957280Y1591000D03*
X3008820Y1591000D03*
D34*
X2978986Y1575000D03*
X2987114Y1575000D03*
D33*
X158820Y1409000D03*
X107280Y1409000D03*
X107280Y1441000D03*
X158820Y1441000D03*
X308820Y1409000D03*
X257280Y1409000D03*
X257280Y1441000D03*
X308820Y1441000D03*
D34*
X128986Y1425000D03*
X137114Y1425000D03*
X278986Y1425000D03*
X287114Y1425000D03*
D33*
X458820Y1409000D03*
X407280Y1409000D03*
X407280Y1441000D03*
X458820Y1441000D03*
X608820Y1409000D03*
X557280Y1409000D03*
X557280Y1441000D03*
X608820Y1441000D03*
D34*
X428986Y1425000D03*
X437114Y1425000D03*
X578986Y1425000D03*
X587114Y1425000D03*
D33*
X758820Y1409000D03*
X707280Y1409000D03*
X707280Y1441000D03*
X758820Y1441000D03*
D34*
X728986Y1425000D03*
X737114Y1425000D03*
D33*
X908820Y1409000D03*
X857280Y1409000D03*
X857280Y1441000D03*
X908820Y1441000D03*
X1058820Y1409000D03*
X1007280Y1409000D03*
X1007280Y1441000D03*
X1058820Y1441000D03*
D34*
X878986Y1425000D03*
X887114Y1425000D03*
X1028986Y1425000D03*
X1037114Y1425000D03*
D33*
X1208820Y1409000D03*
X1157280Y1409000D03*
X1157280Y1441000D03*
X1208820Y1441000D03*
X1358820Y1409000D03*
X1307280Y1409000D03*
X1307280Y1441000D03*
X1358820Y1441000D03*
D34*
X1178986Y1425000D03*
X1187114Y1425000D03*
X1328986Y1425000D03*
X1337114Y1425000D03*
D33*
X1508820Y1409000D03*
X1457280Y1409000D03*
X1457280Y1441000D03*
X1508820Y1441000D03*
X1658820Y1409000D03*
X1607280Y1409000D03*
X1607280Y1441000D03*
X1658820Y1441000D03*
D34*
X1478986Y1425000D03*
X1487114Y1425000D03*
X1628986Y1425000D03*
X1637114Y1425000D03*
D33*
X1808820Y1409000D03*
X1757280Y1409000D03*
X1757280Y1441000D03*
X1808820Y1441000D03*
X1958820Y1409000D03*
X1907280Y1409000D03*
X1907280Y1441000D03*
X1958820Y1441000D03*
D34*
X1778986Y1425000D03*
X1787114Y1425000D03*
X1928986Y1425000D03*
X1937114Y1425000D03*
D33*
X2108820Y1409000D03*
X2057280Y1409000D03*
X2057280Y1441000D03*
X2108820Y1441000D03*
X2258820Y1409000D03*
X2207280Y1409000D03*
X2207280Y1441000D03*
X2258820Y1441000D03*
D34*
X2078986Y1425000D03*
X2087114Y1425000D03*
X2228986Y1425000D03*
X2237114Y1425000D03*
D33*
X2408820Y1409000D03*
X2357280Y1409000D03*
X2357280Y1441000D03*
X2408820Y1441000D03*
D34*
X2378986Y1425000D03*
X2387114Y1425000D03*
D33*
X2558820Y1409000D03*
X2507280Y1409000D03*
X2507280Y1441000D03*
X2558820Y1441000D03*
X2708820Y1409000D03*
X2657280Y1409000D03*
X2657280Y1441000D03*
X2708820Y1441000D03*
D34*
X2528986Y1425000D03*
X2537114Y1425000D03*
X2678986Y1425000D03*
X2687114Y1425000D03*
D33*
X2858820Y1409000D03*
X2807280Y1409000D03*
X2807280Y1441000D03*
X2858820Y1441000D03*
X3008820Y1409000D03*
X2957280Y1409000D03*
X2957280Y1441000D03*
X3008820Y1441000D03*
D34*
X2828986Y1425000D03*
X2837114Y1425000D03*
X2978986Y1425000D03*
X2987114Y1425000D03*
D33*
X3158820Y1409000D03*
X3107280Y1409000D03*
X3107280Y1441000D03*
X3158820Y1441000D03*
X158820Y1259000D03*
X107280Y1259000D03*
X107280Y1291000D03*
X158820Y1291000D03*
D34*
X3128986Y1425000D03*
X3137114Y1425000D03*
X128986Y1275000D03*
X137114Y1275000D03*
D33*
X308820Y1259000D03*
X257280Y1259000D03*
X257280Y1291000D03*
X308820Y1291000D03*
X458820Y1259000D03*
X407280Y1259000D03*
X407280Y1291000D03*
X458820Y1291000D03*
D34*
X278986Y1275000D03*
X287114Y1275000D03*
X428986Y1275000D03*
X437114Y1275000D03*
D33*
X608820Y1259000D03*
X557280Y1259000D03*
X557280Y1291000D03*
X608820Y1291000D03*
X758820Y1259000D03*
X707280Y1259000D03*
X707280Y1291000D03*
X758820Y1291000D03*
D34*
X578986Y1275000D03*
X587114Y1275000D03*
X728986Y1275000D03*
X737114Y1275000D03*
D33*
X908820Y1259000D03*
X857280Y1259000D03*
X857280Y1291000D03*
X908820Y1291000D03*
D34*
X878986Y1275000D03*
X887114Y1275000D03*
D33*
X1058820Y1259000D03*
X1007280Y1259000D03*
X1007280Y1291000D03*
X1058820Y1291000D03*
X1208820Y1259000D03*
X1157280Y1259000D03*
X1157280Y1291000D03*
X1208820Y1291000D03*
D34*
X1028986Y1275000D03*
X1037114Y1275000D03*
X1178986Y1275000D03*
X1187114Y1275000D03*
D33*
X1358820Y1259000D03*
X1307280Y1259000D03*
X1307280Y1291000D03*
X1358820Y1291000D03*
X1508820Y1259000D03*
X1457280Y1259000D03*
X1457280Y1291000D03*
X1508820Y1291000D03*
D34*
X1328986Y1275000D03*
X1337114Y1275000D03*
X1478986Y1275000D03*
X1487114Y1275000D03*
D33*
X1658820Y1259000D03*
X1607280Y1259000D03*
X1607280Y1291000D03*
X1658820Y1291000D03*
X1808820Y1259000D03*
X1757280Y1259000D03*
X1757280Y1291000D03*
X1808820Y1291000D03*
D34*
X1628986Y1275000D03*
X1637114Y1275000D03*
X1778986Y1275000D03*
X1787114Y1275000D03*
D33*
X1958820Y1259000D03*
X1907280Y1259000D03*
X1907280Y1291000D03*
X1958820Y1291000D03*
X2108820Y1259000D03*
X2057280Y1259000D03*
X2057280Y1291000D03*
X2108820Y1291000D03*
D34*
X1928986Y1275000D03*
X1937114Y1275000D03*
X2078986Y1275000D03*
X2087114Y1275000D03*
D33*
X2258820Y1259000D03*
X2207280Y1259000D03*
X2207280Y1291000D03*
X2258820Y1291000D03*
X2408820Y1259000D03*
X2357280Y1259000D03*
X2357280Y1291000D03*
X2408820Y1291000D03*
D34*
X2228986Y1275000D03*
X2237114Y1275000D03*
X2378986Y1275000D03*
X2387114Y1275000D03*
D33*
X2558820Y1259000D03*
X2507280Y1259000D03*
X2507280Y1291000D03*
X2558820Y1291000D03*
D34*
X2528986Y1275000D03*
X2537114Y1275000D03*
D33*
X2708820Y1259000D03*
X2657280Y1259000D03*
X2657280Y1291000D03*
X2708820Y1291000D03*
X2858820Y1259000D03*
X2807280Y1259000D03*
X2807280Y1291000D03*
X2858820Y1291000D03*
D34*
X2678986Y1275000D03*
X2687114Y1275000D03*
X2828986Y1275000D03*
X2837114Y1275000D03*
D33*
X3008820Y1259000D03*
X2957280Y1259000D03*
X2957280Y1291000D03*
X3008820Y1291000D03*
X3158820Y1259000D03*
X3107280Y1259000D03*
X3107280Y1291000D03*
X3158820Y1291000D03*
D34*
X2978986Y1275000D03*
X2987114Y1275000D03*
X3128986Y1275000D03*
X3137114Y1275000D03*
D33*
X158820Y1109000D03*
X107280Y1109000D03*
X107280Y1141000D03*
X158820Y1141000D03*
X308820Y1109000D03*
X257280Y1109000D03*
X257280Y1141000D03*
X308820Y1141000D03*
D34*
X128986Y1125000D03*
X137114Y1125000D03*
X278986Y1125000D03*
X287114Y1125000D03*
D33*
X458820Y1109000D03*
X407280Y1109000D03*
X407280Y1141000D03*
X458820Y1141000D03*
X608820Y1109000D03*
X557280Y1109000D03*
X557280Y1141000D03*
X608820Y1141000D03*
D34*
X428986Y1125000D03*
X437114Y1125000D03*
X578986Y1125000D03*
X587114Y1125000D03*
D33*
X758820Y1109000D03*
X707280Y1109000D03*
X707280Y1141000D03*
X758820Y1141000D03*
X908820Y1109000D03*
X857280Y1109000D03*
X857280Y1141000D03*
X908820Y1141000D03*
D34*
X728986Y1125000D03*
X737114Y1125000D03*
X878986Y1125000D03*
X887114Y1125000D03*
D33*
X1058820Y1109000D03*
X1007280Y1109000D03*
X1007280Y1141000D03*
X1058820Y1141000D03*
D34*
X1028986Y1125000D03*
X1037114Y1125000D03*
D33*
X1208820Y1109000D03*
X1157280Y1109000D03*
X1157280Y1141000D03*
X1208820Y1141000D03*
X1358820Y1109000D03*
X1307280Y1109000D03*
X1307280Y1141000D03*
X1358820Y1141000D03*
D34*
X1178986Y1125000D03*
X1187114Y1125000D03*
X1328986Y1125000D03*
X1337114Y1125000D03*
D33*
X1508820Y1109000D03*
X1457280Y1109000D03*
X1457280Y1141000D03*
X1508820Y1141000D03*
X1658820Y1109000D03*
X1607280Y1109000D03*
X1607280Y1141000D03*
X1658820Y1141000D03*
D34*
X1478986Y1125000D03*
X1487114Y1125000D03*
X1628986Y1125000D03*
X1637114Y1125000D03*
D33*
X1808820Y1109000D03*
X1757280Y1109000D03*
X1757280Y1141000D03*
X1808820Y1141000D03*
X1958820Y1109000D03*
X1907280Y1109000D03*
X1907280Y1141000D03*
X1958820Y1141000D03*
D34*
X1778986Y1125000D03*
X1787114Y1125000D03*
X1928986Y1125000D03*
X1937114Y1125000D03*
D33*
X2108820Y1109000D03*
X2057280Y1109000D03*
X2057280Y1141000D03*
X2108820Y1141000D03*
X2258820Y1109000D03*
X2207280Y1109000D03*
X2207280Y1141000D03*
X2258820Y1141000D03*
D34*
X2078986Y1125000D03*
X2087114Y1125000D03*
X2228986Y1125000D03*
X2237114Y1125000D03*
D33*
X2408820Y1109000D03*
X2357280Y1109000D03*
X2357280Y1141000D03*
X2408820Y1141000D03*
X2558820Y1109000D03*
X2507280Y1109000D03*
X2507280Y1141000D03*
X2558820Y1141000D03*
D34*
X2378986Y1125000D03*
X2387114Y1125000D03*
X2528986Y1125000D03*
X2537114Y1125000D03*
D33*
X2708820Y1109000D03*
X2657280Y1109000D03*
X2657280Y1141000D03*
X2708820Y1141000D03*
D34*
X2678986Y1125000D03*
X2687114Y1125000D03*
D33*
X2858820Y1109000D03*
X2807280Y1109000D03*
X2807280Y1141000D03*
X2858820Y1141000D03*
X3008820Y1109000D03*
X2957280Y1109000D03*
X2957280Y1141000D03*
X3008820Y1141000D03*
D34*
X2828986Y1125000D03*
X2837114Y1125000D03*
X2978986Y1125000D03*
X2987114Y1125000D03*
D33*
X3158820Y1109000D03*
X3107280Y1109000D03*
X3107280Y1141000D03*
X3158820Y1141000D03*
X158820Y959000D03*
X107280Y959000D03*
X107280Y991000D03*
X158820Y991000D03*
D34*
X3128986Y1125000D03*
X3137114Y1125000D03*
X128986Y975000D03*
X137114Y975000D03*
D33*
X308820Y959000D03*
X257280Y959000D03*
X257280Y991000D03*
X308820Y991000D03*
X458820Y959000D03*
X407280Y959000D03*
X407280Y991000D03*
X458820Y991000D03*
D34*
X278986Y975000D03*
X287114Y975000D03*
X428986Y975000D03*
X437114Y975000D03*
D33*
X608820Y959000D03*
X557280Y959000D03*
X557280Y991000D03*
X608820Y991000D03*
X758820Y959000D03*
X707280Y959000D03*
X707280Y991000D03*
X758820Y991000D03*
D34*
X578986Y975000D03*
X587114Y975000D03*
X728986Y975000D03*
X737114Y975000D03*
D33*
X908820Y959000D03*
X857280Y959000D03*
X857280Y991000D03*
X908820Y991000D03*
X1058820Y959000D03*
X1007280Y959000D03*
X1007280Y991000D03*
X1058820Y991000D03*
D34*
X878986Y975000D03*
X887114Y975000D03*
X1028986Y975000D03*
X1037114Y975000D03*
D33*
X1208820Y959000D03*
X1157280Y959000D03*
X1157280Y991000D03*
X1208820Y991000D03*
D34*
X1178986Y975000D03*
X1187114Y975000D03*
D33*
X1358820Y959000D03*
X1307280Y959000D03*
X1307280Y991000D03*
X1358820Y991000D03*
X1508820Y959000D03*
X1457280Y959000D03*
X1457280Y991000D03*
X1508820Y991000D03*
D34*
X1328986Y975000D03*
X1337114Y975000D03*
X1478986Y975000D03*
X1487114Y975000D03*
D33*
X1658820Y959000D03*
X1607280Y959000D03*
X1607280Y991000D03*
X1658820Y991000D03*
X1808820Y959000D03*
X1757280Y959000D03*
X1757280Y991000D03*
X1808820Y991000D03*
D34*
X1628986Y975000D03*
X1637114Y975000D03*
X1778986Y975000D03*
X1787114Y975000D03*
D33*
X1958820Y959000D03*
X1907280Y959000D03*
X1907280Y991000D03*
X1958820Y991000D03*
X2408820Y959000D03*
X2357280Y959000D03*
X2357280Y991000D03*
X2408820Y991000D03*
D34*
X1928986Y975000D03*
X1937114Y975000D03*
X2378986Y975000D03*
X2387114Y975000D03*
D33*
X2558820Y959000D03*
X2507280Y959000D03*
X2507280Y991000D03*
X2558820Y991000D03*
X2708820Y959000D03*
X2657280Y959000D03*
X2657280Y991000D03*
X2708820Y991000D03*
D34*
X2528986Y975000D03*
X2537114Y975000D03*
X2678986Y975000D03*
X2687114Y975000D03*
D33*
X2858820Y959000D03*
X2807280Y959000D03*
X2807280Y991000D03*
X2858820Y991000D03*
X3008820Y959000D03*
X2957280Y959000D03*
X2957280Y991000D03*
X3008820Y991000D03*
D34*
X2828986Y975000D03*
X2837114Y975000D03*
X2978986Y975000D03*
X2987114Y975000D03*
D33*
X3158820Y959000D03*
X3107280Y959000D03*
X3107280Y991000D03*
X3158820Y991000D03*
D34*
X3128986Y975000D03*
X3137114Y975000D03*
D33*
X3308820Y959000D03*
X3257280Y959000D03*
X3257280Y991000D03*
X3308820Y991000D03*
D34*
X3278986Y975000D03*
X3287114Y975000D03*
D33*
X158820Y809000D03*
X107280Y809000D03*
X107280Y841000D03*
X158820Y841000D03*
X308820Y809000D03*
X257280Y809000D03*
X257280Y841000D03*
X308820Y841000D03*
D34*
X128986Y825000D03*
X137114Y825000D03*
X278986Y825000D03*
X287114Y825000D03*
D33*
X458820Y809000D03*
X407280Y809000D03*
X407280Y841000D03*
X458820Y841000D03*
X608820Y809000D03*
X557280Y809000D03*
X557280Y841000D03*
X608820Y841000D03*
D34*
X428986Y825000D03*
X437114Y825000D03*
X578986Y825000D03*
X587114Y825000D03*
D33*
X758820Y809000D03*
X707280Y809000D03*
X707280Y841000D03*
X758820Y841000D03*
X908820Y809000D03*
X857280Y809000D03*
X857280Y841000D03*
X908820Y841000D03*
D34*
X728986Y825000D03*
X737114Y825000D03*
X878986Y825000D03*
X887114Y825000D03*
D33*
X1058820Y809000D03*
X1007280Y809000D03*
X1007280Y841000D03*
X1058820Y841000D03*
X1208820Y809000D03*
X1157280Y809000D03*
X1157280Y841000D03*
X1208820Y841000D03*
D34*
X1028986Y825000D03*
X1037114Y825000D03*
X1178986Y825000D03*
X1187114Y825000D03*
D33*
X1358820Y809000D03*
X1307280Y809000D03*
X1307280Y841000D03*
X1358820Y841000D03*
D34*
X1328986Y825000D03*
X1337114Y825000D03*
D33*
X1508820Y809000D03*
X1457280Y809000D03*
X1457280Y841000D03*
X1508820Y841000D03*
X1658820Y809000D03*
X1607280Y809000D03*
X1607280Y841000D03*
X1658820Y841000D03*
D34*
X1478986Y825000D03*
X1487114Y825000D03*
X1628986Y825000D03*
X1637114Y825000D03*
D33*
X1808820Y809000D03*
X1757280Y809000D03*
X1757280Y841000D03*
X1808820Y841000D03*
X1958820Y809000D03*
X1907280Y809000D03*
X1907280Y841000D03*
X1958820Y841000D03*
D34*
X1778986Y825000D03*
X1787114Y825000D03*
X1928986Y825000D03*
X1937114Y825000D03*
D33*
X2108820Y809000D03*
X2057280Y809000D03*
X2057280Y841000D03*
X2108820Y841000D03*
X2258820Y809000D03*
X2207280Y809000D03*
X2207280Y841000D03*
X2258820Y841000D03*
D34*
X2078986Y825000D03*
X2087114Y825000D03*
X2228986Y825000D03*
X2237114Y825000D03*
D33*
X2408820Y809000D03*
X2357280Y809000D03*
X2357280Y841000D03*
X2408820Y841000D03*
X2558820Y809000D03*
X2507280Y809000D03*
X2507280Y841000D03*
X2558820Y841000D03*
D34*
X2378986Y825000D03*
X2387114Y825000D03*
X2528986Y825000D03*
X2537114Y825000D03*
D33*
X2708820Y809000D03*
X2657280Y809000D03*
X2657280Y841000D03*
X2708820Y841000D03*
X3158820Y809000D03*
X3107280Y809000D03*
X3107280Y841000D03*
X3158820Y841000D03*
D34*
X2678986Y825000D03*
X2687114Y825000D03*
X3128986Y825000D03*
X3137114Y825000D03*
D33*
X3308820Y809000D03*
X3257280Y809000D03*
X3257280Y841000D03*
X3308820Y841000D03*
D34*
X3278986Y825000D03*
X3287114Y825000D03*
D33*
X158820Y659000D03*
X107280Y659000D03*
X107280Y691000D03*
X158820Y691000D03*
D34*
X128986Y675000D03*
X137114Y675000D03*
D33*
X308820Y659000D03*
X257280Y659000D03*
X257280Y691000D03*
X308820Y691000D03*
X458820Y659000D03*
X407280Y659000D03*
X407280Y691000D03*
X458820Y691000D03*
D34*
X278986Y675000D03*
X287114Y675000D03*
X428986Y675000D03*
X437114Y675000D03*
D33*
X608820Y659000D03*
X557280Y659000D03*
X557280Y691000D03*
X608820Y691000D03*
X758820Y659000D03*
X707280Y659000D03*
X707280Y691000D03*
X758820Y691000D03*
D34*
X578986Y675000D03*
X587114Y675000D03*
X728986Y675000D03*
X737114Y675000D03*
D33*
X908820Y659000D03*
X857280Y659000D03*
X857280Y691000D03*
X908820Y691000D03*
X1058820Y659000D03*
X1007280Y659000D03*
X1007280Y691000D03*
X1058820Y691000D03*
D34*
X878986Y675000D03*
X887114Y675000D03*
X1028986Y675000D03*
X1037114Y675000D03*
D33*
X1208820Y659000D03*
X1157280Y659000D03*
X1157280Y691000D03*
X1208820Y691000D03*
X1358820Y659000D03*
X1307280Y659000D03*
X1307280Y691000D03*
X1358820Y691000D03*
D34*
X1178986Y675000D03*
X1187114Y675000D03*
X1328986Y675000D03*
X1337114Y675000D03*
D33*
X1508820Y659000D03*
X1457280Y659000D03*
X1457280Y691000D03*
X1508820Y691000D03*
D34*
X1478986Y675000D03*
X1487114Y675000D03*
D33*
X1658820Y659000D03*
X1607280Y659000D03*
X1607280Y691000D03*
X1658820Y691000D03*
X1808820Y659000D03*
X1757280Y659000D03*
X1757280Y691000D03*
X1808820Y691000D03*
D34*
X1628986Y675000D03*
X1637114Y675000D03*
X1778986Y675000D03*
X1787114Y675000D03*
D33*
X1958820Y659000D03*
X1907280Y659000D03*
X1907280Y691000D03*
X1958820Y691000D03*
X2108820Y659000D03*
X2057280Y659000D03*
X2057280Y691000D03*
X2108820Y691000D03*
D34*
X1928986Y675000D03*
X1937114Y675000D03*
X2078986Y675000D03*
X2087114Y675000D03*
D33*
X2258820Y659000D03*
X2207280Y659000D03*
X2207280Y691000D03*
X2258820Y691000D03*
X2408820Y659000D03*
X2357280Y659000D03*
X2357280Y691000D03*
X2408820Y691000D03*
D34*
X2228986Y675000D03*
X2237114Y675000D03*
X2378986Y675000D03*
X2387114Y675000D03*
D33*
X2558820Y659000D03*
X2507280Y659000D03*
X2507280Y691000D03*
X2558820Y691000D03*
X3008820Y659000D03*
X2957280Y659000D03*
X2957280Y691000D03*
X3008820Y691000D03*
D34*
X2528986Y675000D03*
X2537114Y675000D03*
X2978986Y675000D03*
X2987114Y675000D03*
D33*
X3158820Y659000D03*
X3107280Y659000D03*
X3107280Y691000D03*
X3158820Y691000D03*
X3308820Y659000D03*
X3257280Y659000D03*
X3257280Y691000D03*
X3308820Y691000D03*
D34*
X3128986Y675000D03*
X3137114Y675000D03*
X3278986Y675000D03*
X3287114Y675000D03*
D33*
X308820Y359000D03*
X257280Y359000D03*
X257280Y391000D03*
X308820Y391000D03*
D34*
X278986Y375000D03*
X287114Y375000D03*
D33*
X458820Y359000D03*
X407280Y359000D03*
X407280Y391000D03*
X458820Y391000D03*
X608820Y359000D03*
X557280Y359000D03*
X557280Y391000D03*
X608820Y391000D03*
D34*
X428986Y375000D03*
X437114Y375000D03*
X578986Y375000D03*
X587114Y375000D03*
D33*
X758820Y359000D03*
X707280Y359000D03*
X707280Y391000D03*
X758820Y391000D03*
X908820Y359000D03*
X857280Y359000D03*
X857280Y391000D03*
X908820Y391000D03*
D34*
X728986Y375000D03*
X737114Y375000D03*
X878986Y375000D03*
X887114Y375000D03*
D33*
X1058820Y359000D03*
X1007280Y359000D03*
X1007280Y391000D03*
X1058820Y391000D03*
X1208820Y359000D03*
X1157280Y359000D03*
X1157280Y391000D03*
X1208820Y391000D03*
D34*
X1028986Y375000D03*
X1037114Y375000D03*
X1178986Y375000D03*
X1187114Y375000D03*
D33*
X1358820Y359000D03*
X1307280Y359000D03*
X1307280Y391000D03*
X1358820Y391000D03*
X1508820Y359000D03*
X1457280Y359000D03*
X1457280Y391000D03*
X1508820Y391000D03*
D34*
X1328986Y375000D03*
X1337114Y375000D03*
X1478986Y375000D03*
X1487114Y375000D03*
D33*
X1658820Y359000D03*
X1607280Y359000D03*
X1607280Y391000D03*
X1658820Y391000D03*
D34*
X1628986Y375000D03*
X1637114Y375000D03*
D33*
X1808820Y359000D03*
X1757280Y359000D03*
X1757280Y391000D03*
X1808820Y391000D03*
X1958820Y359000D03*
X1907280Y359000D03*
X1907280Y391000D03*
X1958820Y391000D03*
D34*
X1778986Y375000D03*
X1787114Y375000D03*
X1928986Y375000D03*
X1937114Y375000D03*
D33*
X2108820Y359000D03*
X2057280Y359000D03*
X2057280Y391000D03*
X2108820Y391000D03*
X2258820Y359000D03*
X2207280Y359000D03*
X2207280Y391000D03*
X2258820Y391000D03*
D34*
X2078986Y375000D03*
X2087114Y375000D03*
X2228986Y375000D03*
X2237114Y375000D03*
D33*
X2408820Y359000D03*
X2357280Y359000D03*
X2357280Y391000D03*
X2408820Y391000D03*
X2558820Y359000D03*
X2507280Y359000D03*
X2507280Y391000D03*
X2558820Y391000D03*
D34*
X2378986Y375000D03*
X2387114Y375000D03*
X2528986Y375000D03*
X2537114Y375000D03*
D33*
X2708820Y359000D03*
X2657280Y359000D03*
X2657280Y391000D03*
X2708820Y391000D03*
X2858820Y359000D03*
X2807280Y359000D03*
X2807280Y391000D03*
X2858820Y391000D03*
D34*
X2678986Y375000D03*
X2687114Y375000D03*
X2828986Y375000D03*
X2837114Y375000D03*
D33*
X3308820Y359000D03*
X3257280Y359000D03*
X3257280Y391000D03*
X3308820Y391000D03*
D34*
X3278986Y375000D03*
X3287114Y375000D03*
D33*
X908820Y209000D03*
X857280Y209000D03*
X857280Y241000D03*
X908820Y241000D03*
D34*
X878986Y225000D03*
X887114Y225000D03*
D33*
X1058820Y209000D03*
X1007280Y209000D03*
X1007280Y241000D03*
X1058820Y241000D03*
X1208820Y209000D03*
X1157280Y209000D03*
X1157280Y241000D03*
X1208820Y241000D03*
D34*
X1028986Y225000D03*
X1037114Y225000D03*
X1178986Y225000D03*
X1187114Y225000D03*
D33*
X1358820Y209000D03*
X1307280Y209000D03*
X1307280Y241000D03*
X1358820Y241000D03*
X1508820Y209000D03*
X1457280Y209000D03*
X1457280Y241000D03*
X1508820Y241000D03*
D34*
X1328986Y225000D03*
X1337114Y225000D03*
X1478986Y225000D03*
X1487114Y225000D03*
D33*
X1658820Y209000D03*
X1607280Y209000D03*
X1607280Y241000D03*
X1658820Y241000D03*
X1808820Y209000D03*
X1757280Y209000D03*
X1757280Y241000D03*
X1808820Y241000D03*
D34*
X1628986Y225000D03*
X1637114Y225000D03*
X1778986Y225000D03*
X1787114Y225000D03*
D33*
X1958820Y209000D03*
X1907280Y209000D03*
X1907280Y241000D03*
X1958820Y241000D03*
X2108820Y209000D03*
X2057280Y209000D03*
X2057280Y241000D03*
X2108820Y241000D03*
D34*
X1928986Y225000D03*
X1937114Y225000D03*
X2078986Y225000D03*
X2087114Y225000D03*
D33*
X2258820Y209000D03*
X2207280Y209000D03*
X2207280Y241000D03*
X2258820Y241000D03*
X2408820Y209000D03*
X2357280Y209000D03*
X2357280Y241000D03*
X2408820Y241000D03*
D34*
X2228986Y225000D03*
X2237114Y225000D03*
X2378986Y225000D03*
X2387114Y225000D03*
D33*
X2558820Y209000D03*
X2507280Y209000D03*
X2507280Y241000D03*
X2558820Y241000D03*
D34*
X2528986Y225000D03*
X2537114Y225000D03*
D33*
X2708820Y209000D03*
X2657280Y209000D03*
X2657280Y241000D03*
X2708820Y241000D03*
X3158820Y209000D03*
X3107280Y209000D03*
X3107280Y241000D03*
X3158820Y241000D03*
D34*
X2678986Y225000D03*
X2687114Y225000D03*
X3128986Y225000D03*
X3137114Y225000D03*
D33*
X3308820Y209000D03*
X3257280Y209000D03*
X3257280Y241000D03*
X3308820Y241000D03*
D34*
X3278986Y225000D03*
X3287114Y225000D03*
D33*
X758820Y59000D03*
X707280Y59000D03*
X707280Y91000D03*
X758820Y91000D03*
X908820Y59000D03*
X857280Y59000D03*
X857280Y91000D03*
X908820Y91000D03*
D34*
X728986Y75000D03*
X737114Y75000D03*
X878986Y75000D03*
X887114Y75000D03*
D33*
X1058820Y59000D03*
X1007280Y59000D03*
X1007280Y91000D03*
X1058820Y91000D03*
X1208820Y59000D03*
X1157280Y59000D03*
X1157280Y91000D03*
X1208820Y91000D03*
D34*
X1028986Y75000D03*
X1037114Y75000D03*
X1178986Y75000D03*
X1187114Y75000D03*
D33*
X1358820Y59000D03*
X1307280Y59000D03*
X1307280Y91000D03*
X1358820Y91000D03*
D34*
X1328986Y75000D03*
X1337114Y75000D03*
D33*
X1958820Y59000D03*
X1907280Y59000D03*
X1907280Y91000D03*
X1958820Y91000D03*
X2108820Y59000D03*
X2057280Y59000D03*
X2057280Y91000D03*
X2108820Y91000D03*
D34*
X1928986Y75000D03*
X1937114Y75000D03*
X2078986Y75000D03*
X2087114Y75000D03*
D33*
X2258820Y59000D03*
X2207280Y59000D03*
X2207280Y91000D03*
X2258820Y91000D03*
X2408820Y59000D03*
X2357280Y59000D03*
X2357280Y91000D03*
X2408820Y91000D03*
D34*
X2228986Y75000D03*
X2237114Y75000D03*
X2378986Y75000D03*
X2387114Y75000D03*
D33*
X2558820Y59000D03*
X2507280Y59000D03*
X2507280Y91000D03*
X2558820Y91000D03*
X3158820Y59000D03*
X3107280Y59000D03*
X3107280Y91000D03*
X3158820Y91000D03*
D34*
X2528986Y75000D03*
X2537114Y75000D03*
X3128986Y75000D03*
X3137114Y75000D03*
D13*
X189290Y40030D03*
X206290Y40030D03*
D22*
X1888000Y2041500D03*
X1528100Y77500D03*
X3338600Y2041500D03*
X77500Y2041500D03*
D10*
X122500Y173500D03*
X122500Y156500D03*
X105000Y156500D03*
X105000Y173500D03*
D13*
X171000Y127500D03*
X154000Y127500D03*
D33*
X3158820Y2009000D03*
X3107280Y2009000D03*
X3107280Y2041000D03*
X3158820Y2041000D03*
D34*
X3128986Y2025000D03*
X3137114Y2025000D03*
D33*
X3308820Y1859000D03*
X3257280Y1859000D03*
X3257280Y1891000D03*
X3308820Y1891000D03*
D34*
X3278986Y1875000D03*
X3287114Y1875000D03*
D33*
X3308820Y1709000D03*
X3257280Y1709000D03*
X3257280Y1741000D03*
X3308820Y1741000D03*
D34*
X3278986Y1725000D03*
X3287114Y1725000D03*
D33*
X3158820Y1559000D03*
X3107280Y1559000D03*
X3107280Y1591000D03*
X3158820Y1591000D03*
X3308820Y1559000D03*
X3257280Y1559000D03*
X3257280Y1591000D03*
X3308820Y1591000D03*
D34*
X3128986Y1575000D03*
X3137114Y1575000D03*
X3278986Y1575000D03*
X3287114Y1575000D03*
D33*
X3308820Y1409000D03*
X3257280Y1409000D03*
X3257280Y1441000D03*
X3308820Y1441000D03*
D34*
X3278986Y1425000D03*
X3287114Y1425000D03*
D33*
X3308820Y1259000D03*
X3257280Y1259000D03*
X3257280Y1291000D03*
X3308820Y1291000D03*
D34*
X3278986Y1275000D03*
X3287114Y1275000D03*
D33*
X3308820Y1109000D03*
X3257280Y1109000D03*
X3257280Y1141000D03*
X3308820Y1141000D03*
D34*
X3278986Y1125000D03*
X3287114Y1125000D03*
D33*
X2108820Y959000D03*
X2057280Y959000D03*
X2057280Y991000D03*
X2108820Y991000D03*
X2258820Y959000D03*
X2207280Y959000D03*
X2207280Y991000D03*
X2258820Y991000D03*
D34*
X2078986Y975000D03*
X2087114Y975000D03*
X2228986Y975000D03*
X2237114Y975000D03*
D33*
X2858820Y809000D03*
X2807280Y809000D03*
X2807280Y841000D03*
X2858820Y841000D03*
X3008820Y809000D03*
X2957280Y809000D03*
X2957280Y841000D03*
X3008820Y841000D03*
D34*
X2828986Y825000D03*
X2837114Y825000D03*
X2978986Y825000D03*
X2987114Y825000D03*
D33*
X2708820Y659000D03*
X2657280Y659000D03*
X2657280Y691000D03*
X2708820Y691000D03*
X2858820Y659000D03*
X2807280Y659000D03*
X2807280Y691000D03*
X2858820Y691000D03*
D34*
X2678986Y675000D03*
X2687114Y675000D03*
X2828986Y675000D03*
X2837114Y675000D03*
D33*
X3008820Y359000D03*
X2957280Y359000D03*
X2957280Y391000D03*
X3008820Y391000D03*
X3158820Y359000D03*
X3107280Y359000D03*
X3107280Y391000D03*
X3158820Y391000D03*
D34*
X2978986Y375000D03*
X2987114Y375000D03*
X3128986Y375000D03*
X3137114Y375000D03*
D33*
X2858820Y209000D03*
X2807280Y209000D03*
X2807280Y241000D03*
X2858820Y241000D03*
X3008820Y209000D03*
X2957280Y209000D03*
X2957280Y241000D03*
X3008820Y241000D03*
D34*
X2828986Y225000D03*
X2837114Y225000D03*
X2978986Y225000D03*
X2987114Y225000D03*
D33*
X2708820Y59000D03*
X2657280Y59000D03*
X2657280Y91000D03*
X2708820Y91000D03*
X2858820Y59000D03*
X2807280Y59000D03*
X2807280Y91000D03*
X2858820Y91000D03*
D34*
X2678986Y75000D03*
X2687114Y75000D03*
X2828986Y75000D03*
X2837114Y75000D03*
D33*
X3008820Y59000D03*
X2957280Y59000D03*
X2957280Y91000D03*
X3008820Y91000D03*
D34*
X2978986Y75000D03*
X2987114Y75000D03*
D33*
X158820Y509000D03*
X107280Y509000D03*
X107280Y541000D03*
X158820Y541000D03*
D34*
X128986Y525000D03*
X137114Y525000D03*
D33*
X308820Y509000D03*
X257280Y509000D03*
X257280Y541000D03*
X308820Y541000D03*
X458820Y509000D03*
X407280Y509000D03*
X407280Y541000D03*
X458820Y541000D03*
D34*
X278986Y525000D03*
X287114Y525000D03*
X428986Y525000D03*
X437114Y525000D03*
D33*
X608820Y509000D03*
X557280Y509000D03*
X557280Y541000D03*
X608820Y541000D03*
X758820Y509000D03*
X707280Y509000D03*
X707280Y541000D03*
X758820Y541000D03*
D34*
X578986Y525000D03*
X587114Y525000D03*
X728986Y525000D03*
X737114Y525000D03*
D33*
X908820Y509000D03*
X857280Y509000D03*
X857280Y541000D03*
X908820Y541000D03*
X1058820Y509000D03*
X1007280Y509000D03*
X1007280Y541000D03*
X1058820Y541000D03*
D34*
X878986Y525000D03*
X887114Y525000D03*
X1028986Y525000D03*
X1037114Y525000D03*
D33*
X1208820Y509000D03*
X1157280Y509000D03*
X1157280Y541000D03*
X1208820Y541000D03*
X1358820Y509000D03*
X1307280Y509000D03*
X1307280Y541000D03*
X1358820Y541000D03*
D34*
X1178986Y525000D03*
X1187114Y525000D03*
X1328986Y525000D03*
X1337114Y525000D03*
D33*
X1658820Y509000D03*
X1607280Y509000D03*
X1607280Y541000D03*
X1658820Y541000D03*
D34*
X1628986Y525000D03*
X1637114Y525000D03*
D33*
X1808820Y509000D03*
X1757280Y509000D03*
X1757280Y541000D03*
X1808820Y541000D03*
X1958820Y509000D03*
X1907280Y509000D03*
X1907280Y541000D03*
X1958820Y541000D03*
D34*
X1778986Y525000D03*
X1787114Y525000D03*
X1928986Y525000D03*
X1937114Y525000D03*
D33*
X2108820Y509000D03*
X2057280Y509000D03*
X2057280Y541000D03*
X2108820Y541000D03*
D34*
X2078986Y525000D03*
X2087114Y525000D03*
D33*
X1506420Y509000D03*
X1454880Y509000D03*
X1454880Y541000D03*
X1506420Y541000D03*
D34*
X1476586Y525000D03*
X1484714Y525000D03*
D33*
X2258820Y509000D03*
X2207280Y509000D03*
X2207280Y541000D03*
X2258820Y541000D03*
D34*
X2228986Y525000D03*
X2237114Y525000D03*
D33*
X2408820Y509000D03*
X2357280Y509000D03*
X2357280Y541000D03*
X2408820Y541000D03*
X2558820Y509000D03*
X2507280Y509000D03*
X2507280Y541000D03*
X2558820Y541000D03*
D34*
X2378986Y525000D03*
X2387114Y525000D03*
X2528986Y525000D03*
X2537114Y525000D03*
D33*
X2708820Y509000D03*
X2657280Y509000D03*
X2657280Y541000D03*
X2708820Y541000D03*
X2858820Y509000D03*
X2807280Y509000D03*
X2807280Y541000D03*
X2858820Y541000D03*
D34*
X2678986Y525000D03*
X2687114Y525000D03*
X2828986Y525000D03*
X2837114Y525000D03*
D33*
X3008820Y509000D03*
X2957280Y509000D03*
X2957280Y541000D03*
X3008820Y541000D03*
X3158820Y509000D03*
X3107280Y509000D03*
X3107280Y541000D03*
X3158820Y541000D03*
D34*
X2978986Y525000D03*
X2987114Y525000D03*
X3128986Y525000D03*
X3137114Y525000D03*
D33*
X3308820Y509000D03*
X3257280Y509000D03*
X3257280Y541000D03*
X3308820Y541000D03*
D34*
X3278986Y525000D03*
X3287114Y525000D03*
D33*
X158820Y359000D03*
X107280Y359000D03*
X107280Y391000D03*
X158820Y391000D03*
D34*
X128986Y375000D03*
X137114Y375000D03*
D33*
X158820Y209000D03*
X107280Y209000D03*
X107280Y241000D03*
X158820Y241000D03*
X308820Y209000D03*
X257280Y209000D03*
X257280Y241000D03*
X308820Y241000D03*
D34*
X128986Y225000D03*
X137114Y225000D03*
X278986Y225000D03*
X287114Y225000D03*
D33*
X608820Y209000D03*
X557280Y209000D03*
X557280Y241000D03*
X608820Y241000D03*
D34*
X578986Y225000D03*
X587114Y225000D03*
D33*
X758820Y209000D03*
X707280Y209000D03*
X707280Y241000D03*
X758820Y241000D03*
D34*
X728986Y225000D03*
X737114Y225000D03*
D35*
X50000Y1954064D03*
X50000Y1945936D03*
X50000Y1804064D03*
X50000Y1795936D03*
X50000Y1654064D03*
X50000Y1645936D03*
X50000Y1504064D03*
X50000Y1495936D03*
X50000Y1354064D03*
X50000Y1345936D03*
X50000Y1204064D03*
X50000Y1195936D03*
X50000Y1054064D03*
X50000Y1045936D03*
X50000Y904064D03*
X50000Y895936D03*
X50000Y754064D03*
X50000Y745936D03*
X50000Y604064D03*
X50000Y595936D03*
X50000Y454064D03*
X50000Y445936D03*
X50000Y304064D03*
X50000Y295936D03*
X680000Y149064D03*
X680000Y140936D03*
M02*
