G75*
%MOIN*%
%OFA0B0*%
%FSLAX25Y25*%
%IPPOS*%
%LPD*%
%AMOC8*
5,1,8,0,0,1.08239X$1,22.5*
%
%ADD10R,0.04331X0.03937*%
%ADD11R,0.01181X0.02598*%
%ADD12R,0.03937X0.04331*%
%ADD13R,0.03543X0.03937*%
%ADD14R,0.03543X0.05906*%
%ADD15R,0.05906X0.03543*%
%ADD16R,0.23622X0.23622*%
%ADD17R,0.02165X0.04724*%
%ADD18C,0.00039*%
%ADD19C,0.00500*%
%ADD20R,0.04000X0.01181*%
%ADD21R,0.04000X0.02362*%
%ADD22R,0.04000X0.02165*%
%ADD23R,0.04724X0.09843*%
%ADD24C,0.00118*%
%ADD25C,0.02756*%
%ADD26C,0.03543*%
%ADD27R,0.06500X0.03937*%
D10*
X0054908Y0068976D03*
X0061601Y0068976D03*
X0046837Y0083740D03*
X0040144Y0083740D03*
X0055774Y0096555D03*
X0062467Y0096555D03*
X0062467Y0103622D03*
X0055774Y0103622D03*
X0055538Y0123740D03*
X0062231Y0123740D03*
X0062231Y0133740D03*
X0055538Y0133740D03*
X0080538Y0173583D03*
X0087231Y0173583D03*
X0087231Y0181083D03*
X0080538Y0181083D03*
X0080538Y0188583D03*
X0087231Y0188583D03*
X0087231Y0196083D03*
X0080538Y0196083D03*
X0080538Y0203583D03*
X0087231Y0203583D03*
X0087231Y0211083D03*
X0080538Y0211083D03*
X0169987Y0091555D03*
X0176680Y0091555D03*
X0176680Y0071555D03*
X0169987Y0071555D03*
X0145302Y0071102D03*
X0138609Y0071102D03*
X0138487Y0079815D03*
X0131794Y0079815D03*
X0328058Y0097835D03*
X0334751Y0097835D03*
X0338058Y0105335D03*
X0344751Y0105335D03*
X0344751Y0112835D03*
X0338058Y0112835D03*
X0338058Y0120335D03*
X0344751Y0120335D03*
X0344751Y0145335D03*
X0338058Y0145335D03*
D11*
X0175892Y0085177D03*
X0173333Y0085177D03*
X0170774Y0085177D03*
X0170774Y0077933D03*
X0173333Y0077933D03*
X0175892Y0077933D03*
D12*
X0163333Y0078209D03*
X0163333Y0084902D03*
X0073885Y0177736D03*
X0073885Y0184429D03*
X0073885Y0200236D03*
X0073885Y0206929D03*
X0318904Y0131181D03*
X0318904Y0124488D03*
X0326404Y0124488D03*
X0326404Y0131181D03*
D13*
X0201404Y0092205D03*
X0201404Y0085906D03*
X0201404Y0077205D03*
X0201404Y0070906D03*
X0185262Y0070906D03*
X0185262Y0077205D03*
X0185262Y0085906D03*
X0185262Y0092205D03*
D14*
X0213648Y0071622D03*
X0218648Y0071622D03*
X0223648Y0071622D03*
X0228648Y0071622D03*
X0233648Y0071622D03*
X0238648Y0071622D03*
X0243648Y0071622D03*
X0248648Y0071622D03*
X0253648Y0071622D03*
X0258648Y0071622D03*
X0263648Y0071622D03*
X0268648Y0071622D03*
X0273648Y0071622D03*
X0278648Y0071622D03*
X0278648Y0136488D03*
X0273648Y0136488D03*
X0268648Y0136488D03*
X0263648Y0136488D03*
X0258648Y0136488D03*
X0253648Y0136488D03*
X0248648Y0136488D03*
X0243648Y0136488D03*
X0238648Y0136488D03*
X0233648Y0136488D03*
X0228648Y0136488D03*
X0223648Y0136488D03*
X0218648Y0136488D03*
X0213648Y0136488D03*
D15*
X0207782Y0126555D03*
X0207782Y0121555D03*
X0207782Y0116555D03*
X0207782Y0111555D03*
X0207782Y0106555D03*
X0207782Y0101555D03*
X0207782Y0096555D03*
X0207782Y0091555D03*
X0207782Y0086555D03*
X0207782Y0081555D03*
D16*
X0248333Y0104055D03*
D17*
X0337664Y0127716D03*
X0341404Y0127716D03*
X0345144Y0127716D03*
X0345144Y0137953D03*
X0337664Y0137953D03*
X0062861Y0089174D03*
X0055381Y0089174D03*
X0055381Y0078937D03*
X0059121Y0078937D03*
X0062861Y0078937D03*
D18*
X0045988Y0110077D02*
X0045567Y0109931D01*
X0045125Y0109870D01*
X0040400Y0109870D01*
X0039901Y0109951D01*
X0039433Y0110140D01*
X0039019Y0110429D01*
X0038679Y0110803D01*
X0038431Y0111244D01*
X0038287Y0111728D01*
X0038255Y0112232D01*
X0038287Y0112737D01*
X0038431Y0113221D01*
X0038679Y0113661D01*
X0039019Y0114035D01*
X0039433Y0114324D01*
X0039901Y0114514D01*
X0040400Y0114594D01*
X0045125Y0114594D01*
X0045567Y0114534D01*
X0045988Y0114388D01*
X0046373Y0114162D01*
X0046706Y0113866D01*
X0046976Y0113510D01*
X0047171Y0113109D01*
X0047283Y0112678D01*
X0047310Y0112232D01*
X0047283Y0111787D01*
X0047171Y0111355D01*
X0046976Y0110954D01*
X0046706Y0110599D01*
X0046373Y0110302D01*
X0045988Y0110077D01*
X0045995Y0110081D02*
X0039579Y0110081D01*
X0039486Y0110119D02*
X0046059Y0110119D01*
X0046124Y0110157D02*
X0039409Y0110157D01*
X0039355Y0110195D02*
X0046189Y0110195D01*
X0046254Y0110233D02*
X0039301Y0110233D01*
X0039246Y0110270D02*
X0046318Y0110270D01*
X0046379Y0110308D02*
X0039192Y0110308D01*
X0039138Y0110346D02*
X0046422Y0110346D01*
X0046465Y0110384D02*
X0039083Y0110384D01*
X0039029Y0110422D02*
X0046507Y0110422D01*
X0046550Y0110460D02*
X0038991Y0110460D01*
X0038956Y0110498D02*
X0046593Y0110498D01*
X0046635Y0110536D02*
X0038922Y0110536D01*
X0038888Y0110573D02*
X0046678Y0110573D01*
X0046716Y0110611D02*
X0038853Y0110611D01*
X0038819Y0110649D02*
X0046745Y0110649D01*
X0046773Y0110687D02*
X0038784Y0110687D01*
X0038750Y0110725D02*
X0046802Y0110725D01*
X0046831Y0110763D02*
X0038716Y0110763D01*
X0038681Y0110801D02*
X0046860Y0110801D01*
X0046888Y0110839D02*
X0038659Y0110839D01*
X0038638Y0110877D02*
X0046917Y0110877D01*
X0046946Y0110914D02*
X0038616Y0110914D01*
X0038595Y0110952D02*
X0046974Y0110952D01*
X0046993Y0110990D02*
X0038574Y0110990D01*
X0038552Y0111028D02*
X0047012Y0111028D01*
X0047030Y0111066D02*
X0038531Y0111066D01*
X0038510Y0111104D02*
X0047048Y0111104D01*
X0047067Y0111142D02*
X0038488Y0111142D01*
X0038467Y0111180D02*
X0047085Y0111180D01*
X0047104Y0111217D02*
X0038446Y0111217D01*
X0038427Y0111255D02*
X0047122Y0111255D01*
X0047140Y0111293D02*
X0038416Y0111293D01*
X0038405Y0111331D02*
X0047159Y0111331D01*
X0047174Y0111369D02*
X0038394Y0111369D01*
X0038382Y0111407D02*
X0047184Y0111407D01*
X0047194Y0111445D02*
X0038371Y0111445D01*
X0038360Y0111483D02*
X0047204Y0111483D01*
X0047214Y0111521D02*
X0038349Y0111521D01*
X0038337Y0111558D02*
X0047224Y0111558D01*
X0047233Y0111596D02*
X0038326Y0111596D01*
X0038315Y0111634D02*
X0047243Y0111634D01*
X0047253Y0111672D02*
X0038304Y0111672D01*
X0038292Y0111710D02*
X0047263Y0111710D01*
X0047273Y0111748D02*
X0038286Y0111748D01*
X0038283Y0111786D02*
X0047283Y0111786D01*
X0047285Y0111824D02*
X0038281Y0111824D01*
X0038278Y0111861D02*
X0047288Y0111861D01*
X0047290Y0111899D02*
X0038276Y0111899D01*
X0038274Y0111937D02*
X0047292Y0111937D01*
X0047294Y0111975D02*
X0038271Y0111975D01*
X0038269Y0112013D02*
X0047297Y0112013D01*
X0047299Y0112051D02*
X0038266Y0112051D01*
X0038264Y0112089D02*
X0047301Y0112089D01*
X0047303Y0112127D02*
X0038261Y0112127D01*
X0038259Y0112164D02*
X0047306Y0112164D01*
X0047308Y0112202D02*
X0038257Y0112202D01*
X0038255Y0112240D02*
X0047309Y0112240D01*
X0047307Y0112278D02*
X0038258Y0112278D01*
X0038260Y0112316D02*
X0047305Y0112316D01*
X0047302Y0112354D02*
X0038262Y0112354D01*
X0038265Y0112392D02*
X0047300Y0112392D01*
X0047298Y0112430D02*
X0038267Y0112430D01*
X0038270Y0112468D02*
X0047296Y0112468D01*
X0047294Y0112505D02*
X0038272Y0112505D01*
X0038275Y0112543D02*
X0047291Y0112543D01*
X0047289Y0112581D02*
X0038277Y0112581D01*
X0038279Y0112619D02*
X0047287Y0112619D01*
X0047285Y0112657D02*
X0038282Y0112657D01*
X0038284Y0112695D02*
X0047279Y0112695D01*
X0047269Y0112733D02*
X0038287Y0112733D01*
X0038297Y0112771D02*
X0047259Y0112771D01*
X0047249Y0112808D02*
X0038308Y0112808D01*
X0038320Y0112846D02*
X0047239Y0112846D01*
X0047229Y0112884D02*
X0038331Y0112884D01*
X0038342Y0112922D02*
X0047219Y0112922D01*
X0047209Y0112960D02*
X0038353Y0112960D01*
X0038365Y0112998D02*
X0047200Y0112998D01*
X0047190Y0113036D02*
X0038376Y0113036D01*
X0038387Y0113074D02*
X0047180Y0113074D01*
X0047169Y0113112D02*
X0038398Y0113112D01*
X0038410Y0113149D02*
X0047151Y0113149D01*
X0047133Y0113187D02*
X0038421Y0113187D01*
X0038433Y0113225D02*
X0047114Y0113225D01*
X0047096Y0113263D02*
X0038455Y0113263D01*
X0038476Y0113301D02*
X0047077Y0113301D01*
X0047059Y0113339D02*
X0038497Y0113339D01*
X0038519Y0113377D02*
X0047041Y0113377D01*
X0047022Y0113415D02*
X0038540Y0113415D01*
X0038561Y0113452D02*
X0047004Y0113452D01*
X0046985Y0113490D02*
X0038583Y0113490D01*
X0038604Y0113528D02*
X0046962Y0113528D01*
X0046934Y0113566D02*
X0038625Y0113566D01*
X0038647Y0113604D02*
X0046905Y0113604D01*
X0046876Y0113642D02*
X0038668Y0113642D01*
X0038696Y0113680D02*
X0046847Y0113680D01*
X0046819Y0113718D02*
X0038730Y0113718D01*
X0038764Y0113756D02*
X0046790Y0113756D01*
X0046761Y0113793D02*
X0038799Y0113793D01*
X0038833Y0113831D02*
X0046733Y0113831D01*
X0046703Y0113869D02*
X0038868Y0113869D01*
X0038902Y0113907D02*
X0046660Y0113907D01*
X0046617Y0113945D02*
X0038937Y0113945D01*
X0038971Y0113983D02*
X0046575Y0113983D01*
X0046532Y0114021D02*
X0039005Y0114021D01*
X0039052Y0114059D02*
X0046489Y0114059D01*
X0046447Y0114096D02*
X0039106Y0114096D01*
X0039161Y0114134D02*
X0046404Y0114134D01*
X0046356Y0114172D02*
X0039215Y0114172D01*
X0039269Y0114210D02*
X0046291Y0114210D01*
X0046226Y0114248D02*
X0039324Y0114248D01*
X0039378Y0114286D02*
X0046162Y0114286D01*
X0046097Y0114324D02*
X0039432Y0114324D01*
X0039525Y0114362D02*
X0046032Y0114362D01*
X0045953Y0114399D02*
X0039619Y0114399D01*
X0039712Y0114437D02*
X0045844Y0114437D01*
X0045735Y0114475D02*
X0039806Y0114475D01*
X0039900Y0114513D02*
X0045625Y0114513D01*
X0045440Y0114551D02*
X0040131Y0114551D01*
X0040366Y0114589D02*
X0045165Y0114589D01*
X0045890Y0110043D02*
X0039673Y0110043D01*
X0039767Y0110005D02*
X0045781Y0110005D01*
X0045671Y0109967D02*
X0039860Y0109967D01*
X0040033Y0109929D02*
X0045555Y0109929D01*
X0045281Y0109892D02*
X0040267Y0109892D01*
X0029821Y0111770D02*
X0029684Y0111325D01*
X0029464Y0110916D01*
X0029167Y0110558D01*
X0028806Y0110264D01*
X0028395Y0110047D01*
X0027950Y0109914D01*
X0027487Y0109870D01*
X0025125Y0109870D01*
X0024666Y0109917D01*
X0024225Y0110053D01*
X0023819Y0110272D01*
X0023464Y0110566D01*
X0023173Y0110924D01*
X0022957Y0111331D01*
X0022825Y0111773D01*
X0022782Y0112232D01*
X0022839Y0112756D01*
X0023011Y0113254D01*
X0023289Y0113701D01*
X0023660Y0114075D01*
X0024105Y0114357D01*
X0024601Y0114533D01*
X0025125Y0114594D01*
X0027487Y0114594D01*
X0028015Y0114537D01*
X0028517Y0114364D01*
X0028968Y0114083D01*
X0029345Y0113709D01*
X0029630Y0113261D01*
X0029807Y0112760D01*
X0029869Y0112232D01*
X0029821Y0111770D01*
X0029823Y0111786D02*
X0022824Y0111786D01*
X0022821Y0111824D02*
X0029827Y0111824D01*
X0029831Y0111861D02*
X0022817Y0111861D01*
X0022814Y0111899D02*
X0029835Y0111899D01*
X0029838Y0111937D02*
X0022810Y0111937D01*
X0022806Y0111975D02*
X0029842Y0111975D01*
X0029846Y0112013D02*
X0022803Y0112013D01*
X0022799Y0112051D02*
X0029850Y0112051D01*
X0029854Y0112089D02*
X0022796Y0112089D01*
X0022792Y0112127D02*
X0029858Y0112127D01*
X0029862Y0112164D02*
X0022789Y0112164D01*
X0022785Y0112202D02*
X0029866Y0112202D01*
X0029868Y0112240D02*
X0022783Y0112240D01*
X0022787Y0112278D02*
X0029863Y0112278D01*
X0029859Y0112316D02*
X0022791Y0112316D01*
X0022795Y0112354D02*
X0029855Y0112354D01*
X0029850Y0112392D02*
X0022799Y0112392D01*
X0022804Y0112430D02*
X0029846Y0112430D01*
X0029841Y0112468D02*
X0022808Y0112468D01*
X0022812Y0112505D02*
X0029837Y0112505D01*
X0029832Y0112543D02*
X0022816Y0112543D01*
X0022820Y0112581D02*
X0029828Y0112581D01*
X0029824Y0112619D02*
X0022824Y0112619D01*
X0022828Y0112657D02*
X0029819Y0112657D01*
X0029815Y0112695D02*
X0022832Y0112695D01*
X0022836Y0112733D02*
X0029810Y0112733D01*
X0029803Y0112771D02*
X0022844Y0112771D01*
X0022857Y0112808D02*
X0029790Y0112808D01*
X0029776Y0112846D02*
X0022870Y0112846D01*
X0022883Y0112884D02*
X0029763Y0112884D01*
X0029750Y0112922D02*
X0022896Y0112922D01*
X0022909Y0112960D02*
X0029736Y0112960D01*
X0029723Y0112998D02*
X0022922Y0112998D01*
X0022936Y0113036D02*
X0029709Y0113036D01*
X0029696Y0113074D02*
X0022949Y0113074D01*
X0022962Y0113112D02*
X0029682Y0113112D01*
X0029669Y0113149D02*
X0022975Y0113149D01*
X0022988Y0113187D02*
X0029656Y0113187D01*
X0029642Y0113225D02*
X0023001Y0113225D01*
X0023017Y0113263D02*
X0029628Y0113263D01*
X0029604Y0113301D02*
X0023040Y0113301D01*
X0023064Y0113339D02*
X0029580Y0113339D01*
X0029556Y0113377D02*
X0023087Y0113377D01*
X0023111Y0113415D02*
X0029532Y0113415D01*
X0029508Y0113452D02*
X0023134Y0113452D01*
X0023158Y0113490D02*
X0029484Y0113490D01*
X0029460Y0113528D02*
X0023182Y0113528D01*
X0023205Y0113566D02*
X0029436Y0113566D01*
X0029412Y0113604D02*
X0023229Y0113604D01*
X0023252Y0113642D02*
X0029388Y0113642D01*
X0029364Y0113680D02*
X0023276Y0113680D01*
X0023306Y0113718D02*
X0029336Y0113718D01*
X0029298Y0113756D02*
X0023343Y0113756D01*
X0023381Y0113793D02*
X0029260Y0113793D01*
X0029222Y0113831D02*
X0023418Y0113831D01*
X0023456Y0113869D02*
X0029184Y0113869D01*
X0029146Y0113907D02*
X0023493Y0113907D01*
X0023531Y0113945D02*
X0029107Y0113945D01*
X0029069Y0113983D02*
X0023569Y0113983D01*
X0023606Y0114021D02*
X0029031Y0114021D01*
X0028993Y0114059D02*
X0023644Y0114059D01*
X0023694Y0114096D02*
X0028947Y0114096D01*
X0028886Y0114134D02*
X0023753Y0114134D01*
X0023813Y0114172D02*
X0028825Y0114172D01*
X0028764Y0114210D02*
X0023873Y0114210D01*
X0023933Y0114248D02*
X0028703Y0114248D01*
X0028642Y0114286D02*
X0023992Y0114286D01*
X0024052Y0114324D02*
X0028581Y0114324D01*
X0028521Y0114362D02*
X0024117Y0114362D01*
X0024224Y0114399D02*
X0028414Y0114399D01*
X0028304Y0114437D02*
X0024331Y0114437D01*
X0024438Y0114475D02*
X0028194Y0114475D01*
X0028085Y0114513D02*
X0024545Y0114513D01*
X0024753Y0114551D02*
X0027888Y0114551D01*
X0027538Y0114589D02*
X0025077Y0114589D01*
X0022833Y0111748D02*
X0029815Y0111748D01*
X0029803Y0111710D02*
X0022844Y0111710D01*
X0022856Y0111672D02*
X0029791Y0111672D01*
X0029780Y0111634D02*
X0022867Y0111634D01*
X0022878Y0111596D02*
X0029768Y0111596D01*
X0029756Y0111558D02*
X0022890Y0111558D01*
X0022901Y0111521D02*
X0029745Y0111521D01*
X0029733Y0111483D02*
X0022912Y0111483D01*
X0022924Y0111445D02*
X0029721Y0111445D01*
X0029710Y0111407D02*
X0022935Y0111407D01*
X0022946Y0111369D02*
X0029698Y0111369D01*
X0029686Y0111331D02*
X0022958Y0111331D01*
X0022978Y0111293D02*
X0029667Y0111293D01*
X0029647Y0111255D02*
X0022998Y0111255D01*
X0023018Y0111217D02*
X0029626Y0111217D01*
X0029606Y0111180D02*
X0023038Y0111180D01*
X0023058Y0111142D02*
X0029585Y0111142D01*
X0029565Y0111104D02*
X0023078Y0111104D01*
X0023098Y0111066D02*
X0029544Y0111066D01*
X0029524Y0111028D02*
X0023118Y0111028D01*
X0023138Y0110990D02*
X0029504Y0110990D01*
X0029483Y0110952D02*
X0023158Y0110952D01*
X0023181Y0110914D02*
X0029462Y0110914D01*
X0029431Y0110877D02*
X0023212Y0110877D01*
X0023242Y0110839D02*
X0029399Y0110839D01*
X0029368Y0110801D02*
X0023273Y0110801D01*
X0023304Y0110763D02*
X0029337Y0110763D01*
X0029305Y0110725D02*
X0023335Y0110725D01*
X0023366Y0110687D02*
X0029274Y0110687D01*
X0029243Y0110649D02*
X0023396Y0110649D01*
X0023427Y0110611D02*
X0029211Y0110611D01*
X0029180Y0110573D02*
X0023458Y0110573D01*
X0023501Y0110536D02*
X0029140Y0110536D01*
X0029093Y0110498D02*
X0023547Y0110498D01*
X0023592Y0110460D02*
X0029047Y0110460D01*
X0029000Y0110422D02*
X0023638Y0110422D01*
X0023684Y0110384D02*
X0028953Y0110384D01*
X0028907Y0110346D02*
X0023730Y0110346D01*
X0023776Y0110308D02*
X0028860Y0110308D01*
X0028814Y0110270D02*
X0023822Y0110270D01*
X0023892Y0110233D02*
X0028746Y0110233D01*
X0028675Y0110195D02*
X0023963Y0110195D01*
X0024033Y0110157D02*
X0028603Y0110157D01*
X0028531Y0110119D02*
X0024103Y0110119D01*
X0024173Y0110081D02*
X0028460Y0110081D01*
X0028383Y0110043D02*
X0024257Y0110043D01*
X0024380Y0110005D02*
X0028256Y0110005D01*
X0028129Y0109967D02*
X0024503Y0109967D01*
X0024626Y0109929D02*
X0028003Y0109929D01*
X0027715Y0109892D02*
X0024915Y0109892D01*
X0025125Y0143886D02*
X0024666Y0143933D01*
X0024225Y0144069D01*
X0023819Y0144288D01*
X0028816Y0144288D01*
X0028806Y0144280D02*
X0028395Y0144063D01*
X0027950Y0143929D01*
X0027487Y0143886D01*
X0025125Y0143886D01*
X0024898Y0143909D02*
X0027734Y0143909D01*
X0028008Y0143947D02*
X0024620Y0143947D01*
X0024497Y0143985D02*
X0028135Y0143985D01*
X0028262Y0144023D02*
X0024374Y0144023D01*
X0024251Y0144061D02*
X0028389Y0144061D01*
X0028463Y0144099D02*
X0024170Y0144099D01*
X0024100Y0144136D02*
X0028535Y0144136D01*
X0028606Y0144174D02*
X0024030Y0144174D01*
X0023959Y0144212D02*
X0028678Y0144212D01*
X0028750Y0144250D02*
X0023889Y0144250D01*
X0023819Y0144288D02*
X0023464Y0144582D01*
X0023173Y0144939D01*
X0022957Y0145347D01*
X0022825Y0145789D01*
X0022782Y0146248D01*
X0022839Y0146772D01*
X0023011Y0147270D01*
X0023289Y0147717D01*
X0023660Y0148091D01*
X0024105Y0148373D01*
X0024601Y0148549D01*
X0025125Y0148610D01*
X0027487Y0148610D01*
X0028015Y0148553D01*
X0028517Y0148380D01*
X0028968Y0148099D01*
X0029345Y0147725D01*
X0029630Y0147276D01*
X0029807Y0146776D01*
X0029869Y0146248D01*
X0029821Y0145785D01*
X0029684Y0145341D01*
X0029464Y0144932D01*
X0023179Y0144932D01*
X0023157Y0144970D02*
X0029484Y0144970D01*
X0029504Y0145008D02*
X0023137Y0145008D01*
X0023117Y0145046D02*
X0029525Y0145046D01*
X0029545Y0145083D02*
X0023097Y0145083D01*
X0023077Y0145121D02*
X0029566Y0145121D01*
X0029586Y0145159D02*
X0023057Y0145159D01*
X0023037Y0145197D02*
X0029607Y0145197D01*
X0029627Y0145235D02*
X0023017Y0145235D01*
X0022997Y0145273D02*
X0029648Y0145273D01*
X0029668Y0145311D02*
X0022977Y0145311D01*
X0022957Y0145349D02*
X0029687Y0145349D01*
X0029698Y0145386D02*
X0022946Y0145386D01*
X0022934Y0145424D02*
X0029710Y0145424D01*
X0029722Y0145462D02*
X0022923Y0145462D01*
X0022912Y0145500D02*
X0029733Y0145500D01*
X0029745Y0145538D02*
X0022900Y0145538D01*
X0022889Y0145576D02*
X0029757Y0145576D01*
X0029768Y0145614D02*
X0022878Y0145614D01*
X0022866Y0145652D02*
X0029780Y0145652D01*
X0029792Y0145690D02*
X0022855Y0145690D01*
X0022844Y0145727D02*
X0029803Y0145727D01*
X0029815Y0145765D02*
X0022832Y0145765D01*
X0022824Y0145803D02*
X0029823Y0145803D01*
X0029827Y0145841D02*
X0022821Y0145841D01*
X0022817Y0145879D02*
X0029831Y0145879D01*
X0029835Y0145917D02*
X0022813Y0145917D01*
X0022810Y0145955D02*
X0029839Y0145955D01*
X0029843Y0145993D02*
X0022806Y0145993D01*
X0022803Y0146030D02*
X0029846Y0146030D01*
X0029850Y0146068D02*
X0022799Y0146068D01*
X0022796Y0146106D02*
X0029854Y0146106D01*
X0029858Y0146144D02*
X0022792Y0146144D01*
X0022788Y0146182D02*
X0029862Y0146182D01*
X0029866Y0146220D02*
X0022785Y0146220D01*
X0022783Y0146258D02*
X0029868Y0146258D01*
X0029863Y0146296D02*
X0022787Y0146296D01*
X0022791Y0146334D02*
X0029859Y0146334D01*
X0029854Y0146371D02*
X0022796Y0146371D01*
X0022800Y0146409D02*
X0029850Y0146409D01*
X0029845Y0146447D02*
X0022804Y0146447D01*
X0022808Y0146485D02*
X0029841Y0146485D01*
X0029837Y0146523D02*
X0022812Y0146523D01*
X0022816Y0146561D02*
X0029832Y0146561D01*
X0029828Y0146599D02*
X0022820Y0146599D01*
X0022824Y0146637D02*
X0029823Y0146637D01*
X0029819Y0146674D02*
X0022828Y0146674D01*
X0022832Y0146712D02*
X0029814Y0146712D01*
X0029810Y0146750D02*
X0022837Y0146750D01*
X0022845Y0146788D02*
X0029803Y0146788D01*
X0029789Y0146826D02*
X0022858Y0146826D01*
X0022871Y0146864D02*
X0029776Y0146864D01*
X0029762Y0146902D02*
X0022884Y0146902D01*
X0022897Y0146940D02*
X0029749Y0146940D01*
X0029736Y0146977D02*
X0022910Y0146977D01*
X0022923Y0147015D02*
X0029722Y0147015D01*
X0029709Y0147053D02*
X0022936Y0147053D01*
X0022949Y0147091D02*
X0029695Y0147091D01*
X0029682Y0147129D02*
X0022962Y0147129D01*
X0022975Y0147167D02*
X0029668Y0147167D01*
X0029655Y0147205D02*
X0022988Y0147205D01*
X0023002Y0147243D02*
X0029641Y0147243D01*
X0029627Y0147281D02*
X0023018Y0147281D01*
X0023041Y0147318D02*
X0029603Y0147318D01*
X0029579Y0147356D02*
X0023065Y0147356D01*
X0023088Y0147394D02*
X0029555Y0147394D01*
X0029531Y0147432D02*
X0023112Y0147432D01*
X0023136Y0147470D02*
X0029507Y0147470D01*
X0029483Y0147508D02*
X0023159Y0147508D01*
X0023183Y0147546D02*
X0029459Y0147546D01*
X0029435Y0147584D02*
X0023206Y0147584D01*
X0023230Y0147621D02*
X0029411Y0147621D01*
X0029387Y0147659D02*
X0023253Y0147659D01*
X0023277Y0147697D02*
X0029363Y0147697D01*
X0029335Y0147735D02*
X0023307Y0147735D01*
X0023345Y0147773D02*
X0029297Y0147773D01*
X0029258Y0147811D02*
X0023382Y0147811D01*
X0023420Y0147849D02*
X0029220Y0147849D01*
X0029182Y0147887D02*
X0023458Y0147887D01*
X0023495Y0147925D02*
X0029144Y0147925D01*
X0029106Y0147962D02*
X0023533Y0147962D01*
X0023570Y0148000D02*
X0029067Y0148000D01*
X0029029Y0148038D02*
X0023608Y0148038D01*
X0023645Y0148076D02*
X0028991Y0148076D01*
X0028944Y0148114D02*
X0023696Y0148114D01*
X0023756Y0148152D02*
X0028883Y0148152D01*
X0028822Y0148190D02*
X0023816Y0148190D01*
X0023876Y0148228D02*
X0028761Y0148228D01*
X0028700Y0148265D02*
X0023935Y0148265D01*
X0023995Y0148303D02*
X0028640Y0148303D01*
X0028579Y0148341D02*
X0024055Y0148341D01*
X0024122Y0148379D02*
X0028518Y0148379D01*
X0028409Y0148417D02*
X0024229Y0148417D01*
X0024336Y0148455D02*
X0028299Y0148455D01*
X0028189Y0148493D02*
X0024443Y0148493D01*
X0024549Y0148531D02*
X0028080Y0148531D01*
X0027871Y0148569D02*
X0024768Y0148569D01*
X0025092Y0148606D02*
X0027522Y0148606D01*
X0029464Y0144932D02*
X0029167Y0144574D01*
X0028806Y0144280D01*
X0028863Y0144326D02*
X0023773Y0144326D01*
X0023728Y0144364D02*
X0028909Y0144364D01*
X0028956Y0144402D02*
X0023682Y0144402D01*
X0023636Y0144439D02*
X0029002Y0144439D01*
X0029049Y0144477D02*
X0023590Y0144477D01*
X0023545Y0144515D02*
X0029095Y0144515D01*
X0029142Y0144553D02*
X0023499Y0144553D01*
X0023457Y0144591D02*
X0029181Y0144591D01*
X0029213Y0144629D02*
X0023426Y0144629D01*
X0023395Y0144667D02*
X0029244Y0144667D01*
X0029275Y0144705D02*
X0023364Y0144705D01*
X0023333Y0144742D02*
X0029307Y0144742D01*
X0029338Y0144780D02*
X0023303Y0144780D01*
X0023272Y0144818D02*
X0029370Y0144818D01*
X0029401Y0144856D02*
X0023241Y0144856D01*
X0023210Y0144894D02*
X0029432Y0144894D01*
X0038287Y0145744D02*
X0038255Y0146248D01*
X0038287Y0146752D01*
X0038431Y0147237D01*
X0038679Y0147677D01*
X0039019Y0148051D01*
X0039433Y0148340D01*
X0039901Y0148530D01*
X0040400Y0148610D01*
X0045125Y0148610D01*
X0045567Y0148549D01*
X0045988Y0148403D01*
X0046373Y0148178D01*
X0046706Y0147882D01*
X0046976Y0147526D01*
X0047171Y0147125D01*
X0047283Y0146693D01*
X0047310Y0146248D01*
X0047283Y0145803D01*
X0038283Y0145803D01*
X0038286Y0145765D02*
X0047274Y0145765D01*
X0047283Y0145803D02*
X0047171Y0145371D01*
X0046976Y0144970D01*
X0046706Y0144614D01*
X0046373Y0144318D01*
X0045988Y0144093D01*
X0045567Y0143947D01*
X0040022Y0143947D01*
X0039901Y0143966D02*
X0039433Y0144156D01*
X0039019Y0144445D01*
X0038679Y0144819D01*
X0038431Y0145259D01*
X0038287Y0145744D01*
X0038292Y0145727D02*
X0047264Y0145727D01*
X0047254Y0145690D02*
X0038303Y0145690D01*
X0038314Y0145652D02*
X0047244Y0145652D01*
X0047234Y0145614D02*
X0038326Y0145614D01*
X0038337Y0145576D02*
X0047224Y0145576D01*
X0047214Y0145538D02*
X0038348Y0145538D01*
X0038359Y0145500D02*
X0047204Y0145500D01*
X0047194Y0145462D02*
X0038371Y0145462D01*
X0038382Y0145424D02*
X0047184Y0145424D01*
X0047175Y0145386D02*
X0038393Y0145386D01*
X0038404Y0145349D02*
X0047160Y0145349D01*
X0047141Y0145311D02*
X0038416Y0145311D01*
X0038427Y0145273D02*
X0047123Y0145273D01*
X0047104Y0145235D02*
X0038445Y0145235D01*
X0038466Y0145197D02*
X0047086Y0145197D01*
X0047068Y0145159D02*
X0038487Y0145159D01*
X0038509Y0145121D02*
X0047049Y0145121D01*
X0047031Y0145083D02*
X0038530Y0145083D01*
X0038551Y0145046D02*
X0047012Y0145046D01*
X0046994Y0145008D02*
X0038573Y0145008D01*
X0038594Y0144970D02*
X0046976Y0144970D01*
X0046947Y0144932D02*
X0038615Y0144932D01*
X0038637Y0144894D02*
X0046918Y0144894D01*
X0046890Y0144856D02*
X0038658Y0144856D01*
X0038680Y0144818D02*
X0046861Y0144818D01*
X0046832Y0144780D02*
X0038714Y0144780D01*
X0038748Y0144742D02*
X0046803Y0144742D01*
X0046775Y0144705D02*
X0038783Y0144705D01*
X0038817Y0144667D02*
X0046746Y0144667D01*
X0046717Y0144629D02*
X0038852Y0144629D01*
X0038886Y0144591D02*
X0046680Y0144591D01*
X0046637Y0144553D02*
X0038920Y0144553D01*
X0038955Y0144515D02*
X0046595Y0144515D01*
X0046552Y0144477D02*
X0038989Y0144477D01*
X0039027Y0144439D02*
X0046509Y0144439D01*
X0046467Y0144402D02*
X0039081Y0144402D01*
X0039135Y0144364D02*
X0046424Y0144364D01*
X0046381Y0144326D02*
X0039190Y0144326D01*
X0039244Y0144288D02*
X0046321Y0144288D01*
X0046256Y0144250D02*
X0039298Y0144250D01*
X0039353Y0144212D02*
X0046192Y0144212D01*
X0046127Y0144174D02*
X0039407Y0144174D01*
X0039482Y0144136D02*
X0046062Y0144136D01*
X0045998Y0144099D02*
X0039575Y0144099D01*
X0039669Y0144061D02*
X0045895Y0144061D01*
X0045786Y0144023D02*
X0039762Y0144023D01*
X0039856Y0143985D02*
X0045676Y0143985D01*
X0045567Y0143947D02*
X0045125Y0143886D01*
X0040400Y0143886D01*
X0039901Y0143966D01*
X0040256Y0143909D02*
X0045293Y0143909D01*
X0047286Y0145841D02*
X0038281Y0145841D01*
X0038278Y0145879D02*
X0047288Y0145879D01*
X0047290Y0145917D02*
X0038276Y0145917D01*
X0038273Y0145955D02*
X0047292Y0145955D01*
X0047295Y0145993D02*
X0038271Y0145993D01*
X0038269Y0146030D02*
X0047297Y0146030D01*
X0047299Y0146068D02*
X0038266Y0146068D01*
X0038264Y0146106D02*
X0047301Y0146106D01*
X0047304Y0146144D02*
X0038261Y0146144D01*
X0038259Y0146182D02*
X0047306Y0146182D01*
X0047308Y0146220D02*
X0038256Y0146220D01*
X0038255Y0146258D02*
X0047309Y0146258D01*
X0047307Y0146296D02*
X0038258Y0146296D01*
X0038260Y0146334D02*
X0047305Y0146334D01*
X0047302Y0146371D02*
X0038263Y0146371D01*
X0038265Y0146409D02*
X0047300Y0146409D01*
X0047298Y0146447D02*
X0038267Y0146447D01*
X0038270Y0146485D02*
X0047296Y0146485D01*
X0047293Y0146523D02*
X0038272Y0146523D01*
X0038275Y0146561D02*
X0047291Y0146561D01*
X0047289Y0146599D02*
X0038277Y0146599D01*
X0038280Y0146637D02*
X0047287Y0146637D01*
X0047284Y0146674D02*
X0038282Y0146674D01*
X0038284Y0146712D02*
X0047278Y0146712D01*
X0047268Y0146750D02*
X0038287Y0146750D01*
X0038298Y0146788D02*
X0047259Y0146788D01*
X0047249Y0146826D02*
X0038309Y0146826D01*
X0038320Y0146864D02*
X0047239Y0146864D01*
X0047229Y0146902D02*
X0038331Y0146902D01*
X0038343Y0146940D02*
X0047219Y0146940D01*
X0047209Y0146977D02*
X0038354Y0146977D01*
X0038365Y0147015D02*
X0047199Y0147015D01*
X0047189Y0147053D02*
X0038376Y0147053D01*
X0038388Y0147091D02*
X0047179Y0147091D01*
X0047169Y0147129D02*
X0038399Y0147129D01*
X0038410Y0147167D02*
X0047150Y0147167D01*
X0047132Y0147205D02*
X0038421Y0147205D01*
X0038434Y0147243D02*
X0047113Y0147243D01*
X0047095Y0147281D02*
X0038456Y0147281D01*
X0038477Y0147318D02*
X0047077Y0147318D01*
X0047058Y0147356D02*
X0038498Y0147356D01*
X0038520Y0147394D02*
X0047040Y0147394D01*
X0047021Y0147432D02*
X0038541Y0147432D01*
X0038562Y0147470D02*
X0047003Y0147470D01*
X0046985Y0147508D02*
X0038584Y0147508D01*
X0038605Y0147546D02*
X0046961Y0147546D01*
X0046932Y0147584D02*
X0038626Y0147584D01*
X0038648Y0147621D02*
X0046904Y0147621D01*
X0046875Y0147659D02*
X0038669Y0147659D01*
X0038697Y0147697D02*
X0046846Y0147697D01*
X0046817Y0147735D02*
X0038732Y0147735D01*
X0038766Y0147773D02*
X0046789Y0147773D01*
X0046760Y0147811D02*
X0038800Y0147811D01*
X0038835Y0147849D02*
X0046731Y0147849D01*
X0046701Y0147887D02*
X0038869Y0147887D01*
X0038904Y0147925D02*
X0046658Y0147925D01*
X0046615Y0147962D02*
X0038938Y0147962D01*
X0038973Y0148000D02*
X0046573Y0148000D01*
X0046530Y0148038D02*
X0039007Y0148038D01*
X0039055Y0148076D02*
X0046488Y0148076D01*
X0046445Y0148114D02*
X0039109Y0148114D01*
X0039163Y0148152D02*
X0046402Y0148152D01*
X0046353Y0148190D02*
X0039217Y0148190D01*
X0039272Y0148228D02*
X0046288Y0148228D01*
X0046223Y0148265D02*
X0039326Y0148265D01*
X0039380Y0148303D02*
X0046159Y0148303D01*
X0046094Y0148341D02*
X0039436Y0148341D01*
X0039530Y0148379D02*
X0046029Y0148379D01*
X0045948Y0148417D02*
X0039623Y0148417D01*
X0039717Y0148455D02*
X0045839Y0148455D01*
X0045730Y0148493D02*
X0039810Y0148493D01*
X0039908Y0148531D02*
X0045620Y0148531D01*
X0045427Y0148569D02*
X0040142Y0148569D01*
X0040376Y0148606D02*
X0045152Y0148606D01*
X0138727Y0094449D02*
X0141798Y0094449D01*
X0141798Y0093504D01*
X0138727Y0093504D01*
X0138727Y0094449D01*
X0138727Y0094436D02*
X0141798Y0094436D01*
X0141798Y0094398D02*
X0138727Y0094398D01*
X0138727Y0094360D02*
X0141798Y0094360D01*
X0141798Y0094322D02*
X0138727Y0094322D01*
X0138727Y0094284D02*
X0141798Y0094284D01*
X0141798Y0094247D02*
X0138727Y0094247D01*
X0138727Y0094209D02*
X0141798Y0094209D01*
X0141798Y0094171D02*
X0138727Y0094171D01*
X0138727Y0094133D02*
X0141798Y0094133D01*
X0141798Y0094095D02*
X0138727Y0094095D01*
X0138727Y0094057D02*
X0141798Y0094057D01*
X0141798Y0094019D02*
X0138727Y0094019D01*
X0138727Y0093981D02*
X0141798Y0093981D01*
X0141798Y0093944D02*
X0138727Y0093944D01*
X0138727Y0093906D02*
X0141798Y0093906D01*
X0141798Y0093868D02*
X0138727Y0093868D01*
X0138727Y0093830D02*
X0141798Y0093830D01*
X0141798Y0093792D02*
X0138727Y0093792D01*
X0138727Y0093754D02*
X0141798Y0093754D01*
X0141798Y0093716D02*
X0138727Y0093716D01*
X0138727Y0093678D02*
X0141798Y0093678D01*
X0141798Y0093640D02*
X0138727Y0093640D01*
X0138727Y0093603D02*
X0141798Y0093603D01*
X0141798Y0093565D02*
X0138727Y0093565D01*
X0138727Y0093527D02*
X0141798Y0093527D01*
X0141798Y0092480D02*
X0141798Y0091535D01*
X0138727Y0091535D01*
X0138727Y0092480D01*
X0141798Y0092480D01*
X0141798Y0092466D02*
X0138727Y0092466D01*
X0138727Y0092428D02*
X0141798Y0092428D01*
X0141798Y0092390D02*
X0138727Y0092390D01*
X0138727Y0092353D02*
X0141798Y0092353D01*
X0141798Y0092315D02*
X0138727Y0092315D01*
X0138727Y0092277D02*
X0141798Y0092277D01*
X0141798Y0092239D02*
X0138727Y0092239D01*
X0138727Y0092201D02*
X0141798Y0092201D01*
X0141798Y0092163D02*
X0138727Y0092163D01*
X0138727Y0092125D02*
X0141798Y0092125D01*
X0141798Y0092087D02*
X0138727Y0092087D01*
X0138727Y0092049D02*
X0141798Y0092049D01*
X0141798Y0092012D02*
X0138727Y0092012D01*
X0138727Y0091974D02*
X0141798Y0091974D01*
X0141798Y0091936D02*
X0138727Y0091936D01*
X0138727Y0091898D02*
X0141798Y0091898D01*
X0141798Y0091860D02*
X0138727Y0091860D01*
X0138727Y0091822D02*
X0141798Y0091822D01*
X0141798Y0091784D02*
X0138727Y0091784D01*
X0138727Y0091746D02*
X0141798Y0091746D01*
X0141798Y0091709D02*
X0138727Y0091709D01*
X0138727Y0091671D02*
X0141798Y0091671D01*
X0141798Y0091633D02*
X0138727Y0091633D01*
X0138727Y0091595D02*
X0141798Y0091595D01*
X0141798Y0091557D02*
X0138727Y0091557D01*
X0138727Y0090512D02*
X0141798Y0090512D01*
X0141798Y0089567D01*
X0138727Y0089567D01*
X0138727Y0090512D01*
X0138727Y0090496D02*
X0141798Y0090496D01*
X0141798Y0090458D02*
X0138727Y0090458D01*
X0138727Y0090421D02*
X0141798Y0090421D01*
X0141798Y0090383D02*
X0138727Y0090383D01*
X0138727Y0090345D02*
X0141798Y0090345D01*
X0141798Y0090307D02*
X0138727Y0090307D01*
X0138727Y0090269D02*
X0141798Y0090269D01*
X0141798Y0090231D02*
X0138727Y0090231D01*
X0138727Y0090193D02*
X0141798Y0090193D01*
X0141798Y0090155D02*
X0138727Y0090155D01*
X0138727Y0090118D02*
X0141798Y0090118D01*
X0141798Y0090080D02*
X0138727Y0090080D01*
X0138727Y0090042D02*
X0141798Y0090042D01*
X0141798Y0090004D02*
X0138727Y0090004D01*
X0138727Y0089966D02*
X0141798Y0089966D01*
X0141798Y0089928D02*
X0138727Y0089928D01*
X0138727Y0089890D02*
X0141798Y0089890D01*
X0141798Y0089852D02*
X0138727Y0089852D01*
X0138727Y0089814D02*
X0141798Y0089814D01*
X0141798Y0089777D02*
X0138727Y0089777D01*
X0138727Y0089739D02*
X0141798Y0089739D01*
X0141798Y0089701D02*
X0138727Y0089701D01*
X0138727Y0089663D02*
X0141798Y0089663D01*
X0141798Y0089625D02*
X0138727Y0089625D01*
X0138727Y0089587D02*
X0141798Y0089587D01*
X0141798Y0088543D02*
X0141798Y0087598D01*
X0138727Y0087598D01*
X0138727Y0088543D01*
X0141798Y0088543D01*
X0141798Y0088527D02*
X0138727Y0088527D01*
X0138727Y0088489D02*
X0141798Y0088489D01*
X0141798Y0088451D02*
X0138727Y0088451D01*
X0138727Y0088413D02*
X0141798Y0088413D01*
X0141798Y0088375D02*
X0138727Y0088375D01*
X0138727Y0088337D02*
X0141798Y0088337D01*
X0141798Y0088299D02*
X0138727Y0088299D01*
X0138727Y0088261D02*
X0141798Y0088261D01*
X0141798Y0088223D02*
X0138727Y0088223D01*
X0138727Y0088186D02*
X0141798Y0088186D01*
X0141798Y0088148D02*
X0138727Y0088148D01*
X0138727Y0088110D02*
X0141798Y0088110D01*
X0141798Y0088072D02*
X0138727Y0088072D01*
X0138727Y0088034D02*
X0141798Y0088034D01*
X0141798Y0087996D02*
X0138727Y0087996D01*
X0138727Y0087958D02*
X0141798Y0087958D01*
X0141798Y0087920D02*
X0138727Y0087920D01*
X0138727Y0087883D02*
X0141798Y0087883D01*
X0141798Y0087845D02*
X0138727Y0087845D01*
X0138727Y0087807D02*
X0141798Y0087807D01*
X0141798Y0087769D02*
X0138727Y0087769D01*
X0138727Y0087731D02*
X0141798Y0087731D01*
X0141798Y0087693D02*
X0138727Y0087693D01*
X0138727Y0087655D02*
X0141798Y0087655D01*
X0141798Y0087617D02*
X0138727Y0087617D01*
X0138727Y0086575D02*
X0141798Y0086575D01*
X0141798Y0085630D01*
X0138727Y0085630D01*
X0138727Y0086575D01*
X0138727Y0086557D02*
X0141798Y0086557D01*
X0141798Y0086519D02*
X0138727Y0086519D01*
X0138727Y0086481D02*
X0141798Y0086481D01*
X0141798Y0086443D02*
X0138727Y0086443D01*
X0138727Y0086405D02*
X0141798Y0086405D01*
X0141798Y0086367D02*
X0138727Y0086367D01*
X0138727Y0086329D02*
X0141798Y0086329D01*
X0141798Y0086291D02*
X0138727Y0086291D01*
X0138727Y0086254D02*
X0141798Y0086254D01*
X0141798Y0086216D02*
X0138727Y0086216D01*
X0138727Y0086178D02*
X0141798Y0086178D01*
X0141798Y0086140D02*
X0138727Y0086140D01*
X0138727Y0086102D02*
X0141798Y0086102D01*
X0141798Y0086064D02*
X0138727Y0086064D01*
X0138727Y0086026D02*
X0141798Y0086026D01*
X0141798Y0085988D02*
X0138727Y0085988D01*
X0138727Y0085951D02*
X0141798Y0085951D01*
X0141798Y0085913D02*
X0138727Y0085913D01*
X0138727Y0085875D02*
X0141798Y0085875D01*
X0141798Y0085837D02*
X0138727Y0085837D01*
X0138727Y0085799D02*
X0141798Y0085799D01*
X0141798Y0085761D02*
X0138727Y0085761D01*
X0138727Y0085723D02*
X0141798Y0085723D01*
X0141798Y0085685D02*
X0138727Y0085685D01*
X0138727Y0085648D02*
X0141798Y0085648D01*
X0141798Y0084606D02*
X0141798Y0083661D01*
X0138727Y0083661D01*
X0138727Y0084606D01*
X0141798Y0084606D01*
X0141798Y0084587D02*
X0138727Y0084587D01*
X0138727Y0084549D02*
X0141798Y0084549D01*
X0141798Y0084511D02*
X0138727Y0084511D01*
X0138727Y0084473D02*
X0141798Y0084473D01*
X0141798Y0084435D02*
X0138727Y0084435D01*
X0138727Y0084397D02*
X0141798Y0084397D01*
X0141798Y0084360D02*
X0138727Y0084360D01*
X0138727Y0084322D02*
X0141798Y0084322D01*
X0141798Y0084284D02*
X0138727Y0084284D01*
X0138727Y0084246D02*
X0141798Y0084246D01*
X0141798Y0084208D02*
X0138727Y0084208D01*
X0138727Y0084170D02*
X0141798Y0084170D01*
X0141798Y0084132D02*
X0138727Y0084132D01*
X0138727Y0084094D02*
X0141798Y0084094D01*
X0141798Y0084056D02*
X0138727Y0084056D01*
X0138727Y0084019D02*
X0141798Y0084019D01*
X0141798Y0083981D02*
X0138727Y0083981D01*
X0138727Y0083943D02*
X0141798Y0083943D01*
X0141798Y0083905D02*
X0138727Y0083905D01*
X0138727Y0083867D02*
X0141798Y0083867D01*
X0141798Y0083829D02*
X0138727Y0083829D01*
X0138727Y0083791D02*
X0141798Y0083791D01*
X0141798Y0083753D02*
X0138727Y0083753D01*
X0138727Y0083716D02*
X0141798Y0083716D01*
X0141798Y0083678D02*
X0138727Y0083678D01*
X0142940Y0082520D02*
X0143885Y0082520D01*
X0143885Y0079449D01*
X0142940Y0079449D01*
X0142940Y0082520D01*
X0142940Y0082503D02*
X0143885Y0082503D01*
X0143885Y0082465D02*
X0142940Y0082465D01*
X0142940Y0082428D02*
X0143885Y0082428D01*
X0143885Y0082390D02*
X0142940Y0082390D01*
X0142940Y0082352D02*
X0143885Y0082352D01*
X0143885Y0082314D02*
X0142940Y0082314D01*
X0142940Y0082276D02*
X0143885Y0082276D01*
X0143885Y0082238D02*
X0142940Y0082238D01*
X0142940Y0082200D02*
X0143885Y0082200D01*
X0143885Y0082162D02*
X0142940Y0082162D01*
X0142940Y0082125D02*
X0143885Y0082125D01*
X0143885Y0082087D02*
X0142940Y0082087D01*
X0142940Y0082049D02*
X0143885Y0082049D01*
X0143885Y0082011D02*
X0142940Y0082011D01*
X0142940Y0081973D02*
X0143885Y0081973D01*
X0143885Y0081935D02*
X0142940Y0081935D01*
X0142940Y0081897D02*
X0143885Y0081897D01*
X0143885Y0081859D02*
X0142940Y0081859D01*
X0142940Y0081821D02*
X0143885Y0081821D01*
X0143885Y0081784D02*
X0142940Y0081784D01*
X0142940Y0081746D02*
X0143885Y0081746D01*
X0143885Y0081708D02*
X0142940Y0081708D01*
X0142940Y0081670D02*
X0143885Y0081670D01*
X0143885Y0081632D02*
X0142940Y0081632D01*
X0142940Y0081594D02*
X0143885Y0081594D01*
X0143885Y0081556D02*
X0142940Y0081556D01*
X0142940Y0081518D02*
X0143885Y0081518D01*
X0143885Y0081481D02*
X0142940Y0081481D01*
X0142940Y0081443D02*
X0143885Y0081443D01*
X0143885Y0081405D02*
X0142940Y0081405D01*
X0142940Y0081367D02*
X0143885Y0081367D01*
X0143885Y0081329D02*
X0142940Y0081329D01*
X0142940Y0081291D02*
X0143885Y0081291D01*
X0143885Y0081253D02*
X0142940Y0081253D01*
X0142940Y0081215D02*
X0143885Y0081215D01*
X0143885Y0081178D02*
X0142940Y0081178D01*
X0142940Y0081140D02*
X0143885Y0081140D01*
X0143885Y0081102D02*
X0142940Y0081102D01*
X0142940Y0081064D02*
X0143885Y0081064D01*
X0143885Y0081026D02*
X0142940Y0081026D01*
X0142940Y0080988D02*
X0143885Y0080988D01*
X0143885Y0080950D02*
X0142940Y0080950D01*
X0142940Y0080912D02*
X0143885Y0080912D01*
X0143885Y0080874D02*
X0142940Y0080874D01*
X0142940Y0080837D02*
X0143885Y0080837D01*
X0143885Y0080799D02*
X0142940Y0080799D01*
X0142940Y0080761D02*
X0143885Y0080761D01*
X0143885Y0080723D02*
X0142940Y0080723D01*
X0142940Y0080685D02*
X0143885Y0080685D01*
X0143885Y0080647D02*
X0142940Y0080647D01*
X0142940Y0080609D02*
X0143885Y0080609D01*
X0143885Y0080571D02*
X0142940Y0080571D01*
X0142940Y0080534D02*
X0143885Y0080534D01*
X0143885Y0080496D02*
X0142940Y0080496D01*
X0142940Y0080458D02*
X0143885Y0080458D01*
X0143885Y0080420D02*
X0142940Y0080420D01*
X0142940Y0080382D02*
X0143885Y0080382D01*
X0143885Y0080344D02*
X0142940Y0080344D01*
X0142940Y0080306D02*
X0143885Y0080306D01*
X0143885Y0080268D02*
X0142940Y0080268D01*
X0142940Y0080230D02*
X0143885Y0080230D01*
X0143885Y0080193D02*
X0142940Y0080193D01*
X0142940Y0080155D02*
X0143885Y0080155D01*
X0143885Y0080117D02*
X0142940Y0080117D01*
X0142940Y0080079D02*
X0143885Y0080079D01*
X0143885Y0080041D02*
X0142940Y0080041D01*
X0142940Y0080003D02*
X0143885Y0080003D01*
X0143885Y0079965D02*
X0142940Y0079965D01*
X0142940Y0079927D02*
X0143885Y0079927D01*
X0143885Y0079890D02*
X0142940Y0079890D01*
X0142940Y0079852D02*
X0143885Y0079852D01*
X0143885Y0079814D02*
X0142940Y0079814D01*
X0142940Y0079776D02*
X0143885Y0079776D01*
X0143885Y0079738D02*
X0142940Y0079738D01*
X0142940Y0079700D02*
X0143885Y0079700D01*
X0143885Y0079662D02*
X0142940Y0079662D01*
X0142940Y0079624D02*
X0143885Y0079624D01*
X0143885Y0079586D02*
X0142940Y0079586D01*
X0142940Y0079549D02*
X0143885Y0079549D01*
X0143885Y0079511D02*
X0142940Y0079511D01*
X0142940Y0079473D02*
X0143885Y0079473D01*
X0144908Y0079473D02*
X0145853Y0079473D01*
X0145853Y0079449D02*
X0145853Y0082520D01*
X0144908Y0082520D01*
X0144908Y0079449D01*
X0145853Y0079449D01*
X0145853Y0079511D02*
X0144908Y0079511D01*
X0144908Y0079549D02*
X0145853Y0079549D01*
X0145853Y0079586D02*
X0144908Y0079586D01*
X0144908Y0079624D02*
X0145853Y0079624D01*
X0145853Y0079662D02*
X0144908Y0079662D01*
X0144908Y0079700D02*
X0145853Y0079700D01*
X0145853Y0079738D02*
X0144908Y0079738D01*
X0144908Y0079776D02*
X0145853Y0079776D01*
X0145853Y0079814D02*
X0144908Y0079814D01*
X0144908Y0079852D02*
X0145853Y0079852D01*
X0145853Y0079890D02*
X0144908Y0079890D01*
X0144908Y0079927D02*
X0145853Y0079927D01*
X0145853Y0079965D02*
X0144908Y0079965D01*
X0144908Y0080003D02*
X0145853Y0080003D01*
X0145853Y0080041D02*
X0144908Y0080041D01*
X0144908Y0080079D02*
X0145853Y0080079D01*
X0145853Y0080117D02*
X0144908Y0080117D01*
X0144908Y0080155D02*
X0145853Y0080155D01*
X0145853Y0080193D02*
X0144908Y0080193D01*
X0144908Y0080230D02*
X0145853Y0080230D01*
X0145853Y0080268D02*
X0144908Y0080268D01*
X0144908Y0080306D02*
X0145853Y0080306D01*
X0145853Y0080344D02*
X0144908Y0080344D01*
X0144908Y0080382D02*
X0145853Y0080382D01*
X0145853Y0080420D02*
X0144908Y0080420D01*
X0144908Y0080458D02*
X0145853Y0080458D01*
X0145853Y0080496D02*
X0144908Y0080496D01*
X0144908Y0080534D02*
X0145853Y0080534D01*
X0145853Y0080571D02*
X0144908Y0080571D01*
X0144908Y0080609D02*
X0145853Y0080609D01*
X0145853Y0080647D02*
X0144908Y0080647D01*
X0144908Y0080685D02*
X0145853Y0080685D01*
X0145853Y0080723D02*
X0144908Y0080723D01*
X0144908Y0080761D02*
X0145853Y0080761D01*
X0145853Y0080799D02*
X0144908Y0080799D01*
X0144908Y0080837D02*
X0145853Y0080837D01*
X0145853Y0080874D02*
X0144908Y0080874D01*
X0144908Y0080912D02*
X0145853Y0080912D01*
X0145853Y0080950D02*
X0144908Y0080950D01*
X0144908Y0080988D02*
X0145853Y0080988D01*
X0145853Y0081026D02*
X0144908Y0081026D01*
X0144908Y0081064D02*
X0145853Y0081064D01*
X0145853Y0081102D02*
X0144908Y0081102D01*
X0144908Y0081140D02*
X0145853Y0081140D01*
X0145853Y0081178D02*
X0144908Y0081178D01*
X0144908Y0081215D02*
X0145853Y0081215D01*
X0145853Y0081253D02*
X0144908Y0081253D01*
X0144908Y0081291D02*
X0145853Y0081291D01*
X0145853Y0081329D02*
X0144908Y0081329D01*
X0144908Y0081367D02*
X0145853Y0081367D01*
X0145853Y0081405D02*
X0144908Y0081405D01*
X0144908Y0081443D02*
X0145853Y0081443D01*
X0145853Y0081481D02*
X0144908Y0081481D01*
X0144908Y0081518D02*
X0145853Y0081518D01*
X0145853Y0081556D02*
X0144908Y0081556D01*
X0144908Y0081594D02*
X0145853Y0081594D01*
X0145853Y0081632D02*
X0144908Y0081632D01*
X0144908Y0081670D02*
X0145853Y0081670D01*
X0145853Y0081708D02*
X0144908Y0081708D01*
X0144908Y0081746D02*
X0145853Y0081746D01*
X0145853Y0081784D02*
X0144908Y0081784D01*
X0144908Y0081821D02*
X0145853Y0081821D01*
X0145853Y0081859D02*
X0144908Y0081859D01*
X0144908Y0081897D02*
X0145853Y0081897D01*
X0145853Y0081935D02*
X0144908Y0081935D01*
X0144908Y0081973D02*
X0145853Y0081973D01*
X0145853Y0082011D02*
X0144908Y0082011D01*
X0144908Y0082049D02*
X0145853Y0082049D01*
X0145853Y0082087D02*
X0144908Y0082087D01*
X0144908Y0082125D02*
X0145853Y0082125D01*
X0145853Y0082162D02*
X0144908Y0082162D01*
X0144908Y0082200D02*
X0145853Y0082200D01*
X0145853Y0082238D02*
X0144908Y0082238D01*
X0144908Y0082276D02*
X0145853Y0082276D01*
X0145853Y0082314D02*
X0144908Y0082314D01*
X0144908Y0082352D02*
X0145853Y0082352D01*
X0145853Y0082390D02*
X0144908Y0082390D01*
X0144908Y0082428D02*
X0145853Y0082428D01*
X0145853Y0082465D02*
X0144908Y0082465D01*
X0144908Y0082503D02*
X0145853Y0082503D01*
X0146877Y0082503D02*
X0147822Y0082503D01*
X0147822Y0082520D02*
X0147822Y0079449D01*
X0146877Y0079449D01*
X0146877Y0082520D01*
X0147822Y0082520D01*
X0147822Y0082465D02*
X0146877Y0082465D01*
X0146877Y0082428D02*
X0147822Y0082428D01*
X0147822Y0082390D02*
X0146877Y0082390D01*
X0146877Y0082352D02*
X0147822Y0082352D01*
X0147822Y0082314D02*
X0146877Y0082314D01*
X0146877Y0082276D02*
X0147822Y0082276D01*
X0147822Y0082238D02*
X0146877Y0082238D01*
X0146877Y0082200D02*
X0147822Y0082200D01*
X0147822Y0082162D02*
X0146877Y0082162D01*
X0146877Y0082125D02*
X0147822Y0082125D01*
X0147822Y0082087D02*
X0146877Y0082087D01*
X0146877Y0082049D02*
X0147822Y0082049D01*
X0147822Y0082011D02*
X0146877Y0082011D01*
X0146877Y0081973D02*
X0147822Y0081973D01*
X0147822Y0081935D02*
X0146877Y0081935D01*
X0146877Y0081897D02*
X0147822Y0081897D01*
X0147822Y0081859D02*
X0146877Y0081859D01*
X0146877Y0081821D02*
X0147822Y0081821D01*
X0147822Y0081784D02*
X0146877Y0081784D01*
X0146877Y0081746D02*
X0147822Y0081746D01*
X0147822Y0081708D02*
X0146877Y0081708D01*
X0146877Y0081670D02*
X0147822Y0081670D01*
X0147822Y0081632D02*
X0146877Y0081632D01*
X0146877Y0081594D02*
X0147822Y0081594D01*
X0147822Y0081556D02*
X0146877Y0081556D01*
X0146877Y0081518D02*
X0147822Y0081518D01*
X0147822Y0081481D02*
X0146877Y0081481D01*
X0146877Y0081443D02*
X0147822Y0081443D01*
X0147822Y0081405D02*
X0146877Y0081405D01*
X0146877Y0081367D02*
X0147822Y0081367D01*
X0147822Y0081329D02*
X0146877Y0081329D01*
X0146877Y0081291D02*
X0147822Y0081291D01*
X0147822Y0081253D02*
X0146877Y0081253D01*
X0146877Y0081215D02*
X0147822Y0081215D01*
X0147822Y0081178D02*
X0146877Y0081178D01*
X0146877Y0081140D02*
X0147822Y0081140D01*
X0147822Y0081102D02*
X0146877Y0081102D01*
X0146877Y0081064D02*
X0147822Y0081064D01*
X0147822Y0081026D02*
X0146877Y0081026D01*
X0146877Y0080988D02*
X0147822Y0080988D01*
X0147822Y0080950D02*
X0146877Y0080950D01*
X0146877Y0080912D02*
X0147822Y0080912D01*
X0147822Y0080874D02*
X0146877Y0080874D01*
X0146877Y0080837D02*
X0147822Y0080837D01*
X0147822Y0080799D02*
X0146877Y0080799D01*
X0146877Y0080761D02*
X0147822Y0080761D01*
X0147822Y0080723D02*
X0146877Y0080723D01*
X0146877Y0080685D02*
X0147822Y0080685D01*
X0147822Y0080647D02*
X0146877Y0080647D01*
X0146877Y0080609D02*
X0147822Y0080609D01*
X0147822Y0080571D02*
X0146877Y0080571D01*
X0146877Y0080534D02*
X0147822Y0080534D01*
X0147822Y0080496D02*
X0146877Y0080496D01*
X0146877Y0080458D02*
X0147822Y0080458D01*
X0147822Y0080420D02*
X0146877Y0080420D01*
X0146877Y0080382D02*
X0147822Y0080382D01*
X0147822Y0080344D02*
X0146877Y0080344D01*
X0146877Y0080306D02*
X0147822Y0080306D01*
X0147822Y0080268D02*
X0146877Y0080268D01*
X0146877Y0080230D02*
X0147822Y0080230D01*
X0147822Y0080193D02*
X0146877Y0080193D01*
X0146877Y0080155D02*
X0147822Y0080155D01*
X0147822Y0080117D02*
X0146877Y0080117D01*
X0146877Y0080079D02*
X0147822Y0080079D01*
X0147822Y0080041D02*
X0146877Y0080041D01*
X0146877Y0080003D02*
X0147822Y0080003D01*
X0147822Y0079965D02*
X0146877Y0079965D01*
X0146877Y0079927D02*
X0147822Y0079927D01*
X0147822Y0079890D02*
X0146877Y0079890D01*
X0146877Y0079852D02*
X0147822Y0079852D01*
X0147822Y0079814D02*
X0146877Y0079814D01*
X0146877Y0079776D02*
X0147822Y0079776D01*
X0147822Y0079738D02*
X0146877Y0079738D01*
X0146877Y0079700D02*
X0147822Y0079700D01*
X0147822Y0079662D02*
X0146877Y0079662D01*
X0146877Y0079624D02*
X0147822Y0079624D01*
X0147822Y0079586D02*
X0146877Y0079586D01*
X0146877Y0079549D02*
X0147822Y0079549D01*
X0147822Y0079511D02*
X0146877Y0079511D01*
X0146877Y0079473D02*
X0147822Y0079473D01*
X0148845Y0079473D02*
X0149790Y0079473D01*
X0149790Y0079449D02*
X0149790Y0082520D01*
X0148845Y0082520D01*
X0148845Y0079449D01*
X0149790Y0079449D01*
X0149790Y0079511D02*
X0148845Y0079511D01*
X0148845Y0079549D02*
X0149790Y0079549D01*
X0149790Y0079586D02*
X0148845Y0079586D01*
X0148845Y0079624D02*
X0149790Y0079624D01*
X0149790Y0079662D02*
X0148845Y0079662D01*
X0148845Y0079700D02*
X0149790Y0079700D01*
X0149790Y0079738D02*
X0148845Y0079738D01*
X0148845Y0079776D02*
X0149790Y0079776D01*
X0149790Y0079814D02*
X0148845Y0079814D01*
X0148845Y0079852D02*
X0149790Y0079852D01*
X0149790Y0079890D02*
X0148845Y0079890D01*
X0148845Y0079927D02*
X0149790Y0079927D01*
X0149790Y0079965D02*
X0148845Y0079965D01*
X0148845Y0080003D02*
X0149790Y0080003D01*
X0149790Y0080041D02*
X0148845Y0080041D01*
X0148845Y0080079D02*
X0149790Y0080079D01*
X0149790Y0080117D02*
X0148845Y0080117D01*
X0148845Y0080155D02*
X0149790Y0080155D01*
X0149790Y0080193D02*
X0148845Y0080193D01*
X0148845Y0080230D02*
X0149790Y0080230D01*
X0149790Y0080268D02*
X0148845Y0080268D01*
X0148845Y0080306D02*
X0149790Y0080306D01*
X0149790Y0080344D02*
X0148845Y0080344D01*
X0148845Y0080382D02*
X0149790Y0080382D01*
X0149790Y0080420D02*
X0148845Y0080420D01*
X0148845Y0080458D02*
X0149790Y0080458D01*
X0149790Y0080496D02*
X0148845Y0080496D01*
X0148845Y0080534D02*
X0149790Y0080534D01*
X0149790Y0080571D02*
X0148845Y0080571D01*
X0148845Y0080609D02*
X0149790Y0080609D01*
X0149790Y0080647D02*
X0148845Y0080647D01*
X0148845Y0080685D02*
X0149790Y0080685D01*
X0149790Y0080723D02*
X0148845Y0080723D01*
X0148845Y0080761D02*
X0149790Y0080761D01*
X0149790Y0080799D02*
X0148845Y0080799D01*
X0148845Y0080837D02*
X0149790Y0080837D01*
X0149790Y0080874D02*
X0148845Y0080874D01*
X0148845Y0080912D02*
X0149790Y0080912D01*
X0149790Y0080950D02*
X0148845Y0080950D01*
X0148845Y0080988D02*
X0149790Y0080988D01*
X0149790Y0081026D02*
X0148845Y0081026D01*
X0148845Y0081064D02*
X0149790Y0081064D01*
X0149790Y0081102D02*
X0148845Y0081102D01*
X0148845Y0081140D02*
X0149790Y0081140D01*
X0149790Y0081178D02*
X0148845Y0081178D01*
X0148845Y0081215D02*
X0149790Y0081215D01*
X0149790Y0081253D02*
X0148845Y0081253D01*
X0148845Y0081291D02*
X0149790Y0081291D01*
X0149790Y0081329D02*
X0148845Y0081329D01*
X0148845Y0081367D02*
X0149790Y0081367D01*
X0149790Y0081405D02*
X0148845Y0081405D01*
X0148845Y0081443D02*
X0149790Y0081443D01*
X0149790Y0081481D02*
X0148845Y0081481D01*
X0148845Y0081518D02*
X0149790Y0081518D01*
X0149790Y0081556D02*
X0148845Y0081556D01*
X0148845Y0081594D02*
X0149790Y0081594D01*
X0149790Y0081632D02*
X0148845Y0081632D01*
X0148845Y0081670D02*
X0149790Y0081670D01*
X0149790Y0081708D02*
X0148845Y0081708D01*
X0148845Y0081746D02*
X0149790Y0081746D01*
X0149790Y0081784D02*
X0148845Y0081784D01*
X0148845Y0081821D02*
X0149790Y0081821D01*
X0149790Y0081859D02*
X0148845Y0081859D01*
X0148845Y0081897D02*
X0149790Y0081897D01*
X0149790Y0081935D02*
X0148845Y0081935D01*
X0148845Y0081973D02*
X0149790Y0081973D01*
X0149790Y0082011D02*
X0148845Y0082011D01*
X0148845Y0082049D02*
X0149790Y0082049D01*
X0149790Y0082087D02*
X0148845Y0082087D01*
X0148845Y0082125D02*
X0149790Y0082125D01*
X0149790Y0082162D02*
X0148845Y0082162D01*
X0148845Y0082200D02*
X0149790Y0082200D01*
X0149790Y0082238D02*
X0148845Y0082238D01*
X0148845Y0082276D02*
X0149790Y0082276D01*
X0149790Y0082314D02*
X0148845Y0082314D01*
X0148845Y0082352D02*
X0149790Y0082352D01*
X0149790Y0082390D02*
X0148845Y0082390D01*
X0148845Y0082428D02*
X0149790Y0082428D01*
X0149790Y0082465D02*
X0148845Y0082465D01*
X0148845Y0082503D02*
X0149790Y0082503D01*
X0150814Y0082503D02*
X0151759Y0082503D01*
X0151759Y0082520D02*
X0151759Y0079449D01*
X0150814Y0079449D01*
X0150814Y0082520D01*
X0151759Y0082520D01*
X0151759Y0082465D02*
X0150814Y0082465D01*
X0150814Y0082428D02*
X0151759Y0082428D01*
X0151759Y0082390D02*
X0150814Y0082390D01*
X0150814Y0082352D02*
X0151759Y0082352D01*
X0151759Y0082314D02*
X0150814Y0082314D01*
X0150814Y0082276D02*
X0151759Y0082276D01*
X0151759Y0082238D02*
X0150814Y0082238D01*
X0150814Y0082200D02*
X0151759Y0082200D01*
X0151759Y0082162D02*
X0150814Y0082162D01*
X0150814Y0082125D02*
X0151759Y0082125D01*
X0151759Y0082087D02*
X0150814Y0082087D01*
X0150814Y0082049D02*
X0151759Y0082049D01*
X0151759Y0082011D02*
X0150814Y0082011D01*
X0150814Y0081973D02*
X0151759Y0081973D01*
X0151759Y0081935D02*
X0150814Y0081935D01*
X0150814Y0081897D02*
X0151759Y0081897D01*
X0151759Y0081859D02*
X0150814Y0081859D01*
X0150814Y0081821D02*
X0151759Y0081821D01*
X0151759Y0081784D02*
X0150814Y0081784D01*
X0150814Y0081746D02*
X0151759Y0081746D01*
X0151759Y0081708D02*
X0150814Y0081708D01*
X0150814Y0081670D02*
X0151759Y0081670D01*
X0151759Y0081632D02*
X0150814Y0081632D01*
X0150814Y0081594D02*
X0151759Y0081594D01*
X0151759Y0081556D02*
X0150814Y0081556D01*
X0150814Y0081518D02*
X0151759Y0081518D01*
X0151759Y0081481D02*
X0150814Y0081481D01*
X0150814Y0081443D02*
X0151759Y0081443D01*
X0151759Y0081405D02*
X0150814Y0081405D01*
X0150814Y0081367D02*
X0151759Y0081367D01*
X0151759Y0081329D02*
X0150814Y0081329D01*
X0150814Y0081291D02*
X0151759Y0081291D01*
X0151759Y0081253D02*
X0150814Y0081253D01*
X0150814Y0081215D02*
X0151759Y0081215D01*
X0151759Y0081178D02*
X0150814Y0081178D01*
X0150814Y0081140D02*
X0151759Y0081140D01*
X0151759Y0081102D02*
X0150814Y0081102D01*
X0150814Y0081064D02*
X0151759Y0081064D01*
X0151759Y0081026D02*
X0150814Y0081026D01*
X0150814Y0080988D02*
X0151759Y0080988D01*
X0151759Y0080950D02*
X0150814Y0080950D01*
X0150814Y0080912D02*
X0151759Y0080912D01*
X0151759Y0080874D02*
X0150814Y0080874D01*
X0150814Y0080837D02*
X0151759Y0080837D01*
X0151759Y0080799D02*
X0150814Y0080799D01*
X0150814Y0080761D02*
X0151759Y0080761D01*
X0151759Y0080723D02*
X0150814Y0080723D01*
X0150814Y0080685D02*
X0151759Y0080685D01*
X0151759Y0080647D02*
X0150814Y0080647D01*
X0150814Y0080609D02*
X0151759Y0080609D01*
X0151759Y0080571D02*
X0150814Y0080571D01*
X0150814Y0080534D02*
X0151759Y0080534D01*
X0151759Y0080496D02*
X0150814Y0080496D01*
X0150814Y0080458D02*
X0151759Y0080458D01*
X0151759Y0080420D02*
X0150814Y0080420D01*
X0150814Y0080382D02*
X0151759Y0080382D01*
X0151759Y0080344D02*
X0150814Y0080344D01*
X0150814Y0080306D02*
X0151759Y0080306D01*
X0151759Y0080268D02*
X0150814Y0080268D01*
X0150814Y0080230D02*
X0151759Y0080230D01*
X0151759Y0080193D02*
X0150814Y0080193D01*
X0150814Y0080155D02*
X0151759Y0080155D01*
X0151759Y0080117D02*
X0150814Y0080117D01*
X0150814Y0080079D02*
X0151759Y0080079D01*
X0151759Y0080041D02*
X0150814Y0080041D01*
X0150814Y0080003D02*
X0151759Y0080003D01*
X0151759Y0079965D02*
X0150814Y0079965D01*
X0150814Y0079927D02*
X0151759Y0079927D01*
X0151759Y0079890D02*
X0150814Y0079890D01*
X0150814Y0079852D02*
X0151759Y0079852D01*
X0151759Y0079814D02*
X0150814Y0079814D01*
X0150814Y0079776D02*
X0151759Y0079776D01*
X0151759Y0079738D02*
X0150814Y0079738D01*
X0150814Y0079700D02*
X0151759Y0079700D01*
X0151759Y0079662D02*
X0150814Y0079662D01*
X0150814Y0079624D02*
X0151759Y0079624D01*
X0151759Y0079586D02*
X0150814Y0079586D01*
X0150814Y0079549D02*
X0151759Y0079549D01*
X0151759Y0079511D02*
X0150814Y0079511D01*
X0150814Y0079473D02*
X0151759Y0079473D01*
X0152782Y0079473D02*
X0153727Y0079473D01*
X0153727Y0079449D02*
X0153727Y0082520D01*
X0152782Y0082520D01*
X0152782Y0079449D01*
X0153727Y0079449D01*
X0153727Y0079511D02*
X0152782Y0079511D01*
X0152782Y0079549D02*
X0153727Y0079549D01*
X0153727Y0079586D02*
X0152782Y0079586D01*
X0152782Y0079624D02*
X0153727Y0079624D01*
X0153727Y0079662D02*
X0152782Y0079662D01*
X0152782Y0079700D02*
X0153727Y0079700D01*
X0153727Y0079738D02*
X0152782Y0079738D01*
X0152782Y0079776D02*
X0153727Y0079776D01*
X0153727Y0079814D02*
X0152782Y0079814D01*
X0152782Y0079852D02*
X0153727Y0079852D01*
X0153727Y0079890D02*
X0152782Y0079890D01*
X0152782Y0079927D02*
X0153727Y0079927D01*
X0153727Y0079965D02*
X0152782Y0079965D01*
X0152782Y0080003D02*
X0153727Y0080003D01*
X0153727Y0080041D02*
X0152782Y0080041D01*
X0152782Y0080079D02*
X0153727Y0080079D01*
X0153727Y0080117D02*
X0152782Y0080117D01*
X0152782Y0080155D02*
X0153727Y0080155D01*
X0153727Y0080193D02*
X0152782Y0080193D01*
X0152782Y0080230D02*
X0153727Y0080230D01*
X0153727Y0080268D02*
X0152782Y0080268D01*
X0152782Y0080306D02*
X0153727Y0080306D01*
X0153727Y0080344D02*
X0152782Y0080344D01*
X0152782Y0080382D02*
X0153727Y0080382D01*
X0153727Y0080420D02*
X0152782Y0080420D01*
X0152782Y0080458D02*
X0153727Y0080458D01*
X0153727Y0080496D02*
X0152782Y0080496D01*
X0152782Y0080534D02*
X0153727Y0080534D01*
X0153727Y0080571D02*
X0152782Y0080571D01*
X0152782Y0080609D02*
X0153727Y0080609D01*
X0153727Y0080647D02*
X0152782Y0080647D01*
X0152782Y0080685D02*
X0153727Y0080685D01*
X0153727Y0080723D02*
X0152782Y0080723D01*
X0152782Y0080761D02*
X0153727Y0080761D01*
X0153727Y0080799D02*
X0152782Y0080799D01*
X0152782Y0080837D02*
X0153727Y0080837D01*
X0153727Y0080874D02*
X0152782Y0080874D01*
X0152782Y0080912D02*
X0153727Y0080912D01*
X0153727Y0080950D02*
X0152782Y0080950D01*
X0152782Y0080988D02*
X0153727Y0080988D01*
X0153727Y0081026D02*
X0152782Y0081026D01*
X0152782Y0081064D02*
X0153727Y0081064D01*
X0153727Y0081102D02*
X0152782Y0081102D01*
X0152782Y0081140D02*
X0153727Y0081140D01*
X0153727Y0081178D02*
X0152782Y0081178D01*
X0152782Y0081215D02*
X0153727Y0081215D01*
X0153727Y0081253D02*
X0152782Y0081253D01*
X0152782Y0081291D02*
X0153727Y0081291D01*
X0153727Y0081329D02*
X0152782Y0081329D01*
X0152782Y0081367D02*
X0153727Y0081367D01*
X0153727Y0081405D02*
X0152782Y0081405D01*
X0152782Y0081443D02*
X0153727Y0081443D01*
X0153727Y0081481D02*
X0152782Y0081481D01*
X0152782Y0081518D02*
X0153727Y0081518D01*
X0153727Y0081556D02*
X0152782Y0081556D01*
X0152782Y0081594D02*
X0153727Y0081594D01*
X0153727Y0081632D02*
X0152782Y0081632D01*
X0152782Y0081670D02*
X0153727Y0081670D01*
X0153727Y0081708D02*
X0152782Y0081708D01*
X0152782Y0081746D02*
X0153727Y0081746D01*
X0153727Y0081784D02*
X0152782Y0081784D01*
X0152782Y0081821D02*
X0153727Y0081821D01*
X0153727Y0081859D02*
X0152782Y0081859D01*
X0152782Y0081897D02*
X0153727Y0081897D01*
X0153727Y0081935D02*
X0152782Y0081935D01*
X0152782Y0081973D02*
X0153727Y0081973D01*
X0153727Y0082011D02*
X0152782Y0082011D01*
X0152782Y0082049D02*
X0153727Y0082049D01*
X0153727Y0082087D02*
X0152782Y0082087D01*
X0152782Y0082125D02*
X0153727Y0082125D01*
X0153727Y0082162D02*
X0152782Y0082162D01*
X0152782Y0082200D02*
X0153727Y0082200D01*
X0153727Y0082238D02*
X0152782Y0082238D01*
X0152782Y0082276D02*
X0153727Y0082276D01*
X0153727Y0082314D02*
X0152782Y0082314D01*
X0152782Y0082352D02*
X0153727Y0082352D01*
X0153727Y0082390D02*
X0152782Y0082390D01*
X0152782Y0082428D02*
X0153727Y0082428D01*
X0153727Y0082465D02*
X0152782Y0082465D01*
X0152782Y0082503D02*
X0153727Y0082503D01*
X0154869Y0083661D02*
X0154869Y0084606D01*
X0157940Y0084606D01*
X0157940Y0083661D01*
X0154869Y0083661D01*
X0154869Y0083678D02*
X0157940Y0083678D01*
X0157940Y0083716D02*
X0154869Y0083716D01*
X0154869Y0083753D02*
X0157940Y0083753D01*
X0157940Y0083791D02*
X0154869Y0083791D01*
X0154869Y0083829D02*
X0157940Y0083829D01*
X0157940Y0083867D02*
X0154869Y0083867D01*
X0154869Y0083905D02*
X0157940Y0083905D01*
X0157940Y0083943D02*
X0154869Y0083943D01*
X0154869Y0083981D02*
X0157940Y0083981D01*
X0157940Y0084019D02*
X0154869Y0084019D01*
X0154869Y0084056D02*
X0157940Y0084056D01*
X0157940Y0084094D02*
X0154869Y0084094D01*
X0154869Y0084132D02*
X0157940Y0084132D01*
X0157940Y0084170D02*
X0154869Y0084170D01*
X0154869Y0084208D02*
X0157940Y0084208D01*
X0157940Y0084246D02*
X0154869Y0084246D01*
X0154869Y0084284D02*
X0157940Y0084284D01*
X0157940Y0084322D02*
X0154869Y0084322D01*
X0154869Y0084360D02*
X0157940Y0084360D01*
X0157940Y0084397D02*
X0154869Y0084397D01*
X0154869Y0084435D02*
X0157940Y0084435D01*
X0157940Y0084473D02*
X0154869Y0084473D01*
X0154869Y0084511D02*
X0157940Y0084511D01*
X0157940Y0084549D02*
X0154869Y0084549D01*
X0154869Y0084587D02*
X0157940Y0084587D01*
X0157940Y0085630D02*
X0154869Y0085630D01*
X0154869Y0086575D01*
X0157940Y0086575D01*
X0157940Y0085630D01*
X0157940Y0085648D02*
X0154869Y0085648D01*
X0154869Y0085685D02*
X0157940Y0085685D01*
X0157940Y0085723D02*
X0154869Y0085723D01*
X0154869Y0085761D02*
X0157940Y0085761D01*
X0157940Y0085799D02*
X0154869Y0085799D01*
X0154869Y0085837D02*
X0157940Y0085837D01*
X0157940Y0085875D02*
X0154869Y0085875D01*
X0154869Y0085913D02*
X0157940Y0085913D01*
X0157940Y0085951D02*
X0154869Y0085951D01*
X0154869Y0085988D02*
X0157940Y0085988D01*
X0157940Y0086026D02*
X0154869Y0086026D01*
X0154869Y0086064D02*
X0157940Y0086064D01*
X0157940Y0086102D02*
X0154869Y0086102D01*
X0154869Y0086140D02*
X0157940Y0086140D01*
X0157940Y0086178D02*
X0154869Y0086178D01*
X0154869Y0086216D02*
X0157940Y0086216D01*
X0157940Y0086254D02*
X0154869Y0086254D01*
X0154869Y0086291D02*
X0157940Y0086291D01*
X0157940Y0086329D02*
X0154869Y0086329D01*
X0154869Y0086367D02*
X0157940Y0086367D01*
X0157940Y0086405D02*
X0154869Y0086405D01*
X0154869Y0086443D02*
X0157940Y0086443D01*
X0157940Y0086481D02*
X0154869Y0086481D01*
X0154869Y0086519D02*
X0157940Y0086519D01*
X0157940Y0086557D02*
X0154869Y0086557D01*
X0154869Y0087598D02*
X0154869Y0088543D01*
X0157940Y0088543D01*
X0157940Y0087598D01*
X0154869Y0087598D01*
X0154869Y0087617D02*
X0157940Y0087617D01*
X0157940Y0087655D02*
X0154869Y0087655D01*
X0154869Y0087693D02*
X0157940Y0087693D01*
X0157940Y0087731D02*
X0154869Y0087731D01*
X0154869Y0087769D02*
X0157940Y0087769D01*
X0157940Y0087807D02*
X0154869Y0087807D01*
X0154869Y0087845D02*
X0157940Y0087845D01*
X0157940Y0087883D02*
X0154869Y0087883D01*
X0154869Y0087920D02*
X0157940Y0087920D01*
X0157940Y0087958D02*
X0154869Y0087958D01*
X0154869Y0087996D02*
X0157940Y0087996D01*
X0157940Y0088034D02*
X0154869Y0088034D01*
X0154869Y0088072D02*
X0157940Y0088072D01*
X0157940Y0088110D02*
X0154869Y0088110D01*
X0154869Y0088148D02*
X0157940Y0088148D01*
X0157940Y0088186D02*
X0154869Y0088186D01*
X0154869Y0088223D02*
X0157940Y0088223D01*
X0157940Y0088261D02*
X0154869Y0088261D01*
X0154869Y0088299D02*
X0157940Y0088299D01*
X0157940Y0088337D02*
X0154869Y0088337D01*
X0154869Y0088375D02*
X0157940Y0088375D01*
X0157940Y0088413D02*
X0154869Y0088413D01*
X0154869Y0088451D02*
X0157940Y0088451D01*
X0157940Y0088489D02*
X0154869Y0088489D01*
X0154869Y0088527D02*
X0157940Y0088527D01*
X0157940Y0089567D02*
X0154869Y0089567D01*
X0154869Y0090512D01*
X0157940Y0090512D01*
X0157940Y0089567D01*
X0157940Y0089587D02*
X0154869Y0089587D01*
X0154869Y0089625D02*
X0157940Y0089625D01*
X0157940Y0089663D02*
X0154869Y0089663D01*
X0154869Y0089701D02*
X0157940Y0089701D01*
X0157940Y0089739D02*
X0154869Y0089739D01*
X0154869Y0089777D02*
X0157940Y0089777D01*
X0157940Y0089814D02*
X0154869Y0089814D01*
X0154869Y0089852D02*
X0157940Y0089852D01*
X0157940Y0089890D02*
X0154869Y0089890D01*
X0154869Y0089928D02*
X0157940Y0089928D01*
X0157940Y0089966D02*
X0154869Y0089966D01*
X0154869Y0090004D02*
X0157940Y0090004D01*
X0157940Y0090042D02*
X0154869Y0090042D01*
X0154869Y0090080D02*
X0157940Y0090080D01*
X0157940Y0090118D02*
X0154869Y0090118D01*
X0154869Y0090155D02*
X0157940Y0090155D01*
X0157940Y0090193D02*
X0154869Y0090193D01*
X0154869Y0090231D02*
X0157940Y0090231D01*
X0157940Y0090269D02*
X0154869Y0090269D01*
X0154869Y0090307D02*
X0157940Y0090307D01*
X0157940Y0090345D02*
X0154869Y0090345D01*
X0154869Y0090383D02*
X0157940Y0090383D01*
X0157940Y0090421D02*
X0154869Y0090421D01*
X0154869Y0090458D02*
X0157940Y0090458D01*
X0157940Y0090496D02*
X0154869Y0090496D01*
X0154869Y0091535D02*
X0154869Y0092480D01*
X0157940Y0092480D01*
X0157940Y0091535D01*
X0154869Y0091535D01*
X0154869Y0091557D02*
X0157940Y0091557D01*
X0157940Y0091595D02*
X0154869Y0091595D01*
X0154869Y0091633D02*
X0157940Y0091633D01*
X0157940Y0091671D02*
X0154869Y0091671D01*
X0154869Y0091709D02*
X0157940Y0091709D01*
X0157940Y0091746D02*
X0154869Y0091746D01*
X0154869Y0091784D02*
X0157940Y0091784D01*
X0157940Y0091822D02*
X0154869Y0091822D01*
X0154869Y0091860D02*
X0157940Y0091860D01*
X0157940Y0091898D02*
X0154869Y0091898D01*
X0154869Y0091936D02*
X0157940Y0091936D01*
X0157940Y0091974D02*
X0154869Y0091974D01*
X0154869Y0092012D02*
X0157940Y0092012D01*
X0157940Y0092049D02*
X0154869Y0092049D01*
X0154869Y0092087D02*
X0157940Y0092087D01*
X0157940Y0092125D02*
X0154869Y0092125D01*
X0154869Y0092163D02*
X0157940Y0092163D01*
X0157940Y0092201D02*
X0154869Y0092201D01*
X0154869Y0092239D02*
X0157940Y0092239D01*
X0157940Y0092277D02*
X0154869Y0092277D01*
X0154869Y0092315D02*
X0157940Y0092315D01*
X0157940Y0092353D02*
X0154869Y0092353D01*
X0154869Y0092390D02*
X0157940Y0092390D01*
X0157940Y0092428D02*
X0154869Y0092428D01*
X0154869Y0092466D02*
X0157940Y0092466D01*
X0157940Y0093504D02*
X0154869Y0093504D01*
X0154869Y0094449D01*
X0157940Y0094449D01*
X0157940Y0093504D01*
X0157940Y0093527D02*
X0154869Y0093527D01*
X0154869Y0093565D02*
X0157940Y0093565D01*
X0157940Y0093603D02*
X0154869Y0093603D01*
X0154869Y0093640D02*
X0157940Y0093640D01*
X0157940Y0093678D02*
X0154869Y0093678D01*
X0154869Y0093716D02*
X0157940Y0093716D01*
X0157940Y0093754D02*
X0154869Y0093754D01*
X0154869Y0093792D02*
X0157940Y0093792D01*
X0157940Y0093830D02*
X0154869Y0093830D01*
X0154869Y0093868D02*
X0157940Y0093868D01*
X0157940Y0093906D02*
X0154869Y0093906D01*
X0154869Y0093944D02*
X0157940Y0093944D01*
X0157940Y0093981D02*
X0154869Y0093981D01*
X0154869Y0094019D02*
X0157940Y0094019D01*
X0157940Y0094057D02*
X0154869Y0094057D01*
X0154869Y0094095D02*
X0157940Y0094095D01*
X0157940Y0094133D02*
X0154869Y0094133D01*
X0154869Y0094171D02*
X0157940Y0094171D01*
X0157940Y0094209D02*
X0154869Y0094209D01*
X0154869Y0094247D02*
X0157940Y0094247D01*
X0157940Y0094284D02*
X0154869Y0094284D01*
X0154869Y0094322D02*
X0157940Y0094322D01*
X0157940Y0094360D02*
X0154869Y0094360D01*
X0154869Y0094398D02*
X0157940Y0094398D01*
X0157940Y0094436D02*
X0154869Y0094436D01*
X0153727Y0095591D02*
X0152782Y0095591D01*
X0152782Y0098661D01*
X0153727Y0098661D01*
X0153727Y0095591D01*
X0153727Y0095610D02*
X0152782Y0095610D01*
X0152782Y0095648D02*
X0153727Y0095648D01*
X0153727Y0095686D02*
X0152782Y0095686D01*
X0152782Y0095724D02*
X0153727Y0095724D01*
X0153727Y0095762D02*
X0152782Y0095762D01*
X0152782Y0095800D02*
X0153727Y0095800D01*
X0153727Y0095838D02*
X0152782Y0095838D01*
X0152782Y0095875D02*
X0153727Y0095875D01*
X0153727Y0095913D02*
X0152782Y0095913D01*
X0152782Y0095951D02*
X0153727Y0095951D01*
X0153727Y0095989D02*
X0152782Y0095989D01*
X0152782Y0096027D02*
X0153727Y0096027D01*
X0153727Y0096065D02*
X0152782Y0096065D01*
X0152782Y0096103D02*
X0153727Y0096103D01*
X0153727Y0096141D02*
X0152782Y0096141D01*
X0152782Y0096179D02*
X0153727Y0096179D01*
X0153727Y0096216D02*
X0152782Y0096216D01*
X0152782Y0096254D02*
X0153727Y0096254D01*
X0153727Y0096292D02*
X0152782Y0096292D01*
X0152782Y0096330D02*
X0153727Y0096330D01*
X0153727Y0096368D02*
X0152782Y0096368D01*
X0152782Y0096406D02*
X0153727Y0096406D01*
X0153727Y0096444D02*
X0152782Y0096444D01*
X0152782Y0096482D02*
X0153727Y0096482D01*
X0153727Y0096519D02*
X0152782Y0096519D01*
X0152782Y0096557D02*
X0153727Y0096557D01*
X0153727Y0096595D02*
X0152782Y0096595D01*
X0152782Y0096633D02*
X0153727Y0096633D01*
X0153727Y0096671D02*
X0152782Y0096671D01*
X0152782Y0096709D02*
X0153727Y0096709D01*
X0153727Y0096747D02*
X0152782Y0096747D01*
X0152782Y0096785D02*
X0153727Y0096785D01*
X0153727Y0096823D02*
X0152782Y0096823D01*
X0152782Y0096860D02*
X0153727Y0096860D01*
X0153727Y0096898D02*
X0152782Y0096898D01*
X0152782Y0096936D02*
X0153727Y0096936D01*
X0153727Y0096974D02*
X0152782Y0096974D01*
X0152782Y0097012D02*
X0153727Y0097012D01*
X0153727Y0097050D02*
X0152782Y0097050D01*
X0152782Y0097088D02*
X0153727Y0097088D01*
X0153727Y0097126D02*
X0152782Y0097126D01*
X0152782Y0097163D02*
X0153727Y0097163D01*
X0153727Y0097201D02*
X0152782Y0097201D01*
X0152782Y0097239D02*
X0153727Y0097239D01*
X0153727Y0097277D02*
X0152782Y0097277D01*
X0152782Y0097315D02*
X0153727Y0097315D01*
X0153727Y0097353D02*
X0152782Y0097353D01*
X0152782Y0097391D02*
X0153727Y0097391D01*
X0153727Y0097429D02*
X0152782Y0097429D01*
X0152782Y0097467D02*
X0153727Y0097467D01*
X0153727Y0097504D02*
X0152782Y0097504D01*
X0152782Y0097542D02*
X0153727Y0097542D01*
X0153727Y0097580D02*
X0152782Y0097580D01*
X0152782Y0097618D02*
X0153727Y0097618D01*
X0153727Y0097656D02*
X0152782Y0097656D01*
X0152782Y0097694D02*
X0153727Y0097694D01*
X0153727Y0097732D02*
X0152782Y0097732D01*
X0152782Y0097770D02*
X0153727Y0097770D01*
X0153727Y0097807D02*
X0152782Y0097807D01*
X0152782Y0097845D02*
X0153727Y0097845D01*
X0153727Y0097883D02*
X0152782Y0097883D01*
X0152782Y0097921D02*
X0153727Y0097921D01*
X0153727Y0097959D02*
X0152782Y0097959D01*
X0152782Y0097997D02*
X0153727Y0097997D01*
X0153727Y0098035D02*
X0152782Y0098035D01*
X0152782Y0098073D02*
X0153727Y0098073D01*
X0153727Y0098110D02*
X0152782Y0098110D01*
X0152782Y0098148D02*
X0153727Y0098148D01*
X0153727Y0098186D02*
X0152782Y0098186D01*
X0152782Y0098224D02*
X0153727Y0098224D01*
X0153727Y0098262D02*
X0152782Y0098262D01*
X0152782Y0098300D02*
X0153727Y0098300D01*
X0153727Y0098338D02*
X0152782Y0098338D01*
X0152782Y0098376D02*
X0153727Y0098376D01*
X0153727Y0098414D02*
X0152782Y0098414D01*
X0152782Y0098451D02*
X0153727Y0098451D01*
X0153727Y0098489D02*
X0152782Y0098489D01*
X0152782Y0098527D02*
X0153727Y0098527D01*
X0153727Y0098565D02*
X0152782Y0098565D01*
X0152782Y0098603D02*
X0153727Y0098603D01*
X0153727Y0098641D02*
X0152782Y0098641D01*
X0151759Y0098641D02*
X0150814Y0098641D01*
X0150814Y0098661D02*
X0150814Y0095591D01*
X0151759Y0095591D01*
X0151759Y0098661D01*
X0150814Y0098661D01*
X0150814Y0098603D02*
X0151759Y0098603D01*
X0151759Y0098565D02*
X0150814Y0098565D01*
X0150814Y0098527D02*
X0151759Y0098527D01*
X0151759Y0098489D02*
X0150814Y0098489D01*
X0150814Y0098451D02*
X0151759Y0098451D01*
X0151759Y0098414D02*
X0150814Y0098414D01*
X0150814Y0098376D02*
X0151759Y0098376D01*
X0151759Y0098338D02*
X0150814Y0098338D01*
X0150814Y0098300D02*
X0151759Y0098300D01*
X0151759Y0098262D02*
X0150814Y0098262D01*
X0150814Y0098224D02*
X0151759Y0098224D01*
X0151759Y0098186D02*
X0150814Y0098186D01*
X0150814Y0098148D02*
X0151759Y0098148D01*
X0151759Y0098110D02*
X0150814Y0098110D01*
X0150814Y0098073D02*
X0151759Y0098073D01*
X0151759Y0098035D02*
X0150814Y0098035D01*
X0150814Y0097997D02*
X0151759Y0097997D01*
X0151759Y0097959D02*
X0150814Y0097959D01*
X0150814Y0097921D02*
X0151759Y0097921D01*
X0151759Y0097883D02*
X0150814Y0097883D01*
X0150814Y0097845D02*
X0151759Y0097845D01*
X0151759Y0097807D02*
X0150814Y0097807D01*
X0150814Y0097770D02*
X0151759Y0097770D01*
X0151759Y0097732D02*
X0150814Y0097732D01*
X0150814Y0097694D02*
X0151759Y0097694D01*
X0151759Y0097656D02*
X0150814Y0097656D01*
X0150814Y0097618D02*
X0151759Y0097618D01*
X0151759Y0097580D02*
X0150814Y0097580D01*
X0150814Y0097542D02*
X0151759Y0097542D01*
X0151759Y0097504D02*
X0150814Y0097504D01*
X0150814Y0097467D02*
X0151759Y0097467D01*
X0151759Y0097429D02*
X0150814Y0097429D01*
X0150814Y0097391D02*
X0151759Y0097391D01*
X0151759Y0097353D02*
X0150814Y0097353D01*
X0150814Y0097315D02*
X0151759Y0097315D01*
X0151759Y0097277D02*
X0150814Y0097277D01*
X0150814Y0097239D02*
X0151759Y0097239D01*
X0151759Y0097201D02*
X0150814Y0097201D01*
X0150814Y0097163D02*
X0151759Y0097163D01*
X0151759Y0097126D02*
X0150814Y0097126D01*
X0150814Y0097088D02*
X0151759Y0097088D01*
X0151759Y0097050D02*
X0150814Y0097050D01*
X0150814Y0097012D02*
X0151759Y0097012D01*
X0151759Y0096974D02*
X0150814Y0096974D01*
X0150814Y0096936D02*
X0151759Y0096936D01*
X0151759Y0096898D02*
X0150814Y0096898D01*
X0150814Y0096860D02*
X0151759Y0096860D01*
X0151759Y0096823D02*
X0150814Y0096823D01*
X0150814Y0096785D02*
X0151759Y0096785D01*
X0151759Y0096747D02*
X0150814Y0096747D01*
X0150814Y0096709D02*
X0151759Y0096709D01*
X0151759Y0096671D02*
X0150814Y0096671D01*
X0150814Y0096633D02*
X0151759Y0096633D01*
X0151759Y0096595D02*
X0150814Y0096595D01*
X0150814Y0096557D02*
X0151759Y0096557D01*
X0151759Y0096519D02*
X0150814Y0096519D01*
X0150814Y0096482D02*
X0151759Y0096482D01*
X0151759Y0096444D02*
X0150814Y0096444D01*
X0150814Y0096406D02*
X0151759Y0096406D01*
X0151759Y0096368D02*
X0150814Y0096368D01*
X0150814Y0096330D02*
X0151759Y0096330D01*
X0151759Y0096292D02*
X0150814Y0096292D01*
X0150814Y0096254D02*
X0151759Y0096254D01*
X0151759Y0096216D02*
X0150814Y0096216D01*
X0150814Y0096179D02*
X0151759Y0096179D01*
X0151759Y0096141D02*
X0150814Y0096141D01*
X0150814Y0096103D02*
X0151759Y0096103D01*
X0151759Y0096065D02*
X0150814Y0096065D01*
X0150814Y0096027D02*
X0151759Y0096027D01*
X0151759Y0095989D02*
X0150814Y0095989D01*
X0150814Y0095951D02*
X0151759Y0095951D01*
X0151759Y0095913D02*
X0150814Y0095913D01*
X0150814Y0095875D02*
X0151759Y0095875D01*
X0151759Y0095838D02*
X0150814Y0095838D01*
X0150814Y0095800D02*
X0151759Y0095800D01*
X0151759Y0095762D02*
X0150814Y0095762D01*
X0150814Y0095724D02*
X0151759Y0095724D01*
X0151759Y0095686D02*
X0150814Y0095686D01*
X0150814Y0095648D02*
X0151759Y0095648D01*
X0151759Y0095610D02*
X0150814Y0095610D01*
X0149790Y0095610D02*
X0148845Y0095610D01*
X0148845Y0095591D02*
X0148845Y0098661D01*
X0149790Y0098661D01*
X0149790Y0095591D01*
X0148845Y0095591D01*
X0148845Y0095648D02*
X0149790Y0095648D01*
X0149790Y0095686D02*
X0148845Y0095686D01*
X0148845Y0095724D02*
X0149790Y0095724D01*
X0149790Y0095762D02*
X0148845Y0095762D01*
X0148845Y0095800D02*
X0149790Y0095800D01*
X0149790Y0095838D02*
X0148845Y0095838D01*
X0148845Y0095875D02*
X0149790Y0095875D01*
X0149790Y0095913D02*
X0148845Y0095913D01*
X0148845Y0095951D02*
X0149790Y0095951D01*
X0149790Y0095989D02*
X0148845Y0095989D01*
X0148845Y0096027D02*
X0149790Y0096027D01*
X0149790Y0096065D02*
X0148845Y0096065D01*
X0148845Y0096103D02*
X0149790Y0096103D01*
X0149790Y0096141D02*
X0148845Y0096141D01*
X0148845Y0096179D02*
X0149790Y0096179D01*
X0149790Y0096216D02*
X0148845Y0096216D01*
X0148845Y0096254D02*
X0149790Y0096254D01*
X0149790Y0096292D02*
X0148845Y0096292D01*
X0148845Y0096330D02*
X0149790Y0096330D01*
X0149790Y0096368D02*
X0148845Y0096368D01*
X0148845Y0096406D02*
X0149790Y0096406D01*
X0149790Y0096444D02*
X0148845Y0096444D01*
X0148845Y0096482D02*
X0149790Y0096482D01*
X0149790Y0096519D02*
X0148845Y0096519D01*
X0148845Y0096557D02*
X0149790Y0096557D01*
X0149790Y0096595D02*
X0148845Y0096595D01*
X0148845Y0096633D02*
X0149790Y0096633D01*
X0149790Y0096671D02*
X0148845Y0096671D01*
X0148845Y0096709D02*
X0149790Y0096709D01*
X0149790Y0096747D02*
X0148845Y0096747D01*
X0148845Y0096785D02*
X0149790Y0096785D01*
X0149790Y0096823D02*
X0148845Y0096823D01*
X0148845Y0096860D02*
X0149790Y0096860D01*
X0149790Y0096898D02*
X0148845Y0096898D01*
X0148845Y0096936D02*
X0149790Y0096936D01*
X0149790Y0096974D02*
X0148845Y0096974D01*
X0148845Y0097012D02*
X0149790Y0097012D01*
X0149790Y0097050D02*
X0148845Y0097050D01*
X0148845Y0097088D02*
X0149790Y0097088D01*
X0149790Y0097126D02*
X0148845Y0097126D01*
X0148845Y0097163D02*
X0149790Y0097163D01*
X0149790Y0097201D02*
X0148845Y0097201D01*
X0148845Y0097239D02*
X0149790Y0097239D01*
X0149790Y0097277D02*
X0148845Y0097277D01*
X0148845Y0097315D02*
X0149790Y0097315D01*
X0149790Y0097353D02*
X0148845Y0097353D01*
X0148845Y0097391D02*
X0149790Y0097391D01*
X0149790Y0097429D02*
X0148845Y0097429D01*
X0148845Y0097467D02*
X0149790Y0097467D01*
X0149790Y0097504D02*
X0148845Y0097504D01*
X0148845Y0097542D02*
X0149790Y0097542D01*
X0149790Y0097580D02*
X0148845Y0097580D01*
X0148845Y0097618D02*
X0149790Y0097618D01*
X0149790Y0097656D02*
X0148845Y0097656D01*
X0148845Y0097694D02*
X0149790Y0097694D01*
X0149790Y0097732D02*
X0148845Y0097732D01*
X0148845Y0097770D02*
X0149790Y0097770D01*
X0149790Y0097807D02*
X0148845Y0097807D01*
X0148845Y0097845D02*
X0149790Y0097845D01*
X0149790Y0097883D02*
X0148845Y0097883D01*
X0148845Y0097921D02*
X0149790Y0097921D01*
X0149790Y0097959D02*
X0148845Y0097959D01*
X0148845Y0097997D02*
X0149790Y0097997D01*
X0149790Y0098035D02*
X0148845Y0098035D01*
X0148845Y0098073D02*
X0149790Y0098073D01*
X0149790Y0098110D02*
X0148845Y0098110D01*
X0148845Y0098148D02*
X0149790Y0098148D01*
X0149790Y0098186D02*
X0148845Y0098186D01*
X0148845Y0098224D02*
X0149790Y0098224D01*
X0149790Y0098262D02*
X0148845Y0098262D01*
X0148845Y0098300D02*
X0149790Y0098300D01*
X0149790Y0098338D02*
X0148845Y0098338D01*
X0148845Y0098376D02*
X0149790Y0098376D01*
X0149790Y0098414D02*
X0148845Y0098414D01*
X0148845Y0098451D02*
X0149790Y0098451D01*
X0149790Y0098489D02*
X0148845Y0098489D01*
X0148845Y0098527D02*
X0149790Y0098527D01*
X0149790Y0098565D02*
X0148845Y0098565D01*
X0148845Y0098603D02*
X0149790Y0098603D01*
X0149790Y0098641D02*
X0148845Y0098641D01*
X0147822Y0098641D02*
X0146877Y0098641D01*
X0146877Y0098661D02*
X0146877Y0095591D01*
X0147822Y0095591D01*
X0147822Y0098661D01*
X0146877Y0098661D01*
X0146877Y0098603D02*
X0147822Y0098603D01*
X0147822Y0098565D02*
X0146877Y0098565D01*
X0146877Y0098527D02*
X0147822Y0098527D01*
X0147822Y0098489D02*
X0146877Y0098489D01*
X0146877Y0098451D02*
X0147822Y0098451D01*
X0147822Y0098414D02*
X0146877Y0098414D01*
X0146877Y0098376D02*
X0147822Y0098376D01*
X0147822Y0098338D02*
X0146877Y0098338D01*
X0146877Y0098300D02*
X0147822Y0098300D01*
X0147822Y0098262D02*
X0146877Y0098262D01*
X0146877Y0098224D02*
X0147822Y0098224D01*
X0147822Y0098186D02*
X0146877Y0098186D01*
X0146877Y0098148D02*
X0147822Y0098148D01*
X0147822Y0098110D02*
X0146877Y0098110D01*
X0146877Y0098073D02*
X0147822Y0098073D01*
X0147822Y0098035D02*
X0146877Y0098035D01*
X0146877Y0097997D02*
X0147822Y0097997D01*
X0147822Y0097959D02*
X0146877Y0097959D01*
X0146877Y0097921D02*
X0147822Y0097921D01*
X0147822Y0097883D02*
X0146877Y0097883D01*
X0146877Y0097845D02*
X0147822Y0097845D01*
X0147822Y0097807D02*
X0146877Y0097807D01*
X0146877Y0097770D02*
X0147822Y0097770D01*
X0147822Y0097732D02*
X0146877Y0097732D01*
X0146877Y0097694D02*
X0147822Y0097694D01*
X0147822Y0097656D02*
X0146877Y0097656D01*
X0146877Y0097618D02*
X0147822Y0097618D01*
X0147822Y0097580D02*
X0146877Y0097580D01*
X0146877Y0097542D02*
X0147822Y0097542D01*
X0147822Y0097504D02*
X0146877Y0097504D01*
X0146877Y0097467D02*
X0147822Y0097467D01*
X0147822Y0097429D02*
X0146877Y0097429D01*
X0146877Y0097391D02*
X0147822Y0097391D01*
X0147822Y0097353D02*
X0146877Y0097353D01*
X0146877Y0097315D02*
X0147822Y0097315D01*
X0147822Y0097277D02*
X0146877Y0097277D01*
X0146877Y0097239D02*
X0147822Y0097239D01*
X0147822Y0097201D02*
X0146877Y0097201D01*
X0146877Y0097163D02*
X0147822Y0097163D01*
X0147822Y0097126D02*
X0146877Y0097126D01*
X0146877Y0097088D02*
X0147822Y0097088D01*
X0147822Y0097050D02*
X0146877Y0097050D01*
X0146877Y0097012D02*
X0147822Y0097012D01*
X0147822Y0096974D02*
X0146877Y0096974D01*
X0146877Y0096936D02*
X0147822Y0096936D01*
X0147822Y0096898D02*
X0146877Y0096898D01*
X0146877Y0096860D02*
X0147822Y0096860D01*
X0147822Y0096823D02*
X0146877Y0096823D01*
X0146877Y0096785D02*
X0147822Y0096785D01*
X0147822Y0096747D02*
X0146877Y0096747D01*
X0146877Y0096709D02*
X0147822Y0096709D01*
X0147822Y0096671D02*
X0146877Y0096671D01*
X0146877Y0096633D02*
X0147822Y0096633D01*
X0147822Y0096595D02*
X0146877Y0096595D01*
X0146877Y0096557D02*
X0147822Y0096557D01*
X0147822Y0096519D02*
X0146877Y0096519D01*
X0146877Y0096482D02*
X0147822Y0096482D01*
X0147822Y0096444D02*
X0146877Y0096444D01*
X0146877Y0096406D02*
X0147822Y0096406D01*
X0147822Y0096368D02*
X0146877Y0096368D01*
X0146877Y0096330D02*
X0147822Y0096330D01*
X0147822Y0096292D02*
X0146877Y0096292D01*
X0146877Y0096254D02*
X0147822Y0096254D01*
X0147822Y0096216D02*
X0146877Y0096216D01*
X0146877Y0096179D02*
X0147822Y0096179D01*
X0147822Y0096141D02*
X0146877Y0096141D01*
X0146877Y0096103D02*
X0147822Y0096103D01*
X0147822Y0096065D02*
X0146877Y0096065D01*
X0146877Y0096027D02*
X0147822Y0096027D01*
X0147822Y0095989D02*
X0146877Y0095989D01*
X0146877Y0095951D02*
X0147822Y0095951D01*
X0147822Y0095913D02*
X0146877Y0095913D01*
X0146877Y0095875D02*
X0147822Y0095875D01*
X0147822Y0095838D02*
X0146877Y0095838D01*
X0146877Y0095800D02*
X0147822Y0095800D01*
X0147822Y0095762D02*
X0146877Y0095762D01*
X0146877Y0095724D02*
X0147822Y0095724D01*
X0147822Y0095686D02*
X0146877Y0095686D01*
X0146877Y0095648D02*
X0147822Y0095648D01*
X0147822Y0095610D02*
X0146877Y0095610D01*
X0145853Y0095610D02*
X0144908Y0095610D01*
X0144908Y0095591D02*
X0144908Y0098661D01*
X0145853Y0098661D01*
X0145853Y0095591D01*
X0144908Y0095591D01*
X0144908Y0095648D02*
X0145853Y0095648D01*
X0145853Y0095686D02*
X0144908Y0095686D01*
X0144908Y0095724D02*
X0145853Y0095724D01*
X0145853Y0095762D02*
X0144908Y0095762D01*
X0144908Y0095800D02*
X0145853Y0095800D01*
X0145853Y0095838D02*
X0144908Y0095838D01*
X0144908Y0095875D02*
X0145853Y0095875D01*
X0145853Y0095913D02*
X0144908Y0095913D01*
X0144908Y0095951D02*
X0145853Y0095951D01*
X0145853Y0095989D02*
X0144908Y0095989D01*
X0144908Y0096027D02*
X0145853Y0096027D01*
X0145853Y0096065D02*
X0144908Y0096065D01*
X0144908Y0096103D02*
X0145853Y0096103D01*
X0145853Y0096141D02*
X0144908Y0096141D01*
X0144908Y0096179D02*
X0145853Y0096179D01*
X0145853Y0096216D02*
X0144908Y0096216D01*
X0144908Y0096254D02*
X0145853Y0096254D01*
X0145853Y0096292D02*
X0144908Y0096292D01*
X0144908Y0096330D02*
X0145853Y0096330D01*
X0145853Y0096368D02*
X0144908Y0096368D01*
X0144908Y0096406D02*
X0145853Y0096406D01*
X0145853Y0096444D02*
X0144908Y0096444D01*
X0144908Y0096482D02*
X0145853Y0096482D01*
X0145853Y0096519D02*
X0144908Y0096519D01*
X0144908Y0096557D02*
X0145853Y0096557D01*
X0145853Y0096595D02*
X0144908Y0096595D01*
X0144908Y0096633D02*
X0145853Y0096633D01*
X0145853Y0096671D02*
X0144908Y0096671D01*
X0144908Y0096709D02*
X0145853Y0096709D01*
X0145853Y0096747D02*
X0144908Y0096747D01*
X0144908Y0096785D02*
X0145853Y0096785D01*
X0145853Y0096823D02*
X0144908Y0096823D01*
X0144908Y0096860D02*
X0145853Y0096860D01*
X0145853Y0096898D02*
X0144908Y0096898D01*
X0144908Y0096936D02*
X0145853Y0096936D01*
X0145853Y0096974D02*
X0144908Y0096974D01*
X0144908Y0097012D02*
X0145853Y0097012D01*
X0145853Y0097050D02*
X0144908Y0097050D01*
X0144908Y0097088D02*
X0145853Y0097088D01*
X0145853Y0097126D02*
X0144908Y0097126D01*
X0144908Y0097163D02*
X0145853Y0097163D01*
X0145853Y0097201D02*
X0144908Y0097201D01*
X0144908Y0097239D02*
X0145853Y0097239D01*
X0145853Y0097277D02*
X0144908Y0097277D01*
X0144908Y0097315D02*
X0145853Y0097315D01*
X0145853Y0097353D02*
X0144908Y0097353D01*
X0144908Y0097391D02*
X0145853Y0097391D01*
X0145853Y0097429D02*
X0144908Y0097429D01*
X0144908Y0097467D02*
X0145853Y0097467D01*
X0145853Y0097504D02*
X0144908Y0097504D01*
X0144908Y0097542D02*
X0145853Y0097542D01*
X0145853Y0097580D02*
X0144908Y0097580D01*
X0144908Y0097618D02*
X0145853Y0097618D01*
X0145853Y0097656D02*
X0144908Y0097656D01*
X0144908Y0097694D02*
X0145853Y0097694D01*
X0145853Y0097732D02*
X0144908Y0097732D01*
X0144908Y0097770D02*
X0145853Y0097770D01*
X0145853Y0097807D02*
X0144908Y0097807D01*
X0144908Y0097845D02*
X0145853Y0097845D01*
X0145853Y0097883D02*
X0144908Y0097883D01*
X0144908Y0097921D02*
X0145853Y0097921D01*
X0145853Y0097959D02*
X0144908Y0097959D01*
X0144908Y0097997D02*
X0145853Y0097997D01*
X0145853Y0098035D02*
X0144908Y0098035D01*
X0144908Y0098073D02*
X0145853Y0098073D01*
X0145853Y0098110D02*
X0144908Y0098110D01*
X0144908Y0098148D02*
X0145853Y0098148D01*
X0145853Y0098186D02*
X0144908Y0098186D01*
X0144908Y0098224D02*
X0145853Y0098224D01*
X0145853Y0098262D02*
X0144908Y0098262D01*
X0144908Y0098300D02*
X0145853Y0098300D01*
X0145853Y0098338D02*
X0144908Y0098338D01*
X0144908Y0098376D02*
X0145853Y0098376D01*
X0145853Y0098414D02*
X0144908Y0098414D01*
X0144908Y0098451D02*
X0145853Y0098451D01*
X0145853Y0098489D02*
X0144908Y0098489D01*
X0144908Y0098527D02*
X0145853Y0098527D01*
X0145853Y0098565D02*
X0144908Y0098565D01*
X0144908Y0098603D02*
X0145853Y0098603D01*
X0145853Y0098641D02*
X0144908Y0098641D01*
X0143885Y0098641D02*
X0142940Y0098641D01*
X0142940Y0098661D02*
X0142940Y0095591D01*
X0143885Y0095591D01*
X0143885Y0098661D01*
X0142940Y0098661D01*
X0142940Y0098603D02*
X0143885Y0098603D01*
X0143885Y0098565D02*
X0142940Y0098565D01*
X0142940Y0098527D02*
X0143885Y0098527D01*
X0143885Y0098489D02*
X0142940Y0098489D01*
X0142940Y0098451D02*
X0143885Y0098451D01*
X0143885Y0098414D02*
X0142940Y0098414D01*
X0142940Y0098376D02*
X0143885Y0098376D01*
X0143885Y0098338D02*
X0142940Y0098338D01*
X0142940Y0098300D02*
X0143885Y0098300D01*
X0143885Y0098262D02*
X0142940Y0098262D01*
X0142940Y0098224D02*
X0143885Y0098224D01*
X0143885Y0098186D02*
X0142940Y0098186D01*
X0142940Y0098148D02*
X0143885Y0098148D01*
X0143885Y0098110D02*
X0142940Y0098110D01*
X0142940Y0098073D02*
X0143885Y0098073D01*
X0143885Y0098035D02*
X0142940Y0098035D01*
X0142940Y0097997D02*
X0143885Y0097997D01*
X0143885Y0097959D02*
X0142940Y0097959D01*
X0142940Y0097921D02*
X0143885Y0097921D01*
X0143885Y0097883D02*
X0142940Y0097883D01*
X0142940Y0097845D02*
X0143885Y0097845D01*
X0143885Y0097807D02*
X0142940Y0097807D01*
X0142940Y0097770D02*
X0143885Y0097770D01*
X0143885Y0097732D02*
X0142940Y0097732D01*
X0142940Y0097694D02*
X0143885Y0097694D01*
X0143885Y0097656D02*
X0142940Y0097656D01*
X0142940Y0097618D02*
X0143885Y0097618D01*
X0143885Y0097580D02*
X0142940Y0097580D01*
X0142940Y0097542D02*
X0143885Y0097542D01*
X0143885Y0097504D02*
X0142940Y0097504D01*
X0142940Y0097467D02*
X0143885Y0097467D01*
X0143885Y0097429D02*
X0142940Y0097429D01*
X0142940Y0097391D02*
X0143885Y0097391D01*
X0143885Y0097353D02*
X0142940Y0097353D01*
X0142940Y0097315D02*
X0143885Y0097315D01*
X0143885Y0097277D02*
X0142940Y0097277D01*
X0142940Y0097239D02*
X0143885Y0097239D01*
X0143885Y0097201D02*
X0142940Y0097201D01*
X0142940Y0097163D02*
X0143885Y0097163D01*
X0143885Y0097126D02*
X0142940Y0097126D01*
X0142940Y0097088D02*
X0143885Y0097088D01*
X0143885Y0097050D02*
X0142940Y0097050D01*
X0142940Y0097012D02*
X0143885Y0097012D01*
X0143885Y0096974D02*
X0142940Y0096974D01*
X0142940Y0096936D02*
X0143885Y0096936D01*
X0143885Y0096898D02*
X0142940Y0096898D01*
X0142940Y0096860D02*
X0143885Y0096860D01*
X0143885Y0096823D02*
X0142940Y0096823D01*
X0142940Y0096785D02*
X0143885Y0096785D01*
X0143885Y0096747D02*
X0142940Y0096747D01*
X0142940Y0096709D02*
X0143885Y0096709D01*
X0143885Y0096671D02*
X0142940Y0096671D01*
X0142940Y0096633D02*
X0143885Y0096633D01*
X0143885Y0096595D02*
X0142940Y0096595D01*
X0142940Y0096557D02*
X0143885Y0096557D01*
X0143885Y0096519D02*
X0142940Y0096519D01*
X0142940Y0096482D02*
X0143885Y0096482D01*
X0143885Y0096444D02*
X0142940Y0096444D01*
X0142940Y0096406D02*
X0143885Y0096406D01*
X0143885Y0096368D02*
X0142940Y0096368D01*
X0142940Y0096330D02*
X0143885Y0096330D01*
X0143885Y0096292D02*
X0142940Y0096292D01*
X0142940Y0096254D02*
X0143885Y0096254D01*
X0143885Y0096216D02*
X0142940Y0096216D01*
X0142940Y0096179D02*
X0143885Y0096179D01*
X0143885Y0096141D02*
X0142940Y0096141D01*
X0142940Y0096103D02*
X0143885Y0096103D01*
X0143885Y0096065D02*
X0142940Y0096065D01*
X0142940Y0096027D02*
X0143885Y0096027D01*
X0143885Y0095989D02*
X0142940Y0095989D01*
X0142940Y0095951D02*
X0143885Y0095951D01*
X0143885Y0095913D02*
X0142940Y0095913D01*
X0142940Y0095875D02*
X0143885Y0095875D01*
X0143885Y0095838D02*
X0142940Y0095838D01*
X0142940Y0095800D02*
X0143885Y0095800D01*
X0143885Y0095762D02*
X0142940Y0095762D01*
X0142940Y0095724D02*
X0143885Y0095724D01*
X0143885Y0095686D02*
X0142940Y0095686D01*
X0142940Y0095648D02*
X0143885Y0095648D01*
X0143885Y0095610D02*
X0142940Y0095610D01*
D19*
X0144396Y0092992D02*
X0144396Y0090039D01*
X0147349Y0090039D01*
X0147349Y0092992D01*
X0144396Y0092992D01*
X0144396Y0092969D02*
X0147349Y0092969D01*
X0147349Y0092470D02*
X0144396Y0092470D01*
X0144396Y0091972D02*
X0147349Y0091972D01*
X0147349Y0091473D02*
X0144396Y0091473D01*
X0144396Y0090975D02*
X0147349Y0090975D01*
X0147349Y0090476D02*
X0144396Y0090476D01*
X0144396Y0088071D02*
X0147349Y0088071D01*
X0147349Y0085118D01*
X0144396Y0085118D01*
X0144396Y0088071D01*
X0144396Y0087984D02*
X0147349Y0087984D01*
X0147349Y0087485D02*
X0144396Y0087485D01*
X0144396Y0086987D02*
X0147349Y0086987D01*
X0147349Y0086488D02*
X0144396Y0086488D01*
X0144396Y0085990D02*
X0147349Y0085990D01*
X0147349Y0085491D02*
X0144396Y0085491D01*
X0149318Y0085491D02*
X0152270Y0085491D01*
X0152270Y0085118D02*
X0149318Y0085118D01*
X0149318Y0088071D01*
X0152270Y0088071D01*
X0152270Y0085118D01*
X0152270Y0085990D02*
X0149318Y0085990D01*
X0149318Y0086488D02*
X0152270Y0086488D01*
X0152270Y0086987D02*
X0149318Y0086987D01*
X0149318Y0087485D02*
X0152270Y0087485D01*
X0152270Y0087984D02*
X0149318Y0087984D01*
X0149318Y0090039D02*
X0152270Y0090039D01*
X0152270Y0092992D01*
X0149318Y0092992D01*
X0149318Y0090039D01*
X0149318Y0090476D02*
X0152270Y0090476D01*
X0152270Y0090975D02*
X0149318Y0090975D01*
X0149318Y0091473D02*
X0152270Y0091473D01*
X0152270Y0091972D02*
X0149318Y0091972D01*
X0149318Y0092470D02*
X0152270Y0092470D01*
X0152270Y0092969D02*
X0149318Y0092969D01*
D20*
X0046991Y0122350D03*
X0046991Y0124319D03*
X0046991Y0126287D03*
X0046991Y0128256D03*
X0046991Y0130224D03*
X0046991Y0132193D03*
X0046991Y0134161D03*
X0046991Y0136130D03*
D21*
X0046991Y0141937D03*
X0046991Y0116543D03*
D22*
X0046991Y0119594D03*
X0046991Y0138886D03*
D23*
X0063373Y0180787D03*
X0059042Y0206378D03*
X0043294Y0206378D03*
X0031483Y0206378D03*
D24*
X0332342Y0074666D02*
X0332035Y0075684D01*
X0332036Y0075684D02*
X0332126Y0075716D01*
X0332216Y0075751D01*
X0332304Y0075790D01*
X0332390Y0075833D01*
X0332474Y0075880D01*
X0332556Y0075929D01*
X0332636Y0075983D01*
X0332714Y0076039D01*
X0332790Y0076098D01*
X0332863Y0076161D01*
X0332933Y0076227D01*
X0333001Y0076295D01*
X0333066Y0076366D01*
X0333128Y0076440D01*
X0333186Y0076516D01*
X0333242Y0076594D01*
X0333294Y0076675D01*
X0333343Y0076758D01*
X0333389Y0076842D01*
X0333431Y0076929D01*
X0333469Y0077017D01*
X0333504Y0077107D01*
X0333535Y0077198D01*
X0334555Y0076902D01*
X0334556Y0076901D01*
X0334521Y0076794D01*
X0334482Y0076688D01*
X0334440Y0076583D01*
X0334394Y0076480D01*
X0334345Y0076379D01*
X0334293Y0076279D01*
X0334237Y0076181D01*
X0334179Y0076085D01*
X0334117Y0075990D01*
X0334052Y0075898D01*
X0333984Y0075808D01*
X0333913Y0075721D01*
X0333839Y0075636D01*
X0333762Y0075553D01*
X0333683Y0075473D01*
X0333601Y0075395D01*
X0333517Y0075321D01*
X0333430Y0075249D01*
X0333340Y0075180D01*
X0333249Y0075114D01*
X0333155Y0075051D01*
X0333060Y0074991D01*
X0332962Y0074935D01*
X0332863Y0074881D01*
X0332762Y0074831D01*
X0332659Y0074785D01*
X0332555Y0074742D01*
X0332450Y0074702D01*
X0332343Y0074666D01*
X0332311Y0074772D01*
X0332418Y0074808D01*
X0332523Y0074848D01*
X0332627Y0074892D01*
X0332730Y0074939D01*
X0332831Y0074990D01*
X0332930Y0075044D01*
X0333027Y0075101D01*
X0333122Y0075162D01*
X0333215Y0075226D01*
X0333306Y0075293D01*
X0333394Y0075363D01*
X0333480Y0075436D01*
X0333563Y0075512D01*
X0333644Y0075591D01*
X0333722Y0075672D01*
X0333797Y0075756D01*
X0333869Y0075843D01*
X0333939Y0075932D01*
X0334005Y0076024D01*
X0334068Y0076117D01*
X0334127Y0076213D01*
X0334184Y0076311D01*
X0334237Y0076410D01*
X0334286Y0076512D01*
X0334332Y0076615D01*
X0334375Y0076719D01*
X0334414Y0076825D01*
X0334449Y0076932D01*
X0334343Y0076963D01*
X0334308Y0076860D01*
X0334271Y0076758D01*
X0334230Y0076657D01*
X0334185Y0076557D01*
X0334137Y0076460D01*
X0334086Y0076363D01*
X0334032Y0076269D01*
X0333974Y0076177D01*
X0333913Y0076086D01*
X0333849Y0075998D01*
X0333783Y0075912D01*
X0333713Y0075829D01*
X0333640Y0075747D01*
X0333565Y0075669D01*
X0333487Y0075593D01*
X0333407Y0075519D01*
X0333324Y0075449D01*
X0333239Y0075381D01*
X0333151Y0075316D01*
X0333061Y0075255D01*
X0332969Y0075196D01*
X0332876Y0075141D01*
X0332780Y0075089D01*
X0332683Y0075040D01*
X0332584Y0074994D01*
X0332484Y0074952D01*
X0332382Y0074913D01*
X0332279Y0074878D01*
X0332247Y0074985D01*
X0332350Y0075020D01*
X0332451Y0075059D01*
X0332551Y0075101D01*
X0332650Y0075147D01*
X0332747Y0075197D01*
X0332842Y0075249D01*
X0332935Y0075306D01*
X0333026Y0075365D01*
X0333115Y0075428D01*
X0333202Y0075493D01*
X0333287Y0075562D01*
X0333368Y0075634D01*
X0333448Y0075708D01*
X0333524Y0075786D01*
X0333598Y0075866D01*
X0333669Y0075948D01*
X0333737Y0076033D01*
X0333802Y0076121D01*
X0333863Y0076210D01*
X0333922Y0076302D01*
X0333977Y0076396D01*
X0334029Y0076492D01*
X0334077Y0076589D01*
X0334122Y0076688D01*
X0334164Y0076789D01*
X0334202Y0076891D01*
X0334236Y0076994D01*
X0334129Y0077025D01*
X0334095Y0076922D01*
X0334057Y0076820D01*
X0334015Y0076720D01*
X0333970Y0076621D01*
X0333921Y0076524D01*
X0333868Y0076429D01*
X0333812Y0076335D01*
X0333752Y0076244D01*
X0333690Y0076155D01*
X0333624Y0076069D01*
X0333555Y0075985D01*
X0333482Y0075904D01*
X0333407Y0075825D01*
X0333329Y0075749D01*
X0333249Y0075676D01*
X0333165Y0075606D01*
X0333080Y0075539D01*
X0332992Y0075476D01*
X0332901Y0075415D01*
X0332808Y0075358D01*
X0332714Y0075305D01*
X0332617Y0075255D01*
X0332519Y0075208D01*
X0332419Y0075165D01*
X0332317Y0075126D01*
X0332215Y0075091D01*
X0332183Y0075197D01*
X0332281Y0075231D01*
X0332379Y0075269D01*
X0332475Y0075310D01*
X0332569Y0075355D01*
X0332662Y0075403D01*
X0332753Y0075454D01*
X0332842Y0075509D01*
X0332929Y0075567D01*
X0333014Y0075628D01*
X0333096Y0075693D01*
X0333176Y0075760D01*
X0333254Y0075830D01*
X0333328Y0075903D01*
X0333401Y0075979D01*
X0333470Y0076057D01*
X0333536Y0076138D01*
X0333600Y0076221D01*
X0333660Y0076306D01*
X0333717Y0076393D01*
X0333771Y0076483D01*
X0333822Y0076574D01*
X0333869Y0076668D01*
X0333913Y0076763D01*
X0333953Y0076859D01*
X0333990Y0076957D01*
X0334023Y0077056D01*
X0333916Y0077087D01*
X0333883Y0076988D01*
X0333846Y0076891D01*
X0333805Y0076795D01*
X0333761Y0076700D01*
X0333714Y0076607D01*
X0333662Y0076517D01*
X0333608Y0076428D01*
X0333550Y0076341D01*
X0333488Y0076257D01*
X0333424Y0076175D01*
X0333356Y0076095D01*
X0333286Y0076018D01*
X0333213Y0075944D01*
X0333136Y0075873D01*
X0333058Y0075805D01*
X0332976Y0075740D01*
X0332893Y0075677D01*
X0332806Y0075619D01*
X0332718Y0075563D01*
X0332628Y0075511D01*
X0332536Y0075462D01*
X0332442Y0075417D01*
X0332346Y0075375D01*
X0332249Y0075338D01*
X0332150Y0075303D01*
X0332118Y0075410D01*
X0332213Y0075442D01*
X0332306Y0075479D01*
X0332397Y0075519D01*
X0332487Y0075562D01*
X0332576Y0075609D01*
X0332662Y0075659D01*
X0332746Y0075712D01*
X0332829Y0075768D01*
X0332909Y0075828D01*
X0332987Y0075890D01*
X0333062Y0075956D01*
X0333135Y0076024D01*
X0333205Y0076095D01*
X0333273Y0076169D01*
X0333338Y0076245D01*
X0333399Y0076323D01*
X0333458Y0076404D01*
X0333514Y0076487D01*
X0333566Y0076572D01*
X0333615Y0076659D01*
X0333661Y0076748D01*
X0333703Y0076838D01*
X0333742Y0076930D01*
X0333778Y0077023D01*
X0333809Y0077118D01*
X0333703Y0077149D01*
X0333671Y0077055D01*
X0333635Y0076962D01*
X0333596Y0076871D01*
X0333554Y0076781D01*
X0333507Y0076693D01*
X0333458Y0076607D01*
X0333404Y0076523D01*
X0333348Y0076441D01*
X0333289Y0076361D01*
X0333226Y0076284D01*
X0333160Y0076209D01*
X0333092Y0076137D01*
X0333020Y0076068D01*
X0332946Y0076002D01*
X0332870Y0075938D01*
X0332791Y0075878D01*
X0332710Y0075821D01*
X0332626Y0075767D01*
X0332540Y0075716D01*
X0332453Y0075669D01*
X0332364Y0075625D01*
X0332273Y0075585D01*
X0332180Y0075549D01*
X0332086Y0075516D01*
X0332054Y0075622D01*
X0332144Y0075654D01*
X0332232Y0075689D01*
X0332319Y0075727D01*
X0332404Y0075769D01*
X0332487Y0075814D01*
X0332569Y0075862D01*
X0332648Y0075913D01*
X0332726Y0075968D01*
X0332801Y0076025D01*
X0332874Y0076086D01*
X0332945Y0076149D01*
X0333013Y0076215D01*
X0333078Y0076284D01*
X0333141Y0076355D01*
X0333201Y0076429D01*
X0333257Y0076505D01*
X0333311Y0076583D01*
X0333362Y0076663D01*
X0333409Y0076745D01*
X0333453Y0076829D01*
X0333494Y0076915D01*
X0333532Y0077002D01*
X0333566Y0077090D01*
X0333596Y0077180D01*
X0330467Y0081003D02*
X0330774Y0079985D01*
X0330773Y0079985D02*
X0330683Y0079953D01*
X0330593Y0079918D01*
X0330505Y0079879D01*
X0330419Y0079836D01*
X0330335Y0079789D01*
X0330253Y0079740D01*
X0330173Y0079686D01*
X0330095Y0079630D01*
X0330019Y0079571D01*
X0329946Y0079508D01*
X0329876Y0079442D01*
X0329808Y0079374D01*
X0329743Y0079303D01*
X0329681Y0079229D01*
X0329623Y0079153D01*
X0329567Y0079075D01*
X0329515Y0078994D01*
X0329466Y0078911D01*
X0329420Y0078827D01*
X0329378Y0078740D01*
X0329340Y0078652D01*
X0329305Y0078562D01*
X0329274Y0078471D01*
X0328254Y0078767D01*
X0328253Y0078768D01*
X0328288Y0078875D01*
X0328327Y0078981D01*
X0328369Y0079086D01*
X0328415Y0079189D01*
X0328464Y0079290D01*
X0328516Y0079390D01*
X0328572Y0079488D01*
X0328630Y0079584D01*
X0328692Y0079679D01*
X0328757Y0079771D01*
X0328825Y0079861D01*
X0328896Y0079948D01*
X0328970Y0080033D01*
X0329047Y0080116D01*
X0329126Y0080196D01*
X0329208Y0080274D01*
X0329292Y0080348D01*
X0329379Y0080420D01*
X0329469Y0080489D01*
X0329560Y0080555D01*
X0329654Y0080618D01*
X0329749Y0080678D01*
X0329847Y0080734D01*
X0329946Y0080788D01*
X0330047Y0080838D01*
X0330150Y0080884D01*
X0330254Y0080927D01*
X0330359Y0080967D01*
X0330466Y0081003D01*
X0330498Y0080897D01*
X0330391Y0080861D01*
X0330286Y0080821D01*
X0330182Y0080777D01*
X0330079Y0080730D01*
X0329978Y0080679D01*
X0329879Y0080625D01*
X0329782Y0080568D01*
X0329687Y0080507D01*
X0329594Y0080443D01*
X0329503Y0080376D01*
X0329415Y0080306D01*
X0329329Y0080233D01*
X0329246Y0080157D01*
X0329165Y0080078D01*
X0329087Y0079997D01*
X0329012Y0079913D01*
X0328940Y0079826D01*
X0328870Y0079737D01*
X0328804Y0079645D01*
X0328741Y0079552D01*
X0328682Y0079456D01*
X0328625Y0079358D01*
X0328572Y0079259D01*
X0328523Y0079157D01*
X0328477Y0079054D01*
X0328434Y0078950D01*
X0328395Y0078844D01*
X0328360Y0078737D01*
X0328466Y0078706D01*
X0328501Y0078809D01*
X0328538Y0078911D01*
X0328579Y0079012D01*
X0328624Y0079112D01*
X0328672Y0079209D01*
X0328723Y0079306D01*
X0328777Y0079400D01*
X0328835Y0079492D01*
X0328896Y0079583D01*
X0328960Y0079671D01*
X0329026Y0079757D01*
X0329096Y0079840D01*
X0329169Y0079922D01*
X0329244Y0080000D01*
X0329322Y0080076D01*
X0329402Y0080150D01*
X0329485Y0080220D01*
X0329570Y0080288D01*
X0329658Y0080353D01*
X0329748Y0080414D01*
X0329840Y0080473D01*
X0329933Y0080528D01*
X0330029Y0080580D01*
X0330126Y0080629D01*
X0330225Y0080675D01*
X0330325Y0080717D01*
X0330427Y0080756D01*
X0330530Y0080791D01*
X0330562Y0080684D01*
X0330459Y0080649D01*
X0330358Y0080610D01*
X0330258Y0080568D01*
X0330159Y0080522D01*
X0330062Y0080472D01*
X0329967Y0080420D01*
X0329874Y0080363D01*
X0329783Y0080304D01*
X0329694Y0080241D01*
X0329607Y0080176D01*
X0329522Y0080107D01*
X0329441Y0080035D01*
X0329361Y0079961D01*
X0329285Y0079883D01*
X0329211Y0079803D01*
X0329140Y0079721D01*
X0329072Y0079636D01*
X0329007Y0079548D01*
X0328946Y0079459D01*
X0328887Y0079367D01*
X0328832Y0079273D01*
X0328780Y0079177D01*
X0328732Y0079080D01*
X0328687Y0078981D01*
X0328645Y0078880D01*
X0328607Y0078778D01*
X0328573Y0078675D01*
X0328680Y0078644D01*
X0328714Y0078747D01*
X0328752Y0078849D01*
X0328794Y0078949D01*
X0328839Y0079048D01*
X0328888Y0079145D01*
X0328941Y0079240D01*
X0328997Y0079334D01*
X0329057Y0079425D01*
X0329119Y0079514D01*
X0329185Y0079600D01*
X0329254Y0079684D01*
X0329327Y0079765D01*
X0329402Y0079844D01*
X0329480Y0079920D01*
X0329560Y0079993D01*
X0329644Y0080063D01*
X0329729Y0080130D01*
X0329817Y0080193D01*
X0329908Y0080254D01*
X0330001Y0080311D01*
X0330095Y0080364D01*
X0330192Y0080414D01*
X0330290Y0080461D01*
X0330390Y0080504D01*
X0330492Y0080543D01*
X0330594Y0080578D01*
X0330626Y0080472D01*
X0330528Y0080438D01*
X0330430Y0080400D01*
X0330334Y0080359D01*
X0330240Y0080314D01*
X0330147Y0080266D01*
X0330056Y0080215D01*
X0329967Y0080160D01*
X0329880Y0080102D01*
X0329795Y0080041D01*
X0329713Y0079976D01*
X0329633Y0079909D01*
X0329555Y0079839D01*
X0329481Y0079766D01*
X0329408Y0079690D01*
X0329339Y0079612D01*
X0329273Y0079531D01*
X0329209Y0079448D01*
X0329149Y0079363D01*
X0329092Y0079276D01*
X0329038Y0079186D01*
X0328987Y0079095D01*
X0328940Y0079001D01*
X0328896Y0078906D01*
X0328856Y0078810D01*
X0328819Y0078712D01*
X0328786Y0078613D01*
X0328893Y0078582D01*
X0328926Y0078681D01*
X0328963Y0078778D01*
X0329004Y0078874D01*
X0329048Y0078969D01*
X0329095Y0079062D01*
X0329147Y0079152D01*
X0329201Y0079241D01*
X0329259Y0079328D01*
X0329321Y0079412D01*
X0329385Y0079494D01*
X0329453Y0079574D01*
X0329523Y0079651D01*
X0329596Y0079725D01*
X0329673Y0079796D01*
X0329751Y0079864D01*
X0329833Y0079929D01*
X0329916Y0079992D01*
X0330003Y0080050D01*
X0330091Y0080106D01*
X0330181Y0080158D01*
X0330273Y0080207D01*
X0330367Y0080252D01*
X0330463Y0080294D01*
X0330560Y0080331D01*
X0330659Y0080366D01*
X0330691Y0080259D01*
X0330596Y0080227D01*
X0330503Y0080190D01*
X0330412Y0080150D01*
X0330322Y0080107D01*
X0330233Y0080060D01*
X0330147Y0080010D01*
X0330063Y0079957D01*
X0329980Y0079901D01*
X0329900Y0079841D01*
X0329822Y0079779D01*
X0329747Y0079713D01*
X0329674Y0079645D01*
X0329604Y0079574D01*
X0329536Y0079500D01*
X0329471Y0079424D01*
X0329410Y0079346D01*
X0329351Y0079265D01*
X0329295Y0079182D01*
X0329243Y0079097D01*
X0329194Y0079010D01*
X0329148Y0078921D01*
X0329106Y0078831D01*
X0329067Y0078739D01*
X0329031Y0078646D01*
X0329000Y0078551D01*
X0329106Y0078520D01*
X0329138Y0078614D01*
X0329174Y0078707D01*
X0329213Y0078798D01*
X0329255Y0078888D01*
X0329302Y0078976D01*
X0329351Y0079062D01*
X0329405Y0079146D01*
X0329461Y0079228D01*
X0329520Y0079308D01*
X0329583Y0079385D01*
X0329649Y0079460D01*
X0329717Y0079532D01*
X0329789Y0079601D01*
X0329863Y0079667D01*
X0329939Y0079731D01*
X0330018Y0079791D01*
X0330099Y0079848D01*
X0330183Y0079902D01*
X0330269Y0079953D01*
X0330356Y0080000D01*
X0330445Y0080044D01*
X0330536Y0080084D01*
X0330629Y0080120D01*
X0330723Y0080153D01*
X0330755Y0080047D01*
X0330665Y0080015D01*
X0330577Y0079980D01*
X0330490Y0079942D01*
X0330405Y0079900D01*
X0330322Y0079855D01*
X0330240Y0079807D01*
X0330161Y0079756D01*
X0330083Y0079701D01*
X0330008Y0079644D01*
X0329935Y0079583D01*
X0329864Y0079520D01*
X0329796Y0079454D01*
X0329731Y0079385D01*
X0329668Y0079314D01*
X0329608Y0079240D01*
X0329552Y0079164D01*
X0329498Y0079086D01*
X0329447Y0079006D01*
X0329400Y0078924D01*
X0329356Y0078840D01*
X0329315Y0078754D01*
X0329277Y0078667D01*
X0329243Y0078579D01*
X0329213Y0078489D01*
X0334573Y0078772D02*
X0333555Y0078465D01*
X0333555Y0078466D02*
X0333523Y0078556D01*
X0333488Y0078646D01*
X0333449Y0078734D01*
X0333406Y0078820D01*
X0333359Y0078904D01*
X0333310Y0078986D01*
X0333256Y0079066D01*
X0333200Y0079144D01*
X0333141Y0079220D01*
X0333078Y0079293D01*
X0333012Y0079363D01*
X0332944Y0079431D01*
X0332873Y0079496D01*
X0332799Y0079558D01*
X0332723Y0079616D01*
X0332645Y0079672D01*
X0332564Y0079724D01*
X0332481Y0079773D01*
X0332397Y0079819D01*
X0332310Y0079861D01*
X0332222Y0079899D01*
X0332132Y0079934D01*
X0332041Y0079965D01*
X0332337Y0080985D01*
X0332338Y0080986D01*
X0332445Y0080951D01*
X0332551Y0080912D01*
X0332656Y0080870D01*
X0332759Y0080824D01*
X0332860Y0080775D01*
X0332960Y0080723D01*
X0333058Y0080667D01*
X0333154Y0080609D01*
X0333249Y0080547D01*
X0333341Y0080482D01*
X0333431Y0080414D01*
X0333518Y0080343D01*
X0333603Y0080269D01*
X0333686Y0080192D01*
X0333766Y0080113D01*
X0333844Y0080031D01*
X0333918Y0079947D01*
X0333990Y0079860D01*
X0334059Y0079770D01*
X0334125Y0079679D01*
X0334188Y0079585D01*
X0334248Y0079490D01*
X0334304Y0079392D01*
X0334358Y0079293D01*
X0334408Y0079192D01*
X0334454Y0079089D01*
X0334497Y0078985D01*
X0334537Y0078880D01*
X0334573Y0078773D01*
X0334467Y0078741D01*
X0334431Y0078848D01*
X0334391Y0078953D01*
X0334347Y0079057D01*
X0334300Y0079160D01*
X0334249Y0079261D01*
X0334195Y0079360D01*
X0334138Y0079457D01*
X0334077Y0079552D01*
X0334013Y0079645D01*
X0333946Y0079736D01*
X0333876Y0079824D01*
X0333803Y0079910D01*
X0333727Y0079993D01*
X0333648Y0080074D01*
X0333567Y0080152D01*
X0333483Y0080227D01*
X0333396Y0080299D01*
X0333307Y0080369D01*
X0333215Y0080435D01*
X0333122Y0080498D01*
X0333026Y0080557D01*
X0332928Y0080614D01*
X0332829Y0080667D01*
X0332727Y0080716D01*
X0332624Y0080762D01*
X0332520Y0080805D01*
X0332414Y0080844D01*
X0332307Y0080879D01*
X0332276Y0080773D01*
X0332379Y0080738D01*
X0332481Y0080701D01*
X0332582Y0080660D01*
X0332682Y0080615D01*
X0332779Y0080567D01*
X0332876Y0080516D01*
X0332970Y0080462D01*
X0333062Y0080404D01*
X0333153Y0080343D01*
X0333241Y0080279D01*
X0333327Y0080213D01*
X0333410Y0080143D01*
X0333492Y0080070D01*
X0333570Y0079995D01*
X0333646Y0079917D01*
X0333720Y0079837D01*
X0333790Y0079754D01*
X0333858Y0079669D01*
X0333923Y0079581D01*
X0333984Y0079491D01*
X0334043Y0079399D01*
X0334098Y0079306D01*
X0334150Y0079210D01*
X0334199Y0079113D01*
X0334245Y0079014D01*
X0334287Y0078914D01*
X0334326Y0078812D01*
X0334361Y0078709D01*
X0334254Y0078677D01*
X0334219Y0078780D01*
X0334180Y0078881D01*
X0334138Y0078981D01*
X0334092Y0079080D01*
X0334042Y0079177D01*
X0333990Y0079272D01*
X0333933Y0079365D01*
X0333874Y0079456D01*
X0333811Y0079545D01*
X0333746Y0079632D01*
X0333677Y0079717D01*
X0333605Y0079798D01*
X0333531Y0079878D01*
X0333453Y0079954D01*
X0333373Y0080028D01*
X0333291Y0080099D01*
X0333206Y0080167D01*
X0333118Y0080232D01*
X0333029Y0080293D01*
X0332937Y0080352D01*
X0332843Y0080407D01*
X0332747Y0080459D01*
X0332650Y0080507D01*
X0332551Y0080552D01*
X0332450Y0080594D01*
X0332348Y0080632D01*
X0332245Y0080666D01*
X0332214Y0080559D01*
X0332317Y0080525D01*
X0332419Y0080487D01*
X0332519Y0080445D01*
X0332618Y0080400D01*
X0332715Y0080351D01*
X0332810Y0080298D01*
X0332904Y0080242D01*
X0332995Y0080182D01*
X0333084Y0080120D01*
X0333170Y0080054D01*
X0333254Y0079985D01*
X0333335Y0079912D01*
X0333414Y0079837D01*
X0333490Y0079759D01*
X0333563Y0079679D01*
X0333633Y0079595D01*
X0333700Y0079510D01*
X0333763Y0079422D01*
X0333824Y0079331D01*
X0333881Y0079238D01*
X0333934Y0079144D01*
X0333984Y0079047D01*
X0334031Y0078949D01*
X0334074Y0078849D01*
X0334113Y0078747D01*
X0334148Y0078645D01*
X0334042Y0078613D01*
X0334008Y0078711D01*
X0333970Y0078809D01*
X0333929Y0078905D01*
X0333884Y0078999D01*
X0333836Y0079092D01*
X0333785Y0079183D01*
X0333730Y0079272D01*
X0333672Y0079359D01*
X0333611Y0079444D01*
X0333546Y0079526D01*
X0333479Y0079606D01*
X0333409Y0079684D01*
X0333336Y0079758D01*
X0333260Y0079831D01*
X0333182Y0079900D01*
X0333101Y0079966D01*
X0333018Y0080030D01*
X0332933Y0080090D01*
X0332846Y0080147D01*
X0332756Y0080201D01*
X0332665Y0080252D01*
X0332571Y0080299D01*
X0332476Y0080343D01*
X0332380Y0080383D01*
X0332282Y0080420D01*
X0332183Y0080453D01*
X0332152Y0080346D01*
X0332251Y0080313D01*
X0332348Y0080276D01*
X0332444Y0080235D01*
X0332539Y0080191D01*
X0332632Y0080144D01*
X0332722Y0080092D01*
X0332811Y0080038D01*
X0332898Y0079980D01*
X0332982Y0079918D01*
X0333064Y0079854D01*
X0333144Y0079786D01*
X0333221Y0079716D01*
X0333295Y0079643D01*
X0333366Y0079566D01*
X0333434Y0079488D01*
X0333499Y0079406D01*
X0333562Y0079323D01*
X0333620Y0079236D01*
X0333676Y0079148D01*
X0333728Y0079058D01*
X0333777Y0078966D01*
X0333822Y0078872D01*
X0333864Y0078776D01*
X0333901Y0078679D01*
X0333936Y0078580D01*
X0333829Y0078548D01*
X0333797Y0078643D01*
X0333760Y0078736D01*
X0333720Y0078827D01*
X0333677Y0078917D01*
X0333630Y0079006D01*
X0333580Y0079092D01*
X0333527Y0079176D01*
X0333471Y0079259D01*
X0333411Y0079339D01*
X0333349Y0079417D01*
X0333283Y0079492D01*
X0333215Y0079565D01*
X0333144Y0079635D01*
X0333070Y0079703D01*
X0332994Y0079768D01*
X0332916Y0079829D01*
X0332835Y0079888D01*
X0332752Y0079944D01*
X0332667Y0079996D01*
X0332580Y0080045D01*
X0332491Y0080091D01*
X0332401Y0080133D01*
X0332309Y0080172D01*
X0332216Y0080208D01*
X0332121Y0080239D01*
X0332090Y0080133D01*
X0332184Y0080101D01*
X0332277Y0080065D01*
X0332368Y0080026D01*
X0332458Y0079984D01*
X0332546Y0079937D01*
X0332632Y0079888D01*
X0332716Y0079834D01*
X0332798Y0079778D01*
X0332878Y0079719D01*
X0332955Y0079656D01*
X0333030Y0079590D01*
X0333102Y0079522D01*
X0333171Y0079450D01*
X0333237Y0079376D01*
X0333301Y0079300D01*
X0333361Y0079221D01*
X0333418Y0079140D01*
X0333472Y0079056D01*
X0333523Y0078970D01*
X0333570Y0078883D01*
X0333614Y0078794D01*
X0333654Y0078703D01*
X0333690Y0078610D01*
X0333723Y0078516D01*
X0333617Y0078484D01*
X0333585Y0078574D01*
X0333550Y0078662D01*
X0333512Y0078749D01*
X0333470Y0078834D01*
X0333425Y0078917D01*
X0333377Y0078999D01*
X0333326Y0079078D01*
X0333271Y0079156D01*
X0333214Y0079231D01*
X0333153Y0079304D01*
X0333090Y0079375D01*
X0333024Y0079443D01*
X0332955Y0079508D01*
X0332884Y0079571D01*
X0332810Y0079631D01*
X0332734Y0079687D01*
X0332656Y0079741D01*
X0332576Y0079792D01*
X0332494Y0079839D01*
X0332410Y0079883D01*
X0332324Y0079924D01*
X0332237Y0079962D01*
X0332149Y0079996D01*
X0332059Y0080026D01*
X0328236Y0076897D02*
X0329254Y0077204D01*
X0329254Y0077203D02*
X0329286Y0077113D01*
X0329321Y0077023D01*
X0329360Y0076935D01*
X0329403Y0076849D01*
X0329450Y0076765D01*
X0329499Y0076683D01*
X0329553Y0076603D01*
X0329609Y0076525D01*
X0329668Y0076449D01*
X0329731Y0076376D01*
X0329797Y0076306D01*
X0329865Y0076238D01*
X0329936Y0076173D01*
X0330010Y0076111D01*
X0330086Y0076053D01*
X0330164Y0075997D01*
X0330245Y0075945D01*
X0330328Y0075896D01*
X0330412Y0075850D01*
X0330499Y0075808D01*
X0330587Y0075770D01*
X0330677Y0075735D01*
X0330768Y0075704D01*
X0330472Y0074684D01*
X0330471Y0074683D01*
X0330364Y0074718D01*
X0330258Y0074757D01*
X0330153Y0074799D01*
X0330050Y0074845D01*
X0329949Y0074894D01*
X0329849Y0074946D01*
X0329751Y0075002D01*
X0329655Y0075060D01*
X0329560Y0075122D01*
X0329468Y0075187D01*
X0329378Y0075255D01*
X0329291Y0075326D01*
X0329206Y0075400D01*
X0329123Y0075477D01*
X0329043Y0075556D01*
X0328965Y0075638D01*
X0328891Y0075722D01*
X0328819Y0075809D01*
X0328750Y0075899D01*
X0328684Y0075990D01*
X0328621Y0076084D01*
X0328561Y0076179D01*
X0328505Y0076277D01*
X0328451Y0076376D01*
X0328401Y0076477D01*
X0328355Y0076580D01*
X0328312Y0076684D01*
X0328272Y0076789D01*
X0328236Y0076896D01*
X0328342Y0076928D01*
X0328378Y0076821D01*
X0328418Y0076716D01*
X0328462Y0076612D01*
X0328509Y0076509D01*
X0328560Y0076408D01*
X0328614Y0076309D01*
X0328671Y0076212D01*
X0328732Y0076117D01*
X0328796Y0076024D01*
X0328863Y0075933D01*
X0328933Y0075845D01*
X0329006Y0075759D01*
X0329082Y0075676D01*
X0329161Y0075595D01*
X0329242Y0075517D01*
X0329326Y0075442D01*
X0329413Y0075370D01*
X0329502Y0075300D01*
X0329594Y0075234D01*
X0329687Y0075171D01*
X0329783Y0075112D01*
X0329881Y0075055D01*
X0329980Y0075002D01*
X0330082Y0074953D01*
X0330185Y0074907D01*
X0330289Y0074864D01*
X0330395Y0074825D01*
X0330502Y0074790D01*
X0330533Y0074896D01*
X0330430Y0074931D01*
X0330328Y0074968D01*
X0330227Y0075009D01*
X0330127Y0075054D01*
X0330030Y0075102D01*
X0329933Y0075153D01*
X0329839Y0075207D01*
X0329747Y0075265D01*
X0329656Y0075326D01*
X0329568Y0075390D01*
X0329482Y0075456D01*
X0329399Y0075526D01*
X0329317Y0075599D01*
X0329239Y0075674D01*
X0329163Y0075752D01*
X0329089Y0075832D01*
X0329019Y0075915D01*
X0328951Y0076000D01*
X0328886Y0076088D01*
X0328825Y0076178D01*
X0328766Y0076270D01*
X0328711Y0076363D01*
X0328659Y0076459D01*
X0328610Y0076556D01*
X0328564Y0076655D01*
X0328522Y0076755D01*
X0328483Y0076857D01*
X0328448Y0076960D01*
X0328555Y0076992D01*
X0328590Y0076889D01*
X0328629Y0076788D01*
X0328671Y0076688D01*
X0328717Y0076589D01*
X0328767Y0076492D01*
X0328819Y0076397D01*
X0328876Y0076304D01*
X0328935Y0076213D01*
X0328998Y0076124D01*
X0329063Y0076037D01*
X0329132Y0075952D01*
X0329204Y0075871D01*
X0329278Y0075791D01*
X0329356Y0075715D01*
X0329436Y0075641D01*
X0329518Y0075570D01*
X0329603Y0075502D01*
X0329691Y0075437D01*
X0329780Y0075376D01*
X0329872Y0075317D01*
X0329966Y0075262D01*
X0330062Y0075210D01*
X0330159Y0075162D01*
X0330258Y0075117D01*
X0330359Y0075075D01*
X0330461Y0075037D01*
X0330564Y0075003D01*
X0330595Y0075110D01*
X0330492Y0075144D01*
X0330390Y0075182D01*
X0330290Y0075224D01*
X0330191Y0075269D01*
X0330094Y0075318D01*
X0329999Y0075371D01*
X0329905Y0075427D01*
X0329814Y0075487D01*
X0329725Y0075549D01*
X0329639Y0075615D01*
X0329555Y0075684D01*
X0329474Y0075757D01*
X0329395Y0075832D01*
X0329319Y0075910D01*
X0329246Y0075990D01*
X0329176Y0076074D01*
X0329109Y0076159D01*
X0329046Y0076247D01*
X0328985Y0076338D01*
X0328928Y0076431D01*
X0328875Y0076525D01*
X0328825Y0076622D01*
X0328778Y0076720D01*
X0328735Y0076820D01*
X0328696Y0076922D01*
X0328661Y0077024D01*
X0328767Y0077056D01*
X0328801Y0076958D01*
X0328839Y0076860D01*
X0328880Y0076764D01*
X0328925Y0076670D01*
X0328973Y0076577D01*
X0329024Y0076486D01*
X0329079Y0076397D01*
X0329137Y0076310D01*
X0329198Y0076225D01*
X0329263Y0076143D01*
X0329330Y0076063D01*
X0329400Y0075985D01*
X0329473Y0075911D01*
X0329549Y0075838D01*
X0329627Y0075769D01*
X0329708Y0075703D01*
X0329791Y0075639D01*
X0329876Y0075579D01*
X0329963Y0075522D01*
X0330053Y0075468D01*
X0330144Y0075417D01*
X0330238Y0075370D01*
X0330333Y0075326D01*
X0330429Y0075286D01*
X0330527Y0075249D01*
X0330626Y0075216D01*
X0330657Y0075323D01*
X0330558Y0075356D01*
X0330461Y0075393D01*
X0330365Y0075434D01*
X0330270Y0075478D01*
X0330177Y0075525D01*
X0330087Y0075577D01*
X0329998Y0075631D01*
X0329911Y0075689D01*
X0329827Y0075751D01*
X0329745Y0075815D01*
X0329665Y0075883D01*
X0329588Y0075953D01*
X0329514Y0076026D01*
X0329443Y0076103D01*
X0329375Y0076181D01*
X0329310Y0076263D01*
X0329247Y0076346D01*
X0329189Y0076433D01*
X0329133Y0076521D01*
X0329081Y0076611D01*
X0329032Y0076703D01*
X0328987Y0076797D01*
X0328945Y0076893D01*
X0328908Y0076990D01*
X0328873Y0077089D01*
X0328980Y0077121D01*
X0329012Y0077026D01*
X0329049Y0076933D01*
X0329089Y0076842D01*
X0329132Y0076752D01*
X0329179Y0076663D01*
X0329229Y0076577D01*
X0329282Y0076493D01*
X0329338Y0076410D01*
X0329398Y0076330D01*
X0329460Y0076252D01*
X0329526Y0076177D01*
X0329594Y0076104D01*
X0329665Y0076034D01*
X0329739Y0075966D01*
X0329815Y0075901D01*
X0329893Y0075840D01*
X0329974Y0075781D01*
X0330057Y0075725D01*
X0330142Y0075673D01*
X0330229Y0075624D01*
X0330318Y0075578D01*
X0330408Y0075536D01*
X0330500Y0075497D01*
X0330593Y0075461D01*
X0330688Y0075430D01*
X0330719Y0075536D01*
X0330625Y0075568D01*
X0330532Y0075604D01*
X0330441Y0075643D01*
X0330351Y0075685D01*
X0330263Y0075732D01*
X0330177Y0075781D01*
X0330093Y0075835D01*
X0330011Y0075891D01*
X0329931Y0075950D01*
X0329854Y0076013D01*
X0329779Y0076079D01*
X0329707Y0076147D01*
X0329638Y0076219D01*
X0329572Y0076293D01*
X0329508Y0076369D01*
X0329448Y0076448D01*
X0329391Y0076529D01*
X0329337Y0076613D01*
X0329286Y0076699D01*
X0329239Y0076786D01*
X0329195Y0076875D01*
X0329155Y0076966D01*
X0329119Y0077059D01*
X0329086Y0077153D01*
X0329192Y0077185D01*
X0329224Y0077095D01*
X0329259Y0077007D01*
X0329297Y0076920D01*
X0329339Y0076835D01*
X0329384Y0076752D01*
X0329432Y0076670D01*
X0329483Y0076591D01*
X0329538Y0076513D01*
X0329595Y0076438D01*
X0329656Y0076365D01*
X0329719Y0076294D01*
X0329785Y0076226D01*
X0329854Y0076161D01*
X0329925Y0076098D01*
X0329999Y0076038D01*
X0330075Y0075982D01*
X0330153Y0075928D01*
X0330233Y0075877D01*
X0330315Y0075830D01*
X0330399Y0075786D01*
X0330485Y0075745D01*
X0330572Y0075707D01*
X0330660Y0075673D01*
X0330750Y0075643D01*
D25*
X0326286Y0074685D03*
X0336522Y0074685D03*
D26*
X0336129Y0088150D03*
X0331404Y0088150D03*
X0326680Y0088150D03*
D27*
X0367991Y0087283D03*
X0367991Y0099882D03*
X0388282Y0099882D03*
X0388282Y0087283D03*
X0427046Y0087283D03*
X0427046Y0099882D03*
X0447337Y0099882D03*
X0447337Y0087283D03*
X0486101Y0087283D03*
X0486101Y0099882D03*
X0506392Y0099882D03*
X0506392Y0087283D03*
X0545156Y0087283D03*
X0545156Y0099882D03*
X0565448Y0099882D03*
X0565448Y0087283D03*
X0604211Y0087283D03*
X0604211Y0099882D03*
X0624503Y0099882D03*
X0624503Y0087283D03*
X0663266Y0087283D03*
X0663266Y0099882D03*
X0683558Y0099882D03*
X0683558Y0087283D03*
X0722322Y0087283D03*
X0722322Y0099882D03*
X0742613Y0099882D03*
X0742613Y0087283D03*
X0786298Y0087283D03*
X0786298Y0099882D03*
X0806589Y0099882D03*
X0806589Y0087283D03*
X0840432Y0087283D03*
X0840432Y0099882D03*
X0860723Y0099882D03*
X0860723Y0087283D03*
X0899487Y0087283D03*
X0899487Y0099882D03*
X0919778Y0099882D03*
X0919778Y0087283D03*
X0958542Y0087283D03*
X0958542Y0099882D03*
X0978833Y0099882D03*
X0978833Y0087283D03*
X1017597Y0087283D03*
X1017597Y0099882D03*
X1037888Y0099882D03*
X1037888Y0087283D03*
X1076652Y0087283D03*
X1076652Y0099882D03*
X1096944Y0099882D03*
X1096944Y0087283D03*
X1135707Y0087283D03*
X1135707Y0099882D03*
X1155999Y0099882D03*
X1155999Y0087283D03*
X1194762Y0087283D03*
X1194762Y0099882D03*
X1215054Y0099882D03*
X1215054Y0087283D03*
X1215054Y0146339D03*
X1215054Y0158937D03*
X1194762Y0158937D03*
X1194762Y0146339D03*
X1155999Y0146339D03*
X1155999Y0158937D03*
X1135707Y0158937D03*
X1135707Y0146339D03*
X1096944Y0146339D03*
X1096944Y0158937D03*
X1076652Y0158937D03*
X1076652Y0146339D03*
X1037888Y0146339D03*
X1037888Y0158937D03*
X1017597Y0158937D03*
X1017597Y0146339D03*
X0978833Y0146339D03*
X0978833Y0158937D03*
X0958542Y0158937D03*
X0958542Y0146339D03*
X0919778Y0146339D03*
X0919778Y0158937D03*
X0899487Y0158937D03*
X0899487Y0146339D03*
X0860723Y0146339D03*
X0860723Y0158937D03*
X0840432Y0158937D03*
X0840432Y0146339D03*
X0801668Y0146339D03*
X0801668Y0158937D03*
X0781377Y0158937D03*
X0781377Y0146339D03*
X0742613Y0146339D03*
X0742613Y0158937D03*
X0722322Y0158937D03*
X0722322Y0146339D03*
X0683558Y0146339D03*
X0683558Y0158937D03*
X0663266Y0158937D03*
X0663266Y0146339D03*
X0624503Y0146339D03*
X0624503Y0158937D03*
X0604211Y0158937D03*
X0604211Y0146339D03*
X0565448Y0146339D03*
X0565448Y0158937D03*
X0545156Y0158937D03*
X0545156Y0146339D03*
X0506392Y0146339D03*
X0506392Y0158937D03*
X0486101Y0158937D03*
X0486101Y0146339D03*
X0447337Y0146339D03*
X0447337Y0158937D03*
X0427046Y0158937D03*
X0427046Y0146339D03*
X0388282Y0146339D03*
X0388282Y0158937D03*
X0367991Y0158937D03*
X0367991Y0146339D03*
X0367991Y0205394D03*
X0367991Y0217992D03*
X0388282Y0217992D03*
X0388282Y0205394D03*
X0427046Y0205394D03*
X0427046Y0217992D03*
X0447337Y0217992D03*
X0447337Y0205394D03*
X0486101Y0205394D03*
X0486101Y0217992D03*
X0506392Y0217992D03*
X0506392Y0205394D03*
X0545156Y0205394D03*
X0545156Y0217992D03*
X0565448Y0217992D03*
X0565448Y0205394D03*
X0604211Y0205394D03*
X0604211Y0217992D03*
X0624503Y0217992D03*
X0624503Y0205394D03*
X0663266Y0205394D03*
X0663266Y0217992D03*
X0683558Y0217992D03*
X0683558Y0205394D03*
X0722322Y0205394D03*
X0722322Y0217992D03*
X0742613Y0217992D03*
X0742613Y0205394D03*
X0781377Y0205394D03*
X0781377Y0217992D03*
X0801668Y0217992D03*
X0801668Y0205394D03*
X0840432Y0205394D03*
X0840432Y0217992D03*
X0860723Y0217992D03*
X0860723Y0205394D03*
X0899487Y0205394D03*
X0899487Y0217992D03*
X0919778Y0217992D03*
X0919778Y0205394D03*
X0958542Y0205394D03*
X0958542Y0217992D03*
X0978833Y0217992D03*
X0978833Y0205394D03*
X1017597Y0205394D03*
X1017597Y0217992D03*
X1037888Y0217992D03*
X1037888Y0205394D03*
X1076652Y0205394D03*
X1076652Y0217992D03*
X1096944Y0217992D03*
X1096944Y0205394D03*
X1135707Y0205394D03*
X1135707Y0217992D03*
X1155999Y0217992D03*
X1155999Y0205394D03*
X1194762Y0205394D03*
X1194762Y0217992D03*
X1215054Y0217992D03*
X1215054Y0205394D03*
X1253818Y0205394D03*
X1253818Y0217992D03*
X1274109Y0217992D03*
X1274109Y0205394D03*
X1274109Y0158937D03*
X1274109Y0146339D03*
X1253818Y0146339D03*
X1253818Y0158937D03*
X1253818Y0264449D03*
X1253818Y0277047D03*
X1274109Y0277047D03*
X1274109Y0264449D03*
X1215054Y0264449D03*
X1215054Y0277047D03*
X1194762Y0277047D03*
X1194762Y0264449D03*
X1155999Y0264449D03*
X1155999Y0277047D03*
X1135707Y0277047D03*
X1135707Y0264449D03*
X1096944Y0264449D03*
X1096944Y0277047D03*
X1076652Y0277047D03*
X1076652Y0264449D03*
X1037888Y0264449D03*
X1037888Y0277047D03*
X1017597Y0277047D03*
X1017597Y0264449D03*
X0978833Y0264449D03*
X0978833Y0277047D03*
X0958542Y0277047D03*
X0958542Y0264449D03*
X0919778Y0264449D03*
X0919778Y0277047D03*
X0899487Y0277047D03*
X0899487Y0264449D03*
X0860723Y0264449D03*
X0860723Y0277047D03*
X0840432Y0277047D03*
X0840432Y0264449D03*
X0801668Y0264449D03*
X0801668Y0277047D03*
X0781377Y0277047D03*
X0781377Y0264449D03*
X0742613Y0264449D03*
X0742613Y0277047D03*
X0722322Y0277047D03*
X0722322Y0264449D03*
X0683558Y0264449D03*
X0683558Y0277047D03*
X0663266Y0277047D03*
X0663266Y0264449D03*
X0624503Y0264449D03*
X0624503Y0277047D03*
X0604211Y0277047D03*
X0604211Y0264449D03*
X0565448Y0264449D03*
X0565448Y0277047D03*
X0545156Y0277047D03*
X0545156Y0264449D03*
X0506392Y0264449D03*
X0506392Y0277047D03*
X0486101Y0277047D03*
X0486101Y0264449D03*
X0447337Y0264449D03*
X0447337Y0277047D03*
X0427046Y0277047D03*
X0427046Y0264449D03*
X0388282Y0264449D03*
X0388282Y0277047D03*
X0367991Y0277047D03*
X0367991Y0264449D03*
X0329227Y0264449D03*
X0329227Y0277047D03*
X0308936Y0277047D03*
X0308936Y0264449D03*
X0270172Y0264449D03*
X0270172Y0277047D03*
X0249881Y0277047D03*
X0249881Y0264449D03*
X0211117Y0264449D03*
X0211117Y0277047D03*
X0190825Y0277047D03*
X0190825Y0264449D03*
X0152062Y0264449D03*
X0152062Y0277047D03*
X0131770Y0277047D03*
X0131770Y0264449D03*
X0093007Y0264449D03*
X0093007Y0277047D03*
X0072715Y0277047D03*
X0072715Y0264449D03*
X0131770Y0217992D03*
X0131770Y0205394D03*
X0152062Y0205394D03*
X0152062Y0217992D03*
X0190825Y0217992D03*
X0190825Y0205394D03*
X0211117Y0205394D03*
X0211117Y0217992D03*
X0249881Y0217992D03*
X0249881Y0205394D03*
X0270172Y0205394D03*
X0270172Y0217992D03*
X0308936Y0217992D03*
X0308936Y0205394D03*
X0329227Y0205394D03*
X0329227Y0217992D03*
X0329227Y0323504D03*
X0329227Y0336102D03*
X0308936Y0336102D03*
X0308936Y0323504D03*
X0270172Y0323504D03*
X0270172Y0336102D03*
X0249881Y0336102D03*
X0249881Y0323504D03*
X0211117Y0323504D03*
X0211117Y0336102D03*
X0190825Y0336102D03*
X0190825Y0323504D03*
X0152062Y0323504D03*
X0152062Y0336102D03*
X0131770Y0336102D03*
X0131770Y0323504D03*
X0093007Y0323504D03*
X0093007Y0336102D03*
X0072715Y0336102D03*
X0072715Y0323504D03*
X0072715Y0382559D03*
X0072715Y0395157D03*
X0093007Y0395157D03*
X0093007Y0382559D03*
X0131770Y0382559D03*
X0131770Y0395157D03*
X0152062Y0395157D03*
X0152062Y0382559D03*
X0190825Y0382559D03*
X0190825Y0395157D03*
X0211117Y0395157D03*
X0211117Y0382559D03*
X0249881Y0382559D03*
X0249881Y0395157D03*
X0270172Y0395157D03*
X0270172Y0382559D03*
X0308936Y0382559D03*
X0308936Y0395157D03*
X0329227Y0395157D03*
X0329227Y0382559D03*
X0367991Y0382559D03*
X0367991Y0395157D03*
X0388282Y0395157D03*
X0388282Y0382559D03*
X0427046Y0382559D03*
X0427046Y0395157D03*
X0447337Y0395157D03*
X0447337Y0382559D03*
X0486101Y0382559D03*
X0486101Y0395157D03*
X0506392Y0395157D03*
X0506392Y0382559D03*
X0545156Y0382559D03*
X0545156Y0395157D03*
X0565448Y0395157D03*
X0565448Y0382559D03*
X0604211Y0382559D03*
X0604211Y0395157D03*
X0624503Y0395157D03*
X0624503Y0382559D03*
X0663266Y0382559D03*
X0663266Y0395157D03*
X0683558Y0395157D03*
X0683558Y0382559D03*
X0722322Y0382559D03*
X0722322Y0395157D03*
X0742613Y0395157D03*
X0742613Y0382559D03*
X0781377Y0382559D03*
X0781377Y0395157D03*
X0801668Y0395157D03*
X0801668Y0382559D03*
X0840432Y0382559D03*
X0840432Y0395157D03*
X0860723Y0395157D03*
X0860723Y0382559D03*
X0899487Y0382559D03*
X0899487Y0395157D03*
X0919778Y0395157D03*
X0919778Y0382559D03*
X0958542Y0382559D03*
X0958542Y0395157D03*
X0978833Y0395157D03*
X0978833Y0382559D03*
X1017597Y0382559D03*
X1017597Y0395157D03*
X1037888Y0395157D03*
X1037888Y0382559D03*
X1076652Y0382559D03*
X1076652Y0395157D03*
X1096944Y0395157D03*
X1096944Y0382559D03*
X1135707Y0382559D03*
X1135707Y0395157D03*
X1155999Y0395157D03*
X1155999Y0382559D03*
X1194762Y0382559D03*
X1194762Y0395157D03*
X1215054Y0395157D03*
X1215054Y0382559D03*
X1253818Y0382559D03*
X1253818Y0395157D03*
X1274109Y0395157D03*
X1274109Y0382559D03*
X1274109Y0336102D03*
X1274109Y0323504D03*
X1253818Y0323504D03*
X1253818Y0336102D03*
X1215054Y0336102D03*
X1215054Y0323504D03*
X1194762Y0323504D03*
X1194762Y0336102D03*
X1155999Y0336102D03*
X1155999Y0323504D03*
X1135707Y0323504D03*
X1135707Y0336102D03*
X1096944Y0336102D03*
X1096944Y0323504D03*
X1076652Y0323504D03*
X1076652Y0336102D03*
X1037888Y0336102D03*
X1037888Y0323504D03*
X1017597Y0323504D03*
X1017597Y0336102D03*
X0978833Y0336102D03*
X0978833Y0323504D03*
X0958542Y0323504D03*
X0958542Y0336102D03*
X0919778Y0336102D03*
X0919778Y0323504D03*
X0899487Y0323504D03*
X0899487Y0336102D03*
X0860723Y0336102D03*
X0860723Y0323504D03*
X0840432Y0323504D03*
X0840432Y0336102D03*
X0801668Y0336102D03*
X0801668Y0323504D03*
X0781377Y0323504D03*
X0781377Y0336102D03*
X0742613Y0336102D03*
X0742613Y0323504D03*
X0722322Y0323504D03*
X0722322Y0336102D03*
X0683558Y0336102D03*
X0683558Y0323504D03*
X0663266Y0323504D03*
X0663266Y0336102D03*
X0624503Y0336102D03*
X0624503Y0323504D03*
X0604211Y0323504D03*
X0604211Y0336102D03*
X0565448Y0336102D03*
X0565448Y0323504D03*
X0545156Y0323504D03*
X0545156Y0336102D03*
X0506392Y0336102D03*
X0506392Y0323504D03*
X0486101Y0323504D03*
X0486101Y0336102D03*
X0447337Y0336102D03*
X0447337Y0323504D03*
X0427046Y0323504D03*
X0427046Y0336102D03*
X0388282Y0336102D03*
X0388282Y0323504D03*
X0367991Y0323504D03*
X0367991Y0336102D03*
X0367991Y0441614D03*
X0367991Y0454213D03*
X0388282Y0454213D03*
X0388282Y0441614D03*
X0427046Y0441614D03*
X0427046Y0454213D03*
X0447337Y0454213D03*
X0447337Y0441614D03*
X0486101Y0441614D03*
X0486101Y0454213D03*
X0506392Y0454213D03*
X0506392Y0441614D03*
X0545156Y0441614D03*
X0545156Y0454213D03*
X0565448Y0454213D03*
X0565448Y0441614D03*
X0604211Y0441614D03*
X0604211Y0454213D03*
X0624503Y0454213D03*
X0624503Y0441614D03*
X0663266Y0441614D03*
X0663266Y0454213D03*
X0683558Y0454213D03*
X0683558Y0441614D03*
X0722322Y0441614D03*
X0722322Y0454213D03*
X0742613Y0454213D03*
X0742613Y0441614D03*
X0781377Y0441614D03*
X0781377Y0454213D03*
X0801668Y0454213D03*
X0801668Y0441614D03*
X0840432Y0441614D03*
X0840432Y0454213D03*
X0860723Y0454213D03*
X0860723Y0441614D03*
X0899487Y0441614D03*
X0899487Y0454213D03*
X0919778Y0454213D03*
X0919778Y0441614D03*
X0958542Y0441614D03*
X0958542Y0454213D03*
X0978833Y0454213D03*
X0978833Y0441614D03*
X1017597Y0441614D03*
X1017597Y0454213D03*
X1037888Y0454213D03*
X1037888Y0441614D03*
X1076652Y0441614D03*
X1076652Y0454213D03*
X1096944Y0454213D03*
X1096944Y0441614D03*
X1135707Y0441614D03*
X1135707Y0454213D03*
X1155999Y0454213D03*
X1155999Y0441614D03*
X1194762Y0441614D03*
X1194762Y0454213D03*
X1215054Y0454213D03*
X1215054Y0441614D03*
X1253818Y0441614D03*
X1253818Y0454213D03*
X1274109Y0454213D03*
X1274109Y0441614D03*
X1274109Y0500669D03*
X1274109Y0513268D03*
X1253818Y0513268D03*
X1253818Y0500669D03*
X1215054Y0500669D03*
X1215054Y0513268D03*
X1194762Y0513268D03*
X1194762Y0500669D03*
X1155999Y0500669D03*
X1155999Y0513268D03*
X1135707Y0513268D03*
X1135707Y0500669D03*
X1096944Y0500669D03*
X1096944Y0513268D03*
X1076652Y0513268D03*
X1076652Y0500669D03*
X1037888Y0500669D03*
X1037888Y0513268D03*
X1017597Y0513268D03*
X1017597Y0500669D03*
X0978833Y0500669D03*
X0978833Y0513268D03*
X0958542Y0513268D03*
X0958542Y0500669D03*
X0919778Y0500669D03*
X0919778Y0513268D03*
X0899487Y0513268D03*
X0899487Y0500669D03*
X0860723Y0500669D03*
X0860723Y0513268D03*
X0840432Y0513268D03*
X0840432Y0500669D03*
X0801668Y0500669D03*
X0801668Y0513268D03*
X0781377Y0513268D03*
X0781377Y0500669D03*
X0742613Y0500669D03*
X0742613Y0513268D03*
X0722322Y0513268D03*
X0722322Y0500669D03*
X0683558Y0500669D03*
X0683558Y0513268D03*
X0663266Y0513268D03*
X0663266Y0500669D03*
X0624503Y0500669D03*
X0624503Y0513268D03*
X0604211Y0513268D03*
X0604211Y0500669D03*
X0565448Y0500669D03*
X0565448Y0513268D03*
X0545156Y0513268D03*
X0545156Y0500669D03*
X0506392Y0500669D03*
X0506392Y0513268D03*
X0486101Y0513268D03*
X0486101Y0500669D03*
X0447337Y0500669D03*
X0447337Y0513268D03*
X0427046Y0513268D03*
X0427046Y0500669D03*
X0388282Y0500669D03*
X0388282Y0513268D03*
X0367991Y0513268D03*
X0367991Y0500669D03*
X0329227Y0500669D03*
X0329227Y0513268D03*
X0308936Y0513268D03*
X0308936Y0500669D03*
X0270172Y0500669D03*
X0270172Y0513268D03*
X0249881Y0513268D03*
X0249881Y0500669D03*
X0211117Y0500669D03*
X0211117Y0513268D03*
X0190825Y0513268D03*
X0190825Y0500669D03*
X0152062Y0500669D03*
X0152062Y0513268D03*
X0131770Y0513268D03*
X0131770Y0500669D03*
X0093007Y0500669D03*
X0093007Y0513268D03*
X0072715Y0513268D03*
X0072715Y0500669D03*
X0072715Y0454213D03*
X0072715Y0441614D03*
X0093007Y0441614D03*
X0093007Y0454213D03*
X0131770Y0454213D03*
X0131770Y0441614D03*
X0152062Y0441614D03*
X0152062Y0454213D03*
X0190825Y0454213D03*
X0190825Y0441614D03*
X0211117Y0441614D03*
X0211117Y0454213D03*
X0249881Y0454213D03*
X0249881Y0441614D03*
X0270172Y0441614D03*
X0270172Y0454213D03*
X0308936Y0454213D03*
X0308936Y0441614D03*
X0329227Y0441614D03*
X0329227Y0454213D03*
X0329227Y0559724D03*
X0329227Y0572323D03*
X0308936Y0572323D03*
X0308936Y0559724D03*
X0270172Y0559724D03*
X0270172Y0572323D03*
X0249881Y0572323D03*
X0249881Y0559724D03*
X0211117Y0559724D03*
X0211117Y0572323D03*
X0190825Y0572323D03*
X0190825Y0559724D03*
X0152062Y0559724D03*
X0152062Y0572323D03*
X0131770Y0572323D03*
X0131770Y0559724D03*
X0093007Y0559724D03*
X0093007Y0572323D03*
X0072715Y0572323D03*
X0072715Y0559724D03*
X0072715Y0618780D03*
X0072715Y0631378D03*
X0093007Y0631378D03*
X0093007Y0618780D03*
X0131770Y0618780D03*
X0131770Y0631378D03*
X0152062Y0631378D03*
X0152062Y0618780D03*
X0190825Y0618780D03*
X0190825Y0631378D03*
X0211117Y0631378D03*
X0211117Y0618780D03*
X0249881Y0618780D03*
X0249881Y0631378D03*
X0270172Y0631378D03*
X0270172Y0618780D03*
X0308936Y0618780D03*
X0308936Y0631378D03*
X0329227Y0631378D03*
X0329227Y0618780D03*
X0367991Y0618780D03*
X0367991Y0631378D03*
X0388282Y0631378D03*
X0388282Y0618780D03*
X0427046Y0618780D03*
X0427046Y0631378D03*
X0447337Y0631378D03*
X0447337Y0618780D03*
X0486101Y0618780D03*
X0486101Y0631378D03*
X0506392Y0631378D03*
X0506392Y0618780D03*
X0545156Y0618780D03*
X0545156Y0631378D03*
X0565448Y0631378D03*
X0565448Y0618780D03*
X0604211Y0618780D03*
X0604211Y0631378D03*
X0624503Y0631378D03*
X0624503Y0618780D03*
X0663266Y0618780D03*
X0663266Y0631378D03*
X0683558Y0631378D03*
X0683558Y0618780D03*
X0722322Y0618780D03*
X0722322Y0631378D03*
X0742613Y0631378D03*
X0742613Y0618780D03*
X0781377Y0618780D03*
X0781377Y0631378D03*
X0801668Y0631378D03*
X0801668Y0618780D03*
X0840432Y0618780D03*
X0840432Y0631378D03*
X0860723Y0631378D03*
X0860723Y0618780D03*
X0899487Y0618780D03*
X0899487Y0631378D03*
X0919778Y0631378D03*
X0919778Y0618780D03*
X0958542Y0618780D03*
X0958542Y0631378D03*
X0978833Y0631378D03*
X0978833Y0618780D03*
X1017597Y0618780D03*
X1017597Y0631378D03*
X1037888Y0631378D03*
X1037888Y0618780D03*
X1076652Y0618780D03*
X1076652Y0631378D03*
X1096944Y0631378D03*
X1096944Y0618780D03*
X1135707Y0618780D03*
X1135707Y0631378D03*
X1155999Y0631378D03*
X1155999Y0618780D03*
X1194762Y0618780D03*
X1194762Y0631378D03*
X1215054Y0631378D03*
X1215054Y0618780D03*
X1253818Y0618780D03*
X1253818Y0631378D03*
X1274109Y0631378D03*
X1274109Y0618780D03*
X1274109Y0572323D03*
X1274109Y0559724D03*
X1253818Y0559724D03*
X1253818Y0572323D03*
X1215054Y0572323D03*
X1215054Y0559724D03*
X1194762Y0559724D03*
X1194762Y0572323D03*
X1155999Y0572323D03*
X1155999Y0559724D03*
X1135707Y0559724D03*
X1135707Y0572323D03*
X1096944Y0572323D03*
X1096944Y0559724D03*
X1076652Y0559724D03*
X1076652Y0572323D03*
X1037888Y0572323D03*
X1037888Y0559724D03*
X1017597Y0559724D03*
X1017597Y0572323D03*
X0978833Y0572323D03*
X0978833Y0559724D03*
X0958542Y0559724D03*
X0958542Y0572323D03*
X0919778Y0572323D03*
X0919778Y0559724D03*
X0899487Y0559724D03*
X0899487Y0572323D03*
X0860723Y0572323D03*
X0860723Y0559724D03*
X0840432Y0559724D03*
X0840432Y0572323D03*
X0801668Y0572323D03*
X0801668Y0559724D03*
X0781377Y0559724D03*
X0781377Y0572323D03*
X0742613Y0572323D03*
X0742613Y0559724D03*
X0722322Y0559724D03*
X0722322Y0572323D03*
X0683558Y0572323D03*
X0683558Y0559724D03*
X0663266Y0559724D03*
X0663266Y0572323D03*
X0624503Y0572323D03*
X0624503Y0559724D03*
X0604211Y0559724D03*
X0604211Y0572323D03*
X0565448Y0572323D03*
X0565448Y0559724D03*
X0545156Y0559724D03*
X0545156Y0572323D03*
X0506392Y0572323D03*
X0506392Y0559724D03*
X0486101Y0559724D03*
X0486101Y0572323D03*
X0447337Y0572323D03*
X0447337Y0559724D03*
X0427046Y0559724D03*
X0427046Y0572323D03*
X0388282Y0572323D03*
X0388282Y0559724D03*
X0367991Y0559724D03*
X0367991Y0572323D03*
X0367991Y0677835D03*
X0367991Y0690433D03*
X0388282Y0690433D03*
X0388282Y0677835D03*
X0427046Y0677835D03*
X0427046Y0690433D03*
X0447337Y0690433D03*
X0447337Y0677835D03*
X0486101Y0677835D03*
X0486101Y0690433D03*
X0506392Y0690433D03*
X0506392Y0677835D03*
X0545156Y0677835D03*
X0545156Y0690433D03*
X0565448Y0690433D03*
X0565448Y0677835D03*
X0604211Y0677835D03*
X0604211Y0690433D03*
X0624503Y0690433D03*
X0624503Y0677835D03*
X0663266Y0677835D03*
X0663266Y0690433D03*
X0683558Y0690433D03*
X0683558Y0677835D03*
X0722322Y0677835D03*
X0722322Y0690433D03*
X0742613Y0690433D03*
X0742613Y0677835D03*
X0781377Y0677835D03*
X0781377Y0690433D03*
X0801668Y0690433D03*
X0801668Y0677835D03*
X0840432Y0677835D03*
X0840432Y0690433D03*
X0860723Y0690433D03*
X0860723Y0677835D03*
X0899487Y0677835D03*
X0899487Y0690433D03*
X0919778Y0690433D03*
X0919778Y0677835D03*
X0958542Y0677835D03*
X0958542Y0690433D03*
X0978833Y0690433D03*
X0978833Y0677835D03*
X1017597Y0677835D03*
X1017597Y0690433D03*
X1037888Y0690433D03*
X1037888Y0677835D03*
X1076652Y0677835D03*
X1076652Y0690433D03*
X1096944Y0690433D03*
X1096944Y0677835D03*
X1135707Y0677835D03*
X1135707Y0690433D03*
X1155999Y0690433D03*
X1155999Y0677835D03*
X1194762Y0677835D03*
X1194762Y0690433D03*
X1215054Y0690433D03*
X1215054Y0677835D03*
X1253818Y0677835D03*
X1253818Y0690433D03*
X1274109Y0690433D03*
X1274109Y0677835D03*
X1274109Y0736890D03*
X1274109Y0749488D03*
X1253818Y0749488D03*
X1253818Y0736890D03*
X1215054Y0736890D03*
X1215054Y0749488D03*
X1194762Y0749488D03*
X1194762Y0736890D03*
X1155999Y0736890D03*
X1155999Y0749488D03*
X1135707Y0749488D03*
X1135707Y0736890D03*
X1096944Y0736890D03*
X1096944Y0749488D03*
X1076652Y0749488D03*
X1076652Y0736890D03*
X1037888Y0736890D03*
X1037888Y0749488D03*
X1017597Y0749488D03*
X1017597Y0736890D03*
X0978833Y0736890D03*
X0978833Y0749488D03*
X0958542Y0749488D03*
X0958542Y0736890D03*
X0919778Y0736890D03*
X0919778Y0749488D03*
X0899487Y0749488D03*
X0899487Y0736890D03*
X0860723Y0736890D03*
X0860723Y0749488D03*
X0840432Y0749488D03*
X0840432Y0736890D03*
X0801668Y0736890D03*
X0801668Y0749488D03*
X0781377Y0749488D03*
X0781377Y0736890D03*
X0742613Y0736890D03*
X0742613Y0749488D03*
X0722322Y0749488D03*
X0722322Y0736890D03*
X0683558Y0736890D03*
X0683558Y0749488D03*
X0663266Y0749488D03*
X0663266Y0736890D03*
X0624503Y0736890D03*
X0624503Y0749488D03*
X0604211Y0749488D03*
X0604211Y0736890D03*
X0565448Y0736890D03*
X0565448Y0749488D03*
X0545156Y0749488D03*
X0545156Y0736890D03*
X0506392Y0736890D03*
X0506392Y0749488D03*
X0486101Y0749488D03*
X0486101Y0736890D03*
X0447337Y0736890D03*
X0447337Y0749488D03*
X0427046Y0749488D03*
X0427046Y0736890D03*
X0388282Y0736890D03*
X0388282Y0749488D03*
X0367991Y0749488D03*
X0367991Y0736890D03*
X0329227Y0736890D03*
X0329227Y0749488D03*
X0308936Y0749488D03*
X0308936Y0736890D03*
X0270172Y0736890D03*
X0270172Y0749488D03*
X0249881Y0749488D03*
X0249881Y0736890D03*
X0211117Y0736890D03*
X0211117Y0749488D03*
X0190825Y0749488D03*
X0190825Y0736890D03*
X0152062Y0736890D03*
X0152062Y0749488D03*
X0131770Y0749488D03*
X0131770Y0736890D03*
X0093007Y0736890D03*
X0093007Y0749488D03*
X0072715Y0749488D03*
X0072715Y0736890D03*
X0072715Y0690433D03*
X0072715Y0677835D03*
X0093007Y0677835D03*
X0093007Y0690433D03*
X0131770Y0690433D03*
X0131770Y0677835D03*
X0152062Y0677835D03*
X0152062Y0690433D03*
X0190825Y0690433D03*
X0190825Y0677835D03*
X0211117Y0677835D03*
X0211117Y0690433D03*
X0249881Y0690433D03*
X0249881Y0677835D03*
X0270172Y0677835D03*
X0270172Y0690433D03*
X0308936Y0690433D03*
X0308936Y0677835D03*
X0329227Y0677835D03*
X0329227Y0690433D03*
X0329227Y0795945D03*
X0329227Y0808543D03*
X0308936Y0808543D03*
X0308936Y0795945D03*
X0270172Y0795945D03*
X0270172Y0808543D03*
X0249881Y0808543D03*
X0249881Y0795945D03*
X0211117Y0795945D03*
X0211117Y0808543D03*
X0190825Y0808543D03*
X0190825Y0795945D03*
X0152062Y0795945D03*
X0152062Y0808543D03*
X0131770Y0808543D03*
X0131770Y0795945D03*
X0367991Y0795945D03*
X0367991Y0808543D03*
X0388282Y0808543D03*
X0388282Y0795945D03*
X0427046Y0795945D03*
X0427046Y0808543D03*
X0447337Y0808543D03*
X0447337Y0795945D03*
X0486101Y0795945D03*
X0486101Y0808543D03*
X0506392Y0808543D03*
X0506392Y0795945D03*
X0545156Y0795945D03*
X0545156Y0808543D03*
X0565448Y0808543D03*
X0565448Y0795945D03*
X0604211Y0795945D03*
X0604211Y0808543D03*
X0624503Y0808543D03*
X0624503Y0795945D03*
X0663266Y0795945D03*
X0663266Y0808543D03*
X0683558Y0808543D03*
X0683558Y0795945D03*
X0722322Y0795945D03*
X0722322Y0808543D03*
X0742613Y0808543D03*
X0742613Y0795945D03*
X0781377Y0795945D03*
X0781377Y0808543D03*
X0801668Y0808543D03*
X0801668Y0795945D03*
X0840432Y0795945D03*
X0840432Y0808543D03*
X0860723Y0808543D03*
X0860723Y0795945D03*
X0899487Y0795945D03*
X0899487Y0808543D03*
X0919778Y0808543D03*
X0919778Y0795945D03*
X0958542Y0795945D03*
X0958542Y0808543D03*
X0978833Y0808543D03*
X0978833Y0795945D03*
X1017597Y0795945D03*
X1017597Y0808543D03*
X1037888Y0808543D03*
X1037888Y0795945D03*
X1076652Y0795945D03*
X1076652Y0808543D03*
X1096944Y0808543D03*
X1096944Y0795945D03*
X1135707Y0795945D03*
X1135707Y0808543D03*
X1155999Y0808543D03*
X1155999Y0795945D03*
X1194762Y0795945D03*
X1194762Y0808543D03*
X1215054Y0808543D03*
X1215054Y0795945D03*
M02*
