M48
;GenerationSoftware,Autodesk,EAGLE,9.6.0*%
;CreationDate,2020-09-24T02:54:02Z*%
FMAT,2
ICI,OFF
METRIC,TZ,000.000
T5C0.381
T4C0.650
T3C0.900
T2C1.200
T1C3.302
%
G90
M71
T1
X7750Y175160
X287860Y7750
X7500Y7500
X165839Y175160
X129771Y7750
X287860Y175160
T2
X303900Y47000
X296900Y47000
T3
X18850Y21570
T4
X300555Y26110
X300555Y31890
T5
X38704Y15557
X38450Y19002
X26936Y16002
X13000Y15500
X20396Y19277
X7181Y15549
X20338Y21726
X6920Y22860
X17070Y18400
X23620Y21420
X22961Y15008
X29740Y22870
X30780Y21320
X293460Y30300
X293460Y27800
X51450Y20002
X50204Y14557
X19587Y23016
X293500Y23500
X303450Y28150
X302000Y30500
X297000Y24000
X302500Y36000
X302500Y41500
X301500Y46500
X292850Y45350
X293500Y43000
X298000Y42500
X295950Y40050
X18070Y10400
X22448Y5905
X26032Y9306
X17368Y13525
X270305Y169500
X255305Y169500
X240305Y169500
X225305Y169500
X210305Y169500
X195305Y169500
X180305Y169500
X120305Y169500
X105305Y169500
X90305Y169500
X75305Y169500
X60305Y169500
X45305Y169500
X30305Y169500
X15305Y152000
X30305Y154500
X45305Y154500
X60305Y154500
X75305Y154500
X90305Y154500
X105305Y154500
X120305Y154500
X135305Y154500
X150305Y154500
X165305Y154500
X180305Y154500
X195305Y154500
X210305Y154500
X225305Y154500
X240305Y154500
X255305Y154500
X270305Y154500
X285305Y154500
X285305Y139500
X270305Y139500
X255305Y139500
X240305Y139500
X225305Y139500
X210305Y139500
X195305Y139500
X180305Y139500
X165305Y139500
X150305Y139500
X135305Y139500
X120305Y139500
X105305Y139500
X90305Y139500
X75305Y139500
X60305Y139500
X45305Y139500
X30305Y139500
X15305Y138750
X15305Y124000
X30305Y124000
X45305Y124500
X60305Y124500
X75305Y124500
X90305Y124500
X105305Y124500
X120305Y124500
X135305Y124500
X150305Y124500
X165305Y124500
X180305Y124500
X195305Y124500
X210305Y124500
X225305Y124500
X240305Y124500
X255305Y124500
X270305Y124500
X285305Y124500
X285305Y109500
X270305Y109500
X255305Y109500
X240305Y109500
X225305Y109500
X210305Y109500
X195305Y109500
X180305Y109500
X165305Y109500
X150305Y109500
X135305Y109500
X120305Y109500
X105305Y109500
X90305Y109500
X75305Y109500
X60305Y109500
X45305Y109500
X30305Y109500
X15305Y109500
X15305Y94500
X30305Y94500
X45305Y94500
X60305Y94500
X75305Y94500
X90305Y94500
X105305Y94500
X120305Y94500
X135305Y94500
X150305Y94500
X165305Y94500
X180305Y94500
X195305Y94500
X210305Y94500
X225305Y94500
X240305Y94500
X255305Y94500
X270305Y94500
X285305Y94500
X15305Y79500
X30305Y79500
X45305Y79500
X60305Y79500
X75305Y79500
X90305Y79500
X105305Y79500
X120305Y79500
X135305Y79500
X150305Y79500
X165305Y79500
X180305Y79500
X195305Y79500
X210305Y79500
X225305Y79500
X240305Y79500
X255305Y79500
X270305Y79500
X285305Y79500
X15305Y64500
X30305Y64500
X45305Y64500
X60305Y64500
X75305Y64500
X90305Y64500
X105305Y64500
X120305Y64500
X135305Y64500
X150305Y64500
X165305Y64500
X180305Y64500
X195305Y64500
X210305Y64500
X225305Y64500
X270305Y64500
X285305Y64500
X287305Y51800
X270305Y49500
X255305Y49500
X240305Y49500
X225305Y49500
X210305Y49500
X195305Y49500
X180305Y49500
X165305Y49500
X150305Y49500
X135305Y49500
X120305Y49500
X105305Y49500
X90305Y49500
X75305Y49500
X60305Y49500
X45305Y49500
X30305Y49500
X15305Y49500
X29255Y34550
X45305Y34500
X60305Y34500
X75305Y34500
X90305Y34500
X105305Y34500
X120305Y34500
X135305Y34500
X150305Y34500
X165305Y34500
X180305Y34500
X195305Y34500
X210305Y34500
X225305Y34500
X240305Y34500
X255305Y34500
X270305Y34500
X285305Y34500
X285305Y19500
X270305Y19500
X255305Y19500
X240305Y19500
X225305Y19500
X210305Y19500
X195305Y19500
X180305Y19500
X165305Y19500
X150305Y19500
X135305Y19500
X120305Y19500
X10030Y15900
X90305Y19500
X105305Y4500
X90305Y4500
X75305Y4500
X120305Y4500
X195305Y4500
X210305Y4500
X225305Y4500
X240305Y4500
X255305Y4500
X270305Y4500
X286610Y30000
X288610Y30000
X287610Y30000
X286110Y26500
X287110Y26500
X288110Y26500
X289110Y26500
X289610Y30000
X15305Y34500
X75305Y19500
X240250Y64500
X255400Y64500
X180350Y4200
X12000Y25500
X23083Y7810
X22321Y10985
X27560Y13144
X37180Y9715
X34640Y11620
X30060Y14160
X297817Y30045
X297817Y28545
X42066Y29934
X40000Y28000
X44300Y29998
X44000Y28000
X750Y40000
X105305Y19500
X15005Y26700
X51905Y35900
X48705Y39100
X33705Y39100
X35955Y36950
X282500Y40000
X68550Y17450
X15305Y30000
X282500Y25000
X72805Y5000
X267500Y175000
X12805Y155000
X12805Y140000
X282500Y160000
X282500Y145000
X12805Y125000
X12805Y110000
X282500Y130000
X12805Y95000
X282500Y115000
X12805Y80000
X282500Y100000
X282500Y85000
X12805Y65000
X12805Y50000
X282500Y70000
X282500Y55000
X12305Y35500
X21305Y12382
X22905Y20200
X29799Y19656
X53500Y30500
X50000Y23844
X31330Y16457
X48737Y21031
X10284Y20587
X30322Y10985
X28798Y11112
X27805Y25000
M30