G04 EAGLE Gerber RS-274X export*
G75*
%MOMM*%
%FSLAX34Y34*%
%LPD*%
%INSilkscreen Top*%
%IPPOS*%
%AMOC8*
5,1,8,0,0,1.08239X$1,22.5*%
G01*
%ADD10C,0.203200*%
%ADD11C,0.152400*%
%ADD12C,0.508000*%
%ADD13C,0.127000*%
%ADD14C,0.254000*%
%ADD15C,0.254000*%
%ADD16R,10.590000X0.040000*%
%ADD17R,11.000000X0.030000*%
%ADD18R,0.480000X0.040000*%
%ADD19R,0.110000X0.040000*%
%ADD20R,0.600000X0.040000*%
%ADD21R,0.370000X0.040000*%
%ADD22R,0.330000X0.040000*%
%ADD23R,0.300000X0.030000*%
%ADD24R,0.220000X0.030000*%
%ADD25R,0.110000X0.030000*%
%ADD26R,0.220000X0.040000*%
%ADD27R,10.820000X0.040000*%
%ADD28R,0.250000X0.040000*%
%ADD29R,11.110000X0.040000*%
%ADD30R,2.340000X0.040000*%
%ADD31R,0.070000X0.040000*%
%ADD32R,0.180000X0.040000*%
%ADD33R,1.780000X0.040000*%
%ADD34R,0.190000X0.030000*%
%ADD35R,0.370000X0.030000*%
%ADD36R,0.410000X0.030000*%
%ADD37R,0.190000X0.040000*%
%ADD38R,0.300000X0.040000*%
%ADD39R,0.260000X0.040000*%
%ADD40R,0.140000X0.030000*%
%ADD41R,0.250000X0.030000*%
%ADD42R,0.150000X0.040000*%
%ADD43R,0.230000X0.040000*%
%ADD44R,0.140000X0.040000*%
%ADD45R,0.230000X0.030000*%
%ADD46R,0.150000X0.030000*%
%ADD47R,0.120000X0.040000*%
%ADD48R,0.180000X0.030000*%
%ADD49R,0.120000X0.030000*%
%ADD50R,0.550000X0.040000*%
%ADD51R,0.670000X0.040000*%
%ADD52R,0.630000X0.040000*%
%ADD53R,0.750000X0.030000*%
%ADD54R,0.670000X0.030000*%
%ADD55R,0.820000X0.040000*%
%ADD56R,0.340000X0.040000*%
%ADD57R,0.330000X0.030000*%
%ADD58R,0.260000X0.030000*%
%ADD59R,0.290000X0.030000*%
%ADD60R,0.290000X0.040000*%
%ADD61R,0.340000X0.030000*%
%ADD62R,0.070000X0.030000*%
%ADD63R,0.080000X0.040000*%
%ADD64R,0.080000X0.030000*%
%ADD65R,1.230000X0.040000*%
%ADD66R,0.700000X0.030000*%
%ADD67R,1.330000X0.030000*%
%ADD68R,0.740000X0.040000*%
%ADD69R,0.520000X0.040000*%
%ADD70R,1.330000X0.040000*%
%ADD71R,0.710000X0.040000*%
%ADD72R,0.040000X0.040000*%
%ADD73R,1.340000X0.040000*%
%ADD74R,1.260000X0.030000*%
%ADD75R,0.450000X0.040000*%
%ADD76R,0.780000X0.040000*%
%ADD77R,0.410000X0.040000*%
%ADD78R,0.510000X0.040000*%
%ADD79R,0.890000X0.040000*%
%ADD80R,1.820000X0.040000*%
%ADD81R,0.400000X0.040000*%
%ADD82R,0.480000X0.030000*%
%ADD83R,1.740000X0.030000*%
%ADD84R,0.440000X0.030000*%
%ADD85R,1.740000X0.040000*%
%ADD86R,0.440000X0.040000*%
%ADD87R,0.590000X0.030000*%
%ADD88R,0.960000X0.030000*%
%ADD89R,0.520000X0.030000*%
%ADD90R,1.410000X0.030000*%
%ADD91R,0.560000X0.030000*%
%ADD92R,1.600000X0.040000*%
%ADD93R,0.490000X0.040000*%
%ADD94R,2.230000X0.040000*%
%ADD95R,1.070000X0.040000*%
%ADD96R,1.960000X0.040000*%
%ADD97R,0.590000X0.040000*%
%ADD98R,0.700000X0.040000*%
%ADD99R,1.850000X0.040000*%
%ADD100R,1.040000X0.030000*%
%ADD101R,1.290000X0.030000*%
%ADD102R,0.550000X0.030000*%
%ADD103R,1.260000X0.040000*%
%ADD104R,1.190000X0.040000*%
%ADD105R,0.040000X0.030000*%
%ADD106R,0.380000X0.040000*%
%ADD107R,11.220000X0.030000*%
%ADD108R,11.030000X0.040000*%
%ADD109R,3.220000X0.040000*%
%ADD110R,3.590000X0.040000*%
%ADD111R,4.960000X0.040000*%
%ADD112R,2.300000X0.040000*%
%ADD113R,3.810000X0.040000*%
%ADD114R,10.850000X0.040000*%
%ADD115R,2.110000X0.030000*%
%ADD116R,1.630000X0.030000*%
%ADD117C,0.406400*%


D10*
X285025Y153996D02*
X288581Y153996D01*
X288676Y153998D01*
X288772Y154004D01*
X288867Y154013D01*
X288961Y154027D01*
X289055Y154044D01*
X289148Y154065D01*
X289241Y154090D01*
X289332Y154118D01*
X289422Y154150D01*
X289510Y154186D01*
X289597Y154225D01*
X289683Y154268D01*
X289767Y154314D01*
X289848Y154363D01*
X289928Y154416D01*
X290005Y154472D01*
X290081Y154530D01*
X290153Y154592D01*
X290223Y154657D01*
X290291Y154725D01*
X290356Y154795D01*
X290418Y154867D01*
X290476Y154943D01*
X290532Y155020D01*
X290585Y155100D01*
X290634Y155182D01*
X290680Y155265D01*
X290723Y155351D01*
X290762Y155438D01*
X290798Y155526D01*
X290830Y155616D01*
X290858Y155707D01*
X290883Y155800D01*
X290904Y155893D01*
X290921Y155987D01*
X290935Y156081D01*
X290944Y156176D01*
X290950Y156272D01*
X290952Y156367D01*
X290951Y156367D02*
X290951Y157552D01*
X290952Y157552D02*
X290950Y157647D01*
X290944Y157743D01*
X290935Y157838D01*
X290921Y157932D01*
X290904Y158026D01*
X290883Y158119D01*
X290858Y158212D01*
X290830Y158303D01*
X290798Y158393D01*
X290762Y158481D01*
X290723Y158568D01*
X290680Y158654D01*
X290634Y158738D01*
X290585Y158819D01*
X290532Y158899D01*
X290476Y158976D01*
X290418Y159052D01*
X290356Y159124D01*
X290291Y159194D01*
X290223Y159262D01*
X290153Y159327D01*
X290081Y159389D01*
X290005Y159447D01*
X289928Y159503D01*
X289848Y159556D01*
X289767Y159605D01*
X289683Y159651D01*
X289597Y159694D01*
X289510Y159733D01*
X289422Y159769D01*
X289332Y159801D01*
X289241Y159829D01*
X289148Y159854D01*
X289055Y159875D01*
X288961Y159892D01*
X288867Y159906D01*
X288772Y159915D01*
X288676Y159921D01*
X288581Y159923D01*
X285025Y159923D01*
X285025Y164664D01*
X290951Y164664D01*
X295862Y164664D02*
X299418Y153996D01*
X302974Y164664D01*
X3037666Y365030D02*
X3040037Y362066D01*
X3037666Y365030D02*
X3048334Y365030D01*
X3048334Y367993D02*
X3048334Y362066D01*
X3048334Y373496D02*
X3048334Y376460D01*
X3048332Y376567D01*
X3048326Y376674D01*
X3048317Y376780D01*
X3048303Y376886D01*
X3048286Y376992D01*
X3048265Y377097D01*
X3048240Y377201D01*
X3048211Y377304D01*
X3048179Y377406D01*
X3048143Y377507D01*
X3048103Y377606D01*
X3048060Y377704D01*
X3048013Y377800D01*
X3047963Y377895D01*
X3047910Y377988D01*
X3047853Y378078D01*
X3047793Y378167D01*
X3047730Y378253D01*
X3047664Y378337D01*
X3047594Y378419D01*
X3047522Y378498D01*
X3047447Y378574D01*
X3047369Y378648D01*
X3047289Y378718D01*
X3047206Y378786D01*
X3047121Y378851D01*
X3047034Y378912D01*
X3046944Y378971D01*
X3046853Y379026D01*
X3046759Y379078D01*
X3046663Y379126D01*
X3046566Y379171D01*
X3046468Y379213D01*
X3046368Y379250D01*
X3046266Y379285D01*
X3046164Y379315D01*
X3046060Y379342D01*
X3045956Y379365D01*
X3045850Y379384D01*
X3045744Y379399D01*
X3045638Y379411D01*
X3045531Y379419D01*
X3045424Y379423D01*
X3045318Y379423D01*
X3045211Y379419D01*
X3045104Y379411D01*
X3044998Y379399D01*
X3044892Y379384D01*
X3044786Y379365D01*
X3044682Y379342D01*
X3044578Y379315D01*
X3044476Y379285D01*
X3044374Y379250D01*
X3044274Y379213D01*
X3044176Y379171D01*
X3044079Y379126D01*
X3043983Y379078D01*
X3043890Y379026D01*
X3043798Y378971D01*
X3043708Y378912D01*
X3043621Y378851D01*
X3043536Y378786D01*
X3043453Y378718D01*
X3043373Y378648D01*
X3043295Y378574D01*
X3043220Y378498D01*
X3043148Y378419D01*
X3043078Y378337D01*
X3043012Y378253D01*
X3042949Y378167D01*
X3042889Y378078D01*
X3042832Y377988D01*
X3042779Y377895D01*
X3042729Y377800D01*
X3042682Y377704D01*
X3042639Y377606D01*
X3042599Y377507D01*
X3042563Y377406D01*
X3042531Y377304D01*
X3042502Y377201D01*
X3042477Y377097D01*
X3042456Y376992D01*
X3042439Y376886D01*
X3042425Y376780D01*
X3042416Y376674D01*
X3042410Y376567D01*
X3042408Y376460D01*
X3037666Y377052D02*
X3037666Y373496D01*
X3037666Y377052D02*
X3037668Y377149D01*
X3037674Y377245D01*
X3037684Y377341D01*
X3037698Y377437D01*
X3037715Y377532D01*
X3037737Y377627D01*
X3037762Y377720D01*
X3037791Y377812D01*
X3037824Y377903D01*
X3037861Y377993D01*
X3037901Y378081D01*
X3037945Y378167D01*
X3037992Y378251D01*
X3038042Y378334D01*
X3038096Y378414D01*
X3038154Y378492D01*
X3038214Y378568D01*
X3038277Y378641D01*
X3038343Y378711D01*
X3038413Y378779D01*
X3038484Y378844D01*
X3038559Y378906D01*
X3038636Y378964D01*
X3038715Y379020D01*
X3038796Y379072D01*
X3038880Y379121D01*
X3038965Y379167D01*
X3039052Y379209D01*
X3039141Y379247D01*
X3039231Y379282D01*
X3039323Y379313D01*
X3039416Y379340D01*
X3039509Y379364D01*
X3039604Y379383D01*
X3039700Y379399D01*
X3039796Y379411D01*
X3039892Y379419D01*
X3039989Y379423D01*
X3040085Y379423D01*
X3040182Y379419D01*
X3040278Y379411D01*
X3040374Y379399D01*
X3040470Y379383D01*
X3040565Y379364D01*
X3040658Y379340D01*
X3040751Y379313D01*
X3040843Y379282D01*
X3040933Y379247D01*
X3041022Y379209D01*
X3041109Y379167D01*
X3041194Y379121D01*
X3041278Y379072D01*
X3041359Y379020D01*
X3041438Y378964D01*
X3041515Y378906D01*
X3041590Y378844D01*
X3041661Y378779D01*
X3041731Y378711D01*
X3041797Y378641D01*
X3041860Y378568D01*
X3041920Y378492D01*
X3041978Y378414D01*
X3042032Y378334D01*
X3042082Y378251D01*
X3042129Y378167D01*
X3042173Y378081D01*
X3042213Y377993D01*
X3042250Y377903D01*
X3042283Y377812D01*
X3042312Y377720D01*
X3042337Y377627D01*
X3042359Y377532D01*
X3042376Y377437D01*
X3042390Y377341D01*
X3042400Y377245D01*
X3042406Y377149D01*
X3042408Y377052D01*
X3042407Y377052D02*
X3042407Y374682D01*
X3037666Y387128D02*
X3048334Y387128D01*
X3037666Y390091D02*
X3037666Y384164D01*
X3042407Y395467D02*
X3042407Y398431D01*
X3042408Y398431D02*
X3042410Y398538D01*
X3042416Y398645D01*
X3042425Y398751D01*
X3042439Y398857D01*
X3042456Y398963D01*
X3042477Y399068D01*
X3042502Y399172D01*
X3042531Y399275D01*
X3042563Y399377D01*
X3042599Y399478D01*
X3042639Y399577D01*
X3042682Y399675D01*
X3042729Y399771D01*
X3042779Y399866D01*
X3042832Y399959D01*
X3042889Y400049D01*
X3042949Y400138D01*
X3043012Y400224D01*
X3043078Y400308D01*
X3043148Y400390D01*
X3043220Y400469D01*
X3043295Y400545D01*
X3043373Y400619D01*
X3043453Y400689D01*
X3043536Y400757D01*
X3043621Y400822D01*
X3043708Y400883D01*
X3043798Y400942D01*
X3043890Y400997D01*
X3043983Y401049D01*
X3044079Y401097D01*
X3044176Y401142D01*
X3044274Y401184D01*
X3044374Y401221D01*
X3044476Y401256D01*
X3044578Y401286D01*
X3044682Y401313D01*
X3044786Y401336D01*
X3044892Y401355D01*
X3044998Y401370D01*
X3045104Y401382D01*
X3045211Y401390D01*
X3045318Y401394D01*
X3045424Y401394D01*
X3045531Y401390D01*
X3045638Y401382D01*
X3045744Y401370D01*
X3045850Y401355D01*
X3045956Y401336D01*
X3046060Y401313D01*
X3046164Y401286D01*
X3046266Y401256D01*
X3046368Y401221D01*
X3046468Y401184D01*
X3046566Y401142D01*
X3046663Y401097D01*
X3046759Y401049D01*
X3046853Y400997D01*
X3046944Y400942D01*
X3047034Y400883D01*
X3047121Y400822D01*
X3047206Y400757D01*
X3047289Y400689D01*
X3047369Y400619D01*
X3047447Y400545D01*
X3047522Y400469D01*
X3047594Y400390D01*
X3047664Y400308D01*
X3047730Y400224D01*
X3047793Y400138D01*
X3047853Y400049D01*
X3047910Y399959D01*
X3047963Y399866D01*
X3048013Y399771D01*
X3048060Y399675D01*
X3048103Y399577D01*
X3048143Y399478D01*
X3048179Y399377D01*
X3048211Y399275D01*
X3048240Y399172D01*
X3048265Y399068D01*
X3048286Y398963D01*
X3048303Y398857D01*
X3048317Y398751D01*
X3048326Y398645D01*
X3048332Y398538D01*
X3048334Y398431D01*
X3048334Y395467D01*
X3037666Y395467D01*
X3037666Y398431D01*
X3037668Y398528D01*
X3037674Y398624D01*
X3037684Y398720D01*
X3037698Y398816D01*
X3037715Y398911D01*
X3037737Y399006D01*
X3037762Y399099D01*
X3037791Y399191D01*
X3037824Y399282D01*
X3037861Y399372D01*
X3037901Y399460D01*
X3037945Y399546D01*
X3037992Y399630D01*
X3038042Y399713D01*
X3038096Y399793D01*
X3038154Y399871D01*
X3038214Y399947D01*
X3038277Y400020D01*
X3038343Y400090D01*
X3038413Y400158D01*
X3038484Y400223D01*
X3038559Y400285D01*
X3038636Y400343D01*
X3038715Y400399D01*
X3038796Y400451D01*
X3038880Y400500D01*
X3038965Y400546D01*
X3039052Y400588D01*
X3039141Y400626D01*
X3039231Y400661D01*
X3039323Y400692D01*
X3039416Y400719D01*
X3039509Y400743D01*
X3039604Y400762D01*
X3039700Y400778D01*
X3039796Y400790D01*
X3039892Y400798D01*
X3039989Y400802D01*
X3040085Y400802D01*
X3040182Y400798D01*
X3040278Y400790D01*
X3040374Y400778D01*
X3040470Y400762D01*
X3040565Y400743D01*
X3040658Y400719D01*
X3040751Y400692D01*
X3040843Y400661D01*
X3040933Y400626D01*
X3041022Y400588D01*
X3041109Y400546D01*
X3041194Y400500D01*
X3041278Y400451D01*
X3041359Y400399D01*
X3041438Y400343D01*
X3041515Y400285D01*
X3041590Y400223D01*
X3041661Y400158D01*
X3041731Y400090D01*
X3041797Y400020D01*
X3041860Y399947D01*
X3041920Y399871D01*
X3041978Y399793D01*
X3042032Y399713D01*
X3042082Y399630D01*
X3042129Y399546D01*
X3042173Y399460D01*
X3042213Y399372D01*
X3042250Y399282D01*
X3042283Y399191D01*
X3042312Y399099D01*
X3042337Y399006D01*
X3042359Y398911D01*
X3042376Y398816D01*
X3042390Y398720D01*
X3042400Y398624D01*
X3042406Y398528D01*
X3042408Y398431D01*
D11*
X284709Y133218D02*
X284709Y124582D01*
X284709Y133218D02*
X287108Y133218D01*
X287205Y133216D01*
X287301Y133210D01*
X287397Y133201D01*
X287493Y133187D01*
X287588Y133170D01*
X287682Y133148D01*
X287775Y133123D01*
X287868Y133095D01*
X287959Y133062D01*
X288048Y133026D01*
X288136Y132986D01*
X288223Y132943D01*
X288308Y132897D01*
X288390Y132847D01*
X288471Y132793D01*
X288549Y132737D01*
X288625Y132677D01*
X288699Y132615D01*
X288770Y132549D01*
X288838Y132481D01*
X288904Y132410D01*
X288966Y132336D01*
X289026Y132260D01*
X289082Y132182D01*
X289136Y132101D01*
X289186Y132018D01*
X289232Y131934D01*
X289275Y131847D01*
X289315Y131759D01*
X289351Y131670D01*
X289384Y131579D01*
X289412Y131486D01*
X289437Y131393D01*
X289459Y131299D01*
X289476Y131204D01*
X289490Y131108D01*
X289499Y131012D01*
X289505Y130916D01*
X289507Y130819D01*
X289505Y130722D01*
X289499Y130626D01*
X289490Y130530D01*
X289476Y130434D01*
X289459Y130339D01*
X289437Y130245D01*
X289412Y130152D01*
X289384Y130059D01*
X289351Y129968D01*
X289315Y129879D01*
X289275Y129791D01*
X289232Y129704D01*
X289186Y129619D01*
X289136Y129537D01*
X289082Y129456D01*
X289026Y129378D01*
X288966Y129302D01*
X288904Y129228D01*
X288838Y129157D01*
X288770Y129089D01*
X288699Y129023D01*
X288625Y128961D01*
X288549Y128901D01*
X288471Y128845D01*
X288390Y128791D01*
X288308Y128741D01*
X288223Y128695D01*
X288136Y128652D01*
X288048Y128612D01*
X287959Y128576D01*
X287868Y128543D01*
X287775Y128515D01*
X287682Y128490D01*
X287588Y128468D01*
X287493Y128451D01*
X287397Y128437D01*
X287301Y128428D01*
X287205Y128422D01*
X287108Y128420D01*
X284709Y128420D01*
X287588Y128420D02*
X289507Y124582D01*
X296342Y124582D02*
X296428Y124584D01*
X296514Y124590D01*
X296600Y124599D01*
X296685Y124613D01*
X296769Y124630D01*
X296853Y124651D01*
X296935Y124676D01*
X297016Y124704D01*
X297096Y124736D01*
X297175Y124772D01*
X297251Y124811D01*
X297326Y124854D01*
X297399Y124899D01*
X297470Y124949D01*
X297538Y125001D01*
X297605Y125056D01*
X297668Y125114D01*
X297729Y125175D01*
X297787Y125238D01*
X297842Y125305D01*
X297895Y125373D01*
X297944Y125444D01*
X297989Y125517D01*
X298032Y125592D01*
X298071Y125668D01*
X298107Y125747D01*
X298139Y125827D01*
X298167Y125908D01*
X298192Y125990D01*
X298213Y126074D01*
X298230Y126158D01*
X298244Y126243D01*
X298253Y126329D01*
X298259Y126415D01*
X298261Y126501D01*
X296342Y124582D02*
X296219Y124584D01*
X296096Y124589D01*
X295973Y124599D01*
X295851Y124612D01*
X295729Y124629D01*
X295607Y124649D01*
X295487Y124673D01*
X295367Y124701D01*
X295248Y124732D01*
X295130Y124767D01*
X295013Y124806D01*
X294897Y124848D01*
X294783Y124894D01*
X294670Y124943D01*
X294559Y124995D01*
X294449Y125051D01*
X294341Y125110D01*
X294235Y125173D01*
X294130Y125238D01*
X294028Y125307D01*
X293928Y125379D01*
X293831Y125454D01*
X293735Y125531D01*
X293642Y125612D01*
X293551Y125695D01*
X293463Y125781D01*
X293704Y131299D02*
X293706Y131385D01*
X293712Y131471D01*
X293721Y131557D01*
X293735Y131642D01*
X293752Y131726D01*
X293773Y131810D01*
X293798Y131892D01*
X293826Y131973D01*
X293858Y132053D01*
X293894Y132132D01*
X293933Y132208D01*
X293976Y132283D01*
X294021Y132356D01*
X294070Y132427D01*
X294123Y132495D01*
X294178Y132562D01*
X294236Y132625D01*
X294297Y132686D01*
X294360Y132744D01*
X294427Y132799D01*
X294495Y132852D01*
X294566Y132901D01*
X294639Y132946D01*
X294714Y132989D01*
X294790Y133028D01*
X294869Y133064D01*
X294949Y133096D01*
X295030Y133124D01*
X295112Y133149D01*
X295196Y133170D01*
X295280Y133187D01*
X295365Y133201D01*
X295451Y133210D01*
X295537Y133216D01*
X295623Y133218D01*
X295739Y133216D01*
X295854Y133211D01*
X295970Y133201D01*
X296085Y133188D01*
X296199Y133172D01*
X296313Y133151D01*
X296427Y133127D01*
X296539Y133099D01*
X296650Y133068D01*
X296761Y133033D01*
X296870Y132995D01*
X296978Y132953D01*
X297084Y132908D01*
X297190Y132859D01*
X297293Y132807D01*
X297395Y132752D01*
X297494Y132693D01*
X297592Y132631D01*
X297688Y132566D01*
X297782Y132498D01*
X294663Y129620D02*
X294589Y129666D01*
X294516Y129716D01*
X294446Y129769D01*
X294378Y129825D01*
X294313Y129884D01*
X294250Y129946D01*
X294191Y130011D01*
X294134Y130078D01*
X294080Y130148D01*
X294030Y130220D01*
X293983Y130294D01*
X293939Y130370D01*
X293899Y130449D01*
X293863Y130529D01*
X293830Y130610D01*
X293801Y130693D01*
X293775Y130778D01*
X293753Y130863D01*
X293736Y130949D01*
X293722Y131036D01*
X293712Y131123D01*
X293706Y131211D01*
X293704Y131299D01*
X297302Y128180D02*
X297376Y128134D01*
X297449Y128084D01*
X297519Y128031D01*
X297587Y127975D01*
X297652Y127916D01*
X297715Y127854D01*
X297774Y127789D01*
X297831Y127722D01*
X297885Y127652D01*
X297935Y127580D01*
X297982Y127506D01*
X298026Y127430D01*
X298066Y127351D01*
X298102Y127271D01*
X298135Y127190D01*
X298164Y127107D01*
X298190Y127022D01*
X298212Y126937D01*
X298229Y126851D01*
X298243Y126764D01*
X298253Y126677D01*
X298259Y126589D01*
X298261Y126501D01*
X297302Y128180D02*
X294663Y129620D01*
X304092Y133218D02*
X304092Y124582D01*
X301693Y133218D02*
X306491Y133218D01*
D12*
X258135Y94610D03*
D10*
X255976Y90673D02*
X255976Y76957D01*
X233624Y76957D02*
X233624Y91943D01*
X254579Y76957D02*
X255976Y76957D01*
X235021Y76957D02*
X233624Y76957D01*
X254579Y91943D02*
X255976Y90673D01*
X235021Y91943D02*
X233624Y91943D01*
D13*
X287550Y103500D02*
X287552Y103698D01*
X287560Y103895D01*
X287572Y104092D01*
X287589Y104289D01*
X287611Y104485D01*
X287637Y104681D01*
X287669Y104876D01*
X287705Y105070D01*
X287746Y105264D01*
X287791Y105456D01*
X287842Y105647D01*
X287897Y105837D01*
X287956Y106025D01*
X288021Y106212D01*
X288089Y106397D01*
X288163Y106581D01*
X288241Y106762D01*
X288323Y106942D01*
X288410Y107119D01*
X288501Y107295D01*
X288596Y107468D01*
X288695Y107639D01*
X288799Y107807D01*
X288907Y107972D01*
X289018Y108135D01*
X289134Y108295D01*
X289254Y108453D01*
X289377Y108607D01*
X289504Y108758D01*
X289635Y108906D01*
X289770Y109051D01*
X289908Y109192D01*
X290049Y109330D01*
X290194Y109465D01*
X290342Y109596D01*
X290493Y109723D01*
X290647Y109846D01*
X290805Y109966D01*
X290965Y110082D01*
X291128Y110193D01*
X291293Y110301D01*
X291461Y110405D01*
X291632Y110504D01*
X291805Y110599D01*
X291981Y110690D01*
X292158Y110777D01*
X292338Y110859D01*
X292519Y110937D01*
X292703Y111011D01*
X292888Y111079D01*
X293075Y111144D01*
X293263Y111203D01*
X293453Y111258D01*
X293644Y111309D01*
X293836Y111354D01*
X294030Y111395D01*
X294224Y111431D01*
X294419Y111463D01*
X294615Y111489D01*
X294811Y111511D01*
X295008Y111528D01*
X295205Y111540D01*
X295402Y111548D01*
X295600Y111550D01*
X295798Y111548D01*
X295995Y111540D01*
X296192Y111528D01*
X296389Y111511D01*
X296585Y111489D01*
X296781Y111463D01*
X296976Y111431D01*
X297170Y111395D01*
X297364Y111354D01*
X297556Y111309D01*
X297747Y111258D01*
X297937Y111203D01*
X298125Y111144D01*
X298312Y111079D01*
X298497Y111011D01*
X298681Y110937D01*
X298862Y110859D01*
X299042Y110777D01*
X299219Y110690D01*
X299395Y110599D01*
X299568Y110504D01*
X299739Y110405D01*
X299907Y110301D01*
X300072Y110193D01*
X300235Y110082D01*
X300395Y109966D01*
X300553Y109846D01*
X300707Y109723D01*
X300858Y109596D01*
X301006Y109465D01*
X301151Y109330D01*
X301292Y109192D01*
X301430Y109051D01*
X301565Y108906D01*
X301696Y108758D01*
X301823Y108607D01*
X301946Y108453D01*
X302066Y108295D01*
X302182Y108135D01*
X302293Y107972D01*
X302401Y107807D01*
X302505Y107639D01*
X302604Y107468D01*
X302699Y107295D01*
X302790Y107119D01*
X302877Y106942D01*
X302959Y106762D01*
X303037Y106581D01*
X303111Y106397D01*
X303179Y106212D01*
X303244Y106025D01*
X303303Y105837D01*
X303358Y105647D01*
X303409Y105456D01*
X303454Y105264D01*
X303495Y105070D01*
X303531Y104876D01*
X303563Y104681D01*
X303589Y104485D01*
X303611Y104289D01*
X303628Y104092D01*
X303640Y103895D01*
X303648Y103698D01*
X303650Y103500D01*
X303648Y103302D01*
X303640Y103105D01*
X303628Y102908D01*
X303611Y102711D01*
X303589Y102515D01*
X303563Y102319D01*
X303531Y102124D01*
X303495Y101930D01*
X303454Y101736D01*
X303409Y101544D01*
X303358Y101353D01*
X303303Y101163D01*
X303244Y100975D01*
X303179Y100788D01*
X303111Y100603D01*
X303037Y100419D01*
X302959Y100238D01*
X302877Y100058D01*
X302790Y99881D01*
X302699Y99705D01*
X302604Y99532D01*
X302505Y99361D01*
X302401Y99193D01*
X302293Y99028D01*
X302182Y98865D01*
X302066Y98705D01*
X301946Y98547D01*
X301823Y98393D01*
X301696Y98242D01*
X301565Y98094D01*
X301430Y97949D01*
X301292Y97808D01*
X301151Y97670D01*
X301006Y97535D01*
X300858Y97404D01*
X300707Y97277D01*
X300553Y97154D01*
X300395Y97034D01*
X300235Y96918D01*
X300072Y96807D01*
X299907Y96699D01*
X299739Y96595D01*
X299568Y96496D01*
X299395Y96401D01*
X299219Y96310D01*
X299042Y96223D01*
X298862Y96141D01*
X298681Y96063D01*
X298497Y95989D01*
X298312Y95921D01*
X298125Y95856D01*
X297937Y95797D01*
X297747Y95742D01*
X297556Y95691D01*
X297364Y95646D01*
X297170Y95605D01*
X296976Y95569D01*
X296781Y95537D01*
X296585Y95511D01*
X296389Y95489D01*
X296192Y95472D01*
X295995Y95460D01*
X295798Y95452D01*
X295600Y95450D01*
X295402Y95452D01*
X295205Y95460D01*
X295008Y95472D01*
X294811Y95489D01*
X294615Y95511D01*
X294419Y95537D01*
X294224Y95569D01*
X294030Y95605D01*
X293836Y95646D01*
X293644Y95691D01*
X293453Y95742D01*
X293263Y95797D01*
X293075Y95856D01*
X292888Y95921D01*
X292703Y95989D01*
X292519Y96063D01*
X292338Y96141D01*
X292158Y96223D01*
X291981Y96310D01*
X291805Y96401D01*
X291632Y96496D01*
X291461Y96595D01*
X291293Y96699D01*
X291128Y96807D01*
X290965Y96918D01*
X290805Y97034D01*
X290647Y97154D01*
X290493Y97277D01*
X290342Y97404D01*
X290194Y97535D01*
X290049Y97670D01*
X289908Y97808D01*
X289770Y97949D01*
X289635Y98094D01*
X289504Y98242D01*
X289377Y98393D01*
X289254Y98547D01*
X289134Y98705D01*
X289018Y98865D01*
X288907Y99028D01*
X288799Y99193D01*
X288695Y99361D01*
X288596Y99532D01*
X288501Y99705D01*
X288410Y99881D01*
X288323Y100058D01*
X288241Y100238D01*
X288163Y100419D01*
X288089Y100603D01*
X288021Y100788D01*
X287956Y100975D01*
X287897Y101163D01*
X287842Y101353D01*
X287791Y101544D01*
X287746Y101736D01*
X287705Y101930D01*
X287669Y102124D01*
X287637Y102319D01*
X287611Y102515D01*
X287589Y102711D01*
X287572Y102908D01*
X287560Y103105D01*
X287552Y103302D01*
X287550Y103500D01*
D10*
X282220Y117500D02*
X308980Y117500D01*
X308980Y89500D02*
X282220Y89500D01*
X316600Y102200D02*
X316600Y104800D01*
X274600Y104800D02*
X274600Y102200D01*
D13*
X287550Y65400D02*
X287552Y65598D01*
X287560Y65795D01*
X287572Y65992D01*
X287589Y66189D01*
X287611Y66385D01*
X287637Y66581D01*
X287669Y66776D01*
X287705Y66970D01*
X287746Y67164D01*
X287791Y67356D01*
X287842Y67547D01*
X287897Y67737D01*
X287956Y67925D01*
X288021Y68112D01*
X288089Y68297D01*
X288163Y68481D01*
X288241Y68662D01*
X288323Y68842D01*
X288410Y69019D01*
X288501Y69195D01*
X288596Y69368D01*
X288695Y69539D01*
X288799Y69707D01*
X288907Y69872D01*
X289018Y70035D01*
X289134Y70195D01*
X289254Y70353D01*
X289377Y70507D01*
X289504Y70658D01*
X289635Y70806D01*
X289770Y70951D01*
X289908Y71092D01*
X290049Y71230D01*
X290194Y71365D01*
X290342Y71496D01*
X290493Y71623D01*
X290647Y71746D01*
X290805Y71866D01*
X290965Y71982D01*
X291128Y72093D01*
X291293Y72201D01*
X291461Y72305D01*
X291632Y72404D01*
X291805Y72499D01*
X291981Y72590D01*
X292158Y72677D01*
X292338Y72759D01*
X292519Y72837D01*
X292703Y72911D01*
X292888Y72979D01*
X293075Y73044D01*
X293263Y73103D01*
X293453Y73158D01*
X293644Y73209D01*
X293836Y73254D01*
X294030Y73295D01*
X294224Y73331D01*
X294419Y73363D01*
X294615Y73389D01*
X294811Y73411D01*
X295008Y73428D01*
X295205Y73440D01*
X295402Y73448D01*
X295600Y73450D01*
X295798Y73448D01*
X295995Y73440D01*
X296192Y73428D01*
X296389Y73411D01*
X296585Y73389D01*
X296781Y73363D01*
X296976Y73331D01*
X297170Y73295D01*
X297364Y73254D01*
X297556Y73209D01*
X297747Y73158D01*
X297937Y73103D01*
X298125Y73044D01*
X298312Y72979D01*
X298497Y72911D01*
X298681Y72837D01*
X298862Y72759D01*
X299042Y72677D01*
X299219Y72590D01*
X299395Y72499D01*
X299568Y72404D01*
X299739Y72305D01*
X299907Y72201D01*
X300072Y72093D01*
X300235Y71982D01*
X300395Y71866D01*
X300553Y71746D01*
X300707Y71623D01*
X300858Y71496D01*
X301006Y71365D01*
X301151Y71230D01*
X301292Y71092D01*
X301430Y70951D01*
X301565Y70806D01*
X301696Y70658D01*
X301823Y70507D01*
X301946Y70353D01*
X302066Y70195D01*
X302182Y70035D01*
X302293Y69872D01*
X302401Y69707D01*
X302505Y69539D01*
X302604Y69368D01*
X302699Y69195D01*
X302790Y69019D01*
X302877Y68842D01*
X302959Y68662D01*
X303037Y68481D01*
X303111Y68297D01*
X303179Y68112D01*
X303244Y67925D01*
X303303Y67737D01*
X303358Y67547D01*
X303409Y67356D01*
X303454Y67164D01*
X303495Y66970D01*
X303531Y66776D01*
X303563Y66581D01*
X303589Y66385D01*
X303611Y66189D01*
X303628Y65992D01*
X303640Y65795D01*
X303648Y65598D01*
X303650Y65400D01*
X303648Y65202D01*
X303640Y65005D01*
X303628Y64808D01*
X303611Y64611D01*
X303589Y64415D01*
X303563Y64219D01*
X303531Y64024D01*
X303495Y63830D01*
X303454Y63636D01*
X303409Y63444D01*
X303358Y63253D01*
X303303Y63063D01*
X303244Y62875D01*
X303179Y62688D01*
X303111Y62503D01*
X303037Y62319D01*
X302959Y62138D01*
X302877Y61958D01*
X302790Y61781D01*
X302699Y61605D01*
X302604Y61432D01*
X302505Y61261D01*
X302401Y61093D01*
X302293Y60928D01*
X302182Y60765D01*
X302066Y60605D01*
X301946Y60447D01*
X301823Y60293D01*
X301696Y60142D01*
X301565Y59994D01*
X301430Y59849D01*
X301292Y59708D01*
X301151Y59570D01*
X301006Y59435D01*
X300858Y59304D01*
X300707Y59177D01*
X300553Y59054D01*
X300395Y58934D01*
X300235Y58818D01*
X300072Y58707D01*
X299907Y58599D01*
X299739Y58495D01*
X299568Y58396D01*
X299395Y58301D01*
X299219Y58210D01*
X299042Y58123D01*
X298862Y58041D01*
X298681Y57963D01*
X298497Y57889D01*
X298312Y57821D01*
X298125Y57756D01*
X297937Y57697D01*
X297747Y57642D01*
X297556Y57591D01*
X297364Y57546D01*
X297170Y57505D01*
X296976Y57469D01*
X296781Y57437D01*
X296585Y57411D01*
X296389Y57389D01*
X296192Y57372D01*
X295995Y57360D01*
X295798Y57352D01*
X295600Y57350D01*
X295402Y57352D01*
X295205Y57360D01*
X295008Y57372D01*
X294811Y57389D01*
X294615Y57411D01*
X294419Y57437D01*
X294224Y57469D01*
X294030Y57505D01*
X293836Y57546D01*
X293644Y57591D01*
X293453Y57642D01*
X293263Y57697D01*
X293075Y57756D01*
X292888Y57821D01*
X292703Y57889D01*
X292519Y57963D01*
X292338Y58041D01*
X292158Y58123D01*
X291981Y58210D01*
X291805Y58301D01*
X291632Y58396D01*
X291461Y58495D01*
X291293Y58599D01*
X291128Y58707D01*
X290965Y58818D01*
X290805Y58934D01*
X290647Y59054D01*
X290493Y59177D01*
X290342Y59304D01*
X290194Y59435D01*
X290049Y59570D01*
X289908Y59708D01*
X289770Y59849D01*
X289635Y59994D01*
X289504Y60142D01*
X289377Y60293D01*
X289254Y60447D01*
X289134Y60605D01*
X289018Y60765D01*
X288907Y60928D01*
X288799Y61093D01*
X288695Y61261D01*
X288596Y61432D01*
X288501Y61605D01*
X288410Y61781D01*
X288323Y61958D01*
X288241Y62138D01*
X288163Y62319D01*
X288089Y62503D01*
X288021Y62688D01*
X287956Y62875D01*
X287897Y63063D01*
X287842Y63253D01*
X287791Y63444D01*
X287746Y63636D01*
X287705Y63830D01*
X287669Y64024D01*
X287637Y64219D01*
X287611Y64415D01*
X287589Y64611D01*
X287572Y64808D01*
X287560Y65005D01*
X287552Y65202D01*
X287550Y65400D01*
D10*
X282220Y51400D02*
X308980Y51400D01*
X308980Y79400D02*
X282220Y79400D01*
X274600Y66700D02*
X274600Y64100D01*
X316600Y64100D02*
X316600Y66700D01*
X331030Y205100D02*
X331030Y232870D01*
X341300Y232870D01*
X331030Y78100D02*
X331030Y50330D01*
X341300Y50330D01*
X518410Y232870D02*
X588570Y232870D01*
X588570Y50330D02*
X518410Y50330D01*
X588570Y50330D02*
X588570Y232870D01*
X87600Y183494D02*
X87600Y174906D01*
X113000Y174906D02*
X113000Y183494D01*
X102984Y172112D02*
X97616Y172112D01*
D14*
X116302Y189360D03*
D13*
X154544Y128500D02*
X154546Y128579D01*
X154552Y128657D01*
X154562Y128736D01*
X154576Y128813D01*
X154594Y128890D01*
X154615Y128966D01*
X154641Y129040D01*
X154670Y129114D01*
X154703Y129185D01*
X154740Y129255D01*
X154780Y129323D01*
X154823Y129389D01*
X154870Y129452D01*
X154919Y129514D01*
X154972Y129572D01*
X155028Y129628D01*
X155086Y129681D01*
X155148Y129730D01*
X155211Y129777D01*
X155277Y129820D01*
X155345Y129860D01*
X155415Y129897D01*
X155486Y129930D01*
X155560Y129959D01*
X155634Y129985D01*
X155710Y130006D01*
X155787Y130024D01*
X155864Y130038D01*
X155943Y130048D01*
X156021Y130054D01*
X156100Y130056D01*
X156179Y130054D01*
X156257Y130048D01*
X156336Y130038D01*
X156413Y130024D01*
X156490Y130006D01*
X156566Y129985D01*
X156640Y129959D01*
X156714Y129930D01*
X156785Y129897D01*
X156855Y129860D01*
X156923Y129820D01*
X156989Y129777D01*
X157052Y129730D01*
X157114Y129681D01*
X157172Y129628D01*
X157228Y129572D01*
X157281Y129514D01*
X157330Y129452D01*
X157377Y129389D01*
X157420Y129323D01*
X157460Y129255D01*
X157497Y129185D01*
X157530Y129114D01*
X157559Y129040D01*
X157585Y128966D01*
X157606Y128890D01*
X157624Y128813D01*
X157638Y128736D01*
X157648Y128657D01*
X157654Y128579D01*
X157656Y128500D01*
X157654Y128421D01*
X157648Y128343D01*
X157638Y128264D01*
X157624Y128187D01*
X157606Y128110D01*
X157585Y128034D01*
X157559Y127960D01*
X157530Y127886D01*
X157497Y127815D01*
X157460Y127745D01*
X157420Y127677D01*
X157377Y127611D01*
X157330Y127548D01*
X157281Y127486D01*
X157228Y127428D01*
X157172Y127372D01*
X157114Y127319D01*
X157052Y127270D01*
X156989Y127223D01*
X156923Y127180D01*
X156855Y127140D01*
X156785Y127103D01*
X156714Y127070D01*
X156640Y127041D01*
X156566Y127015D01*
X156490Y126994D01*
X156413Y126976D01*
X156336Y126962D01*
X156257Y126952D01*
X156179Y126946D01*
X156100Y126944D01*
X156021Y126946D01*
X155943Y126952D01*
X155864Y126962D01*
X155787Y126976D01*
X155710Y126994D01*
X155634Y127015D01*
X155560Y127041D01*
X155486Y127070D01*
X155415Y127103D01*
X155345Y127140D01*
X155277Y127180D01*
X155211Y127223D01*
X155148Y127270D01*
X155086Y127319D01*
X155028Y127372D01*
X154972Y127428D01*
X154919Y127486D01*
X154870Y127548D01*
X154823Y127611D01*
X154780Y127677D01*
X154740Y127745D01*
X154703Y127815D01*
X154670Y127886D01*
X154641Y127960D01*
X154615Y128034D01*
X154594Y128110D01*
X154576Y128187D01*
X154562Y128264D01*
X154552Y128343D01*
X154546Y128421D01*
X154544Y128500D01*
D11*
X3013100Y246800D02*
X3031100Y246800D01*
X3031100Y333200D02*
X3013100Y333200D01*
D15*
X3050000Y503000D02*
X2950000Y503000D01*
X2933000Y503000D02*
X2933000Y437000D01*
X2945000Y437000D01*
X2961000Y437000D02*
X2985000Y437000D01*
X3001000Y437000D02*
X3015000Y437000D01*
X3031000Y437000D02*
X3050000Y437000D01*
X188500Y235700D02*
X173500Y235700D01*
X173500Y226700D01*
X211500Y235700D02*
X222500Y235700D01*
X222500Y195700D01*
X211500Y195700D01*
X173500Y195700D02*
X173500Y204700D01*
X173500Y195700D02*
X188500Y195700D01*
D12*
X225600Y239100D03*
D10*
X265406Y150600D02*
X273994Y150600D01*
X273994Y176000D02*
X265406Y176000D01*
X276788Y165984D02*
X276788Y160616D01*
D14*
X259540Y179302D03*
D16*
X606100Y290900D03*
D17*
X605950Y290550D03*
D18*
X551850Y290200D03*
D19*
X654100Y290200D03*
D20*
X659450Y290200D03*
D21*
X550200Y289800D03*
D22*
X661500Y289800D03*
D23*
X549050Y289450D03*
D24*
X556450Y289450D03*
D25*
X655900Y289450D03*
D23*
X662750Y289450D03*
D26*
X547950Y289100D03*
D27*
X605750Y289100D03*
D28*
X663700Y289100D03*
D26*
X547250Y288700D03*
D29*
X605700Y288700D03*
D26*
X664650Y288700D03*
X546450Y288300D03*
D30*
X560750Y288300D03*
D31*
X637200Y288300D03*
D32*
X641850Y288300D03*
D33*
X653550Y288300D03*
D26*
X665350Y288300D03*
D34*
X545900Y287950D03*
D35*
X550200Y287950D03*
D36*
X661500Y287950D03*
D34*
X665900Y287950D03*
D37*
X545200Y287600D03*
D38*
X549050Y287600D03*
X662750Y287600D03*
D37*
X666300Y287600D03*
X544800Y287200D03*
D39*
X548150Y287200D03*
D26*
X663550Y287200D03*
D32*
X667050Y287200D03*
D40*
X544250Y286850D03*
D41*
X547400Y286850D03*
D24*
X664250Y286850D03*
D34*
X667400Y286850D03*
D42*
X543900Y286500D03*
D26*
X546850Y286500D03*
D43*
X665000Y286500D03*
D44*
X667950Y286500D03*
D19*
X543300Y286100D03*
D37*
X546300Y286100D03*
D39*
X665550Y286100D03*
D42*
X668300Y286100D03*
D25*
X543000Y285750D03*
D24*
X545750Y285750D03*
D45*
X666100Y285750D03*
D46*
X668700Y285750D03*
D19*
X542600Y285400D03*
D37*
X545200Y285400D03*
D32*
X666650Y285400D03*
D42*
X669100Y285400D03*
D37*
X542200Y285000D03*
X544800Y285000D03*
D32*
X667050Y285000D03*
D42*
X669400Y285000D03*
D47*
X541850Y284600D03*
D32*
X544450Y284600D03*
D37*
X667400Y284600D03*
D42*
X669800Y284600D03*
D46*
X541700Y284250D03*
X543900Y284250D03*
D48*
X667750Y284250D03*
D46*
X670200Y284250D03*
D42*
X541300Y283900D03*
X543500Y283900D03*
D32*
X668150Y283900D03*
D44*
X670550Y283900D03*
D42*
X540900Y283500D03*
D44*
X543150Y283500D03*
D37*
X668500Y283500D03*
D42*
X670900Y283500D03*
D25*
X540700Y283150D03*
D46*
X542800Y283150D03*
D34*
X668900Y283150D03*
D25*
X671100Y283150D03*
D19*
X540400Y282800D03*
D37*
X542600Y282800D03*
D32*
X669250Y282800D03*
D19*
X671500Y282800D03*
D42*
X540200Y282400D03*
X542400Y282400D03*
X669400Y282400D03*
X671700Y282400D03*
D25*
X540000Y282050D03*
D46*
X542000Y282050D03*
X669800Y282050D03*
D49*
X671850Y282050D03*
D19*
X539600Y281700D03*
D42*
X541700Y281700D03*
D21*
X569400Y281700D03*
X635000Y281700D03*
D19*
X670000Y281700D03*
X672200Y281700D03*
X539600Y281300D03*
D42*
X541700Y281300D03*
D50*
X568900Y281300D03*
X634800Y281300D03*
D42*
X670200Y281300D03*
D19*
X672200Y281300D03*
D47*
X539250Y280900D03*
D42*
X541300Y280900D03*
D51*
X568700Y280900D03*
D52*
X634800Y280900D03*
D44*
X670550Y280900D03*
D42*
X672400Y280900D03*
D49*
X539250Y280550D03*
D25*
X541100Y280550D03*
D53*
X568700Y280550D03*
D54*
X634600Y280550D03*
D40*
X670550Y280550D03*
D25*
X672600Y280550D03*
D19*
X538900Y280200D03*
D42*
X540900Y280200D03*
D55*
X568350Y280200D03*
D22*
X632200Y280200D03*
D38*
X636850Y280200D03*
D42*
X670900Y280200D03*
D19*
X673000Y280200D03*
X538900Y279800D03*
X540700Y279800D03*
D56*
X565550Y279800D03*
D39*
X571150Y279800D03*
D38*
X631650Y279800D03*
D39*
X637050Y279800D03*
D19*
X671100Y279800D03*
X673000Y279800D03*
D25*
X538500Y279450D03*
D40*
X540550Y279450D03*
D57*
X564800Y279450D03*
D58*
X571150Y279450D03*
D59*
X631300Y279450D03*
D58*
X637050Y279450D03*
D46*
X671300Y279450D03*
D25*
X673300Y279450D03*
D19*
X538500Y279100D03*
X540400Y279100D03*
D38*
X564250Y279100D03*
D39*
X571150Y279100D03*
D38*
X630950Y279100D03*
D39*
X637050Y279100D03*
D19*
X671500Y279100D03*
X673300Y279100D03*
D42*
X538300Y278700D03*
X540200Y278700D03*
D60*
X563900Y278700D03*
D39*
X571150Y278700D03*
X630750Y278700D03*
X637050Y278700D03*
D42*
X671700Y278700D03*
D19*
X673300Y278700D03*
X538100Y278300D03*
X540000Y278300D03*
D39*
X563350Y278300D03*
X571150Y278300D03*
D38*
X630550Y278300D03*
D39*
X637050Y278300D03*
D42*
X671700Y278300D03*
D19*
X673700Y278300D03*
D25*
X538100Y277950D03*
X540000Y277950D03*
D23*
X562750Y277950D03*
D58*
X570750Y277950D03*
D23*
X630150Y277950D03*
D58*
X636650Y277950D03*
D49*
X671850Y277950D03*
D25*
X673700Y277950D03*
D19*
X538100Y277600D03*
D42*
X539800Y277600D03*
D60*
X562400Y277600D03*
D39*
X570750Y277600D03*
D60*
X629800Y277600D03*
D39*
X636650Y277600D03*
D47*
X671850Y277600D03*
D19*
X673700Y277600D03*
X537800Y277200D03*
X539600Y277200D03*
D38*
X562050Y277200D03*
D26*
X570550Y277200D03*
D60*
X629800Y277200D03*
D38*
X636450Y277200D03*
D42*
X672000Y277200D03*
D19*
X674100Y277200D03*
D25*
X537800Y276850D03*
X539600Y276850D03*
D23*
X561650Y276850D03*
D58*
X570350Y276850D03*
D23*
X629450Y276850D03*
D58*
X636250Y276850D03*
D25*
X672200Y276850D03*
X674100Y276850D03*
D19*
X537800Y276500D03*
X539600Y276500D03*
D39*
X561450Y276500D03*
X569950Y276500D03*
D56*
X629250Y276500D03*
D39*
X635950Y276500D03*
D19*
X672200Y276500D03*
X674100Y276500D03*
X537800Y276100D03*
D47*
X539250Y276100D03*
D39*
X561150Y276100D03*
X569950Y276100D03*
D38*
X629050Y276100D03*
X635750Y276100D03*
D19*
X672200Y276100D03*
X674100Y276100D03*
D25*
X537400Y275750D03*
D49*
X539250Y275750D03*
D58*
X560750Y275750D03*
X569650Y275750D03*
D57*
X628900Y275750D03*
D23*
X635350Y275750D03*
D34*
X640000Y275750D03*
D46*
X672400Y275750D03*
D25*
X674400Y275750D03*
D19*
X537400Y275400D03*
D47*
X539250Y275400D03*
D38*
X560550Y275400D03*
D39*
X569250Y275400D03*
D60*
X628700Y275400D03*
D39*
X635150Y275400D03*
X639950Y275400D03*
D19*
X672600Y275400D03*
X674400Y275400D03*
X537400Y275000D03*
D47*
X539250Y275000D03*
D38*
X560150Y275000D03*
D39*
X568850Y275000D03*
D22*
X628500Y275000D03*
D60*
X635000Y275000D03*
X639800Y275000D03*
D19*
X672600Y275000D03*
X674400Y275000D03*
X537400Y274600D03*
D47*
X539250Y274600D03*
D60*
X559800Y274600D03*
X568700Y274600D03*
D38*
X628350Y274600D03*
X634650Y274600D03*
D22*
X639600Y274600D03*
D19*
X672600Y274600D03*
X674400Y274600D03*
D25*
X537400Y274250D03*
D49*
X539250Y274250D03*
D59*
X559800Y274250D03*
D58*
X568550Y274250D03*
D61*
X628150Y274250D03*
D23*
X634250Y274250D03*
D57*
X639600Y274250D03*
D25*
X672600Y274250D03*
X674400Y274250D03*
D19*
X537400Y273900D03*
D47*
X539250Y273900D03*
D38*
X559450Y273900D03*
D39*
X568150Y273900D03*
D32*
X591850Y273900D03*
D38*
X627950Y273900D03*
D60*
X633900Y273900D03*
D21*
X639400Y273900D03*
D42*
X645400Y273900D03*
D47*
X651850Y273900D03*
D19*
X672600Y273900D03*
X674400Y273900D03*
X537400Y273500D03*
D47*
X539250Y273500D03*
D38*
X559450Y273500D03*
D39*
X567750Y273500D03*
D26*
X591650Y273500D03*
D22*
X627800Y273500D03*
D60*
X633500Y273500D03*
D21*
X639400Y273500D03*
D26*
X645750Y273500D03*
X652050Y273500D03*
D19*
X672600Y273500D03*
X674400Y273500D03*
D62*
X537200Y273150D03*
D49*
X539250Y273150D03*
D23*
X559050Y273150D03*
D59*
X567200Y273150D03*
D23*
X591650Y273150D03*
D59*
X627600Y273150D03*
D23*
X632750Y273150D03*
X639450Y273150D03*
D58*
X645550Y273150D03*
X651850Y273150D03*
D46*
X672800Y273150D03*
D25*
X674400Y273150D03*
D31*
X537200Y272800D03*
D63*
X539050Y272800D03*
D38*
X559050Y272800D03*
D39*
X567050Y272800D03*
X591450Y272800D03*
D22*
X627400Y272800D03*
D39*
X632550Y272800D03*
X639250Y272800D03*
X645550Y272800D03*
X651850Y272800D03*
D42*
X672800Y272800D03*
D31*
X674600Y272800D03*
X537200Y272400D03*
D42*
X539100Y272400D03*
D60*
X558700Y272400D03*
D32*
X566650Y272400D03*
D60*
X591300Y272400D03*
D22*
X627400Y272400D03*
D43*
X632400Y272400D03*
D32*
X639250Y272400D03*
D39*
X645150Y272400D03*
X651450Y272400D03*
D42*
X672800Y272400D03*
D31*
X674600Y272400D03*
D62*
X537200Y272050D03*
D46*
X539100Y272050D03*
D59*
X558700Y272050D03*
D64*
X566850Y272050D03*
D59*
X591300Y272050D03*
D57*
X627000Y272050D03*
D59*
X645000Y272050D03*
D58*
X651450Y272050D03*
D25*
X672600Y272050D03*
D62*
X674600Y272050D03*
D19*
X537400Y271700D03*
D47*
X539250Y271700D03*
D22*
X558500Y271700D03*
D38*
X590950Y271700D03*
D22*
X627000Y271700D03*
D39*
X644850Y271700D03*
X651150Y271700D03*
D19*
X672600Y271700D03*
X674400Y271700D03*
X537400Y271300D03*
D47*
X539250Y271300D03*
D38*
X558350Y271300D03*
D31*
X583500Y271300D03*
D38*
X590950Y271300D03*
X626850Y271300D03*
X644650Y271300D03*
X650950Y271300D03*
D19*
X672600Y271300D03*
X674400Y271300D03*
X537400Y270900D03*
D47*
X539250Y270900D03*
D38*
X558350Y270900D03*
D42*
X583500Y270900D03*
D52*
X590400Y270900D03*
D63*
X605350Y270900D03*
D56*
X626650Y270900D03*
D65*
X647400Y270900D03*
D19*
X672600Y270900D03*
X674400Y270900D03*
D25*
X537400Y270550D03*
D49*
X539250Y270550D03*
D61*
X558150Y270550D03*
D45*
X571300Y270550D03*
D24*
X576450Y270550D03*
X583150Y270550D03*
D66*
X590350Y270550D03*
D48*
X597050Y270550D03*
X599250Y270550D03*
D24*
X605350Y270550D03*
D46*
X609800Y270550D03*
X614600Y270550D03*
D23*
X626450Y270550D03*
D48*
X637750Y270550D03*
D67*
X647200Y270550D03*
D25*
X672600Y270550D03*
X674400Y270550D03*
D19*
X537400Y270200D03*
D47*
X539250Y270200D03*
D38*
X557950Y270200D03*
D39*
X571450Y270200D03*
X576250Y270200D03*
D38*
X583150Y270200D03*
D68*
X590150Y270200D03*
D69*
X597950Y270200D03*
D38*
X605350Y270200D03*
D39*
X609650Y270200D03*
X614450Y270200D03*
D22*
X626300Y270200D03*
D26*
X637950Y270200D03*
D70*
X647200Y270200D03*
D19*
X672600Y270200D03*
D63*
X674250Y270200D03*
D19*
X537400Y269800D03*
D47*
X539250Y269800D03*
D38*
X557950Y269800D03*
D60*
X571300Y269800D03*
X576100Y269800D03*
D56*
X582950Y269800D03*
D71*
X590000Y269800D03*
D20*
X597950Y269800D03*
D22*
X605200Y269800D03*
D56*
X609250Y269800D03*
X614450Y269800D03*
D72*
X620350Y269800D03*
D60*
X626100Y269800D03*
D39*
X637750Y269800D03*
D73*
X646850Y269800D03*
D19*
X672600Y269800D03*
D63*
X674250Y269800D03*
D62*
X537600Y269450D03*
D49*
X539250Y269450D03*
D23*
X557950Y269450D03*
D57*
X571100Y269450D03*
D59*
X576100Y269450D03*
D35*
X582800Y269450D03*
D54*
X589800Y269450D03*
X597600Y269450D03*
D57*
X605200Y269450D03*
D35*
X609100Y269450D03*
D36*
X614100Y269450D03*
D25*
X620000Y269450D03*
D57*
X625900Y269450D03*
D59*
X637600Y269450D03*
D74*
X646850Y269450D03*
D64*
X655750Y269450D03*
D46*
X672400Y269450D03*
D25*
X674100Y269450D03*
D31*
X537600Y269100D03*
D63*
X539450Y269100D03*
D22*
X557800Y269100D03*
X571100Y269100D03*
D38*
X575750Y269100D03*
D75*
X582400Y269100D03*
D22*
X589600Y269100D03*
D56*
X595550Y269100D03*
X599250Y269100D03*
D76*
X607050Y269100D03*
D77*
X613700Y269100D03*
D42*
X619800Y269100D03*
D22*
X625900Y269100D03*
D60*
X637600Y269100D03*
X643500Y269100D03*
D22*
X649600Y269100D03*
D42*
X655400Y269100D03*
D19*
X672200Y269100D03*
X674100Y269100D03*
X537800Y268700D03*
X539600Y268700D03*
D22*
X557800Y268700D03*
D56*
X570750Y268700D03*
X575550Y268700D03*
D78*
X582400Y268700D03*
D56*
X589250Y268700D03*
D38*
X595350Y268700D03*
D56*
X599250Y268700D03*
D79*
X606500Y268700D03*
D75*
X613500Y268700D03*
D26*
X619450Y268700D03*
D38*
X625750Y268700D03*
D22*
X637000Y268700D03*
D38*
X643150Y268700D03*
D56*
X649250Y268700D03*
D37*
X655200Y268700D03*
D19*
X672200Y268700D03*
X674100Y268700D03*
X537800Y268300D03*
X539600Y268300D03*
D22*
X557800Y268300D03*
D77*
X570400Y268300D03*
D22*
X575200Y268300D03*
D39*
X580750Y268300D03*
D28*
X583700Y268300D03*
D77*
X588900Y268300D03*
D22*
X594800Y268300D03*
D80*
X606650Y268300D03*
D39*
X619250Y268300D03*
D56*
X625550Y268300D03*
D81*
X636650Y268300D03*
D56*
X642950Y268300D03*
D21*
X649100Y268300D03*
D39*
X654850Y268300D03*
D19*
X672200Y268300D03*
X674100Y268300D03*
D25*
X537800Y267950D03*
X539600Y267950D03*
D57*
X557800Y267950D03*
D36*
X570000Y267950D03*
D57*
X575200Y267950D03*
D23*
X580150Y267950D03*
D41*
X583700Y267950D03*
D82*
X588550Y267950D03*
D61*
X594450Y267950D03*
D83*
X606650Y267950D03*
D59*
X618700Y267950D03*
D23*
X625350Y267950D03*
D84*
X636450Y267950D03*
D36*
X642600Y267950D03*
D35*
X648700Y267950D03*
D58*
X654450Y267950D03*
D46*
X672000Y267950D03*
D62*
X673900Y267950D03*
D63*
X537950Y267600D03*
D42*
X539800Y267600D03*
D21*
X558000Y267600D03*
D18*
X569650Y267600D03*
D21*
X574600Y267600D03*
D38*
X579450Y267600D03*
D28*
X583700Y267600D03*
D18*
X588150Y267600D03*
D77*
X594100Y267600D03*
D85*
X606650Y267600D03*
D38*
X618350Y267600D03*
D22*
X625200Y267600D03*
D18*
X635950Y267600D03*
D86*
X642050Y267600D03*
X648350Y267600D03*
D60*
X653900Y267600D03*
D47*
X671850Y267600D03*
D19*
X673700Y267600D03*
X538100Y267200D03*
X540000Y267200D03*
D56*
X558150Y267200D03*
D69*
X569050Y267200D03*
D81*
X574450Y267200D03*
D38*
X579050Y267200D03*
D28*
X583700Y267200D03*
D18*
X587750Y267200D03*
D75*
X593900Y267200D03*
D85*
X606650Y267200D03*
D60*
X617600Y267200D03*
X625000Y267200D03*
D69*
X635750Y267200D03*
D18*
X641850Y267200D03*
X648150Y267200D03*
D38*
X653150Y267200D03*
D47*
X671850Y267200D03*
D19*
X673700Y267200D03*
D25*
X538100Y266850D03*
X540000Y266850D03*
D35*
X558300Y266850D03*
D87*
X568700Y266850D03*
D84*
X574250Y266850D03*
D57*
X578500Y266850D03*
D88*
X585350Y266850D03*
D89*
X593550Y266850D03*
D90*
X604600Y266850D03*
D59*
X613500Y266850D03*
D57*
X617000Y266850D03*
D35*
X624600Y266850D03*
D87*
X635000Y266850D03*
D91*
X641450Y266850D03*
D89*
X647550Y266850D03*
D58*
X652550Y266850D03*
D46*
X671700Y266850D03*
D25*
X673700Y266850D03*
D19*
X538500Y266500D03*
X540400Y266500D03*
D77*
X558500Y266500D03*
D52*
X568100Y266500D03*
D76*
X575550Y266500D03*
D92*
X588150Y266500D03*
D39*
X598550Y266500D03*
D86*
X604250Y266500D03*
D77*
X608900Y266500D03*
D52*
X614800Y266500D03*
D93*
X623700Y266500D03*
D94*
X642400Y266500D03*
D19*
X671500Y266500D03*
X673300Y266500D03*
X538500Y266100D03*
X540400Y266100D03*
D18*
X559250Y266100D03*
D81*
X565550Y266100D03*
D95*
X573300Y266100D03*
D96*
X589650Y266100D03*
D75*
X603900Y266100D03*
D21*
X608700Y266100D03*
D97*
X614600Y266100D03*
D98*
X624450Y266100D03*
D99*
X637600Y266100D03*
D50*
X650000Y266100D03*
D42*
X671300Y266100D03*
D19*
X673300Y266100D03*
D25*
X538500Y265750D03*
D40*
X540550Y265750D03*
D88*
X562050Y265750D03*
D100*
X573150Y265750D03*
D54*
X582800Y265750D03*
D91*
X589650Y265750D03*
D87*
X596100Y265750D03*
D35*
X603500Y265750D03*
D57*
X608500Y265750D03*
D89*
X614250Y265750D03*
D101*
X627400Y265750D03*
D102*
X637400Y265750D03*
D91*
X643350Y265750D03*
D89*
X649850Y265750D03*
D25*
X671100Y265750D03*
D64*
X673150Y265750D03*
D19*
X538900Y265400D03*
X540700Y265400D03*
D79*
X561700Y265400D03*
D18*
X570350Y265400D03*
D86*
X575350Y265400D03*
D97*
X582400Y265400D03*
D18*
X589250Y265400D03*
D50*
X595900Y265400D03*
D22*
X603300Y265400D03*
D38*
X608350Y265400D03*
D75*
X613900Y265400D03*
D103*
X626850Y265400D03*
D18*
X637050Y265400D03*
D86*
X643150Y265400D03*
X649450Y265400D03*
D19*
X671100Y265400D03*
X673000Y265400D03*
X538900Y265000D03*
D42*
X540900Y265000D03*
D76*
X561450Y265000D03*
D77*
X570000Y265000D03*
D22*
X574800Y265000D03*
D18*
X582250Y265000D03*
D77*
X588900Y265000D03*
D18*
X595950Y265000D03*
D38*
X603150Y265000D03*
D26*
X607950Y265000D03*
D21*
X613500Y265000D03*
D104*
X626500Y265000D03*
D81*
X636650Y265000D03*
D21*
X642800Y265000D03*
X649100Y265000D03*
D42*
X670900Y265000D03*
D19*
X673000Y265000D03*
D47*
X539250Y264600D03*
D19*
X541100Y264600D03*
D97*
X561300Y264600D03*
D60*
X569800Y264600D03*
D39*
X574450Y264600D03*
D21*
X582000Y264600D03*
D60*
X588700Y264600D03*
D21*
X595700Y264600D03*
D26*
X603150Y264600D03*
D32*
X607750Y264600D03*
D38*
X613150Y264600D03*
D21*
X622400Y264600D03*
D51*
X628300Y264600D03*
D39*
X636250Y264600D03*
X642250Y264600D03*
X648550Y264600D03*
D44*
X670550Y264600D03*
D19*
X672600Y264600D03*
D49*
X539250Y264250D03*
D46*
X541300Y264250D03*
D35*
X561300Y264250D03*
D46*
X569400Y264250D03*
D24*
X581650Y264250D03*
D62*
X588300Y264250D03*
D48*
X595550Y264250D03*
D25*
X603000Y264250D03*
D105*
X612950Y264250D03*
D59*
X622400Y264250D03*
D82*
X628550Y264250D03*
D40*
X670550Y264250D03*
D25*
X672600Y264250D03*
D19*
X539600Y263900D03*
D42*
X541700Y263900D03*
D19*
X622200Y263900D03*
D26*
X628350Y263900D03*
D42*
X670200Y263900D03*
D19*
X672200Y263900D03*
X539600Y263500D03*
D47*
X541850Y263500D03*
D42*
X669800Y263500D03*
D63*
X672050Y263500D03*
D25*
X540000Y263150D03*
D46*
X542000Y263150D03*
X669800Y263150D03*
D49*
X671850Y263150D03*
D19*
X540400Y262800D03*
D42*
X542400Y262800D03*
X669400Y262800D03*
D19*
X671500Y262800D03*
D44*
X540550Y262400D03*
D42*
X542800Y262400D03*
X669100Y262400D03*
X671300Y262400D03*
D25*
X540700Y262050D03*
D40*
X543150Y262050D03*
D46*
X668700Y262050D03*
D25*
X671100Y262050D03*
D19*
X541100Y261700D03*
D32*
X543350Y261700D03*
D37*
X668500Y261700D03*
D44*
X670550Y261700D03*
D42*
X541300Y261300D03*
D37*
X543700Y261300D03*
D32*
X668150Y261300D03*
D19*
X670400Y261300D03*
D42*
X541700Y260900D03*
D32*
X544050Y260900D03*
X667750Y260900D03*
D42*
X670200Y260900D03*
D46*
X542000Y260550D03*
D48*
X544450Y260550D03*
D34*
X667400Y260550D03*
D46*
X669800Y260550D03*
D19*
X542200Y260200D03*
D37*
X544800Y260200D03*
D32*
X667050Y260200D03*
D42*
X669400Y260200D03*
X542800Y259800D03*
D37*
X545200Y259800D03*
D26*
X666450Y259800D03*
D42*
X669100Y259800D03*
D40*
X543150Y259450D03*
D24*
X545750Y259450D03*
D34*
X665900Y259450D03*
D46*
X668700Y259450D03*
D42*
X543500Y259100D03*
D26*
X546450Y259100D03*
X665350Y259100D03*
D42*
X668300Y259100D03*
X543900Y258700D03*
D39*
X547050Y258700D03*
X664850Y258700D03*
D32*
X667750Y258700D03*
X544450Y258300D03*
D39*
X547750Y258300D03*
D38*
X664250Y258300D03*
D37*
X667400Y258300D03*
D46*
X545000Y257950D03*
D23*
X548350Y257950D03*
D59*
X663500Y257950D03*
D40*
X666850Y257950D03*
D32*
X545550Y257600D03*
D38*
X549450Y257600D03*
D60*
X662400Y257600D03*
D37*
X666300Y257600D03*
X545900Y257200D03*
D106*
X550550Y257200D03*
D77*
X661100Y257200D03*
D26*
X665750Y257200D03*
D24*
X546850Y256850D03*
D107*
X605950Y256850D03*
D45*
X665000Y256850D03*
D26*
X547550Y256500D03*
D108*
X606100Y256500D03*
D26*
X664250Y256500D03*
X548350Y256100D03*
D109*
X568550Y256100D03*
D93*
X590000Y256100D03*
D22*
X595200Y256100D03*
D19*
X597800Y256100D03*
D72*
X598850Y256100D03*
D77*
X603700Y256100D03*
D31*
X615000Y256100D03*
D63*
X617950Y256100D03*
D47*
X619250Y256100D03*
D37*
X621500Y256100D03*
D110*
X641500Y256100D03*
D39*
X663350Y256100D03*
D23*
X549450Y255750D03*
D59*
X662400Y255750D03*
D77*
X550700Y255400D03*
D75*
X660900Y255400D03*
D111*
X574650Y255000D03*
D112*
X611650Y255000D03*
D113*
X642600Y255000D03*
D114*
X605900Y254600D03*
D115*
X564100Y254250D03*
D105*
X637750Y254250D03*
D48*
X640750Y254250D03*
D116*
X650200Y254250D03*
D10*
X302942Y1698838D02*
X302942Y1701378D01*
X302942Y1698838D02*
X302434Y1698838D01*
X302434Y1698889D01*
X252929Y1698889D01*
X252929Y1701200D01*
X303145Y1748190D02*
X303145Y1750908D01*
X302637Y1750908D01*
X302637Y1750933D01*
X252955Y1750933D01*
X252955Y1748673D01*
X303450Y1733890D02*
X303450Y1716872D01*
X252650Y1716364D02*
X252650Y1725000D01*
X252650Y1733636D01*
X252650Y1725000D02*
X278050Y1750400D01*
D117*
X249475Y1753575D03*
D10*
X452942Y1701378D02*
X452942Y1698838D01*
X452434Y1698838D01*
X452434Y1698889D01*
X402929Y1698889D01*
X402929Y1701200D01*
X453145Y1748190D02*
X453145Y1750908D01*
X452637Y1750908D01*
X452637Y1750933D01*
X402955Y1750933D01*
X402955Y1748673D01*
X453450Y1733890D02*
X453450Y1716872D01*
X402650Y1716364D02*
X402650Y1725000D01*
X402650Y1733636D01*
X402650Y1725000D02*
X428050Y1750400D01*
D117*
X399475Y1753575D03*
D10*
X602942Y1701378D02*
X602942Y1698838D01*
X602434Y1698838D01*
X602434Y1698889D01*
X552929Y1698889D01*
X552929Y1701200D01*
X603145Y1748190D02*
X603145Y1750908D01*
X602637Y1750908D01*
X602637Y1750933D01*
X552955Y1750933D01*
X552955Y1748673D01*
X603450Y1733890D02*
X603450Y1716872D01*
X552650Y1716364D02*
X552650Y1725000D01*
X552650Y1733636D01*
X552650Y1725000D02*
X578050Y1750400D01*
D117*
X549475Y1753575D03*
D10*
X752942Y1701378D02*
X752942Y1698838D01*
X752434Y1698838D01*
X752434Y1698889D01*
X702929Y1698889D01*
X702929Y1701200D01*
X753145Y1748190D02*
X753145Y1750908D01*
X752637Y1750908D01*
X752637Y1750933D01*
X702955Y1750933D01*
X702955Y1748673D01*
X753450Y1733890D02*
X753450Y1716872D01*
X702650Y1716364D02*
X702650Y1725000D01*
X702650Y1733636D01*
X702650Y1725000D02*
X728050Y1750400D01*
D117*
X699475Y1753575D03*
D10*
X902942Y1701378D02*
X902942Y1698838D01*
X902434Y1698838D01*
X902434Y1698889D01*
X852929Y1698889D01*
X852929Y1701200D01*
X903145Y1748190D02*
X903145Y1750908D01*
X902637Y1750908D01*
X902637Y1750933D01*
X852955Y1750933D01*
X852955Y1748673D01*
X903450Y1733890D02*
X903450Y1716872D01*
X852650Y1716364D02*
X852650Y1725000D01*
X852650Y1733636D01*
X852650Y1725000D02*
X878050Y1750400D01*
D117*
X849475Y1753575D03*
D10*
X1052942Y1701378D02*
X1052942Y1698838D01*
X1052434Y1698838D01*
X1052434Y1698889D01*
X1002929Y1698889D01*
X1002929Y1701200D01*
X1053145Y1748190D02*
X1053145Y1750908D01*
X1052637Y1750908D01*
X1052637Y1750933D01*
X1002955Y1750933D01*
X1002955Y1748673D01*
X1053450Y1733890D02*
X1053450Y1716872D01*
X1002650Y1716364D02*
X1002650Y1725000D01*
X1002650Y1733636D01*
X1002650Y1725000D02*
X1028050Y1750400D01*
D117*
X999475Y1753575D03*
D10*
X1202942Y1701378D02*
X1202942Y1698838D01*
X1202434Y1698838D01*
X1202434Y1698889D01*
X1152929Y1698889D01*
X1152929Y1701200D01*
X1203145Y1748190D02*
X1203145Y1750908D01*
X1202637Y1750908D01*
X1202637Y1750933D01*
X1152955Y1750933D01*
X1152955Y1748673D01*
X1203450Y1733890D02*
X1203450Y1716872D01*
X1152650Y1716364D02*
X1152650Y1725000D01*
X1152650Y1733636D01*
X1152650Y1725000D02*
X1178050Y1750400D01*
D117*
X1149475Y1753575D03*
D10*
X1802942Y1701378D02*
X1802942Y1698838D01*
X1802434Y1698838D01*
X1802434Y1698889D01*
X1752929Y1698889D01*
X1752929Y1701200D01*
X1803145Y1748190D02*
X1803145Y1750908D01*
X1802637Y1750908D01*
X1802637Y1750933D01*
X1752955Y1750933D01*
X1752955Y1748673D01*
X1803450Y1733890D02*
X1803450Y1716872D01*
X1752650Y1716364D02*
X1752650Y1725000D01*
X1752650Y1733636D01*
X1752650Y1725000D02*
X1778050Y1750400D01*
D117*
X1749475Y1753575D03*
D10*
X1952942Y1701378D02*
X1952942Y1698838D01*
X1952434Y1698838D01*
X1952434Y1698889D01*
X1902929Y1698889D01*
X1902929Y1701200D01*
X1953145Y1748190D02*
X1953145Y1750908D01*
X1952637Y1750908D01*
X1952637Y1750933D01*
X1902955Y1750933D01*
X1902955Y1748673D01*
X1953450Y1733890D02*
X1953450Y1716872D01*
X1902650Y1716364D02*
X1902650Y1725000D01*
X1902650Y1733636D01*
X1902650Y1725000D02*
X1928050Y1750400D01*
D117*
X1899475Y1753575D03*
D10*
X2102942Y1701378D02*
X2102942Y1698838D01*
X2102434Y1698838D01*
X2102434Y1698889D01*
X2052929Y1698889D01*
X2052929Y1701200D01*
X2103145Y1748190D02*
X2103145Y1750908D01*
X2102637Y1750908D01*
X2102637Y1750933D01*
X2052955Y1750933D01*
X2052955Y1748673D01*
X2103450Y1733890D02*
X2103450Y1716872D01*
X2052650Y1716364D02*
X2052650Y1725000D01*
X2052650Y1733636D01*
X2052650Y1725000D02*
X2078050Y1750400D01*
D117*
X2049475Y1753575D03*
D10*
X2252942Y1701378D02*
X2252942Y1698838D01*
X2252434Y1698838D01*
X2252434Y1698889D01*
X2202929Y1698889D01*
X2202929Y1701200D01*
X2253145Y1748190D02*
X2253145Y1750908D01*
X2252637Y1750908D01*
X2252637Y1750933D01*
X2202955Y1750933D01*
X2202955Y1748673D01*
X2253450Y1733890D02*
X2253450Y1716872D01*
X2202650Y1716364D02*
X2202650Y1725000D01*
X2202650Y1733636D01*
X2202650Y1725000D02*
X2228050Y1750400D01*
D117*
X2199475Y1753575D03*
D10*
X2402942Y1701378D02*
X2402942Y1698838D01*
X2402434Y1698838D01*
X2402434Y1698889D01*
X2352929Y1698889D01*
X2352929Y1701200D01*
X2403145Y1748190D02*
X2403145Y1750908D01*
X2402637Y1750908D01*
X2402637Y1750933D01*
X2352955Y1750933D01*
X2352955Y1748673D01*
X2403450Y1733890D02*
X2403450Y1716872D01*
X2352650Y1716364D02*
X2352650Y1725000D01*
X2352650Y1733636D01*
X2352650Y1725000D02*
X2378050Y1750400D01*
D117*
X2349475Y1753575D03*
D10*
X2552942Y1701378D02*
X2552942Y1698838D01*
X2552434Y1698838D01*
X2552434Y1698889D01*
X2502929Y1698889D01*
X2502929Y1701200D01*
X2553145Y1748190D02*
X2553145Y1750908D01*
X2552637Y1750908D01*
X2552637Y1750933D01*
X2502955Y1750933D01*
X2502955Y1748673D01*
X2553450Y1733890D02*
X2553450Y1716872D01*
X2502650Y1716364D02*
X2502650Y1725000D01*
X2502650Y1733636D01*
X2502650Y1725000D02*
X2528050Y1750400D01*
D117*
X2499475Y1753575D03*
D10*
X2702942Y1701378D02*
X2702942Y1698838D01*
X2702434Y1698838D01*
X2702434Y1698889D01*
X2652929Y1698889D01*
X2652929Y1701200D01*
X2703145Y1748190D02*
X2703145Y1750908D01*
X2702637Y1750908D01*
X2702637Y1750933D01*
X2652955Y1750933D01*
X2652955Y1748673D01*
X2703450Y1733890D02*
X2703450Y1716872D01*
X2652650Y1716364D02*
X2652650Y1725000D01*
X2652650Y1733636D01*
X2652650Y1725000D02*
X2678050Y1750400D01*
D117*
X2649475Y1753575D03*
D10*
X152942Y1551378D02*
X152942Y1548838D01*
X152434Y1548838D01*
X152434Y1548889D01*
X102929Y1548889D01*
X102929Y1551200D01*
X153145Y1598190D02*
X153145Y1600908D01*
X152637Y1600908D01*
X152637Y1600933D01*
X102955Y1600933D01*
X102955Y1598673D01*
X153450Y1583890D02*
X153450Y1566872D01*
X102650Y1566364D02*
X102650Y1575000D01*
X102650Y1583636D01*
X102650Y1575000D02*
X128050Y1600400D01*
D117*
X99475Y1603575D03*
D10*
X302942Y1551378D02*
X302942Y1548838D01*
X302434Y1548838D01*
X302434Y1548889D01*
X252929Y1548889D01*
X252929Y1551200D01*
X303145Y1598190D02*
X303145Y1600908D01*
X302637Y1600908D01*
X302637Y1600933D01*
X252955Y1600933D01*
X252955Y1598673D01*
X303450Y1583890D02*
X303450Y1566872D01*
X252650Y1566364D02*
X252650Y1575000D01*
X252650Y1583636D01*
X252650Y1575000D02*
X278050Y1600400D01*
D117*
X249475Y1603575D03*
D10*
X452942Y1551378D02*
X452942Y1548838D01*
X452434Y1548838D01*
X452434Y1548889D01*
X402929Y1548889D01*
X402929Y1551200D01*
X453145Y1598190D02*
X453145Y1600908D01*
X452637Y1600908D01*
X452637Y1600933D01*
X402955Y1600933D01*
X402955Y1598673D01*
X453450Y1583890D02*
X453450Y1566872D01*
X402650Y1566364D02*
X402650Y1575000D01*
X402650Y1583636D01*
X402650Y1575000D02*
X428050Y1600400D01*
D117*
X399475Y1603575D03*
D10*
X602942Y1551378D02*
X602942Y1548838D01*
X602434Y1548838D01*
X602434Y1548889D01*
X552929Y1548889D01*
X552929Y1551200D01*
X603145Y1598190D02*
X603145Y1600908D01*
X602637Y1600908D01*
X602637Y1600933D01*
X552955Y1600933D01*
X552955Y1598673D01*
X603450Y1583890D02*
X603450Y1566872D01*
X552650Y1566364D02*
X552650Y1575000D01*
X552650Y1583636D01*
X552650Y1575000D02*
X578050Y1600400D01*
D117*
X549475Y1603575D03*
D10*
X752942Y1551378D02*
X752942Y1548838D01*
X752434Y1548838D01*
X752434Y1548889D01*
X702929Y1548889D01*
X702929Y1551200D01*
X753145Y1598190D02*
X753145Y1600908D01*
X752637Y1600908D01*
X752637Y1600933D01*
X702955Y1600933D01*
X702955Y1598673D01*
X753450Y1583890D02*
X753450Y1566872D01*
X702650Y1566364D02*
X702650Y1575000D01*
X702650Y1583636D01*
X702650Y1575000D02*
X728050Y1600400D01*
D117*
X699475Y1603575D03*
D10*
X902942Y1551378D02*
X902942Y1548838D01*
X902434Y1548838D01*
X902434Y1548889D01*
X852929Y1548889D01*
X852929Y1551200D01*
X903145Y1598190D02*
X903145Y1600908D01*
X902637Y1600908D01*
X902637Y1600933D01*
X852955Y1600933D01*
X852955Y1598673D01*
X903450Y1583890D02*
X903450Y1566872D01*
X852650Y1566364D02*
X852650Y1575000D01*
X852650Y1583636D01*
X852650Y1575000D02*
X878050Y1600400D01*
D117*
X849475Y1603575D03*
D10*
X1052942Y1551378D02*
X1052942Y1548838D01*
X1052434Y1548838D01*
X1052434Y1548889D01*
X1002929Y1548889D01*
X1002929Y1551200D01*
X1053145Y1598190D02*
X1053145Y1600908D01*
X1052637Y1600908D01*
X1052637Y1600933D01*
X1002955Y1600933D01*
X1002955Y1598673D01*
X1053450Y1583890D02*
X1053450Y1566872D01*
X1002650Y1566364D02*
X1002650Y1575000D01*
X1002650Y1583636D01*
X1002650Y1575000D02*
X1028050Y1600400D01*
D117*
X999475Y1603575D03*
D10*
X1202942Y1551378D02*
X1202942Y1548838D01*
X1202434Y1548838D01*
X1202434Y1548889D01*
X1152929Y1548889D01*
X1152929Y1551200D01*
X1203145Y1598190D02*
X1203145Y1600908D01*
X1202637Y1600908D01*
X1202637Y1600933D01*
X1152955Y1600933D01*
X1152955Y1598673D01*
X1203450Y1583890D02*
X1203450Y1566872D01*
X1152650Y1566364D02*
X1152650Y1575000D01*
X1152650Y1583636D01*
X1152650Y1575000D02*
X1178050Y1600400D01*
D117*
X1149475Y1603575D03*
D10*
X1352942Y1551378D02*
X1352942Y1548838D01*
X1352434Y1548838D01*
X1352434Y1548889D01*
X1302929Y1548889D01*
X1302929Y1551200D01*
X1353145Y1598190D02*
X1353145Y1600908D01*
X1352637Y1600908D01*
X1352637Y1600933D01*
X1302955Y1600933D01*
X1302955Y1598673D01*
X1353450Y1583890D02*
X1353450Y1566872D01*
X1302650Y1566364D02*
X1302650Y1575000D01*
X1302650Y1583636D01*
X1302650Y1575000D02*
X1328050Y1600400D01*
D117*
X1299475Y1603575D03*
D10*
X1502942Y1551378D02*
X1502942Y1548838D01*
X1502434Y1548838D01*
X1502434Y1548889D01*
X1452929Y1548889D01*
X1452929Y1551200D01*
X1503145Y1598190D02*
X1503145Y1600908D01*
X1502637Y1600908D01*
X1502637Y1600933D01*
X1452955Y1600933D01*
X1452955Y1598673D01*
X1503450Y1583890D02*
X1503450Y1566872D01*
X1452650Y1566364D02*
X1452650Y1575000D01*
X1452650Y1583636D01*
X1452650Y1575000D02*
X1478050Y1600400D01*
D117*
X1449475Y1603575D03*
D10*
X1652942Y1551378D02*
X1652942Y1548838D01*
X1652434Y1548838D01*
X1652434Y1548889D01*
X1602929Y1548889D01*
X1602929Y1551200D01*
X1653145Y1598190D02*
X1653145Y1600908D01*
X1652637Y1600908D01*
X1652637Y1600933D01*
X1602955Y1600933D01*
X1602955Y1598673D01*
X1653450Y1583890D02*
X1653450Y1566872D01*
X1602650Y1566364D02*
X1602650Y1575000D01*
X1602650Y1583636D01*
X1602650Y1575000D02*
X1628050Y1600400D01*
D117*
X1599475Y1603575D03*
D10*
X1802942Y1551378D02*
X1802942Y1548838D01*
X1802434Y1548838D01*
X1802434Y1548889D01*
X1752929Y1548889D01*
X1752929Y1551200D01*
X1803145Y1598190D02*
X1803145Y1600908D01*
X1802637Y1600908D01*
X1802637Y1600933D01*
X1752955Y1600933D01*
X1752955Y1598673D01*
X1803450Y1583890D02*
X1803450Y1566872D01*
X1752650Y1566364D02*
X1752650Y1575000D01*
X1752650Y1583636D01*
X1752650Y1575000D02*
X1778050Y1600400D01*
D117*
X1749475Y1603575D03*
D10*
X1952942Y1551378D02*
X1952942Y1548838D01*
X1952434Y1548838D01*
X1952434Y1548889D01*
X1902929Y1548889D01*
X1902929Y1551200D01*
X1953145Y1598190D02*
X1953145Y1600908D01*
X1952637Y1600908D01*
X1952637Y1600933D01*
X1902955Y1600933D01*
X1902955Y1598673D01*
X1953450Y1583890D02*
X1953450Y1566872D01*
X1902650Y1566364D02*
X1902650Y1575000D01*
X1902650Y1583636D01*
X1902650Y1575000D02*
X1928050Y1600400D01*
D117*
X1899475Y1603575D03*
D10*
X2102942Y1551378D02*
X2102942Y1548838D01*
X2102434Y1548838D01*
X2102434Y1548889D01*
X2052929Y1548889D01*
X2052929Y1551200D01*
X2103145Y1598190D02*
X2103145Y1600908D01*
X2102637Y1600908D01*
X2102637Y1600933D01*
X2052955Y1600933D01*
X2052955Y1598673D01*
X2103450Y1583890D02*
X2103450Y1566872D01*
X2052650Y1566364D02*
X2052650Y1575000D01*
X2052650Y1583636D01*
X2052650Y1575000D02*
X2078050Y1600400D01*
D117*
X2049475Y1603575D03*
D10*
X2252942Y1551378D02*
X2252942Y1548838D01*
X2252434Y1548838D01*
X2252434Y1548889D01*
X2202929Y1548889D01*
X2202929Y1551200D01*
X2253145Y1598190D02*
X2253145Y1600908D01*
X2252637Y1600908D01*
X2252637Y1600933D01*
X2202955Y1600933D01*
X2202955Y1598673D01*
X2253450Y1583890D02*
X2253450Y1566872D01*
X2202650Y1566364D02*
X2202650Y1575000D01*
X2202650Y1583636D01*
X2202650Y1575000D02*
X2228050Y1600400D01*
D117*
X2199475Y1603575D03*
D10*
X2402942Y1551378D02*
X2402942Y1548838D01*
X2402434Y1548838D01*
X2402434Y1548889D01*
X2352929Y1548889D01*
X2352929Y1551200D01*
X2403145Y1598190D02*
X2403145Y1600908D01*
X2402637Y1600908D01*
X2402637Y1600933D01*
X2352955Y1600933D01*
X2352955Y1598673D01*
X2403450Y1583890D02*
X2403450Y1566872D01*
X2352650Y1566364D02*
X2352650Y1575000D01*
X2352650Y1583636D01*
X2352650Y1575000D02*
X2378050Y1600400D01*
D117*
X2349475Y1603575D03*
D10*
X2552942Y1551378D02*
X2552942Y1548838D01*
X2552434Y1548838D01*
X2552434Y1548889D01*
X2502929Y1548889D01*
X2502929Y1551200D01*
X2553145Y1598190D02*
X2553145Y1600908D01*
X2552637Y1600908D01*
X2552637Y1600933D01*
X2502955Y1600933D01*
X2502955Y1598673D01*
X2553450Y1583890D02*
X2553450Y1566872D01*
X2502650Y1566364D02*
X2502650Y1575000D01*
X2502650Y1583636D01*
X2502650Y1575000D02*
X2528050Y1600400D01*
D117*
X2499475Y1603575D03*
D10*
X2702942Y1551378D02*
X2702942Y1548838D01*
X2702434Y1548838D01*
X2702434Y1548889D01*
X2652929Y1548889D01*
X2652929Y1551200D01*
X2703145Y1598190D02*
X2703145Y1600908D01*
X2702637Y1600908D01*
X2702637Y1600933D01*
X2652955Y1600933D01*
X2652955Y1598673D01*
X2703450Y1583890D02*
X2703450Y1566872D01*
X2652650Y1566364D02*
X2652650Y1575000D01*
X2652650Y1583636D01*
X2652650Y1575000D02*
X2678050Y1600400D01*
D117*
X2649475Y1603575D03*
D10*
X2852942Y1551378D02*
X2852942Y1548838D01*
X2852434Y1548838D01*
X2852434Y1548889D01*
X2802929Y1548889D01*
X2802929Y1551200D01*
X2853145Y1598190D02*
X2853145Y1600908D01*
X2852637Y1600908D01*
X2852637Y1600933D01*
X2802955Y1600933D01*
X2802955Y1598673D01*
X2853450Y1583890D02*
X2853450Y1566872D01*
X2802650Y1566364D02*
X2802650Y1575000D01*
X2802650Y1583636D01*
X2802650Y1575000D02*
X2828050Y1600400D01*
D117*
X2799475Y1603575D03*
D10*
X152942Y1401378D02*
X152942Y1398838D01*
X152434Y1398838D01*
X152434Y1398889D01*
X102929Y1398889D01*
X102929Y1401200D01*
X153145Y1448190D02*
X153145Y1450908D01*
X152637Y1450908D01*
X152637Y1450933D01*
X102955Y1450933D01*
X102955Y1448673D01*
X153450Y1433890D02*
X153450Y1416872D01*
X102650Y1416364D02*
X102650Y1425000D01*
X102650Y1433636D01*
X102650Y1425000D02*
X128050Y1450400D01*
D117*
X99475Y1453575D03*
D10*
X302942Y1401378D02*
X302942Y1398838D01*
X302434Y1398838D01*
X302434Y1398889D01*
X252929Y1398889D01*
X252929Y1401200D01*
X303145Y1448190D02*
X303145Y1450908D01*
X302637Y1450908D01*
X302637Y1450933D01*
X252955Y1450933D01*
X252955Y1448673D01*
X303450Y1433890D02*
X303450Y1416872D01*
X252650Y1416364D02*
X252650Y1425000D01*
X252650Y1433636D01*
X252650Y1425000D02*
X278050Y1450400D01*
D117*
X249475Y1453575D03*
D10*
X452942Y1401378D02*
X452942Y1398838D01*
X452434Y1398838D01*
X452434Y1398889D01*
X402929Y1398889D01*
X402929Y1401200D01*
X453145Y1448190D02*
X453145Y1450908D01*
X452637Y1450908D01*
X452637Y1450933D01*
X402955Y1450933D01*
X402955Y1448673D01*
X453450Y1433890D02*
X453450Y1416872D01*
X402650Y1416364D02*
X402650Y1425000D01*
X402650Y1433636D01*
X402650Y1425000D02*
X428050Y1450400D01*
D117*
X399475Y1453575D03*
D10*
X602942Y1401378D02*
X602942Y1398838D01*
X602434Y1398838D01*
X602434Y1398889D01*
X552929Y1398889D01*
X552929Y1401200D01*
X603145Y1448190D02*
X603145Y1450908D01*
X602637Y1450908D01*
X602637Y1450933D01*
X552955Y1450933D01*
X552955Y1448673D01*
X603450Y1433890D02*
X603450Y1416872D01*
X552650Y1416364D02*
X552650Y1425000D01*
X552650Y1433636D01*
X552650Y1425000D02*
X578050Y1450400D01*
D117*
X549475Y1453575D03*
D10*
X752942Y1401378D02*
X752942Y1398838D01*
X752434Y1398838D01*
X752434Y1398889D01*
X702929Y1398889D01*
X702929Y1401200D01*
X753145Y1448190D02*
X753145Y1450908D01*
X752637Y1450908D01*
X752637Y1450933D01*
X702955Y1450933D01*
X702955Y1448673D01*
X753450Y1433890D02*
X753450Y1416872D01*
X702650Y1416364D02*
X702650Y1425000D01*
X702650Y1433636D01*
X702650Y1425000D02*
X728050Y1450400D01*
D117*
X699475Y1453575D03*
D10*
X902942Y1401378D02*
X902942Y1398838D01*
X902434Y1398838D01*
X902434Y1398889D01*
X852929Y1398889D01*
X852929Y1401200D01*
X903145Y1448190D02*
X903145Y1450908D01*
X902637Y1450908D01*
X902637Y1450933D01*
X852955Y1450933D01*
X852955Y1448673D01*
X903450Y1433890D02*
X903450Y1416872D01*
X852650Y1416364D02*
X852650Y1425000D01*
X852650Y1433636D01*
X852650Y1425000D02*
X878050Y1450400D01*
D117*
X849475Y1453575D03*
D10*
X1052942Y1401378D02*
X1052942Y1398838D01*
X1052434Y1398838D01*
X1052434Y1398889D01*
X1002929Y1398889D01*
X1002929Y1401200D01*
X1053145Y1448190D02*
X1053145Y1450908D01*
X1052637Y1450908D01*
X1052637Y1450933D01*
X1002955Y1450933D01*
X1002955Y1448673D01*
X1053450Y1433890D02*
X1053450Y1416872D01*
X1002650Y1416364D02*
X1002650Y1425000D01*
X1002650Y1433636D01*
X1002650Y1425000D02*
X1028050Y1450400D01*
D117*
X999475Y1453575D03*
D10*
X1202942Y1401378D02*
X1202942Y1398838D01*
X1202434Y1398838D01*
X1202434Y1398889D01*
X1152929Y1398889D01*
X1152929Y1401200D01*
X1203145Y1448190D02*
X1203145Y1450908D01*
X1202637Y1450908D01*
X1202637Y1450933D01*
X1152955Y1450933D01*
X1152955Y1448673D01*
X1203450Y1433890D02*
X1203450Y1416872D01*
X1152650Y1416364D02*
X1152650Y1425000D01*
X1152650Y1433636D01*
X1152650Y1425000D02*
X1178050Y1450400D01*
D117*
X1149475Y1453575D03*
D10*
X1352942Y1401378D02*
X1352942Y1398838D01*
X1352434Y1398838D01*
X1352434Y1398889D01*
X1302929Y1398889D01*
X1302929Y1401200D01*
X1353145Y1448190D02*
X1353145Y1450908D01*
X1352637Y1450908D01*
X1352637Y1450933D01*
X1302955Y1450933D01*
X1302955Y1448673D01*
X1353450Y1433890D02*
X1353450Y1416872D01*
X1302650Y1416364D02*
X1302650Y1425000D01*
X1302650Y1433636D01*
X1302650Y1425000D02*
X1328050Y1450400D01*
D117*
X1299475Y1453575D03*
D10*
X1502942Y1401378D02*
X1502942Y1398838D01*
X1502434Y1398838D01*
X1502434Y1398889D01*
X1452929Y1398889D01*
X1452929Y1401200D01*
X1503145Y1448190D02*
X1503145Y1450908D01*
X1502637Y1450908D01*
X1502637Y1450933D01*
X1452955Y1450933D01*
X1452955Y1448673D01*
X1503450Y1433890D02*
X1503450Y1416872D01*
X1452650Y1416364D02*
X1452650Y1425000D01*
X1452650Y1433636D01*
X1452650Y1425000D02*
X1478050Y1450400D01*
D117*
X1449475Y1453575D03*
D10*
X1652942Y1401378D02*
X1652942Y1398838D01*
X1652434Y1398838D01*
X1652434Y1398889D01*
X1602929Y1398889D01*
X1602929Y1401200D01*
X1653145Y1448190D02*
X1653145Y1450908D01*
X1652637Y1450908D01*
X1652637Y1450933D01*
X1602955Y1450933D01*
X1602955Y1448673D01*
X1653450Y1433890D02*
X1653450Y1416872D01*
X1602650Y1416364D02*
X1602650Y1425000D01*
X1602650Y1433636D01*
X1602650Y1425000D02*
X1628050Y1450400D01*
D117*
X1599475Y1453575D03*
D10*
X1802942Y1401378D02*
X1802942Y1398838D01*
X1802434Y1398838D01*
X1802434Y1398889D01*
X1752929Y1398889D01*
X1752929Y1401200D01*
X1803145Y1448190D02*
X1803145Y1450908D01*
X1802637Y1450908D01*
X1802637Y1450933D01*
X1752955Y1450933D01*
X1752955Y1448673D01*
X1803450Y1433890D02*
X1803450Y1416872D01*
X1752650Y1416364D02*
X1752650Y1425000D01*
X1752650Y1433636D01*
X1752650Y1425000D02*
X1778050Y1450400D01*
D117*
X1749475Y1453575D03*
D10*
X1952942Y1401378D02*
X1952942Y1398838D01*
X1952434Y1398838D01*
X1952434Y1398889D01*
X1902929Y1398889D01*
X1902929Y1401200D01*
X1953145Y1448190D02*
X1953145Y1450908D01*
X1952637Y1450908D01*
X1952637Y1450933D01*
X1902955Y1450933D01*
X1902955Y1448673D01*
X1953450Y1433890D02*
X1953450Y1416872D01*
X1902650Y1416364D02*
X1902650Y1425000D01*
X1902650Y1433636D01*
X1902650Y1425000D02*
X1928050Y1450400D01*
D117*
X1899475Y1453575D03*
D10*
X2102942Y1401378D02*
X2102942Y1398838D01*
X2102434Y1398838D01*
X2102434Y1398889D01*
X2052929Y1398889D01*
X2052929Y1401200D01*
X2103145Y1448190D02*
X2103145Y1450908D01*
X2102637Y1450908D01*
X2102637Y1450933D01*
X2052955Y1450933D01*
X2052955Y1448673D01*
X2103450Y1433890D02*
X2103450Y1416872D01*
X2052650Y1416364D02*
X2052650Y1425000D01*
X2052650Y1433636D01*
X2052650Y1425000D02*
X2078050Y1450400D01*
D117*
X2049475Y1453575D03*
D10*
X2252942Y1401378D02*
X2252942Y1398838D01*
X2252434Y1398838D01*
X2252434Y1398889D01*
X2202929Y1398889D01*
X2202929Y1401200D01*
X2253145Y1448190D02*
X2253145Y1450908D01*
X2252637Y1450908D01*
X2252637Y1450933D01*
X2202955Y1450933D01*
X2202955Y1448673D01*
X2253450Y1433890D02*
X2253450Y1416872D01*
X2202650Y1416364D02*
X2202650Y1425000D01*
X2202650Y1433636D01*
X2202650Y1425000D02*
X2228050Y1450400D01*
D117*
X2199475Y1453575D03*
D10*
X2402942Y1401378D02*
X2402942Y1398838D01*
X2402434Y1398838D01*
X2402434Y1398889D01*
X2352929Y1398889D01*
X2352929Y1401200D01*
X2403145Y1448190D02*
X2403145Y1450908D01*
X2402637Y1450908D01*
X2402637Y1450933D01*
X2352955Y1450933D01*
X2352955Y1448673D01*
X2403450Y1433890D02*
X2403450Y1416872D01*
X2352650Y1416364D02*
X2352650Y1425000D01*
X2352650Y1433636D01*
X2352650Y1425000D02*
X2378050Y1450400D01*
D117*
X2349475Y1453575D03*
D10*
X2552942Y1401378D02*
X2552942Y1398838D01*
X2552434Y1398838D01*
X2552434Y1398889D01*
X2502929Y1398889D01*
X2502929Y1401200D01*
X2553145Y1448190D02*
X2553145Y1450908D01*
X2552637Y1450908D01*
X2552637Y1450933D01*
X2502955Y1450933D01*
X2502955Y1448673D01*
X2553450Y1433890D02*
X2553450Y1416872D01*
X2502650Y1416364D02*
X2502650Y1425000D01*
X2502650Y1433636D01*
X2502650Y1425000D02*
X2528050Y1450400D01*
D117*
X2499475Y1453575D03*
D10*
X2702942Y1401378D02*
X2702942Y1398838D01*
X2702434Y1398838D01*
X2702434Y1398889D01*
X2652929Y1398889D01*
X2652929Y1401200D01*
X2703145Y1448190D02*
X2703145Y1450908D01*
X2702637Y1450908D01*
X2702637Y1450933D01*
X2652955Y1450933D01*
X2652955Y1448673D01*
X2703450Y1433890D02*
X2703450Y1416872D01*
X2652650Y1416364D02*
X2652650Y1425000D01*
X2652650Y1433636D01*
X2652650Y1425000D02*
X2678050Y1450400D01*
D117*
X2649475Y1453575D03*
D10*
X2852942Y1401378D02*
X2852942Y1398838D01*
X2852434Y1398838D01*
X2852434Y1398889D01*
X2802929Y1398889D01*
X2802929Y1401200D01*
X2853145Y1448190D02*
X2853145Y1450908D01*
X2852637Y1450908D01*
X2852637Y1450933D01*
X2802955Y1450933D01*
X2802955Y1448673D01*
X2853450Y1433890D02*
X2853450Y1416872D01*
X2802650Y1416364D02*
X2802650Y1425000D01*
X2802650Y1433636D01*
X2802650Y1425000D02*
X2828050Y1450400D01*
D117*
X2799475Y1453575D03*
D10*
X152942Y1251378D02*
X152942Y1248838D01*
X152434Y1248838D01*
X152434Y1248889D01*
X102929Y1248889D01*
X102929Y1251200D01*
X153145Y1298190D02*
X153145Y1300908D01*
X152637Y1300908D01*
X152637Y1300933D01*
X102955Y1300933D01*
X102955Y1298673D01*
X153450Y1283890D02*
X153450Y1266872D01*
X102650Y1266364D02*
X102650Y1275000D01*
X102650Y1283636D01*
X102650Y1275000D02*
X128050Y1300400D01*
D117*
X99475Y1303575D03*
D10*
X302942Y1251378D02*
X302942Y1248838D01*
X302434Y1248838D01*
X302434Y1248889D01*
X252929Y1248889D01*
X252929Y1251200D01*
X303145Y1298190D02*
X303145Y1300908D01*
X302637Y1300908D01*
X302637Y1300933D01*
X252955Y1300933D01*
X252955Y1298673D01*
X303450Y1283890D02*
X303450Y1266872D01*
X252650Y1266364D02*
X252650Y1275000D01*
X252650Y1283636D01*
X252650Y1275000D02*
X278050Y1300400D01*
D117*
X249475Y1303575D03*
D10*
X452942Y1251378D02*
X452942Y1248838D01*
X452434Y1248838D01*
X452434Y1248889D01*
X402929Y1248889D01*
X402929Y1251200D01*
X453145Y1298190D02*
X453145Y1300908D01*
X452637Y1300908D01*
X452637Y1300933D01*
X402955Y1300933D01*
X402955Y1298673D01*
X453450Y1283890D02*
X453450Y1266872D01*
X402650Y1266364D02*
X402650Y1275000D01*
X402650Y1283636D01*
X402650Y1275000D02*
X428050Y1300400D01*
D117*
X399475Y1303575D03*
D10*
X602942Y1251378D02*
X602942Y1248838D01*
X602434Y1248838D01*
X602434Y1248889D01*
X552929Y1248889D01*
X552929Y1251200D01*
X603145Y1298190D02*
X603145Y1300908D01*
X602637Y1300908D01*
X602637Y1300933D01*
X552955Y1300933D01*
X552955Y1298673D01*
X603450Y1283890D02*
X603450Y1266872D01*
X552650Y1266364D02*
X552650Y1275000D01*
X552650Y1283636D01*
X552650Y1275000D02*
X578050Y1300400D01*
D117*
X549475Y1303575D03*
D10*
X752942Y1251378D02*
X752942Y1248838D01*
X752434Y1248838D01*
X752434Y1248889D01*
X702929Y1248889D01*
X702929Y1251200D01*
X753145Y1298190D02*
X753145Y1300908D01*
X752637Y1300908D01*
X752637Y1300933D01*
X702955Y1300933D01*
X702955Y1298673D01*
X753450Y1283890D02*
X753450Y1266872D01*
X702650Y1266364D02*
X702650Y1275000D01*
X702650Y1283636D01*
X702650Y1275000D02*
X728050Y1300400D01*
D117*
X699475Y1303575D03*
D10*
X902942Y1251378D02*
X902942Y1248838D01*
X902434Y1248838D01*
X902434Y1248889D01*
X852929Y1248889D01*
X852929Y1251200D01*
X903145Y1298190D02*
X903145Y1300908D01*
X902637Y1300908D01*
X902637Y1300933D01*
X852955Y1300933D01*
X852955Y1298673D01*
X903450Y1283890D02*
X903450Y1266872D01*
X852650Y1266364D02*
X852650Y1275000D01*
X852650Y1283636D01*
X852650Y1275000D02*
X878050Y1300400D01*
D117*
X849475Y1303575D03*
D10*
X1052942Y1251378D02*
X1052942Y1248838D01*
X1052434Y1248838D01*
X1052434Y1248889D01*
X1002929Y1248889D01*
X1002929Y1251200D01*
X1053145Y1298190D02*
X1053145Y1300908D01*
X1052637Y1300908D01*
X1052637Y1300933D01*
X1002955Y1300933D01*
X1002955Y1298673D01*
X1053450Y1283890D02*
X1053450Y1266872D01*
X1002650Y1266364D02*
X1002650Y1275000D01*
X1002650Y1283636D01*
X1002650Y1275000D02*
X1028050Y1300400D01*
D117*
X999475Y1303575D03*
D10*
X1202942Y1251378D02*
X1202942Y1248838D01*
X1202434Y1248838D01*
X1202434Y1248889D01*
X1152929Y1248889D01*
X1152929Y1251200D01*
X1203145Y1298190D02*
X1203145Y1300908D01*
X1202637Y1300908D01*
X1202637Y1300933D01*
X1152955Y1300933D01*
X1152955Y1298673D01*
X1203450Y1283890D02*
X1203450Y1266872D01*
X1152650Y1266364D02*
X1152650Y1275000D01*
X1152650Y1283636D01*
X1152650Y1275000D02*
X1178050Y1300400D01*
D117*
X1149475Y1303575D03*
D10*
X1352942Y1251378D02*
X1352942Y1248838D01*
X1352434Y1248838D01*
X1352434Y1248889D01*
X1302929Y1248889D01*
X1302929Y1251200D01*
X1353145Y1298190D02*
X1353145Y1300908D01*
X1352637Y1300908D01*
X1352637Y1300933D01*
X1302955Y1300933D01*
X1302955Y1298673D01*
X1353450Y1283890D02*
X1353450Y1266872D01*
X1302650Y1266364D02*
X1302650Y1275000D01*
X1302650Y1283636D01*
X1302650Y1275000D02*
X1328050Y1300400D01*
D117*
X1299475Y1303575D03*
D10*
X1502942Y1251378D02*
X1502942Y1248838D01*
X1502434Y1248838D01*
X1502434Y1248889D01*
X1452929Y1248889D01*
X1452929Y1251200D01*
X1503145Y1298190D02*
X1503145Y1300908D01*
X1502637Y1300908D01*
X1502637Y1300933D01*
X1452955Y1300933D01*
X1452955Y1298673D01*
X1503450Y1283890D02*
X1503450Y1266872D01*
X1452650Y1266364D02*
X1452650Y1275000D01*
X1452650Y1283636D01*
X1452650Y1275000D02*
X1478050Y1300400D01*
D117*
X1449475Y1303575D03*
D10*
X1652942Y1251378D02*
X1652942Y1248838D01*
X1652434Y1248838D01*
X1652434Y1248889D01*
X1602929Y1248889D01*
X1602929Y1251200D01*
X1653145Y1298190D02*
X1653145Y1300908D01*
X1652637Y1300908D01*
X1652637Y1300933D01*
X1602955Y1300933D01*
X1602955Y1298673D01*
X1653450Y1283890D02*
X1653450Y1266872D01*
X1602650Y1266364D02*
X1602650Y1275000D01*
X1602650Y1283636D01*
X1602650Y1275000D02*
X1628050Y1300400D01*
D117*
X1599475Y1303575D03*
D10*
X1802942Y1251378D02*
X1802942Y1248838D01*
X1802434Y1248838D01*
X1802434Y1248889D01*
X1752929Y1248889D01*
X1752929Y1251200D01*
X1803145Y1298190D02*
X1803145Y1300908D01*
X1802637Y1300908D01*
X1802637Y1300933D01*
X1752955Y1300933D01*
X1752955Y1298673D01*
X1803450Y1283890D02*
X1803450Y1266872D01*
X1752650Y1266364D02*
X1752650Y1275000D01*
X1752650Y1283636D01*
X1752650Y1275000D02*
X1778050Y1300400D01*
D117*
X1749475Y1303575D03*
D10*
X1952942Y1251378D02*
X1952942Y1248838D01*
X1952434Y1248838D01*
X1952434Y1248889D01*
X1902929Y1248889D01*
X1902929Y1251200D01*
X1953145Y1298190D02*
X1953145Y1300908D01*
X1952637Y1300908D01*
X1952637Y1300933D01*
X1902955Y1300933D01*
X1902955Y1298673D01*
X1953450Y1283890D02*
X1953450Y1266872D01*
X1902650Y1266364D02*
X1902650Y1275000D01*
X1902650Y1283636D01*
X1902650Y1275000D02*
X1928050Y1300400D01*
D117*
X1899475Y1303575D03*
D10*
X2102942Y1251378D02*
X2102942Y1248838D01*
X2102434Y1248838D01*
X2102434Y1248889D01*
X2052929Y1248889D01*
X2052929Y1251200D01*
X2103145Y1298190D02*
X2103145Y1300908D01*
X2102637Y1300908D01*
X2102637Y1300933D01*
X2052955Y1300933D01*
X2052955Y1298673D01*
X2103450Y1283890D02*
X2103450Y1266872D01*
X2052650Y1266364D02*
X2052650Y1275000D01*
X2052650Y1283636D01*
X2052650Y1275000D02*
X2078050Y1300400D01*
D117*
X2049475Y1303575D03*
D10*
X2252942Y1251378D02*
X2252942Y1248838D01*
X2252434Y1248838D01*
X2252434Y1248889D01*
X2202929Y1248889D01*
X2202929Y1251200D01*
X2253145Y1298190D02*
X2253145Y1300908D01*
X2252637Y1300908D01*
X2252637Y1300933D01*
X2202955Y1300933D01*
X2202955Y1298673D01*
X2253450Y1283890D02*
X2253450Y1266872D01*
X2202650Y1266364D02*
X2202650Y1275000D01*
X2202650Y1283636D01*
X2202650Y1275000D02*
X2228050Y1300400D01*
D117*
X2199475Y1303575D03*
D10*
X2402942Y1251378D02*
X2402942Y1248838D01*
X2402434Y1248838D01*
X2402434Y1248889D01*
X2352929Y1248889D01*
X2352929Y1251200D01*
X2403145Y1298190D02*
X2403145Y1300908D01*
X2402637Y1300908D01*
X2402637Y1300933D01*
X2352955Y1300933D01*
X2352955Y1298673D01*
X2403450Y1283890D02*
X2403450Y1266872D01*
X2352650Y1266364D02*
X2352650Y1275000D01*
X2352650Y1283636D01*
X2352650Y1275000D02*
X2378050Y1300400D01*
D117*
X2349475Y1303575D03*
D10*
X2552942Y1251378D02*
X2552942Y1248838D01*
X2552434Y1248838D01*
X2552434Y1248889D01*
X2502929Y1248889D01*
X2502929Y1251200D01*
X2553145Y1298190D02*
X2553145Y1300908D01*
X2552637Y1300908D01*
X2552637Y1300933D01*
X2502955Y1300933D01*
X2502955Y1298673D01*
X2553450Y1283890D02*
X2553450Y1266872D01*
X2502650Y1266364D02*
X2502650Y1275000D01*
X2502650Y1283636D01*
X2502650Y1275000D02*
X2528050Y1300400D01*
D117*
X2499475Y1303575D03*
D10*
X2702942Y1251378D02*
X2702942Y1248838D01*
X2702434Y1248838D01*
X2702434Y1248889D01*
X2652929Y1248889D01*
X2652929Y1251200D01*
X2703145Y1298190D02*
X2703145Y1300908D01*
X2702637Y1300908D01*
X2702637Y1300933D01*
X2652955Y1300933D01*
X2652955Y1298673D01*
X2703450Y1283890D02*
X2703450Y1266872D01*
X2652650Y1266364D02*
X2652650Y1275000D01*
X2652650Y1283636D01*
X2652650Y1275000D02*
X2678050Y1300400D01*
D117*
X2649475Y1303575D03*
D10*
X2852942Y1251378D02*
X2852942Y1248838D01*
X2852434Y1248838D01*
X2852434Y1248889D01*
X2802929Y1248889D01*
X2802929Y1251200D01*
X2853145Y1298190D02*
X2853145Y1300908D01*
X2852637Y1300908D01*
X2852637Y1300933D01*
X2802955Y1300933D01*
X2802955Y1298673D01*
X2853450Y1283890D02*
X2853450Y1266872D01*
X2802650Y1266364D02*
X2802650Y1275000D01*
X2802650Y1283636D01*
X2802650Y1275000D02*
X2828050Y1300400D01*
D117*
X2799475Y1303575D03*
D10*
X152942Y1101378D02*
X152942Y1098838D01*
X152434Y1098838D01*
X152434Y1098889D01*
X102929Y1098889D01*
X102929Y1101200D01*
X153145Y1148190D02*
X153145Y1150908D01*
X152637Y1150908D01*
X152637Y1150933D01*
X102955Y1150933D01*
X102955Y1148673D01*
X153450Y1133890D02*
X153450Y1116872D01*
X102650Y1116364D02*
X102650Y1125000D01*
X102650Y1133636D01*
X102650Y1125000D02*
X128050Y1150400D01*
D117*
X99475Y1153575D03*
D10*
X302942Y1101378D02*
X302942Y1098838D01*
X302434Y1098838D01*
X302434Y1098889D01*
X252929Y1098889D01*
X252929Y1101200D01*
X303145Y1148190D02*
X303145Y1150908D01*
X302637Y1150908D01*
X302637Y1150933D01*
X252955Y1150933D01*
X252955Y1148673D01*
X303450Y1133890D02*
X303450Y1116872D01*
X252650Y1116364D02*
X252650Y1125000D01*
X252650Y1133636D01*
X252650Y1125000D02*
X278050Y1150400D01*
D117*
X249475Y1153575D03*
D10*
X452942Y1101378D02*
X452942Y1098838D01*
X452434Y1098838D01*
X452434Y1098889D01*
X402929Y1098889D01*
X402929Y1101200D01*
X453145Y1148190D02*
X453145Y1150908D01*
X452637Y1150908D01*
X452637Y1150933D01*
X402955Y1150933D01*
X402955Y1148673D01*
X453450Y1133890D02*
X453450Y1116872D01*
X402650Y1116364D02*
X402650Y1125000D01*
X402650Y1133636D01*
X402650Y1125000D02*
X428050Y1150400D01*
D117*
X399475Y1153575D03*
D10*
X602942Y1101378D02*
X602942Y1098838D01*
X602434Y1098838D01*
X602434Y1098889D01*
X552929Y1098889D01*
X552929Y1101200D01*
X603145Y1148190D02*
X603145Y1150908D01*
X602637Y1150908D01*
X602637Y1150933D01*
X552955Y1150933D01*
X552955Y1148673D01*
X603450Y1133890D02*
X603450Y1116872D01*
X552650Y1116364D02*
X552650Y1125000D01*
X552650Y1133636D01*
X552650Y1125000D02*
X578050Y1150400D01*
D117*
X549475Y1153575D03*
D10*
X752942Y1101378D02*
X752942Y1098838D01*
X752434Y1098838D01*
X752434Y1098889D01*
X702929Y1098889D01*
X702929Y1101200D01*
X753145Y1148190D02*
X753145Y1150908D01*
X752637Y1150908D01*
X752637Y1150933D01*
X702955Y1150933D01*
X702955Y1148673D01*
X753450Y1133890D02*
X753450Y1116872D01*
X702650Y1116364D02*
X702650Y1125000D01*
X702650Y1133636D01*
X702650Y1125000D02*
X728050Y1150400D01*
D117*
X699475Y1153575D03*
D10*
X902942Y1101378D02*
X902942Y1098838D01*
X902434Y1098838D01*
X902434Y1098889D01*
X852929Y1098889D01*
X852929Y1101200D01*
X903145Y1148190D02*
X903145Y1150908D01*
X902637Y1150908D01*
X902637Y1150933D01*
X852955Y1150933D01*
X852955Y1148673D01*
X903450Y1133890D02*
X903450Y1116872D01*
X852650Y1116364D02*
X852650Y1125000D01*
X852650Y1133636D01*
X852650Y1125000D02*
X878050Y1150400D01*
D117*
X849475Y1153575D03*
D10*
X1052942Y1101378D02*
X1052942Y1098838D01*
X1052434Y1098838D01*
X1052434Y1098889D01*
X1002929Y1098889D01*
X1002929Y1101200D01*
X1053145Y1148190D02*
X1053145Y1150908D01*
X1052637Y1150908D01*
X1052637Y1150933D01*
X1002955Y1150933D01*
X1002955Y1148673D01*
X1053450Y1133890D02*
X1053450Y1116872D01*
X1002650Y1116364D02*
X1002650Y1125000D01*
X1002650Y1133636D01*
X1002650Y1125000D02*
X1028050Y1150400D01*
D117*
X999475Y1153575D03*
D10*
X1202942Y1101378D02*
X1202942Y1098838D01*
X1202434Y1098838D01*
X1202434Y1098889D01*
X1152929Y1098889D01*
X1152929Y1101200D01*
X1203145Y1148190D02*
X1203145Y1150908D01*
X1202637Y1150908D01*
X1202637Y1150933D01*
X1152955Y1150933D01*
X1152955Y1148673D01*
X1203450Y1133890D02*
X1203450Y1116872D01*
X1152650Y1116364D02*
X1152650Y1125000D01*
X1152650Y1133636D01*
X1152650Y1125000D02*
X1178050Y1150400D01*
D117*
X1149475Y1153575D03*
D10*
X1352942Y1101378D02*
X1352942Y1098838D01*
X1352434Y1098838D01*
X1352434Y1098889D01*
X1302929Y1098889D01*
X1302929Y1101200D01*
X1353145Y1148190D02*
X1353145Y1150908D01*
X1352637Y1150908D01*
X1352637Y1150933D01*
X1302955Y1150933D01*
X1302955Y1148673D01*
X1353450Y1133890D02*
X1353450Y1116872D01*
X1302650Y1116364D02*
X1302650Y1125000D01*
X1302650Y1133636D01*
X1302650Y1125000D02*
X1328050Y1150400D01*
D117*
X1299475Y1153575D03*
D10*
X1502942Y1101378D02*
X1502942Y1098838D01*
X1502434Y1098838D01*
X1502434Y1098889D01*
X1452929Y1098889D01*
X1452929Y1101200D01*
X1503145Y1148190D02*
X1503145Y1150908D01*
X1502637Y1150908D01*
X1502637Y1150933D01*
X1452955Y1150933D01*
X1452955Y1148673D01*
X1503450Y1133890D02*
X1503450Y1116872D01*
X1452650Y1116364D02*
X1452650Y1125000D01*
X1452650Y1133636D01*
X1452650Y1125000D02*
X1478050Y1150400D01*
D117*
X1449475Y1153575D03*
D10*
X1652942Y1101378D02*
X1652942Y1098838D01*
X1652434Y1098838D01*
X1652434Y1098889D01*
X1602929Y1098889D01*
X1602929Y1101200D01*
X1653145Y1148190D02*
X1653145Y1150908D01*
X1652637Y1150908D01*
X1652637Y1150933D01*
X1602955Y1150933D01*
X1602955Y1148673D01*
X1653450Y1133890D02*
X1653450Y1116872D01*
X1602650Y1116364D02*
X1602650Y1125000D01*
X1602650Y1133636D01*
X1602650Y1125000D02*
X1628050Y1150400D01*
D117*
X1599475Y1153575D03*
D10*
X1802942Y1101378D02*
X1802942Y1098838D01*
X1802434Y1098838D01*
X1802434Y1098889D01*
X1752929Y1098889D01*
X1752929Y1101200D01*
X1803145Y1148190D02*
X1803145Y1150908D01*
X1802637Y1150908D01*
X1802637Y1150933D01*
X1752955Y1150933D01*
X1752955Y1148673D01*
X1803450Y1133890D02*
X1803450Y1116872D01*
X1752650Y1116364D02*
X1752650Y1125000D01*
X1752650Y1133636D01*
X1752650Y1125000D02*
X1778050Y1150400D01*
D117*
X1749475Y1153575D03*
D10*
X1952942Y1101378D02*
X1952942Y1098838D01*
X1952434Y1098838D01*
X1952434Y1098889D01*
X1902929Y1098889D01*
X1902929Y1101200D01*
X1953145Y1148190D02*
X1953145Y1150908D01*
X1952637Y1150908D01*
X1952637Y1150933D01*
X1902955Y1150933D01*
X1902955Y1148673D01*
X1953450Y1133890D02*
X1953450Y1116872D01*
X1902650Y1116364D02*
X1902650Y1125000D01*
X1902650Y1133636D01*
X1902650Y1125000D02*
X1928050Y1150400D01*
D117*
X1899475Y1153575D03*
D10*
X2102942Y1101378D02*
X2102942Y1098838D01*
X2102434Y1098838D01*
X2102434Y1098889D01*
X2052929Y1098889D01*
X2052929Y1101200D01*
X2103145Y1148190D02*
X2103145Y1150908D01*
X2102637Y1150908D01*
X2102637Y1150933D01*
X2052955Y1150933D01*
X2052955Y1148673D01*
X2103450Y1133890D02*
X2103450Y1116872D01*
X2052650Y1116364D02*
X2052650Y1125000D01*
X2052650Y1133636D01*
X2052650Y1125000D02*
X2078050Y1150400D01*
D117*
X2049475Y1153575D03*
D10*
X2252942Y1101378D02*
X2252942Y1098838D01*
X2252434Y1098838D01*
X2252434Y1098889D01*
X2202929Y1098889D01*
X2202929Y1101200D01*
X2253145Y1148190D02*
X2253145Y1150908D01*
X2252637Y1150908D01*
X2252637Y1150933D01*
X2202955Y1150933D01*
X2202955Y1148673D01*
X2253450Y1133890D02*
X2253450Y1116872D01*
X2202650Y1116364D02*
X2202650Y1125000D01*
X2202650Y1133636D01*
X2202650Y1125000D02*
X2228050Y1150400D01*
D117*
X2199475Y1153575D03*
D10*
X2402942Y1101378D02*
X2402942Y1098838D01*
X2402434Y1098838D01*
X2402434Y1098889D01*
X2352929Y1098889D01*
X2352929Y1101200D01*
X2403145Y1148190D02*
X2403145Y1150908D01*
X2402637Y1150908D01*
X2402637Y1150933D01*
X2352955Y1150933D01*
X2352955Y1148673D01*
X2403450Y1133890D02*
X2403450Y1116872D01*
X2352650Y1116364D02*
X2352650Y1125000D01*
X2352650Y1133636D01*
X2352650Y1125000D02*
X2378050Y1150400D01*
D117*
X2349475Y1153575D03*
D10*
X2552942Y1101378D02*
X2552942Y1098838D01*
X2552434Y1098838D01*
X2552434Y1098889D01*
X2502929Y1098889D01*
X2502929Y1101200D01*
X2553145Y1148190D02*
X2553145Y1150908D01*
X2552637Y1150908D01*
X2552637Y1150933D01*
X2502955Y1150933D01*
X2502955Y1148673D01*
X2553450Y1133890D02*
X2553450Y1116872D01*
X2502650Y1116364D02*
X2502650Y1125000D01*
X2502650Y1133636D01*
X2502650Y1125000D02*
X2528050Y1150400D01*
D117*
X2499475Y1153575D03*
D10*
X2702942Y1101378D02*
X2702942Y1098838D01*
X2702434Y1098838D01*
X2702434Y1098889D01*
X2652929Y1098889D01*
X2652929Y1101200D01*
X2703145Y1148190D02*
X2703145Y1150908D01*
X2702637Y1150908D01*
X2702637Y1150933D01*
X2652955Y1150933D01*
X2652955Y1148673D01*
X2703450Y1133890D02*
X2703450Y1116872D01*
X2652650Y1116364D02*
X2652650Y1125000D01*
X2652650Y1133636D01*
X2652650Y1125000D02*
X2678050Y1150400D01*
D117*
X2649475Y1153575D03*
D10*
X2852942Y1101378D02*
X2852942Y1098838D01*
X2852434Y1098838D01*
X2852434Y1098889D01*
X2802929Y1098889D01*
X2802929Y1101200D01*
X2853145Y1148190D02*
X2853145Y1150908D01*
X2852637Y1150908D01*
X2852637Y1150933D01*
X2802955Y1150933D01*
X2802955Y1148673D01*
X2853450Y1133890D02*
X2853450Y1116872D01*
X2802650Y1116364D02*
X2802650Y1125000D01*
X2802650Y1133636D01*
X2802650Y1125000D02*
X2828050Y1150400D01*
D117*
X2799475Y1153575D03*
D10*
X152942Y951378D02*
X152942Y948838D01*
X152434Y948838D01*
X152434Y948889D01*
X102929Y948889D01*
X102929Y951200D01*
X153145Y998190D02*
X153145Y1000908D01*
X152637Y1000908D01*
X152637Y1000933D01*
X102955Y1000933D01*
X102955Y998673D01*
X153450Y983890D02*
X153450Y966872D01*
X102650Y966364D02*
X102650Y975000D01*
X102650Y983636D01*
X102650Y975000D02*
X128050Y1000400D01*
D117*
X99475Y1003575D03*
D10*
X302942Y951378D02*
X302942Y948838D01*
X302434Y948838D01*
X302434Y948889D01*
X252929Y948889D01*
X252929Y951200D01*
X303145Y998190D02*
X303145Y1000908D01*
X302637Y1000908D01*
X302637Y1000933D01*
X252955Y1000933D01*
X252955Y998673D01*
X303450Y983890D02*
X303450Y966872D01*
X252650Y966364D02*
X252650Y975000D01*
X252650Y983636D01*
X252650Y975000D02*
X278050Y1000400D01*
D117*
X249475Y1003575D03*
D10*
X452942Y951378D02*
X452942Y948838D01*
X452434Y948838D01*
X452434Y948889D01*
X402929Y948889D01*
X402929Y951200D01*
X453145Y998190D02*
X453145Y1000908D01*
X452637Y1000908D01*
X452637Y1000933D01*
X402955Y1000933D01*
X402955Y998673D01*
X453450Y983890D02*
X453450Y966872D01*
X402650Y966364D02*
X402650Y975000D01*
X402650Y983636D01*
X402650Y975000D02*
X428050Y1000400D01*
D117*
X399475Y1003575D03*
D10*
X602942Y951378D02*
X602942Y948838D01*
X602434Y948838D01*
X602434Y948889D01*
X552929Y948889D01*
X552929Y951200D01*
X603145Y998190D02*
X603145Y1000908D01*
X602637Y1000908D01*
X602637Y1000933D01*
X552955Y1000933D01*
X552955Y998673D01*
X603450Y983890D02*
X603450Y966872D01*
X552650Y966364D02*
X552650Y975000D01*
X552650Y983636D01*
X552650Y975000D02*
X578050Y1000400D01*
D117*
X549475Y1003575D03*
D10*
X752942Y951378D02*
X752942Y948838D01*
X752434Y948838D01*
X752434Y948889D01*
X702929Y948889D01*
X702929Y951200D01*
X753145Y998190D02*
X753145Y1000908D01*
X752637Y1000908D01*
X752637Y1000933D01*
X702955Y1000933D01*
X702955Y998673D01*
X753450Y983890D02*
X753450Y966872D01*
X702650Y966364D02*
X702650Y975000D01*
X702650Y983636D01*
X702650Y975000D02*
X728050Y1000400D01*
D117*
X699475Y1003575D03*
D10*
X902942Y951378D02*
X902942Y948838D01*
X902434Y948838D01*
X902434Y948889D01*
X852929Y948889D01*
X852929Y951200D01*
X903145Y998190D02*
X903145Y1000908D01*
X902637Y1000908D01*
X902637Y1000933D01*
X852955Y1000933D01*
X852955Y998673D01*
X903450Y983890D02*
X903450Y966872D01*
X852650Y966364D02*
X852650Y975000D01*
X852650Y983636D01*
X852650Y975000D02*
X878050Y1000400D01*
D117*
X849475Y1003575D03*
D10*
X1052942Y951378D02*
X1052942Y948838D01*
X1052434Y948838D01*
X1052434Y948889D01*
X1002929Y948889D01*
X1002929Y951200D01*
X1053145Y998190D02*
X1053145Y1000908D01*
X1052637Y1000908D01*
X1052637Y1000933D01*
X1002955Y1000933D01*
X1002955Y998673D01*
X1053450Y983890D02*
X1053450Y966872D01*
X1002650Y966364D02*
X1002650Y975000D01*
X1002650Y983636D01*
X1002650Y975000D02*
X1028050Y1000400D01*
D117*
X999475Y1003575D03*
D10*
X1202942Y951378D02*
X1202942Y948838D01*
X1202434Y948838D01*
X1202434Y948889D01*
X1152929Y948889D01*
X1152929Y951200D01*
X1203145Y998190D02*
X1203145Y1000908D01*
X1202637Y1000908D01*
X1202637Y1000933D01*
X1152955Y1000933D01*
X1152955Y998673D01*
X1203450Y983890D02*
X1203450Y966872D01*
X1152650Y966364D02*
X1152650Y975000D01*
X1152650Y983636D01*
X1152650Y975000D02*
X1178050Y1000400D01*
D117*
X1149475Y1003575D03*
D10*
X1352942Y951378D02*
X1352942Y948838D01*
X1352434Y948838D01*
X1352434Y948889D01*
X1302929Y948889D01*
X1302929Y951200D01*
X1353145Y998190D02*
X1353145Y1000908D01*
X1352637Y1000908D01*
X1352637Y1000933D01*
X1302955Y1000933D01*
X1302955Y998673D01*
X1353450Y983890D02*
X1353450Y966872D01*
X1302650Y966364D02*
X1302650Y975000D01*
X1302650Y983636D01*
X1302650Y975000D02*
X1328050Y1000400D01*
D117*
X1299475Y1003575D03*
D10*
X1502942Y951378D02*
X1502942Y948838D01*
X1502434Y948838D01*
X1502434Y948889D01*
X1452929Y948889D01*
X1452929Y951200D01*
X1503145Y998190D02*
X1503145Y1000908D01*
X1502637Y1000908D01*
X1502637Y1000933D01*
X1452955Y1000933D01*
X1452955Y998673D01*
X1503450Y983890D02*
X1503450Y966872D01*
X1452650Y966364D02*
X1452650Y975000D01*
X1452650Y983636D01*
X1452650Y975000D02*
X1478050Y1000400D01*
D117*
X1449475Y1003575D03*
D10*
X1652942Y951378D02*
X1652942Y948838D01*
X1652434Y948838D01*
X1652434Y948889D01*
X1602929Y948889D01*
X1602929Y951200D01*
X1653145Y998190D02*
X1653145Y1000908D01*
X1652637Y1000908D01*
X1652637Y1000933D01*
X1602955Y1000933D01*
X1602955Y998673D01*
X1653450Y983890D02*
X1653450Y966872D01*
X1602650Y966364D02*
X1602650Y975000D01*
X1602650Y983636D01*
X1602650Y975000D02*
X1628050Y1000400D01*
D117*
X1599475Y1003575D03*
D10*
X1802942Y951378D02*
X1802942Y948838D01*
X1802434Y948838D01*
X1802434Y948889D01*
X1752929Y948889D01*
X1752929Y951200D01*
X1803145Y998190D02*
X1803145Y1000908D01*
X1802637Y1000908D01*
X1802637Y1000933D01*
X1752955Y1000933D01*
X1752955Y998673D01*
X1803450Y983890D02*
X1803450Y966872D01*
X1752650Y966364D02*
X1752650Y975000D01*
X1752650Y983636D01*
X1752650Y975000D02*
X1778050Y1000400D01*
D117*
X1749475Y1003575D03*
D10*
X1952942Y951378D02*
X1952942Y948838D01*
X1952434Y948838D01*
X1952434Y948889D01*
X1902929Y948889D01*
X1902929Y951200D01*
X1953145Y998190D02*
X1953145Y1000908D01*
X1952637Y1000908D01*
X1952637Y1000933D01*
X1902955Y1000933D01*
X1902955Y998673D01*
X1953450Y983890D02*
X1953450Y966872D01*
X1902650Y966364D02*
X1902650Y975000D01*
X1902650Y983636D01*
X1902650Y975000D02*
X1928050Y1000400D01*
D117*
X1899475Y1003575D03*
D10*
X2102942Y951378D02*
X2102942Y948838D01*
X2102434Y948838D01*
X2102434Y948889D01*
X2052929Y948889D01*
X2052929Y951200D01*
X2103145Y998190D02*
X2103145Y1000908D01*
X2102637Y1000908D01*
X2102637Y1000933D01*
X2052955Y1000933D01*
X2052955Y998673D01*
X2103450Y983890D02*
X2103450Y966872D01*
X2052650Y966364D02*
X2052650Y975000D01*
X2052650Y983636D01*
X2052650Y975000D02*
X2078050Y1000400D01*
D117*
X2049475Y1003575D03*
D10*
X2252942Y951378D02*
X2252942Y948838D01*
X2252434Y948838D01*
X2252434Y948889D01*
X2202929Y948889D01*
X2202929Y951200D01*
X2253145Y998190D02*
X2253145Y1000908D01*
X2252637Y1000908D01*
X2252637Y1000933D01*
X2202955Y1000933D01*
X2202955Y998673D01*
X2253450Y983890D02*
X2253450Y966872D01*
X2202650Y966364D02*
X2202650Y975000D01*
X2202650Y983636D01*
X2202650Y975000D02*
X2228050Y1000400D01*
D117*
X2199475Y1003575D03*
D10*
X2402942Y951378D02*
X2402942Y948838D01*
X2402434Y948838D01*
X2402434Y948889D01*
X2352929Y948889D01*
X2352929Y951200D01*
X2403145Y998190D02*
X2403145Y1000908D01*
X2402637Y1000908D01*
X2402637Y1000933D01*
X2352955Y1000933D01*
X2352955Y998673D01*
X2403450Y983890D02*
X2403450Y966872D01*
X2352650Y966364D02*
X2352650Y975000D01*
X2352650Y983636D01*
X2352650Y975000D02*
X2378050Y1000400D01*
D117*
X2349475Y1003575D03*
D10*
X2552942Y951378D02*
X2552942Y948838D01*
X2552434Y948838D01*
X2552434Y948889D01*
X2502929Y948889D01*
X2502929Y951200D01*
X2553145Y998190D02*
X2553145Y1000908D01*
X2552637Y1000908D01*
X2552637Y1000933D01*
X2502955Y1000933D01*
X2502955Y998673D01*
X2553450Y983890D02*
X2553450Y966872D01*
X2502650Y966364D02*
X2502650Y975000D01*
X2502650Y983636D01*
X2502650Y975000D02*
X2528050Y1000400D01*
D117*
X2499475Y1003575D03*
D10*
X2702942Y951378D02*
X2702942Y948838D01*
X2702434Y948838D01*
X2702434Y948889D01*
X2652929Y948889D01*
X2652929Y951200D01*
X2703145Y998190D02*
X2703145Y1000908D01*
X2702637Y1000908D01*
X2702637Y1000933D01*
X2652955Y1000933D01*
X2652955Y998673D01*
X2703450Y983890D02*
X2703450Y966872D01*
X2652650Y966364D02*
X2652650Y975000D01*
X2652650Y983636D01*
X2652650Y975000D02*
X2678050Y1000400D01*
D117*
X2649475Y1003575D03*
D10*
X2852942Y951378D02*
X2852942Y948838D01*
X2852434Y948838D01*
X2852434Y948889D01*
X2802929Y948889D01*
X2802929Y951200D01*
X2853145Y998190D02*
X2853145Y1000908D01*
X2852637Y1000908D01*
X2852637Y1000933D01*
X2802955Y1000933D01*
X2802955Y998673D01*
X2853450Y983890D02*
X2853450Y966872D01*
X2802650Y966364D02*
X2802650Y975000D01*
X2802650Y983636D01*
X2802650Y975000D02*
X2828050Y1000400D01*
D117*
X2799475Y1003575D03*
D10*
X152942Y801378D02*
X152942Y798838D01*
X152434Y798838D01*
X152434Y798889D01*
X102929Y798889D01*
X102929Y801200D01*
X153145Y848190D02*
X153145Y850908D01*
X152637Y850908D01*
X152637Y850933D01*
X102955Y850933D01*
X102955Y848673D01*
X153450Y833890D02*
X153450Y816872D01*
X102650Y816364D02*
X102650Y825000D01*
X102650Y833636D01*
X102650Y825000D02*
X128050Y850400D01*
D117*
X99475Y853575D03*
D10*
X302942Y801378D02*
X302942Y798838D01*
X302434Y798838D01*
X302434Y798889D01*
X252929Y798889D01*
X252929Y801200D01*
X303145Y848190D02*
X303145Y850908D01*
X302637Y850908D01*
X302637Y850933D01*
X252955Y850933D01*
X252955Y848673D01*
X303450Y833890D02*
X303450Y816872D01*
X252650Y816364D02*
X252650Y825000D01*
X252650Y833636D01*
X252650Y825000D02*
X278050Y850400D01*
D117*
X249475Y853575D03*
D10*
X452942Y801378D02*
X452942Y798838D01*
X452434Y798838D01*
X452434Y798889D01*
X402929Y798889D01*
X402929Y801200D01*
X453145Y848190D02*
X453145Y850908D01*
X452637Y850908D01*
X452637Y850933D01*
X402955Y850933D01*
X402955Y848673D01*
X453450Y833890D02*
X453450Y816872D01*
X402650Y816364D02*
X402650Y825000D01*
X402650Y833636D01*
X402650Y825000D02*
X428050Y850400D01*
D117*
X399475Y853575D03*
D10*
X602942Y801378D02*
X602942Y798838D01*
X602434Y798838D01*
X602434Y798889D01*
X552929Y798889D01*
X552929Y801200D01*
X603145Y848190D02*
X603145Y850908D01*
X602637Y850908D01*
X602637Y850933D01*
X552955Y850933D01*
X552955Y848673D01*
X603450Y833890D02*
X603450Y816872D01*
X552650Y816364D02*
X552650Y825000D01*
X552650Y833636D01*
X552650Y825000D02*
X578050Y850400D01*
D117*
X549475Y853575D03*
D10*
X752942Y801378D02*
X752942Y798838D01*
X752434Y798838D01*
X752434Y798889D01*
X702929Y798889D01*
X702929Y801200D01*
X753145Y848190D02*
X753145Y850908D01*
X752637Y850908D01*
X752637Y850933D01*
X702955Y850933D01*
X702955Y848673D01*
X753450Y833890D02*
X753450Y816872D01*
X702650Y816364D02*
X702650Y825000D01*
X702650Y833636D01*
X702650Y825000D02*
X728050Y850400D01*
D117*
X699475Y853575D03*
D10*
X902942Y801378D02*
X902942Y798838D01*
X902434Y798838D01*
X902434Y798889D01*
X852929Y798889D01*
X852929Y801200D01*
X903145Y848190D02*
X903145Y850908D01*
X902637Y850908D01*
X902637Y850933D01*
X852955Y850933D01*
X852955Y848673D01*
X903450Y833890D02*
X903450Y816872D01*
X852650Y816364D02*
X852650Y825000D01*
X852650Y833636D01*
X852650Y825000D02*
X878050Y850400D01*
D117*
X849475Y853575D03*
D10*
X1052942Y801378D02*
X1052942Y798838D01*
X1052434Y798838D01*
X1052434Y798889D01*
X1002929Y798889D01*
X1002929Y801200D01*
X1053145Y848190D02*
X1053145Y850908D01*
X1052637Y850908D01*
X1052637Y850933D01*
X1002955Y850933D01*
X1002955Y848673D01*
X1053450Y833890D02*
X1053450Y816872D01*
X1002650Y816364D02*
X1002650Y825000D01*
X1002650Y833636D01*
X1002650Y825000D02*
X1028050Y850400D01*
D117*
X999475Y853575D03*
D10*
X1202942Y801378D02*
X1202942Y798838D01*
X1202434Y798838D01*
X1202434Y798889D01*
X1152929Y798889D01*
X1152929Y801200D01*
X1203145Y848190D02*
X1203145Y850908D01*
X1202637Y850908D01*
X1202637Y850933D01*
X1152955Y850933D01*
X1152955Y848673D01*
X1203450Y833890D02*
X1203450Y816872D01*
X1152650Y816364D02*
X1152650Y825000D01*
X1152650Y833636D01*
X1152650Y825000D02*
X1178050Y850400D01*
D117*
X1149475Y853575D03*
D10*
X1352942Y801378D02*
X1352942Y798838D01*
X1352434Y798838D01*
X1352434Y798889D01*
X1302929Y798889D01*
X1302929Y801200D01*
X1353145Y848190D02*
X1353145Y850908D01*
X1352637Y850908D01*
X1352637Y850933D01*
X1302955Y850933D01*
X1302955Y848673D01*
X1353450Y833890D02*
X1353450Y816872D01*
X1302650Y816364D02*
X1302650Y825000D01*
X1302650Y833636D01*
X1302650Y825000D02*
X1328050Y850400D01*
D117*
X1299475Y853575D03*
D10*
X1502942Y801378D02*
X1502942Y798838D01*
X1502434Y798838D01*
X1502434Y798889D01*
X1452929Y798889D01*
X1452929Y801200D01*
X1503145Y848190D02*
X1503145Y850908D01*
X1502637Y850908D01*
X1502637Y850933D01*
X1452955Y850933D01*
X1452955Y848673D01*
X1503450Y833890D02*
X1503450Y816872D01*
X1452650Y816364D02*
X1452650Y825000D01*
X1452650Y833636D01*
X1452650Y825000D02*
X1478050Y850400D01*
D117*
X1449475Y853575D03*
D10*
X1652942Y801378D02*
X1652942Y798838D01*
X1652434Y798838D01*
X1652434Y798889D01*
X1602929Y798889D01*
X1602929Y801200D01*
X1653145Y848190D02*
X1653145Y850908D01*
X1652637Y850908D01*
X1652637Y850933D01*
X1602955Y850933D01*
X1602955Y848673D01*
X1653450Y833890D02*
X1653450Y816872D01*
X1602650Y816364D02*
X1602650Y825000D01*
X1602650Y833636D01*
X1602650Y825000D02*
X1628050Y850400D01*
D117*
X1599475Y853575D03*
D10*
X1802942Y801378D02*
X1802942Y798838D01*
X1802434Y798838D01*
X1802434Y798889D01*
X1752929Y798889D01*
X1752929Y801200D01*
X1803145Y848190D02*
X1803145Y850908D01*
X1802637Y850908D01*
X1802637Y850933D01*
X1752955Y850933D01*
X1752955Y848673D01*
X1803450Y833890D02*
X1803450Y816872D01*
X1752650Y816364D02*
X1752650Y825000D01*
X1752650Y833636D01*
X1752650Y825000D02*
X1778050Y850400D01*
D117*
X1749475Y853575D03*
D10*
X1952942Y801378D02*
X1952942Y798838D01*
X1952434Y798838D01*
X1952434Y798889D01*
X1902929Y798889D01*
X1902929Y801200D01*
X1953145Y848190D02*
X1953145Y850908D01*
X1952637Y850908D01*
X1952637Y850933D01*
X1902955Y850933D01*
X1902955Y848673D01*
X1953450Y833890D02*
X1953450Y816872D01*
X1902650Y816364D02*
X1902650Y825000D01*
X1902650Y833636D01*
X1902650Y825000D02*
X1928050Y850400D01*
D117*
X1899475Y853575D03*
D10*
X2102942Y801378D02*
X2102942Y798838D01*
X2102434Y798838D01*
X2102434Y798889D01*
X2052929Y798889D01*
X2052929Y801200D01*
X2103145Y848190D02*
X2103145Y850908D01*
X2102637Y850908D01*
X2102637Y850933D01*
X2052955Y850933D01*
X2052955Y848673D01*
X2103450Y833890D02*
X2103450Y816872D01*
X2052650Y816364D02*
X2052650Y825000D01*
X2052650Y833636D01*
X2052650Y825000D02*
X2078050Y850400D01*
D117*
X2049475Y853575D03*
D10*
X2252942Y801378D02*
X2252942Y798838D01*
X2252434Y798838D01*
X2252434Y798889D01*
X2202929Y798889D01*
X2202929Y801200D01*
X2253145Y848190D02*
X2253145Y850908D01*
X2252637Y850908D01*
X2252637Y850933D01*
X2202955Y850933D01*
X2202955Y848673D01*
X2253450Y833890D02*
X2253450Y816872D01*
X2202650Y816364D02*
X2202650Y825000D01*
X2202650Y833636D01*
X2202650Y825000D02*
X2228050Y850400D01*
D117*
X2199475Y853575D03*
D10*
X2402942Y801378D02*
X2402942Y798838D01*
X2402434Y798838D01*
X2402434Y798889D01*
X2352929Y798889D01*
X2352929Y801200D01*
X2403145Y848190D02*
X2403145Y850908D01*
X2402637Y850908D01*
X2402637Y850933D01*
X2352955Y850933D01*
X2352955Y848673D01*
X2403450Y833890D02*
X2403450Y816872D01*
X2352650Y816364D02*
X2352650Y825000D01*
X2352650Y833636D01*
X2352650Y825000D02*
X2378050Y850400D01*
D117*
X2349475Y853575D03*
D10*
X2552942Y801378D02*
X2552942Y798838D01*
X2552434Y798838D01*
X2552434Y798889D01*
X2502929Y798889D01*
X2502929Y801200D01*
X2553145Y848190D02*
X2553145Y850908D01*
X2552637Y850908D01*
X2552637Y850933D01*
X2502955Y850933D01*
X2502955Y848673D01*
X2553450Y833890D02*
X2553450Y816872D01*
X2502650Y816364D02*
X2502650Y825000D01*
X2502650Y833636D01*
X2502650Y825000D02*
X2528050Y850400D01*
D117*
X2499475Y853575D03*
D10*
X2702942Y801378D02*
X2702942Y798838D01*
X2702434Y798838D01*
X2702434Y798889D01*
X2652929Y798889D01*
X2652929Y801200D01*
X2703145Y848190D02*
X2703145Y850908D01*
X2702637Y850908D01*
X2702637Y850933D01*
X2652955Y850933D01*
X2652955Y848673D01*
X2703450Y833890D02*
X2703450Y816872D01*
X2652650Y816364D02*
X2652650Y825000D01*
X2652650Y833636D01*
X2652650Y825000D02*
X2678050Y850400D01*
D117*
X2649475Y853575D03*
D10*
X2852942Y801378D02*
X2852942Y798838D01*
X2852434Y798838D01*
X2852434Y798889D01*
X2802929Y798889D01*
X2802929Y801200D01*
X2853145Y848190D02*
X2853145Y850908D01*
X2852637Y850908D01*
X2852637Y850933D01*
X2802955Y850933D01*
X2802955Y848673D01*
X2853450Y833890D02*
X2853450Y816872D01*
X2802650Y816364D02*
X2802650Y825000D01*
X2802650Y833636D01*
X2802650Y825000D02*
X2828050Y850400D01*
D117*
X2799475Y853575D03*
D10*
X152942Y651378D02*
X152942Y648838D01*
X152434Y648838D01*
X152434Y648889D01*
X102929Y648889D01*
X102929Y651200D01*
X153145Y698190D02*
X153145Y700908D01*
X152637Y700908D01*
X152637Y700933D01*
X102955Y700933D01*
X102955Y698673D01*
X153450Y683890D02*
X153450Y666872D01*
X102650Y666364D02*
X102650Y675000D01*
X102650Y683636D01*
X102650Y675000D02*
X128050Y700400D01*
D117*
X99475Y703575D03*
D10*
X302942Y651378D02*
X302942Y648838D01*
X302434Y648838D01*
X302434Y648889D01*
X252929Y648889D01*
X252929Y651200D01*
X303145Y698190D02*
X303145Y700908D01*
X302637Y700908D01*
X302637Y700933D01*
X252955Y700933D01*
X252955Y698673D01*
X303450Y683890D02*
X303450Y666872D01*
X252650Y666364D02*
X252650Y675000D01*
X252650Y683636D01*
X252650Y675000D02*
X278050Y700400D01*
D117*
X249475Y703575D03*
D10*
X452942Y651378D02*
X452942Y648838D01*
X452434Y648838D01*
X452434Y648889D01*
X402929Y648889D01*
X402929Y651200D01*
X453145Y698190D02*
X453145Y700908D01*
X452637Y700908D01*
X452637Y700933D01*
X402955Y700933D01*
X402955Y698673D01*
X453450Y683890D02*
X453450Y666872D01*
X402650Y666364D02*
X402650Y675000D01*
X402650Y683636D01*
X402650Y675000D02*
X428050Y700400D01*
D117*
X399475Y703575D03*
D10*
X602942Y651378D02*
X602942Y648838D01*
X602434Y648838D01*
X602434Y648889D01*
X552929Y648889D01*
X552929Y651200D01*
X603145Y698190D02*
X603145Y700908D01*
X602637Y700908D01*
X602637Y700933D01*
X552955Y700933D01*
X552955Y698673D01*
X603450Y683890D02*
X603450Y666872D01*
X552650Y666364D02*
X552650Y675000D01*
X552650Y683636D01*
X552650Y675000D02*
X578050Y700400D01*
D117*
X549475Y703575D03*
D10*
X752942Y651378D02*
X752942Y648838D01*
X752434Y648838D01*
X752434Y648889D01*
X702929Y648889D01*
X702929Y651200D01*
X753145Y698190D02*
X753145Y700908D01*
X752637Y700908D01*
X752637Y700933D01*
X702955Y700933D01*
X702955Y698673D01*
X753450Y683890D02*
X753450Y666872D01*
X702650Y666364D02*
X702650Y675000D01*
X702650Y683636D01*
X702650Y675000D02*
X728050Y700400D01*
D117*
X699475Y703575D03*
D10*
X902942Y651378D02*
X902942Y648838D01*
X902434Y648838D01*
X902434Y648889D01*
X852929Y648889D01*
X852929Y651200D01*
X903145Y698190D02*
X903145Y700908D01*
X902637Y700908D01*
X902637Y700933D01*
X852955Y700933D01*
X852955Y698673D01*
X903450Y683890D02*
X903450Y666872D01*
X852650Y666364D02*
X852650Y675000D01*
X852650Y683636D01*
X852650Y675000D02*
X878050Y700400D01*
D117*
X849475Y703575D03*
D10*
X1052942Y651378D02*
X1052942Y648838D01*
X1052434Y648838D01*
X1052434Y648889D01*
X1002929Y648889D01*
X1002929Y651200D01*
X1053145Y698190D02*
X1053145Y700908D01*
X1052637Y700908D01*
X1052637Y700933D01*
X1002955Y700933D01*
X1002955Y698673D01*
X1053450Y683890D02*
X1053450Y666872D01*
X1002650Y666364D02*
X1002650Y675000D01*
X1002650Y683636D01*
X1002650Y675000D02*
X1028050Y700400D01*
D117*
X999475Y703575D03*
D10*
X1202942Y651378D02*
X1202942Y648838D01*
X1202434Y648838D01*
X1202434Y648889D01*
X1152929Y648889D01*
X1152929Y651200D01*
X1203145Y698190D02*
X1203145Y700908D01*
X1202637Y700908D01*
X1202637Y700933D01*
X1152955Y700933D01*
X1152955Y698673D01*
X1203450Y683890D02*
X1203450Y666872D01*
X1152650Y666364D02*
X1152650Y675000D01*
X1152650Y683636D01*
X1152650Y675000D02*
X1178050Y700400D01*
D117*
X1149475Y703575D03*
D10*
X1352942Y651378D02*
X1352942Y648838D01*
X1352434Y648838D01*
X1352434Y648889D01*
X1302929Y648889D01*
X1302929Y651200D01*
X1353145Y698190D02*
X1353145Y700908D01*
X1352637Y700908D01*
X1352637Y700933D01*
X1302955Y700933D01*
X1302955Y698673D01*
X1353450Y683890D02*
X1353450Y666872D01*
X1302650Y666364D02*
X1302650Y675000D01*
X1302650Y683636D01*
X1302650Y675000D02*
X1328050Y700400D01*
D117*
X1299475Y703575D03*
D10*
X1502942Y651378D02*
X1502942Y648838D01*
X1502434Y648838D01*
X1502434Y648889D01*
X1452929Y648889D01*
X1452929Y651200D01*
X1503145Y698190D02*
X1503145Y700908D01*
X1502637Y700908D01*
X1502637Y700933D01*
X1452955Y700933D01*
X1452955Y698673D01*
X1503450Y683890D02*
X1503450Y666872D01*
X1452650Y666364D02*
X1452650Y675000D01*
X1452650Y683636D01*
X1452650Y675000D02*
X1478050Y700400D01*
D117*
X1449475Y703575D03*
D10*
X1652942Y651378D02*
X1652942Y648838D01*
X1652434Y648838D01*
X1652434Y648889D01*
X1602929Y648889D01*
X1602929Y651200D01*
X1653145Y698190D02*
X1653145Y700908D01*
X1652637Y700908D01*
X1652637Y700933D01*
X1602955Y700933D01*
X1602955Y698673D01*
X1653450Y683890D02*
X1653450Y666872D01*
X1602650Y666364D02*
X1602650Y675000D01*
X1602650Y683636D01*
X1602650Y675000D02*
X1628050Y700400D01*
D117*
X1599475Y703575D03*
D10*
X1802942Y651378D02*
X1802942Y648838D01*
X1802434Y648838D01*
X1802434Y648889D01*
X1752929Y648889D01*
X1752929Y651200D01*
X1803145Y698190D02*
X1803145Y700908D01*
X1802637Y700908D01*
X1802637Y700933D01*
X1752955Y700933D01*
X1752955Y698673D01*
X1803450Y683890D02*
X1803450Y666872D01*
X1752650Y666364D02*
X1752650Y675000D01*
X1752650Y683636D01*
X1752650Y675000D02*
X1778050Y700400D01*
D117*
X1749475Y703575D03*
D10*
X1952942Y651378D02*
X1952942Y648838D01*
X1952434Y648838D01*
X1952434Y648889D01*
X1902929Y648889D01*
X1902929Y651200D01*
X1953145Y698190D02*
X1953145Y700908D01*
X1952637Y700908D01*
X1952637Y700933D01*
X1902955Y700933D01*
X1902955Y698673D01*
X1953450Y683890D02*
X1953450Y666872D01*
X1902650Y666364D02*
X1902650Y675000D01*
X1902650Y683636D01*
X1902650Y675000D02*
X1928050Y700400D01*
D117*
X1899475Y703575D03*
D10*
X2102942Y651378D02*
X2102942Y648838D01*
X2102434Y648838D01*
X2102434Y648889D01*
X2052929Y648889D01*
X2052929Y651200D01*
X2103145Y698190D02*
X2103145Y700908D01*
X2102637Y700908D01*
X2102637Y700933D01*
X2052955Y700933D01*
X2052955Y698673D01*
X2103450Y683890D02*
X2103450Y666872D01*
X2052650Y666364D02*
X2052650Y675000D01*
X2052650Y683636D01*
X2052650Y675000D02*
X2078050Y700400D01*
D117*
X2049475Y703575D03*
D10*
X2252942Y651378D02*
X2252942Y648838D01*
X2252434Y648838D01*
X2252434Y648889D01*
X2202929Y648889D01*
X2202929Y651200D01*
X2253145Y698190D02*
X2253145Y700908D01*
X2252637Y700908D01*
X2252637Y700933D01*
X2202955Y700933D01*
X2202955Y698673D01*
X2253450Y683890D02*
X2253450Y666872D01*
X2202650Y666364D02*
X2202650Y675000D01*
X2202650Y683636D01*
X2202650Y675000D02*
X2228050Y700400D01*
D117*
X2199475Y703575D03*
D10*
X2702942Y651378D02*
X2702942Y648838D01*
X2702434Y648838D01*
X2702434Y648889D01*
X2652929Y648889D01*
X2652929Y651200D01*
X2703145Y698190D02*
X2703145Y700908D01*
X2702637Y700908D01*
X2702637Y700933D01*
X2652955Y700933D01*
X2652955Y698673D01*
X2703450Y683890D02*
X2703450Y666872D01*
X2652650Y666364D02*
X2652650Y675000D01*
X2652650Y683636D01*
X2652650Y675000D02*
X2678050Y700400D01*
D117*
X2649475Y703575D03*
D10*
X2852942Y651378D02*
X2852942Y648838D01*
X2852434Y648838D01*
X2852434Y648889D01*
X2802929Y648889D01*
X2802929Y651200D01*
X2853145Y698190D02*
X2853145Y700908D01*
X2852637Y700908D01*
X2852637Y700933D01*
X2802955Y700933D01*
X2802955Y698673D01*
X2853450Y683890D02*
X2853450Y666872D01*
X2802650Y666364D02*
X2802650Y675000D01*
X2802650Y683636D01*
X2802650Y675000D02*
X2828050Y700400D01*
D117*
X2799475Y703575D03*
D10*
X152942Y501378D02*
X152942Y498838D01*
X152434Y498838D01*
X152434Y498889D01*
X102929Y498889D01*
X102929Y501200D01*
X153145Y548190D02*
X153145Y550908D01*
X152637Y550908D01*
X152637Y550933D01*
X102955Y550933D01*
X102955Y548673D01*
X153450Y533890D02*
X153450Y516872D01*
X102650Y516364D02*
X102650Y525000D01*
X102650Y533636D01*
X102650Y525000D02*
X128050Y550400D01*
D117*
X99475Y553575D03*
D10*
X302942Y501378D02*
X302942Y498838D01*
X302434Y498838D01*
X302434Y498889D01*
X252929Y498889D01*
X252929Y501200D01*
X303145Y548190D02*
X303145Y550908D01*
X302637Y550908D01*
X302637Y550933D01*
X252955Y550933D01*
X252955Y548673D01*
X303450Y533890D02*
X303450Y516872D01*
X252650Y516364D02*
X252650Y525000D01*
X252650Y533636D01*
X252650Y525000D02*
X278050Y550400D01*
D117*
X249475Y553575D03*
D10*
X452942Y501378D02*
X452942Y498838D01*
X452434Y498838D01*
X452434Y498889D01*
X402929Y498889D01*
X402929Y501200D01*
X453145Y548190D02*
X453145Y550908D01*
X452637Y550908D01*
X452637Y550933D01*
X402955Y550933D01*
X402955Y548673D01*
X453450Y533890D02*
X453450Y516872D01*
X402650Y516364D02*
X402650Y525000D01*
X402650Y533636D01*
X402650Y525000D02*
X428050Y550400D01*
D117*
X399475Y553575D03*
D10*
X602942Y501378D02*
X602942Y498838D01*
X602434Y498838D01*
X602434Y498889D01*
X552929Y498889D01*
X552929Y501200D01*
X603145Y548190D02*
X603145Y550908D01*
X602637Y550908D01*
X602637Y550933D01*
X552955Y550933D01*
X552955Y548673D01*
X603450Y533890D02*
X603450Y516872D01*
X552650Y516364D02*
X552650Y525000D01*
X552650Y533636D01*
X552650Y525000D02*
X578050Y550400D01*
D117*
X549475Y553575D03*
D10*
X752942Y501378D02*
X752942Y498838D01*
X752434Y498838D01*
X752434Y498889D01*
X702929Y498889D01*
X702929Y501200D01*
X753145Y548190D02*
X753145Y550908D01*
X752637Y550908D01*
X752637Y550933D01*
X702955Y550933D01*
X702955Y548673D01*
X753450Y533890D02*
X753450Y516872D01*
X702650Y516364D02*
X702650Y525000D01*
X702650Y533636D01*
X702650Y525000D02*
X728050Y550400D01*
D117*
X699475Y553575D03*
D10*
X902942Y501378D02*
X902942Y498838D01*
X902434Y498838D01*
X902434Y498889D01*
X852929Y498889D01*
X852929Y501200D01*
X903145Y548190D02*
X903145Y550908D01*
X902637Y550908D01*
X902637Y550933D01*
X852955Y550933D01*
X852955Y548673D01*
X903450Y533890D02*
X903450Y516872D01*
X852650Y516364D02*
X852650Y525000D01*
X852650Y533636D01*
X852650Y525000D02*
X878050Y550400D01*
D117*
X849475Y553575D03*
D10*
X1052942Y501378D02*
X1052942Y498838D01*
X1052434Y498838D01*
X1052434Y498889D01*
X1002929Y498889D01*
X1002929Y501200D01*
X1053145Y548190D02*
X1053145Y550908D01*
X1052637Y550908D01*
X1052637Y550933D01*
X1002955Y550933D01*
X1002955Y548673D01*
X1053450Y533890D02*
X1053450Y516872D01*
X1002650Y516364D02*
X1002650Y525000D01*
X1002650Y533636D01*
X1002650Y525000D02*
X1028050Y550400D01*
D117*
X999475Y553575D03*
D10*
X1202942Y501378D02*
X1202942Y498838D01*
X1202434Y498838D01*
X1202434Y498889D01*
X1152929Y498889D01*
X1152929Y501200D01*
X1203145Y548190D02*
X1203145Y550908D01*
X1202637Y550908D01*
X1202637Y550933D01*
X1152955Y550933D01*
X1152955Y548673D01*
X1203450Y533890D02*
X1203450Y516872D01*
X1152650Y516364D02*
X1152650Y525000D01*
X1152650Y533636D01*
X1152650Y525000D02*
X1178050Y550400D01*
D117*
X1149475Y553575D03*
D10*
X1352942Y501378D02*
X1352942Y498838D01*
X1352434Y498838D01*
X1352434Y498889D01*
X1302929Y498889D01*
X1302929Y501200D01*
X1353145Y548190D02*
X1353145Y550908D01*
X1352637Y550908D01*
X1352637Y550933D01*
X1302955Y550933D01*
X1302955Y548673D01*
X1353450Y533890D02*
X1353450Y516872D01*
X1302650Y516364D02*
X1302650Y525000D01*
X1302650Y533636D01*
X1302650Y525000D02*
X1328050Y550400D01*
D117*
X1299475Y553575D03*
D10*
X1502942Y501378D02*
X1502942Y498838D01*
X1502434Y498838D01*
X1502434Y498889D01*
X1452929Y498889D01*
X1452929Y501200D01*
X1503145Y548190D02*
X1503145Y550908D01*
X1502637Y550908D01*
X1502637Y550933D01*
X1452955Y550933D01*
X1452955Y548673D01*
X1503450Y533890D02*
X1503450Y516872D01*
X1452650Y516364D02*
X1452650Y525000D01*
X1452650Y533636D01*
X1452650Y525000D02*
X1478050Y550400D01*
D117*
X1449475Y553575D03*
D10*
X1652942Y501378D02*
X1652942Y498838D01*
X1652434Y498838D01*
X1652434Y498889D01*
X1602929Y498889D01*
X1602929Y501200D01*
X1653145Y548190D02*
X1653145Y550908D01*
X1652637Y550908D01*
X1652637Y550933D01*
X1602955Y550933D01*
X1602955Y548673D01*
X1653450Y533890D02*
X1653450Y516872D01*
X1602650Y516364D02*
X1602650Y525000D01*
X1602650Y533636D01*
X1602650Y525000D02*
X1628050Y550400D01*
D117*
X1599475Y553575D03*
D10*
X1802942Y501378D02*
X1802942Y498838D01*
X1802434Y498838D01*
X1802434Y498889D01*
X1752929Y498889D01*
X1752929Y501200D01*
X1803145Y548190D02*
X1803145Y550908D01*
X1802637Y550908D01*
X1802637Y550933D01*
X1752955Y550933D01*
X1752955Y548673D01*
X1803450Y533890D02*
X1803450Y516872D01*
X1752650Y516364D02*
X1752650Y525000D01*
X1752650Y533636D01*
X1752650Y525000D02*
X1778050Y550400D01*
D117*
X1749475Y553575D03*
D10*
X1952942Y501378D02*
X1952942Y498838D01*
X1952434Y498838D01*
X1952434Y498889D01*
X1902929Y498889D01*
X1902929Y501200D01*
X1953145Y548190D02*
X1953145Y550908D01*
X1952637Y550908D01*
X1952637Y550933D01*
X1902955Y550933D01*
X1902955Y548673D01*
X1953450Y533890D02*
X1953450Y516872D01*
X1902650Y516364D02*
X1902650Y525000D01*
X1902650Y533636D01*
X1902650Y525000D02*
X1928050Y550400D01*
D117*
X1899475Y553575D03*
D10*
X2102942Y501378D02*
X2102942Y498838D01*
X2102434Y498838D01*
X2102434Y498889D01*
X2052929Y498889D01*
X2052929Y501200D01*
X2103145Y548190D02*
X2103145Y550908D01*
X2102637Y550908D01*
X2102637Y550933D01*
X2052955Y550933D01*
X2052955Y548673D01*
X2103450Y533890D02*
X2103450Y516872D01*
X2052650Y516364D02*
X2052650Y525000D01*
X2052650Y533636D01*
X2052650Y525000D02*
X2078050Y550400D01*
D117*
X2049475Y553575D03*
D10*
X2252942Y501378D02*
X2252942Y498838D01*
X2252434Y498838D01*
X2252434Y498889D01*
X2202929Y498889D01*
X2202929Y501200D01*
X2253145Y548190D02*
X2253145Y550908D01*
X2252637Y550908D01*
X2252637Y550933D01*
X2202955Y550933D01*
X2202955Y548673D01*
X2253450Y533890D02*
X2253450Y516872D01*
X2202650Y516364D02*
X2202650Y525000D01*
X2202650Y533636D01*
X2202650Y525000D02*
X2228050Y550400D01*
D117*
X2199475Y553575D03*
D10*
X2402942Y501378D02*
X2402942Y498838D01*
X2402434Y498838D01*
X2402434Y498889D01*
X2352929Y498889D01*
X2352929Y501200D01*
X2403145Y548190D02*
X2403145Y550908D01*
X2402637Y550908D01*
X2402637Y550933D01*
X2352955Y550933D01*
X2352955Y548673D01*
X2403450Y533890D02*
X2403450Y516872D01*
X2352650Y516364D02*
X2352650Y525000D01*
X2352650Y533636D01*
X2352650Y525000D02*
X2378050Y550400D01*
D117*
X2349475Y553575D03*
D10*
X2552942Y501378D02*
X2552942Y498838D01*
X2552434Y498838D01*
X2552434Y498889D01*
X2502929Y498889D01*
X2502929Y501200D01*
X2553145Y548190D02*
X2553145Y550908D01*
X2552637Y550908D01*
X2552637Y550933D01*
X2502955Y550933D01*
X2502955Y548673D01*
X2553450Y533890D02*
X2553450Y516872D01*
X2502650Y516364D02*
X2502650Y525000D01*
X2502650Y533636D01*
X2502650Y525000D02*
X2528050Y550400D01*
D117*
X2499475Y553575D03*
D10*
X2702942Y501378D02*
X2702942Y498838D01*
X2702434Y498838D01*
X2702434Y498889D01*
X2652929Y498889D01*
X2652929Y501200D01*
X2703145Y548190D02*
X2703145Y550908D01*
X2702637Y550908D01*
X2702637Y550933D01*
X2652955Y550933D01*
X2652955Y548673D01*
X2703450Y533890D02*
X2703450Y516872D01*
X2652650Y516364D02*
X2652650Y525000D01*
X2652650Y533636D01*
X2652650Y525000D02*
X2678050Y550400D01*
D117*
X2649475Y553575D03*
D10*
X2852942Y501378D02*
X2852942Y498838D01*
X2852434Y498838D01*
X2852434Y498889D01*
X2802929Y498889D01*
X2802929Y501200D01*
X2853145Y548190D02*
X2853145Y550908D01*
X2852637Y550908D01*
X2852637Y550933D01*
X2802955Y550933D01*
X2802955Y548673D01*
X2853450Y533890D02*
X2853450Y516872D01*
X2802650Y516364D02*
X2802650Y525000D01*
X2802650Y533636D01*
X2802650Y525000D02*
X2828050Y550400D01*
D117*
X2799475Y553575D03*
D10*
X302942Y351378D02*
X302942Y348838D01*
X302434Y348838D01*
X302434Y348889D01*
X252929Y348889D01*
X252929Y351200D01*
X303145Y398190D02*
X303145Y400908D01*
X302637Y400908D01*
X302637Y400933D01*
X252955Y400933D01*
X252955Y398673D01*
X303450Y383890D02*
X303450Y366872D01*
X252650Y366364D02*
X252650Y375000D01*
X252650Y383636D01*
X252650Y375000D02*
X278050Y400400D01*
D117*
X249475Y403575D03*
D10*
X452942Y351378D02*
X452942Y348838D01*
X452434Y348838D01*
X452434Y348889D01*
X402929Y348889D01*
X402929Y351200D01*
X453145Y398190D02*
X453145Y400908D01*
X452637Y400908D01*
X452637Y400933D01*
X402955Y400933D01*
X402955Y398673D01*
X453450Y383890D02*
X453450Y366872D01*
X402650Y366364D02*
X402650Y375000D01*
X402650Y383636D01*
X402650Y375000D02*
X428050Y400400D01*
D117*
X399475Y403575D03*
D10*
X602942Y351378D02*
X602942Y348838D01*
X602434Y348838D01*
X602434Y348889D01*
X552929Y348889D01*
X552929Y351200D01*
X603145Y398190D02*
X603145Y400908D01*
X602637Y400908D01*
X602637Y400933D01*
X552955Y400933D01*
X552955Y398673D01*
X603450Y383890D02*
X603450Y366872D01*
X552650Y366364D02*
X552650Y375000D01*
X552650Y383636D01*
X552650Y375000D02*
X578050Y400400D01*
D117*
X549475Y403575D03*
D10*
X752942Y351378D02*
X752942Y348838D01*
X752434Y348838D01*
X752434Y348889D01*
X702929Y348889D01*
X702929Y351200D01*
X753145Y398190D02*
X753145Y400908D01*
X752637Y400908D01*
X752637Y400933D01*
X702955Y400933D01*
X702955Y398673D01*
X753450Y383890D02*
X753450Y366872D01*
X702650Y366364D02*
X702650Y375000D01*
X702650Y383636D01*
X702650Y375000D02*
X728050Y400400D01*
D117*
X699475Y403575D03*
D10*
X902942Y351378D02*
X902942Y348838D01*
X902434Y348838D01*
X902434Y348889D01*
X852929Y348889D01*
X852929Y351200D01*
X903145Y398190D02*
X903145Y400908D01*
X902637Y400908D01*
X902637Y400933D01*
X852955Y400933D01*
X852955Y398673D01*
X903450Y383890D02*
X903450Y366872D01*
X852650Y366364D02*
X852650Y375000D01*
X852650Y383636D01*
X852650Y375000D02*
X878050Y400400D01*
D117*
X849475Y403575D03*
D10*
X1052942Y351378D02*
X1052942Y348838D01*
X1052434Y348838D01*
X1052434Y348889D01*
X1002929Y348889D01*
X1002929Y351200D01*
X1053145Y398190D02*
X1053145Y400908D01*
X1052637Y400908D01*
X1052637Y400933D01*
X1002955Y400933D01*
X1002955Y398673D01*
X1053450Y383890D02*
X1053450Y366872D01*
X1002650Y366364D02*
X1002650Y375000D01*
X1002650Y383636D01*
X1002650Y375000D02*
X1028050Y400400D01*
D117*
X999475Y403575D03*
D10*
X1202942Y351378D02*
X1202942Y348838D01*
X1202434Y348838D01*
X1202434Y348889D01*
X1152929Y348889D01*
X1152929Y351200D01*
X1203145Y398190D02*
X1203145Y400908D01*
X1202637Y400908D01*
X1202637Y400933D01*
X1152955Y400933D01*
X1152955Y398673D01*
X1203450Y383890D02*
X1203450Y366872D01*
X1152650Y366364D02*
X1152650Y375000D01*
X1152650Y383636D01*
X1152650Y375000D02*
X1178050Y400400D01*
D117*
X1149475Y403575D03*
D10*
X1352942Y351378D02*
X1352942Y348838D01*
X1352434Y348838D01*
X1352434Y348889D01*
X1302929Y348889D01*
X1302929Y351200D01*
X1353145Y398190D02*
X1353145Y400908D01*
X1352637Y400908D01*
X1352637Y400933D01*
X1302955Y400933D01*
X1302955Y398673D01*
X1353450Y383890D02*
X1353450Y366872D01*
X1302650Y366364D02*
X1302650Y375000D01*
X1302650Y383636D01*
X1302650Y375000D02*
X1328050Y400400D01*
D117*
X1299475Y403575D03*
D10*
X1502942Y351378D02*
X1502942Y348838D01*
X1502434Y348838D01*
X1502434Y348889D01*
X1452929Y348889D01*
X1452929Y351200D01*
X1503145Y398190D02*
X1503145Y400908D01*
X1502637Y400908D01*
X1502637Y400933D01*
X1452955Y400933D01*
X1452955Y398673D01*
X1503450Y383890D02*
X1503450Y366872D01*
X1452650Y366364D02*
X1452650Y375000D01*
X1452650Y383636D01*
X1452650Y375000D02*
X1478050Y400400D01*
D117*
X1449475Y403575D03*
D10*
X1652942Y351378D02*
X1652942Y348838D01*
X1652434Y348838D01*
X1652434Y348889D01*
X1602929Y348889D01*
X1602929Y351200D01*
X1653145Y398190D02*
X1653145Y400908D01*
X1652637Y400908D01*
X1652637Y400933D01*
X1602955Y400933D01*
X1602955Y398673D01*
X1653450Y383890D02*
X1653450Y366872D01*
X1602650Y366364D02*
X1602650Y375000D01*
X1602650Y383636D01*
X1602650Y375000D02*
X1628050Y400400D01*
D117*
X1599475Y403575D03*
D10*
X1802942Y351378D02*
X1802942Y348838D01*
X1802434Y348838D01*
X1802434Y348889D01*
X1752929Y348889D01*
X1752929Y351200D01*
X1803145Y398190D02*
X1803145Y400908D01*
X1802637Y400908D01*
X1802637Y400933D01*
X1752955Y400933D01*
X1752955Y398673D01*
X1803450Y383890D02*
X1803450Y366872D01*
X1752650Y366364D02*
X1752650Y375000D01*
X1752650Y383636D01*
X1752650Y375000D02*
X1778050Y400400D01*
D117*
X1749475Y403575D03*
D10*
X1952942Y351378D02*
X1952942Y348838D01*
X1952434Y348838D01*
X1952434Y348889D01*
X1902929Y348889D01*
X1902929Y351200D01*
X1953145Y398190D02*
X1953145Y400908D01*
X1952637Y400908D01*
X1952637Y400933D01*
X1902955Y400933D01*
X1902955Y398673D01*
X1953450Y383890D02*
X1953450Y366872D01*
X1902650Y366364D02*
X1902650Y375000D01*
X1902650Y383636D01*
X1902650Y375000D02*
X1928050Y400400D01*
D117*
X1899475Y403575D03*
D10*
X2102942Y351378D02*
X2102942Y348838D01*
X2102434Y348838D01*
X2102434Y348889D01*
X2052929Y348889D01*
X2052929Y351200D01*
X2103145Y398190D02*
X2103145Y400908D01*
X2102637Y400908D01*
X2102637Y400933D01*
X2052955Y400933D01*
X2052955Y398673D01*
X2103450Y383890D02*
X2103450Y366872D01*
X2052650Y366364D02*
X2052650Y375000D01*
X2052650Y383636D01*
X2052650Y375000D02*
X2078050Y400400D01*
D117*
X2049475Y403575D03*
D10*
X2252942Y351378D02*
X2252942Y348838D01*
X2252434Y348838D01*
X2252434Y348889D01*
X2202929Y348889D01*
X2202929Y351200D01*
X2253145Y398190D02*
X2253145Y400908D01*
X2252637Y400908D01*
X2252637Y400933D01*
X2202955Y400933D01*
X2202955Y398673D01*
X2253450Y383890D02*
X2253450Y366872D01*
X2202650Y366364D02*
X2202650Y375000D01*
X2202650Y383636D01*
X2202650Y375000D02*
X2228050Y400400D01*
D117*
X2199475Y403575D03*
D10*
X2402942Y351378D02*
X2402942Y348838D01*
X2402434Y348838D01*
X2402434Y348889D01*
X2352929Y348889D01*
X2352929Y351200D01*
X2403145Y398190D02*
X2403145Y400908D01*
X2402637Y400908D01*
X2402637Y400933D01*
X2352955Y400933D01*
X2352955Y398673D01*
X2403450Y383890D02*
X2403450Y366872D01*
X2352650Y366364D02*
X2352650Y375000D01*
X2352650Y383636D01*
X2352650Y375000D02*
X2378050Y400400D01*
D117*
X2349475Y403575D03*
D10*
X2552942Y351378D02*
X2552942Y348838D01*
X2552434Y348838D01*
X2552434Y348889D01*
X2502929Y348889D01*
X2502929Y351200D01*
X2553145Y398190D02*
X2553145Y400908D01*
X2552637Y400908D01*
X2552637Y400933D01*
X2502955Y400933D01*
X2502955Y398673D01*
X2553450Y383890D02*
X2553450Y366872D01*
X2502650Y366364D02*
X2502650Y375000D01*
X2502650Y383636D01*
X2502650Y375000D02*
X2528050Y400400D01*
D117*
X2499475Y403575D03*
D10*
X2702942Y351378D02*
X2702942Y348838D01*
X2702434Y348838D01*
X2702434Y348889D01*
X2652929Y348889D01*
X2652929Y351200D01*
X2703145Y398190D02*
X2703145Y400908D01*
X2702637Y400908D01*
X2702637Y400933D01*
X2652955Y400933D01*
X2652955Y398673D01*
X2703450Y383890D02*
X2703450Y366872D01*
X2652650Y366364D02*
X2652650Y375000D01*
X2652650Y383636D01*
X2652650Y375000D02*
X2678050Y400400D01*
D117*
X2649475Y403575D03*
D10*
X2852942Y351378D02*
X2852942Y348838D01*
X2852434Y348838D01*
X2852434Y348889D01*
X2802929Y348889D01*
X2802929Y351200D01*
X2853145Y398190D02*
X2853145Y400908D01*
X2852637Y400908D01*
X2852637Y400933D01*
X2802955Y400933D01*
X2802955Y398673D01*
X2853450Y383890D02*
X2853450Y366872D01*
X2802650Y366364D02*
X2802650Y375000D01*
X2802650Y383636D01*
X2802650Y375000D02*
X2828050Y400400D01*
D117*
X2799475Y403575D03*
D10*
X902942Y201378D02*
X902942Y198838D01*
X902434Y198838D01*
X902434Y198889D01*
X852929Y198889D01*
X852929Y201200D01*
X903145Y248190D02*
X903145Y250908D01*
X902637Y250908D01*
X902637Y250933D01*
X852955Y250933D01*
X852955Y248673D01*
X903450Y233890D02*
X903450Y216872D01*
X852650Y216364D02*
X852650Y225000D01*
X852650Y233636D01*
X852650Y225000D02*
X878050Y250400D01*
D117*
X849475Y253575D03*
D10*
X1052942Y201378D02*
X1052942Y198838D01*
X1052434Y198838D01*
X1052434Y198889D01*
X1002929Y198889D01*
X1002929Y201200D01*
X1053145Y248190D02*
X1053145Y250908D01*
X1052637Y250908D01*
X1052637Y250933D01*
X1002955Y250933D01*
X1002955Y248673D01*
X1053450Y233890D02*
X1053450Y216872D01*
X1002650Y216364D02*
X1002650Y225000D01*
X1002650Y233636D01*
X1002650Y225000D02*
X1028050Y250400D01*
D117*
X999475Y253575D03*
D10*
X1202942Y201378D02*
X1202942Y198838D01*
X1202434Y198838D01*
X1202434Y198889D01*
X1152929Y198889D01*
X1152929Y201200D01*
X1203145Y248190D02*
X1203145Y250908D01*
X1202637Y250908D01*
X1202637Y250933D01*
X1152955Y250933D01*
X1152955Y248673D01*
X1203450Y233890D02*
X1203450Y216872D01*
X1152650Y216364D02*
X1152650Y225000D01*
X1152650Y233636D01*
X1152650Y225000D02*
X1178050Y250400D01*
D117*
X1149475Y253575D03*
D10*
X1352942Y201378D02*
X1352942Y198838D01*
X1352434Y198838D01*
X1352434Y198889D01*
X1302929Y198889D01*
X1302929Y201200D01*
X1353145Y248190D02*
X1353145Y250908D01*
X1352637Y250908D01*
X1352637Y250933D01*
X1302955Y250933D01*
X1302955Y248673D01*
X1353450Y233890D02*
X1353450Y216872D01*
X1302650Y216364D02*
X1302650Y225000D01*
X1302650Y233636D01*
X1302650Y225000D02*
X1328050Y250400D01*
D117*
X1299475Y253575D03*
D10*
X1502942Y201378D02*
X1502942Y198838D01*
X1502434Y198838D01*
X1502434Y198889D01*
X1452929Y198889D01*
X1452929Y201200D01*
X1503145Y248190D02*
X1503145Y250908D01*
X1502637Y250908D01*
X1502637Y250933D01*
X1452955Y250933D01*
X1452955Y248673D01*
X1503450Y233890D02*
X1503450Y216872D01*
X1452650Y216364D02*
X1452650Y225000D01*
X1452650Y233636D01*
X1452650Y225000D02*
X1478050Y250400D01*
D117*
X1449475Y253575D03*
D10*
X1652942Y201378D02*
X1652942Y198838D01*
X1652434Y198838D01*
X1652434Y198889D01*
X1602929Y198889D01*
X1602929Y201200D01*
X1653145Y248190D02*
X1653145Y250908D01*
X1652637Y250908D01*
X1652637Y250933D01*
X1602955Y250933D01*
X1602955Y248673D01*
X1653450Y233890D02*
X1653450Y216872D01*
X1602650Y216364D02*
X1602650Y225000D01*
X1602650Y233636D01*
X1602650Y225000D02*
X1628050Y250400D01*
D117*
X1599475Y253575D03*
D10*
X1802942Y201378D02*
X1802942Y198838D01*
X1802434Y198838D01*
X1802434Y198889D01*
X1752929Y198889D01*
X1752929Y201200D01*
X1803145Y248190D02*
X1803145Y250908D01*
X1802637Y250908D01*
X1802637Y250933D01*
X1752955Y250933D01*
X1752955Y248673D01*
X1803450Y233890D02*
X1803450Y216872D01*
X1752650Y216364D02*
X1752650Y225000D01*
X1752650Y233636D01*
X1752650Y225000D02*
X1778050Y250400D01*
D117*
X1749475Y253575D03*
D10*
X1952942Y201378D02*
X1952942Y198838D01*
X1952434Y198838D01*
X1952434Y198889D01*
X1902929Y198889D01*
X1902929Y201200D01*
X1953145Y248190D02*
X1953145Y250908D01*
X1952637Y250908D01*
X1952637Y250933D01*
X1902955Y250933D01*
X1902955Y248673D01*
X1953450Y233890D02*
X1953450Y216872D01*
X1902650Y216364D02*
X1902650Y225000D01*
X1902650Y233636D01*
X1902650Y225000D02*
X1928050Y250400D01*
D117*
X1899475Y253575D03*
D10*
X2102942Y201378D02*
X2102942Y198838D01*
X2102434Y198838D01*
X2102434Y198889D01*
X2052929Y198889D01*
X2052929Y201200D01*
X2103145Y248190D02*
X2103145Y250908D01*
X2102637Y250908D01*
X2102637Y250933D01*
X2052955Y250933D01*
X2052955Y248673D01*
X2103450Y233890D02*
X2103450Y216872D01*
X2052650Y216364D02*
X2052650Y225000D01*
X2052650Y233636D01*
X2052650Y225000D02*
X2078050Y250400D01*
D117*
X2049475Y253575D03*
D10*
X2252942Y201378D02*
X2252942Y198838D01*
X2252434Y198838D01*
X2252434Y198889D01*
X2202929Y198889D01*
X2202929Y201200D01*
X2253145Y248190D02*
X2253145Y250908D01*
X2252637Y250908D01*
X2252637Y250933D01*
X2202955Y250933D01*
X2202955Y248673D01*
X2253450Y233890D02*
X2253450Y216872D01*
X2202650Y216364D02*
X2202650Y225000D01*
X2202650Y233636D01*
X2202650Y225000D02*
X2228050Y250400D01*
D117*
X2199475Y253575D03*
D10*
X2402942Y201378D02*
X2402942Y198838D01*
X2402434Y198838D01*
X2402434Y198889D01*
X2352929Y198889D01*
X2352929Y201200D01*
X2403145Y248190D02*
X2403145Y250908D01*
X2402637Y250908D01*
X2402637Y250933D01*
X2352955Y250933D01*
X2352955Y248673D01*
X2403450Y233890D02*
X2403450Y216872D01*
X2352650Y216364D02*
X2352650Y225000D01*
X2352650Y233636D01*
X2352650Y225000D02*
X2378050Y250400D01*
D117*
X2349475Y253575D03*
D10*
X2552942Y201378D02*
X2552942Y198838D01*
X2552434Y198838D01*
X2552434Y198889D01*
X2502929Y198889D01*
X2502929Y201200D01*
X2553145Y248190D02*
X2553145Y250908D01*
X2552637Y250908D01*
X2552637Y250933D01*
X2502955Y250933D01*
X2502955Y248673D01*
X2553450Y233890D02*
X2553450Y216872D01*
X2502650Y216364D02*
X2502650Y225000D01*
X2502650Y233636D01*
X2502650Y225000D02*
X2528050Y250400D01*
D117*
X2499475Y253575D03*
D10*
X2702942Y201378D02*
X2702942Y198838D01*
X2702434Y198838D01*
X2702434Y198889D01*
X2652929Y198889D01*
X2652929Y201200D01*
X2703145Y248190D02*
X2703145Y250908D01*
X2702637Y250908D01*
X2702637Y250933D01*
X2652955Y250933D01*
X2652955Y248673D01*
X2703450Y233890D02*
X2703450Y216872D01*
X2652650Y216364D02*
X2652650Y225000D01*
X2652650Y233636D01*
X2652650Y225000D02*
X2678050Y250400D01*
D117*
X2649475Y253575D03*
D10*
X2852942Y201378D02*
X2852942Y198838D01*
X2852434Y198838D01*
X2852434Y198889D01*
X2802929Y198889D01*
X2802929Y201200D01*
X2853145Y248190D02*
X2853145Y250908D01*
X2852637Y250908D01*
X2852637Y250933D01*
X2802955Y250933D01*
X2802955Y248673D01*
X2853450Y233890D02*
X2853450Y216872D01*
X2802650Y216364D02*
X2802650Y225000D01*
X2802650Y233636D01*
X2802650Y225000D02*
X2828050Y250400D01*
D117*
X2799475Y253575D03*
D10*
X752942Y51378D02*
X752942Y48838D01*
X752434Y48838D01*
X752434Y48889D01*
X702929Y48889D01*
X702929Y51200D01*
X753145Y98190D02*
X753145Y100908D01*
X752637Y100908D01*
X752637Y100933D01*
X702955Y100933D01*
X702955Y98673D01*
X753450Y83890D02*
X753450Y66872D01*
X702650Y66364D02*
X702650Y75000D01*
X702650Y83636D01*
X702650Y75000D02*
X728050Y100400D01*
D117*
X699475Y103575D03*
D10*
X902942Y51378D02*
X902942Y48838D01*
X902434Y48838D01*
X902434Y48889D01*
X852929Y48889D01*
X852929Y51200D01*
X903145Y98190D02*
X903145Y100908D01*
X902637Y100908D01*
X902637Y100933D01*
X852955Y100933D01*
X852955Y98673D01*
X903450Y83890D02*
X903450Y66872D01*
X852650Y66364D02*
X852650Y75000D01*
X852650Y83636D01*
X852650Y75000D02*
X878050Y100400D01*
D117*
X849475Y103575D03*
D10*
X1052942Y51378D02*
X1052942Y48838D01*
X1052434Y48838D01*
X1052434Y48889D01*
X1002929Y48889D01*
X1002929Y51200D01*
X1053145Y98190D02*
X1053145Y100908D01*
X1052637Y100908D01*
X1052637Y100933D01*
X1002955Y100933D01*
X1002955Y98673D01*
X1053450Y83890D02*
X1053450Y66872D01*
X1002650Y66364D02*
X1002650Y75000D01*
X1002650Y83636D01*
X1002650Y75000D02*
X1028050Y100400D01*
D117*
X999475Y103575D03*
D10*
X1202942Y51378D02*
X1202942Y48838D01*
X1202434Y48838D01*
X1202434Y48889D01*
X1152929Y48889D01*
X1152929Y51200D01*
X1203145Y98190D02*
X1203145Y100908D01*
X1202637Y100908D01*
X1202637Y100933D01*
X1152955Y100933D01*
X1152955Y98673D01*
X1203450Y83890D02*
X1203450Y66872D01*
X1152650Y66364D02*
X1152650Y75000D01*
X1152650Y83636D01*
X1152650Y75000D02*
X1178050Y100400D01*
D117*
X1149475Y103575D03*
D10*
X1802942Y51378D02*
X1802942Y48838D01*
X1802434Y48838D01*
X1802434Y48889D01*
X1752929Y48889D01*
X1752929Y51200D01*
X1803145Y98190D02*
X1803145Y100908D01*
X1802637Y100908D01*
X1802637Y100933D01*
X1752955Y100933D01*
X1752955Y98673D01*
X1803450Y83890D02*
X1803450Y66872D01*
X1752650Y66364D02*
X1752650Y75000D01*
X1752650Y83636D01*
X1752650Y75000D02*
X1778050Y100400D01*
D117*
X1749475Y103575D03*
D10*
X1952942Y51378D02*
X1952942Y48838D01*
X1952434Y48838D01*
X1952434Y48889D01*
X1902929Y48889D01*
X1902929Y51200D01*
X1953145Y98190D02*
X1953145Y100908D01*
X1952637Y100908D01*
X1952637Y100933D01*
X1902955Y100933D01*
X1902955Y98673D01*
X1953450Y83890D02*
X1953450Y66872D01*
X1902650Y66364D02*
X1902650Y75000D01*
X1902650Y83636D01*
X1902650Y75000D02*
X1928050Y100400D01*
D117*
X1899475Y103575D03*
D10*
X2102942Y51378D02*
X2102942Y48838D01*
X2102434Y48838D01*
X2102434Y48889D01*
X2052929Y48889D01*
X2052929Y51200D01*
X2103145Y98190D02*
X2103145Y100908D01*
X2102637Y100908D01*
X2102637Y100933D01*
X2052955Y100933D01*
X2052955Y98673D01*
X2103450Y83890D02*
X2103450Y66872D01*
X2052650Y66364D02*
X2052650Y75000D01*
X2052650Y83636D01*
X2052650Y75000D02*
X2078050Y100400D01*
D117*
X2049475Y103575D03*
D10*
X2252942Y51378D02*
X2252942Y48838D01*
X2252434Y48838D01*
X2252434Y48889D01*
X2202929Y48889D01*
X2202929Y51200D01*
X2253145Y98190D02*
X2253145Y100908D01*
X2252637Y100908D01*
X2252637Y100933D01*
X2202955Y100933D01*
X2202955Y98673D01*
X2253450Y83890D02*
X2253450Y66872D01*
X2202650Y66364D02*
X2202650Y75000D01*
X2202650Y83636D01*
X2202650Y75000D02*
X2228050Y100400D01*
D117*
X2199475Y103575D03*
D10*
X2402942Y51378D02*
X2402942Y48838D01*
X2402434Y48838D01*
X2402434Y48889D01*
X2352929Y48889D01*
X2352929Y51200D01*
X2403145Y98190D02*
X2403145Y100908D01*
X2402637Y100908D01*
X2402637Y100933D01*
X2352955Y100933D01*
X2352955Y98673D01*
X2403450Y83890D02*
X2403450Y66872D01*
X2352650Y66364D02*
X2352650Y75000D01*
X2352650Y83636D01*
X2352650Y75000D02*
X2378050Y100400D01*
D117*
X2349475Y103575D03*
D10*
X2552942Y51378D02*
X2552942Y48838D01*
X2552434Y48838D01*
X2552434Y48889D01*
X2502929Y48889D01*
X2502929Y51200D01*
X2553145Y98190D02*
X2553145Y100908D01*
X2552637Y100908D01*
X2552637Y100933D01*
X2502955Y100933D01*
X2502955Y98673D01*
X2553450Y83890D02*
X2553450Y66872D01*
X2502650Y66364D02*
X2502650Y75000D01*
X2502650Y83636D01*
X2502650Y75000D02*
X2528050Y100400D01*
D117*
X2499475Y103575D03*
D10*
X2702942Y51378D02*
X2702942Y48838D01*
X2702434Y48838D01*
X2702434Y48889D01*
X2652929Y48889D01*
X2652929Y51200D01*
X2703145Y98190D02*
X2703145Y100908D01*
X2702637Y100908D01*
X2702637Y100933D01*
X2652955Y100933D01*
X2652955Y98673D01*
X2703450Y83890D02*
X2703450Y66872D01*
X2652650Y66364D02*
X2652650Y75000D01*
X2652650Y83636D01*
X2652650Y75000D02*
X2678050Y100400D01*
D117*
X2649475Y103575D03*
D10*
X152942Y348838D02*
X152942Y351378D01*
X152942Y348838D02*
X152434Y348838D01*
X152434Y348889D01*
X102929Y348889D01*
X102929Y351200D01*
X153145Y398190D02*
X153145Y400908D01*
X152637Y400908D01*
X152637Y400933D01*
X102955Y400933D01*
X102955Y398673D01*
X153450Y383890D02*
X153450Y366872D01*
X102650Y366364D02*
X102650Y375000D01*
X102650Y383636D01*
X102650Y375000D02*
X128050Y400400D01*
D117*
X99475Y403575D03*
D10*
X752942Y201378D02*
X752942Y198838D01*
X752434Y198838D01*
X752434Y198889D01*
X702929Y198889D01*
X702929Y201200D01*
X753145Y248190D02*
X753145Y250908D01*
X752637Y250908D01*
X752637Y250933D01*
X702955Y250933D01*
X702955Y248673D01*
X753450Y233890D02*
X753450Y216872D01*
X702650Y216364D02*
X702650Y225000D01*
X702650Y233636D01*
X702650Y225000D02*
X728050Y250400D01*
D117*
X699475Y253575D03*
D10*
X2402942Y648838D02*
X2402942Y651378D01*
X2402942Y648838D02*
X2402434Y648838D01*
X2402434Y648889D01*
X2352929Y648889D01*
X2352929Y651200D01*
X2403145Y698190D02*
X2403145Y700908D01*
X2402637Y700908D01*
X2402637Y700933D01*
X2352955Y700933D01*
X2352955Y698673D01*
X2403450Y683890D02*
X2403450Y666872D01*
X2352650Y666364D02*
X2352650Y675000D01*
X2352650Y683636D01*
X2352650Y675000D02*
X2378050Y700400D01*
D117*
X2349475Y703575D03*
D10*
X2552942Y651378D02*
X2552942Y648838D01*
X2552434Y648838D01*
X2552434Y648889D01*
X2502929Y648889D01*
X2502929Y651200D01*
X2553145Y698190D02*
X2553145Y700908D01*
X2552637Y700908D01*
X2552637Y700933D01*
X2502955Y700933D01*
X2502955Y698673D01*
X2553450Y683890D02*
X2553450Y666872D01*
X2502650Y666364D02*
X2502650Y675000D01*
X2502650Y683636D01*
X2502650Y675000D02*
X2528050Y700400D01*
D117*
X2499475Y703575D03*
M02*
