G75*
%MOIN*%
%OFA0B0*%
%FSLAX25Y25*%
%IPPOS*%
%LPD*%
%AMOC8*
5,1,8,0,0,1.08239X$1,22.5*
%
%ADD10C,0.00800*%
%ADD11C,0.00000*%
%ADD12C,0.00039*%
D10*
X0013963Y0064055D02*
X0287833Y0064055D01*
X0287833Y0144055D01*
X0311333Y0144055D01*
X0311333Y0064055D01*
X1299396Y0064055D01*
X1299396Y0842598D01*
X0053333Y0842598D01*
X0053333Y0221535D01*
X0013963Y0221535D01*
X0013963Y0064055D01*
D11*
X0076361Y0093583D02*
X0076363Y0093744D01*
X0076369Y0093904D01*
X0076379Y0094065D01*
X0076393Y0094225D01*
X0076411Y0094385D01*
X0076432Y0094544D01*
X0076458Y0094703D01*
X0076488Y0094861D01*
X0076521Y0095018D01*
X0076559Y0095175D01*
X0076600Y0095330D01*
X0076645Y0095484D01*
X0076694Y0095637D01*
X0076747Y0095789D01*
X0076803Y0095940D01*
X0076864Y0096089D01*
X0076927Y0096237D01*
X0076995Y0096383D01*
X0077066Y0096527D01*
X0077140Y0096669D01*
X0077218Y0096810D01*
X0077300Y0096948D01*
X0077385Y0097085D01*
X0077473Y0097219D01*
X0077565Y0097351D01*
X0077660Y0097481D01*
X0077758Y0097609D01*
X0077859Y0097734D01*
X0077963Y0097856D01*
X0078070Y0097976D01*
X0078180Y0098093D01*
X0078293Y0098208D01*
X0078409Y0098319D01*
X0078528Y0098428D01*
X0078649Y0098533D01*
X0078773Y0098636D01*
X0078899Y0098736D01*
X0079027Y0098832D01*
X0079158Y0098925D01*
X0079292Y0099015D01*
X0079427Y0099102D01*
X0079565Y0099185D01*
X0079704Y0099265D01*
X0079846Y0099341D01*
X0079989Y0099414D01*
X0080134Y0099483D01*
X0080281Y0099549D01*
X0080429Y0099611D01*
X0080579Y0099669D01*
X0080730Y0099724D01*
X0080883Y0099775D01*
X0081037Y0099822D01*
X0081192Y0099865D01*
X0081348Y0099904D01*
X0081504Y0099940D01*
X0081662Y0099971D01*
X0081820Y0099999D01*
X0081979Y0100023D01*
X0082139Y0100043D01*
X0082299Y0100059D01*
X0082459Y0100071D01*
X0082620Y0100079D01*
X0082781Y0100083D01*
X0082941Y0100083D01*
X0083102Y0100079D01*
X0083263Y0100071D01*
X0083423Y0100059D01*
X0083583Y0100043D01*
X0083743Y0100023D01*
X0083902Y0099999D01*
X0084060Y0099971D01*
X0084218Y0099940D01*
X0084374Y0099904D01*
X0084530Y0099865D01*
X0084685Y0099822D01*
X0084839Y0099775D01*
X0084992Y0099724D01*
X0085143Y0099669D01*
X0085293Y0099611D01*
X0085441Y0099549D01*
X0085588Y0099483D01*
X0085733Y0099414D01*
X0085876Y0099341D01*
X0086018Y0099265D01*
X0086157Y0099185D01*
X0086295Y0099102D01*
X0086430Y0099015D01*
X0086564Y0098925D01*
X0086695Y0098832D01*
X0086823Y0098736D01*
X0086949Y0098636D01*
X0087073Y0098533D01*
X0087194Y0098428D01*
X0087313Y0098319D01*
X0087429Y0098208D01*
X0087542Y0098093D01*
X0087652Y0097976D01*
X0087759Y0097856D01*
X0087863Y0097734D01*
X0087964Y0097609D01*
X0088062Y0097481D01*
X0088157Y0097351D01*
X0088249Y0097219D01*
X0088337Y0097085D01*
X0088422Y0096948D01*
X0088504Y0096810D01*
X0088582Y0096669D01*
X0088656Y0096527D01*
X0088727Y0096383D01*
X0088795Y0096237D01*
X0088858Y0096089D01*
X0088919Y0095940D01*
X0088975Y0095789D01*
X0089028Y0095637D01*
X0089077Y0095484D01*
X0089122Y0095330D01*
X0089163Y0095175D01*
X0089201Y0095018D01*
X0089234Y0094861D01*
X0089264Y0094703D01*
X0089290Y0094544D01*
X0089311Y0094385D01*
X0089329Y0094225D01*
X0089343Y0094065D01*
X0089353Y0093904D01*
X0089359Y0093744D01*
X0089361Y0093583D01*
X0089359Y0093422D01*
X0089353Y0093262D01*
X0089343Y0093101D01*
X0089329Y0092941D01*
X0089311Y0092781D01*
X0089290Y0092622D01*
X0089264Y0092463D01*
X0089234Y0092305D01*
X0089201Y0092148D01*
X0089163Y0091991D01*
X0089122Y0091836D01*
X0089077Y0091682D01*
X0089028Y0091529D01*
X0088975Y0091377D01*
X0088919Y0091226D01*
X0088858Y0091077D01*
X0088795Y0090929D01*
X0088727Y0090783D01*
X0088656Y0090639D01*
X0088582Y0090497D01*
X0088504Y0090356D01*
X0088422Y0090218D01*
X0088337Y0090081D01*
X0088249Y0089947D01*
X0088157Y0089815D01*
X0088062Y0089685D01*
X0087964Y0089557D01*
X0087863Y0089432D01*
X0087759Y0089310D01*
X0087652Y0089190D01*
X0087542Y0089073D01*
X0087429Y0088958D01*
X0087313Y0088847D01*
X0087194Y0088738D01*
X0087073Y0088633D01*
X0086949Y0088530D01*
X0086823Y0088430D01*
X0086695Y0088334D01*
X0086564Y0088241D01*
X0086430Y0088151D01*
X0086295Y0088064D01*
X0086157Y0087981D01*
X0086018Y0087901D01*
X0085876Y0087825D01*
X0085733Y0087752D01*
X0085588Y0087683D01*
X0085441Y0087617D01*
X0085293Y0087555D01*
X0085143Y0087497D01*
X0084992Y0087442D01*
X0084839Y0087391D01*
X0084685Y0087344D01*
X0084530Y0087301D01*
X0084374Y0087262D01*
X0084218Y0087226D01*
X0084060Y0087195D01*
X0083902Y0087167D01*
X0083743Y0087143D01*
X0083583Y0087123D01*
X0083423Y0087107D01*
X0083263Y0087095D01*
X0083102Y0087087D01*
X0082941Y0087083D01*
X0082781Y0087083D01*
X0082620Y0087087D01*
X0082459Y0087095D01*
X0082299Y0087107D01*
X0082139Y0087123D01*
X0081979Y0087143D01*
X0081820Y0087167D01*
X0081662Y0087195D01*
X0081504Y0087226D01*
X0081348Y0087262D01*
X0081192Y0087301D01*
X0081037Y0087344D01*
X0080883Y0087391D01*
X0080730Y0087442D01*
X0080579Y0087497D01*
X0080429Y0087555D01*
X0080281Y0087617D01*
X0080134Y0087683D01*
X0079989Y0087752D01*
X0079846Y0087825D01*
X0079704Y0087901D01*
X0079565Y0087981D01*
X0079427Y0088064D01*
X0079292Y0088151D01*
X0079158Y0088241D01*
X0079027Y0088334D01*
X0078899Y0088430D01*
X0078773Y0088530D01*
X0078649Y0088633D01*
X0078528Y0088738D01*
X0078409Y0088847D01*
X0078293Y0088958D01*
X0078180Y0089073D01*
X0078070Y0089190D01*
X0077963Y0089310D01*
X0077859Y0089432D01*
X0077758Y0089557D01*
X0077660Y0089685D01*
X0077565Y0089815D01*
X0077473Y0089947D01*
X0077385Y0090081D01*
X0077300Y0090218D01*
X0077218Y0090356D01*
X0077140Y0090497D01*
X0077066Y0090639D01*
X0076995Y0090783D01*
X0076927Y0090929D01*
X0076864Y0091077D01*
X0076803Y0091226D01*
X0076747Y0091377D01*
X0076694Y0091529D01*
X0076645Y0091682D01*
X0076600Y0091836D01*
X0076559Y0091991D01*
X0076521Y0092148D01*
X0076488Y0092305D01*
X0076458Y0092463D01*
X0076432Y0092622D01*
X0076411Y0092781D01*
X0076393Y0092941D01*
X0076379Y0093101D01*
X0076369Y0093262D01*
X0076363Y0093422D01*
X0076361Y0093583D01*
X0039416Y0117862D02*
X0039418Y0117933D01*
X0039424Y0118004D01*
X0039434Y0118075D01*
X0039448Y0118144D01*
X0039465Y0118213D01*
X0039487Y0118281D01*
X0039512Y0118348D01*
X0039541Y0118413D01*
X0039573Y0118476D01*
X0039609Y0118538D01*
X0039648Y0118597D01*
X0039691Y0118654D01*
X0039736Y0118709D01*
X0039785Y0118761D01*
X0039836Y0118810D01*
X0039890Y0118856D01*
X0039947Y0118900D01*
X0040005Y0118940D01*
X0040066Y0118976D01*
X0040129Y0119010D01*
X0040194Y0119039D01*
X0040260Y0119065D01*
X0040328Y0119088D01*
X0040396Y0119106D01*
X0040466Y0119121D01*
X0040536Y0119132D01*
X0040607Y0119139D01*
X0040678Y0119142D01*
X0040749Y0119141D01*
X0040820Y0119136D01*
X0040891Y0119127D01*
X0040961Y0119114D01*
X0041030Y0119098D01*
X0041098Y0119077D01*
X0041165Y0119053D01*
X0041231Y0119025D01*
X0041294Y0118993D01*
X0041356Y0118958D01*
X0041416Y0118920D01*
X0041474Y0118878D01*
X0041529Y0118834D01*
X0041582Y0118786D01*
X0041632Y0118735D01*
X0041679Y0118682D01*
X0041723Y0118626D01*
X0041764Y0118568D01*
X0041802Y0118507D01*
X0041836Y0118445D01*
X0041866Y0118380D01*
X0041893Y0118315D01*
X0041917Y0118247D01*
X0041936Y0118179D01*
X0041952Y0118110D01*
X0041964Y0118039D01*
X0041972Y0117969D01*
X0041976Y0117898D01*
X0041976Y0117826D01*
X0041972Y0117755D01*
X0041964Y0117685D01*
X0041952Y0117614D01*
X0041936Y0117545D01*
X0041917Y0117477D01*
X0041893Y0117409D01*
X0041866Y0117344D01*
X0041836Y0117279D01*
X0041802Y0117217D01*
X0041764Y0117156D01*
X0041723Y0117098D01*
X0041679Y0117042D01*
X0041632Y0116989D01*
X0041582Y0116938D01*
X0041529Y0116890D01*
X0041474Y0116846D01*
X0041416Y0116804D01*
X0041356Y0116766D01*
X0041294Y0116731D01*
X0041231Y0116699D01*
X0041165Y0116671D01*
X0041098Y0116647D01*
X0041030Y0116626D01*
X0040961Y0116610D01*
X0040891Y0116597D01*
X0040820Y0116588D01*
X0040749Y0116583D01*
X0040678Y0116582D01*
X0040607Y0116585D01*
X0040536Y0116592D01*
X0040466Y0116603D01*
X0040396Y0116618D01*
X0040328Y0116636D01*
X0040260Y0116659D01*
X0040194Y0116685D01*
X0040129Y0116714D01*
X0040066Y0116748D01*
X0040005Y0116784D01*
X0039947Y0116824D01*
X0039890Y0116868D01*
X0039836Y0116914D01*
X0039785Y0116963D01*
X0039736Y0117015D01*
X0039691Y0117070D01*
X0039648Y0117127D01*
X0039609Y0117186D01*
X0039573Y0117248D01*
X0039541Y0117311D01*
X0039512Y0117376D01*
X0039487Y0117443D01*
X0039465Y0117511D01*
X0039448Y0117580D01*
X0039434Y0117649D01*
X0039424Y0117720D01*
X0039418Y0117791D01*
X0039416Y0117862D01*
X0039416Y0140618D02*
X0039418Y0140689D01*
X0039424Y0140760D01*
X0039434Y0140831D01*
X0039448Y0140900D01*
X0039465Y0140969D01*
X0039487Y0141037D01*
X0039512Y0141104D01*
X0039541Y0141169D01*
X0039573Y0141232D01*
X0039609Y0141294D01*
X0039648Y0141353D01*
X0039691Y0141410D01*
X0039736Y0141465D01*
X0039785Y0141517D01*
X0039836Y0141566D01*
X0039890Y0141612D01*
X0039947Y0141656D01*
X0040005Y0141696D01*
X0040066Y0141732D01*
X0040129Y0141766D01*
X0040194Y0141795D01*
X0040260Y0141821D01*
X0040328Y0141844D01*
X0040396Y0141862D01*
X0040466Y0141877D01*
X0040536Y0141888D01*
X0040607Y0141895D01*
X0040678Y0141898D01*
X0040749Y0141897D01*
X0040820Y0141892D01*
X0040891Y0141883D01*
X0040961Y0141870D01*
X0041030Y0141854D01*
X0041098Y0141833D01*
X0041165Y0141809D01*
X0041231Y0141781D01*
X0041294Y0141749D01*
X0041356Y0141714D01*
X0041416Y0141676D01*
X0041474Y0141634D01*
X0041529Y0141590D01*
X0041582Y0141542D01*
X0041632Y0141491D01*
X0041679Y0141438D01*
X0041723Y0141382D01*
X0041764Y0141324D01*
X0041802Y0141263D01*
X0041836Y0141201D01*
X0041866Y0141136D01*
X0041893Y0141071D01*
X0041917Y0141003D01*
X0041936Y0140935D01*
X0041952Y0140866D01*
X0041964Y0140795D01*
X0041972Y0140725D01*
X0041976Y0140654D01*
X0041976Y0140582D01*
X0041972Y0140511D01*
X0041964Y0140441D01*
X0041952Y0140370D01*
X0041936Y0140301D01*
X0041917Y0140233D01*
X0041893Y0140165D01*
X0041866Y0140100D01*
X0041836Y0140035D01*
X0041802Y0139973D01*
X0041764Y0139912D01*
X0041723Y0139854D01*
X0041679Y0139798D01*
X0041632Y0139745D01*
X0041582Y0139694D01*
X0041529Y0139646D01*
X0041474Y0139602D01*
X0041416Y0139560D01*
X0041356Y0139522D01*
X0041294Y0139487D01*
X0041231Y0139455D01*
X0041165Y0139427D01*
X0041098Y0139403D01*
X0041030Y0139382D01*
X0040961Y0139366D01*
X0040891Y0139353D01*
X0040820Y0139344D01*
X0040749Y0139339D01*
X0040678Y0139338D01*
X0040607Y0139341D01*
X0040536Y0139348D01*
X0040466Y0139359D01*
X0040396Y0139374D01*
X0040328Y0139392D01*
X0040260Y0139415D01*
X0040194Y0139441D01*
X0040129Y0139470D01*
X0040066Y0139504D01*
X0040005Y0139540D01*
X0039947Y0139580D01*
X0039890Y0139624D01*
X0039836Y0139670D01*
X0039785Y0139719D01*
X0039736Y0139771D01*
X0039691Y0139826D01*
X0039648Y0139883D01*
X0039609Y0139942D01*
X0039573Y0140004D01*
X0039541Y0140067D01*
X0039512Y0140132D01*
X0039487Y0140199D01*
X0039465Y0140267D01*
X0039448Y0140336D01*
X0039434Y0140405D01*
X0039424Y0140476D01*
X0039418Y0140547D01*
X0039416Y0140618D01*
X0050381Y0193583D02*
X0050383Y0193680D01*
X0050389Y0193777D01*
X0050399Y0193873D01*
X0050413Y0193969D01*
X0050431Y0194065D01*
X0050452Y0194159D01*
X0050478Y0194253D01*
X0050507Y0194345D01*
X0050541Y0194436D01*
X0050577Y0194526D01*
X0050618Y0194614D01*
X0050662Y0194700D01*
X0050710Y0194785D01*
X0050761Y0194867D01*
X0050815Y0194948D01*
X0050873Y0195026D01*
X0050934Y0195101D01*
X0050997Y0195174D01*
X0051064Y0195245D01*
X0051134Y0195312D01*
X0051206Y0195377D01*
X0051281Y0195438D01*
X0051359Y0195497D01*
X0051438Y0195552D01*
X0051520Y0195604D01*
X0051604Y0195652D01*
X0051690Y0195697D01*
X0051778Y0195739D01*
X0051867Y0195777D01*
X0051958Y0195811D01*
X0052050Y0195841D01*
X0052143Y0195868D01*
X0052238Y0195890D01*
X0052333Y0195909D01*
X0052429Y0195924D01*
X0052525Y0195935D01*
X0052622Y0195942D01*
X0052719Y0195945D01*
X0052816Y0195944D01*
X0052913Y0195939D01*
X0053009Y0195930D01*
X0053105Y0195917D01*
X0053201Y0195900D01*
X0053296Y0195879D01*
X0053389Y0195855D01*
X0053482Y0195826D01*
X0053574Y0195794D01*
X0053664Y0195758D01*
X0053752Y0195719D01*
X0053839Y0195675D01*
X0053924Y0195629D01*
X0054007Y0195578D01*
X0054088Y0195525D01*
X0054166Y0195468D01*
X0054243Y0195408D01*
X0054316Y0195345D01*
X0054387Y0195279D01*
X0054455Y0195210D01*
X0054521Y0195138D01*
X0054583Y0195064D01*
X0054642Y0194987D01*
X0054698Y0194908D01*
X0054751Y0194826D01*
X0054801Y0194743D01*
X0054846Y0194657D01*
X0054889Y0194570D01*
X0054928Y0194481D01*
X0054963Y0194391D01*
X0054994Y0194299D01*
X0055021Y0194206D01*
X0055045Y0194112D01*
X0055065Y0194017D01*
X0055081Y0193921D01*
X0055093Y0193825D01*
X0055101Y0193728D01*
X0055105Y0193631D01*
X0055105Y0193535D01*
X0055101Y0193438D01*
X0055093Y0193341D01*
X0055081Y0193245D01*
X0055065Y0193149D01*
X0055045Y0193054D01*
X0055021Y0192960D01*
X0054994Y0192867D01*
X0054963Y0192775D01*
X0054928Y0192685D01*
X0054889Y0192596D01*
X0054846Y0192509D01*
X0054801Y0192423D01*
X0054751Y0192340D01*
X0054698Y0192258D01*
X0054642Y0192179D01*
X0054583Y0192102D01*
X0054521Y0192028D01*
X0054455Y0191956D01*
X0054387Y0191887D01*
X0054316Y0191821D01*
X0054243Y0191758D01*
X0054166Y0191698D01*
X0054088Y0191641D01*
X0054007Y0191588D01*
X0053924Y0191537D01*
X0053839Y0191491D01*
X0053752Y0191447D01*
X0053664Y0191408D01*
X0053574Y0191372D01*
X0053482Y0191340D01*
X0053389Y0191311D01*
X0053296Y0191287D01*
X0053201Y0191266D01*
X0053105Y0191249D01*
X0053009Y0191236D01*
X0052913Y0191227D01*
X0052816Y0191222D01*
X0052719Y0191221D01*
X0052622Y0191224D01*
X0052525Y0191231D01*
X0052429Y0191242D01*
X0052333Y0191257D01*
X0052238Y0191276D01*
X0052143Y0191298D01*
X0052050Y0191325D01*
X0051958Y0191355D01*
X0051867Y0191389D01*
X0051778Y0191427D01*
X0051690Y0191469D01*
X0051604Y0191514D01*
X0051520Y0191562D01*
X0051438Y0191614D01*
X0051359Y0191669D01*
X0051281Y0191728D01*
X0051206Y0191789D01*
X0051134Y0191854D01*
X0051064Y0191921D01*
X0050997Y0191992D01*
X0050934Y0192065D01*
X0050873Y0192140D01*
X0050815Y0192218D01*
X0050761Y0192299D01*
X0050710Y0192381D01*
X0050662Y0192466D01*
X0050618Y0192552D01*
X0050577Y0192640D01*
X0050541Y0192730D01*
X0050507Y0192821D01*
X0050478Y0192913D01*
X0050452Y0193007D01*
X0050431Y0193101D01*
X0050413Y0193197D01*
X0050399Y0193293D01*
X0050389Y0193389D01*
X0050383Y0193486D01*
X0050381Y0193583D01*
X0022822Y0193583D02*
X0022824Y0193680D01*
X0022830Y0193777D01*
X0022840Y0193873D01*
X0022854Y0193969D01*
X0022872Y0194065D01*
X0022893Y0194159D01*
X0022919Y0194253D01*
X0022948Y0194345D01*
X0022982Y0194436D01*
X0023018Y0194526D01*
X0023059Y0194614D01*
X0023103Y0194700D01*
X0023151Y0194785D01*
X0023202Y0194867D01*
X0023256Y0194948D01*
X0023314Y0195026D01*
X0023375Y0195101D01*
X0023438Y0195174D01*
X0023505Y0195245D01*
X0023575Y0195312D01*
X0023647Y0195377D01*
X0023722Y0195438D01*
X0023800Y0195497D01*
X0023879Y0195552D01*
X0023961Y0195604D01*
X0024045Y0195652D01*
X0024131Y0195697D01*
X0024219Y0195739D01*
X0024308Y0195777D01*
X0024399Y0195811D01*
X0024491Y0195841D01*
X0024584Y0195868D01*
X0024679Y0195890D01*
X0024774Y0195909D01*
X0024870Y0195924D01*
X0024966Y0195935D01*
X0025063Y0195942D01*
X0025160Y0195945D01*
X0025257Y0195944D01*
X0025354Y0195939D01*
X0025450Y0195930D01*
X0025546Y0195917D01*
X0025642Y0195900D01*
X0025737Y0195879D01*
X0025830Y0195855D01*
X0025923Y0195826D01*
X0026015Y0195794D01*
X0026105Y0195758D01*
X0026193Y0195719D01*
X0026280Y0195675D01*
X0026365Y0195629D01*
X0026448Y0195578D01*
X0026529Y0195525D01*
X0026607Y0195468D01*
X0026684Y0195408D01*
X0026757Y0195345D01*
X0026828Y0195279D01*
X0026896Y0195210D01*
X0026962Y0195138D01*
X0027024Y0195064D01*
X0027083Y0194987D01*
X0027139Y0194908D01*
X0027192Y0194826D01*
X0027242Y0194743D01*
X0027287Y0194657D01*
X0027330Y0194570D01*
X0027369Y0194481D01*
X0027404Y0194391D01*
X0027435Y0194299D01*
X0027462Y0194206D01*
X0027486Y0194112D01*
X0027506Y0194017D01*
X0027522Y0193921D01*
X0027534Y0193825D01*
X0027542Y0193728D01*
X0027546Y0193631D01*
X0027546Y0193535D01*
X0027542Y0193438D01*
X0027534Y0193341D01*
X0027522Y0193245D01*
X0027506Y0193149D01*
X0027486Y0193054D01*
X0027462Y0192960D01*
X0027435Y0192867D01*
X0027404Y0192775D01*
X0027369Y0192685D01*
X0027330Y0192596D01*
X0027287Y0192509D01*
X0027242Y0192423D01*
X0027192Y0192340D01*
X0027139Y0192258D01*
X0027083Y0192179D01*
X0027024Y0192102D01*
X0026962Y0192028D01*
X0026896Y0191956D01*
X0026828Y0191887D01*
X0026757Y0191821D01*
X0026684Y0191758D01*
X0026607Y0191698D01*
X0026529Y0191641D01*
X0026448Y0191588D01*
X0026365Y0191537D01*
X0026280Y0191491D01*
X0026193Y0191447D01*
X0026105Y0191408D01*
X0026015Y0191372D01*
X0025923Y0191340D01*
X0025830Y0191311D01*
X0025737Y0191287D01*
X0025642Y0191266D01*
X0025546Y0191249D01*
X0025450Y0191236D01*
X0025354Y0191227D01*
X0025257Y0191222D01*
X0025160Y0191221D01*
X0025063Y0191224D01*
X0024966Y0191231D01*
X0024870Y0191242D01*
X0024774Y0191257D01*
X0024679Y0191276D01*
X0024584Y0191298D01*
X0024491Y0191325D01*
X0024399Y0191355D01*
X0024308Y0191389D01*
X0024219Y0191427D01*
X0024131Y0191469D01*
X0024045Y0191514D01*
X0023961Y0191562D01*
X0023879Y0191614D01*
X0023800Y0191669D01*
X0023722Y0191728D01*
X0023647Y0191789D01*
X0023575Y0191854D01*
X0023505Y0191921D01*
X0023438Y0191992D01*
X0023375Y0192065D01*
X0023314Y0192140D01*
X0023256Y0192218D01*
X0023202Y0192299D01*
X0023151Y0192381D01*
X0023103Y0192466D01*
X0023059Y0192552D01*
X0023018Y0192640D01*
X0022982Y0192730D01*
X0022948Y0192821D01*
X0022919Y0192913D01*
X0022893Y0193007D01*
X0022872Y0193101D01*
X0022854Y0193197D01*
X0022840Y0193293D01*
X0022830Y0193389D01*
X0022824Y0193486D01*
X0022822Y0193583D01*
X0329632Y0077835D02*
X0329634Y0077919D01*
X0329640Y0078002D01*
X0329650Y0078085D01*
X0329664Y0078168D01*
X0329681Y0078250D01*
X0329703Y0078331D01*
X0329728Y0078410D01*
X0329757Y0078489D01*
X0329790Y0078566D01*
X0329826Y0078641D01*
X0329866Y0078715D01*
X0329909Y0078787D01*
X0329956Y0078856D01*
X0330006Y0078923D01*
X0330059Y0078988D01*
X0330115Y0079050D01*
X0330173Y0079110D01*
X0330235Y0079167D01*
X0330299Y0079220D01*
X0330366Y0079271D01*
X0330435Y0079318D01*
X0330506Y0079363D01*
X0330579Y0079403D01*
X0330654Y0079440D01*
X0330731Y0079474D01*
X0330809Y0079504D01*
X0330888Y0079530D01*
X0330969Y0079553D01*
X0331051Y0079571D01*
X0331133Y0079586D01*
X0331216Y0079597D01*
X0331299Y0079604D01*
X0331383Y0079607D01*
X0331467Y0079606D01*
X0331550Y0079601D01*
X0331634Y0079592D01*
X0331716Y0079579D01*
X0331798Y0079563D01*
X0331879Y0079542D01*
X0331960Y0079518D01*
X0332038Y0079490D01*
X0332116Y0079458D01*
X0332192Y0079422D01*
X0332266Y0079383D01*
X0332338Y0079341D01*
X0332408Y0079295D01*
X0332476Y0079246D01*
X0332541Y0079194D01*
X0332604Y0079139D01*
X0332664Y0079081D01*
X0332722Y0079020D01*
X0332776Y0078956D01*
X0332828Y0078890D01*
X0332876Y0078822D01*
X0332921Y0078751D01*
X0332962Y0078678D01*
X0333001Y0078604D01*
X0333035Y0078528D01*
X0333066Y0078450D01*
X0333093Y0078371D01*
X0333117Y0078290D01*
X0333136Y0078209D01*
X0333152Y0078127D01*
X0333164Y0078044D01*
X0333172Y0077960D01*
X0333176Y0077877D01*
X0333176Y0077793D01*
X0333172Y0077710D01*
X0333164Y0077626D01*
X0333152Y0077543D01*
X0333136Y0077461D01*
X0333117Y0077380D01*
X0333093Y0077299D01*
X0333066Y0077220D01*
X0333035Y0077142D01*
X0333001Y0077066D01*
X0332962Y0076992D01*
X0332921Y0076919D01*
X0332876Y0076848D01*
X0332828Y0076780D01*
X0332776Y0076714D01*
X0332722Y0076650D01*
X0332664Y0076589D01*
X0332604Y0076531D01*
X0332541Y0076476D01*
X0332476Y0076424D01*
X0332408Y0076375D01*
X0332338Y0076329D01*
X0332266Y0076287D01*
X0332192Y0076248D01*
X0332116Y0076212D01*
X0332038Y0076180D01*
X0331960Y0076152D01*
X0331879Y0076128D01*
X0331798Y0076107D01*
X0331716Y0076091D01*
X0331634Y0076078D01*
X0331550Y0076069D01*
X0331467Y0076064D01*
X0331383Y0076063D01*
X0331299Y0076066D01*
X0331216Y0076073D01*
X0331133Y0076084D01*
X0331051Y0076099D01*
X0330969Y0076117D01*
X0330888Y0076140D01*
X0330809Y0076166D01*
X0330731Y0076196D01*
X0330654Y0076230D01*
X0330579Y0076267D01*
X0330506Y0076307D01*
X0330435Y0076352D01*
X0330366Y0076399D01*
X0330299Y0076450D01*
X0330235Y0076503D01*
X0330173Y0076560D01*
X0330115Y0076620D01*
X0330059Y0076682D01*
X0330006Y0076747D01*
X0329956Y0076814D01*
X0329909Y0076883D01*
X0329866Y0076955D01*
X0329826Y0077029D01*
X0329790Y0077104D01*
X0329757Y0077181D01*
X0329728Y0077260D01*
X0329703Y0077339D01*
X0329681Y0077420D01*
X0329664Y0077502D01*
X0329650Y0077585D01*
X0329640Y0077668D01*
X0329634Y0077751D01*
X0329632Y0077835D01*
X0699743Y0093583D02*
X0699745Y0093744D01*
X0699751Y0093904D01*
X0699761Y0094065D01*
X0699775Y0094225D01*
X0699793Y0094385D01*
X0699814Y0094544D01*
X0699840Y0094703D01*
X0699870Y0094861D01*
X0699903Y0095018D01*
X0699941Y0095175D01*
X0699982Y0095330D01*
X0700027Y0095484D01*
X0700076Y0095637D01*
X0700129Y0095789D01*
X0700185Y0095940D01*
X0700246Y0096089D01*
X0700309Y0096237D01*
X0700377Y0096383D01*
X0700448Y0096527D01*
X0700522Y0096669D01*
X0700600Y0096810D01*
X0700682Y0096948D01*
X0700767Y0097085D01*
X0700855Y0097219D01*
X0700947Y0097351D01*
X0701042Y0097481D01*
X0701140Y0097609D01*
X0701241Y0097734D01*
X0701345Y0097856D01*
X0701452Y0097976D01*
X0701562Y0098093D01*
X0701675Y0098208D01*
X0701791Y0098319D01*
X0701910Y0098428D01*
X0702031Y0098533D01*
X0702155Y0098636D01*
X0702281Y0098736D01*
X0702409Y0098832D01*
X0702540Y0098925D01*
X0702674Y0099015D01*
X0702809Y0099102D01*
X0702947Y0099185D01*
X0703086Y0099265D01*
X0703228Y0099341D01*
X0703371Y0099414D01*
X0703516Y0099483D01*
X0703663Y0099549D01*
X0703811Y0099611D01*
X0703961Y0099669D01*
X0704112Y0099724D01*
X0704265Y0099775D01*
X0704419Y0099822D01*
X0704574Y0099865D01*
X0704730Y0099904D01*
X0704886Y0099940D01*
X0705044Y0099971D01*
X0705202Y0099999D01*
X0705361Y0100023D01*
X0705521Y0100043D01*
X0705681Y0100059D01*
X0705841Y0100071D01*
X0706002Y0100079D01*
X0706163Y0100083D01*
X0706323Y0100083D01*
X0706484Y0100079D01*
X0706645Y0100071D01*
X0706805Y0100059D01*
X0706965Y0100043D01*
X0707125Y0100023D01*
X0707284Y0099999D01*
X0707442Y0099971D01*
X0707600Y0099940D01*
X0707756Y0099904D01*
X0707912Y0099865D01*
X0708067Y0099822D01*
X0708221Y0099775D01*
X0708374Y0099724D01*
X0708525Y0099669D01*
X0708675Y0099611D01*
X0708823Y0099549D01*
X0708970Y0099483D01*
X0709115Y0099414D01*
X0709258Y0099341D01*
X0709400Y0099265D01*
X0709539Y0099185D01*
X0709677Y0099102D01*
X0709812Y0099015D01*
X0709946Y0098925D01*
X0710077Y0098832D01*
X0710205Y0098736D01*
X0710331Y0098636D01*
X0710455Y0098533D01*
X0710576Y0098428D01*
X0710695Y0098319D01*
X0710811Y0098208D01*
X0710924Y0098093D01*
X0711034Y0097976D01*
X0711141Y0097856D01*
X0711245Y0097734D01*
X0711346Y0097609D01*
X0711444Y0097481D01*
X0711539Y0097351D01*
X0711631Y0097219D01*
X0711719Y0097085D01*
X0711804Y0096948D01*
X0711886Y0096810D01*
X0711964Y0096669D01*
X0712038Y0096527D01*
X0712109Y0096383D01*
X0712177Y0096237D01*
X0712240Y0096089D01*
X0712301Y0095940D01*
X0712357Y0095789D01*
X0712410Y0095637D01*
X0712459Y0095484D01*
X0712504Y0095330D01*
X0712545Y0095175D01*
X0712583Y0095018D01*
X0712616Y0094861D01*
X0712646Y0094703D01*
X0712672Y0094544D01*
X0712693Y0094385D01*
X0712711Y0094225D01*
X0712725Y0094065D01*
X0712735Y0093904D01*
X0712741Y0093744D01*
X0712743Y0093583D01*
X0712741Y0093422D01*
X0712735Y0093262D01*
X0712725Y0093101D01*
X0712711Y0092941D01*
X0712693Y0092781D01*
X0712672Y0092622D01*
X0712646Y0092463D01*
X0712616Y0092305D01*
X0712583Y0092148D01*
X0712545Y0091991D01*
X0712504Y0091836D01*
X0712459Y0091682D01*
X0712410Y0091529D01*
X0712357Y0091377D01*
X0712301Y0091226D01*
X0712240Y0091077D01*
X0712177Y0090929D01*
X0712109Y0090783D01*
X0712038Y0090639D01*
X0711964Y0090497D01*
X0711886Y0090356D01*
X0711804Y0090218D01*
X0711719Y0090081D01*
X0711631Y0089947D01*
X0711539Y0089815D01*
X0711444Y0089685D01*
X0711346Y0089557D01*
X0711245Y0089432D01*
X0711141Y0089310D01*
X0711034Y0089190D01*
X0710924Y0089073D01*
X0710811Y0088958D01*
X0710695Y0088847D01*
X0710576Y0088738D01*
X0710455Y0088633D01*
X0710331Y0088530D01*
X0710205Y0088430D01*
X0710077Y0088334D01*
X0709946Y0088241D01*
X0709812Y0088151D01*
X0709677Y0088064D01*
X0709539Y0087981D01*
X0709400Y0087901D01*
X0709258Y0087825D01*
X0709115Y0087752D01*
X0708970Y0087683D01*
X0708823Y0087617D01*
X0708675Y0087555D01*
X0708525Y0087497D01*
X0708374Y0087442D01*
X0708221Y0087391D01*
X0708067Y0087344D01*
X0707912Y0087301D01*
X0707756Y0087262D01*
X0707600Y0087226D01*
X0707442Y0087195D01*
X0707284Y0087167D01*
X0707125Y0087143D01*
X0706965Y0087123D01*
X0706805Y0087107D01*
X0706645Y0087095D01*
X0706484Y0087087D01*
X0706323Y0087083D01*
X0706163Y0087083D01*
X0706002Y0087087D01*
X0705841Y0087095D01*
X0705681Y0087107D01*
X0705521Y0087123D01*
X0705361Y0087143D01*
X0705202Y0087167D01*
X0705044Y0087195D01*
X0704886Y0087226D01*
X0704730Y0087262D01*
X0704574Y0087301D01*
X0704419Y0087344D01*
X0704265Y0087391D01*
X0704112Y0087442D01*
X0703961Y0087497D01*
X0703811Y0087555D01*
X0703663Y0087617D01*
X0703516Y0087683D01*
X0703371Y0087752D01*
X0703228Y0087825D01*
X0703086Y0087901D01*
X0702947Y0087981D01*
X0702809Y0088064D01*
X0702674Y0088151D01*
X0702540Y0088241D01*
X0702409Y0088334D01*
X0702281Y0088430D01*
X0702155Y0088530D01*
X0702031Y0088633D01*
X0701910Y0088738D01*
X0701791Y0088847D01*
X0701675Y0088958D01*
X0701562Y0089073D01*
X0701452Y0089190D01*
X0701345Y0089310D01*
X0701241Y0089432D01*
X0701140Y0089557D01*
X0701042Y0089685D01*
X0700947Y0089815D01*
X0700855Y0089947D01*
X0700767Y0090081D01*
X0700682Y0090218D01*
X0700600Y0090356D01*
X0700522Y0090497D01*
X0700448Y0090639D01*
X0700377Y0090783D01*
X0700309Y0090929D01*
X0700246Y0091077D01*
X0700185Y0091226D01*
X0700129Y0091377D01*
X0700076Y0091529D01*
X0700027Y0091682D01*
X0699982Y0091836D01*
X0699941Y0091991D01*
X0699903Y0092148D01*
X0699870Y0092305D01*
X0699840Y0092463D01*
X0699814Y0092622D01*
X0699793Y0092781D01*
X0699775Y0092941D01*
X0699761Y0093101D01*
X0699751Y0093262D01*
X0699745Y0093422D01*
X0699743Y0093583D01*
X1263369Y0093583D02*
X1263371Y0093744D01*
X1263377Y0093904D01*
X1263387Y0094065D01*
X1263401Y0094225D01*
X1263419Y0094385D01*
X1263440Y0094544D01*
X1263466Y0094703D01*
X1263496Y0094861D01*
X1263529Y0095018D01*
X1263567Y0095175D01*
X1263608Y0095330D01*
X1263653Y0095484D01*
X1263702Y0095637D01*
X1263755Y0095789D01*
X1263811Y0095940D01*
X1263872Y0096089D01*
X1263935Y0096237D01*
X1264003Y0096383D01*
X1264074Y0096527D01*
X1264148Y0096669D01*
X1264226Y0096810D01*
X1264308Y0096948D01*
X1264393Y0097085D01*
X1264481Y0097219D01*
X1264573Y0097351D01*
X1264668Y0097481D01*
X1264766Y0097609D01*
X1264867Y0097734D01*
X1264971Y0097856D01*
X1265078Y0097976D01*
X1265188Y0098093D01*
X1265301Y0098208D01*
X1265417Y0098319D01*
X1265536Y0098428D01*
X1265657Y0098533D01*
X1265781Y0098636D01*
X1265907Y0098736D01*
X1266035Y0098832D01*
X1266166Y0098925D01*
X1266300Y0099015D01*
X1266435Y0099102D01*
X1266573Y0099185D01*
X1266712Y0099265D01*
X1266854Y0099341D01*
X1266997Y0099414D01*
X1267142Y0099483D01*
X1267289Y0099549D01*
X1267437Y0099611D01*
X1267587Y0099669D01*
X1267738Y0099724D01*
X1267891Y0099775D01*
X1268045Y0099822D01*
X1268200Y0099865D01*
X1268356Y0099904D01*
X1268512Y0099940D01*
X1268670Y0099971D01*
X1268828Y0099999D01*
X1268987Y0100023D01*
X1269147Y0100043D01*
X1269307Y0100059D01*
X1269467Y0100071D01*
X1269628Y0100079D01*
X1269789Y0100083D01*
X1269949Y0100083D01*
X1270110Y0100079D01*
X1270271Y0100071D01*
X1270431Y0100059D01*
X1270591Y0100043D01*
X1270751Y0100023D01*
X1270910Y0099999D01*
X1271068Y0099971D01*
X1271226Y0099940D01*
X1271382Y0099904D01*
X1271538Y0099865D01*
X1271693Y0099822D01*
X1271847Y0099775D01*
X1272000Y0099724D01*
X1272151Y0099669D01*
X1272301Y0099611D01*
X1272449Y0099549D01*
X1272596Y0099483D01*
X1272741Y0099414D01*
X1272884Y0099341D01*
X1273026Y0099265D01*
X1273165Y0099185D01*
X1273303Y0099102D01*
X1273438Y0099015D01*
X1273572Y0098925D01*
X1273703Y0098832D01*
X1273831Y0098736D01*
X1273957Y0098636D01*
X1274081Y0098533D01*
X1274202Y0098428D01*
X1274321Y0098319D01*
X1274437Y0098208D01*
X1274550Y0098093D01*
X1274660Y0097976D01*
X1274767Y0097856D01*
X1274871Y0097734D01*
X1274972Y0097609D01*
X1275070Y0097481D01*
X1275165Y0097351D01*
X1275257Y0097219D01*
X1275345Y0097085D01*
X1275430Y0096948D01*
X1275512Y0096810D01*
X1275590Y0096669D01*
X1275664Y0096527D01*
X1275735Y0096383D01*
X1275803Y0096237D01*
X1275866Y0096089D01*
X1275927Y0095940D01*
X1275983Y0095789D01*
X1276036Y0095637D01*
X1276085Y0095484D01*
X1276130Y0095330D01*
X1276171Y0095175D01*
X1276209Y0095018D01*
X1276242Y0094861D01*
X1276272Y0094703D01*
X1276298Y0094544D01*
X1276319Y0094385D01*
X1276337Y0094225D01*
X1276351Y0094065D01*
X1276361Y0093904D01*
X1276367Y0093744D01*
X1276369Y0093583D01*
X1276367Y0093422D01*
X1276361Y0093262D01*
X1276351Y0093101D01*
X1276337Y0092941D01*
X1276319Y0092781D01*
X1276298Y0092622D01*
X1276272Y0092463D01*
X1276242Y0092305D01*
X1276209Y0092148D01*
X1276171Y0091991D01*
X1276130Y0091836D01*
X1276085Y0091682D01*
X1276036Y0091529D01*
X1275983Y0091377D01*
X1275927Y0091226D01*
X1275866Y0091077D01*
X1275803Y0090929D01*
X1275735Y0090783D01*
X1275664Y0090639D01*
X1275590Y0090497D01*
X1275512Y0090356D01*
X1275430Y0090218D01*
X1275345Y0090081D01*
X1275257Y0089947D01*
X1275165Y0089815D01*
X1275070Y0089685D01*
X1274972Y0089557D01*
X1274871Y0089432D01*
X1274767Y0089310D01*
X1274660Y0089190D01*
X1274550Y0089073D01*
X1274437Y0088958D01*
X1274321Y0088847D01*
X1274202Y0088738D01*
X1274081Y0088633D01*
X1273957Y0088530D01*
X1273831Y0088430D01*
X1273703Y0088334D01*
X1273572Y0088241D01*
X1273438Y0088151D01*
X1273303Y0088064D01*
X1273165Y0087981D01*
X1273026Y0087901D01*
X1272884Y0087825D01*
X1272741Y0087752D01*
X1272596Y0087683D01*
X1272449Y0087617D01*
X1272301Y0087555D01*
X1272151Y0087497D01*
X1272000Y0087442D01*
X1271847Y0087391D01*
X1271693Y0087344D01*
X1271538Y0087301D01*
X1271382Y0087262D01*
X1271226Y0087226D01*
X1271068Y0087195D01*
X1270910Y0087167D01*
X1270751Y0087143D01*
X1270591Y0087123D01*
X1270431Y0087107D01*
X1270271Y0087095D01*
X1270110Y0087087D01*
X1269949Y0087083D01*
X1269789Y0087083D01*
X1269628Y0087087D01*
X1269467Y0087095D01*
X1269307Y0087107D01*
X1269147Y0087123D01*
X1268987Y0087143D01*
X1268828Y0087167D01*
X1268670Y0087195D01*
X1268512Y0087226D01*
X1268356Y0087262D01*
X1268200Y0087301D01*
X1268045Y0087344D01*
X1267891Y0087391D01*
X1267738Y0087442D01*
X1267587Y0087497D01*
X1267437Y0087555D01*
X1267289Y0087617D01*
X1267142Y0087683D01*
X1266997Y0087752D01*
X1266854Y0087825D01*
X1266712Y0087901D01*
X1266573Y0087981D01*
X1266435Y0088064D01*
X1266300Y0088151D01*
X1266166Y0088241D01*
X1266035Y0088334D01*
X1265907Y0088430D01*
X1265781Y0088530D01*
X1265657Y0088633D01*
X1265536Y0088738D01*
X1265417Y0088847D01*
X1265301Y0088958D01*
X1265188Y0089073D01*
X1265078Y0089190D01*
X1264971Y0089310D01*
X1264867Y0089432D01*
X1264766Y0089557D01*
X1264668Y0089685D01*
X1264573Y0089815D01*
X1264481Y0089947D01*
X1264393Y0090081D01*
X1264308Y0090218D01*
X1264226Y0090356D01*
X1264148Y0090497D01*
X1264074Y0090639D01*
X1264003Y0090783D01*
X1263935Y0090929D01*
X1263872Y0091077D01*
X1263811Y0091226D01*
X1263755Y0091377D01*
X1263702Y0091529D01*
X1263653Y0091682D01*
X1263608Y0091836D01*
X1263567Y0091991D01*
X1263529Y0092148D01*
X1263496Y0092305D01*
X1263466Y0092463D01*
X1263440Y0092622D01*
X1263419Y0092781D01*
X1263401Y0092941D01*
X1263387Y0093101D01*
X1263377Y0093262D01*
X1263371Y0093422D01*
X1263369Y0093583D01*
X1263369Y0813071D02*
X1263371Y0813232D01*
X1263377Y0813392D01*
X1263387Y0813553D01*
X1263401Y0813713D01*
X1263419Y0813873D01*
X1263440Y0814032D01*
X1263466Y0814191D01*
X1263496Y0814349D01*
X1263529Y0814506D01*
X1263567Y0814663D01*
X1263608Y0814818D01*
X1263653Y0814972D01*
X1263702Y0815125D01*
X1263755Y0815277D01*
X1263811Y0815428D01*
X1263872Y0815577D01*
X1263935Y0815725D01*
X1264003Y0815871D01*
X1264074Y0816015D01*
X1264148Y0816157D01*
X1264226Y0816298D01*
X1264308Y0816436D01*
X1264393Y0816573D01*
X1264481Y0816707D01*
X1264573Y0816839D01*
X1264668Y0816969D01*
X1264766Y0817097D01*
X1264867Y0817222D01*
X1264971Y0817344D01*
X1265078Y0817464D01*
X1265188Y0817581D01*
X1265301Y0817696D01*
X1265417Y0817807D01*
X1265536Y0817916D01*
X1265657Y0818021D01*
X1265781Y0818124D01*
X1265907Y0818224D01*
X1266035Y0818320D01*
X1266166Y0818413D01*
X1266300Y0818503D01*
X1266435Y0818590D01*
X1266573Y0818673D01*
X1266712Y0818753D01*
X1266854Y0818829D01*
X1266997Y0818902D01*
X1267142Y0818971D01*
X1267289Y0819037D01*
X1267437Y0819099D01*
X1267587Y0819157D01*
X1267738Y0819212D01*
X1267891Y0819263D01*
X1268045Y0819310D01*
X1268200Y0819353D01*
X1268356Y0819392D01*
X1268512Y0819428D01*
X1268670Y0819459D01*
X1268828Y0819487D01*
X1268987Y0819511D01*
X1269147Y0819531D01*
X1269307Y0819547D01*
X1269467Y0819559D01*
X1269628Y0819567D01*
X1269789Y0819571D01*
X1269949Y0819571D01*
X1270110Y0819567D01*
X1270271Y0819559D01*
X1270431Y0819547D01*
X1270591Y0819531D01*
X1270751Y0819511D01*
X1270910Y0819487D01*
X1271068Y0819459D01*
X1271226Y0819428D01*
X1271382Y0819392D01*
X1271538Y0819353D01*
X1271693Y0819310D01*
X1271847Y0819263D01*
X1272000Y0819212D01*
X1272151Y0819157D01*
X1272301Y0819099D01*
X1272449Y0819037D01*
X1272596Y0818971D01*
X1272741Y0818902D01*
X1272884Y0818829D01*
X1273026Y0818753D01*
X1273165Y0818673D01*
X1273303Y0818590D01*
X1273438Y0818503D01*
X1273572Y0818413D01*
X1273703Y0818320D01*
X1273831Y0818224D01*
X1273957Y0818124D01*
X1274081Y0818021D01*
X1274202Y0817916D01*
X1274321Y0817807D01*
X1274437Y0817696D01*
X1274550Y0817581D01*
X1274660Y0817464D01*
X1274767Y0817344D01*
X1274871Y0817222D01*
X1274972Y0817097D01*
X1275070Y0816969D01*
X1275165Y0816839D01*
X1275257Y0816707D01*
X1275345Y0816573D01*
X1275430Y0816436D01*
X1275512Y0816298D01*
X1275590Y0816157D01*
X1275664Y0816015D01*
X1275735Y0815871D01*
X1275803Y0815725D01*
X1275866Y0815577D01*
X1275927Y0815428D01*
X1275983Y0815277D01*
X1276036Y0815125D01*
X1276085Y0814972D01*
X1276130Y0814818D01*
X1276171Y0814663D01*
X1276209Y0814506D01*
X1276242Y0814349D01*
X1276272Y0814191D01*
X1276298Y0814032D01*
X1276319Y0813873D01*
X1276337Y0813713D01*
X1276351Y0813553D01*
X1276361Y0813392D01*
X1276367Y0813232D01*
X1276369Y0813071D01*
X1276367Y0812910D01*
X1276361Y0812750D01*
X1276351Y0812589D01*
X1276337Y0812429D01*
X1276319Y0812269D01*
X1276298Y0812110D01*
X1276272Y0811951D01*
X1276242Y0811793D01*
X1276209Y0811636D01*
X1276171Y0811479D01*
X1276130Y0811324D01*
X1276085Y0811170D01*
X1276036Y0811017D01*
X1275983Y0810865D01*
X1275927Y0810714D01*
X1275866Y0810565D01*
X1275803Y0810417D01*
X1275735Y0810271D01*
X1275664Y0810127D01*
X1275590Y0809985D01*
X1275512Y0809844D01*
X1275430Y0809706D01*
X1275345Y0809569D01*
X1275257Y0809435D01*
X1275165Y0809303D01*
X1275070Y0809173D01*
X1274972Y0809045D01*
X1274871Y0808920D01*
X1274767Y0808798D01*
X1274660Y0808678D01*
X1274550Y0808561D01*
X1274437Y0808446D01*
X1274321Y0808335D01*
X1274202Y0808226D01*
X1274081Y0808121D01*
X1273957Y0808018D01*
X1273831Y0807918D01*
X1273703Y0807822D01*
X1273572Y0807729D01*
X1273438Y0807639D01*
X1273303Y0807552D01*
X1273165Y0807469D01*
X1273026Y0807389D01*
X1272884Y0807313D01*
X1272741Y0807240D01*
X1272596Y0807171D01*
X1272449Y0807105D01*
X1272301Y0807043D01*
X1272151Y0806985D01*
X1272000Y0806930D01*
X1271847Y0806879D01*
X1271693Y0806832D01*
X1271538Y0806789D01*
X1271382Y0806750D01*
X1271226Y0806714D01*
X1271068Y0806683D01*
X1270910Y0806655D01*
X1270751Y0806631D01*
X1270591Y0806611D01*
X1270431Y0806595D01*
X1270271Y0806583D01*
X1270110Y0806575D01*
X1269949Y0806571D01*
X1269789Y0806571D01*
X1269628Y0806575D01*
X1269467Y0806583D01*
X1269307Y0806595D01*
X1269147Y0806611D01*
X1268987Y0806631D01*
X1268828Y0806655D01*
X1268670Y0806683D01*
X1268512Y0806714D01*
X1268356Y0806750D01*
X1268200Y0806789D01*
X1268045Y0806832D01*
X1267891Y0806879D01*
X1267738Y0806930D01*
X1267587Y0806985D01*
X1267437Y0807043D01*
X1267289Y0807105D01*
X1267142Y0807171D01*
X1266997Y0807240D01*
X1266854Y0807313D01*
X1266712Y0807389D01*
X1266573Y0807469D01*
X1266435Y0807552D01*
X1266300Y0807639D01*
X1266166Y0807729D01*
X1266035Y0807822D01*
X1265907Y0807918D01*
X1265781Y0808018D01*
X1265657Y0808121D01*
X1265536Y0808226D01*
X1265417Y0808335D01*
X1265301Y0808446D01*
X1265188Y0808561D01*
X1265078Y0808678D01*
X1264971Y0808798D01*
X1264867Y0808920D01*
X1264766Y0809045D01*
X1264668Y0809173D01*
X1264573Y0809303D01*
X1264481Y0809435D01*
X1264393Y0809569D01*
X1264308Y0809706D01*
X1264226Y0809844D01*
X1264148Y0809985D01*
X1264074Y0810127D01*
X1264003Y0810271D01*
X1263935Y0810417D01*
X1263872Y0810565D01*
X1263811Y0810714D01*
X1263755Y0810865D01*
X1263702Y0811017D01*
X1263653Y0811170D01*
X1263608Y0811324D01*
X1263567Y0811479D01*
X1263529Y0811636D01*
X1263496Y0811793D01*
X1263466Y0811951D01*
X1263440Y0812110D01*
X1263419Y0812269D01*
X1263401Y0812429D01*
X1263387Y0812589D01*
X1263377Y0812750D01*
X1263371Y0812910D01*
X1263369Y0813071D01*
X0639987Y0813071D02*
X0639989Y0813232D01*
X0639995Y0813392D01*
X0640005Y0813553D01*
X0640019Y0813713D01*
X0640037Y0813873D01*
X0640058Y0814032D01*
X0640084Y0814191D01*
X0640114Y0814349D01*
X0640147Y0814506D01*
X0640185Y0814663D01*
X0640226Y0814818D01*
X0640271Y0814972D01*
X0640320Y0815125D01*
X0640373Y0815277D01*
X0640429Y0815428D01*
X0640490Y0815577D01*
X0640553Y0815725D01*
X0640621Y0815871D01*
X0640692Y0816015D01*
X0640766Y0816157D01*
X0640844Y0816298D01*
X0640926Y0816436D01*
X0641011Y0816573D01*
X0641099Y0816707D01*
X0641191Y0816839D01*
X0641286Y0816969D01*
X0641384Y0817097D01*
X0641485Y0817222D01*
X0641589Y0817344D01*
X0641696Y0817464D01*
X0641806Y0817581D01*
X0641919Y0817696D01*
X0642035Y0817807D01*
X0642154Y0817916D01*
X0642275Y0818021D01*
X0642399Y0818124D01*
X0642525Y0818224D01*
X0642653Y0818320D01*
X0642784Y0818413D01*
X0642918Y0818503D01*
X0643053Y0818590D01*
X0643191Y0818673D01*
X0643330Y0818753D01*
X0643472Y0818829D01*
X0643615Y0818902D01*
X0643760Y0818971D01*
X0643907Y0819037D01*
X0644055Y0819099D01*
X0644205Y0819157D01*
X0644356Y0819212D01*
X0644509Y0819263D01*
X0644663Y0819310D01*
X0644818Y0819353D01*
X0644974Y0819392D01*
X0645130Y0819428D01*
X0645288Y0819459D01*
X0645446Y0819487D01*
X0645605Y0819511D01*
X0645765Y0819531D01*
X0645925Y0819547D01*
X0646085Y0819559D01*
X0646246Y0819567D01*
X0646407Y0819571D01*
X0646567Y0819571D01*
X0646728Y0819567D01*
X0646889Y0819559D01*
X0647049Y0819547D01*
X0647209Y0819531D01*
X0647369Y0819511D01*
X0647528Y0819487D01*
X0647686Y0819459D01*
X0647844Y0819428D01*
X0648000Y0819392D01*
X0648156Y0819353D01*
X0648311Y0819310D01*
X0648465Y0819263D01*
X0648618Y0819212D01*
X0648769Y0819157D01*
X0648919Y0819099D01*
X0649067Y0819037D01*
X0649214Y0818971D01*
X0649359Y0818902D01*
X0649502Y0818829D01*
X0649644Y0818753D01*
X0649783Y0818673D01*
X0649921Y0818590D01*
X0650056Y0818503D01*
X0650190Y0818413D01*
X0650321Y0818320D01*
X0650449Y0818224D01*
X0650575Y0818124D01*
X0650699Y0818021D01*
X0650820Y0817916D01*
X0650939Y0817807D01*
X0651055Y0817696D01*
X0651168Y0817581D01*
X0651278Y0817464D01*
X0651385Y0817344D01*
X0651489Y0817222D01*
X0651590Y0817097D01*
X0651688Y0816969D01*
X0651783Y0816839D01*
X0651875Y0816707D01*
X0651963Y0816573D01*
X0652048Y0816436D01*
X0652130Y0816298D01*
X0652208Y0816157D01*
X0652282Y0816015D01*
X0652353Y0815871D01*
X0652421Y0815725D01*
X0652484Y0815577D01*
X0652545Y0815428D01*
X0652601Y0815277D01*
X0652654Y0815125D01*
X0652703Y0814972D01*
X0652748Y0814818D01*
X0652789Y0814663D01*
X0652827Y0814506D01*
X0652860Y0814349D01*
X0652890Y0814191D01*
X0652916Y0814032D01*
X0652937Y0813873D01*
X0652955Y0813713D01*
X0652969Y0813553D01*
X0652979Y0813392D01*
X0652985Y0813232D01*
X0652987Y0813071D01*
X0652985Y0812910D01*
X0652979Y0812750D01*
X0652969Y0812589D01*
X0652955Y0812429D01*
X0652937Y0812269D01*
X0652916Y0812110D01*
X0652890Y0811951D01*
X0652860Y0811793D01*
X0652827Y0811636D01*
X0652789Y0811479D01*
X0652748Y0811324D01*
X0652703Y0811170D01*
X0652654Y0811017D01*
X0652601Y0810865D01*
X0652545Y0810714D01*
X0652484Y0810565D01*
X0652421Y0810417D01*
X0652353Y0810271D01*
X0652282Y0810127D01*
X0652208Y0809985D01*
X0652130Y0809844D01*
X0652048Y0809706D01*
X0651963Y0809569D01*
X0651875Y0809435D01*
X0651783Y0809303D01*
X0651688Y0809173D01*
X0651590Y0809045D01*
X0651489Y0808920D01*
X0651385Y0808798D01*
X0651278Y0808678D01*
X0651168Y0808561D01*
X0651055Y0808446D01*
X0650939Y0808335D01*
X0650820Y0808226D01*
X0650699Y0808121D01*
X0650575Y0808018D01*
X0650449Y0807918D01*
X0650321Y0807822D01*
X0650190Y0807729D01*
X0650056Y0807639D01*
X0649921Y0807552D01*
X0649783Y0807469D01*
X0649644Y0807389D01*
X0649502Y0807313D01*
X0649359Y0807240D01*
X0649214Y0807171D01*
X0649067Y0807105D01*
X0648919Y0807043D01*
X0648769Y0806985D01*
X0648618Y0806930D01*
X0648465Y0806879D01*
X0648311Y0806832D01*
X0648156Y0806789D01*
X0648000Y0806750D01*
X0647844Y0806714D01*
X0647686Y0806683D01*
X0647528Y0806655D01*
X0647369Y0806631D01*
X0647209Y0806611D01*
X0647049Y0806595D01*
X0646889Y0806583D01*
X0646728Y0806575D01*
X0646567Y0806571D01*
X0646407Y0806571D01*
X0646246Y0806575D01*
X0646085Y0806583D01*
X0645925Y0806595D01*
X0645765Y0806611D01*
X0645605Y0806631D01*
X0645446Y0806655D01*
X0645288Y0806683D01*
X0645130Y0806714D01*
X0644974Y0806750D01*
X0644818Y0806789D01*
X0644663Y0806832D01*
X0644509Y0806879D01*
X0644356Y0806930D01*
X0644205Y0806985D01*
X0644055Y0807043D01*
X0643907Y0807105D01*
X0643760Y0807171D01*
X0643615Y0807240D01*
X0643472Y0807313D01*
X0643330Y0807389D01*
X0643191Y0807469D01*
X0643053Y0807552D01*
X0642918Y0807639D01*
X0642784Y0807729D01*
X0642653Y0807822D01*
X0642525Y0807918D01*
X0642399Y0808018D01*
X0642275Y0808121D01*
X0642154Y0808226D01*
X0642035Y0808335D01*
X0641919Y0808446D01*
X0641806Y0808561D01*
X0641696Y0808678D01*
X0641589Y0808798D01*
X0641485Y0808920D01*
X0641384Y0809045D01*
X0641286Y0809173D01*
X0641191Y0809303D01*
X0641099Y0809435D01*
X0641011Y0809569D01*
X0640926Y0809706D01*
X0640844Y0809844D01*
X0640766Y0809985D01*
X0640692Y0810127D01*
X0640621Y0810271D01*
X0640553Y0810417D01*
X0640490Y0810565D01*
X0640429Y0810714D01*
X0640373Y0810865D01*
X0640320Y0811017D01*
X0640271Y0811170D01*
X0640226Y0811324D01*
X0640185Y0811479D01*
X0640147Y0811636D01*
X0640114Y0811793D01*
X0640084Y0811951D01*
X0640058Y0812110D01*
X0640037Y0812269D01*
X0640019Y0812429D01*
X0640005Y0812589D01*
X0639995Y0812750D01*
X0639989Y0812910D01*
X0639987Y0813071D01*
X0076361Y0813071D02*
X0076363Y0813232D01*
X0076369Y0813392D01*
X0076379Y0813553D01*
X0076393Y0813713D01*
X0076411Y0813873D01*
X0076432Y0814032D01*
X0076458Y0814191D01*
X0076488Y0814349D01*
X0076521Y0814506D01*
X0076559Y0814663D01*
X0076600Y0814818D01*
X0076645Y0814972D01*
X0076694Y0815125D01*
X0076747Y0815277D01*
X0076803Y0815428D01*
X0076864Y0815577D01*
X0076927Y0815725D01*
X0076995Y0815871D01*
X0077066Y0816015D01*
X0077140Y0816157D01*
X0077218Y0816298D01*
X0077300Y0816436D01*
X0077385Y0816573D01*
X0077473Y0816707D01*
X0077565Y0816839D01*
X0077660Y0816969D01*
X0077758Y0817097D01*
X0077859Y0817222D01*
X0077963Y0817344D01*
X0078070Y0817464D01*
X0078180Y0817581D01*
X0078293Y0817696D01*
X0078409Y0817807D01*
X0078528Y0817916D01*
X0078649Y0818021D01*
X0078773Y0818124D01*
X0078899Y0818224D01*
X0079027Y0818320D01*
X0079158Y0818413D01*
X0079292Y0818503D01*
X0079427Y0818590D01*
X0079565Y0818673D01*
X0079704Y0818753D01*
X0079846Y0818829D01*
X0079989Y0818902D01*
X0080134Y0818971D01*
X0080281Y0819037D01*
X0080429Y0819099D01*
X0080579Y0819157D01*
X0080730Y0819212D01*
X0080883Y0819263D01*
X0081037Y0819310D01*
X0081192Y0819353D01*
X0081348Y0819392D01*
X0081504Y0819428D01*
X0081662Y0819459D01*
X0081820Y0819487D01*
X0081979Y0819511D01*
X0082139Y0819531D01*
X0082299Y0819547D01*
X0082459Y0819559D01*
X0082620Y0819567D01*
X0082781Y0819571D01*
X0082941Y0819571D01*
X0083102Y0819567D01*
X0083263Y0819559D01*
X0083423Y0819547D01*
X0083583Y0819531D01*
X0083743Y0819511D01*
X0083902Y0819487D01*
X0084060Y0819459D01*
X0084218Y0819428D01*
X0084374Y0819392D01*
X0084530Y0819353D01*
X0084685Y0819310D01*
X0084839Y0819263D01*
X0084992Y0819212D01*
X0085143Y0819157D01*
X0085293Y0819099D01*
X0085441Y0819037D01*
X0085588Y0818971D01*
X0085733Y0818902D01*
X0085876Y0818829D01*
X0086018Y0818753D01*
X0086157Y0818673D01*
X0086295Y0818590D01*
X0086430Y0818503D01*
X0086564Y0818413D01*
X0086695Y0818320D01*
X0086823Y0818224D01*
X0086949Y0818124D01*
X0087073Y0818021D01*
X0087194Y0817916D01*
X0087313Y0817807D01*
X0087429Y0817696D01*
X0087542Y0817581D01*
X0087652Y0817464D01*
X0087759Y0817344D01*
X0087863Y0817222D01*
X0087964Y0817097D01*
X0088062Y0816969D01*
X0088157Y0816839D01*
X0088249Y0816707D01*
X0088337Y0816573D01*
X0088422Y0816436D01*
X0088504Y0816298D01*
X0088582Y0816157D01*
X0088656Y0816015D01*
X0088727Y0815871D01*
X0088795Y0815725D01*
X0088858Y0815577D01*
X0088919Y0815428D01*
X0088975Y0815277D01*
X0089028Y0815125D01*
X0089077Y0814972D01*
X0089122Y0814818D01*
X0089163Y0814663D01*
X0089201Y0814506D01*
X0089234Y0814349D01*
X0089264Y0814191D01*
X0089290Y0814032D01*
X0089311Y0813873D01*
X0089329Y0813713D01*
X0089343Y0813553D01*
X0089353Y0813392D01*
X0089359Y0813232D01*
X0089361Y0813071D01*
X0089359Y0812910D01*
X0089353Y0812750D01*
X0089343Y0812589D01*
X0089329Y0812429D01*
X0089311Y0812269D01*
X0089290Y0812110D01*
X0089264Y0811951D01*
X0089234Y0811793D01*
X0089201Y0811636D01*
X0089163Y0811479D01*
X0089122Y0811324D01*
X0089077Y0811170D01*
X0089028Y0811017D01*
X0088975Y0810865D01*
X0088919Y0810714D01*
X0088858Y0810565D01*
X0088795Y0810417D01*
X0088727Y0810271D01*
X0088656Y0810127D01*
X0088582Y0809985D01*
X0088504Y0809844D01*
X0088422Y0809706D01*
X0088337Y0809569D01*
X0088249Y0809435D01*
X0088157Y0809303D01*
X0088062Y0809173D01*
X0087964Y0809045D01*
X0087863Y0808920D01*
X0087759Y0808798D01*
X0087652Y0808678D01*
X0087542Y0808561D01*
X0087429Y0808446D01*
X0087313Y0808335D01*
X0087194Y0808226D01*
X0087073Y0808121D01*
X0086949Y0808018D01*
X0086823Y0807918D01*
X0086695Y0807822D01*
X0086564Y0807729D01*
X0086430Y0807639D01*
X0086295Y0807552D01*
X0086157Y0807469D01*
X0086018Y0807389D01*
X0085876Y0807313D01*
X0085733Y0807240D01*
X0085588Y0807171D01*
X0085441Y0807105D01*
X0085293Y0807043D01*
X0085143Y0806985D01*
X0084992Y0806930D01*
X0084839Y0806879D01*
X0084685Y0806832D01*
X0084530Y0806789D01*
X0084374Y0806750D01*
X0084218Y0806714D01*
X0084060Y0806683D01*
X0083902Y0806655D01*
X0083743Y0806631D01*
X0083583Y0806611D01*
X0083423Y0806595D01*
X0083263Y0806583D01*
X0083102Y0806575D01*
X0082941Y0806571D01*
X0082781Y0806571D01*
X0082620Y0806575D01*
X0082459Y0806583D01*
X0082299Y0806595D01*
X0082139Y0806611D01*
X0081979Y0806631D01*
X0081820Y0806655D01*
X0081662Y0806683D01*
X0081504Y0806714D01*
X0081348Y0806750D01*
X0081192Y0806789D01*
X0081037Y0806832D01*
X0080883Y0806879D01*
X0080730Y0806930D01*
X0080579Y0806985D01*
X0080429Y0807043D01*
X0080281Y0807105D01*
X0080134Y0807171D01*
X0079989Y0807240D01*
X0079846Y0807313D01*
X0079704Y0807389D01*
X0079565Y0807469D01*
X0079427Y0807552D01*
X0079292Y0807639D01*
X0079158Y0807729D01*
X0079027Y0807822D01*
X0078899Y0807918D01*
X0078773Y0808018D01*
X0078649Y0808121D01*
X0078528Y0808226D01*
X0078409Y0808335D01*
X0078293Y0808446D01*
X0078180Y0808561D01*
X0078070Y0808678D01*
X0077963Y0808798D01*
X0077859Y0808920D01*
X0077758Y0809045D01*
X0077660Y0809173D01*
X0077565Y0809303D01*
X0077473Y0809435D01*
X0077385Y0809569D01*
X0077300Y0809706D01*
X0077218Y0809844D01*
X0077140Y0809985D01*
X0077066Y0810127D01*
X0076995Y0810271D01*
X0076927Y0810417D01*
X0076864Y0810565D01*
X0076803Y0810714D01*
X0076747Y0810865D01*
X0076694Y0811017D01*
X0076645Y0811170D01*
X0076600Y0811324D01*
X0076559Y0811479D01*
X0076521Y0811636D01*
X0076488Y0811793D01*
X0076458Y0811951D01*
X0076432Y0812110D01*
X0076411Y0812269D01*
X0076393Y0812429D01*
X0076379Y0812589D01*
X0076369Y0812750D01*
X0076363Y0812910D01*
X0076361Y0813071D01*
D12*
X0044948Y0147429D02*
X0040617Y0147429D01*
X0040550Y0147427D01*
X0040482Y0147421D01*
X0040416Y0147412D01*
X0040350Y0147398D01*
X0040284Y0147381D01*
X0040220Y0147360D01*
X0040157Y0147336D01*
X0040096Y0147308D01*
X0040036Y0147276D01*
X0039979Y0147242D01*
X0039923Y0147203D01*
X0039869Y0147162D01*
X0039818Y0147118D01*
X0039770Y0147071D01*
X0039724Y0147021D01*
X0039682Y0146969D01*
X0039642Y0146915D01*
X0039606Y0146858D01*
X0039572Y0146799D01*
X0039543Y0146739D01*
X0039516Y0146676D01*
X0039494Y0146613D01*
X0039475Y0146548D01*
X0039460Y0146483D01*
X0039448Y0146416D01*
X0039440Y0146349D01*
X0039436Y0146282D01*
X0039436Y0146214D01*
X0039440Y0146147D01*
X0039448Y0146080D01*
X0039460Y0146013D01*
X0039475Y0145948D01*
X0039494Y0145883D01*
X0039516Y0145820D01*
X0039543Y0145757D01*
X0039572Y0145697D01*
X0039606Y0145638D01*
X0039642Y0145581D01*
X0039682Y0145527D01*
X0039724Y0145475D01*
X0039770Y0145425D01*
X0039818Y0145378D01*
X0039869Y0145334D01*
X0039923Y0145293D01*
X0039979Y0145254D01*
X0040036Y0145220D01*
X0040096Y0145188D01*
X0040157Y0145160D01*
X0040220Y0145136D01*
X0040284Y0145115D01*
X0040350Y0145098D01*
X0040416Y0145084D01*
X0040482Y0145075D01*
X0040550Y0145069D01*
X0040617Y0145067D01*
X0044948Y0145067D01*
X0045015Y0145069D01*
X0045083Y0145075D01*
X0045149Y0145084D01*
X0045215Y0145098D01*
X0045281Y0145115D01*
X0045345Y0145136D01*
X0045408Y0145160D01*
X0045469Y0145188D01*
X0045529Y0145220D01*
X0045586Y0145254D01*
X0045642Y0145293D01*
X0045696Y0145334D01*
X0045747Y0145378D01*
X0045795Y0145425D01*
X0045841Y0145475D01*
X0045883Y0145527D01*
X0045923Y0145581D01*
X0045959Y0145638D01*
X0045993Y0145697D01*
X0046022Y0145757D01*
X0046049Y0145820D01*
X0046071Y0145883D01*
X0046090Y0145948D01*
X0046105Y0146013D01*
X0046117Y0146080D01*
X0046125Y0146147D01*
X0046129Y0146214D01*
X0046129Y0146282D01*
X0046125Y0146349D01*
X0046117Y0146416D01*
X0046105Y0146483D01*
X0046090Y0146548D01*
X0046071Y0146613D01*
X0046049Y0146676D01*
X0046022Y0146739D01*
X0045993Y0146799D01*
X0045959Y0146858D01*
X0045923Y0146915D01*
X0045883Y0146969D01*
X0045841Y0147021D01*
X0045795Y0147071D01*
X0045747Y0147118D01*
X0045696Y0147162D01*
X0045642Y0147203D01*
X0045586Y0147242D01*
X0045529Y0147276D01*
X0045469Y0147308D01*
X0045408Y0147336D01*
X0045345Y0147360D01*
X0045281Y0147381D01*
X0045215Y0147398D01*
X0045149Y0147412D01*
X0045083Y0147421D01*
X0045015Y0147427D01*
X0044948Y0147429D01*
X0027566Y0147429D02*
X0025125Y0147429D01*
X0025058Y0147427D01*
X0024990Y0147421D01*
X0024924Y0147412D01*
X0024858Y0147398D01*
X0024792Y0147381D01*
X0024728Y0147360D01*
X0024665Y0147336D01*
X0024604Y0147308D01*
X0024544Y0147276D01*
X0024487Y0147242D01*
X0024431Y0147203D01*
X0024377Y0147162D01*
X0024326Y0147118D01*
X0024278Y0147071D01*
X0024232Y0147021D01*
X0024190Y0146969D01*
X0024150Y0146915D01*
X0024114Y0146858D01*
X0024080Y0146799D01*
X0024051Y0146739D01*
X0024024Y0146676D01*
X0024002Y0146613D01*
X0023983Y0146548D01*
X0023968Y0146483D01*
X0023956Y0146416D01*
X0023948Y0146349D01*
X0023944Y0146282D01*
X0023944Y0146214D01*
X0023948Y0146147D01*
X0023956Y0146080D01*
X0023968Y0146013D01*
X0023983Y0145948D01*
X0024002Y0145883D01*
X0024024Y0145820D01*
X0024051Y0145757D01*
X0024080Y0145697D01*
X0024114Y0145638D01*
X0024150Y0145581D01*
X0024190Y0145527D01*
X0024232Y0145475D01*
X0024278Y0145425D01*
X0024326Y0145378D01*
X0024377Y0145334D01*
X0024431Y0145293D01*
X0024487Y0145254D01*
X0024544Y0145220D01*
X0024604Y0145188D01*
X0024665Y0145160D01*
X0024728Y0145136D01*
X0024792Y0145115D01*
X0024858Y0145098D01*
X0024924Y0145084D01*
X0024990Y0145075D01*
X0025058Y0145069D01*
X0025125Y0145067D01*
X0027566Y0145067D01*
X0027633Y0145069D01*
X0027701Y0145075D01*
X0027767Y0145084D01*
X0027833Y0145098D01*
X0027899Y0145115D01*
X0027963Y0145136D01*
X0028026Y0145160D01*
X0028087Y0145188D01*
X0028147Y0145220D01*
X0028204Y0145254D01*
X0028260Y0145293D01*
X0028314Y0145334D01*
X0028365Y0145378D01*
X0028413Y0145425D01*
X0028459Y0145475D01*
X0028501Y0145527D01*
X0028541Y0145581D01*
X0028577Y0145638D01*
X0028611Y0145697D01*
X0028640Y0145757D01*
X0028667Y0145820D01*
X0028689Y0145883D01*
X0028708Y0145948D01*
X0028723Y0146013D01*
X0028735Y0146080D01*
X0028743Y0146147D01*
X0028747Y0146214D01*
X0028747Y0146282D01*
X0028743Y0146349D01*
X0028735Y0146416D01*
X0028723Y0146483D01*
X0028708Y0146548D01*
X0028689Y0146613D01*
X0028667Y0146676D01*
X0028640Y0146739D01*
X0028611Y0146799D01*
X0028577Y0146858D01*
X0028541Y0146915D01*
X0028501Y0146969D01*
X0028459Y0147021D01*
X0028413Y0147071D01*
X0028365Y0147118D01*
X0028314Y0147162D01*
X0028260Y0147203D01*
X0028204Y0147242D01*
X0028147Y0147276D01*
X0028087Y0147308D01*
X0028026Y0147336D01*
X0027963Y0147360D01*
X0027899Y0147381D01*
X0027833Y0147398D01*
X0027767Y0147412D01*
X0027701Y0147421D01*
X0027633Y0147427D01*
X0027566Y0147429D01*
X0027566Y0113413D02*
X0025125Y0113413D01*
X0025058Y0113411D01*
X0024990Y0113405D01*
X0024924Y0113396D01*
X0024858Y0113382D01*
X0024792Y0113365D01*
X0024728Y0113344D01*
X0024665Y0113320D01*
X0024604Y0113292D01*
X0024544Y0113260D01*
X0024487Y0113226D01*
X0024431Y0113187D01*
X0024377Y0113146D01*
X0024326Y0113102D01*
X0024278Y0113055D01*
X0024232Y0113005D01*
X0024190Y0112953D01*
X0024150Y0112899D01*
X0024114Y0112842D01*
X0024080Y0112783D01*
X0024051Y0112723D01*
X0024024Y0112660D01*
X0024002Y0112597D01*
X0023983Y0112532D01*
X0023968Y0112467D01*
X0023956Y0112400D01*
X0023948Y0112333D01*
X0023944Y0112266D01*
X0023944Y0112198D01*
X0023948Y0112131D01*
X0023956Y0112064D01*
X0023968Y0111997D01*
X0023983Y0111932D01*
X0024002Y0111867D01*
X0024024Y0111804D01*
X0024051Y0111741D01*
X0024080Y0111681D01*
X0024114Y0111622D01*
X0024150Y0111565D01*
X0024190Y0111511D01*
X0024232Y0111459D01*
X0024278Y0111409D01*
X0024326Y0111362D01*
X0024377Y0111318D01*
X0024431Y0111277D01*
X0024487Y0111238D01*
X0024544Y0111204D01*
X0024604Y0111172D01*
X0024665Y0111144D01*
X0024728Y0111120D01*
X0024792Y0111099D01*
X0024858Y0111082D01*
X0024924Y0111068D01*
X0024990Y0111059D01*
X0025058Y0111053D01*
X0025125Y0111051D01*
X0027566Y0111051D01*
X0027633Y0111053D01*
X0027701Y0111059D01*
X0027767Y0111068D01*
X0027833Y0111082D01*
X0027899Y0111099D01*
X0027963Y0111120D01*
X0028026Y0111144D01*
X0028087Y0111172D01*
X0028147Y0111204D01*
X0028204Y0111238D01*
X0028260Y0111277D01*
X0028314Y0111318D01*
X0028365Y0111362D01*
X0028413Y0111409D01*
X0028459Y0111459D01*
X0028501Y0111511D01*
X0028541Y0111565D01*
X0028577Y0111622D01*
X0028611Y0111681D01*
X0028640Y0111741D01*
X0028667Y0111804D01*
X0028689Y0111867D01*
X0028708Y0111932D01*
X0028723Y0111997D01*
X0028735Y0112064D01*
X0028743Y0112131D01*
X0028747Y0112198D01*
X0028747Y0112266D01*
X0028743Y0112333D01*
X0028735Y0112400D01*
X0028723Y0112467D01*
X0028708Y0112532D01*
X0028689Y0112597D01*
X0028667Y0112660D01*
X0028640Y0112723D01*
X0028611Y0112783D01*
X0028577Y0112842D01*
X0028541Y0112899D01*
X0028501Y0112953D01*
X0028459Y0113005D01*
X0028413Y0113055D01*
X0028365Y0113102D01*
X0028314Y0113146D01*
X0028260Y0113187D01*
X0028204Y0113226D01*
X0028147Y0113260D01*
X0028087Y0113292D01*
X0028026Y0113320D01*
X0027963Y0113344D01*
X0027899Y0113365D01*
X0027833Y0113382D01*
X0027767Y0113396D01*
X0027701Y0113405D01*
X0027633Y0113411D01*
X0027566Y0113413D01*
X0040617Y0113413D02*
X0044948Y0113413D01*
X0045015Y0113411D01*
X0045083Y0113405D01*
X0045149Y0113396D01*
X0045215Y0113382D01*
X0045281Y0113365D01*
X0045345Y0113344D01*
X0045408Y0113320D01*
X0045469Y0113292D01*
X0045529Y0113260D01*
X0045586Y0113226D01*
X0045642Y0113187D01*
X0045696Y0113146D01*
X0045747Y0113102D01*
X0045795Y0113055D01*
X0045841Y0113005D01*
X0045883Y0112953D01*
X0045923Y0112899D01*
X0045959Y0112842D01*
X0045993Y0112783D01*
X0046022Y0112723D01*
X0046049Y0112660D01*
X0046071Y0112597D01*
X0046090Y0112532D01*
X0046105Y0112467D01*
X0046117Y0112400D01*
X0046125Y0112333D01*
X0046129Y0112266D01*
X0046129Y0112198D01*
X0046125Y0112131D01*
X0046117Y0112064D01*
X0046105Y0111997D01*
X0046090Y0111932D01*
X0046071Y0111867D01*
X0046049Y0111804D01*
X0046022Y0111741D01*
X0045993Y0111681D01*
X0045959Y0111622D01*
X0045923Y0111565D01*
X0045883Y0111511D01*
X0045841Y0111459D01*
X0045795Y0111409D01*
X0045747Y0111362D01*
X0045696Y0111318D01*
X0045642Y0111277D01*
X0045586Y0111238D01*
X0045529Y0111204D01*
X0045469Y0111172D01*
X0045408Y0111144D01*
X0045345Y0111120D01*
X0045281Y0111099D01*
X0045215Y0111082D01*
X0045149Y0111068D01*
X0045083Y0111059D01*
X0045015Y0111053D01*
X0044948Y0111051D01*
X0040617Y0111051D01*
X0040550Y0111053D01*
X0040482Y0111059D01*
X0040416Y0111068D01*
X0040350Y0111082D01*
X0040284Y0111099D01*
X0040220Y0111120D01*
X0040157Y0111144D01*
X0040096Y0111172D01*
X0040036Y0111204D01*
X0039979Y0111238D01*
X0039923Y0111277D01*
X0039869Y0111318D01*
X0039818Y0111362D01*
X0039770Y0111409D01*
X0039724Y0111459D01*
X0039682Y0111511D01*
X0039642Y0111565D01*
X0039606Y0111622D01*
X0039572Y0111681D01*
X0039543Y0111741D01*
X0039516Y0111804D01*
X0039494Y0111867D01*
X0039475Y0111932D01*
X0039460Y0111997D01*
X0039448Y0112064D01*
X0039440Y0112131D01*
X0039436Y0112198D01*
X0039436Y0112266D01*
X0039440Y0112333D01*
X0039448Y0112400D01*
X0039460Y0112467D01*
X0039475Y0112532D01*
X0039494Y0112597D01*
X0039516Y0112660D01*
X0039543Y0112723D01*
X0039572Y0112783D01*
X0039606Y0112842D01*
X0039642Y0112899D01*
X0039682Y0112953D01*
X0039724Y0113005D01*
X0039770Y0113055D01*
X0039818Y0113102D01*
X0039869Y0113146D01*
X0039923Y0113187D01*
X0039979Y0113226D01*
X0040036Y0113260D01*
X0040096Y0113292D01*
X0040157Y0113320D01*
X0040220Y0113344D01*
X0040284Y0113365D01*
X0040350Y0113382D01*
X0040416Y0113396D01*
X0040482Y0113405D01*
X0040550Y0113411D01*
X0040617Y0113413D01*
M02*
