G75*
%MOIN*%
%OFA0B0*%
%FSLAX25Y25*%
%IPPOS*%
%LPD*%
%AMOC8*
5,1,8,0,0,1.08239X$1,22.5*
%
%ADD10R,0.05131X0.04737*%
%ADD11C,0.03300*%
%ADD12R,0.01981X0.03398*%
%ADD13R,0.04737X0.05131*%
%ADD14R,0.04343X0.04737*%
%ADD15R,0.04343X0.06706*%
%ADD16R,0.06706X0.04343*%
%ADD17R,0.24422X0.24422*%
%ADD18R,0.02965X0.05524*%
%ADD19R,0.01981X0.04146*%
%ADD20R,0.04146X0.01981*%
%ADD21R,0.10839X0.10839*%
%ADD22C,0.13800*%
%ADD23R,0.04800X0.01981*%
%ADD24R,0.04800X0.03162*%
%ADD25R,0.04800X0.02965*%
%ADD26C,0.03359*%
%ADD27C,0.00039*%
%ADD28R,0.05524X0.10643*%
%ADD29C,0.05524*%
%ADD30C,0.01969*%
%ADD31C,0.03556*%
%ADD32C,0.04343*%
%ADD33C,0.08200*%
%ADD34R,0.07300X0.04737*%
%ADD35R,0.03300X0.05800*%
D10*
X0054908Y0068976D03*
X0061601Y0068976D03*
X0046837Y0083740D03*
X0040144Y0083740D03*
X0055774Y0096555D03*
X0062467Y0096555D03*
X0062467Y0103622D03*
X0055774Y0103622D03*
X0055538Y0123740D03*
X0062231Y0123740D03*
X0062231Y0133740D03*
X0055538Y0133740D03*
X0080538Y0173583D03*
X0087231Y0173583D03*
X0087231Y0181083D03*
X0080538Y0181083D03*
X0080538Y0188583D03*
X0087231Y0188583D03*
X0087231Y0196083D03*
X0080538Y0196083D03*
X0080538Y0203583D03*
X0087231Y0203583D03*
X0087231Y0211083D03*
X0080538Y0211083D03*
X0169987Y0091555D03*
X0176680Y0091555D03*
X0176680Y0071555D03*
X0169987Y0071555D03*
X0145302Y0071102D03*
X0138609Y0071102D03*
X0138487Y0079815D03*
X0131794Y0079815D03*
X0328058Y0097835D03*
X0334751Y0097835D03*
X0338058Y0105335D03*
X0344751Y0105335D03*
X0344751Y0112835D03*
X0338058Y0112835D03*
X0338058Y0120335D03*
X0344751Y0120335D03*
X0344751Y0145335D03*
X0338058Y0145335D03*
D11*
X0023806Y0073898D03*
X0068097Y0231378D03*
X1288570Y0831772D03*
D12*
X0175892Y0085177D03*
X0173333Y0085177D03*
X0170774Y0085177D03*
X0170774Y0077933D03*
X0173333Y0077933D03*
X0175892Y0077933D03*
D13*
X0163333Y0078209D03*
X0163333Y0084902D03*
X0073885Y0177736D03*
X0073885Y0184429D03*
X0073885Y0200236D03*
X0073885Y0206929D03*
X0318904Y0131181D03*
X0318904Y0124488D03*
X0326404Y0124488D03*
X0326404Y0131181D03*
D14*
X0201404Y0092205D03*
X0201404Y0085906D03*
X0201404Y0077205D03*
X0201404Y0070906D03*
X0185262Y0070906D03*
X0185262Y0077205D03*
X0185262Y0085906D03*
X0185262Y0092205D03*
D15*
X0213648Y0071622D03*
X0218648Y0071622D03*
X0223648Y0071622D03*
X0228648Y0071622D03*
X0233648Y0071622D03*
X0238648Y0071622D03*
X0243648Y0071622D03*
X0248648Y0071622D03*
X0253648Y0071622D03*
X0258648Y0071622D03*
X0263648Y0071622D03*
X0268648Y0071622D03*
X0273648Y0071622D03*
X0278648Y0071622D03*
X0278648Y0136488D03*
X0273648Y0136488D03*
X0268648Y0136488D03*
X0263648Y0136488D03*
X0258648Y0136488D03*
X0253648Y0136488D03*
X0248648Y0136488D03*
X0243648Y0136488D03*
X0238648Y0136488D03*
X0233648Y0136488D03*
X0228648Y0136488D03*
X0223648Y0136488D03*
X0218648Y0136488D03*
X0213648Y0136488D03*
D16*
X0207782Y0126555D03*
X0207782Y0121555D03*
X0207782Y0116555D03*
X0207782Y0111555D03*
X0207782Y0106555D03*
X0207782Y0101555D03*
X0207782Y0096555D03*
X0207782Y0091555D03*
X0207782Y0086555D03*
X0207782Y0081555D03*
D17*
X0248333Y0104055D03*
D18*
X0337664Y0127716D03*
X0341404Y0127716D03*
X0345144Y0127716D03*
X0345144Y0137953D03*
X0337664Y0137953D03*
X0062861Y0089174D03*
X0055381Y0089174D03*
X0055381Y0078937D03*
X0059121Y0078937D03*
X0062861Y0078937D03*
D19*
X0143412Y0080984D03*
X0145381Y0080984D03*
X0147349Y0080984D03*
X0149318Y0080984D03*
X0151286Y0080984D03*
X0153255Y0080984D03*
X0153255Y0097126D03*
X0151286Y0097126D03*
X0149318Y0097126D03*
X0147349Y0097126D03*
X0145381Y0097126D03*
X0143412Y0097126D03*
D20*
X0140262Y0093976D03*
X0140262Y0092008D03*
X0140262Y0090039D03*
X0140262Y0088071D03*
X0140262Y0086102D03*
X0140262Y0084134D03*
X0156404Y0084134D03*
X0156404Y0086102D03*
X0156404Y0088071D03*
X0156404Y0090039D03*
X0156404Y0092008D03*
X0156404Y0093976D03*
D21*
X0148333Y0089055D03*
D22*
X0082861Y0093583D03*
X0706243Y0093583D03*
X1269869Y0093583D03*
X1269869Y0813071D03*
X0646487Y0813071D03*
X0082861Y0813071D03*
D23*
X0046991Y0136130D03*
X0046991Y0134161D03*
X0046991Y0132193D03*
X0046991Y0130224D03*
X0046991Y0128256D03*
X0046991Y0126287D03*
X0046991Y0124319D03*
X0046991Y0122350D03*
D24*
X0046991Y0116543D03*
X0046991Y0141937D03*
D25*
X0046991Y0138886D03*
X0046991Y0119594D03*
D26*
X0040696Y0117862D03*
X0040696Y0140618D03*
D27*
X0040400Y0143886D02*
X0039901Y0143966D01*
X0039433Y0144156D01*
X0039019Y0144445D01*
X0038679Y0144819D01*
X0038431Y0145259D01*
X0038287Y0145744D01*
X0038255Y0146248D01*
X0038287Y0146752D01*
X0038431Y0147237D01*
X0038679Y0147677D01*
X0039019Y0148051D01*
X0039433Y0148340D01*
X0039901Y0148530D01*
X0040400Y0148610D01*
X0045125Y0148610D01*
X0045567Y0148549D01*
X0045988Y0148403D01*
X0046373Y0148178D01*
X0046706Y0147882D01*
X0046976Y0147526D01*
X0047171Y0147125D01*
X0047283Y0146693D01*
X0047310Y0146248D01*
X0047283Y0145803D01*
X0038283Y0145803D01*
X0038286Y0145765D02*
X0047274Y0145765D01*
X0047283Y0145803D02*
X0047171Y0145371D01*
X0046976Y0144970D01*
X0046706Y0144614D01*
X0046373Y0144318D01*
X0045988Y0144093D01*
X0045567Y0143947D01*
X0040022Y0143947D01*
X0039856Y0143985D02*
X0045676Y0143985D01*
X0045567Y0143947D02*
X0045125Y0143886D01*
X0040400Y0143886D01*
X0040256Y0143909D02*
X0045293Y0143909D01*
X0045786Y0144023D02*
X0039762Y0144023D01*
X0039669Y0144061D02*
X0045895Y0144061D01*
X0045998Y0144099D02*
X0039575Y0144099D01*
X0039482Y0144136D02*
X0046062Y0144136D01*
X0046127Y0144174D02*
X0039407Y0144174D01*
X0039353Y0144212D02*
X0046192Y0144212D01*
X0046256Y0144250D02*
X0039298Y0144250D01*
X0039244Y0144288D02*
X0046321Y0144288D01*
X0046381Y0144326D02*
X0039190Y0144326D01*
X0039135Y0144364D02*
X0046424Y0144364D01*
X0046467Y0144402D02*
X0039081Y0144402D01*
X0039027Y0144439D02*
X0046509Y0144439D01*
X0046552Y0144477D02*
X0038989Y0144477D01*
X0038955Y0144515D02*
X0046595Y0144515D01*
X0046637Y0144553D02*
X0038920Y0144553D01*
X0038886Y0144591D02*
X0046680Y0144591D01*
X0046717Y0144629D02*
X0038852Y0144629D01*
X0038817Y0144667D02*
X0046746Y0144667D01*
X0046775Y0144705D02*
X0038783Y0144705D01*
X0038748Y0144742D02*
X0046803Y0144742D01*
X0046832Y0144780D02*
X0038714Y0144780D01*
X0038680Y0144818D02*
X0046861Y0144818D01*
X0046890Y0144856D02*
X0038658Y0144856D01*
X0038637Y0144894D02*
X0046918Y0144894D01*
X0046947Y0144932D02*
X0038615Y0144932D01*
X0038594Y0144970D02*
X0046976Y0144970D01*
X0046994Y0145008D02*
X0038573Y0145008D01*
X0038551Y0145046D02*
X0047012Y0145046D01*
X0047031Y0145083D02*
X0038530Y0145083D01*
X0038509Y0145121D02*
X0047049Y0145121D01*
X0047068Y0145159D02*
X0038487Y0145159D01*
X0038466Y0145197D02*
X0047086Y0145197D01*
X0047104Y0145235D02*
X0038445Y0145235D01*
X0038427Y0145273D02*
X0047123Y0145273D01*
X0047141Y0145311D02*
X0038416Y0145311D01*
X0038404Y0145349D02*
X0047160Y0145349D01*
X0047175Y0145386D02*
X0038393Y0145386D01*
X0038382Y0145424D02*
X0047184Y0145424D01*
X0047194Y0145462D02*
X0038371Y0145462D01*
X0038359Y0145500D02*
X0047204Y0145500D01*
X0047214Y0145538D02*
X0038348Y0145538D01*
X0038337Y0145576D02*
X0047224Y0145576D01*
X0047234Y0145614D02*
X0038326Y0145614D01*
X0038314Y0145652D02*
X0047244Y0145652D01*
X0047254Y0145690D02*
X0038303Y0145690D01*
X0038292Y0145727D02*
X0047264Y0145727D01*
X0047286Y0145841D02*
X0038281Y0145841D01*
X0038278Y0145879D02*
X0047288Y0145879D01*
X0047290Y0145917D02*
X0038276Y0145917D01*
X0038273Y0145955D02*
X0047292Y0145955D01*
X0047295Y0145993D02*
X0038271Y0145993D01*
X0038269Y0146030D02*
X0047297Y0146030D01*
X0047299Y0146068D02*
X0038266Y0146068D01*
X0038264Y0146106D02*
X0047301Y0146106D01*
X0047304Y0146144D02*
X0038261Y0146144D01*
X0038259Y0146182D02*
X0047306Y0146182D01*
X0047308Y0146220D02*
X0038256Y0146220D01*
X0038255Y0146258D02*
X0047309Y0146258D01*
X0047307Y0146296D02*
X0038258Y0146296D01*
X0038260Y0146334D02*
X0047305Y0146334D01*
X0047302Y0146371D02*
X0038263Y0146371D01*
X0038265Y0146409D02*
X0047300Y0146409D01*
X0047298Y0146447D02*
X0038267Y0146447D01*
X0038270Y0146485D02*
X0047296Y0146485D01*
X0047293Y0146523D02*
X0038272Y0146523D01*
X0038275Y0146561D02*
X0047291Y0146561D01*
X0047289Y0146599D02*
X0038277Y0146599D01*
X0038280Y0146637D02*
X0047287Y0146637D01*
X0047284Y0146674D02*
X0038282Y0146674D01*
X0038284Y0146712D02*
X0047278Y0146712D01*
X0047268Y0146750D02*
X0038287Y0146750D01*
X0038298Y0146788D02*
X0047259Y0146788D01*
X0047249Y0146826D02*
X0038309Y0146826D01*
X0038320Y0146864D02*
X0047239Y0146864D01*
X0047229Y0146902D02*
X0038331Y0146902D01*
X0038343Y0146940D02*
X0047219Y0146940D01*
X0047209Y0146977D02*
X0038354Y0146977D01*
X0038365Y0147015D02*
X0047199Y0147015D01*
X0047189Y0147053D02*
X0038376Y0147053D01*
X0038388Y0147091D02*
X0047179Y0147091D01*
X0047169Y0147129D02*
X0038399Y0147129D01*
X0038410Y0147167D02*
X0047150Y0147167D01*
X0047132Y0147205D02*
X0038421Y0147205D01*
X0038434Y0147243D02*
X0047113Y0147243D01*
X0047095Y0147281D02*
X0038456Y0147281D01*
X0038477Y0147318D02*
X0047077Y0147318D01*
X0047058Y0147356D02*
X0038498Y0147356D01*
X0038520Y0147394D02*
X0047040Y0147394D01*
X0047021Y0147432D02*
X0038541Y0147432D01*
X0038562Y0147470D02*
X0047003Y0147470D01*
X0046985Y0147508D02*
X0038584Y0147508D01*
X0038605Y0147546D02*
X0046961Y0147546D01*
X0046932Y0147584D02*
X0038626Y0147584D01*
X0038648Y0147621D02*
X0046904Y0147621D01*
X0046875Y0147659D02*
X0038669Y0147659D01*
X0038697Y0147697D02*
X0046846Y0147697D01*
X0046817Y0147735D02*
X0038732Y0147735D01*
X0038766Y0147773D02*
X0046789Y0147773D01*
X0046760Y0147811D02*
X0038800Y0147811D01*
X0038835Y0147849D02*
X0046731Y0147849D01*
X0046701Y0147887D02*
X0038869Y0147887D01*
X0038904Y0147925D02*
X0046658Y0147925D01*
X0046615Y0147962D02*
X0038938Y0147962D01*
X0038973Y0148000D02*
X0046573Y0148000D01*
X0046530Y0148038D02*
X0039007Y0148038D01*
X0039055Y0148076D02*
X0046488Y0148076D01*
X0046445Y0148114D02*
X0039109Y0148114D01*
X0039163Y0148152D02*
X0046402Y0148152D01*
X0046353Y0148190D02*
X0039217Y0148190D01*
X0039272Y0148228D02*
X0046288Y0148228D01*
X0046223Y0148265D02*
X0039326Y0148265D01*
X0039380Y0148303D02*
X0046159Y0148303D01*
X0046094Y0148341D02*
X0039436Y0148341D01*
X0039530Y0148379D02*
X0046029Y0148379D01*
X0045948Y0148417D02*
X0039623Y0148417D01*
X0039717Y0148455D02*
X0045839Y0148455D01*
X0045730Y0148493D02*
X0039810Y0148493D01*
X0039908Y0148531D02*
X0045620Y0148531D01*
X0045427Y0148569D02*
X0040142Y0148569D01*
X0040376Y0148606D02*
X0045152Y0148606D01*
X0029807Y0146776D02*
X0029869Y0146248D01*
X0029821Y0145785D01*
X0029684Y0145341D01*
X0029464Y0144932D01*
X0023179Y0144932D01*
X0023173Y0144939D02*
X0022957Y0145347D01*
X0022825Y0145789D01*
X0022782Y0146248D01*
X0022839Y0146772D01*
X0023011Y0147270D01*
X0023289Y0147717D01*
X0023660Y0148091D01*
X0024105Y0148373D01*
X0024601Y0148549D01*
X0025125Y0148610D01*
X0027487Y0148610D01*
X0028015Y0148553D01*
X0028517Y0148380D01*
X0028968Y0148099D01*
X0029345Y0147725D01*
X0029630Y0147276D01*
X0029807Y0146776D01*
X0029803Y0146788D02*
X0022845Y0146788D01*
X0022837Y0146750D02*
X0029810Y0146750D01*
X0029814Y0146712D02*
X0022832Y0146712D01*
X0022828Y0146674D02*
X0029819Y0146674D01*
X0029823Y0146637D02*
X0022824Y0146637D01*
X0022820Y0146599D02*
X0029828Y0146599D01*
X0029832Y0146561D02*
X0022816Y0146561D01*
X0022812Y0146523D02*
X0029837Y0146523D01*
X0029841Y0146485D02*
X0022808Y0146485D01*
X0022804Y0146447D02*
X0029845Y0146447D01*
X0029850Y0146409D02*
X0022800Y0146409D01*
X0022796Y0146371D02*
X0029854Y0146371D01*
X0029859Y0146334D02*
X0022791Y0146334D01*
X0022787Y0146296D02*
X0029863Y0146296D01*
X0029868Y0146258D02*
X0022783Y0146258D01*
X0022785Y0146220D02*
X0029866Y0146220D01*
X0029862Y0146182D02*
X0022788Y0146182D01*
X0022792Y0146144D02*
X0029858Y0146144D01*
X0029854Y0146106D02*
X0022796Y0146106D01*
X0022799Y0146068D02*
X0029850Y0146068D01*
X0029846Y0146030D02*
X0022803Y0146030D01*
X0022806Y0145993D02*
X0029843Y0145993D01*
X0029839Y0145955D02*
X0022810Y0145955D01*
X0022813Y0145917D02*
X0029835Y0145917D01*
X0029831Y0145879D02*
X0022817Y0145879D01*
X0022821Y0145841D02*
X0029827Y0145841D01*
X0029823Y0145803D02*
X0022824Y0145803D01*
X0022832Y0145765D02*
X0029815Y0145765D01*
X0029803Y0145727D02*
X0022844Y0145727D01*
X0022855Y0145690D02*
X0029792Y0145690D01*
X0029780Y0145652D02*
X0022866Y0145652D01*
X0022878Y0145614D02*
X0029768Y0145614D01*
X0029757Y0145576D02*
X0022889Y0145576D01*
X0022900Y0145538D02*
X0029745Y0145538D01*
X0029733Y0145500D02*
X0022912Y0145500D01*
X0022923Y0145462D02*
X0029722Y0145462D01*
X0029710Y0145424D02*
X0022934Y0145424D01*
X0022946Y0145386D02*
X0029698Y0145386D01*
X0029687Y0145349D02*
X0022957Y0145349D01*
X0022977Y0145311D02*
X0029668Y0145311D01*
X0029648Y0145273D02*
X0022997Y0145273D01*
X0023017Y0145235D02*
X0029627Y0145235D01*
X0029607Y0145197D02*
X0023037Y0145197D01*
X0023057Y0145159D02*
X0029586Y0145159D01*
X0029566Y0145121D02*
X0023077Y0145121D01*
X0023097Y0145083D02*
X0029545Y0145083D01*
X0029525Y0145046D02*
X0023117Y0145046D01*
X0023137Y0145008D02*
X0029504Y0145008D01*
X0029484Y0144970D02*
X0023157Y0144970D01*
X0023173Y0144939D02*
X0023464Y0144582D01*
X0023819Y0144288D01*
X0028816Y0144288D01*
X0028806Y0144280D02*
X0028395Y0144063D01*
X0027950Y0143929D01*
X0027487Y0143886D01*
X0025125Y0143886D01*
X0024666Y0143933D01*
X0024225Y0144069D01*
X0023819Y0144288D01*
X0023773Y0144326D02*
X0028863Y0144326D01*
X0028909Y0144364D02*
X0023728Y0144364D01*
X0023682Y0144402D02*
X0028956Y0144402D01*
X0029002Y0144439D02*
X0023636Y0144439D01*
X0023590Y0144477D02*
X0029049Y0144477D01*
X0029095Y0144515D02*
X0023545Y0144515D01*
X0023499Y0144553D02*
X0029142Y0144553D01*
X0029167Y0144574D02*
X0028806Y0144280D01*
X0028750Y0144250D02*
X0023889Y0144250D01*
X0023959Y0144212D02*
X0028678Y0144212D01*
X0028606Y0144174D02*
X0024030Y0144174D01*
X0024100Y0144136D02*
X0028535Y0144136D01*
X0028463Y0144099D02*
X0024170Y0144099D01*
X0024251Y0144061D02*
X0028389Y0144061D01*
X0028262Y0144023D02*
X0024374Y0144023D01*
X0024497Y0143985D02*
X0028135Y0143985D01*
X0028008Y0143947D02*
X0024620Y0143947D01*
X0024898Y0143909D02*
X0027734Y0143909D01*
X0029167Y0144574D02*
X0029464Y0144932D01*
X0029432Y0144894D02*
X0023210Y0144894D01*
X0023241Y0144856D02*
X0029401Y0144856D01*
X0029370Y0144818D02*
X0023272Y0144818D01*
X0023303Y0144780D02*
X0029338Y0144780D01*
X0029307Y0144742D02*
X0023333Y0144742D01*
X0023364Y0144705D02*
X0029275Y0144705D01*
X0029244Y0144667D02*
X0023395Y0144667D01*
X0023426Y0144629D02*
X0029213Y0144629D01*
X0029181Y0144591D02*
X0023457Y0144591D01*
X0022858Y0146826D02*
X0029789Y0146826D01*
X0029776Y0146864D02*
X0022871Y0146864D01*
X0022884Y0146902D02*
X0029762Y0146902D01*
X0029749Y0146940D02*
X0022897Y0146940D01*
X0022910Y0146977D02*
X0029736Y0146977D01*
X0029722Y0147015D02*
X0022923Y0147015D01*
X0022936Y0147053D02*
X0029709Y0147053D01*
X0029695Y0147091D02*
X0022949Y0147091D01*
X0022962Y0147129D02*
X0029682Y0147129D01*
X0029668Y0147167D02*
X0022975Y0147167D01*
X0022988Y0147205D02*
X0029655Y0147205D01*
X0029641Y0147243D02*
X0023002Y0147243D01*
X0023018Y0147281D02*
X0029627Y0147281D01*
X0029603Y0147318D02*
X0023041Y0147318D01*
X0023065Y0147356D02*
X0029579Y0147356D01*
X0029555Y0147394D02*
X0023088Y0147394D01*
X0023112Y0147432D02*
X0029531Y0147432D01*
X0029507Y0147470D02*
X0023136Y0147470D01*
X0023159Y0147508D02*
X0029483Y0147508D01*
X0029459Y0147546D02*
X0023183Y0147546D01*
X0023206Y0147584D02*
X0029435Y0147584D01*
X0029411Y0147621D02*
X0023230Y0147621D01*
X0023253Y0147659D02*
X0029387Y0147659D01*
X0029363Y0147697D02*
X0023277Y0147697D01*
X0023307Y0147735D02*
X0029335Y0147735D01*
X0029297Y0147773D02*
X0023345Y0147773D01*
X0023382Y0147811D02*
X0029258Y0147811D01*
X0029220Y0147849D02*
X0023420Y0147849D01*
X0023458Y0147887D02*
X0029182Y0147887D01*
X0029144Y0147925D02*
X0023495Y0147925D01*
X0023533Y0147962D02*
X0029106Y0147962D01*
X0029067Y0148000D02*
X0023570Y0148000D01*
X0023608Y0148038D02*
X0029029Y0148038D01*
X0028991Y0148076D02*
X0023645Y0148076D01*
X0023696Y0148114D02*
X0028944Y0148114D01*
X0028883Y0148152D02*
X0023756Y0148152D01*
X0023816Y0148190D02*
X0028822Y0148190D01*
X0028761Y0148228D02*
X0023876Y0148228D01*
X0023935Y0148265D02*
X0028700Y0148265D01*
X0028640Y0148303D02*
X0023995Y0148303D01*
X0024055Y0148341D02*
X0028579Y0148341D01*
X0028518Y0148379D02*
X0024122Y0148379D01*
X0024229Y0148417D02*
X0028409Y0148417D01*
X0028299Y0148455D02*
X0024336Y0148455D01*
X0024443Y0148493D02*
X0028189Y0148493D01*
X0028080Y0148531D02*
X0024549Y0148531D01*
X0024768Y0148569D02*
X0027871Y0148569D01*
X0027522Y0148606D02*
X0025092Y0148606D01*
X0025125Y0114594D02*
X0024601Y0114533D01*
X0024105Y0114357D01*
X0023660Y0114075D01*
X0023289Y0113701D01*
X0023011Y0113254D01*
X0022839Y0112756D01*
X0022782Y0112232D01*
X0022825Y0111773D01*
X0022957Y0111331D01*
X0023173Y0110924D01*
X0023464Y0110566D01*
X0023819Y0110272D01*
X0024225Y0110053D01*
X0024666Y0109917D01*
X0025125Y0109870D01*
X0027487Y0109870D01*
X0027950Y0109914D01*
X0028395Y0110047D01*
X0028806Y0110264D01*
X0029167Y0110558D01*
X0029464Y0110916D01*
X0029684Y0111325D01*
X0029821Y0111770D01*
X0029869Y0112232D01*
X0029807Y0112760D01*
X0029630Y0113261D01*
X0029345Y0113709D01*
X0028968Y0114083D01*
X0028517Y0114364D01*
X0028015Y0114537D01*
X0027487Y0114594D01*
X0025125Y0114594D01*
X0025077Y0114589D02*
X0027538Y0114589D01*
X0027888Y0114551D02*
X0024753Y0114551D01*
X0024545Y0114513D02*
X0028085Y0114513D01*
X0028194Y0114475D02*
X0024438Y0114475D01*
X0024331Y0114437D02*
X0028304Y0114437D01*
X0028414Y0114399D02*
X0024224Y0114399D01*
X0024117Y0114362D02*
X0028521Y0114362D01*
X0028581Y0114324D02*
X0024052Y0114324D01*
X0023992Y0114286D02*
X0028642Y0114286D01*
X0028703Y0114248D02*
X0023933Y0114248D01*
X0023873Y0114210D02*
X0028764Y0114210D01*
X0028825Y0114172D02*
X0023813Y0114172D01*
X0023753Y0114134D02*
X0028886Y0114134D01*
X0028947Y0114096D02*
X0023694Y0114096D01*
X0023644Y0114059D02*
X0028993Y0114059D01*
X0029031Y0114021D02*
X0023606Y0114021D01*
X0023569Y0113983D02*
X0029069Y0113983D01*
X0029107Y0113945D02*
X0023531Y0113945D01*
X0023493Y0113907D02*
X0029146Y0113907D01*
X0029184Y0113869D02*
X0023456Y0113869D01*
X0023418Y0113831D02*
X0029222Y0113831D01*
X0029260Y0113793D02*
X0023381Y0113793D01*
X0023343Y0113756D02*
X0029298Y0113756D01*
X0029336Y0113718D02*
X0023306Y0113718D01*
X0023276Y0113680D02*
X0029364Y0113680D01*
X0029388Y0113642D02*
X0023252Y0113642D01*
X0023229Y0113604D02*
X0029412Y0113604D01*
X0029436Y0113566D02*
X0023205Y0113566D01*
X0023182Y0113528D02*
X0029460Y0113528D01*
X0029484Y0113490D02*
X0023158Y0113490D01*
X0023134Y0113452D02*
X0029508Y0113452D01*
X0029532Y0113415D02*
X0023111Y0113415D01*
X0023087Y0113377D02*
X0029556Y0113377D01*
X0029580Y0113339D02*
X0023064Y0113339D01*
X0023040Y0113301D02*
X0029604Y0113301D01*
X0029628Y0113263D02*
X0023017Y0113263D01*
X0023001Y0113225D02*
X0029642Y0113225D01*
X0029656Y0113187D02*
X0022988Y0113187D01*
X0022975Y0113149D02*
X0029669Y0113149D01*
X0029682Y0113112D02*
X0022962Y0113112D01*
X0022949Y0113074D02*
X0029696Y0113074D01*
X0029709Y0113036D02*
X0022936Y0113036D01*
X0022922Y0112998D02*
X0029723Y0112998D01*
X0029736Y0112960D02*
X0022909Y0112960D01*
X0022896Y0112922D02*
X0029750Y0112922D01*
X0029763Y0112884D02*
X0022883Y0112884D01*
X0022870Y0112846D02*
X0029776Y0112846D01*
X0029790Y0112808D02*
X0022857Y0112808D01*
X0022844Y0112771D02*
X0029803Y0112771D01*
X0029810Y0112733D02*
X0022836Y0112733D01*
X0022832Y0112695D02*
X0029815Y0112695D01*
X0029819Y0112657D02*
X0022828Y0112657D01*
X0022824Y0112619D02*
X0029824Y0112619D01*
X0029828Y0112581D02*
X0022820Y0112581D01*
X0022816Y0112543D02*
X0029832Y0112543D01*
X0029837Y0112505D02*
X0022812Y0112505D01*
X0022808Y0112468D02*
X0029841Y0112468D01*
X0029846Y0112430D02*
X0022804Y0112430D01*
X0022799Y0112392D02*
X0029850Y0112392D01*
X0029855Y0112354D02*
X0022795Y0112354D01*
X0022791Y0112316D02*
X0029859Y0112316D01*
X0029863Y0112278D02*
X0022787Y0112278D01*
X0022783Y0112240D02*
X0029868Y0112240D01*
X0029866Y0112202D02*
X0022785Y0112202D01*
X0022789Y0112164D02*
X0029862Y0112164D01*
X0029858Y0112127D02*
X0022792Y0112127D01*
X0022796Y0112089D02*
X0029854Y0112089D01*
X0029850Y0112051D02*
X0022799Y0112051D01*
X0022803Y0112013D02*
X0029846Y0112013D01*
X0029842Y0111975D02*
X0022806Y0111975D01*
X0022810Y0111937D02*
X0029838Y0111937D01*
X0029835Y0111899D02*
X0022814Y0111899D01*
X0022817Y0111861D02*
X0029831Y0111861D01*
X0029827Y0111824D02*
X0022821Y0111824D01*
X0022824Y0111786D02*
X0029823Y0111786D01*
X0029815Y0111748D02*
X0022833Y0111748D01*
X0022844Y0111710D02*
X0029803Y0111710D01*
X0029791Y0111672D02*
X0022856Y0111672D01*
X0022867Y0111634D02*
X0029780Y0111634D01*
X0029768Y0111596D02*
X0022878Y0111596D01*
X0022890Y0111558D02*
X0029756Y0111558D01*
X0029745Y0111521D02*
X0022901Y0111521D01*
X0022912Y0111483D02*
X0029733Y0111483D01*
X0029721Y0111445D02*
X0022924Y0111445D01*
X0022935Y0111407D02*
X0029710Y0111407D01*
X0029698Y0111369D02*
X0022946Y0111369D01*
X0022958Y0111331D02*
X0029686Y0111331D01*
X0029667Y0111293D02*
X0022978Y0111293D01*
X0022998Y0111255D02*
X0029647Y0111255D01*
X0029626Y0111217D02*
X0023018Y0111217D01*
X0023038Y0111180D02*
X0029606Y0111180D01*
X0029585Y0111142D02*
X0023058Y0111142D01*
X0023078Y0111104D02*
X0029565Y0111104D01*
X0029544Y0111066D02*
X0023098Y0111066D01*
X0023118Y0111028D02*
X0029524Y0111028D01*
X0029504Y0110990D02*
X0023138Y0110990D01*
X0023158Y0110952D02*
X0029483Y0110952D01*
X0029462Y0110914D02*
X0023181Y0110914D01*
X0023212Y0110877D02*
X0029431Y0110877D01*
X0029399Y0110839D02*
X0023242Y0110839D01*
X0023273Y0110801D02*
X0029368Y0110801D01*
X0029337Y0110763D02*
X0023304Y0110763D01*
X0023335Y0110725D02*
X0029305Y0110725D01*
X0029274Y0110687D02*
X0023366Y0110687D01*
X0023396Y0110649D02*
X0029243Y0110649D01*
X0029211Y0110611D02*
X0023427Y0110611D01*
X0023458Y0110573D02*
X0029180Y0110573D01*
X0029140Y0110536D02*
X0023501Y0110536D01*
X0023547Y0110498D02*
X0029093Y0110498D01*
X0029047Y0110460D02*
X0023592Y0110460D01*
X0023638Y0110422D02*
X0029000Y0110422D01*
X0028953Y0110384D02*
X0023684Y0110384D01*
X0023730Y0110346D02*
X0028907Y0110346D01*
X0028860Y0110308D02*
X0023776Y0110308D01*
X0023822Y0110270D02*
X0028814Y0110270D01*
X0028746Y0110233D02*
X0023892Y0110233D01*
X0023963Y0110195D02*
X0028675Y0110195D01*
X0028603Y0110157D02*
X0024033Y0110157D01*
X0024103Y0110119D02*
X0028531Y0110119D01*
X0028460Y0110081D02*
X0024173Y0110081D01*
X0024257Y0110043D02*
X0028383Y0110043D01*
X0028256Y0110005D02*
X0024380Y0110005D01*
X0024503Y0109967D02*
X0028129Y0109967D01*
X0028003Y0109929D02*
X0024626Y0109929D01*
X0024915Y0109892D02*
X0027715Y0109892D01*
X0038287Y0111728D02*
X0038255Y0112232D01*
X0038287Y0112737D01*
X0038431Y0113221D01*
X0038679Y0113661D01*
X0039019Y0114035D01*
X0039433Y0114324D01*
X0039901Y0114514D01*
X0040400Y0114594D01*
X0045125Y0114594D01*
X0045567Y0114534D01*
X0045988Y0114388D01*
X0046373Y0114162D01*
X0046706Y0113866D01*
X0046976Y0113510D01*
X0047171Y0113109D01*
X0047283Y0112678D01*
X0047310Y0112232D01*
X0047283Y0111787D01*
X0047171Y0111355D01*
X0046976Y0110954D01*
X0046706Y0110599D01*
X0046373Y0110302D01*
X0045988Y0110077D01*
X0045567Y0109931D01*
X0045125Y0109870D01*
X0040400Y0109870D01*
X0039901Y0109951D01*
X0039433Y0110140D01*
X0039019Y0110429D01*
X0038679Y0110803D01*
X0038431Y0111244D01*
X0038287Y0111728D01*
X0038292Y0111710D02*
X0047263Y0111710D01*
X0047273Y0111748D02*
X0038286Y0111748D01*
X0038283Y0111786D02*
X0047283Y0111786D01*
X0047285Y0111824D02*
X0038281Y0111824D01*
X0038278Y0111861D02*
X0047288Y0111861D01*
X0047290Y0111899D02*
X0038276Y0111899D01*
X0038274Y0111937D02*
X0047292Y0111937D01*
X0047294Y0111975D02*
X0038271Y0111975D01*
X0038269Y0112013D02*
X0047297Y0112013D01*
X0047299Y0112051D02*
X0038266Y0112051D01*
X0038264Y0112089D02*
X0047301Y0112089D01*
X0047303Y0112127D02*
X0038261Y0112127D01*
X0038259Y0112164D02*
X0047306Y0112164D01*
X0047308Y0112202D02*
X0038257Y0112202D01*
X0038255Y0112240D02*
X0047309Y0112240D01*
X0047307Y0112278D02*
X0038258Y0112278D01*
X0038260Y0112316D02*
X0047305Y0112316D01*
X0047302Y0112354D02*
X0038262Y0112354D01*
X0038265Y0112392D02*
X0047300Y0112392D01*
X0047298Y0112430D02*
X0038267Y0112430D01*
X0038270Y0112468D02*
X0047296Y0112468D01*
X0047294Y0112505D02*
X0038272Y0112505D01*
X0038275Y0112543D02*
X0047291Y0112543D01*
X0047289Y0112581D02*
X0038277Y0112581D01*
X0038279Y0112619D02*
X0047287Y0112619D01*
X0047285Y0112657D02*
X0038282Y0112657D01*
X0038284Y0112695D02*
X0047279Y0112695D01*
X0047269Y0112733D02*
X0038287Y0112733D01*
X0038297Y0112771D02*
X0047259Y0112771D01*
X0047249Y0112808D02*
X0038308Y0112808D01*
X0038320Y0112846D02*
X0047239Y0112846D01*
X0047229Y0112884D02*
X0038331Y0112884D01*
X0038342Y0112922D02*
X0047219Y0112922D01*
X0047209Y0112960D02*
X0038353Y0112960D01*
X0038365Y0112998D02*
X0047200Y0112998D01*
X0047190Y0113036D02*
X0038376Y0113036D01*
X0038387Y0113074D02*
X0047180Y0113074D01*
X0047169Y0113112D02*
X0038398Y0113112D01*
X0038410Y0113149D02*
X0047151Y0113149D01*
X0047133Y0113187D02*
X0038421Y0113187D01*
X0038433Y0113225D02*
X0047114Y0113225D01*
X0047096Y0113263D02*
X0038455Y0113263D01*
X0038476Y0113301D02*
X0047077Y0113301D01*
X0047059Y0113339D02*
X0038497Y0113339D01*
X0038519Y0113377D02*
X0047041Y0113377D01*
X0047022Y0113415D02*
X0038540Y0113415D01*
X0038561Y0113452D02*
X0047004Y0113452D01*
X0046985Y0113490D02*
X0038583Y0113490D01*
X0038604Y0113528D02*
X0046962Y0113528D01*
X0046934Y0113566D02*
X0038625Y0113566D01*
X0038647Y0113604D02*
X0046905Y0113604D01*
X0046876Y0113642D02*
X0038668Y0113642D01*
X0038696Y0113680D02*
X0046847Y0113680D01*
X0046819Y0113718D02*
X0038730Y0113718D01*
X0038764Y0113756D02*
X0046790Y0113756D01*
X0046761Y0113793D02*
X0038799Y0113793D01*
X0038833Y0113831D02*
X0046733Y0113831D01*
X0046703Y0113869D02*
X0038868Y0113869D01*
X0038902Y0113907D02*
X0046660Y0113907D01*
X0046617Y0113945D02*
X0038937Y0113945D01*
X0038971Y0113983D02*
X0046575Y0113983D01*
X0046532Y0114021D02*
X0039005Y0114021D01*
X0039052Y0114059D02*
X0046489Y0114059D01*
X0046447Y0114096D02*
X0039106Y0114096D01*
X0039161Y0114134D02*
X0046404Y0114134D01*
X0046356Y0114172D02*
X0039215Y0114172D01*
X0039269Y0114210D02*
X0046291Y0114210D01*
X0046226Y0114248D02*
X0039324Y0114248D01*
X0039378Y0114286D02*
X0046162Y0114286D01*
X0046097Y0114324D02*
X0039432Y0114324D01*
X0039525Y0114362D02*
X0046032Y0114362D01*
X0045953Y0114399D02*
X0039619Y0114399D01*
X0039712Y0114437D02*
X0045844Y0114437D01*
X0045735Y0114475D02*
X0039806Y0114475D01*
X0039900Y0114513D02*
X0045625Y0114513D01*
X0045440Y0114551D02*
X0040131Y0114551D01*
X0040366Y0114589D02*
X0045165Y0114589D01*
X0047253Y0111672D02*
X0038304Y0111672D01*
X0038315Y0111634D02*
X0047243Y0111634D01*
X0047233Y0111596D02*
X0038326Y0111596D01*
X0038337Y0111558D02*
X0047224Y0111558D01*
X0047214Y0111521D02*
X0038349Y0111521D01*
X0038360Y0111483D02*
X0047204Y0111483D01*
X0047194Y0111445D02*
X0038371Y0111445D01*
X0038382Y0111407D02*
X0047184Y0111407D01*
X0047174Y0111369D02*
X0038394Y0111369D01*
X0038405Y0111331D02*
X0047159Y0111331D01*
X0047140Y0111293D02*
X0038416Y0111293D01*
X0038427Y0111255D02*
X0047122Y0111255D01*
X0047104Y0111217D02*
X0038446Y0111217D01*
X0038467Y0111180D02*
X0047085Y0111180D01*
X0047067Y0111142D02*
X0038488Y0111142D01*
X0038510Y0111104D02*
X0047048Y0111104D01*
X0047030Y0111066D02*
X0038531Y0111066D01*
X0038552Y0111028D02*
X0047012Y0111028D01*
X0046993Y0110990D02*
X0038574Y0110990D01*
X0038595Y0110952D02*
X0046974Y0110952D01*
X0046946Y0110914D02*
X0038616Y0110914D01*
X0038638Y0110877D02*
X0046917Y0110877D01*
X0046888Y0110839D02*
X0038659Y0110839D01*
X0038681Y0110801D02*
X0046860Y0110801D01*
X0046831Y0110763D02*
X0038716Y0110763D01*
X0038750Y0110725D02*
X0046802Y0110725D01*
X0046773Y0110687D02*
X0038784Y0110687D01*
X0038819Y0110649D02*
X0046745Y0110649D01*
X0046716Y0110611D02*
X0038853Y0110611D01*
X0038888Y0110573D02*
X0046678Y0110573D01*
X0046635Y0110536D02*
X0038922Y0110536D01*
X0038956Y0110498D02*
X0046593Y0110498D01*
X0046550Y0110460D02*
X0038991Y0110460D01*
X0039029Y0110422D02*
X0046507Y0110422D01*
X0046465Y0110384D02*
X0039083Y0110384D01*
X0039138Y0110346D02*
X0046422Y0110346D01*
X0046379Y0110308D02*
X0039192Y0110308D01*
X0039246Y0110270D02*
X0046318Y0110270D01*
X0046254Y0110233D02*
X0039301Y0110233D01*
X0039355Y0110195D02*
X0046189Y0110195D01*
X0046124Y0110157D02*
X0039409Y0110157D01*
X0039486Y0110119D02*
X0046059Y0110119D01*
X0045995Y0110081D02*
X0039579Y0110081D01*
X0039673Y0110043D02*
X0045890Y0110043D01*
X0045781Y0110005D02*
X0039767Y0110005D01*
X0039860Y0109967D02*
X0045671Y0109967D01*
X0045555Y0109929D02*
X0040033Y0109929D01*
X0040267Y0109892D02*
X0045281Y0109892D01*
D28*
X0063373Y0180787D03*
X0059042Y0206378D03*
X0043294Y0206378D03*
X0031483Y0206378D03*
D29*
X0025184Y0193583D03*
X0052743Y0193583D03*
D30*
X0328648Y0077835D02*
X0328650Y0077940D01*
X0328656Y0078045D01*
X0328666Y0078149D01*
X0328680Y0078253D01*
X0328698Y0078357D01*
X0328720Y0078459D01*
X0328745Y0078561D01*
X0328775Y0078662D01*
X0328808Y0078761D01*
X0328845Y0078859D01*
X0328886Y0078956D01*
X0328931Y0079051D01*
X0328979Y0079144D01*
X0329030Y0079236D01*
X0329086Y0079325D01*
X0329144Y0079412D01*
X0329206Y0079497D01*
X0329270Y0079580D01*
X0329338Y0079660D01*
X0329409Y0079737D01*
X0329483Y0079811D01*
X0329560Y0079883D01*
X0329639Y0079952D01*
X0329721Y0080017D01*
X0329805Y0080080D01*
X0329892Y0080139D01*
X0329981Y0080195D01*
X0330072Y0080248D01*
X0330165Y0080297D01*
X0330259Y0080342D01*
X0330355Y0080384D01*
X0330453Y0080422D01*
X0330552Y0080456D01*
X0330653Y0080487D01*
X0330754Y0080513D01*
X0330857Y0080536D01*
X0330960Y0080555D01*
X0331064Y0080570D01*
X0331168Y0080581D01*
X0331273Y0080588D01*
X0331378Y0080591D01*
X0331483Y0080590D01*
X0331588Y0080585D01*
X0331692Y0080576D01*
X0331796Y0080563D01*
X0331900Y0080546D01*
X0332003Y0080525D01*
X0332105Y0080500D01*
X0332206Y0080472D01*
X0332305Y0080439D01*
X0332404Y0080403D01*
X0332501Y0080363D01*
X0332596Y0080320D01*
X0332690Y0080272D01*
X0332782Y0080222D01*
X0332872Y0080168D01*
X0332960Y0080110D01*
X0333045Y0080049D01*
X0333128Y0079985D01*
X0333209Y0079918D01*
X0333287Y0079848D01*
X0333362Y0079774D01*
X0333434Y0079699D01*
X0333504Y0079620D01*
X0333570Y0079539D01*
X0333634Y0079455D01*
X0333694Y0079369D01*
X0333750Y0079281D01*
X0333804Y0079190D01*
X0333854Y0079098D01*
X0333900Y0079004D01*
X0333943Y0078908D01*
X0333982Y0078810D01*
X0334017Y0078712D01*
X0334048Y0078611D01*
X0334076Y0078510D01*
X0334100Y0078408D01*
X0334120Y0078305D01*
X0334136Y0078201D01*
X0334148Y0078097D01*
X0334156Y0077992D01*
X0334160Y0077887D01*
X0334160Y0077783D01*
X0334156Y0077678D01*
X0334148Y0077573D01*
X0334136Y0077469D01*
X0334120Y0077365D01*
X0334100Y0077262D01*
X0334076Y0077160D01*
X0334048Y0077059D01*
X0334017Y0076958D01*
X0333982Y0076860D01*
X0333943Y0076762D01*
X0333900Y0076666D01*
X0333854Y0076572D01*
X0333804Y0076480D01*
X0333750Y0076389D01*
X0333694Y0076301D01*
X0333634Y0076215D01*
X0333570Y0076131D01*
X0333504Y0076050D01*
X0333434Y0075971D01*
X0333362Y0075896D01*
X0333287Y0075822D01*
X0333209Y0075752D01*
X0333128Y0075685D01*
X0333045Y0075621D01*
X0332960Y0075560D01*
X0332872Y0075502D01*
X0332782Y0075448D01*
X0332690Y0075398D01*
X0332596Y0075350D01*
X0332501Y0075307D01*
X0332404Y0075267D01*
X0332305Y0075231D01*
X0332206Y0075198D01*
X0332105Y0075170D01*
X0332003Y0075145D01*
X0331900Y0075124D01*
X0331796Y0075107D01*
X0331692Y0075094D01*
X0331588Y0075085D01*
X0331483Y0075080D01*
X0331378Y0075079D01*
X0331273Y0075082D01*
X0331168Y0075089D01*
X0331064Y0075100D01*
X0330960Y0075115D01*
X0330857Y0075134D01*
X0330754Y0075157D01*
X0330653Y0075183D01*
X0330552Y0075214D01*
X0330453Y0075248D01*
X0330355Y0075286D01*
X0330259Y0075328D01*
X0330165Y0075373D01*
X0330072Y0075422D01*
X0329981Y0075475D01*
X0329892Y0075531D01*
X0329805Y0075590D01*
X0329721Y0075653D01*
X0329639Y0075718D01*
X0329560Y0075787D01*
X0329483Y0075859D01*
X0329409Y0075933D01*
X0329338Y0076010D01*
X0329270Y0076090D01*
X0329206Y0076173D01*
X0329144Y0076258D01*
X0329086Y0076345D01*
X0329030Y0076434D01*
X0328979Y0076526D01*
X0328931Y0076619D01*
X0328886Y0076714D01*
X0328845Y0076811D01*
X0328808Y0076909D01*
X0328775Y0077008D01*
X0328745Y0077109D01*
X0328720Y0077211D01*
X0328698Y0077313D01*
X0328680Y0077417D01*
X0328666Y0077521D01*
X0328656Y0077625D01*
X0328650Y0077730D01*
X0328648Y0077835D01*
D31*
X0326286Y0074685D03*
X0336522Y0074685D03*
D32*
X0331404Y0077835D03*
X0331404Y0088150D03*
X0326680Y0088150D03*
X0336129Y0088150D03*
D33*
X0354436Y0102835D03*
X0354436Y0132835D03*
D34*
X0367991Y0146339D03*
X0367991Y0158937D03*
X0388282Y0158937D03*
X0388282Y0146339D03*
X0427046Y0146339D03*
X0427046Y0158937D03*
X0447337Y0158937D03*
X0447337Y0146339D03*
X0486101Y0146339D03*
X0486101Y0158937D03*
X0506392Y0158937D03*
X0506392Y0146339D03*
X0545156Y0146339D03*
X0545156Y0158937D03*
X0565448Y0158937D03*
X0565448Y0146339D03*
X0604211Y0146339D03*
X0604211Y0158937D03*
X0624503Y0158937D03*
X0624503Y0146339D03*
X0663266Y0146339D03*
X0663266Y0158937D03*
X0683558Y0158937D03*
X0683558Y0146339D03*
X0722322Y0146339D03*
X0722322Y0158937D03*
X0742613Y0158937D03*
X0742613Y0146339D03*
X0781377Y0146339D03*
X0781377Y0158937D03*
X0801668Y0158937D03*
X0801668Y0146339D03*
X0840432Y0146339D03*
X0840432Y0158937D03*
X0860723Y0158937D03*
X0860723Y0146339D03*
X0899487Y0146339D03*
X0899487Y0158937D03*
X0919778Y0158937D03*
X0919778Y0146339D03*
X0958542Y0146339D03*
X0958542Y0158937D03*
X0978833Y0158937D03*
X0978833Y0146339D03*
X1017597Y0146339D03*
X1017597Y0158937D03*
X1037888Y0158937D03*
X1037888Y0146339D03*
X1076652Y0146339D03*
X1076652Y0158937D03*
X1096944Y0158937D03*
X1096944Y0146339D03*
X1135707Y0146339D03*
X1135707Y0158937D03*
X1155999Y0158937D03*
X1155999Y0146339D03*
X1194762Y0146339D03*
X1194762Y0158937D03*
X1215054Y0158937D03*
X1215054Y0146339D03*
X1253818Y0146339D03*
X1253818Y0158937D03*
X1274109Y0158937D03*
X1274109Y0146339D03*
X1215054Y0099882D03*
X1215054Y0087283D03*
X1194762Y0087283D03*
X1194762Y0099882D03*
X1155999Y0099882D03*
X1155999Y0087283D03*
X1135707Y0087283D03*
X1135707Y0099882D03*
X1096944Y0099882D03*
X1096944Y0087283D03*
X1076652Y0087283D03*
X1076652Y0099882D03*
X1037888Y0099882D03*
X1037888Y0087283D03*
X1017597Y0087283D03*
X1017597Y0099882D03*
X0978833Y0099882D03*
X0978833Y0087283D03*
X0958542Y0087283D03*
X0958542Y0099882D03*
X0919778Y0099882D03*
X0919778Y0087283D03*
X0899487Y0087283D03*
X0899487Y0099882D03*
X0860723Y0099882D03*
X0860723Y0087283D03*
X0840432Y0087283D03*
X0840432Y0099882D03*
X0806589Y0099882D03*
X0806589Y0087283D03*
X0786298Y0087283D03*
X0786298Y0099882D03*
X0742613Y0099882D03*
X0742613Y0087283D03*
X0722322Y0087283D03*
X0722322Y0099882D03*
X0683558Y0099882D03*
X0683558Y0087283D03*
X0663266Y0087283D03*
X0663266Y0099882D03*
X0624503Y0099882D03*
X0624503Y0087283D03*
X0604211Y0087283D03*
X0604211Y0099882D03*
X0565448Y0099882D03*
X0565448Y0087283D03*
X0545156Y0087283D03*
X0545156Y0099882D03*
X0506392Y0099882D03*
X0506392Y0087283D03*
X0486101Y0087283D03*
X0486101Y0099882D03*
X0447337Y0099882D03*
X0447337Y0087283D03*
X0427046Y0087283D03*
X0427046Y0099882D03*
X0388282Y0099882D03*
X0388282Y0087283D03*
X0367991Y0087283D03*
X0367991Y0099882D03*
X0367991Y0205394D03*
X0367991Y0217992D03*
X0388282Y0217992D03*
X0388282Y0205394D03*
X0427046Y0205394D03*
X0427046Y0217992D03*
X0447337Y0217992D03*
X0447337Y0205394D03*
X0486101Y0205394D03*
X0486101Y0217992D03*
X0506392Y0217992D03*
X0506392Y0205394D03*
X0545156Y0205394D03*
X0545156Y0217992D03*
X0565448Y0217992D03*
X0565448Y0205394D03*
X0604211Y0205394D03*
X0604211Y0217992D03*
X0624503Y0217992D03*
X0624503Y0205394D03*
X0663266Y0205394D03*
X0663266Y0217992D03*
X0683558Y0217992D03*
X0683558Y0205394D03*
X0722322Y0205394D03*
X0722322Y0217992D03*
X0742613Y0217992D03*
X0742613Y0205394D03*
X0781377Y0205394D03*
X0781377Y0217992D03*
X0801668Y0217992D03*
X0801668Y0205394D03*
X0840432Y0205394D03*
X0840432Y0217992D03*
X0860723Y0217992D03*
X0860723Y0205394D03*
X0899487Y0205394D03*
X0899487Y0217992D03*
X0919778Y0217992D03*
X0919778Y0205394D03*
X0958542Y0205394D03*
X0958542Y0217992D03*
X0978833Y0217992D03*
X0978833Y0205394D03*
X1017597Y0205394D03*
X1017597Y0217992D03*
X1037888Y0217992D03*
X1037888Y0205394D03*
X1076652Y0205394D03*
X1076652Y0217992D03*
X1096944Y0217992D03*
X1096944Y0205394D03*
X1135707Y0205394D03*
X1135707Y0217992D03*
X1155999Y0217992D03*
X1155999Y0205394D03*
X1194762Y0205394D03*
X1194762Y0217992D03*
X1215054Y0217992D03*
X1215054Y0205394D03*
X1253818Y0205394D03*
X1253818Y0217992D03*
X1274109Y0217992D03*
X1274109Y0205394D03*
X1274109Y0264449D03*
X1274109Y0277047D03*
X1253818Y0277047D03*
X1253818Y0264449D03*
X1215054Y0264449D03*
X1215054Y0277047D03*
X1194762Y0277047D03*
X1194762Y0264449D03*
X1155999Y0264449D03*
X1155999Y0277047D03*
X1135707Y0277047D03*
X1135707Y0264449D03*
X1096944Y0264449D03*
X1096944Y0277047D03*
X1076652Y0277047D03*
X1076652Y0264449D03*
X1037888Y0264449D03*
X1037888Y0277047D03*
X1017597Y0277047D03*
X1017597Y0264449D03*
X0978833Y0264449D03*
X0978833Y0277047D03*
X0958542Y0277047D03*
X0958542Y0264449D03*
X0919778Y0264449D03*
X0919778Y0277047D03*
X0899487Y0277047D03*
X0899487Y0264449D03*
X0860723Y0264449D03*
X0860723Y0277047D03*
X0840432Y0277047D03*
X0840432Y0264449D03*
X0801668Y0264449D03*
X0801668Y0277047D03*
X0781377Y0277047D03*
X0781377Y0264449D03*
X0742613Y0264449D03*
X0742613Y0277047D03*
X0722322Y0277047D03*
X0722322Y0264449D03*
X0683558Y0264449D03*
X0683558Y0277047D03*
X0663266Y0277047D03*
X0663266Y0264449D03*
X0624503Y0264449D03*
X0624503Y0277047D03*
X0604211Y0277047D03*
X0604211Y0264449D03*
X0565448Y0264449D03*
X0565448Y0277047D03*
X0545156Y0277047D03*
X0545156Y0264449D03*
X0506392Y0264449D03*
X0506392Y0277047D03*
X0486101Y0277047D03*
X0486101Y0264449D03*
X0447337Y0264449D03*
X0447337Y0277047D03*
X0427046Y0277047D03*
X0427046Y0264449D03*
X0388282Y0264449D03*
X0388282Y0277047D03*
X0367991Y0277047D03*
X0367991Y0264449D03*
X0329227Y0264449D03*
X0329227Y0277047D03*
X0308936Y0277047D03*
X0308936Y0264449D03*
X0270172Y0264449D03*
X0270172Y0277047D03*
X0249881Y0277047D03*
X0249881Y0264449D03*
X0211117Y0264449D03*
X0211117Y0277047D03*
X0190825Y0277047D03*
X0190825Y0264449D03*
X0152062Y0264449D03*
X0152062Y0277047D03*
X0131770Y0277047D03*
X0131770Y0264449D03*
X0093007Y0264449D03*
X0093007Y0277047D03*
X0072715Y0277047D03*
X0072715Y0264449D03*
X0131770Y0217992D03*
X0131770Y0205394D03*
X0152062Y0205394D03*
X0152062Y0217992D03*
X0190825Y0217992D03*
X0190825Y0205394D03*
X0211117Y0205394D03*
X0211117Y0217992D03*
X0249881Y0217992D03*
X0249881Y0205394D03*
X0270172Y0205394D03*
X0270172Y0217992D03*
X0308936Y0217992D03*
X0308936Y0205394D03*
X0329227Y0205394D03*
X0329227Y0217992D03*
X0329227Y0323504D03*
X0329227Y0336102D03*
X0308936Y0336102D03*
X0308936Y0323504D03*
X0270172Y0323504D03*
X0270172Y0336102D03*
X0249881Y0336102D03*
X0249881Y0323504D03*
X0211117Y0323504D03*
X0211117Y0336102D03*
X0190825Y0336102D03*
X0190825Y0323504D03*
X0152062Y0323504D03*
X0152062Y0336102D03*
X0131770Y0336102D03*
X0131770Y0323504D03*
X0093007Y0323504D03*
X0093007Y0336102D03*
X0072715Y0336102D03*
X0072715Y0323504D03*
X0072715Y0382559D03*
X0072715Y0395157D03*
X0093007Y0395157D03*
X0093007Y0382559D03*
X0131770Y0382559D03*
X0131770Y0395157D03*
X0152062Y0395157D03*
X0152062Y0382559D03*
X0190825Y0382559D03*
X0190825Y0395157D03*
X0211117Y0395157D03*
X0211117Y0382559D03*
X0249881Y0382559D03*
X0249881Y0395157D03*
X0270172Y0395157D03*
X0270172Y0382559D03*
X0308936Y0382559D03*
X0308936Y0395157D03*
X0329227Y0395157D03*
X0329227Y0382559D03*
X0367991Y0382559D03*
X0367991Y0395157D03*
X0388282Y0395157D03*
X0388282Y0382559D03*
X0427046Y0382559D03*
X0427046Y0395157D03*
X0447337Y0395157D03*
X0447337Y0382559D03*
X0486101Y0382559D03*
X0486101Y0395157D03*
X0506392Y0395157D03*
X0506392Y0382559D03*
X0545156Y0382559D03*
X0545156Y0395157D03*
X0565448Y0395157D03*
X0565448Y0382559D03*
X0604211Y0382559D03*
X0604211Y0395157D03*
X0624503Y0395157D03*
X0624503Y0382559D03*
X0663266Y0382559D03*
X0663266Y0395157D03*
X0683558Y0395157D03*
X0683558Y0382559D03*
X0722322Y0382559D03*
X0722322Y0395157D03*
X0742613Y0395157D03*
X0742613Y0382559D03*
X0781377Y0382559D03*
X0781377Y0395157D03*
X0801668Y0395157D03*
X0801668Y0382559D03*
X0840432Y0382559D03*
X0840432Y0395157D03*
X0860723Y0395157D03*
X0860723Y0382559D03*
X0899487Y0382559D03*
X0899487Y0395157D03*
X0919778Y0395157D03*
X0919778Y0382559D03*
X0958542Y0382559D03*
X0958542Y0395157D03*
X0978833Y0395157D03*
X0978833Y0382559D03*
X1017597Y0382559D03*
X1017597Y0395157D03*
X1037888Y0395157D03*
X1037888Y0382559D03*
X1076652Y0382559D03*
X1076652Y0395157D03*
X1096944Y0395157D03*
X1096944Y0382559D03*
X1135707Y0382559D03*
X1135707Y0395157D03*
X1155999Y0395157D03*
X1155999Y0382559D03*
X1194762Y0382559D03*
X1194762Y0395157D03*
X1215054Y0395157D03*
X1215054Y0382559D03*
X1253818Y0382559D03*
X1253818Y0395157D03*
X1274109Y0395157D03*
X1274109Y0382559D03*
X1274109Y0336102D03*
X1274109Y0323504D03*
X1253818Y0323504D03*
X1253818Y0336102D03*
X1215054Y0336102D03*
X1215054Y0323504D03*
X1194762Y0323504D03*
X1194762Y0336102D03*
X1155999Y0336102D03*
X1155999Y0323504D03*
X1135707Y0323504D03*
X1135707Y0336102D03*
X1096944Y0336102D03*
X1096944Y0323504D03*
X1076652Y0323504D03*
X1076652Y0336102D03*
X1037888Y0336102D03*
X1037888Y0323504D03*
X1017597Y0323504D03*
X1017597Y0336102D03*
X0978833Y0336102D03*
X0978833Y0323504D03*
X0958542Y0323504D03*
X0958542Y0336102D03*
X0919778Y0336102D03*
X0919778Y0323504D03*
X0899487Y0323504D03*
X0899487Y0336102D03*
X0860723Y0336102D03*
X0860723Y0323504D03*
X0840432Y0323504D03*
X0840432Y0336102D03*
X0801668Y0336102D03*
X0801668Y0323504D03*
X0781377Y0323504D03*
X0781377Y0336102D03*
X0742613Y0336102D03*
X0742613Y0323504D03*
X0722322Y0323504D03*
X0722322Y0336102D03*
X0683558Y0336102D03*
X0683558Y0323504D03*
X0663266Y0323504D03*
X0663266Y0336102D03*
X0624503Y0336102D03*
X0624503Y0323504D03*
X0604211Y0323504D03*
X0604211Y0336102D03*
X0565448Y0336102D03*
X0565448Y0323504D03*
X0545156Y0323504D03*
X0545156Y0336102D03*
X0506392Y0336102D03*
X0506392Y0323504D03*
X0486101Y0323504D03*
X0486101Y0336102D03*
X0447337Y0336102D03*
X0447337Y0323504D03*
X0427046Y0323504D03*
X0427046Y0336102D03*
X0388282Y0336102D03*
X0388282Y0323504D03*
X0367991Y0323504D03*
X0367991Y0336102D03*
X0367991Y0441614D03*
X0367991Y0454213D03*
X0388282Y0454213D03*
X0388282Y0441614D03*
X0427046Y0441614D03*
X0427046Y0454213D03*
X0447337Y0454213D03*
X0447337Y0441614D03*
X0486101Y0441614D03*
X0486101Y0454213D03*
X0506392Y0454213D03*
X0506392Y0441614D03*
X0545156Y0441614D03*
X0545156Y0454213D03*
X0565448Y0454213D03*
X0565448Y0441614D03*
X0604211Y0441614D03*
X0604211Y0454213D03*
X0624503Y0454213D03*
X0624503Y0441614D03*
X0663266Y0441614D03*
X0663266Y0454213D03*
X0683558Y0454213D03*
X0683558Y0441614D03*
X0722322Y0441614D03*
X0722322Y0454213D03*
X0742613Y0454213D03*
X0742613Y0441614D03*
X0781377Y0441614D03*
X0781377Y0454213D03*
X0801668Y0454213D03*
X0801668Y0441614D03*
X0840432Y0441614D03*
X0840432Y0454213D03*
X0860723Y0454213D03*
X0860723Y0441614D03*
X0899487Y0441614D03*
X0899487Y0454213D03*
X0919778Y0454213D03*
X0919778Y0441614D03*
X0958542Y0441614D03*
X0958542Y0454213D03*
X0978833Y0454213D03*
X0978833Y0441614D03*
X1017597Y0441614D03*
X1017597Y0454213D03*
X1037888Y0454213D03*
X1037888Y0441614D03*
X1076652Y0441614D03*
X1076652Y0454213D03*
X1096944Y0454213D03*
X1096944Y0441614D03*
X1135707Y0441614D03*
X1135707Y0454213D03*
X1155999Y0454213D03*
X1155999Y0441614D03*
X1194762Y0441614D03*
X1194762Y0454213D03*
X1215054Y0454213D03*
X1215054Y0441614D03*
X1253818Y0441614D03*
X1253818Y0454213D03*
X1274109Y0454213D03*
X1274109Y0441614D03*
X1274109Y0500669D03*
X1274109Y0513268D03*
X1253818Y0513268D03*
X1253818Y0500669D03*
X1215054Y0500669D03*
X1215054Y0513268D03*
X1194762Y0513268D03*
X1194762Y0500669D03*
X1155999Y0500669D03*
X1155999Y0513268D03*
X1135707Y0513268D03*
X1135707Y0500669D03*
X1096944Y0500669D03*
X1096944Y0513268D03*
X1076652Y0513268D03*
X1076652Y0500669D03*
X1037888Y0500669D03*
X1037888Y0513268D03*
X1017597Y0513268D03*
X1017597Y0500669D03*
X0978833Y0500669D03*
X0978833Y0513268D03*
X0958542Y0513268D03*
X0958542Y0500669D03*
X0919778Y0500669D03*
X0919778Y0513268D03*
X0899487Y0513268D03*
X0899487Y0500669D03*
X0860723Y0500669D03*
X0860723Y0513268D03*
X0840432Y0513268D03*
X0840432Y0500669D03*
X0801668Y0500669D03*
X0801668Y0513268D03*
X0781377Y0513268D03*
X0781377Y0500669D03*
X0742613Y0500669D03*
X0742613Y0513268D03*
X0722322Y0513268D03*
X0722322Y0500669D03*
X0683558Y0500669D03*
X0683558Y0513268D03*
X0663266Y0513268D03*
X0663266Y0500669D03*
X0624503Y0500669D03*
X0624503Y0513268D03*
X0604211Y0513268D03*
X0604211Y0500669D03*
X0565448Y0500669D03*
X0565448Y0513268D03*
X0545156Y0513268D03*
X0545156Y0500669D03*
X0506392Y0500669D03*
X0506392Y0513268D03*
X0486101Y0513268D03*
X0486101Y0500669D03*
X0447337Y0500669D03*
X0447337Y0513268D03*
X0427046Y0513268D03*
X0427046Y0500669D03*
X0388282Y0500669D03*
X0388282Y0513268D03*
X0367991Y0513268D03*
X0367991Y0500669D03*
X0329227Y0500669D03*
X0329227Y0513268D03*
X0308936Y0513268D03*
X0308936Y0500669D03*
X0270172Y0500669D03*
X0270172Y0513268D03*
X0249881Y0513268D03*
X0249881Y0500669D03*
X0211117Y0500669D03*
X0211117Y0513268D03*
X0190825Y0513268D03*
X0190825Y0500669D03*
X0152062Y0500669D03*
X0152062Y0513268D03*
X0131770Y0513268D03*
X0131770Y0500669D03*
X0093007Y0500669D03*
X0093007Y0513268D03*
X0072715Y0513268D03*
X0072715Y0500669D03*
X0072715Y0454213D03*
X0072715Y0441614D03*
X0093007Y0441614D03*
X0093007Y0454213D03*
X0131770Y0454213D03*
X0131770Y0441614D03*
X0152062Y0441614D03*
X0152062Y0454213D03*
X0190825Y0454213D03*
X0190825Y0441614D03*
X0211117Y0441614D03*
X0211117Y0454213D03*
X0249881Y0454213D03*
X0249881Y0441614D03*
X0270172Y0441614D03*
X0270172Y0454213D03*
X0308936Y0454213D03*
X0308936Y0441614D03*
X0329227Y0441614D03*
X0329227Y0454213D03*
X0329227Y0559724D03*
X0329227Y0572323D03*
X0308936Y0572323D03*
X0308936Y0559724D03*
X0270172Y0559724D03*
X0270172Y0572323D03*
X0249881Y0572323D03*
X0249881Y0559724D03*
X0211117Y0559724D03*
X0211117Y0572323D03*
X0190825Y0572323D03*
X0190825Y0559724D03*
X0152062Y0559724D03*
X0152062Y0572323D03*
X0131770Y0572323D03*
X0131770Y0559724D03*
X0093007Y0559724D03*
X0093007Y0572323D03*
X0072715Y0572323D03*
X0072715Y0559724D03*
X0072715Y0618780D03*
X0072715Y0631378D03*
X0093007Y0631378D03*
X0093007Y0618780D03*
X0131770Y0618780D03*
X0131770Y0631378D03*
X0152062Y0631378D03*
X0152062Y0618780D03*
X0190825Y0618780D03*
X0190825Y0631378D03*
X0211117Y0631378D03*
X0211117Y0618780D03*
X0249881Y0618780D03*
X0249881Y0631378D03*
X0270172Y0631378D03*
X0270172Y0618780D03*
X0308936Y0618780D03*
X0308936Y0631378D03*
X0329227Y0631378D03*
X0329227Y0618780D03*
X0367991Y0618780D03*
X0367991Y0631378D03*
X0388282Y0631378D03*
X0388282Y0618780D03*
X0427046Y0618780D03*
X0427046Y0631378D03*
X0447337Y0631378D03*
X0447337Y0618780D03*
X0486101Y0618780D03*
X0486101Y0631378D03*
X0506392Y0631378D03*
X0506392Y0618780D03*
X0545156Y0618780D03*
X0545156Y0631378D03*
X0565448Y0631378D03*
X0565448Y0618780D03*
X0604211Y0618780D03*
X0604211Y0631378D03*
X0624503Y0631378D03*
X0624503Y0618780D03*
X0663266Y0618780D03*
X0663266Y0631378D03*
X0683558Y0631378D03*
X0683558Y0618780D03*
X0722322Y0618780D03*
X0722322Y0631378D03*
X0742613Y0631378D03*
X0742613Y0618780D03*
X0781377Y0618780D03*
X0781377Y0631378D03*
X0801668Y0631378D03*
X0801668Y0618780D03*
X0840432Y0618780D03*
X0840432Y0631378D03*
X0860723Y0631378D03*
X0860723Y0618780D03*
X0899487Y0618780D03*
X0899487Y0631378D03*
X0919778Y0631378D03*
X0919778Y0618780D03*
X0958542Y0618780D03*
X0958542Y0631378D03*
X0978833Y0631378D03*
X0978833Y0618780D03*
X1017597Y0618780D03*
X1017597Y0631378D03*
X1037888Y0631378D03*
X1037888Y0618780D03*
X1076652Y0618780D03*
X1076652Y0631378D03*
X1096944Y0631378D03*
X1096944Y0618780D03*
X1135707Y0618780D03*
X1135707Y0631378D03*
X1155999Y0631378D03*
X1155999Y0618780D03*
X1194762Y0618780D03*
X1194762Y0631378D03*
X1215054Y0631378D03*
X1215054Y0618780D03*
X1253818Y0618780D03*
X1253818Y0631378D03*
X1274109Y0631378D03*
X1274109Y0618780D03*
X1274109Y0572323D03*
X1274109Y0559724D03*
X1253818Y0559724D03*
X1253818Y0572323D03*
X1215054Y0572323D03*
X1215054Y0559724D03*
X1194762Y0559724D03*
X1194762Y0572323D03*
X1155999Y0572323D03*
X1155999Y0559724D03*
X1135707Y0559724D03*
X1135707Y0572323D03*
X1096944Y0572323D03*
X1096944Y0559724D03*
X1076652Y0559724D03*
X1076652Y0572323D03*
X1037888Y0572323D03*
X1037888Y0559724D03*
X1017597Y0559724D03*
X1017597Y0572323D03*
X0978833Y0572323D03*
X0978833Y0559724D03*
X0958542Y0559724D03*
X0958542Y0572323D03*
X0919778Y0572323D03*
X0919778Y0559724D03*
X0899487Y0559724D03*
X0899487Y0572323D03*
X0860723Y0572323D03*
X0860723Y0559724D03*
X0840432Y0559724D03*
X0840432Y0572323D03*
X0801668Y0572323D03*
X0801668Y0559724D03*
X0781377Y0559724D03*
X0781377Y0572323D03*
X0742613Y0572323D03*
X0742613Y0559724D03*
X0722322Y0559724D03*
X0722322Y0572323D03*
X0683558Y0572323D03*
X0683558Y0559724D03*
X0663266Y0559724D03*
X0663266Y0572323D03*
X0624503Y0572323D03*
X0624503Y0559724D03*
X0604211Y0559724D03*
X0604211Y0572323D03*
X0565448Y0572323D03*
X0565448Y0559724D03*
X0545156Y0559724D03*
X0545156Y0572323D03*
X0506392Y0572323D03*
X0506392Y0559724D03*
X0486101Y0559724D03*
X0486101Y0572323D03*
X0447337Y0572323D03*
X0447337Y0559724D03*
X0427046Y0559724D03*
X0427046Y0572323D03*
X0388282Y0572323D03*
X0388282Y0559724D03*
X0367991Y0559724D03*
X0367991Y0572323D03*
X0367991Y0677835D03*
X0367991Y0690433D03*
X0388282Y0690433D03*
X0388282Y0677835D03*
X0427046Y0677835D03*
X0427046Y0690433D03*
X0447337Y0690433D03*
X0447337Y0677835D03*
X0486101Y0677835D03*
X0486101Y0690433D03*
X0506392Y0690433D03*
X0506392Y0677835D03*
X0545156Y0677835D03*
X0545156Y0690433D03*
X0565448Y0690433D03*
X0565448Y0677835D03*
X0604211Y0677835D03*
X0604211Y0690433D03*
X0624503Y0690433D03*
X0624503Y0677835D03*
X0663266Y0677835D03*
X0663266Y0690433D03*
X0683558Y0690433D03*
X0683558Y0677835D03*
X0722322Y0677835D03*
X0722322Y0690433D03*
X0742613Y0690433D03*
X0742613Y0677835D03*
X0781377Y0677835D03*
X0781377Y0690433D03*
X0801668Y0690433D03*
X0801668Y0677835D03*
X0840432Y0677835D03*
X0840432Y0690433D03*
X0860723Y0690433D03*
X0860723Y0677835D03*
X0899487Y0677835D03*
X0899487Y0690433D03*
X0919778Y0690433D03*
X0919778Y0677835D03*
X0958542Y0677835D03*
X0958542Y0690433D03*
X0978833Y0690433D03*
X0978833Y0677835D03*
X1017597Y0677835D03*
X1017597Y0690433D03*
X1037888Y0690433D03*
X1037888Y0677835D03*
X1076652Y0677835D03*
X1076652Y0690433D03*
X1096944Y0690433D03*
X1096944Y0677835D03*
X1135707Y0677835D03*
X1135707Y0690433D03*
X1155999Y0690433D03*
X1155999Y0677835D03*
X1194762Y0677835D03*
X1194762Y0690433D03*
X1215054Y0690433D03*
X1215054Y0677835D03*
X1253818Y0677835D03*
X1253818Y0690433D03*
X1274109Y0690433D03*
X1274109Y0677835D03*
X1274109Y0736890D03*
X1274109Y0749488D03*
X1253818Y0749488D03*
X1253818Y0736890D03*
X1215054Y0736890D03*
X1215054Y0749488D03*
X1194762Y0749488D03*
X1194762Y0736890D03*
X1155999Y0736890D03*
X1155999Y0749488D03*
X1135707Y0749488D03*
X1135707Y0736890D03*
X1096944Y0736890D03*
X1096944Y0749488D03*
X1076652Y0749488D03*
X1076652Y0736890D03*
X1037888Y0736890D03*
X1037888Y0749488D03*
X1017597Y0749488D03*
X1017597Y0736890D03*
X0978833Y0736890D03*
X0978833Y0749488D03*
X0958542Y0749488D03*
X0958542Y0736890D03*
X0919778Y0736890D03*
X0919778Y0749488D03*
X0899487Y0749488D03*
X0899487Y0736890D03*
X0860723Y0736890D03*
X0860723Y0749488D03*
X0840432Y0749488D03*
X0840432Y0736890D03*
X0801668Y0736890D03*
X0801668Y0749488D03*
X0781377Y0749488D03*
X0781377Y0736890D03*
X0742613Y0736890D03*
X0742613Y0749488D03*
X0722322Y0749488D03*
X0722322Y0736890D03*
X0683558Y0736890D03*
X0683558Y0749488D03*
X0663266Y0749488D03*
X0663266Y0736890D03*
X0624503Y0736890D03*
X0624503Y0749488D03*
X0604211Y0749488D03*
X0604211Y0736890D03*
X0565448Y0736890D03*
X0565448Y0749488D03*
X0545156Y0749488D03*
X0545156Y0736890D03*
X0506392Y0736890D03*
X0506392Y0749488D03*
X0486101Y0749488D03*
X0486101Y0736890D03*
X0447337Y0736890D03*
X0447337Y0749488D03*
X0427046Y0749488D03*
X0427046Y0736890D03*
X0388282Y0736890D03*
X0388282Y0749488D03*
X0367991Y0749488D03*
X0367991Y0736890D03*
X0329227Y0736890D03*
X0329227Y0749488D03*
X0308936Y0749488D03*
X0308936Y0736890D03*
X0270172Y0736890D03*
X0270172Y0749488D03*
X0249881Y0749488D03*
X0249881Y0736890D03*
X0211117Y0736890D03*
X0211117Y0749488D03*
X0190825Y0749488D03*
X0190825Y0736890D03*
X0152062Y0736890D03*
X0152062Y0749488D03*
X0131770Y0749488D03*
X0131770Y0736890D03*
X0093007Y0736890D03*
X0093007Y0749488D03*
X0072715Y0749488D03*
X0072715Y0736890D03*
X0072715Y0690433D03*
X0072715Y0677835D03*
X0093007Y0677835D03*
X0093007Y0690433D03*
X0131770Y0690433D03*
X0131770Y0677835D03*
X0152062Y0677835D03*
X0152062Y0690433D03*
X0190825Y0690433D03*
X0190825Y0677835D03*
X0211117Y0677835D03*
X0211117Y0690433D03*
X0249881Y0690433D03*
X0249881Y0677835D03*
X0270172Y0677835D03*
X0270172Y0690433D03*
X0308936Y0690433D03*
X0308936Y0677835D03*
X0329227Y0677835D03*
X0329227Y0690433D03*
X0329227Y0795945D03*
X0329227Y0808543D03*
X0308936Y0808543D03*
X0308936Y0795945D03*
X0270172Y0795945D03*
X0270172Y0808543D03*
X0249881Y0808543D03*
X0249881Y0795945D03*
X0211117Y0795945D03*
X0211117Y0808543D03*
X0190825Y0808543D03*
X0190825Y0795945D03*
X0152062Y0795945D03*
X0152062Y0808543D03*
X0131770Y0808543D03*
X0131770Y0795945D03*
X0367991Y0795945D03*
X0367991Y0808543D03*
X0388282Y0808543D03*
X0388282Y0795945D03*
X0427046Y0795945D03*
X0427046Y0808543D03*
X0447337Y0808543D03*
X0447337Y0795945D03*
X0486101Y0795945D03*
X0486101Y0808543D03*
X0506392Y0808543D03*
X0506392Y0795945D03*
X0545156Y0795945D03*
X0545156Y0808543D03*
X0565448Y0808543D03*
X0565448Y0795945D03*
X0604211Y0795945D03*
X0604211Y0808543D03*
X0624503Y0808543D03*
X0624503Y0795945D03*
X0663266Y0795945D03*
X0663266Y0808543D03*
X0683558Y0808543D03*
X0683558Y0795945D03*
X0722322Y0795945D03*
X0722322Y0808543D03*
X0742613Y0808543D03*
X0742613Y0795945D03*
X0781377Y0795945D03*
X0781377Y0808543D03*
X0801668Y0808543D03*
X0801668Y0795945D03*
X0840432Y0795945D03*
X0840432Y0808543D03*
X0860723Y0808543D03*
X0860723Y0795945D03*
X0899487Y0795945D03*
X0899487Y0808543D03*
X0919778Y0808543D03*
X0919778Y0795945D03*
X0958542Y0795945D03*
X0958542Y0808543D03*
X0978833Y0808543D03*
X0978833Y0795945D03*
X1017597Y0795945D03*
X1017597Y0808543D03*
X1037888Y0808543D03*
X1037888Y0795945D03*
X1076652Y0795945D03*
X1076652Y0808543D03*
X1096944Y0808543D03*
X1096944Y0795945D03*
X1135707Y0795945D03*
X1135707Y0808543D03*
X1155999Y0808543D03*
X1155999Y0795945D03*
X1194762Y0795945D03*
X1194762Y0808543D03*
X1215054Y0808543D03*
X1215054Y0795945D03*
D35*
X1206508Y0802244D03*
X1203308Y0802244D03*
X1147453Y0802244D03*
X1144253Y0802244D03*
X1088398Y0802244D03*
X1085198Y0802244D03*
X1029343Y0802244D03*
X1026143Y0802244D03*
X0970288Y0802244D03*
X0967088Y0802244D03*
X0911233Y0802244D03*
X0908033Y0802244D03*
X0852177Y0802244D03*
X0848977Y0802244D03*
X0793122Y0802244D03*
X0789922Y0802244D03*
X0734067Y0802244D03*
X0730867Y0802244D03*
X0675012Y0802244D03*
X0671812Y0802244D03*
X0615957Y0802244D03*
X0612757Y0802244D03*
X0556902Y0802244D03*
X0553702Y0802244D03*
X0497847Y0802244D03*
X0494647Y0802244D03*
X0438792Y0802244D03*
X0435592Y0802244D03*
X0379736Y0802244D03*
X0376536Y0802244D03*
X0320681Y0802244D03*
X0317481Y0802244D03*
X0261626Y0802244D03*
X0258426Y0802244D03*
X0202571Y0802244D03*
X0199371Y0802244D03*
X0143516Y0802244D03*
X0140316Y0802244D03*
X0140316Y0743189D03*
X0143516Y0743189D03*
X0199371Y0743189D03*
X0202571Y0743189D03*
X0258426Y0743189D03*
X0261626Y0743189D03*
X0317481Y0743189D03*
X0320681Y0743189D03*
X0376536Y0743189D03*
X0379736Y0743189D03*
X0435592Y0743189D03*
X0438792Y0743189D03*
X0494647Y0743189D03*
X0497847Y0743189D03*
X0553702Y0743189D03*
X0556902Y0743189D03*
X0612757Y0743189D03*
X0615957Y0743189D03*
X0671812Y0743189D03*
X0675012Y0743189D03*
X0730867Y0743189D03*
X0734067Y0743189D03*
X0789922Y0743189D03*
X0793122Y0743189D03*
X0848977Y0743189D03*
X0852177Y0743189D03*
X0908033Y0743189D03*
X0911233Y0743189D03*
X0967088Y0743189D03*
X0970288Y0743189D03*
X1026143Y0743189D03*
X1029343Y0743189D03*
X1085198Y0743189D03*
X1088398Y0743189D03*
X1144253Y0743189D03*
X1147453Y0743189D03*
X1203308Y0743189D03*
X1206508Y0743189D03*
X1262363Y0743189D03*
X1265563Y0743189D03*
X1265563Y0684134D03*
X1262363Y0684134D03*
X1206508Y0684134D03*
X1203308Y0684134D03*
X1147453Y0684134D03*
X1144253Y0684134D03*
X1088398Y0684134D03*
X1085198Y0684134D03*
X1029343Y0684134D03*
X1026143Y0684134D03*
X0970288Y0684134D03*
X0967088Y0684134D03*
X0911233Y0684134D03*
X0908033Y0684134D03*
X0852177Y0684134D03*
X0848977Y0684134D03*
X0793122Y0684134D03*
X0789922Y0684134D03*
X0734067Y0684134D03*
X0730867Y0684134D03*
X0675012Y0684134D03*
X0671812Y0684134D03*
X0615957Y0684134D03*
X0612757Y0684134D03*
X0556902Y0684134D03*
X0553702Y0684134D03*
X0497847Y0684134D03*
X0494647Y0684134D03*
X0438792Y0684134D03*
X0435592Y0684134D03*
X0379736Y0684134D03*
X0376536Y0684134D03*
X0320681Y0684134D03*
X0317481Y0684134D03*
X0261626Y0684134D03*
X0258426Y0684134D03*
X0202571Y0684134D03*
X0199371Y0684134D03*
X0143516Y0684134D03*
X0140316Y0684134D03*
X0084461Y0684134D03*
X0081261Y0684134D03*
X0081261Y0743189D03*
X0084461Y0743189D03*
X0084461Y0625079D03*
X0081261Y0625079D03*
X0140316Y0625079D03*
X0143516Y0625079D03*
X0199371Y0625079D03*
X0202571Y0625079D03*
X0258426Y0625079D03*
X0261626Y0625079D03*
X0317481Y0625079D03*
X0320681Y0625079D03*
X0376536Y0625079D03*
X0379736Y0625079D03*
X0435592Y0625079D03*
X0438792Y0625079D03*
X0494647Y0625079D03*
X0497847Y0625079D03*
X0553702Y0625079D03*
X0556902Y0625079D03*
X0612757Y0625079D03*
X0615957Y0625079D03*
X0671812Y0625079D03*
X0675012Y0625079D03*
X0730867Y0625079D03*
X0734067Y0625079D03*
X0789922Y0625079D03*
X0793122Y0625079D03*
X0848977Y0625079D03*
X0852177Y0625079D03*
X0908033Y0625079D03*
X0911233Y0625079D03*
X0967088Y0625079D03*
X0970288Y0625079D03*
X1026143Y0625079D03*
X1029343Y0625079D03*
X1085198Y0625079D03*
X1088398Y0625079D03*
X1144253Y0625079D03*
X1147453Y0625079D03*
X1203308Y0625079D03*
X1206508Y0625079D03*
X1262363Y0625079D03*
X1265563Y0625079D03*
X1265563Y0566024D03*
X1262363Y0566024D03*
X1206508Y0566024D03*
X1203308Y0566024D03*
X1147453Y0566024D03*
X1144253Y0566024D03*
X1088398Y0566024D03*
X1085198Y0566024D03*
X1029343Y0566024D03*
X1026143Y0566024D03*
X0970288Y0566024D03*
X0967088Y0566024D03*
X0911233Y0566024D03*
X0908033Y0566024D03*
X0852177Y0566024D03*
X0848977Y0566024D03*
X0793122Y0566024D03*
X0789922Y0566024D03*
X0734067Y0566024D03*
X0730867Y0566024D03*
X0675012Y0566024D03*
X0671812Y0566024D03*
X0615957Y0566024D03*
X0612757Y0566024D03*
X0556902Y0566024D03*
X0553702Y0566024D03*
X0497847Y0566024D03*
X0494647Y0566024D03*
X0438792Y0566024D03*
X0435592Y0566024D03*
X0379736Y0566024D03*
X0376536Y0566024D03*
X0320681Y0566024D03*
X0317481Y0566024D03*
X0261626Y0566024D03*
X0258426Y0566024D03*
X0202571Y0566024D03*
X0199371Y0566024D03*
X0143516Y0566024D03*
X0140316Y0566024D03*
X0084461Y0566024D03*
X0081261Y0566024D03*
X0081261Y0506969D03*
X0084461Y0506969D03*
X0140316Y0506969D03*
X0143516Y0506969D03*
X0199371Y0506969D03*
X0202571Y0506969D03*
X0258426Y0506969D03*
X0261626Y0506969D03*
X0317481Y0506969D03*
X0320681Y0506969D03*
X0376536Y0506969D03*
X0379736Y0506969D03*
X0435592Y0506969D03*
X0438792Y0506969D03*
X0494647Y0506969D03*
X0497847Y0506969D03*
X0553702Y0506969D03*
X0556902Y0506969D03*
X0612757Y0506969D03*
X0615957Y0506969D03*
X0671812Y0506969D03*
X0675012Y0506969D03*
X0730867Y0506969D03*
X0734067Y0506969D03*
X0789922Y0506969D03*
X0793122Y0506969D03*
X0848977Y0506969D03*
X0852177Y0506969D03*
X0908033Y0506969D03*
X0911233Y0506969D03*
X0967088Y0506969D03*
X0970288Y0506969D03*
X1026143Y0506969D03*
X1029343Y0506969D03*
X1085198Y0506969D03*
X1088398Y0506969D03*
X1144253Y0506969D03*
X1147453Y0506969D03*
X1203308Y0506969D03*
X1206508Y0506969D03*
X1262363Y0506969D03*
X1265563Y0506969D03*
X1265563Y0447913D03*
X1262363Y0447913D03*
X1206508Y0447913D03*
X1203308Y0447913D03*
X1147453Y0447913D03*
X1144253Y0447913D03*
X1088398Y0447913D03*
X1085198Y0447913D03*
X1029343Y0447913D03*
X1026143Y0447913D03*
X0970288Y0447913D03*
X0967088Y0447913D03*
X0911233Y0447913D03*
X0908033Y0447913D03*
X0852177Y0447913D03*
X0848977Y0447913D03*
X0793122Y0447913D03*
X0789922Y0447913D03*
X0734067Y0447913D03*
X0730867Y0447913D03*
X0675012Y0447913D03*
X0671812Y0447913D03*
X0615957Y0447913D03*
X0612757Y0447913D03*
X0556902Y0447913D03*
X0553702Y0447913D03*
X0497847Y0447913D03*
X0494647Y0447913D03*
X0438792Y0447913D03*
X0435592Y0447913D03*
X0379736Y0447913D03*
X0376536Y0447913D03*
X0320681Y0447913D03*
X0317481Y0447913D03*
X0261626Y0447913D03*
X0258426Y0447913D03*
X0202571Y0447913D03*
X0199371Y0447913D03*
X0143516Y0447913D03*
X0140316Y0447913D03*
X0084461Y0447913D03*
X0081261Y0447913D03*
X0081261Y0388858D03*
X0084461Y0388858D03*
X0140316Y0388858D03*
X0143516Y0388858D03*
X0199371Y0388858D03*
X0202571Y0388858D03*
X0258426Y0388858D03*
X0261626Y0388858D03*
X0317481Y0388858D03*
X0320681Y0388858D03*
X0376536Y0388858D03*
X0379736Y0388858D03*
X0435592Y0388858D03*
X0438792Y0388858D03*
X0494647Y0388858D03*
X0497847Y0388858D03*
X0553702Y0388858D03*
X0556902Y0388858D03*
X0612757Y0388858D03*
X0615957Y0388858D03*
X0671812Y0388858D03*
X0675012Y0388858D03*
X0730867Y0388858D03*
X0734067Y0388858D03*
X0789922Y0388858D03*
X0793122Y0388858D03*
X0848977Y0388858D03*
X0852177Y0388858D03*
X0908033Y0388858D03*
X0911233Y0388858D03*
X0967088Y0388858D03*
X0970288Y0388858D03*
X1026143Y0388858D03*
X1029343Y0388858D03*
X1085198Y0388858D03*
X1088398Y0388858D03*
X1144253Y0388858D03*
X1147453Y0388858D03*
X1203308Y0388858D03*
X1206508Y0388858D03*
X1262363Y0388858D03*
X1265563Y0388858D03*
X1265563Y0329803D03*
X1262363Y0329803D03*
X1206508Y0329803D03*
X1203308Y0329803D03*
X1147453Y0329803D03*
X1144253Y0329803D03*
X1088398Y0329803D03*
X1085198Y0329803D03*
X1029343Y0329803D03*
X1026143Y0329803D03*
X0970288Y0329803D03*
X0967088Y0329803D03*
X0911233Y0329803D03*
X0908033Y0329803D03*
X0852177Y0329803D03*
X0848977Y0329803D03*
X0793122Y0329803D03*
X0789922Y0329803D03*
X0734067Y0329803D03*
X0730867Y0329803D03*
X0675012Y0329803D03*
X0671812Y0329803D03*
X0615957Y0329803D03*
X0612757Y0329803D03*
X0556902Y0329803D03*
X0553702Y0329803D03*
X0497847Y0329803D03*
X0494647Y0329803D03*
X0438792Y0329803D03*
X0435592Y0329803D03*
X0379736Y0329803D03*
X0376536Y0329803D03*
X0320681Y0329803D03*
X0317481Y0329803D03*
X0261626Y0329803D03*
X0258426Y0329803D03*
X0202571Y0329803D03*
X0199371Y0329803D03*
X0143516Y0329803D03*
X0140316Y0329803D03*
X0084461Y0329803D03*
X0081261Y0329803D03*
X0081261Y0270748D03*
X0084461Y0270748D03*
X0140316Y0270748D03*
X0143516Y0270748D03*
X0199371Y0270748D03*
X0202571Y0270748D03*
X0258426Y0270748D03*
X0261626Y0270748D03*
X0317481Y0270748D03*
X0320681Y0270748D03*
X0376536Y0270748D03*
X0379736Y0270748D03*
X0435592Y0270748D03*
X0438792Y0270748D03*
X0494647Y0270748D03*
X0497847Y0270748D03*
X0553702Y0270748D03*
X0556902Y0270748D03*
X0612757Y0270748D03*
X0615957Y0270748D03*
X0671812Y0270748D03*
X0675012Y0270748D03*
X0730867Y0270748D03*
X0734067Y0270748D03*
X0789922Y0270748D03*
X0793122Y0270748D03*
X0848977Y0270748D03*
X0852177Y0270748D03*
X0908033Y0270748D03*
X0911233Y0270748D03*
X0967088Y0270748D03*
X0970288Y0270748D03*
X1026143Y0270748D03*
X1029343Y0270748D03*
X1085198Y0270748D03*
X1088398Y0270748D03*
X1144253Y0270748D03*
X1147453Y0270748D03*
X1203308Y0270748D03*
X1206508Y0270748D03*
X1262363Y0270748D03*
X1265563Y0270748D03*
X1265563Y0211693D03*
X1262363Y0211693D03*
X1206508Y0211693D03*
X1203308Y0211693D03*
X1147453Y0211693D03*
X1144253Y0211693D03*
X1088398Y0211693D03*
X1085198Y0211693D03*
X1029343Y0211693D03*
X1026143Y0211693D03*
X0970288Y0211693D03*
X0967088Y0211693D03*
X0911233Y0211693D03*
X0908033Y0211693D03*
X0852177Y0211693D03*
X0848977Y0211693D03*
X0793122Y0211693D03*
X0789922Y0211693D03*
X0734067Y0211693D03*
X0730867Y0211693D03*
X0675012Y0211693D03*
X0671812Y0211693D03*
X0615957Y0211693D03*
X0612757Y0211693D03*
X0556902Y0211693D03*
X0553702Y0211693D03*
X0497847Y0211693D03*
X0494647Y0211693D03*
X0438792Y0211693D03*
X0435592Y0211693D03*
X0379736Y0211693D03*
X0376536Y0211693D03*
X0320681Y0211693D03*
X0317481Y0211693D03*
X0261626Y0211693D03*
X0258426Y0211693D03*
X0202571Y0211693D03*
X0199371Y0211693D03*
X0143516Y0211693D03*
X0140316Y0211693D03*
X0376536Y0152638D03*
X0379736Y0152638D03*
X0435592Y0152638D03*
X0438792Y0152638D03*
X0494647Y0152638D03*
X0497847Y0152638D03*
X0553702Y0152638D03*
X0556902Y0152638D03*
X0612757Y0152638D03*
X0615957Y0152638D03*
X0671812Y0152638D03*
X0675012Y0152638D03*
X0730867Y0152638D03*
X0734067Y0152638D03*
X0789922Y0152638D03*
X0793122Y0152638D03*
X0848977Y0152638D03*
X0852177Y0152638D03*
X0908033Y0152638D03*
X0911233Y0152638D03*
X0967088Y0152638D03*
X0970288Y0152638D03*
X1026143Y0152638D03*
X1029343Y0152638D03*
X1085198Y0152638D03*
X1088398Y0152638D03*
X1144253Y0152638D03*
X1147453Y0152638D03*
X1203308Y0152638D03*
X1206508Y0152638D03*
X1262363Y0152638D03*
X1265563Y0152638D03*
X1206508Y0093583D03*
X1203308Y0093583D03*
X1147453Y0093583D03*
X1144253Y0093583D03*
X1088398Y0093583D03*
X1085198Y0093583D03*
X1029343Y0093583D03*
X1026143Y0093583D03*
X0970288Y0093583D03*
X0967088Y0093583D03*
X0911233Y0093583D03*
X0908033Y0093583D03*
X0852177Y0093583D03*
X0848977Y0093583D03*
X0798044Y0093583D03*
X0794844Y0093583D03*
X0734067Y0093583D03*
X0730867Y0093583D03*
X0675012Y0093583D03*
X0671812Y0093583D03*
X0615957Y0093583D03*
X0612757Y0093583D03*
X0556902Y0093583D03*
X0553702Y0093583D03*
X0497847Y0093583D03*
X0494647Y0093583D03*
X0438792Y0093583D03*
X0435592Y0093583D03*
X0379736Y0093583D03*
X0376536Y0093583D03*
M02*
